<?xml version="1.0" encoding="UTF-8" standalone="no"?>
<!DOCTYPE svg PUBLIC "-//W3C//DTD SVG 1.1//EN" "http://www.w3.org/Graphics/SVG/1.1/DTD/svg11.dtd">
<svg width="100%" height="100%" viewBox="0 0 243 213" version="1.1" xmlns="http://www.w3.org/2000/svg" xmlns:xlink="http://www.w3.org/1999/xlink" xml:space="preserve" xmlns:serif="http://www.serif.com/" style="fill-rule:evenodd;clip-rule:evenodd;stroke-miterlimit:2;">
    <g>
        <path d="M128.771,4.814L241.596,200.149C242.171,201.589 242.675,202.957 242.675,204.397C242.675,209.222 238.715,212.893 234.18,212.893L8.603,212.893C3.779,212.893 0.107,209.222 0.107,204.397C0.107,202.957 0.395,201.589 1.187,200.149L114.012,4.814C117.107,-0.802 125.388,-0.802 128.771,4.814Z" style="fill:rgb(211,63,39);fill-rule:nonzero;"/>
        <path d="M128.771,4.814L241.596,200.149C242.171,201.589 242.675,202.957 242.675,204.397C242.675,209.222 238.715,212.893 234.18,212.893L8.603,212.893C3.779,212.893 0.107,209.222 0.107,204.397C0.107,202.957 0.395,201.589 1.187,200.149L114.012,4.814C117.107,-0.802 125.388,-0.802 128.771,4.814Z" style="fill:none;stroke:rgb(211,63,39);stroke-width:0.22px;"/>
        <path d="M204.731,187.406L38.051,187.406L121.428,43.118L204.731,187.406Z" style="fill:white;fill-rule:nonzero;"/>
        <path d="M204.731,187.406L38.051,187.406L121.428,43.118L204.731,187.406Z" style="fill:none;stroke:white;stroke-width:0.22px;"/>
        <path d="M134.171,82.79C134.46,82.214 135.252,82.214 135.54,82.79L150.012,103.238L150.012,103.453C150.012,104.03 149.724,104.317 149.436,104.317L142.38,102.95L142.38,131.246C142.38,141.182 134.46,149.101 124.523,149.101C121.428,149.101 118.26,148.525 115.739,146.869L103.788,140.03C103.5,139.742 102.996,139.742 102.419,139.742C100.691,139.742 99.251,140.893 99.251,142.91L99.251,179.702L83.987,179.702L83.987,141.758C83.987,127.862 98.748,119.366 110.628,126.421L122.507,133.262C122.795,133.262 123.372,133.55 123.947,133.55C125.677,133.55 127.044,132.109 127.044,130.381L127.044,102.95L120.275,104.317C119.987,104.317 119.412,104.03 119.412,103.453C119.412,103.453 119.701,103.453 119.701,103.238L134.171,82.79Z" style="fill:rgb(35,31,32);fill-rule:nonzero;"/>
        <path d="M134.171,82.79C134.46,82.214 135.252,82.214 135.54,82.79L150.012,103.238L150.012,103.453C150.012,104.03 149.724,104.317 149.436,104.317L142.38,102.95L142.38,131.246C142.38,141.182 134.46,149.101 124.523,149.101C121.428,149.101 118.26,148.525 115.739,146.869L103.788,140.03C103.5,139.742 102.996,139.742 102.419,139.742C100.691,139.742 99.251,140.893 99.251,142.91L99.251,179.702L83.987,179.702L83.987,141.758C83.987,127.862 98.748,119.366 110.628,126.421L122.507,133.262C122.795,133.262 123.372,133.55 123.947,133.55C125.677,133.55 127.044,132.109 127.044,130.381L127.044,102.95L120.275,104.317C119.987,104.317 119.412,104.03 119.412,103.453C119.412,103.453 119.701,103.453 119.701,103.238L134.171,82.79Z" style="fill:none;stroke:rgb(35,31,32);stroke-width:0.22px;"/>
    </g>
</svg>
