<?xml version="1.0" encoding="UTF-8" standalone="no"?>
<!DOCTYPE svg PUBLIC "-//W3C//DTD SVG 1.1//EN" "http://www.w3.org/Graphics/SVG/1.1/DTD/svg11.dtd">
<svg width="100%" height="100%" viewBox="0 0 596 596" version="1.1" xmlns="http://www.w3.org/2000/svg" xmlns:xlink="http://www.w3.org/1999/xlink" xml:space="preserve" xmlns:serif="http://www.serif.com/" style="fill-rule:evenodd;clip-rule:evenodd;stroke-linecap:round;stroke-linejoin:round;stroke-miterlimit:2;">
    <g>
        <path d="M594.922,298.363C594.922,134.178 461.823,1.079 297.638,1.079C133.453,1.079 0.354,134.178 0.354,298.363C0.354,462.547 133.453,595.647 297.638,595.647C461.823,595.647 594.922,462.547 594.922,298.363Z" style="fill:rgb(211,63,39);fill-rule:nonzero;"/>
        <path d="M594.922,298.363C594.922,134.178 461.823,1.079 297.638,1.079C133.453,1.079 0.354,134.178 0.354,298.363C0.354,462.547 133.453,595.647 297.638,595.647C461.823,595.647 594.922,462.547 594.922,298.363Z" style="fill:none;stroke:rgb(211,63,39);stroke-width:0.71px;"/>
        <path d="M467.887,442.334C542.748,353.809 537.275,222.683 455.297,140.704C373.317,58.726 242.191,53.253 153.666,128.115L467.887,442.334Z" style="fill:white;fill-rule:nonzero;"/>
        <path d="M467.887,442.334C542.748,353.809 537.275,222.683 455.297,140.704C373.317,58.726 242.191,53.253 153.666,128.115L467.887,442.334Z" style="fill:none;stroke:white;stroke-width:0.71px;"/>
        <path d="M441.61,468.611L127.389,154.391C52.527,242.916 58,374.042 139.979,456.021C221.958,538 353.084,543.474 441.61,468.611Z" style="fill:white;fill-rule:nonzero;"/>
        <path d="M441.61,468.611L127.389,154.391C52.527,242.916 58,374.042 139.979,456.021C221.958,538 353.084,543.474 441.61,468.611Z" style="fill:none;stroke:white;stroke-width:0.71px;"/>
        <path d="M319.039,182.587C315.064,176.132 309.497,170.807 302.871,167.124C291.245,160.664 276.705,163.025 267.721,172.833C255.775,185.876 249.148,202.921 249.148,220.608L249.148,223.597L323.213,297.662L323.213,238.092L334.521,256.458L334.521,308.97L351.955,326.403L360.069,326.403L360.069,249.223L319.039,182.587Z" style="fill:rgb(35,31,32);fill-rule:nonzero;"/>
        <path d="M319.039,182.587C315.064,176.132 309.497,170.807 302.871,167.124C291.245,160.664 276.705,163.025 267.721,172.833C255.775,185.876 249.148,202.921 249.148,220.608L249.148,223.597L323.213,297.662L323.213,238.092L334.521,256.458L334.521,308.97L351.955,326.403L360.069,326.403L360.069,249.223L319.039,182.587Z" style="fill:none;stroke:black;stroke-width:0.71px;"/>
        <path d="M233.12,260.121L196.777,303.44L216.376,319.631L249.148,279.963L249.148,312.676L206.136,472.654L245.61,483.267L283.426,342.621L283.426,395.319L334.646,481.97L369.835,461.169L323.213,382.298L323.213,350.214L233.12,260.121Z" style="fill:rgb(35,31,32);fill-rule:nonzero;"/>
        <path d="M233.12,260.121L196.777,303.44L216.376,319.631L249.148,279.963L249.148,312.676L206.136,472.654L245.61,483.267L283.426,342.621L283.426,395.319L334.646,481.97L369.835,461.169L323.213,382.298L323.213,350.214L233.12,260.121Z" style="fill:none;stroke:black;stroke-width:0.71px;"/>
        <path d="M313.203,124.007C313.203,107.076 299.479,93.35 282.546,93.35C265.615,93.35 251.889,107.076 251.889,124.007C251.889,140.939 265.615,154.665 282.546,154.665C299.479,154.665 313.203,140.939 313.203,124.007Z" style="fill:rgb(35,31,32);fill-rule:nonzero;"/>
        <path d="M313.203,124.007C313.203,107.076 299.479,93.35 282.546,93.35C265.615,93.35 251.889,107.076 251.889,124.007C251.889,140.939 265.615,154.665 282.546,154.665C299.479,154.665 313.203,140.939 313.203,124.007Z" style="fill:none;stroke:rgb(35,31,32);stroke-width:0.71px;"/>
    </g>
</svg>
