<?xml version="1.0" encoding="UTF-8" standalone="no"?>
<!DOCTYPE svg PUBLIC "-//W3C//DTD SVG 1.1//EN" "http://www.w3.org/Graphics/SVG/1.1/DTD/svg11.dtd">
<svg width="100%" height="100%" viewBox="0 0 297 297" version="1.1" xmlns="http://www.w3.org/2000/svg" xmlns:xlink="http://www.w3.org/1999/xlink" xml:space="preserve" xmlns:serif="http://www.serif.com/" style="fill-rule:evenodd;clip-rule:evenodd;stroke-linejoin:round;stroke-miterlimit:2;">
    <g transform="matrix(1,0,0,1,0.00100285,-39.776)">
        <g transform="matrix(0.945193,0,0,0.942661,7.6482,10.3368)">
            <rect x="0.107" y="39.884" width="296.007" height="296.008" style="fill:rgb(0,64,128);"/>
        </g>
        <path d="M22.877,335.892C16.834,335.896 11.066,333.501 6.79,329.229C2.515,324.959 0.111,319.164 0.107,313.124L0.107,62.655C0.104,56.612 2.5,50.843 6.771,46.57C11.04,42.293 16.834,39.888 22.877,39.884L273.345,39.884C279.388,39.88 285.156,42.278 289.433,46.547C293.706,50.816 296.111,56.612 296.114,62.655L296.114,313.124C296.118,319.164 293.721,324.933 289.451,329.21C285.182,333.487 279.388,335.888 273.345,335.892L22.877,335.892ZM22.877,324.508L273.345,324.508C276.366,324.504 279.264,323.306 281.398,321.167C283.532,319.029 284.731,316.143 284.731,313.124L284.731,62.655C284.728,59.633 283.524,56.736 281.389,54.601C279.251,52.466 276.366,51.267 273.345,51.271L22.877,51.271C19.855,51.271 16.96,52.474 14.825,54.612C12.688,56.751 11.491,59.633 11.491,62.655L11.491,313.124C11.495,316.143 12.695,319.04 14.834,321.175C16.971,323.313 19.855,324.508 22.877,324.508Z" style="fill:white;"/>
        <path d="M66.139,290.354L230.084,290.354C235.522,290.35 240.734,288.185 244.579,284.337C248.422,280.489 250.579,275.298 250.575,269.861L250.575,105.915C250.572,100.477 248.409,95.264 244.561,91.42C240.712,87.579 235.522,85.422 230.084,85.426L66.139,85.426C60.701,85.426 55.486,87.591 51.644,91.439C47.801,95.287 45.644,100.477 45.646,105.915L45.646,269.861C45.649,275.298 47.814,280.515 51.663,284.356C55.511,288.201 60.701,290.358 66.139,290.354Z" style="fill:white;"/>
        <path d="M66.139,290.354L230.084,290.354C235.522,290.35 240.734,288.185 244.579,284.337C248.422,280.489 250.579,275.298 250.575,269.861L250.575,105.915C250.572,100.477 248.409,95.264 244.561,91.42C240.712,87.579 235.522,85.422 230.084,85.426L66.139,85.426C60.701,85.426 55.486,87.591 51.644,91.439C47.801,95.287 45.644,100.477 45.646,105.915L45.646,269.861C45.649,275.298 47.814,280.515 51.663,284.356C55.511,288.201 60.701,290.358 66.139,290.354Z" style="fill:none;stroke:white;stroke-width:0.22px;"/>
        <path d="M148.818,115.525L163.53,115.525L163.53,126.634C163.297,134.586 156.772,140.915 148.818,140.923C141.886,140.927 135.747,136.435 133.637,129.832C131.523,123.202 131.523,116.077 133.637,109.448C135.463,103.675 140.404,99.44 146.387,98.515C152.368,97.595 158.403,100.214 161.884,105.167L156.145,108.903C154.322,106.118 151.077,104.607 147.771,105.009C144.468,105.408 141.691,107.602 140.582,110.744C138.534,116.498 138.534,122.782 140.582,128.536C141.824,132.023 145.118,134.349 148.818,134.349C150.866,134.349 152.828,133.534 154.275,132.083C155.722,130.637 156.534,128.682 156.532,126.634L156.532,122.109L148.818,122.109L148.818,115.525ZM118.506,99.087L118.506,127.273L103.494,99.087L95.679,99.087L95.679,140.212L102.673,140.212L102.673,112.413L117.479,140.212L125.499,140.212L125.499,99.087L118.506,99.087ZM89.012,105.682L83.213,109.343C81.559,106.483 78.4,104.84 75.11,105.126C71.82,105.411 69.007,107.527 67.87,110.628C65.696,116.502 65.694,122.954 67.87,128.825C69.025,131.918 71.867,134.064 75.159,134.331C78.449,134.598 81.574,132.978 83.213,130.11L89.012,133.771C85.836,138.837 80.037,141.633 74.095,140.964C68.155,140.291 63.095,136.195 61.126,130.55C58.702,123.541 58.704,115.915 61.126,108.903C63.065,103.246 68.075,99.203 74.011,98.5C79.949,97.798 85.81,100.635 89.012,105.682Z" style="fill:rgb(35,31,32);"/>
        <path d="M148.818,115.525L163.53,115.525L163.53,126.634C163.297,134.586 156.772,140.915 148.818,140.923C141.886,140.927 135.747,136.435 133.637,129.832C131.523,123.202 131.523,116.077 133.637,109.448C135.463,103.675 140.404,99.44 146.387,98.515C152.368,97.595 158.403,100.214 161.884,105.167L156.145,108.903C154.322,106.118 151.077,104.607 147.771,105.009C144.468,105.408 141.691,107.602 140.582,110.744C138.534,116.498 138.534,122.782 140.582,128.536C141.824,132.023 145.118,134.349 148.818,134.349C150.866,134.349 152.828,133.534 154.275,132.083C155.722,130.637 156.534,128.682 156.532,126.634L156.532,122.109L148.818,122.109L148.818,115.525ZM118.506,99.087L118.506,127.273L103.494,99.087L95.679,99.087L95.679,140.212L102.673,140.212L102.673,112.413L117.479,140.212L125.499,140.212L125.499,99.087L118.506,99.087ZM89.012,105.682L83.213,109.343C81.559,106.483 78.4,104.84 75.11,105.126C71.82,105.411 69.007,107.527 67.87,110.628C65.696,116.502 65.694,122.954 67.87,128.825C69.025,131.918 71.867,134.064 75.159,134.331C78.449,134.598 81.574,132.978 83.213,130.11L89.012,133.771C85.836,138.837 80.037,141.633 74.095,140.964C68.155,140.291 63.095,136.195 61.126,130.55C58.702,123.541 58.704,115.915 61.126,108.903C63.065,103.246 68.075,99.203 74.011,98.5C79.949,97.798 85.81,100.635 89.012,105.682Z" style="fill:none;stroke:rgb(35,31,32);stroke-width:0.22px;"/>
        <path d="M223.868,137.732L187.99,137.732C184.527,137.736 181.208,139.111 178.762,141.562C176.315,144.012 174.939,147.315 174.943,150.781L174.943,156.012L187.99,156.012L187.99,150.435L223.868,150.435L223.868,173.267L205.59,173.267L205.59,258.412L236.914,258.412L236.914,150.781C236.912,147.315 235.533,143.997 233.085,141.55C230.635,139.104 227.329,137.732 223.868,137.732Z" style="fill:rgb(0,64,128);"/>
        <path d="M223.868,137.732L187.99,137.732C184.527,137.736 181.208,139.111 178.762,141.562C176.315,144.012 174.939,147.315 174.943,150.781L174.943,156.012L187.99,156.012L187.99,150.435L223.868,150.435L223.868,173.267L205.59,173.267L205.59,258.412L236.914,258.412L236.914,150.781C236.912,147.315 235.533,143.997 233.085,141.55C230.635,139.104 227.329,137.732 223.868,137.732Z" style="fill:none;stroke:rgb(0,91,169);stroke-width:0.22px;"/>
        <path d="M143.619,178.844L130.981,178.844C126.474,178.844 122.545,181.926 121.478,186.304L106.435,247.89C105.542,252.234 107.033,257.519 110.573,260.183C114.117,262.851 118.878,263.239 122.806,261.179C126.733,259.119 129.121,254.982 128.94,250.554L128.72,195.335L136.574,188.285L143.619,188.285L143.619,178.844ZM115.105,184.767C116.883,177.457 123.426,172.324 130.948,172.32L143.619,172.32L143.619,169.057C143.617,165.596 144.991,162.288 147.438,159.842C149.884,157.391 153.202,156.012 156.665,156.012L192.543,156.012C196.007,156.008 199.312,157.38 201.76,159.827C204.211,162.273 205.588,165.596 205.59,169.057L205.59,276.693L143.619,276.693L143.619,204.592L135.465,204.592L135.465,250.599C135.866,257.473 132.275,261.889 126.239,265.201C120.203,268.515 112.8,268.06 107.213,264.035C101.628,260.006 98.858,253.125 100.097,246.353L115.105,184.767ZM192.543,168.716L156.665,168.716L156.665,191.547L192.543,191.547L192.543,168.716Z" style="fill:rgb(35,31,32);"/>
        <path d="M143.619,178.844L130.981,178.844C126.474,178.844 122.545,181.926 121.478,186.304L106.435,247.89C105.542,252.234 107.033,257.519 110.573,260.183C114.117,262.851 118.878,263.239 122.806,261.179C126.733,259.119 129.121,254.982 128.94,250.554L128.72,195.335L136.574,188.285L143.619,188.285L143.619,178.844ZM115.105,184.767C116.883,177.457 123.426,172.324 130.948,172.32L143.619,172.32L143.619,169.057C143.617,165.596 144.991,162.288 147.438,159.842C149.884,157.391 153.202,156.012 156.665,156.012L192.543,156.012C196.007,156.008 199.312,157.38 201.76,159.827C204.211,162.273 205.588,165.596 205.59,169.057L205.59,276.693L143.619,276.693L143.619,204.592L135.465,204.592L135.465,250.599C135.866,257.473 132.275,261.889 126.239,265.201C120.203,268.515 112.8,268.06 107.213,264.035C101.628,260.006 98.858,253.125 100.097,246.353L115.105,184.767ZM192.543,168.716L156.665,168.716L156.665,191.547L192.543,191.547L192.543,168.716Z" style="fill:none;stroke:rgb(35,31,32);stroke-width:0.22px;"/>
    </g>
</svg>
