<?xml version="1.0" encoding="UTF-8" standalone="no"?>
<!DOCTYPE svg PUBLIC "-//W3C//DTD SVG 1.1//EN" "http://www.w3.org/Graphics/SVG/1.1/DTD/svg11.dtd">
<svg width="100%" height="100%" viewBox="0 0 228 228" version="1.1" xmlns="http://www.w3.org/2000/svg" xmlns:xlink="http://www.w3.org/1999/xlink" xml:space="preserve" xmlns:serif="http://www.serif.com/" style="fill-rule:evenodd;clip-rule:evenodd;stroke-miterlimit:2;">
    <g>
        <path d="M227.268,114.42C227.268,51.925 176.076,0.732 113.58,0.732C51.299,0.732 0.107,51.925 0.107,114.42C0.107,176.701 51.299,227.893 113.58,227.893C176.076,227.893 227.268,176.701 227.268,114.42Z" style="fill:rgb(0,64,128);fill-rule:nonzero;"/>
        <path d="M227.268,114.42C227.268,51.925 176.076,0.732 113.58,0.732C51.299,0.732 0.107,51.925 0.107,114.42C0.107,176.701 51.299,227.893 113.58,227.893C176.076,227.893 227.268,176.701 227.268,114.42Z" style="fill:none;stroke:rgb(0,64,128);stroke-width:0.22px;"/>
        <path d="M208.476,122.701C209.051,122.413 209.339,121.836 209.339,121.261C209.339,120.685 209.051,120.108 208.476,119.821L162.18,87.421C162.18,87.421 161.892,87.133 161.604,87.133C160.739,87.133 160.164,87.709 160.164,88.573L160.164,88.861L163.835,109.885L120.06,109.885C111.275,109.885 102.492,112.477 94.787,117.301L94.499,67.837L115.812,71.797L116.1,71.797C116.675,71.797 117.251,71.221 117.251,70.357L117.251,69.565L84.563,23.197C84.275,22.621 83.699,22.333 83.123,22.333C82.835,22.333 82.259,22.621 81.971,23.197L49.283,69.565C49.283,69.853 48.995,70.069 48.995,70.357C48.995,71.221 49.859,71.797 50.435,71.797L50.723,71.797L71.747,67.837L71.747,204.853L94.499,204.853L94.499,158.269C94.499,144.301 106.164,132.637 120.06,132.637L163.835,132.637L160.164,153.949C160.164,154.812 160.739,155.389 161.604,155.389C161.892,155.389 162.18,155.389 162.18,155.101L208.476,122.701Z" style="fill:white;fill-rule:nonzero;"/>
        <path d="M208.476,122.701C209.051,122.413 209.339,121.836 209.339,121.261C209.339,120.685 209.051,120.108 208.476,119.821L162.18,87.421C162.18,87.421 161.892,87.133 161.604,87.133C160.739,87.133 160.164,87.709 160.164,88.573L160.164,88.861L163.835,109.885L120.06,109.885C111.275,109.885 102.492,112.477 94.787,117.301L94.499,67.837L115.812,71.797L116.1,71.797C116.675,71.797 117.251,71.221 117.251,70.357L117.251,69.565L84.563,23.197C84.275,22.621 83.699,22.333 83.123,22.333C82.835,22.333 82.259,22.621 81.971,23.197L49.283,69.565C49.283,69.853 48.995,70.069 48.995,70.357C48.995,71.221 49.859,71.797 50.435,71.797L50.723,71.797L71.747,67.837L71.747,204.853L94.499,204.853L94.499,158.269C94.499,144.301 106.164,132.637 120.06,132.637L163.835,132.637L160.164,153.949C160.164,154.812 160.739,155.389 161.604,155.389C161.892,155.389 162.18,155.389 162.18,155.101L208.476,122.701Z" style="fill:none;stroke:white;stroke-width:0.22px;"/>
        <path d="M223.308,114.42C223.308,53.869 174.131,4.693 113.58,4.693C53.243,4.693 4.067,53.869 4.067,114.42C4.067,174.757 53.243,223.933 113.58,223.933C174.131,223.933 223.308,174.757 223.308,114.42Z" style="fill:none;stroke:white;stroke-width:3.96px;"/>
    </g>
</svg>
