<?xml version="1.0" encoding="UTF-8" standalone="no"?>
<!DOCTYPE svg PUBLIC "-//W3C//DTD SVG 1.1//EN" "http://www.w3.org/Graphics/SVG/1.1/DTD/svg11.dtd">
<svg width="100%" height="100%" viewBox="0 0 228 228" version="1.1" xmlns="http://www.w3.org/2000/svg" xmlns:xlink="http://www.w3.org/1999/xlink" xml:space="preserve" xmlns:serif="http://www.serif.com/" style="fill-rule:evenodd;clip-rule:evenodd;stroke-miterlimit:2;">
    <g>
        <path d="M227.123,114.493C227.123,51.997 176.003,0.877 113.507,0.877C51.227,0.877 0.107,51.997 0.107,114.493C0.107,176.772 51.227,227.893 113.507,227.893C176.003,227.893 227.123,176.772 227.123,114.493Z" style="fill:white;fill-rule:nonzero;"/>
        <path d="M227.123,114.493C227.123,51.997 176.003,0.877 113.507,0.877C51.227,0.877 0.107,51.997 0.107,114.493C0.107,176.772 51.227,227.893 113.507,227.893C176.003,227.893 227.123,176.772 227.123,114.493Z" style="fill:none;stroke:rgb(35,31,32);stroke-width:0.22px;"/>
        <path d="M151.811,165.973C156.059,165.973 160.667,164.821 164.339,162.517C168.587,160.285 172.259,157.117 175.139,153.444C177.659,150.349 179.387,146.893 181.115,143.221C182.267,140.916 183.059,138.108 183.347,135.517C184.787,128.748 185.363,121.909 185.363,115.068C185.363,110.532 185.075,105.997 184.499,101.459C183.923,96.061 182.771,90.661 181.115,85.261C179.387,81.589 177.371,77.844 175.139,74.461C171.971,70.213 168.299,66.541 163.763,63.949C160.091,61.933 156.059,60.853 151.811,60.853C147.851,60.853 143.603,61.933 140.147,63.949C135.611,66.541 131.651,69.925 128.554,74.461C126.251,77.556 124.235,81.301 122.579,85.261C120.851,90.661 119.699,96.061 119.123,101.459C118.619,105.997 118.331,110.532 118.331,115.068C118.331,121.909 118.908,129.038 120.275,135.805C120.564,138.396 121.427,140.916 122.579,143.221C124.235,146.893 126.251,150.349 128.554,153.444C131.363,157.117 135.035,160.285 139.355,162.805C143.315,164.821 147.563,165.973 151.811,165.973Z" style="fill:rgb(187,177,163);fill-rule:nonzero;"/>
        <path d="M151.811,165.973C156.059,165.973 160.667,164.821 164.339,162.517C168.587,160.285 172.259,157.117 175.139,153.444C177.659,150.349 179.387,146.893 181.115,143.221C182.267,140.916 183.059,138.108 183.347,135.517C184.787,128.748 185.363,121.909 185.363,115.068C185.363,110.532 185.075,105.997 184.499,101.459C183.923,96.061 182.771,90.661 181.115,85.261C179.387,81.589 177.371,77.844 175.139,74.461C171.971,70.213 168.299,66.541 163.763,63.949C160.091,61.933 156.059,60.853 151.811,60.853C147.851,60.853 143.603,61.933 140.147,63.949C135.611,66.541 131.651,69.925 128.554,74.461C126.251,77.556 124.235,81.301 122.579,85.261C120.851,90.661 119.699,96.061 119.123,101.459C118.619,105.997 118.331,110.532 118.331,115.068C118.331,121.909 118.908,129.038 120.275,135.805C120.564,138.396 121.427,140.916 122.579,143.221C124.235,146.893 126.251,150.349 128.554,153.444C131.363,157.117 135.035,160.285 139.355,162.805C143.315,164.821 147.563,165.973 151.811,165.973Z" style="fill:none;stroke:rgb(187,177,163);stroke-width:0.22px;"/>
        <path d="M157.787,82.741L158.651,83.532L159.227,84.685L160.091,85.837L160.667,86.989L161.171,88.357L161.747,89.508L162.323,90.949L162.611,92.389L163.187,93.757L163.475,94.909L164.051,96.349L164.339,97.789L164.339,99.157L164.627,100.309L164.915,101.748L165.203,102.9L165.203,105.133L165.491,106.285L165.491,108.301L165.779,109.093L165.779,119.893L165.491,120.757L165.491,123.925L165.203,124.789L165.203,127.02L164.915,127.309L164.915,128.46L164.627,129.038L164.627,130.189L164.339,130.693L164.339,131.557L164.051,132.133L164.051,132.708L163.763,133.285L163.475,134.148L163.475,134.725L163.187,135.301L162.899,135.805L162.899,136.668L162.611,137.245L162.323,137.821L162.035,138.396L162.035,138.973L161.747,139.549L161.459,139.836L161.171,140.413L160.956,140.916L160.667,141.205L160.379,141.781L160.091,142.068L159.803,142.644L159.515,142.933L159.227,143.509L158.651,144.084L158.363,144.373L157.787,144.949L157.499,145.236L156.923,145.812L156.635,146.028L156.059,146.316L155.555,146.604L155.267,146.893L154.691,147.181L154.403,147.181L154.115,147.469L153.251,147.469L152.963,147.757L150.444,147.757L150.155,147.469L149.579,147.469L149.291,147.181L148.715,147.181L148.427,146.893L147.851,146.604L147.563,146.316L146.987,146.028L146.699,145.812L146.123,145.236L145.547,144.949L145.259,144.373L144.755,144.084L144.468,143.509L144.179,142.933L143.603,142.644L143.315,142.068L143.028,141.781L142.739,141.205L142.451,140.916L142.163,140.413L142.163,139.836L141.875,139.549L141.587,138.973L141.299,138.396L141.299,137.821L141.011,137.245L140.723,136.668L140.435,135.805L140.435,135.301L140.147,134.725L139.932,134.148L139.932,133.285L139.643,132.708L139.355,132.133L139.355,131.557L139.067,130.693L139.067,129.613L138.779,129.038L138.779,127.885L138.492,127.309L138.492,125.869L138.203,125.292L138.203,121.909L137.915,121.332L137.915,117.373L137.627,116.796L137.627,113.989L137.915,113.413L137.915,108.301L138.203,107.148L138.203,105.133L138.492,103.98L138.492,102.9L138.779,101.748L138.779,100.309L139.067,99.157L139.355,97.789L139.643,96.349L139.932,94.909L140.435,93.757L140.723,92.389L141.299,90.949L141.875,89.508L142.451,88.357L143.028,86.989L143.603,85.837L144.179,84.685L145.043,83.532L145.547,82.741L146.411,81.877L146.987,81.013L148.715,79.861L149.579,79.573L150.155,79.285L150.947,78.997L152.675,78.997L153.251,79.285L154.115,79.573L154.98,79.861L155.843,80.437L156.347,81.013L157.211,81.877L157.787,82.741Z" style="fill:white;fill-rule:nonzero;"/>
        <path d="M157.787,82.741L158.651,83.532L159.227,84.685L160.091,85.837L160.667,86.989L161.171,88.357L161.747,89.508L162.323,90.949L162.611,92.389L163.187,93.757L163.475,94.909L164.051,96.349L164.339,97.789L164.339,99.157L164.627,100.309L164.915,101.748L165.203,102.9L165.203,105.133L165.491,106.285L165.491,108.301L165.779,109.093L165.779,119.893L165.491,120.757L165.491,123.925L165.203,124.789L165.203,127.02L164.915,127.309L164.915,128.46L164.627,129.038L164.627,130.189L164.339,130.693L164.339,131.557L164.051,132.133L164.051,132.708L163.763,133.285L163.475,134.148L163.475,134.725L163.187,135.301L162.899,135.805L162.899,136.668L162.611,137.245L162.323,137.821L162.035,138.396L162.035,138.973L161.747,139.549L161.459,139.836L161.171,140.413L160.956,140.916L160.667,141.205L160.379,141.781L160.091,142.068L159.803,142.644L159.515,142.933L159.227,143.509L158.651,144.084L158.363,144.373L157.787,144.949L157.499,145.236L156.923,145.812L156.635,146.028L156.059,146.316L155.555,146.604L155.267,146.893L154.691,147.181L154.403,147.181L154.115,147.469L153.251,147.469L152.963,147.757L150.444,147.757L150.155,147.469L149.579,147.469L149.291,147.181L148.715,147.181L148.427,146.893L147.851,146.604L147.563,146.316L146.987,146.028L146.699,145.812L146.123,145.236L145.547,144.949L145.259,144.373L144.755,144.084L144.468,143.509L144.179,142.933L143.603,142.644L143.315,142.068L143.028,141.781L142.739,141.205L142.451,140.916L142.163,140.413L142.163,139.836L141.875,139.549L141.587,138.973L141.299,138.396L141.299,137.821L141.011,137.245L140.723,136.668L140.435,135.805L140.435,135.301L140.147,134.725L139.932,134.148L139.932,133.285L139.643,132.708L139.355,132.133L139.355,131.557L139.067,130.693L139.067,129.613L138.779,129.038L138.779,127.885L138.492,127.309L138.492,125.869L138.203,125.292L138.203,121.909L137.915,121.332L137.915,117.373L137.627,116.796L137.627,113.989L137.915,113.413L137.915,108.301L138.203,107.148L138.203,105.133L138.492,103.98L138.492,102.9L138.779,101.748L138.779,100.309L139.067,99.157L139.355,97.789L139.643,96.349L139.932,94.909L140.435,93.757L140.723,92.389L141.299,90.949L141.875,89.508L142.451,88.357L143.028,86.989L143.603,85.837L144.179,84.685L145.043,83.532L145.547,82.741L146.411,81.877L146.987,81.013L148.715,79.861L149.579,79.573L150.155,79.285L150.947,78.997L152.675,78.997L153.251,79.285L154.115,79.573L154.98,79.861L155.843,80.437L156.347,81.013L157.211,81.877L157.787,82.741Z" style="fill:none;stroke:rgb(187,177,163);stroke-width:0.22px;"/>
        <path d="M70.595,164.821C73.403,165.396 76.283,165.973 79.379,165.973C82.763,165.973 86.507,165.396 89.891,164.533C98.1,161.94 105.227,156.613 109.475,148.909C111.779,144.661 112.932,139.836 112.932,135.013C112.932,132.42 112.643,129.9 112.067,127.597C110.052,119.389 104.363,112.836 96.731,109.38C98.1,108.588 99.251,107.724 100.403,106.86C103.211,104.844 105.516,102.325 107.243,99.733C109.187,96.349 110.627,92.676 110.627,88.933C110.627,85.261 110.052,81.877 108.611,78.421C107.243,74.461 104.363,70.789 100.691,67.909C96.444,65.101 91.619,62.796 86.507,61.645C83.915,61.141 81.107,60.853 78.515,60.853C76.571,60.853 74.843,61.141 72.827,61.141C68.291,61.933 63.755,63.661 60.083,66.253C56.051,68.485 52.955,71.652 50.363,75.325C48.131,78.997 46.979,83.245 46.979,87.853C46.979,90.373 47.267,92.965 48.131,95.484C50.651,101.748 55.547,107.148 61.739,109.957C58.067,111.685 54.971,113.989 52.091,116.796C48.419,121.044 45.827,126.157 44.963,131.845C44.747,133.285 44.747,134.725 44.747,136.093C44.747,144.084 48.131,151.717 54.395,156.829C58.931,160.86 64.619,163.668 70.595,164.821Z" style="fill:rgb(187,177,163);fill-rule:nonzero;"/>
        <path d="M70.595,164.821C73.403,165.396 76.283,165.973 79.379,165.973C82.763,165.973 86.507,165.396 89.891,164.533C98.1,161.94 105.227,156.613 109.475,148.909C111.779,144.661 112.932,139.836 112.932,135.013C112.932,132.42 112.643,129.9 112.067,127.597C110.052,119.389 104.363,112.836 96.731,109.38C98.1,108.588 99.251,107.724 100.403,106.86C103.211,104.844 105.516,102.325 107.243,99.733C109.187,96.349 110.627,92.676 110.627,88.933C110.627,85.261 110.052,81.877 108.611,78.421C107.243,74.461 104.363,70.789 100.691,67.909C96.444,65.101 91.619,62.796 86.507,61.645C83.915,61.141 81.107,60.853 78.515,60.853C76.571,60.853 74.843,61.141 72.827,61.141C68.291,61.933 63.755,63.661 60.083,66.253C56.051,68.485 52.955,71.652 50.363,75.325C48.131,78.997 46.979,83.245 46.979,87.853C46.979,90.373 47.267,92.965 48.131,95.484C50.651,101.748 55.547,107.148 61.739,109.957C58.067,111.685 54.971,113.989 52.091,116.796C48.419,121.044 45.827,126.157 44.963,131.845C44.747,133.285 44.747,134.725 44.747,136.093C44.747,144.084 48.131,151.717 54.395,156.829C58.931,160.86 64.619,163.668 70.595,164.821Z" style="fill:none;stroke:rgb(187,177,163);stroke-width:0.22px;"/>
        <path d="M91.908,90.373C91.908,83.245 86.219,77.556 79.379,77.556C72.539,77.556 66.851,83.245 66.851,90.373C66.851,97.501 72.539,103.188 79.379,103.188C86.219,103.188 91.908,97.501 91.908,90.373Z" style="fill:white;fill-rule:nonzero;"/>
        <path d="M91.908,90.373C91.908,83.245 86.219,77.556 79.379,77.556C72.539,77.556 66.851,83.245 66.851,90.373C66.851,97.501 72.539,103.188 79.379,103.188C86.219,103.188 91.908,97.501 91.908,90.373Z" style="fill:none;stroke:rgb(187,177,163);stroke-width:0.22px;"/>
        <path d="M92.987,133.573C92.987,125.869 86.795,119.677 79.091,119.677C71.387,119.677 65.195,125.869 65.195,133.573C65.195,141.205 71.387,147.469 79.091,147.469C86.795,147.469 92.987,141.205 92.987,133.573Z" style="fill:white;fill-rule:nonzero;"/>
        <path d="M92.987,133.573C92.987,125.869 86.795,119.677 79.091,119.677C71.387,119.677 65.195,125.869 65.195,133.573C65.195,141.205 71.387,147.469 79.091,147.469C86.795,147.469 92.987,141.205 92.987,133.573Z" style="fill:none;stroke:rgb(187,177,163);stroke-width:0.22px;"/>
        <path d="M25.379,186.42C26.819,188.148 27.971,189.517 29.339,190.957L189.611,30.109C188.459,29.029 187.091,27.877 185.363,26.437L25.379,186.42Z" style="fill:rgb(35,31,32);fill-rule:nonzero;"/>
        <path d="M25.379,186.42C26.819,188.148 27.971,189.517 29.339,190.957L189.611,30.109C188.459,29.029 187.091,27.877 185.363,26.437L25.379,186.42Z" style="fill:none;stroke:rgb(35,31,32);stroke-width:0.22px;"/>
        <path d="M18.611,177.349C17.747,175.621 16.595,173.893 15.731,172.453L171.179,16.501C172.835,17.652 174.563,18.805 176.291,19.597L18.611,177.349Z" style="fill:rgb(35,31,32);fill-rule:nonzero;"/>
        <path d="M18.611,177.349C17.747,175.621 16.595,173.893 15.731,172.453L171.179,16.501C172.835,17.652 174.563,18.805 176.291,19.597L18.611,177.349Z" style="fill:none;stroke:rgb(35,31,32);stroke-width:0.22px;"/>
        <path d="M50.651,209.389C52.379,210.54 54.107,211.405 55.763,212.557L211.499,56.82C210.347,55.165 209.483,53.437 208.403,51.997L50.651,209.389Z" style="fill:rgb(35,31,32);fill-rule:nonzero;"/>
        <path d="M50.651,209.389C52.379,210.54 54.107,211.405 55.763,212.557L211.499,56.82C210.347,55.165 209.483,53.437 208.403,51.997L50.651,209.389Z" style="fill:none;stroke:rgb(35,31,32);stroke-width:0.22px;"/>
        <path d="M37.331,198.876C38.771,200.029 40.139,201.469 41.579,202.621L201.563,42.637C200.411,41.197 198.971,39.829 197.891,38.389L37.331,198.876Z" style="fill:rgb(35,31,32);fill-rule:nonzero;"/>
        <path d="M37.331,198.876C38.771,200.029 40.139,201.469 41.579,202.621L201.563,42.637C200.411,41.197 198.971,39.829 197.891,38.389L37.331,198.876Z" style="fill:none;stroke:rgb(35,31,32);stroke-width:0.22px;"/>
    </g>
</svg>
