<?xml version="1.0" encoding="UTF-8" standalone="no"?>
<!DOCTYPE svg PUBLIC "-//W3C//DTD SVG 1.1//EN" "http://www.w3.org/Graphics/SVG/1.1/DTD/svg11.dtd">
<svg width="100%" height="100%" viewBox="0 0 202 280" version="1.1" xmlns="http://www.w3.org/2000/svg" xmlns:xlink="http://www.w3.org/1999/xlink" xml:space="preserve" xmlns:serif="http://www.serif.com/" style="fill-rule:evenodd;clip-rule:evenodd;stroke-miterlimit:2;">
    <g>
        <path d="M0.107,270.964C0.107,276.004 3.995,279.892 9.035,279.892L192.491,279.892C197.531,279.892 201.419,276.004 201.419,270.964L201.419,9.173C201.419,4.205 197.531,0.245 192.491,0.245L9.035,0.245C3.995,0.245 0.107,4.205 0.107,9.173L0.107,270.964Z" style="fill:white;fill-rule:nonzero;"/>
        <path d="M0.107,270.964C0.107,276.004 3.995,279.892 9.035,279.892L192.491,279.892C197.531,279.892 201.419,276.004 201.419,270.964L201.419,9.173C201.419,4.205 197.531,0.245 192.491,0.245L9.035,0.245C3.995,0.245 0.107,4.205 0.107,9.173L0.107,270.964Z" style="fill:none;stroke:rgb(0,64,128);stroke-width:0.22px;"/>
        <path d="M4.571,270.964C4.571,273.484 6.515,275.429 9.035,275.429L192.491,275.429C195.011,275.429 196.955,273.484 196.955,270.964L196.955,9.173C196.955,6.725 195.011,4.781 192.491,4.781L9.035,4.781C6.515,4.781 4.571,6.725 4.571,9.173L4.571,270.964Z" style="fill:rgb(0,64,128);fill-rule:nonzero;"/>
        <path d="M4.571,270.964C4.571,273.484 6.515,275.429 9.035,275.429L192.491,275.429C195.011,275.429 196.955,273.484 196.955,270.964L196.955,9.173C196.955,6.725 195.011,4.781 192.491,4.781L9.035,4.781C6.515,4.781 4.571,6.725 4.571,9.173L4.571,270.964Z" style="fill:none;stroke:rgb(0,64,128);stroke-width:0.22px;"/>
        <path d="M25.811,275.429L196.955,25.157L196.955,9.173C196.955,6.725 195.011,4.781 192.491,4.781L177.083,4.781L4.571,256.997L4.571,270.964C4.571,273.484 6.515,275.429 9.035,275.429L25.811,275.429Z" style="fill:rgb(211,63,39);fill-rule:nonzero;"/>
        <path d="M25.811,275.429L196.955,25.157L196.955,9.173C196.955,6.725 195.011,4.781 192.491,4.781L177.083,4.781L4.571,256.997L4.571,270.964C4.571,273.484 6.515,275.429 9.035,275.429L25.811,275.429Z" style="fill:none;stroke:rgb(211,63,39);stroke-width:0.22px;"/>
        <path d="M90.179,251.596L51.299,251.596L54.035,234.029L92.124,178.372L90.179,251.596Z" style="fill:white;fill-rule:nonzero;"/>
        <path d="M90.179,251.596L51.299,251.596L54.035,234.029L92.124,178.372L90.179,251.596Z" style="fill:none;stroke:white;stroke-width:0.22px;"/>
        <path d="M125.963,129.197L109.403,152.956L112.499,251.596L151.091,251.596L131.507,129.197L125.963,129.197Z" style="fill:white;fill-rule:nonzero;"/>
        <path d="M125.963,129.197L109.403,152.956L112.499,251.596L151.091,251.596L131.507,129.197L125.963,129.197Z" style="fill:none;stroke:white;stroke-width:0.22px;"/>
        <path d="M141.011,106.804L184.427,106.804L184.427,112.42L151.091,112.42L153.899,129.197L139.932,129.197L142.739,112.42L137.123,112.42L141.011,106.804Z" style="fill:white;fill-rule:nonzero;"/>
        <path d="M141.011,106.804L184.427,106.804L184.427,112.42L151.091,112.42L153.899,129.197L139.932,129.197L142.739,112.42L137.123,112.42L141.011,106.804Z" style="fill:none;stroke:white;stroke-width:0.22px;"/>
        <path d="M123.947,82.469L113.579,17.597L105.516,17.597L107.747,101.188L111.131,101.188L123.947,82.469Z" style="fill:white;fill-rule:nonzero;"/>
        <path d="M123.947,82.469L113.579,17.597L105.516,17.597L107.747,101.188L111.131,101.188L123.947,82.469Z" style="fill:none;stroke:white;stroke-width:0.22px;"/>
        <path d="M94.571,101.188L75.347,101.188L88.523,17.597L96.875,17.597L94.571,101.188Z" style="fill:white;fill-rule:nonzero;"/>
        <path d="M94.571,101.188L75.347,101.188L88.523,17.597L96.875,17.597L94.571,101.188Z" style="fill:none;stroke:white;stroke-width:0.22px;"/>
        <path d="M59.363,112.42L62.171,129.197L48.491,129.197L51.299,112.42L18.035,112.42L18.035,106.804L107.171,106.804L103.283,112.42L59.363,112.42Z" style="fill:white;fill-rule:nonzero;"/>
        <path d="M59.363,112.42L62.171,129.197L48.491,129.197L51.299,112.42L18.035,112.42L18.035,106.804L107.171,106.804L103.283,112.42L59.363,112.42Z" style="fill:none;stroke:white;stroke-width:0.22px;"/>
        <path d="M64.403,169.444L70.811,129.197L92.124,129.197L64.403,169.444Z" style="fill:white;fill-rule:nonzero;"/>
        <path d="M64.403,169.444L70.811,129.197L92.124,129.197L64.403,169.444Z" style="fill:none;stroke:white;stroke-width:0.22px;"/>
    </g>
</svg>
