<?xml version="1.0" encoding="UTF-8" standalone="no"?>
<!DOCTYPE svg PUBLIC "-//W3C//DTD SVG 1.1//EN" "http://www.w3.org/Graphics/SVG/1.1/DTD/svg11.dtd">
<svg width="100%" height="100%" viewBox="0 0 256 224" version="1.1" xmlns="http://www.w3.org/2000/svg" xmlns:xlink="http://www.w3.org/1999/xlink" xml:space="preserve" xmlns:serif="http://www.serif.com/" style="fill-rule:evenodd;clip-rule:evenodd;stroke-miterlimit:2;">
    <g>
        <path d="M135.396,5.085L253.979,210.429C254.844,211.869 255.203,213.38 255.203,214.964C255.203,219.86 251.243,223.82 246.275,223.893L9.035,223.893C4.139,223.893 0.107,219.933 0.107,214.964C0.107,213.38 0.539,211.869 1.331,210.429L119.916,5.085C123.372,-0.963 131.939,-0.963 135.396,5.085Z" style="fill:rgb(211,63,39);fill-rule:nonzero;"/>
        <path d="M135.396,5.085L253.979,210.429C254.844,211.869 255.203,213.38 255.203,214.964C255.203,219.86 251.243,223.82 246.275,223.893L9.035,223.893C4.139,223.893 0.107,219.933 0.107,214.964C0.107,213.38 0.539,211.869 1.331,210.429L119.916,5.085C123.372,-0.963 131.939,-0.963 135.396,5.085Z" style="fill:none;stroke:rgb(211,63,39);stroke-width:0.22px;"/>
        <path d="M215.315,197.037L39.996,197.037L127.619,45.261L215.315,197.037Z" style="fill:white;fill-rule:nonzero;"/>
        <path d="M215.315,197.037L39.996,197.037L127.619,45.261L215.315,197.037Z" style="fill:none;stroke:white;stroke-width:0.22px;"/>
        <path d="M125.892,91.845L125.892,118.845C125.892,122.373 124.451,125.756 122.003,128.276L103.283,147.068C101.771,148.58 100.979,150.597 100.979,152.685L100.979,189.045L87.587,189.045L87.587,149.444C87.587,145.917 88.955,142.46 91.475,139.941L110.124,121.221C111.635,119.709 112.427,117.621 112.427,115.532L112.427,91.845L125.892,91.845Z" style="fill:rgb(35,31,32);fill-rule:nonzero;"/>
        <path d="M125.892,91.845L125.892,118.845C125.892,122.373 124.451,125.756 122.003,128.276L103.283,147.068C101.771,148.58 100.979,150.597 100.979,152.685L100.979,189.045L87.587,189.045L87.587,149.444C87.587,145.917 88.955,142.46 91.475,139.941L110.124,121.221C111.635,119.709 112.427,117.621 112.427,115.532L112.427,91.845L125.892,91.845Z" style="fill:none;stroke:rgb(35,31,32);stroke-width:0.22px;"/>
        <rect x="139.283" y="91.845" width="13.393" height="97.2" style="fill:rgb(35,31,32);fill-rule:nonzero;"/>
        <rect x="139.283" y="91.845" width="13.393" height="97.2" style="fill:none;stroke:rgb(35,31,32);stroke-width:0.22px;"/>
    </g>
</svg>
