<?xml version="1.0" encoding="UTF-8" standalone="no"?>
<!DOCTYPE svg PUBLIC "-//W3C//DTD SVG 1.1//EN" "http://www.w3.org/Graphics/SVG/1.1/DTD/svg11.dtd">
<svg width="100%" height="100%" viewBox="0 0 256 224" version="1.1" xmlns="http://www.w3.org/2000/svg" xmlns:xlink="http://www.w3.org/1999/xlink" xml:space="preserve" xmlns:serif="http://www.serif.com/" style="fill-rule:evenodd;clip-rule:evenodd;stroke-miterlimit:2;">
    <g>
        <path d="M135.396,5.085L253.979,210.5C254.844,211.869 255.203,213.38 255.203,214.964C255.203,219.86 251.243,223.82 246.275,223.892L9.035,223.892C4.139,223.892 0.107,219.933 0.107,214.964C0.107,213.38 0.539,211.869 1.331,210.429L119.916,5.085C123.372,-0.891 131.939,-0.891 135.396,5.085Z" style="fill:rgb(211,63,39);fill-rule:nonzero;"/>
        <path d="M135.396,5.085L253.979,210.5C254.844,211.869 255.203,213.38 255.203,214.964C255.203,219.86 251.243,223.82 246.275,223.892L9.035,223.892C4.139,223.892 0.107,219.933 0.107,214.964C0.107,213.38 0.539,211.869 1.331,210.429L119.916,5.085C123.372,-0.891 131.939,-0.891 135.396,5.085Z" style="fill:none;stroke:rgb(211,63,39);stroke-width:0.22px;"/>
        <path d="M215.315,197.037L39.996,197.037L127.619,45.261L215.315,197.037Z" style="fill:white;fill-rule:nonzero;"/>
        <path d="M215.315,197.037L39.996,197.037L127.619,45.261L215.315,197.037Z" style="fill:none;stroke:white;stroke-width:0.22px;"/>
        <path d="M179.532,167.013L183.997,167.013L183.997,186.308L71.315,186.308L71.315,167.013L75.779,167.013C79.739,167.013 83.411,164.996 85.643,161.684C93.779,149.588 112.067,151.245 117.899,164.637L119.339,167.516C120.923,170.684 124.164,172.701 127.619,172.701C131.219,172.701 134.387,170.684 135.971,167.516L137.412,164.637C143.243,151.245 161.532,149.661 169.667,161.756C171.899,164.996 175.571,167.013 179.532,167.013Z" style="fill:rgb(35,31,32);fill-rule:nonzero;"/>
        <path d="M179.532,167.013L183.997,167.013L183.997,186.308L71.315,186.308L71.315,167.013L75.779,167.013C79.739,167.013 83.411,164.996 85.643,161.684C93.779,149.588 112.067,151.245 117.899,164.637L119.339,167.516C120.923,170.684 124.164,172.701 127.619,172.701C131.219,172.701 134.387,170.684 135.971,167.516L137.412,164.637C143.243,151.245 161.532,149.661 169.667,161.756C171.899,164.996 175.571,167.013 179.532,167.013Z" style="fill:none;stroke:rgb(35,31,32);stroke-width:0.22px;"/>
    </g>
</svg>
