<?xml version="1.0" encoding="UTF-8" standalone="no"?>
<!DOCTYPE svg PUBLIC "-//W3C//DTD SVG 1.1//EN" "http://www.w3.org/Graphics/SVG/1.1/DTD/svg11.dtd">
<svg width="100%" height="100%" viewBox="0 0 595 521" version="1.1" xmlns="http://www.w3.org/2000/svg" xmlns:xlink="http://www.w3.org/1999/xlink" xml:space="preserve" xmlns:serif="http://www.serif.com/" style="fill-rule:evenodd;clip-rule:evenodd;stroke-miterlimit:2;">
    <g>
        <path d="M315.435,10.818L591.881,489.639C595.603,496.086 595.603,504.029 591.881,510.476C588.16,516.921 581.281,520.893 573.837,520.893L20.943,520.893C13.499,520.893 6.621,516.921 2.898,510.476C-0.822,504.029 -0.822,496.086 2.898,489.639L279.346,10.818C283.068,4.372 289.947,0.401 297.39,0.401C304.834,0.401 311.712,4.372 315.435,10.818Z" style="fill:rgb(211,63,39);fill-rule:nonzero;"/>
        <path d="M315.435,10.818L591.881,489.639C595.603,496.086 595.603,504.029 591.881,510.476C588.16,516.921 581.281,520.893 573.837,520.893L20.943,520.893C13.499,520.893 6.621,516.921 2.898,510.476C-0.822,504.029 -0.822,496.086 2.898,489.639L279.346,10.818C283.068,4.372 289.947,0.401 297.39,0.401C304.834,0.401 311.712,4.372 315.435,10.818Z" style="fill:none;stroke:rgb(211,63,39);stroke-width:0.22px;"/>
        <path d="M501.661,458.386L93.12,458.386L297.39,104.58L501.661,458.386Z" style="fill:white;fill-rule:nonzero;"/>
        <path d="M501.661,458.386L93.12,458.386L297.39,104.58L501.661,458.386Z" style="fill:none;stroke:white;stroke-width:0.71px;stroke-linecap:round;stroke-linejoin:round;"/>
        <path d="M200.483,407.611C225.996,381.556 260.924,366.873 297.39,366.873C333.856,366.873 368.785,381.556 394.297,407.611C398.025,411.419 403.129,413.564 408.458,413.564L446.032,413.564L446.032,433.383L148.749,433.383L148.749,413.564L186.323,413.564C191.651,413.564 196.756,411.419 200.483,407.611Z" style="fill:rgb(35,31,32);fill-rule:nonzero;"/>
        <path d="M200.483,407.611C225.996,381.556 260.924,366.873 297.39,366.873C333.856,366.873 368.785,381.556 394.297,407.611C398.025,411.419 403.129,413.564 408.458,413.564L446.032,413.564L446.032,433.383L148.749,433.383L148.749,413.564L186.323,413.564C191.651,413.564 196.756,411.419 200.483,407.611Z" style="fill:none;stroke:rgb(35,31,32);stroke-width:0.71px;stroke-linecap:round;stroke-linejoin:round;"/>
    </g>
</svg>
