<?xml version="1.0" encoding="UTF-8" standalone="no"?>
<!DOCTYPE svg PUBLIC "-//W3C//DTD SVG 1.1//EN" "http://www.w3.org/Graphics/SVG/1.1/DTD/svg11.dtd">
<svg width="100%" height="100%" viewBox="0 0 596 522" version="1.1" xmlns="http://www.w3.org/2000/svg" xmlns:xlink="http://www.w3.org/1999/xlink" xml:space="preserve" xmlns:serif="http://www.serif.com/" style="fill-rule:evenodd;clip-rule:evenodd;stroke-linecap:round;stroke-linejoin:round;stroke-miterlimit:2;">
    <g>
        <path d="M315.682,11.571L592.128,490.391C595.85,496.838 595.85,504.78 592.128,511.228C588.407,517.673 581.528,521.645 574.084,521.645L21.19,521.645C13.746,521.645 6.868,517.673 3.146,511.228C-0.575,504.78 -0.575,496.838 3.146,490.391L279.593,11.571C283.316,5.125 290.194,1.153 297.637,1.153C305.082,1.153 311.959,5.125 315.682,11.571Z" style="fill:rgb(211,63,39);fill-rule:nonzero;"/>
        <path d="M315.682,11.571L592.128,490.391C595.85,496.838 595.85,504.78 592.128,511.228C588.407,517.673 581.528,521.645 574.084,521.645L21.19,521.645C13.746,521.645 6.868,517.673 3.146,511.228C-0.575,504.78 -0.575,496.838 3.146,490.391L279.593,11.571C283.316,5.125 290.194,1.153 297.637,1.153C305.082,1.153 311.959,5.125 315.682,11.571Z" style="fill:none;stroke:rgb(211,63,39);stroke-width:0.71px;"/>
        <path d="M93.367,459.138L297.637,105.332L501.908,459.138L93.367,459.138Z" style="fill:rgb(242,235,69);fill-rule:nonzero;"/>
        <path d="M93.367,459.138L297.637,105.332L501.908,459.138L93.367,459.138Z" style="fill:none;stroke:rgb(242,235,69);stroke-width:0.71px;"/>
        <path d="M480.167,446.696L321.462,446.696L334.119,429.069L347.574,429.069L354.777,419.009L335.905,405.256C334.385,404.15 334.04,402.026 335.13,400.494L340.726,392.635L302.03,364.476C298.856,366.426 294.819,366.27 291.805,364.078C288.792,361.887 287.4,358.095 288.277,354.474L267.678,339.53L290.897,375.311C292.262,377.415 292.949,379.888 292.862,382.396L292.921,434.13C293.043,438.539 290.761,442.665 286.962,444.906C283.164,447.146 278.448,447.146 274.649,444.906C270.85,442.665 268.569,438.539 268.691,434.13L268.691,388.231L246.366,353.819L246.068,388.825L216.836,439.846C214.799,443.794 210.762,446.31 206.32,446.398C201.877,446.486 197.744,444.133 195.553,440.267C193.361,436.402 193.464,431.646 195.821,427.879L219.873,386.801L219.873,327.624C219.873,323.548 221.188,319.581 223.624,316.312L228.029,310.656L217.999,303.362C216.424,306.264 213.353,308.033 210.053,307.942C206.753,307.849 203.787,305.909 202.377,302.924C200.968,299.939 201.357,296.415 203.382,293.809L229.517,260.469C231.987,257.32 235.818,255.548 239.817,255.707L283.506,255.707C296.196,256.861 306.019,267.319 306.375,280.057L306.375,355.129L346.68,384.419L352.335,376.739C352.979,375.865 353.98,375.326 355.064,375.269C356.147,375.211 357.2,375.642 357.932,376.442L383.174,394.777L387.581,388.825L387.581,378.169L404.606,368.227L422.586,368.227L443.708,383.546L480.167,446.696Z" style="fill:rgb(35,31,32);fill-rule:nonzero;"/>
        <path d="M480.167,446.696L321.462,446.696L334.119,429.069L347.574,429.069L354.777,419.009L335.905,405.256C334.385,404.15 334.04,402.026 335.13,400.494L340.726,392.635L302.03,364.476C298.856,366.426 294.819,366.27 291.805,364.078C288.792,361.887 287.4,358.095 288.277,354.474L267.678,339.53L290.897,375.311C292.262,377.415 292.949,379.888 292.862,382.396L292.921,434.13C293.043,438.539 290.761,442.665 286.962,444.906C283.164,447.146 278.448,447.146 274.649,444.906C270.85,442.665 268.569,438.539 268.691,434.13L268.691,388.231L246.366,353.819L246.068,388.825L216.836,439.846C214.799,443.794 210.762,446.31 206.32,446.398C201.877,446.486 197.744,444.133 195.553,440.267C193.361,436.402 193.464,431.646 195.821,427.879L219.873,386.801L219.873,327.624C219.873,323.548 221.188,319.581 223.624,316.312L228.029,310.656L217.999,303.362C216.424,306.264 213.353,308.033 210.053,307.942C206.753,307.849 203.787,305.909 202.377,302.924C200.968,299.939 201.357,296.415 203.382,293.809L229.517,260.469C231.987,257.32 235.818,255.548 239.817,255.707L283.506,255.707C296.196,256.861 306.019,267.319 306.375,280.057L306.375,355.129L346.68,384.419L352.335,376.739C352.979,375.865 353.98,375.326 355.064,375.269C356.147,375.211 357.2,375.642 357.932,376.442L383.174,394.777L387.581,388.825L387.581,378.169L404.606,368.227L422.586,368.227L443.708,383.546L480.167,446.696Z" style="fill:none;stroke:rgb(35,31,32);stroke-width:0.71px;"/>
        <path d="M329.612,233.639C329.612,220.86 319.252,210.5 306.473,210.5C293.694,210.5 283.333,220.86 283.333,233.639C283.333,246.42 293.694,256.779 306.473,256.779C319.252,256.779 329.612,246.42 329.612,233.639Z" style="fill:rgb(35,31,32);fill-rule:nonzero;"/>
        <path d="M329.612,233.639C329.612,220.86 319.252,210.5 306.473,210.5C293.694,210.5 283.333,220.86 283.333,233.639C283.333,246.42 293.694,256.779 306.473,256.779C319.252,256.779 329.612,246.42 329.612,233.639Z" style="fill:none;stroke:rgb(35,31,32);stroke-width:0.71px;"/>
        <path d="M270.417,328.992L288.277,341.972L288.277,306.252L270.417,328.992Z" style="fill:rgb(242,235,69);fill-rule:nonzero;"/>
        <path d="M270.417,328.992L288.277,341.972L288.277,306.252L270.417,328.992Z" style="fill:none;stroke:rgb(242,235,69);stroke-width:0.71px;"/>
        <path d="M238.923,276.604L254.64,276.662L234.28,302.679L224.278,295.416L238.923,276.604Z" style="fill:rgb(242,235,69);fill-rule:nonzero;"/>
        <path d="M238.923,276.604L254.64,276.662L234.28,302.679L224.278,295.416L238.923,276.604Z" style="fill:none;stroke:rgb(242,235,69);stroke-width:0.71px;"/>
    </g>
</svg>
