<?xml version="1.0" encoding="UTF-8" standalone="no"?>
<!DOCTYPE svg PUBLIC "-//W3C//DTD SVG 1.1//EN" "http://www.w3.org/Graphics/SVG/1.1/DTD/svg11.dtd">
<svg width="100%" height="100%" viewBox="0 0 256 224" version="1.1" xmlns="http://www.w3.org/2000/svg" xmlns:xlink="http://www.w3.org/1999/xlink" xml:space="preserve" xmlns:serif="http://www.serif.com/" style="fill-rule:evenodd;clip-rule:evenodd;stroke-miterlimit:2;">
    <g>
        <path d="M1.331,210.5L119.916,5.013C123.372,-0.963 132.011,-0.963 135.396,5.085L253.979,210.5C254.771,211.869 255.203,213.38 255.203,214.964C255.203,219.932 251.243,223.892 246.275,223.892L9.035,223.892C4.139,223.892 0.107,219.932 0.107,214.964C0.107,213.38 0.539,211.796 1.331,210.429L1.331,210.5Z" style="fill:rgb(211,63,39);fill-rule:nonzero;"/>
        <path d="M1.331,210.5L119.916,5.013C123.372,-0.963 132.011,-0.963 135.396,5.085L253.979,210.5C254.771,211.869 255.203,213.38 255.203,214.964C255.203,219.932 251.243,223.892 246.275,223.892L9.035,223.892C4.139,223.892 0.107,219.932 0.107,214.964C0.107,213.38 0.539,211.796 1.331,210.429L1.331,210.5Z" style="fill:none;stroke:rgb(211,63,39);stroke-width:0.22px;"/>
        <path d="M39.996,197.036L127.691,45.261L215.315,197.036L39.996,197.036Z" style="fill:white;fill-rule:nonzero;"/>
        <path d="M39.996,197.036L127.691,45.261L215.315,197.036L39.996,197.036Z" style="fill:none;stroke:white;stroke-width:0.22px;"/>
        <path d="M171.684,174.285L172.691,181.124L117.396,187.677L106.812,187.677L171.684,174.285Z" style="fill:rgb(35,31,32);fill-rule:nonzero;"/>
        <path d="M171.684,174.285L172.691,181.124L117.396,187.677L106.812,187.677L171.684,174.285Z" style="fill:none;stroke:rgb(35,31,32);stroke-width:0.22px;"/>
        <path d="M105.443,187.316L150.659,164.637L147.347,159.092L104.219,186.524L105.443,187.316Z" style="fill:rgb(35,31,32);fill-rule:nonzero;"/>
        <path d="M105.443,187.316L150.659,164.637L147.347,159.092L104.219,186.524L105.443,187.316Z" style="fill:none;stroke:rgb(35,31,32);stroke-width:0.22px;"/>
        <path d="M181.259,164.42L191.484,166.365L193.787,166.077L197.315,177.236L188.892,185.3L175.141,180.836L174.131,173.781L178.235,166.94L181.259,164.42Z" style="fill:rgb(35,31,32);fill-rule:nonzero;"/>
        <path d="M181.259,164.42L191.484,166.365L193.787,166.077L197.315,177.236L188.892,185.3L175.141,180.836L174.131,173.781L178.235,166.94L181.259,164.42Z" style="fill:none;stroke:rgb(35,31,32);stroke-width:0.22px;"/>
        <path d="M161.387,150.236L165.419,153.692L165.563,161.684L162.107,164.996L158.147,163.989L154.763,164.06L150.587,157.148L153.323,151.675L161.387,150.236Z" style="fill:rgb(35,31,32);fill-rule:nonzero;"/>
        <path d="M161.387,150.236L165.419,153.692L165.563,161.684L162.107,164.996L158.147,163.989L154.763,164.06L150.587,157.148L153.323,151.675L161.387,150.236Z" style="fill:none;stroke:rgb(35,31,32);stroke-width:0.22px;"/>
        <path d="M160.883,117.117L161.892,122.228L165.563,127.989L165.275,131.949L153.251,140.3L144.396,132.308L145.547,120.86L152.892,116.396L158.363,117.765L160.883,117.117Z" style="fill:rgb(35,31,32);fill-rule:nonzero;"/>
        <path d="M160.883,117.117L161.892,122.228L165.563,127.989L165.275,131.949L153.251,140.3L144.396,132.308L145.547,120.86L152.892,116.396L158.363,117.765L160.883,117.117Z" style="fill:none;stroke:rgb(35,31,32);stroke-width:0.22px;"/>
        <path d="M83.699,121.364L79.235,129.068C83.195,129.429 87.083,130.078 90.899,131.013L95.003,146.349C87.371,144.261 79.667,142.892 71.819,142.388L65.339,153.188C72.107,153.044 78.875,153.765 85.571,155.276L85.427,163.124L59.579,163.124L56.987,167.588L106.235,167.588L106.235,157.004C106.091,153.548 104.147,150.453 101.195,148.651L94.355,123.453C90.899,122.732 87.443,122.013 83.987,121.435L83.699,121.364Z" style="fill:rgb(35,31,32);fill-rule:nonzero;"/>
        <path d="M83.699,121.364L79.235,129.068C83.195,129.429 87.083,130.078 90.899,131.013L95.003,146.349C87.371,144.261 79.667,142.892 71.819,142.388L65.339,153.188C72.107,153.044 78.875,153.765 85.571,155.276L85.427,163.124L59.579,163.124L56.987,167.588L106.235,167.588L106.235,157.004C106.091,153.548 104.147,150.453 101.195,148.651L94.355,123.453C90.899,122.732 87.443,122.013 83.987,121.435L83.699,121.364Z" style="fill:none;stroke:rgb(35,31,32);stroke-width:0.22px;"/>
        <path d="M106.308,169.82L106.308,176.588L100.979,176.588L100.979,183.86L100.188,186.812C97.163,188.108 93.779,188.036 90.827,186.741L90.251,183.788L90.251,176.588L51.875,176.588L55.764,169.82L106.308,169.82Z" style="fill:rgb(35,31,32);fill-rule:nonzero;"/>
        <path d="M106.308,169.82L106.308,176.588L100.979,176.588L100.979,183.86L100.188,186.812C97.163,188.108 93.779,188.036 90.827,186.741L90.251,183.788L90.251,176.588L51.875,176.588L55.764,169.82L106.308,169.82Z" style="fill:none;stroke:rgb(35,31,32);stroke-width:0.22px;"/>
        <path d="M209.916,187.748L45.395,187.748L41.508,194.444L213.803,194.444L209.916,187.748Z" style="fill:rgb(35,31,32);fill-rule:nonzero;"/>
        <path d="M209.916,187.748L45.395,187.748L41.508,194.444L213.803,194.444L209.916,187.748Z" style="fill:none;stroke:rgb(35,31,32);stroke-width:0.22px;"/>
        <path d="M104.075,183.644L106.235,185.3L106.379,185.157L148.859,139.94L143.1,134.613L104.075,183.644Z" style="fill:rgb(35,31,32);fill-rule:nonzero;"/>
        <path d="M104.075,183.644L106.235,185.3L106.379,185.157L148.859,139.94L143.1,134.613L104.075,183.644Z" style="fill:none;stroke:rgb(35,31,32);stroke-width:0.22px;"/>
        <path d="M100.979,157.796C100.979,154.772 98.603,152.396 95.579,152.396C92.627,152.396 90.251,154.772 90.251,157.796C90.251,160.747 92.627,163.124 95.579,163.124C98.603,163.124 100.979,160.747 100.979,157.796Z" style="fill:white;fill-rule:nonzero;"/>
        <path d="M100.979,157.796C100.979,154.772 98.603,152.396 95.579,152.396C92.627,152.396 90.251,154.772 90.251,157.796C90.251,160.747 92.627,163.124 95.579,163.124C98.603,163.124 100.979,160.747 100.979,157.796Z" style="fill:none;stroke:rgb(35,31,32);stroke-width:0.22px;"/>
    </g>
</svg>
