<?xml version="1.0" encoding="UTF-8" standalone="no"?>
<!DOCTYPE svg PUBLIC "-//W3C//DTD SVG 1.1//EN" "http://www.w3.org/Graphics/SVG/1.1/DTD/svg11.dtd">
<svg width="100%" height="100%" viewBox="0 0 256 224" version="1.1" xmlns="http://www.w3.org/2000/svg" xmlns:xlink="http://www.w3.org/1999/xlink" xml:space="preserve" xmlns:serif="http://www.serif.com/" style="fill-rule:evenodd;clip-rule:evenodd;stroke-miterlimit:2;">
    <g>
        <path d="M119.916,5.013L1.331,210.429C0.539,211.796 0.107,213.38 0.107,214.964C0.107,219.86 4.139,223.892 9.035,223.892L246.275,223.892C251.172,223.892 255.203,219.86 255.203,214.964C255.203,213.38 254.771,211.796 253.979,210.429L135.396,5.013C133.812,2.277 130.858,0.621 127.619,0.621C124.451,0.621 121.5,2.277 119.916,5.013Z" style="fill:rgb(211,63,39);fill-rule:nonzero;"/>
        <path d="M119.916,5.013L1.331,210.429C0.539,211.796 0.107,213.38 0.107,214.964C0.107,219.86 4.139,223.892 9.035,223.892L246.275,223.892C251.172,223.892 255.203,219.86 255.203,214.964C255.203,213.38 254.771,211.796 253.979,210.429L135.396,5.013C133.812,2.277 130.858,0.621 127.619,0.621C124.451,0.621 121.5,2.277 119.916,5.013Z" style="fill:none;stroke:rgb(211,63,39);stroke-width:0.22px;"/>
        <path d="M215.315,197.036L127.619,45.261L39.996,197.036L215.315,197.036Z" style="fill:white;fill-rule:nonzero;"/>
        <path d="M215.315,197.036L127.619,45.261L39.996,197.036L215.315,197.036Z" style="fill:none;stroke:white;stroke-width:0.22px;"/>
        <path d="M116.604,117.836L113.292,116.684L119.268,132.812L123.875,132.741L116.604,117.836Z" style="fill:rgb(35,31,32);fill-rule:nonzero;"/>
        <path d="M116.604,117.836L113.292,116.684L119.268,132.812L123.875,132.741L116.604,117.836Z" style="fill:none;stroke:rgb(35,31,32);stroke-width:0.22px;"/>
        <path d="M128.987,127.339L124.091,127.411L115.739,106.821L119.339,108.117L128.987,127.339Z" style="fill:rgb(35,31,32);fill-rule:nonzero;"/>
        <path d="M128.987,127.339L124.091,127.411L115.739,106.821L119.339,108.117L128.987,127.339Z" style="fill:none;stroke:rgb(35,31,32);stroke-width:0.22px;"/>
        <path d="M149.147,164.852L141.228,175.652L142.595,177.452L142.812,179.469L149.292,185.084L148.932,187.748L120.635,187.748L122.436,178.028L117.827,170.9L116.819,165.356L115.739,163.556L114.011,160.747L113.436,158.013L112.931,155.708L116.315,139.723L114.011,133.316L107.315,126.332L107.171,116.108L107.963,114.092L106.595,108.909L100.907,100.484L46.619,194.444L208.907,194.444L199.548,178.316L194.291,178.316L191.699,187.677L178.308,187.677L178.308,187.1L185.292,176.805L173.051,165.716L164.916,167.588L163.547,175.724L168.516,186.38L168.587,187.677L157.211,187.677L161.387,181.053L155.987,166.076L149.147,164.852Z" style="fill:rgb(35,31,32);fill-rule:nonzero;"/>
        <path d="M149.147,164.852L141.228,175.652L142.595,177.452L142.812,179.469L149.292,185.084L148.932,187.748L120.635,187.748L122.436,178.028L117.827,170.9L116.819,165.356L115.739,163.556L114.011,160.747L113.436,158.013L112.931,155.708L116.315,139.723L114.011,133.316L107.315,126.332L107.171,116.108L107.963,114.092L106.595,108.909L100.907,100.484L46.619,194.444L208.907,194.444L199.548,178.316L194.291,178.316L191.699,187.677L178.308,187.677L178.308,187.1L185.292,176.805L173.051,165.716L164.916,167.588L163.547,175.724L168.516,186.38L168.587,187.677L157.211,187.677L161.387,181.053L155.987,166.076L149.147,164.852Z" style="fill:none;stroke:rgb(35,31,32);stroke-width:0.22px;"/>
        <path d="M127.403,132.02L122.507,136.483L121.788,148.292L128.771,155.06L140.075,149.66L141.299,140.66L140.003,139.723L133.812,137.564L127.403,132.02Z" style="fill:rgb(35,31,32);fill-rule:nonzero;"/>
        <path d="M127.403,132.02L122.507,136.483L121.788,148.292L128.771,155.06L140.075,149.66L141.299,140.66L140.003,139.723L133.812,137.564L127.403,132.02Z" style="fill:none;stroke:rgb(35,31,32);stroke-width:0.22px;"/>
    </g>
</svg>
