<?xml version="1.0" encoding="UTF-8" standalone="no"?>
<!DOCTYPE svg PUBLIC "-//W3C//DTD SVG 1.1//EN" "http://www.w3.org/Graphics/SVG/1.1/DTD/svg11.dtd">
<svg width="100%" height="100%" viewBox="0 0 256 224" version="1.1" xmlns="http://www.w3.org/2000/svg" xmlns:xlink="http://www.w3.org/1999/xlink" xml:space="preserve" xmlns:serif="http://www.serif.com/" style="fill-rule:evenodd;clip-rule:evenodd;stroke-miterlimit:2;">
    <g>
        <path d="M135.323,5.085L254.051,210.501C254.844,211.869 255.203,213.453 255.203,214.965C255.203,219.861 251.172,223.893 246.275,223.893L9.035,223.893C4.139,223.893 0.107,219.861 0.107,214.965C0.107,213.381 0.539,211.869 1.259,210.501L119.987,5.085C123.372,-0.963 131.939,-0.891 135.396,5.085L135.323,5.085Z" style="fill:rgb(211,63,39);fill-rule:nonzero;"/>
        <path d="M135.323,5.085L254.051,210.501C254.844,211.869 255.203,213.453 255.203,214.965C255.203,219.861 251.172,223.893 246.275,223.893L9.035,223.893C4.139,223.893 0.107,219.861 0.107,214.965C0.107,213.381 0.539,211.869 1.259,210.501L119.987,5.085C123.372,-0.963 131.939,-0.891 135.396,5.085L135.323,5.085Z" style="fill:none;stroke:rgb(211,63,39);stroke-width:0.22px;"/>
        <path d="M39.996,197.037L127.691,45.261L215.315,197.037L39.996,197.037Z" style="fill:white;fill-rule:nonzero;"/>
        <path d="M39.996,197.037L127.691,45.261L215.315,197.037L39.996,197.037Z" style="fill:none;stroke:white;stroke-width:0.22px;"/>
        <path d="M147.06,140.805L147.779,136.053L140.651,134.901L139.931,139.724L140.292,141.957C141.372,142.748 142.667,143.181 144.035,143.181C144.684,143.181 145.403,143.109 146.051,142.821L147.06,140.805Z" style="fill:rgb(35,31,32);fill-rule:nonzero;"/>
        <path d="M147.06,140.805L147.779,136.053L140.651,134.901L139.931,139.724L140.292,141.957C141.372,142.748 142.667,143.181 144.035,143.181C144.684,143.181 145.403,143.109 146.051,142.821L147.06,140.805Z" style="fill:none;stroke:rgb(35,31,32);stroke-width:0.22px;"/>
        <path d="M101.195,128.781L100.476,133.604L100.835,135.837C101.843,136.628 103.139,137.061 104.58,137.061C105.299,137.061 106.02,136.989 106.595,136.773L107.604,134.685L108.323,129.933L101.195,128.781Z" style="fill:rgb(35,31,32);fill-rule:nonzero;"/>
        <path d="M101.195,128.781L100.476,133.604L100.835,135.837C101.843,136.628 103.139,137.061 104.58,137.061C105.299,137.061 106.02,136.989 106.595,136.773L107.604,134.685L108.323,129.933L101.195,128.781Z" style="fill:none;stroke:rgb(35,31,32);stroke-width:0.22px;"/>
        <path d="M150.372,117.045L147.491,98.469C142.021,96.525 136.259,95.013 130.427,94.077C125.748,93.357 120.852,93.069 115.956,93.069L112.931,93.069L104.507,109.989C102.491,110.781 100.979,112.293 100.188,114.165L98.963,122.301L99.179,122.517L151.595,130.653L151.883,130.436L153.107,122.373C152.963,120.285 152.027,118.412 150.372,117.045Z" style="fill:rgb(35,31,32);fill-rule:nonzero;"/>
        <path d="M150.372,117.045L147.491,98.469C142.021,96.525 136.259,95.013 130.427,94.077C125.748,93.357 120.852,93.069 115.956,93.069L112.931,93.069L104.507,109.989C102.491,110.781 100.979,112.293 100.188,114.165L98.963,122.301L99.179,122.517L151.595,130.653L151.883,130.436L153.107,122.373C152.963,120.285 152.027,118.412 150.372,117.045Z" style="fill:none;stroke:rgb(35,31,32);stroke-width:0.22px;"/>
        <path d="M151.379,132.309L98.891,124.173L98.675,124.388L98.027,128.133L98.315,128.421L150.659,136.412L150.947,136.269L151.523,132.453L151.379,132.309Z" style="fill:rgb(35,31,32);fill-rule:nonzero;"/>
        <path d="M151.379,132.309L98.891,124.173L98.675,124.388L98.027,128.133L98.315,128.421L150.659,136.412L150.947,136.269L151.523,132.453L151.379,132.309Z" style="fill:none;stroke:rgb(35,31,32);stroke-width:0.22px;"/>
        <path d="M165.347,167.517C167.436,167.733 169.379,168.309 171.323,168.885C173.124,169.605 174.708,170.685 175.932,172.197C177.011,173.637 177.587,175.437 177.587,177.309L177.587,177.525C177.587,179.685 177.443,181.845 177.011,184.005C176.363,187.029 175.355,190.053 174.06,193.005L186.443,193.005C188.027,187.965 188.819,182.781 188.819,177.525C188.819,176.805 188.819,176.013 188.748,175.221C188.748,174.069 188.387,172.917 187.812,171.909C187.164,170.469 186.083,169.101 184.859,168.093C182.557,166.365 179.963,164.997 177.228,163.989C175.644,163.341 174.06,162.837 172.403,162.333C171.396,162.045 170.387,161.829 169.308,161.613L148.859,158.445C146.987,158.301 145.259,157.58 143.748,156.429C142.812,155.853 142.092,154.989 141.516,153.981C141.372,153.621 141.299,153.189 141.299,152.829C141.228,152.325 141.299,151.893 141.443,151.46C141.443,151.173 141.587,150.885 141.803,150.669C142.021,150.453 142.165,150.165 142.308,149.949C142.956,149.373 143.532,148.869 144.179,148.436L144.54,148.149L144.899,147.645L144.899,147.573C144.899,147.429 144.827,147.285 144.611,147.141C144.107,146.781 143.459,146.493 142.812,146.421C140.363,146.997 138.204,148.652 137.051,150.957C136.763,151.676 136.691,152.397 136.691,153.117C136.691,154.556 137.124,155.925 137.916,157.005C141.443,161.181 146.339,163.917 151.667,164.925L155.916,165.645L165.347,167.517Z" style="fill:rgb(35,31,32);fill-rule:nonzero;"/>
        <path d="M165.347,167.517C167.436,167.733 169.379,168.309 171.323,168.885C173.124,169.605 174.708,170.685 175.932,172.197C177.011,173.637 177.587,175.437 177.587,177.309L177.587,177.525C177.587,179.685 177.443,181.845 177.011,184.005C176.363,187.029 175.355,190.053 174.06,193.005L186.443,193.005C188.027,187.965 188.819,182.781 188.819,177.525C188.819,176.805 188.819,176.013 188.748,175.221C188.748,174.069 188.387,172.917 187.812,171.909C187.164,170.469 186.083,169.101 184.859,168.093C182.557,166.365 179.963,164.997 177.228,163.989C175.644,163.341 174.06,162.837 172.403,162.333C171.396,162.045 170.387,161.829 169.308,161.613L148.859,158.445C146.987,158.301 145.259,157.58 143.748,156.429C142.812,155.853 142.092,154.989 141.516,153.981C141.372,153.621 141.299,153.189 141.299,152.829C141.228,152.325 141.299,151.893 141.443,151.46C141.443,151.173 141.587,150.885 141.803,150.669C142.021,150.453 142.165,150.165 142.308,149.949C142.956,149.373 143.532,148.869 144.179,148.436L144.54,148.149L144.899,147.645L144.899,147.573C144.899,147.429 144.827,147.285 144.611,147.141C144.107,146.781 143.459,146.493 142.812,146.421C140.363,146.997 138.204,148.652 137.051,150.957C136.763,151.676 136.691,152.397 136.691,153.117C136.691,154.556 137.124,155.925 137.916,157.005C141.443,161.181 146.339,163.917 151.667,164.925L155.916,165.645L165.347,167.517Z" style="fill:none;stroke:rgb(35,31,32);stroke-width:0.22px;"/>
        <path d="M142.235,189.333C142.883,188.613 143.315,187.893 143.748,187.029C144.035,186.453 144.251,185.805 144.396,185.157C144.396,184.149 144.035,183.069 143.459,182.205C142.667,181.197 141.587,180.261 140.436,179.685C139.644,179.325 138.923,179.037 138.06,178.749L108.107,169.245C104.724,168.237 101.483,166.941 98.243,165.573C95.219,164.133 92.555,162.189 90.323,159.669C89.459,158.661 89.027,157.508 89.027,156.141C89.171,155.133 89.531,154.125 90.107,153.261C91.547,151.532 93.203,150.021 95.075,148.869C97.091,147.573 99.467,146.565 101.916,146.061C102.563,146.061 103.139,146.277 103.715,146.709C103.788,146.781 103.788,146.853 103.859,146.925L103.788,147.213L103.283,147.717L102.563,148.364L101.627,149.157L100.691,149.949L97.019,153.117C96.227,153.909 95.795,154.845 95.651,155.925L95.723,156.573C95.939,157.077 96.227,157.58 96.731,157.797C97.811,158.661 98.963,159.453 100.043,160.101C102.923,161.685 105.875,162.981 108.899,163.917L128.339,169.605L146.628,174.645C150.875,175.869 154.044,179.397 154.835,183.717C154.763,184.869 154.619,185.949 154.332,187.101C153.971,188.037 153.611,189.045 153.179,189.909C152.459,191.061 151.739,192.213 150.875,193.293L139.139,193.221C140.292,191.997 141.299,190.629 142.235,189.333Z" style="fill:rgb(35,31,32);fill-rule:nonzero;"/>
        <path d="M142.235,189.333C142.883,188.613 143.315,187.893 143.748,187.029C144.035,186.453 144.251,185.805 144.396,185.157C144.396,184.149 144.035,183.069 143.459,182.205C142.667,181.197 141.587,180.261 140.436,179.685C139.644,179.325 138.923,179.037 138.06,178.749L108.107,169.245C104.724,168.237 101.483,166.941 98.243,165.573C95.219,164.133 92.555,162.189 90.323,159.669C89.459,158.661 89.027,157.508 89.027,156.141C89.171,155.133 89.531,154.125 90.107,153.261C91.547,151.532 93.203,150.021 95.075,148.869C97.091,147.573 99.467,146.565 101.916,146.061C102.563,146.061 103.139,146.277 103.715,146.709C103.788,146.781 103.788,146.853 103.859,146.925L103.788,147.213L103.283,147.717L102.563,148.364L101.627,149.157L100.691,149.949L97.019,153.117C96.227,153.909 95.795,154.845 95.651,155.925L95.723,156.573C95.939,157.077 96.227,157.58 96.731,157.797C97.811,158.661 98.963,159.453 100.043,160.101C102.923,161.685 105.875,162.981 108.899,163.917L128.339,169.605L146.628,174.645C150.875,175.869 154.044,179.397 154.835,183.717C154.763,184.869 154.619,185.949 154.332,187.101C153.971,188.037 153.611,189.045 153.179,189.909C152.459,191.061 151.739,192.213 150.875,193.293L139.139,193.221C140.292,191.997 141.299,190.629 142.235,189.333Z" style="fill:none;stroke:rgb(35,31,32);stroke-width:0.22px;"/>
        <path d="M144.251,125.468C144.899,125.973 145.619,126.189 146.411,126.189C146.843,126.189 147.275,126.189 147.635,126.045L148.644,119.781C147.997,119.277 147.204,118.989 146.411,118.989C145.979,118.989 145.547,119.061 145.188,119.205L144.251,125.468Z" style="fill:white;fill-rule:nonzero;"/>
        <path d="M144.251,125.468C144.899,125.973 145.619,126.189 146.411,126.189C146.843,126.189 147.275,126.189 147.635,126.045L148.644,119.781C147.997,119.277 147.204,118.989 146.411,118.989C145.979,118.989 145.547,119.061 145.188,119.205L144.251,125.468Z" style="fill:none;stroke:white;stroke-width:0.22px;"/>
        <path d="M107.748,119.925L108.755,113.589C108.107,113.157 107.315,112.869 106.523,112.869C106.164,112.869 105.659,112.941 105.372,113.085L104.363,119.349C105.011,119.853 105.731,120.069 106.595,120.069C106.956,120.069 107.387,120.069 107.748,119.925Z" style="fill:white;fill-rule:nonzero;"/>
        <path d="M107.748,119.925L108.755,113.589C108.107,113.157 107.315,112.869 106.523,112.869C106.164,112.869 105.659,112.941 105.372,113.085L104.363,119.349C105.011,119.853 105.731,120.069 106.595,120.069C106.956,120.069 107.387,120.069 107.748,119.925Z" style="fill:none;stroke:white;stroke-width:0.22px;"/>
        <path d="M145.476,115.029C137.627,110.565 128.771,108.189 119.699,108.189C116.387,108.189 113.075,108.549 109.907,109.125L115.02,98.469C119.987,98.613 124.812,98.973 129.634,99.621C134.459,100.412 139.139,101.565 143.819,102.933L145.476,115.029Z" style="fill:white;fill-rule:nonzero;"/>
        <path d="M145.476,115.029C137.627,110.565 128.771,108.189 119.699,108.189C116.387,108.189 113.075,108.549 109.907,109.125L115.02,98.469C119.987,98.613 124.812,98.973 129.634,99.621C134.459,100.412 139.139,101.565 143.819,102.933L145.476,115.029Z" style="fill:none;stroke:white;stroke-width:0.22px;"/>
    </g>
</svg>
