<?xml version="1.0" encoding="UTF-8" standalone="no"?>
<!DOCTYPE svg PUBLIC "-//W3C//DTD SVG 1.1//EN" "http://www.w3.org/Graphics/SVG/1.1/DTD/svg11.dtd">
<svg width="100%" height="100%" viewBox="0 0 595 521" version="1.1" xmlns="http://www.w3.org/2000/svg" xmlns:xlink="http://www.w3.org/1999/xlink" xml:space="preserve" xmlns:serif="http://www.serif.com/" style="fill-rule:evenodd;clip-rule:evenodd;stroke-miterlimit:2;">
    <g>
        <path d="M315.435,10.818L591.881,489.639C595.603,496.086 595.603,504.029 591.881,510.476C588.16,516.921 581.281,520.893 573.837,520.893L20.943,520.893C13.499,520.893 6.621,516.921 2.898,510.476C-0.822,504.029 -0.822,496.086 2.898,489.639L279.346,10.818C283.068,4.372 289.947,0.401 297.39,0.401C304.834,0.401 311.712,4.372 315.435,10.818Z" style="fill:rgb(211,63,39);fill-rule:nonzero;"/>
        <path d="M315.435,10.818L591.881,489.639C595.603,496.086 595.603,504.029 591.881,510.476C588.16,516.921 581.281,520.893 573.837,520.893L20.943,520.893C13.499,520.893 6.621,516.921 2.898,510.476C-0.822,504.029 -0.822,496.086 2.898,489.639L279.346,10.818C283.068,4.372 289.947,0.401 297.39,0.401C304.834,0.401 311.712,4.372 315.435,10.818Z" style="fill:none;stroke:rgb(211,63,39);stroke-width:0.22px;"/>
        <path d="M93.12,458.386L297.39,104.58L501.661,458.386L93.12,458.386Z" style="fill:white;fill-rule:nonzero;"/>
        <path d="M93.12,458.386L297.39,104.58L501.661,458.386L93.12,458.386Z" style="fill:none;stroke:white;stroke-width:0.71px;stroke-linecap:round;stroke-linejoin:round;"/>
        <path d="M297.39,414.438L297.39,452.446L107.998,452.446L129.767,414.63L297.39,414.438Z" style="fill:rgb(35,31,32);fill-rule:nonzero;"/>
        <path d="M297.39,414.438L297.39,452.446L107.998,452.446L129.767,414.63L297.39,414.438Z" style="fill:none;stroke:rgb(35,31,32);stroke-width:0.71px;stroke-linecap:round;stroke-linejoin:round;"/>
        <path d="M224.72,374.55L220.38,389.431L220.453,396.582C225.229,401.255 232.023,403.237 238.563,401.863L242.468,395.874L246.809,380.993L224.72,374.55Z" style="fill:rgb(35,31,32);fill-rule:nonzero;"/>
        <path d="M224.72,374.55L220.38,389.431L220.453,396.582C225.229,401.255 232.023,403.237 238.563,401.863L242.468,395.874L246.809,380.993L224.72,374.55Z" style="fill:none;stroke:rgb(35,31,32);stroke-width:0.37px;stroke-linecap:round;stroke-linejoin:round;"/>
        <path d="M382.182,406.312L219.417,358.841L218.562,359.294L215.132,371.051L215.61,371.893L378.375,419.365L379.231,418.912L382.66,407.153L382.182,406.312Z" style="fill:rgb(35,31,32);fill-rule:nonzero;"/>
        <path d="M382.182,406.312L219.417,358.841L218.562,359.294L215.132,371.051L215.61,371.893L378.375,419.365L379.231,418.912L382.66,407.153L382.182,406.312Z" style="fill:none;stroke:rgb(35,31,32);stroke-width:0.71px;stroke-linecap:round;stroke-linejoin:round;"/>
        <path d="M347.176,410.265L342.836,425.147L342.91,432.296C347.686,436.97 354.48,438.952 361.02,437.579L364.925,431.589L369.265,416.707L347.176,410.265Z" style="fill:rgb(35,31,32);fill-rule:nonzero;"/>
        <path d="M347.176,410.265L342.836,425.147L342.91,432.296C347.686,436.97 354.48,438.952 361.02,437.579L364.925,431.589L369.265,416.707L347.176,410.265Z" style="fill:none;stroke:rgb(35,31,32);stroke-width:0.37px;stroke-linecap:round;stroke-linejoin:round;"/>
        <path d="M385.256,357.767L383.972,297.625C367.162,289.18 349.694,282.11 331.742,276.484C313.58,271.578 295.051,268.149 276.335,266.232L242.922,316.254C236.451,317.823 230.938,322.038 227.727,327.871L220.403,352.979L220.881,353.821L383.646,401.293L384.501,400.839L391.825,375.73C392.252,369.086 389.87,362.568 385.256,357.767Z" style="fill:rgb(35,31,32);fill-rule:nonzero;"/>
        <path d="M385.256,357.767L383.972,297.625C367.162,289.18 349.694,282.11 331.742,276.484C313.58,271.578 295.051,268.149 276.335,266.232L242.922,316.254C236.451,317.823 230.938,322.038 227.727,327.871L220.403,352.979L220.881,353.821L383.646,401.293L384.501,400.839L391.825,375.73C392.252,369.086 389.87,362.568 385.256,357.767Z" style="fill:none;stroke:rgb(35,31,32);stroke-width:0.71px;stroke-linecap:round;stroke-linejoin:round;"/>
        <path d="M365.179,443.294L370.994,434.377L373.984,424.121L471.989,427.829L486.201,452.446L297.39,452.446L297.39,421.222L336.205,422.691L336.33,434.878C343.292,443.364 354.748,446.706 365.179,443.294Z" style="fill:rgb(187,177,163);fill-rule:nonzero;"/>
        <path d="M365.179,443.294L370.994,434.377L373.984,424.121L471.989,427.829L486.201,452.446L297.39,452.446L297.39,421.222L336.205,422.691L336.33,434.878C343.292,443.364 354.748,446.706 365.179,443.294Z" style="fill:none;stroke:rgb(187,177,163);stroke-width:0.71px;stroke-linecap:round;stroke-linejoin:round;"/>
        <path d="M362.318,381.88C365.133,384.625 369.128,385.79 372.976,384.99L378.657,365.517C375.841,362.773 371.846,361.607 367.998,362.408L362.318,381.88Z" style="fill:white;fill-rule:nonzero;"/>
        <path d="M362.318,381.88C365.133,384.625 369.128,385.79 372.976,384.99L378.657,365.517C375.841,362.773 371.846,361.607 367.998,362.408L362.318,381.88Z" style="fill:none;stroke:white;stroke-width:0.23px;stroke-linecap:round;stroke-linejoin:round;"/>
        <path d="M370.723,349.297C339.062,325.343 299.902,313.457 260.268,315.769L281.156,284.171C296.505,286.507 311.701,289.752 326.665,293.892C341.507,298.447 356.066,303.878 370.263,310.161L370.723,349.297Z" style="fill:white;fill-rule:nonzero;"/>
        <path d="M370.723,349.297C339.062,325.343 299.902,313.457 260.268,315.769L281.156,284.171C296.505,286.507 311.701,289.752 326.665,293.892C341.507,298.447 356.066,303.878 370.263,310.161L370.723,349.297Z" style="fill:none;stroke:white;stroke-width:0.71px;stroke-linecap:round;stroke-linejoin:round;"/>
        <path d="M249.3,348.918L254.98,329.446C252.165,326.702 248.17,325.537 244.321,326.337L238.642,345.809C241.457,348.554 245.452,349.719 249.3,348.918Z" style="fill:white;fill-rule:nonzero;"/>
        <path d="M249.3,348.918L254.98,329.446C252.165,326.702 248.17,325.537 244.321,326.337L238.642,345.809C241.457,348.554 245.452,349.719 249.3,348.918Z" style="fill:none;stroke:white;stroke-width:0.23px;stroke-linecap:round;stroke-linejoin:round;"/>
    </g>
</svg>
