<?xml version="1.0" encoding="UTF-8" standalone="no"?>
<!DOCTYPE svg PUBLIC "-//W3C//DTD SVG 1.1//EN" "http://www.w3.org/Graphics/SVG/1.1/DTD/svg11.dtd">
<svg width="100%" height="100%" viewBox="0 0 256 224" version="1.1" xmlns="http://www.w3.org/2000/svg" xmlns:xlink="http://www.w3.org/1999/xlink" xml:space="preserve" xmlns:serif="http://www.serif.com/" style="fill-rule:evenodd;clip-rule:evenodd;stroke-miterlimit:2;">
    <g>
        <path d="M9.035,223.893C4.139,223.893 0.107,219.933 0.107,214.965C0.107,213.309 0.539,211.869 1.331,210.501L119.916,5.013C123.372,-0.963 131.939,-0.891 135.467,5.013L253.979,210.501C254.771,211.869 255.203,213.381 255.203,214.965C255.203,219.933 251.243,223.893 246.275,223.893L9.035,223.893Z" style="fill:rgb(211,63,39);fill-rule:nonzero;"/>
        <path d="M9.035,223.893C4.139,223.893 0.107,219.933 0.107,214.965C0.107,213.309 0.539,211.869 1.331,210.501L119.916,5.013C123.372,-0.963 131.939,-0.891 135.467,5.013L253.979,210.501C254.771,211.869 255.203,213.381 255.203,214.965C255.203,219.933 251.243,223.893 246.275,223.893L9.035,223.893Z" style="fill:none;stroke:rgb(211,63,39);stroke-width:0.22px;"/>
        <path d="M127.691,45.261L215.315,197.109L39.996,197.109L127.691,45.261Z" style="fill:white;fill-rule:nonzero;"/>
        <path d="M127.691,45.261L215.315,197.109L39.996,197.109L127.691,45.261Z" style="fill:none;stroke:white;stroke-width:0.22px;"/>
        <path d="M81.395,193.221L48.419,193.221L67.931,159.525L80.171,159.525L74.267,153.549L141.228,87.021L148.788,94.652L81.395,161.613L81.395,175.293C84.131,175.293 86.867,174.429 89.099,172.845C91.331,171.261 94.067,170.397 96.803,170.397C99.611,170.397 102.275,171.261 104.507,172.845C106.812,174.429 109.476,175.293 112.211,175.293C114.947,175.293 117.684,174.429 119.987,172.845C122.219,171.261 124.883,170.397 127.691,170.397C130.427,170.397 133.091,171.261 135.323,172.845C137.627,174.429 140.292,175.293 143.1,175.293C145.835,175.293 148.5,174.429 150.803,172.845C153.035,171.261 155.699,170.397 158.508,170.397C161.243,170.397 163.979,171.261 166.211,172.845C168.443,174.429 171.179,175.293 173.916,175.293L173.916,159.525L187.379,159.525L206.892,193.221L173.916,193.221C171.179,193.221 168.443,192.357 166.211,190.773C163.979,189.117 161.243,188.325 158.508,188.325C155.699,188.325 153.035,189.117 150.803,190.773C148.5,192.357 145.835,193.221 143.1,193.221C140.292,193.221 137.627,192.357 135.323,190.773C133.091,189.117 130.427,188.325 127.691,188.325C124.883,188.325 122.219,189.117 119.916,190.773C117.684,192.357 114.947,193.221 112.211,193.221C109.476,193.221 106.812,192.357 104.507,190.773C102.275,189.117 99.611,188.325 96.803,188.325C94.067,188.325 91.331,189.117 89.099,190.773C86.867,192.357 84.131,193.221 81.395,193.221Z" style="fill:rgb(35,31,32);fill-rule:nonzero;"/>
        <path d="M81.395,193.221L48.419,193.221L67.931,159.525L80.171,159.525L74.267,153.549L141.228,87.021L148.788,94.652L81.395,161.613L81.395,175.293C84.131,175.293 86.867,174.429 89.099,172.845C91.331,171.261 94.067,170.397 96.803,170.397C99.611,170.397 102.275,171.261 104.507,172.845C106.812,174.429 109.476,175.293 112.211,175.293C114.947,175.293 117.684,174.429 119.987,172.845C122.219,171.261 124.883,170.397 127.691,170.397C130.427,170.397 133.091,171.261 135.323,172.845C137.627,174.429 140.292,175.293 143.1,175.293C145.835,175.293 148.5,174.429 150.803,172.845C153.035,171.261 155.699,170.397 158.508,170.397C161.243,170.397 163.979,171.261 166.211,172.845C168.443,174.429 171.179,175.293 173.916,175.293L173.916,159.525L187.379,159.525L206.892,193.221L173.916,193.221C171.179,193.221 168.443,192.357 166.211,190.773C163.979,189.117 161.243,188.325 158.508,188.325C155.699,188.325 153.035,189.117 150.803,190.773C148.5,192.357 145.835,193.221 143.1,193.221C140.292,193.221 137.627,192.357 135.323,190.773C133.091,189.117 130.427,188.325 127.691,188.325C124.883,188.325 122.219,189.117 119.916,190.773C117.684,192.357 114.947,193.221 112.211,193.221C109.476,193.221 106.812,192.357 104.507,190.773C102.275,189.117 99.611,188.325 96.803,188.325C94.067,188.325 91.331,189.117 89.099,190.773C86.867,192.357 84.131,193.221 81.395,193.221Z" style="fill:none;stroke:rgb(35,31,32);stroke-width:0.22px;"/>
        <path d="M81.395,182.493L81.395,186.021C84.131,186.021 86.795,185.157 89.099,183.573C91.331,181.989 94.067,181.125 96.803,181.125C99.539,181.125 102.275,182.061 104.507,183.573C106.812,185.157 109.476,186.021 112.211,186.021C114.947,186.021 117.684,185.157 119.916,183.573C122.147,181.989 124.883,181.125 127.691,181.125C130.427,181.125 133.164,182.061 135.396,183.573C137.555,185.157 140.292,186.021 143.1,186.021C145.835,186.021 148.5,185.157 150.803,183.573C153.035,181.989 155.771,181.125 158.508,181.125C161.243,181.125 163.979,182.061 166.211,183.573C168.516,185.157 171.179,186.021 173.916,186.021L173.916,182.493C171.179,182.493 168.516,181.629 166.211,180.045C163.979,178.389 161.243,177.597 158.508,177.525C155.771,177.597 153.035,178.389 150.803,179.973C148.5,181.629 145.835,182.421 143.1,182.493C140.292,182.493 137.555,181.629 135.396,180.045C133.164,178.389 130.427,177.597 127.691,177.525C124.883,177.597 122.147,178.389 119.916,179.973C117.684,181.629 114.947,182.421 112.211,182.493C109.476,182.493 106.812,181.629 104.507,180.045C102.275,178.389 99.539,177.597 96.803,177.525C94.067,177.597 91.331,178.389 89.099,179.973C86.795,181.629 84.131,182.421 81.395,182.493Z" style="fill:white;fill-rule:nonzero;"/>
        <path d="M81.395,182.493L81.395,186.021C84.131,186.021 86.795,185.157 89.099,183.573C91.331,181.989 94.067,181.125 96.803,181.125C99.539,181.125 102.275,182.061 104.507,183.573C106.812,185.157 109.476,186.021 112.211,186.021C114.947,186.021 117.684,185.157 119.916,183.573C122.147,181.989 124.883,181.125 127.691,181.125C130.427,181.125 133.164,182.061 135.396,183.573C137.555,185.157 140.292,186.021 143.1,186.021C145.835,186.021 148.5,185.157 150.803,183.573C153.035,181.989 155.771,181.125 158.508,181.125C161.243,181.125 163.979,182.061 166.211,183.573C168.516,185.157 171.179,186.021 173.916,186.021L173.916,182.493C171.179,182.493 168.516,181.629 166.211,180.045C163.979,178.389 161.243,177.597 158.508,177.525C155.771,177.597 153.035,178.389 150.803,179.973C148.5,181.629 145.835,182.421 143.1,182.493C140.292,182.493 137.555,181.629 135.396,180.045C133.164,178.389 130.427,177.597 127.691,177.525C124.883,177.597 122.147,178.389 119.916,179.973C117.684,181.629 114.947,182.421 112.211,182.493C109.476,182.493 106.812,181.629 104.507,180.045C102.275,178.389 99.539,177.597 96.803,177.525C94.067,177.597 91.331,178.389 89.099,179.973C86.795,181.629 84.131,182.421 81.395,182.493Z" style="fill:none;stroke:white;stroke-width:0.22px;"/>
    </g>
</svg>
