<?xml version="1.0" encoding="UTF-8" standalone="no"?>
<!DOCTYPE svg PUBLIC "-//W3C//DTD SVG 1.1//EN" "http://www.w3.org/Graphics/SVG/1.1/DTD/svg11.dtd">
<svg width="100%" height="100%" viewBox="0 0 256 224" version="1.1" xmlns="http://www.w3.org/2000/svg" xmlns:xlink="http://www.w3.org/1999/xlink" xml:space="preserve" xmlns:serif="http://www.serif.com/" style="fill-rule:evenodd;clip-rule:evenodd;stroke-miterlimit:2;">
    <g>
        <path d="M119.987,5.013L1.331,210.501C0.539,211.796 0.107,213.38 0.107,214.893C0.107,219.86 4.139,223.893 9.107,223.893L246.348,223.893C251.243,223.893 255.203,219.86 255.203,214.893C255.203,213.38 254.771,211.796 254.051,210.501L135.396,5.013C133.812,2.277 130.787,0.549 127.691,0.549C124.523,0.549 121.5,2.277 119.987,5.013Z" style="fill:rgb(211,63,39);fill-rule:nonzero;"/>
        <path d="M119.987,5.013L1.331,210.501C0.539,211.796 0.107,213.38 0.107,214.893C0.107,219.86 4.139,223.893 9.107,223.893L246.348,223.893C251.243,223.893 255.203,219.86 255.203,214.893C255.203,213.38 254.771,211.796 254.051,210.501L135.396,5.013C133.812,2.277 130.787,0.549 127.691,0.549C124.523,0.549 121.5,2.277 119.987,5.013Z" style="fill:none;stroke:rgb(211,63,39);stroke-width:0.22px;"/>
        <path d="M39.996,197.108L215.315,197.108L127.691,45.333L39.996,197.108Z" style="fill:white;fill-rule:nonzero;"/>
        <path d="M39.996,197.108L215.315,197.108L127.691,45.333L39.996,197.108Z" style="fill:none;stroke:white;stroke-width:0.22px;"/>
        <path d="M113.363,176.517C116.1,176.517 118.763,175.581 121.067,174.068C123.299,172.484 126.035,171.548 128.771,171.548C131.507,171.548 134.243,172.484 136.476,174.068C138.708,175.652 141.443,176.517 144.179,176.517C146.987,176.517 149.652,175.581 151.883,174.068C154.188,172.484 156.852,171.548 159.587,171.548C162.396,171.548 165.06,172.484 167.363,174.068C169.595,175.652 172.259,176.517 175.068,176.517C177.803,176.517 180.467,175.581 182.699,174.068C185.003,172.484 187.667,171.548 190.403,171.548C193.212,171.548 195.947,172.484 198.179,174.068C198.54,174.285 198.971,174.573 199.332,174.789L204.443,183.573C202.14,183.285 200.051,182.493 198.179,181.197C195.947,179.613 193.212,178.749 190.476,178.749C187.667,178.749 185.003,179.613 182.699,181.197C180.467,182.781 177.803,183.645 175.068,183.645C172.259,183.645 169.595,182.781 167.363,181.197C165.06,179.613 162.396,178.749 159.587,178.749C156.852,178.749 154.188,179.613 151.883,181.197C149.652,182.781 146.987,183.645 144.179,183.645C141.443,183.645 138.708,182.781 136.476,181.197C134.243,179.613 131.507,178.749 128.771,178.749C126.035,178.749 123.299,179.613 121.067,181.197C118.763,182.781 116.1,183.645 113.363,183.645L113.363,187.245C116.1,187.245 118.763,186.309 121.067,184.725C123.299,183.212 126.035,182.276 128.771,182.276C131.507,182.276 134.243,183.212 136.476,184.725C138.708,186.38 141.443,187.245 144.179,187.245C146.987,187.245 149.652,186.309 151.883,184.725C154.188,183.212 156.852,182.276 159.587,182.276C162.396,182.276 165.06,183.212 167.363,184.725C169.595,186.38 172.259,187.245 175.068,187.245C177.803,187.245 180.467,186.309 182.699,184.725C185.003,183.212 187.667,182.276 190.403,182.276C193.212,182.276 195.947,183.212 198.179,184.725C200.411,186.38 203.147,187.245 205.883,187.245L206.532,187.245L210.203,193.652C208.763,194.157 207.252,194.444 205.668,194.444C203.003,194.373 200.411,193.437 198.179,191.924C195.947,190.34 193.212,189.477 190.476,189.477C187.667,189.477 185.003,190.34 182.699,191.924C180.467,193.508 177.803,194.373 175.068,194.373C172.259,194.373 169.595,193.508 167.363,191.924C165.06,190.34 162.396,189.477 159.587,189.477C156.852,189.477 154.188,190.34 151.883,191.924C149.652,193.508 146.987,194.373 144.179,194.373C141.443,194.373 138.708,193.508 136.476,191.924C134.243,190.34 131.507,189.477 128.771,189.477C126.035,189.477 123.299,190.34 121.067,191.924C118.763,193.508 116.1,194.373 113.363,194.373L46.331,194.373L81.971,132.597L113.363,132.597L113.363,176.517Z" style="fill:rgb(35,31,32);fill-rule:nonzero;"/>
        <path d="M113.363,176.517C116.1,176.517 118.763,175.581 121.067,174.068C123.299,172.484 126.035,171.548 128.771,171.548C131.507,171.548 134.243,172.484 136.476,174.068C138.708,175.652 141.443,176.517 144.179,176.517C146.987,176.517 149.652,175.581 151.883,174.068C154.188,172.484 156.852,171.548 159.587,171.548C162.396,171.548 165.06,172.484 167.363,174.068C169.595,175.652 172.259,176.517 175.068,176.517C177.803,176.517 180.467,175.581 182.699,174.068C185.003,172.484 187.667,171.548 190.403,171.548C193.212,171.548 195.947,172.484 198.179,174.068C198.54,174.285 198.971,174.573 199.332,174.789L204.443,183.573C202.14,183.285 200.051,182.493 198.179,181.197C195.947,179.613 193.212,178.749 190.476,178.749C187.667,178.749 185.003,179.613 182.699,181.197C180.467,182.781 177.803,183.645 175.068,183.645C172.259,183.645 169.595,182.781 167.363,181.197C165.06,179.613 162.396,178.749 159.587,178.749C156.852,178.749 154.188,179.613 151.883,181.197C149.652,182.781 146.987,183.645 144.179,183.645C141.443,183.645 138.708,182.781 136.476,181.197C134.243,179.613 131.507,178.749 128.771,178.749C126.035,178.749 123.299,179.613 121.067,181.197C118.763,182.781 116.1,183.645 113.363,183.645L113.363,187.245C116.1,187.245 118.763,186.309 121.067,184.725C123.299,183.212 126.035,182.276 128.771,182.276C131.507,182.276 134.243,183.212 136.476,184.725C138.708,186.38 141.443,187.245 144.179,187.245C146.987,187.245 149.652,186.309 151.883,184.725C154.188,183.212 156.852,182.276 159.587,182.276C162.396,182.276 165.06,183.212 167.363,184.725C169.595,186.38 172.259,187.245 175.068,187.245C177.803,187.245 180.467,186.309 182.699,184.725C185.003,183.212 187.667,182.276 190.403,182.276C193.212,182.276 195.947,183.212 198.179,184.725C200.411,186.38 203.147,187.245 205.883,187.245L206.532,187.245L210.203,193.652C208.763,194.157 207.252,194.444 205.668,194.444C203.003,194.373 200.411,193.437 198.179,191.924C195.947,190.34 193.212,189.477 190.476,189.477C187.667,189.477 185.003,190.34 182.699,191.924C180.467,193.508 177.803,194.373 175.068,194.373C172.259,194.373 169.595,193.508 167.363,191.924C165.06,190.34 162.396,189.477 159.587,189.477C156.852,189.477 154.188,190.34 151.883,191.924C149.652,193.508 146.987,194.373 144.179,194.373C141.443,194.373 138.708,193.508 136.476,191.924C134.243,190.34 131.507,189.477 128.771,189.477C126.035,189.477 123.299,190.34 121.067,191.924C118.763,193.508 116.1,194.373 113.363,194.373L46.331,194.373L81.971,132.597L113.363,132.597L113.363,176.517Z" style="fill:none;stroke:rgb(35,31,32);stroke-width:0.22px;"/>
        <path d="M133.812,95.229L164.411,118.053C165.419,118.845 166.141,120.141 166.141,121.58L166.141,122.229L164.124,136.773L164.124,137.276C164.124,138.501 164.699,139.651 165.708,140.373L178.021,149.588C179.027,150.38 179.604,151.532 179.604,152.756C179.604,153.548 179.387,154.412 178.883,155.061L172.116,164.061C170.604,166.077 167.867,166.508 165.852,164.997L163.188,163.053C164.411,161.397 164.987,159.453 164.987,157.436C164.987,152.325 160.883,148.221 155.699,148.221C152.819,148.221 150.011,149.517 148.283,151.893L119.339,130.365C120.491,128.71 121.139,126.837 121.139,124.748C121.139,119.637 117.035,115.46 111.852,115.46C108.971,115.46 106.164,116.973 104.436,119.276L98.891,115.172C96.947,113.733 96.515,110.853 98.027,108.909L104.724,99.837C106.091,98.109 108.54,97.748 110.195,99.045L111.852,100.269C112.427,100.628 113.003,100.845 113.651,100.845C114.011,100.845 114.372,100.773 114.803,100.628L129.419,94.652C130.931,94.077 132.516,94.365 133.812,95.229Z" style="fill:rgb(35,31,32);fill-rule:nonzero;"/>
        <path d="M133.812,95.229L164.411,118.053C165.419,118.845 166.141,120.141 166.141,121.58L166.141,122.229L164.124,136.773L164.124,137.276C164.124,138.501 164.699,139.651 165.708,140.373L178.021,149.588C179.027,150.38 179.604,151.532 179.604,152.756C179.604,153.548 179.387,154.412 178.883,155.061L172.116,164.061C170.604,166.077 167.867,166.508 165.852,164.997L163.188,163.053C164.411,161.397 164.987,159.453 164.987,157.436C164.987,152.325 160.883,148.221 155.699,148.221C152.819,148.221 150.011,149.517 148.283,151.893L119.339,130.365C120.491,128.71 121.139,126.837 121.139,124.748C121.139,119.637 117.035,115.46 111.852,115.46C108.971,115.46 106.164,116.973 104.436,119.276L98.891,115.172C96.947,113.733 96.515,110.853 98.027,108.909L104.724,99.837C106.091,98.109 108.54,97.748 110.195,99.045L111.852,100.269C112.427,100.628 113.003,100.845 113.651,100.845C114.011,100.845 114.372,100.773 114.803,100.628L129.419,94.652C130.931,94.077 132.516,94.365 133.812,95.229Z" style="fill:none;stroke:rgb(35,31,32);stroke-width:0.22px;"/>
        <path d="M163.259,157.436C163.259,153.333 159.875,149.877 155.699,149.877C151.523,149.877 148.211,153.333 148.211,157.436C148.211,161.541 151.523,164.997 155.699,164.997C159.875,164.997 163.259,161.541 163.259,157.436Z" style="fill:rgb(35,31,32);fill-rule:nonzero;"/>
        <path d="M163.259,157.436C163.259,153.333 159.875,149.877 155.699,149.877C151.523,149.877 148.211,153.333 148.211,157.436C148.211,161.541 151.523,164.997 155.699,164.997C159.875,164.997 163.259,161.541 163.259,157.436Z" style="fill:none;stroke:rgb(35,31,32);stroke-width:0.22px;"/>
        <path d="M119.412,124.748C119.412,120.573 116.027,117.189 111.923,117.189C107.675,117.189 104.363,120.573 104.363,124.748C104.363,128.853 107.675,132.236 111.923,132.236C116.027,132.236 119.412,128.853 119.412,124.748Z" style="fill:rgb(35,31,32);fill-rule:nonzero;"/>
        <path d="M119.412,124.748C119.412,120.573 116.027,117.189 111.923,117.189C107.675,117.189 104.363,120.573 104.363,124.748C104.363,128.853 107.675,132.236 111.923,132.236C116.027,132.236 119.412,128.853 119.412,124.748Z" style="fill:none;stroke:rgb(35,31,32);stroke-width:0.22px;"/>
        <path d="M146.7,110.997L139.427,120.789L122.436,108.117L134.459,103.293C135.179,102.933 136.115,103.149 136.763,103.651L146.7,110.997Z" style="fill:white;fill-rule:nonzero;"/>
        <path d="M146.7,110.997L139.427,120.789L122.436,108.117L134.459,103.293C135.179,102.933 136.115,103.149 136.763,103.651L146.7,110.997Z" style="fill:none;stroke:white;stroke-width:0.22px;"/>
        <path d="M161.748,123.38L160.092,135.405C160.092,135.692 159.731,135.837 159.372,135.692L142.451,123.021L149.724,113.229L161.027,121.724C161.532,122.085 161.748,122.517 161.748,123.092L161.748,123.38Z" style="fill:white;fill-rule:nonzero;"/>
        <path d="M161.748,123.38L160.092,135.405C160.092,135.692 159.731,135.837 159.372,135.692L142.451,123.021L149.724,113.229L161.027,121.724C161.532,122.085 161.748,122.517 161.748,123.092L161.748,123.38Z" style="fill:none;stroke:white;stroke-width:0.22px;"/>
    </g>
</svg>
