<?xml version="1.0" encoding="UTF-8" standalone="no"?>
<!DOCTYPE svg PUBLIC "-//W3C//DTD SVG 1.1//EN" "http://www.w3.org/Graphics/SVG/1.1/DTD/svg11.dtd">
<svg width="100%" height="100%" viewBox="0 0 595 521" version="1.1" xmlns="http://www.w3.org/2000/svg" xmlns:xlink="http://www.w3.org/1999/xlink" xml:space="preserve" xmlns:serif="http://www.serif.com/" style="fill-rule:evenodd;clip-rule:evenodd;stroke-miterlimit:2;">
    <g>
        <path d="M315.435,10.818L591.881,489.639C595.603,496.086 595.603,504.029 591.881,510.476C588.16,516.921 581.281,520.893 573.837,520.893L20.943,520.893C13.499,520.893 6.621,516.921 2.898,510.476C-0.822,504.029 -0.822,496.086 2.898,489.639L279.346,10.818C283.068,4.372 289.947,0.401 297.39,0.401C304.834,0.401 311.712,4.372 315.435,10.818Z" style="fill:rgb(211,63,39);fill-rule:nonzero;"/>
        <path d="M315.435,10.818L591.881,489.639C595.603,496.086 595.603,504.029 591.881,510.476C588.16,516.921 581.281,520.893 573.837,520.893L20.943,520.893C13.499,520.893 6.621,516.921 2.898,510.476C-0.822,504.029 -0.822,496.086 2.898,489.639L279.346,10.818C283.068,4.372 289.947,0.401 297.39,0.401C304.834,0.401 311.712,4.372 315.435,10.818Z" style="fill:none;stroke:rgb(211,63,39);stroke-width:0.22px;"/>
        <path d="M501.661,458.386L93.12,458.386L297.39,104.58L501.661,458.386Z" style="fill:white;fill-rule:nonzero;"/>
        <path d="M501.661,458.386L93.12,458.386L297.39,104.58L501.661,458.386Z" style="fill:none;stroke:white;stroke-width:0.71px;stroke-linecap:round;stroke-linejoin:round;"/>
        <path d="M356.772,363.013L356.772,443.106L238.009,443.106L238.009,362.288C250.726,341.608 273.318,329.069 297.595,329.216C321.871,329.366 344.309,342.179 356.772,363.013Z" style="fill:rgb(35,31,32);fill-rule:nonzero;"/>
        <path d="M356.772,363.013L356.772,443.106L238.009,443.106L238.009,362.288C250.726,341.608 273.318,329.069 297.595,329.216C321.871,329.366 344.309,342.179 356.772,363.013Z" style="fill:none;stroke:rgb(35,31,32);stroke-width:0.71px;stroke-linecap:round;stroke-linejoin:round;"/>
        <rect x="181.752" y="399.269" width="43.755" height="43.837" style="fill:rgb(35,31,32);fill-rule:nonzero;"/>
        <rect x="181.752" y="399.269" width="43.755" height="43.837" style="fill:none;stroke:rgb(35,31,32);stroke-width:0.61px;stroke-linecap:round;stroke-linejoin:round;"/>
        <path d="M225.507,392.698L181.752,392.698L181.752,335.703L225.507,356.891L225.507,392.698Z" style="fill:rgb(35,31,32);fill-rule:nonzero;"/>
        <path d="M225.507,392.698L181.752,392.698L181.752,335.703L225.507,356.891L225.507,392.698Z" style="fill:none;stroke:rgb(35,31,32);stroke-width:0.61px;stroke-linecap:round;stroke-linejoin:round;"/>
        <path d="M228.236,350.911C237.415,337.665 250.225,327.353 265.125,321.214L248.663,276.413C225.984,292.428 204.729,310.37 185.136,330.04L228.236,350.911Z" style="fill:rgb(35,31,32);fill-rule:nonzero;"/>
        <path d="M228.236,350.911C237.415,337.665 250.225,327.353 265.125,321.214L248.663,276.413C225.984,292.428 204.729,310.37 185.136,330.04L228.236,350.911Z" style="fill:none;stroke:rgb(35,31,32);stroke-width:0.71px;stroke-linecap:round;stroke-linejoin:round;"/>
        <path d="M323.399,319.188L340.334,273.099C311.837,271.376 283.252,271.699 254.801,274.064L271.295,318.951C288.245,313.48 306.499,313.562 323.399,319.188Z" style="fill:rgb(35,31,32);fill-rule:nonzero;"/>
        <path d="M323.399,319.188L340.334,273.099C311.837,271.376 283.252,271.699 254.801,274.064L271.295,318.951C288.245,313.48 306.499,313.562 323.399,319.188Z" style="fill:none;stroke:rgb(35,31,32);stroke-width:0.71px;stroke-linecap:round;stroke-linejoin:round;"/>
        <path d="M366.544,350.911L409.645,330.04C390.05,310.37 368.796,292.428 346.118,276.413L329.656,321.214C344.556,327.353 357.366,337.665 366.544,350.911Z" style="fill:rgb(35,31,32);fill-rule:nonzero;"/>
        <path d="M366.544,350.911L409.645,330.04C390.05,310.37 368.796,292.428 346.118,276.413L329.656,321.214C344.556,327.353 357.366,337.665 366.544,350.911Z" style="fill:none;stroke:rgb(35,31,32);stroke-width:0.71px;stroke-linecap:round;stroke-linejoin:round;"/>
        <path d="M369.273,392.698L413.029,392.698L413.029,335.703L369.273,356.891L369.273,392.698Z" style="fill:rgb(35,31,32);fill-rule:nonzero;"/>
        <path d="M369.273,392.698L413.029,392.698L413.029,335.703L369.273,356.891L369.273,392.698Z" style="fill:none;stroke:rgb(35,31,32);stroke-width:0.61px;stroke-linecap:round;stroke-linejoin:round;"/>
        <rect x="369.273" y="399.269" width="43.756" height="43.837" style="fill:rgb(35,31,32);fill-rule:nonzero;"/>
        <rect x="369.273" y="399.269" width="43.756" height="43.837" style="fill:none;stroke:rgb(35,31,32);stroke-width:0.61px;stroke-linecap:round;stroke-linejoin:round;"/>
    </g>
</svg>
