<?xml version="1.0" encoding="UTF-8" standalone="no"?>
<!DOCTYPE svg PUBLIC "-//W3C//DTD SVG 1.1//EN" "http://www.w3.org/Graphics/SVG/1.1/DTD/svg11.dtd">
<svg width="100%" height="100%" viewBox="0 0 256 224" version="1.1" xmlns="http://www.w3.org/2000/svg" xmlns:xlink="http://www.w3.org/1999/xlink" xml:space="preserve" xmlns:serif="http://www.serif.com/" style="fill-rule:evenodd;clip-rule:evenodd;stroke-miterlimit:2;">
    <g>
        <path d="M135.396,5.085L253.979,210.429C254.844,211.869 255.203,213.308 255.203,214.964C255.203,219.86 251.172,223.892 246.275,223.892L9.035,223.892C4.139,223.892 0.107,219.86 0.107,214.964C0.107,213.308 0.611,211.796 1.331,210.429L119.916,5.085C123.372,-0.891 131.939,-0.891 135.396,5.085Z" style="fill:rgb(211,63,39);fill-rule:nonzero;"/>
        <path d="M135.396,5.085L253.979,210.429C254.844,211.869 255.203,213.308 255.203,214.964C255.203,219.86 251.172,223.892 246.275,223.892L9.035,223.892C4.139,223.892 0.107,219.86 0.107,214.964C0.107,213.308 0.611,211.796 1.331,210.429L119.916,5.085C123.372,-0.891 131.939,-0.891 135.396,5.085Z" style="fill:none;stroke:rgb(211,63,39);stroke-width:0.22px;"/>
        <path d="M215.315,197.037L39.996,197.037L127.691,45.261L215.315,197.037Z" style="fill:white;fill-rule:nonzero;"/>
        <path d="M215.315,197.037L39.996,197.037L127.691,45.261L215.315,197.037Z" style="fill:none;stroke:white;stroke-width:0.22px;"/>
        <path d="M154.476,112.869L165.779,124.245L138.996,151.1L166.859,178.82L155.411,190.197L127.691,162.405L99.899,190.197L88.451,178.82L116.315,151.1L89.531,124.245L100.835,112.869L127.691,139.651L154.476,112.869Z" style="fill:rgb(35,31,32);fill-rule:nonzero;"/>
        <path d="M154.476,112.869L165.779,124.245L138.996,151.1L166.859,178.82L155.411,190.197L127.691,162.405L99.899,190.197L88.451,178.82L116.315,151.1L89.531,124.245L100.835,112.869L127.691,139.651L154.476,112.869Z" style="fill:none;stroke:rgb(35,31,32);stroke-width:0.22px;"/>
    </g>
</svg>
