<?xml version="1.0" encoding="UTF-8" standalone="no"?>
<!DOCTYPE svg PUBLIC "-//W3C//DTD SVG 1.1//EN" "http://www.w3.org/Graphics/SVG/1.1/DTD/svg11.dtd">
<svg width="100%" height="100%" viewBox="0 0 256 224" version="1.1" xmlns="http://www.w3.org/2000/svg" xmlns:xlink="http://www.w3.org/1999/xlink" xml:space="preserve" xmlns:serif="http://www.serif.com/" style="fill-rule:evenodd;clip-rule:evenodd;stroke-miterlimit:2;">
    <g>
        <path d="M135.396,5.013L253.979,210.5C254.844,211.869 255.203,213.38 255.203,214.964C255.203,219.86 251.172,223.892 246.275,223.892L9.035,223.892C4.139,223.892 0.107,219.86 0.107,214.964C0.107,213.38 0.539,211.796 1.331,210.5L119.916,5.013C123.372,-0.963 131.939,-0.963 135.467,5.085L135.396,5.013Z" style="fill:rgb(211,63,39);fill-rule:nonzero;"/>
        <path d="M135.396,5.013L253.979,210.5C254.844,211.869 255.203,213.38 255.203,214.964C255.203,219.86 251.172,223.892 246.275,223.892L9.035,223.892C4.139,223.892 0.107,219.86 0.107,214.964C0.107,213.38 0.539,211.796 1.331,210.5L119.916,5.013C123.372,-0.963 131.939,-0.963 135.467,5.085L135.396,5.013Z" style="fill:none;stroke:rgb(211,63,39);stroke-width:0.22px;"/>
        <path d="M215.315,197.036L39.996,197.036L127.691,45.261L215.315,197.036Z" style="fill:white;fill-rule:nonzero;"/>
        <path d="M215.315,197.036L39.996,197.036L127.691,45.261L215.315,197.036Z" style="fill:none;stroke:white;stroke-width:0.22px;"/>
        <path d="M161.963,136.916C158.219,142.315 154.116,147.573 149.652,152.54C149.581,152.756 149.508,152.9 149.508,153.044C149.508,153.405 149.795,153.62 150.228,153.62L156.708,153.188C153.54,166.652 141.587,176.228 127.691,176.228L127.691,189.62C147.779,189.548 165.204,175.724 169.739,156.212L175.211,158.013C175.283,158.084 175.355,158.084 175.427,158.084C175.788,158.084 176.075,157.796 176.075,157.507C176.075,157.364 176.075,157.291 176.003,157.221C172.403,150.164 168.155,143.468 163.476,136.989C163.259,136.7 162.971,136.556 162.684,136.556C162.323,136.556 162.107,136.7 161.963,136.916Z" style="fill:rgb(35,31,32);fill-rule:nonzero;"/>
        <path d="M161.963,136.916C158.219,142.315 154.116,147.573 149.652,152.54C149.581,152.756 149.508,152.9 149.508,153.044C149.508,153.405 149.795,153.62 150.228,153.62L156.708,153.188C153.54,166.652 141.587,176.228 127.691,176.228L127.691,189.62C147.779,189.548 165.204,175.724 169.739,156.212L175.211,158.013C175.283,158.084 175.355,158.084 175.427,158.084C175.788,158.084 176.075,157.796 176.075,157.507C176.075,157.364 176.075,157.291 176.003,157.221C172.403,150.164 168.155,143.468 163.476,136.989C163.259,136.7 162.971,136.556 162.684,136.556C162.323,136.556 162.107,136.7 161.963,136.916Z" style="fill:none;stroke:rgb(35,31,32);stroke-width:0.22px;"/>
        <path d="M102.347,121.435C109.043,121.94 115.667,122.876 122.219,124.245C122.003,124.245 122.075,124.245 122.075,124.245C122.507,124.245 122.795,123.956 122.795,123.597C122.795,123.524 122.724,123.38 122.651,123.308L119.051,117.909C132.299,113.876 146.557,119.564 153.467,131.588L165.131,124.821C157.427,111.429 143.1,103.221 127.691,103.221C123.443,103.221 119.195,103.869 115.164,105.02L113.939,99.333C113.939,99.045 113.58,98.829 113.292,98.829C113.075,98.829 112.859,98.973 112.788,99.117C108.611,105.741 104.795,112.869 101.627,120.068C101.555,120.285 101.555,120.429 101.555,120.5C101.555,121.077 101.916,121.435 102.347,121.435Z" style="fill:rgb(35,31,32);fill-rule:nonzero;"/>
        <path d="M102.347,121.435C109.043,121.94 115.667,122.876 122.219,124.245C122.003,124.245 122.075,124.245 122.075,124.245C122.507,124.245 122.795,123.956 122.795,123.597C122.795,123.524 122.724,123.38 122.651,123.308L119.051,117.909C132.299,113.876 146.557,119.564 153.467,131.588L165.131,124.821C157.427,111.429 143.1,103.221 127.691,103.221C123.443,103.221 119.195,103.869 115.164,105.02L113.939,99.333C113.939,99.045 113.58,98.829 113.292,98.829C113.075,98.829 112.859,98.973 112.788,99.117C108.611,105.741 104.795,112.869 101.627,120.068C101.555,120.285 101.555,120.429 101.555,120.5C101.555,121.077 101.916,121.435 102.347,121.435Z" style="fill:none;stroke:rgb(35,31,32);stroke-width:0.22px;"/>
        <path d="M118.763,180.836C115.883,175.004 113.363,168.812 111.275,162.405C111.204,162.188 110.916,162.044 110.699,162.044C110.483,162.044 110.268,162.117 110.124,162.332L107.243,168.164C97.163,158.661 94.931,143.468 101.916,131.516L90.179,124.821C86.507,131.3 84.491,138.788 84.491,146.42C84.491,158.372 89.387,169.82 98.099,177.956L93.779,181.772C93.635,181.916 93.563,182.06 93.563,182.276C93.563,182.637 93.851,182.924 94.139,182.924C96.443,182.996 98.603,183.068 100.835,183.068C106.595,183.068 112.427,182.708 118.188,182.06C118.476,181.989 118.763,181.628 118.763,181.197L118.763,180.836Z" style="fill:rgb(35,31,32);fill-rule:nonzero;"/>
        <path d="M118.763,180.836C115.883,175.004 113.363,168.812 111.275,162.405C111.204,162.188 110.916,162.044 110.699,162.044C110.483,162.044 110.268,162.117 110.124,162.332L107.243,168.164C97.163,158.661 94.931,143.468 101.916,131.516L90.179,124.821C86.507,131.3 84.491,138.788 84.491,146.42C84.491,158.372 89.387,169.82 98.099,177.956L93.779,181.772C93.635,181.916 93.563,182.06 93.563,182.276C93.563,182.637 93.851,182.924 94.139,182.924C96.443,182.996 98.603,183.068 100.835,183.068C106.595,183.068 112.427,182.708 118.188,182.06C118.476,181.989 118.763,181.628 118.763,181.197L118.763,180.836Z" style="fill:none;stroke:rgb(35,31,32);stroke-width:0.22px;"/>
    </g>
</svg>
