<?xml version="1.0" encoding="UTF-8" standalone="no"?>
<!DOCTYPE svg PUBLIC "-//W3C//DTD SVG 1.1//EN" "http://www.w3.org/Graphics/SVG/1.1/DTD/svg11.dtd">
<svg width="100%" height="100%" viewBox="0 0 256 224" version="1.1" xmlns="http://www.w3.org/2000/svg" xmlns:xlink="http://www.w3.org/1999/xlink" xml:space="preserve" xmlns:serif="http://www.serif.com/" style="fill-rule:evenodd;clip-rule:evenodd;stroke-miterlimit:2;">
    <g>
        <path d="M135.323,5.085L254.051,210.5C254.844,211.869 255.203,213.308 255.203,214.964C255.203,219.86 251.172,223.892 246.275,223.892L9.035,223.892C4.139,223.892 0.107,219.86 0.107,214.964C0.107,213.308 0.467,211.796 1.259,210.5L119.987,5.085C123.299,-0.891 132.011,-0.891 135.467,5.085L135.323,5.085Z" style="fill:rgb(211,63,39);fill-rule:nonzero;"/>
        <path d="M135.323,5.085L254.051,210.5C254.844,211.869 255.203,213.308 255.203,214.964C255.203,219.86 251.172,223.892 246.275,223.892L9.035,223.892C4.139,223.892 0.107,219.86 0.107,214.964C0.107,213.308 0.467,211.796 1.259,210.5L119.987,5.085C123.299,-0.891 132.011,-0.891 135.467,5.085L135.323,5.085Z" style="fill:none;stroke:rgb(211,63,39);stroke-width:0.22px;"/>
        <path d="M215.315,198.692L39.996,198.692L127.619,46.989L215.315,198.692Z" style="fill:white;fill-rule:nonzero;"/>
        <path d="M215.315,198.692L39.996,198.692L127.619,46.989L215.315,198.692Z" style="fill:none;stroke:white;stroke-width:0.22px;"/>
        <path d="M146.557,135.261C146.557,124.892 138.06,116.396 127.619,116.396C117.251,116.396 108.899,124.892 108.899,135.261C108.899,145.7 117.251,154.053 127.619,154.053C138.06,154.053 146.557,145.7 146.557,135.261Z" style="fill:rgb(35,31,32);fill-rule:nonzero;"/>
        <path d="M146.557,135.261C146.557,124.892 138.06,116.396 127.619,116.396C117.251,116.396 108.899,124.892 108.899,135.261C108.899,145.7 117.251,154.053 127.619,154.053C138.06,154.053 146.557,145.7 146.557,135.261Z" style="fill:none;stroke:rgb(35,31,32);stroke-width:0.22px;"/>
        <path d="M146.557,172.916C146.557,162.62 138.06,154.053 127.619,154.053C117.251,154.053 108.899,162.62 108.899,172.916C108.899,183.356 117.251,191.781 127.619,191.781C138.06,191.781 146.557,183.356 146.557,172.916Z" style="fill:rgb(35,31,32);fill-rule:nonzero;"/>
        <path d="M146.557,172.916C146.557,162.62 138.06,154.053 127.619,154.053C117.251,154.053 108.899,162.62 108.899,172.916C108.899,183.356 117.251,191.781 127.619,191.781C138.06,191.781 146.557,183.356 146.557,172.916Z" style="fill:none;stroke:rgb(35,31,32);stroke-width:0.22px;"/>
        <path d="M146.557,97.604C146.557,87.237 138.06,78.741 127.619,78.741C117.251,78.741 108.899,87.237 108.899,97.604C108.899,108.044 117.251,116.396 127.619,116.396C138.06,116.396 146.557,108.044 146.557,97.604Z" style="fill:rgb(35,31,32);fill-rule:nonzero;"/>
        <path d="M146.557,97.604C146.557,87.237 138.06,78.741 127.619,78.741C117.251,78.741 108.899,87.237 108.899,97.604C108.899,108.044 117.251,116.396 127.619,116.396C138.06,116.396 146.557,108.044 146.557,97.604Z" style="fill:none;stroke:rgb(35,31,32);stroke-width:0.22px;"/>
        <path d="M142.956,97.604C142.956,89.181 136.115,82.341 127.619,82.341C119.339,82.341 112.355,89.181 112.355,97.604C112.355,106.1 119.339,112.94 127.619,112.94C136.115,112.94 142.956,106.1 142.956,97.604Z" style="fill:rgb(211,63,39);fill-rule:nonzero;"/>
        <path d="M142.956,97.604C142.956,89.181 136.115,82.341 127.619,82.341C119.339,82.341 112.355,89.181 112.355,97.604C112.355,106.1 119.339,112.94 127.619,112.94C136.115,112.94 142.956,106.1 142.956,97.604Z" style="fill:none;stroke:rgb(35,31,32);stroke-width:0.22px;"/>
        <path d="M142.956,135.261C142.956,126.836 136.115,119.996 127.619,119.996C119.339,119.996 112.355,126.836 112.355,135.261C112.355,143.613 119.339,150.453 127.619,150.453C136.115,150.453 142.956,143.613 142.956,135.261Z" style="fill:rgb(254,190,15);fill-rule:nonzero;"/>
        <path d="M142.956,135.261C142.956,126.836 136.115,119.996 127.619,119.996C119.339,119.996 112.355,126.836 112.355,135.261C112.355,143.613 119.339,150.453 127.619,150.453C136.115,150.453 142.956,143.613 142.956,135.261Z" style="fill:none;stroke:rgb(35,31,32);stroke-width:0.22px;"/>
        <path d="M142.956,172.916C142.956,164.564 136.115,157.724 127.619,157.724C119.339,157.724 112.355,164.564 112.355,172.916C112.355,181.34 119.339,188.252 127.619,188.252C136.115,188.252 142.956,181.34 142.956,172.916Z" style="fill:rgb(0,154,111);fill-rule:nonzero;"/>
        <path d="M142.956,172.916C142.956,164.564 136.115,157.724 127.619,157.724C119.339,157.724 112.355,164.564 112.355,172.916C112.355,181.34 119.339,188.252 127.619,188.252C136.115,188.252 142.956,181.34 142.956,172.916Z" style="fill:none;stroke:rgb(0,154,111);stroke-width:0.22px;"/>
    </g>
</svg>
