<?xml version="1.0" encoding="UTF-8" standalone="no"?>
<!DOCTYPE svg PUBLIC "-//W3C//DTD SVG 1.1//EN" "http://www.w3.org/Graphics/SVG/1.1/DTD/svg11.dtd">
<svg width="100%" height="100%" viewBox="0 0 256 224" version="1.1" xmlns="http://www.w3.org/2000/svg" xmlns:xlink="http://www.w3.org/1999/xlink" xml:space="preserve" xmlns:serif="http://www.serif.com/" style="fill-rule:evenodd;clip-rule:evenodd;stroke-miterlimit:2;">
    <g>
        <path d="M135.396,5.085L253.979,210.429C254.844,211.869 255.203,213.38 255.203,214.964C255.203,219.788 251.243,223.892 246.275,223.892L9.035,223.892C4.211,223.892 0.107,219.933 0.107,214.964C0.107,213.38 0.611,211.796 1.331,210.429L119.916,5.085C123.372,-0.891 131.939,-0.891 135.467,5.085L135.396,5.085Z" style="fill:rgb(211,63,39);fill-rule:nonzero;"/>
        <path d="M135.396,5.085L253.979,210.429C254.844,211.869 255.203,213.38 255.203,214.964C255.203,219.788 251.243,223.892 246.275,223.892L9.035,223.892C4.211,223.892 0.107,219.933 0.107,214.964C0.107,213.38 0.611,211.796 1.331,210.429L119.916,5.085C123.372,-0.891 131.939,-0.891 135.467,5.085L135.396,5.085Z" style="fill:none;stroke:rgb(211,63,39);stroke-width:0.22px;"/>
        <path d="M215.243,197.108L40.067,197.108L127.619,45.261L215.243,197.108Z" style="fill:white;fill-rule:nonzero;"/>
        <path d="M215.243,197.108L40.067,197.108L127.619,45.261L215.243,197.108Z" style="fill:none;stroke:white;stroke-width:0.22px;"/>
        <path d="M104.58,139.869L95.363,139.869L95.363,134.54L91.475,127.845C91.331,127.556 90.971,127.339 90.683,127.339C90.395,127.339 90.107,127.556 89.963,127.845L86.147,134.54L86.147,139.869L80.747,139.869L80.747,149.372L86.147,149.372L86.147,172.557L80.747,172.557L80.747,182.132L86.147,182.132L86.147,191.708L95.363,191.708L95.363,182.132L104.58,182.132L104.58,191.708L113.795,191.708L113.795,182.132L123.083,182.132L123.083,191.708L132.228,191.708L132.228,182.132L141.516,182.132L141.516,191.708L150.731,191.708L150.731,182.132L159.947,182.132L159.947,191.708L169.165,191.708L169.165,182.132L174.563,182.132L174.563,172.557L169.165,172.557L169.165,149.372L174.563,149.372L174.563,139.869L169.165,139.869L169.165,134.54L165.347,127.845C165.204,127.556 164.916,127.339 164.628,127.339C164.339,127.339 163.979,127.556 163.835,127.845L159.947,134.54L159.947,139.869L150.731,139.869L150.731,134.54L146.916,127.845C146.7,127.556 146.411,127.339 146.195,127.339C145.763,127.339 145.476,127.556 145.332,127.845L141.516,134.54L141.516,139.869L132.228,139.869L132.228,134.54L128.483,127.845C128.268,127.556 127.979,127.339 127.619,127.339C127.332,127.339 127.043,127.556 126.827,127.845L123.083,134.54L123.083,139.869L113.795,139.869L113.795,134.54L109.979,127.845C109.835,127.556 109.547,127.339 109.115,127.339C108.899,127.339 108.611,127.556 108.396,127.845L104.58,134.54L104.58,139.869Z" style="fill:rgb(35,31,32);fill-rule:nonzero;"/>
        <path d="M104.58,139.869L95.363,139.869L95.363,134.54L91.475,127.845C91.331,127.556 90.971,127.339 90.683,127.339C90.395,127.339 90.107,127.556 89.963,127.845L86.147,134.54L86.147,139.869L80.747,139.869L80.747,149.372L86.147,149.372L86.147,172.557L80.747,172.557L80.747,182.132L86.147,182.132L86.147,191.708L95.363,191.708L95.363,182.132L104.58,182.132L104.58,191.708L113.795,191.708L113.795,182.132L123.083,182.132L123.083,191.708L132.228,191.708L132.228,182.132L141.516,182.132L141.516,191.708L150.731,191.708L150.731,182.132L159.947,182.132L159.947,191.708L169.165,191.708L169.165,182.132L174.563,182.132L174.563,172.557L169.165,172.557L169.165,149.372L174.563,149.372L174.563,139.869L169.165,139.869L169.165,134.54L165.347,127.845C165.204,127.556 164.916,127.339 164.628,127.339C164.339,127.339 163.979,127.556 163.835,127.845L159.947,134.54L159.947,139.869L150.731,139.869L150.731,134.54L146.916,127.845C146.7,127.556 146.411,127.339 146.195,127.339C145.763,127.339 145.476,127.556 145.332,127.845L141.516,134.54L141.516,139.869L132.228,139.869L132.228,134.54L128.483,127.845C128.268,127.556 127.979,127.339 127.619,127.339C127.332,127.339 127.043,127.556 126.827,127.845L123.083,134.54L123.083,139.869L113.795,139.869L113.795,134.54L109.979,127.845C109.835,127.556 109.547,127.339 109.115,127.339C108.899,127.339 108.611,127.556 108.396,127.845L104.58,134.54L104.58,139.869Z" style="fill:none;stroke:rgb(35,31,32);stroke-width:0.22px;"/>
        <rect x="132.228" y="149.372" width="9.288" height="23.185" style="fill:white;fill-rule:nonzero;"/>
        <rect x="132.228" y="149.372" width="9.288" height="23.185" style="fill:none;stroke:rgb(35,31,32);stroke-width:0.22px;"/>
        <rect x="113.795" y="149.372" width="9.288" height="23.185" style="fill:white;fill-rule:nonzero;"/>
        <rect x="113.795" y="149.372" width="9.288" height="23.185" style="fill:none;stroke:rgb(35,31,32);stroke-width:0.22px;"/>
        <rect x="150.731" y="149.372" width="9.216" height="23.185" style="fill:white;fill-rule:nonzero;"/>
        <rect x="150.731" y="149.372" width="9.216" height="23.185" style="fill:none;stroke:rgb(35,31,32);stroke-width:0.22px;"/>
        <rect x="95.363" y="149.372" width="9.217" height="23.185" style="fill:white;fill-rule:nonzero;"/>
        <rect x="95.363" y="149.372" width="9.217" height="23.185" style="fill:none;stroke:rgb(35,31,32);stroke-width:0.22px;"/>
    </g>
</svg>
