<?xml version="1.0" encoding="UTF-8" standalone="no"?>
<!DOCTYPE svg PUBLIC "-//W3C//DTD SVG 1.1//EN" "http://www.w3.org/Graphics/SVG/1.1/DTD/svg11.dtd">
<svg width="100%" height="100%" viewBox="0 0 74 284" version="1.1" xmlns="http://www.w3.org/2000/svg" xmlns:xlink="http://www.w3.org/1999/xlink" xml:space="preserve" xmlns:serif="http://www.serif.com/" style="fill-rule:evenodd;clip-rule:evenodd;stroke-miterlimit:2;">
    <g>
        <rect x="0.107" y="0.501" width="73.728" height="283.392" style="fill:white;fill-rule:nonzero;"/>
        <rect x="0.107" y="0.501" width="73.728" height="283.392" style="fill:none;stroke:rgb(35,31,32);stroke-width:0.22px;"/>
        <path d="M0.107,76.965L0.107,109.869L73.835,67.317L73.835,34.413L0.107,76.965Z" style="fill:rgb(211,63,39);fill-rule:nonzero;"/>
        <path d="M0.107,76.965L0.107,109.869L73.835,67.317L73.835,34.413L0.107,76.965Z" style="fill:none;stroke:rgb(211,63,39);stroke-width:0.22px;"/>
        <path d="M73.835,104.468L0.107,147.02L0.107,179.637L73.835,137.084L73.835,104.468Z" style="fill:rgb(211,63,39);fill-rule:nonzero;"/>
        <path d="M73.835,104.468L0.107,147.02L0.107,179.637L73.835,137.084L73.835,104.468Z" style="fill:none;stroke:rgb(211,63,39);stroke-width:0.22px;"/>
        <path d="M0.107,217.077L0.107,249.765L73.835,207.141L73.835,174.597L0.107,217.077Z" style="fill:rgb(211,63,39);fill-rule:nonzero;"/>
        <path d="M0.107,217.077L0.107,249.765L73.835,207.141L73.835,174.597L0.107,217.077Z" style="fill:none;stroke:rgb(211,63,39);stroke-width:0.22px;"/>
    </g>
</svg>
