<?xml version="1.0" encoding="UTF-8" standalone="no"?>
<!DOCTYPE svg PUBLIC "-//W3C//DTD SVG 1.1//EN" "http://www.w3.org/Graphics/SVG/1.1/DTD/svg11.dtd">
<svg width="100%" height="100%" viewBox="0 0 596 522" version="1.1" xmlns="http://www.w3.org/2000/svg" xmlns:xlink="http://www.w3.org/1999/xlink" xml:space="preserve" xmlns:serif="http://www.serif.com/" style="fill-rule:evenodd;clip-rule:evenodd;stroke-linecap:round;stroke-linejoin:round;stroke-miterlimit:2;">
    <g>
        <path d="M315.683,11.571L592.129,490.391C595.851,496.838 595.851,504.78 592.129,511.228C588.407,517.673 581.528,521.645 574.085,521.645L21.19,521.645C13.746,521.645 6.868,517.673 3.146,511.228C-0.575,504.78 -0.575,496.838 3.146,490.391L279.594,11.571C283.316,5.125 290.194,1.153 297.638,1.153C305.082,1.153 311.96,5.125 315.683,11.571Z" style="fill:rgb(211,63,39);fill-rule:nonzero;"/>
        <path d="M315.683,11.571L592.129,490.391C595.851,496.838 595.851,504.78 592.129,511.228C588.407,517.673 581.528,521.645 574.085,521.645L21.19,521.645C13.746,521.645 6.868,517.673 3.146,511.228C-0.575,504.78 -0.575,496.838 3.146,490.391L279.594,11.571C283.316,5.125 290.194,1.153 297.638,1.153C305.082,1.153 311.96,5.125 315.683,11.571Z" style="fill:none;stroke:rgb(211,63,39);stroke-width:0.71px;"/>
        <path d="M297.638,105.332L501.908,459.138L93.367,459.138L297.638,105.332Z" style="fill:white;fill-rule:nonzero;"/>
        <path d="M297.638,105.332L501.908,459.138L93.367,459.138L297.638,105.332Z" style="fill:none;stroke:white;stroke-width:0.71px;"/>
        <rect x="141.03" y="437.504" width="312.978" height="9.367" style="fill:rgb(3,4,4);fill-rule:nonzero;"/>
        <rect x="141.03" y="437.504" width="312.978" height="9.367" style="fill:none;stroke:rgb(3,4,4);stroke-width:0.71px;"/>
        <path d="M421.53,402.463L406.342,331.005C406.032,329.551 404.748,328.511 403.261,328.511L308.777,328.511L353.403,292.346L353.403,281.328L297.638,239.315L241.873,281.328L241.873,292.346L286.499,328.511L192.016,328.511C190.528,328.511 189.244,329.551 188.934,331.005L173.746,402.463C173.152,405.251 173.851,408.159 175.645,410.374C177.439,412.591 180.138,413.878 182.989,413.878L214.72,413.878C209.335,419.301 209.356,428.059 214.767,433.456C220.177,438.854 228.935,438.854 234.345,433.456C239.754,428.059 239.776,419.301 234.392,413.878L248.741,413.878C243.356,419.301 243.378,428.059 248.788,433.456C254.198,438.854 262.956,438.854 268.366,433.456C273.776,428.059 273.797,419.301 268.413,413.878L326.863,413.878C321.479,419.301 321.5,428.059 326.91,433.456C332.32,438.854 341.078,438.854 346.488,433.456C351.897,428.059 351.919,419.301 346.535,413.878L360.884,413.878C355.499,419.301 355.521,428.059 360.931,433.456C366.342,438.854 375.099,438.854 380.509,433.456C385.92,428.059 385.94,419.301 380.557,413.878L412.287,413.878C415.138,413.878 417.837,412.591 419.631,410.374C421.426,408.159 422.123,405.251 421.53,402.463Z" style="fill:rgb(3,4,4);fill-rule:nonzero;"/>
        <path d="M421.53,402.463L406.342,331.005C406.032,329.551 404.748,328.511 403.261,328.511L308.777,328.511L353.403,292.346L353.403,281.328L297.638,239.315L241.873,281.328L241.873,292.346L286.499,328.511L192.016,328.511C190.528,328.511 189.244,329.551 188.934,331.005L173.746,402.463C173.152,405.251 173.851,408.159 175.645,410.374C177.439,412.591 180.138,413.878 182.989,413.878L214.72,413.878C209.335,419.301 209.356,428.059 214.767,433.456C220.177,438.854 228.935,438.854 234.345,433.456C239.754,428.059 239.776,419.301 234.392,413.878L248.741,413.878C243.356,419.301 243.378,428.059 248.788,433.456C254.198,438.854 262.956,438.854 268.366,433.456C273.776,428.059 273.797,419.301 268.413,413.878L326.863,413.878C321.479,419.301 321.5,428.059 326.91,433.456C332.32,438.854 341.078,438.854 346.488,433.456C351.897,428.059 351.919,419.301 346.535,413.878L360.884,413.878C355.499,419.301 355.521,428.059 360.931,433.456C366.342,438.854 375.099,438.854 380.509,433.456C385.92,428.059 385.94,419.301 380.557,413.878L412.287,413.878C415.138,413.878 417.837,412.591 419.631,410.374C421.426,408.159 422.123,405.251 421.53,402.463Z" style="fill:none;stroke:rgb(3,4,4);stroke-width:0.71px;"/>
        <rect x="373.24" y="348.041" width="18.901" height="50.402" style="fill:white;fill-rule:nonzero;"/>
        <rect x="373.24" y="348.041" width="18.901" height="50.402" style="fill:none;stroke:white;stroke-width:0.26px;"/>
        <rect x="329.139" y="348.041" width="28.35" height="25.2" style="fill:white;fill-rule:nonzero;"/>
        <rect x="329.139" y="348.041" width="28.35" height="25.2" style="fill:none;stroke:white;stroke-width:0.39px;"/>
        <rect x="281.887" y="348.041" width="31.501" height="25.2" style="fill:white;fill-rule:nonzero;"/>
        <rect x="281.887" y="348.041" width="31.501" height="25.2" style="fill:none;stroke:white;stroke-width:0.44px;"/>
        <rect x="237.786" y="348.041" width="28.351" height="25.2" style="fill:white;fill-rule:nonzero;"/>
        <rect x="237.786" y="348.041" width="28.351" height="25.2" style="fill:none;stroke:white;stroke-width:0.39px;"/>
        <rect x="203.135" y="348.041" width="18.9" height="50.402" style="fill:white;fill-rule:nonzero;"/>
        <rect x="203.135" y="348.041" width="18.9" height="50.402" style="fill:none;stroke:white;stroke-width:0.26px;"/>
        <path d="M297.638,251.263L251.782,286.602L251.782,287.212L292.213,320.415L303.063,320.415L343.494,287.212L343.494,286.602L297.638,251.263Z" style="fill:white;fill-rule:nonzero;"/>
        <path d="M297.638,251.263L251.782,286.602L251.782,287.212L292.213,320.415L303.063,320.415L343.494,287.212L343.494,286.602L297.638,251.263Z" style="fill:none;stroke:white;stroke-width:0.71px;"/>
    </g>
</svg>
