<?xml version="1.0" encoding="UTF-8" standalone="no"?>
<!DOCTYPE svg PUBLIC "-//W3C//DTD SVG 1.1//EN" "http://www.w3.org/Graphics/SVG/1.1/DTD/svg11.dtd">
<svg width="100%" height="100%" viewBox="0 0 596 522" version="1.1" xmlns="http://www.w3.org/2000/svg" xmlns:xlink="http://www.w3.org/1999/xlink" xml:space="preserve" xmlns:serif="http://www.serif.com/" style="fill-rule:evenodd;clip-rule:evenodd;stroke-linecap:round;stroke-linejoin:round;stroke-miterlimit:2;">
    <g>
        <path d="M279.594,11.571L3.146,490.391C-0.575,496.838 -0.575,504.78 3.146,511.228C6.868,517.673 13.746,521.645 21.19,521.645L574.085,521.645C581.528,521.645 588.407,517.673 592.129,511.228C595.851,504.78 595.851,496.838 592.129,490.391L315.683,11.571C311.96,5.125 305.082,1.153 297.638,1.153C290.194,1.153 283.316,5.125 279.594,11.571Z" style="fill:rgb(211,63,39);fill-rule:nonzero;"/>
        <path d="M279.594,11.571L3.146,490.391C-0.575,496.838 -0.575,504.78 3.146,511.228C6.868,517.673 13.746,521.645 21.19,521.645L574.085,521.645C581.528,521.645 588.407,517.673 592.129,511.228C595.851,504.78 595.851,496.838 592.129,490.391L315.683,11.571C311.96,5.125 305.082,1.153 297.638,1.153C290.194,1.153 283.316,5.125 279.594,11.571Z" style="fill:none;stroke:rgb(211,63,39);stroke-width:0.71px;"/>
        <path d="M93.367,459.138L501.908,459.138L297.638,105.332L93.367,459.138Z" style="fill:white;fill-rule:nonzero;"/>
        <path d="M93.367,459.138L501.908,459.138L297.638,105.332L93.367,459.138Z" style="fill:none;stroke:white;stroke-width:0.71px;"/>
        <path d="M476.716,446.29L432.504,366.268L395.26,366.268L424.813,446.289L476.716,446.29Z" style="fill:rgb(3,4,4);fill-rule:nonzero;"/>
        <path d="M476.716,446.29L432.504,366.268L395.26,366.268L424.813,446.289L476.716,446.29Z" style="fill:none;stroke:rgb(3,4,4);stroke-width:0.71px;"/>
        <path d="M319.962,415.352L322.076,446.289L375.233,446.289L357.1,366.268L336.994,366.268L363.115,410.459L328.993,430.629L319.962,415.352Z" style="fill:rgb(3,4,4);fill-rule:nonzero;"/>
        <path d="M319.962,415.352L322.076,446.289L375.233,446.289L357.1,366.268L336.994,366.268L363.115,410.459L328.993,430.629L319.962,415.352Z" style="fill:none;stroke:rgb(3,4,4);stroke-width:0.71px;"/>
        <path d="M238.176,366.268L220.042,446.288L273.199,446.289L274.352,429.419L240.146,420.223L254.653,366.268L238.176,366.268Z" style="fill:rgb(3,4,4);fill-rule:nonzero;"/>
        <path d="M238.176,366.268L220.042,446.288L273.199,446.289L274.352,429.419L240.146,420.223L254.653,366.268L238.176,366.268Z" style="fill:none;stroke:rgb(3,4,4);stroke-width:0.71px;"/>
        <path d="M170.463,446.289L118.561,446.289L162.772,366.268L200.016,366.268L170.463,446.289Z" style="fill:rgb(3,4,4);fill-rule:nonzero;"/>
        <path d="M170.463,446.289L118.561,446.289L162.772,366.268L200.016,366.268L170.463,446.289Z" style="fill:none;stroke:rgb(3,4,4);stroke-width:0.71px;"/>
        <path d="M276.047,290.99L276.047,312.139L248.241,415.559L273.76,422.419L298.206,331.496L298.206,365.565L331.319,421.58L354.067,408.134L323.928,357.147L323.928,263.923L331.238,275.795L331.238,321.013L347.753,321.013L347.753,271.118L321.229,228.041C318.66,223.868 315.061,220.426 310.776,218.045C303.261,213.868 293.861,215.395 288.054,221.735C280.331,230.167 276.047,241.186 276.047,252.62L276.047,265.813L242.191,306.167L254.861,316.635L276.047,290.99Z" style="fill:rgb(3,4,4);fill-rule:nonzero;"/>
        <path d="M276.047,290.99L276.047,312.139L248.241,415.559L273.76,422.419L298.206,331.496L298.206,365.565L331.319,421.58L354.067,408.134L323.928,357.147L323.928,263.923L331.238,275.795L331.238,321.013L347.753,321.013L347.753,271.118L321.229,228.041C318.66,223.868 315.061,220.426 310.776,218.045C303.261,213.868 293.861,215.395 288.054,221.735C280.331,230.167 276.047,241.186 276.047,252.62L276.047,265.813L242.191,306.167L254.861,316.635L276.047,290.99Z" style="fill:none;stroke:rgb(3,4,4);stroke-width:0.71px;"/>
        <path d="M317.456,190.171C317.456,179.226 308.584,170.353 297.638,170.353C286.692,170.353 277.819,179.226 277.819,190.171C277.819,201.117 286.692,209.99 297.638,209.99C308.584,209.99 317.456,201.117 317.456,190.171Z" style="fill:rgb(3,4,4);fill-rule:nonzero;"/>
        <path d="M317.456,190.171C317.456,179.226 308.584,170.353 297.638,170.353C286.692,170.353 277.819,179.226 277.819,190.171C277.819,201.117 286.692,209.99 297.638,209.99C308.584,209.99 317.456,201.117 317.456,190.171Z" style="fill:none;stroke:rgb(3,4,4);stroke-width:0.71px;"/>
    </g>
</svg>
