<?xml version="1.0" encoding="UTF-8" standalone="no"?>
<!DOCTYPE svg PUBLIC "-//W3C//DTD SVG 1.1//EN" "http://www.w3.org/Graphics/SVG/1.1/DTD/svg11.dtd">
<svg width="100%" height="100%" viewBox="0 0 596 522" version="1.1" xmlns="http://www.w3.org/2000/svg" xmlns:xlink="http://www.w3.org/1999/xlink" xml:space="preserve" xmlns:serif="http://www.serif.com/" style="fill-rule:evenodd;clip-rule:evenodd;stroke-linecap:round;stroke-linejoin:round;stroke-miterlimit:2;">
    <g>
        <path d="M279.594,11.571L3.146,490.391C-0.575,496.838 -0.575,504.78 3.146,511.228C6.868,517.673 13.746,521.645 21.19,521.645L574.085,521.645C581.528,521.645 588.407,517.673 592.129,511.228C595.851,504.78 595.851,496.838 592.129,490.391L315.683,11.571C311.96,5.125 305.082,1.153 297.638,1.153C290.194,1.153 283.316,5.125 279.594,11.571Z" style="fill:rgb(211,63,39);fill-rule:nonzero;"/>
        <path d="M279.594,11.571L3.146,490.391C-0.575,496.838 -0.575,504.78 3.146,511.228C6.868,517.673 13.746,521.645 21.19,521.645L574.085,521.645C581.528,521.645 588.407,517.673 592.129,511.228C595.851,504.78 595.851,496.838 592.129,490.391L315.683,11.571C311.96,5.125 305.082,1.153 297.638,1.153C290.194,1.153 283.316,5.125 279.594,11.571Z" style="fill:none;stroke:rgb(211,63,39);stroke-width:0.71px;"/>
        <path d="M93.367,459.138L501.908,459.138L297.638,105.332L93.367,459.138Z" style="fill:white;fill-rule:nonzero;"/>
        <path d="M93.367,459.138L501.908,459.138L297.638,105.332L93.367,459.138Z" style="fill:none;stroke:white;stroke-width:0.71px;"/>
        <path d="M387.515,440.932C388.823,443.776 388.517,447.102 386.707,449.657C384.899,452.213 381.865,453.61 378.747,453.32C375.63,453.033 372.903,451.103 371.594,448.259L356.684,415.861L356.684,389.344L336.274,446.488C334.569,451.263 329.316,453.751 324.542,452.046C319.768,450.34 317.279,445.087 318.984,440.313L340.811,379.199L340.811,361.141L331.517,387.988C330.782,390.251 328.883,391.939 326.55,392.403C324.218,392.868 321.816,392.037 320.271,390.23C318.725,388.423 318.275,385.921 319.096,383.69L337.237,331.279C339.893,323.611 346.714,318.15 354.777,317.236C362.84,316.324 370.711,320.124 375.011,327.006L394.916,358.854L394.916,376.617C394.916,380.428 391.827,383.518 388.017,383.518C384.205,383.518 381.115,380.428 381.115,376.617L381.115,363.478L375.879,355.099L375.879,415.649L387.515,440.932Z" style="fill:rgb(3,4,4);fill-rule:nonzero;"/>
        <path d="M387.515,440.932C388.823,443.776 388.517,447.102 386.707,449.657C384.899,452.213 381.865,453.61 378.747,453.32C375.63,453.033 372.903,451.103 371.594,448.259L356.684,415.861L356.684,389.344L336.274,446.488C334.569,451.263 329.316,453.751 324.542,452.046C319.768,450.34 317.279,445.087 318.984,440.313L340.811,379.199L340.811,361.141L331.517,387.988C330.782,390.251 328.883,391.939 326.55,392.403C324.218,392.868 321.816,392.037 320.271,390.23C318.725,388.423 318.275,385.921 319.096,383.69L337.237,331.279C339.893,323.611 346.714,318.15 354.777,317.236C362.84,316.324 370.711,320.124 375.011,327.006L394.916,358.854L394.916,376.617C394.916,380.428 391.827,383.518 388.017,383.518C384.205,383.518 381.115,380.428 381.115,376.617L381.115,363.478L375.879,355.099L375.879,415.649L387.515,440.932Z" style="fill:none;stroke:rgb(3,4,4);stroke-width:0.71px;"/>
        <path d="M374.383,293.7C374.383,283.004 365.711,274.332 355.014,274.332C344.317,274.332 335.646,283.004 335.646,293.7C335.646,304.398 344.317,313.069 355.014,313.069C365.711,313.069 374.383,304.398 374.383,293.7Z" style="fill:rgb(3,4,4);fill-rule:nonzero;"/>
        <path d="M374.383,293.7C374.383,283.004 365.711,274.332 355.014,274.332C344.317,274.332 335.646,283.004 335.646,293.7C335.646,304.398 344.317,313.069 355.014,313.069C365.711,313.069 374.383,304.398 374.383,293.7Z" style="fill:none;stroke:rgb(3,4,4);stroke-width:0.71px;"/>
        <path d="M280.588,256.404C280.588,245.211 271.514,236.136 260.32,236.136C249.127,236.136 240.053,245.211 240.053,256.404C240.053,267.598 249.127,276.672 260.32,276.672C271.514,276.672 280.588,267.598 280.588,256.404Z" style="fill:rgb(3,4,4);fill-rule:nonzero;"/>
        <path d="M280.588,256.404C280.588,245.211 271.514,236.136 260.32,236.136C249.127,236.136 240.053,245.211 240.053,256.404C240.053,267.598 249.127,276.672 260.32,276.672C271.514,276.672 280.588,267.598 280.588,256.404Z" style="fill:none;stroke:rgb(3,4,4);stroke-width:0.71px;"/>
        <path d="M283.104,446.908L262.347,401.808L262.347,375.793L237.565,445.183C236.226,448.933 232.987,451.684 229.069,452.399C225.152,453.114 221.15,451.686 218.571,448.65C215.993,445.614 215.23,441.435 216.569,437.684L245.12,357.743L245.12,326.521L231.993,364.442C231.143,367.058 228.946,369.01 226.249,369.548C223.551,370.085 220.774,369.123 218.986,367.033C217.199,364.943 216.679,362.051 217.628,359.47L239.163,297.26C242.227,288.406 250.103,282.102 259.411,281.048C268.72,279.995 277.806,284.38 282.77,292.324L309.38,334.901L309.38,369.331C309.38,373.528 305.979,376.932 301.779,376.932C297.583,376.932 294.18,373.528 294.18,369.331L294.18,343.008L285.655,329.368L285.655,403.974L301.517,438.436C303.855,443.52 301.631,449.538 296.547,451.878C291.463,454.218 285.444,451.994 283.104,446.908Z" style="fill:rgb(3,4,4);fill-rule:nonzero;"/>
        <path d="M283.104,446.908L262.347,401.808L262.347,375.793L237.565,445.183C236.226,448.933 232.987,451.684 229.069,452.399C225.152,453.114 221.15,451.686 218.571,448.65C215.993,445.614 215.23,441.435 216.569,437.684L245.12,357.743L245.12,326.521L231.993,364.442C231.143,367.058 228.946,369.01 226.249,369.548C223.551,370.085 220.774,369.123 218.986,367.033C217.199,364.943 216.679,362.051 217.628,359.47L239.163,297.26C242.227,288.406 250.103,282.102 259.411,281.048C268.72,279.995 277.806,284.38 282.77,292.324L309.38,334.901L309.38,369.331C309.38,373.528 305.979,376.932 301.779,376.932C297.583,376.932 294.18,373.528 294.18,369.331L294.18,343.008L285.655,329.368L285.655,403.974L301.517,438.436C303.855,443.52 301.631,449.538 296.547,451.878C291.463,454.218 285.444,451.994 283.104,446.908Z" style="fill:none;stroke:rgb(3,4,4);stroke-width:0.71px;"/>
    </g>
</svg>
