<?xml version="1.0" encoding="UTF-8" standalone="no"?>
<!DOCTYPE svg PUBLIC "-//W3C//DTD SVG 1.1//EN" "http://www.w3.org/Graphics/SVG/1.1/DTD/svg11.dtd">
<svg width="100%" height="100%" viewBox="0 0 596 522" version="1.1" xmlns="http://www.w3.org/2000/svg" xmlns:xlink="http://www.w3.org/1999/xlink" xml:space="preserve" xmlns:serif="http://www.serif.com/" style="fill-rule:evenodd;clip-rule:evenodd;stroke-linecap:round;stroke-linejoin:round;stroke-miterlimit:2;">
    <g>
        <path d="M315.683,11.571L592.129,490.391C595.851,496.838 595.851,504.78 592.129,511.228C588.407,517.673 581.528,521.645 574.085,521.645L21.19,521.645C13.746,521.645 6.868,517.673 3.146,511.228C-0.575,504.78 -0.575,496.838 3.146,490.391L279.594,11.571C283.316,5.125 290.194,1.153 297.638,1.153C305.082,1.153 311.96,5.125 315.683,11.571Z" style="fill:rgb(211,63,39);fill-rule:nonzero;"/>
        <path d="M315.683,11.571L592.129,490.391C595.851,496.838 595.851,504.78 592.129,511.228C588.407,517.673 581.528,521.645 574.085,521.645L21.19,521.645C13.746,521.645 6.868,517.673 3.146,511.228C-0.575,504.78 -0.575,496.838 3.146,490.391L279.594,11.571C283.316,5.125 290.194,1.153 297.638,1.153C305.082,1.153 311.96,5.125 315.683,11.571Z" style="fill:none;stroke:rgb(211,63,39);stroke-width:0.71px;"/>
        <path d="M93.367,459.138L297.638,105.332L501.908,459.138L93.367,459.138Z" style="fill:white;fill-rule:nonzero;"/>
        <path d="M93.367,459.138L297.638,105.332L501.908,459.138L93.367,459.138Z" style="fill:none;stroke:white;stroke-width:0.71px;"/>
        <path d="M325.895,397.746C328.801,421.044 345.984,440.027 368.878,445.232C391.771,450.435 415.473,440.745 428.163,420.992C440.854,401.24 439.815,375.655 425.567,356.996C411.318,338.337 386.91,330.599 364.513,337.64L346.409,298.289L359.163,287.871C366.187,282.134 368.015,272.151 363.48,264.297L335.369,215.606C332.656,210.908 328.018,207.637 322.682,206.66C317.346,205.683 311.849,207.097 307.647,210.529L246.31,260.633L223.404,336.134C194.516,330.045 165.881,347.5 158.059,375.968C150.237,404.437 165.932,434.072 193.875,443.6C221.82,453.126 252.35,439.248 263.546,411.931C274.742,384.612 262.733,353.3 236.141,340.476L240.068,327.366L294.431,389.585C293.875,395.369 297.333,400.787 302.812,402.72C308.292,404.653 314.384,402.605 317.58,397.752L325.896,397.746L325.895,397.746Z" style="fill:rgb(3,4,4);fill-rule:nonzero;"/>
        <path d="M325.895,397.746C328.801,421.044 345.984,440.027 368.878,445.232C391.771,450.435 415.473,440.745 428.163,420.992C440.854,401.24 439.815,375.655 425.567,356.996C411.318,338.337 386.91,330.599 364.513,337.64L346.409,298.289L359.163,287.871C366.187,282.134 368.015,272.151 363.48,264.297L335.369,215.606C332.656,210.908 328.018,207.637 322.682,206.66C317.346,205.683 311.849,207.097 307.647,210.529L246.31,260.633L223.404,336.134C194.516,330.045 165.881,347.5 158.059,375.968C150.237,404.437 165.932,434.072 193.875,443.6C221.82,453.126 252.35,439.248 263.546,411.931C274.742,384.612 262.733,353.3 236.141,340.476L240.068,327.366L294.431,389.585C293.875,395.369 297.333,400.787 302.812,402.72C308.292,404.653 314.384,402.605 317.58,397.752L325.896,397.746L325.895,397.746Z" style="fill:none;stroke:rgb(3,4,4);stroke-width:0.71px;"/>
        <path d="M314.479,185.956C314.479,173.55 304.422,163.494 292.017,163.494C279.612,163.494 269.556,173.55 269.556,185.956C269.556,198.361 279.612,208.417 292.017,208.417C304.422,208.417 314.479,198.361 314.479,185.956Z" style="fill:rgb(3,4,4);fill-rule:nonzero;"/>
        <path d="M314.479,185.956C314.479,173.55 304.422,163.494 292.017,163.494C279.612,163.494 269.556,173.55 269.556,185.956C269.556,198.361 279.612,208.417 292.017,208.417C304.422,208.417 314.479,198.361 314.479,185.956Z" style="fill:none;stroke:rgb(3,4,4);stroke-width:0.71px;"/>
        <path d="M256.303,273.795L304.35,234.548L326.103,272.226L285.38,305.49L284.045,306.58L249.744,295.58L256.303,273.795Z" style="fill:white;fill-rule:nonzero;"/>
        <path d="M256.303,273.795L304.35,234.548L326.103,272.226L285.38,305.49L284.045,306.58L249.744,295.58L256.303,273.795Z" style="fill:none;stroke:white;stroke-width:0.71px;"/>
        <path d="M246.768,305.49L244.801,311.968L293.335,367.657L277.997,319.619C277.561,318.253 277.426,316.808 277.603,315.386L246.768,305.49Z" style="fill:white;fill-rule:nonzero;"/>
        <path d="M246.768,305.49L244.801,311.968L293.335,367.657L277.997,319.619C277.561,318.253 277.426,316.808 277.603,315.386L246.768,305.49Z" style="fill:none;stroke:white;stroke-width:0.67px;"/>
        <path d="M308.748,329.053L315.803,351.148L322.366,329.75L311.976,326.415L308.748,329.053Z" style="fill:white;fill-rule:nonzero;"/>
        <path d="M308.748,329.053L315.803,351.148L322.366,329.75L311.976,326.415L308.748,329.053Z" style="fill:none;stroke:white;stroke-width:0.19px;"/>
        <path d="M319.87,383.862L340.262,317.066L352.246,343.213C337.735,352.045 328.042,367.01 325.915,383.864L319.87,383.862Z" style="fill:white;fill-rule:nonzero;"/>
        <path d="M319.87,383.862L340.262,317.066L352.246,343.213C337.735,352.045 328.042,367.01 325.915,383.864L319.87,383.862Z" style="fill:none;stroke:white;stroke-width:0.45px;"/>
        <path d="M338.646,383.667C340.646,371.796 347.51,361.299 357.581,354.705L370.858,383.675L338.646,383.667Z" style="fill:white;fill-rule:nonzero;"/>
        <path d="M338.646,383.667C340.646,371.796 347.51,361.299 357.581,354.705L370.858,383.675L338.646,383.667Z" style="fill:none;stroke:white;stroke-width:0.45px;"/>
        <path d="M369.812,349.111L387.654,388.076C388.634,390.213 388.445,392.703 387.155,394.668C385.866,396.634 383.658,397.798 381.308,397.752C367.076,397.473 352.841,397.494 338.611,397.817C341.498,415.466 354.962,429.512 372.474,433.141C389.985,436.771 407.923,429.234 417.586,414.186C427.249,399.137 426.64,379.691 416.054,365.276C405.467,350.862 387.093,344.462 369.843,349.181L369.812,349.111Z" style="fill:white;fill-rule:nonzero;"/>
        <path d="M369.812,349.111L387.654,388.076C388.634,390.213 388.445,392.703 387.155,394.668C385.866,396.634 383.658,397.798 381.308,397.752C367.076,397.473 352.841,397.494 338.611,397.817C341.498,415.466 354.962,429.512 372.474,433.141C389.985,436.771 407.923,429.234 417.586,414.186C427.249,399.137 426.64,379.691 416.054,365.276C405.467,350.862 387.093,344.462 369.843,349.181L369.812,349.111Z" style="fill:none;stroke:white;stroke-width:0.71px;"/>
        <path d="M232.212,353.482L226.202,372.714C224.383,378.914 222.15,384.985 219.519,390.886C218.759,392.535 217.779,394.075 216.605,395.464C214.327,397.774 210.716,398.112 208.047,396.265C205.379,394.418 204.424,390.919 205.785,387.972C208.461,382.754 210.706,377.325 212.496,371.741L219.719,348.218C197.509,344.119 175.881,357.79 170.055,379.611C164.228,401.432 176.162,424.064 197.458,431.582C218.756,439.102 242.253,428.978 251.418,408.335C260.583,387.693 252.332,363.475 232.471,352.72C232.328,352.643 232.153,352.657 232.025,352.757C231.897,352.858 231.841,353.024 231.882,353.181C231.923,353.338 232.052,353.456 232.212,353.482Z" style="fill:white;fill-rule:nonzero;"/>
        <path d="M232.212,353.482L226.202,372.714C224.383,378.914 222.15,384.985 219.519,390.886C218.759,392.535 217.779,394.075 216.605,395.464C214.327,397.774 210.716,398.112 208.047,396.265C205.379,394.418 204.424,390.919 205.785,387.972C208.461,382.754 210.706,377.325 212.496,371.741L219.719,348.218C197.509,344.119 175.881,357.79 170.055,379.611C164.228,401.432 176.162,424.064 197.458,431.582C218.756,439.102 242.253,428.978 251.418,408.335C260.583,387.693 252.332,363.475 232.471,352.72C232.328,352.643 232.153,352.657 232.025,352.757C231.897,352.858 231.841,353.024 231.882,353.181C231.923,353.338 232.052,353.456 232.212,353.482Z" style="fill:none;stroke:white;stroke-width:0.71px;"/>
    </g>
</svg>
