<?xml version="1.0" encoding="UTF-8" standalone="no"?>
<!DOCTYPE svg PUBLIC "-//W3C//DTD SVG 1.1//EN" "http://www.w3.org/Graphics/SVG/1.1/DTD/svg11.dtd">
<svg width="100%" height="100%" viewBox="0 0 256 224" version="1.1" xmlns="http://www.w3.org/2000/svg" xmlns:xlink="http://www.w3.org/1999/xlink" xml:space="preserve" xmlns:serif="http://www.serif.com/" style="fill-rule:evenodd;clip-rule:evenodd;stroke-miterlimit:2;">
    <g>
        <path d="M246.275,223.892C251.243,223.892 255.203,219.932 255.203,214.964C255.203,213.38 254.844,211.796 254.051,210.428L135.323,5.013C133.812,2.205 130.787,0.549 127.619,0.549C124.523,0.549 121.5,2.205 119.987,5.013L1.259,210.428C0.539,211.796 0.107,213.38 0.107,214.964C0.107,219.932 4.067,223.892 9.035,223.892L246.275,223.892Z" style="fill:rgb(211,63,39);fill-rule:nonzero;"/>
        <path d="M246.275,223.892C251.243,223.892 255.203,219.932 255.203,214.964C255.203,213.38 254.844,211.796 254.051,210.428L135.323,5.013C133.812,2.205 130.787,0.549 127.619,0.549C124.523,0.549 121.5,2.205 119.987,5.013L1.259,210.428C0.539,211.796 0.107,213.38 0.107,214.964C0.107,219.932 4.067,223.892 9.035,223.892L246.275,223.892Z" style="fill:none;stroke:rgb(211,63,39);stroke-width:0.22px;"/>
        <path d="M215.315,197.108L39.996,197.108L127.619,45.261L215.315,197.108Z" style="fill:white;fill-rule:nonzero;"/>
        <path d="M215.315,197.108L39.996,197.108L127.619,45.261L215.315,197.108Z" style="fill:none;stroke:white;stroke-width:0.22px;"/>
        <path d="M112.139,165.14C111.275,165.5 110.339,165.932 109.476,166.508L107.604,167.588C106.091,168.524 104.724,169.388 103.283,170.396C103.067,170.612 102.852,170.756 102.635,170.828L102.204,170.972L101.195,171.62C101.124,171.692 101.124,171.764 101.124,171.764C101.124,171.836 101.124,171.98 101.195,171.98L106.164,175.22C107.748,176.228 109.332,177.02 110.987,177.668C111.275,177.74 111.635,177.884 111.779,177.884C112.067,177.884 112.283,177.884 112.5,177.74L113.436,177.524C113.939,177.38 114.443,177.452 114.947,177.74L115.451,178.1C115.595,178.316 115.883,178.46 116.171,178.46C116.315,178.46 116.604,178.388 116.748,178.316L117.827,177.884C118.619,177.668 119.483,177.74 120.204,178.1C120.635,178.388 121.067,178.676 121.355,179.036L123.155,180.908C123.372,180.98 123.443,181.124 123.443,181.268L123.731,181.844L123.587,182.132C123.155,182.564 122.507,182.924 121.788,183.14L120.491,183.5L118.332,183.788C117.611,183.716 116.963,183.644 116.243,183.572L114.875,182.636C114.731,182.564 114.516,182.564 114.443,182.564L112.5,182.42C112.211,182.276 111.779,182.276 111.563,182.06C110.627,181.7 109.835,181.412 108.899,181.124L104.363,179.972L102.204,179.18C101.268,178.82 100.403,178.46 99.539,178.1L97.523,177.092L95.939,176.372C95.075,175.94 94.283,175.436 93.635,174.788C92.843,173.78 92.771,172.412 93.347,171.332L94.499,169.388C95.363,168.236 96.299,166.94 97.163,165.788L98.171,164.564L98.891,163.628C99.827,162.476 100.476,161.684 101.268,160.676C101.987,159.596 102.708,158.228 103.355,156.716C103.571,156.356 103.644,155.996 103.644,155.636C103.644,155.348 103.644,155.06 103.427,154.7L102.06,151.172L101.124,149.012L100.763,147.788L100.403,145.916L100.259,141.812L100.259,140.444C100.259,139.868 100.403,139.148 100.476,138.428L101.555,133.676C102.204,131.66 102.996,129.716 103.931,127.844L105.011,125.396L106.02,123.524L106.02,123.236C106.02,123.02 105.803,122.876 105.516,122.876C105.443,122.876 105.443,123.02 105.372,123.02C104.436,123.092 103.571,123.092 102.635,123.02C101.483,122.876 100.259,122.516 99.107,122.012C98.891,121.94 98.747,121.94 98.459,121.94L98.171,121.94C97.091,122.012 96.011,122.012 94.931,121.868C94.787,121.868 94.571,121.796 94.355,121.724L93.923,121.292C93.707,120.86 93.635,120.284 93.851,119.924C93.851,119.852 93.923,119.852 93.923,119.708C93.923,119.636 93.707,119.564 93.635,119.564C93.275,119.348 93.059,119.132 92.915,118.844L92.627,118.196L92.771,117.548C92.843,117.404 92.915,117.26 93.131,117.188C93.491,116.828 93.923,116.396 94.355,116.252L96.587,115.172C99.899,114.02 103.139,112.58 106.235,110.924C106.739,110.636 107.171,110.276 107.675,110.06L107.963,109.844C108.611,109.34 108.971,108.836 109.332,108.116L109.332,107.756C108.251,107.467 107.171,107.036 106.235,106.316L104.867,105.596C103.788,104.804 102.852,103.796 102.131,102.572L101.699,100.844C101.555,99.549 102.204,98.324 103.355,97.749C103.571,97.677 103.644,97.677 103.788,97.749C103.283,98.324 103.067,99.044 103.067,99.836C103.067,100.916 103.644,101.924 104.58,102.644C105.875,103.724 107.531,104.299 109.259,104.299L109.332,104.299L109.259,104.227C108.251,103.22 107.892,101.78 108.251,100.413C108.251,100.269 108.251,100.269 108.396,100.413C108.971,101.635 109.979,102.644 110.987,103.508C111.275,103.652 111.635,103.724 111.996,103.724C112.427,103.724 112.788,103.58 113.219,103.364L113.939,102.788L115.235,101.419C115.595,100.916 115.739,100.269 115.739,99.692L115.739,99.404L115.812,97.749L115.091,93.501L115.164,90.189C115.379,89.396 115.595,88.677 115.956,87.957C116.1,87.741 116.171,87.741 116.171,87.957L116.243,89.684L117.251,95.587L117.827,98.108C117.827,98.324 117.971,98.324 118.043,98.324L118.547,98.324C118.979,98.324 119.412,98.037 119.627,97.677L120.635,96.236L121.283,94.94L121.283,94.365C121.283,94.148 121.283,93.86 121.211,93.573L121.211,91.413L121.427,89.324C121.5,88.389 121.788,87.453 122.147,86.587C122.219,86.587 122.219,86.587 122.219,86.66C122.436,87.165 122.58,87.669 122.58,88.316L122.867,92.133C122.867,92.636 122.867,93.141 123.011,93.645C123.083,93.86 123.228,94.004 123.443,94.148L123.516,94.148C123.731,94.148 123.875,94.004 124.02,93.933C124.595,93.285 124.883,92.492 125.027,91.557L125.027,90.044L124.235,84.285C124.164,83.636 124.235,83.061 124.595,82.484C124.739,82.197 124.812,82.053 124.812,81.836C124.812,81.765 124.956,81.765 125.027,81.836L125.027,82.125L125.171,83.205L125.604,85.509C125.675,86.516 126.035,87.597 126.467,88.46C126.684,89.037 126.827,89.684 126.899,90.404L126.971,90.404C127.547,89.9 128.123,89.396 128.627,89.037C130.139,88.028 131.292,86.516 131.867,84.86C131.939,84.285 132.155,83.781 132.516,83.419C132.803,83.133 133.02,82.845 133.308,82.628L133.667,82.125L133.812,82.125L133.812,82.197L133.235,84.645L133.235,84.933C132.947,86.229 132.443,87.38 131.507,88.389L129.634,90.333C128.771,91.197 127.907,92.133 126.827,92.925L125.531,94.148C124.812,94.869 124.164,95.66 123.875,96.669C123.516,97.533 123.443,98.468 123.443,99.404L123.443,99.765L124.235,99.765L127.403,98.324C128.699,97.46 129.996,96.597 131.075,95.372C131.867,94.509 132.731,93.501 133.451,92.275C133.956,91.557 134.315,90.692 134.531,89.757C134.675,88.46 134.892,87.236 134.892,85.94L134.892,85.365C134.963,84.789 135.107,84.141 135.251,83.492L135.251,79.316C135.251,78.309 135.323,77.372 135.611,76.437C135.827,75.86 136.043,75.356 136.403,74.781L136.547,74.492C136.547,74.419 136.691,74.419 136.691,74.492L136.835,74.925L136.835,79.605C137.268,81.404 137.412,83.133 137.483,85.004L137.483,85.509C137.483,85.94 137.483,86.516 137.412,87.021L137.483,87.957L137.627,87.957C139.355,86.732 140.58,85.004 141.083,83.061L141.516,81.404L141.587,80.9C141.875,80.611 142.092,80.324 142.523,80.037L142.523,80.324C142.523,80.468 142.523,80.684 142.667,80.829L142.667,81.189L142.308,83.636L142.235,84.86C142.165,85.652 141.875,86.516 141.299,87.165L139.715,89.396L137.771,91.125C136.979,91.917 136.332,92.781 135.611,93.717L132.947,96.813C131.58,98.324 130.067,99.477 128.412,100.556C126.467,101.852 124.523,103.076 122.436,104.299C121.211,104.948 119.987,105.668 118.619,106.46C117.971,106.82 117.54,107.251 117.251,107.756C117.107,107.828 117.107,108.044 117.107,108.188C117.107,108.404 117.107,108.476 117.179,108.548L117.251,108.548C117.611,108.548 117.971,108.476 118.332,108.404C118.907,108.116 119.339,107.756 119.916,107.323C120.347,107.036 120.923,106.748 121.5,106.676L122.867,106.172C123.228,106.028 123.516,106.172 123.731,106.46L123.516,107.756L123.443,108.404L123.083,109.34C122.436,110.924 121.644,112.364 120.635,113.66L120.635,116.252C120.635,118.988 120.275,121.796 119.483,124.532L119.195,126.62C119.195,127.124 119.051,127.556 119.051,127.916C119.051,128.708 119.268,129.716 119.483,130.508C119.916,131.445 120.635,132.38 121.427,132.956C124.883,134.828 128.699,135.908 132.587,135.98L135.611,136.052L135.684,136.052C136.043,136.052 136.403,135.98 136.835,135.98L141.372,135.548L147.635,135.332C152.676,135.332 157.715,136.628 162.107,139.076C162.467,139.364 162.755,139.652 163.044,140.084L164.916,142.676C165.419,143.252 165.635,143.9 165.635,144.692C165.635,145.052 165.563,145.484 165.491,145.916C165.275,146.06 165.06,146.348 164.771,146.348C164.557,146.492 164.484,146.708 164.484,146.996L164.484,147.212L165.419,152.324L165.852,156.212L166.141,157.652C166.859,161.036 168.659,164.06 171.323,166.292L172.259,166.868L173.771,167.588C174.06,167.732 174.275,168.164 174.347,168.524L174.923,172.34C175.715,175.004 177.083,177.524 179.1,179.54L180.107,180.908C180.755,181.412 181.259,181.916 181.835,182.42C182.411,182.852 183.131,183.212 183.923,183.5C184.427,183.644 184.859,184.148 184.932,184.652C185.003,185.228 185.147,185.804 185.436,186.38C185.651,186.668 185.795,186.812 186.155,186.812C186.299,186.812 186.372,186.74 186.372,186.74L186.947,186.74C187.883,187.028 188.819,187.388 189.684,187.82C190.332,188.18 190.835,188.756 190.907,189.548L192.42,191.924L192.707,192.572L192.635,193.22L192.348,193.292L190.259,193.652C188.243,193.652 186.372,193.22 184.571,192.284L183.635,191.492L182.699,190.124C181.547,188.54 180.179,187.028 178.883,185.516L174.997,180.404L172.403,176.732L171.107,175.148C169.812,173.492 168.299,171.98 166.571,170.828C165.997,170.612 165.491,170.324 164.916,170.252C162.755,169.604 160.595,168.596 158.581,167.516C157.644,167.012 156.708,166.436 155.916,165.716C155.484,165.428 155.051,165.14 154.691,164.852L153.323,163.916L151.667,162.332L150.659,161.252L148.788,159.092C148.715,158.948 148.571,158.876 148.283,158.876C148.141,158.876 148.141,158.876 148.068,158.948L145.691,159.884L143.676,160.532L141.228,161.252L138.06,162.26C136.763,162.404 135.54,162.692 134.243,162.764C132.947,162.836 131.724,162.908 130.354,162.98C129.06,163.052 127.763,163.052 126.54,162.98C124.812,162.908 123.083,162.62 121.427,162.116L120.204,161.684L119.051,161.252L118.476,160.964L118.332,160.964C118.188,160.964 118.043,160.964 117.971,161.036L117.827,161.324C117.251,162.26 116.531,162.908 115.595,163.412C114.516,163.916 113.363,164.564 112.211,165.14L112.139,165.14Z" style="fill:rgb(35,31,32);fill-rule:nonzero;"/>
        <path d="M112.139,165.14C111.275,165.5 110.339,165.932 109.476,166.508L107.604,167.588C106.091,168.524 104.724,169.388 103.283,170.396C103.067,170.612 102.852,170.756 102.635,170.828L102.204,170.972L101.195,171.62C101.124,171.692 101.124,171.764 101.124,171.764C101.124,171.836 101.124,171.98 101.195,171.98L106.164,175.22C107.748,176.228 109.332,177.02 110.987,177.668C111.275,177.74 111.635,177.884 111.779,177.884C112.067,177.884 112.283,177.884 112.5,177.74L113.436,177.524C113.939,177.38 114.443,177.452 114.947,177.74L115.451,178.1C115.595,178.316 115.883,178.46 116.171,178.46C116.315,178.46 116.604,178.388 116.748,178.316L117.827,177.884C118.619,177.668 119.483,177.74 120.204,178.1C120.635,178.388 121.067,178.676 121.355,179.036L123.155,180.908C123.372,180.98 123.443,181.124 123.443,181.268L123.731,181.844L123.587,182.132C123.155,182.564 122.507,182.924 121.788,183.14L120.491,183.5L118.332,183.788C117.611,183.716 116.963,183.644 116.243,183.572L114.875,182.636C114.731,182.564 114.516,182.564 114.443,182.564L112.5,182.42C112.211,182.276 111.779,182.276 111.563,182.06C110.627,181.7 109.835,181.412 108.899,181.124L104.363,179.972L102.204,179.18C101.268,178.82 100.403,178.46 99.539,178.1L97.523,177.092L95.939,176.372C95.075,175.94 94.283,175.436 93.635,174.788C92.843,173.78 92.771,172.412 93.347,171.332L94.499,169.388C95.363,168.236 96.299,166.94 97.163,165.788L98.171,164.564L98.891,163.628C99.827,162.476 100.476,161.684 101.268,160.676C101.987,159.596 102.708,158.228 103.355,156.716C103.571,156.356 103.644,155.996 103.644,155.636C103.644,155.348 103.644,155.06 103.427,154.7L102.06,151.172L101.124,149.012L100.763,147.788L100.403,145.916L100.259,141.812L100.259,140.444C100.259,139.868 100.403,139.148 100.476,138.428L101.555,133.676C102.204,131.66 102.996,129.716 103.931,127.844L105.011,125.396L106.02,123.524L106.02,123.236C106.02,123.02 105.803,122.876 105.516,122.876C105.443,122.876 105.443,123.02 105.372,123.02C104.436,123.092 103.571,123.092 102.635,123.02C101.483,122.876 100.259,122.516 99.107,122.012C98.891,121.94 98.747,121.94 98.459,121.94L98.171,121.94C97.091,122.012 96.011,122.012 94.931,121.868C94.787,121.868 94.571,121.796 94.355,121.724L93.923,121.292C93.707,120.86 93.635,120.284 93.851,119.924C93.851,119.852 93.923,119.852 93.923,119.708C93.923,119.636 93.707,119.564 93.635,119.564C93.275,119.348 93.059,119.132 92.915,118.844L92.627,118.196L92.771,117.548C92.843,117.404 92.915,117.26 93.131,117.188C93.491,116.828 93.923,116.396 94.355,116.252L96.587,115.172C99.899,114.02 103.139,112.58 106.235,110.924C106.739,110.636 107.171,110.276 107.675,110.06L107.963,109.844C108.611,109.34 108.971,108.836 109.332,108.116L109.332,107.756C108.251,107.467 107.171,107.036 106.235,106.316L104.867,105.596C103.788,104.804 102.852,103.796 102.131,102.572L101.699,100.844C101.555,99.549 102.204,98.324 103.355,97.749C103.571,97.677 103.644,97.677 103.788,97.749C103.283,98.324 103.067,99.044 103.067,99.836C103.067,100.916 103.644,101.924 104.58,102.644C105.875,103.724 107.531,104.299 109.259,104.299L109.332,104.299L109.259,104.227C108.251,103.22 107.892,101.78 108.251,100.413C108.251,100.269 108.251,100.269 108.396,100.413C108.971,101.635 109.979,102.644 110.987,103.508C111.275,103.652 111.635,103.724 111.996,103.724C112.427,103.724 112.788,103.58 113.219,103.364L113.939,102.788L115.235,101.419C115.595,100.916 115.739,100.269 115.739,99.692L115.739,99.404L115.812,97.749L115.091,93.501L115.164,90.189C115.379,89.396 115.595,88.677 115.956,87.957C116.1,87.741 116.171,87.741 116.171,87.957L116.243,89.684L117.251,95.587L117.827,98.108C117.827,98.324 117.971,98.324 118.043,98.324L118.547,98.324C118.979,98.324 119.412,98.037 119.627,97.677L120.635,96.236L121.283,94.94L121.283,94.365C121.283,94.148 121.283,93.86 121.211,93.573L121.211,91.413L121.427,89.324C121.5,88.389 121.788,87.453 122.147,86.587C122.219,86.587 122.219,86.587 122.219,86.66C122.436,87.165 122.58,87.669 122.58,88.316L122.867,92.133C122.867,92.636 122.867,93.141 123.011,93.645C123.083,93.86 123.228,94.004 123.443,94.148L123.516,94.148C123.731,94.148 123.875,94.004 124.02,93.933C124.595,93.285 124.883,92.492 125.027,91.557L125.027,90.044L124.235,84.285C124.164,83.636 124.235,83.061 124.595,82.484C124.739,82.197 124.812,82.053 124.812,81.836C124.812,81.765 124.956,81.765 125.027,81.836L125.027,82.125L125.171,83.205L125.604,85.509C125.675,86.516 126.035,87.597 126.467,88.46C126.684,89.037 126.827,89.684 126.899,90.404L126.971,90.404C127.547,89.9 128.123,89.396 128.627,89.037C130.139,88.028 131.292,86.516 131.867,84.86C131.939,84.285 132.155,83.781 132.516,83.419C132.803,83.133 133.02,82.845 133.308,82.628L133.667,82.125L133.812,82.125L133.812,82.197L133.235,84.645L133.235,84.933C132.947,86.229 132.443,87.38 131.507,88.389L129.634,90.333C128.771,91.197 127.907,92.133 126.827,92.925L125.531,94.148C124.812,94.869 124.164,95.66 123.875,96.669C123.516,97.533 123.443,98.468 123.443,99.404L123.443,99.765L124.235,99.765L127.403,98.324C128.699,97.46 129.996,96.597 131.075,95.372C131.867,94.509 132.731,93.501 133.451,92.275C133.956,91.557 134.315,90.692 134.531,89.757C134.675,88.46 134.892,87.236 134.892,85.94L134.892,85.365C134.963,84.789 135.107,84.141 135.251,83.492L135.251,79.316C135.251,78.309 135.323,77.372 135.611,76.437C135.827,75.86 136.043,75.356 136.403,74.781L136.547,74.492C136.547,74.419 136.691,74.419 136.691,74.492L136.835,74.925L136.835,79.605C137.268,81.404 137.412,83.133 137.483,85.004L137.483,85.509C137.483,85.94 137.483,86.516 137.412,87.021L137.483,87.957L137.627,87.957C139.355,86.732 140.58,85.004 141.083,83.061L141.516,81.404L141.587,80.9C141.875,80.611 142.092,80.324 142.523,80.037L142.523,80.324C142.523,80.468 142.523,80.684 142.667,80.829L142.667,81.189L142.308,83.636L142.235,84.86C142.165,85.652 141.875,86.516 141.299,87.165L139.715,89.396L137.771,91.125C136.979,91.917 136.332,92.781 135.611,93.717L132.947,96.813C131.58,98.324 130.067,99.477 128.412,100.556C126.467,101.852 124.523,103.076 122.436,104.299C121.211,104.948 119.987,105.668 118.619,106.46C117.971,106.82 117.54,107.251 117.251,107.756C117.107,107.828 117.107,108.044 117.107,108.188C117.107,108.404 117.107,108.476 117.179,108.548L117.251,108.548C117.611,108.548 117.971,108.476 118.332,108.404C118.907,108.116 119.339,107.756 119.916,107.323C120.347,107.036 120.923,106.748 121.5,106.676L122.867,106.172C123.228,106.028 123.516,106.172 123.731,106.46L123.516,107.756L123.443,108.404L123.083,109.34C122.436,110.924 121.644,112.364 120.635,113.66L120.635,116.252C120.635,118.988 120.275,121.796 119.483,124.532L119.195,126.62C119.195,127.124 119.051,127.556 119.051,127.916C119.051,128.708 119.268,129.716 119.483,130.508C119.916,131.445 120.635,132.38 121.427,132.956C124.883,134.828 128.699,135.908 132.587,135.98L135.611,136.052L135.684,136.052C136.043,136.052 136.403,135.98 136.835,135.98L141.372,135.548L147.635,135.332C152.676,135.332 157.715,136.628 162.107,139.076C162.467,139.364 162.755,139.652 163.044,140.084L164.916,142.676C165.419,143.252 165.635,143.9 165.635,144.692C165.635,145.052 165.563,145.484 165.491,145.916C165.275,146.06 165.06,146.348 164.771,146.348C164.557,146.492 164.484,146.708 164.484,146.996L164.484,147.212L165.419,152.324L165.852,156.212L166.141,157.652C166.859,161.036 168.659,164.06 171.323,166.292L172.259,166.868L173.771,167.588C174.06,167.732 174.275,168.164 174.347,168.524L174.923,172.34C175.715,175.004 177.083,177.524 179.1,179.54L180.107,180.908C180.755,181.412 181.259,181.916 181.835,182.42C182.411,182.852 183.131,183.212 183.923,183.5C184.427,183.644 184.859,184.148 184.932,184.652C185.003,185.228 185.147,185.804 185.436,186.38C185.651,186.668 185.795,186.812 186.155,186.812C186.299,186.812 186.372,186.74 186.372,186.74L186.947,186.74C187.883,187.028 188.819,187.388 189.684,187.82C190.332,188.18 190.835,188.756 190.907,189.548L192.42,191.924L192.707,192.572L192.635,193.22L192.348,193.292L190.259,193.652C188.243,193.652 186.372,193.22 184.571,192.284L183.635,191.492L182.699,190.124C181.547,188.54 180.179,187.028 178.883,185.516L174.997,180.404L172.403,176.732L171.107,175.148C169.812,173.492 168.299,171.98 166.571,170.828C165.997,170.612 165.491,170.324 164.916,170.252C162.755,169.604 160.595,168.596 158.581,167.516C157.644,167.012 156.708,166.436 155.916,165.716C155.484,165.428 155.051,165.14 154.691,164.852L153.323,163.916L151.667,162.332L150.659,161.252L148.788,159.092C148.715,158.948 148.571,158.876 148.283,158.876C148.141,158.876 148.141,158.876 148.068,158.948L145.691,159.884L143.676,160.532L141.228,161.252L138.06,162.26C136.763,162.404 135.54,162.692 134.243,162.764C132.947,162.836 131.724,162.908 130.354,162.98C129.06,163.052 127.763,163.052 126.54,162.98C124.812,162.908 123.083,162.62 121.427,162.116L120.204,161.684L119.051,161.252L118.476,160.964L118.332,160.964C118.188,160.964 118.043,160.964 117.971,161.036L117.827,161.324C117.251,162.26 116.531,162.908 115.595,163.412C114.516,163.916 113.363,164.564 112.211,165.14L112.139,165.14Z" style="fill:none;stroke:rgb(35,31,32);stroke-width:0.22px;"/>
        <path d="M115.595,104.371L116.819,102.356L117.684,101.419L118.476,100.556L119.627,99.549L120.779,98.829L120.923,98.757C120.996,98.684 121.139,98.757 121.211,98.829L121.139,100.628C120.996,101.132 120.708,101.635 120.419,101.924C120.347,102.14 120.06,102.212 119.987,102.284L118.547,103.076L117.323,103.724L115.956,104.515C115.812,104.587 115.595,104.515 115.595,104.371Z" style="fill:none;stroke:rgb(35,31,32);stroke-width:0.22px;"/>
    </g>
</svg>
