<?xml version="1.0" encoding="UTF-8" standalone="no"?>
<!DOCTYPE svg PUBLIC "-//W3C//DTD SVG 1.1//EN" "http://www.w3.org/Graphics/SVG/1.1/DTD/svg11.dtd">
<svg width="100%" height="100%" viewBox="0 0 256 224" version="1.1" xmlns="http://www.w3.org/2000/svg" xmlns:xlink="http://www.w3.org/1999/xlink" xml:space="preserve" xmlns:serif="http://www.serif.com/" style="fill-rule:evenodd;clip-rule:evenodd;stroke-miterlimit:2;">
    <g>
        <path d="M135.396,5.013L253.979,210.501C254.771,211.869 255.203,213.381 255.203,214.965C255.203,219.933 251.243,223.893 246.275,223.893L9.035,223.893C4.139,223.893 0.107,219.933 0.107,214.965C0.107,213.381 0.539,211.869 1.331,210.501L119.916,5.013C123.372,-0.891 132.011,-0.891 135.467,5.085L135.396,5.013Z" style="fill:rgb(211,63,39);fill-rule:nonzero;"/>
        <path d="M135.396,5.013L253.979,210.501C254.771,211.869 255.203,213.381 255.203,214.965C255.203,219.933 251.243,223.893 246.275,223.893L9.035,223.893C4.139,223.893 0.107,219.933 0.107,214.965C0.107,213.381 0.539,211.869 1.331,210.501L119.916,5.013C123.372,-0.891 132.011,-0.891 135.467,5.085L135.396,5.013Z" style="fill:none;stroke:rgb(211,63,39);stroke-width:0.22px;"/>
        <path d="M39.996,197.037L127.619,45.261L215.315,197.037L39.996,197.037Z" style="fill:white;fill-rule:nonzero;"/>
        <path d="M39.996,197.037L127.619,45.261L215.315,197.037L39.996,197.037Z" style="fill:none;stroke:white;stroke-width:0.22px;"/>
        <path d="M87.659,123.093L87.587,123.236L87.587,123.525C87.587,123.957 87.731,124.461 87.947,124.893C88.163,125.253 88.307,125.613 88.451,125.901L88.451,126.477C88.451,126.621 88.379,126.765 88.307,126.837L88.091,126.837C87.731,126.765 87.443,126.477 87.227,126.189L87.083,125.901C87.011,125.541 86.939,125.181 86.795,124.749L86.651,124.749C86.579,124.749 86.507,124.749 86.435,124.82C86.147,125.109 85.931,125.469 85.859,125.829C85.859,126.045 85.787,126.333 85.787,126.477C85.787,126.621 85.787,126.837 85.859,126.909C86.003,127.557 86.363,128.133 86.723,128.637C86.867,128.854 87.011,128.997 87.011,129.214L87.011,129.357C87.011,129.501 87.011,129.645 86.939,129.717C86.579,130.005 86.147,130.149 85.715,130.149L84.923,130.149C84.779,130.221 84.779,130.365 84.779,130.438C84.779,130.798 84.995,131.085 85.211,131.301C85.643,131.661 86.147,131.877 86.651,132.021C87.083,132.165 87.515,132.236 87.875,132.236L89.027,132.236C89.963,132.093 90.683,132.021 91.403,131.877C92.123,131.805 92.915,131.661 93.707,131.661C94.643,131.661 95.579,131.733 96.515,131.949L97.667,132.309L98.099,132.597L98.243,132.813C98.459,132.957 98.603,133.245 98.603,133.533C98.603,133.749 98.459,133.893 98.243,133.965L97.595,133.965L96.227,134.397C96.083,134.469 95.939,134.469 95.795,134.397C95.219,134.253 94.715,134.181 94.139,134.181C93.923,134.181 93.635,134.181 93.419,134.253C92.627,134.325 91.979,134.613 91.331,135.117C90.683,135.045 90.035,135.045 89.387,135.045C87.443,135.045 85.427,135.189 83.483,135.549L82.979,135.549C82.691,135.477 82.403,135.477 82.115,135.477C81.827,135.477 81.539,135.477 81.251,135.549C80.747,135.693 80.315,135.981 79.883,136.341C79.379,136.773 79.091,137.349 79.019,137.997L79.019,138.501C79.019,138.789 79.019,139.077 79.091,139.437C79.163,139.797 79.307,140.157 79.451,140.517L80.243,141.957C80.315,142.101 80.459,142.173 80.603,142.317L81.323,142.533C81.251,142.677 81.179,142.893 81.179,143.037C81.179,143.109 81.251,143.253 81.323,143.397C81.539,143.901 81.971,144.189 82.475,144.333C82.907,144.477 83.411,144.549 83.843,144.549C84.131,144.549 84.491,144.549 84.779,144.477L85.787,144.261C86.075,144.189 86.363,144.333 86.579,144.549C87.515,145.197 88.595,145.701 89.747,146.061C90.971,146.349 92.195,146.637 93.491,146.781C94.067,146.853 94.643,146.997 95.147,147.285C95.579,147.501 95.939,147.861 96.155,148.293C96.515,148.797 96.875,149.229 97.235,149.661L97.955,150.165L98.315,150.525L98.747,150.813L99.395,151.533C99.395,151.605 99.395,151.677 99.467,151.749C99.683,152.397 99.971,153.045 100.332,153.693C100.332,153.837 100.403,153.981 100.547,154.125L101.051,154.845L101.195,154.845C101.268,155.061 101.483,155.205 101.771,155.277L102.563,156.285L102.779,156.573L102.852,156.573L103.715,157.149C104.075,157.725 104.651,158.157 105.299,158.444L105.587,158.517C105.659,158.589 105.731,158.589 105.803,158.589L106.164,158.949L107.171,159.597C107.459,159.597 107.748,159.741 107.963,159.885C108.323,160.101 108.684,160.173 109.115,160.173C109.259,160.173 109.332,160.245 109.403,160.389C109.907,160.461 110.339,160.605 110.843,160.677C111.06,160.677 111.275,160.605 111.419,160.461C111.491,160.461 111.563,160.461 111.563,160.533C111.708,160.461 111.779,160.533 111.923,160.605C112.067,160.533 112.211,160.461 112.355,160.389L112.427,160.389C112.5,160.389 112.644,160.389 112.715,160.317C112.788,160.245 112.931,160.173 113.075,160.245C113.292,160.101 113.507,160.173 113.651,160.389C114.587,161.181 115.595,161.901 116.675,162.405C116.387,163.773 116.171,165.213 116.027,166.581C115.812,168.236 115.379,169.821 114.803,171.333C114.155,172.773 113.58,174.285 113.219,175.797C113.147,176.301 113.147,176.805 113.147,177.309L113.147,177.885C112.715,179.973 111.779,181.917 110.412,183.573C109.763,184.365 109.188,185.229 108.684,186.093C108.54,186.165 108.467,186.236 108.396,186.309L107.243,186.813L106.812,187.028L106.235,187.389C105.875,187.389 105.516,187.461 105.228,187.533C104.795,187.605 104.507,187.821 104.292,188.109C104.147,188.325 104.003,188.469 103.931,188.757L103.931,189.261L102.275,191.349C102.204,191.421 102.131,191.493 102.131,191.565C102.131,191.709 102.275,191.853 102.419,191.853L109.835,191.925C110.268,191.637 110.555,191.277 110.771,190.773C110.771,190.485 110.916,190.197 110.987,189.909L111.204,189.909C111.275,190.125 111.347,190.341 111.419,190.557L111.635,190.845L111.923,190.845L113.003,189.549C113.651,188.685 114.011,187.677 114.228,186.669C114.443,185.229 114.803,183.933 115.164,182.709C115.451,181.773 115.812,180.837 116.171,179.973L116.531,179.181C116.675,178.893 116.892,178.605 117.107,178.317C117.54,177.957 117.755,177.525 118.043,177.021C118.476,175.797 118.763,175.077 119.051,174.285L121.067,170.253C121.788,169.101 122.436,167.949 123.011,166.869C123.516,165.645 124.02,164.421 124.595,163.341L125.963,163.269C126.396,164.781 126.899,166.293 127.476,167.733C127.979,169.028 128.339,170.469 128.483,171.837C128.627,173.133 128.771,174.429 129.131,175.653C129.491,176.373 130.067,176.949 130.715,177.309L131.363,177.669C131.867,178.173 132.372,178.677 132.803,179.181C133.812,180.477 134.604,181.845 135.251,183.285C135.467,183.861 135.827,184.437 136.188,184.941C137.051,185.805 137.987,186.669 138.852,187.461C139.283,188.037 139.788,188.469 140.363,188.757C140.507,188.829 140.651,188.901 140.867,188.901C140.939,188.901 141.083,188.901 141.155,188.829L143.243,190.125C143.387,190.269 143.459,190.341 143.604,190.341C143.819,190.341 144.035,190.125 144.035,189.837C144.035,187.677 143.819,185.517 143.459,183.285C143.171,182.709 142.595,182.421 141.947,182.421L141.875,182.421L141.011,182.637L140.795,182.637L140.795,182.565C141.011,182.421 141.155,182.205 141.299,182.061L141.299,181.989C141.299,181.845 141.228,181.701 141.155,181.629C140.867,181.341 140.436,181.197 140.075,181.197C139.788,180.765 139.355,180.477 138.852,180.333C138.347,180.117 137.843,179.757 137.483,179.397L136.403,178.317C136.043,177.885 135.684,177.453 135.323,176.949C135.323,176.805 135.251,176.733 135.107,176.661C134.963,176.444 134.819,176.157 134.604,175.941C134.531,175.005 134.315,174.069 134.1,173.205C133.812,172.197 133.667,171.189 133.667,170.181L133.595,168.309C133.667,167.517 133.667,166.869 133.667,166.221C133.667,164.853 133.595,163.485 133.523,162.189C134.604,161.829 135.755,161.685 136.907,161.757C137.987,161.757 138.996,161.829 140.003,161.829C141.659,161.829 143.387,161.757 145.044,161.685C145.619,161.685 146.268,161.541 146.916,161.397L147.204,161.397C147.419,161.541 147.563,161.613 147.852,161.613C147.997,161.613 148.211,161.541 148.427,161.397L152.315,159.525C152.387,159.453 152.459,159.525 152.532,159.597C152.748,160.893 153.035,162.261 153.107,163.557C153.323,164.925 153.684,166.293 154.332,167.517C154.835,168.741 155.268,169.965 155.628,171.189C155.699,171.477 155.771,171.837 155.843,172.197L155.843,172.773C155.843,173.925 155.916,175.077 156.06,176.229C156.06,176.373 156.131,176.517 156.131,176.589C156.131,176.805 156.06,177.093 155.916,177.236C154.979,179.973 153.54,182.493 151.667,184.725C150.875,185.733 149.867,186.597 148.788,187.245C148.283,187.317 147.779,187.461 147.347,187.677C146.843,187.893 146.484,188.397 146.484,188.973L144.54,191.277C144.467,191.349 144.396,191.421 144.396,191.565C144.396,191.709 144.467,191.853 144.54,191.853L151.667,191.853C152.459,191.781 153.035,191.133 153.035,190.413L153.035,190.269C153.107,190.125 153.251,189.909 153.396,189.837L153.54,189.837C153.611,189.909 153.611,190.053 153.611,190.125C153.684,190.341 153.827,190.413 154.044,190.413C154.332,190.413 154.547,190.269 154.691,189.981C154.763,189.837 154.907,189.549 154.979,189.333C155.411,188.757 155.771,188.109 155.987,187.389L157.068,184.725C157.644,183.213 158.363,181.917 159.155,180.621C159.443,179.973 159.803,179.397 160.235,178.749C160.739,177.957 161.171,177.165 161.532,176.229C161.819,175.581 162.179,175.077 162.684,174.573C162.827,174.357 162.899,174.069 162.899,173.781C162.899,173.637 162.899,173.565 162.827,173.421L161.892,170.181C161.819,169.821 161.748,169.245 161.604,168.597C161.459,167.661 161.315,166.725 161.1,165.789C160.812,164.349 160.883,162.909 161.171,161.469C161.243,160.965 161.532,160.461 161.819,160.028C162.54,160.605 163.188,161.181 163.763,161.829C164.268,162.405 164.699,162.909 165.131,163.413C165.708,163.917 166.211,164.421 166.715,164.925C168.516,166.509 170.459,167.949 172.476,169.245C173.484,170.469 174.779,171.621 176.075,172.701C176.363,172.917 176.581,173.277 176.795,173.637C177.155,174.213 177.443,174.861 177.587,175.509L178.667,178.605L179.315,180.765L179.604,182.493C179.892,183.717 180.467,184.869 181.259,185.877L181.979,186.813L182.843,188.397C183.06,188.757 183.347,189.045 183.708,189.189L183.852,189.189C183.997,189.189 184.14,189.189 184.211,189.117C184.571,189.333 184.932,189.549 185.219,189.837C185.581,189.981 185.795,190.197 186.083,190.413C186.228,190.557 186.372,190.701 186.587,190.773L186.659,190.773C186.803,190.773 186.947,190.701 187.021,190.629L187.164,189.477L187.235,188.109C187.235,187.605 187.308,187.028 187.308,186.453C187.308,186.021 187.235,185.589 187.235,185.229C187.235,184.725 187.164,184.293 186.947,183.861C186.659,183.429 186.228,183.213 185.724,183.141C185.436,183.141 185.147,183.069 184.932,182.997C184.859,182.925 184.859,182.853 184.932,182.781L185.147,182.781C185.219,182.853 185.363,182.853 185.436,182.853L185.651,182.853C185.724,182.853 185.795,182.853 185.795,182.781C185.867,182.709 185.867,182.709 185.867,182.637C185.867,182.565 185.867,182.493 185.795,182.421C185.724,182.205 185.651,182.061 185.508,181.917C185.436,181.485 185.219,181.125 185.003,180.837C184.715,180.405 184.355,180.045 183.997,179.685L183.419,179.181C183.204,178.893 183.06,178.605 182.916,178.245L181.188,173.565L180.971,172.773L180.54,171.261L180.54,170.973C180.107,170.109 179.819,169.245 179.459,168.381C179.459,167.949 179.387,167.661 179.315,167.301C179.315,166.941 179.171,166.581 178.956,166.293C178.667,166.005 178.379,165.789 178.021,165.645L177.443,165.285L176.795,164.853L176.724,164.781L175.715,164.061C175.211,163.629 174.635,163.197 174.06,162.765C173.195,161.901 172.403,160.893 171.827,159.741C171.467,159.021 171.251,158.157 171.251,157.293L171.684,154.845C172.619,151.101 173.339,147.501 173.916,143.901L173.916,143.397C173.916,142.82 173.843,142.245 173.628,141.741C173.484,141.309 173.268,140.949 173.051,140.589C173.195,140.373 173.411,140.157 173.557,139.941C173.771,139.653 173.987,139.365 174.131,139.005C174.563,138.213 174.779,137.349 174.779,136.413C174.852,136.053 174.997,135.765 175.211,135.477L175.211,135.405C175.211,135.045 175.068,134.685 174.779,134.469C174.635,134.397 174.419,134.253 174.204,134.181C173.987,134.109 173.699,134.037 173.484,134.037C173.268,134.037 173.051,134.037 172.907,134.109C171.611,134.613 170.459,135.405 169.523,136.413C168.299,135.693 166.932,135.261 165.635,135.045C163.044,134.685 160.379,134.469 157.788,134.469C156.635,134.469 155.557,134.541 154.403,134.613L152.1,134.901L148.715,134.901C142.812,134.901 136.835,135.261 130.931,136.125L130.139,136.125C129.852,135.981 129.563,135.765 129.274,135.549C128.843,135.261 128.412,135.045 127.907,134.973L127.619,134.829L126.611,134.613C125.819,134.541 125.1,134.469 124.308,134.469C122.651,134.469 121.067,134.613 119.555,134.901C118.403,135.189 117.396,135.549 116.387,135.981C115.523,136.269 114.587,136.485 113.724,136.485C112.427,136.701 110.987,136.845 109.619,136.773C107.315,136.917 105.011,136.629 102.779,135.981L102.491,135.621C102.852,134.829 103.571,134.109 104.436,133.82L106.523,133.317C107.387,133.389 108.179,133.389 108.971,133.389L110.483,133.389C111.563,133.389 112.644,133.317 113.651,133.101C115.164,132.813 116.675,132.381 118.115,131.805C118.547,131.733 119.051,131.733 119.555,131.877C119.987,132.021 120.419,132.165 120.852,132.236L121.644,132.381L122.795,132.381C123.228,132.309 123.659,132.236 124.164,132.021C124.523,131.877 124.883,131.661 125.171,131.373L125.171,131.229C125.171,131.158 125.171,131.085 125.027,131.013C124.739,130.869 124.451,130.869 124.164,130.869C123.659,130.798 123.155,130.725 122.651,130.581C122.003,130.365 121.355,130.005 120.852,129.501C120.779,129.357 120.852,129.214 120.923,129.141C121.931,127.773 122.651,126.261 123.083,124.605C123.443,123.093 123.587,121.581 123.587,119.997C123.587,119.277 123.587,118.485 123.516,117.765C123.228,116.469 122.939,115.173 122.651,113.877C122.507,113.301 122.651,112.869 122.939,112.581C123.443,112.077 123.947,111.573 124.523,111.069C124.739,110.637 125.1,110.205 125.387,109.773C125.604,109.413 125.819,108.981 125.892,108.549C125.892,108.549 125.963,108.477 125.963,108.404C125.963,108.333 125.892,108.189 125.819,108.117L125.675,108.117C125.604,108.117 125.459,108.117 125.387,108.189C125.171,108.333 124.883,108.549 124.667,108.765C124.379,108.981 123.947,109.341 123.443,109.773L122.219,110.493C122.075,110.493 121.859,110.493 121.715,110.421C121.571,110.133 121.427,109.845 121.355,109.557C121.211,109.125 121.139,108.765 121.067,108.333C120.923,107.757 120.923,107.252 120.852,106.82C120.923,106.533 120.996,106.317 121.067,106.028L121.5,105.453L122.507,104.372L123.228,103.509C123.587,103.221 123.875,102.861 124.164,102.429C124.451,101.925 124.595,101.348 124.595,100.773C124.595,100.557 124.595,100.413 124.523,100.269L124.523,100.197C124.523,99.837 124.451,99.477 124.308,99.117C124.308,98.973 124.164,98.829 124.091,98.757L123.947,98.757C123.803,98.757 123.731,98.829 123.659,98.901C123.516,99.189 123.443,99.477 123.372,99.765C123.372,99.981 123.299,100.269 123.155,100.485C123.011,100.989 122.58,101.348 122.147,101.564C122.003,101.636 121.859,101.709 121.644,101.781L121.5,101.781C121.355,101.781 121.283,101.709 121.211,101.564L120.923,100.917L120.563,99.837C120.563,99.693 120.419,99.477 120.275,99.405L119.771,99.189C119.483,99.045 119.268,98.901 119.124,98.684C118.979,98.468 118.835,98.324 118.619,98.181L118.547,98.109L118.476,98.109C118.332,98.252 118.188,98.396 118.188,98.612L118.188,98.973C118.188,99.333 118.259,99.621 118.332,99.909C118.547,100.485 118.763,101.061 118.979,101.636C118.979,101.925 119.051,102.213 119.051,102.501C119.051,102.933 118.979,103.365 118.835,103.797C118.763,104.157 118.619,104.516 118.403,104.949C118.332,105.093 118.115,105.236 117.971,105.381C117.827,105.453 117.684,105.453 117.54,105.309C117.323,104.949 117.035,104.66 116.892,104.3C116.531,103.869 116.171,103.365 115.956,102.933C115.812,102.573 115.739,102.285 115.667,101.925C115.739,101.709 115.739,101.42 115.739,101.205C115.739,100.557 115.667,99.909 115.595,99.333L114.803,98.181C114.731,98.181 114.659,98.109 114.587,98.109C114.587,98.109 114.516,98.109 114.443,98.181L114.443,98.252L114.372,98.468C114.372,97.605 114.372,98.396 114.372,99.189C114.228,100.485 113.939,101.348 113.58,102.141C113.436,102.645 113.075,103.005 112.644,103.221C112.5,103.221 112.427,103.221 112.283,103.149C111.996,102.861 111.779,102.573 111.491,102.285C111.419,102.069 111.419,101.925 111.347,101.781C111.275,101.492 111.204,101.276 111.131,100.989C111.06,100.629 110.916,100.269 110.771,99.909C110.699,99.909 110.627,99.837 110.555,99.837C110.483,99.837 110.412,99.909 110.339,99.909C110.268,100.053 110.195,100.125 110.195,100.197C110.124,100.557 109.979,100.917 109.907,101.348C109.835,101.42 109.763,101.492 109.619,101.492C109.332,101.492 108.971,101.348 108.827,101.061C108.54,100.917 108.396,100.629 108.323,100.341C108.251,100.197 108.179,99.981 108.107,99.837L107.819,99.333C107.819,99.333 107.748,99.261 107.675,99.261L107.604,99.261C107.531,99.261 107.459,99.333 107.387,99.333C107.387,99.405 107.315,99.477 107.315,99.621C107.243,99.837 107.243,99.981 107.243,100.197C107.243,100.557 107.315,100.917 107.387,101.205C107.675,103.077 108.755,104.805 110.268,105.957C110.699,106.245 111.131,106.461 111.563,106.749C112.355,107.109 113.075,107.54 113.724,108.045C114.011,108.333 114.299,108.621 114.516,109.053C114.947,109.629 115.379,110.205 115.812,110.781C116.531,111.573 117.035,112.221 117.611,112.941C118.115,113.877 118.619,115.101 118.835,116.397L118.835,116.541C118.835,116.685 118.835,116.757 118.979,116.829C119.195,117.837 119.339,118.845 119.339,119.925C119.412,120.141 119.412,120.357 119.412,120.645C119.412,122.013 119.124,123.381 118.691,124.677C118.259,125.973 117.396,127.125 116.243,127.845C115.091,128.637 113.724,129.141 112.355,129.285C111.852,129.357 111.419,129.357 110.987,129.214C110.771,129.069 110.699,128.854 110.771,128.71C110.771,128.493 110.771,128.349 110.843,128.277L111.131,127.197L111.635,125.901C111.708,125.829 111.708,125.757 111.708,125.685C111.708,125.613 111.708,125.541 111.635,125.469C111.563,125.397 111.419,125.325 111.347,125.325L111.275,125.325C111.06,125.469 110.916,125.541 110.771,125.757C110.412,126.117 110.051,126.549 109.763,126.981C109.619,127.269 109.403,127.557 109.188,127.845C108.971,128.205 108.755,128.565 108.396,128.854L107.748,129.214C107.027,129.214 106.308,129.357 105.516,129.429L104.795,129.429C104.58,129.357 104.436,129.141 104.363,128.925C104.147,128.061 104.003,127.197 104.003,126.261C104.003,126.045 104.003,125.829 104.075,125.613L104.292,125.037L104.507,124.245C104.651,123.885 104.724,123.525 104.724,123.165L104.724,122.517C104.651,122.085 104.58,121.653 104.651,121.221C104.651,120.933 104.724,120.645 104.795,120.357L104.939,119.925L104.939,119.781C104.939,119.709 104.867,119.637 104.795,119.637L104.651,119.637C104.436,119.781 104.292,119.925 104.219,120.069C103.788,120.429 103.571,120.933 103.355,121.437L103.139,122.229C103.067,122.301 102.996,122.444 102.923,122.661L102.491,123.669C102.419,123.885 102.275,124.101 102.06,124.317C101.916,124.389 101.771,124.389 101.699,124.245C101.268,123.957 101.051,123.453 100.835,122.949L100.691,122.444C100.619,122.229 100.476,121.941 100.332,121.725C100.115,121.509 99.971,121.149 99.899,120.789C99.755,120.573 99.755,120.285 99.683,119.997C99.539,119.709 99.467,119.421 99.323,119.133C99.251,119.061 99.251,119.061 99.107,119.061C99.107,119.061 99.035,119.061 98.963,119.133C98.891,119.205 98.819,119.205 98.819,119.349C98.747,119.493 98.675,119.709 98.675,119.853C98.603,120.069 98.531,120.213 98.531,120.501C98.531,120.933 98.459,121.437 98.459,121.941L98.459,122.013C98.459,122.229 98.315,122.373 98.099,122.373C97.739,122.373 97.379,122.301 97.091,122.085C96.803,121.869 96.587,121.653 96.371,121.293C96.299,121.221 96.227,121.221 96.155,121.149C96.155,121.077 96.083,121.077 96.083,121.077C96.011,121.077 95.939,121.149 95.939,121.149C95.867,121.221 95.867,121.293 95.795,121.365L95.795,121.797L95.939,122.373L96.011,122.661L96.227,123.093L96.587,123.525C97.019,124.028 97.595,124.389 98.171,124.677C98.675,125.037 99.179,125.469 99.683,125.829C100.115,126.261 100.547,126.693 100.835,127.269C101.124,127.629 101.268,128.061 101.412,128.493C101.483,128.781 101.483,128.997 101.483,129.285L101.483,129.574C101.483,129.861 101.339,130.221 101.051,130.365C100.907,130.509 100.691,130.438 100.547,130.365C100.259,130.005 99.827,129.789 99.395,129.501C98.747,129.214 98.027,128.925 97.235,128.781C96.659,128.637 95.939,128.493 95.291,128.421C94.571,128.349 93.923,127.845 93.491,127.269C93.059,126.549 92.771,125.757 92.627,124.893L92.483,124.101C92.483,123.813 92.411,123.669 92.339,123.381C92.339,123.309 92.267,123.236 92.123,123.236C92.051,123.236 91.979,123.309 91.907,123.381L91.835,123.669C91.691,123.957 91.691,124.245 91.619,124.605L91.619,126.117C91.619,126.045 91.619,126.117 91.619,126.117C91.619,126.333 91.547,126.549 91.475,126.765C91.331,126.909 91.115,126.909 91.115,126.765C90.899,126.405 90.683,125.973 90.611,125.613C90.467,125.109 90.251,124.605 90.107,124.101C90.035,123.885 89.963,123.597 89.891,123.381C89.819,122.877 89.747,122.373 89.819,121.869L89.819,121.797C89.819,121.725 89.747,121.653 89.675,121.581L89.531,121.581C89.531,121.581 89.459,121.653 89.387,121.653C89.171,121.797 89.027,122.013 88.955,122.229C88.883,122.373 88.811,122.589 88.739,122.733L88.739,123.165C88.667,123.236 88.667,123.236 88.595,123.309C88.523,123.309 88.523,123.381 88.451,123.309C88.379,123.309 88.307,123.236 88.235,123.165L88.091,122.949C88.091,122.877 88.019,122.805 87.947,122.805C87.875,122.805 87.803,122.805 87.803,122.877C87.731,122.949 87.659,123.021 87.659,123.093Z" style="fill:rgb(35,31,32);fill-rule:nonzero;"/>
        <path d="M87.659,123.093L87.587,123.236L87.587,123.525C87.587,123.957 87.731,124.461 87.947,124.893C88.163,125.253 88.307,125.613 88.451,125.901L88.451,126.477C88.451,126.621 88.379,126.765 88.307,126.837L88.091,126.837C87.731,126.765 87.443,126.477 87.227,126.189L87.083,125.901C87.011,125.541 86.939,125.181 86.795,124.749L86.651,124.749C86.579,124.749 86.507,124.749 86.435,124.82C86.147,125.109 85.931,125.469 85.859,125.829C85.859,126.045 85.787,126.333 85.787,126.477C85.787,126.621 85.787,126.837 85.859,126.909C86.003,127.557 86.363,128.133 86.723,128.637C86.867,128.854 87.011,128.997 87.011,129.214L87.011,129.357C87.011,129.501 87.011,129.645 86.939,129.717C86.579,130.005 86.147,130.149 85.715,130.149L84.923,130.149C84.779,130.221 84.779,130.365 84.779,130.438C84.779,130.798 84.995,131.085 85.211,131.301C85.643,131.661 86.147,131.877 86.651,132.021C87.083,132.165 87.515,132.236 87.875,132.236L89.027,132.236C89.963,132.093 90.683,132.021 91.403,131.877C92.123,131.805 92.915,131.661 93.707,131.661C94.643,131.661 95.579,131.733 96.515,131.949L97.667,132.309L98.099,132.597L98.243,132.813C98.459,132.957 98.603,133.245 98.603,133.533C98.603,133.749 98.459,133.893 98.243,133.965L97.595,133.965L96.227,134.397C96.083,134.469 95.939,134.469 95.795,134.397C95.219,134.253 94.715,134.181 94.139,134.181C93.923,134.181 93.635,134.181 93.419,134.253C92.627,134.325 91.979,134.613 91.331,135.117C90.683,135.045 90.035,135.045 89.387,135.045C87.443,135.045 85.427,135.189 83.483,135.549L82.979,135.549C82.691,135.477 82.403,135.477 82.115,135.477C81.827,135.477 81.539,135.477 81.251,135.549C80.747,135.693 80.315,135.981 79.883,136.341C79.379,136.773 79.091,137.349 79.019,137.997L79.019,138.501C79.019,138.789 79.019,139.077 79.091,139.437C79.163,139.797 79.307,140.157 79.451,140.517L80.243,141.957C80.315,142.101 80.459,142.173 80.603,142.317L81.323,142.533C81.251,142.677 81.179,142.893 81.179,143.037C81.179,143.109 81.251,143.253 81.323,143.397C81.539,143.901 81.971,144.189 82.475,144.333C82.907,144.477 83.411,144.549 83.843,144.549C84.131,144.549 84.491,144.549 84.779,144.477L85.787,144.261C86.075,144.189 86.363,144.333 86.579,144.549C87.515,145.197 88.595,145.701 89.747,146.061C90.971,146.349 92.195,146.637 93.491,146.781C94.067,146.853 94.643,146.997 95.147,147.285C95.579,147.501 95.939,147.861 96.155,148.293C96.515,148.797 96.875,149.229 97.235,149.661L97.955,150.165L98.315,150.525L98.747,150.813L99.395,151.533C99.395,151.605 99.395,151.677 99.467,151.749C99.683,152.397 99.971,153.045 100.332,153.693C100.332,153.837 100.403,153.981 100.547,154.125L101.051,154.845L101.195,154.845C101.268,155.061 101.483,155.205 101.771,155.277L102.563,156.285L102.779,156.573L102.852,156.573L103.715,157.149C104.075,157.725 104.651,158.157 105.299,158.444L105.587,158.517C105.659,158.589 105.731,158.589 105.803,158.589L106.164,158.949L107.171,159.597C107.459,159.597 107.748,159.741 107.963,159.885C108.323,160.101 108.684,160.173 109.115,160.173C109.259,160.173 109.332,160.245 109.403,160.389C109.907,160.461 110.339,160.605 110.843,160.677C111.06,160.677 111.275,160.605 111.419,160.461C111.491,160.461 111.563,160.461 111.563,160.533C111.708,160.461 111.779,160.533 111.923,160.605C112.067,160.533 112.211,160.461 112.355,160.389L112.427,160.389C112.5,160.389 112.644,160.389 112.715,160.317C112.788,160.245 112.931,160.173 113.075,160.245C113.292,160.101 113.507,160.173 113.651,160.389C114.587,161.181 115.595,161.901 116.675,162.405C116.387,163.773 116.171,165.213 116.027,166.581C115.812,168.236 115.379,169.821 114.803,171.333C114.155,172.773 113.58,174.285 113.219,175.797C113.147,176.301 113.147,176.805 113.147,177.309L113.147,177.885C112.715,179.973 111.779,181.917 110.412,183.573C109.763,184.365 109.188,185.229 108.684,186.093C108.54,186.165 108.467,186.236 108.396,186.309L107.243,186.813L106.812,187.028L106.235,187.389C105.875,187.389 105.516,187.461 105.228,187.533C104.795,187.605 104.507,187.821 104.292,188.109C104.147,188.325 104.003,188.469 103.931,188.757L103.931,189.261L102.275,191.349C102.204,191.421 102.131,191.493 102.131,191.565C102.131,191.709 102.275,191.853 102.419,191.853L109.835,191.925C110.268,191.637 110.555,191.277 110.771,190.773C110.771,190.485 110.916,190.197 110.987,189.909L111.204,189.909C111.275,190.125 111.347,190.341 111.419,190.557L111.635,190.845L111.923,190.845L113.003,189.549C113.651,188.685 114.011,187.677 114.228,186.669C114.443,185.229 114.803,183.933 115.164,182.709C115.451,181.773 115.812,180.837 116.171,179.973L116.531,179.181C116.675,178.893 116.892,178.605 117.107,178.317C117.54,177.957 117.755,177.525 118.043,177.021C118.476,175.797 118.763,175.077 119.051,174.285L121.067,170.253C121.788,169.101 122.436,167.949 123.011,166.869C123.516,165.645 124.02,164.421 124.595,163.341L125.963,163.269C126.396,164.781 126.899,166.293 127.476,167.733C127.979,169.028 128.339,170.469 128.483,171.837C128.627,173.133 128.771,174.429 129.131,175.653C129.491,176.373 130.067,176.949 130.715,177.309L131.363,177.669C131.867,178.173 132.372,178.677 132.803,179.181C133.812,180.477 134.604,181.845 135.251,183.285C135.467,183.861 135.827,184.437 136.188,184.941C137.051,185.805 137.987,186.669 138.852,187.461C139.283,188.037 139.788,188.469 140.363,188.757C140.507,188.829 140.651,188.901 140.867,188.901C140.939,188.901 141.083,188.901 141.155,188.829L143.243,190.125C143.387,190.269 143.459,190.341 143.604,190.341C143.819,190.341 144.035,190.125 144.035,189.837C144.035,187.677 143.819,185.517 143.459,183.285C143.171,182.709 142.595,182.421 141.947,182.421L141.875,182.421L141.011,182.637L140.795,182.637L140.795,182.565C141.011,182.421 141.155,182.205 141.299,182.061L141.299,181.989C141.299,181.845 141.228,181.701 141.155,181.629C140.867,181.341 140.436,181.197 140.075,181.197C139.788,180.765 139.355,180.477 138.852,180.333C138.347,180.117 137.843,179.757 137.483,179.397L136.403,178.317C136.043,177.885 135.684,177.453 135.323,176.949C135.323,176.805 135.251,176.733 135.107,176.661C134.963,176.444 134.819,176.157 134.604,175.941C134.531,175.005 134.315,174.069 134.1,173.205C133.812,172.197 133.667,171.189 133.667,170.181L133.595,168.309C133.667,167.517 133.667,166.869 133.667,166.221C133.667,164.853 133.595,163.485 133.523,162.189C134.604,161.829 135.755,161.685 136.907,161.757C137.987,161.757 138.996,161.829 140.003,161.829C141.659,161.829 143.387,161.757 145.044,161.685C145.619,161.685 146.268,161.541 146.916,161.397L147.204,161.397C147.419,161.541 147.563,161.613 147.852,161.613C147.997,161.613 148.211,161.541 148.427,161.397L152.315,159.525C152.387,159.453 152.459,159.525 152.532,159.597C152.748,160.893 153.035,162.261 153.107,163.557C153.323,164.925 153.684,166.293 154.332,167.517C154.835,168.741 155.268,169.965 155.628,171.189C155.699,171.477 155.771,171.837 155.843,172.197L155.843,172.773C155.843,173.925 155.916,175.077 156.06,176.229C156.06,176.373 156.131,176.517 156.131,176.589C156.131,176.805 156.06,177.093 155.916,177.236C154.979,179.973 153.54,182.493 151.667,184.725C150.875,185.733 149.867,186.597 148.788,187.245C148.283,187.317 147.779,187.461 147.347,187.677C146.843,187.893 146.484,188.397 146.484,188.973L144.54,191.277C144.467,191.349 144.396,191.421 144.396,191.565C144.396,191.709 144.467,191.853 144.54,191.853L151.667,191.853C152.459,191.781 153.035,191.133 153.035,190.413L153.035,190.269C153.107,190.125 153.251,189.909 153.396,189.837L153.54,189.837C153.611,189.909 153.611,190.053 153.611,190.125C153.684,190.341 153.827,190.413 154.044,190.413C154.332,190.413 154.547,190.269 154.691,189.981C154.763,189.837 154.907,189.549 154.979,189.333C155.411,188.757 155.771,188.109 155.987,187.389L157.068,184.725C157.644,183.213 158.363,181.917 159.155,180.621C159.443,179.973 159.803,179.397 160.235,178.749C160.739,177.957 161.171,177.165 161.532,176.229C161.819,175.581 162.179,175.077 162.684,174.573C162.827,174.357 162.899,174.069 162.899,173.781C162.899,173.637 162.899,173.565 162.827,173.421L161.892,170.181C161.819,169.821 161.748,169.245 161.604,168.597C161.459,167.661 161.315,166.725 161.1,165.789C160.812,164.349 160.883,162.909 161.171,161.469C161.243,160.965 161.532,160.461 161.819,160.028C162.54,160.605 163.188,161.181 163.763,161.829C164.268,162.405 164.699,162.909 165.131,163.413C165.708,163.917 166.211,164.421 166.715,164.925C168.516,166.509 170.459,167.949 172.476,169.245C173.484,170.469 174.779,171.621 176.075,172.701C176.363,172.917 176.581,173.277 176.795,173.637C177.155,174.213 177.443,174.861 177.587,175.509L178.667,178.605L179.315,180.765L179.604,182.493C179.892,183.717 180.467,184.869 181.259,185.877L181.979,186.813L182.843,188.397C183.06,188.757 183.347,189.045 183.708,189.189L183.852,189.189C183.997,189.189 184.14,189.189 184.211,189.117C184.571,189.333 184.932,189.549 185.219,189.837C185.581,189.981 185.795,190.197 186.083,190.413C186.228,190.557 186.372,190.701 186.587,190.773L186.659,190.773C186.803,190.773 186.947,190.701 187.021,190.629L187.164,189.477L187.235,188.109C187.235,187.605 187.308,187.028 187.308,186.453C187.308,186.021 187.235,185.589 187.235,185.229C187.235,184.725 187.164,184.293 186.947,183.861C186.659,183.429 186.228,183.213 185.724,183.141C185.436,183.141 185.147,183.069 184.932,182.997C184.859,182.925 184.859,182.853 184.932,182.781L185.147,182.781C185.219,182.853 185.363,182.853 185.436,182.853L185.651,182.853C185.724,182.853 185.795,182.853 185.795,182.781C185.867,182.709 185.867,182.709 185.867,182.637C185.867,182.565 185.867,182.493 185.795,182.421C185.724,182.205 185.651,182.061 185.508,181.917C185.436,181.485 185.219,181.125 185.003,180.837C184.715,180.405 184.355,180.045 183.997,179.685L183.419,179.181C183.204,178.893 183.06,178.605 182.916,178.245L181.188,173.565L180.971,172.773L180.54,171.261L180.54,170.973C180.107,170.109 179.819,169.245 179.459,168.381C179.459,167.949 179.387,167.661 179.315,167.301C179.315,166.941 179.171,166.581 178.956,166.293C178.667,166.005 178.379,165.789 178.021,165.645L177.443,165.285L176.795,164.853L176.724,164.781L175.715,164.061C175.211,163.629 174.635,163.197 174.06,162.765C173.195,161.901 172.403,160.893 171.827,159.741C171.467,159.021 171.251,158.157 171.251,157.293L171.684,154.845C172.619,151.101 173.339,147.501 173.916,143.901L173.916,143.397C173.916,142.82 173.843,142.245 173.628,141.741C173.484,141.309 173.268,140.949 173.051,140.589C173.195,140.373 173.411,140.157 173.557,139.941C173.771,139.653 173.987,139.365 174.131,139.005C174.563,138.213 174.779,137.349 174.779,136.413C174.852,136.053 174.997,135.765 175.211,135.477L175.211,135.405C175.211,135.045 175.068,134.685 174.779,134.469C174.635,134.397 174.419,134.253 174.204,134.181C173.987,134.109 173.699,134.037 173.484,134.037C173.268,134.037 173.051,134.037 172.907,134.109C171.611,134.613 170.459,135.405 169.523,136.413C168.299,135.693 166.932,135.261 165.635,135.045C163.044,134.685 160.379,134.469 157.788,134.469C156.635,134.469 155.557,134.541 154.403,134.613L152.1,134.901L148.715,134.901C142.812,134.901 136.835,135.261 130.931,136.125L130.139,136.125C129.852,135.981 129.563,135.765 129.274,135.549C128.843,135.261 128.412,135.045 127.907,134.973L127.619,134.829L126.611,134.613C125.819,134.541 125.1,134.469 124.308,134.469C122.651,134.469 121.067,134.613 119.555,134.901C118.403,135.189 117.396,135.549 116.387,135.981C115.523,136.269 114.587,136.485 113.724,136.485C112.427,136.701 110.987,136.845 109.619,136.773C107.315,136.917 105.011,136.629 102.779,135.981L102.491,135.621C102.852,134.829 103.571,134.109 104.436,133.82L106.523,133.317C107.387,133.389 108.179,133.389 108.971,133.389L110.483,133.389C111.563,133.389 112.644,133.317 113.651,133.101C115.164,132.813 116.675,132.381 118.115,131.805C118.547,131.733 119.051,131.733 119.555,131.877C119.987,132.021 120.419,132.165 120.852,132.236L121.644,132.381L122.795,132.381C123.228,132.309 123.659,132.236 124.164,132.021C124.523,131.877 124.883,131.661 125.171,131.373L125.171,131.229C125.171,131.158 125.171,131.085 125.027,131.013C124.739,130.869 124.451,130.869 124.164,130.869C123.659,130.798 123.155,130.725 122.651,130.581C122.003,130.365 121.355,130.005 120.852,129.501C120.779,129.357 120.852,129.214 120.923,129.141C121.931,127.773 122.651,126.261 123.083,124.605C123.443,123.093 123.587,121.581 123.587,119.997C123.587,119.277 123.587,118.485 123.516,117.765C123.228,116.469 122.939,115.173 122.651,113.877C122.507,113.301 122.651,112.869 122.939,112.581C123.443,112.077 123.947,111.573 124.523,111.069C124.739,110.637 125.1,110.205 125.387,109.773C125.604,109.413 125.819,108.981 125.892,108.549C125.892,108.549 125.963,108.477 125.963,108.404C125.963,108.333 125.892,108.189 125.819,108.117L125.675,108.117C125.604,108.117 125.459,108.117 125.387,108.189C125.171,108.333 124.883,108.549 124.667,108.765C124.379,108.981 123.947,109.341 123.443,109.773L122.219,110.493C122.075,110.493 121.859,110.493 121.715,110.421C121.571,110.133 121.427,109.845 121.355,109.557C121.211,109.125 121.139,108.765 121.067,108.333C120.923,107.757 120.923,107.252 120.852,106.82C120.923,106.533 120.996,106.317 121.067,106.028L121.5,105.453L122.507,104.372L123.228,103.509C123.587,103.221 123.875,102.861 124.164,102.429C124.451,101.925 124.595,101.348 124.595,100.773C124.595,100.557 124.595,100.413 124.523,100.269L124.523,100.197C124.523,99.837 124.451,99.477 124.308,99.117C124.308,98.973 124.164,98.829 124.091,98.757L123.947,98.757C123.803,98.757 123.731,98.829 123.659,98.901C123.516,99.189 123.443,99.477 123.372,99.765C123.372,99.981 123.299,100.269 123.155,100.485C123.011,100.989 122.58,101.348 122.147,101.564C122.003,101.636 121.859,101.709 121.644,101.781L121.5,101.781C121.355,101.781 121.283,101.709 121.211,101.564L120.923,100.917L120.563,99.837C120.563,99.693 120.419,99.477 120.275,99.405L119.771,99.189C119.483,99.045 119.268,98.901 119.124,98.684C118.979,98.468 118.835,98.324 118.619,98.181L118.547,98.109L118.476,98.109C118.332,98.252 118.188,98.396 118.188,98.612L118.188,98.973C118.188,99.333 118.259,99.621 118.332,99.909C118.547,100.485 118.763,101.061 118.979,101.636C118.979,101.925 119.051,102.213 119.051,102.501C119.051,102.933 118.979,103.365 118.835,103.797C118.763,104.157 118.619,104.516 118.403,104.949C118.332,105.093 118.115,105.236 117.971,105.381C117.827,105.453 117.684,105.453 117.54,105.309C117.323,104.949 117.035,104.66 116.892,104.3C116.531,103.869 116.171,103.365 115.956,102.933C115.812,102.573 115.739,102.285 115.667,101.925C115.739,101.709 115.739,101.42 115.739,101.205C115.739,100.557 115.667,99.909 115.595,99.333L114.803,98.181C114.731,98.181 114.659,98.109 114.587,98.109C114.587,98.109 114.516,98.109 114.443,98.181L114.443,98.252L114.372,98.468C114.372,97.605 114.372,98.396 114.372,99.189C114.228,100.485 113.939,101.348 113.58,102.141C113.436,102.645 113.075,103.005 112.644,103.221C112.5,103.221 112.427,103.221 112.283,103.149C111.996,102.861 111.779,102.573 111.491,102.285C111.419,102.069 111.419,101.925 111.347,101.781C111.275,101.492 111.204,101.276 111.131,100.989C111.06,100.629 110.916,100.269 110.771,99.909C110.699,99.909 110.627,99.837 110.555,99.837C110.483,99.837 110.412,99.909 110.339,99.909C110.268,100.053 110.195,100.125 110.195,100.197C110.124,100.557 109.979,100.917 109.907,101.348C109.835,101.42 109.763,101.492 109.619,101.492C109.332,101.492 108.971,101.348 108.827,101.061C108.54,100.917 108.396,100.629 108.323,100.341C108.251,100.197 108.179,99.981 108.107,99.837L107.819,99.333C107.819,99.333 107.748,99.261 107.675,99.261L107.604,99.261C107.531,99.261 107.459,99.333 107.387,99.333C107.387,99.405 107.315,99.477 107.315,99.621C107.243,99.837 107.243,99.981 107.243,100.197C107.243,100.557 107.315,100.917 107.387,101.205C107.675,103.077 108.755,104.805 110.268,105.957C110.699,106.245 111.131,106.461 111.563,106.749C112.355,107.109 113.075,107.54 113.724,108.045C114.011,108.333 114.299,108.621 114.516,109.053C114.947,109.629 115.379,110.205 115.812,110.781C116.531,111.573 117.035,112.221 117.611,112.941C118.115,113.877 118.619,115.101 118.835,116.397L118.835,116.541C118.835,116.685 118.835,116.757 118.979,116.829C119.195,117.837 119.339,118.845 119.339,119.925C119.412,120.141 119.412,120.357 119.412,120.645C119.412,122.013 119.124,123.381 118.691,124.677C118.259,125.973 117.396,127.125 116.243,127.845C115.091,128.637 113.724,129.141 112.355,129.285C111.852,129.357 111.419,129.357 110.987,129.214C110.771,129.069 110.699,128.854 110.771,128.71C110.771,128.493 110.771,128.349 110.843,128.277L111.131,127.197L111.635,125.901C111.708,125.829 111.708,125.757 111.708,125.685C111.708,125.613 111.708,125.541 111.635,125.469C111.563,125.397 111.419,125.325 111.347,125.325L111.275,125.325C111.06,125.469 110.916,125.541 110.771,125.757C110.412,126.117 110.051,126.549 109.763,126.981C109.619,127.269 109.403,127.557 109.188,127.845C108.971,128.205 108.755,128.565 108.396,128.854L107.748,129.214C107.027,129.214 106.308,129.357 105.516,129.429L104.795,129.429C104.58,129.357 104.436,129.141 104.363,128.925C104.147,128.061 104.003,127.197 104.003,126.261C104.003,126.045 104.003,125.829 104.075,125.613L104.292,125.037L104.507,124.245C104.651,123.885 104.724,123.525 104.724,123.165L104.724,122.517C104.651,122.085 104.58,121.653 104.651,121.221C104.651,120.933 104.724,120.645 104.795,120.357L104.939,119.925L104.939,119.781C104.939,119.709 104.867,119.637 104.795,119.637L104.651,119.637C104.436,119.781 104.292,119.925 104.219,120.069C103.788,120.429 103.571,120.933 103.355,121.437L103.139,122.229C103.067,122.301 102.996,122.444 102.923,122.661L102.491,123.669C102.419,123.885 102.275,124.101 102.06,124.317C101.916,124.389 101.771,124.389 101.699,124.245C101.268,123.957 101.051,123.453 100.835,122.949L100.691,122.444C100.619,122.229 100.476,121.941 100.332,121.725C100.115,121.509 99.971,121.149 99.899,120.789C99.755,120.573 99.755,120.285 99.683,119.997C99.539,119.709 99.467,119.421 99.323,119.133C99.251,119.061 99.251,119.061 99.107,119.061C99.107,119.061 99.035,119.061 98.963,119.133C98.891,119.205 98.819,119.205 98.819,119.349C98.747,119.493 98.675,119.709 98.675,119.853C98.603,120.069 98.531,120.213 98.531,120.501C98.531,120.933 98.459,121.437 98.459,121.941L98.459,122.013C98.459,122.229 98.315,122.373 98.099,122.373C97.739,122.373 97.379,122.301 97.091,122.085C96.803,121.869 96.587,121.653 96.371,121.293C96.299,121.221 96.227,121.221 96.155,121.149C96.155,121.077 96.083,121.077 96.083,121.077C96.011,121.077 95.939,121.149 95.939,121.149C95.867,121.221 95.867,121.293 95.795,121.365L95.795,121.797L95.939,122.373L96.011,122.661L96.227,123.093L96.587,123.525C97.019,124.028 97.595,124.389 98.171,124.677C98.675,125.037 99.179,125.469 99.683,125.829C100.115,126.261 100.547,126.693 100.835,127.269C101.124,127.629 101.268,128.061 101.412,128.493C101.483,128.781 101.483,128.997 101.483,129.285L101.483,129.574C101.483,129.861 101.339,130.221 101.051,130.365C100.907,130.509 100.691,130.438 100.547,130.365C100.259,130.005 99.827,129.789 99.395,129.501C98.747,129.214 98.027,128.925 97.235,128.781C96.659,128.637 95.939,128.493 95.291,128.421C94.571,128.349 93.923,127.845 93.491,127.269C93.059,126.549 92.771,125.757 92.627,124.893L92.483,124.101C92.483,123.813 92.411,123.669 92.339,123.381C92.339,123.309 92.267,123.236 92.123,123.236C92.051,123.236 91.979,123.309 91.907,123.381L91.835,123.669C91.691,123.957 91.691,124.245 91.619,124.605L91.619,126.117C91.619,126.045 91.619,126.117 91.619,126.117C91.619,126.333 91.547,126.549 91.475,126.765C91.331,126.909 91.115,126.909 91.115,126.765C90.899,126.405 90.683,125.973 90.611,125.613C90.467,125.109 90.251,124.605 90.107,124.101C90.035,123.885 89.963,123.597 89.891,123.381C89.819,122.877 89.747,122.373 89.819,121.869L89.819,121.797C89.819,121.725 89.747,121.653 89.675,121.581L89.531,121.581C89.531,121.581 89.459,121.653 89.387,121.653C89.171,121.797 89.027,122.013 88.955,122.229C88.883,122.373 88.811,122.589 88.739,122.733L88.739,123.165C88.667,123.236 88.667,123.236 88.595,123.309C88.523,123.309 88.523,123.381 88.451,123.309C88.379,123.309 88.307,123.236 88.235,123.165L88.091,122.949C88.091,122.877 88.019,122.805 87.947,122.805C87.875,122.805 87.803,122.805 87.803,122.877C87.731,122.949 87.659,123.021 87.659,123.093Z" style="fill:none;stroke:rgb(35,31,32);stroke-width:0.22px;"/>
    </g>
</svg>
