<?xml version="1.0" encoding="UTF-8" standalone="no"?>
<!DOCTYPE svg PUBLIC "-//W3C//DTD SVG 1.1//EN" "http://www.w3.org/Graphics/SVG/1.1/DTD/svg11.dtd">
<svg width="100%" height="100%" viewBox="0 0 256 224" version="1.1" xmlns="http://www.w3.org/2000/svg" xmlns:xlink="http://www.w3.org/1999/xlink" xml:space="preserve" xmlns:serif="http://www.serif.com/" style="fill-rule:evenodd;clip-rule:evenodd;stroke-miterlimit:2;">
    <g>
        <path d="M119.916,5.085L1.331,210.5C0.539,211.868 0.107,213.38 0.107,214.964C0.107,219.86 4.139,223.892 9.035,223.892L246.275,223.892C251.172,223.892 255.203,219.86 255.203,214.964C255.203,213.38 254.771,211.868 253.979,210.5L135.396,5.085C133.812,2.277 130.858,0.621 127.691,0.621C124.451,0.621 121.5,2.277 119.916,5.085Z" style="fill:rgb(211,63,39);fill-rule:nonzero;"/>
        <path d="M119.916,5.085L1.331,210.5C0.539,211.868 0.107,213.38 0.107,214.964C0.107,219.86 4.139,223.892 9.035,223.892L246.275,223.892C251.172,223.892 255.203,219.86 255.203,214.964C255.203,213.38 254.771,211.868 253.979,210.5L135.396,5.085C133.812,2.277 130.858,0.621 127.691,0.621C124.451,0.621 121.5,2.277 119.916,5.085Z" style="fill:none;stroke:rgb(211,63,39);stroke-width:0.22px;"/>
        <path d="M39.996,197.108L215.315,197.108L127.691,45.261L39.996,197.108Z" style="fill:white;fill-rule:nonzero;"/>
        <path d="M39.996,197.108L215.315,197.108L127.691,45.261L39.996,197.108Z" style="fill:none;stroke:white;stroke-width:0.22px;"/>
        <path d="M156.491,181.412C155.987,182.133 155.411,182.996 154.835,183.788C154.476,184.292 154.044,184.796 153.755,185.372C153.251,186.164 152.892,187.1 152.676,188.036C152.532,188.54 152.387,188.9 152.027,189.261C151.956,189.405 151.883,189.549 151.883,189.62C151.812,189.692 151.739,189.764 151.739,189.909L151.812,189.909C151.812,190.124 151.739,190.268 151.667,190.412C151.667,190.484 151.451,190.484 151.379,190.412C151.235,190.268 151.165,190.197 151.092,190.053C151.021,189.909 150.875,189.692 150.803,189.549C150.731,189.476 150.659,189.405 150.516,189.405C150.516,189.332 150.516,189.332 150.443,189.332C150.299,189.332 150.228,189.405 150.228,189.549L150.228,189.98C150.299,190.124 150.372,190.197 150.443,190.341C150.516,190.341 150.516,190.484 150.516,190.556L150.516,190.772C150.372,191.133 150.083,191.492 149.795,191.781C149.652,191.852 149.581,191.996 149.436,191.996L145.476,191.996L142.092,191.925C141.947,191.852 141.875,191.708 141.947,191.564C142.308,191.133 142.667,190.701 143.027,190.268C143.315,189.909 143.676,189.549 144.035,189.261C144.107,189.117 144.251,189.044 144.323,188.972C144.467,188.828 144.54,188.613 144.611,188.54C144.611,188.252 144.755,188.108 144.899,188.036C145.188,187.748 145.547,187.533 145.907,187.388C145.979,187.388 146.124,187.388 146.195,187.316C146.484,187.1 146.7,186.885 146.916,186.596C147.06,186.524 147.06,186.38 147.131,186.308C147.204,185.949 147.419,185.66 147.708,185.372C147.923,185.084 148.283,184.796 148.644,184.58C149.075,184.292 149.436,183.932 149.795,183.5C150.516,182.564 151.235,181.628 151.883,180.692C152.315,180.188 152.604,179.54 152.963,179.036C153.251,178.677 153.467,178.172 153.755,177.812C154.044,177.164 154.259,176.516 154.259,175.868C154.259,174.573 154.332,173.42 154.403,172.412C154.403,172.124 154.259,171.764 154.044,171.405C153.684,170.613 153.179,169.748 152.676,168.812C152.171,168.02 151.812,167.228 151.595,166.365C151.523,166.004 151.379,165.644 151.235,165.212C151.092,164.492 151.021,163.916 150.875,163.341C150.659,162.188 150.299,161.108 149.795,160.028C149.581,159.38 149.436,158.805 149.436,158.084L149.436,157.292C148.859,157.436 148.211,157.652 147.708,157.94C147.131,158.228 146.557,158.444 145.979,158.588C145.259,158.876 144.611,159.02 143.819,159.164L143.171,159.164C142.595,159.236 142.021,159.236 141.443,159.236L141.299,159.236C140.651,159.236 140.003,159.236 139.355,159.308C138.996,159.308 138.491,159.308 138.06,159.38L136.835,159.38C136.619,160.533 136.476,161.684 136.476,162.836C136.259,163.701 136.188,164.492 136.115,165.284C136.043,165.717 135.971,166.509 135.899,167.301C135.827,168.38 135.755,169.172 135.755,169.964C135.755,170.325 135.755,170.756 135.827,171.117C135.899,171.909 135.899,172.701 136.043,173.42C136.188,174.212 136.259,174.86 136.259,175.58L136.259,175.724C136.259,176.084 136.259,176.444 136.043,176.805C135.899,177.164 135.827,177.524 135.827,177.885L135.827,178.172C135.899,178.821 135.971,179.469 136.043,180.044C136.115,180.764 136.259,181.484 136.403,182.276C136.619,183.212 136.835,184.148 137.124,185.084C137.339,185.876 137.555,186.596 137.699,187.388C137.771,187.604 137.771,187.892 137.771,188.108L137.771,188.54C137.627,188.756 137.555,189.117 137.555,189.405C137.555,189.62 137.412,189.764 137.195,189.764C137.195,189.764 137.124,189.764 137.051,189.692C136.835,189.476 136.619,189.261 136.332,189.044C136.259,188.9 136.259,188.9 136.115,188.9C136.043,188.9 135.899,188.9 135.899,189.044C135.827,189.117 135.755,189.261 135.755,189.405C135.755,189.405 135.755,189.549 135.827,189.549C135.899,189.836 135.971,190.053 136.043,190.341L136.043,190.484C136.043,191.276 135.467,191.925 134.604,191.996L128.268,191.996C128.123,191.996 128.05,191.852 128.05,191.708C128.05,191.637 128.05,191.564 128.123,191.564C128.627,190.772 129.274,189.98 129.996,189.405C130.139,188.756 130.644,188.108 131.292,188.036C131.58,187.677 131.795,187.388 132.083,187.028C132.155,186.885 132.155,186.812 132.155,186.741L132.155,186.596C132.155,186.093 132.299,185.588 132.516,185.157C132.587,184.796 132.731,184.436 132.803,184.004C132.803,183.86 132.875,183.644 132.875,183.5C132.875,183.429 132.803,183.284 132.803,183.14C132.803,181.989 132.659,180.692 132.372,179.54C132.228,178.533 131.867,177.524 131.292,176.66C130.931,175.58 130.787,174.429 131.003,173.276L131.003,172.916C131.003,171.909 130.787,170.828 130.5,169.821C130.354,169.1 130.139,168.38 129.923,167.588C129.707,167.157 129.634,166.652 129.563,166.148C129.203,164.996 128.843,163.845 128.627,162.692C128.627,162.261 128.483,161.9 128.483,161.54C128.412,161.613 128.268,161.684 128.195,161.684C127.619,161.9 127.115,162.188 126.611,162.549C126.035,162.909 125.531,163.268 125.027,163.628C124.379,164.133 123.659,164.564 122.939,164.996C122.58,165.14 121.211,165.788 119.916,166.509C117.899,167.588 117.107,168.02 116.459,168.596C116.1,168.812 115.883,169.1 115.667,169.388C115.667,169.46 115.595,169.604 115.451,169.748C115.02,170.325 114.587,170.9 114.228,171.549C113.651,172.341 113.219,173.276 113.075,174.212C113.003,175.076 112.715,175.94 112.571,176.805C112.5,177.164 112.427,177.596 112.427,177.956C112.427,178.388 112.5,178.821 112.571,179.18C112.715,179.828 112.859,180.476 112.859,181.197C112.859,181.341 112.859,181.556 113.003,181.628C113.003,181.772 113.075,181.845 113.075,181.916C113.075,181.989 113.075,181.989 113.003,182.06C112.931,182.204 112.715,182.276 112.644,182.276C112.5,182.204 112.211,182.133 111.996,182.133L111.996,182.06C111.779,182.06 111.635,182.276 111.635,182.42L111.635,182.564C111.708,182.708 111.852,182.781 111.996,182.781C112.283,182.781 112.571,182.852 112.788,182.925C113.436,183.068 113.867,183.644 113.867,184.292C113.867,184.58 113.795,184.796 113.724,185.013C112.859,186.885 111.852,188.756 110.699,190.628C110.627,190.772 110.483,190.772 110.339,190.701L109.115,187.46C109.043,187.388 108.971,187.244 108.899,187.172C108.755,186.956 108.611,186.741 108.54,186.524L108.54,185.876C108.54,185.301 108.396,184.652 108.179,184.076C108.251,184.292 108.035,183.932 107.892,183.5C107.531,182.492 107.531,182.133 107.531,181.845C107.531,181.484 107.604,181.124 107.675,180.692C107.748,180.405 107.819,180.117 107.892,179.828C108.179,179.325 108.396,178.821 108.611,178.388C108.684,178.316 108.755,178.172 108.755,177.956C108.827,177.741 108.899,177.452 108.971,177.164C109.043,176.732 109.188,176.301 109.332,175.868C109.403,175.652 109.403,175.436 109.403,175.221C109.476,175.076 109.547,174.86 109.619,174.573C109.691,174.212 109.763,173.781 109.835,173.42L109.835,173.133C109.907,172.989 109.907,172.916 109.907,172.772C109.979,172.556 109.979,172.197 109.979,171.909L109.979,171.692C109.979,171.261 109.907,170.9 109.835,170.469L109.835,169.821C109.835,169.46 109.835,169.1 109.979,168.741C110.124,168.308 110.268,167.876 110.412,167.444C110.627,167.013 110.771,166.652 110.987,166.292C111.06,166.148 111.204,166.004 111.347,165.86C111.491,165.717 111.635,165.644 111.779,165.644C111.923,165.5 112.067,165.356 112.139,165.356C112.859,164.852 113.436,164.276 114.011,163.772C114.803,163.124 115.451,162.405 116.1,161.756C116.531,161.252 116.892,160.748 117.251,160.244C117.467,160.028 117.611,159.812 117.827,159.596C118.188,159.164 118.547,158.805 119.051,158.444C119.339,158.228 119.627,158.013 119.916,157.796L120.06,157.652C119.412,157.365 118.835,156.932 118.403,156.429C118.115,156.068 117.755,155.708 117.467,155.348C117.107,154.916 116.748,154.484 116.459,153.98C116.315,153.692 116.171,153.476 115.956,153.261C115.812,153.117 115.739,152.828 115.667,152.684C115.523,152.396 115.379,152.18 115.235,151.964C115.091,151.748 114.947,151.533 114.875,151.316C114.803,151.316 114.803,151.316 114.803,151.244C114.443,150.956 114.228,150.524 114.155,150.093C114.011,149.66 113.867,149.084 113.651,148.58C113.58,148.292 113.507,147.932 113.363,147.644C113.147,146.781 112.931,146.42 112.644,146.06C112.5,145.916 112.283,145.845 112.139,145.701C111.852,145.628 111.635,145.556 111.491,145.484C111.347,145.341 111.275,145.268 111.204,145.268C110.771,144.909 110.339,144.549 109.763,144.332C108.899,143.9 108.035,143.469 107.1,143.108C106.595,142.964 106.235,142.82 105.803,142.748C105.587,142.604 105.228,142.533 104.867,142.46C104.436,142.316 104.292,142.244 104.219,142.244C104.075,142.244 103.859,142.316 103.715,142.46C103.644,142.533 103.571,142.604 103.571,142.604C103.283,142.748 102.996,142.964 102.923,143.252L102.779,143.252C102.635,143.036 102.419,142.82 102.275,142.677C102.275,142.604 102.131,142.533 101.987,142.533L101.916,142.604C101.771,142.604 101.771,142.748 101.771,142.82L101.771,143.613C101.771,143.613 101.699,143.684 101.627,143.756L101.555,143.756L101.483,143.828L101.412,143.828C101.339,143.828 101.339,143.828 101.268,143.9C101.124,143.9 100.979,143.9 100.907,143.972C100.691,143.972 100.476,144.117 100.332,144.261L100.188,144.261C100.115,144.405 100.115,144.405 100.043,144.476C99.971,144.549 99.971,144.62 99.971,144.764L99.971,144.836C99.971,144.98 100.043,145.124 100.043,145.268L99.971,145.341C99.971,145.341 99.971,145.412 99.899,145.341C99.755,145.197 99.539,145.053 99.395,144.909C99.251,144.836 99.107,144.764 98.963,144.764C98.963,144.764 98.891,144.764 98.891,144.836C98.891,144.909 98.819,144.98 98.819,145.124C98.819,145.197 98.891,145.341 98.963,145.484L98.963,145.701C98.963,145.772 98.963,145.845 98.891,145.916C98.819,146.06 98.819,146.204 98.819,146.276L98.819,146.492C98.747,146.564 98.675,146.564 98.675,146.637C98.603,146.708 98.531,146.708 98.531,146.708L98.387,146.708C98.387,146.708 98.387,146.637 98.315,146.564C98.171,146.564 98.027,146.42 97.883,146.276C97.811,146.133 97.595,146.06 97.379,145.989C97.307,145.989 97.307,146.06 97.307,146.06C97.235,146.204 97.163,146.276 97.163,146.348C97.163,146.42 97.019,146.492 97.019,146.42C96.875,146.204 96.731,146.06 96.659,145.845C96.659,145.772 96.587,145.701 96.515,145.628C96.155,145.124 95.867,144.549 95.579,143.972C95.507,143.9 95.435,143.756 95.363,143.613C95.219,143.396 95.003,143.252 94.787,143.036C94.571,142.892 94.499,142.748 94.427,142.604C94.355,142.316 94.211,142.1 94.139,141.885C94.067,141.668 93.923,141.452 93.851,141.308C93.779,141.236 93.707,141.093 93.707,141.02C93.563,140.949 93.563,140.876 93.419,140.876C93.131,140.732 92.771,140.66 92.339,140.516C92.195,140.516 92.051,140.516 91.835,140.444L91.619,140.444C91.475,140.372 91.331,140.372 91.259,140.372L90.035,140.372C89.747,140.372 89.459,140.372 89.243,140.301C88.883,140.301 88.451,140.228 88.091,140.228C87.947,140.228 87.803,140.157 87.587,140.157C87.515,140.157 87.443,140.228 87.443,140.301C87.083,140.949 86.723,141.596 86.291,142.1C86.219,142.172 86.147,142.172 86.147,142.172L85.715,142.172C85.499,142.1 85.355,141.956 85.211,141.812C85.067,141.668 84.851,141.596 84.707,141.596L84.131,141.596C83.987,141.596 83.843,141.596 83.771,141.668C83.555,141.668 83.339,141.741 83.195,141.812C83.051,141.812 82.907,141.812 82.835,141.741C82.475,141.668 82.115,141.452 81.827,141.236C81.179,140.732 80.459,140.157 79.883,139.365C79.739,139.292 79.667,139.148 79.667,138.932C79.595,138.86 79.595,138.788 79.595,138.644C79.595,138.5 79.595,138.212 79.739,138.14L79.739,137.852C79.739,137.708 79.739,137.637 79.595,137.492C79.595,137.348 79.523,137.133 79.523,136.916C79.451,136.701 79.523,136.484 79.523,136.341C79.595,136.124 79.739,135.98 79.739,135.836C80.027,135.549 80.243,135.261 80.459,134.972C80.603,134.9 80.675,134.756 80.819,134.684C80.963,134.684 81.035,134.54 81.179,134.469C81.395,134.252 81.539,134.036 81.683,133.892C81.827,133.677 81.971,133.533 82.115,133.244C82.259,133.1 82.403,132.956 82.619,132.741C82.979,132.524 83.339,132.38 83.699,132.164C84.131,131.949 84.563,131.732 84.995,131.588C85.499,131.444 86.003,131.301 86.507,131.301L87.515,131.301C87.947,131.372 88.307,131.444 88.595,131.444C88.739,131.444 88.955,131.444 89.099,131.517C89.171,131.517 89.315,131.588 89.387,131.588C89.531,131.588 89.675,131.517 89.819,131.517C90.179,131.444 90.467,131.444 90.827,131.444C91.187,131.372 91.547,131.301 91.979,131.228C92.267,131.157 92.627,131.084 92.987,131.084C93.203,131.013 93.419,130.94 93.635,130.94C94.067,130.797 94.499,130.724 94.931,130.58C95.075,130.509 95.291,130.437 95.435,130.293C95.579,130.221 95.651,130.148 95.795,130.148C95.939,130.148 96.155,130.076 96.227,129.933C96.371,129.86 96.515,129.717 96.587,129.573C96.659,129.5 96.803,129.356 96.947,129.284C97.163,129.14 97.307,128.996 97.523,128.925C97.739,128.925 97.955,128.782 98.243,128.782C98.531,128.782 98.819,128.782 99.035,128.925L99.251,128.925C99.323,128.925 99.395,128.925 99.467,128.853C100.115,128.564 100.691,128.42 101.339,128.204C101.555,128.133 101.771,128.06 101.987,127.916L101.987,127.845C101.843,127.412 101.627,127.053 101.339,126.764C101.268,126.692 101.268,126.692 101.195,126.692C100.691,126.261 100.115,125.972 99.467,125.9C99.179,125.828 98.819,125.828 98.531,125.756C98.099,125.684 97.667,125.684 97.307,125.613C96.947,125.613 96.587,125.613 96.299,125.54C95.939,125.469 95.579,125.396 95.219,125.325C94.859,125.18 94.427,125.036 93.995,124.82C93.419,124.46 92.915,124.028 92.411,123.524C92.339,123.38 92.195,123.308 92.123,123.164C91.907,122.732 91.619,122.372 91.475,121.94C91.331,121.58 91.187,121.221 90.971,121.004C90.971,120.788 90.899,120.644 90.899,120.429C90.899,120.429 90.899,120.356 90.971,120.356C91.043,120.284 91.115,120.284 91.259,120.284C91.331,120.212 91.475,120.284 91.619,120.356C91.835,120.5 92.051,120.717 92.267,120.86C92.555,121.221 92.843,121.509 93.131,121.652C93.203,121.724 93.275,121.724 93.275,121.724C93.491,121.724 93.635,121.58 93.707,121.509L93.707,121.365C93.707,121.221 93.707,121.076 93.635,121.004C93.419,120.429 93.275,119.852 93.275,119.276C93.203,118.916 93.203,118.484 93.347,118.124C93.419,118.053 93.419,117.909 93.419,117.836C93.419,117.764 93.491,117.62 93.491,117.549C93.563,117.405 93.563,117.332 93.707,117.261L93.707,117.117C93.707,117.044 93.779,116.972 93.851,116.9L93.923,116.9C94.067,116.972 94.211,117.044 94.355,117.117C94.427,117.405 94.499,117.549 94.571,117.764C94.571,118.268 94.859,118.701 95.147,119.133C95.219,119.204 95.291,119.276 95.363,119.276C95.435,119.276 95.435,119.276 95.507,119.204C95.579,119.204 95.723,119.204 95.795,119.276C96.083,119.564 96.227,119.852 96.371,120.068C96.515,120.429 96.659,120.717 96.803,121.004C97.091,121.365 97.379,121.724 97.667,122.084C97.739,122.228 97.883,122.372 98.099,122.444C98.819,122.949 99.683,123.308 100.547,123.524C100.691,123.668 100.979,123.668 101.268,123.668C101.627,123.668 101.916,123.668 102.275,123.596C102.635,123.452 102.923,123.164 103.139,122.732C103.211,122.588 103.283,122.444 103.283,122.228C103.283,122.013 103.355,121.652 103.355,121.365L103.355,121.292C103.355,121.004 103.283,120.788 103.283,120.573C103.139,120.429 103.139,120.212 102.996,120.068C102.923,119.852 102.779,119.564 102.708,119.348C102.635,119.133 102.491,118.845 102.491,118.628C102.419,118.412 102.419,118.124 102.419,117.909C102.419,117.62 102.563,117.332 102.779,117.044C102.923,116.972 102.996,116.972 103.139,116.972C103.427,117.188 103.644,117.332 104.003,117.405L104.075,117.405C104.147,117.405 104.292,117.405 104.436,117.261C104.795,116.613 104.939,115.964 104.939,115.316C104.939,115.028 104.939,114.741 104.867,114.524C104.795,114.164 104.724,113.805 104.724,113.444C104.724,113.157 104.724,112.94 104.795,112.724C104.795,112.652 104.867,112.509 104.939,112.436C105.011,112.365 105.083,112.292 105.083,112.148C105.083,112.004 105.155,111.788 105.228,111.644C105.299,111.356 105.516,111.068 105.731,110.852C105.875,110.708 105.875,110.492 105.947,110.348C106.02,109.989 106.02,109.701 106.02,109.412L106.02,109.268C106.02,108.909 106.02,108.549 105.947,108.188C105.947,107.828 106.02,107.539 106.164,107.251C106.308,107.108 106.451,106.892 106.595,106.748C106.739,106.677 106.956,106.748 106.956,106.892C107.027,107.395 107.1,107.9 107.1,108.404C107.243,108.764 107.387,109.197 107.531,109.556C107.604,109.772 107.748,109.916 107.963,109.989L108.179,109.989C108.755,109.701 109.188,109.197 109.403,108.62C109.476,108.404 109.547,108.261 109.619,108.044C109.835,107.539 109.907,107.036 110.051,106.604C110.124,106.533 110.195,106.388 110.268,106.244C110.339,106.244 110.412,106.244 110.483,106.316C110.555,106.388 110.627,106.388 110.699,106.533C110.843,106.748 110.843,107.036 110.843,107.324L110.843,107.539C110.843,107.828 110.843,108.044 110.699,108.188C110.699,108.404 110.627,108.692 110.555,108.836L110.555,108.98C110.555,109.053 110.555,109.053 110.627,109.197C110.627,109.268 110.699,109.412 110.771,109.556C110.843,109.701 110.916,109.772 111.06,109.772C111.06,109.772 111.131,109.772 111.204,109.845L111.563,109.845C111.708,109.845 111.852,109.772 111.996,109.701C112.067,109.628 112.139,109.556 112.283,109.556C112.644,109.341 113.003,109.197 113.363,109.053C113.507,108.98 113.795,108.909 114.011,108.836C114.083,108.764 114.228,108.692 114.372,108.549C114.587,108.332 114.731,108.188 114.947,107.9C114.947,107.828 115.02,107.683 115.02,107.539C115.091,107.18 115.308,106.892 115.595,106.677C115.812,106.388 116.1,106.028 116.315,105.741C116.531,105.524 116.675,105.308 116.819,105.02L116.819,104.587C116.819,104.587 116.892,104.587 116.963,104.515C116.963,104.515 117.107,104.515 117.107,104.587C117.323,104.587 117.467,104.805 117.611,104.949C117.684,105.236 117.755,105.452 117.755,105.741L117.755,105.885C117.755,106.172 117.611,106.388 117.467,106.533C117.323,106.677 117.251,106.748 117.251,106.892C117.107,107.036 117.035,107.18 116.963,107.395C116.892,107.539 116.892,107.683 116.892,107.828L116.892,108.044L116.963,108.044L116.963,108.117L116.963,108.044C117.251,107.828 117.467,107.611 117.755,107.395C117.899,107.395 117.971,107.251 118.115,107.251C118.259,107.18 118.332,107.036 118.476,106.892C118.476,106.748 118.619,106.748 118.691,106.677C118.763,106.533 118.835,106.46 118.979,106.316C119.124,106.1 119.268,105.885 119.412,105.596L119.412,105.452C119.483,105.38 119.555,105.308 119.555,105.236C119.555,105.164 119.627,105.164 119.699,105.164C119.916,105.164 120.06,105.308 120.131,105.524C120.204,105.741 120.204,105.885 120.275,106.1L120.275,106.388C120.204,106.677 120.204,106.892 120.06,107.036C119.916,107.251 119.771,107.539 119.627,107.683C119.483,107.9 119.339,108.044 119.195,108.332C119.051,108.476 118.979,108.692 118.907,108.909C118.835,109.124 118.763,109.341 118.763,109.556L118.763,109.916C118.835,110.06 118.979,110.133 119.124,110.133L119.195,110.133C119.483,110.133 119.771,110.133 120.06,109.989C120.204,109.989 120.347,109.916 120.563,109.916C120.635,109.916 120.708,109.989 120.708,110.133C120.708,110.348 120.708,110.492 120.563,110.637C120.419,110.852 120.204,110.996 120.06,111.14C119.555,111.356 119.124,111.788 118.835,112.221C118.619,112.509 118.476,112.94 118.259,113.228C118.115,113.444 118.043,113.732 117.971,114.02C117.899,114.308 117.755,114.596 117.684,114.956C117.54,115.604 117.396,116.108 117.251,116.684C117.179,116.972 117.107,117.188 116.963,117.405C116.748,117.909 116.459,118.268 116.171,118.701C116.1,118.772 116.1,118.845 115.956,118.916C115.812,119.204 115.595,119.564 115.235,119.852C114.731,120.356 114.228,120.788 113.724,121.221C113.003,121.724 112.355,122.228 111.635,122.66C110.987,123.02 110.339,123.38 109.691,123.668C109.259,123.956 108.755,124.172 108.251,124.46C107.963,124.604 107.531,124.82 107.027,125.036C106.739,125.252 106.523,125.396 106.308,125.54C106.091,125.684 105.875,125.828 105.731,126.117L105.731,126.62C105.875,126.98 106.091,127.341 106.235,127.628L106.883,126.98C107.1,126.692 107.315,126.476 107.531,126.188C107.604,126.044 107.748,125.972 107.963,125.828C108.251,125.684 108.54,125.54 108.755,125.396C108.971,125.325 109.188,125.18 109.403,125.18C109.835,125.18 110.268,125.036 110.627,125.036C110.916,124.964 111.204,125.036 111.491,125.036C111.563,125.108 111.635,125.18 111.635,125.325L111.491,125.972C111.419,126.332 111.275,126.764 111.131,127.124C111.06,127.341 110.987,127.484 110.771,127.628C110.555,127.845 110.339,128.06 110.195,128.276C110.051,128.42 109.907,128.492 109.835,128.564C109.763,128.637 109.691,128.637 109.691,128.782L110.339,128.782C110.843,128.782 111.347,128.782 111.852,128.709C112.788,128.709 113.651,128.637 114.587,128.564C115.235,128.492 115.812,128.42 116.459,128.42C117.323,128.276 118.115,128.204 118.979,127.916C119.987,127.772 120.923,127.484 121.931,127.197C122.651,126.98 123.372,126.836 124.091,126.62C124.883,126.332 125.819,126.188 126.684,126.117C128.627,125.972 130.5,126.188 132.299,126.836C133.379,127.268 134.315,127.701 135.251,128.204C136.043,128.637 136.763,129.068 137.483,129.5C138.347,129.933 139.355,130.293 140.436,130.509C141.803,130.724 143.1,130.797 144.467,130.94L148.141,130.94C149.219,130.94 150.299,130.868 151.379,130.724C152.1,130.724 152.819,130.653 153.54,130.58C154.476,130.437 155.484,130.437 156.491,130.58C158.003,130.868 159.516,131.372 160.956,131.949C162.179,132.452 163.403,133.028 164.628,133.388C167.003,134.18 169.021,135.405 170.675,137.133C171.035,137.348 171.323,137.492 171.755,137.637C172.188,137.708 172.619,137.852 173.051,138.14C173.916,138.212 174.563,138.788 174.997,139.58L176.867,144.117C176.939,144.405 177.011,144.692 177.228,144.98C177.372,145.268 177.443,145.628 177.443,146.06C177.443,146.42 177.083,146.781 176.724,146.852C176.075,146.708 175.571,146.42 175.068,146.06C174.779,145.916 174.419,145.701 174.204,145.412L174.131,145.412C174.06,145.484 174.06,145.556 174.06,145.628C174.06,146.204 173.987,146.708 173.987,147.212C173.987,147.429 174.06,147.717 174.06,148.004L174.06,148.148C174.06,148.58 173.916,149.084 173.771,149.516L172.619,152.469C172.403,152.9 172.259,153.332 172.116,153.836C172.116,154.197 172.044,154.412 172.044,154.701L172.044,154.916C172.044,155.276 172.188,155.708 172.332,156.14C172.403,156.429 172.476,156.788 172.476,157.148L172.476,157.221C172.476,157.58 172.619,157.94 172.763,158.157C172.907,158.228 172.907,158.372 172.979,158.444C172.979,158.516 172.979,158.588 173.051,158.588C173.124,158.732 173.195,158.805 173.268,158.805C174.131,159.885 174.997,160.748 175.788,161.756C175.859,161.756 176.075,161.972 176.147,162.188C176.363,162.405 176.652,162.62 176.939,162.836C178.667,163.845 180.396,164.708 182.195,165.5C182.484,165.573 182.843,165.644 183.204,165.644C183.635,165.644 184.14,165.86 184.427,166.221C184.5,166.365 184.644,166.652 184.644,166.94C184.715,167.876 184.859,168.741 185.147,169.604C185.219,170.325 185.363,171.044 185.508,171.692C185.651,172.124 185.651,172.628 185.651,173.133L185.651,173.348C185.867,174.932 186.228,176.444 186.731,177.956C187.021,178.821 187.308,179.684 187.523,180.476C187.595,180.692 187.739,180.909 187.956,181.197C188.315,181.484 188.459,181.916 188.604,182.348C188.748,182.492 188.892,182.781 189.107,182.852C189.251,182.925 189.323,182.996 189.323,183.14C189.323,183.284 189.251,183.429 189.035,183.429C188.819,183.5 188.604,183.5 188.387,183.644C188.243,183.717 188.1,183.86 188.1,183.932C188.1,184.148 188.315,184.292 188.459,184.292L188.604,184.292C188.748,184.221 188.963,184.148 189.107,184.076C189.755,183.788 190.476,184.076 190.691,184.652C190.763,184.796 190.763,184.796 190.763,184.94C191.339,186.308 191.843,187.604 192.348,189.044L192.852,190.197C192.996,190.412 192.996,190.628 192.996,190.845L192.996,190.916C192.996,190.989 192.924,191.06 192.852,191.06C192.203,190.989 191.557,190.845 190.979,190.556C190.763,190.484 190.547,190.341 190.259,190.341C190.116,190.268 190.044,190.268 189.899,190.197C189.755,190.124 189.611,189.98 189.467,189.909L189.107,189.909C188.963,189.98 188.892,189.98 188.748,189.909C188.459,189.909 188.243,189.764 188.1,189.62C187.812,189.405 187.595,189.117 187.308,188.828C187.164,188.54 186.947,188.325 186.659,188.108C186.228,187.821 185.867,187.46 185.436,187.1C185.219,186.956 185.075,186.812 185.003,186.596C184.859,186.38 184.715,186.236 184.5,186.093C183.852,185.157 183.635,184.076 183.635,182.925C183.635,182.492 183.563,182.06 183.491,181.628C183.347,180.909 183.131,180.044 182.987,179.325C182.628,177.668 182.195,176.228 181.691,174.717C181.332,173.781 180.827,173.06 180.179,172.341C179.675,171.909 179.171,171.332 178.523,170.828C178.451,170.756 178.379,170.756 178.379,170.684C178.235,170.613 178.092,170.613 178.021,170.469C177.731,170.325 177.372,170.252 177.083,170.108C176.867,170.108 176.581,169.964 176.292,169.821C175.571,169.604 174.779,169.316 174.06,168.956C172.691,168.164 171.467,167.301 170.315,166.292C169.812,165.788 169.308,165.356 168.803,164.925C168.443,164.637 168.155,164.492 167.795,164.276C166.715,163.772 165.708,163.197 164.699,162.476C163.763,161.756 162.971,161.036 162.107,160.244L162.035,160.244C161.892,160.316 161.892,160.388 161.748,160.388C161.459,160.604 160.956,161.036 160.451,161.396C159.875,162.261 159.516,163.268 159.155,164.276L159.155,165.14C159.372,166.868 159.803,168.596 160.451,170.252C160.883,171.188 161.243,172.124 161.819,173.06C162.107,173.42 162.251,173.925 162.396,174.356L162.396,174.644C162.396,174.86 162.396,175.076 162.179,175.292C162.035,175.652 161.676,175.94 161.315,176.084C161.1,176.228 160.956,176.444 160.883,176.66C160.667,177.02 160.451,177.236 160.235,177.452C159.659,178.172 159.011,178.748 158.436,179.325C158.292,179.469 158.292,179.469 158.147,179.54C158.003,179.684 157.859,179.828 157.715,179.972C157.283,180.405 156.923,180.909 156.491,181.412Z" style="fill:rgb(35,31,32);fill-rule:nonzero;"/>
        <path d="M156.491,181.412C155.987,182.133 155.411,182.996 154.835,183.788C154.476,184.292 154.044,184.796 153.755,185.372C153.251,186.164 152.892,187.1 152.676,188.036C152.532,188.54 152.387,188.9 152.027,189.261C151.956,189.405 151.883,189.549 151.883,189.62C151.812,189.692 151.739,189.764 151.739,189.909L151.812,189.909C151.812,190.124 151.739,190.268 151.667,190.412C151.667,190.484 151.451,190.484 151.379,190.412C151.235,190.268 151.165,190.197 151.092,190.053C151.021,189.909 150.875,189.692 150.803,189.549C150.731,189.476 150.659,189.405 150.516,189.405C150.516,189.332 150.516,189.332 150.443,189.332C150.299,189.332 150.228,189.405 150.228,189.549L150.228,189.98C150.299,190.124 150.372,190.197 150.443,190.341C150.516,190.341 150.516,190.484 150.516,190.556L150.516,190.772C150.372,191.133 150.083,191.492 149.795,191.781C149.652,191.852 149.581,191.996 149.436,191.996L145.476,191.996L142.092,191.925C141.947,191.852 141.875,191.708 141.947,191.564C142.308,191.133 142.667,190.701 143.027,190.268C143.315,189.909 143.676,189.549 144.035,189.261C144.107,189.117 144.251,189.044 144.323,188.972C144.467,188.828 144.54,188.613 144.611,188.54C144.611,188.252 144.755,188.108 144.899,188.036C145.188,187.748 145.547,187.533 145.907,187.388C145.979,187.388 146.124,187.388 146.195,187.316C146.484,187.1 146.7,186.885 146.916,186.596C147.06,186.524 147.06,186.38 147.131,186.308C147.204,185.949 147.419,185.66 147.708,185.372C147.923,185.084 148.283,184.796 148.644,184.58C149.075,184.292 149.436,183.932 149.795,183.5C150.516,182.564 151.235,181.628 151.883,180.692C152.315,180.188 152.604,179.54 152.963,179.036C153.251,178.677 153.467,178.172 153.755,177.812C154.044,177.164 154.259,176.516 154.259,175.868C154.259,174.573 154.332,173.42 154.403,172.412C154.403,172.124 154.259,171.764 154.044,171.405C153.684,170.613 153.179,169.748 152.676,168.812C152.171,168.02 151.812,167.228 151.595,166.365C151.523,166.004 151.379,165.644 151.235,165.212C151.092,164.492 151.021,163.916 150.875,163.341C150.659,162.188 150.299,161.108 149.795,160.028C149.581,159.38 149.436,158.805 149.436,158.084L149.436,157.292C148.859,157.436 148.211,157.652 147.708,157.94C147.131,158.228 146.557,158.444 145.979,158.588C145.259,158.876 144.611,159.02 143.819,159.164L143.171,159.164C142.595,159.236 142.021,159.236 141.443,159.236L141.299,159.236C140.651,159.236 140.003,159.236 139.355,159.308C138.996,159.308 138.491,159.308 138.06,159.38L136.835,159.38C136.619,160.533 136.476,161.684 136.476,162.836C136.259,163.701 136.188,164.492 136.115,165.284C136.043,165.717 135.971,166.509 135.899,167.301C135.827,168.38 135.755,169.172 135.755,169.964C135.755,170.325 135.755,170.756 135.827,171.117C135.899,171.909 135.899,172.701 136.043,173.42C136.188,174.212 136.259,174.86 136.259,175.58L136.259,175.724C136.259,176.084 136.259,176.444 136.043,176.805C135.899,177.164 135.827,177.524 135.827,177.885L135.827,178.172C135.899,178.821 135.971,179.469 136.043,180.044C136.115,180.764 136.259,181.484 136.403,182.276C136.619,183.212 136.835,184.148 137.124,185.084C137.339,185.876 137.555,186.596 137.699,187.388C137.771,187.604 137.771,187.892 137.771,188.108L137.771,188.54C137.627,188.756 137.555,189.117 137.555,189.405C137.555,189.62 137.412,189.764 137.195,189.764C137.195,189.764 137.124,189.764 137.051,189.692C136.835,189.476 136.619,189.261 136.332,189.044C136.259,188.9 136.259,188.9 136.115,188.9C136.043,188.9 135.899,188.9 135.899,189.044C135.827,189.117 135.755,189.261 135.755,189.405C135.755,189.405 135.755,189.549 135.827,189.549C135.899,189.836 135.971,190.053 136.043,190.341L136.043,190.484C136.043,191.276 135.467,191.925 134.604,191.996L128.268,191.996C128.123,191.996 128.05,191.852 128.05,191.708C128.05,191.637 128.05,191.564 128.123,191.564C128.627,190.772 129.274,189.98 129.996,189.405C130.139,188.756 130.644,188.108 131.292,188.036C131.58,187.677 131.795,187.388 132.083,187.028C132.155,186.885 132.155,186.812 132.155,186.741L132.155,186.596C132.155,186.093 132.299,185.588 132.516,185.157C132.587,184.796 132.731,184.436 132.803,184.004C132.803,183.86 132.875,183.644 132.875,183.5C132.875,183.429 132.803,183.284 132.803,183.14C132.803,181.989 132.659,180.692 132.372,179.54C132.228,178.533 131.867,177.524 131.292,176.66C130.931,175.58 130.787,174.429 131.003,173.276L131.003,172.916C131.003,171.909 130.787,170.828 130.5,169.821C130.354,169.1 130.139,168.38 129.923,167.588C129.707,167.157 129.634,166.652 129.563,166.148C129.203,164.996 128.843,163.845 128.627,162.692C128.627,162.261 128.483,161.9 128.483,161.54C128.412,161.613 128.268,161.684 128.195,161.684C127.619,161.9 127.115,162.188 126.611,162.549C126.035,162.909 125.531,163.268 125.027,163.628C124.379,164.133 123.659,164.564 122.939,164.996C122.58,165.14 121.211,165.788 119.916,166.509C117.899,167.588 117.107,168.02 116.459,168.596C116.1,168.812 115.883,169.1 115.667,169.388C115.667,169.46 115.595,169.604 115.451,169.748C115.02,170.325 114.587,170.9 114.228,171.549C113.651,172.341 113.219,173.276 113.075,174.212C113.003,175.076 112.715,175.94 112.571,176.805C112.5,177.164 112.427,177.596 112.427,177.956C112.427,178.388 112.5,178.821 112.571,179.18C112.715,179.828 112.859,180.476 112.859,181.197C112.859,181.341 112.859,181.556 113.003,181.628C113.003,181.772 113.075,181.845 113.075,181.916C113.075,181.989 113.075,181.989 113.003,182.06C112.931,182.204 112.715,182.276 112.644,182.276C112.5,182.204 112.211,182.133 111.996,182.133L111.996,182.06C111.779,182.06 111.635,182.276 111.635,182.42L111.635,182.564C111.708,182.708 111.852,182.781 111.996,182.781C112.283,182.781 112.571,182.852 112.788,182.925C113.436,183.068 113.867,183.644 113.867,184.292C113.867,184.58 113.795,184.796 113.724,185.013C112.859,186.885 111.852,188.756 110.699,190.628C110.627,190.772 110.483,190.772 110.339,190.701L109.115,187.46C109.043,187.388 108.971,187.244 108.899,187.172C108.755,186.956 108.611,186.741 108.54,186.524L108.54,185.876C108.54,185.301 108.396,184.652 108.179,184.076C108.251,184.292 108.035,183.932 107.892,183.5C107.531,182.492 107.531,182.133 107.531,181.845C107.531,181.484 107.604,181.124 107.675,180.692C107.748,180.405 107.819,180.117 107.892,179.828C108.179,179.325 108.396,178.821 108.611,178.388C108.684,178.316 108.755,178.172 108.755,177.956C108.827,177.741 108.899,177.452 108.971,177.164C109.043,176.732 109.188,176.301 109.332,175.868C109.403,175.652 109.403,175.436 109.403,175.221C109.476,175.076 109.547,174.86 109.619,174.573C109.691,174.212 109.763,173.781 109.835,173.42L109.835,173.133C109.907,172.989 109.907,172.916 109.907,172.772C109.979,172.556 109.979,172.197 109.979,171.909L109.979,171.692C109.979,171.261 109.907,170.9 109.835,170.469L109.835,169.821C109.835,169.46 109.835,169.1 109.979,168.741C110.124,168.308 110.268,167.876 110.412,167.444C110.627,167.013 110.771,166.652 110.987,166.292C111.06,166.148 111.204,166.004 111.347,165.86C111.491,165.717 111.635,165.644 111.779,165.644C111.923,165.5 112.067,165.356 112.139,165.356C112.859,164.852 113.436,164.276 114.011,163.772C114.803,163.124 115.451,162.405 116.1,161.756C116.531,161.252 116.892,160.748 117.251,160.244C117.467,160.028 117.611,159.812 117.827,159.596C118.188,159.164 118.547,158.805 119.051,158.444C119.339,158.228 119.627,158.013 119.916,157.796L120.06,157.652C119.412,157.365 118.835,156.932 118.403,156.429C118.115,156.068 117.755,155.708 117.467,155.348C117.107,154.916 116.748,154.484 116.459,153.98C116.315,153.692 116.171,153.476 115.956,153.261C115.812,153.117 115.739,152.828 115.667,152.684C115.523,152.396 115.379,152.18 115.235,151.964C115.091,151.748 114.947,151.533 114.875,151.316C114.803,151.316 114.803,151.316 114.803,151.244C114.443,150.956 114.228,150.524 114.155,150.093C114.011,149.66 113.867,149.084 113.651,148.58C113.58,148.292 113.507,147.932 113.363,147.644C113.147,146.781 112.931,146.42 112.644,146.06C112.5,145.916 112.283,145.845 112.139,145.701C111.852,145.628 111.635,145.556 111.491,145.484C111.347,145.341 111.275,145.268 111.204,145.268C110.771,144.909 110.339,144.549 109.763,144.332C108.899,143.9 108.035,143.469 107.1,143.108C106.595,142.964 106.235,142.82 105.803,142.748C105.587,142.604 105.228,142.533 104.867,142.46C104.436,142.316 104.292,142.244 104.219,142.244C104.075,142.244 103.859,142.316 103.715,142.46C103.644,142.533 103.571,142.604 103.571,142.604C103.283,142.748 102.996,142.964 102.923,143.252L102.779,143.252C102.635,143.036 102.419,142.82 102.275,142.677C102.275,142.604 102.131,142.533 101.987,142.533L101.916,142.604C101.771,142.604 101.771,142.748 101.771,142.82L101.771,143.613C101.771,143.613 101.699,143.684 101.627,143.756L101.555,143.756L101.483,143.828L101.412,143.828C101.339,143.828 101.339,143.828 101.268,143.9C101.124,143.9 100.979,143.9 100.907,143.972C100.691,143.972 100.476,144.117 100.332,144.261L100.188,144.261C100.115,144.405 100.115,144.405 100.043,144.476C99.971,144.549 99.971,144.62 99.971,144.764L99.971,144.836C99.971,144.98 100.043,145.124 100.043,145.268L99.971,145.341C99.971,145.341 99.971,145.412 99.899,145.341C99.755,145.197 99.539,145.053 99.395,144.909C99.251,144.836 99.107,144.764 98.963,144.764C98.963,144.764 98.891,144.764 98.891,144.836C98.891,144.909 98.819,144.98 98.819,145.124C98.819,145.197 98.891,145.341 98.963,145.484L98.963,145.701C98.963,145.772 98.963,145.845 98.891,145.916C98.819,146.06 98.819,146.204 98.819,146.276L98.819,146.492C98.747,146.564 98.675,146.564 98.675,146.637C98.603,146.708 98.531,146.708 98.531,146.708L98.387,146.708C98.387,146.708 98.387,146.637 98.315,146.564C98.171,146.564 98.027,146.42 97.883,146.276C97.811,146.133 97.595,146.06 97.379,145.989C97.307,145.989 97.307,146.06 97.307,146.06C97.235,146.204 97.163,146.276 97.163,146.348C97.163,146.42 97.019,146.492 97.019,146.42C96.875,146.204 96.731,146.06 96.659,145.845C96.659,145.772 96.587,145.701 96.515,145.628C96.155,145.124 95.867,144.549 95.579,143.972C95.507,143.9 95.435,143.756 95.363,143.613C95.219,143.396 95.003,143.252 94.787,143.036C94.571,142.892 94.499,142.748 94.427,142.604C94.355,142.316 94.211,142.1 94.139,141.885C94.067,141.668 93.923,141.452 93.851,141.308C93.779,141.236 93.707,141.093 93.707,141.02C93.563,140.949 93.563,140.876 93.419,140.876C93.131,140.732 92.771,140.66 92.339,140.516C92.195,140.516 92.051,140.516 91.835,140.444L91.619,140.444C91.475,140.372 91.331,140.372 91.259,140.372L90.035,140.372C89.747,140.372 89.459,140.372 89.243,140.301C88.883,140.301 88.451,140.228 88.091,140.228C87.947,140.228 87.803,140.157 87.587,140.157C87.515,140.157 87.443,140.228 87.443,140.301C87.083,140.949 86.723,141.596 86.291,142.1C86.219,142.172 86.147,142.172 86.147,142.172L85.715,142.172C85.499,142.1 85.355,141.956 85.211,141.812C85.067,141.668 84.851,141.596 84.707,141.596L84.131,141.596C83.987,141.596 83.843,141.596 83.771,141.668C83.555,141.668 83.339,141.741 83.195,141.812C83.051,141.812 82.907,141.812 82.835,141.741C82.475,141.668 82.115,141.452 81.827,141.236C81.179,140.732 80.459,140.157 79.883,139.365C79.739,139.292 79.667,139.148 79.667,138.932C79.595,138.86 79.595,138.788 79.595,138.644C79.595,138.5 79.595,138.212 79.739,138.14L79.739,137.852C79.739,137.708 79.739,137.637 79.595,137.492C79.595,137.348 79.523,137.133 79.523,136.916C79.451,136.701 79.523,136.484 79.523,136.341C79.595,136.124 79.739,135.98 79.739,135.836C80.027,135.549 80.243,135.261 80.459,134.972C80.603,134.9 80.675,134.756 80.819,134.684C80.963,134.684 81.035,134.54 81.179,134.469C81.395,134.252 81.539,134.036 81.683,133.892C81.827,133.677 81.971,133.533 82.115,133.244C82.259,133.1 82.403,132.956 82.619,132.741C82.979,132.524 83.339,132.38 83.699,132.164C84.131,131.949 84.563,131.732 84.995,131.588C85.499,131.444 86.003,131.301 86.507,131.301L87.515,131.301C87.947,131.372 88.307,131.444 88.595,131.444C88.739,131.444 88.955,131.444 89.099,131.517C89.171,131.517 89.315,131.588 89.387,131.588C89.531,131.588 89.675,131.517 89.819,131.517C90.179,131.444 90.467,131.444 90.827,131.444C91.187,131.372 91.547,131.301 91.979,131.228C92.267,131.157 92.627,131.084 92.987,131.084C93.203,131.013 93.419,130.94 93.635,130.94C94.067,130.797 94.499,130.724 94.931,130.58C95.075,130.509 95.291,130.437 95.435,130.293C95.579,130.221 95.651,130.148 95.795,130.148C95.939,130.148 96.155,130.076 96.227,129.933C96.371,129.86 96.515,129.717 96.587,129.573C96.659,129.5 96.803,129.356 96.947,129.284C97.163,129.14 97.307,128.996 97.523,128.925C97.739,128.925 97.955,128.782 98.243,128.782C98.531,128.782 98.819,128.782 99.035,128.925L99.251,128.925C99.323,128.925 99.395,128.925 99.467,128.853C100.115,128.564 100.691,128.42 101.339,128.204C101.555,128.133 101.771,128.06 101.987,127.916L101.987,127.845C101.843,127.412 101.627,127.053 101.339,126.764C101.268,126.692 101.268,126.692 101.195,126.692C100.691,126.261 100.115,125.972 99.467,125.9C99.179,125.828 98.819,125.828 98.531,125.756C98.099,125.684 97.667,125.684 97.307,125.613C96.947,125.613 96.587,125.613 96.299,125.54C95.939,125.469 95.579,125.396 95.219,125.325C94.859,125.18 94.427,125.036 93.995,124.82C93.419,124.46 92.915,124.028 92.411,123.524C92.339,123.38 92.195,123.308 92.123,123.164C91.907,122.732 91.619,122.372 91.475,121.94C91.331,121.58 91.187,121.221 90.971,121.004C90.971,120.788 90.899,120.644 90.899,120.429C90.899,120.429 90.899,120.356 90.971,120.356C91.043,120.284 91.115,120.284 91.259,120.284C91.331,120.212 91.475,120.284 91.619,120.356C91.835,120.5 92.051,120.717 92.267,120.86C92.555,121.221 92.843,121.509 93.131,121.652C93.203,121.724 93.275,121.724 93.275,121.724C93.491,121.724 93.635,121.58 93.707,121.509L93.707,121.365C93.707,121.221 93.707,121.076 93.635,121.004C93.419,120.429 93.275,119.852 93.275,119.276C93.203,118.916 93.203,118.484 93.347,118.124C93.419,118.053 93.419,117.909 93.419,117.836C93.419,117.764 93.491,117.62 93.491,117.549C93.563,117.405 93.563,117.332 93.707,117.261L93.707,117.117C93.707,117.044 93.779,116.972 93.851,116.9L93.923,116.9C94.067,116.972 94.211,117.044 94.355,117.117C94.427,117.405 94.499,117.549 94.571,117.764C94.571,118.268 94.859,118.701 95.147,119.133C95.219,119.204 95.291,119.276 95.363,119.276C95.435,119.276 95.435,119.276 95.507,119.204C95.579,119.204 95.723,119.204 95.795,119.276C96.083,119.564 96.227,119.852 96.371,120.068C96.515,120.429 96.659,120.717 96.803,121.004C97.091,121.365 97.379,121.724 97.667,122.084C97.739,122.228 97.883,122.372 98.099,122.444C98.819,122.949 99.683,123.308 100.547,123.524C100.691,123.668 100.979,123.668 101.268,123.668C101.627,123.668 101.916,123.668 102.275,123.596C102.635,123.452 102.923,123.164 103.139,122.732C103.211,122.588 103.283,122.444 103.283,122.228C103.283,122.013 103.355,121.652 103.355,121.365L103.355,121.292C103.355,121.004 103.283,120.788 103.283,120.573C103.139,120.429 103.139,120.212 102.996,120.068C102.923,119.852 102.779,119.564 102.708,119.348C102.635,119.133 102.491,118.845 102.491,118.628C102.419,118.412 102.419,118.124 102.419,117.909C102.419,117.62 102.563,117.332 102.779,117.044C102.923,116.972 102.996,116.972 103.139,116.972C103.427,117.188 103.644,117.332 104.003,117.405L104.075,117.405C104.147,117.405 104.292,117.405 104.436,117.261C104.795,116.613 104.939,115.964 104.939,115.316C104.939,115.028 104.939,114.741 104.867,114.524C104.795,114.164 104.724,113.805 104.724,113.444C104.724,113.157 104.724,112.94 104.795,112.724C104.795,112.652 104.867,112.509 104.939,112.436C105.011,112.365 105.083,112.292 105.083,112.148C105.083,112.004 105.155,111.788 105.228,111.644C105.299,111.356 105.516,111.068 105.731,110.852C105.875,110.708 105.875,110.492 105.947,110.348C106.02,109.989 106.02,109.701 106.02,109.412L106.02,109.268C106.02,108.909 106.02,108.549 105.947,108.188C105.947,107.828 106.02,107.539 106.164,107.251C106.308,107.108 106.451,106.892 106.595,106.748C106.739,106.677 106.956,106.748 106.956,106.892C107.027,107.395 107.1,107.9 107.1,108.404C107.243,108.764 107.387,109.197 107.531,109.556C107.604,109.772 107.748,109.916 107.963,109.989L108.179,109.989C108.755,109.701 109.188,109.197 109.403,108.62C109.476,108.404 109.547,108.261 109.619,108.044C109.835,107.539 109.907,107.036 110.051,106.604C110.124,106.533 110.195,106.388 110.268,106.244C110.339,106.244 110.412,106.244 110.483,106.316C110.555,106.388 110.627,106.388 110.699,106.533C110.843,106.748 110.843,107.036 110.843,107.324L110.843,107.539C110.843,107.828 110.843,108.044 110.699,108.188C110.699,108.404 110.627,108.692 110.555,108.836L110.555,108.98C110.555,109.053 110.555,109.053 110.627,109.197C110.627,109.268 110.699,109.412 110.771,109.556C110.843,109.701 110.916,109.772 111.06,109.772C111.06,109.772 111.131,109.772 111.204,109.845L111.563,109.845C111.708,109.845 111.852,109.772 111.996,109.701C112.067,109.628 112.139,109.556 112.283,109.556C112.644,109.341 113.003,109.197 113.363,109.053C113.507,108.98 113.795,108.909 114.011,108.836C114.083,108.764 114.228,108.692 114.372,108.549C114.587,108.332 114.731,108.188 114.947,107.9C114.947,107.828 115.02,107.683 115.02,107.539C115.091,107.18 115.308,106.892 115.595,106.677C115.812,106.388 116.1,106.028 116.315,105.741C116.531,105.524 116.675,105.308 116.819,105.02L116.819,104.587C116.819,104.587 116.892,104.587 116.963,104.515C116.963,104.515 117.107,104.515 117.107,104.587C117.323,104.587 117.467,104.805 117.611,104.949C117.684,105.236 117.755,105.452 117.755,105.741L117.755,105.885C117.755,106.172 117.611,106.388 117.467,106.533C117.323,106.677 117.251,106.748 117.251,106.892C117.107,107.036 117.035,107.18 116.963,107.395C116.892,107.539 116.892,107.683 116.892,107.828L116.892,108.044L116.963,108.044L116.963,108.117L116.963,108.044C117.251,107.828 117.467,107.611 117.755,107.395C117.899,107.395 117.971,107.251 118.115,107.251C118.259,107.18 118.332,107.036 118.476,106.892C118.476,106.748 118.619,106.748 118.691,106.677C118.763,106.533 118.835,106.46 118.979,106.316C119.124,106.1 119.268,105.885 119.412,105.596L119.412,105.452C119.483,105.38 119.555,105.308 119.555,105.236C119.555,105.164 119.627,105.164 119.699,105.164C119.916,105.164 120.06,105.308 120.131,105.524C120.204,105.741 120.204,105.885 120.275,106.1L120.275,106.388C120.204,106.677 120.204,106.892 120.06,107.036C119.916,107.251 119.771,107.539 119.627,107.683C119.483,107.9 119.339,108.044 119.195,108.332C119.051,108.476 118.979,108.692 118.907,108.909C118.835,109.124 118.763,109.341 118.763,109.556L118.763,109.916C118.835,110.06 118.979,110.133 119.124,110.133L119.195,110.133C119.483,110.133 119.771,110.133 120.06,109.989C120.204,109.989 120.347,109.916 120.563,109.916C120.635,109.916 120.708,109.989 120.708,110.133C120.708,110.348 120.708,110.492 120.563,110.637C120.419,110.852 120.204,110.996 120.06,111.14C119.555,111.356 119.124,111.788 118.835,112.221C118.619,112.509 118.476,112.94 118.259,113.228C118.115,113.444 118.043,113.732 117.971,114.02C117.899,114.308 117.755,114.596 117.684,114.956C117.54,115.604 117.396,116.108 117.251,116.684C117.179,116.972 117.107,117.188 116.963,117.405C116.748,117.909 116.459,118.268 116.171,118.701C116.1,118.772 116.1,118.845 115.956,118.916C115.812,119.204 115.595,119.564 115.235,119.852C114.731,120.356 114.228,120.788 113.724,121.221C113.003,121.724 112.355,122.228 111.635,122.66C110.987,123.02 110.339,123.38 109.691,123.668C109.259,123.956 108.755,124.172 108.251,124.46C107.963,124.604 107.531,124.82 107.027,125.036C106.739,125.252 106.523,125.396 106.308,125.54C106.091,125.684 105.875,125.828 105.731,126.117L105.731,126.62C105.875,126.98 106.091,127.341 106.235,127.628L106.883,126.98C107.1,126.692 107.315,126.476 107.531,126.188C107.604,126.044 107.748,125.972 107.963,125.828C108.251,125.684 108.54,125.54 108.755,125.396C108.971,125.325 109.188,125.18 109.403,125.18C109.835,125.18 110.268,125.036 110.627,125.036C110.916,124.964 111.204,125.036 111.491,125.036C111.563,125.108 111.635,125.18 111.635,125.325L111.491,125.972C111.419,126.332 111.275,126.764 111.131,127.124C111.06,127.341 110.987,127.484 110.771,127.628C110.555,127.845 110.339,128.06 110.195,128.276C110.051,128.42 109.907,128.492 109.835,128.564C109.763,128.637 109.691,128.637 109.691,128.782L110.339,128.782C110.843,128.782 111.347,128.782 111.852,128.709C112.788,128.709 113.651,128.637 114.587,128.564C115.235,128.492 115.812,128.42 116.459,128.42C117.323,128.276 118.115,128.204 118.979,127.916C119.987,127.772 120.923,127.484 121.931,127.197C122.651,126.98 123.372,126.836 124.091,126.62C124.883,126.332 125.819,126.188 126.684,126.117C128.627,125.972 130.5,126.188 132.299,126.836C133.379,127.268 134.315,127.701 135.251,128.204C136.043,128.637 136.763,129.068 137.483,129.5C138.347,129.933 139.355,130.293 140.436,130.509C141.803,130.724 143.1,130.797 144.467,130.94L148.141,130.94C149.219,130.94 150.299,130.868 151.379,130.724C152.1,130.724 152.819,130.653 153.54,130.58C154.476,130.437 155.484,130.437 156.491,130.58C158.003,130.868 159.516,131.372 160.956,131.949C162.179,132.452 163.403,133.028 164.628,133.388C167.003,134.18 169.021,135.405 170.675,137.133C171.035,137.348 171.323,137.492 171.755,137.637C172.188,137.708 172.619,137.852 173.051,138.14C173.916,138.212 174.563,138.788 174.997,139.58L176.867,144.117C176.939,144.405 177.011,144.692 177.228,144.98C177.372,145.268 177.443,145.628 177.443,146.06C177.443,146.42 177.083,146.781 176.724,146.852C176.075,146.708 175.571,146.42 175.068,146.06C174.779,145.916 174.419,145.701 174.204,145.412L174.131,145.412C174.06,145.484 174.06,145.556 174.06,145.628C174.06,146.204 173.987,146.708 173.987,147.212C173.987,147.429 174.06,147.717 174.06,148.004L174.06,148.148C174.06,148.58 173.916,149.084 173.771,149.516L172.619,152.469C172.403,152.9 172.259,153.332 172.116,153.836C172.116,154.197 172.044,154.412 172.044,154.701L172.044,154.916C172.044,155.276 172.188,155.708 172.332,156.14C172.403,156.429 172.476,156.788 172.476,157.148L172.476,157.221C172.476,157.58 172.619,157.94 172.763,158.157C172.907,158.228 172.907,158.372 172.979,158.444C172.979,158.516 172.979,158.588 173.051,158.588C173.124,158.732 173.195,158.805 173.268,158.805C174.131,159.885 174.997,160.748 175.788,161.756C175.859,161.756 176.075,161.972 176.147,162.188C176.363,162.405 176.652,162.62 176.939,162.836C178.667,163.845 180.396,164.708 182.195,165.5C182.484,165.573 182.843,165.644 183.204,165.644C183.635,165.644 184.14,165.86 184.427,166.221C184.5,166.365 184.644,166.652 184.644,166.94C184.715,167.876 184.859,168.741 185.147,169.604C185.219,170.325 185.363,171.044 185.508,171.692C185.651,172.124 185.651,172.628 185.651,173.133L185.651,173.348C185.867,174.932 186.228,176.444 186.731,177.956C187.021,178.821 187.308,179.684 187.523,180.476C187.595,180.692 187.739,180.909 187.956,181.197C188.315,181.484 188.459,181.916 188.604,182.348C188.748,182.492 188.892,182.781 189.107,182.852C189.251,182.925 189.323,182.996 189.323,183.14C189.323,183.284 189.251,183.429 189.035,183.429C188.819,183.5 188.604,183.5 188.387,183.644C188.243,183.717 188.1,183.86 188.1,183.932C188.1,184.148 188.315,184.292 188.459,184.292L188.604,184.292C188.748,184.221 188.963,184.148 189.107,184.076C189.755,183.788 190.476,184.076 190.691,184.652C190.763,184.796 190.763,184.796 190.763,184.94C191.339,186.308 191.843,187.604 192.348,189.044L192.852,190.197C192.996,190.412 192.996,190.628 192.996,190.845L192.996,190.916C192.996,190.989 192.924,191.06 192.852,191.06C192.203,190.989 191.557,190.845 190.979,190.556C190.763,190.484 190.547,190.341 190.259,190.341C190.116,190.268 190.044,190.268 189.899,190.197C189.755,190.124 189.611,189.98 189.467,189.909L189.107,189.909C188.963,189.98 188.892,189.98 188.748,189.909C188.459,189.909 188.243,189.764 188.1,189.62C187.812,189.405 187.595,189.117 187.308,188.828C187.164,188.54 186.947,188.325 186.659,188.108C186.228,187.821 185.867,187.46 185.436,187.1C185.219,186.956 185.075,186.812 185.003,186.596C184.859,186.38 184.715,186.236 184.5,186.093C183.852,185.157 183.635,184.076 183.635,182.925C183.635,182.492 183.563,182.06 183.491,181.628C183.347,180.909 183.131,180.044 182.987,179.325C182.628,177.668 182.195,176.228 181.691,174.717C181.332,173.781 180.827,173.06 180.179,172.341C179.675,171.909 179.171,171.332 178.523,170.828C178.451,170.756 178.379,170.756 178.379,170.684C178.235,170.613 178.092,170.613 178.021,170.469C177.731,170.325 177.372,170.252 177.083,170.108C176.867,170.108 176.581,169.964 176.292,169.821C175.571,169.604 174.779,169.316 174.06,168.956C172.691,168.164 171.467,167.301 170.315,166.292C169.812,165.788 169.308,165.356 168.803,164.925C168.443,164.637 168.155,164.492 167.795,164.276C166.715,163.772 165.708,163.197 164.699,162.476C163.763,161.756 162.971,161.036 162.107,160.244L162.035,160.244C161.892,160.316 161.892,160.388 161.748,160.388C161.459,160.604 160.956,161.036 160.451,161.396C159.875,162.261 159.516,163.268 159.155,164.276L159.155,165.14C159.372,166.868 159.803,168.596 160.451,170.252C160.883,171.188 161.243,172.124 161.819,173.06C162.107,173.42 162.251,173.925 162.396,174.356L162.396,174.644C162.396,174.86 162.396,175.076 162.179,175.292C162.035,175.652 161.676,175.94 161.315,176.084C161.1,176.228 160.956,176.444 160.883,176.66C160.667,177.02 160.451,177.236 160.235,177.452C159.659,178.172 159.011,178.748 158.436,179.325C158.292,179.469 158.292,179.469 158.147,179.54C158.003,179.684 157.859,179.828 157.715,179.972C157.283,180.405 156.923,180.909 156.491,181.412Z" style="fill:none;stroke:rgb(35,31,32);stroke-width:0.22px;"/>
    </g>
</svg>
