<?xml version="1.0" encoding="UTF-8" standalone="no"?>
<!DOCTYPE svg PUBLIC "-//W3C//DTD SVG 1.1//EN" "http://www.w3.org/Graphics/SVG/1.1/DTD/svg11.dtd">
<svg width="100%" height="100%" viewBox="0 0 596 522" version="1.1" xmlns="http://www.w3.org/2000/svg" xmlns:xlink="http://www.w3.org/1999/xlink" xml:space="preserve" xmlns:serif="http://www.serif.com/" style="fill-rule:evenodd;clip-rule:evenodd;stroke-linecap:round;stroke-linejoin:round;stroke-miterlimit:2;">
    <g>
        <path d="M315.683,11.571L592.129,490.391C595.851,496.838 595.851,504.78 592.129,511.228C588.407,517.673 581.528,521.645 574.085,521.645L21.19,521.645C13.746,521.645 6.868,517.673 3.146,511.228C-0.575,504.78 -0.575,496.838 3.146,490.391L279.594,11.571C283.316,5.125 290.194,1.153 297.638,1.153C305.082,1.153 311.96,5.125 315.683,11.571Z" style="fill:rgb(211,63,39);fill-rule:nonzero;"/>
        <path d="M315.683,11.571L592.129,490.391C595.851,496.838 595.851,504.78 592.129,511.228C588.407,517.673 581.528,521.645 574.085,521.645L21.19,521.645C13.746,521.645 6.868,517.673 3.146,511.228C-0.575,504.78 -0.575,496.838 3.146,490.391L279.594,11.571C283.316,5.125 290.194,1.153 297.638,1.153C305.082,1.153 311.96,5.125 315.683,11.571Z" style="fill:none;stroke:rgb(211,63,39);stroke-width:0.71px;"/>
        <path d="M93.367,459.138L297.638,105.332L501.908,459.138L93.367,459.138Z" style="fill:white;fill-rule:nonzero;"/>
        <path d="M93.367,459.138L297.638,105.332L501.908,459.138L93.367,459.138Z" style="fill:none;stroke:white;stroke-width:0.71px;"/>
        <path d="M297.638,419.685L297.638,432.003L299.284,437.442C303.969,439.944 309.593,439.944 314.275,437.442L315.922,432.003L315.922,419.685L297.638,419.685Z" style="fill:rgb(3,4,4);fill-rule:nonzero;"/>
        <path d="M297.638,419.685L297.638,432.003L299.284,437.442C303.969,439.944 309.593,439.944 314.275,437.442L315.922,432.003L315.922,419.685L297.638,419.685Z" style="fill:none;stroke:rgb(3,4,4);stroke-width:0.25px;"/>
        <path d="M417.291,432.003L417.291,419.685L399.006,419.685L399.006,432.003L400.653,437.442C405.337,439.944 410.961,439.944 415.644,437.442L417.291,432.003Z" style="fill:rgb(3,4,4);fill-rule:nonzero;"/>
        <path d="M417.291,432.003L417.291,419.685L399.006,419.685L399.006,432.003L400.653,437.442C405.337,439.944 410.961,439.944 415.644,437.442L417.291,432.003Z" style="fill:none;stroke:rgb(3,4,4);stroke-width:0.25px;"/>
        <path d="M424.832,408.88L290.097,408.88L289.544,409.415L289.544,419.15L290.097,419.685L424.832,419.685L425.385,419.15L425.385,409.415L424.832,408.88Z" style="fill:rgb(3,4,4);fill-rule:nonzero;"/>
        <path d="M424.832,408.88L290.097,408.88L289.544,409.415L289.544,419.15L290.097,419.685L424.832,419.685L425.385,419.15L425.385,409.415L424.832,408.88Z" style="fill:none;stroke:rgb(3,4,4);stroke-width:0.71px;"/>
        <path d="M416.376,371.16L402.015,325.565C387.311,322.861 372.412,321.355 357.464,321.058C342.518,321.355 327.618,322.861 312.913,325.565L298.553,371.16C293.965,373.797 290.697,378.239 289.544,383.403L289.544,404.189L290.097,404.725L424.832,404.725L425.385,404.189L425.385,383.403C424.231,378.239 420.964,373.797 416.376,371.16Z" style="fill:rgb(3,4,4);fill-rule:nonzero;"/>
        <path d="M416.376,371.16L402.015,325.565C387.311,322.861 372.412,321.355 357.464,321.058C342.518,321.355 327.618,322.861 312.913,325.565L298.553,371.16C293.965,373.797 290.697,378.239 289.544,383.403L289.544,404.189L290.097,404.725L424.832,404.725L425.385,404.189L425.385,383.403C424.231,378.239 420.964,373.797 416.376,371.16Z" style="fill:none;stroke:rgb(3,4,4);stroke-width:0.71px;"/>
        <path d="M257.121,379.569L257.121,390.655L258.603,395.55C262.818,397.803 267.88,397.803 272.095,395.55L273.577,390.655L273.577,379.569L257.121,379.569Z" style="fill:rgb(3,4,4);fill-rule:nonzero;"/>
        <path d="M257.121,379.569L257.121,390.655L258.603,395.55C262.818,397.803 267.88,397.803 272.095,395.55L273.577,390.655L273.577,379.569L257.121,379.569Z" style="fill:none;stroke:rgb(3,4,4);stroke-width:0.23px;"/>
        <path d="M290.845,379.569C292.485,376.037 295.177,373.101 298.553,371.16L298.967,369.845L250.334,369.845L249.837,370.327L249.837,379.086L250.334,379.569L290.845,379.569Z" style="fill:rgb(3,4,4);fill-rule:nonzero;"/>
        <path d="M290.845,379.569C292.485,376.037 295.177,373.101 298.553,371.16L298.967,369.845L250.334,369.845L249.837,370.327L249.837,379.086L250.334,379.569L290.845,379.569Z" style="fill:none;stroke:rgb(3,4,4);stroke-width:0.68px;"/>
        <path d="M310.965,303.774C322.067,303.929 333.151,304.743 344.158,306.213L348.771,321.366C351.667,321.218 354.565,321.115 357.464,321.058C358.085,321.069 358.705,321.084 359.325,321.101L351.061,294.861C337.827,292.429 324.418,291.073 310.965,290.805C297.512,291.073 284.104,292.429 270.869,294.861L257.944,335.898C253.815,338.271 250.874,342.269 249.837,346.916L249.837,365.623L250.334,366.106L300.145,366.106L312.913,325.565C313.461,325.464 314.009,325.364 314.558,325.267C299.325,324.661 284.118,326.978 269.757,332.091L277.772,306.213C288.778,304.743 299.861,303.929 310.965,303.774Z" style="fill:rgb(3,4,4);fill-rule:nonzero;"/>
        <path d="M310.965,303.774C322.067,303.929 333.151,304.743 344.158,306.213L348.771,321.366C351.667,321.218 354.565,321.115 357.464,321.058C358.085,321.069 358.705,321.084 359.325,321.101L351.061,294.861C337.827,292.429 324.418,291.073 310.965,290.805C297.512,291.073 284.104,292.429 270.869,294.861L257.944,335.898C253.815,338.271 250.874,342.269 249.837,346.916L249.837,365.623L250.334,366.106L300.145,366.106L312.913,325.565C313.461,325.464 314.009,325.364 314.558,325.267C299.325,324.661 284.118,326.978 269.757,332.091L277.772,306.213C288.778,304.743 299.861,303.929 310.965,303.774Z" style="fill:none;stroke:rgb(3,4,4);stroke-width:0.71px;"/>
        <path d="M216.451,340.395L216.451,350.373L217.785,354.777C221.579,356.805 226.134,356.805 229.928,354.777L231.262,350.373L231.262,340.395L216.451,340.395Z" style="fill:rgb(3,4,4);fill-rule:nonzero;"/>
        <path d="M216.451,340.395L216.451,350.373L217.785,354.777C221.579,356.805 226.134,356.805 229.928,354.777L231.262,350.373L231.262,340.395L216.451,340.395Z" style="fill:none;stroke:rgb(3,4,4);stroke-width:0.21px;"/>
        <path d="M252.85,340.395C254.228,338.568 255.96,337.037 257.944,335.898L259.284,331.644L210.343,331.644L209.896,332.077L209.896,339.961L210.343,340.395L252.85,340.395Z" style="fill:rgb(3,4,4);fill-rule:nonzero;"/>
        <path d="M252.85,340.395C254.228,338.568 255.96,337.037 257.944,335.898L259.284,331.644L210.343,331.644L209.896,332.077L209.896,339.961L210.343,340.395L252.85,340.395Z" style="fill:none;stroke:rgb(3,4,4);stroke-width:0.69px;"/>
        <path d="M282.312,293.031C264.054,289.852 245.283,291.447 227.824,297.665L235.037,274.375C244.943,273.051 254.918,272.318 264.911,272.179C274.903,272.318 284.879,273.051 294.785,274.375L299.929,291.269C303.083,291.067 306.241,290.923 309.4,290.84L300.997,264.156C289.086,261.968 277.019,260.748 264.911,260.506C252.803,260.748 240.735,261.968 228.825,264.156L217.192,301.09C213.477,303.227 210.829,306.824 209.896,311.007L209.896,327.843L210.343,328.277L260.344,328.277L270.869,294.861C274.668,294.162 278.483,293.552 282.312,293.031Z" style="fill:rgb(3,4,4);fill-rule:nonzero;"/>
        <path d="M282.312,293.031C264.054,289.852 245.283,291.447 227.824,297.665L235.037,274.375C244.943,273.051 254.918,272.318 264.911,272.179C274.903,272.318 284.879,273.051 294.785,274.375L299.929,291.269C303.083,291.067 306.241,290.923 309.4,290.84L300.997,264.156C289.086,261.968 277.019,260.748 264.911,260.506C252.803,260.748 240.735,261.968 228.825,264.156L217.192,301.09C213.477,303.227 210.829,306.824 209.896,311.007L209.896,327.843L210.343,328.277L260.344,328.277L270.869,294.861C274.668,294.162 278.483,293.552 282.312,293.031Z" style="fill:none;stroke:rgb(3,4,4);stroke-width:0.71px;"/>
        <path d="M282.312,293.031C264.054,289.852 245.283,291.447 227.824,297.665L235.037,274.375C244.943,273.051 254.918,272.318 264.911,272.179C274.903,272.318 284.879,273.051 294.785,274.375L299.929,291.269C294.037,291.649 288.161,292.236 282.312,293.031Z" style="fill:white;fill-rule:nonzero;"/>
        <path d="M282.312,293.031C264.054,289.852 245.283,291.447 227.824,297.665L235.037,274.375C244.943,273.051 254.918,272.318 264.911,272.179C274.903,272.318 284.879,273.051 294.785,274.375L299.929,291.269C294.037,291.649 288.161,292.236 282.312,293.031Z" style="fill:none;stroke:rgb(3,4,4);stroke-width:0.71px;"/>
        <path d="M227.021,320.125L227.021,307.069C224.787,305.881 222.108,305.881 219.874,307.069L219.874,320.125C222.108,321.314 224.787,321.314 227.021,320.125Z" style="fill:white;fill-rule:nonzero;"/>
        <path d="M227.021,320.125L227.021,307.069C224.787,305.881 222.108,305.881 219.874,307.069L219.874,320.125C222.108,321.314 224.787,321.314 227.021,320.125Z" style="fill:none;stroke:rgb(3,4,4);stroke-width:0.1px;"/>
        <path d="M348.771,321.366C337.297,321.957 325.87,323.259 314.558,325.267C299.325,324.661 284.118,326.978 269.757,332.091L277.772,306.213C288.778,304.743 299.861,303.929 310.965,303.774C322.067,303.929 333.151,304.743 344.158,306.213L348.771,321.366Z" style="fill:white;fill-rule:nonzero;"/>
        <path d="M348.771,321.366C337.297,321.957 325.87,323.259 314.558,325.267C299.325,324.661 284.118,326.978 269.757,332.091L277.772,306.213C288.778,304.743 299.861,303.929 310.965,303.774C322.067,303.929 333.151,304.743 344.158,306.213L348.771,321.366Z" style="fill:none;stroke:rgb(3,4,4);stroke-width:0.71px;"/>
        <path d="M268.865,357.048L268.865,342.54C266.383,341.221 263.406,341.221 260.924,342.54L260.924,357.048C263.406,358.368 266.383,358.368 268.865,357.048Z" style="fill:white;fill-rule:nonzero;"/>
        <path d="M268.865,357.048L268.865,342.54C266.383,341.221 263.406,341.221 260.924,342.54L260.924,357.048C263.406,358.368 266.383,358.368 268.865,357.048Z" style="fill:none;stroke:rgb(3,4,4);stroke-width:0.11px;"/>
        <path d="M403.404,367.933C373.921,356.703 341.4,356.349 311.679,366.931L320.583,338.179C332.813,336.544 345.128,335.64 357.464,335.467C369.801,335.64 382.116,336.544 394.346,338.179L403.404,367.933Z" style="fill:white;fill-rule:nonzero;"/>
        <path d="M403.404,367.933C373.921,356.703 341.4,356.349 311.679,366.931L320.583,338.179C332.813,336.544 345.128,335.64 357.464,335.467C369.801,335.64 382.116,336.544 394.346,338.179L403.404,367.933Z" style="fill:none;stroke:rgb(3,4,4);stroke-width:0.71px;"/>
        <path d="M310.687,394.66L310.687,378.541C307.929,377.074 304.622,377.074 301.863,378.541L301.863,394.66C304.622,396.128 307.929,396.128 310.687,394.66Z" style="fill:white;fill-rule:nonzero;"/>
        <path d="M310.687,394.66L310.687,378.541C307.929,377.074 304.622,377.074 301.863,378.541L301.863,394.66C304.622,396.128 307.929,396.128 310.687,394.66Z" style="fill:none;stroke:rgb(3,4,4);stroke-width:0.12px;"/>
        <path d="M404.242,394.66C407,396.128 410.308,396.128 413.065,394.66L413.065,378.541C410.308,377.074 407,377.074 404.242,378.541L404.242,394.66Z" style="fill:white;fill-rule:nonzero;"/>
        <path d="M404.242,394.66C407,396.128 410.308,396.128 413.065,394.66L413.065,378.541C410.308,377.074 407,377.074 404.242,378.541L404.242,394.66Z" style="fill:none;stroke:rgb(3,4,4);stroke-width:0.12px;"/>
    </g>
</svg>
