<?xml version="1.0" encoding="UTF-8" standalone="no"?>
<!DOCTYPE svg PUBLIC "-//W3C//DTD SVG 1.1//EN" "http://www.w3.org/Graphics/SVG/1.1/DTD/svg11.dtd">
<svg width="100%" height="100%" viewBox="0 0 2554 2236" version="1.1" xmlns="http://www.w3.org/2000/svg" xmlns:xlink="http://www.w3.org/1999/xlink" xml:space="preserve" xmlns:serif="http://www.serif.com/" style="fill-rule:evenodd;clip-rule:evenodd;stroke-linejoin:round;stroke-miterlimit:2;">
    <g>
        <path d="M1354.02,45.702L2540.2,2100.24L2540.59,2100.92L2540.98,2101.61L2541.36,2102.3L2541.73,2102.99L2542.09,2103.69L2542.45,2104.39L2542.81,2105.09L2543.16,2105.8L2543.5,2106.51L2543.83,2107.22L2544.16,2107.93L2544.48,2108.65L2544.8,2109.37L2545.11,2110.09L2545.41,2110.82L2545.71,2111.55L2546,2112.28L2546.28,2113.01L2546.56,2113.75L2546.83,2114.49L2547.1,2115.23L2547.36,2115.97L2547.61,2116.72L2547.85,2117.46L2548.09,2118.21L2548.32,2118.97L2548.55,2119.72L2548.77,2120.47L2548.98,2121.23L2549.18,2121.99L2549.38,2122.75L2549.58,2123.52L2549.76,2124.28L2549.94,2125.05L2550.11,2125.82L2550.28,2126.58L2550.43,2127.36L2550.59,2128.13L2550.73,2128.9L2550.87,2129.68L2551,2130.45L2551.12,2131.23L2551.24,2132.01L2551.35,2132.78L2551.45,2133.56L2551.55,2134.35L2551.64,2135.13L2551.72,2135.91L2551.8,2136.69L2551.87,2137.48L2551.93,2138.26L2551.99,2139.05L2552.03,2139.83L2552.08,2140.62L2552.11,2141.4L2552.14,2142.19L2552.16,2142.97L2552.17,2143.76L2552.18,2144.55L2552.18,2145.33L2552.17,2146.12L2552.16,2146.91L2552.14,2147.69L2552.11,2148.48L2552.08,2149.27L2552.03,2150.05L2551.99,2150.84L2551.93,2151.62L2551.87,2152.41L2551.8,2153.19L2551.72,2153.97L2551.64,2154.76L2551.55,2155.54L2551.45,2156.32L2551.35,2157.1L2551.24,2157.88L2551.12,2158.66L2551,2159.43L2550.87,2160.21L2550.73,2160.98L2550.59,2161.76L2550.43,2162.53L2550.28,2163.3L2550.11,2164.07L2549.94,2164.84L2549.76,2165.6L2549.58,2166.37L2549.38,2167.13L2549.18,2167.89L2548.98,2168.65L2548.77,2169.41L2548.55,2170.16L2548.32,2170.92L2548.09,2171.67L2547.85,2172.42L2547.61,2173.17L2547.36,2173.91L2547.1,2174.65L2546.83,2175.39L2546.56,2176.13L2546.28,2176.87L2546,2177.6L2545.71,2178.33L2545.41,2179.06L2545.11,2179.79L2544.8,2180.51L2544.48,2181.23L2544.16,2181.95L2543.83,2182.66L2543.5,2183.38L2543.16,2184.09L2542.81,2184.79L2542.45,2185.49L2542.09,2186.19L2541.73,2186.89L2541.36,2187.58L2540.98,2188.27L2540.59,2188.96L2540.2,2189.64L2539.81,2190.32L2539.4,2191L2539,2191.67L2538.58,2192.34L2538.16,2193.01L2537.74,2193.67L2537.3,2194.32L2536.87,2194.98L2536.42,2195.63L2535.97,2196.27L2535.52,2196.92L2535.06,2197.55L2534.59,2198.19L2534.12,2198.82L2533.65,2199.44L2533.16,2200.07L2532.68,2200.68L2532.18,2201.3L2531.68,2201.9L2531.18,2202.51L2530.67,2203.11L2530.16,2203.7L2529.64,2204.29L2529.11,2204.88L2528.58,2205.46L2528.05,2206.04L2527.51,2206.61L2526.96,2207.18L2526.41,2207.74L2525.86,2208.3L2525.3,2208.85L2524.73,2209.4L2524.16,2209.94L2523.59,2210.48L2523.01,2211.01L2522.42,2211.54L2521.84,2212.06L2521.24,2212.58L2520.65,2213.09L2520.04,2213.6L2519.44,2214.1L2518.83,2214.59L2518.21,2215.08L2517.59,2215.57L2516.97,2216.05L2516.34,2216.52L2515.71,2216.99L2515.07,2217.45L2514.43,2217.91L2513.79,2218.36L2513.14,2218.81L2512.49,2219.25L2511.83,2219.68L2511.17,2220.11L2510.51,2220.53L2509.84,2220.95L2509.17,2221.36L2508.5,2221.77L2507.82,2222.17L2507.14,2222.56L2506.45,2222.95L2505.76,2223.33L2505.07,2223.71L2504.38,2224.08L2503.68,2224.44L2502.98,2224.8L2502.28,2225.14L2501.57,2225.49L2500.86,2225.83L2500.14,2226.16L2499.43,2226.49L2498.71,2226.8L2497.99,2227.12L2497.26,2227.43L2496.54,2227.72L2495.81,2228.02L2495.07,2228.31L2494.34,2228.59L2493.6,2228.86L2492.86,2229.13L2492.12,2229.39L2491.38,2229.65L2490.63,2229.89L2489.88,2230.14L2489.13,2230.37L2488.38,2230.6L2487.62,2230.82L2486.87,2231.04L2486.11,2231.25L2485.35,2231.45L2484.59,2231.64L2483.82,2231.83L2483.06,2232.01L2482.29,2232.19L2481.52,2232.36L2480.75,2232.52L2479.98,2232.67L2479.21,2232.82L2478.43,2232.96L2477.66,2233.1L2476.88,2233.22L2476.1,2233.35L2475.33,2233.46L2474.55,2233.57L2473.76,2233.67L2472.98,2233.76L2472.2,2233.85L2471.42,2233.93L2470.64,2234L2469.85,2234.06L2469.07,2234.12L2468.28,2234.17L2467.5,2234.22L2466.71,2234.26L2465.92,2234.29L2465.14,2234.31L2464.35,2234.33L2463.57,2234.34L2462.78,2234.34L90.402,2234.34L89.619,2234.34L88.835,2234.33L88.052,2234.31L87.269,2234.29L86.486,2234.26L85.704,2234.22L84.921,2234.18L84.14,2234.12L83.358,2234.07L82.578,2234L81.797,2233.93L81.018,2233.85L80.239,2233.76L79.461,2233.67L78.684,2233.57L77.908,2233.47L77.133,2233.35L76.358,2233.23L75.585,2233.11L74.813,2232.97L74.042,2232.83L73.273,2232.69L72.504,2232.53L71.738,2232.37L70.972,2232.21L70.208,2232.03L69.446,2231.85L68.685,2231.67L67.926,2231.47L67.168,2231.27L66.413,2231.07L65.659,2230.85L64.907,2230.63L64.157,2230.4L63.409,2230.17L62.663,2229.93L61.92,2229.68L61.178,2229.43L60.439,2229.17L59.702,2228.91L58.967,2228.64L58.235,2228.36L57.505,2228.07L56.778,2227.78L56.054,2227.48L55.332,2227.18L54.612,2226.87L53.896,2226.55L53.182,2226.23L52.471,2225.9L51.763,2225.56L51.058,2225.22L50.356,2224.87L49.657,2224.52L48.961,2224.16L48.269,2223.79L47.579,2223.42L46.893,2223.04L46.211,2222.66L45.531,2222.27L44.855,2221.87L44.183,2221.47L43.514,2221.06L42.849,2220.65L42.187,2220.23L41.529,2219.8L40.875,2219.37L40.225,2218.93L39.578,2218.49L38.936,2218.04L38.297,2217.59L37.663,2217.13L37.032,2216.67L36.406,2216.2L35.783,2215.72L35.165,2215.24L34.551,2214.75L33.942,2214.26L33.336,2213.76L32.735,2213.26L32.139,2212.75L31.547,2212.24L30.959,2211.72L30.377,2211.2L29.798,2210.67L29.225,2210.13L28.656,2209.6L28.092,2209.05L27.532,2208.5L26.978,2207.95L26.428,2207.39L25.883,2206.83L25.343,2206.26L24.808,2205.69L24.278,2205.11L23.754,2204.53L23.234,2203.94L22.72,2203.35L22.21,2202.76L21.706,2202.16L21.208,2201.55L20.714,2200.95L20.226,2200.33L19.743,2199.72L19.266,2199.09L18.794,2198.47L18.328,2197.84L17.867,2197.2L17.412,2196.57L16.962,2195.93L16.518,2195.28L16.08,2194.63L15.648,2193.98L15.221,2193.32L14.8,2192.66L14.384,2192L13.975,2191.33L13.571,2190.66L13.174,2189.98L12.782,2189.3L12.396,2188.62L12.017,2187.93L11.643,2187.25L11.275,2186.55L10.913,2185.86L10.558,2185.16L10.209,2184.46L9.865,2183.76L9.528,2183.05L9.197,2182.34L8.873,2181.63L8.554,2180.91L8.242,2180.19L7.937,2179.47L7.637,2178.75L7.344,2178.02L7.058,2177.29L6.777,2176.56L6.503,2175.82L6.236,2175.09L5.975,2174.35L5.721,2173.61L5.473,2172.87L5.231,2172.12L4.996,2171.37L4.768,2170.62L4.546,2169.87L4.331,2169.12L4.122,2168.36L3.92,2167.61L3.725,2166.85L3.536,2166.09L3.354,2165.33L3.179,2164.56L3.011,2163.8L2.849,2163.03L2.694,2162.26L2.545,2161.49L2.403,2160.72L2.269,2159.95L2.14,2159.18L2.019,2158.4L1.904,2157.63L1.797,2156.85L1.696,2156.08L1.602,2155.3L1.514,2154.52L1.434,2153.74L1.36,2152.96L1.293,2152.18L1.233,2151.4L1.18,2150.62L1.134,2149.84L1.094,2149.05L1.062,2148.27L1.036,2147.49L1.017,2146.7L1.005,2145.92L1,2145.14L1.001,2144.35L1.01,2143.57L1.025,2142.79L1.048,2142L1.077,2141.22L1.113,2140.44L1.156,2139.66L1.206,2138.87L1.262,2138.09L1.326,2137.31L1.396,2136.53L1.473,2135.75L1.557,2134.97L1.648,2134.2L1.745,2133.42L1.85,2132.64L1.961,2131.87L2.079,2131.09L2.204,2130.32L2.335,2129.55L2.473,2128.77L2.619,2128L2.77,2127.24L2.929,2126.47L3.094,2125.7L3.266,2124.94L3.445,2124.18L3.63,2123.41L3.822,2122.65L4.021,2121.9L4.226,2121.14L4.438,2120.39L4.656,2119.63L4.881,2118.88L5.113,2118.14L5.351,2117.39L5.596,2116.64L5.847,2115.9L6.105,2115.16L6.369,2114.43L6.639,2113.69L6.917,2112.96L7.2,2112.23L7.49,2111.5L7.786,2110.77L8.089,2110.05L8.398,2109.33L8.713,2108.61L9.034,2107.9L9.362,2107.19L9.696,2106.48L10.036,2105.77L10.382,2105.07L10.735,2104.37L11.094,2103.67L11.458,2102.98L11.829,2102.29L12.206,2101.6L12.588,2100.92L12.977,2100.24L1199.16,45.702L1199.56,45.025L1199.96,44.352L1200.37,43.682L1200.78,43.016L1201.2,42.353L1201.62,41.694L1202.05,41.039L1202.49,40.388L1202.93,39.741L1203.38,39.097L1203.83,38.457L1204.29,37.822L1204.75,37.19L1205.22,36.563L1205.69,35.939L1206.17,35.32L1206.66,34.705L1207.15,34.094L1207.64,33.488L1208.15,32.886L1208.65,32.289L1209.16,31.695L1209.68,31.107L1210.2,30.523L1210.73,29.943L1211.26,29.369L1211.8,28.798L1212.34,28.233L1212.89,27.672L1213.44,27.117L1214,26.566L1214.56,26.02L1215.13,25.478L1215.7,24.942L1216.28,24.411L1216.86,23.885L1217.44,23.364L1218.03,22.849L1218.62,22.338L1219.22,21.833L1219.83,21.333L1220.43,20.838L1221.05,20.349L1221.66,19.864L1222.28,19.386L1222.91,18.913L1223.54,18.445L1224.17,17.983L1224.8,17.526L1225.44,17.075L1226.09,16.63L1226.74,16.19L1227.39,15.756L1228.05,15.328L1228.71,14.905L1229.37,14.489L1230.04,14.078L1230.71,13.673L1231.38,13.274L1232.06,12.88L1232.74,12.493L1233.42,12.112L1234.11,11.736L1234.8,11.367L1235.5,11.004L1236.19,10.647L1236.89,10.296L1237.6,9.952L1238.31,9.613L1239.01,9.281L1239.73,8.954L1240.44,8.634L1241.16,8.321L1241.88,8.013L1242.6,7.713L1243.33,7.418L1244.06,7.13L1244.79,6.848L1245.52,6.572L1246.26,6.303L1247,6.04L1247.74,5.784L1248.48,5.535L1249.22,5.292L1249.97,5.055L1250.72,4.825L1251.47,4.602L1252.22,4.385L1252.98,4.175L1253.74,3.971L1254.49,3.774L1255.25,3.584L1256.02,3.4L1256.78,3.223L1257.54,3.053L1258.31,2.89L1259.08,2.733L1259.85,2.582L1260.62,2.439L1261.39,2.303L1262.16,2.173L1262.93,2.049L1263.71,1.933L1264.48,1.824L1265.26,1.721L1266.04,1.625L1266.82,1.536L1267.6,1.454L1268.38,1.379L1269.16,1.31L1269.94,1.248L1270.72,1.193L1271.5,1.145L1272.28,1.104L1273.07,1.07L1273.85,1.042L1274.63,1.022L1275.41,1.008L1276.2,1.001L1276.98,1.001L1277.77,1.008L1278.55,1.022L1279.33,1.042L1280.12,1.07L1280.9,1.104L1281.68,1.145L1282.46,1.193L1283.24,1.248L1284.02,1.31L1284.81,1.379L1285.59,1.454L1286.36,1.536L1287.14,1.625L1287.92,1.721L1288.7,1.824L1289.47,1.933L1290.25,2.049L1291.02,2.173L1291.79,2.303L1292.57,2.439L1293.34,2.582L1294.1,2.733L1294.87,2.89L1295.64,3.053L1296.4,3.223L1297.16,3.4L1297.93,3.584L1298.69,3.774L1299.44,3.971L1300.2,4.175L1300.96,4.385L1301.71,4.602L1302.46,4.825L1303.21,5.055L1303.96,5.292L1304.7,5.535L1305.44,5.784L1306.18,6.04L1306.92,6.303L1307.66,6.572L1308.39,6.848L1309.12,7.13L1309.85,7.418L1310.58,7.713L1311.3,8.013L1312.02,8.321L1312.74,8.634L1313.45,8.954L1314.17,9.281L1314.88,9.613L1315.58,9.952L1316.29,10.296L1316.99,10.647L1317.68,11.004L1318.38,11.367L1319.07,11.736L1319.76,12.112L1320.44,12.493L1321.12,12.88L1321.8,13.274L1322.47,13.673L1323.14,14.078L1323.81,14.489L1324.48,14.905L1325.13,15.328L1325.79,15.756L1326.44,16.19L1327.09,16.63L1327.74,17.075L1328.38,17.526L1329.01,17.983L1329.64,18.445L1330.27,18.913L1330.9,19.386L1331.52,19.864L1332.13,20.349L1332.75,20.838L1333.35,21.333L1333.96,21.833L1334.56,22.338L1335.15,22.849L1335.74,23.364L1336.33,23.885L1336.9,24.411L1337.48,24.942L1338.05,25.478L1338.62,26.02L1339.18,26.566L1339.74,27.117L1340.29,27.672L1340.84,28.233L1341.38,28.798L1341.92,29.369L1342.45,29.943L1342.98,30.523L1343.5,31.107L1344.02,31.695L1344.53,32.289L1345.03,32.886L1345.54,33.488L1346.03,34.094L1346.52,34.705L1347.01,35.32L1347.49,35.939L1347.96,36.563L1348.43,37.19L1348.89,37.822L1349.35,38.457L1349.81,39.097L1350.25,39.741L1350.69,40.388L1351.13,41.039L1351.56,41.694L1351.98,42.353L1352.4,43.016L1352.81,43.682L1353.22,44.352L1353.62,45.025L1354.02,45.702Z" style="fill:rgb(211,63,39);"/>
        <path d="M400.101,1966.14L1276.59,448.013L2153.08,1966.14L400.101,1966.14Z" style="fill:white;"/>
        <path d="M807.083,1682.44L806.114,1682.45L805.144,1682.46L804.175,1682.48L803.206,1682.51L802.238,1682.55L801.269,1682.6L800.301,1682.66L799.334,1682.72L798.367,1682.79L797.401,1682.88L796.436,1682.97L795.472,1683.06L794.508,1683.17L793.546,1683.29L792.584,1683.41L791.624,1683.55L790.665,1683.69L789.707,1683.84L788.751,1684L787.796,1684.16L786.842,1684.34L785.89,1684.52L784.94,1684.72L783.992,1684.91L783.045,1685.12L782.1,1685.34L781.158,1685.57L780.217,1685.8L779.278,1686.05L778.342,1686.3L777.408,1686.56L776.476,1686.82L775.547,1687.1L774.62,1687.38L773.696,1687.68L772.774,1687.98L771.855,1688.29L770.939,1688.6L770.026,1688.93L769.115,1689.26L768.208,1689.6L767.303,1689.95L766.402,1690.31L765.504,1690.68L764.61,1691.05L763.718,1691.43L762.83,1691.82L761.946,1692.22L761.065,1692.62L760.188,1693.03L759.314,1693.45L758.444,1693.88L757.578,1694.32L756.716,1694.76L755.858,1695.21L755.004,1695.67L754.154,1696.14L753.309,1696.61L752.467,1697.09L751.63,1697.58L750.797,1698.08L749.969,1698.58L749.145,1699.09L748.326,1699.61L747.511,1700.14L746.701,1700.67L745.896,1701.21L745.096,1701.76L744.3,1702.31L743.51,1702.87L742.724,1703.44L741.944,1704.02L741.169,1704.6L740.399,1705.19L739.634,1705.78L738.874,1706.39L738.12,1707L737.372,1707.61L736.628,1708.23L735.891,1708.86L735.159,1709.5L734.433,1710.14L733.712,1710.79L732.997,1711.44L732.288,1712.11L731.926,1712.45L731.566,1712.8L731.209,1713.15L730.856,1713.5L730.505,1713.86L730.158,1714.22L729.814,1714.58L729.473,1714.95L729.136,1715.32L728.801,1715.69L728.47,1716.07L728.143,1716.44L727.818,1716.82L727.497,1717.21L727.18,1717.59L726.866,1717.98L726.555,1718.38L726.248,1718.77L725.944,1719.17L725.644,1719.57L725.347,1719.97L725.054,1720.38L724.764,1720.78L724.478,1721.19L724.196,1721.61L723.917,1722.02L723.642,1722.44L723.371,1722.86L723.103,1723.28L722.839,1723.71L722.579,1724.13L722.323,1724.56L722.07,1725L721.822,1725.43L721.577,1725.87L721.336,1726.3L721.099,1726.74L720.865,1727.19L720.636,1727.63L720.411,1728.08L720.189,1728.53L719.971,1728.98L719.758,1729.43L719.548,1729.88L719.343,1730.34L719.141,1730.8L718.944,1731.26L718.75,1731.72L718.561,1732.18L718.376,1732.65L718.195,1733.11L718.018,1733.58L717.845,1734.05L717.676,1734.52L717.511,1734.99L717.351,1735.47L717.195,1735.94L717.043,1736.42L716.895,1736.9L716.751,1737.38L716.612,1737.86L716.476,1738.34L716.346,1738.82L716.219,1739.3L716.096,1739.79L715.978,1740.27L715.865,1740.76L715.755,1741.25L715.65,1741.74L715.549,1742.23L715.452,1742.72L715.36,1743.21L715.272,1743.7L715.189,1744.2L715.109,1744.69L715.034,1745.18L714.964,1745.68L714.898,1746.18L714.836,1746.67L714.779,1747.17L714.726,1747.67L714.677,1748.16L714.633,1748.66L714.593,1749.16L714.558,1749.66L714.527,1750.16L714.5,1750.66L714.478,1751.16L714.46,1751.66L714.446,1752.16L714.437,1752.66L714.433,1753.16L714.433,1753.66L714.437,1754.16L714.445,1754.66L714.458,1755.16L714.476,1755.66L714.498,1756.16L714.524,1756.66L714.555,1757.16L714.59,1757.66L714.629,1758.15L714.673,1758.65L714.721,1759.15L714.774,1759.65L714.831,1760.15L714.892,1760.64L714.958,1761.14L715.028,1761.63L715.102,1762.13L715.181,1762.62L715.264,1763.12L715.352,1763.61L715.444,1764.1L715.54,1764.59L715.64,1765.08L715.745,1765.57L715.854,1766.06L715.968,1766.55L716.086,1767.03L716.208,1767.52L716.334,1768L716.464,1768.48L716.599,1768.96L716.738,1769.44L716.881,1769.92L717.029,1770.4L717.181,1770.88L717.337,1771.35L717.497,1771.83L717.661,1772.3L717.829,1772.77L718.002,1773.24L718.178,1773.71L718.359,1774.17L718.544,1774.64L718.733,1775.1L718.926,1775.57L719.123,1776.02L719.324,1776.48L719.53,1776.94L719.739,1777.39L719.952,1777.85L720.169,1778.3L720.39,1778.75L720.615,1779.19L720.844,1779.64L721.077,1780.08L721.314,1780.52L721.555,1780.96L721.799,1781.39L722.048,1781.83L722.3,1782.26L722.556,1782.69L722.816,1783.12L723.079,1783.54L723.347,1783.97L723.618,1784.39L723.892,1784.8L724.171,1785.22L724.453,1785.63L724.738,1786.04L725.027,1786.45L725.32,1786.86L725.617,1787.26L725.917,1787.66L726.22,1788.06L726.527,1788.45L726.837,1788.85L727.151,1789.23L727.469,1789.62L727.789,1790.01L728.113,1790.39L728.441,1790.76L728.771,1791.14L729.105,1791.51L729.443,1791.88L729.783,1792.25L730.127,1792.61L730.474,1792.97L730.824,1793.33L731.177,1793.68L731.533,1794.03L731.893,1794.38L732.255,1794.73L732.621,1795.07L732.989,1795.41L733.361,1795.74L733.735,1796.07L734.112,1796.4L734.493,1796.73L734.876,1797.05L735.261,1797.37L735.65,1797.68L736.042,1797.99L736.436,1798.3L736.832,1798.61L750.164,1808.64L763.59,1818.55L777.111,1828.33L790.725,1837.98L804.43,1847.5L818.225,1856.89L832.11,1866.15L834.078,1867.43L836.056,1868.7L838.047,1869.95L840.048,1871.18L842.06,1872.39L844.083,1873.59L846.117,1874.77L848.161,1875.93L850.216,1877.07L852.28,1878.19L854.355,1879.3L856.439,1880.38L858.534,1881.45L860.637,1882.5L862.75,1883.52L864.872,1884.53L867.003,1885.53L869.143,1886.5L871.292,1887.45L873.449,1888.38L875.614,1889.3L877.787,1890.19L879.969,1891.06L882.158,1891.92L884.354,1892.75L886.558,1893.57L888.769,1894.37L890.988,1895.14L893.213,1895.9L895.445,1896.63L897.683,1897.35L899.928,1898.05L902.179,1898.72L904.436,1899.38L906.698,1900.01L908.967,1900.63L911.24,1901.22L913.519,1901.79L915.803,1902.35L918.092,1902.88L920.386,1903.39L922.684,1903.88L924.986,1904.36L927.293,1904.81L929.603,1905.24L931.917,1905.65L934.235,1906.03L936.556,1906.4L938.881,1906.75L941.208,1907.07L943.538,1907.38L945.871,1907.66L948.207,1907.93L950.544,1908.17L952.884,1908.39L955.225,1908.59L957.569,1908.77L959.913,1908.93L962.259,1909.06L964.607,1909.18L966.955,1909.27L969.304,1909.35L971.653,1909.4L974.003,1909.43L976.353,1909.44L1687.91,1909.44L1690.26,1909.43L1692.61,1909.4L1694.96,1909.35L1697.31,1909.27L1699.65,1909.18L1702,1909.06L1704.35,1908.93L1706.69,1908.77L1709.03,1908.59L1711.38,1908.39L1713.72,1908.17L1716.05,1907.93L1718.39,1907.66L1720.72,1907.38L1723.05,1907.07L1725.38,1906.75L1727.7,1906.4L1730.02,1906.03L1732.34,1905.65L1734.66,1905.24L1736.97,1904.81L1739.27,1904.36L1741.58,1903.88L1743.87,1903.39L1746.17,1902.88L1748.46,1902.35L1750.74,1901.79L1753.02,1901.22L1755.29,1900.63L1757.56,1900.01L1759.82,1899.38L1762.08,1898.72L1764.33,1898.05L1766.58,1897.35L1768.82,1896.63L1771.05,1895.9L1773.27,1895.14L1775.49,1894.37L1777.7,1893.57L1779.9,1892.75L1782.1,1891.92L1784.29,1891.06L1786.47,1890.19L1788.65,1889.3L1790.81,1888.38L1792.97,1887.45L1795.12,1886.5L1797.26,1885.53L1799.39,1884.53L1801.51,1883.52L1803.62,1882.5L1805.73,1881.45L1807.82,1880.38L1809.9,1879.3L1811.98,1878.19L1814.04,1877.07L1816.1,1875.93L1818.14,1874.77L1820.18,1873.59L1822.2,1872.39L1824.21,1871.18L1826.21,1869.95L1828.2,1868.7L1830.18,1867.43L1832.15,1866.15L1846.03,1856.89L1859.83,1847.5L1873.54,1837.98L1887.15,1828.33L1900.67,1818.55L1914.1,1808.64L1927.43,1798.61L1927.82,1798.3L1928.22,1797.99L1928.61,1797.68L1929,1797.37L1929.38,1797.05L1929.77,1796.73L1930.15,1796.4L1930.52,1796.07L1930.9,1795.74L1931.27,1795.41L1931.64,1795.07L1932,1794.73L1932.37,1794.38L1932.73,1794.03L1933.08,1793.68L1933.44,1793.33L1933.79,1792.97L1934.13,1792.61L1934.48,1792.25L1934.82,1791.88L1935.15,1791.51L1935.49,1791.14L1935.82,1790.76L1936.15,1790.39L1936.47,1790.01L1936.79,1789.62L1937.11,1789.23L1937.42,1788.85L1937.73,1788.45L1938.04,1788.06L1938.34,1787.66L1938.64,1787.26L1938.94,1786.86L1939.23,1786.45L1939.52,1786.04L1939.81,1785.63L1940.09,1785.22L1940.37,1784.8L1940.64,1784.39L1940.91,1783.97L1941.18,1783.54L1941.44,1783.12L1941.7,1782.69L1941.96,1782.26L1942.21,1781.83L1942.46,1781.39L1942.7,1780.96L1942.94,1780.52L1943.18,1780.08L1943.41,1779.64L1943.64,1779.19L1943.87,1778.75L1944.09,1778.3L1944.31,1777.85L1944.52,1777.39L1944.73,1776.94L1944.93,1776.48L1945.14,1776.02L1945.33,1775.57L1945.53,1775.1L1945.72,1774.64L1945.9,1774.17L1946.08,1773.71L1946.26,1773.24L1946.43,1772.77L1946.6,1772.3L1946.76,1771.83L1946.92,1771.35L1947.08,1770.88L1947.23,1770.4L1947.38,1769.92L1947.52,1769.44L1947.66,1768.96L1947.8,1768.48L1947.93,1768L1948.05,1767.52L1948.17,1767.03L1948.29,1766.55L1948.4,1766.06L1948.51,1765.57L1948.62,1765.08L1948.72,1764.59L1948.82,1764.1L1948.91,1763.61L1949,1763.12L1949.08,1762.62L1949.16,1762.13L1949.23,1761.63L1949.3,1761.14L1949.37,1760.64L1949.43,1760.15L1949.49,1759.65L1949.54,1759.15L1949.59,1758.65L1949.63,1758.15L1949.67,1757.66L1949.7,1757.16L1949.74,1756.66L1949.76,1756.16L1949.78,1755.66L1949.8,1755.16L1949.81,1754.66L1949.82,1754.16L1949.83,1753.66L1949.83,1753.16L1949.82,1752.66L1949.81,1752.16L1949.8,1751.66L1949.78,1751.16L1949.76,1750.66L1949.73,1750.16L1949.7,1749.66L1949.67,1749.16L1949.63,1748.66L1949.58,1748.16L1949.53,1747.67L1949.48,1747.17L1949.42,1746.67L1949.36,1746.18L1949.3,1745.68L1949.23,1745.18L1949.15,1744.69L1949.07,1744.2L1948.99,1743.7L1948.9,1743.21L1948.81,1742.72L1948.71,1742.23L1948.61,1741.74L1948.51,1741.25L1948.39,1740.76L1948.28,1740.27L1948.16,1739.79L1948.04,1739.3L1947.91,1738.82L1947.78,1738.34L1947.65,1737.86L1947.51,1737.38L1947.37,1736.9L1947.22,1736.42L1947.07,1735.94L1946.91,1735.47L1946.75,1734.99L1946.58,1734.52L1946.41,1734.05L1946.24,1733.58L1946.07,1733.11L1945.88,1732.65L1945.7,1732.18L1945.51,1731.72L1945.32,1731.26L1945.12,1730.8L1944.92,1730.34L1944.71,1729.88L1944.5,1729.43L1944.29,1728.98L1944.07,1728.53L1943.85,1728.08L1943.62,1727.63L1943.39,1727.19L1943.16,1726.74L1942.92,1726.3L1942.68,1725.87L1942.44,1725.43L1942.19,1725L1941.94,1724.56L1941.68,1724.13L1941.42,1723.71L1941.16,1723.28L1940.89,1722.86L1940.62,1722.44L1940.34,1722.02L1940.06,1721.61L1939.78,1721.19L1939.5,1720.78L1939.21,1720.38L1938.91,1719.97L1938.62,1719.57L1938.32,1719.17L1938.01,1718.77L1937.7,1718.38L1937.39,1717.98L1937.08,1717.59L1936.76,1717.21L1936.44,1716.82L1936.12,1716.44L1935.79,1716.07L1935.46,1715.69L1935.12,1715.32L1934.79,1714.95L1934.44,1714.58L1934.1,1714.22L1933.75,1713.86L1933.4,1713.5L1933.05,1713.15L1932.69,1712.8L1932.33,1712.45L1931.97,1712.11L1931.26,1711.44L1930.55,1710.79L1929.83,1710.14L1929.1,1709.5L1928.37,1708.86L1927.63,1708.23L1926.89,1707.61L1926.14,1707L1925.38,1706.39L1924.63,1705.78L1923.86,1705.19L1923.09,1704.6L1922.32,1704.02L1921.54,1703.44L1920.75,1702.87L1919.96,1702.31L1919.16,1701.76L1918.36,1701.21L1917.56,1700.67L1916.75,1700.14L1915.93,1699.61L1915.11,1699.09L1914.29,1698.58L1913.46,1698.08L1912.63,1697.58L1911.79,1697.09L1910.95,1696.61L1910.11,1696.14L1909.26,1695.67L1908.4,1695.21L1907.54,1694.76L1906.68,1694.32L1905.82,1693.88L1904.94,1693.45L1904.07,1693.03L1903.19,1692.62L1902.31,1692.22L1901.43,1691.82L1900.54,1691.43L1899.65,1691.05L1898.76,1690.68L1897.86,1690.31L1896.96,1689.95L1896.05,1689.6L1895.14,1689.26L1894.23,1688.93L1893.32,1688.6L1892.4,1688.29L1891.49,1687.98L1890.56,1687.68L1889.64,1687.38L1888.71,1687.1L1887.78,1686.82L1886.85,1686.56L1885.92,1686.3L1884.98,1686.05L1884.04,1685.8L1883.1,1685.57L1882.16,1685.34L1881.21,1685.12L1880.27,1684.91L1879.32,1684.72L1878.37,1684.52L1877.42,1684.34L1876.46,1684.16L1875.51,1684L1874.55,1683.84L1873.6,1683.69L1872.64,1683.55L1871.67,1683.41L1870.71,1683.29L1869.75,1683.17L1868.79,1683.06L1867.82,1682.97L1866.86,1682.88L1865.89,1682.79L1864.92,1682.72L1863.96,1682.66L1862.99,1682.6L1862.02,1682.55L1861.05,1682.51L1860.08,1682.48L1859.12,1682.46L1858.15,1682.45L1857.18,1682.44L807.083,1682.44Z"/>
        <path d="M814.171,1531.87L814.186,1531.93L814.201,1531.99L814.215,1532.05L814.229,1532.11L814.242,1532.17L814.254,1532.23L814.266,1532.29L814.277,1532.35L814.288,1532.41L814.299,1532.47L814.308,1532.53L814.318,1532.59L814.326,1532.65L814.335,1532.71L814.342,1532.77L814.349,1532.84L814.356,1532.9L814.368,1533.02L814.373,1533.08L814.377,1533.14L814.381,1533.2L814.384,1533.27L814.387,1533.33L814.389,1533.39L814.391,1533.45L814.392,1533.51L814.393,1533.57L814.393,1533.69L814.392,1533.76L814.39,1533.82L814.388,1533.88L814.385,1533.94L814.382,1534L814.379,1534.06L814.374,1534.13L814.364,1534.25L814.358,1534.31L814.352,1534.37L814.345,1534.43L814.338,1534.49L814.329,1534.55L814.321,1534.62L814.312,1534.68L814.302,1534.74L814.292,1534.8L814.281,1534.86L814.27,1534.92L814.258,1534.98L814.246,1535.04L814.22,1535.16L814.192,1535.28L814.177,1535.34L814.145,1535.46L814.129,1535.52L814.112,1535.58L814.076,1535.69L814.058,1535.75L814.039,1535.81L814.019,1535.87L813.999,1535.93L813.978,1535.99L813.957,1536.04L813.936,1536.1L813.913,1536.16L813.891,1536.22L813.868,1536.27L813.82,1536.39L813.795,1536.44L813.77,1536.5L813.718,1536.61L813.691,1536.66L813.637,1536.78L813.609,1536.83L813.58,1536.88L813.551,1536.94L813.521,1536.99L813.492,1537.05L813.399,1537.21L813.367,1537.26L813.334,1537.31L813.302,1537.36L813.268,1537.41L813.235,1537.47L813.201,1537.52L813.166,1537.57L813.131,1537.62L813.095,1537.67L813.06,1537.72L813.023,1537.77L812.949,1537.87L812.911,1537.92L812.873,1537.96L812.835,1538.01L812.796,1538.06L812.756,1538.11L812.717,1538.15L812.676,1538.2L812.636,1538.25L812.595,1538.29L812.553,1538.34L812.512,1538.38L812.469,1538.43L812.427,1538.47L812.384,1538.52L812.34,1538.56L812.297,1538.6L812.253,1538.65L812.208,1538.69L812.163,1538.73L812.118,1538.77L812.072,1538.81L812.026,1538.86L811.98,1538.89L811.933,1538.93L811.886,1538.98L811.839,1539.01L811.791,1539.05L811.743,1539.09L811.695,1539.13L811.646,1539.17L811.597,1539.2L811.547,1539.24L811.498,1539.28L811.448,1539.31L811.397,1539.35L811.347,1539.38L811.296,1539.42L811.244,1539.45L811.193,1539.49L811.141,1539.52L811.089,1539.55L811.036,1539.58L810.984,1539.62L810.931,1539.65L810.877,1539.68L810.824,1539.71L810.77,1539.74L810.716,1539.77L810.662,1539.8L810.607,1539.82L810.497,1539.88L810.442,1539.91L810.386,1539.93L810.331,1539.96L810.275,1539.98L810.218,1540.01L810.162,1540.03L810.048,1540.08L809.991,1540.1L809.934,1540.13L809.877,1540.15L809.819,1540.17L809.761,1540.19L809.703,1540.21L809.587,1540.25L809.528,1540.27L809.41,1540.31L809.351,1540.32L809.292,1540.34L809.233,1540.36L809.173,1540.37L809.114,1540.39L809.054,1540.4L808.994,1540.42L808.814,1540.46L808.754,1540.47L808.693,1540.48L808.633,1540.49L808.511,1540.51L808.451,1540.52L808.39,1540.53L808.268,1540.55L808.207,1540.55L808.145,1540.56L808.084,1540.57L808.023,1540.57L807.962,1540.58L807.9,1540.58L807.839,1540.59L807.777,1540.59L807.716,1540.59L807.655,1540.6L807.593,1540.6L807.532,1540.6L807.47,1540.6L747.978,1540.6L747.917,1540.6L747.856,1540.6L747.795,1540.6L747.733,1540.59L747.672,1540.59L747.611,1540.59L747.55,1540.58L747.428,1540.57L747.366,1540.57L747.306,1540.56L747.245,1540.55L747.184,1540.55L747.062,1540.53L747.002,1540.52L746.941,1540.51L746.88,1540.5L746.82,1540.49L746.76,1540.48L746.7,1540.47L746.639,1540.46L746.579,1540.44L746.52,1540.43L746.46,1540.42L746.4,1540.4L746.341,1540.39L746.281,1540.37L746.163,1540.34L746.104,1540.33L746.045,1540.31L745.986,1540.29L745.928,1540.27L745.87,1540.25L745.811,1540.23L745.753,1540.21L745.696,1540.19L745.638,1540.17L745.581,1540.15L745.523,1540.13L745.466,1540.11L745.409,1540.09L745.353,1540.06L745.296,1540.04L745.24,1540.01L745.128,1539.96L745.072,1539.94L745.017,1539.91L744.962,1539.88L744.907,1539.86L744.852,1539.83L744.798,1539.8L744.69,1539.74L744.636,1539.71L744.583,1539.68L744.53,1539.65L744.477,1539.62L744.424,1539.59L744.372,1539.56L744.32,1539.53L744.268,1539.49L744.217,1539.46L744.166,1539.43L744.115,1539.39L744.064,1539.36L744.014,1539.32L743.964,1539.29L743.914,1539.25L743.865,1539.21L743.816,1539.18L743.767,1539.14L743.623,1539.03L743.576,1538.99L743.529,1538.95L743.483,1538.91L743.436,1538.87L743.39,1538.83L743.345,1538.79L743.3,1538.74L743.255,1538.7L743.166,1538.62L743.036,1538.49L742.994,1538.44L742.951,1538.4L742.91,1538.35L742.868,1538.31L742.827,1538.26L742.787,1538.22L742.746,1538.17L742.707,1538.12L742.667,1538.08L742.628,1538.03L742.59,1537.98L742.552,1537.93L742.514,1537.89L742.477,1537.84L742.403,1537.74L742.367,1537.69L742.332,1537.64L742.297,1537.59L742.262,1537.54L742.194,1537.44L742.161,1537.39L742.128,1537.33L742.064,1537.23L742.032,1537.18L741.97,1537.07L741.94,1537.02L741.853,1536.86L741.825,1536.8L741.797,1536.75L741.77,1536.69L741.743,1536.64L741.717,1536.58L741.691,1536.53L741.616,1536.36L741.593,1536.3L741.569,1536.25L741.546,1536.19L741.524,1536.13L741.502,1536.07L741.481,1536.02L741.46,1535.96L741.44,1535.9L741.42,1535.84L741.382,1535.73L741.364,1535.67L741.346,1535.61L741.329,1535.55L741.312,1535.49L741.28,1535.37L741.265,1535.31L741.25,1535.25L741.236,1535.19L741.222,1535.13L741.209,1535.07L741.197,1535.01L741.173,1534.89L741.162,1534.83L741.152,1534.77L741.142,1534.71L741.133,1534.65L741.124,1534.59L741.115,1534.53L741.108,1534.47L741.1,1534.41L741.088,1534.29L741.082,1534.23L741.077,1534.16L741.072,1534.1L741.068,1534.04L741.062,1533.92L741.059,1533.86L741.057,1533.8L741.056,1533.74L741.055,1533.68L741.055,1495.14L741.056,1495.08L741.057,1495.02L741.059,1494.95L741.065,1494.83L741.068,1494.77L741.072,1494.71L741.077,1494.65L741.082,1494.59L741.088,1494.53L741.1,1494.4L741.108,1494.34L741.115,1494.28L741.124,1494.22L741.133,1494.16L741.142,1494.1L741.152,1494.04L741.162,1493.98L741.173,1493.92L741.197,1493.8L741.209,1493.74L741.222,1493.68L741.236,1493.62L741.25,1493.56L741.265,1493.5L741.28,1493.44L741.296,1493.38L741.312,1493.32L741.329,1493.26L741.346,1493.2L741.382,1493.09L741.42,1492.97L741.46,1492.86L741.481,1492.8L741.502,1492.74L741.524,1492.68L741.546,1492.63L741.569,1492.57L741.593,1492.51L741.616,1492.46L741.641,1492.4L741.666,1492.34L741.691,1492.29L741.717,1492.23L741.743,1492.18L741.77,1492.12L741.797,1492.07L741.853,1491.96L741.911,1491.85L741.94,1491.8L741.97,1491.74L742.032,1491.64L742.064,1491.58L742.096,1491.53L742.128,1491.48L742.161,1491.43L742.194,1491.38L742.262,1491.27L742.297,1491.22L742.332,1491.17L742.367,1491.12L742.403,1491.07L742.514,1490.93L742.552,1490.88L742.628,1490.78L742.667,1490.74L742.707,1490.69L742.746,1490.64L742.787,1490.6L742.827,1490.55L742.868,1490.5L742.91,1490.46L742.951,1490.41L742.994,1490.37L743.036,1490.33L743.079,1490.28L743.123,1490.24L743.166,1490.2L743.21,1490.15L743.3,1490.07L743.345,1490.03L743.39,1489.99L743.436,1489.95L743.483,1489.91L743.529,1489.87L743.623,1489.79L743.671,1489.75L743.719,1489.71L743.767,1489.67L743.816,1489.64L743.865,1489.6L743.914,1489.56L743.964,1489.53L744.014,1489.49L744.064,1489.46L744.115,1489.42L744.166,1489.39L744.217,1489.35L744.268,1489.32L744.32,1489.29L744.372,1489.26L744.424,1489.22L744.583,1489.13L744.636,1489.1L744.69,1489.07L744.798,1489.01L744.852,1488.98L744.907,1488.96L744.962,1488.93L745.017,1488.9L745.072,1488.88L745.128,1488.85L745.24,1488.8L745.296,1488.78L745.353,1488.75L745.409,1488.73L745.466,1488.71L745.523,1488.68L745.581,1488.66L745.638,1488.64L745.696,1488.62L745.753,1488.6L745.811,1488.58L745.87,1488.56L745.928,1488.54L745.986,1488.52L746.045,1488.51L746.104,1488.49L746.163,1488.47L746.222,1488.45L746.281,1488.44L746.341,1488.42L746.4,1488.41L746.46,1488.4L746.52,1488.38L746.579,1488.37L746.639,1488.36L746.7,1488.34L746.88,1488.31L746.941,1488.3L747.002,1488.29L747.062,1488.28L747.184,1488.27L747.306,1488.25L747.366,1488.25L747.428,1488.24L747.489,1488.24L747.55,1488.23L747.611,1488.23L747.672,1488.22L747.733,1488.22L747.856,1488.22L747.917,1488.22L747.978,1488.21L807.47,1488.21L807.531,1488.22L807.592,1488.22L807.654,1488.22L807.715,1488.22L807.776,1488.22L807.837,1488.23L807.96,1488.24L808.021,1488.24L808.082,1488.25L808.143,1488.25L808.204,1488.26L808.264,1488.27L808.386,1488.28L808.447,1488.29L808.507,1488.3L808.568,1488.31L808.748,1488.34L808.809,1488.36L808.869,1488.37L808.928,1488.38L808.988,1488.4L809.048,1488.41L809.107,1488.42L809.167,1488.44L809.226,1488.45L809.285,1488.47L809.344,1488.49L809.403,1488.51L809.462,1488.52L809.52,1488.54L809.579,1488.56L809.637,1488.58L809.695,1488.6L809.752,1488.62L809.868,1488.66L809.925,1488.68L809.982,1488.71L810.039,1488.73L810.095,1488.75L810.152,1488.78L810.208,1488.8L810.32,1488.85L810.376,1488.88L810.431,1488.9L810.486,1488.93L810.541,1488.96L810.596,1488.98L810.65,1489.01L810.758,1489.07L810.812,1489.1L810.865,1489.13L811.024,1489.22L811.076,1489.26L811.128,1489.29L811.18,1489.32L811.231,1489.35L811.283,1489.39L811.333,1489.42L811.384,1489.46L811.434,1489.49L811.484,1489.53L811.534,1489.56L811.583,1489.6L811.632,1489.64L811.681,1489.67L811.729,1489.71L811.777,1489.75L811.825,1489.79L811.919,1489.87L811.966,1489.91L812.012,1489.95L812.058,1489.99L812.103,1490.03L812.148,1490.07L812.238,1490.15L812.282,1490.2L812.326,1490.24L812.369,1490.28L812.412,1490.33L812.454,1490.37L812.497,1490.41L812.538,1490.46L812.58,1490.5L812.621,1490.55L812.661,1490.6L812.702,1490.64L812.741,1490.69L812.781,1490.74L812.82,1490.78L812.896,1490.88L812.934,1490.93L813.045,1491.07L813.081,1491.12L813.116,1491.17L813.151,1491.22L813.186,1491.27L813.254,1491.38L813.287,1491.43L813.32,1491.48L813.353,1491.53L813.385,1491.58L813.416,1491.64L813.478,1491.74L813.508,1491.8L813.537,1491.85L813.595,1491.96L813.651,1492.07L813.678,1492.12L813.705,1492.18L813.731,1492.23L813.757,1492.29L813.782,1492.34L813.807,1492.4L813.832,1492.46L813.855,1492.51L813.879,1492.57L813.902,1492.63L813.924,1492.68L813.946,1492.74L813.967,1492.8L813.988,1492.86L814.028,1492.97L814.066,1493.09L814.102,1493.2L814.119,1493.26L814.136,1493.32L814.152,1493.38L814.168,1493.44L814.183,1493.5L814.198,1493.56L814.212,1493.62L814.226,1493.68L814.239,1493.74L814.251,1493.8L814.275,1493.92L814.286,1493.98L814.306,1494.1L814.316,1494.16L814.324,1494.22L814.333,1494.28L814.34,1494.34L814.348,1494.4L814.36,1494.53L814.366,1494.59L814.371,1494.65L814.376,1494.71L814.38,1494.77L814.383,1494.83L814.389,1494.95L814.391,1495.02L814.392,1495.08L814.393,1495.14L814.393,1496.94L1160.13,1496.94L1160.13,1479.13L1160.13,1478.9L1160.13,1478.66L1160.14,1478.43L1160.15,1478.19L1160.15,1477.96L1160.17,1477.72L1160.18,1477.49L1160.2,1477.26L1160.21,1477.02L1160.23,1476.79L1160.26,1476.56L1160.28,1476.32L1160.31,1476.09L1160.34,1475.86L1160.37,1475.62L1160.4,1475.39L1160.43,1475.16L1160.47,1474.93L1160.51,1474.7L1160.55,1474.46L1160.59,1474.24L1160.64,1474.01L1160.68,1473.78L1160.73,1473.55L1160.78,1473.32L1160.84,1473.09L1160.89,1472.86L1160.95,1472.63L1161.01,1472.41L1161.07,1472.18L1161.13,1471.95L1161.2,1471.73L1161.26,1471.5L1161.33,1471.28L1161.4,1471.06L1161.48,1470.83L1161.55,1470.61L1161.63,1470.39L1161.71,1470.17L1161.79,1469.95L1161.87,1469.73L1161.96,1469.51L1162.05,1469.29L1162.14,1469.08L1162.23,1468.86L1162.32,1468.64L1162.41,1468.43L1162.51,1468.22L1162.61,1468L1162.71,1467.79L1162.81,1467.58L1162.92,1467.37L1163.02,1467.16L1163.13,1466.95L1163.24,1466.75L1163.35,1466.54L1163.47,1466.34L1163.58,1466.13L1163.7,1465.93L1163.82,1465.73L1163.94,1465.53L1164.06,1465.33L1164.1,1465.27L1164.13,1465.22L1164.16,1465.17L1164.2,1465.12L1164.23,1465.07L1164.27,1465.02L1164.3,1464.97L1164.34,1464.92L1164.37,1464.87L1164.41,1464.82L1164.45,1464.77L1164.49,1464.72L1164.52,1464.67L1164.56,1464.62L1164.6,1464.57L1164.64,1464.53L1164.68,1464.48L1164.72,1464.43L1164.76,1464.39L1164.84,1464.29L1164.93,1464.2L1164.97,1464.16L1165.01,1464.12L1165.06,1464.07L1165.1,1464.03L1165.14,1463.99L1165.19,1463.94L1165.28,1463.86L1165.33,1463.82L1165.37,1463.78L1165.42,1463.74L1165.46,1463.69L1165.51,1463.65L1165.56,1463.62L1165.61,1463.58L1165.65,1463.54L1165.7,1463.5L1165.75,1463.46L1165.85,1463.39L1165.9,1463.35L1165.95,1463.32L1166,1463.28L1166.05,1463.25L1166.1,1463.21L1166.15,1463.18L1166.2,1463.14L1166.31,1463.08L1166.36,1463.04L1166.47,1462.98L1166.52,1462.95L1166.58,1462.92L1166.63,1462.89L1166.68,1462.86L1166.74,1462.83L1166.79,1462.8L1166.85,1462.77L1166.9,1462.75L1166.96,1462.72L1167.01,1462.69L1167.07,1462.67L1167.12,1462.64L1167.18,1462.62L1167.24,1462.59L1167.35,1462.54L1167.41,1462.52L1167.47,1462.5L1167.52,1462.48L1167.64,1462.43L1167.7,1462.41L1167.76,1462.39L1167.82,1462.37L1167.87,1462.35L1167.93,1462.34L1167.99,1462.32L1168.05,1462.3L1168.11,1462.28L1168.17,1462.27L1168.23,1462.25L1168.29,1462.24L1168.35,1462.22L1168.41,1462.21L1168.47,1462.19L1168.59,1462.17L1168.65,1462.15L1168.71,1462.14L1168.77,1462.13L1168.95,1462.1L1169.02,1462.09L1169.08,1462.08L1169.14,1462.08L1169.2,1462.07L1169.26,1462.06L1169.32,1462.06L1169.38,1462.05L1169.44,1462.05L1169.51,1462.04L1169.63,1462.03L1169.69,1462.03L1169.75,1462.03L1169.81,1462.03L1169.88,1462.02L1169.94,1462.02L1752.74,1462.02L1752.8,1462.02L1752.86,1462.03L1752.99,1462.03L1753.05,1462.03L1753.17,1462.04L1753.23,1462.05L1753.3,1462.05L1753.36,1462.06L1753.42,1462.06L1753.48,1462.07L1753.54,1462.08L1753.6,1462.08L1753.66,1462.09L1753.72,1462.1L1753.78,1462.11L1753.91,1462.13L1753.97,1462.14L1754.03,1462.15L1754.09,1462.17L1754.21,1462.19L1754.27,1462.21L1754.33,1462.22L1754.39,1462.24L1754.45,1462.25L1754.51,1462.27L1754.57,1462.28L1754.63,1462.3L1754.69,1462.32L1754.75,1462.34L1754.8,1462.35L1754.86,1462.37L1754.92,1462.39L1754.98,1462.41L1755.04,1462.43L1755.15,1462.48L1755.21,1462.5L1755.27,1462.52L1755.33,1462.54L1755.44,1462.59L1755.5,1462.62L1755.55,1462.64L1755.61,1462.67L1755.66,1462.69L1755.72,1462.72L1755.78,1462.75L1755.83,1462.77L1755.88,1462.8L1755.94,1462.83L1755.99,1462.86L1756.05,1462.89L1756.1,1462.92L1756.16,1462.95L1756.21,1462.98L1756.32,1463.04L1756.37,1463.08L1756.47,1463.14L1756.52,1463.18L1756.58,1463.21L1756.63,1463.25L1756.68,1463.28L1756.73,1463.32L1756.78,1463.35L1756.83,1463.39L1756.88,1463.42L1756.93,1463.46L1756.97,1463.5L1757.02,1463.54L1757.07,1463.58L1757.12,1463.62L1757.17,1463.65L1757.21,1463.69L1757.26,1463.74L1757.31,1463.78L1757.35,1463.82L1757.4,1463.86L1757.49,1463.94L1757.53,1463.99L1757.58,1464.03L1757.62,1464.07L1757.66,1464.12L1757.71,1464.16L1757.75,1464.2L1757.83,1464.29L1757.92,1464.39L1757.96,1464.43L1758,1464.48L1758.04,1464.53L1758.08,1464.57L1758.12,1464.62L1758.15,1464.67L1758.19,1464.72L1758.23,1464.77L1758.27,1464.82L1758.3,1464.87L1758.38,1464.97L1758.41,1465.02L1758.45,1465.07L1758.48,1465.12L1758.52,1465.17L1758.55,1465.22L1758.58,1465.27L1758.62,1465.33L1758.74,1465.53L1758.86,1465.73L1758.98,1465.93L1759.1,1466.13L1759.21,1466.34L1759.32,1466.54L1759.43,1466.75L1759.55,1466.95L1759.65,1467.16L1759.76,1467.37L1759.86,1467.58L1759.97,1467.79L1760.07,1468L1760.17,1468.22L1760.26,1468.43L1760.36,1468.64L1760.45,1468.86L1760.54,1469.08L1760.63,1469.29L1760.72,1469.51L1760.8,1469.73L1760.89,1469.95L1760.97,1470.17L1761.05,1470.39L1761.12,1470.61L1761.2,1470.83L1761.27,1471.06L1761.34,1471.28L1761.41,1471.5L1761.48,1471.73L1761.55,1471.95L1761.61,1472.18L1761.67,1472.41L1761.73,1472.63L1761.79,1472.86L1761.84,1473.09L1761.89,1473.32L1761.95,1473.55L1761.99,1473.78L1762.04,1474.01L1762.09,1474.24L1762.13,1474.46L1762.17,1474.7L1762.21,1474.93L1762.25,1475.16L1762.28,1475.39L1762.31,1475.62L1762.34,1475.86L1762.37,1476.09L1762.4,1476.32L1762.42,1476.56L1762.44,1476.79L1762.46,1477.02L1762.48,1477.26L1762.5,1477.49L1762.51,1477.72L1762.52,1477.96L1762.53,1478.19L1762.54,1478.43L1762.54,1478.66L1762.55,1478.9L1762.55,1479.13L1762.55,1549.68L1762.55,1549.92L1762.54,1550.15L1762.54,1550.39L1762.53,1550.62L1762.52,1550.86L1762.51,1551.09L1762.5,1551.32L1762.48,1551.56L1762.46,1551.79L1762.44,1552.03L1762.42,1552.26L1762.4,1552.49L1762.37,1552.73L1762.34,1552.96L1762.31,1553.19L1762.28,1553.42L1762.25,1553.65L1762.21,1553.89L1762.17,1554.12L1762.13,1554.35L1762.09,1554.58L1762.04,1554.81L1761.99,1555.04L1761.95,1555.27L1761.89,1555.5L1761.84,1555.73L1761.79,1555.95L1761.73,1556.18L1761.67,1556.41L1761.61,1556.63L1761.55,1556.86L1761.48,1557.09L1761.41,1557.31L1761.34,1557.53L1761.27,1557.76L1761.2,1557.98L1761.12,1558.2L1761.05,1558.42L1760.97,1558.64L1760.89,1558.86L1760.8,1559.08L1760.72,1559.3L1760.63,1559.52L1760.54,1559.74L1760.45,1559.95L1760.36,1560.17L1760.26,1560.38L1760.17,1560.6L1760.07,1560.81L1759.97,1561.02L1759.86,1561.23L1759.76,1561.44L1759.65,1561.65L1759.55,1561.86L1759.43,1562.07L1759.32,1562.27L1759.21,1562.48L1759.1,1562.68L1758.98,1562.88L1758.86,1563.09L1758.74,1563.29L1758.62,1563.49L1758.58,1563.54L1758.55,1563.59L1758.52,1563.64L1758.48,1563.69L1758.45,1563.75L1758.41,1563.8L1758.38,1563.85L1758.34,1563.9L1758.3,1563.95L1758.27,1564L1758.23,1564.05L1758.15,1564.14L1758.12,1564.19L1758.08,1564.24L1758.04,1564.29L1758,1564.33L1757.96,1564.38L1757.92,1564.43L1757.88,1564.47L1757.83,1564.52L1757.79,1564.57L1757.75,1564.61L1757.71,1564.65L1757.66,1564.7L1757.62,1564.74L1757.58,1564.79L1757.53,1564.83L1757.49,1564.87L1757.44,1564.91L1757.4,1564.96L1757.35,1565L1757.26,1565.08L1757.17,1565.16L1757.12,1565.2L1757.07,1565.24L1757.02,1565.28L1756.97,1565.31L1756.93,1565.35L1756.88,1565.39L1756.83,1565.43L1756.78,1565.46L1756.73,1565.5L1756.68,1565.53L1756.63,1565.57L1756.58,1565.6L1756.52,1565.64L1756.47,1565.67L1756.42,1565.7L1756.37,1565.74L1756.32,1565.77L1756.26,1565.8L1756.16,1565.86L1756.1,1565.89L1756.05,1565.92L1755.99,1565.95L1755.94,1565.98L1755.88,1566.01L1755.83,1566.04L1755.78,1566.07L1755.72,1566.09L1755.66,1566.12L1755.61,1566.15L1755.55,1566.17L1755.5,1566.2L1755.44,1566.22L1755.38,1566.25L1755.27,1566.29L1755.21,1566.32L1755.15,1566.34L1755.1,1566.36L1755.04,1566.38L1754.98,1566.4L1754.92,1566.42L1754.86,1566.44L1754.8,1566.46L1754.69,1566.5L1754.63,1566.51L1754.57,1566.53L1754.51,1566.55L1754.45,1566.56L1754.39,1566.58L1754.33,1566.59L1754.27,1566.61L1754.21,1566.62L1754.15,1566.63L1754.09,1566.65L1754.03,1566.66L1753.85,1566.69L1753.78,1566.7L1753.72,1566.71L1753.66,1566.72L1753.6,1566.73L1753.54,1566.74L1753.48,1566.75L1753.42,1566.75L1753.36,1566.76L1753.3,1566.76L1753.23,1566.77L1753.17,1566.77L1753.11,1566.78L1753.05,1566.78L1752.99,1566.78L1752.93,1566.79L1752.86,1566.79L1752.8,1566.79L1752.74,1566.79L1690.96,1566.79L1783.53,1638.46L1783.59,1638.51L1783.65,1638.56L1783.71,1638.61L1783.77,1638.66L1783.83,1638.7L1783.95,1638.81L1784.01,1638.86L1784.06,1638.91L1784.12,1638.96L1784.17,1639.01L1784.28,1639.12L1784.34,1639.17L1784.39,1639.23L1784.45,1639.28L1784.55,1639.39L1784.61,1639.45L1784.66,1639.5L1784.71,1639.56L1784.81,1639.67L1784.86,1639.73L1784.91,1639.79L1784.96,1639.85L1785.05,1639.97L1785.1,1640.03L1785.15,1640.09L1785.19,1640.15L1785.24,1640.22L1785.28,1640.28L1785.33,1640.34L1785.37,1640.4L1785.41,1640.47L1785.46,1640.53L1785.54,1640.66L1785.58,1640.72L1785.62,1640.79L1785.66,1640.85L1785.7,1640.92L1785.74,1640.98L1785.78,1641.05L1785.82,1641.12L1785.85,1641.18L1785.89,1641.25L1785.92,1641.32L1785.96,1641.39L1785.99,1641.46L1786.03,1641.52L1786.06,1641.59L1786.1,1641.66L1786.13,1641.73L1786.22,1641.94L1786.25,1642.01L1786.28,1642.08L1786.31,1642.15L1786.34,1642.23L1786.36,1642.3L1786.39,1642.37L1786.41,1642.44L1786.44,1642.51L1786.47,1642.59L1786.49,1642.66L1786.51,1642.73L1786.54,1642.81L1786.56,1642.88L1786.58,1642.95L1786.6,1643.03L1786.62,1643.1L1786.64,1643.17L1786.66,1643.25L1786.68,1643.32L1786.69,1643.4L1786.71,1643.47L1786.73,1643.55L1786.76,1643.7L1786.77,1643.77L1786.79,1643.85L1786.8,1643.92L1786.81,1644L1786.82,1644.07L1786.83,1644.15L1786.85,1644.23L1786.86,1644.38L1786.87,1644.45L1786.88,1644.53L1786.89,1644.68L1786.9,1644.76L1786.9,1644.84L1786.91,1644.91L1786.91,1644.99L1786.91,1645.07L1786.92,1645.14L1786.92,1645.29L1786.92,1645.45L1786.92,1645.52L1786.92,1645.6L1786.91,1645.68L1786.91,1645.75L1786.91,1645.83L1786.9,1645.91L1786.9,1645.98L1786.89,1646.06L1786.89,1646.14L1786.88,1646.21L1786.87,1646.29L1786.86,1646.37L1786.84,1646.52L1786.83,1646.59L1786.82,1646.67L1786.81,1646.74L1786.8,1646.82L1786.79,1646.89L1786.77,1646.97L1786.76,1647.05L1786.74,1647.12L1786.73,1647.2L1786.71,1647.27L1786.69,1647.35L1786.67,1647.42L1786.66,1647.49L1786.64,1647.57L1786.62,1647.64L1786.6,1647.72L1786.58,1647.79L1786.56,1647.86L1786.53,1647.94L1786.49,1648.08L1786.46,1648.15L1786.44,1648.23L1786.36,1648.44L1786.33,1648.52L1786.3,1648.59L1786.28,1648.66L1786.25,1648.73L1786.22,1648.8L1786.19,1648.87L1786.15,1648.94L1786.12,1649.01L1786.09,1649.08L1786.06,1649.15L1786.03,1649.22L1785.99,1649.29L1785.96,1649.35L1785.92,1649.42L1785.88,1649.49L1785.85,1649.56L1785.81,1649.62L1785.77,1649.69L1785.74,1649.76L1785.7,1649.82L1785.66,1649.89L1785.62,1649.95L1785.54,1650.08L1785.49,1650.15L1785.45,1650.21L1785.41,1650.28L1785.37,1650.34L1785.32,1650.4L1785.28,1650.46L1785.23,1650.53L1785.19,1650.59L1785.14,1650.65L1785.1,1650.71L1785.05,1650.77L1785,1650.83L1784.95,1650.89L1784.9,1650.95L1784.85,1651.01L1784.8,1651.07L1784.75,1651.12L1784.7,1651.18L1784.65,1651.24L1784.6,1651.29L1784.55,1651.35L1784.44,1651.46L1784.39,1651.52L1784.33,1651.57L1784.28,1651.62L1784.17,1651.73L1784.11,1651.78L1784.06,1651.83L1784,1651.88L1783.94,1651.93L1783.88,1651.99L1783.83,1652.04L1783.77,1652.08L1783.71,1652.13L1783.65,1652.18L1783.59,1652.23L1783.53,1652.28L1783.47,1652.32L1783.41,1652.37L1783.22,1652.5L1783.16,1652.55L1783.09,1652.59L1783.03,1652.63L1782.97,1652.67L1782.9,1652.72L1782.84,1652.76L1782.71,1652.84L1782.58,1652.92L1782.51,1652.95L1782.44,1652.99L1782.38,1653.03L1782.31,1653.07L1782.17,1653.14L1782.1,1653.17L1782.04,1653.2L1781.97,1653.24L1781.9,1653.27L1781.83,1653.3L1781.76,1653.34L1781.69,1653.37L1781.62,1653.4L1781.55,1653.43L1781.48,1653.46L1781.4,1653.48L1781.33,1653.51L1781.26,1653.54L1781.19,1653.57L1781.12,1653.59L1781.05,1653.62L1780.97,1653.64L1780.9,1653.67L1780.83,1653.69L1780.76,1653.71L1780.68,1653.74L1780.61,1653.76L1780.53,1653.78L1780.46,1653.8L1780.39,1653.82L1780.31,1653.84L1780.24,1653.85L1780.16,1653.87L1780.09,1653.89L1780.01,1653.9L1779.94,1653.92L1779.86,1653.94L1779.71,1653.96L1779.64,1653.98L1779.56,1653.99L1779.49,1654L1779.33,1654.02L1779.26,1654.03L1779.11,1654.05L1779.03,1654.06L1778.95,1654.07L1778.8,1654.08L1778.73,1654.08L1778.65,1654.09L1778.57,1654.09L1778.5,1654.09L1778.34,1654.1L1778.27,1654.1L1030.62,1654.1L1030.55,1654.1L1030.41,1654.09L1030.34,1654.09L1030.26,1654.09L1030.19,1654.08L1030.12,1654.08L1030.05,1654.07L1029.97,1654.07L1029.9,1654.06L1029.83,1654.05L1029.68,1654.04L1029.61,1654.03L1029.54,1654.02L1029.47,1654.01L1029.4,1654L1029.33,1653.98L1029.25,1653.97L1029.18,1653.96L1029.11,1653.94L1029.04,1653.93L1028.97,1653.92L1028.83,1653.88L1028.76,1653.87L1028.68,1653.85L1028.62,1653.83L1028.54,1653.81L1028.47,1653.79L1028.4,1653.78L1028.34,1653.75L1028.27,1653.73L1028.2,1653.71L1028.13,1653.69L1028.06,1653.67L1027.99,1653.64L1027.92,1653.62L1027.85,1653.6L1027.78,1653.57L1027.72,1653.54L1027.65,1653.52L1027.58,1653.49L1027.51,1653.46L1027.45,1653.43L1027.38,1653.41L1027.31,1653.38L1027.25,1653.35L1027.18,1653.32L1027.12,1653.29L1027.05,1653.25L1026.99,1653.22L1026.92,1653.19L1026.86,1653.15L1026.79,1653.12L1026.73,1653.09L1026.66,1653.05L1026.6,1653.02L1026.54,1652.98L1026.48,1652.94L1026.41,1652.91L1026.29,1652.83L1026.23,1652.79L1026.17,1652.75L1026.11,1652.71L1026.05,1652.67L1025.99,1652.63L1025.93,1652.59L1025.87,1652.55L1025.81,1652.5L1025.75,1652.46L1025.69,1652.42L1025.63,1652.37L1025.58,1652.33L1025.52,1652.28L1025.46,1652.24L1025.41,1652.19L1025.35,1652.14L1025.24,1652.05L1025.19,1652L1025.13,1651.95L1025.08,1651.9L1025.03,1651.86L1024.97,1651.81L1024.92,1651.76L1024.82,1651.65L1024.77,1651.6L1024.72,1651.55L1024.62,1651.44L1024.57,1651.39L1024.52,1651.34L1024.47,1651.28L1024.42,1651.23L1024.38,1651.17L1024.33,1651.12L1024.24,1651.01L1024.19,1650.95L1024.15,1650.89L1024.1,1650.83L1024.06,1650.78L1024.02,1650.72L1023.97,1650.66L1023.93,1650.6L1023.89,1650.54L1023.85,1650.48L1023.81,1650.42L1023.77,1650.36L1023.73,1650.3L1023.69,1650.24L1023.65,1650.18L1023.57,1650.05L1023.54,1649.99L1023.5,1649.93L1023.47,1649.86L1023.43,1649.8L1023.39,1649.74L1023.36,1649.67L1023.33,1649.61L1023.29,1649.54L1023.26,1649.48L1023.23,1649.41L1023.2,1649.35L1023.17,1649.28L1023.11,1649.15L1023.08,1649.08L1023.05,1649.02L1023.02,1648.95L1023,1648.88L1022.97,1648.81L1022.94,1648.75L1022.92,1648.68L1022.89,1648.61L1022.87,1648.54L1022.85,1648.47L1022.82,1648.4L1022.8,1648.33L1022.78,1648.27L1022.76,1648.2L1022.74,1648.13L1022.7,1647.99L1022.68,1647.92L1022.66,1647.85L1022.64,1647.78L1022.62,1647.7L1022.61,1647.63L1022.59,1647.56L1022.58,1647.49L1022.56,1647.42L1022.55,1647.35L1022.54,1647.28L1022.52,1647.21L1022.51,1647.13L1022.5,1647.06L1022.49,1646.99L1022.48,1646.92L1022.47,1646.85L1022.46,1646.78L1022.45,1646.7L1022.45,1646.63L1022.44,1646.56L1022.43,1646.49L1022.43,1646.41L1022.42,1646.34L1022.41,1646.2L1022.41,1646.12L1022.41,1646.05L1022.4,1645.91L1022.4,1645.76L1022.4,1645.69L1022.41,1645.62L1022.41,1645.54L1022.41,1645.47L1022.41,1645.4L1022.42,1645.33L1022.42,1645.25L1022.43,1645.18L1022.43,1645.11L1022.45,1644.96L1022.45,1644.89L1022.46,1644.82L1022.47,1644.75L1022.48,1644.67L1022.49,1644.6L1022.5,1644.53L1022.51,1644.46L1022.53,1644.39L1022.54,1644.32L1022.55,1644.25L1022.57,1644.17L1022.58,1644.1L1022.6,1644.03L1022.61,1643.96L1022.63,1643.89L1022.64,1643.82L1022.66,1643.75L1022.68,1643.68L1022.72,1643.54L1022.74,1643.47L1022.76,1643.4L1022.78,1643.33L1022.8,1643.26L1022.85,1643.12L1022.87,1643.06L1022.9,1642.99L1022.92,1642.92L1022.97,1642.78L1023,1642.72L1023.03,1642.65L1023.06,1642.58L1023.08,1642.51L1023.11,1642.45L1023.14,1642.38L1023.17,1642.32L1023.2,1642.25L1023.24,1642.18L1023.27,1642.12L1023.3,1642.05L1023.33,1641.99L1023.37,1641.92L1023.4,1641.86L1023.44,1641.8L1023.47,1641.73L1023.51,1641.67L1023.54,1641.61L1023.58,1641.55L1023.62,1641.48L1023.66,1641.42L1023.7,1641.36L1023.73,1641.3L1023.77,1641.24L1023.81,1641.18L1023.86,1641.12L1023.9,1641.06L1023.94,1641L1023.98,1640.94L1024.02,1640.88L1024.11,1640.76L1024.15,1640.71L1024.25,1640.59L1024.34,1640.48L1024.38,1640.42L1024.43,1640.37L1024.48,1640.32L1024.53,1640.26L1024.58,1640.21L1024.67,1640.1L1024.73,1640.05L1024.78,1640L1024.83,1639.94L1024.88,1639.89L1024.93,1639.84L1024.98,1639.79L1025.04,1639.74L1025.09,1639.69L1025.14,1639.64L1025.2,1639.6L1025.25,1639.55L1025.36,1639.45L1025.42,1639.41L1025.47,1639.36L1025.53,1639.32L1025.59,1639.27L1025.64,1639.23L1025.7,1639.18L1025.76,1639.14L1025.82,1639.1L1025.88,1639.05L1026,1638.97L1026.06,1638.93L1026.12,1638.89L1026.18,1638.85L1026.3,1638.77L1026.36,1638.73L1026.42,1638.69L1026.49,1638.66L1026.68,1638.55L1026.74,1638.52L1026.8,1638.48L1026.87,1638.45L1026.93,1638.41L1027,1638.38L1027.06,1638.35L1027.13,1638.32L1027.19,1638.29L1027.26,1638.26L1027.33,1638.23L1027.39,1638.2L1027.46,1638.17L1027.53,1638.14L1027.59,1638.11L1027.66,1638.09L1027.8,1638.03L1027.87,1638.01L1027.93,1637.98L1028,1637.96L1028.07,1637.94L1028.14,1637.91L1247.44,1566.79L1169.94,1566.79L1169.88,1566.79L1169.81,1566.79L1169.75,1566.79L1169.63,1566.78L1169.57,1566.78L1169.51,1566.77L1169.44,1566.77L1169.38,1566.76L1169.32,1566.76L1169.26,1566.75L1169.2,1566.75L1169.14,1566.74L1169.08,1566.73L1169.02,1566.72L1168.95,1566.71L1168.89,1566.7L1168.83,1566.69L1168.71,1566.67L1168.65,1566.66L1168.59,1566.65L1168.53,1566.63L1168.47,1566.62L1168.41,1566.61L1168.35,1566.59L1168.29,1566.58L1168.23,1566.56L1168.17,1566.55L1168.11,1566.53L1168.05,1566.51L1167.99,1566.5L1167.87,1566.46L1167.82,1566.44L1167.76,1566.42L1167.7,1566.4L1167.64,1566.38L1167.58,1566.36L1167.52,1566.34L1167.47,1566.32L1167.41,1566.29L1167.3,1566.25L1167.24,1566.22L1167.18,1566.2L1167.12,1566.17L1167.01,1566.12L1166.96,1566.09L1166.9,1566.07L1166.85,1566.04L1166.79,1566.01L1166.74,1565.98L1166.68,1565.95L1166.63,1565.92L1166.58,1565.89L1166.52,1565.86L1166.41,1565.8L1166.36,1565.77L1166.31,1565.74L1166.26,1565.7L1166.2,1565.67L1166.15,1565.64L1166.1,1565.6L1166.05,1565.57L1166,1565.53L1165.95,1565.5L1165.9,1565.46L1165.85,1565.43L1165.75,1565.35L1165.7,1565.31L1165.65,1565.28L1165.61,1565.24L1165.56,1565.2L1165.51,1565.16L1165.42,1565.08L1165.33,1565L1165.28,1564.96L1165.23,1564.91L1165.19,1564.87L1165.14,1564.83L1165.1,1564.79L1165.06,1564.74L1165.01,1564.7L1164.97,1564.65L1164.93,1564.61L1164.88,1564.57L1164.84,1564.52L1164.8,1564.47L1164.76,1564.43L1164.72,1564.38L1164.68,1564.33L1164.64,1564.29L1164.6,1564.24L1164.56,1564.19L1164.52,1564.14L1164.49,1564.1L1164.45,1564.05L1164.41,1564L1164.37,1563.95L1164.34,1563.9L1164.3,1563.85L1164.27,1563.8L1164.23,1563.75L1164.2,1563.69L1164.16,1563.64L1164.13,1563.59L1164.1,1563.54L1163.94,1563.29L1163.82,1563.09L1163.7,1562.88L1163.58,1562.68L1163.47,1562.48L1163.35,1562.27L1163.24,1562.07L1163.13,1561.86L1163.02,1561.65L1162.92,1561.44L1162.81,1561.23L1162.71,1561.02L1162.61,1560.81L1162.51,1560.6L1162.41,1560.38L1162.32,1560.17L1162.23,1559.95L1162.14,1559.74L1162.05,1559.52L1161.96,1559.3L1161.87,1559.08L1161.79,1558.86L1161.71,1558.64L1161.63,1558.42L1161.55,1558.2L1161.48,1557.98L1161.4,1557.76L1161.33,1557.53L1161.26,1557.31L1161.2,1557.09L1161.13,1556.86L1161.07,1556.63L1161.01,1556.41L1160.95,1556.18L1160.89,1555.95L1160.84,1555.73L1160.78,1555.5L1160.73,1555.27L1160.68,1555.04L1160.64,1554.81L1160.59,1554.58L1160.55,1554.35L1160.51,1554.12L1160.47,1553.89L1160.43,1553.65L1160.4,1553.42L1160.37,1553.19L1160.34,1552.96L1160.31,1552.73L1160.28,1552.49L1160.26,1552.26L1160.23,1552.03L1160.21,1551.79L1160.2,1551.56L1160.18,1551.32L1160.17,1551.09L1160.15,1550.86L1160.15,1550.62L1160.14,1550.39L1160.13,1550.15L1160.13,1549.92L1160.13,1549.68L1160.13,1531.87L814.171,1531.87Z"/>
    </g>
</svg>
