<?xml version="1.0" encoding="UTF-8" standalone="no"?>
<!DOCTYPE svg PUBLIC "-//W3C//DTD SVG 1.1//EN" "http://www.w3.org/Graphics/SVG/1.1/DTD/svg11.dtd">
<svg width="100%" height="100%" viewBox="0 0 256 224" version="1.1" xmlns="http://www.w3.org/2000/svg" xmlns:xlink="http://www.w3.org/1999/xlink" xml:space="preserve" xmlns:serif="http://www.serif.com/" style="fill-rule:evenodd;clip-rule:evenodd;stroke-miterlimit:2;">
    <g>
        <path d="M135.396,5.085L253.979,210.5C254.771,211.869 255.203,213.38 255.203,214.892C255.203,219.86 251.172,223.892 246.203,223.892L9.107,223.892C4.139,223.892 0.107,219.86 0.107,214.892C0.107,213.38 0.539,211.796 1.331,210.5L119.916,5.085C123.372,-0.891 131.939,-0.891 135.467,5.085L135.396,5.085Z" style="fill:rgb(211,63,39);fill-rule:nonzero;"/>
        <path d="M135.396,5.085L253.979,210.5C254.771,211.869 255.203,213.38 255.203,214.892C255.203,219.86 251.172,223.892 246.203,223.892L9.107,223.892C4.139,223.892 0.107,219.86 0.107,214.892C0.107,213.38 0.539,211.796 1.331,210.5L119.916,5.085C123.372,-0.891 131.939,-0.891 135.467,5.085L135.396,5.085Z" style="fill:none;stroke:rgb(211,63,39);stroke-width:0.22px;"/>
        <path d="M215.315,197.108L39.996,197.108L127.691,45.261L215.315,197.108Z" style="fill:white;fill-rule:nonzero;"/>
        <path d="M215.315,197.108L39.996,197.108L127.691,45.261L215.315,197.108Z" style="fill:none;stroke:white;stroke-width:0.22px;"/>
        <path d="M126.107,148.724C125.171,150.02 123.947,151.1 122.651,152.108L110.555,160.389C110.339,160.46 110.195,160.389 110.195,160.172C110.195,160.1 110.195,160.1 110.268,160.028C110.268,160.028 110.268,159.885 110.339,159.885C112.211,157.869 113.724,155.493 114.731,152.973C115.379,151.245 115.739,149.301 115.739,147.5L115.739,146.564C115.739,144.692 115.308,142.892 114.516,141.164C113.724,139.436 112.571,137.925 111.204,136.701C109.763,135.476 108.251,134.469 106.451,133.82C104.795,133.172 103.139,132.885 101.412,132.885C101.124,132.885 100.691,132.885 100.259,132.956C98.675,133.1 97.091,133.389 95.579,133.892C94.067,134.325 92.699,134.973 91.547,135.909C91.331,136.124 91.115,135.98 91.043,135.836C90.899,135.692 91.043,135.62 91.115,135.476L103.715,125.325C105.155,124.245 106.739,123.308 108.467,122.732C110.771,121.724 113.292,121.365 115.812,121.724C118.115,122.013 120.347,122.805 122.363,124.028C125.604,125.9 127.979,128.925 129.131,132.453C129.707,134.325 130.139,136.197 130.139,137.996C130.139,141.956 128.699,145.701 126.107,148.724Z" style="fill:rgb(35,31,32);fill-rule:nonzero;"/>
        <path d="M126.107,148.724C125.171,150.02 123.947,151.1 122.651,152.108L110.555,160.389C110.339,160.46 110.195,160.389 110.195,160.172C110.195,160.1 110.195,160.1 110.268,160.028C110.268,160.028 110.268,159.885 110.339,159.885C112.211,157.869 113.724,155.493 114.731,152.973C115.379,151.245 115.739,149.301 115.739,147.5L115.739,146.564C115.739,144.692 115.308,142.892 114.516,141.164C113.724,139.436 112.571,137.925 111.204,136.701C109.763,135.476 108.251,134.469 106.451,133.82C104.795,133.172 103.139,132.885 101.412,132.885C101.124,132.885 100.691,132.885 100.259,132.956C98.675,133.1 97.091,133.389 95.579,133.892C94.067,134.325 92.699,134.973 91.547,135.909C91.331,136.124 91.115,135.98 91.043,135.836C90.899,135.692 91.043,135.62 91.115,135.476L103.715,125.325C105.155,124.245 106.739,123.308 108.467,122.732C110.771,121.724 113.292,121.365 115.812,121.724C118.115,122.013 120.347,122.805 122.363,124.028C125.604,125.9 127.979,128.925 129.131,132.453C129.707,134.325 130.139,136.197 130.139,137.996C130.139,141.956 128.699,145.701 126.107,148.724Z" style="fill:none;stroke:rgb(35,31,32);stroke-width:0.22px;"/>
        <path d="M80.603,153.044C80.603,152.828 80.459,152.756 80.315,152.756C80.027,152.756 79.595,152.613 79.307,152.613C73.043,152.613 68.003,157.652 68.003,163.916C68.003,170.181 73.043,175.221 79.307,175.221C84.635,175.221 89.315,171.476 90.395,166.221L90.395,166.148C90.395,166.004 90.323,165.933 90.107,165.86C84.347,164.42 80.315,159.093 80.603,153.044Z" style="fill:rgb(35,31,32);fill-rule:nonzero;"/>
        <path d="M80.603,153.044C80.603,152.828 80.459,152.756 80.315,152.756C80.027,152.756 79.595,152.613 79.307,152.613C73.043,152.613 68.003,157.652 68.003,163.916C68.003,170.181 73.043,175.221 79.307,175.221C84.635,175.221 89.315,171.476 90.395,166.221L90.395,166.148C90.395,166.004 90.323,165.933 90.107,165.86C84.347,164.42 80.315,159.093 80.603,153.044Z" style="fill:none;stroke:rgb(35,31,32);stroke-width:0.22px;"/>
        <path d="M70.235,154.053C70.523,153.765 70.883,153.549 71.243,153.261C71.747,152.828 72.251,152.54 72.899,152.108C74.267,151.46 75.779,150.741 77.435,150.308C80.747,149.732 84.059,150.524 86.867,152.325C88.811,153.476 90.323,155.06 91.403,157.004C91.907,158.301 92.411,159.597 92.699,160.964C92.915,161.828 93.059,162.62 93.059,163.412C93.059,164.493 92.843,165.5 92.555,166.652C92.195,168.164 91.547,169.533 90.611,170.9C90.107,171.765 89.387,172.557 88.667,173.204L86.003,175.436C85.859,175.509 85.859,175.58 85.859,175.58C85.859,175.724 85.859,175.796 86.003,175.796C86.075,175.94 86.147,175.94 86.291,175.94C86.507,175.94 86.651,175.796 86.795,175.724L100.907,166.652C101.268,166.436 101.699,166.148 101.987,165.717C103.211,164.493 104.219,163.197 105.228,161.828C105.443,161.613 105.659,161.181 105.731,160.892C106.739,158.876 107.315,156.644 107.531,154.341L107.531,153.62C107.531,151.748 107.171,149.805 106.451,148.004C105.659,145.916 104.436,143.973 102.779,142.46C101.699,141.453 100.619,140.732 99.251,140.157C97.451,139.436 95.579,138.933 93.635,138.933C93.419,138.933 93.203,138.86 93.059,138.86C91.187,138.86 89.387,139.221 87.587,139.869C85.643,140.444 83.987,141.453 82.331,142.677L70.523,152.469C70.235,152.756 69.947,153.044 69.731,153.476L69.731,153.98C69.875,154.053 69.947,154.124 70.019,154.124C70.019,154.124 70.163,154.053 70.235,154.053Z" style="fill:rgb(35,31,32);fill-rule:nonzero;"/>
        <path d="M70.235,154.053C70.523,153.765 70.883,153.549 71.243,153.261C71.747,152.828 72.251,152.54 72.899,152.108C74.267,151.46 75.779,150.741 77.435,150.308C80.747,149.732 84.059,150.524 86.867,152.325C88.811,153.476 90.323,155.06 91.403,157.004C91.907,158.301 92.411,159.597 92.699,160.964C92.915,161.828 93.059,162.62 93.059,163.412C93.059,164.493 92.843,165.5 92.555,166.652C92.195,168.164 91.547,169.533 90.611,170.9C90.107,171.765 89.387,172.557 88.667,173.204L86.003,175.436C85.859,175.509 85.859,175.58 85.859,175.58C85.859,175.724 85.859,175.796 86.003,175.796C86.075,175.94 86.147,175.94 86.291,175.94C86.507,175.94 86.651,175.796 86.795,175.724L100.907,166.652C101.268,166.436 101.699,166.148 101.987,165.717C103.211,164.493 104.219,163.197 105.228,161.828C105.443,161.613 105.659,161.181 105.731,160.892C106.739,158.876 107.315,156.644 107.531,154.341L107.531,153.62C107.531,151.748 107.171,149.805 106.451,148.004C105.659,145.916 104.436,143.973 102.779,142.46C101.699,141.453 100.619,140.732 99.251,140.157C97.451,139.436 95.579,138.933 93.635,138.933C93.419,138.933 93.203,138.86 93.059,138.86C91.187,138.86 89.387,139.221 87.587,139.869C85.643,140.444 83.987,141.453 82.331,142.677L70.523,152.469C70.235,152.756 69.947,153.044 69.731,153.476L69.731,153.98C69.875,154.053 69.947,154.124 70.019,154.124C70.019,154.124 70.163,154.053 70.235,154.053Z" style="fill:none;stroke:rgb(35,31,32);stroke-width:0.22px;"/>
        <path d="M131.507,146.204C131.363,146.276 131.147,146.204 131.147,145.989C131.147,145.916 131.219,145.916 131.219,145.772C135.684,142.677 138.204,137.637 138.204,132.308C138.204,123.093 130.715,115.748 121.571,115.748C118.115,115.748 114.803,116.756 111.996,118.772C111.852,118.845 111.563,118.772 111.563,118.557C111.563,118.484 111.708,118.341 111.708,118.341L124.451,108.404C136.188,99.333 153.179,107.611 153.179,122.301C153.179,128.276 150.155,133.82 145.259,137.133L131.507,146.204Z" style="fill:rgb(35,31,32);fill-rule:nonzero;"/>
        <path d="M131.507,146.204C131.363,146.276 131.147,146.204 131.147,145.989C131.147,145.916 131.219,145.916 131.219,145.772C135.684,142.677 138.204,137.637 138.204,132.308C138.204,123.093 130.715,115.748 121.571,115.748C118.115,115.748 114.803,116.756 111.996,118.772C111.852,118.845 111.563,118.772 111.563,118.557C111.563,118.484 111.708,118.341 111.708,118.341L124.451,108.404C136.188,99.333 153.179,107.611 153.179,122.301C153.179,128.276 150.155,133.82 145.259,137.133L131.507,146.204Z" style="fill:none;stroke:rgb(35,31,32);stroke-width:0.22px;"/>
        <path d="M144.323,104.587C144.251,104.443 144.107,104.371 144.107,104.227C144.035,102.141 143.963,98.181 143.819,94.293C143.748,88.317 150.299,88.245 150.372,92.636L150.587,108.476L150.587,108.62C150.587,108.765 150.372,108.909 150.155,108.909C150.083,108.909 150.011,108.909 149.867,108.765C148.5,106.892 146.557,105.453 144.323,104.587Z" style="fill:rgb(35,31,32);fill-rule:nonzero;"/>
        <path d="M144.323,104.587C144.251,104.443 144.107,104.371 144.107,104.227C144.035,102.141 143.963,98.181 143.819,94.293C143.748,88.317 150.299,88.245 150.372,92.636L150.587,108.476L150.587,108.62C150.587,108.765 150.372,108.909 150.155,108.909C150.083,108.909 150.011,108.909 149.867,108.765C148.5,106.892 146.557,105.453 144.323,104.587Z" style="fill:none;stroke:rgb(35,31,32);stroke-width:0.22px;"/>
        <path d="M150.659,136.341L150.875,194.588L144.54,194.588L144.323,140.157L150.372,136.197C150.587,136.124 150.659,136.197 150.659,136.341Z" style="fill:rgb(35,31,32);fill-rule:nonzero;"/>
        <path d="M150.659,136.341L150.875,194.588L144.54,194.588L144.323,140.157L150.372,136.197C150.587,136.124 150.659,136.197 150.659,136.341Z" style="fill:none;stroke:rgb(35,31,32);stroke-width:0.22px;"/>
    </g>
</svg>
