<?xml version="1.0" encoding="UTF-8" standalone="no"?>
<!DOCTYPE svg PUBLIC "-//W3C//DTD SVG 1.1//EN" "http://www.w3.org/Graphics/SVG/1.1/DTD/svg11.dtd">
<svg width="100%" height="100%" viewBox="0 0 596 522" version="1.1" xmlns="http://www.w3.org/2000/svg" xmlns:xlink="http://www.w3.org/1999/xlink" xml:space="preserve" xmlns:serif="http://www.serif.com/" style="fill-rule:evenodd;clip-rule:evenodd;stroke-linecap:round;stroke-linejoin:round;stroke-miterlimit:2;">
    <g>
        <path d="M315.683,11.571L592.129,490.391C595.851,496.838 595.851,504.78 592.129,511.228C588.407,517.673 581.528,521.645 574.085,521.645L21.19,521.645C13.746,521.645 6.868,517.673 3.146,511.228C-0.575,504.78 -0.575,496.838 3.146,490.391L279.594,11.571C283.316,5.125 290.194,1.153 297.638,1.153C305.082,1.153 311.96,5.125 315.683,11.571Z" style="fill:rgb(211,63,39);fill-rule:nonzero;"/>
        <path d="M315.683,11.571L592.129,490.391C595.851,496.838 595.851,504.78 592.129,511.228C588.407,517.673 581.528,521.645 574.085,521.645L21.19,521.645C13.746,521.645 6.868,517.673 3.146,511.228C-0.575,504.78 -0.575,496.838 3.146,490.391L279.594,11.571C283.316,5.125 290.194,1.153 297.638,1.153C305.082,1.153 311.96,5.125 315.683,11.571Z" style="fill:none;stroke:rgb(211,63,39);stroke-width:0.71px;"/>
        <path d="M93.367,459.138L297.638,105.332L501.908,459.138L93.367,459.138Z" style="fill:white;fill-rule:nonzero;"/>
        <path d="M93.367,459.138L297.638,105.332L501.908,459.138L93.367,459.138Z" style="fill:none;stroke:white;stroke-width:0.71px;"/>
        <path d="M229.379,266.948C226.137,262.283 220.63,259.729 214.975,260.269L221.493,269.524L211.111,318.455C210.218,322.664 212.322,326.938 216.202,328.798C219.59,330.422 223.58,330.161 226.727,328.111C229.954,326.007 231.578,322.152 230.828,318.374L243.303,304.21L252.879,331.975C252.982,338.034 253.466,344.082 254.328,350.082C255.274,357.247 258.328,363.971 263.1,369.397L241.562,371.986C239.805,372.176 238.11,372.748 236.599,373.663C235.411,374.382 234.367,375.315 233.519,376.412C232.453,377.791 231.875,379.485 231.875,381.228L231.875,413.338C231.496,416.886 233.105,420.353 236.06,422.352L251.994,433.136L254.155,428.826C254.711,427.395 254.896,425.847 254.693,424.325C254.506,422.917 254.146,421.536 253.622,420.216C252.969,418.569 251.944,417.098 250.626,415.913L246.683,412.372L246.683,387.183L282.012,387.183L301.729,438.448L294.246,452.531L304.212,452.377C305.289,452.248 306.336,451.928 307.301,451.431C309.006,450.555 310.57,449.428 311.942,448.091C313.57,446.507 314.764,444.533 315.411,442.357C316.107,440.02 316.252,437.553 315.834,435.151C315.395,432.622 314.714,430.142 313.802,427.744L296.257,381.629C306.807,382.333 317.402,381.539 327.729,379.274L337.714,377.083L342.546,375.937L348.503,374.867L353.559,374.467L361.928,397.645L338.157,417.311C337.16,418.029 336.44,419.069 336.118,420.256C335.77,421.544 335.733,422.898 336.014,424.203L340.762,446.334C342.488,445.533 344.215,444.736 345.944,443.942C347.809,443.084 349.346,441.644 350.321,439.839C350.975,438.632 351.546,437.384 352.032,436.101C352.547,434.744 352.657,433.268 352.351,431.849L351.063,425.893L376.655,405.13C377.019,404.74 377.387,404.354 377.757,403.973C378.307,403.409 378.654,402.681 378.749,401.901C378.936,400.368 378.825,398.814 378.426,397.323L373.919,380.503L397.74,404.244L404.742,436.839L396.452,452.531L403.776,452.531C410.095,452.531 415.821,448.811 418.39,443.038C419.311,440.968 419.807,438.734 419.85,436.468C419.89,434.325 419.708,432.184 419.31,430.077L413.273,401.829C412.788,399.559 412.059,397.347 411.1,395.231L400.477,379.698L400.477,337.527L405.145,337.609C407.099,337.643 408.924,338.595 410.068,340.181C411.086,341.589 411.802,343.194 412.17,344.892C412.651,347.111 412.822,349.387 412.675,351.652C412.442,355.253 412.09,358.845 411.621,362.423C411.25,365.264 411.101,368.129 411.178,370.993C411.319,376.225 412.878,381.319 415.687,385.735C417.898,389.209 421.571,391.49 425.666,391.932L425.666,353.221C425.666,348.368 424.57,343.576 422.461,339.206C420.509,335.164 417.119,331.994 412.955,330.319C408.644,328.583 403.964,327.962 399.35,328.515C392.852,323.094 385.086,319.407 376.777,317.798C368.169,316.116 359.308,316.209 350.736,318.071L336.313,320.387L338.075,318.789C341.251,315.433 342.457,310.666 341.258,306.203L331.807,261.345C329.868,255.097 323.625,251.23 317.168,252.277C310.71,253.325 306.01,258.967 306.146,265.508L309.965,283.921L286.413,296.427C280.347,286.79 272.248,278.596 262.682,272.418C252.649,266.759 240.951,264.796 229.621,266.868C229.537,266.884 229.456,266.91 229.379,266.948Z" style="fill:rgb(3,4,4);fill-rule:nonzero;"/>
        <path d="M229.379,266.948C226.137,262.283 220.63,259.729 214.975,260.269L221.493,269.524L211.111,318.455C210.218,322.664 212.322,326.938 216.202,328.798C219.59,330.422 223.58,330.161 226.727,328.111C229.954,326.007 231.578,322.152 230.828,318.374L243.303,304.21L252.879,331.975C252.982,338.034 253.466,344.082 254.328,350.082C255.274,357.247 258.328,363.971 263.1,369.397L241.562,371.986C239.805,372.176 238.11,372.748 236.599,373.663C235.411,374.382 234.367,375.315 233.519,376.412C232.453,377.791 231.875,379.485 231.875,381.228L231.875,413.338C231.496,416.886 233.105,420.353 236.06,422.352L251.994,433.136L254.155,428.826C254.711,427.395 254.896,425.847 254.693,424.325C254.506,422.917 254.146,421.536 253.622,420.216C252.969,418.569 251.944,417.098 250.626,415.913L246.683,412.372L246.683,387.183L282.012,387.183L301.729,438.448L294.246,452.531L304.212,452.377C305.289,452.248 306.336,451.928 307.301,451.431C309.006,450.555 310.57,449.428 311.942,448.091C313.57,446.507 314.764,444.533 315.411,442.357C316.107,440.02 316.252,437.553 315.834,435.151C315.395,432.622 314.714,430.142 313.802,427.744L296.257,381.629C306.807,382.333 317.402,381.539 327.729,379.274L337.714,377.083L342.546,375.937L348.503,374.867L353.559,374.467L361.928,397.645L338.157,417.311C337.16,418.029 336.44,419.069 336.118,420.256C335.77,421.544 335.733,422.898 336.014,424.203L340.762,446.334C342.488,445.533 344.215,444.736 345.944,443.942C347.809,443.084 349.346,441.644 350.321,439.839C350.975,438.632 351.546,437.384 352.032,436.101C352.547,434.744 352.657,433.268 352.351,431.849L351.063,425.893L376.655,405.13C377.019,404.74 377.387,404.354 377.757,403.973C378.307,403.409 378.654,402.681 378.749,401.901C378.936,400.368 378.825,398.814 378.426,397.323L373.919,380.503L397.74,404.244L404.742,436.839L396.452,452.531L403.776,452.531C410.095,452.531 415.821,448.811 418.39,443.038C419.311,440.968 419.807,438.734 419.85,436.468C419.89,434.325 419.708,432.184 419.31,430.077L413.273,401.829C412.788,399.559 412.059,397.347 411.1,395.231L400.477,379.698L400.477,337.527L405.145,337.609C407.099,337.643 408.924,338.595 410.068,340.181C411.086,341.589 411.802,343.194 412.17,344.892C412.651,347.111 412.822,349.387 412.675,351.652C412.442,355.253 412.09,358.845 411.621,362.423C411.25,365.264 411.101,368.129 411.178,370.993C411.319,376.225 412.878,381.319 415.687,385.735C417.898,389.209 421.571,391.49 425.666,391.932L425.666,353.221C425.666,348.368 424.57,343.576 422.461,339.206C420.509,335.164 417.119,331.994 412.955,330.319C408.644,328.583 403.964,327.962 399.35,328.515C392.852,323.094 385.086,319.407 376.777,317.798C368.169,316.116 359.308,316.209 350.736,318.071L336.313,320.387L338.075,318.789C341.251,315.433 342.457,310.666 341.258,306.203L331.807,261.345C329.868,255.097 323.625,251.23 317.168,252.277C310.71,253.325 306.01,258.967 306.146,265.508L309.965,283.921L286.413,296.427C280.347,286.79 272.248,278.596 262.682,272.418C252.649,266.759 240.951,264.796 229.621,266.868C229.537,266.884 229.456,266.91 229.379,266.948Z" style="fill:none;stroke:rgb(3,4,4);stroke-width:0.71px;"/>
        <path d="M327.214,235.392C327.214,227.757 321.023,221.568 313.389,221.568C305.755,221.568 299.565,227.757 299.565,235.392C299.565,243.027 305.755,249.216 313.389,249.216C321.023,249.216 327.214,243.027 327.214,235.392Z" style="fill:rgb(3,4,4);fill-rule:nonzero;"/>
        <path d="M327.214,235.392C327.214,227.757 321.023,221.568 313.389,221.568C305.755,221.568 299.565,227.757 299.565,235.392C299.565,243.027 305.755,249.216 313.389,249.216C321.023,249.216 327.214,243.027 327.214,235.392Z" style="fill:none;stroke:rgb(3,4,4);stroke-width:0.71px;"/>
        <path d="M304.983,314.848L315.107,308.749L312.315,295.773L293.34,305.829C296.745,309.403 300.67,312.444 304.983,314.848Z" style="fill:white;fill-rule:nonzero;"/>
        <path d="M304.983,314.848L315.107,308.749L312.315,295.773L293.34,305.829C296.745,309.403 300.67,312.444 304.983,314.848Z" style="fill:none;stroke:white;stroke-width:0.3px;"/>
    </g>
</svg>
