<?xml version="1.0" encoding="UTF-8" standalone="no"?>
<!DOCTYPE svg PUBLIC "-//W3C//DTD SVG 1.1//EN" "http://www.w3.org/Graphics/SVG/1.1/DTD/svg11.dtd">
<svg width="100%" height="100%" viewBox="0 0 256 224" version="1.1" xmlns="http://www.w3.org/2000/svg" xmlns:xlink="http://www.w3.org/1999/xlink" xml:space="preserve" xmlns:serif="http://www.serif.com/" style="fill-rule:evenodd;clip-rule:evenodd;stroke-miterlimit:2;">
    <g>
        <path d="M135.323,5.085L253.979,210.429C254.771,211.869 255.203,213.38 255.203,214.964C255.203,219.933 251.243,223.893 246.275,223.893L9.035,223.893C4.211,223.893 0.107,219.933 0.107,214.964C0.107,213.38 0.539,211.796 1.331,210.429L119.987,5.085C123.443,-0.963 132.011,-0.963 135.467,5.085L135.323,5.085Z" style="fill:rgb(211,63,39);fill-rule:nonzero;"/>
        <path d="M135.323,5.085L253.979,210.429C254.771,211.869 255.203,213.38 255.203,214.964C255.203,219.933 251.243,223.893 246.275,223.893L9.035,223.893C4.211,223.893 0.107,219.933 0.107,214.964C0.107,213.38 0.539,211.796 1.331,210.429L119.987,5.085C123.443,-0.963 132.011,-0.963 135.467,5.085L135.323,5.085Z" style="fill:none;stroke:rgb(211,63,39);stroke-width:0.22px;"/>
        <path d="M39.996,197.108L127.691,45.261L215.315,197.108L39.996,197.108Z" style="fill:white;fill-rule:nonzero;"/>
        <path d="M39.996,197.108L127.691,45.261L215.315,197.108L39.996,197.108Z" style="fill:none;stroke:white;stroke-width:0.22px;"/>
        <path d="M138.491,181.197C138.491,175.509 133.883,170.973 128.123,170.973C122.507,170.973 117.827,175.509 117.827,181.197C117.827,187.028 122.507,191.637 128.123,191.637C133.883,191.637 138.491,187.028 138.491,181.197Z" style="fill:rgb(35,31,32);fill-rule:nonzero;"/>
        <path d="M138.491,181.197C138.491,175.509 133.883,170.973 128.123,170.973C122.507,170.973 117.827,175.509 117.827,181.197C117.827,187.028 122.507,191.637 128.123,191.637C133.883,191.637 138.491,187.028 138.491,181.197Z" style="fill:none;stroke:rgb(35,31,32);stroke-width:0.22px;"/>
        <path d="M121.715,157.869L117.755,83.492C117.323,77.444 122.075,72.477 127.979,72.477C133.812,72.477 138.419,77.157 138.419,82.845L138.419,83.492L134.315,157.869C134.243,159.453 133.595,160.964 132.587,162.189C131.363,163.413 129.707,164.205 127.979,164.205C126.396,164.205 124.667,163.413 123.516,162.189C122.507,160.964 121.931,159.524 121.715,157.869Z" style="fill:rgb(35,31,32);fill-rule:nonzero;"/>
        <path d="M121.715,157.869L117.755,83.492C117.323,77.444 122.075,72.477 127.979,72.477C133.812,72.477 138.419,77.157 138.419,82.845L138.419,83.492L134.315,157.869C134.243,159.453 133.595,160.964 132.587,162.189C131.363,163.413 129.707,164.205 127.979,164.205C126.396,164.205 124.667,163.413 123.516,162.189C122.507,160.964 121.931,159.524 121.715,157.869Z" style="fill:none;stroke:rgb(35,31,32);stroke-width:0.22px;"/>
    </g>
</svg>
