<?xml version="1.0" encoding="UTF-8" standalone="no"?>
<!DOCTYPE svg PUBLIC "-//W3C//DTD SVG 1.1//EN" "http://www.w3.org/Graphics/SVG/1.1/DTD/svg11.dtd">
<svg width="100%" height="100%" viewBox="0 0 256 224" version="1.1" xmlns="http://www.w3.org/2000/svg" xmlns:xlink="http://www.w3.org/1999/xlink" xml:space="preserve" xmlns:serif="http://www.serif.com/" style="fill-rule:evenodd;clip-rule:evenodd;stroke-miterlimit:2;">
    <g>
        <path d="M1.331,13.796L119.987,219.428C121.5,222.164 124.379,223.892 127.691,223.892C131.003,223.892 133.956,222.164 135.396,219.428L253.979,13.796C254.916,12.645 255.203,10.844 255.203,9.333C255.203,4.581 251.387,0.405 246.275,0.405L9.179,0.405C3.995,0.405 0.107,4.581 0.107,9.333C0.107,10.844 0.467,12.645 1.331,13.796Z" style="fill:white;fill-rule:nonzero;"/>
        <path d="M1.331,13.796L119.987,219.428C121.5,222.164 124.379,223.892 127.691,223.892C131.003,223.892 133.956,222.164 135.396,219.428L253.979,13.796C254.916,12.645 255.203,10.844 255.203,9.333C255.203,4.581 251.387,0.405 246.275,0.405L9.179,0.405C3.995,0.405 0.107,4.581 0.107,9.333C0.107,10.844 0.467,12.645 1.331,13.796Z" style="fill:none;stroke:rgb(211,63,39);stroke-width:0.22px;"/>
        <path d="M246.275,4.365L9.179,4.365C6.083,4.365 3.995,6.741 3.995,9.333C3.995,10.269 4.355,11.132 4.643,12.068L123.228,217.412C124.091,218.852 125.892,220.076 127.691,220.076C129.419,220.076 131.219,218.852 132.155,217.412L250.739,12.068C250.955,11.132 251.387,10.269 251.387,9.333C251.387,6.741 249.228,4.365 246.275,4.365Z" style="fill:rgb(211,63,39);fill-rule:nonzero;"/>
        <path d="M246.275,4.365L9.179,4.365C6.083,4.365 3.995,6.741 3.995,9.333C3.995,10.269 4.355,11.132 4.643,12.068L123.228,217.412C124.091,218.852 125.892,220.076 127.691,220.076C129.419,220.076 131.219,218.852 132.155,217.412L250.739,12.068C250.955,11.132 251.387,10.269 251.387,9.333C251.387,6.741 249.228,4.365 246.275,4.365Z" style="fill:none;stroke:rgb(241,93,42);stroke-width:0.22px;"/>
        <path d="M208.691,31.077L46.691,31.077L127.691,171.476L208.691,31.077Z" style="fill:white;fill-rule:nonzero;"/>
        <path d="M208.691,31.077L46.691,31.077L127.691,171.476L208.691,31.077Z" style="fill:none;stroke:white;stroke-width:0.22px;"/>
    </g>
</svg>
