<?xml version="1.0" encoding="UTF-8" standalone="no"?>
<!DOCTYPE svg PUBLIC "-//W3C//DTD SVG 1.1//EN" "http://www.w3.org/Graphics/SVG/1.1/DTD/svg11.dtd">
<svg width="100%" height="100%" viewBox="0 0 142 142" version="1.1" xmlns="http://www.w3.org/2000/svg" xmlns:xlink="http://www.w3.org/1999/xlink" xml:space="preserve" xmlns:serif="http://www.serif.com/" style="fill-rule:evenodd;clip-rule:evenodd;stroke-miterlimit:2;">
    <g>
        <path d="M6.875,141.892L135.107,141.892C138.779,141.892 141.875,138.796 141.875,135.124L141.875,6.893C141.875,3.221 138.779,0.125 135.107,0.125L6.875,0.125C3.203,0.125 0.107,3.221 0.107,6.893L0.107,135.124C0.107,138.796 3.203,141.892 6.875,141.892Z" style="fill:white;fill-rule:nonzero;"/>
        <path d="M6.875,141.892L135.107,141.892C138.779,141.892 141.875,138.796 141.875,135.124L141.875,6.893C141.875,3.221 138.779,0.125 135.107,0.125L6.875,0.125C3.203,0.125 0.107,3.221 0.107,6.893L0.107,135.124C0.107,138.796 3.203,141.892 6.875,141.892Z" style="fill:none;stroke:rgb(0,104,178);stroke-width:0.22px;"/>
        <path d="M135.107,138.436C137.051,138.436 138.419,137.068 138.419,135.124L138.419,6.893C138.419,4.949 137.051,3.58 135.107,3.58L6.875,3.58C4.931,3.58 3.563,4.949 3.563,6.893L3.563,135.124C3.563,137.068 4.931,138.436 6.875,138.436L135.107,138.436Z" style="fill:rgb(0,104,178);fill-rule:nonzero;"/>
        <path d="M135.107,138.436C137.051,138.436 138.419,137.068 138.419,135.124L138.419,6.893C138.419,4.949 137.051,3.58 135.107,3.58L6.875,3.58C4.931,3.58 3.563,4.949 3.563,6.893L3.563,135.124C3.563,137.068 4.931,138.436 6.875,138.436L135.107,138.436Z" style="fill:none;stroke:rgb(0,104,178);stroke-width:0.22px;"/>
        <path d="M44.603,117.197C44.099,118.06 42.875,118.06 42.371,117.197L21.059,86.597C20.556,86.021 21.059,85.445 21.635,85.445L21.923,85.445L36.107,88.037L36.107,25.613L51.155,25.613L51.155,88.037L65.339,85.445C65.915,85.157 66.203,85.805 66.203,86.309L66.203,86.597L44.603,117.197Z" style="fill:rgb(211,63,39);fill-rule:nonzero;"/>
        <path d="M44.603,117.197C44.099,118.06 42.875,118.06 42.371,117.197L21.059,86.597C20.556,86.021 21.059,85.445 21.635,85.445L21.923,85.445L36.107,88.037L36.107,25.613L51.155,25.613L51.155,88.037L65.339,85.445C65.915,85.157 66.203,85.805 66.203,86.309L66.203,86.597L44.603,117.197Z" style="fill:none;stroke:rgb(211,63,39);stroke-width:0.22px;"/>
        <path d="M99.611,24.821C99.323,24.173 98.747,24.173 98.459,24.173C97.955,24.173 97.667,24.173 97.379,24.821L75.779,55.421L75.779,55.709C75.779,56.213 76.067,56.573 76.643,56.573L90.827,53.981L90.827,116.405L105.875,116.405L105.875,53.981L120.06,56.573L120.347,56.573C120.635,56.573 121.139,56.213 121.139,55.709C121.139,55.709 121.139,55.421 120.923,55.421L99.611,24.821Z" style="fill:white;fill-rule:nonzero;"/>
        <path d="M99.611,24.821C99.323,24.173 98.747,24.173 98.459,24.173C97.955,24.173 97.667,24.173 97.379,24.821L75.779,55.421L75.779,55.709C75.779,56.213 76.067,56.573 76.643,56.573L90.827,53.981L90.827,116.405L105.875,116.405L105.875,53.981L120.06,56.573L120.347,56.573C120.635,56.573 121.139,56.213 121.139,55.709C121.139,55.709 121.139,55.421 120.923,55.421L99.611,24.821Z" style="fill:none;stroke:white;stroke-width:0.22px;"/>
    </g>
</svg>
