<?xml version="1.0" encoding="UTF-8" standalone="no"?>
<!DOCTYPE svg PUBLIC "-//W3C//DTD SVG 1.1//EN" "http://www.w3.org/Graphics/SVG/1.1/DTD/svg11.dtd">
<svg width="100%" height="100%" viewBox="0 0 596 596" version="1.1" xmlns="http://www.w3.org/2000/svg" xmlns:xlink="http://www.w3.org/1999/xlink" xml:space="preserve" xmlns:serif="http://www.serif.com/" style="fill-rule:evenodd;clip-rule:evenodd;stroke-linecap:round;stroke-linejoin:round;stroke-miterlimit:2;">
    <g>
        <path d="M594.922,298.363C594.922,134.178 461.823,1.079 297.638,1.079C133.453,1.079 0.354,134.178 0.354,298.363C0.354,462.547 133.453,595.647 297.638,595.647C461.823,595.647 594.922,462.547 594.922,298.363Z" style="fill:rgb(211,63,39);fill-rule:nonzero;"/>
        <path d="M594.922,298.363C594.922,134.178 461.823,1.079 297.638,1.079C133.453,1.079 0.354,134.178 0.354,298.363C0.354,462.547 133.453,595.647 297.638,595.647C461.823,595.647 594.922,462.547 594.922,298.363Z" style="fill:none;stroke:rgb(211,63,39);stroke-width:0.71px;"/>
        <path d="M441.61,468.611L127.389,154.391C52.527,242.916 58,374.042 139.979,456.021C221.958,538 353.084,543.474 441.61,468.611Z" style="fill:white;fill-rule:nonzero;"/>
        <path d="M441.61,468.611L127.389,154.391C52.527,242.916 58,374.042 139.979,456.021C221.958,538 353.084,543.474 441.61,468.611Z" style="fill:none;stroke:white;stroke-width:0.71px;"/>
        <path d="M467.887,442.334C542.748,353.809 537.275,222.683 455.297,140.704C373.317,58.726 242.191,53.253 153.666,128.115L467.887,442.334Z" style="fill:white;fill-rule:nonzero;"/>
        <path d="M467.887,442.334C542.748,353.809 537.275,222.683 455.297,140.704C373.317,58.726 242.191,53.253 153.666,128.115L467.887,442.334Z" style="fill:none;stroke:white;stroke-width:0.71px;"/>
        <path d="M221.909,196.357L226.559,181.031C227.58,177.183 231.009,174.465 234.987,174.35L262.164,174.35C266.676,174.831 270.166,178.526 270.389,183.058C270.612,187.589 267.502,191.61 263.06,192.532L244.809,192.669C242.5,192.686 240.573,194.436 240.333,196.732L236.156,210.604L221.909,196.357Z" style="fill:rgb(35,31,32);fill-rule:nonzero;"/>
        <path d="M221.909,196.357L226.559,181.031C227.58,177.183 231.009,174.465 234.987,174.35L262.164,174.35C266.676,174.831 270.166,178.526 270.389,183.058C270.612,187.589 267.502,191.61 263.06,192.532L244.809,192.669C242.5,192.686 240.573,194.436 240.333,196.732L236.156,210.604L221.909,196.357Z" style="fill:none;stroke:black;stroke-width:0.68px;"/>
        <path d="M393.539,286.905C413.333,281.491 434.511,287.098 449.031,301.599C463.554,316.099 469.19,337.269 463.805,357.071C458.418,376.872 442.834,392.27 422.968,397.416L436.253,410.702C473.113,395.9 491.682,354.61 478.299,317.211C464.915,279.813 424.365,259.68 386.482,271.626L362.23,218.908L367.396,201.966L378.208,201.829C382.669,200.94 385.813,196.927 385.605,192.383C385.399,187.839 381.904,184.127 377.382,183.647L339.917,183.578C335.218,183.598 331.283,187.142 330.772,191.812C330.261,196.483 333.337,200.793 337.92,201.829L348.801,201.966L334.843,248.053L244.695,219.144L273.338,247.787L329.289,265.742L320.37,294.819L334.63,309.079L354.38,244.39L370.244,279.003C356.63,287.3 346.064,299.777 340.123,314.572L353.257,327.705C356.828,313.955 365.389,302.027 377.271,294.241L395.012,332.818L358.368,332.818L376.512,350.96C387.247,350.913 397.983,350.995 408.717,351.204C411.828,351.266 414.752,349.724 416.458,347.122C418.165,344.521 418.414,341.224 417.118,338.396L393.497,286.813L393.539,286.905Z" style="fill:rgb(35,31,32);fill-rule:nonzero;"/>
        <path d="M393.539,286.905C413.333,281.491 434.511,287.098 449.031,301.599C463.554,316.099 469.19,337.269 463.805,357.071C458.418,376.872 442.834,392.27 422.968,397.416L436.253,410.702C473.113,395.9 491.682,354.61 478.299,317.211C464.915,279.813 424.365,259.68 386.482,271.626L362.23,218.908L367.396,201.966L378.208,201.829C382.669,200.94 385.813,196.927 385.605,192.383C385.399,187.839 381.904,184.127 377.382,183.647L339.917,183.578C335.218,183.598 331.283,187.142 330.772,191.812C330.261,196.483 333.337,200.793 337.92,201.829L348.801,201.966L334.843,248.053L244.695,219.144L273.338,247.787L329.289,265.742L320.37,294.819L334.63,309.079L354.38,244.39L370.244,279.003C356.63,287.3 346.064,299.777 340.123,314.572L353.257,327.705C356.828,313.955 365.389,302.027 377.271,294.241L395.012,332.818L358.368,332.818L376.512,350.96C387.247,350.913 397.983,350.995 408.717,351.204C411.828,351.266 414.752,349.724 416.458,347.122C418.165,344.521 418.414,341.224 417.118,338.396L393.497,286.813L393.539,286.905Z" style="fill:none;stroke:black;stroke-width:0.71px;"/>
        <path d="M338.646,365.647C346.015,387.588 363.236,404.81 385.178,412.179L338.646,365.647Z" style="fill:rgb(35,31,32);fill-rule:nonzero;"/>
        <path d="M338.646,365.647C346.015,387.588 363.236,404.81 385.178,412.179L338.646,365.647Z" style="fill:none;stroke:black;stroke-width:0.65px;"/>
        <path d="M324.294,351.294C320.031,357.673 311.979,360.34 304.75,357.764C297.523,355.188 292.973,348.03 293.706,340.392L221.738,258.026L216.54,275.38C251.743,292.359 267.641,333.811 252.819,369.975C237.997,406.139 197.58,424.511 160.587,411.899C123.595,399.288 102.816,360.053 113.171,322.367C123.526,284.68 161.434,261.571 199.678,269.632L209.676,236.677L324.294,351.294Z" style="fill:rgb(35,31,32);fill-rule:nonzero;"/>
        <path d="M324.294,351.294C320.031,357.673 311.979,360.34 304.75,357.764C297.523,355.188 292.973,348.03 293.706,340.392L221.738,258.026L216.54,275.38C251.743,292.359 267.641,333.811 252.819,369.975C237.997,406.139 197.58,424.511 160.587,411.899C123.595,399.288 102.816,360.053 113.171,322.367C123.526,284.68 161.434,261.571 199.678,269.632L209.676,236.677L324.294,351.294Z" style="fill:none;stroke:black;stroke-width:0.71px;"/>
        <path d="M203.381,318.059C200.974,326.266 198.019,334.303 194.535,342.114C193.528,344.299 192.231,346.337 190.678,348.175C187.661,351.234 182.881,351.682 179.348,349.237C175.815,346.79 174.552,342.159 176.354,338.258C179.896,331.349 182.867,324.163 185.237,316.771L194.8,285.63C165.395,280.204 136.761,298.305 129.05,327.196C121.339,356.085 137.145,386.047 165.343,395.996C193.541,405.944 224.648,392.532 236.772,365.198C248.896,337.865 237.959,305.803 211.658,291.578L203.381,318.059Z" style="fill:white;fill-rule:nonzero;"/>
        <path d="M203.381,318.059C200.974,326.266 198.019,334.303 194.535,342.114C193.528,344.299 192.231,346.337 190.678,348.175C187.661,351.234 182.881,351.682 179.348,349.237C175.815,346.79 174.552,342.159 176.354,338.258C179.896,331.349 182.867,324.163 185.237,316.771L194.8,285.63C165.395,280.204 136.761,298.305 129.05,327.196C121.339,356.085 137.145,386.047 165.343,395.996C193.541,405.944 224.648,392.532 236.772,365.198C248.896,337.865 237.959,305.803 211.658,291.578L203.381,318.059Z" style="fill:none;stroke:white;stroke-width:0.71px;"/>
    </g>
</svg>
