<?xml version="1.0" encoding="UTF-8" standalone="no"?>
<!DOCTYPE svg PUBLIC "-//W3C//DTD SVG 1.1//EN" "http://www.w3.org/Graphics/SVG/1.1/DTD/svg11.dtd">
<svg width="100%" height="100%" viewBox="0 0 227 227" version="1.1" xmlns="http://www.w3.org/2000/svg" xmlns:xlink="http://www.w3.org/1999/xlink" xml:space="preserve" xmlns:serif="http://www.serif.com/" style="fill-rule:evenodd;clip-rule:evenodd;stroke-miterlimit:2;">
    <g>
        <path d="M226.691,113.708C226.691,51.357 175.643,0.309 113.291,0.309C51.155,0.309 0.107,51.357 0.107,113.708C0.107,175.845 51.155,226.892 113.291,226.892C175.643,226.892 226.691,175.845 226.691,113.708Z" style="fill:rgb(211,63,39);fill-rule:nonzero;"/>
        <path d="M226.691,113.708C226.691,51.357 175.643,0.309 113.291,0.309C51.155,0.309 0.107,51.357 0.107,113.708C0.107,175.845 51.155,226.892 113.291,226.892C175.643,226.892 226.691,175.845 226.691,113.708Z" style="fill:none;stroke:rgb(211,63,39);stroke-width:0.22px;"/>
        <path d="M178.163,168.788C191.267,153.164 198.323,133.868 198.323,113.708C198.323,66.693 160.307,28.676 113.291,28.676C93.131,28.676 73.835,35.733 58.211,48.837L178.163,168.788Z" style="fill:white;fill-rule:nonzero;"/>
        <path d="M178.163,168.788C191.267,153.164 198.323,133.868 198.323,113.708C198.323,66.693 160.307,28.676 113.291,28.676C93.131,28.676 73.835,35.733 58.211,48.837L178.163,168.788Z" style="fill:none;stroke:rgb(241,93,42);stroke-width:0.22px;"/>
        <path d="M168.299,178.652L48.347,58.7C35.243,74.037 28.187,93.621 28.187,113.708C28.187,160.796 66.203,198.812 113.291,198.812C133.379,198.812 152.963,191.757 168.299,178.652Z" style="fill:white;fill-rule:nonzero;"/>
        <path d="M168.299,178.652L48.347,58.7C35.243,74.037 28.187,93.621 28.187,113.708C28.187,160.796 66.203,198.812 113.291,198.812C133.379,198.812 152.963,191.757 168.299,178.652Z" style="fill:none;stroke:rgb(241,93,42);stroke-width:0.22px;"/>
        <path d="M173.627,125.372L154.403,125.372C157.787,127.892 159.731,131.925 159.731,136.172L159.731,136.964L173.627,136.964L173.627,125.372Z" style="fill:rgb(35,31,32);fill-rule:nonzero;"/>
        <path d="M173.627,125.372L154.403,125.372C157.787,127.892 159.731,131.925 159.731,136.172L159.731,136.964L173.627,136.964L173.627,125.372Z" style="fill:none;stroke:rgb(35,31,32);stroke-width:0.22px;"/>
        <path d="M91.691,102.405L91.691,120.261L109.835,120.261L91.691,102.405Z" style="fill:rgb(35,31,32);fill-rule:nonzero;"/>
        <path d="M91.691,102.405L91.691,120.261L109.835,120.261L91.691,102.405Z" style="fill:none;stroke:rgb(35,31,32);stroke-width:0.22px;"/>
        <path d="M81.179,135.885C81.179,129.909 76.139,124.796 69.875,124.796C63.611,124.796 58.499,129.909 58.499,135.885C58.499,141.788 63.611,146.9 69.875,146.9C76.139,146.9 81.179,141.788 81.179,135.885Z" style="fill:rgb(35,31,32);fill-rule:nonzero;"/>
        <path d="M81.179,135.885C81.179,129.909 76.139,124.796 69.875,124.796C63.611,124.796 58.499,129.909 58.499,135.885C58.499,141.788 63.611,146.9 69.875,146.9C76.139,146.9 81.179,141.788 81.179,135.885Z" style="fill:none;stroke:rgb(35,31,32);stroke-width:0.22px;"/>
        <path d="M114.659,125.372L91.691,125.372L91.691,136.964L126.611,136.964L114.659,125.372Z" style="fill:rgb(35,31,32);fill-rule:nonzero;"/>
        <path d="M114.659,125.372L91.691,125.372L91.691,136.964L126.611,136.964L114.659,125.372Z" style="fill:none;stroke:rgb(35,31,32);stroke-width:0.22px;"/>
        <path d="M85.715,96.429L86.003,136.964L82.907,136.964L82.907,136.172C82.907,128.757 76.931,122.852 69.587,122.852C62.531,122.852 56.555,128.757 56.555,136.172L56.555,136.964L47.483,136.964L46.331,136.46L45.755,135.308L45.467,134.157L45.467,112.341L51.443,90.453L52.019,89.373L53.171,88.508L54.251,87.933L77.507,87.933L85.715,96.429Z" style="fill:rgb(35,31,32);fill-rule:nonzero;"/>
        <path d="M85.715,96.429L86.003,136.964L82.907,136.964L82.907,136.172C82.907,128.757 76.931,122.852 69.587,122.852C62.531,122.852 56.555,128.757 56.555,136.172L56.555,136.964L47.483,136.964L46.331,136.46L45.755,135.308L45.467,134.157L45.467,112.341L51.443,90.453L52.019,89.373L53.171,88.508L54.251,87.933L77.507,87.933L85.715,96.429Z" style="fill:none;stroke:rgb(35,31,32);stroke-width:0.22px;"/>
        <path d="M153.827,144.38C156.347,142.076 157.499,139.268 157.499,136.172C157.499,129.909 152.675,124.796 146.411,124.796C143.315,124.796 140.507,126.236 138.203,128.757L153.827,144.38Z" style="fill:rgb(35,31,32);fill-rule:nonzero;"/>
        <path d="M153.827,144.38C156.347,142.076 157.499,139.268 157.499,136.172C157.499,129.909 152.675,124.796 146.411,124.796C143.315,124.796 140.507,126.236 138.203,128.757L153.827,144.38Z" style="fill:none;stroke:rgb(35,31,32);stroke-width:0.22px;"/>
        <path d="M136.763,127.1C137.339,126.524 138.203,125.66 139.067,125.084L134.819,125.084L136.763,127.1Z" style="fill:rgb(35,31,32);fill-rule:nonzero;"/>
        <path d="M136.763,127.1C137.339,126.524 138.203,125.66 139.067,125.084L134.819,125.084L136.763,127.1Z" style="fill:none;stroke:rgb(35,31,32);stroke-width:0.22px;"/>
        <path d="M129.707,120.261L173.627,120.261L173.627,72.597L173.411,71.229L172.547,69.789L171.683,69.213L169.956,68.637L95.939,68.637L94.571,68.925L93.42,69.501L92.267,70.365L91.98,71.517L91.691,73.461L91.691,82.245L129.707,120.261Z" style="fill:rgb(35,31,32);fill-rule:nonzero;"/>
        <path d="M129.707,120.261L173.627,120.261L173.627,72.597L173.411,71.229L172.547,69.789L171.683,69.213L169.956,68.637L95.939,68.637L94.571,68.925L93.42,69.501L92.267,70.365L91.98,71.517L91.691,73.461L91.691,82.245L129.707,120.261Z" style="fill:none;stroke:rgb(35,31,32);stroke-width:0.22px;"/>
        <path d="M78.947,109.173L53.963,109.173L53.171,108.668L52.595,108.093L52.595,107.228L55.979,94.772L56.555,94.197L57.131,93.909L78.371,93.909L79.523,94.197L80.099,94.772L80.387,95.061L80.387,108.093L80.099,108.668L78.947,109.173Z" style="fill:white;fill-rule:nonzero;"/>
        <path d="M78.947,109.173L53.963,109.173L53.171,108.668L52.595,108.093L52.595,107.228L55.979,94.772L56.555,94.197L57.131,93.909L78.371,93.909L79.523,94.197L80.099,94.772L80.387,95.061L80.387,108.093L80.099,108.668L78.947,109.173Z" style="fill:none;stroke:rgb(35,31,32);stroke-width:0.22px;"/>
    </g>
</svg>
