<?xml version="1.0" encoding="UTF-8" standalone="no"?>
<!DOCTYPE svg PUBLIC "-//W3C//DTD SVG 1.1//EN" "http://www.w3.org/Graphics/SVG/1.1/DTD/svg11.dtd">
<svg width="100%" height="100%" viewBox="0 0 596 596" version="1.1" xmlns="http://www.w3.org/2000/svg" xmlns:xlink="http://www.w3.org/1999/xlink" xml:space="preserve" xmlns:serif="http://www.serif.com/" style="fill-rule:evenodd;clip-rule:evenodd;stroke-miterlimit:2;">
    <g>
        <path d="M595.068,298.216C595.068,134.031 461.969,0.932 297.784,0.932C133.599,0.932 0.5,134.031 0.5,298.216C0.5,462.4 133.599,595.5 297.784,595.5C461.969,595.5 595.068,462.4 595.068,298.216Z" style="fill:rgb(211,63,39);fill-rule:nonzero;"/>
        <path d="M595.068,298.216C595.068,134.031 461.969,0.932 297.784,0.932C133.599,0.932 0.5,134.031 0.5,298.216C0.5,462.4 133.599,595.5 297.784,595.5C461.969,595.5 595.068,462.4 595.068,298.216Z" style="fill:none;stroke:rgb(211,63,39);stroke-width:1px;"/>
        <path d="M441.756,468.464L127.535,154.244C52.673,242.769 58.146,373.895 140.125,455.874C222.104,537.853 353.23,543.327 441.756,468.464Z" style="fill:white;fill-rule:nonzero;"/>
        <path d="M441.756,468.464L127.535,154.244C52.673,242.769 58.146,373.895 140.125,455.874C222.104,537.853 353.23,543.327 441.756,468.464Z" style="fill:none;stroke:white;stroke-width:0.71px;stroke-linecap:round;stroke-linejoin:round;"/>
        <path d="M468.033,442.187C542.894,353.662 537.421,222.536 455.443,140.557C373.463,58.579 242.337,53.106 153.812,127.968L468.033,442.187Z" style="fill:white;fill-rule:nonzero;"/>
        <path d="M468.033,442.187C542.894,353.662 537.421,222.536 455.443,140.557C373.463,58.579 242.337,53.106 153.812,127.968L468.033,442.187Z" style="fill:none;stroke:white;stroke-width:0.71px;stroke-linecap:round;stroke-linejoin:round;"/>
        <path d="M371.664,398.372L347.997,398.372C347.474,395.618 346.315,393.023 344.614,390.796L311.894,347.953C306.607,341.029 296.708,339.703 289.785,344.991L247.957,376.934C247.83,374.175 248.066,371.41 248.66,368.712L230.705,375.41C225.026,377.528 219.974,381.044 216.014,385.632C211.977,390.308 210.616,396.726 212.408,402.639C213.418,405.973 214.907,409.142 216.827,412.051C220.925,411.686 225.055,411.949 229.074,412.829L227.616,417.127C208.991,413.322 190.617,424.651 185.652,443.001C180.687,461.351 190.841,480.399 208.844,486.505C226.846,492.611 246.494,483.671 253.716,466.087C260.939,448.502 253.249,428.333 236.151,420.021L237.609,415.724C249.483,421.292 257.927,432.263 260.271,445.166C262.217,455.882 271.55,463.673 282.442,463.673L334.929,463.673C340.391,480.253 356.96,490.526 374.241,488.048C391.521,485.569 404.534,471.054 405.116,453.605C405.698,436.158 393.68,420.807 376.603,417.183C359.527,413.558 342.31,422.706 335.755,438.886L330.937,438.886C336.665,422.707 351.965,411.891 369.128,411.891L385.184,411.891L371.664,398.372Z" style="fill:rgb(35,31,32);fill-rule:nonzero;"/>
        <path d="M371.664,398.372L347.997,398.372C347.474,395.618 346.315,393.023 344.614,390.796L311.894,347.953C306.607,341.029 296.708,339.703 289.785,344.991L247.957,376.934C247.83,374.175 248.066,371.41 248.66,368.712L230.705,375.41C225.026,377.528 219.974,381.044 216.014,385.632C211.977,390.308 210.616,396.726 212.408,402.639C213.418,405.973 214.907,409.142 216.827,412.051C220.925,411.686 225.055,411.949 229.074,412.829L227.616,417.127C208.991,413.322 190.617,424.651 185.652,443.001C180.687,461.351 190.841,480.399 208.844,486.505C226.846,492.611 246.494,483.671 253.716,466.087C260.939,448.502 253.249,428.333 236.151,420.021L237.609,415.724C249.483,421.292 257.927,432.263 260.271,445.166C262.217,455.882 271.55,463.673 282.442,463.673L334.929,463.673C340.391,480.253 356.96,490.526 374.241,488.048C391.521,485.569 404.534,471.054 405.116,453.605C405.698,436.158 393.68,420.807 376.603,417.183C359.527,413.558 342.31,422.706 335.755,438.886L330.937,438.886C336.665,422.707 351.965,411.891 369.128,411.891L385.184,411.891L371.664,398.372Z" style="fill:none;stroke:black;stroke-width:0.71px;stroke-linecap:round;stroke-linejoin:round;"/>
        <path d="M284.366,311.075C277.907,313.695 273.155,319.334 271.67,326.144L286.145,323.991L286.145,334.822L272.625,336.368L272.625,347.708L279.889,346.877L287.05,341.409C294.011,336.092 303.599,335.847 310.824,340.799C311.217,340.081 311.568,339.342 311.875,338.583L284.366,311.075Z" style="fill:rgb(35,31,32);fill-rule:nonzero;"/>
        <path d="M284.366,311.075C277.907,313.695 273.155,319.334 271.67,326.144L286.145,323.991L286.145,334.822L272.625,336.368L272.625,347.708L279.889,346.877L287.05,341.409C294.011,336.092 303.599,335.847 310.824,340.799C311.217,340.081 311.568,339.342 311.875,338.583L284.366,311.075Z" style="fill:none;stroke:black;stroke-width:0.56px;stroke-linecap:round;stroke-linejoin:round;"/>
        <path d="M237.819,264.527L237.819,266.441L235.327,274.671C228.239,278.459 219.729,278.459 212.641,274.671L210.149,266.441L210.149,247.798L221.09,247.798L237.819,264.527Z" style="fill:rgb(35,31,32);fill-rule:nonzero;"/>
        <path d="M237.819,264.527L237.819,266.441L235.327,274.671C228.239,278.459 219.729,278.459 212.641,274.671L210.149,266.441L210.149,247.798L221.09,247.798L237.819,264.527Z" style="fill:none;stroke:black;stroke-width:0.38px;stroke-linecap:round;stroke-linejoin:round;"/>
        <path d="M221.09,247.798L204.74,231.448L198.737,231.448L197.901,232.259L197.901,246.988L198.737,247.798L221.09,247.798Z" style="fill:rgb(35,31,32);fill-rule:nonzero;"/>
        <path d="M221.09,247.798L204.74,231.448L198.737,231.448L197.901,232.259L197.901,246.988L198.737,247.798L221.09,247.798Z" style="fill:none;stroke:black;stroke-width:0.32px;stroke-linecap:round;stroke-linejoin:round;"/>
        <path d="M257.292,231.448L273.643,247.798L402.634,247.798L403.469,246.988L403.469,232.259L402.634,231.448L257.292,231.448Z" style="fill:rgb(35,31,32);fill-rule:nonzero;"/>
        <path d="M257.292,231.448L273.643,247.798L402.634,247.798L403.469,246.988L403.469,232.259L402.634,231.448L257.292,231.448Z" style="fill:none;stroke:black;stroke-width:0.71px;stroke-linecap:round;stroke-linejoin:round;"/>
        <path d="M391.222,266.441L391.222,247.798L363.552,247.798L363.552,266.441L366.044,274.671C373.131,278.459 381.643,278.459 388.73,274.671L391.222,266.441Z" style="fill:rgb(35,31,32);fill-rule:nonzero;"/>
        <path d="M391.222,266.441L391.222,247.798L363.552,247.798L363.552,266.441L366.044,274.671C373.131,278.459 381.643,278.459 388.73,274.671L391.222,266.441Z" style="fill:none;stroke:black;stroke-width:0.38px;stroke-linecap:round;stroke-linejoin:round;"/>
        <path d="M233.222,207.377L251.003,225.159L403.67,225.159L403.67,192.894C401.927,185.079 396.981,178.356 390.04,174.366L367.417,102.544C322.839,96.277 277.542,97.23 233.266,105.364L211.533,174.366C209.19,175.713 207.05,177.385 205.178,179.333L214.99,189.146C218.236,185.836 223.009,184.525 227.491,185.71C231.972,186.895 235.472,190.395 236.657,194.876C237.842,199.358 236.531,204.131 233.222,207.377Z" style="fill:rgb(35,31,32);fill-rule:nonzero;"/>
        <path d="M233.222,207.377L251.003,225.159L403.67,225.159L403.67,192.894C401.927,185.079 396.981,178.356 390.04,174.366L367.417,102.544C322.839,96.277 277.542,97.23 233.266,105.364L211.533,174.366C209.19,175.713 207.05,177.385 205.178,179.333L214.99,189.146C218.236,185.836 223.009,184.525 227.491,185.71C231.972,186.895 235.472,190.395 236.657,194.876C237.842,199.358 236.531,204.131 233.222,207.377Z" style="fill:none;stroke:black;stroke-width:0.71px;stroke-linecap:round;stroke-linejoin:round;"/>
        <path d="M390.069,198.173C390.069,191.053 384.297,185.282 377.176,185.282C370.057,185.282 364.285,191.053 364.285,198.173C364.285,205.293 370.057,211.065 377.176,211.065C384.297,211.065 390.069,205.293 390.069,198.173Z" style="fill:white;fill-rule:nonzero;"/>
        <path d="M390.069,198.173C390.069,191.053 384.297,185.282 377.176,185.282C370.057,185.282 364.285,191.053 364.285,198.173C364.285,205.293 370.057,211.065 377.176,211.065C384.297,211.065 390.069,205.293 390.069,198.173Z" style="fill:none;stroke:white;stroke-width:0.71px;stroke-linecap:round;stroke-linejoin:round;"/>
        <path d="M348.58,211.312L348.58,192.095C317.242,183.917 284.33,183.917 252.992,192.095L252.992,211.312L348.58,211.312Z" style="fill:white;fill-rule:nonzero;"/>
        <path d="M348.58,211.312L348.58,192.095C317.242,183.917 284.33,183.917 252.992,192.095L252.992,211.312L348.58,211.312Z" style="fill:none;stroke:white;stroke-width:0.71px;stroke-linecap:round;stroke-linejoin:round;"/>
        <path d="M357.926,123.036L370.208,169.481C325.589,152.488 276.375,151.95 231.396,167.966L244.873,124.453C282.364,119.445 320.322,118.97 357.926,123.036Z" style="fill:white;fill-rule:nonzero;"/>
        <path d="M357.926,123.036L370.208,169.481C325.589,152.488 276.375,151.95 231.396,167.966L244.873,124.453C282.364,119.445 320.322,118.97 357.926,123.036Z" style="fill:none;stroke:white;stroke-width:0.71px;stroke-linecap:round;stroke-linejoin:round;"/>
        <path d="M280.432,398.372C276.821,398.372 273.559,400.526 272.142,403.848L271.248,405.942C263.052,403.73 256.092,398.307 251.945,390.9L289.037,362.573L316.375,398.372L280.432,398.372Z" style="fill:white;fill-rule:nonzero;"/>
        <path d="M280.432,398.372C276.821,398.372 273.559,400.526 272.142,403.848L271.248,405.942C263.052,403.73 256.092,398.307 251.945,390.9L289.037,362.573L316.375,398.372L280.432,398.372Z" style="fill:none;stroke:white;stroke-width:0.71px;stroke-linecap:round;stroke-linejoin:round;"/>
        <path d="M216.141,450.958L223.955,427.921C211.3,426.088 199.333,434.201 196.351,446.636C193.368,459.07 200.353,471.728 212.462,475.836C224.572,479.942 237.816,474.145 243.014,462.462C248.211,450.779 243.649,437.059 232.491,430.815L224.677,453.853C223.877,456.21 221.319,457.473 218.961,456.673C216.604,455.874 215.342,453.315 216.141,450.958Z" style="fill:white;fill-rule:nonzero;"/>
        <path d="M216.141,450.958L223.955,427.921C211.3,426.088 199.333,434.201 196.351,446.636C193.368,459.07 200.353,471.728 212.462,475.836C224.572,479.942 237.816,474.145 243.014,462.462C248.211,450.779 243.649,437.059 232.491,430.815L224.677,453.853C223.877,456.21 221.319,457.473 218.961,456.673C216.604,455.874 215.342,453.315 216.141,450.958Z" style="fill:none;stroke:white;stroke-width:0.71px;stroke-linecap:round;stroke-linejoin:round;"/>
        <path d="M373.86,463.673L347.102,463.673C352.197,473.635 363.344,478.935 374.288,476.602C385.23,474.269 393.246,464.882 393.834,453.708C394.423,442.535 387.44,432.356 376.803,428.885C366.166,425.415 354.523,429.515 348.408,438.886L373.86,438.886C379.568,446.161 379.568,456.396 373.86,463.673Z" style="fill:white;fill-rule:nonzero;"/>
        <path d="M373.86,463.673L347.102,463.673C352.197,473.635 363.344,478.935 374.288,476.602C385.23,474.269 393.246,464.882 393.834,453.708C394.423,442.535 387.44,432.356 376.803,428.885C366.166,425.415 354.523,429.515 348.408,438.886L373.86,438.886C379.568,446.161 379.568,456.396 373.86,463.673Z" style="fill:none;stroke:white;stroke-width:0.66px;stroke-linecap:round;stroke-linejoin:round;"/>
    </g>
</svg>
