<?xml version="1.0" encoding="UTF-8" standalone="no"?>
<!DOCTYPE svg PUBLIC "-//W3C//DTD SVG 1.1//EN" "http://www.w3.org/Graphics/SVG/1.1/DTD/svg11.dtd">
<svg width="100%" height="100%" viewBox="0 0 227 227" version="1.1" xmlns="http://www.w3.org/2000/svg" xmlns:xlink="http://www.w3.org/1999/xlink" xml:space="preserve" xmlns:serif="http://www.serif.com/" style="fill-rule:evenodd;clip-rule:evenodd;stroke-miterlimit:2;">
    <g>
        <rect x="11.195" y="96.501" width="204.552" height="34.055" style="fill:white;fill-rule:nonzero;"/>
        <rect x="11.195" y="96.501" width="204.552" height="34.055" style="fill:none;stroke:white;stroke-width:0.22px;"/>
        <path d="M226.691,113.708C226.691,51.357 175.643,0.309 113.291,0.309C51.155,0.309 0.107,51.357 0.107,113.708C0.107,175.845 51.155,226.892 113.291,226.892C175.643,226.892 226.691,175.845 226.691,113.708Z" style="fill:rgb(211,63,39);fill-rule:nonzero;"/>
        <path d="M226.691,113.708C226.691,51.357 175.643,0.309 113.291,0.309C51.155,0.309 0.107,51.357 0.107,113.708C0.107,175.845 51.155,226.892 113.291,226.892C175.643,226.892 226.691,175.845 226.691,113.708Z" style="fill:none;stroke:rgb(211,63,39);stroke-width:0.22px;"/>
        <path d="M198.323,113.708C198.323,66.981 160.019,28.676 113.291,28.676C66.779,28.676 28.475,66.981 28.475,113.708C28.475,160.221 66.779,198.524 113.291,198.524C160.019,198.524 198.323,160.221 198.323,113.708Z" style="fill:white;fill-rule:nonzero;"/>
        <path d="M198.323,113.708C198.323,66.981 160.019,28.676 113.291,28.676C66.779,28.676 28.475,66.981 28.475,113.708C28.475,160.221 66.779,198.524 113.291,198.524C160.019,198.524 198.323,160.221 198.323,113.708Z" style="fill:none;stroke:rgb(241,93,42);stroke-width:0.22px;"/>
    </g>
</svg>
