<?xml version="1.0" encoding="UTF-8" standalone="no"?>
<!DOCTYPE svg PUBLIC "-//W3C//DTD SVG 1.1//EN" "http://www.w3.org/Graphics/SVG/1.1/DTD/svg11.dtd">
<svg width="100%" height="100%" viewBox="0 0 596 596" version="1.1" xmlns="http://www.w3.org/2000/svg" xmlns:xlink="http://www.w3.org/1999/xlink" xml:space="preserve" xmlns:serif="http://www.serif.com/" style="fill-rule:evenodd;clip-rule:evenodd;stroke-linecap:round;stroke-linejoin:round;stroke-miterlimit:2;">
    <g>
        <path d="M594.922,298.363C594.922,134.178 461.823,1.079 297.638,1.079C133.453,1.079 0.354,134.178 0.354,298.363C0.354,462.547 133.453,595.647 297.638,595.647C461.823,595.647 594.922,462.547 594.922,298.363Z" style="fill:rgb(211,63,39);fill-rule:nonzero;"/>
        <path d="M594.922,298.363C594.922,134.178 461.823,1.079 297.638,1.079C133.453,1.079 0.354,134.178 0.354,298.363C0.354,462.547 133.453,595.647 297.638,595.647C461.823,595.647 594.922,462.547 594.922,298.363Z" style="fill:none;stroke:rgb(211,63,39);stroke-width:0.71px;"/>
        <path d="M441.61,468.611L127.389,154.391C52.527,242.916 58,374.042 139.979,456.021C221.958,538 353.084,543.474 441.61,468.611Z" style="fill:white;fill-rule:nonzero;"/>
        <path d="M441.61,468.611L127.389,154.391C52.527,242.916 58,374.042 139.979,456.021C221.958,538 353.084,543.474 441.61,468.611Z" style="fill:none;stroke:white;stroke-width:0.71px;"/>
        <path d="M467.887,442.334C542.748,353.809 537.275,222.683 455.297,140.704C373.317,58.726 242.191,53.253 153.666,128.115L467.887,442.334Z" style="fill:white;fill-rule:nonzero;"/>
        <path d="M467.887,442.334C542.748,353.809 537.275,222.683 455.297,140.704C373.317,58.726 242.191,53.253 153.666,128.115L467.887,442.334Z" style="fill:none;stroke:white;stroke-width:0.71px;"/>
        <path d="M195.355,222.356L190.168,224.29C180.804,227.784 172.471,233.582 165.94,241.149C159.283,248.861 157.04,259.445 159.994,269.196C161.661,274.694 164.115,279.922 167.282,284.717C174.04,284.117 180.851,284.55 187.479,286L185.075,293.088C154.359,286.814 124.057,305.497 115.869,335.758C107.681,366.02 124.428,397.434 154.116,407.503C183.805,417.573 216.207,402.829 228.118,373.83C240.029,344.831 227.346,311.569 199.151,297.863L201.555,290.775C221.137,299.957 235.063,318.049 238.927,339.329C242.137,357.001 257.528,369.849 275.49,369.849L342.847,369.849L195.355,222.356Z" style="fill:rgb(35,31,32);fill-rule:nonzero;"/>
        <path d="M195.355,222.356L190.168,224.29C180.804,227.784 172.471,233.582 165.94,241.149C159.283,248.861 157.04,259.445 159.994,269.196C161.661,274.694 164.115,279.922 167.282,284.717C174.04,284.117 180.851,284.55 187.479,286L185.075,293.088C154.359,286.814 124.057,305.497 115.869,335.758C107.681,366.02 124.428,397.434 154.116,407.503C183.805,417.573 216.207,402.829 228.118,373.83C240.029,344.831 227.346,311.569 199.151,297.863L201.555,290.775C221.137,299.957 235.063,318.049 238.927,339.329C242.137,357.001 257.528,369.849 275.49,369.849L342.847,369.849L195.355,222.356Z" style="fill:none;stroke:rgb(35,31,32);stroke-width:0.71px;"/>
        <path d="M434.102,408.549C460.979,401.204 479.137,376.159 477.757,348.329C476.378,320.498 455.833,297.371 428.36,292.72C400.886,288.069 373.874,303.147 363.412,328.971L355.466,328.971C364.91,302.29 390.144,284.454 418.449,284.454L455.146,284.454L443.208,262.159L383.599,262.159C382.736,257.617 380.826,253.338 378.02,249.664L324.062,179.01C315.342,167.592 299.018,165.406 287.601,174.124L237.748,212.197L253.655,228.103L286.367,203.122L331.452,262.159L287.71,262.159L395.4,369.849L426.251,369.849C435.667,357.849 435.667,340.971 426.251,328.971L384.277,328.971C395.003,312.536 415.91,306.063 434.046,313.566C452.182,321.069 462.405,340.419 458.384,359.629C454.362,378.839 437.234,392.463 417.612,392.06L434.102,408.549Z" style="fill:rgb(35,31,32);fill-rule:nonzero;"/>
        <path d="M434.102,408.549C460.979,401.204 479.137,376.159 477.757,348.329C476.378,320.498 455.833,297.371 428.36,292.72C400.886,288.069 373.874,303.147 363.412,328.971L355.466,328.971C364.91,302.29 390.144,284.454 418.449,284.454L455.146,284.454L443.208,262.159L383.599,262.159C382.736,257.617 380.826,253.338 378.02,249.664L324.062,179.01C315.342,167.592 299.018,165.406 287.601,174.124L237.748,212.197L253.655,228.103L286.367,203.122L331.452,262.159L287.71,262.159L395.4,369.849L426.251,369.849C435.667,357.849 435.667,340.971 426.251,328.971L384.277,328.971C395.003,312.536 415.91,306.063 434.046,313.566C452.182,321.069 462.405,340.419 458.384,359.629C454.362,378.839 437.234,392.463 417.612,392.06L434.102,408.549Z" style="fill:none;stroke:rgb(35,31,32);stroke-width:0.71px;"/>
        <path d="M257.726,143.045L281.597,139.494L281.597,157.356L259.301,159.906L259.301,178.607L271.28,177.237L283.09,168.218C294.57,159.451 310.382,159.045 322.296,167.211C328.853,155.25 327.823,140.562 319.663,129.633C311.503,118.703 297.714,113.542 284.383,116.429C271.052,119.315 260.633,129.719 257.726,143.045Z" style="fill:rgb(35,31,32);fill-rule:nonzero;"/>
        <path d="M257.726,143.045L281.597,139.494L281.597,157.356L259.301,159.906L259.301,178.607L271.28,177.237L283.09,168.218C294.57,159.451 310.382,159.045 322.296,167.211C328.853,155.25 327.823,140.562 319.663,129.633C311.503,118.703 297.714,113.542 284.383,116.429C271.052,119.315 260.633,129.719 257.726,143.045Z" style="fill:none;stroke:rgb(35,31,32);stroke-width:0.71px;"/>
        <path d="M166.151,348.881L179.037,310.888C158.167,307.866 138.432,321.246 133.513,341.752C128.595,362.258 140.113,383.133 160.084,389.908C180.055,396.681 201.896,387.12 210.468,367.853C219.04,348.584 211.516,325.96 193.114,315.663L180.228,353.655C178.909,357.543 174.689,359.624 170.802,358.307C166.915,356.988 164.833,352.768 166.151,348.881Z" style="fill:white;fill-rule:nonzero;"/>
        <path d="M166.151,348.881L179.037,310.888C158.167,307.866 138.432,321.246 133.513,341.752C128.595,362.258 140.113,383.133 160.084,389.908C180.055,396.681 201.896,387.12 210.468,367.853C219.04,348.584 211.516,325.96 193.114,315.663L180.228,353.655C178.909,357.543 174.689,359.624 170.802,358.307C166.915,356.988 164.833,352.768 166.151,348.881Z" style="fill:none;stroke:white;stroke-width:0.71px;"/>
    </g>
</svg>
