<?xml version="1.0" encoding="UTF-8" standalone="no"?>
<!DOCTYPE svg PUBLIC "-//W3C//DTD SVG 1.1//EN" "http://www.w3.org/Graphics/SVG/1.1/DTD/svg11.dtd">
<svg width="100%" height="100%" viewBox="0 0 596 596" version="1.1" xmlns="http://www.w3.org/2000/svg" xmlns:xlink="http://www.w3.org/1999/xlink" xml:space="preserve" xmlns:serif="http://www.serif.com/" style="fill-rule:evenodd;clip-rule:evenodd;stroke-linecap:round;stroke-linejoin:round;stroke-miterlimit:2;">
    <g>
        <path d="M594.922,298.363C594.922,134.178 461.823,1.079 297.638,1.079C133.453,1.079 0.354,134.178 0.354,298.363C0.354,462.547 133.453,595.647 297.638,595.647C461.823,595.647 594.922,462.547 594.922,298.363Z" style="fill:rgb(211,63,39);fill-rule:nonzero;"/>
        <path d="M594.922,298.363C594.922,134.178 461.823,1.079 297.638,1.079C133.453,1.079 0.354,134.178 0.354,298.363C0.354,462.547 133.453,595.647 297.638,595.647C461.823,595.647 594.922,462.547 594.922,298.363Z" style="fill:none;stroke:rgb(211,63,39);stroke-width:0.71px;"/>
        <path d="M441.61,468.611L127.389,154.391C52.527,242.916 58,374.042 139.979,456.021C221.958,538 353.084,543.474 441.61,468.611Z" style="fill:white;fill-rule:nonzero;"/>
        <path d="M441.61,468.611L127.389,154.391C52.527,242.916 58,374.042 139.979,456.021C221.958,538 353.084,543.474 441.61,468.611Z" style="fill:none;stroke:white;stroke-width:0.71px;"/>
        <path d="M467.887,442.334C542.748,353.809 537.275,222.683 455.297,140.704C373.317,58.726 242.191,53.253 153.666,128.115L467.887,442.334Z" style="fill:white;fill-rule:nonzero;"/>
        <path d="M467.887,442.334C542.748,353.809 537.275,222.683 455.297,140.704C373.317,58.726 242.191,53.253 153.666,128.115L467.887,442.334Z" style="fill:none;stroke:white;stroke-width:0.71px;"/>
        <path d="M368.974,395.975L359.781,403.433L361.73,412.443C362.193,414.589 362.027,416.824 361.248,418.877C360.512,420.817 359.646,422.706 358.661,424.532C357.184,427.264 354.858,429.442 352.036,430.739C349.421,431.941 346.807,433.148 344.195,434.361L337.012,400.875C336.588,398.9 336.643,396.853 337.171,394.903C337.657,393.108 338.746,391.535 340.255,390.447L352.946,379.948L368.974,395.975Z" style="fill:rgb(35,31,32);fill-rule:nonzero;"/>
        <path d="M368.974,395.975L359.781,403.433L361.73,412.443C362.193,414.589 362.027,416.824 361.248,418.877C360.512,420.817 359.646,422.706 358.661,424.532C357.184,427.264 354.858,429.442 352.036,430.739C349.421,431.941 346.807,433.148 344.195,434.361L337.012,400.875C336.588,398.9 336.643,396.853 337.171,394.903C337.657,393.108 338.746,391.535 340.255,390.447L352.946,379.948L368.974,395.975Z" style="fill:none;stroke:rgb(35,31,32);stroke-width:0.45px;"/>
        <path d="M308.597,335.598L199.064,226.065L211.229,261.332C211.384,270.501 212.116,279.652 213.42,288.729C214.852,299.571 219.471,309.742 226.692,317.954L194.105,321.87C191.446,322.157 188.883,323.023 186.595,324.408C184.799,325.496 183.219,326.906 181.935,328.568C180.322,330.654 179.447,333.215 179.447,335.853L179.447,384.437C178.874,389.804 181.31,395.049 185.779,398.075L209.889,414.391L213.159,407.87C213.999,405.704 214.279,403.363 213.973,401.06C213.689,398.929 213.145,396.841 212.352,394.842C211.364,392.351 209.813,390.123 207.819,388.333L201.853,382.976L201.853,344.864L255.307,344.864L285.14,422.427L273.815,443.736L288.895,443.504C290.526,443.309 292.109,442.825 293.569,442.072C296.148,440.745 298.515,439.041 300.594,437.019C303.055,434.622 304.86,431.634 305.841,428.341C306.894,424.806 307.112,421.074 306.479,417.438C305.814,413.614 304.784,409.862 303.404,406.233L276.86,336.461C287.442,337.166 298.068,336.878 308.597,335.598Z" style="fill:rgb(35,31,32);fill-rule:nonzero;"/>
        <path d="M308.597,335.598L199.064,226.065L211.229,261.332C211.384,270.501 212.116,279.652 213.42,288.729C214.852,299.571 219.471,309.742 226.692,317.954L194.105,321.87C191.446,322.157 188.883,323.023 186.595,324.408C184.799,325.496 183.219,326.906 181.935,328.568C180.322,330.654 179.447,333.215 179.447,335.853L179.447,384.437C178.874,389.804 181.31,395.049 185.779,398.075L209.889,414.391L213.159,407.87C213.999,405.704 214.279,403.363 213.973,401.06C213.689,398.929 213.145,396.841 212.352,394.842C211.364,392.351 209.813,390.123 207.819,388.333L201.853,382.976L201.853,344.864L255.307,344.864L285.14,422.427L273.815,443.736L288.895,443.504C290.526,443.309 292.109,442.825 293.569,442.072C296.148,440.745 298.515,439.041 300.594,437.019C303.055,434.622 304.86,431.634 305.841,428.341C306.894,424.806 307.112,421.074 306.479,417.438C305.814,413.614 304.784,409.862 303.404,406.233L276.86,336.461C287.442,337.166 298.068,336.878 308.597,335.598Z" style="fill:none;stroke:rgb(35,31,32);stroke-width:0.71px;"/>
        <path d="M194.67,221.671L159.557,186.558L148.032,240.876C146.681,247.245 149.864,253.712 155.735,256.526C160.861,258.983 166.897,258.588 171.659,255.485C176.542,252.303 178.998,246.471 177.865,240.754L194.67,221.671Z" style="fill:rgb(35,31,32);fill-rule:nonzero;"/>
        <path d="M194.67,221.671L159.557,186.558L148.032,240.876C146.681,247.245 149.864,253.712 155.735,256.526C160.861,258.983 166.897,258.588 171.659,255.485C176.542,252.303 178.998,246.471 177.865,240.754L194.67,221.671Z" style="fill:none;stroke:rgb(35,31,32);stroke-width:0.67px;"/>
        <path d="M352.408,326.858L355.907,326.23L363.557,325.624L370.554,345.003L397.987,372.435L398.503,372.017C399.053,371.428 399.609,370.843 400.171,370.266C401.001,369.413 401.527,368.311 401.671,367.13C401.952,364.812 401.786,362.461 401.182,360.205L394.363,334.756L430.405,370.678L439.756,414.204L459.197,433.646C460.157,432.308 460.979,430.876 461.646,429.372C463.04,426.24 463.791,422.86 463.855,419.432C463.916,416.19 463.644,412.95 463.038,409.764L453.906,367.025C453.171,363.587 452.069,360.24 450.619,357.039L434.545,333.539L434.545,269.734L441.608,269.856C444.565,269.907 447.326,271.349 449.058,273.747C450.598,275.879 451.68,278.306 452.238,280.875C452.968,284.233 453.224,287.676 453.003,291.105C452.649,296.553 452.117,301.988 451.408,307.401C450.845,311.699 450.621,316.035 450.736,320.369C450.95,328.283 453.308,335.992 457.559,342.672C460.905,347.929 466.461,351.379 472.658,352.047L472.658,293.478C472.658,286.135 471,278.887 467.808,272.274C464.854,266.157 459.726,261.362 453.425,258.826C446.902,256.201 439.823,255.262 432.841,256.096C423.009,247.895 411.26,242.317 398.689,239.883C385.664,237.338 372.256,237.479 359.287,240.295L337.466,243.8L340.131,241.382C344.936,236.303 346.76,229.093 344.946,222.34L330.646,154.469C327.714,145.015 318.268,139.164 308.497,140.748C298.727,142.333 291.615,150.871 291.82,160.767L297.6,188.626L261.965,207.548C252.788,192.967 240.533,180.569 226.06,171.222C214.221,164.544 200.78,161.232 187.194,161.642L352.408,326.858Z" style="fill:rgb(35,31,32);fill-rule:nonzero;"/>
        <path d="M352.408,326.858L355.907,326.23L363.557,325.624L370.554,345.003L397.987,372.435L398.503,372.017C399.053,371.428 399.609,370.843 400.171,370.266C401.001,369.413 401.527,368.311 401.671,367.13C401.952,364.812 401.786,362.461 401.182,360.205L394.363,334.756L430.405,370.678L439.756,414.204L459.197,433.646C460.157,432.308 460.979,430.876 461.646,429.372C463.04,426.24 463.791,422.86 463.855,419.432C463.916,416.19 463.644,412.95 463.038,409.764L453.906,367.025C453.171,363.587 452.069,360.24 450.619,357.039L434.545,333.539L434.545,269.734L441.608,269.856C444.565,269.907 447.326,271.349 449.058,273.747C450.598,275.879 451.68,278.306 452.238,280.875C452.968,284.233 453.224,287.676 453.003,291.105C452.649,296.553 452.117,301.988 451.408,307.401C450.845,311.699 450.621,316.035 450.736,320.369C450.95,328.283 453.308,335.992 457.559,342.672C460.905,347.929 466.461,351.379 472.658,352.047L472.658,293.478C472.658,286.135 471,278.887 467.808,272.274C464.854,266.157 459.726,261.362 453.425,258.826C446.902,256.201 439.823,255.262 432.841,256.096C423.009,247.895 411.26,242.317 398.689,239.883C385.664,237.338 372.256,237.479 359.287,240.295L337.466,243.8L340.131,241.382C344.936,236.303 346.76,229.093 344.946,222.34L330.646,154.469C327.714,145.015 318.268,139.164 308.497,140.748C298.727,142.333 291.615,150.871 291.82,160.767L297.6,188.626L261.965,207.548C252.788,192.967 240.533,180.569 226.06,171.222C214.221,164.544 200.78,161.232 187.194,161.642L352.408,326.858Z" style="fill:none;stroke:rgb(35,31,32);stroke-width:0.71px;"/>
        <path d="M323.696,115.201C323.696,103.649 314.332,94.286 302.781,94.286C291.229,94.286 281.865,103.649 281.865,115.201C281.865,126.752 291.229,136.117 302.781,136.117C314.332,136.117 323.696,126.752 323.696,115.201Z" style="fill:rgb(35,31,32);fill-rule:nonzero;"/>
        <path d="M323.696,115.201C323.696,103.649 314.332,94.286 302.781,94.286C291.229,94.286 281.865,103.649 281.865,115.201C281.865,126.752 291.229,136.117 302.781,136.117C314.332,136.117 323.696,126.752 323.696,115.201Z" style="fill:none;stroke:rgb(35,31,32);stroke-width:0.71px;"/>
        <path d="M290.062,235.418L305.381,226.193L301.157,206.558L272.446,221.772C277.597,227.182 283.536,231.782 290.062,235.418Z" style="fill:white;fill-rule:nonzero;"/>
        <path d="M290.062,235.418L305.381,226.193L301.157,206.558L272.446,221.772C277.597,227.182 283.536,231.782 290.062,235.418Z" style="fill:none;stroke:white;stroke-width:0.46px;"/>
    </g>
</svg>
