<?xml version="1.0" encoding="UTF-8" standalone="no"?>
<!DOCTYPE svg PUBLIC "-//W3C//DTD SVG 1.1//EN" "http://www.w3.org/Graphics/SVG/1.1/DTD/svg11.dtd">
<svg width="100%" height="100%" viewBox="0 0 596 596" version="1.1" xmlns="http://www.w3.org/2000/svg" xmlns:xlink="http://www.w3.org/1999/xlink" xml:space="preserve" xmlns:serif="http://www.serif.com/" style="fill-rule:evenodd;clip-rule:evenodd;stroke-linecap:round;stroke-linejoin:round;stroke-miterlimit:2;">
    <g>
        <path d="M594.922,298.363C594.922,134.178 461.823,1.079 297.638,1.079C133.453,1.079 0.354,134.178 0.354,298.363C0.354,462.547 133.453,595.647 297.638,595.647C461.823,595.647 594.922,462.547 594.922,298.363Z" style="fill:rgb(211,63,39);fill-rule:nonzero;"/>
        <path d="M594.922,298.363C594.922,134.178 461.823,1.079 297.638,1.079C133.453,1.079 0.354,134.178 0.354,298.363C0.354,462.547 133.453,595.647 297.638,595.647C461.823,595.647 594.922,462.547 594.922,298.363Z" style="fill:none;stroke:rgb(211,63,39);stroke-width:0.71px;"/>
        <path d="M520.601,298.363C520.601,175.224 420.777,75.4 297.638,75.4C174.499,75.4 74.675,175.224 74.675,298.363C74.675,421.502 174.499,521.326 297.638,521.326C420.777,521.326 520.601,421.502 520.601,298.363Z" style="fill:white;fill-rule:nonzero;"/>
        <path d="M520.601,298.363C520.601,175.224 420.777,75.4 297.638,75.4C174.499,75.4 74.675,175.224 74.675,298.363C74.675,421.502 174.499,521.326 297.638,521.326C420.777,521.326 520.601,421.502 520.601,298.363Z" style="fill:none;stroke:white;stroke-width:0.71px;"/>
        <path d="M193.634,453.306C199.791,453.306 204.782,448.315 204.782,442.157L204.782,401.281L390.585,401.281L390.585,442.157C390.585,448.315 395.576,453.306 401.732,453.306L420.313,453.306C423.27,453.306 426.104,452.131 428.196,450.04C430.286,447.95 431.461,445.115 431.461,442.157L431.461,401.281L446.325,401.281L446.325,267.503C446.325,259.294 439.671,252.639 431.461,252.639L423.87,154.587C423.121,144.912 415.051,137.442 405.346,137.442L190.021,137.442C180.316,137.442 172.246,144.912 171.497,154.587L163.905,252.639C159.963,252.639 156.183,254.205 153.395,256.993C150.607,259.78 149.042,263.561 149.042,267.503L149.042,401.281L163.905,401.281L163.905,442.157C163.905,445.115 165.08,447.95 167.171,450.04C169.261,452.131 172.097,453.306 175.054,453.306L193.634,453.306Z" style="fill:rgb(35,31,32);fill-rule:nonzero;"/>
        <path d="M193.634,453.306C199.791,453.306 204.782,448.315 204.782,442.157L204.782,401.281L390.585,401.281L390.585,442.157C390.585,448.315 395.576,453.306 401.732,453.306L420.313,453.306C423.27,453.306 426.104,452.131 428.196,450.04C430.286,447.95 431.461,445.115 431.461,442.157L431.461,401.281L446.325,401.281L446.325,267.503C446.325,259.294 439.671,252.639 431.461,252.639L423.87,154.587C423.121,144.912 415.051,137.442 405.346,137.442L190.021,137.442C180.316,137.442 172.246,144.912 171.497,154.587L163.905,252.639C159.963,252.639 156.183,254.205 153.395,256.993C150.607,259.78 149.042,263.561 149.042,267.503L149.042,401.281L163.905,401.281L163.905,442.157C163.905,445.115 165.08,447.95 167.171,450.04C169.261,452.131 172.097,453.306 175.054,453.306L193.634,453.306Z" style="fill:none;stroke:rgb(35,31,32);stroke-width:0.71px;"/>
        <path d="M340.484,321.426C341.437,326.546 341.437,331.798 340.484,336.918C338.691,343.283 332.921,347.706 326.309,347.783C319.051,347.783 312.146,344.653 307.361,339.195L295.387,350.414C303.397,358.965 314.592,363.817 326.309,363.817C341.04,363.807 353.882,353.789 357.474,339.503C358.679,332.668 358.679,325.675 357.474,318.842C353.876,304.558 341.038,294.543 326.309,294.527C322.721,294.527 319.186,295.392 316.002,297.048L316.002,279.393L356.087,279.393L356.087,263.359L298.822,263.359L298.822,310.599L313.711,314.588C317.39,311.969 321.794,310.561 326.309,310.561C332.921,310.638 338.691,315.061 340.484,321.426Z" style="fill:white;fill-rule:nonzero;"/>
        <path d="M340.484,321.426C341.437,326.546 341.437,331.798 340.484,336.918C338.691,343.283 332.921,347.706 326.309,347.783C319.051,347.783 312.146,344.653 307.361,339.195L295.387,350.414C303.397,358.965 314.592,363.817 326.309,363.817C341.04,363.807 353.882,353.789 357.474,339.503C358.679,332.668 358.679,325.675 357.474,318.842C353.876,304.558 341.038,294.543 326.309,294.527C322.721,294.527 319.186,295.392 316.002,297.048L316.002,279.393L356.087,279.393L356.087,263.359L298.822,263.359L298.822,310.599L313.711,314.588C317.39,311.969 321.794,310.561 326.309,310.561C332.921,310.638 338.691,315.061 340.484,321.426Z" style="fill:none;stroke:white;stroke-width:0.71px;"/>
        <path d="M402.26,300.87L416.92,300.87L416.92,312.598L402.26,312.598L402.26,345.631C402.26,346.963 402.789,348.243 403.731,349.186C404.674,350.128 405.952,350.658 407.285,350.658C409.353,350.658 411.407,350.334 413.375,349.702L416.971,360.866C413.84,361.873 410.572,362.387 407.285,362.387C402.619,362.387 398.145,360.533 394.846,357.234C391.546,353.934 389.692,349.458 389.692,344.793L389.692,312.598L381.314,312.598L381.314,300.87L389.692,300.87L389.692,287.884L402.26,276.933L402.26,300.87Z" style="fill:white;fill-rule:nonzero;"/>
        <path d="M402.26,300.87L416.92,300.87L416.92,312.598L402.26,312.598L402.26,345.631C402.26,346.963 402.789,348.243 403.731,349.186C404.674,350.128 405.952,350.658 407.285,350.658C409.353,350.658 411.407,350.334 413.375,349.702L416.971,360.866C413.84,361.873 410.572,362.387 407.285,362.387C402.619,362.387 398.145,360.533 394.846,357.234C391.546,353.934 389.692,349.458 389.692,344.793L389.692,312.598L381.314,312.598L381.314,300.87L389.692,300.87L389.692,287.884L402.26,276.933L402.26,300.87Z" style="fill:none;stroke:white;stroke-width:0.5px;"/>
        <path d="M224.328,364.723C234.672,364.75 244.602,360.661 251.926,353.356C259.25,346.051 263.367,336.132 263.367,325.788C263.367,313.943 257.341,302.912 247.375,296.511C255.601,290.529 260.467,280.972 260.467,270.801C260.467,250.841 244.287,234.661 224.328,234.661L220.393,234.661C204.798,234.661 190.961,244.664 186.074,259.474L206.829,266.324C208.729,259.865 214.498,255.308 221.221,254.957L222.878,254.957C231.628,254.957 238.722,262.051 238.722,270.801C238.722,279.551 231.628,286.644 222.878,286.644L217.079,286.644L217.079,306.941L222.878,306.941C229.574,306.941 235.762,310.513 239.11,316.312C242.458,322.112 242.458,329.256 239.11,335.055C235.762,340.854 229.574,344.427 222.878,344.427C214.354,344.895 206.592,339.544 203.996,331.413L183.174,338.789C188.682,354.333 203.384,364.723 219.875,364.723L224.328,364.723Z" style="fill:white;fill-rule:nonzero;"/>
        <path d="M224.328,364.723C234.672,364.75 244.602,360.661 251.926,353.356C259.25,346.051 263.367,336.132 263.367,325.788C263.367,313.943 257.341,302.912 247.375,296.511C255.601,290.529 260.467,280.972 260.467,270.801C260.467,250.841 244.287,234.661 224.328,234.661L220.393,234.661C204.798,234.661 190.961,244.664 186.074,259.474L206.829,266.324C208.729,259.865 214.498,255.308 221.221,254.957L222.878,254.957C231.628,254.957 238.722,262.051 238.722,270.801C238.722,279.551 231.628,286.644 222.878,286.644L217.079,286.644L217.079,306.941L222.878,306.941C229.574,306.941 235.762,310.513 239.11,316.312C242.458,322.112 242.458,329.256 239.11,335.055C235.762,340.854 229.574,344.427 222.878,344.427C214.354,344.895 206.592,339.544 203.996,331.413L183.174,338.789C188.682,354.333 203.384,364.723 219.875,364.723L224.328,364.723Z" style="fill:none;stroke:white;stroke-width:0.71px;"/>
        <path d="M267.36,356.409C267.363,358.82 268.767,361.009 270.956,362.02C273.146,363.03 275.723,362.676 277.559,361.114C278.716,363.085 278.704,365.531 277.529,367.491C276.353,369.452 274.201,370.614 271.917,370.521L271.917,376.148C278.125,376.148 283.85,372.795 286.886,367.381C289.923,361.966 289.8,355.334 286.563,350.037C283.821,346.348 279.022,344.835 274.659,346.283C270.297,347.731 267.354,351.813 267.36,356.409Z" style="fill:white;fill-rule:nonzero;"/>
        <path d="M267.36,356.409C267.363,358.82 268.767,361.009 270.956,362.02C273.146,363.03 275.723,362.676 277.559,361.114C278.716,363.085 278.704,365.531 277.529,367.491C276.353,369.452 274.201,370.614 271.917,370.521L271.917,376.148C278.125,376.148 283.85,372.795 286.886,367.381C289.923,361.966 289.8,355.334 286.563,350.037C283.821,346.348 279.022,344.835 274.659,346.283C270.297,347.731 267.354,351.813 267.36,356.409Z" style="fill:none;stroke:white;stroke-width:0.31px;"/>
    </g>
</svg>
