<?xml version="1.0" encoding="UTF-8" standalone="no"?>
<!DOCTYPE svg PUBLIC "-//W3C//DTD SVG 1.1//EN" "http://www.w3.org/Graphics/SVG/1.1/DTD/svg11.dtd">
<svg width="100%" height="100%" viewBox="0 0 227 227" version="1.1" xmlns="http://www.w3.org/2000/svg" xmlns:xlink="http://www.w3.org/1999/xlink" xml:space="preserve" xmlns:serif="http://www.serif.com/" style="fill-rule:evenodd;clip-rule:evenodd;stroke-miterlimit:2;">
    <g>
        <path d="M226.691,113.708C226.691,51.357 175.643,0.309 113.291,0.309C51.155,0.309 0.107,51.357 0.107,113.708C0.107,175.845 51.155,226.892 113.291,226.892C175.643,226.892 226.691,175.845 226.691,113.708Z" style="fill:rgb(211,63,39);fill-rule:nonzero;"/>
        <path d="M226.691,113.708C226.691,51.357 175.643,0.309 113.291,0.309C51.155,0.309 0.107,51.357 0.107,113.708C0.107,175.845 51.155,226.892 113.291,226.892C175.643,226.892 226.691,175.845 226.691,113.708Z" style="fill:none;stroke:rgb(211,63,39);stroke-width:0.22px;"/>
        <path d="M198.323,113.708C198.323,66.981 160.019,28.676 113.291,28.676C66.779,28.676 28.475,66.981 28.475,113.708C28.475,160.221 66.779,198.524 113.291,198.524C160.019,198.524 198.323,160.221 198.323,113.708Z" style="fill:white;fill-rule:nonzero;"/>
        <path d="M198.323,113.708C198.323,66.981 160.019,28.676 113.291,28.676C66.779,28.676 28.475,66.981 28.475,113.708C28.475,160.221 66.779,198.524 113.291,198.524C160.019,198.524 198.323,160.221 198.323,113.708Z" style="fill:none;stroke:rgb(241,93,42);stroke-width:0.22px;"/>
        <path d="M113.291,55.604L136.547,31.772C128.843,29.829 121.211,28.676 113.291,28.676C105.299,28.676 97.667,29.829 90.035,31.772L113.291,55.604Z" style="fill:rgb(35,31,32);fill-rule:nonzero;"/>
        <path d="M113.291,55.604L136.547,31.772C128.843,29.829 121.211,28.676 113.291,28.676C105.299,28.676 97.667,29.829 90.035,31.772L113.291,55.604Z" style="fill:none;stroke:rgb(35,31,32);stroke-width:0.22px;"/>
        <path d="M136.547,195.717L113.291,171.885L90.035,195.717C97.667,197.66 105.299,198.812 113.291,198.812C121.211,198.812 128.843,197.66 136.547,195.717Z" style="fill:rgb(35,31,32);fill-rule:nonzero;"/>
        <path d="M136.547,195.717L113.291,171.885L90.035,195.717C97.667,197.66 105.299,198.812 113.291,198.812C121.211,198.812 128.843,197.66 136.547,195.717Z" style="fill:none;stroke:rgb(35,31,32);stroke-width:0.22px;"/>
        <path d="M87.155,138.117C87.155,139.556 88.307,140.996 90.035,140.996C90.827,140.996 91.403,140.708 91.98,140.42C92.267,140.708 92.555,141.284 92.555,141.788C92.555,143.516 91.115,144.956 89.459,144.956L89.171,144.956L89.171,147.476C93.995,147.476 97.667,143.805 97.667,139.268C97.667,137.828 97.091,136.172 96.516,135.02C95.363,133.58 93.995,132.717 92.267,132.717C89.459,132.717 87.155,135.02 87.155,137.828L87.155,138.117Z" style="fill:rgb(35,31,32);fill-rule:nonzero;"/>
        <path d="M87.155,138.117C87.155,139.556 88.307,140.996 90.035,140.996C90.827,140.996 91.403,140.708 91.98,140.42C92.267,140.708 92.555,141.284 92.555,141.788C92.555,143.516 91.115,144.956 89.459,144.956L89.171,144.956L89.171,147.476C93.995,147.476 97.667,143.805 97.667,139.268C97.667,137.828 97.091,136.172 96.516,135.02C95.363,133.58 93.995,132.717 92.267,132.717C89.459,132.717 87.155,135.02 87.155,137.828L87.155,138.117Z" style="fill:none;stroke:rgb(35,31,32);stroke-width:0.22px;"/>
        <path d="M65.627,142.652C75.851,142.652 84.347,134.157 84.347,123.932C84.347,118.244 81.467,113.204 76.643,110.036C80.675,106.94 82.907,102.405 82.907,97.58C82.907,87.933 75.275,80.301 65.627,80.301L63.611,80.301C56.267,80.301 49.427,85.125 47.195,92.181L57.131,95.565C57.923,92.469 60.803,90.237 64.186,89.949L64.763,89.949C69.011,89.949 72.395,93.333 72.395,97.58C72.395,101.828 69.011,105.212 64.763,105.212L62.243,105.212L62.243,114.86L64.763,114.86C69.875,114.86 73.835,118.821 73.835,123.932C73.835,128.757 69.875,133.004 64.763,133.004C60.803,133.004 57.131,130.485 55.979,126.812L45.755,130.197C48.635,137.54 55.403,142.652 63.323,142.652L65.627,142.652Z" style="fill:rgb(35,31,32);fill-rule:nonzero;"/>
        <path d="M65.627,142.652C75.851,142.652 84.347,134.157 84.347,123.932C84.347,118.244 81.467,113.204 76.643,110.036C80.675,106.94 82.907,102.405 82.907,97.58C82.907,87.933 75.275,80.301 65.627,80.301L63.611,80.301C56.267,80.301 49.427,85.125 47.195,92.181L57.131,95.565C57.923,92.469 60.803,90.237 64.186,89.949L64.763,89.949C69.011,89.949 72.395,93.333 72.395,97.58C72.395,101.828 69.011,105.212 64.763,105.212L62.243,105.212L62.243,114.86L64.763,114.86C69.875,114.86 73.835,118.821 73.835,123.932C73.835,128.757 69.875,133.004 64.763,133.004C60.803,133.004 57.131,130.485 55.979,126.812L45.755,130.197C48.635,137.54 55.403,142.652 63.323,142.652L65.627,142.652Z" style="fill:none;stroke:rgb(35,31,32);stroke-width:0.22px;"/>
        <path d="M123.444,122.276C123.731,123.356 123.731,124.509 123.731,125.949C123.731,127.1 123.731,128.18 123.444,129.621C122.651,132.429 119.771,134.732 116.675,134.732C113.291,134.732 109.835,133.292 107.603,130.772L101.915,135.885C105.588,140.133 110.987,142.365 116.675,142.365C123.731,142.365 129.707,137.54 131.435,130.772C131.723,129.044 131.939,127.389 131.939,125.949C131.939,124.221 131.723,122.564 131.435,120.836C129.707,113.996 123.731,109.173 116.675,109.173C114.947,109.173 113.291,109.747 111.851,110.612L111.851,102.117L130.858,102.117L130.858,94.484L103.643,94.484L103.643,116.876L110.699,118.821C112.427,117.741 114.371,116.876 116.675,116.876C119.771,116.876 122.651,119.108 123.444,122.276Z" style="fill:rgb(35,31,32);fill-rule:nonzero;"/>
        <path d="M123.444,122.276C123.731,123.356 123.731,124.509 123.731,125.949C123.731,127.1 123.731,128.18 123.444,129.621C122.651,132.429 119.771,134.732 116.675,134.732C113.291,134.732 109.835,133.292 107.603,130.772L101.915,135.885C105.588,140.133 110.987,142.365 116.675,142.365C123.731,142.365 129.707,137.54 131.435,130.772C131.723,129.044 131.939,127.389 131.939,125.949C131.939,124.221 131.723,122.564 131.435,120.836C129.707,113.996 123.731,109.173 116.675,109.173C114.947,109.173 113.291,109.747 111.851,110.612L111.851,102.117L130.858,102.117L130.858,94.484L103.643,94.484L103.643,116.876L110.699,118.821C112.427,117.741 114.371,116.876 116.675,116.876C119.771,116.876 122.651,119.108 123.444,122.276Z" style="fill:none;stroke:rgb(35,31,32);stroke-width:0.22px;"/>
        <path d="M174.203,122.276L174.203,141.284L180.179,141.284L180.179,121.124C180.179,116.013 176.219,112.053 171.395,112.053L171.107,112.053C168.299,112.053 165.131,113.493 163.187,115.724C161.459,113.493 158.939,112.053 156.059,112.053C153.539,112.053 151.235,112.916 149.867,114.573L149.867,112.916L143.891,112.916L143.891,141.284L149.867,141.284L149.867,122.276C149.867,116.013 158.939,116.013 158.939,122.276L158.939,141.284L164.843,141.284L164.843,122.276C164.843,116.013 174.203,116.013 174.203,122.276Z" style="fill:rgb(35,31,32);fill-rule:nonzero;"/>
        <path d="M174.203,122.276L174.203,141.284L180.179,141.284L180.179,121.124C180.179,116.013 176.219,112.053 171.395,112.053L171.107,112.053C168.299,112.053 165.131,113.493 163.187,115.724C161.459,113.493 158.939,112.053 156.059,112.053C153.539,112.053 151.235,112.916 149.867,114.573L149.867,112.916L143.891,112.916L143.891,141.284L149.867,141.284L149.867,122.276C149.867,116.013 158.939,116.013 158.939,122.276L158.939,141.284L164.843,141.284L164.843,122.276C164.843,116.013 174.203,116.013 174.203,122.276Z" style="fill:none;stroke:rgb(35,31,32);stroke-width:0.22px;"/>
    </g>
</svg>
