<?xml version="1.0" encoding="UTF-8" standalone="no"?>
<!DOCTYPE svg PUBLIC "-//W3C//DTD SVG 1.1//EN" "http://www.w3.org/Graphics/SVG/1.1/DTD/svg11.dtd">
<svg width="100%" height="100%" viewBox="0 0 228 228" version="1.1" xmlns="http://www.w3.org/2000/svg" xmlns:xlink="http://www.w3.org/1999/xlink" xml:space="preserve" xmlns:serif="http://www.serif.com/" style="fill-rule:evenodd;clip-rule:evenodd;stroke-miterlimit:2;">
    <g>
        <path d="M227.123,114.493C227.123,51.997 176.003,0.877 113.507,0.877C51.227,0.877 0.107,51.997 0.107,114.493C0.107,176.772 51.227,227.893 113.507,227.893C176.003,227.893 227.123,176.772 227.123,114.493Z" style="fill:rgb(211,63,39);fill-rule:nonzero;"/>
        <path d="M227.123,114.493C227.123,51.997 176.003,0.877 113.507,0.877C51.227,0.877 0.107,51.997 0.107,114.493C0.107,176.772 51.227,227.893 113.507,227.893C176.003,227.893 227.123,176.772 227.123,114.493Z" style="fill:none;stroke:rgb(211,63,39);stroke-width:0.22px;"/>
        <path d="M198.683,114.493C198.683,67.621 160.379,29.317 113.507,29.317C66.851,29.317 28.547,67.621 28.547,114.493C28.547,161.148 66.851,199.453 113.507,199.453C160.379,199.453 198.683,161.148 198.683,114.493Z" style="fill:white;fill-rule:nonzero;"/>
        <path d="M198.683,114.493C198.683,67.621 160.379,29.317 113.507,29.317C66.851,29.317 28.547,67.621 28.547,114.493C28.547,161.148 66.851,199.453 113.507,199.453C160.379,199.453 198.683,161.148 198.683,114.493Z" style="fill:none;stroke:rgb(241,93,42);stroke-width:0.22px;"/>
        <path d="M116.603,71.365C118.043,60.565 134.243,61.429 134.243,72.445L134.243,72.733C133.956,76.477 132.227,80.149 129.634,82.741L107.819,105.42L107.819,114.493L144.468,114.493L144.468,104.844L122.867,104.844L137.051,90.085C140.147,86.989 142.451,82.957 143.603,78.997C144.179,77.053 144.468,74.748 144.468,72.733C144.468,62.221 135.899,53.437 125.099,53.437C116.028,53.437 108.107,60.277 106.379,69.349L116.603,71.365Z" style="fill:rgb(35,31,32);fill-rule:nonzero;"/>
        <path d="M116.603,71.365C118.043,60.565 134.243,61.429 134.243,72.445L134.243,72.733C133.956,76.477 132.227,80.149 129.634,82.741L107.819,105.42L107.819,114.493L144.468,114.493L144.468,104.844L122.867,104.844L137.051,90.085C140.147,86.989 142.451,82.957 143.603,78.997C144.179,77.053 144.468,74.748 144.468,72.733C144.468,62.221 135.899,53.437 125.099,53.437C116.028,53.437 108.107,60.277 106.379,69.349L116.603,71.365Z" style="fill:none;stroke:rgb(35,31,32);stroke-width:0.22px;"/>
        <path d="M99.54,54.877L89.603,54.877L82.475,61.933L82.475,72.157L89.028,68.485L89.028,114.493L99.54,114.493L99.54,54.877Z" style="fill:rgb(35,31,32);fill-rule:nonzero;"/>
        <path d="M99.54,54.877L89.603,54.877L82.475,61.933L82.475,72.157L89.028,68.485L89.028,114.493L99.54,114.493L99.54,54.877Z" style="fill:none;stroke:rgb(35,31,32);stroke-width:0.22px;"/>
        <path d="M166.355,167.124L166.355,147.757C166.355,142.356 162.035,137.821 156.347,137.821C153.827,137.821 151.235,138.685 149.291,140.413L149.291,138.685L143.315,138.685L143.315,167.124L149.291,167.124L149.291,148.909C149.291,141.493 160.379,141.493 160.379,148.909L160.379,167.124L166.355,167.124Z" style="fill:rgb(35,31,32);fill-rule:nonzero;"/>
        <path d="M166.355,167.124L166.355,147.757C166.355,142.356 162.035,137.821 156.347,137.821C153.827,137.821 151.235,138.685 149.291,140.413L149.291,138.685L143.315,138.685L143.315,167.124L149.291,167.124L149.291,148.909C149.291,141.493 160.379,141.493 160.379,148.909L160.379,167.124L166.355,167.124Z" style="fill:none;stroke:rgb(35,31,32);stroke-width:0.22px;"/>
        <path d="M134.243,167.124L134.243,147.757C134.243,142.356 129.923,137.821 124.523,137.821L124.235,137.821C121.715,137.821 119.123,138.685 117.179,140.413L117.179,138.685L111.203,138.685L111.203,167.124L117.179,167.124L117.179,148.909C117.179,141.493 128.267,141.493 128.267,148.909L128.267,167.124L134.243,167.124Z" style="fill:rgb(35,31,32);fill-rule:nonzero;"/>
        <path d="M134.243,167.124L134.243,147.757C134.243,142.356 129.923,137.821 124.523,137.821L124.235,137.821C121.715,137.821 119.123,138.685 117.179,140.413L117.179,138.685L111.203,138.685L111.203,167.124L117.179,167.124L117.179,148.909C117.179,141.493 128.267,141.493 128.267,148.909L128.267,167.124L134.243,167.124Z" style="fill:none;stroke:rgb(35,31,32);stroke-width:0.22px;"/>
        <path d="M79.379,147.181C78.803,148.909 78.803,150.925 78.803,152.869C78.803,154.885 78.803,156.829 79.379,158.557C80.819,163.957 85.643,167.916 91.043,167.916C96.731,167.916 101.555,163.957 102.707,158.557C103.211,156.829 103.499,154.885 103.499,152.869C103.499,150.925 103.211,148.909 102.707,147.181C101.555,141.781 96.731,137.821 91.043,137.821C85.643,137.821 80.819,141.781 79.379,147.181Z" style="fill:rgb(35,31,32);fill-rule:nonzero;"/>
        <path d="M79.379,147.181C78.803,148.909 78.803,150.925 78.803,152.869C78.803,154.885 78.803,156.829 79.379,158.557C80.819,163.957 85.643,167.916 91.043,167.916C96.731,167.916 101.555,163.957 102.707,158.557C103.211,156.829 103.499,154.885 103.499,152.869C103.499,150.925 103.211,148.909 102.707,147.181C101.555,141.781 96.731,137.821 91.043,137.821C85.643,137.821 80.819,141.781 79.379,147.181Z" style="fill:none;stroke:rgb(35,31,32);stroke-width:0.22px;"/>
        <path d="M85.355,147.757C84.779,149.484 84.779,151.212 84.779,152.869C84.779,154.597 84.779,156.325 85.355,157.98C86.219,160.573 88.451,162.228 91.043,162.228C93.564,162.228 96.155,160.573 96.731,157.98C97.307,156.325 97.595,154.597 97.595,152.869C97.595,151.212 97.307,149.484 96.731,147.757C96.155,145.236 93.564,143.509 91.043,143.509C88.451,143.509 86.219,145.236 85.355,147.757Z" style="fill:white;fill-rule:nonzero;"/>
        <path d="M85.355,147.757C84.779,149.484 84.779,151.212 84.779,152.869C84.779,154.597 84.779,156.325 85.355,157.98C86.219,160.573 88.451,162.228 91.043,162.228C93.564,162.228 96.155,160.573 96.731,157.98C97.307,156.325 97.595,154.597 97.595,152.869C97.595,151.212 97.307,149.484 96.731,147.757C96.155,145.236 93.564,143.509 91.043,143.509C88.451,143.509 86.219,145.236 85.355,147.757Z" style="fill:none;stroke:rgb(35,31,32);stroke-width:0.22px;"/>
        <path d="M66.275,138.685L73.403,138.685L73.403,144.373L66.275,144.373L66.275,159.997C66.275,161.148 67.427,162.228 68.867,162.228C69.731,162.228 70.883,162.228 71.675,161.94L73.403,167.124C71.963,167.628 70.307,167.916 68.867,167.916C64.043,167.916 60.371,164.245 60.371,159.42L60.371,144.373L56.339,144.373L56.339,138.685L60.371,138.685L60.371,132.42L66.275,127.309L66.275,138.685Z" style="fill:rgb(35,31,32);fill-rule:nonzero;"/>
        <path d="M66.275,138.685L73.403,138.685L73.403,144.373L66.275,144.373L66.275,159.997C66.275,161.148 67.427,162.228 68.867,162.228C69.731,162.228 70.883,162.228 71.675,161.94L73.403,167.124C71.963,167.628 70.307,167.916 68.867,167.916C64.043,167.916 60.371,164.245 60.371,159.42L60.371,144.373L56.339,144.373L56.339,138.685L60.371,138.685L60.371,132.42L66.275,127.309L66.275,138.685Z" style="fill:none;stroke:rgb(35,31,32);stroke-width:0.22px;"/>
    </g>
</svg>
