<?xml version="1.0" encoding="UTF-8" standalone="no"?>
<!DOCTYPE svg PUBLIC "-//W3C//DTD SVG 1.1//EN" "http://www.w3.org/Graphics/SVG/1.1/DTD/svg11.dtd">
<svg width="100%" height="100%" viewBox="0 0 227 227" version="1.1" xmlns="http://www.w3.org/2000/svg" xmlns:xlink="http://www.w3.org/1999/xlink" xml:space="preserve" xmlns:serif="http://www.serif.com/" style="fill-rule:evenodd;clip-rule:evenodd;stroke-miterlimit:2;">
    <g>
        <path d="M226.403,113.781C226.403,51.429 175.571,0.597 113.219,0.597C50.939,0.597 0.107,51.429 0.107,113.781C0.107,176.06 50.939,226.892 113.219,226.892C175.571,226.892 226.403,176.06 226.403,113.781Z" style="fill:rgb(211,63,39);fill-rule:nonzero;"/>
        <path d="M226.403,113.781C226.403,51.429 175.571,0.597 113.219,0.597C50.939,0.597 0.107,51.429 0.107,113.781C0.107,176.06 50.939,226.892 113.219,226.892C175.571,226.892 226.403,176.06 226.403,113.781Z" style="fill:none;stroke:rgb(211,63,39);stroke-width:0.22px;"/>
        <path d="M198.107,113.781C198.107,67.053 160.019,28.892 113.219,28.892C66.491,28.892 28.403,67.053 28.403,113.781C28.403,160.436 66.491,198.596 113.219,198.596C160.019,198.596 198.107,160.436 198.107,113.781Z" style="fill:white;fill-rule:nonzero;"/>
        <path d="M198.107,113.781C198.107,67.053 160.019,28.892 113.219,28.892C66.491,28.892 28.403,67.053 28.403,113.781C28.403,160.436 66.491,198.596 113.219,198.596C160.019,198.596 198.107,160.436 198.107,113.781Z" style="fill:none;stroke:rgb(241,93,42);stroke-width:0.22px;"/>
        <path d="M165.563,93.045C165.491,90.813 164.339,88.796 162.539,87.645L167.147,87.573L167.147,93.045L165.563,93.045Z" style="fill:rgb(35,31,32);fill-rule:nonzero;"/>
        <path d="M165.563,93.045C165.491,90.813 164.339,88.796 162.539,87.645L167.147,87.573L167.147,93.045L165.563,93.045Z" style="fill:none;stroke:rgb(35,31,32);stroke-width:0.22px;"/>
        <path d="M125.603,93.045C125.675,90.813 126.755,88.796 128.41,87.645L124.163,87.573L124.163,93.045L125.603,93.045Z" style="fill:rgb(35,31,32);fill-rule:nonzero;"/>
        <path d="M125.603,93.045C125.675,90.813 126.755,88.796 128.41,87.645L124.163,87.573L124.163,93.045L125.603,93.045Z" style="fill:none;stroke:rgb(35,31,32);stroke-width:0.22px;"/>
        <path d="M151.956,93.045L138.923,93.045C138.779,90.813 137.699,88.796 135.827,87.645L155.051,87.573C153.179,88.796 152.099,90.813 151.956,93.045Z" style="fill:rgb(35,31,32);fill-rule:nonzero;"/>
        <path d="M151.956,93.045L138.923,93.045C138.779,90.813 137.699,88.796 135.827,87.645L155.051,87.573C153.179,88.796 152.099,90.813 151.956,93.045Z" style="fill:none;stroke:rgb(35,31,32);stroke-width:0.22px;"/>
        <path d="M109.115,93.045C109.043,90.813 107.891,88.796 106.091,87.645L116.603,87.573L116.603,93.045L109.115,93.045Z" style="fill:rgb(35,31,32);fill-rule:nonzero;"/>
        <path d="M109.115,93.045C109.043,90.813 107.891,88.796 106.091,87.645L116.603,87.573L116.603,93.045L109.115,93.045Z" style="fill:none;stroke:rgb(35,31,32);stroke-width:0.22px;"/>
        <path d="M95.507,93.045L74.771,93.045L74.771,87.573L98.603,87.573C96.731,88.796 95.579,90.813 95.507,93.045Z" style="fill:rgb(35,31,32);fill-rule:nonzero;"/>
        <path d="M95.507,93.045L74.771,93.045L74.771,87.573L98.603,87.573C96.731,88.796 95.579,90.813 95.507,93.045Z" style="fill:none;stroke:rgb(35,31,32);stroke-width:0.22px;"/>
        <path d="M71.891,91.965C71.891,92.541 71.459,93.045 70.883,93.045L70.091,93.045C69.947,89.373 66.923,86.493 63.251,86.493C59.651,86.493 56.627,89.373 56.483,93.045L54.611,93.045C52.667,93.045 51.155,91.46 51.155,89.517L51.155,80.877L54.107,71.301C54.611,69.861 55.979,68.925 57.491,68.925L68.435,68.925C70.379,68.925 71.891,70.437 71.891,72.381L71.891,91.965Z" style="fill:rgb(35,31,32);fill-rule:nonzero;"/>
        <path d="M71.891,91.965C71.891,92.541 71.459,93.045 70.883,93.045L70.091,93.045C69.947,89.373 66.923,86.493 63.251,86.493C59.651,86.493 56.627,89.373 56.483,93.045L54.611,93.045C52.667,93.045 51.155,91.46 51.155,89.517L51.155,80.877L54.107,71.301C54.611,69.861 55.979,68.925 57.491,68.925L68.435,68.925C70.379,68.925 71.891,70.437 71.891,72.381L71.891,91.965Z" style="fill:none;stroke:rgb(35,31,32);stroke-width:0.22px;"/>
        <path d="M124.235,84.981L124.235,63.381C124.235,61.437 125.819,59.853 127.763,59.853L163.619,59.853C165.563,59.853 167.147,61.437 167.147,63.381L167.147,84.981L124.235,84.981Z" style="fill:rgb(35,31,32);fill-rule:nonzero;"/>
        <path d="M124.235,84.981L124.235,63.381C124.235,61.437 125.819,59.853 127.763,59.853L163.619,59.853C165.563,59.853 167.147,61.437 167.147,63.381L167.147,84.981L124.235,84.981Z" style="fill:none;stroke:rgb(35,31,32);stroke-width:0.22px;"/>
        <path d="M116.603,84.981L74.771,84.981L74.771,63.381C74.771,61.437 76.283,59.853 78.227,59.853L113.076,59.853C115.019,59.853 116.603,61.437 116.603,63.381L116.603,84.981Z" style="fill:rgb(35,31,32);fill-rule:nonzero;"/>
        <path d="M116.603,84.981L74.771,84.981L74.771,63.381C74.771,61.437 76.283,59.853 78.227,59.853L113.076,59.853C115.019,59.853 116.603,61.437 116.603,63.381L116.603,84.981Z" style="fill:none;stroke:rgb(35,31,32);stroke-width:0.22px;"/>
        <path d="M163.835,93.261C163.835,90.525 161.531,88.221 158.795,88.221C155.987,88.221 153.683,90.525 153.683,93.261C153.683,96.069 155.987,98.373 158.795,98.373C161.531,98.373 163.835,96.069 163.835,93.261Z" style="fill:rgb(35,31,32);fill-rule:nonzero;"/>
        <path d="M163.835,93.261C163.835,90.525 161.531,88.221 158.795,88.221C155.987,88.221 153.683,90.525 153.683,93.261C153.683,96.069 155.987,98.373 158.795,98.373C161.531,98.373 163.835,96.069 163.835,93.261Z" style="fill:none;stroke:rgb(35,31,32);stroke-width:0.22px;"/>
        <path d="M137.195,93.261C137.195,90.525 134.891,88.221 132.083,88.221C129.274,88.221 127.043,90.525 127.043,93.261C127.043,96.069 129.274,98.373 132.083,98.373C134.891,98.373 137.195,96.069 137.195,93.261Z" style="fill:rgb(35,31,32);fill-rule:nonzero;"/>
        <path d="M137.195,93.261C137.195,90.525 134.891,88.221 132.083,88.221C129.274,88.221 127.043,90.525 127.043,93.261C127.043,96.069 129.274,98.373 132.083,98.373C134.891,98.373 137.195,96.069 137.195,93.261Z" style="fill:none;stroke:rgb(35,31,32);stroke-width:0.22px;"/>
        <path d="M68.363,93.261C68.363,90.525 66.059,88.221 63.323,88.221C60.515,88.221 58.283,90.525 58.283,93.261C58.283,96.069 60.515,98.373 63.323,98.373C66.059,98.373 68.363,96.069 68.363,93.261Z" style="fill:rgb(35,31,32);fill-rule:nonzero;"/>
        <path d="M68.363,93.261C68.363,90.525 66.059,88.221 63.323,88.221C60.515,88.221 58.283,90.525 58.283,93.261C58.283,96.069 60.515,98.373 63.323,98.373C66.059,98.373 68.363,96.069 68.363,93.261Z" style="fill:none;stroke:rgb(35,31,32);stroke-width:0.22px;"/>
        <path d="M107.387,93.261C107.387,90.525 105.083,88.221 102.347,88.221C99.612,88.221 97.307,90.525 97.307,93.261C97.307,96.069 99.612,98.373 102.347,98.373C105.083,98.373 107.387,96.069 107.387,93.261Z" style="fill:rgb(35,31,32);fill-rule:nonzero;"/>
        <path d="M107.387,93.261C107.387,90.525 105.083,88.221 102.347,88.221C99.612,88.221 97.307,90.525 97.307,93.261C97.307,96.069 99.612,98.373 102.347,98.373C105.083,98.373 107.387,96.069 107.387,93.261Z" style="fill:none;stroke:rgb(35,31,32);stroke-width:0.22px;"/>
        <path d="M70.523,166.124C79.811,166.124 87.299,158.636 87.299,149.42C87.299,144.308 84.707,139.556 80.387,136.821C83.915,134.228 86.003,130.124 86.003,125.804C86.003,117.236 79.091,110.252 70.523,110.252L68.795,110.252C68.867,110.252 68.795,110.252 68.795,110.252C62.099,110.252 56.195,114.572 54.107,120.908L62.963,123.86C63.827,121.052 66.275,119.108 69.155,118.964L69.875,118.964C73.619,118.964 76.643,122.06 76.643,125.804C76.643,129.549 73.619,132.572 69.875,132.572L67.355,132.572L67.355,141.284L69.875,141.284C74.339,141.284 77.939,144.885 77.939,149.348C77.939,153.812 74.339,157.412 69.875,157.412C66.275,157.556 62.891,155.324 61.811,151.796L52.811,154.964C55.187,161.66 61.523,166.124 68.579,166.124L70.523,166.124Z" style="fill:rgb(35,31,32);fill-rule:nonzero;"/>
        <path d="M70.523,166.124C79.811,166.124 87.299,158.636 87.299,149.42C87.299,144.308 84.707,139.556 80.387,136.821C83.915,134.228 86.003,130.124 86.003,125.804C86.003,117.236 79.091,110.252 70.523,110.252L68.795,110.252C68.867,110.252 68.795,110.252 68.795,110.252C62.099,110.252 56.195,114.572 54.107,120.908L62.963,123.86C63.827,121.052 66.275,119.108 69.155,118.964L69.875,118.964C73.619,118.964 76.643,122.06 76.643,125.804C76.643,129.549 73.619,132.572 69.875,132.572L67.355,132.572L67.355,141.284L69.875,141.284C74.339,141.284 77.939,144.885 77.939,149.348C77.939,153.812 74.339,157.412 69.875,157.412C66.275,157.556 62.891,155.324 61.811,151.796L52.811,154.964C55.187,161.66 61.523,166.124 68.579,166.124L70.523,166.124Z" style="fill:none;stroke:rgb(35,31,32);stroke-width:0.22px;"/>
        <path d="M103.715,118.892C102.347,121.268 101.339,123.788 100.691,126.452C99.683,130.269 99.251,134.228 99.251,138.188C99.251,142.148 99.683,146.108 100.691,149.925C101.339,152.588 102.347,155.108 103.715,157.484C106.883,162.812 112.499,166.052 118.691,166.124C124.883,166.052 130.498,162.74 133.595,157.412C134.963,155.036 136.043,152.516 136.691,149.852C137.627,146.036 138.131,142.148 138.131,138.188C138.131,134.228 137.627,130.342 136.691,126.524C136.043,123.86 134.963,121.341 133.595,118.964C130.498,113.636 124.883,110.324 118.691,110.252C112.499,110.324 106.883,113.564 103.715,118.892Z" style="fill:rgb(35,31,32);fill-rule:nonzero;"/>
        <path d="M103.715,118.892C102.347,121.268 101.339,123.788 100.691,126.452C99.683,130.269 99.251,134.228 99.251,138.188C99.251,142.148 99.683,146.108 100.691,149.925C101.339,152.588 102.347,155.108 103.715,157.484C106.883,162.812 112.499,166.052 118.691,166.124C124.883,166.052 130.498,162.74 133.595,157.412C134.963,155.036 136.043,152.516 136.691,149.852C137.627,146.036 138.131,142.148 138.131,138.188C138.131,134.228 137.627,130.342 136.691,126.524C136.043,123.86 134.963,121.341 133.595,118.964C130.498,113.636 124.883,110.324 118.691,110.252C112.499,110.324 106.883,113.564 103.715,118.892Z" style="fill:none;stroke:rgb(35,31,32);stroke-width:0.22px;"/>
        <path d="M111.923,123.068C110.987,124.868 110.195,126.74 109.691,128.758C108.971,131.781 108.54,135.02 108.54,138.188C108.54,141.356 108.971,144.524 109.763,147.692C110.195,149.636 110.987,151.509 111.923,153.308C113.291,155.828 115.811,157.341 118.691,157.412C121.499,157.341 124.091,155.757 125.387,153.308C126.395,151.509 127.115,149.564 127.619,147.62C128.41,144.524 128.771,141.356 128.771,138.188C128.771,135.02 128.41,131.852 127.619,128.758C127.115,126.812 126.395,124.868 125.387,123.068C124.091,120.549 121.499,119.036 118.691,118.964C115.811,119.036 113.291,120.549 111.923,123.068Z" style="fill:white;fill-rule:nonzero;"/>
        <path d="M111.923,123.068C110.987,124.868 110.195,126.74 109.691,128.758C108.971,131.781 108.54,135.02 108.54,138.188C108.54,141.356 108.971,144.524 109.763,147.692C110.195,149.636 110.987,151.509 111.923,153.308C113.291,155.828 115.811,157.341 118.691,157.412C121.499,157.341 124.091,155.757 125.387,153.308C126.395,151.509 127.115,149.564 127.619,147.62C128.41,144.524 128.771,141.356 128.771,138.188C128.771,135.02 128.41,131.852 127.619,128.758C127.115,126.812 126.395,124.868 125.387,123.068C124.091,120.549 121.499,119.036 118.691,118.964C115.811,119.036 113.291,120.549 111.923,123.068Z" style="fill:none;stroke:rgb(35,31,32);stroke-width:0.22px;"/>
        <path d="M163.043,136.388L169.956,136.388L169.956,141.932L163.043,141.932L163.043,157.556C163.043,158.852 164.123,159.932 165.42,159.932C166.427,159.932 167.363,159.788 168.299,159.5L169.956,164.757C168.515,165.188 167.003,165.476 165.42,165.476C160.811,165.476 157.067,161.804 157.067,157.197L157.067,141.932L153.107,141.932L153.107,136.388L157.067,136.388L157.067,130.269L163.043,125.084L163.043,136.388Z" style="fill:rgb(35,31,32);fill-rule:nonzero;"/>
        <path d="M163.043,136.388L169.956,136.388L169.956,141.932L163.043,141.932L163.043,157.556C163.043,158.852 164.123,159.932 165.42,159.932C166.427,159.932 167.363,159.788 168.299,159.5L169.956,164.757C168.515,165.188 167.003,165.476 165.42,165.476C160.811,165.476 157.067,161.804 157.067,157.197L157.067,141.932L153.107,141.932L153.107,136.388L157.067,136.388L157.067,130.269L163.043,125.084L163.043,136.388Z" style="fill:none;stroke:rgb(35,31,32);stroke-width:0.22px;"/>
        <path d="M55.187,79.868L57.779,72.453L68.795,72.453L68.795,79.868L55.187,79.868Z" style="fill:white;fill-rule:nonzero;"/>
        <path d="M55.187,79.868L57.779,72.453L68.795,72.453L68.795,79.868L55.187,79.868Z" style="fill:none;stroke:rgb(35,31,32);stroke-width:0.22px;"/>
    </g>
</svg>
