<?xml version="1.0" encoding="UTF-8" standalone="no"?>
<!DOCTYPE svg PUBLIC "-//W3C//DTD SVG 1.1//EN" "http://www.w3.org/Graphics/SVG/1.1/DTD/svg11.dtd">
<svg width="100%" height="100%" viewBox="0 0 596 596" version="1.1" xmlns="http://www.w3.org/2000/svg" xmlns:xlink="http://www.w3.org/1999/xlink" xml:space="preserve" xmlns:serif="http://www.serif.com/" style="fill-rule:evenodd;clip-rule:evenodd;stroke-linecap:round;stroke-linejoin:round;stroke-miterlimit:2;">
    <g>
        <path d="M594.922,298.363C594.922,134.178 461.823,1.079 297.638,1.079C133.453,1.079 0.354,134.178 0.354,298.363C0.354,462.547 133.453,595.647 297.638,595.647C461.823,595.647 594.922,462.547 594.922,298.363Z" style="fill:rgb(211,63,39);fill-rule:nonzero;"/>
        <path d="M594.922,298.363C594.922,134.178 461.823,1.079 297.638,1.079C133.453,1.079 0.354,134.178 0.354,298.363C0.354,462.547 133.453,595.647 297.638,595.647C461.823,595.647 594.922,462.547 594.922,298.363Z" style="fill:none;stroke:rgb(211,63,39);stroke-width:0.71px;"/>
        <path d="M520.601,298.363C520.601,175.224 420.777,75.4 297.638,75.4C174.499,75.4 74.675,175.224 74.675,298.363C74.675,421.502 174.499,521.326 297.638,521.326C420.777,521.326 520.601,421.502 520.601,298.363Z" style="fill:white;fill-rule:nonzero;"/>
        <path d="M520.601,298.363C520.601,175.224 420.777,75.4 297.638,75.4C174.499,75.4 74.675,175.224 74.675,298.363C74.675,421.502 174.499,521.326 297.638,521.326C420.777,521.326 520.601,421.502 520.601,298.363Z" style="fill:none;stroke:white;stroke-width:0.71px;"/>
        <path d="M171.35,341.651C167.083,342.484 163.747,345.821 162.914,350.088L162.914,425.372C163.747,429.64 167.083,432.976 171.35,433.809L195.354,433.809C199.622,432.979 202.96,429.641 203.79,425.372L203.79,350.088C202.96,345.819 199.622,342.481 195.354,341.651L171.35,341.651Z" style="fill:rgb(35,31,32);fill-rule:nonzero;"/>
        <path d="M171.35,341.651C167.083,342.484 163.747,345.821 162.914,350.088L162.914,425.372C163.747,429.64 167.083,432.976 171.35,433.809L195.354,433.809C199.622,432.979 202.96,429.641 203.79,425.372L203.79,350.088C202.96,345.819 199.622,342.481 195.354,341.651L171.35,341.651Z" style="fill:none;stroke:rgb(35,31,32);stroke-width:0.57px;"/>
        <path d="M423.926,341.651C428.192,342.484 431.529,345.821 432.362,350.088L432.362,425.372C431.529,429.64 428.192,432.976 423.926,433.809L399.922,433.809C395.654,432.979 392.316,429.641 391.486,425.372L391.486,350.088C392.316,345.819 395.654,342.481 399.922,341.651L423.926,341.651Z" style="fill:rgb(35,31,32);fill-rule:nonzero;"/>
        <path d="M423.926,341.651C428.192,342.484 431.529,345.821 432.362,350.088L432.362,425.372C431.529,429.64 428.192,432.976 423.926,433.809L399.922,433.809C395.654,432.979 392.316,429.641 391.486,425.372L391.486,350.088C392.316,345.819 395.654,342.481 399.922,341.651L423.926,341.651Z" style="fill:none;stroke:rgb(35,31,32);stroke-width:0.57px;"/>
        <path d="M385.54,377.589L336.063,377.589C330.47,377.589 325.23,374.853 322.034,370.263C316.477,362.281 307.364,357.523 297.638,357.523C287.911,357.523 278.799,362.281 273.241,370.263C270.045,374.853 264.806,377.589 259.213,377.589L209.736,377.589L209.736,396.913L259.213,396.913C264.806,396.913 270.045,399.648 273.241,404.239C278.799,412.221 287.911,416.979 297.638,416.979C307.364,416.979 316.477,412.221 322.034,404.239C325.23,399.648 330.47,396.913 336.063,396.913L385.54,396.913L385.54,377.589Z" style="fill:rgb(35,31,32);fill-rule:nonzero;"/>
        <path d="M385.54,377.589L336.063,377.589C330.47,377.589 325.23,374.853 322.034,370.263C316.477,362.281 307.364,357.523 297.638,357.523C287.911,357.523 278.799,362.281 273.241,370.263C270.045,374.853 264.806,377.589 259.213,377.589L209.736,377.589L209.736,396.913L259.213,396.913C264.806,396.913 270.045,399.648 273.241,404.239C278.799,412.221 287.911,416.979 297.638,416.979C307.364,416.979 316.477,412.221 322.034,404.239C325.23,399.648 330.47,396.913 336.063,396.913L385.54,396.913L385.54,377.589Z" style="fill:none;stroke:rgb(35,31,32);stroke-width:0.71px;"/>
        <path d="M256.177,304.07C269.182,304.104 281.665,298.962 290.873,289.779C300.08,280.596 305.255,268.126 305.255,255.122C305.255,240.232 297.68,226.365 285.151,218.319C295.492,210.798 301.61,198.783 301.61,185.997C301.61,160.906 281.27,140.564 256.178,140.564L251.231,140.564C231.626,140.564 214.233,153.14 208.088,171.757L234.18,180.369C236.568,172.25 243.82,166.521 252.272,166.079L254.355,166.079C265.355,166.079 274.272,174.997 274.272,185.997C274.272,196.997 265.355,205.914 254.355,205.914L247.065,205.914L247.065,231.43L254.355,231.43C262.773,231.43 270.552,235.921 274.761,243.211C278.97,250.501 278.97,259.483 274.761,266.773C270.552,274.063 262.773,278.555 254.355,278.555C243.641,279.142 233.882,272.417 230.618,262.195L204.442,271.468C211.366,291.009 229.849,304.07 250.58,304.07L256.177,304.07Z" style="fill:rgb(35,31,32);fill-rule:nonzero;"/>
        <path d="M256.177,304.07C269.182,304.104 281.665,298.962 290.873,289.779C300.08,280.596 305.255,268.126 305.255,255.122C305.255,240.232 297.68,226.365 285.151,218.319C295.492,210.798 301.61,198.783 301.61,185.997C301.61,160.906 281.27,140.564 256.178,140.564L251.231,140.564C231.626,140.564 214.233,153.14 208.088,171.757L234.18,180.369C236.568,172.25 243.82,166.521 252.272,166.079L254.355,166.079C265.355,166.079 274.272,174.997 274.272,185.997C274.272,196.997 265.355,205.914 254.355,205.914L247.065,205.914L247.065,231.43L254.355,231.43C262.773,231.43 270.552,235.921 274.761,243.211C278.97,250.501 278.97,259.483 274.761,266.773C270.552,274.063 262.773,278.555 254.355,278.555C243.641,279.142 233.882,272.417 230.618,262.195L204.442,271.468C211.366,291.009 229.849,304.07 250.58,304.07L256.177,304.07Z" style="fill:none;stroke:rgb(35,31,32);stroke-width:0.71px;"/>
        <path d="M371.813,227.828L389.982,227.828L389.982,242.365L371.813,242.365L371.813,283.303C371.813,284.955 372.469,286.54 373.637,287.708C374.805,288.876 376.39,289.533 378.042,289.533C380.604,289.533 383.15,289.133 385.589,288.348L390.044,302.185C386.166,303.434 382.116,304.07 378.042,304.07C372.259,304.07 366.713,301.773 362.624,297.683C358.535,293.594 356.237,288.048 356.237,282.265L356.237,242.365L345.854,242.365L345.854,227.828L356.237,227.828L356.237,211.734L371.813,198.163L371.813,227.828Z" style="fill:rgb(35,31,32);fill-rule:nonzero;"/>
        <path d="M371.813,227.828L389.982,227.828L389.982,242.365L371.813,242.365L371.813,283.303C371.813,284.955 372.469,286.54 373.637,287.708C374.805,288.876 376.39,289.533 378.042,289.533C380.604,289.533 383.15,289.133 385.589,288.348L390.044,302.185C386.166,303.434 382.116,304.07 378.042,304.07C372.259,304.07 366.713,301.773 362.624,297.683C358.535,293.594 356.237,288.048 356.237,282.265L356.237,242.365L345.854,242.365L345.854,227.828L356.237,227.828L356.237,211.734L371.813,198.163L371.813,227.828Z" style="fill:none;stroke:rgb(35,31,32);stroke-width:0.61px;"/>
    </g>
</svg>
