<?xml version="1.0" encoding="UTF-8" standalone="no"?>
<!DOCTYPE svg PUBLIC "-//W3C//DTD SVG 1.1//EN" "http://www.w3.org/Graphics/SVG/1.1/DTD/svg11.dtd">
<svg width="100%" height="100%" viewBox="0 0 226 226" version="1.1" xmlns="http://www.w3.org/2000/svg" xmlns:xlink="http://www.w3.org/1999/xlink" xml:space="preserve" xmlns:serif="http://www.serif.com/" style="fill-rule:evenodd;clip-rule:evenodd;stroke-miterlimit:2;">
    <g>
        <path d="M225.395,113.356C225.395,51.365 174.635,0.605 112.643,0.605C50.867,0.605 0.107,51.365 0.107,113.356C0.107,175.133 50.867,225.893 112.643,225.893C174.635,225.893 225.395,175.133 225.395,113.356Z" style="fill:rgb(211,63,39);fill-rule:nonzero;"/>
        <path d="M225.395,113.356C225.395,51.365 174.635,0.605 112.643,0.605C50.867,0.605 0.107,51.365 0.107,113.356C0.107,175.133 50.867,225.893 112.643,225.893C174.635,225.893 225.395,175.133 225.395,113.356Z" style="fill:none;stroke:rgb(211,63,39);stroke-width:0.22px;"/>
        <path d="M197.171,113.356C197.171,66.844 159.155,28.829 112.643,28.829C66.347,28.829 28.331,66.844 28.331,113.356C28.331,159.652 66.347,197.668 112.643,197.668C159.155,197.668 197.171,159.652 197.171,113.356Z" style="fill:white;fill-rule:nonzero;"/>
        <path d="M197.171,113.356C197.171,66.844 159.155,28.829 112.643,28.829C66.347,28.829 28.331,66.844 28.331,113.356C28.331,159.652 66.347,197.668 112.643,197.668C159.155,197.668 197.171,159.652 197.171,113.356Z" style="fill:none;stroke:rgb(241,93,42);stroke-width:0.22px;"/>
        <path d="M52.235,117.604C41.867,116.236 41.867,100.973 52.235,99.604L171.827,99.604C176.651,100.397 180.035,104.068 180.035,108.603C180.035,113.356 176.651,117.028 171.827,117.604L52.235,117.604Z" style="fill:rgb(35,31,32);fill-rule:nonzero;"/>
        <path d="M52.235,117.604C41.867,116.236 41.867,100.973 52.235,99.604L171.827,99.604C176.651,100.397 180.035,104.068 180.035,108.603C180.035,113.356 176.651,117.028 171.827,117.604L52.235,117.604Z" style="fill:none;stroke:rgb(35,31,32);stroke-width:0.22px;"/>
        <path d="M179.459,132.869C178.307,132.58 177.155,132.292 176.363,132.292C175.499,132.292 174.923,132.292 174.347,132.58C172.979,132.869 171.827,133.444 170.963,133.949C169.595,135.101 169.019,136.54 169.019,138.197C169.019,139.925 169.883,141.58 171.251,142.444C171.827,142.732 172.403,143.309 173.267,143.309L176.867,144.389C177.155,144.677 177.731,144.677 178.019,144.964C178.595,145.252 179.171,145.829 179.171,146.405C179.171,147.197 178.595,147.772 178.019,148.06C175.211,148.925 172.403,148.349 170.387,146.692L167.867,149.5C169.883,151.157 172.691,152.309 175.499,152.309C176.363,152.309 177.155,152.02 178.019,152.02C178.883,151.732 180.035,151.444 180.827,150.58C182.267,149.789 183.131,148.06 183.131,146.405C183.131,144.389 181.979,142.732 180.251,141.869C179.459,141.292 178.595,141.004 177.731,140.717L174.347,139.925C174.347,139.925 174.059,139.925 173.771,139.637C172.691,139.06 172.403,137.332 173.771,136.54C174.347,136.252 174.635,136.252 175.211,135.964C176.363,135.964 177.155,135.964 178.307,136.252C178.883,136.54 179.459,137.044 180.035,137.332L182.555,134.524C181.691,133.949 180.539,133.157 179.459,132.869Z" style="fill:rgb(35,31,32);fill-rule:nonzero;"/>
        <path d="M179.459,132.869C178.307,132.58 177.155,132.292 176.363,132.292C175.499,132.292 174.923,132.292 174.347,132.58C172.979,132.869 171.827,133.444 170.963,133.949C169.595,135.101 169.019,136.54 169.019,138.197C169.019,139.925 169.883,141.58 171.251,142.444C171.827,142.732 172.403,143.309 173.267,143.309L176.867,144.389C177.155,144.677 177.731,144.677 178.019,144.964C178.595,145.252 179.171,145.829 179.171,146.405C179.171,147.197 178.595,147.772 178.019,148.06C175.211,148.925 172.403,148.349 170.387,146.692L167.867,149.5C169.883,151.157 172.691,152.309 175.499,152.309C176.363,152.309 177.155,152.02 178.019,152.02C178.883,151.732 180.035,151.444 180.827,150.58C182.267,149.789 183.131,148.06 183.131,146.405C183.131,144.389 181.979,142.732 180.251,141.869C179.459,141.292 178.595,141.004 177.731,140.717L174.347,139.925C174.347,139.925 174.059,139.925 173.771,139.637C172.691,139.06 172.403,137.332 173.771,136.54C174.347,136.252 174.635,136.252 175.211,135.964C176.363,135.964 177.155,135.964 178.307,136.252C178.883,136.54 179.459,137.044 180.035,137.332L182.555,134.524C181.691,133.949 180.539,133.157 179.459,132.869Z" style="fill:none;stroke:rgb(35,31,32);stroke-width:0.22px;"/>
        <path d="M159.444,139.06L159.444,151.732L163.331,151.732L163.331,138.197C163.331,135.101 160.811,132.292 157.427,132.292C155.483,132.292 153.468,133.157 152.099,134.812C150.947,133.157 149.291,132.292 147.275,132.292C145.619,132.292 144.179,132.869 143.028,133.949L143.028,132.869L139.139,132.869L139.139,151.732L143.028,151.732L143.028,139.06C143.028,135.101 149.291,135.101 149.291,139.06L149.291,151.732L153.179,151.732L153.179,139.06C153.179,135.101 159.444,135.101 159.444,139.06Z" style="fill:rgb(35,31,32);fill-rule:nonzero;"/>
        <path d="M159.444,139.06L159.444,151.732L163.331,151.732L163.331,138.197C163.331,135.101 160.811,132.292 157.427,132.292C155.483,132.292 153.468,133.157 152.099,134.812C150.947,133.157 149.291,132.292 147.275,132.292C145.619,132.292 144.179,132.869 143.028,133.949L143.028,132.869L139.139,132.869L139.139,151.732L143.028,151.732L143.028,139.06C143.028,135.101 149.291,135.101 149.291,139.06L149.291,151.732L153.179,151.732L153.179,139.06C153.179,135.101 159.444,135.101 159.444,139.06Z" style="fill:none;stroke:rgb(35,31,32);stroke-width:0.22px;"/>
        <path d="M117.971,138.484C117.683,139.637 117.683,141.004 117.683,142.157C117.683,143.524 117.683,144.964 117.971,146.117C118.835,149.789 122.219,152.309 125.891,152.309C129.563,152.309 132.659,149.789 133.451,146.117C133.739,144.964 134.028,143.524 134.028,142.157C134.028,141.004 133.739,139.637 133.451,138.484C132.659,134.812 129.563,132.292 125.891,132.292C122.219,132.292 118.835,134.812 117.971,138.484Z" style="fill:rgb(35,31,32);fill-rule:nonzero;"/>
        <path d="M117.971,138.484C117.683,139.637 117.683,141.004 117.683,142.157C117.683,143.524 117.683,144.964 117.971,146.117C118.835,149.789 122.219,152.309 125.891,152.309C129.563,152.309 132.659,149.789 133.451,146.117C133.739,144.964 134.028,143.524 134.028,142.157C134.028,141.004 133.739,139.637 133.451,138.484C132.659,134.812 129.563,132.292 125.891,132.292C122.219,132.292 118.835,134.812 117.971,138.484Z" style="fill:none;stroke:rgb(35,31,32);stroke-width:0.22px;"/>
        <path d="M121.932,138.772C121.643,139.925 121.643,141.004 121.643,142.157C121.643,143.524 121.643,144.677 121.932,145.829C122.507,147.197 123.875,148.637 125.891,148.637C127.547,148.637 128.987,147.197 129.563,145.829C129.779,144.677 130.067,143.524 130.067,142.157C130.067,141.004 129.779,139.925 129.563,138.772C128.987,137.044 127.547,135.964 125.891,135.964C123.875,135.964 122.507,137.044 121.932,138.772Z" style="fill:white;fill-rule:nonzero;"/>
        <path d="M121.932,138.772C121.643,139.925 121.643,141.004 121.643,142.157C121.643,143.524 121.643,144.677 121.932,145.829C122.507,147.197 123.875,148.637 125.891,148.637C127.547,148.637 128.987,147.197 129.563,145.829C129.779,144.677 130.067,143.524 130.067,142.157C130.067,141.004 129.779,139.925 129.563,138.772C128.987,137.044 127.547,135.964 125.891,135.964C123.875,135.964 122.507,137.044 121.932,138.772Z" style="fill:none;stroke:rgb(35,31,32);stroke-width:0.22px;"/>
        <path d="M109.475,132.869L114.011,132.869L114.011,136.54L109.475,136.54L109.475,146.909C109.475,147.772 110.052,148.637 110.915,148.637C111.779,148.637 112.355,148.349 112.859,148.349L114.011,151.732C113.147,152.02 112.067,152.309 110.915,152.309C107.819,152.309 105.588,149.789 105.588,146.692L105.588,136.54L102.707,136.54L102.707,132.869L105.588,132.869L105.588,128.909L109.475,125.236L109.475,132.869Z" style="fill:rgb(35,31,32);fill-rule:nonzero;"/>
        <path d="M109.475,132.869L114.011,132.869L114.011,136.54L109.475,136.54L109.475,146.909C109.475,147.772 110.052,148.637 110.915,148.637C111.779,148.637 112.355,148.349 112.859,148.349L114.011,151.732C113.147,152.02 112.067,152.309 110.915,152.309C107.819,152.309 105.588,149.789 105.588,146.692L105.588,136.54L102.707,136.54L102.707,132.869L105.588,132.869L105.588,128.909L109.475,125.236L109.475,132.869Z" style="fill:none;stroke:rgb(35,31,32);stroke-width:0.22px;"/>
        <path d="M95.435,132.869C94.571,132.58 93.42,132.292 92.339,132.292C91.763,132.292 90.899,132.292 90.323,132.58C89.243,132.869 88.091,133.444 86.939,133.949C85.859,135.101 84.995,136.54 84.995,138.197C84.995,139.925 85.859,141.58 87.227,142.444C87.803,142.732 88.667,143.309 89.243,143.309L92.843,144.389C93.42,144.677 93.707,144.677 94.283,144.964C94.859,145.252 95.147,145.829 95.147,146.405C95.147,147.197 94.571,147.772 93.995,148.06C91.475,148.925 88.379,148.349 86.363,146.692L83.843,149.5C86.075,151.157 88.667,152.309 91.475,152.309C92.339,152.309 93.131,152.02 93.995,152.02C95.147,151.732 95.939,151.444 96.803,150.58C98.243,149.789 99.107,148.06 99.107,146.405C99.107,144.389 97.956,142.732 96.227,141.869C95.435,141.292 94.571,141.004 93.707,140.717L90.323,139.925C90.323,139.925 90.035,139.925 90.035,139.637C88.667,139.06 88.667,137.332 89.747,136.54C90.323,136.252 90.899,136.252 91.475,135.964C92.339,135.964 93.42,135.964 94.283,136.252C94.859,136.54 95.723,137.044 96.227,137.332L98.531,134.524C97.667,133.949 96.516,133.157 95.435,132.869Z" style="fill:rgb(35,31,32);fill-rule:nonzero;"/>
        <path d="M95.435,132.869C94.571,132.58 93.42,132.292 92.339,132.292C91.763,132.292 90.899,132.292 90.323,132.58C89.243,132.869 88.091,133.444 86.939,133.949C85.859,135.101 84.995,136.54 84.995,138.197C84.995,139.925 85.859,141.58 87.227,142.444C87.803,142.732 88.667,143.309 89.243,143.309L92.843,144.389C93.42,144.677 93.707,144.677 94.283,144.964C94.859,145.252 95.147,145.829 95.147,146.405C95.147,147.197 94.571,147.772 93.995,148.06C91.475,148.925 88.379,148.349 86.363,146.692L83.843,149.5C86.075,151.157 88.667,152.309 91.475,152.309C92.339,152.309 93.131,152.02 93.995,152.02C95.147,151.732 95.939,151.444 96.803,150.58C98.243,149.789 99.107,148.06 99.107,146.405C99.107,144.389 97.956,142.732 96.227,141.869C95.435,141.292 94.571,141.004 93.707,140.717L90.323,139.925C90.323,139.925 90.035,139.925 90.035,139.637C88.667,139.06 88.667,137.332 89.747,136.54C90.323,136.252 90.899,136.252 91.475,135.964C92.339,135.964 93.42,135.964 94.283,136.252C94.859,136.54 95.723,137.044 96.227,137.332L98.531,134.524C97.667,133.949 96.516,133.157 95.435,132.869Z" style="fill:none;stroke:rgb(35,31,32);stroke-width:0.22px;"/>
        <path d="M63.539,132.869L63.539,145.54C63.539,149.212 66.347,152.309 70.019,152.309C71.747,152.309 73.403,151.732 74.843,150.58L74.843,151.732L78.803,151.732L78.803,132.869L74.843,132.869L74.843,144.964C74.843,146.909 73.115,148.637 71.171,148.637C69.155,148.637 67.499,146.909 67.499,144.964L67.499,132.869L63.539,132.869Z" style="fill:rgb(35,31,32);fill-rule:nonzero;"/>
        <path d="M63.539,132.869L63.539,145.54C63.539,149.212 66.347,152.309 70.019,152.309C71.747,152.309 73.403,151.732 74.843,150.58L74.843,151.732L78.803,151.732L78.803,132.869L74.843,132.869L74.843,144.964C74.843,146.909 73.115,148.637 71.171,148.637C69.155,148.637 67.499,146.909 67.499,144.964L67.499,132.869L63.539,132.869Z" style="fill:none;stroke:rgb(35,31,32);stroke-width:0.22px;"/>
        <path d="M59.867,129.484L56.195,131.717C55.115,130.06 53.387,129.197 51.443,129.197C49.139,129.197 47.195,130.564 46.331,132.58C45.467,134.524 45.251,136.54 45.251,138.484C45.251,140.429 45.467,142.444 46.331,144.389C47.195,146.405 49.139,148.06 51.443,148.06C53.387,148.06 55.115,146.909 56.195,145.252L59.867,147.484C55.403,154.54 44.675,153.46 41.867,145.54C40.427,141.004 40.427,135.964 41.867,131.43C44.675,123.509 55.403,122.429 59.867,129.484Z" style="fill:rgb(35,31,32);fill-rule:nonzero;"/>
        <path d="M59.867,129.484L56.195,131.717C55.115,130.06 53.387,129.197 51.443,129.197C49.139,129.197 47.195,130.564 46.331,132.58C45.467,134.524 45.251,136.54 45.251,138.484C45.251,140.429 45.467,142.444 46.331,144.389C47.195,146.405 49.139,148.06 51.443,148.06C53.387,148.06 55.115,146.909 56.195,145.252L59.867,147.484C55.403,154.54 44.675,153.46 41.867,145.54C40.427,141.004 40.427,135.964 41.867,131.43C44.675,123.509 55.403,122.429 59.867,129.484Z" style="fill:none;stroke:rgb(35,31,32);stroke-width:0.22px;"/>
        <path d="M95.147,50.789L95.147,56.981L85.283,56.981L85.283,90.245L78.515,90.245L78.515,56.981L68.651,56.981L68.651,50.789L95.147,50.789Z" style="fill:rgb(35,31,32);fill-rule:nonzero;"/>
        <path d="M95.147,50.789L95.147,56.981L85.283,56.981L85.283,90.245L78.515,90.245L78.515,56.981L68.651,56.981L68.651,50.789L95.147,50.789Z" style="fill:none;stroke:rgb(35,31,32);stroke-width:0.22px;"/>
        <path d="M97.379,70.229C97.091,72.245 96.803,74.189 96.803,76.205C96.803,78.149 97.091,80.093 97.379,81.82C98.819,87.149 103.571,91.109 109.259,91.109C114.588,91.109 119.411,87.149 120.779,81.82C121.067,80.093 121.355,78.149 121.355,76.205C121.355,74.189 121.067,72.245 120.779,70.517C119.411,64.901 114.588,61.229 109.259,61.229C103.571,61.229 98.819,64.901 97.379,70.229Z" style="fill:rgb(35,31,32);fill-rule:nonzero;"/>
        <path d="M97.379,70.229C97.091,72.245 96.803,74.189 96.803,76.205C96.803,78.149 97.091,80.093 97.379,81.82C98.819,87.149 103.571,91.109 109.259,91.109C114.588,91.109 119.411,87.149 120.779,81.82C121.067,80.093 121.355,78.149 121.355,76.205C121.355,74.189 121.067,72.245 120.779,70.517C119.411,64.901 114.588,61.229 109.259,61.229C103.571,61.229 98.819,64.901 97.379,70.229Z" style="fill:none;stroke:rgb(35,31,32);stroke-width:0.22px;"/>
        <path d="M103.571,71.093C102.995,72.82 102.707,74.477 102.707,76.205C102.707,77.861 102.995,79.589 103.571,81.245C104.147,83.765 106.379,85.493 109.259,85.493C111.779,85.493 114.011,83.765 114.875,81.245C115.163,79.589 115.451,77.861 115.451,76.205C115.451,74.477 115.163,72.82 114.875,71.093C114.011,68.573 111.779,66.844 109.259,66.844C106.379,66.844 104.147,68.573 103.571,71.093Z" style="fill:white;fill-rule:nonzero;"/>
        <path d="M103.571,71.093C102.995,72.82 102.707,74.477 102.707,76.205C102.707,77.861 102.995,79.589 103.571,81.245C104.147,83.765 106.379,85.493 109.259,85.493C111.779,85.493 114.011,83.765 114.875,81.245C115.163,79.589 115.451,77.861 115.451,76.205C115.451,74.477 115.163,72.82 114.875,71.093C114.011,68.573 111.779,66.844 109.259,66.844C106.379,66.844 104.147,68.573 103.571,71.093Z" style="fill:none;stroke:rgb(35,31,32);stroke-width:0.22px;"/>
        <rect x="129.274" y="50.789" width="5.905" height="39.456" style="fill:rgb(35,31,32);fill-rule:nonzero;"/>
        <rect x="129.274" y="50.789" width="5.905" height="39.456" style="fill:none;stroke:rgb(35,31,32);stroke-width:0.22px;"/>
        <rect x="145.043" y="50.789" width="5.904" height="39.456" style="fill:rgb(35,31,32);fill-rule:nonzero;"/>
        <rect x="145.043" y="50.789" width="5.904" height="39.456" style="fill:none;stroke:rgb(35,31,32);stroke-width:0.22px;"/>
    </g>
</svg>
