<?xml version="1.0" encoding="UTF-8" standalone="no"?>
<!DOCTYPE svg PUBLIC "-//W3C//DTD SVG 1.1//EN" "http://www.w3.org/Graphics/SVG/1.1/DTD/svg11.dtd">
<svg width="100%" height="100%" viewBox="0 0 227 227" version="1.1" xmlns="http://www.w3.org/2000/svg" xmlns:xlink="http://www.w3.org/1999/xlink" xml:space="preserve" xmlns:serif="http://www.serif.com/" style="fill-rule:evenodd;clip-rule:evenodd;stroke-miterlimit:2;">
    <g>
        <path d="M226.691,113.708C226.691,51.357 175.643,0.309 113.291,0.309C51.155,0.309 0.107,51.357 0.107,113.708C0.107,175.845 51.155,226.892 113.291,226.892C175.643,226.892 226.691,175.845 226.691,113.708Z" style="fill:rgb(211,63,39);fill-rule:nonzero;"/>
        <path d="M226.691,113.708C226.691,51.357 175.643,0.309 113.291,0.309C51.155,0.309 0.107,51.357 0.107,113.708C0.107,175.845 51.155,226.892 113.291,226.892C175.643,226.892 226.691,175.845 226.691,113.708Z" style="fill:none;stroke:rgb(211,63,39);stroke-width:0.22px;"/>
        <path d="M178.163,168.788C191.267,153.164 198.323,133.868 198.323,113.708C198.323,66.693 160.307,28.676 113.291,28.676C93.131,28.676 73.835,35.733 58.211,48.837L178.163,168.788Z" style="fill:white;fill-rule:nonzero;"/>
        <path d="M178.163,168.788C191.267,153.164 198.323,133.868 198.323,113.708C198.323,66.693 160.307,28.676 113.291,28.676C93.131,28.676 73.835,35.733 58.211,48.837L178.163,168.788Z" style="fill:none;stroke:rgb(241,93,42);stroke-width:0.22px;"/>
        <path d="M168.299,178.652L48.347,58.7C35.243,74.037 28.187,93.621 28.187,113.708C28.187,160.796 66.203,198.812 113.291,198.812C133.379,198.812 152.963,191.757 168.299,178.652Z" style="fill:white;fill-rule:nonzero;"/>
        <path d="M168.299,178.652L48.347,58.7C35.243,74.037 28.187,93.621 28.187,113.708C28.187,160.796 66.203,198.812 113.291,198.812C133.379,198.812 152.963,191.757 168.299,178.652Z" style="fill:none;stroke:rgb(241,93,42);stroke-width:0.22px;"/>
        <path d="M154.691,165.044L134.243,144.668L134.243,176.133L154.691,176.133L154.691,165.044Z" style="fill:rgb(35,31,32);fill-rule:nonzero;"/>
        <path d="M154.691,165.044L134.243,144.668L134.243,176.133L154.691,176.133L154.691,165.044Z" style="fill:none;stroke:rgb(35,31,32);stroke-width:0.22px;"/>
        <path d="M82.619,177.284C82.043,177.86 81.179,177.86 80.675,177.284L61.091,149.493C60.803,148.916 61.091,148.053 61.955,148.053L71.603,149.781L71.603,92.181C71.603,89.085 71.819,85.917 72.683,83.109L91.98,102.405L91.98,149.781L101.339,148.053C101.915,148.053 102.203,148.341 102.203,148.916L102.203,149.493L82.619,177.284Z" style="fill:rgb(35,31,32);fill-rule:nonzero;"/>
        <path d="M82.619,177.284C82.043,177.86 81.179,177.86 80.675,177.284L61.091,149.493C60.803,148.916 61.091,148.053 61.955,148.053L71.603,149.781L71.603,92.181C71.603,89.085 71.819,85.917 72.683,83.109L91.98,102.405L91.98,149.781L101.339,148.053C101.915,148.053 102.203,148.341 102.203,148.916L102.203,149.493L82.619,177.284Z" style="fill:none;stroke:rgb(35,31,32);stroke-width:0.22px;"/>
        <path d="M154.691,92.181C154.691,69.501 136.259,51.069 113.507,51.069L112.715,51.069C99.107,51.069 86.291,57.909 78.659,69.213L93.707,84.261C96.803,76.341 104.435,71.517 112.715,71.517L113.507,71.517C124.883,71.517 134.243,80.877 134.243,92.181L134.243,124.509L154.691,144.956L154.691,92.181Z" style="fill:rgb(35,31,32);fill-rule:nonzero;"/>
        <path d="M154.691,92.181C154.691,69.501 136.259,51.069 113.507,51.069L112.715,51.069C99.107,51.069 86.291,57.909 78.659,69.213L93.707,84.261C96.803,76.341 104.435,71.517 112.715,71.517L113.507,71.517C124.883,71.517 134.243,80.877 134.243,92.181L134.243,124.509L154.691,144.956L154.691,92.181Z" style="fill:none;stroke:rgb(35,31,32);stroke-width:0.22px;"/>
    </g>
</svg>
