<?xml version="1.0" encoding="UTF-8" standalone="no"?>
<!DOCTYPE svg PUBLIC "-//W3C//DTD SVG 1.1//EN" "http://www.w3.org/Graphics/SVG/1.1/DTD/svg11.dtd">
<svg width="100%" height="100%" viewBox="0 0 228 228" version="1.1" xmlns="http://www.w3.org/2000/svg" xmlns:xlink="http://www.w3.org/1999/xlink" xml:space="preserve" xmlns:serif="http://www.serif.com/" style="fill-rule:evenodd;clip-rule:evenodd;stroke-miterlimit:2;">
    <g>
        <path d="M227.123,114.493C227.123,51.997 176.003,0.877 113.507,0.877C51.227,0.877 0.107,51.997 0.107,114.493C0.107,176.772 51.227,227.893 113.507,227.893C176.003,227.893 227.123,176.772 227.123,114.493Z" style="fill:rgb(211,63,39);fill-rule:nonzero;"/>
        <path d="M227.123,114.493C227.123,51.997 176.003,0.877 113.507,0.877C51.227,0.877 0.107,51.997 0.107,114.493C0.107,176.772 51.227,227.893 113.507,227.893C176.003,227.893 227.123,176.772 227.123,114.493Z" style="fill:none;stroke:rgb(211,63,39);stroke-width:0.22px;"/>
        <path d="M198.683,114.493C198.683,67.621 160.379,29.317 113.507,29.317C66.851,29.317 28.547,67.621 28.547,114.493C28.547,161.148 66.851,199.453 113.507,199.453C160.379,199.453 198.683,161.148 198.683,114.493Z" style="fill:white;fill-rule:nonzero;"/>
        <path d="M198.683,114.493C198.683,67.621 160.379,29.317 113.507,29.317C66.851,29.317 28.547,67.621 28.547,114.493C28.547,161.148 66.851,199.453 113.507,199.453C160.379,199.453 198.683,161.148 198.683,114.493Z" style="fill:none;stroke:rgb(241,93,42);stroke-width:0.22px;"/>
        <path d="M179.963,136.957L179.963,131.269L171.683,131.269L171.683,136.957L172.547,139.261C173.699,139.836 174.851,140.124 176.003,140.124C177.083,140.124 178.235,139.836 179.387,139.261L179.963,136.957Z" style="fill:rgb(35,31,32);fill-rule:nonzero;"/>
        <path d="M179.963,136.957L179.963,131.269L171.683,131.269L171.683,136.957L172.547,139.261C173.699,139.836 174.851,140.124 176.003,140.124C177.083,140.124 178.235,139.836 179.387,139.261L179.963,136.957Z" style="fill:none;stroke:rgb(35,31,32);stroke-width:0.22px;"/>
        <path d="M126.251,131.269L126.251,136.957L126.827,139.261C127.98,139.836 129.131,140.124 130.211,140.124C131.363,140.124 132.516,139.836 133.667,139.261L134.531,136.957L134.531,131.269L126.251,131.269Z" style="fill:rgb(35,31,32);fill-rule:nonzero;"/>
        <path d="M126.251,131.269L126.251,136.957L126.827,139.261C127.98,139.836 129.131,140.124 130.211,140.124C131.363,140.124 132.516,139.836 133.667,139.261L134.531,136.957L134.531,131.269L126.251,131.269Z" style="fill:none;stroke:rgb(35,31,32);stroke-width:0.22px;"/>
        <path d="M46.691,131.269L46.691,136.957L47.555,139.261C48.419,139.836 49.571,140.124 50.939,140.124C52.091,140.124 53.243,139.836 54.107,139.261L54.971,136.957L54.971,131.269L46.691,131.269Z" style="fill:rgb(211,63,39);fill-rule:nonzero;"/>
        <path d="M46.691,131.269L46.691,136.957L47.555,139.261C48.419,139.836 49.571,140.124 50.939,140.124C52.091,140.124 53.243,139.836 54.107,139.261L54.971,136.957L54.971,131.269L46.691,131.269Z" style="fill:none;stroke:rgb(211,63,39);stroke-width:0.22px;"/>
        <path d="M100.115,109.38L93.564,88.933C87.299,87.853 80.531,86.989 73.691,86.989C66.851,86.989 60.371,87.853 53.531,88.933L47.267,109.38C44.963,110.532 43.595,112.549 43.019,115.068L43.019,124.5L104.363,124.5L104.363,115.068C103.787,112.549 102.42,110.532 100.115,109.38Z" style="fill:rgb(211,63,39);fill-rule:nonzero;"/>
        <path d="M100.115,109.38L93.564,88.933C87.299,87.853 80.531,86.989 73.691,86.989C66.851,86.989 60.371,87.853 53.531,88.933L47.267,109.38C44.963,110.532 43.595,112.549 43.019,115.068L43.019,124.5L104.363,124.5L104.363,115.068C103.787,112.549 102.42,110.532 100.115,109.38Z" style="fill:none;stroke:rgb(211,63,39);stroke-width:0.22px;"/>
        <path d="M43.307,126.444L43.019,126.732L43.019,130.98L43.307,131.269L104.076,131.269L104.363,130.98L104.363,126.732L104.076,126.444L43.307,126.444Z" style="fill:rgb(211,63,39);fill-rule:nonzero;"/>
        <path d="M43.307,126.444L43.019,126.732L43.019,130.98L43.307,131.269L104.076,131.269L104.363,130.98L104.363,126.732L104.076,126.444L43.307,126.444Z" style="fill:none;stroke:rgb(211,63,39);stroke-width:0.22px;"/>
        <path d="M100.691,136.957L100.691,131.269L92.483,131.269L92.483,136.957L92.987,139.261C94.139,139.836 95.291,140.124 96.444,140.124C97.595,140.124 98.675,139.836 99.827,139.261L100.691,136.957Z" style="fill:rgb(211,63,39);fill-rule:nonzero;"/>
        <path d="M100.691,136.957L100.691,131.269L92.483,131.269L92.483,136.957L92.987,139.261C94.139,139.836 95.291,140.124 96.444,140.124C97.595,140.124 98.675,139.836 99.827,139.261L100.691,136.957Z" style="fill:none;stroke:rgb(211,63,39);stroke-width:0.22px;"/>
        <path d="M179.675,109.38L173.123,88.933C166.571,87.853 160.091,86.989 153.251,86.989C146.411,86.989 139.643,87.853 133.091,88.933L126.54,109.38C124.523,110.532 123.155,112.549 122.579,115.068L122.579,124.5L183.635,124.5L183.635,115.068C183.059,112.549 181.691,110.532 179.675,109.38Z" style="fill:rgb(35,31,32);fill-rule:nonzero;"/>
        <path d="M179.675,109.38L173.123,88.933C166.571,87.853 160.091,86.989 153.251,86.989C146.411,86.989 139.643,87.853 133.091,88.933L126.54,109.38C124.523,110.532 123.155,112.549 122.579,115.068L122.579,124.5L183.635,124.5L183.635,115.068C183.059,112.549 181.691,110.532 179.675,109.38Z" style="fill:none;stroke:rgb(35,31,32);stroke-width:0.22px;"/>
        <path d="M122.867,126.444L122.579,126.732L122.579,130.98L122.867,131.269L183.347,131.269L183.635,130.98L183.635,126.732L183.347,126.444L122.867,126.444Z" style="fill:rgb(35,31,32);fill-rule:nonzero;"/>
        <path d="M122.867,126.444L122.579,126.732L122.579,130.98L122.867,131.269L183.347,131.269L183.635,130.98L183.635,126.732L183.347,126.444L122.867,126.444Z" style="fill:none;stroke:rgb(35,31,32);stroke-width:0.22px;"/>
        <path d="M173.699,108.013C167.147,105.42 159.803,103.98 152.675,103.98C145.835,103.98 139.067,105.133 132.516,107.436L136.475,94.621C142.163,93.757 147.851,93.469 153.251,93.469C158.651,93.469 164.339,93.757 170.027,94.621L173.699,108.013Z" style="fill:white;fill-rule:nonzero;"/>
        <path d="M173.699,108.013C167.147,105.42 159.803,103.98 152.675,103.98C145.835,103.98 139.067,105.133 132.516,107.436L136.475,94.621C142.163,93.757 147.851,93.469 153.251,93.469C158.651,93.469 164.339,93.757 170.027,94.621L173.699,108.013Z" style="fill:none;stroke:white;stroke-width:0.22px;"/>
        <path d="M52.667,119.893L52.667,112.836C52.091,112.549 51.227,112.261 50.651,112.261C49.859,112.261 49.283,112.549 48.707,112.836L48.707,119.893C49.283,120.469 49.859,120.469 50.651,120.469C51.227,120.469 52.091,120.469 52.667,119.893Z" style="fill:white;fill-rule:nonzero;"/>
        <path d="M52.667,119.893L52.667,112.836C52.091,112.549 51.227,112.261 50.651,112.261C49.859,112.261 49.283,112.549 48.707,112.836L48.707,119.893C49.283,120.469 49.859,120.469 50.651,120.469C51.227,120.469 52.091,120.469 52.667,119.893Z" style="fill:none;stroke:white;stroke-width:0.22px;"/>
        <path d="M94.715,119.893C95.291,120.469 96.155,120.469 96.731,120.469C97.307,120.469 98.1,120.469 98.675,119.893L98.675,112.836C98.1,112.549 97.307,112.261 96.731,112.261C96.155,112.261 95.291,112.549 94.715,112.836L94.715,119.893Z" style="fill:white;fill-rule:nonzero;"/>
        <path d="M94.715,119.893C95.291,120.469 96.155,120.469 96.731,120.469C97.307,120.469 98.1,120.469 98.675,119.893L98.675,112.836C98.1,112.549 97.307,112.261 96.731,112.261C96.155,112.261 95.291,112.549 94.715,112.836L94.715,119.893Z" style="fill:none;stroke:white;stroke-width:0.22px;"/>
        <path d="M94.427,108.013C87.588,105.42 80.243,103.98 73.115,103.98C66.275,103.98 59.507,105.133 53.243,107.436L56.915,94.621C62.603,93.757 68.291,93.469 73.979,93.469C79.379,93.469 84.779,93.757 90.468,94.621L94.427,108.013Z" style="fill:white;fill-rule:nonzero;"/>
        <path d="M94.427,108.013C87.588,105.42 80.243,103.98 73.115,103.98C66.275,103.98 59.507,105.133 53.243,107.436L56.915,94.621C62.603,93.757 68.291,93.469 73.979,93.469C79.379,93.469 84.779,93.757 90.468,94.621L94.427,108.013Z" style="fill:none;stroke:white;stroke-width:0.22px;"/>
        <path d="M174.275,119.893C174.851,120.469 175.427,120.469 176.291,120.469C176.867,120.469 177.659,120.469 178.235,119.893L178.235,112.836C177.659,112.549 176.867,112.261 176.291,112.261C175.427,112.261 174.851,112.549 174.275,112.836L174.275,119.893Z" style="fill:white;fill-rule:nonzero;"/>
        <path d="M174.275,119.893C174.851,120.469 175.427,120.469 176.291,120.469C176.867,120.469 177.659,120.469 178.235,119.893L178.235,112.836C177.659,112.549 176.867,112.261 176.291,112.261C175.427,112.261 174.851,112.549 174.275,112.836L174.275,119.893Z" style="fill:none;stroke:white;stroke-width:0.22px;"/>
        <path d="M131.939,119.893L131.939,112.836C131.363,112.549 130.787,112.261 129.923,112.261C129.42,112.261 128.843,112.549 127.98,112.836L127.98,119.893C128.843,120.469 129.42,120.469 129.923,120.469C130.787,120.469 131.363,120.469 131.939,119.893Z" style="fill:white;fill-rule:nonzero;"/>
        <path d="M131.939,119.893L131.939,112.836C131.363,112.549 130.787,112.261 129.923,112.261C129.42,112.261 128.843,112.549 127.98,112.836L127.98,119.893C128.843,120.469 129.42,120.469 129.923,120.469C130.787,120.469 131.363,120.469 131.939,119.893Z" style="fill:none;stroke:white;stroke-width:0.22px;"/>
    </g>
</svg>
