<?xml version="1.0" encoding="UTF-8" standalone="no"?>
<!DOCTYPE svg PUBLIC "-//W3C//DTD SVG 1.1//EN" "http://www.w3.org/Graphics/SVG/1.1/DTD/svg11.dtd">
<svg width="100%" height="100%" viewBox="0 0 596 596" version="1.1" xmlns="http://www.w3.org/2000/svg" xmlns:xlink="http://www.w3.org/1999/xlink" xml:space="preserve" xmlns:serif="http://www.serif.com/" style="fill-rule:evenodd;clip-rule:evenodd;stroke-linecap:round;stroke-linejoin:round;stroke-miterlimit:2;">
    <g>
        <path d="M594.922,298.363C594.922,134.178 461.823,1.079 297.638,1.079C133.453,1.079 0.354,134.178 0.354,298.363C0.354,462.547 133.453,595.647 297.638,595.647C461.823,595.647 594.922,462.547 594.922,298.363Z" style="fill:white;fill-rule:nonzero;"/>
        <path d="M594.922,298.363C594.922,134.178 461.823,1.079 297.638,1.079C133.453,1.079 0.354,134.178 0.354,298.363C0.354,462.547 133.453,595.647 297.638,595.647C461.823,595.647 594.922,462.547 594.922,298.363Z" style="fill:none;stroke:black;stroke-width:0.71px;"/>
        <path d="M493.236,279.329L473.985,218.209C454.275,214.588 434.304,212.568 414.268,212.168C394.23,212.568 374.26,214.588 354.55,218.209L335.299,279.329C329.15,282.864 324.769,288.819 323.225,295.741L323.225,323.603L323.964,324.321L504.571,324.321L505.311,323.603L505.311,295.741C503.767,288.819 499.385,282.864 493.236,279.329Z" style="fill:rgb(187,177,163);fill-rule:nonzero;"/>
        <path d="M493.236,279.329L473.985,218.209C454.275,214.588 434.304,212.568 414.268,212.168C394.23,212.568 374.26,214.588 354.55,218.209L335.299,279.329C329.15,282.864 324.769,288.819 323.225,295.741L323.225,323.603L323.964,324.321L504.571,324.321L505.311,323.603L505.311,295.741C503.767,288.819 499.385,282.864 493.236,279.329Z" style="fill:none;stroke:rgb(187,177,163);stroke-width:0.71px;"/>
        <path d="M323.964,329.89L323.225,330.609L323.225,343.655L323.964,344.374L504.571,344.374L505.311,343.655L505.311,330.609L504.571,329.89L323.964,329.89Z" style="fill:rgb(187,177,163);fill-rule:nonzero;"/>
        <path d="M323.964,329.89L323.225,330.609L323.225,343.655L323.964,344.374L504.571,344.374L505.311,343.655L505.311,330.609L504.571,329.89L323.964,329.89Z" style="fill:none;stroke:rgb(187,177,163);stroke-width:0.71px;"/>
        <path d="M334.073,344.374L334.073,360.886L336.28,368.176C342.558,371.531 350.097,371.531 356.375,368.176L358.582,360.886L358.582,344.374L334.073,344.374Z" style="fill:rgb(187,177,163);fill-rule:nonzero;"/>
        <path d="M334.073,344.374L334.073,360.886L336.28,368.176C342.558,371.531 350.097,371.531 356.375,368.176L358.582,360.886L358.582,344.374L334.073,344.374Z" style="fill:none;stroke:rgb(187,177,163);stroke-width:0.34px;"/>
        <path d="M494.462,360.886L494.462,344.374L469.953,344.374L469.953,360.886L472.159,368.176C478.438,371.531 485.977,371.531 492.255,368.176L494.462,360.886Z" style="fill:rgb(187,177,163);fill-rule:nonzero;"/>
        <path d="M494.462,360.886L494.462,344.374L469.953,344.374L469.953,360.886L472.159,368.176C478.438,371.531 485.977,371.531 492.255,368.176L494.462,360.886Z" style="fill:none;stroke:rgb(187,177,163);stroke-width:0.34px;"/>
        <path d="M475.849,275.002C436.326,259.95 392.734,259.474 352.894,273.66L364.83,235.118C381.223,232.929 397.73,231.715 414.268,231.484C430.805,231.715 447.313,232.929 463.705,235.118L475.849,275.002Z" style="fill:white;fill-rule:nonzero;"/>
        <path d="M475.849,275.002C436.326,259.95 392.734,259.474 352.894,273.66L364.83,235.118C381.223,232.929 397.73,231.715 414.268,231.484C430.805,231.715 447.313,232.929 463.705,235.118L475.849,275.002Z" style="fill:none;stroke:white;stroke-width:0.71px;"/>
        <path d="M351.564,310.83L351.564,289.224C347.867,287.257 343.434,287.257 339.737,289.224L339.737,310.83C343.434,312.797 347.867,312.797 351.564,310.83Z" style="fill:white;fill-rule:nonzero;"/>
        <path d="M351.564,310.83L351.564,289.224C347.867,287.257 343.434,287.257 339.737,289.224L339.737,310.83C343.434,312.797 347.867,312.797 351.564,310.83Z" style="fill:none;stroke:white;stroke-width:0.16px;"/>
        <path d="M476.97,310.83C480.668,312.797 485.102,312.797 488.798,310.83L488.798,289.224C485.102,287.257 480.668,287.257 476.97,289.224L476.97,310.83Z" style="fill:white;fill-rule:nonzero;"/>
        <path d="M476.97,310.83C480.668,312.797 485.102,312.797 488.798,310.83L488.798,289.224C485.102,287.257 480.668,287.257 476.97,289.224L476.97,310.83Z" style="fill:none;stroke:white;stroke-width:0.16px;"/>
        <path d="M112.778,370.692L120.71,370.692C122.161,370.692 123.552,370.116 124.578,369.09C125.604,368.065 126.18,366.672 126.18,365.222L126.18,344.045L130.647,344.045L130.647,365.222C130.647,366.672 131.225,368.065 132.251,369.09C133.277,370.116 134.668,370.692 136.119,370.692L144.051,370.692C145.501,370.692 146.893,370.116 147.919,369.09C148.945,368.065 149.521,366.672 149.521,365.222L149.521,335.275L179.592,335.275C182.797,335.275 185.84,336.679 187.919,339.119C190.583,342.244 194.484,344.045 198.591,344.045C202.698,344.045 206.598,342.244 209.263,339.119C211.341,336.679 214.385,335.275 217.589,335.275L247.42,335.275L247.42,365.222C247.42,368.243 249.87,370.692 252.89,370.692L260.821,370.692C262.273,370.692 263.665,370.116 264.691,369.09C265.716,368.065 266.293,366.672 266.293,365.222L266.293,344.045L270.521,344.045L270.521,365.222C270.521,368.243 272.97,370.692 275.991,370.692L283.924,370.692C286.944,370.692 289.394,368.243 289.394,365.222L289.394,163.633C289.394,159.012 285.866,155.154 281.262,154.743C226.103,149.816 170.615,149.783 115.449,154.645C110.842,155.051 107.307,158.91 107.307,163.536L107.307,365.222C107.307,368.243 109.756,370.692 112.778,370.692Z" style="fill:rgb(187,177,163);fill-rule:nonzero;"/>
        <path d="M112.778,370.692L120.71,370.692C122.161,370.692 123.552,370.116 124.578,369.09C125.604,368.065 126.18,366.672 126.18,365.222L126.18,344.045L130.647,344.045L130.647,365.222C130.647,366.672 131.225,368.065 132.251,369.09C133.277,370.116 134.668,370.692 136.119,370.692L144.051,370.692C145.501,370.692 146.893,370.116 147.919,369.09C148.945,368.065 149.521,366.672 149.521,365.222L149.521,335.275L179.592,335.275C182.797,335.275 185.84,336.679 187.919,339.119C190.583,342.244 194.484,344.045 198.591,344.045C202.698,344.045 206.598,342.244 209.263,339.119C211.341,336.679 214.385,335.275 217.589,335.275L247.42,335.275L247.42,365.222C247.42,368.243 249.87,370.692 252.89,370.692L260.821,370.692C262.273,370.692 263.665,370.116 264.691,369.09C265.716,368.065 266.293,366.672 266.293,365.222L266.293,344.045L270.521,344.045L270.521,365.222C270.521,368.243 272.97,370.692 275.991,370.692L283.924,370.692C286.944,370.692 289.394,368.243 289.394,365.222L289.394,163.633C289.394,159.012 285.866,155.154 281.262,154.743C226.103,149.816 170.615,149.783 115.449,154.645C110.842,155.051 107.307,158.91 107.307,163.536L107.307,365.222C107.307,368.243 109.756,370.692 112.778,370.692Z" style="fill:none;stroke:rgb(187,177,163);stroke-width:0.71px;"/>
        <path d="M140.91,298.362C140.91,292.447 136.115,287.652 130.199,287.652C124.284,287.652 119.489,292.447 119.489,298.362C119.489,304.278 124.284,309.074 130.199,309.074C136.115,309.074 140.91,304.278 140.91,298.362Z" style="fill:white;fill-rule:nonzero;"/>
        <path d="M140.91,298.362C140.91,292.447 136.115,287.652 130.199,287.652C124.284,287.652 119.489,292.447 119.489,298.362C119.489,304.278 124.284,309.074 130.199,309.074C136.115,309.074 140.91,304.278 140.91,298.362Z" style="fill:none;stroke:white;stroke-width:0.71px;"/>
        <path d="M277.223,298.362C277.223,292.447 272.427,287.652 266.511,287.652C260.596,287.652 255.8,292.447 255.8,298.362C255.8,304.278 260.596,309.074 266.511,309.074C272.427,309.074 277.223,304.278 277.223,298.362Z" style="fill:white;fill-rule:nonzero;"/>
        <path d="M277.223,298.362C277.223,292.447 272.427,287.652 266.511,287.652C260.596,287.652 255.8,292.447 255.8,298.362C255.8,304.278 260.596,309.074 266.511,309.074C272.427,309.074 277.223,304.278 277.223,298.362Z" style="fill:none;stroke:white;stroke-width:0.71px;"/>
        <path d="M49.631,462.285C46.827,458.041 44.131,453.727 41.548,449.347L448.621,42.274C453.003,44.857 457.316,47.552 461.56,50.357L49.631,462.285Z" style="fill:rgb(35,31,32);fill-rule:nonzero;"/>
        <path d="M49.631,462.285C46.827,458.041 44.131,453.727 41.548,449.347L448.621,42.274C453.003,44.857 457.316,47.552 461.56,50.357L49.631,462.285Z" style="fill:none;stroke:rgb(35,31,32);stroke-width:0.71px;"/>
        <path d="M67.459,486.499C70.604,490.347 73.845,494.116 77.178,497.801L497.076,77.904C493.39,74.57 489.622,71.329 485.774,68.184L67.459,486.499Z" style="fill:rgb(35,31,32);fill-rule:nonzero;"/>
        <path d="M67.459,486.499C70.604,490.347 73.845,494.116 77.178,497.801L497.076,77.904C493.39,74.57 489.622,71.329 485.774,68.184L67.459,486.499Z" style="fill:none;stroke:rgb(35,31,32);stroke-width:0.71px;"/>
        <path d="M98.2,518.822C101.885,522.157 105.653,525.397 109.501,528.541L527.816,110.226C524.672,106.378 521.431,102.61 518.097,98.926L98.2,518.822Z" style="fill:rgb(35,31,32);fill-rule:nonzero;"/>
        <path d="M98.2,518.822C101.885,522.157 105.653,525.397 109.501,528.541L527.816,110.226C524.672,106.378 521.431,102.61 518.097,98.926L98.2,518.822Z" style="fill:none;stroke:rgb(35,31,32);stroke-width:0.71px;"/>
        <path d="M133.716,546.37C137.959,549.174 142.273,551.87 146.654,554.452L553.728,147.379C551.144,142.998 548.448,138.684 545.645,134.441L133.716,546.37Z" style="fill:rgb(35,31,32);fill-rule:nonzero;"/>
        <path d="M133.716,546.37C137.959,549.174 142.273,551.87 146.654,554.452L553.728,147.379C551.144,142.998 548.448,138.684 545.645,134.441L133.716,546.37Z" style="fill:none;stroke:rgb(35,31,32);stroke-width:0.71px;"/>
    </g>
</svg>
