<?xml version="1.0" encoding="UTF-8" standalone="no"?>
<!DOCTYPE svg PUBLIC "-//W3C//DTD SVG 1.1//EN" "http://www.w3.org/Graphics/SVG/1.1/DTD/svg11.dtd">
<svg width="100%" height="100%" viewBox="0 0 228 228" version="1.1" xmlns="http://www.w3.org/2000/svg" xmlns:xlink="http://www.w3.org/1999/xlink" xml:space="preserve" xmlns:serif="http://www.serif.com/" style="fill-rule:evenodd;clip-rule:evenodd;stroke-miterlimit:2;">
    <g>
        <path d="M227.123,114.493C227.123,51.997 176.003,0.877 113.507,0.877C51.227,0.877 0.107,51.997 0.107,114.493C0.107,176.772 51.227,227.893 113.507,227.893C176.003,227.893 227.123,176.772 227.123,114.493Z" style="fill:rgb(211,63,39);fill-rule:nonzero;"/>
        <path d="M227.123,114.493C227.123,51.997 176.003,0.877 113.507,0.877C51.227,0.877 0.107,51.997 0.107,114.493C0.107,176.772 51.227,227.893 113.507,227.893C176.003,227.893 227.123,176.772 227.123,114.493Z" style="fill:none;stroke:rgb(211,63,39);stroke-width:0.22px;"/>
        <path d="M198.683,114.493C198.683,67.621 160.379,29.317 113.507,29.317C66.851,29.317 28.547,67.621 28.547,114.493C28.547,161.148 66.851,199.453 113.507,199.453C160.379,199.453 198.683,161.148 198.683,114.493Z" style="fill:white;fill-rule:nonzero;"/>
        <path d="M198.683,114.493C198.683,67.621 160.379,29.317 113.507,29.317C66.851,29.317 28.547,67.621 28.547,114.493C28.547,161.148 66.851,199.453 113.507,199.453C160.379,199.453 198.683,161.148 198.683,114.493Z" style="fill:none;stroke:rgb(241,93,42);stroke-width:0.22px;"/>
        <path d="M156.635,165.685C160.956,165.685 165.203,164.533 168.875,162.517C173.123,159.997 176.867,156.829 179.963,153.157C182.267,150.061 184.211,146.604 185.651,142.933C186.803,140.701 187.595,137.821 188.171,135.301C189.611,128.46 190.187,121.621 190.187,114.781C190.187,110.245 189.899,105.708 189.323,101.459C188.747,95.772 187.595,90.373 185.651,85.261C184.211,81.301 182.267,77.556 179.675,74.173C176.867,69.925 172.835,66.253 168.299,63.661C164.627,61.645 160.667,60.565 156.635,60.565C152.387,60.565 148.427,61.645 144.755,63.661C140.147,66.253 136.187,69.925 133.379,74.173C130.787,77.341 128.843,81.013 127.403,84.973C125.387,90.373 124.235,95.772 123.731,101.172C123.155,105.708 122.867,110.245 122.867,114.781C122.867,121.909 123.444,128.748 124.811,135.517C125.387,138.108 126.251,140.701 127.403,142.933C128.843,146.604 130.787,150.061 133.091,153.157C136.187,156.829 139.932,159.997 144.179,162.517C147.851,164.533 152.099,165.685 156.635,165.685Z" style="fill:rgb(35,31,32);fill-rule:nonzero;"/>
        <path d="M156.635,165.685C160.956,165.685 165.203,164.533 168.875,162.517C173.123,159.997 176.867,156.829 179.963,153.157C182.267,150.061 184.211,146.604 185.651,142.933C186.803,140.701 187.595,137.821 188.171,135.301C189.611,128.46 190.187,121.621 190.187,114.781C190.187,110.245 189.899,105.708 189.323,101.459C188.747,95.772 187.595,90.373 185.651,85.261C184.211,81.301 182.267,77.556 179.675,74.173C176.867,69.925 172.835,66.253 168.299,63.661C164.627,61.645 160.667,60.565 156.635,60.565C152.387,60.565 148.427,61.645 144.755,63.661C140.147,66.253 136.187,69.925 133.379,74.173C130.787,77.341 128.843,81.013 127.403,84.973C125.387,90.373 124.235,95.772 123.731,101.172C123.155,105.708 122.867,110.245 122.867,114.781C122.867,121.909 123.444,128.748 124.811,135.517C125.387,138.108 126.251,140.701 127.403,142.933C128.843,146.604 130.787,150.061 133.091,153.157C136.187,156.829 139.932,159.997 144.179,162.517C147.851,164.533 152.099,165.685 156.635,165.685Z" style="fill:none;stroke:rgb(35,31,32);stroke-width:0.22px;"/>
        <path d="M85.931,166.549L85.931,148.332L43.883,148.332C40.427,142.644 38.195,136.38 37.043,129.9L81.395,60.565L106.956,60.565L106.956,126.732L116.028,126.732L116.028,147.181L107.531,147.181L107.531,166.549L85.931,166.549Z" style="fill:rgb(35,31,32);fill-rule:nonzero;"/>
        <path d="M85.931,166.549L85.931,148.332L43.883,148.332C40.427,142.644 38.195,136.38 37.043,129.9L81.395,60.565L106.956,60.565L106.956,126.732L116.028,126.732L116.028,147.181L107.531,147.181L107.531,166.549L85.931,166.549Z" style="fill:none;stroke:rgb(35,31,32);stroke-width:0.22px;"/>
        <path d="M85.355,127.02L63.179,127.02L85.355,93.469L85.355,127.02Z" style="fill:white;fill-rule:nonzero;"/>
        <path d="M85.355,127.02L63.179,127.02L85.355,93.469L85.355,127.02Z" style="fill:none;stroke:rgb(35,31,32);stroke-width:0.22px;"/>
        <path d="M162.611,82.453L163.187,83.245L164.051,84.397L164.627,85.549L165.203,86.7L165.779,88.069L166.355,89.221L166.859,90.661L167.435,92.101L167.723,93.469L168.299,94.621L168.587,96.061L168.875,97.501L169.163,98.868L169.451,100.021L169.451,101.459L170.027,103.765L170.027,105.997L170.315,106.86L170.315,111.973L170.603,112.549L170.603,117.373L170.315,117.949L170.315,121.621L170.027,122.484L170.027,125.004L169.739,125.581L169.739,127.597L169.451,128.172L169.451,129.325L169.163,129.9L169.163,130.405L168.875,131.269L168.875,131.845L168.587,132.42L168.587,132.997L168.299,133.86L168.011,134.436L168.011,135.013L167.723,135.517L167.435,136.38L167.147,136.957L167.147,137.533L166.859,138.108L166.571,138.685L166.355,139.261L166.355,139.549L166.067,140.124L165.779,140.701L165.491,140.916L165.203,141.493L164.915,141.781L164.627,142.356L164.339,142.933L163.763,143.221L163.475,143.796L162.899,144.084L162.611,144.661L162.035,145.236L161.747,145.524L161.171,145.812L160.667,146.028L160.379,146.316L159.803,146.604L159.515,146.893L158.939,146.893L158.651,147.181L158.363,147.181L158.075,147.469L154.98,147.469L154.691,147.181L154.403,147.181L153.827,146.893L153.539,146.893L152.963,146.604L152.675,146.316L152.099,146.028L151.811,145.812L151.235,145.524L150.659,145.236L150.444,144.661L149.867,144.084L149.579,143.796L149.004,143.221L148.715,142.933L148.427,142.356L148.139,141.781L147.851,141.493L147.563,140.916L147.275,140.701L146.987,140.124L146.699,139.549L146.411,139.261L146.411,138.685L146.123,138.108L145.835,137.533L145.547,136.957L145.547,136.38L145.259,135.517L145.043,135.013L144.755,134.436L144.755,133.86L144.468,132.997L144.468,132.42L144.179,131.845L143.891,131.269L143.891,129.9L143.603,129.325L143.603,128.748L143.315,128.172L143.315,126.732L143.028,126.157L143.028,123.637L142.739,123.061L142.739,119.677L142.451,119.101L142.451,110.532L142.739,109.668L142.739,105.997L143.028,104.844L143.028,103.765L143.315,102.612L143.315,101.459L143.603,100.021L143.891,98.868L144.179,97.501L144.468,96.061L144.755,94.621L145.043,93.469L145.547,92.101L145.835,90.661L146.411,89.221L146.987,88.069L147.563,86.7L148.427,85.549L149.004,84.397L149.579,83.245L150.444,82.453L150.947,81.589L151.811,80.724L152.675,80.149L153.251,79.573L154.115,79.285L154.98,78.997L155.843,78.709L157.211,78.709L158.075,78.997L158.939,79.285L159.515,79.573L160.379,80.149L161.171,80.724L161.747,81.589L162.611,82.453Z" style="fill:white;fill-rule:nonzero;"/>
        <path d="M162.611,82.453L163.187,83.245L164.051,84.397L164.627,85.549L165.203,86.7L165.779,88.069L166.355,89.221L166.859,90.661L167.435,92.101L167.723,93.469L168.299,94.621L168.587,96.061L168.875,97.501L169.163,98.868L169.451,100.021L169.451,101.459L170.027,103.765L170.027,105.997L170.315,106.86L170.315,111.973L170.603,112.549L170.603,117.373L170.315,117.949L170.315,121.621L170.027,122.484L170.027,125.004L169.739,125.581L169.739,127.597L169.451,128.172L169.451,129.325L169.163,129.9L169.163,130.405L168.875,131.269L168.875,131.845L168.587,132.42L168.587,132.997L168.299,133.86L168.011,134.436L168.011,135.013L167.723,135.517L167.435,136.38L167.147,136.957L167.147,137.533L166.859,138.108L166.571,138.685L166.355,139.261L166.355,139.549L166.067,140.124L165.779,140.701L165.491,140.916L165.203,141.493L164.915,141.781L164.627,142.356L164.339,142.933L163.763,143.221L163.475,143.796L162.899,144.084L162.611,144.661L162.035,145.236L161.747,145.524L161.171,145.812L160.667,146.028L160.379,146.316L159.803,146.604L159.515,146.893L158.939,146.893L158.651,147.181L158.363,147.181L158.075,147.469L154.98,147.469L154.691,147.181L154.403,147.181L153.827,146.893L153.539,146.893L152.963,146.604L152.675,146.316L152.099,146.028L151.811,145.812L151.235,145.524L150.659,145.236L150.444,144.661L149.867,144.084L149.579,143.796L149.004,143.221L148.715,142.933L148.427,142.356L148.139,141.781L147.851,141.493L147.563,140.916L147.275,140.701L146.987,140.124L146.699,139.549L146.411,139.261L146.411,138.685L146.123,138.108L145.835,137.533L145.547,136.957L145.547,136.38L145.259,135.517L145.043,135.013L144.755,134.436L144.755,133.86L144.468,132.997L144.468,132.42L144.179,131.845L143.891,131.269L143.891,129.9L143.603,129.325L143.603,128.748L143.315,128.172L143.315,126.732L143.028,126.157L143.028,123.637L142.739,123.061L142.739,119.677L142.451,119.101L142.451,110.532L142.739,109.668L142.739,105.997L143.028,104.844L143.028,103.765L143.315,102.612L143.315,101.459L143.603,100.021L143.891,98.868L144.179,97.501L144.468,96.061L144.755,94.621L145.043,93.469L145.547,92.101L145.835,90.661L146.411,89.221L146.987,88.069L147.563,86.7L148.427,85.549L149.004,84.397L149.579,83.245L150.444,82.453L150.947,81.589L151.811,80.724L152.675,80.149L153.251,79.573L154.115,79.285L154.98,78.997L155.843,78.709L157.211,78.709L158.075,78.997L158.939,79.285L159.515,79.573L160.379,80.149L161.171,80.724L161.747,81.589L162.611,82.453Z" style="fill:none;stroke:rgb(35,31,32);stroke-width:0.22px;"/>
    </g>
</svg>
