<?xml version="1.0" encoding="UTF-8" standalone="no"?>
<!DOCTYPE svg PUBLIC "-//W3C//DTD SVG 1.1//EN" "http://www.w3.org/Graphics/SVG/1.1/DTD/svg11.dtd">
<svg width="100%" height="100%" viewBox="0 0 227 227" version="1.1" xmlns="http://www.w3.org/2000/svg" xmlns:xlink="http://www.w3.org/1999/xlink" xml:space="preserve" xmlns:serif="http://www.serif.com/" style="fill-rule:evenodd;clip-rule:evenodd;stroke-miterlimit:2;">
    <g>
        <path d="M226.691,113.708C226.691,51.357 175.643,0.309 113.291,0.309C51.155,0.309 0.107,51.357 0.107,113.708C0.107,175.845 51.155,226.892 113.291,226.892C175.643,226.892 226.691,175.845 226.691,113.708Z" style="fill:rgb(211,63,39);fill-rule:nonzero;"/>
        <path d="M226.691,113.708C226.691,51.357 175.643,0.309 113.291,0.309C51.155,0.309 0.107,51.357 0.107,113.708C0.107,175.845 51.155,226.892 113.291,226.892C175.643,226.892 226.691,175.845 226.691,113.708Z" style="fill:none;stroke:rgb(211,63,39);stroke-width:0.22px;"/>
        <path d="M198.323,113.708C198.323,66.981 160.019,28.676 113.291,28.676C66.779,28.676 28.475,66.981 28.475,113.708C28.475,160.221 66.779,198.524 113.291,198.524C160.019,198.524 198.323,160.221 198.323,113.708Z" style="fill:white;fill-rule:nonzero;"/>
        <path d="M198.323,113.708C198.323,66.981 160.019,28.676 113.291,28.676C66.779,28.676 28.475,66.981 28.475,113.708C28.475,160.221 66.779,198.524 113.291,198.524C160.019,198.524 198.323,160.221 198.323,113.708Z" style="fill:none;stroke:rgb(241,93,42);stroke-width:0.22px;"/>
        <path d="M151.235,165.62C155.771,165.62 160.019,164.469 163.763,162.524C168.011,159.932 171.683,156.836 174.779,153.164C177.083,150.068 179.027,146.613 180.467,142.94C181.619,140.708 182.483,138.117 182.987,135.308C184.139,128.757 185.003,121.989 185.003,115.148C185.003,110.612 184.715,106.076 184.139,101.54C183.563,95.853 182.483,90.453 180.467,85.413C179.027,81.381 177.083,77.709 174.491,74.325C171.683,70.077 167.723,66.405 163.187,63.813C159.515,61.868 155.483,61.005 151.235,60.717C147.275,61.005 143.315,61.868 139.643,63.813C135.107,66.405 131.147,70.077 128.267,74.325C125.747,77.709 123.731,81.381 122.363,85.125C120.347,90.453 119.195,95.853 118.619,101.252C118.043,105.788 117.827,110.325 117.827,115.148C117.827,121.989 118.331,128.757 119.771,135.597C120.347,138.117 121.211,140.708 122.363,143.228C123.731,146.613 125.747,150.068 127.98,153.164C131.147,156.836 134.819,160.221 138.779,162.524C142.739,164.469 146.987,165.62 151.235,165.62Z" style="fill:rgb(35,31,32);fill-rule:nonzero;"/>
        <path d="M151.235,165.62C155.771,165.62 160.019,164.469 163.763,162.524C168.011,159.932 171.683,156.836 174.779,153.164C177.083,150.068 179.027,146.613 180.467,142.94C181.619,140.708 182.483,138.117 182.987,135.308C184.139,128.757 185.003,121.989 185.003,115.148C185.003,110.612 184.715,106.076 184.139,101.54C183.563,95.853 182.483,90.453 180.467,85.413C179.027,81.381 177.083,77.709 174.491,74.325C171.683,70.077 167.723,66.405 163.187,63.813C159.515,61.868 155.483,61.005 151.235,60.717C147.275,61.005 143.315,61.868 139.643,63.813C135.107,66.405 131.147,70.077 128.267,74.325C125.747,77.709 123.731,81.381 122.363,85.125C120.347,90.453 119.195,95.853 118.619,101.252C118.043,105.788 117.827,110.325 117.827,115.148C117.827,121.989 118.331,128.757 119.771,135.597C120.347,138.117 121.211,140.708 122.363,143.228C123.731,146.613 125.747,150.068 127.98,153.164C131.147,156.836 134.819,160.221 138.779,162.524C142.739,164.469 146.987,165.62 151.235,165.62Z" style="fill:none;stroke:rgb(35,31,32);stroke-width:0.22px;"/>
        <path d="M78.371,145.533C76.931,146.325 75.563,146.9 74.123,147.188C70.739,148.053 67.283,147.764 64.186,146.613C62.531,146.036 60.803,145.533 59.363,144.668L50.867,158.852C54.539,161.372 58.787,163.1 63.035,163.964C66.491,164.757 69.875,165.332 73.259,165.332L74.123,165.332C76.643,165.044 79.523,164.757 82.043,164.252C84.923,163.677 87.444,162.524 89.747,161.372C92.267,159.932 94.571,157.989 96.516,155.684C99.107,152.876 101.052,150.068 103.067,146.9C106.451,139.845 108.755,132.14 109.547,124.221C110.411,119.396 110.987,114.284 110.987,109.459C110.987,103.268 110.123,97.005 108.971,90.741C107.891,85.413 105.875,80.589 103.067,76.053C100.187,71.805 96.516,68.061 92.555,65.253C88.019,62.445 82.619,61.005 77.507,61.005C72.683,61.005 68.147,61.868 63.611,63.237C58.787,64.965 54.539,68.061 51.443,72.021C49.715,74.037 48.347,76.053 47.483,78.285C46.619,80.013 45.755,81.669 45.179,83.685C43.811,87.645 43.235,91.892 43.235,96.429C43.235,102.117 44.315,108.093 46.907,113.493C49.139,117.741 52.019,121.412 55.691,124.221C59.363,127.1 63.611,128.757 68.147,129.332C69.587,129.621 71.315,129.621 72.683,129.621L74.411,129.621C76.931,129.332 79.523,128.757 81.755,127.892C83.483,127.389 84.923,126.524 86.291,125.372C87.444,124.796 88.595,123.932 89.747,123.068C89.171,125.949 88.595,128.757 87.731,131.348C87.444,132.429 86.867,133.58 86.579,134.732C85.715,136.46 84.923,138.117 84.059,139.845C82.619,142.365 80.675,144.093 78.371,145.533Z" style="fill:rgb(35,31,32);fill-rule:nonzero;"/>
        <path d="M78.371,145.533C76.931,146.325 75.563,146.9 74.123,147.188C70.739,148.053 67.283,147.764 64.186,146.613C62.531,146.036 60.803,145.533 59.363,144.668L50.867,158.852C54.539,161.372 58.787,163.1 63.035,163.964C66.491,164.757 69.875,165.332 73.259,165.332L74.123,165.332C76.643,165.044 79.523,164.757 82.043,164.252C84.923,163.677 87.444,162.524 89.747,161.372C92.267,159.932 94.571,157.989 96.516,155.684C99.107,152.876 101.052,150.068 103.067,146.9C106.451,139.845 108.755,132.14 109.547,124.221C110.411,119.396 110.987,114.284 110.987,109.459C110.987,103.268 110.123,97.005 108.971,90.741C107.891,85.413 105.875,80.589 103.067,76.053C100.187,71.805 96.516,68.061 92.555,65.253C88.019,62.445 82.619,61.005 77.507,61.005C72.683,61.005 68.147,61.868 63.611,63.237C58.787,64.965 54.539,68.061 51.443,72.021C49.715,74.037 48.347,76.053 47.483,78.285C46.619,80.013 45.755,81.669 45.179,83.685C43.811,87.645 43.235,91.892 43.235,96.429C43.235,102.117 44.315,108.093 46.907,113.493C49.139,117.741 52.019,121.412 55.691,124.221C59.363,127.1 63.611,128.757 68.147,129.332C69.587,129.621 71.315,129.621 72.683,129.621L74.411,129.621C76.931,129.332 79.523,128.757 81.755,127.892C83.483,127.389 84.923,126.524 86.291,125.372C87.444,124.796 88.595,123.932 89.747,123.068C89.171,125.949 88.595,128.757 87.731,131.348C87.444,132.429 86.867,133.58 86.579,134.732C85.715,136.46 84.923,138.117 84.059,139.845C82.619,142.365 80.675,144.093 78.371,145.533Z" style="fill:none;stroke:rgb(35,31,32);stroke-width:0.22px;"/>
        <path d="M157.499,82.532L158.075,83.685L158.939,84.549L159.515,85.7L160.019,86.781L160.595,88.221L161.171,89.661L161.747,90.741L162.323,92.181L162.611,93.621L163.187,95.061L163.475,96.429L163.763,97.58L164.051,99.021L164.267,100.389L164.267,101.54L164.555,102.692L164.555,103.844L164.843,104.925L164.843,107.228L165.131,108.093L165.131,113.708L165.42,114.284L165.42,116.301L165.131,116.588L165.131,121.124L164.843,121.989L164.843,124.509L164.555,125.084L164.555,127.389L164.267,127.892L164.267,129.044L164.051,129.621L164.051,130.197L163.763,130.772L163.763,131.348L163.475,131.925L163.475,132.429L163.187,133.292L163.187,133.868L162.899,134.444L162.611,135.02L162.611,135.885L162.323,136.46L162.035,136.964L161.747,137.54L161.747,138.117L161.459,138.692L161.171,139.268L160.883,139.845L160.595,140.133L160.595,140.708L160.307,140.996L160.019,141.5L159.731,142.076L159.515,142.365L158.939,142.94L158.651,143.228L158.363,143.805L157.787,144.38L157.499,144.668L156.923,145.244L156.347,145.533L156.059,145.821L155.483,146.325L155.195,146.325L154.691,146.613L154.403,146.9L153.827,147.188L153.251,147.188L152.963,147.476L152.099,147.476L151.811,147.764L150.659,147.764L150.371,147.476L149.867,147.476L149.579,147.188L148.715,147.188L148.427,146.9L147.851,146.613L147.563,146.325L146.987,146.325L146.411,145.821L146.123,145.533L145.619,145.244L145.331,144.668L144.755,144.38L144.468,143.805L143.891,143.228L143.603,142.94L143.315,142.365L143.028,142.076L142.451,141.5L142.451,140.996L142.163,140.708L141.875,140.133L141.587,139.845L141.299,139.268L141.083,138.692L141.083,138.117L140.795,137.54L140.507,136.964L140.219,136.46L140.219,135.885L139.932,135.02L139.643,134.444L139.643,133.868L139.355,133.292L139.067,132.429L139.067,131.925L138.779,131.348L138.779,130.772L138.492,130.197L138.492,129.044L138.203,128.47L138.203,127.389L137.915,126.812L137.915,124.509L137.627,123.932L137.627,121.124L137.339,120.549L137.339,108.956L137.627,108.093L137.627,104.925L137.915,103.844L137.915,102.692L138.203,101.54L138.492,100.389L138.492,99.021L138.779,97.58L139.067,96.429L139.643,95.061L139.932,93.621L140.219,92.181L140.795,90.741L141.299,89.661L141.875,88.221L142.451,86.781L143.028,85.7L143.891,84.549L144.468,83.685L145.331,82.532L145.835,81.669L146.699,81.165L147.275,80.301L148.139,80.013L149.004,79.437L149.867,79.149L150.371,79.149L151.235,78.861L152.099,79.149L152.963,79.149L153.539,79.437L154.403,80.013L155.195,80.301L155.771,81.165L156.635,81.669L157.499,82.532Z" style="fill:white;fill-rule:nonzero;"/>
        <path d="M157.499,82.532L158.075,83.685L158.939,84.549L159.515,85.7L160.019,86.781L160.595,88.221L161.171,89.661L161.747,90.741L162.323,92.181L162.611,93.621L163.187,95.061L163.475,96.429L163.763,97.58L164.051,99.021L164.267,100.389L164.267,101.54L164.555,102.692L164.555,103.844L164.843,104.925L164.843,107.228L165.131,108.093L165.131,113.708L165.42,114.284L165.42,116.301L165.131,116.588L165.131,121.124L164.843,121.989L164.843,124.509L164.555,125.084L164.555,127.389L164.267,127.892L164.267,129.044L164.051,129.621L164.051,130.197L163.763,130.772L163.763,131.348L163.475,131.925L163.475,132.429L163.187,133.292L163.187,133.868L162.899,134.444L162.611,135.02L162.611,135.885L162.323,136.46L162.035,136.964L161.747,137.54L161.747,138.117L161.459,138.692L161.171,139.268L160.883,139.845L160.595,140.133L160.595,140.708L160.307,140.996L160.019,141.5L159.731,142.076L159.515,142.365L158.939,142.94L158.651,143.228L158.363,143.805L157.787,144.38L157.499,144.668L156.923,145.244L156.347,145.533L156.059,145.821L155.483,146.325L155.195,146.325L154.691,146.613L154.403,146.9L153.827,147.188L153.251,147.188L152.963,147.476L152.099,147.476L151.811,147.764L150.659,147.764L150.371,147.476L149.867,147.476L149.579,147.188L148.715,147.188L148.427,146.9L147.851,146.613L147.563,146.325L146.987,146.325L146.411,145.821L146.123,145.533L145.619,145.244L145.331,144.668L144.755,144.38L144.468,143.805L143.891,143.228L143.603,142.94L143.315,142.365L143.028,142.076L142.451,141.5L142.451,140.996L142.163,140.708L141.875,140.133L141.587,139.845L141.299,139.268L141.083,138.692L141.083,138.117L140.795,137.54L140.507,136.964L140.219,136.46L140.219,135.885L139.932,135.02L139.643,134.444L139.643,133.868L139.355,133.292L139.067,132.429L139.067,131.925L138.779,131.348L138.779,130.772L138.492,130.197L138.492,129.044L138.203,128.47L138.203,127.389L137.915,126.812L137.915,124.509L137.627,123.932L137.627,121.124L137.339,120.549L137.339,108.956L137.627,108.093L137.627,104.925L137.915,103.844L137.915,102.692L138.203,101.54L138.492,100.389L138.492,99.021L138.779,97.58L139.067,96.429L139.643,95.061L139.932,93.621L140.219,92.181L140.795,90.741L141.299,89.661L141.875,88.221L142.451,86.781L143.028,85.7L143.891,84.549L144.468,83.685L145.331,82.532L145.835,81.669L146.699,81.165L147.275,80.301L148.139,80.013L149.004,79.437L149.867,79.149L150.371,79.149L151.235,78.861L152.099,79.149L152.963,79.149L153.539,79.437L154.403,80.013L155.195,80.301L155.771,81.165L156.635,81.669L157.499,82.532Z" style="fill:none;stroke:rgb(35,31,32);stroke-width:0.22px;"/>
        <path d="M72.971,112.341C73.835,112.628 74.699,112.628 75.563,112.628C76.139,112.628 76.643,112.628 77.219,112.341C78.947,112.341 80.099,111.764 81.467,110.9C82.043,110.325 82.907,109.747 83.483,108.956C84.347,108.093 85.211,106.94 86.003,105.788C87.444,103.555 88.307,100.965 88.595,98.445L88.595,95.061C88.595,92.757 88.307,90.741 88.019,88.508C87.155,85.917 85.715,83.397 83.771,81.381C81.755,79.437 79.235,78.573 76.427,78.285L76.139,78.285C73.259,78.285 70.451,79.724 68.435,81.669C67.283,82.82 66.491,83.973 65.627,85.125C64.763,86.493 63.899,88.221 63.611,89.949C63.035,91.892 62.747,93.909 62.747,95.853C62.747,96.717 62.747,97.868 63.035,98.733C63.035,100.389 63.611,101.828 64.186,103.555C65.051,105.5 66.203,107.516 67.571,109.173C68.435,110.036 69.299,110.612 70.163,111.188C71.027,111.476 72.107,112.053 72.971,112.341Z" style="fill:white;fill-rule:nonzero;"/>
        <path d="M72.971,112.341C73.835,112.628 74.699,112.628 75.563,112.628C76.139,112.628 76.643,112.628 77.219,112.341C78.947,112.341 80.099,111.764 81.467,110.9C82.043,110.325 82.907,109.747 83.483,108.956C84.347,108.093 85.211,106.94 86.003,105.788C87.444,103.555 88.307,100.965 88.595,98.445L88.595,95.061C88.595,92.757 88.307,90.741 88.019,88.508C87.155,85.917 85.715,83.397 83.771,81.381C81.755,79.437 79.235,78.573 76.427,78.285L76.139,78.285C73.259,78.285 70.451,79.724 68.435,81.669C67.283,82.82 66.491,83.973 65.627,85.125C64.763,86.493 63.899,88.221 63.611,89.949C63.035,91.892 62.747,93.909 62.747,95.853C62.747,96.717 62.747,97.868 63.035,98.733C63.035,100.389 63.611,101.828 64.186,103.555C65.051,105.5 66.203,107.516 67.571,109.173C68.435,110.036 69.299,110.612 70.163,111.188C71.027,111.476 72.107,112.053 72.971,112.341Z" style="fill:none;stroke:rgb(35,31,32);stroke-width:0.22px;"/>
    </g>
</svg>
