<?xml version="1.0" encoding="UTF-8" standalone="no"?>
<!DOCTYPE svg PUBLIC "-//W3C//DTD SVG 1.1//EN" "http://www.w3.org/Graphics/SVG/1.1/DTD/svg11.dtd">
<svg width="100%" height="100%" viewBox="0 0 228 228" version="1.1" xmlns="http://www.w3.org/2000/svg" xmlns:xlink="http://www.w3.org/1999/xlink" xml:space="preserve" xmlns:serif="http://www.serif.com/" style="fill-rule:evenodd;clip-rule:evenodd;stroke-miterlimit:2;">
    <g>
        <path d="M227.123,114.493C227.123,51.997 176.003,0.877 113.507,0.877C51.227,0.877 0.107,51.997 0.107,114.493C0.107,176.772 51.227,227.893 113.507,227.893C176.003,227.893 227.123,176.772 227.123,114.493Z" style="fill:rgb(211,63,39);fill-rule:nonzero;"/>
        <path d="M227.123,114.493C227.123,51.997 176.003,0.877 113.507,0.877C51.227,0.877 0.107,51.997 0.107,114.493C0.107,176.772 51.227,227.893 113.507,227.893C176.003,227.893 227.123,176.772 227.123,114.493Z" style="fill:none;stroke:rgb(211,63,39);stroke-width:0.22px;"/>
        <path d="M198.683,114.493C198.683,67.621 160.379,29.317 113.507,29.317C66.851,29.317 28.547,67.621 28.547,114.493C28.547,161.148 66.851,199.453 113.507,199.453C160.379,199.453 198.683,161.148 198.683,114.493Z" style="fill:white;fill-rule:nonzero;"/>
        <path d="M198.683,114.493C198.683,67.621 160.379,29.317 113.507,29.317C66.851,29.317 28.547,67.621 28.547,114.493C28.547,161.148 66.851,199.453 113.507,199.453C160.379,199.453 198.683,161.148 198.683,114.493Z" style="fill:none;stroke:rgb(241,93,42);stroke-width:0.22px;"/>
        <path d="M74.843,80.724C78.227,78.709 81.971,78.133 85.643,78.709C88.451,79.573 91.043,80.437 93.275,81.589L101.267,67.333C95.004,63.373 87.588,61.429 79.955,61.429L75.419,61.429C69.443,61.645 63.467,64.237 58.643,68.197C51.803,74.461 46.979,82.741 44.963,91.813C44.171,96.637 43.307,101.459 42.731,105.997C42.443,109.668 42.155,113.124 42.155,116.796C42.155,121.332 42.443,125.869 43.019,130.405C43.883,136.957 45.827,143.509 48.995,149.197C53.531,157.405 60.875,163.093 69.731,165.396C72.251,165.973 74.555,166.261 77.075,166.261C80.531,166.261 84.203,165.685 87.299,164.533C95.579,162.228 102.42,156.613 106.379,148.909C109.187,142.356 110.627,135.301 110.627,128.46L110.627,127.885C109.763,121.332 107.531,115.068 104.076,109.38C101.843,105.708 98.963,102.9 95.291,100.597C91.331,98.365 86.795,96.925 82.187,96.925L80.819,96.925C77.075,96.925 73.403,97.789 70.019,99.157C67.427,100.309 65.195,101.748 63.467,103.765C64.043,99.157 65.195,94.909 66.563,90.661C68.003,86.413 70.883,82.741 74.843,80.724Z" style="fill:rgb(35,31,32);fill-rule:nonzero;"/>
        <path d="M74.843,80.724C78.227,78.709 81.971,78.133 85.643,78.709C88.451,79.573 91.043,80.437 93.275,81.589L101.267,67.333C95.004,63.373 87.588,61.429 79.955,61.429L75.419,61.429C69.443,61.645 63.467,64.237 58.643,68.197C51.803,74.461 46.979,82.741 44.963,91.813C44.171,96.637 43.307,101.459 42.731,105.997C42.443,109.668 42.155,113.124 42.155,116.796C42.155,121.332 42.443,125.869 43.019,130.405C43.883,136.957 45.827,143.509 48.995,149.197C53.531,157.405 60.875,163.093 69.731,165.396C72.251,165.973 74.555,166.261 77.075,166.261C80.531,166.261 84.203,165.685 87.299,164.533C95.579,162.228 102.42,156.613 106.379,148.909C109.187,142.356 110.627,135.301 110.627,128.46L110.627,127.885C109.763,121.332 107.531,115.068 104.076,109.38C101.843,105.708 98.963,102.9 95.291,100.597C91.331,98.365 86.795,96.925 82.187,96.925L80.819,96.925C77.075,96.925 73.403,97.789 70.019,99.157C67.427,100.309 65.195,101.748 63.467,103.765C64.043,99.157 65.195,94.909 66.563,90.661C68.003,86.413 70.883,82.741 74.843,80.724Z" style="fill:none;stroke:rgb(35,31,32);stroke-width:0.22px;"/>
        <path d="M151.235,166.549C155.843,166.549 160.091,165.396 163.763,163.093C168.011,160.86 171.683,157.405 174.851,153.732C177.083,150.637 178.811,147.181 180.539,143.796C181.691,141.205 182.483,138.685 182.771,136.093C184.211,129.325 185.075,122.484 185.075,115.644C185.075,111.108 184.787,106.573 183.923,102.037C183.635,96.637 182.267,90.949 180.539,85.837C179.099,81.877 176.867,78.133 174.563,74.748C171.468,70.501 167.723,67.045 163.187,64.237C159.515,62.509 155.555,61.429 151.235,61.141C147.275,61.429 143.315,62.509 139.643,64.237C135.035,66.829 131.075,70.501 127.98,74.748C125.675,78.133 123.731,81.877 122.004,85.837C120.275,90.949 119.123,96.349 118.619,102.037C118.043,106.285 117.755,111.108 117.755,115.644C117.755,122.484 118.331,129.325 119.699,136.093C119.987,138.685 120.851,141.205 122.291,143.796C123.731,147.181 125.675,150.637 127.98,153.732C130.787,157.692 134.531,160.86 138.779,163.093C142.739,165.396 146.987,166.549 151.235,166.549Z" style="fill:rgb(35,31,32);fill-rule:nonzero;"/>
        <path d="M151.235,166.549C155.843,166.549 160.091,165.396 163.763,163.093C168.011,160.86 171.683,157.405 174.851,153.732C177.083,150.637 178.811,147.181 180.539,143.796C181.691,141.205 182.483,138.685 182.771,136.093C184.211,129.325 185.075,122.484 185.075,115.644C185.075,111.108 184.787,106.573 183.923,102.037C183.635,96.637 182.267,90.949 180.539,85.837C179.099,81.877 176.867,78.133 174.563,74.748C171.468,70.501 167.723,67.045 163.187,64.237C159.515,62.509 155.555,61.429 151.235,61.141C147.275,61.429 143.315,62.509 139.643,64.237C135.035,66.829 131.075,70.501 127.98,74.748C125.675,78.133 123.731,81.877 122.004,85.837C120.275,90.949 119.123,96.349 118.619,102.037C118.043,106.285 117.755,111.108 117.755,115.644C117.755,122.484 118.331,129.325 119.699,136.093C119.987,138.685 120.851,141.205 122.291,143.796C123.731,147.181 125.675,150.637 127.98,153.732C130.787,157.692 134.531,160.86 138.779,163.093C142.739,165.396 146.987,166.549 151.235,166.549Z" style="fill:none;stroke:rgb(35,31,32);stroke-width:0.22px;"/>
        <path d="M66.851,141.781C68.867,145.812 72.827,148.332 77.075,148.332L77.651,148.332C80.531,148.332 83.339,147.181 85.067,145.236C88.163,142.068 89.891,138.396 90.468,134.148C90.468,132.997 90.755,132.133 90.755,130.98C90.755,127.02 89.315,122.772 87.083,119.389C85.067,116.509 82.187,114.781 79.091,114.276L77.939,114.276C74.843,114.276 71.675,115.644 69.443,117.949C66.851,120.757 65.195,124.5 64.907,128.46C64.907,129.613 64.619,130.405 64.619,131.557C64.619,135.013 65.483,138.396 66.851,141.781Z" style="fill:white;fill-rule:nonzero;"/>
        <path d="M66.851,141.781C68.867,145.812 72.827,148.332 77.075,148.332L77.651,148.332C80.531,148.332 83.339,147.181 85.067,145.236C88.163,142.068 89.891,138.396 90.468,134.148C90.468,132.997 90.755,132.133 90.755,130.98C90.755,127.02 89.315,122.772 87.083,119.389C85.067,116.509 82.187,114.781 79.091,114.276L77.939,114.276C74.843,114.276 71.675,115.644 69.443,117.949C66.851,120.757 65.195,124.5 64.907,128.46C64.907,129.613 64.619,130.405 64.619,131.557C64.619,135.013 65.483,138.396 66.851,141.781Z" style="fill:none;stroke:rgb(35,31,32);stroke-width:0.22px;"/>
        <path d="M157.211,82.957L158.075,84.109L158.651,84.973L159.515,86.125L160.091,87.565L160.667,88.645L161.171,90.085L161.747,91.237L162.323,92.676L162.611,94.045L162.899,95.484L163.475,96.925L163.763,98.365L164.051,99.445L164.051,100.885L164.339,102.037L164.627,103.477L164.627,104.556L164.915,105.708L164.915,108.588L165.203,109.38L165.203,121.044L164.915,121.621L164.915,124.5L164.627,125.004L164.627,127.309L164.339,127.885L164.339,129.038L164.051,129.613L164.051,130.693L163.763,131.269L163.763,131.845L163.475,132.42L163.475,133.285L163.187,133.86L163.187,134.436L162.899,135.013L162.611,135.805L162.323,136.38L162.323,136.957L162.035,137.533L161.747,138.108L161.459,138.685L161.459,139.261L161.171,139.836L160.956,140.413L160.667,140.701L160.379,141.205L160.379,141.781L160.091,142.068L159.803,142.644L159.227,142.933L158.939,143.509L158.651,144.084L158.075,144.373L157.787,144.949L157.211,145.236L156.923,145.812L156.347,146.028L156.059,146.604L155.555,146.893L154.98,147.181L154.691,147.181L154.115,147.469L153.827,147.757L153.539,147.757L152.963,148.044L152.387,148.044L152.099,148.332L150.444,148.332L150.155,148.044L149.291,148.044L149.004,147.757L148.715,147.757L148.139,147.469L147.851,147.181L147.275,147.181L146.987,146.893L146.411,146.604L146.123,146.028L145.547,145.812L145.043,145.236L144.755,144.949L144.179,144.373L143.891,144.084L143.603,143.509L143.028,142.933L142.739,142.644L142.451,142.068L142.163,141.781L141.875,141.205L141.875,140.701L141.587,140.413L141.299,139.836L141.011,139.261L140.723,138.685L140.723,138.108L140.435,137.533L140.147,136.957L139.932,136.38L139.932,135.805L139.643,135.013L139.355,134.436L139.355,133.86L139.067,133.285L139.067,132.42L138.779,131.845L138.779,131.269L138.492,130.693L138.492,130.189L138.203,129.613L138.203,128.46L137.915,127.885L137.915,125.581L137.627,125.004L137.627,122.484L137.339,121.621L137.339,108.588L137.627,107.724L137.627,105.708L137.915,104.556L137.915,103.477L138.203,102.037L138.203,100.885L138.492,99.445L138.779,98.365L139.067,96.925L139.355,95.484L139.932,94.045L140.147,92.676L140.723,91.237L141.299,90.085L141.875,88.645L142.451,87.565L143.028,86.125L143.603,84.973L144.468,84.109L145.043,82.957L145.835,82.165L146.699,81.589L147.275,81.013L148.139,80.437L149.004,79.861L149.579,79.573L152.675,79.573L153.539,79.861L155.267,81.013L155.843,81.589L156.635,82.165L157.211,82.957Z" style="fill:white;fill-rule:nonzero;"/>
        <path d="M157.211,82.957L158.075,84.109L158.651,84.973L159.515,86.125L160.091,87.565L160.667,88.645L161.171,90.085L161.747,91.237L162.323,92.676L162.611,94.045L162.899,95.484L163.475,96.925L163.763,98.365L164.051,99.445L164.051,100.885L164.339,102.037L164.627,103.477L164.627,104.556L164.915,105.708L164.915,108.588L165.203,109.38L165.203,121.044L164.915,121.621L164.915,124.5L164.627,125.004L164.627,127.309L164.339,127.885L164.339,129.038L164.051,129.613L164.051,130.693L163.763,131.269L163.763,131.845L163.475,132.42L163.475,133.285L163.187,133.86L163.187,134.436L162.899,135.013L162.611,135.805L162.323,136.38L162.323,136.957L162.035,137.533L161.747,138.108L161.459,138.685L161.459,139.261L161.171,139.836L160.956,140.413L160.667,140.701L160.379,141.205L160.379,141.781L160.091,142.068L159.803,142.644L159.227,142.933L158.939,143.509L158.651,144.084L158.075,144.373L157.787,144.949L157.211,145.236L156.923,145.812L156.347,146.028L156.059,146.604L155.555,146.893L154.98,147.181L154.691,147.181L154.115,147.469L153.827,147.757L153.539,147.757L152.963,148.044L152.387,148.044L152.099,148.332L150.444,148.332L150.155,148.044L149.291,148.044L149.004,147.757L148.715,147.757L148.139,147.469L147.851,147.181L147.275,147.181L146.987,146.893L146.411,146.604L146.123,146.028L145.547,145.812L145.043,145.236L144.755,144.949L144.179,144.373L143.891,144.084L143.603,143.509L143.028,142.933L142.739,142.644L142.451,142.068L142.163,141.781L141.875,141.205L141.875,140.701L141.587,140.413L141.299,139.836L141.011,139.261L140.723,138.685L140.723,138.108L140.435,137.533L140.147,136.957L139.932,136.38L139.932,135.805L139.643,135.013L139.355,134.436L139.355,133.86L139.067,133.285L139.067,132.42L138.779,131.845L138.779,131.269L138.492,130.693L138.492,130.189L138.203,129.613L138.203,128.46L137.915,127.885L137.915,125.581L137.627,125.004L137.627,122.484L137.339,121.621L137.339,108.588L137.627,107.724L137.627,105.708L137.915,104.556L137.915,103.477L138.203,102.037L138.203,100.885L138.492,99.445L138.779,98.365L139.067,96.925L139.355,95.484L139.932,94.045L140.147,92.676L140.723,91.237L141.299,90.085L141.875,88.645L142.451,87.565L143.028,86.125L143.603,84.973L144.468,84.109L145.043,82.957L145.835,82.165L146.699,81.589L147.275,81.013L148.139,80.437L149.004,79.861L149.579,79.573L152.675,79.573L153.539,79.861L155.267,81.013L155.843,81.589L156.635,82.165L157.211,82.957Z" style="fill:none;stroke:rgb(35,31,32);stroke-width:0.22px;"/>
    </g>
</svg>
