<?xml version="1.0" encoding="UTF-8" standalone="no"?>
<!DOCTYPE svg PUBLIC "-//W3C//DTD SVG 1.1//EN" "http://www.w3.org/Graphics/SVG/1.1/DTD/svg11.dtd">
<svg width="100%" height="100%" viewBox="0 0 228 228" version="1.1" xmlns="http://www.w3.org/2000/svg" xmlns:xlink="http://www.w3.org/1999/xlink" xml:space="preserve" xmlns:serif="http://www.serif.com/" style="fill-rule:evenodd;clip-rule:evenodd;stroke-miterlimit:2;">
    <g>
        <path d="M227.123,114.493C227.123,51.997 176.003,0.877 113.507,0.877C51.227,0.877 0.107,51.997 0.107,114.493C0.107,176.772 51.227,227.893 113.507,227.893C176.003,227.893 227.123,176.772 227.123,114.493Z" style="fill:rgb(211,63,39);fill-rule:nonzero;"/>
        <path d="M227.123,114.493C227.123,51.997 176.003,0.877 113.507,0.877C51.227,0.877 0.107,51.997 0.107,114.493C0.107,176.772 51.227,227.893 113.507,227.893C176.003,227.893 227.123,176.772 227.123,114.493Z" style="fill:none;stroke:rgb(211,63,39);stroke-width:0.22px;"/>
        <path d="M198.683,114.493C198.683,67.621 160.379,29.317 113.507,29.317C66.851,29.317 28.547,67.621 28.547,114.493C28.547,161.148 66.851,199.453 113.507,199.453C160.379,199.453 198.683,161.148 198.683,114.493Z" style="fill:white;fill-rule:nonzero;"/>
        <path d="M198.683,114.493C198.683,67.621 160.379,29.317 113.507,29.317C66.851,29.317 28.547,67.621 28.547,114.493C28.547,161.148 66.851,199.453 113.507,199.453C160.379,199.453 198.683,161.148 198.683,114.493Z" style="fill:none;stroke:rgb(241,93,42);stroke-width:0.22px;"/>
        <path d="M92.195,83.532L55.763,82.957L56.339,63.085L114.588,63.661L114.588,82.165L78.227,163.093L55.763,163.38L92.195,83.532Z" style="fill:rgb(35,31,32);fill-rule:nonzero;"/>
        <path d="M92.195,83.532L55.763,82.957L56.339,63.085L114.588,63.661L114.588,82.165L78.227,163.093L55.763,163.38L92.195,83.532Z" style="fill:none;stroke:rgb(35,31,32);stroke-width:0.22px;"/>
        <path d="M151.523,166.836C155.843,166.836 160.091,165.685 164.051,163.668C168.299,161.148 171.971,157.98 174.851,154.309C177.083,151.212 179.099,147.757 180.539,144.084C181.979,141.781 182.483,138.973 183.059,136.38C184.499,129.613 185.075,122.772 185.075,115.933C185.075,111.396 184.787,106.86 184.211,102.612C183.635,96.925 182.483,91.525 180.827,86.413C179.099,82.453 177.083,78.709 174.851,75.325C171.683,71.077 167.723,67.333 163.187,64.813C159.515,62.796 155.555,61.645 151.523,61.645C147.275,61.645 143.315,62.796 139.643,64.813C135.035,67.333 131.363,71.077 128.267,75.325C125.963,78.421 123.731,82.165 122.291,86.125C120.564,91.525 119.123,96.925 118.619,102.325C118.043,106.86 117.755,111.396 117.755,115.933C117.755,123.061 118.619,129.9 119.987,136.668C120.275,139.261 121.139,141.781 122.291,144.084C124.019,147.757 125.675,151.212 127.98,154.309C131.075,157.98 134.747,161.148 139.067,163.668C142.739,165.685 146.987,166.836 151.523,166.836Z" style="fill:rgb(35,31,32);fill-rule:nonzero;"/>
        <path d="M151.523,166.836C155.843,166.836 160.091,165.685 164.051,163.668C168.299,161.148 171.971,157.98 174.851,154.309C177.083,151.212 179.099,147.757 180.539,144.084C181.979,141.781 182.483,138.973 183.059,136.38C184.499,129.613 185.075,122.772 185.075,115.933C185.075,111.396 184.787,106.86 184.211,102.612C183.635,96.925 182.483,91.525 180.827,86.413C179.099,82.453 177.083,78.709 174.851,75.325C171.683,71.077 167.723,67.333 163.187,64.813C159.515,62.796 155.555,61.645 151.523,61.645C147.275,61.645 143.315,62.796 139.643,64.813C135.035,67.333 131.363,71.077 128.267,75.325C125.963,78.421 123.731,82.165 122.291,86.125C120.564,91.525 119.123,96.925 118.619,102.325C118.043,106.86 117.755,111.396 117.755,115.933C117.755,123.061 118.619,129.9 119.987,136.668C120.275,139.261 121.139,141.781 122.291,144.084C124.019,147.757 125.675,151.212 127.98,154.309C131.075,157.98 134.747,161.148 139.067,163.668C142.739,165.685 146.987,166.836 151.523,166.836Z" style="fill:none;stroke:rgb(35,31,32);stroke-width:0.22px;"/>
        <path d="M157.499,83.532L158.363,84.397L158.939,85.549L159.515,86.7L160.379,87.853L160.956,89.221L161.459,90.373L162.035,91.813L162.323,93.253L162.899,94.621L163.187,95.772L163.475,97.213L163.763,98.58L164.051,100.021L164.339,101.172L164.627,102.612L164.627,103.765L164.915,104.844L164.915,105.997L165.203,107.148L165.203,110.819L165.491,111.685L165.491,119.677L165.203,120.181L165.203,124.212L164.915,124.789L164.915,127.309L164.627,127.885L164.627,128.748L164.339,129.325L164.339,130.405L164.051,130.98L164.051,131.557L163.763,132.42L163.763,132.997L163.475,133.573L163.475,134.148L163.187,135.013L162.899,135.517L162.899,136.093L162.611,136.668L162.323,137.533L162.323,138.108L162.035,138.685L161.747,139.261L161.459,139.836L161.459,140.413L161.171,140.701L160.956,141.205L160.667,141.781L160.379,142.068L160.091,142.644L159.803,142.933L159.515,143.509L159.227,144.084L158.651,144.373L158.363,144.949L158.075,145.236L157.499,145.812L156.923,146.028L156.635,146.604L156.059,146.893L155.843,147.181L155.267,147.469L154.98,147.757L154.403,148.044L154.115,148.044L153.539,148.332L153.251,148.332L152.963,148.621L149.867,148.621L149.579,148.332L149.291,148.332L148.715,148.044L148.427,148.044L148.139,147.757L146.987,147.181L146.699,146.893L146.123,146.604L145.835,146.028L145.259,145.812L145.043,145.236L144.468,144.949L144.179,144.373L143.603,144.084L143.315,143.509L143.028,142.933L142.739,142.644L142.451,142.068L142.163,141.781L141.875,141.205L141.587,140.701L141.587,140.413L141.299,139.836L141.011,139.261L140.723,138.685L140.723,138.108L140.435,137.533L140.147,136.668L139.932,136.093L139.932,135.517L139.643,135.013L139.355,134.148L139.355,133.573L139.067,132.997L139.067,132.42L138.779,131.557L138.779,130.98L138.492,130.405L138.492,129.325L138.203,128.748L138.203,127.309L137.915,126.732L137.915,124.212L137.627,123.637L137.627,119.677L137.339,119.101L137.339,112.261L137.627,111.685L137.627,108.013L137.915,107.148L137.915,104.844L138.203,103.765L138.203,102.612L138.492,101.172L138.779,100.021L139.067,98.58L139.355,97.213L139.643,95.772L139.932,94.621L140.435,93.253L141.011,91.813L141.299,90.373L141.875,89.221L142.739,87.853L143.315,86.7L143.891,85.549L144.755,84.397L145.259,83.532L146.123,82.741L146.699,81.877L147.563,81.301L148.427,80.724L149.004,80.437L149.867,80.149L150.659,79.861L152.099,79.861L152.963,80.149L153.827,80.437L154.691,80.724L155.267,81.301L156.059,81.877L156.923,82.741L157.499,83.532Z" style="fill:white;fill-rule:nonzero;"/>
        <path d="M157.499,83.532L158.363,84.397L158.939,85.549L159.515,86.7L160.379,87.853L160.956,89.221L161.459,90.373L162.035,91.813L162.323,93.253L162.899,94.621L163.187,95.772L163.475,97.213L163.763,98.58L164.051,100.021L164.339,101.172L164.627,102.612L164.627,103.765L164.915,104.844L164.915,105.997L165.203,107.148L165.203,110.819L165.491,111.685L165.491,119.677L165.203,120.181L165.203,124.212L164.915,124.789L164.915,127.309L164.627,127.885L164.627,128.748L164.339,129.325L164.339,130.405L164.051,130.98L164.051,131.557L163.763,132.42L163.763,132.997L163.475,133.573L163.475,134.148L163.187,135.013L162.899,135.517L162.899,136.093L162.611,136.668L162.323,137.533L162.323,138.108L162.035,138.685L161.747,139.261L161.459,139.836L161.459,140.413L161.171,140.701L160.956,141.205L160.667,141.781L160.379,142.068L160.091,142.644L159.803,142.933L159.515,143.509L159.227,144.084L158.651,144.373L158.363,144.949L158.075,145.236L157.499,145.812L156.923,146.028L156.635,146.604L156.059,146.893L155.843,147.181L155.267,147.469L154.98,147.757L154.403,148.044L154.115,148.044L153.539,148.332L153.251,148.332L152.963,148.621L149.867,148.621L149.579,148.332L149.291,148.332L148.715,148.044L148.427,148.044L148.139,147.757L146.987,147.181L146.699,146.893L146.123,146.604L145.835,146.028L145.259,145.812L145.043,145.236L144.468,144.949L144.179,144.373L143.603,144.084L143.315,143.509L143.028,142.933L142.739,142.644L142.451,142.068L142.163,141.781L141.875,141.205L141.587,140.701L141.587,140.413L141.299,139.836L141.011,139.261L140.723,138.685L140.723,138.108L140.435,137.533L140.147,136.668L139.932,136.093L139.932,135.517L139.643,135.013L139.355,134.148L139.355,133.573L139.067,132.997L139.067,132.42L138.779,131.557L138.779,130.98L138.492,130.405L138.492,129.325L138.203,128.748L138.203,127.309L137.915,126.732L137.915,124.212L137.627,123.637L137.627,119.677L137.339,119.101L137.339,112.261L137.627,111.685L137.627,108.013L137.915,107.148L137.915,104.844L138.203,103.765L138.203,102.612L138.492,101.172L138.779,100.021L139.067,98.58L139.355,97.213L139.643,95.772L139.932,94.621L140.435,93.253L141.011,91.813L141.299,90.373L141.875,89.221L142.739,87.853L143.315,86.7L143.891,85.549L144.755,84.397L145.259,83.532L146.123,82.741L146.699,81.877L147.563,81.301L148.427,80.724L149.004,80.437L149.867,80.149L150.659,79.861L152.099,79.861L152.963,80.149L153.827,80.437L154.691,80.724L155.267,81.301L156.059,81.877L156.923,82.741L157.499,83.532Z" style="fill:none;stroke:rgb(35,31,32);stroke-width:0.22px;"/>
    </g>
</svg>
