<?xml version="1.0" encoding="UTF-8" standalone="no"?>
<!DOCTYPE svg PUBLIC "-//W3C//DTD SVG 1.1//EN" "http://www.w3.org/Graphics/SVG/1.1/DTD/svg11.dtd">
<svg width="100%" height="100%" viewBox="0 0 227 227" version="1.1" xmlns="http://www.w3.org/2000/svg" xmlns:xlink="http://www.w3.org/1999/xlink" xml:space="preserve" xmlns:serif="http://www.serif.com/" style="fill-rule:evenodd;clip-rule:evenodd;stroke-linejoin:round;stroke-miterlimit:2;">
    <g>
        <path d="M226.771,113.615C226.771,50.994 176.007,0.229 113.386,0.229C50.764,0.229 0,50.994 0,113.615C0,176.236 50.764,227 113.386,227C176.007,227 226.771,176.236 226.771,113.615Z" style="fill:rgb(211,63,39);fill-rule:nonzero;"/>
        <path d="M198.426,113.615C198.426,66.649 160.352,28.576 113.386,28.576C66.419,28.576 28.346,66.649 28.346,113.615C28.346,160.581 66.419,198.655 113.386,198.655C160.352,198.655 198.426,160.581 198.426,113.615Z" style="fill:white;fill-rule:nonzero;"/>
        <path d="M43.04,83.207L43.04,96.992L51.729,91.976L51.729,153.846L65.775,153.846L65.775,73.343L52.666,73.343L43.04,83.207Z" style="fill-rule:nonzero;"/>
        <path d="M111.89,151.869C118.431,147.068 123.039,140.087 124.885,132.187C127.738,119.97 127.738,107.26 124.885,95.043C123.039,87.143 118.431,80.163 111.89,75.361C104.703,70.085 94.921,70.085 87.734,75.361C81.194,80.163 76.586,87.143 74.74,95.043C71.886,107.26 71.886,119.97 74.74,132.187C76.586,140.087 81.194,147.068 87.734,151.869C94.921,157.145 104.703,157.145 111.89,151.869Z" style="fill-rule:nonzero;"/>
        <path d="M172.211,151.869C178.752,147.068 183.36,140.087 185.206,132.187C188.06,119.97 188.06,107.26 185.206,95.043C183.36,87.143 178.752,80.163 172.211,75.361C165.024,70.085 155.243,70.085 148.056,75.361C141.516,80.163 136.907,87.143 135.062,95.043C132.208,107.26 132.208,119.97 135.062,132.187C136.907,140.087 141.516,147.068 148.056,151.869C155.243,157.145 165.024,157.145 172.211,151.869Z" style="fill-rule:nonzero;"/>
        <path d="M107.943,93.327C107.332,91.441 106.396,89.678 105.178,88.116C102.867,85.153 98.592,84.623 95.629,86.934C95.188,87.278 94.791,87.675 94.447,88.116C93.229,89.678 92.293,91.441 91.681,93.327C87.404,106.514 87.404,120.716 91.681,133.904C92.293,135.789 93.229,137.552 94.447,139.115C96.757,142.078 101.033,142.607 103.996,140.296C104.437,139.953 104.834,139.555 105.178,139.115C106.396,137.552 107.332,135.789 107.943,133.904C112.221,120.716 112.221,106.514 107.943,93.327Z" style="fill:white;fill-rule:nonzero;"/>
        <path d="M168.265,93.327C167.653,91.441 166.717,89.678 165.499,88.116C163.188,85.153 158.913,84.623 155.95,86.934C155.51,87.278 155.112,87.675 154.769,88.116C153.551,89.678 152.614,91.441 152.003,93.327C147.726,106.514 147.726,120.716 152.003,133.904C152.614,135.789 153.551,137.552 154.769,139.115C157.079,142.078 161.354,142.607 164.317,140.296C164.758,139.953 165.155,139.555 165.499,139.115C166.717,137.552 167.653,135.789 168.265,133.904C172.542,120.716 172.542,106.514 168.265,93.327Z" style="fill:white;fill-rule:nonzero;"/>
    </g>
</svg>
