<?xml version="1.0" encoding="UTF-8" standalone="no"?>
<!DOCTYPE svg PUBLIC "-//W3C//DTD SVG 1.1//EN" "http://www.w3.org/Graphics/SVG/1.1/DTD/svg11.dtd">
<svg width="100%" height="100%" viewBox="0 0 228 228" version="1.1" xmlns="http://www.w3.org/2000/svg" xmlns:xlink="http://www.w3.org/1999/xlink" xml:space="preserve" xmlns:serif="http://www.serif.com/" style="fill-rule:evenodd;clip-rule:evenodd;stroke-miterlimit:2;">
    <g>
        <path d="M227.123,114.493C227.123,51.997 176.003,0.877 113.507,0.877C51.227,0.877 0.107,51.997 0.107,114.493C0.107,176.772 51.227,227.893 113.507,227.893C176.003,227.893 227.123,176.772 227.123,114.493Z" style="fill:rgb(211,63,39);fill-rule:nonzero;"/>
        <path d="M227.123,114.493C227.123,51.997 176.003,0.877 113.507,0.877C51.227,0.877 0.107,51.997 0.107,114.493C0.107,176.772 51.227,227.893 113.507,227.893C176.003,227.893 227.123,176.772 227.123,114.493Z" style="fill:none;stroke:rgb(211,63,39);stroke-width:0.22px;"/>
        <path d="M198.683,114.493C198.683,67.621 160.379,29.317 113.507,29.317C66.851,29.317 28.547,67.621 28.547,114.493C28.547,161.148 66.851,199.453 113.507,199.453C160.379,199.453 198.683,161.148 198.683,114.493Z" style="fill:white;fill-rule:nonzero;"/>
        <path d="M198.683,114.493C198.683,67.621 160.379,29.317 113.507,29.317C66.851,29.317 28.547,67.621 28.547,114.493C28.547,161.148 66.851,199.453 113.507,199.453C160.379,199.453 198.683,161.148 198.683,114.493Z" style="fill:none;stroke:rgb(241,93,42);stroke-width:0.22px;"/>
        <path d="M68.579,164.245C71.675,165.108 75.131,165.396 78.227,165.396C81.683,165.396 84.779,165.108 87.875,164.245C96.444,161.94 103.499,156.613 108.107,149.197C110.339,144.661 111.779,139.549 111.779,134.725C111.779,132.42 111.492,130.189 110.915,127.885C109.187,119.677 103.499,112.836 95.867,109.38C97.307,108.588 98.387,107.724 99.827,106.86C102.42,104.844 104.939,102.612 106.667,99.733C108.899,96.637 110.052,92.965 110.339,89.221L110.339,88.645C110.339,85.261 109.763,81.877 108.611,78.709C107.243,74.461 104.363,70.789 100.691,68.197C96.731,65.101 91.908,62.796 86.795,61.429C83.915,60.853 80.819,60.565 77.939,60.565C76.283,60.565 74.843,60.565 73.115,60.853C68.579,61.429 64.043,62.796 60.083,65.389C56.339,67.621 52.955,70.789 50.363,74.173C47.843,78.133 46.691,82.741 46.691,87.277C46.691,89.796 46.979,92.101 47.555,94.333C50.147,100.885 54.971,106.285 60.875,109.38C57.491,110.819 54.107,113.124 51.227,115.933C47.267,119.893 44.747,125.004 43.883,130.693C43.595,132.42 43.307,133.86 43.307,135.517C43.307,143.221 46.691,150.925 52.667,156.037C57.203,159.997 62.603,162.805 68.579,164.245Z" style="fill:rgb(35,31,32);fill-rule:nonzero;"/>
        <path d="M68.579,164.245C71.675,165.108 75.131,165.396 78.227,165.396C81.683,165.396 84.779,165.108 87.875,164.245C96.444,161.94 103.499,156.613 108.107,149.197C110.339,144.661 111.779,139.549 111.779,134.725C111.779,132.42 111.492,130.189 110.915,127.885C109.187,119.677 103.499,112.836 95.867,109.38C97.307,108.588 98.387,107.724 99.827,106.86C102.42,104.844 104.939,102.612 106.667,99.733C108.899,96.637 110.052,92.965 110.339,89.221L110.339,88.645C110.339,85.261 109.763,81.877 108.611,78.709C107.243,74.461 104.363,70.789 100.691,68.197C96.731,65.101 91.908,62.796 86.795,61.429C83.915,60.853 80.819,60.565 77.939,60.565C76.283,60.565 74.843,60.565 73.115,60.853C68.579,61.429 64.043,62.796 60.083,65.389C56.339,67.621 52.955,70.789 50.363,74.173C47.843,78.133 46.691,82.741 46.691,87.277C46.691,89.796 46.979,92.101 47.555,94.333C50.147,100.885 54.971,106.285 60.875,109.38C57.491,110.819 54.107,113.124 51.227,115.933C47.267,119.893 44.747,125.004 43.883,130.693C43.595,132.42 43.307,133.86 43.307,135.517C43.307,143.221 46.691,150.925 52.667,156.037C57.203,159.997 62.603,162.805 68.579,164.245Z" style="fill:none;stroke:rgb(35,31,32);stroke-width:0.22px;"/>
        <path d="M151.523,59.989C155.843,60.277 160.091,61.429 163.763,63.373C168.299,65.965 171.971,69.637 175.139,73.885C177.371,77.341 179.387,81.013 181.115,84.973C182.771,90.085 183.923,95.484 184.499,101.172C185.075,105.42 185.363,109.957 185.363,114.276C185.363,121.332 184.787,128.172 183.347,135.013C182.771,137.821 181.979,140.413 180.827,142.644C179.387,146.316 177.371,149.772 175.139,152.869C171.971,156.613 168.299,159.708 164.051,161.94C160.091,164.245 155.843,165.396 151.235,165.396C146.699,165.396 142.451,164.245 138.779,162.228C134.531,159.708 130.787,156.613 127.691,152.869C125.387,149.772 123.444,146.316 122.004,142.933C120.851,140.413 119.987,137.821 119.411,135.013C117.179,123.925 116.603,112.261 118.331,100.885C118.908,95.484 119.987,90.085 121.715,84.685C123.155,81.013 125.099,77.341 127.691,73.885C130.787,69.349 134.531,65.965 139.067,63.373C143.028,61.429 146.987,60.277 151.523,59.989Z" style="fill:rgb(35,31,32);fill-rule:nonzero;"/>
        <path d="M151.523,59.989C155.843,60.277 160.091,61.429 163.763,63.373C168.299,65.965 171.971,69.637 175.139,73.885C177.371,77.341 179.387,81.013 181.115,84.973C182.771,90.085 183.923,95.484 184.499,101.172C185.075,105.42 185.363,109.957 185.363,114.276C185.363,121.332 184.787,128.172 183.347,135.013C182.771,137.821 181.979,140.413 180.827,142.644C179.387,146.316 177.371,149.772 175.139,152.869C171.971,156.613 168.299,159.708 164.051,161.94C160.091,164.245 155.843,165.396 151.235,165.396C146.699,165.396 142.451,164.245 138.779,162.228C134.531,159.708 130.787,156.613 127.691,152.869C125.387,149.772 123.444,146.316 122.004,142.933C120.851,140.413 119.987,137.821 119.411,135.013C117.179,123.925 116.603,112.261 118.331,100.885C118.908,95.484 119.987,90.085 121.715,84.685C123.155,81.013 125.099,77.341 127.691,73.885C130.787,69.349 134.531,65.965 139.067,63.373C143.028,61.429 146.987,60.277 151.523,59.989Z" style="fill:none;stroke:rgb(35,31,32);stroke-width:0.22px;"/>
        <path d="M91.619,133.285C91.619,125.581 85.355,119.389 77.651,119.389C70.019,119.389 63.755,125.581 63.755,133.285C63.755,140.916 70.019,147.181 77.651,147.181C85.355,147.181 91.619,140.916 91.619,133.285Z" style="fill:white;fill-rule:nonzero;"/>
        <path d="M91.619,133.285C91.619,125.581 85.355,119.389 77.651,119.389C70.019,119.389 63.755,125.581 63.755,133.285C63.755,140.916 70.019,147.181 77.651,147.181C85.355,147.181 91.619,140.916 91.619,133.285Z" style="fill:none;stroke:rgb(35,31,32);stroke-width:0.22px;"/>
        <path d="M91.619,89.796C91.619,82.957 85.931,77.341 79.091,77.341C72.251,77.341 66.563,82.957 66.563,89.796C66.563,96.637 72.251,102.325 79.091,102.325C85.931,102.325 91.619,96.637 91.619,89.796Z" style="fill:white;fill-rule:nonzero;"/>
        <path d="M91.619,89.796C91.619,82.957 85.931,77.341 79.091,77.341C72.251,77.341 66.563,82.957 66.563,89.796C66.563,96.637 72.251,102.325 79.091,102.325C85.931,102.325 91.619,96.637 91.619,89.796Z" style="fill:none;stroke:rgb(35,31,32);stroke-width:0.22px;"/>
        <path d="M149.867,147.181L152.963,147.181L153.251,146.893L153.827,146.893L154.115,146.604L154.691,146.604L154.98,146.316L155.555,146.028L156.059,145.812L156.347,145.524L156.923,145.236L157.211,144.661L157.787,144.373L158.075,143.796L158.651,143.509L158.939,142.933L159.515,142.356L159.803,142.068L160.091,141.493L160.379,141.205L160.667,140.701L160.956,140.124L161.171,139.836L161.459,139.261L161.459,138.685L161.747,138.396L162.035,137.821L162.323,137.245L162.611,136.668L162.611,136.093L162.899,135.301L163.187,134.725L163.475,134.148L163.475,133.573L163.763,132.708L163.763,132.133L164.051,131.557L164.051,130.98L164.339,130.189L164.339,129.613L164.627,129.038L164.627,128.46L164.915,127.885L164.915,126.444L165.203,125.869L165.203,123.349L165.491,122.772L165.491,119.893L165.779,119.389L165.779,108.588L165.491,107.724L165.491,104.556L165.203,103.477L165.203,102.325L164.915,101.172L164.627,99.733L164.627,98.58L164.339,97.213L164.051,95.772L163.763,94.333L163.187,93.253L162.899,91.813L161.747,88.933L161.171,87.853L160.667,86.413L160.091,85.261L159.515,84.109L158.651,82.957L158.075,82.165L157.211,81.301L156.635,80.437L155.843,79.861L154.98,79.285L154.403,78.997L152.675,78.421L150.155,78.421L148.427,78.997L147.563,79.285L146.987,79.861L146.123,80.437L145.547,81.301L144.755,82.165L144.179,82.957L143.315,84.109L142.739,85.261L142.163,86.413L141.299,87.853L141.011,88.933L140.435,90.373L139.932,91.813L139.643,93.253L139.067,94.333L138.779,95.772L138.492,97.213L138.203,98.58L137.915,99.733L137.915,101.172L137.627,102.325L137.627,103.477L137.339,104.556L137.339,106.573L137.051,107.724L137.051,119.893L137.339,120.757L137.339,124.212L137.627,124.789L137.627,126.444L137.915,126.732L137.915,127.885L138.203,128.46L138.203,129.613L138.492,130.189L138.492,130.98L138.779,131.557L138.779,132.133L139.067,132.708L139.355,133.573L139.355,134.148L139.643,134.725L139.932,135.301L139.932,136.093L140.147,136.668L140.435,137.245L140.723,137.821L140.723,138.396L141.011,138.685L141.299,139.261L141.587,139.836L141.875,140.124L142.163,140.701L142.451,141.205L142.739,141.493L143.028,142.068L143.315,142.356L143.603,142.933L144.179,143.509L144.468,143.796L145.043,144.373L145.259,144.661L145.835,145.236L146.411,145.524L146.699,145.812L147.275,146.028L147.563,146.316L148.139,146.604L148.427,146.604L149.004,146.893L149.579,146.893L149.867,147.181Z" style="fill:white;fill-rule:nonzero;"/>
        <path d="M149.867,147.181L152.963,147.181L153.251,146.893L153.827,146.893L154.115,146.604L154.691,146.604L154.98,146.316L155.555,146.028L156.059,145.812L156.347,145.524L156.923,145.236L157.211,144.661L157.787,144.373L158.075,143.796L158.651,143.509L158.939,142.933L159.515,142.356L159.803,142.068L160.091,141.493L160.379,141.205L160.667,140.701L160.956,140.124L161.171,139.836L161.459,139.261L161.459,138.685L161.747,138.396L162.035,137.821L162.323,137.245L162.611,136.668L162.611,136.093L162.899,135.301L163.187,134.725L163.475,134.148L163.475,133.573L163.763,132.708L163.763,132.133L164.051,131.557L164.051,130.98L164.339,130.189L164.339,129.613L164.627,129.038L164.627,128.46L164.915,127.885L164.915,126.444L165.203,125.869L165.203,123.349L165.491,122.772L165.491,119.893L165.779,119.389L165.779,108.588L165.491,107.724L165.491,104.556L165.203,103.477L165.203,102.325L164.915,101.172L164.627,99.733L164.627,98.58L164.339,97.213L164.051,95.772L163.763,94.333L163.187,93.253L162.899,91.813L161.747,88.933L161.171,87.853L160.667,86.413L160.091,85.261L159.515,84.109L158.651,82.957L158.075,82.165L157.211,81.301L156.635,80.437L155.843,79.861L154.98,79.285L154.403,78.997L152.675,78.421L150.155,78.421L148.427,78.997L147.563,79.285L146.987,79.861L146.123,80.437L145.547,81.301L144.755,82.165L144.179,82.957L143.315,84.109L142.739,85.261L142.163,86.413L141.299,87.853L141.011,88.933L140.435,90.373L139.932,91.813L139.643,93.253L139.067,94.333L138.779,95.772L138.492,97.213L138.203,98.58L137.915,99.733L137.915,101.172L137.627,102.325L137.627,103.477L137.339,104.556L137.339,106.573L137.051,107.724L137.051,119.893L137.339,120.757L137.339,124.212L137.627,124.789L137.627,126.444L137.915,126.732L137.915,127.885L138.203,128.46L138.203,129.613L138.492,130.189L138.492,130.98L138.779,131.557L138.779,132.133L139.067,132.708L139.355,133.573L139.355,134.148L139.643,134.725L139.932,135.301L139.932,136.093L140.147,136.668L140.435,137.245L140.723,137.821L140.723,138.396L141.011,138.685L141.299,139.261L141.587,139.836L141.875,140.124L142.163,140.701L142.451,141.205L142.739,141.493L143.028,142.068L143.315,142.356L143.603,142.933L144.179,143.509L144.468,143.796L145.043,144.373L145.259,144.661L145.835,145.236L146.411,145.524L146.699,145.812L147.275,146.028L147.563,146.316L148.139,146.604L148.427,146.604L149.004,146.893L149.579,146.893L149.867,147.181Z" style="fill:none;stroke:rgb(35,31,32);stroke-width:0.22px;"/>
    </g>
</svg>
