<?xml version="1.0" encoding="UTF-8" standalone="no"?>
<!DOCTYPE svg PUBLIC "-//W3C//DTD SVG 1.1//EN" "http://www.w3.org/Graphics/SVG/1.1/DTD/svg11.dtd">
<svg width="100%" height="100%" viewBox="0 0 228 228" version="1.1" xmlns="http://www.w3.org/2000/svg" xmlns:xlink="http://www.w3.org/1999/xlink" xml:space="preserve" xmlns:serif="http://www.serif.com/" style="fill-rule:evenodd;clip-rule:evenodd;stroke-miterlimit:2;">
    <g>
        <path d="M227.123,114.493C227.123,51.997 176.003,0.877 113.507,0.877C51.227,0.877 0.107,51.997 0.107,114.493C0.107,176.772 51.227,227.893 113.507,227.893C176.003,227.893 227.123,176.772 227.123,114.493Z" style="fill:white;fill-rule:nonzero;"/>
        <path d="M227.123,114.493C227.123,51.997 176.003,0.877 113.507,0.877C51.227,0.877 0.107,51.997 0.107,114.493C0.107,176.772 51.227,227.893 113.507,227.893C176.003,227.893 227.123,176.772 227.123,114.493Z" style="fill:none;stroke:rgb(35,31,32);stroke-width:0.22px;"/>
        <path d="M227.123,114.493C227.123,51.997 176.003,0.877 113.507,0.877C51.227,0.877 0.107,51.997 0.107,114.493C0.107,176.772 51.227,227.893 113.507,227.893C176.003,227.893 227.123,176.772 227.123,114.493Z" style="fill:white;fill-rule:nonzero;"/>
        <path d="M227.123,114.493C227.123,51.997 176.003,0.877 113.507,0.877C51.227,0.877 0.107,51.997 0.107,114.493C0.107,176.772 51.227,227.893 113.507,227.893C176.003,227.893 227.123,176.772 227.123,114.493Z" style="fill:none;stroke:rgb(35,31,32);stroke-width:0.22px;"/>
        <path d="M74.843,103.765L74.843,118.236L77.651,118.524C84.203,119.389 89.603,123.925 92.195,130.189C92.483,131.269 92.699,132.42 92.699,133.573C92.699,139.261 89.315,144.084 84.203,146.316C78.227,149.484 70.883,147.181 67.427,141.493C66.059,139.261 65.195,136.957 64.907,134.436L44.747,135.517L44.747,136.38C44.747,146.893 50.363,156.325 59.795,160.86C65.771,163.957 72.251,165.685 78.803,165.685L80.531,165.685C92.483,165.685 103.499,159.133 109.187,148.909C111.492,145.236 112.643,140.916 112.932,136.668C112.932,135.517 113.219,134.725 113.219,133.86C113.219,123.349 106.091,113.989 96.155,110.819C104.651,105.997 110.052,96.925 110.052,86.989C110.052,85.837 109.763,84.397 109.763,82.957C108.899,78.133 106.667,73.309 102.995,69.925C97.811,65.101 91.331,61.933 84.491,60.853C82.475,60.565 80.531,60.565 78.515,60.565C71.387,60.565 64.331,62.509 58.067,66.541C51.803,70.789 47.555,77.341 46.403,84.685L66.059,87.277C67.427,81.301 72.539,77.341 78.515,77.053C85.643,77.341 91.043,82.957 91.043,89.796C91.043,94.909 88.163,99.445 83.339,101.459C80.819,102.9 77.939,103.765 74.843,103.765Z" style="fill:rgb(187,177,163);fill-rule:nonzero;"/>
        <path d="M74.843,103.765L74.843,118.236L77.651,118.524C84.203,119.389 89.603,123.925 92.195,130.189C92.483,131.269 92.699,132.42 92.699,133.573C92.699,139.261 89.315,144.084 84.203,146.316C78.227,149.484 70.883,147.181 67.427,141.493C66.059,139.261 65.195,136.957 64.907,134.436L44.747,135.517L44.747,136.38C44.747,146.893 50.363,156.325 59.795,160.86C65.771,163.957 72.251,165.685 78.803,165.685L80.531,165.685C92.483,165.685 103.499,159.133 109.187,148.909C111.492,145.236 112.643,140.916 112.932,136.668C112.932,135.517 113.219,134.725 113.219,133.86C113.219,123.349 106.091,113.989 96.155,110.819C104.651,105.997 110.052,96.925 110.052,86.989C110.052,85.837 109.763,84.397 109.763,82.957C108.899,78.133 106.667,73.309 102.995,69.925C97.811,65.101 91.331,61.933 84.491,60.853C82.475,60.565 80.531,60.565 78.515,60.565C71.387,60.565 64.331,62.509 58.067,66.541C51.803,70.789 47.555,77.341 46.403,84.685L66.059,87.277C67.427,81.301 72.539,77.341 78.515,77.053C85.643,77.341 91.043,82.957 91.043,89.796C91.043,94.909 88.163,99.445 83.339,101.459C80.819,102.9 77.939,103.765 74.843,103.765Z" style="fill:none;stroke:rgb(187,177,163);stroke-width:0.22px;"/>
        <path d="M151.523,167.124C155.843,167.124 160.091,165.973 164.051,163.668C168.299,161.436 171.971,158.269 174.851,154.309C177.083,151.212 179.099,147.757 180.539,144.373C181.979,141.781 182.771,139.261 183.059,136.668C184.499,129.9 185.075,123.061 185.075,116.221C185.075,111.685 184.787,107.148 184.211,102.612C183.635,97.213 182.483,91.813 180.827,86.413C179.099,82.741 177.083,78.709 174.851,75.325C171.683,71.077 167.723,67.621 163.187,65.101C159.803,63.085 155.555,61.933 151.523,61.645C147.275,61.933 143.315,63.085 139.643,65.101C135.035,67.621 131.363,71.077 128.267,75.325C125.963,78.709 124.019,82.453 122.291,86.413C120.564,91.525 119.123,96.925 118.908,102.612C118.043,107.148 117.755,111.685 117.755,116.221C117.755,123.061 118.619,129.9 119.987,136.668C120.275,139.261 121.139,141.781 122.291,144.373C124.019,148.044 125.675,151.429 127.98,154.597C131.075,158.269 134.747,161.436 139.067,163.668C142.739,165.973 146.987,167.124 151.523,167.124Z" style="fill:rgb(187,177,163);fill-rule:nonzero;"/>
        <path d="M151.523,167.124C155.843,167.124 160.091,165.973 164.051,163.668C168.299,161.436 171.971,158.269 174.851,154.309C177.083,151.212 179.099,147.757 180.539,144.373C181.979,141.781 182.771,139.261 183.059,136.668C184.499,129.9 185.075,123.061 185.075,116.221C185.075,111.685 184.787,107.148 184.211,102.612C183.635,97.213 182.483,91.813 180.827,86.413C179.099,82.741 177.083,78.709 174.851,75.325C171.683,71.077 167.723,67.621 163.187,65.101C159.803,63.085 155.555,61.933 151.523,61.645C147.275,61.933 143.315,63.085 139.643,65.101C135.035,67.621 131.363,71.077 128.267,75.325C125.963,78.709 124.019,82.453 122.291,86.413C120.564,91.525 119.123,96.925 118.908,102.612C118.043,107.148 117.755,111.685 117.755,116.221C117.755,123.061 118.619,129.9 119.987,136.668C120.275,139.261 121.139,141.781 122.291,144.373C124.019,148.044 125.675,151.429 127.98,154.597C131.075,158.269 134.747,161.436 139.067,163.668C142.739,165.973 146.987,167.124 151.523,167.124Z" style="fill:none;stroke:rgb(187,177,163);stroke-width:0.22px;"/>
        <path d="M157.499,83.82L158.363,84.685L158.939,85.837L159.515,86.989L160.379,88.069L160.956,89.221L161.459,90.661L162.035,92.101L162.323,93.469L162.899,94.621L163.187,96.061L163.475,97.501L163.763,98.868L164.051,100.021L164.339,101.459L164.627,102.612L164.627,103.98L164.915,105.133L164.915,106.285L165.203,107.436L165.203,111.108L165.491,111.685L165.491,120.469L165.203,121.044L165.203,124.5L164.915,125.004L164.915,127.309L164.627,127.885L164.627,129.613L164.339,130.189L164.339,130.693L164.051,131.269L164.051,131.845L163.763,132.42L163.763,133.285L163.475,133.86L163.475,134.436L163.187,135.013L163.187,135.805L162.899,136.38L162.611,136.957L162.323,137.533L162.323,138.396L162.035,138.973L161.747,139.549L161.459,140.124L161.459,140.413L161.171,140.916L160.956,141.493L160.667,141.781L160.379,142.356L160.091,142.644L159.803,143.221L159.515,143.796L159.227,144.084L158.651,144.661L158.363,145.236L158.075,145.524L157.499,146.028L157.211,146.316L156.635,146.893L156.059,147.181L155.843,147.469L155.267,147.757L154.98,148.044L154.403,148.044L154.115,148.332L153.539,148.621L152.963,148.621L152.675,148.909L150.155,148.909L149.867,148.621L149.291,148.621L149.004,148.332L148.427,148.044L148.139,148.044L147.563,147.757L147.275,147.469L146.699,147.181L146.123,146.893L145.835,146.316L145.259,146.028L145.043,145.524L144.468,145.236L144.179,144.661L143.603,144.084L143.315,143.796L143.028,143.221L142.739,142.644L142.451,142.356L142.163,141.781L141.875,141.493L141.587,140.916L141.587,140.413L141.299,140.124L141.011,139.549L140.723,138.973L140.723,138.396L140.435,137.533L140.147,136.957L139.932,136.38L139.932,135.805L139.643,135.013L139.355,134.436L139.355,133.86L139.067,133.285L139.067,132.42L138.779,131.845L138.779,131.269L138.492,130.693L138.492,129.613L138.203,129.038L138.203,127.309L137.915,127.02L137.915,124.5L137.627,123.637L137.627,119.893L137.339,119.389L137.339,113.124L137.627,112.549L137.627,108.301L137.915,107.436L137.915,105.133L138.203,103.98L138.203,102.612L138.492,101.459L138.779,100.021L139.067,98.868L139.355,97.501L139.643,96.061L139.932,94.621L140.435,93.469L141.011,92.101L141.587,90.661L141.875,89.221L142.739,88.069L143.315,86.989L143.891,85.837L144.755,84.685L145.259,83.82L146.123,82.957L146.699,82.165L147.563,81.589L148.427,81.013L149.004,80.724L149.867,80.437L150.659,80.149L152.099,80.149L152.963,80.437L153.827,80.724L154.691,81.013L155.267,81.589L156.059,82.165L156.923,82.957L157.499,83.82Z" style="fill:white;fill-rule:nonzero;"/>
        <path d="M157.499,83.82L158.363,84.685L158.939,85.837L159.515,86.989L160.379,88.069L160.956,89.221L161.459,90.661L162.035,92.101L162.323,93.469L162.899,94.621L163.187,96.061L163.475,97.501L163.763,98.868L164.051,100.021L164.339,101.459L164.627,102.612L164.627,103.98L164.915,105.133L164.915,106.285L165.203,107.436L165.203,111.108L165.491,111.685L165.491,120.469L165.203,121.044L165.203,124.5L164.915,125.004L164.915,127.309L164.627,127.885L164.627,129.613L164.339,130.189L164.339,130.693L164.051,131.269L164.051,131.845L163.763,132.42L163.763,133.285L163.475,133.86L163.475,134.436L163.187,135.013L163.187,135.805L162.899,136.38L162.611,136.957L162.323,137.533L162.323,138.396L162.035,138.973L161.747,139.549L161.459,140.124L161.459,140.413L161.171,140.916L160.956,141.493L160.667,141.781L160.379,142.356L160.091,142.644L159.803,143.221L159.515,143.796L159.227,144.084L158.651,144.661L158.363,145.236L158.075,145.524L157.499,146.028L157.211,146.316L156.635,146.893L156.059,147.181L155.843,147.469L155.267,147.757L154.98,148.044L154.403,148.044L154.115,148.332L153.539,148.621L152.963,148.621L152.675,148.909L150.155,148.909L149.867,148.621L149.291,148.621L149.004,148.332L148.427,148.044L148.139,148.044L147.563,147.757L147.275,147.469L146.699,147.181L146.123,146.893L145.835,146.316L145.259,146.028L145.043,145.524L144.468,145.236L144.179,144.661L143.603,144.084L143.315,143.796L143.028,143.221L142.739,142.644L142.451,142.356L142.163,141.781L141.875,141.493L141.587,140.916L141.587,140.413L141.299,140.124L141.011,139.549L140.723,138.973L140.723,138.396L140.435,137.533L140.147,136.957L139.932,136.38L139.932,135.805L139.643,135.013L139.355,134.436L139.355,133.86L139.067,133.285L139.067,132.42L138.779,131.845L138.779,131.269L138.492,130.693L138.492,129.613L138.203,129.038L138.203,127.309L137.915,127.02L137.915,124.5L137.627,123.637L137.627,119.893L137.339,119.389L137.339,113.124L137.627,112.549L137.627,108.301L137.915,107.436L137.915,105.133L138.203,103.98L138.203,102.612L138.492,101.459L138.779,100.021L139.067,98.868L139.355,97.501L139.643,96.061L139.932,94.621L140.435,93.469L141.011,92.101L141.587,90.661L141.875,89.221L142.739,88.069L143.315,86.989L143.891,85.837L144.755,84.685L145.259,83.82L146.123,82.957L146.699,82.165L147.563,81.589L148.427,81.013L149.004,80.724L149.867,80.437L150.659,80.149L152.099,80.149L152.963,80.437L153.827,80.724L154.691,81.013L155.267,81.589L156.059,82.165L156.923,82.957L157.499,83.82Z" style="fill:none;stroke:rgb(187,177,163);stroke-width:0.22px;"/>
        <path d="M37.331,198.876C38.771,200.029 40.139,201.469 41.579,202.621L201.563,42.637C200.411,41.197 198.971,39.829 197.891,38.389L37.331,198.876Z" style="fill:rgb(35,31,32);fill-rule:nonzero;"/>
        <path d="M37.331,198.876C38.771,200.029 40.139,201.469 41.579,202.621L201.563,42.637C200.411,41.197 198.971,39.829 197.891,38.389L37.331,198.876Z" style="fill:none;stroke:rgb(35,31,32);stroke-width:0.22px;"/>
        <path d="M18.611,177.349C17.747,175.621 16.595,173.893 15.731,172.453L171.179,16.501C172.835,17.652 174.563,18.805 176.291,19.597L18.611,177.349Z" style="fill:rgb(35,31,32);fill-rule:nonzero;"/>
        <path d="M18.611,177.349C17.747,175.621 16.595,173.893 15.731,172.453L171.179,16.501C172.835,17.652 174.563,18.805 176.291,19.597L18.611,177.349Z" style="fill:none;stroke:rgb(35,31,32);stroke-width:0.22px;"/>
        <path d="M25.379,186.42C26.819,188.148 27.971,189.517 29.339,190.957L189.611,30.109C188.459,29.029 187.091,27.877 185.363,26.437L25.379,186.42Z" style="fill:rgb(35,31,32);fill-rule:nonzero;"/>
        <path d="M25.379,186.42C26.819,188.148 27.971,189.517 29.339,190.957L189.611,30.109C188.459,29.029 187.091,27.877 185.363,26.437L25.379,186.42Z" style="fill:none;stroke:rgb(35,31,32);stroke-width:0.22px;"/>
        <path d="M50.651,209.389C52.379,210.54 54.107,211.405 55.763,212.557L211.499,56.82C210.347,55.165 209.483,53.437 208.403,51.997L50.651,209.389Z" style="fill:rgb(35,31,32);fill-rule:nonzero;"/>
        <path d="M50.651,209.389C52.379,210.54 54.107,211.405 55.763,212.557L211.499,56.82C210.347,55.165 209.483,53.437 208.403,51.997L50.651,209.389Z" style="fill:none;stroke:rgb(35,31,32);stroke-width:0.22px;"/>
    </g>
</svg>
