<?xml version="1.0" encoding="UTF-8" standalone="no"?>
<!DOCTYPE svg PUBLIC "-//W3C//DTD SVG 1.1//EN" "http://www.w3.org/Graphics/SVG/1.1/DTD/svg11.dtd">
<svg width="100%" height="100%" viewBox="0 0 205 284" version="1.1" xmlns="http://www.w3.org/2000/svg" xmlns:xlink="http://www.w3.org/1999/xlink" xml:space="preserve" xmlns:serif="http://www.serif.com/" style="fill-rule:evenodd;clip-rule:evenodd;stroke-miterlimit:2;">
    <g>
        <path d="M202.067,11.589L202.067,272.516C202.067,277.628 198.107,281.588 192.995,281.588L11.483,281.588C6.371,281.588 2.411,277.628 2.411,272.516L2.411,11.589C2.411,6.477 6.371,2.517 11.483,2.517L192.995,2.517C198.107,2.517 202.067,6.477 202.067,11.589Z" style="fill:rgb(35,31,32);fill-rule:nonzero;"/>
        <path d="M202.067,11.589L202.067,272.516C202.067,277.628 198.107,281.588 192.995,281.588L11.483,281.588C6.371,281.588 2.411,277.628 2.411,272.516L2.411,11.589C2.411,6.477 6.371,2.517 11.483,2.517L192.995,2.517C198.107,2.517 202.067,6.477 202.067,11.589Z" style="fill:none;stroke:rgb(35,31,32);stroke-width:0.22px;"/>
        <path d="M6.947,11.589C6.947,8.997 8.891,7.053 11.483,7.053L192.995,7.053C195.587,7.053 197.531,8.997 197.531,11.589L197.531,272.516C197.531,275.108 195.587,277.053 192.995,277.053L11.483,277.053C8.891,277.053 6.947,275.108 6.947,272.516L6.947,11.589Z" style="fill:white;fill-rule:nonzero;"/>
        <path d="M6.947,11.589C6.947,8.997 8.891,7.053 11.483,7.053L192.995,7.053C195.587,7.053 197.531,8.997 197.531,11.589L197.531,272.516C197.531,275.108 195.587,277.053 192.995,277.053L11.483,277.053C8.891,277.053 6.947,275.108 6.947,272.516L6.947,11.589Z" style="fill:none;stroke:rgb(35,31,32);stroke-width:0.22px;"/>
        <path d="M187.307,180.356C187.307,133.844 149.075,95.541 102.203,95.541C55.691,95.541 17.387,133.844 17.387,180.356C17.387,227.157 55.691,265.46 102.203,265.46C149.075,265.46 187.307,227.157 187.307,180.356Z" style="fill:rgb(211,63,39);fill-rule:nonzero;"/>
        <path d="M187.307,180.356C187.307,133.844 149.075,95.541 102.203,95.541C55.691,95.541 17.387,133.844 17.387,180.356C17.387,227.157 55.691,265.46 102.203,265.46C149.075,265.46 187.307,227.157 187.307,180.356Z" style="fill:none;stroke:rgb(211,63,39);stroke-width:0.22px;"/>
        <path d="M161.819,68.037C155.267,68.037 149.291,63.501 147.635,57.237C146.195,52.125 146.195,46.437 147.635,41.325C151.595,26.853 172.043,26.853 175.715,41.325C176.579,43.917 176.867,46.437 176.867,49.317L176.867,50.685L154.115,50.685C154.115,52.7 154.403,54.429 154.98,56.085C156.131,58.965 158.651,60.909 161.819,60.909C165.203,60.909 168.011,59.253 169.739,56.085L176.003,59.253C173.123,64.581 167.795,68.037 161.819,68.037Z" style="fill:rgb(35,31,32);fill-rule:nonzero;"/>
        <path d="M161.819,68.037C155.267,68.037 149.291,63.501 147.635,57.237C146.195,52.125 146.195,46.437 147.635,41.325C151.595,26.853 172.043,26.853 175.715,41.325C176.579,43.917 176.867,46.437 176.867,49.317L176.867,50.685L154.115,50.685C154.115,52.7 154.403,54.429 154.98,56.085C156.131,58.965 158.651,60.909 161.819,60.909C165.203,60.909 168.011,59.253 169.739,56.085L176.003,59.253C173.123,64.581 167.795,68.037 161.819,68.037Z" style="fill:none;stroke:rgb(35,31,32);stroke-width:0.22px;"/>
        <path d="M154.98,42.477C154.98,43.053 154.691,43.917 154.403,44.781L168.875,44.781C168.875,43.917 168.587,43.053 168.299,42.477C167.507,39.381 164.627,37.365 161.819,37.365C158.651,37.365 156.131,39.381 154.98,42.189L154.98,42.477Z" style="fill:white;fill-rule:nonzero;"/>
        <path d="M154.98,42.477C154.98,43.053 154.691,43.917 154.403,44.781L168.875,44.781C168.875,43.917 168.587,43.053 168.299,42.477C167.507,39.381 164.627,37.365 161.819,37.365C158.651,37.365 156.131,39.381 154.98,42.189L154.98,42.477Z" style="fill:none;stroke:rgb(35,31,32);stroke-width:0.22px;"/>
        <path d="M73.331,41.901C72.755,44.493 72.467,46.724 72.467,49.317C72.467,51.549 72.755,54.141 73.331,56.373C74.987,63.213 80.963,68.037 87.731,68.037C94.859,68.037 100.835,63.213 102.492,56.373C103.067,54.141 103.355,51.549 103.355,49.317C103.355,46.724 103.067,44.493 102.492,41.901C100.835,35.421 94.859,30.597 87.731,30.597C80.963,30.597 74.987,35.421 73.331,41.901Z" style="fill:rgb(35,31,32);fill-rule:nonzero;"/>
        <path d="M73.331,41.901C72.755,44.493 72.467,46.724 72.467,49.317C72.467,51.549 72.755,54.141 73.331,56.373C74.987,63.213 80.963,68.037 87.731,68.037C94.859,68.037 100.835,63.213 102.492,56.373C103.067,54.141 103.355,51.549 103.355,49.317C103.355,46.724 103.067,44.493 102.492,41.901C100.835,35.421 94.859,30.597 87.731,30.597C80.963,30.597 74.987,35.421 73.331,41.901Z" style="fill:none;stroke:rgb(35,31,32);stroke-width:0.22px;"/>
        <path d="M80.675,42.765C80.099,45.069 79.811,47.013 79.811,49.317C79.811,51.549 80.099,53.565 80.675,55.509C81.827,58.965 84.635,60.909 87.731,60.909C91.187,60.909 93.995,58.965 94.859,55.509C95.723,53.565 96.011,51.261 96.011,49.317C96.011,47.013 95.723,45.069 94.859,42.765C93.995,39.669 91.187,37.365 87.731,37.365C84.635,37.365 81.827,39.669 80.675,42.765Z" style="fill:white;fill-rule:nonzero;"/>
        <path d="M80.675,42.765C80.099,45.069 79.811,47.013 79.811,49.317C79.811,51.549 80.099,53.565 80.675,55.509C81.827,58.965 84.635,60.909 87.731,60.909C91.187,60.909 93.995,58.965 94.859,55.509C95.723,53.565 96.011,51.261 96.011,49.317C96.011,47.013 95.723,45.069 94.859,42.765C93.995,39.669 91.187,37.365 87.731,37.365C84.635,37.365 81.827,39.669 80.675,42.765Z" style="fill:none;stroke:rgb(35,31,32);stroke-width:0.22px;"/>
        <path d="M54.323,66.885C45.179,69.405 35.315,67.461 28.187,61.485L33.011,55.509C36.683,58.389 41.507,60.045 46.331,60.045C47.771,60.045 49.499,60.045 50.867,59.469C53.747,58.965 55.979,56.373 55.979,53.277C55.979,50.685 54.323,48.453 52.019,47.301C50.579,46.724 49.211,46.437 47.771,46.149L42.947,44.781C40.643,44.205 38.411,43.341 36.395,41.901C27.611,36.501 28.187,23.469 37.547,18.645C38.699,18.357 39.851,17.781 40.931,17.493C47.195,15.549 54.035,16.125 59.651,19.221C61.091,19.796 62.243,20.661 63.395,21.453L58.283,27.717C56.843,26.565 55.115,25.772 53.459,25.197C51.731,24.621 50.003,24.333 48.347,24.333C46.331,24.333 44.387,24.621 42.371,25.485C40.139,26.061 38.411,28.293 38.411,30.885C38.411,32.829 39.851,34.844 41.507,35.637C42.659,36.213 43.811,36.789 44.963,37.077L49.787,38.229C52.019,38.805 54.035,39.669 55.979,40.461C61.091,42.765 64.186,47.877 64.186,53.277C64.186,59.469 60.227,65.157 54.323,66.885Z" style="fill:rgb(35,31,32);fill-rule:nonzero;"/>
        <path d="M54.323,66.885C45.179,69.405 35.315,67.461 28.187,61.485L33.011,55.509C36.683,58.389 41.507,60.045 46.331,60.045C47.771,60.045 49.499,60.045 50.867,59.469C53.747,58.965 55.979,56.373 55.979,53.277C55.979,50.685 54.323,48.453 52.019,47.301C50.579,46.724 49.211,46.437 47.771,46.149L42.947,44.781C40.643,44.205 38.411,43.341 36.395,41.901C27.611,36.501 28.187,23.469 37.547,18.645C38.699,18.357 39.851,17.781 40.931,17.493C47.195,15.549 54.035,16.125 59.651,19.221C61.091,19.796 62.243,20.661 63.395,21.453L58.283,27.717C56.843,26.565 55.115,25.772 53.459,25.197C51.731,24.621 50.003,24.333 48.347,24.333C46.331,24.333 44.387,24.621 42.371,25.485C40.139,26.061 38.411,28.293 38.411,30.885C38.411,32.829 39.851,34.844 41.507,35.637C42.659,36.213 43.811,36.789 44.963,37.077L49.787,38.229C52.019,38.805 54.035,39.669 55.979,40.461C61.091,42.765 64.186,47.877 64.186,53.277C64.186,59.469 60.227,65.157 54.323,66.885Z" style="fill:none;stroke:rgb(35,31,32);stroke-width:0.22px;"/>
        <path d="M139.427,66.885L139.427,43.053C139.427,35.925 134.028,30.597 126.899,30.597C123.803,30.597 120.707,31.677 118.115,33.693L118.115,31.389L110.771,31.389L110.771,66.885L118.115,66.885L118.115,44.493C118.115,35.133 132.011,35.133 132.011,44.493L132.011,66.885L139.427,66.885Z" style="fill:rgb(35,31,32);fill-rule:nonzero;"/>
        <path d="M139.427,66.885L139.427,43.053C139.427,35.925 134.028,30.597 126.899,30.597C123.803,30.597 120.707,31.677 118.115,33.693L118.115,31.389L110.771,31.389L110.771,66.885L118.115,66.885L118.115,44.493C118.115,35.133 132.011,35.133 132.011,44.493L132.011,66.885L139.427,66.885Z" style="fill:none;stroke:rgb(35,31,32);stroke-width:0.22px;"/>
        <path d="M166.067,180.356C166.067,145.148 137.411,116.781 102.203,116.781C67.355,116.781 38.699,145.148 38.699,180.356C38.699,215.492 67.355,244.148 102.203,244.148C137.411,244.148 166.067,215.492 166.067,180.356Z" style="fill:white;fill-rule:nonzero;"/>
        <path d="M166.067,180.356C166.067,145.148 137.411,116.781 102.203,116.781C67.355,116.781 38.699,145.148 38.699,180.356C38.699,215.492 67.355,244.148 102.203,244.148C137.411,244.148 166.067,215.492 166.067,180.356Z" style="fill:none;stroke:white;stroke-width:0.22px;"/>
        <path d="M130.858,219.524C134.315,219.524 137.411,218.66 140.219,216.932C143.387,215.276 146.195,212.972 148.499,210.164C150.155,207.573 151.595,205.341 152.747,202.46C153.611,200.804 154.115,198.788 154.403,196.772C155.555,191.66 156.131,186.62 156.131,181.509C156.131,178.053 155.843,174.956 155.267,171.573C154.98,167.324 154.115,163.292 152.747,159.332C151.595,156.524 150.155,153.717 148.211,151.124C145.908,148.028 143.099,145.436 139.643,143.492C137.123,142.053 134.028,141.188 130.858,140.9C127.763,141.188 124.956,142.053 122.076,143.492C118.691,145.148 115.883,148.028 113.579,151.124C111.851,153.717 110.483,156.524 109.331,159.332C107.891,163.292 107.028,167.324 106.523,171.284C106.235,174.668 105.947,178.053 105.947,181.509C105.947,186.62 106.523,191.949 107.315,196.772C107.603,198.788 108.468,200.804 109.331,202.46C110.483,205.341 111.851,207.86 113.579,210.164C115.883,212.972 118.403,215.276 121.499,216.932C124.379,218.66 127.763,219.524 130.858,219.524Z" style="fill:rgb(35,31,32);fill-rule:nonzero;"/>
        <path d="M130.858,219.524C134.315,219.524 137.411,218.66 140.219,216.932C143.387,215.276 146.195,212.972 148.499,210.164C150.155,207.573 151.595,205.341 152.747,202.46C153.611,200.804 154.115,198.788 154.403,196.772C155.555,191.66 156.131,186.62 156.131,181.509C156.131,178.053 155.843,174.956 155.267,171.573C154.98,167.324 154.115,163.292 152.747,159.332C151.595,156.524 150.155,153.717 148.211,151.124C145.908,148.028 143.099,145.436 139.643,143.492C137.123,142.053 134.028,141.188 130.858,140.9C127.763,141.188 124.956,142.053 122.076,143.492C118.691,145.148 115.883,148.028 113.579,151.124C111.851,153.717 110.483,156.524 109.331,159.332C107.891,163.292 107.028,167.324 106.523,171.284C106.235,174.668 105.947,178.053 105.947,181.509C105.947,186.62 106.523,191.949 107.315,196.772C107.603,198.788 108.468,200.804 109.331,202.46C110.483,205.341 111.851,207.86 113.579,210.164C115.883,212.972 118.403,215.276 121.499,216.932C124.379,218.66 127.763,219.524 130.858,219.524Z" style="fill:none;stroke:rgb(35,31,32);stroke-width:0.22px;"/>
        <path d="M75.563,206.133L74.987,206.133C70.163,205.341 66.203,201.308 65.915,196.268L50.003,197.636C50.579,203.613 53.459,209.012 57.707,212.972C62.531,216.644 67.931,218.66 73.547,219.236L77.867,219.236C86.075,219.236 93.995,214.989 98.243,207.86C100.259,204.764 101.123,201.093 101.123,197.348C101.123,188.852 96.011,181.509 88.019,178.341C94.859,175.244 99.107,168.116 99.107,160.771C99.107,159.044 98.819,157.388 98.243,155.66C97.379,152.564 95.723,149.684 93.42,147.452C89.459,143.781 84.635,141.476 79.523,140.9C77.867,140.612 76.427,140.612 74.699,140.612C69.299,140.612 64.186,142.341 59.651,145.436C54.827,148.603 51.731,153.717 51.155,159.62L65.627,161.06C66.491,156.524 70.163,153.14 74.699,153.14C75.563,153.14 76.715,153.14 77.867,153.428C82.115,154.508 84.635,158.54 84.635,162.788C84.635,167.612 81.251,171.573 76.427,172.436C75.275,172.724 73.835,172.724 72.755,172.94L72.755,184.028L74.699,184.028C75.563,184.028 76.715,184.316 77.579,184.604C79.523,185.18 81.251,186.332 82.907,187.412C84.059,188.564 85.211,190.004 86.075,191.444C86.939,192.812 87.227,194.252 87.227,195.692C87.227,197.348 86.651,198.788 86.075,200.228C85.499,201.308 84.635,202.172 83.771,203.036C83.195,203.9 82.691,204.476 81.827,204.764C80.675,205.628 79.235,205.845 78.155,205.845C77.291,206.133 76.427,206.133 75.563,206.133Z" style="fill:rgb(35,31,32);fill-rule:nonzero;"/>
        <path d="M75.563,206.133L74.987,206.133C70.163,205.341 66.203,201.308 65.915,196.268L50.003,197.636C50.579,203.613 53.459,209.012 57.707,212.972C62.531,216.644 67.931,218.66 73.547,219.236L77.867,219.236C86.075,219.236 93.995,214.989 98.243,207.86C100.259,204.764 101.123,201.093 101.123,197.348C101.123,188.852 96.011,181.509 88.019,178.341C94.859,175.244 99.107,168.116 99.107,160.771C99.107,159.044 98.819,157.388 98.243,155.66C97.379,152.564 95.723,149.684 93.42,147.452C89.459,143.781 84.635,141.476 79.523,140.9C77.867,140.612 76.427,140.612 74.699,140.612C69.299,140.612 64.186,142.341 59.651,145.436C54.827,148.603 51.731,153.717 51.155,159.62L65.627,161.06C66.491,156.524 70.163,153.14 74.699,153.14C75.563,153.14 76.715,153.14 77.867,153.428C82.115,154.508 84.635,158.54 84.635,162.788C84.635,167.612 81.251,171.573 76.427,172.436C75.275,172.724 73.835,172.724 72.755,172.94L72.755,184.028L74.699,184.028C75.563,184.028 76.715,184.316 77.579,184.604C79.523,185.18 81.251,186.332 82.907,187.412C84.059,188.564 85.211,190.004 86.075,191.444C86.939,192.812 87.227,194.252 87.227,195.692C87.227,197.348 86.651,198.788 86.075,200.228C85.499,201.308 84.635,202.172 83.771,203.036C83.195,203.9 82.691,204.476 81.827,204.764C80.675,205.628 79.235,205.845 78.155,205.845C77.291,206.133 76.427,206.133 75.563,206.133Z" style="fill:none;stroke:rgb(35,31,32);stroke-width:0.22px;"/>
        <path d="M135.395,157.388L135.971,157.965L136.547,158.757L137.123,159.62L137.411,160.483L137.987,161.636L138.275,162.5L138.851,163.579L139.139,164.444L139.427,165.596L139.643,166.747L139.932,167.612L140.219,168.692L140.219,169.556L140.507,170.708L140.795,171.573L140.795,173.228L141.083,174.093L141.083,176.972L141.371,177.764L141.371,185.18L141.083,185.757L141.083,188.564L140.795,189.14L140.795,191.157L140.507,191.444L140.507,192.812L140.219,193.388L140.219,193.677L139.932,194.252L139.932,195.116L139.643,195.692L139.643,196.268L139.427,196.484L139.427,197.06L139.139,197.636L138.851,197.925L138.851,198.5L138.563,198.788L138.563,199.365L138.275,199.652L138.275,199.94L137.987,200.516L137.699,200.804L137.699,201.093L137.411,201.308L137.123,201.596L136.835,202.172L135.683,203.324L135.395,203.9L135.107,204.188L134.891,204.476L134.603,204.764L134.028,204.764L133.451,205.341L133.163,205.341L132.875,205.628L132.299,205.628L132.011,205.845L129.779,205.845L129.492,205.628L128.914,205.628L128.627,205.341L128.339,205.341L128.052,205.053L127.763,204.764L127.475,204.764L126.899,204.476L126.323,203.9L126.035,203.324L125.459,202.748L125.243,202.46L124.956,202.172L124.667,201.596L124.379,201.308L124.091,201.093L124.091,200.804L123.803,200.516L123.803,199.94L123.516,199.652L123.227,199.365L123.227,198.788L122.939,198.5L122.939,197.925L122.651,197.636L122.651,197.06L122.363,196.484L122.363,196.268L122.076,195.692L122.076,195.116L121.787,194.828L121.787,194.252L121.499,193.677L121.499,192.812L121.211,192.236L121.211,191.157L120.923,190.868L120.923,188.564L120.707,188.276L120.707,184.604L120.42,184.316L120.42,178.916L120.707,178.341L120.707,174.093L120.923,173.228L120.923,172.436L121.211,171.573L121.211,170.708L121.499,169.556L121.499,168.692L121.787,167.612L122.076,166.747L122.363,165.596L122.651,164.444L122.939,163.579L123.516,162.5L123.803,161.636L124.379,160.483L124.956,159.62L125.243,158.757L125.747,157.965L126.323,157.388L127.475,156.236L128.052,155.66L128.627,155.372L129.203,155.084L129.779,154.795L130.283,154.795L130.858,154.508L131.435,154.795L132.011,154.795L132.587,155.084L133.739,155.66L134.891,156.812L135.395,157.388Z" style="fill:white;fill-rule:nonzero;"/>
        <path d="M135.395,157.388L135.971,157.965L136.547,158.757L137.123,159.62L137.411,160.483L137.987,161.636L138.275,162.5L138.851,163.579L139.139,164.444L139.427,165.596L139.643,166.747L139.932,167.612L140.219,168.692L140.219,169.556L140.507,170.708L140.795,171.573L140.795,173.228L141.083,174.093L141.083,176.972L141.371,177.764L141.371,185.18L141.083,185.757L141.083,188.564L140.795,189.14L140.795,191.157L140.507,191.444L140.507,192.812L140.219,193.388L140.219,193.677L139.932,194.252L139.932,195.116L139.643,195.692L139.643,196.268L139.427,196.484L139.427,197.06L139.139,197.636L138.851,197.925L138.851,198.5L138.563,198.788L138.563,199.365L138.275,199.652L138.275,199.94L137.987,200.516L137.699,200.804L137.699,201.093L137.411,201.308L137.123,201.596L136.835,202.172L135.683,203.324L135.395,203.9L135.107,204.188L134.891,204.476L134.603,204.764L134.028,204.764L133.451,205.341L133.163,205.341L132.875,205.628L132.299,205.628L132.011,205.845L129.779,205.845L129.492,205.628L128.914,205.628L128.627,205.341L128.339,205.341L128.052,205.053L127.763,204.764L127.475,204.764L126.899,204.476L126.323,203.9L126.035,203.324L125.459,202.748L125.243,202.46L124.956,202.172L124.667,201.596L124.379,201.308L124.091,201.093L124.091,200.804L123.803,200.516L123.803,199.94L123.516,199.652L123.227,199.365L123.227,198.788L122.939,198.5L122.939,197.925L122.651,197.636L122.651,197.06L122.363,196.484L122.363,196.268L122.076,195.692L122.076,195.116L121.787,194.828L121.787,194.252L121.499,193.677L121.499,192.812L121.211,192.236L121.211,191.157L120.923,190.868L120.923,188.564L120.707,188.276L120.707,184.604L120.42,184.316L120.42,178.916L120.707,178.341L120.707,174.093L120.923,173.228L120.923,172.436L121.211,171.573L121.211,170.708L121.499,169.556L121.499,168.692L121.787,167.612L122.076,166.747L122.363,165.596L122.651,164.444L122.939,163.579L123.516,162.5L123.803,161.636L124.379,160.483L124.956,159.62L125.243,158.757L125.747,157.965L126.323,157.388L127.475,156.236L128.052,155.66L128.627,155.372L129.203,155.084L129.779,154.795L130.283,154.795L130.858,154.508L131.435,154.795L132.011,154.795L132.587,155.084L133.739,155.66L134.891,156.812L135.395,157.388Z" style="fill:none;stroke:rgb(35,31,32);stroke-width:0.22px;"/>
    </g>
</svg>
