<?xml version="1.0" encoding="UTF-8" standalone="no"?>
<!DOCTYPE svg PUBLIC "-//W3C//DTD SVG 1.1//EN" "http://www.w3.org/Graphics/SVG/1.1/DTD/svg11.dtd">
<svg width="100%" height="100%" viewBox="0 0 205 284" version="1.1" xmlns="http://www.w3.org/2000/svg" xmlns:xlink="http://www.w3.org/1999/xlink" xml:space="preserve" xmlns:serif="http://www.serif.com/" style="fill-rule:evenodd;clip-rule:evenodd;stroke-miterlimit:2;">
    <g>
        <path d="M201.995,11.733L201.995,272.517C201.995,277.628 198.035,281.588 192.923,281.588L11.483,281.588C6.371,281.588 2.411,277.628 2.411,272.517L2.411,11.733C2.411,6.621 6.371,2.661 11.483,2.661L192.923,2.661C198.035,2.661 201.995,6.621 201.995,11.733Z" style="fill:rgb(35,31,32);fill-rule:nonzero;"/>
        <path d="M201.995,11.733L201.995,272.517C201.995,277.628 198.035,281.588 192.923,281.588L11.483,281.588C6.371,281.588 2.411,277.628 2.411,272.517L2.411,11.733C2.411,6.621 6.371,2.661 11.483,2.661L192.923,2.661C198.035,2.661 201.995,6.621 201.995,11.733Z" style="fill:none;stroke:rgb(35,31,32);stroke-width:0.22px;"/>
        <path d="M6.947,11.733C6.947,9.141 8.891,7.197 11.483,7.197L192.923,7.197C195.443,7.197 197.459,9.141 197.459,11.733L197.459,272.517C197.459,275.108 195.443,277.053 192.923,277.053L11.483,277.053C8.891,277.053 6.947,275.108 6.947,272.517L6.947,11.733Z" style="fill:white;fill-rule:nonzero;"/>
        <path d="M6.947,11.733C6.947,9.141 8.891,7.197 11.483,7.197L192.923,7.197C195.443,7.197 197.459,9.141 197.459,11.733L197.459,272.517C197.459,275.108 195.443,277.053 192.923,277.053L11.483,277.053C8.891,277.053 6.947,275.108 6.947,272.517L6.947,11.733Z" style="fill:none;stroke:rgb(35,31,32);stroke-width:0.22px;"/>
        <path d="M172.763,7.197L192.923,7.197" style="fill:none;fill-rule:nonzero;"/>
        <path d="M172.763,7.197L192.923,7.197" style="fill:none;stroke:rgb(35,31,32);stroke-width:0.22px;"/>
        <path d="M187.235,180.429C187.235,133.916 148.932,95.613 102.203,95.613C55.691,95.613 17.387,133.916 17.387,180.429C17.387,227.157 55.691,265.46 102.203,265.46C148.932,265.46 187.235,227.157 187.235,180.429Z" style="fill:rgb(187,177,163);fill-rule:nonzero;"/>
        <path d="M187.235,180.429C187.235,133.916 148.932,95.613 102.203,95.613C55.691,95.613 17.387,133.916 17.387,180.429C17.387,227.157 55.691,265.46 102.203,265.46C148.932,265.46 187.235,227.157 187.235,180.429Z" style="fill:none;stroke:rgb(187,177,163);stroke-width:0.22px;"/>
        <path d="M139.355,66.957L139.355,43.197C139.355,36.069 133.956,30.669 126.827,30.669C123.731,30.669 120.635,31.82 118.043,33.837L118.043,31.533L110.699,31.533L110.699,66.957L118.043,66.957L118.043,44.565C118.043,35.205 131.939,35.205 131.939,44.565L131.939,66.957L139.355,66.957Z" style="fill:rgb(187,177,163);fill-rule:nonzero;"/>
        <path d="M139.355,66.957L139.355,43.197C139.355,36.069 133.956,30.669 126.827,30.669C123.731,30.669 120.635,31.82 118.043,33.837L118.043,31.533L110.699,31.533L110.699,66.957L118.043,66.957L118.043,44.565C118.043,35.205 131.939,35.205 131.939,44.565L131.939,66.957L139.355,66.957Z" style="fill:none;stroke:rgb(187,177,163);stroke-width:0.22px;"/>
        <path d="M54.251,66.957C45.179,69.549 35.243,67.533 28.187,61.628L33.011,55.652C36.683,58.461 41.507,60.189 46.331,60.189C47.771,60.189 49.427,60.189 50.867,59.613C53.675,59.037 55.979,56.517 55.979,53.349C55.979,50.829 54.251,48.525 52.019,47.445C50.579,46.868 49.139,46.581 47.771,46.293L42.947,44.853C40.643,44.277 38.411,43.485 36.395,42.045C27.611,36.645 28.187,23.613 37.547,18.789C38.699,18.501 39.779,17.925 40.931,17.637C47.195,15.693 53.963,16.269 59.651,19.365C61.091,19.941 62.171,20.805 63.323,21.597L58.211,27.861C56.843,26.709 55.115,25.844 53.387,25.341C51.731,24.765 50.003,24.477 48.275,24.477C46.331,24.477 44.315,24.765 42.371,25.557C40.067,26.133 38.411,28.437 38.411,30.957C38.411,32.973 39.779,34.917 41.507,35.781C42.659,36.357 43.739,36.933 44.891,37.221L49.715,38.373C52.019,38.949 53.963,39.741 55.979,40.605C61.091,42.909 64.186,48.021 64.186,53.349C64.186,59.613 60.227,65.301 54.251,66.957Z" style="fill:rgb(187,177,163);fill-rule:nonzero;"/>
        <path d="M54.251,66.957C45.179,69.549 35.243,67.533 28.187,61.628L33.011,55.652C36.683,58.461 41.507,60.189 46.331,60.189C47.771,60.189 49.427,60.189 50.867,59.613C53.675,59.037 55.979,56.517 55.979,53.349C55.979,50.829 54.251,48.525 52.019,47.445C50.579,46.868 49.139,46.581 47.771,46.293L42.947,44.853C40.643,44.277 38.411,43.485 36.395,42.045C27.611,36.645 28.187,23.613 37.547,18.789C38.699,18.501 39.779,17.925 40.931,17.637C47.195,15.693 53.963,16.269 59.651,19.365C61.091,19.941 62.171,20.805 63.323,21.597L58.211,27.861C56.843,26.709 55.115,25.844 53.387,25.341C51.731,24.765 50.003,24.477 48.275,24.477C46.331,24.477 44.315,24.765 42.371,25.557C40.067,26.133 38.411,28.437 38.411,30.957C38.411,32.973 39.779,34.917 41.507,35.781C42.659,36.357 43.739,36.933 44.891,37.221L49.715,38.373C52.019,38.949 53.963,39.741 55.979,40.605C61.091,42.909 64.186,48.021 64.186,53.349C64.186,59.613 60.227,65.301 54.251,66.957Z" style="fill:none;stroke:rgb(187,177,163);stroke-width:0.22px;"/>
        <path d="M73.259,42.045C72.683,44.565 72.395,46.868 72.395,49.389C72.395,51.693 72.683,54.213 73.259,56.517C74.987,63.285 80.891,68.109 87.731,68.109C94.787,68.109 100.763,63.285 102.492,56.517C102.995,54.213 103.283,51.693 103.283,49.389C103.283,46.868 102.995,44.565 102.492,42.045C100.763,35.493 94.787,30.669 87.731,30.669C80.891,30.669 74.987,35.493 73.259,42.045Z" style="fill:rgb(187,177,163);fill-rule:nonzero;"/>
        <path d="M73.259,42.045C72.683,44.565 72.395,46.868 72.395,49.389C72.395,51.693 72.683,54.213 73.259,56.517C74.987,63.285 80.891,68.109 87.731,68.109C94.787,68.109 100.763,63.285 102.492,56.517C102.995,54.213 103.283,51.693 103.283,49.389C103.283,46.868 102.995,44.565 102.492,42.045C100.763,35.493 94.787,30.669 87.731,30.669C80.891,30.669 74.987,35.493 73.259,42.045Z" style="fill:none;stroke:rgb(187,177,163);stroke-width:0.22px;"/>
        <path d="M161.747,68.109C155.195,68.109 149.219,63.573 147.563,57.381C146.123,52.269 146.123,46.581 147.563,41.469C151.523,26.997 171.899,26.997 175.643,41.469C176.435,43.989 176.723,46.581 176.723,49.389L176.723,50.829L154.043,50.829C154.043,52.844 154.331,54.501 154.908,56.229C156.059,59.037 158.579,61.053 161.747,61.053C165.131,61.053 167.939,59.325 169.667,56.229L175.932,59.325C173.051,64.724 167.651,68.109 161.747,68.109Z" style="fill:rgb(187,177,163);fill-rule:nonzero;"/>
        <path d="M161.747,68.109C155.195,68.109 149.219,63.573 147.563,57.381C146.123,52.269 146.123,46.581 147.563,41.469C151.523,26.997 171.899,26.997 175.643,41.469C176.435,43.989 176.723,46.581 176.723,49.389L176.723,50.829L154.043,50.829C154.043,52.844 154.331,54.501 154.908,56.229C156.059,59.037 158.579,61.053 161.747,61.053C165.131,61.053 167.939,59.325 169.667,56.229L175.932,59.325C173.051,64.724 167.651,68.109 161.747,68.109Z" style="fill:none;stroke:rgb(187,177,163);stroke-width:0.22px;"/>
        <path d="M80.603,42.909C80.099,45.141 79.811,47.157 79.811,49.389C79.811,51.693 80.099,53.637 80.603,55.652C81.755,59.037 84.635,61.053 87.731,61.053C91.115,61.053 93.923,59.037 94.787,55.652C95.651,53.637 95.939,51.405 95.939,49.389C95.939,47.157 95.651,45.141 94.787,42.909C93.923,39.741 91.115,37.509 87.731,37.509C84.635,37.509 81.755,39.741 80.603,42.909Z" style="fill:white;fill-rule:nonzero;"/>
        <path d="M80.603,42.909C80.099,45.141 79.811,47.157 79.811,49.389C79.811,51.693 80.099,53.637 80.603,55.652C81.755,59.037 84.635,61.053 87.731,61.053C91.115,61.053 93.923,59.037 94.787,55.652C95.651,53.637 95.939,51.405 95.939,49.389C95.939,47.157 95.651,45.141 94.787,42.909C93.923,39.741 91.115,37.509 87.731,37.509C84.635,37.509 81.755,39.741 80.603,42.909Z" style="fill:none;stroke:white;stroke-width:0.22px;"/>
        <path d="M154.908,42.621C154.908,43.197 154.619,43.989 154.331,44.853L168.803,44.853C168.803,43.989 168.515,43.197 168.227,42.621C167.363,39.453 164.555,37.509 161.747,37.509C158.579,37.509 156.059,39.453 154.908,42.333L154.908,42.621Z" style="fill:white;fill-rule:nonzero;"/>
        <path d="M154.908,42.621C154.908,43.197 154.619,43.989 154.331,44.853L168.803,44.853C168.803,43.989 168.515,43.197 168.227,42.621C167.363,39.453 164.555,37.509 161.747,37.509C158.579,37.509 156.059,39.453 154.908,42.333L154.908,42.621Z" style="fill:none;stroke:white;stroke-width:0.22px;"/>
        <path d="M165.995,180.429C165.995,145.221 137.339,116.925 102.203,116.925C67.283,116.925 38.699,145.221 38.699,180.429C38.699,215.564 67.283,244.221 102.203,244.221C137.339,244.221 165.995,215.564 165.995,180.429Z" style="fill:white;fill-rule:nonzero;"/>
        <path d="M165.995,180.429C165.995,145.221 137.339,116.925 102.203,116.925C67.283,116.925 38.699,145.221 38.699,180.429C38.699,215.564 67.283,244.221 102.203,244.221C137.339,244.221 165.995,215.564 165.995,180.429Z" style="fill:none;stroke:rgb(187,177,163);stroke-width:0.22px;"/>
        <path d="M75.563,206.205L74.987,206.205C70.163,205.341 66.203,201.38 65.915,196.269L50.003,197.708C50.579,203.685 53.387,209.013 57.635,213.044C62.459,216.717 67.859,218.661 73.547,219.236L77.795,219.236C86.003,219.236 93.923,214.989 98.243,207.933C100.187,204.765 101.052,201.093 101.052,197.42C101.052,188.925 95.939,181.509 88.019,178.413C94.787,175.316 99.035,168.188 99.035,160.844C99.035,159.117 98.747,157.459 98.243,155.732C97.379,152.637 95.651,149.757 93.42,147.524C89.387,143.853 84.635,141.549 79.523,140.973C77.795,140.685 76.355,140.685 74.699,140.685C69.299,140.685 64.186,142.413 59.651,145.508C54.827,148.676 51.731,153.717 51.155,159.692L65.627,161.133C66.419,156.597 70.163,153.212 74.699,153.212C75.563,153.212 76.643,153.212 77.795,153.5C82.043,154.58 84.635,158.541 84.635,162.789C84.635,167.612 81.179,171.645 76.355,172.437C75.275,172.725 73.835,172.725 72.683,173.013L72.683,184.101L74.699,184.101C75.563,184.101 76.643,184.389 77.507,184.677C79.523,185.252 81.179,186.332 82.907,187.484C84.059,188.637 85.139,190.077 86.003,191.444C86.867,192.885 87.155,194.325 87.155,195.692C87.155,197.42 86.579,198.86 86.003,200.228C85.427,201.38 84.635,202.245 83.771,203.108C83.195,203.9 82.619,204.477 81.755,204.765C80.603,205.628 79.235,205.916 78.083,205.916C77.219,206.205 76.355,206.205 75.563,206.205Z" style="fill:rgb(187,177,163);fill-rule:nonzero;"/>
        <path d="M75.563,206.205L74.987,206.205C70.163,205.341 66.203,201.38 65.915,196.269L50.003,197.708C50.579,203.685 53.387,209.013 57.635,213.044C62.459,216.717 67.859,218.661 73.547,219.236L77.795,219.236C86.003,219.236 93.923,214.989 98.243,207.933C100.187,204.765 101.052,201.093 101.052,197.42C101.052,188.925 95.939,181.509 88.019,178.413C94.787,175.316 99.035,168.188 99.035,160.844C99.035,159.117 98.747,157.459 98.243,155.732C97.379,152.637 95.651,149.757 93.42,147.524C89.387,143.853 84.635,141.549 79.523,140.973C77.795,140.685 76.355,140.685 74.699,140.685C69.299,140.685 64.186,142.413 59.651,145.508C54.827,148.676 51.731,153.717 51.155,159.692L65.627,161.133C66.419,156.597 70.163,153.212 74.699,153.212C75.563,153.212 76.643,153.212 77.795,153.5C82.043,154.58 84.635,158.541 84.635,162.789C84.635,167.612 81.179,171.645 76.355,172.437C75.275,172.725 73.835,172.725 72.683,173.013L72.683,184.101L74.699,184.101C75.563,184.101 76.643,184.389 77.507,184.677C79.523,185.252 81.179,186.332 82.907,187.484C84.059,188.637 85.139,190.077 86.003,191.444C86.867,192.885 87.155,194.325 87.155,195.692C87.155,197.42 86.579,198.86 86.003,200.228C85.427,201.38 84.635,202.245 83.771,203.108C83.195,203.9 82.619,204.477 81.755,204.765C80.603,205.628 79.235,205.916 78.083,205.916C77.219,206.205 76.355,206.205 75.563,206.205Z" style="fill:none;stroke:rgb(187,177,163);stroke-width:0.22px;"/>
        <path d="M130.787,219.524C134.243,219.524 137.339,218.661 140.147,217.004C143.315,215.276 146.123,213.044 148.427,210.165C150.083,207.645 151.523,205.341 152.675,202.533C153.468,200.805 154.043,198.86 154.331,196.845C155.483,191.732 156.059,186.621 156.059,181.509C156.059,178.124 155.771,175.028 155.195,171.645C154.908,167.325 154.043,163.365 152.675,159.405C151.523,156.597 150.083,153.717 148.139,151.197C145.835,148.101 143.028,145.508 139.571,143.564C137.051,142.124 133.956,141.261 130.787,140.973C127.691,141.261 124.883,142.124 122.004,143.564C118.619,145.221 115.811,148.101 113.507,151.197C111.851,153.717 110.411,156.597 109.259,159.405C107.819,163.365 107.028,167.325 106.451,171.356C106.163,174.741 105.875,178.124 105.875,181.509C105.875,186.621 106.451,192.02 107.315,196.845C107.603,198.86 108.395,200.805 109.259,202.533C110.411,205.341 111.851,207.933 113.507,210.165C115.811,213.044 118.331,215.276 121.427,217.004C124.307,218.661 127.691,219.524 130.787,219.524Z" style="fill:rgb(187,177,163);fill-rule:nonzero;"/>
        <path d="M130.787,219.524C134.243,219.524 137.339,218.661 140.147,217.004C143.315,215.276 146.123,213.044 148.427,210.165C150.083,207.645 151.523,205.341 152.675,202.533C153.468,200.805 154.043,198.86 154.331,196.845C155.483,191.732 156.059,186.621 156.059,181.509C156.059,178.124 155.771,175.028 155.195,171.645C154.908,167.325 154.043,163.365 152.675,159.405C151.523,156.597 150.083,153.717 148.139,151.197C145.835,148.101 143.028,145.508 139.571,143.564C137.051,142.124 133.956,141.261 130.787,140.973C127.691,141.261 124.883,142.124 122.004,143.564C118.619,145.221 115.811,148.101 113.507,151.197C111.851,153.717 110.411,156.597 109.259,159.405C107.819,163.365 107.028,167.325 106.451,171.356C106.163,174.741 105.875,178.124 105.875,181.509C105.875,186.621 106.451,192.02 107.315,196.845C107.603,198.86 108.395,200.805 109.259,202.533C110.411,205.341 111.851,207.933 113.507,210.165C115.811,213.044 118.331,215.276 121.427,217.004C124.307,218.661 127.691,219.524 130.787,219.524Z" style="fill:none;stroke:rgb(187,177,163);stroke-width:0.22px;"/>
        <path d="M135.323,157.459L135.899,158.037L136.475,158.829L137.051,159.692L137.339,160.556L137.915,161.708L138.203,162.573L138.779,163.651L139.067,164.517L139.355,165.668L139.571,166.819L139.859,167.612L140.147,168.765L140.147,169.628L140.435,170.781L140.723,171.645L140.723,173.301L141.011,174.165L141.011,176.973L141.299,177.836L141.299,185.252L141.011,185.757L141.011,188.637L140.723,189.212L140.723,191.157L140.435,191.444L140.435,192.885L140.147,193.46L140.147,193.749L139.859,194.325L139.859,195.117L139.571,195.692L139.571,196.269L139.355,196.557L139.355,197.133L139.067,197.708L138.779,197.997L138.779,198.573L138.492,198.86L138.492,199.365L138.203,199.652L138.203,199.94L137.915,200.517L137.627,200.805L137.627,201.093L137.339,201.38L137.051,201.668L136.763,202.245L136.187,202.821L135.899,203.108L135.611,203.396L135.323,203.9L135.035,204.188L134.819,204.477L134.531,204.765L133.956,204.765L133.667,205.053L133.379,205.341L133.091,205.341L132.803,205.628L132.227,205.628L131.939,205.916L129.707,205.916L129.42,205.628L128.843,205.628L128.554,205.341L128.267,205.341L127.98,205.053L127.691,204.765L127.403,204.765L126.827,204.477L126.54,204.188L126.251,203.9L125.963,203.396L125.747,203.108L125.459,202.821L124.883,202.245L124.595,201.668L124.307,201.38L124.019,201.093L124.019,200.805L123.731,200.517L123.731,199.94L123.444,199.652L123.155,199.365L123.155,198.86L122.867,198.573L122.867,197.997L122.579,197.708L122.579,197.133L122.291,196.557L122.291,196.269L122.004,195.692L122.004,195.117L121.715,194.829L121.715,194.325L121.427,193.749L121.427,192.885L121.211,192.309L121.211,191.157L120.923,190.869L120.923,188.637L120.635,188.349L120.635,184.677L120.347,184.389L120.347,178.989L120.635,178.413L120.635,174.165L120.923,173.301L120.923,172.437L121.211,171.645L121.211,170.781L121.427,169.628L121.427,168.765L121.715,167.612L122.004,166.819L122.291,165.668L122.579,164.517L122.867,163.651L123.444,162.573L123.731,161.708L124.307,160.556L124.883,159.692L125.171,158.829L125.747,158.037L126.251,157.459L126.827,156.885L127.98,155.732L128.554,155.444L129.131,155.157L129.707,154.868L130.283,154.868L130.787,154.58L131.363,154.868L131.939,154.868L132.516,155.157L133.091,155.444L133.667,155.732L134.243,156.309L134.819,156.885L135.323,157.459Z" style="fill:white;fill-rule:nonzero;"/>
        <path d="M135.323,157.459L135.899,158.037L136.475,158.829L137.051,159.692L137.339,160.556L137.915,161.708L138.203,162.573L138.779,163.651L139.067,164.517L139.355,165.668L139.571,166.819L139.859,167.612L140.147,168.765L140.147,169.628L140.435,170.781L140.723,171.645L140.723,173.301L141.011,174.165L141.011,176.973L141.299,177.836L141.299,185.252L141.011,185.757L141.011,188.637L140.723,189.212L140.723,191.157L140.435,191.444L140.435,192.885L140.147,193.46L140.147,193.749L139.859,194.325L139.859,195.117L139.571,195.692L139.571,196.269L139.355,196.557L139.355,197.133L139.067,197.708L138.779,197.997L138.779,198.573L138.492,198.86L138.492,199.365L138.203,199.652L138.203,199.94L137.915,200.517L137.627,200.805L137.627,201.093L137.339,201.38L137.051,201.668L136.763,202.245L136.187,202.821L135.899,203.108L135.611,203.396L135.323,203.9L135.035,204.188L134.819,204.477L134.531,204.765L133.956,204.765L133.667,205.053L133.379,205.341L133.091,205.341L132.803,205.628L132.227,205.628L131.939,205.916L129.707,205.916L129.42,205.628L128.843,205.628L128.554,205.341L128.267,205.341L127.98,205.053L127.691,204.765L127.403,204.765L126.827,204.477L126.54,204.188L126.251,203.9L125.963,203.396L125.747,203.108L125.459,202.821L124.883,202.245L124.595,201.668L124.307,201.38L124.019,201.093L124.019,200.805L123.731,200.517L123.731,199.94L123.444,199.652L123.155,199.365L123.155,198.86L122.867,198.573L122.867,197.997L122.579,197.708L122.579,197.133L122.291,196.557L122.291,196.269L122.004,195.692L122.004,195.117L121.715,194.829L121.715,194.325L121.427,193.749L121.427,192.885L121.211,192.309L121.211,191.157L120.923,190.869L120.923,188.637L120.635,188.349L120.635,184.677L120.347,184.389L120.347,178.989L120.635,178.413L120.635,174.165L120.923,173.301L120.923,172.437L121.211,171.645L121.211,170.781L121.427,169.628L121.427,168.765L121.715,167.612L122.004,166.819L122.291,165.668L122.579,164.517L122.867,163.651L123.444,162.573L123.731,161.708L124.307,160.556L124.883,159.692L125.171,158.829L125.747,158.037L126.251,157.459L126.827,156.885L127.98,155.732L128.554,155.444L129.131,155.157L129.707,154.868L130.283,154.868L130.787,154.58L131.363,154.868L131.939,154.868L132.516,155.157L133.091,155.444L133.667,155.732L134.243,156.309L134.819,156.885L135.323,157.459Z" style="fill:none;stroke:rgb(187,177,163);stroke-width:0.22px;"/>
        <path d="M197.459,45.717L29.843,277.053L24.515,277.053L197.459,38.373L197.459,45.717Z" style="fill:rgb(35,31,32);fill-rule:nonzero;"/>
        <path d="M197.459,45.717L29.843,277.053L24.515,277.053L197.459,38.373L197.459,45.717Z" style="fill:none;stroke:rgb(35,31,32);stroke-width:0.22px;"/>
        <path d="M11.483,277.053C10.619,277.053 10.043,276.836 9.179,276.549L197.459,16.772L197.459,23.901L14.003,277.053L11.483,277.053Z" style="fill:rgb(35,31,32);fill-rule:nonzero;"/>
        <path d="M11.483,277.053C10.619,277.053 10.043,276.836 9.179,276.549L197.459,16.772L197.459,23.901L14.003,277.053L11.483,277.053Z" style="fill:none;stroke:rgb(35,31,32);stroke-width:0.22px;"/>
        <path d="M193.787,7.197L6.947,265.172L6.947,258.118L188.675,7.197L193.787,7.197Z" style="fill:rgb(35,31,32);fill-rule:nonzero;"/>
        <path d="M193.787,7.197L6.947,265.172L6.947,258.118L188.675,7.197L193.787,7.197Z" style="fill:none;stroke:rgb(35,31,32);stroke-width:0.22px;"/>
        <path d="M178.163,7.197L6.947,243.356L6.947,236.228L172.763,7.197L178.163,7.197Z" style="fill:rgb(35,31,32);fill-rule:nonzero;"/>
        <path d="M178.163,7.197L6.947,243.356L6.947,236.228L172.763,7.197L178.163,7.197Z" style="fill:none;stroke:rgb(35,31,32);stroke-width:0.22px;"/>
    </g>
</svg>
