<?xml version="1.0" encoding="UTF-8" standalone="no"?>
<!DOCTYPE svg PUBLIC "-//W3C//DTD SVG 1.1//EN" "http://www.w3.org/Graphics/SVG/1.1/DTD/svg11.dtd">
<svg width="100%" height="100%" viewBox="0 0 228 228" version="1.1" xmlns="http://www.w3.org/2000/svg" xmlns:xlink="http://www.w3.org/1999/xlink" xml:space="preserve" xmlns:serif="http://www.serif.com/" style="fill-rule:evenodd;clip-rule:evenodd;stroke-miterlimit:2;">
    <g>
        <path d="M227.123,114.493C227.123,51.997 176.003,0.877 113.507,0.877C51.227,0.877 0.107,51.997 0.107,114.493C0.107,176.772 51.227,227.893 113.507,227.893C176.003,227.893 227.123,176.772 227.123,114.493Z" style="fill:rgb(211,63,39);fill-rule:nonzero;"/>
        <path d="M227.123,114.493C227.123,51.997 176.003,0.877 113.507,0.877C51.227,0.877 0.107,51.997 0.107,114.493C0.107,176.772 51.227,227.893 113.507,227.893C176.003,227.893 227.123,176.772 227.123,114.493Z" style="fill:none;stroke:rgb(241,93,42);stroke-width:0.22px;"/>
        <path d="M178.523,169.644C191.627,154.02 198.683,134.725 198.683,114.493C198.683,67.333 160.667,29.317 113.507,29.317C93.275,29.317 73.979,36.373 58.355,49.477L178.523,169.644Z" style="fill:rgb(0,104,178);fill-rule:nonzero;"/>
        <path d="M178.523,169.644C191.627,154.02 198.683,134.725 198.683,114.493C198.683,67.333 160.667,29.317 113.507,29.317C93.275,29.317 73.979,36.373 58.355,49.477L178.523,169.644Z" style="fill:none;stroke:rgb(241,93,42);stroke-width:0.22px;"/>
        <path d="M168.587,179.581L48.419,59.413C35.315,74.748 28.259,94.333 28.259,114.493C28.259,161.725 66.275,199.741 113.507,199.741C133.667,199.741 153.251,192.685 168.587,179.581Z" style="fill:rgb(0,104,178);fill-rule:nonzero;"/>
        <path d="M168.587,179.581L48.419,59.413C35.315,74.748 28.259,94.333 28.259,114.493C28.259,161.725 66.275,199.741 113.507,199.741C133.667,199.741 153.251,192.685 168.587,179.581Z" style="fill:none;stroke:rgb(241,93,42);stroke-width:0.22px;"/>
    </g>
</svg>
