<?xml version="1.0" encoding="UTF-8" standalone="no"?>
<!DOCTYPE svg PUBLIC "-//W3C//DTD SVG 1.1//EN" "http://www.w3.org/Graphics/SVG/1.1/DTD/svg11.dtd">
<svg width="100%" height="100%" viewBox="0 0 298 397" version="1.1" xmlns="http://www.w3.org/2000/svg" xmlns:xlink="http://www.w3.org/1999/xlink" xml:space="preserve" xmlns:serif="http://www.serif.com/" style="fill-rule:evenodd;clip-rule:evenodd;stroke-linecap:round;stroke-linejoin:round;stroke-miterlimit:2;">
    <g>
        <path d="M3.644,379.482L3.644,17.788C3.644,14.108 5.106,10.579 7.708,7.977C10.31,5.376 13.838,3.914 17.518,3.914L280.118,3.914C287.78,3.914 293.992,10.126 293.992,17.788L293.992,379.482C293.992,383.162 292.53,386.691 289.929,389.292C287.327,391.894 283.798,393.356 280.118,393.356L17.518,393.356C9.856,393.356 3.644,387.144 3.644,379.482Z" style="fill:rgb(35,31,32);fill-rule:nonzero;"/>
        <path d="M3.644,379.482L3.644,17.788C3.644,14.108 5.106,10.579 7.708,7.977C10.31,5.376 13.838,3.914 17.518,3.914L280.118,3.914C287.78,3.914 293.992,10.126 293.992,17.788L293.992,379.482C293.992,383.162 292.53,386.691 289.929,389.292C287.327,391.894 283.798,393.356 280.118,393.356L17.518,393.356C9.856,393.356 3.644,387.144 3.644,379.482Z" style="fill:none;stroke:rgb(35,31,32);stroke-width:0.35px;"/>
        <path d="M10.581,379.482L10.581,17.788C10.581,15.948 11.312,14.184 12.613,12.883C13.914,11.582 15.678,10.851 17.518,10.851L280.118,10.851C281.958,10.851 283.723,11.582 285.024,12.883C286.325,14.184 287.056,15.948 287.056,17.788L287.056,379.482C287.056,383.314 283.95,386.419 280.118,386.419L17.518,386.419C15.678,386.419 13.914,385.688 12.613,384.387C11.312,383.086 10.581,381.323 10.581,379.482Z" style="fill:white;fill-rule:nonzero;"/>
        <path d="M10.581,379.482L10.581,17.788C10.581,15.948 11.312,14.184 12.613,12.883C13.914,11.582 15.678,10.851 17.518,10.851L280.118,10.851C281.958,10.851 283.723,11.582 285.024,12.883C286.325,14.184 287.056,15.948 287.056,17.788L287.056,379.482C287.056,383.314 283.95,386.419 280.118,386.419L17.518,386.419C15.678,386.419 13.914,385.688 12.613,384.387C11.312,383.086 10.581,381.323 10.581,379.482Z" style="fill:none;stroke:white;stroke-width:0.35px;"/>
        <path d="M87.984,93.016C76.6,96.327 64.315,93.774 55.193,86.201L61.535,78.562C67.764,83.734 76.06,85.681 83.94,83.818C87.366,83.008 89.881,80.084 90.169,76.574C90.457,73.065 88.452,69.769 85.203,68.412C83.523,67.711 81.791,67.142 80.022,66.71L73.894,65.216C70.946,64.497 68.135,63.302 65.571,61.679C60.447,58.433 57.467,52.68 57.773,46.622C58.079,40.564 61.623,35.14 67.048,32.428C68.379,31.762 69.764,31.213 71.189,30.785C79.102,28.412 87.622,29.147 95.01,32.841C96.625,33.648 98.152,34.615 99.572,35.729L93.039,43.611C91.317,42.184 89.333,41.106 87.198,40.439C82.609,39.005 77.68,39.084 73.14,40.663C70.435,41.604 68.544,44.057 68.322,46.911C68.1,49.766 69.589,52.481 72.116,53.829C73.417,54.523 74.798,55.053 76.229,55.406L82.542,56.967C85.238,57.633 87.867,58.548 90.395,59.7C97.172,62.788 101.313,69.767 100.776,77.196C100.238,84.625 95.136,90.935 87.984,93.016Z" style="fill:rgb(187,177,163);fill-rule:nonzero;"/>
        <path d="M87.984,93.016C76.6,96.327 64.315,93.774 55.193,86.201L61.535,78.562C67.764,83.734 76.06,85.681 83.94,83.818C87.366,83.008 89.881,80.084 90.169,76.574C90.457,73.065 88.452,69.769 85.203,68.412C83.523,67.711 81.791,67.142 80.022,66.71L73.894,65.216C70.946,64.497 68.135,63.302 65.571,61.679C60.447,58.433 57.467,52.68 57.773,46.622C58.079,40.564 61.623,35.14 67.048,32.428C68.379,31.762 69.764,31.213 71.189,30.785C79.102,28.412 87.622,29.147 95.01,32.841C96.625,33.648 98.152,34.615 99.572,35.729L93.039,43.611C91.317,42.184 89.333,41.106 87.198,40.439C82.609,39.005 77.68,39.084 73.14,40.663C70.435,41.604 68.544,44.057 68.322,46.911C68.1,49.766 69.589,52.481 72.116,53.829C73.417,54.523 74.798,55.053 76.229,55.406L82.542,56.967C85.238,57.633 87.867,58.548 90.395,59.7C97.172,62.788 101.313,69.767 100.776,77.196C100.238,84.625 95.136,90.935 87.984,93.016Z" style="fill:none;stroke:rgb(187,177,163);stroke-width:0.35px;"/>
        <path d="M112.08,61.651C110.632,67.648 110.632,73.904 112.08,79.9C114.126,88.378 121.712,94.351 130.434,94.351C139.154,94.351 146.74,88.378 148.787,79.9C150.235,73.904 150.235,67.648 148.787,61.651C146.74,53.175 139.154,47.202 130.434,47.202C121.712,47.202 114.126,53.175 112.08,61.651Z" style="fill:rgb(187,177,163);fill-rule:nonzero;"/>
        <path d="M112.08,61.651C110.632,67.648 110.632,73.904 112.08,79.9C114.126,88.378 121.712,94.351 130.434,94.351C139.154,94.351 146.74,88.378 148.787,79.9C150.235,73.904 150.235,67.648 148.787,61.651C146.74,53.175 139.154,47.202 130.434,47.202C121.712,47.202 114.126,53.175 112.08,61.651Z" style="fill:none;stroke:rgb(187,177,163);stroke-width:0.35px;"/>
        <path d="M121.496,62.702C119.994,67.98 119.994,73.572 121.496,78.851C122.633,82.845 126.281,85.6 130.434,85.6C134.586,85.6 138.234,82.845 139.37,78.851C140.872,73.572 140.872,67.98 139.37,62.702C138.234,58.708 134.586,55.953 130.434,55.953C126.281,55.953 122.633,58.708 121.496,62.702Z" style="fill:white;fill-rule:nonzero;"/>
        <path d="M121.496,62.702C119.994,67.98 119.994,73.572 121.496,78.851C122.633,82.845 126.281,85.6 130.434,85.6C134.586,85.6 138.234,82.845 139.37,78.851C140.872,73.572 140.872,67.98 139.37,62.702C138.234,58.708 134.586,55.953 130.434,55.953C126.281,55.953 122.633,58.708 121.496,62.702Z" style="fill:none;stroke:white;stroke-width:0.29px;"/>
        <path d="M195.33,93.1L195.33,62.829C195.33,58.684 193.684,54.709 190.753,51.779C187.822,48.849 183.848,47.202 179.704,47.202C175.589,47.202 171.604,48.652 168.452,51.298L168.452,48.453L159.076,48.453L159.076,93.1L168.452,93.1L168.452,64.704C168.452,61.577 170.12,58.688 172.827,57.125C175.535,55.562 178.871,55.562 181.579,57.125C184.286,58.688 185.954,61.577 185.954,64.704L185.954,93.1L195.33,93.1Z" style="fill:rgb(187,177,163);fill-rule:nonzero;"/>
        <path d="M195.33,93.1L195.33,62.829C195.33,58.684 193.684,54.709 190.753,51.779C187.822,48.849 183.848,47.202 179.704,47.202C175.589,47.202 171.604,48.652 168.452,51.298L168.452,48.453L159.076,48.453L159.076,93.1L168.452,93.1L168.452,64.704C168.452,61.577 170.12,58.688 172.827,57.125C175.535,55.562 178.871,55.562 181.579,57.125C184.286,58.688 185.954,61.577 185.954,64.704L185.954,93.1L195.33,93.1Z" style="fill:none;stroke:rgb(187,177,163);stroke-width:0.35px;"/>
        <path d="M223.425,94.351C215.146,94.351 207.892,88.811 205.709,80.825C203.912,74.246 203.912,67.306 205.709,60.727C207.892,52.741 215.146,47.202 223.425,47.202C231.704,47.202 238.96,52.741 241.142,60.727C242.202,64.608 242.642,68.633 242.444,72.651L213.798,72.651C213.95,74.97 214.382,77.262 215.085,79.476C216.245,83.108 219.612,85.58 223.425,85.599C227.657,85.599 231.519,83.186 233.376,79.384L241.239,83.222C237.916,90.031 231.003,94.35 223.425,94.351Z" style="fill:rgb(187,177,163);fill-rule:nonzero;"/>
        <path d="M223.425,94.351C215.146,94.351 207.892,88.811 205.709,80.825C203.912,74.246 203.912,67.306 205.709,60.727C207.892,52.741 215.146,47.202 223.425,47.202C231.704,47.202 238.96,52.741 241.142,60.727C242.202,64.608 242.642,68.633 242.444,72.651L213.798,72.651C213.95,74.97 214.382,77.262 215.085,79.476C216.245,83.108 219.612,85.58 223.425,85.599C227.657,85.599 231.519,83.186 233.376,79.384L241.239,83.222C237.916,90.031 231.003,94.35 223.425,94.351Z" style="fill:none;stroke:rgb(187,177,163);stroke-width:0.35px;"/>
        <path d="M215.085,62.076C214.765,63.086 214.5,64.112 214.292,65.15L232.558,65.15C232.351,64.112 232.087,63.086 231.767,62.076C230.612,58.442 227.238,55.973 223.425,55.973C219.612,55.973 216.239,58.442 215.085,62.076Z" style="fill:white;fill-rule:nonzero;"/>
        <path d="M215.085,62.076C214.765,63.086 214.5,64.112 214.292,65.15L232.558,65.15C232.351,64.112 232.087,63.086 231.767,62.076C230.612,58.442 227.238,55.973 223.425,55.973C219.612,55.973 216.239,58.442 215.085,62.076Z" style="fill:none;stroke:white;stroke-width:0.25px;"/>
        <path d="M251.382,360.655L46.255,360.655C41.33,360.655 37.336,356.662 37.336,351.736L37.336,146.61C37.336,141.685 41.33,137.692 46.255,137.692L251.382,137.692C253.747,137.692 256.015,138.631 257.687,140.304C259.359,141.977 260.299,144.245 260.299,146.61L260.299,351.736C260.299,354.101 259.359,356.37 257.687,358.042C256.015,359.714 253.747,360.655 251.382,360.655Z" style="fill:rgb(187,177,163);fill-rule:nonzero;"/>
        <path d="M251.382,360.655L46.255,360.655C41.33,360.655 37.336,356.662 37.336,351.736L37.336,146.61C37.336,141.685 41.33,137.692 46.255,137.692L251.382,137.692C253.747,137.692 256.015,138.631 257.687,140.304C259.359,141.977 260.299,144.245 260.299,146.61L260.299,351.736C260.299,354.101 259.359,356.37 257.687,358.042C256.015,359.714 253.747,360.655 251.382,360.655Z" style="fill:none;stroke:rgb(187,177,163);stroke-width:0.35px;"/>
        <path d="M135.591,269.707L171.249,269.707C197.44,267.848 217.454,245.582 216.518,219.342C215.581,193.103 194.032,172.319 167.776,172.332L108.081,172.332L108.081,334.464L135.591,334.464L135.591,269.707Z" style="fill:white;fill-rule:nonzero;"/>
        <path d="M135.591,269.707L171.249,269.707C197.44,267.848 217.454,245.582 216.518,219.342C215.581,193.103 194.032,172.319 167.776,172.332L108.081,172.332L108.081,334.464L135.591,334.464L135.591,269.707Z" style="fill:none;stroke:white;stroke-width:0.35px;"/>
        <path d="M135.705,243.726L167.146,243.726C178.965,243.673 188.807,234.642 189.87,222.872C190.935,211.1 182.873,200.45 171.255,198.279L135.705,198.279L135.705,243.726Z" style="fill:rgb(187,177,163);fill-rule:nonzero;"/>
        <path d="M135.705,243.726L167.146,243.726C178.965,243.673 188.807,234.642 189.87,222.872C190.935,211.1 182.873,200.45 171.255,198.279L135.705,198.279L135.705,243.726Z" style="fill:none;stroke:rgb(187,177,163);stroke-width:0.35px;"/>
        <path d="M248.417,10.851L239.233,10.851L10.581,325.786L10.581,338.436L248.417,10.851Z" style="fill:rgb(35,31,32);fill-rule:nonzero;"/>
        <path d="M248.417,10.851L239.233,10.851L10.581,325.786L10.581,338.436L248.417,10.851Z" style="fill:none;stroke:rgb(35,31,32);stroke-width:0.35px;"/>
        <path d="M275.971,10.851L266.786,10.851L10.581,363.737L10.581,376.386L275.971,10.851Z" style="fill:rgb(35,31,32);fill-rule:nonzero;"/>
        <path d="M275.971,10.851L266.786,10.851L10.581,363.737L10.581,376.386L275.971,10.851Z" style="fill:none;stroke:rgb(35,31,32);stroke-width:0.35px;"/>
        <path d="M287.056,33.534L287.056,20.884L21.666,386.419L30.85,386.419L287.056,33.534Z" style="fill:rgb(35,31,32);fill-rule:nonzero;"/>
        <path d="M287.056,33.534L287.056,20.884L21.666,386.419L30.85,386.419L287.056,33.534Z" style="fill:none;stroke:rgb(35,31,32);stroke-width:0.35px;"/>
        <path d="M287.056,71.484L287.056,58.834L49.219,386.419L58.403,386.419L287.056,71.484Z" style="fill:rgb(35,31,32);fill-rule:nonzero;"/>
        <path d="M287.056,71.484L287.056,58.834L49.219,386.419L58.403,386.419L287.056,71.484Z" style="fill:none;stroke:rgb(35,31,32);stroke-width:0.35px;"/>
    </g>
</svg>
