<?xml version="1.0" encoding="UTF-8" standalone="no"?>
<!DOCTYPE svg PUBLIC "-//W3C//DTD SVG 1.1//EN" "http://www.w3.org/Graphics/SVG/1.1/DTD/svg11.dtd">
<svg width="100%" height="100%" viewBox="0 0 228 228" version="1.1" xmlns="http://www.w3.org/2000/svg" xmlns:xlink="http://www.w3.org/1999/xlink" xml:space="preserve" xmlns:serif="http://www.serif.com/" style="fill-rule:evenodd;clip-rule:evenodd;stroke-miterlimit:2;">
    <g>
        <path d="M227.268,114.42C227.268,51.925 176.076,0.732 113.58,0.732C51.299,0.732 0.107,51.925 0.107,114.42C0.107,176.701 51.299,227.893 113.58,227.893C176.076,227.893 227.268,176.701 227.268,114.42Z" style="fill:rgb(0,64,128);fill-rule:nonzero;"/>
        <path d="M227.268,114.42C227.268,51.925 176.076,0.732 113.58,0.732C51.299,0.732 0.107,51.925 0.107,114.42C0.107,176.701 51.299,227.893 113.58,227.893C176.076,227.893 227.268,176.701 227.268,114.42Z" style="fill:none;stroke:rgb(0,64,128);stroke-width:0.22px;"/>
        <path d="M223.308,114.42C223.308,53.869 174.131,4.693 113.58,4.693C53.243,4.693 4.067,53.869 4.067,114.42C4.067,174.757 53.243,223.933 113.58,223.933C174.131,223.933 223.308,174.757 223.308,114.42Z" style="fill:none;stroke:white;stroke-width:3.96px;"/>
        <path d="M201.419,76.909L145.979,38.245C145.691,37.957 145.403,37.957 145.116,37.957C144.251,37.957 143.389,38.533 143.389,39.684L143.389,39.973L147.924,65.245L120.635,65.245C91.619,65.245 68.075,88.861 68.075,117.876L68.075,189.805L95.075,189.805L95.075,117.876C95.075,103.909 106.452,92.245 120.635,92.245L147.924,92.245L143.389,117.876L143.389,118.165C143.389,119.029 144.251,119.821 145.116,119.821C145.403,119.821 145.691,119.821 145.979,119.604L201.419,80.941C201.996,80.365 202.284,79.789 202.284,78.925C202.284,78.061 201.996,77.485 201.419,76.909Z" style="fill:white;fill-rule:nonzero;"/>
        <path d="M201.419,76.909L145.979,38.245C145.691,37.957 145.403,37.957 145.116,37.957C144.251,37.957 143.389,38.533 143.389,39.684L143.389,39.973L147.924,65.245L120.635,65.245C91.619,65.245 68.075,88.861 68.075,117.876L68.075,189.805L95.075,189.805L95.075,117.876C95.075,103.909 106.452,92.245 120.635,92.245L147.924,92.245L143.389,117.876L143.389,118.165C143.389,119.029 144.251,119.821 145.116,119.821C145.403,119.821 145.691,119.821 145.979,119.604L201.419,80.941C201.996,80.365 202.284,79.789 202.284,78.925C202.284,78.061 201.996,77.485 201.419,76.909Z" style="fill:none;stroke:white;stroke-width:0.22px;"/>
    </g>
</svg>
