<?xml version="1.0" encoding="UTF-8" standalone="no"?>
<!DOCTYPE svg PUBLIC "-//W3C//DTD SVG 1.1//EN" "http://www.w3.org/Graphics/SVG/1.1/DTD/svg11.dtd">
<svg width="100%" height="100%" viewBox="0 0 229 229" version="1.1" xmlns="http://www.w3.org/2000/svg" xmlns:xlink="http://www.w3.org/1999/xlink" xml:space="preserve" xmlns:serif="http://www.serif.com/" style="fill-rule:evenodd;clip-rule:evenodd;stroke-miterlimit:2;">
    <g>
        <path d="M228.348,114.916C228.348,52.061 176.939,0.653 114.083,0.653C51.515,0.653 0.107,52.061 0.107,114.916C0.107,177.484 51.515,228.892 114.083,228.892C176.939,228.892 228.348,177.484 228.348,114.916Z" style="fill:rgb(0,64,128);fill-rule:nonzero;"/>
        <path d="M228.348,114.916C228.348,52.061 176.939,0.653 114.083,0.653C51.515,0.653 0.107,52.061 0.107,114.916C0.107,177.484 51.515,228.892 114.083,228.892C176.939,228.892 228.348,177.484 228.348,114.916Z" style="fill:none;stroke:rgb(0,64,128);stroke-width:0.22px;"/>
        <path d="M22.643,101.236L154.908,101.236L150.372,75.749C150.083,74.668 150.949,73.805 152.1,73.805C152.389,73.805 152.675,73.805 152.963,74.093L208.332,112.9C208.908,113.476 209.483,114.052 209.483,114.916C209.483,115.78 208.908,116.356 208.332,116.932L152.963,155.74C151.812,156.604 150.372,155.74 150.372,154.3L150.372,154.084L154.908,128.308L22.643,128.308L22.643,101.236Z" style="fill:white;fill-rule:nonzero;"/>
        <path d="M22.643,101.236L154.908,101.236L150.372,75.749C150.083,74.668 150.949,73.805 152.1,73.805C152.389,73.805 152.675,73.805 152.963,74.093L208.332,112.9C208.908,113.476 209.483,114.052 209.483,114.916C209.483,115.78 208.908,116.356 208.332,116.932L152.963,155.74C151.812,156.604 150.372,155.74 150.372,154.3L150.372,154.084L154.908,128.308L22.643,128.308L22.643,101.236Z" style="fill:none;stroke:white;stroke-width:0.22px;"/>
        <path d="M224.315,114.916C224.315,54.077 174.924,4.684 114.083,4.684C53.531,4.684 4.139,54.077 4.139,114.916C4.139,175.468 53.531,224.86 114.083,224.86C174.924,224.86 224.315,175.468 224.315,114.916Z" style="fill:none;stroke:white;stroke-width:3.96px;"/>
    </g>
</svg>
