<?xml version="1.0" encoding="UTF-8" standalone="no"?>
<!DOCTYPE svg PUBLIC "-//W3C//DTD SVG 1.1//EN" "http://www.w3.org/Graphics/SVG/1.1/DTD/svg11.dtd">
<svg width="100%" height="100%" viewBox="0 0 228 228" version="1.1" xmlns="http://www.w3.org/2000/svg" xmlns:xlink="http://www.w3.org/1999/xlink" xml:space="preserve" xmlns:serif="http://www.serif.com/" style="fill-rule:evenodd;clip-rule:evenodd;stroke-miterlimit:2;">
    <g>
        <path d="M227.268,114.42C227.268,51.925 176.076,0.732 113.58,0.732C51.299,0.732 0.107,51.925 0.107,114.42C0.107,176.701 51.299,227.893 113.58,227.893C176.076,227.893 227.268,176.701 227.268,114.42Z" style="fill:rgb(0,64,128);fill-rule:nonzero;"/>
        <path d="M227.268,114.42C227.268,51.925 176.076,0.732 113.58,0.732C51.299,0.732 0.107,51.925 0.107,114.42C0.107,176.701 51.299,227.893 113.58,227.893C176.076,227.893 227.268,176.701 227.268,114.42Z" style="fill:none;stroke:rgb(0,64,128);stroke-width:0.22px;"/>
        <path d="M204.516,100.812L72.899,100.812L77.435,75.541L77.435,75.253C77.435,74.101 76.859,73.525 75.707,73.525C75.419,73.525 75.131,73.525 74.915,73.813L19.691,112.477C19.187,113.053 18.611,113.628 18.611,114.42C18.611,115.285 19.187,115.861 19.691,116.437L74.915,155.101C75.131,155.389 75.419,155.389 75.707,155.389C76.859,155.389 77.435,154.812 77.435,153.661L77.435,153.373L72.899,127.812L204.516,127.812L204.516,100.812Z" style="fill:white;fill-rule:nonzero;"/>
        <path d="M204.516,100.812L72.899,100.812L77.435,75.541L77.435,75.253C77.435,74.101 76.859,73.525 75.707,73.525C75.419,73.525 75.131,73.525 74.915,73.813L19.691,112.477C19.187,113.053 18.611,113.628 18.611,114.42C18.611,115.285 19.187,115.861 19.691,116.437L74.915,155.101C75.131,155.389 75.419,155.389 75.707,155.389C76.859,155.389 77.435,154.812 77.435,153.661L77.435,153.373L72.899,127.812L204.516,127.812L204.516,100.812Z" style="fill:none;stroke:white;stroke-width:0.22px;"/>
        <path d="M223.308,114.42C223.308,53.869 174.131,4.693 113.58,4.693C53.243,4.693 4.067,53.869 4.067,114.42C4.067,174.757 53.243,223.933 113.58,223.933C174.131,223.933 223.308,174.757 223.308,114.42Z" style="fill:none;stroke:white;stroke-width:3.96px;"/>
    </g>
</svg>
