<?xml version="1.0" encoding="UTF-8" standalone="no"?>
<!DOCTYPE svg PUBLIC "-//W3C//DTD SVG 1.1//EN" "http://www.w3.org/Graphics/SVG/1.1/DTD/svg11.dtd">
<svg width="100%" height="100%" viewBox="0 0 228 228" version="1.1" xmlns="http://www.w3.org/2000/svg" xmlns:xlink="http://www.w3.org/1999/xlink" xml:space="preserve" xmlns:serif="http://www.serif.com/" style="fill-rule:evenodd;clip-rule:evenodd;stroke-miterlimit:2;">
    <g>
        <path d="M227.268,114.42C227.268,51.925 176.076,0.732 113.58,0.732C51.299,0.732 0.107,51.925 0.107,114.42C0.107,176.701 51.299,227.893 113.58,227.893C176.076,227.893 227.268,176.701 227.268,114.42Z" style="fill:rgb(0,64,128);fill-rule:nonzero;"/>
        <path d="M227.268,114.42C227.268,51.925 176.076,0.732 113.58,0.732C51.299,0.732 0.107,51.925 0.107,114.42C0.107,176.701 51.299,227.893 113.58,227.893C176.076,227.893 227.268,176.701 227.268,114.42Z" style="fill:none;stroke:rgb(0,64,128);stroke-width:0.22px;"/>
        <path d="M223.308,114.42C223.308,53.869 174.131,4.693 113.58,4.693C53.243,4.693 4.067,53.869 4.067,114.42C4.067,174.757 53.243,223.933 113.58,223.933C174.131,223.933 223.308,174.757 223.308,114.42Z" style="fill:none;stroke:white;stroke-width:3.96px;"/>
        <path d="M25.667,76.909L81.107,38.245C81.971,37.381 83.699,38.245 83.699,39.684L83.699,39.973L79.163,65.245L106.452,65.245C135.467,65.533 159.011,88.861 159.011,117.876L159.011,189.805L132.011,189.805L132.011,117.876C132.011,103.909 120.635,92.533 106.452,92.245L79.163,92.245L83.699,117.876L83.699,118.165C83.699,119.029 82.835,119.821 81.971,119.821C81.683,119.821 81.395,119.821 81.107,119.604L25.667,80.941C24.587,80.077 24.587,77.773 25.667,76.909Z" style="fill:white;fill-rule:nonzero;"/>
        <path d="M25.667,76.909L81.107,38.245C81.971,37.381 83.699,38.245 83.699,39.684L83.699,39.973L79.163,65.245L106.452,65.245C135.467,65.533 159.011,88.861 159.011,117.876L159.011,189.805L132.011,189.805L132.011,117.876C132.011,103.909 120.635,92.533 106.452,92.245L79.163,92.245L83.699,117.876L83.699,118.165C83.699,119.029 82.835,119.821 81.971,119.821C81.683,119.821 81.395,119.821 81.107,119.604L25.667,80.941C24.587,80.077 24.587,77.773 25.667,76.909Z" style="fill:none;stroke:white;stroke-width:0.22px;"/>
    </g>
</svg>
