<?xml version="1.0" encoding="UTF-8" standalone="no"?>
<!DOCTYPE svg PUBLIC "-//W3C//DTD SVG 1.1//EN" "http://www.w3.org/Graphics/SVG/1.1/DTD/svg11.dtd">
<svg width="100%" height="100%" viewBox="0 0 228 228" version="1.1" xmlns="http://www.w3.org/2000/svg" xmlns:xlink="http://www.w3.org/1999/xlink" xml:space="preserve" xmlns:serif="http://www.serif.com/" style="fill-rule:evenodd;clip-rule:evenodd;stroke-miterlimit:2;">
    <g>
        <path d="M227.195,114.492C227.195,51.997 176.003,0.804 113.508,0.804C51.299,0.804 0.107,51.997 0.107,114.492C0.107,176.7 51.299,227.892 113.508,227.892C176.003,227.892 227.195,176.7 227.195,114.492Z" style="fill:rgb(0,64,128);fill-rule:nonzero;"/>
        <path d="M227.195,114.492C227.195,51.997 176.003,0.804 113.508,0.804C51.299,0.804 0.107,51.997 0.107,114.492C0.107,176.7 51.299,227.892 113.508,227.892C176.003,227.892 227.195,176.7 227.195,114.492Z" style="fill:none;stroke:rgb(0,64,128);stroke-width:0.22px;"/>
        <path d="M58.643,40.621L151.883,133.5L166.644,112.476C167.507,111.108 169.235,111.613 169.523,113.052L181.188,179.292C181.188,179.58 181.403,179.58 181.403,179.868C181.403,181.308 180.324,182.388 178.883,182.388C178.596,182.388 178.596,182.1 178.308,182.1L112.068,170.509C110.7,170.22 110.124,168.492 111.492,167.628L132.587,152.868L39.635,59.629L58.643,40.621Z" style="fill:white;fill-rule:nonzero;"/>
        <path d="M58.643,40.621L151.883,133.5L166.644,112.476C167.507,111.108 169.235,111.613 169.523,113.052L181.188,179.292C181.188,179.58 181.403,179.58 181.403,179.868C181.403,181.308 180.324,182.388 178.883,182.388C178.596,182.388 178.596,182.1 178.308,182.1L112.068,170.509C110.7,170.22 110.124,168.492 111.492,167.628L132.587,152.868L39.635,59.629L58.643,40.621Z" style="fill:none;stroke:white;stroke-width:0.22px;"/>
        <path d="M223.235,114.492C223.235,53.941 174.06,4.765 113.508,4.765C53.243,4.765 4.067,53.941 4.067,114.492C4.067,174.757 53.243,223.932 113.508,223.932C174.06,223.932 223.235,174.757 223.235,114.492Z" style="fill:none;stroke:white;stroke-width:3.96px;"/>
    </g>
</svg>
