<?xml version="1.0" encoding="UTF-8" standalone="no"?>
<!DOCTYPE svg PUBLIC "-//W3C//DTD SVG 1.1//EN" "http://www.w3.org/Graphics/SVG/1.1/DTD/svg11.dtd">
<svg width="100%" height="100%" viewBox="0 0 228 228" version="1.1" xmlns="http://www.w3.org/2000/svg" xmlns:xlink="http://www.w3.org/1999/xlink" xml:space="preserve" xmlns:serif="http://www.serif.com/" style="fill-rule:evenodd;clip-rule:evenodd;stroke-linecap:round;stroke-linejoin:round;stroke-miterlimit:2;">
    <g>
        <path d="M227.295,114.284C227.295,51.556 176.444,0.705 113.715,0.705C50.986,0.705 0.135,51.556 0.135,114.284C0.135,177.012 50.986,227.864 113.715,227.864C176.444,227.864 227.295,177.012 227.295,114.284Z" style="fill:rgb(0,64,128);fill-rule:nonzero;"/>
        <path d="M227.295,114.284C227.295,51.556 176.444,0.705 113.715,0.705C50.986,0.705 0.135,51.556 0.135,114.284C0.135,177.012 50.986,227.864 113.715,227.864C176.444,227.864 227.295,177.012 227.295,114.284Z" style="fill:none;stroke:rgb(0,64,128);stroke-width:0.27px;"/>
        <path d="M192.225,129.135C186.037,117.857 178.987,107.074 171.138,96.883C170.861,96.524 170.425,96.323 169.973,96.345C169.52,96.367 169.106,96.61 168.866,96.995C162.536,107.146 155.48,116.827 147.752,125.96C147.538,126.214 147.499,126.572 147.653,126.867C147.808,127.161 148.125,127.332 148.457,127.299C153.032,126.844 157.592,126.239 162.128,125.485C156.892,148.114 136.68,164.097 113.455,163.975L113.361,181.863C146.117,182.035 174.279,158.693 180.188,126.474C183.887,127.694 187.568,128.968 191.23,130.297C191.549,130.411 191.907,130.318 192.128,130.06C192.35,129.801 192.388,129.433 192.225,129.135Z" style="fill:white;fill-rule:nonzero;"/>
        <path d="M192.225,129.135C186.037,117.857 178.987,107.074 171.138,96.883C170.861,96.524 170.425,96.323 169.973,96.345C169.52,96.367 169.106,96.61 168.866,96.995C162.536,107.146 155.48,116.827 147.752,125.96C147.538,126.214 147.499,126.572 147.653,126.867C147.808,127.161 148.125,127.332 148.457,127.299C153.032,126.844 157.592,126.239 162.128,125.485C156.892,148.114 136.68,164.097 113.455,163.975L113.361,181.863C146.117,182.035 174.279,158.693 180.188,126.474C183.887,127.694 187.568,128.968 191.23,130.297C191.549,130.411 191.907,130.318 192.128,130.06C192.35,129.801 192.388,129.433 192.225,129.135Z" style="fill:none;stroke:white;stroke-width:0.27px;"/>
        <path d="M173.106,82.039L157.385,90.575C146.507,70.54 123.393,60.477 101.317,66.165C103.803,68.925 106.216,71.751 108.553,74.639C108.762,74.898 108.794,75.257 108.633,75.548C108.472,75.839 108.15,76.003 107.82,75.963C95.944,74.519 83.979,73.936 72.019,74.218C71.565,74.229 71.136,74.017 70.868,73.651C70.601,73.285 70.53,72.81 70.678,72.382C74.887,60.226 80.029,48.413 86.058,37.05C86.218,36.75 86.546,36.579 86.883,36.623C87.22,36.666 87.495,36.913 87.574,37.244C88.639,41.727 89.782,46.192 91.003,50.635C122.37,39.442 157.215,52.771 173.106,82.039Z" style="fill:white;fill-rule:nonzero;"/>
        <path d="M173.106,82.039L157.385,90.575C146.507,70.54 123.393,60.477 101.317,66.165C103.803,68.925 106.216,71.751 108.553,74.639C108.762,74.898 108.794,75.257 108.633,75.548C108.472,75.839 108.15,76.003 107.82,75.963C95.944,74.519 83.979,73.936 72.019,74.218C71.565,74.229 71.136,74.017 70.868,73.651C70.601,73.285 70.53,72.81 70.678,72.382C74.887,60.226 80.029,48.413 86.058,37.05C86.218,36.75 86.546,36.579 86.883,36.623C87.22,36.666 87.495,36.913 87.574,37.244C88.639,41.727 89.782,46.192 91.003,50.635C122.37,39.442 157.215,52.771 173.106,82.039Z" style="fill:none;stroke:white;stroke-width:0.27px;"/>
        <path d="M61.686,176.827C61.445,177.067 61.377,177.431 61.517,177.74C61.656,178.05 61.973,178.242 62.312,178.221C75.151,177.424 87.91,175.636 100.474,172.873C100.917,172.776 101.284,172.468 101.457,172.048C101.629,171.629 101.585,171.152 101.339,170.77C94.849,160.72 89.094,150.215 84.121,139.334C83.982,139.031 83.674,138.843 83.342,138.858C83.01,138.872 82.72,139.088 82.609,139.401C81.367,142.902 80.219,146.436 79.165,149.999C62.78,134.148 59.283,109.181 70.681,89.439L55.189,80.494C38.537,109.336 45.379,146.009 71.312,166.906C68.161,170.269 64.951,173.576 61.686,176.827Z" style="fill:white;fill-rule:nonzero;"/>
        <path d="M61.686,176.827C61.445,177.067 61.377,177.431 61.517,177.74C61.656,178.05 61.973,178.242 62.312,178.221C75.151,177.424 87.91,175.636 100.474,172.873C100.917,172.776 101.284,172.468 101.457,172.048C101.629,171.629 101.585,171.152 101.339,170.77C94.849,160.72 89.094,150.215 84.121,139.334C83.982,139.031 83.674,138.843 83.342,138.858C83.01,138.872 82.72,139.088 82.609,139.401C81.367,142.902 80.219,146.436 79.165,149.999C62.78,134.148 59.283,109.181 70.681,89.439L55.189,80.494C38.537,109.336 45.379,146.009 71.312,166.906C68.161,170.269 64.951,173.576 61.686,176.827Z" style="fill:none;stroke:white;stroke-width:0.27px;"/>
        <path d="M223.32,114.284C223.32,53.752 174.249,4.68 113.715,4.68C53.182,4.68 4.11,53.752 4.11,114.284C4.11,174.817 53.182,223.889 113.715,223.889C174.249,223.889 223.32,174.817 223.32,114.284Z" style="fill:none;stroke:white;stroke-width:4px;"/>
    </g>
</svg>
