<?xml version="1.0" encoding="UTF-8" standalone="no"?>
<!DOCTYPE svg PUBLIC "-//W3C//DTD SVG 1.1//EN" "http://www.w3.org/Graphics/SVG/1.1/DTD/svg11.dtd">
<svg width="100%" height="100%" viewBox="0 0 202 280" version="1.1" xmlns="http://www.w3.org/2000/svg" xmlns:xlink="http://www.w3.org/1999/xlink" xml:space="preserve" xmlns:serif="http://www.serif.com/" style="fill-rule:evenodd;clip-rule:evenodd;stroke-miterlimit:2;">
    <g>
        <path d="M0.107,270.964C0.107,276.004 3.995,279.892 9.035,279.892L192.42,279.892C197.459,279.892 201.347,276.004 201.347,270.964L201.347,9.317C201.347,4.277 197.459,0.389 192.42,0.389L9.035,0.389C3.995,0.389 0.107,4.277 0.107,9.317L0.107,270.964Z" style="fill:white;fill-rule:nonzero;"/>
        <path d="M0.107,270.964C0.107,276.004 3.995,279.892 9.035,279.892L192.42,279.892C197.459,279.892 201.347,276.004 201.347,270.964L201.347,9.317C201.347,4.277 197.459,0.389 192.42,0.389L9.035,0.389C3.995,0.389 0.107,4.277 0.107,9.317L0.107,270.964Z" style="fill:none;stroke:rgb(0,64,128);stroke-width:0.22px;"/>
        <path d="M4.571,270.964C4.571,273.484 6.515,275.428 9.035,275.428L192.42,275.428C194.939,275.428 196.883,273.484 196.883,270.964L196.883,9.317C196.883,6.796 194.939,4.853 192.42,4.853L9.035,4.853C6.515,4.853 4.571,6.796 4.571,9.317L4.571,270.964Z" style="fill:rgb(0,64,128);fill-rule:nonzero;"/>
        <path d="M4.571,270.964C4.571,273.484 6.515,275.428 9.035,275.428L192.42,275.428C194.939,275.428 196.883,273.484 196.883,270.964L196.883,9.317C196.883,6.796 194.939,4.853 192.42,4.853L9.035,4.853C6.515,4.853 4.571,6.796 4.571,9.317L4.571,270.964Z" style="fill:none;stroke:white;stroke-width:0.22px;"/>
        <path d="M131.507,129.268L108.827,129.268L112.499,251.668L151.019,251.668L131.507,129.268Z" style="fill:white;fill-rule:nonzero;"/>
        <path d="M131.507,129.268L108.827,129.268L112.499,251.668L151.019,251.668L131.507,129.268Z" style="fill:none;stroke:white;stroke-width:0.22px;"/>
        <path d="M93.707,129.268L90.107,251.668L51.227,251.668L70.811,129.268L93.707,129.268Z" style="fill:white;fill-rule:nonzero;"/>
        <path d="M93.707,129.268L90.107,251.668L51.227,251.668L70.811,129.268L93.707,129.268Z" style="fill:none;stroke:white;stroke-width:0.22px;"/>
        <path d="M113.579,17.741L105.516,17.741L107.747,101.26L126.755,101.26L113.579,17.741Z" style="fill:white;fill-rule:nonzero;"/>
        <path d="M113.579,17.741L105.516,17.741L107.747,101.26L126.755,101.26L113.579,17.741Z" style="fill:none;stroke:white;stroke-width:0.22px;"/>
        <path d="M59.651,112.492L62.171,129.268L48.491,129.268L51.227,112.492L17.963,112.492L17.963,106.876L184.283,106.876L184.283,112.492L151.019,112.492L153.827,129.268L139.859,129.268L142.667,112.492L59.651,112.492Z" style="fill:white;fill-rule:nonzero;"/>
        <path d="M59.651,112.492L62.171,129.268L48.491,129.268L51.227,112.492L17.963,112.492L17.963,106.876L184.283,106.876L184.283,112.492L151.019,112.492L153.827,129.268L139.859,129.268L142.667,112.492L59.651,112.492Z" style="fill:none;stroke:white;stroke-width:0.22px;"/>
        <path d="M94.571,101.26L75.275,101.26L88.451,17.741L96.803,17.741L94.571,101.26Z" style="fill:white;fill-rule:nonzero;"/>
        <path d="M94.571,101.26L75.275,101.26L88.451,17.741L96.803,17.741L94.571,101.26Z" style="fill:none;stroke:white;stroke-width:0.22px;"/>
    </g>
</svg>
