<?xml version="1.0" encoding="UTF-8" standalone="no"?>
<!DOCTYPE svg PUBLIC "-//W3C//DTD SVG 1.1//EN" "http://www.w3.org/Graphics/SVG/1.1/DTD/svg11.dtd">
<svg width="100%" height="100%" viewBox="0 0 202 280" version="1.1" xmlns="http://www.w3.org/2000/svg" xmlns:xlink="http://www.w3.org/1999/xlink" xml:space="preserve" xmlns:serif="http://www.serif.com/" style="fill-rule:evenodd;clip-rule:evenodd;stroke-miterlimit:2;">
    <g>
        <path d="M0.107,270.964C0.107,275.932 4.139,279.892 9.035,279.892L192.491,279.892C197.387,279.892 201.419,275.86 201.419,270.964L201.419,9.245C201.419,4.277 197.387,0.317 192.491,0.317L9.035,0.317C4.139,0.317 0.107,4.277 0.107,9.245L0.107,270.964Z" style="fill:white;fill-rule:nonzero;"/>
        <path d="M0.107,270.964C0.107,275.932 4.139,279.892 9.035,279.892L192.491,279.892C197.387,279.892 201.419,275.86 201.419,270.964L201.419,9.245C201.419,4.277 197.387,0.317 192.491,0.317L9.035,0.317C4.139,0.317 0.107,4.277 0.107,9.245L0.107,270.964Z" style="fill:none;stroke:rgb(0,64,128);stroke-width:0.22px;"/>
        <path d="M4.571,270.964C4.571,273.412 6.587,275.428 9.035,275.428L192.491,275.428C194.939,275.428 196.955,273.412 196.955,270.964L196.955,9.245C196.955,6.725 194.939,4.781 192.491,4.781L9.035,4.781C6.587,4.781 4.571,6.725 4.571,9.245L4.571,270.964Z" style="fill:rgb(0,64,128);fill-rule:nonzero;"/>
        <path d="M4.571,270.964C4.571,273.412 6.587,275.428 9.035,275.428L192.491,275.428C194.939,275.428 196.955,273.412 196.955,270.964L196.955,9.245C196.955,6.725 194.939,4.781 192.491,4.781L9.035,4.781C6.587,4.781 4.571,6.725 4.571,9.245L4.571,270.964Z" style="fill:none;stroke:white;stroke-width:0.22px;"/>
        <path d="M144.035,197.093C146.267,197.956 148.571,198.388 150.875,198.388C153.323,198.388 155.627,197.956 157.787,197.093L159.371,191.116L159.371,178.732L169.307,178.732L169.307,171.316L32.219,171.316L32.219,178.732L42.155,178.732L42.155,191.116L43.739,197.093C45.899,197.956 48.275,198.388 50.651,198.388C52.955,198.388 55.331,197.956 57.491,197.093L59.075,191.116L59.075,178.732L142.451,178.732L142.451,191.116L144.035,197.093Z" style="fill:white;fill-rule:nonzero;"/>
        <path d="M144.035,197.093C146.267,197.956 148.571,198.388 150.875,198.388C153.323,198.388 155.627,197.956 157.787,197.093L159.371,191.116L159.371,178.732L169.307,178.732L169.307,171.316L32.219,171.316L32.219,178.732L42.155,178.732L42.155,191.116L43.739,197.093C45.899,197.956 48.275,198.388 50.651,198.388C52.955,198.388 55.331,197.956 57.491,197.093L59.075,191.116L59.075,178.732L142.451,178.732L142.451,191.116L144.035,197.093Z" style="fill:none;stroke:white;stroke-width:0.22px;"/>
        <path d="M53.963,85.421L41.435,130.348C35.891,132.867 32.291,138.412 32.219,144.459L32.219,164.62L169.307,164.62L169.307,144.532C169.235,138.412 165.635,132.867 160.091,130.348L148.787,86.069C133.811,82.253 117.971,80.237 102.203,80.237L98.028,80.237C83.267,80.237 68.579,81.965 54.251,85.349L53.963,85.421Z" style="fill:white;fill-rule:nonzero;"/>
        <path d="M53.963,85.421L41.435,130.348C35.891,132.867 32.291,138.412 32.219,144.459L32.219,164.62L169.307,164.62L169.307,144.532C169.235,138.412 165.635,132.867 160.091,130.348L148.787,86.069C133.811,82.253 117.971,80.237 102.203,80.237L98.028,80.237C83.267,80.237 68.579,81.965 54.251,85.349L53.963,85.421Z" style="fill:none;stroke:white;stroke-width:0.22px;"/>
        <path d="M163.763,144.891C163.763,139.492 159.371,135.028 153.899,135.028C148.427,135.028 144.035,139.492 144.035,144.891C144.035,150.292 148.427,154.757 153.899,154.757C159.371,154.757 163.763,150.292 163.763,144.891Z" style="fill:rgb(0,64,128);fill-rule:nonzero;"/>
        <path d="M163.763,144.891C163.763,139.492 159.371,135.028 153.899,135.028C148.427,135.028 144.035,139.492 144.035,144.891C144.035,150.292 148.427,154.757 153.899,154.757C159.371,154.757 163.763,150.292 163.763,144.891Z" style="fill:none;stroke:white;stroke-width:0.22px;"/>
        <path d="M57.635,145.036C57.635,139.636 53.243,135.172 47.771,135.172C42.371,135.172 37.907,139.636 37.907,145.036C37.907,150.436 42.371,154.9 47.771,154.9C53.243,154.9 57.635,150.436 57.635,145.036Z" style="fill:rgb(0,64,128);fill-rule:nonzero;"/>
        <path d="M57.635,145.036C57.635,139.636 53.243,135.172 47.771,135.172C42.371,135.172 37.907,139.636 37.907,145.036C37.907,150.436 42.371,154.9 47.771,154.9C53.243,154.9 57.635,150.436 57.635,145.036Z" style="fill:none;stroke:white;stroke-width:0.22px;"/>
        <path d="M138.492,157.492L138.492,144.316C126.035,141.004 113.076,139.348 100.043,139.348C87.588,139.348 75.203,140.86 63.179,143.956L63.035,157.492L138.492,157.492Z" style="fill:rgb(0,64,128);fill-rule:nonzero;"/>
        <path d="M138.492,157.492L138.492,144.316C126.035,141.004 113.076,139.348 100.043,139.348C87.588,139.348 75.203,140.86 63.179,143.956L63.035,157.492L138.492,157.492Z" style="fill:none;stroke:white;stroke-width:0.22px;"/>
        <path d="M153.971,128.549C136.691,122.717 118.403,119.692 100.043,119.692C82.475,119.692 64.978,122.428 48.203,127.9L57.635,93.341C71.675,90.317 85.931,88.733 100.259,88.805C115.523,88.733 130.643,90.533 145.475,94.061L153.971,128.549Z" style="fill:rgb(0,64,128);fill-rule:nonzero;"/>
        <path d="M153.971,128.549C136.691,122.717 118.403,119.692 100.043,119.692C82.475,119.692 64.978,122.428 48.203,127.9L57.635,93.341C71.675,90.317 85.931,88.733 100.259,88.805C115.523,88.733 130.643,90.533 145.475,94.061L153.971,128.549Z" style="fill:none;stroke:white;stroke-width:0.22px;"/>
    </g>
</svg>
