<?xml version="1.0" encoding="UTF-8" standalone="no"?>
<!DOCTYPE svg PUBLIC "-//W3C//DTD SVG 1.1//EN" "http://www.w3.org/Graphics/SVG/1.1/DTD/svg11.dtd">
<svg width="100%" height="100%" viewBox="0 0 205 284" version="1.1" xmlns="http://www.w3.org/2000/svg" xmlns:xlink="http://www.w3.org/1999/xlink" xml:space="preserve" xmlns:serif="http://www.serif.com/" style="fill-rule:evenodd;clip-rule:evenodd;stroke-miterlimit:2;">
    <g>
        <path d="M0.107,274.821C0.107,279.86 4.139,283.893 9.179,283.893L195.083,283.893C200.123,283.893 204.155,279.86 204.155,274.821L204.155,9.501C204.155,4.533 200.123,0.501 195.155,0.501L9.179,0.501C4.139,0.501 0.107,4.533 0.107,9.501L0.107,274.821Z" style="fill:white;fill-rule:nonzero;"/>
        <path d="M0.107,274.821C0.107,279.86 4.139,283.893 9.179,283.893L195.083,283.893C200.123,283.893 204.155,279.86 204.155,274.821L204.155,9.501C204.155,4.533 200.123,0.501 195.155,0.501L9.179,0.501C4.139,0.501 0.107,4.533 0.107,9.501L0.107,274.821Z" style="fill:none;stroke:rgb(0,64,128);stroke-width:0.22px;"/>
        <path d="M4.643,274.821C4.643,277.341 6.659,279.356 9.179,279.356L195.083,279.356C197.603,279.356 199.691,277.341 199.691,274.821L199.691,9.501C199.691,7.053 197.603,5.037 195.083,5.037L9.179,5.037C6.659,5.037 4.643,7.053 4.643,9.501L4.643,274.821Z" style="fill:rgb(0,64,128);fill-rule:nonzero;"/>
        <path d="M4.643,274.821C4.643,277.341 6.659,279.356 9.179,279.356L195.083,279.356C197.603,279.356 199.691,277.341 199.691,274.821L199.691,9.501C199.691,7.053 197.603,5.037 195.083,5.037L9.179,5.037C6.659,5.037 4.643,7.053 4.643,9.501L4.643,274.821Z" style="fill:none;stroke:white;stroke-width:0.22px;"/>
        <path d="M26.243,279.356L199.691,25.772L199.691,9.501C199.691,7.053 197.603,5.037 195.083,5.037L179.459,5.037L4.643,260.781L4.643,274.821C4.643,277.341 6.659,279.356 9.179,279.356L26.243,279.356Z" style="fill:rgb(211,63,39);fill-rule:nonzero;"/>
        <path d="M26.243,279.356L199.691,25.772L199.691,9.501C199.691,7.053 197.603,5.037 195.083,5.037L179.459,5.037L4.643,260.781L4.643,274.821C4.643,277.341 6.659,279.356 9.179,279.356L26.243,279.356Z" style="fill:none;stroke:rgb(211,63,39);stroke-width:0.22px;"/>
        <path d="M120.635,91.077L126.251,82.868C118.908,82.005 111.275,81.573 103.571,81.573L99.323,81.573C84.419,81.573 69.515,83.229 54.971,86.685L42.011,132.332C36.395,134.852 32.723,140.469 32.651,146.661L32.651,167.037L68.723,167.037L73.619,159.765L63.899,159.765L63.899,146.084C71.171,144.212 78.443,142.989 85.715,142.124L99.827,121.532C82.619,121.676 65.339,124.413 48.851,129.812L58.427,94.82C72.611,91.724 87.083,90.213 101.627,90.213C107.963,90.213 114.444,90.429 120.851,91.077L120.635,91.077Z" style="fill:white;fill-rule:nonzero;"/>
        <path d="M120.635,91.077L126.251,82.868C118.908,82.005 111.275,81.573 103.571,81.573L99.323,81.573C84.419,81.573 69.515,83.229 54.971,86.685L42.011,132.332C36.395,134.852 32.723,140.469 32.651,146.661L32.651,167.037L68.723,167.037L73.619,159.765L63.899,159.765L63.899,146.084C71.171,144.212 78.443,142.989 85.715,142.124L99.827,121.532C82.619,121.676 65.339,124.413 48.851,129.812L58.427,94.82C72.611,91.724 87.083,90.213 101.627,90.213C107.963,90.213 114.444,90.429 120.851,91.077L120.635,91.077Z" style="fill:none;stroke:white;stroke-width:0.22px;"/>
        <path d="M58.427,147.164C58.427,141.692 54.035,137.228 48.491,137.228C42.947,137.228 38.483,141.692 38.483,147.164C38.483,152.637 42.947,157.172 48.491,157.172C54.035,157.172 58.427,152.637 58.427,147.164Z" style="fill:rgb(0,64,128);fill-rule:nonzero;"/>
        <path d="M58.427,147.164C58.427,141.692 54.035,137.228 48.491,137.228C42.947,137.228 38.483,141.692 38.483,147.164C38.483,152.637 42.947,157.172 48.491,157.172C54.035,157.172 58.427,152.637 58.427,147.164Z" style="fill:none;stroke:white;stroke-width:0.22px;"/>
        <path d="M64.115,173.805L32.651,173.805L32.651,181.365L42.731,181.365L42.731,193.821L44.315,199.94C44.819,200.157 45.323,200.372 45.827,200.517L64.115,173.805Z" style="fill:white;fill-rule:nonzero;"/>
        <path d="M64.115,173.805L32.651,173.805L32.651,181.365L42.731,181.365L42.731,193.821L44.315,199.94C44.819,200.157 45.323,200.372 45.827,200.517L64.115,173.805Z" style="fill:none;stroke:white;stroke-width:0.22px;"/>
        <path d="M93.203,181.365L144.395,181.365L144.395,193.821L145.98,199.94C148.283,200.805 150.659,201.236 152.963,201.236C155.411,201.236 157.715,200.805 160.019,199.94L161.603,193.821L161.603,181.365L171.611,181.365L171.611,173.805L98.387,173.805L93.203,181.365Z" style="fill:white;fill-rule:nonzero;"/>
        <path d="M93.203,181.365L144.395,181.365L144.395,193.821L145.98,199.94C148.283,200.805 150.659,201.236 152.963,201.236C155.411,201.236 157.715,200.805 160.019,199.94L161.603,193.821L161.603,181.365L171.611,181.365L171.611,173.805L98.387,173.805L93.203,181.365Z" style="fill:none;stroke:white;stroke-width:0.22px;"/>
        <path d="M148.499,100.58L156.059,130.532C148.427,127.94 140.507,125.781 132.371,124.413L119.843,142.556C126.899,143.42 133.739,144.789 140.579,146.517L140.363,159.765L107.963,159.765L103.067,167.037L171.611,167.037L171.611,146.661C171.539,140.469 167.867,134.852 162.251,132.332L152.675,94.461L148.499,100.58Z" style="fill:white;fill-rule:nonzero;"/>
        <path d="M148.499,100.58L156.059,130.532C148.427,127.94 140.507,125.781 132.371,124.413L119.843,142.556C126.899,143.42 133.739,144.789 140.579,146.517L140.363,159.765L107.963,159.765L103.067,167.037L171.611,167.037L171.611,146.661C171.539,140.469 167.867,134.852 162.251,132.332L152.675,94.461L148.499,100.58Z" style="fill:none;stroke:white;stroke-width:0.22px;"/>
        <path d="M165.995,147.02C165.995,141.549 161.531,137.084 156.059,137.084C150.516,137.084 145.98,141.549 145.98,147.02C145.98,152.564 150.516,157.028 156.059,157.028C161.531,157.028 165.995,152.564 165.995,147.02Z" style="fill:rgb(0,64,128);fill-rule:nonzero;"/>
        <path d="M165.995,147.02C165.995,141.549 161.531,137.084 156.059,137.084C150.516,137.084 145.98,141.549 145.98,147.02C145.98,152.564 150.516,157.028 156.059,157.028C161.531,157.028 165.995,152.564 165.995,147.02Z" style="fill:none;stroke:white;stroke-width:0.22px;"/>
    </g>
</svg>
