<?xml version="1.0" encoding="UTF-8" standalone="no"?>
<!DOCTYPE svg PUBLIC "-//W3C//DTD SVG 1.1//EN" "http://www.w3.org/Graphics/SVG/1.1/DTD/svg11.dtd">
<svg width="100%" height="100%" viewBox="0 0 227 227" version="1.1" xmlns="http://www.w3.org/2000/svg" xmlns:xlink="http://www.w3.org/1999/xlink" xml:space="preserve" xmlns:serif="http://www.serif.com/" style="fill-rule:evenodd;clip-rule:evenodd;stroke-miterlimit:2;">
    <g>
        <path d="M8.027,0.597C3.635,0.597 0.107,4.125 0.107,8.445L0.107,218.972C0.107,223.364 3.635,226.892 8.027,226.892L218.483,226.892C222.875,226.892 226.403,223.364 226.403,218.972L226.403,8.517C226.403,4.125 222.875,0.597 218.555,0.597L8.027,0.597Z" style="fill:white;fill-rule:nonzero;"/>
        <path d="M8.027,0.597C3.635,0.597 0.107,4.125 0.107,8.445L0.107,218.972C0.107,223.364 3.635,226.892 8.027,226.892L218.483,226.892C222.875,226.892 226.403,223.364 226.403,218.972L226.403,8.517C226.403,4.125 222.875,0.597 218.555,0.597L8.027,0.597Z" style="fill:none;stroke:rgb(0,64,128);stroke-width:0.22px;"/>
        <path d="M8.027,4.557C5.867,4.557 4.067,6.357 4.067,8.517L4.067,218.972C4.067,221.133 5.867,222.932 8.027,222.932L218.483,222.932C220.643,222.932 222.443,221.133 222.443,218.972L222.443,8.517C222.443,6.357 220.643,4.557 218.483,4.557L8.027,4.557Z" style="fill:rgb(0,64,128);fill-rule:nonzero;"/>
        <path d="M8.027,4.557C5.867,4.557 4.067,6.357 4.067,8.517L4.067,218.972C4.067,221.133 5.867,222.932 8.027,222.932L218.483,222.932C220.643,222.932 222.443,221.133 222.443,218.972L222.443,8.517C222.443,6.357 220.643,4.557 218.483,4.557L8.027,4.557Z" style="fill:none;stroke:white;stroke-width:0.22px;"/>
        <path d="M73.043,127.388L73.043,138.476L55.547,138.476L55.547,197.012L43.739,197.012L43.739,138.476L26.315,138.476L26.315,127.388L73.043,127.388Z" style="fill:white;fill-rule:nonzero;"/>
        <path d="M73.043,127.388L73.043,138.476L55.547,138.476L55.547,197.012L43.739,197.012L43.739,138.476L26.315,138.476L26.315,127.388L73.043,127.388Z" style="fill:none;stroke:white;stroke-width:0.22px;"/>
        <path d="M106.595,163.388L106.595,165.836L92.195,165.836C83.555,165.836 76.499,172.892 76.499,181.532C76.499,187.292 79.739,192.62 84.779,195.356C88.379,197.301 92.339,198.308 96.444,198.38L96.803,198.38C100.259,198.38 103.715,197.372 106.595,195.5L106.595,197.012L117.035,197.012L117.035,163.677C117.035,154.388 109.908,146.757 100.691,146.036C99.395,145.964 98.1,145.892 96.803,145.892C90.612,145.892 84.491,146.972 78.659,149.133L81.971,158.276C87.588,156.188 93.564,155.324 99.468,155.684C103.427,155.972 106.595,159.356 106.595,163.388Z" style="fill:white;fill-rule:nonzero;"/>
        <path d="M106.595,163.388L106.595,165.836L92.195,165.836C83.555,165.836 76.499,172.892 76.499,181.532C76.499,187.292 79.739,192.62 84.779,195.356C88.379,197.301 92.339,198.308 96.444,198.38L96.803,198.38C100.259,198.38 103.715,197.372 106.595,195.5L106.595,197.012L117.035,197.012L117.035,163.677C117.035,154.388 109.908,146.757 100.691,146.036C99.395,145.964 98.1,145.892 96.803,145.892C90.612,145.892 84.491,146.972 78.659,149.133L81.971,158.276C87.588,156.188 93.564,155.324 99.468,155.684C103.427,155.972 106.595,159.356 106.595,163.388Z" style="fill:none;stroke:white;stroke-width:0.22px;"/>
        <path d="M144.395,197.012L132.227,197.012L148.139,171.308L133.235,147.26L145.547,147.26L154.259,161.301L162.971,147.26L175.283,147.26L160.451,171.308L176.363,197.012L164.051,197.012L154.259,181.172L144.395,197.012Z" style="fill:white;fill-rule:nonzero;"/>
        <path d="M144.395,197.012L132.227,197.012L148.139,171.308L133.235,147.26L145.547,147.26L154.259,161.301L162.971,147.26L175.283,147.26L160.451,171.308L176.363,197.012L164.051,197.012L154.259,181.172L144.395,197.012Z" style="fill:none;stroke:white;stroke-width:0.22px;"/>
        <path d="M204.659,131.852C204.659,128.613 201.995,125.948 198.755,125.948C195.371,125.948 192.707,128.613 192.707,131.852C192.707,135.164 195.371,137.828 198.755,137.828C201.995,137.828 204.659,135.164 204.659,131.852Z" style="fill:white;fill-rule:nonzero;"/>
        <path d="M204.659,131.852C204.659,128.613 201.995,125.948 198.755,125.948C195.371,125.948 192.707,128.613 192.707,131.852C192.707,135.164 195.371,137.828 198.755,137.828C201.995,137.828 204.659,135.164 204.659,131.852Z" style="fill:none;stroke:white;stroke-width:0.22px;"/>
        <rect x="193.427" y="147.26" width="10.44" height="49.752" style="fill:white;"/>
        <rect x="193.427" y="147.26" width="10.44" height="49.752" style="fill:none;stroke:white;stroke-width:0.22px;"/>
        <path d="M170.819,84.261C170.819,77.277 165.059,71.517 158.004,71.517C150.947,71.517 145.331,77.277 145.331,84.261C145.331,91.245 150.947,97.005 158.004,97.005C165.059,97.005 170.819,91.245 170.819,84.261Z" style="fill:white;fill-rule:nonzero;"/>
        <path d="M170.819,84.261C170.819,77.277 165.059,71.517 158.004,71.517C150.947,71.517 145.331,77.277 145.331,84.261C145.331,91.245 150.947,97.005 158.004,97.005C165.059,97.005 170.819,91.245 170.819,84.261Z" style="fill:none;stroke:white;stroke-width:0.22px;"/>
        <path d="M71.747,84.261C71.747,77.277 65.987,71.517 59.003,71.517C52.019,71.517 46.259,77.277 46.259,84.261C46.259,91.245 52.019,97.005 59.003,97.005C65.987,97.005 71.747,91.245 71.747,84.261Z" style="fill:white;fill-rule:nonzero;"/>
        <path d="M71.747,84.261C71.747,77.277 65.987,71.517 59.003,71.517C52.019,71.517 46.259,77.277 46.259,84.261C46.259,91.245 52.019,97.005 59.003,97.005C65.987,97.005 71.747,91.245 71.747,84.261Z" style="fill:none;stroke:white;stroke-width:0.22px;"/>
        <path d="M33.155,29.397C32.579,29.397 32.003,29.829 31.787,30.477L22.067,60.213L22.067,81.885C22.067,83.181 23.075,84.261 24.443,84.261L42.947,84.261C43.019,62.949 74.987,62.949 74.987,84.261L142.019,84.261C142.091,62.949 174.059,62.949 174.059,84.261L207.467,84.261C208.187,84.261 208.835,83.612 208.835,82.82L208.835,32.349C208.835,30.693 207.539,29.397 206.027,29.397L33.155,29.397Z" style="fill:white;fill-rule:nonzero;"/>
        <path d="M33.155,29.397C32.579,29.397 32.003,29.829 31.787,30.477L22.067,60.213L22.067,81.885C22.067,83.181 23.075,84.261 24.443,84.261L42.947,84.261C43.019,62.949 74.987,62.949 74.987,84.261L142.019,84.261C142.091,62.949 174.059,62.949 174.059,84.261L207.467,84.261C208.187,84.261 208.835,83.612 208.835,82.82L208.835,32.349C208.835,30.693 207.539,29.397 206.027,29.397L33.155,29.397Z" style="fill:none;stroke:white;stroke-width:0.22px;"/>
        <path d="M163.043,39.549L163.043,54.237C163.043,54.165 163.043,54.237 163.043,54.237C163.043,55.532 164.051,56.612 165.491,56.612L202.931,56.612C204.299,56.612 205.379,55.532 205.379,54.237L205.379,39.549C205.379,38.253 204.299,37.173 202.931,37.173L165.491,37.173C164.051,37.173 163.043,38.253 163.043,39.549Z" style="fill:rgb(0,64,128);fill-rule:nonzero;"/>
        <path d="M163.043,39.549L163.043,54.237C163.043,54.165 163.043,54.237 163.043,54.237C163.043,55.532 164.051,56.612 165.491,56.612L202.931,56.612C204.299,56.612 205.379,55.532 205.379,54.237L205.379,39.549C205.379,38.253 204.299,37.173 202.931,37.173L165.491,37.173C164.051,37.173 163.043,38.253 163.043,39.549Z" style="fill:none;stroke:white;stroke-width:0.22px;"/>
        <path d="M70.163,39.549L70.163,54.237C70.163,54.165 70.163,54.237 70.163,54.237C70.163,55.532 71.243,56.612 72.611,56.612L110.555,56.612C111.995,56.612 113.004,55.532 113.004,54.237L113.004,39.549C113.004,38.253 111.995,37.173 110.555,37.173L72.611,37.173C71.243,37.173 70.163,38.253 70.163,39.549Z" style="fill:rgb(0,64,128);fill-rule:nonzero;"/>
        <path d="M70.163,39.549L70.163,54.237C70.163,54.165 70.163,54.237 70.163,54.237C70.163,55.532 71.243,56.612 72.611,56.612L110.555,56.612C111.995,56.612 113.004,55.532 113.004,54.237L113.004,39.549C113.004,38.253 111.995,37.173 110.555,37.173L72.611,37.173C71.243,37.173 70.163,38.253 70.163,39.549Z" style="fill:none;stroke:white;stroke-width:0.22px;"/>
        <path d="M116.891,39.549L116.891,54.237C116.891,54.165 116.891,54.237 116.891,54.237C116.891,55.532 117.971,56.612 119.267,56.612L156.779,56.612C158.075,56.612 159.155,55.532 159.155,54.237L159.155,39.549C159.155,38.253 158.075,37.173 156.779,37.173L119.267,37.173C117.971,37.173 116.891,38.253 116.891,39.549Z" style="fill:rgb(0,64,128);fill-rule:nonzero;"/>
        <path d="M116.891,39.549L116.891,54.237C116.891,54.165 116.891,54.237 116.891,54.237C116.891,55.532 117.971,56.612 119.267,56.612L156.779,56.612C158.075,56.612 159.155,55.532 159.155,54.237L159.155,39.549C159.155,38.253 158.075,37.173 156.779,37.173L119.267,37.173C117.971,37.173 116.891,38.253 116.891,39.549Z" style="fill:none;stroke:white;stroke-width:0.22px;"/>
        <path d="M63.971,37.173L35.171,37.173C34.595,37.173 34.019,37.533 33.875,38.181L28.835,53.445C28.763,53.661 28.691,53.949 28.691,54.237C28.691,55.532 29.699,56.612 31.139,56.612L63.971,56.612C65.267,56.612 66.419,55.532 66.419,54.237L66.419,39.549C66.419,38.253 65.267,37.173 63.971,37.173Z" style="fill:rgb(0,64,128);fill-rule:nonzero;"/>
        <path d="M63.971,37.173L35.171,37.173C34.595,37.173 34.019,37.533 33.875,38.181L28.835,53.445C28.763,53.661 28.691,53.949 28.691,54.237C28.691,55.532 29.699,56.612 31.139,56.612L63.971,56.612C65.267,56.612 66.419,55.532 66.419,54.237L66.419,39.549C66.419,38.253 65.267,37.173 63.971,37.173Z" style="fill:none;stroke:white;stroke-width:0.22px;"/>
        <path d="M93.492,174.188C89.675,174.188 86.723,177.284 86.723,181.029C86.723,183.476 88.163,185.852 90.468,187.004C92.555,188.012 94.859,188.66 97.307,188.66C100.691,188.66 103.932,187.58 106.595,185.42L106.595,174.188L93.492,174.188Z" style="fill:rgb(0,64,128);fill-rule:nonzero;"/>
        <path d="M93.492,174.188C89.675,174.188 86.723,177.284 86.723,181.029C86.723,183.476 88.163,185.852 90.468,187.004C92.555,188.012 94.859,188.66 97.307,188.66C100.691,188.66 103.932,187.58 106.595,185.42L106.595,174.188L93.492,174.188Z" style="fill:none;stroke:white;stroke-width:0.22px;"/>
    </g>
</svg>
