<?xml version="1.0" encoding="UTF-8" standalone="no"?>
<!DOCTYPE svg PUBLIC "-//W3C//DTD SVG 1.1//EN" "http://www.w3.org/Graphics/SVG/1.1/DTD/svg11.dtd">
<svg width="100%" height="100%" viewBox="0 0 227 227" version="1.1" xmlns="http://www.w3.org/2000/svg" xmlns:xlink="http://www.w3.org/1999/xlink" xml:space="preserve" xmlns:serif="http://www.serif.com/" style="fill-rule:evenodd;clip-rule:evenodd;stroke-miterlimit:2;">
    <g>
        <path d="M8.027,1.029C3.779,1.029 0.107,4.7 0.107,8.949L0.107,218.973C0.107,223.221 3.779,226.892 8.027,226.892L218.051,226.892C222.299,226.892 225.971,223.221 225.971,218.973L225.971,8.949C225.971,4.7 222.299,1.029 218.051,1.029L8.027,1.029Z" style="fill:white;fill-rule:nonzero;"/>
        <path d="M8.027,1.029C3.779,1.029 0.107,4.7 0.107,8.949L0.107,218.973C0.107,223.221 3.779,226.892 8.027,226.892L218.051,226.892C222.299,226.892 225.971,223.221 225.971,218.973L225.971,8.949C225.971,4.7 222.299,1.029 218.051,1.029L8.027,1.029Z" style="fill:none;stroke:rgb(0,64,128);stroke-width:0.22px;"/>
        <path d="M8.027,4.989C5.723,4.989 4.067,6.645 4.067,8.949L4.067,218.973C4.067,221.276 5.723,222.932 8.027,222.932L218.051,222.932C220.355,222.932 222.011,221.276 222.011,218.973L222.011,8.949C222.011,6.645 220.355,4.989 218.051,4.989L8.027,4.989Z" style="fill:rgb(0,64,128);fill-rule:nonzero;"/>
        <path d="M8.027,4.989C5.723,4.989 4.067,6.645 4.067,8.949L4.067,218.973C4.067,221.276 5.723,222.932 8.027,222.932L218.051,222.932C220.355,222.932 222.011,221.276 222.011,218.973L222.011,8.949C222.011,6.645 220.355,4.989 218.051,4.989L8.027,4.989Z" style="fill:none;stroke:white;stroke-width:0.22px;"/>
        <path d="M31.139,85.989C30.563,85.989 30.059,86.277 29.771,86.853L20.123,116.805L20.123,138.261C20.123,139.628 20.987,140.781 22.427,140.781L41.075,140.781C41.075,119.325 72.971,119.325 72.971,140.781L139.859,140.781C139.859,119.325 171.755,119.325 171.755,140.781L205.091,140.781C205.955,140.781 206.459,139.916 206.459,139.341L206.459,88.868C206.459,87.141 205.379,85.989 203.651,85.989L31.139,85.989Z" style="fill:white;fill-rule:nonzero;"/>
        <path d="M31.139,85.989C30.563,85.989 30.059,86.277 29.771,86.853L20.123,116.805L20.123,138.261C20.123,139.628 20.987,140.781 22.427,140.781L41.075,140.781C41.075,119.325 72.971,119.325 72.971,140.781L139.859,140.781C139.859,119.325 171.755,119.325 171.755,140.781L205.091,140.781C205.955,140.781 206.459,139.916 206.459,139.341L206.459,88.868C206.459,87.141 205.379,85.989 203.651,85.989L31.139,85.989Z" style="fill:none;stroke:white;stroke-width:0.22px;"/>
        <path d="M68.147,96.141L68.147,110.54C68.147,111.98 69.299,113.133 70.379,113.133L108.54,113.133C109.619,113.133 110.771,111.98 110.771,110.54L110.771,96.141C110.771,94.772 109.619,93.621 108.54,93.621L70.379,93.621C69.299,93.621 68.147,94.772 68.147,96.141Z" style="fill:rgb(0,64,128);fill-rule:nonzero;"/>
        <path d="M68.147,96.141L68.147,110.54C68.147,111.98 69.299,113.133 70.379,113.133L108.54,113.133C109.619,113.133 110.771,111.98 110.771,110.54L110.771,96.141C110.771,94.772 109.619,93.621 108.54,93.621L70.379,93.621C69.299,93.621 68.147,94.772 68.147,96.141Z" style="fill:none;stroke:white;stroke-width:0.22px;"/>
        <path d="M69.875,140.493C69.875,133.436 64.186,127.821 57.131,127.821C50.075,127.821 44.459,133.436 44.459,140.493C44.459,147.549 50.075,153.236 57.131,153.236C64.186,153.236 69.875,147.549 69.875,140.493Z" style="fill:white;fill-rule:nonzero;"/>
        <path d="M69.875,140.493C69.875,133.436 64.186,127.821 57.131,127.821C50.075,127.821 44.459,133.436 44.459,140.493C44.459,147.549 50.075,153.236 57.131,153.236C64.186,153.236 69.875,147.549 69.875,140.493Z" style="fill:none;stroke:white;stroke-width:0.22px;"/>
        <path d="M61.955,93.621L33.155,93.621C32.579,93.621 32.003,93.909 31.715,94.772L26.963,110.036C26.675,110.325 26.675,110.54 26.675,110.54C26.675,111.98 27.755,113.133 29.195,113.133L61.955,113.133C63.323,113.133 64.186,111.98 64.186,110.54L64.186,96.141C64.186,94.772 63.323,93.621 61.955,93.621Z" style="fill:rgb(0,64,128);fill-rule:nonzero;"/>
        <path d="M61.955,93.621L33.155,93.621C32.579,93.621 32.003,93.909 31.715,94.772L26.963,110.036C26.675,110.325 26.675,110.54 26.675,110.54C26.675,111.98 27.755,113.133 29.195,113.133L61.955,113.133C63.323,113.133 64.186,111.98 64.186,110.54L64.186,96.141C64.186,94.772 63.323,93.621 61.955,93.621Z" style="fill:none;stroke:white;stroke-width:0.22px;"/>
        <path d="M114.731,96.141L114.731,110.54C114.731,111.98 115.883,113.133 116.963,113.133L154.547,113.133C155.987,113.133 156.779,111.98 156.779,110.54L156.779,96.141C156.779,94.772 155.987,93.621 154.547,93.621L116.963,93.621C115.883,93.621 114.731,94.772 114.731,96.141Z" style="fill:rgb(0,64,128);fill-rule:nonzero;"/>
        <path d="M114.731,96.141L114.731,110.54C114.731,111.98 115.883,113.133 116.963,113.133L154.547,113.133C155.987,113.133 156.779,111.98 156.779,110.54L156.779,96.141C156.779,94.772 155.987,93.621 154.547,93.621L116.963,93.621C115.883,93.621 114.731,94.772 114.731,96.141Z" style="fill:none;stroke:white;stroke-width:0.22px;"/>
        <path d="M160.739,96.141L160.739,110.54C160.739,111.98 161.891,113.133 163.259,113.133L200.555,113.133C201.995,113.133 203.075,111.98 203.075,110.54L203.075,96.141C203.075,94.772 201.995,93.621 200.555,93.621L163.259,93.621C161.891,93.621 160.739,94.772 160.739,96.141Z" style="fill:rgb(0,64,128);fill-rule:nonzero;"/>
        <path d="M160.739,96.141L160.739,110.54C160.739,111.98 161.891,113.133 163.259,113.133L200.555,113.133C201.995,113.133 203.075,111.98 203.075,110.54L203.075,96.141C203.075,94.772 201.995,93.621 200.555,93.621L163.259,93.621C161.891,93.621 160.739,94.772 160.739,96.141Z" style="fill:none;stroke:white;stroke-width:0.22px;"/>
        <path d="M168.371,140.493C168.371,133.436 162.755,127.821 155.699,127.821C148.643,127.821 142.956,133.436 142.956,140.493C142.956,147.549 148.643,153.236 155.699,153.236C162.755,153.236 168.371,147.549 168.371,140.493Z" style="fill:white;fill-rule:nonzero;"/>
        <path d="M168.371,140.493C168.371,133.436 162.755,127.821 155.699,127.821C148.643,127.821 142.956,133.436 142.956,140.493C142.956,147.549 148.643,153.236 155.699,153.236C162.755,153.236 168.371,147.549 168.371,140.493Z" style="fill:none;stroke:white;stroke-width:0.22px;"/>
    </g>
</svg>
