<?xml version="1.0" encoding="UTF-8" standalone="no"?>
<!DOCTYPE svg PUBLIC "-//W3C//DTD SVG 1.1//EN" "http://www.w3.org/Graphics/SVG/1.1/DTD/svg11.dtd">
<svg width="100%" height="100%" viewBox="0 0 596 596" version="1.1" xmlns="http://www.w3.org/2000/svg" xmlns:xlink="http://www.w3.org/1999/xlink" xml:space="preserve" xmlns:serif="http://www.serif.com/" style="fill-rule:evenodd;clip-rule:evenodd;stroke-linecap:round;stroke-linejoin:round;stroke-miterlimit:2;">
    <g>
        <path d="M21.163,1.079C15.645,1.079 10.352,3.272 6.449,7.175C2.546,11.077 0.354,16.37 0.354,21.89L0.354,574.837C0.354,580.356 2.546,585.649 6.449,589.552C10.352,593.454 15.645,595.647 21.163,595.647L574.112,595.647C579.631,595.647 584.924,593.454 588.826,589.552C592.729,585.649 594.922,580.356 594.922,574.837L594.922,21.89C594.922,16.37 592.729,11.077 588.826,7.175C584.924,3.272 579.631,1.079 574.112,1.079L21.163,1.079Z" style="fill:white;fill-rule:nonzero;"/>
        <path d="M21.163,1.079C15.645,1.079 10.352,3.272 6.449,7.175C2.546,11.077 0.354,16.37 0.354,21.89L0.354,574.837C0.354,580.356 2.546,585.649 6.449,589.552C10.352,593.454 15.645,595.647 21.163,595.647L574.112,595.647C579.631,595.647 584.924,593.454 588.826,589.552C592.729,585.649 594.922,580.356 594.922,574.837L594.922,21.89C594.922,16.37 592.729,11.077 588.826,7.175C584.924,3.272 579.631,1.079 574.112,1.079L21.163,1.079Z" style="fill:none;stroke:white;stroke-width:0.71px;"/>
        <path d="M21.163,11.484C18.404,11.484 15.757,12.58 13.806,14.532C11.855,16.483 10.759,19.13 10.759,21.89L10.759,574.837C10.759,577.596 11.855,580.243 13.806,582.195C15.757,584.145 18.404,585.242 21.163,585.242L574.112,585.242C579.858,585.242 584.517,580.583 584.517,574.837L584.517,21.89C584.517,19.13 583.421,16.483 581.469,14.532C579.518,12.58 576.872,11.484 574.112,11.484L21.163,11.484Z" style="fill:rgb(0,64,128);fill-rule:nonzero;"/>
        <path d="M21.163,11.484C18.404,11.484 15.757,12.58 13.806,14.532C11.855,16.483 10.759,19.13 10.759,21.89L10.759,574.837C10.759,577.596 11.855,580.243 13.806,582.195C15.757,584.145 18.404,585.242 21.163,585.242L574.112,585.242C579.858,585.242 584.517,580.583 584.517,574.837L584.517,21.89C584.517,19.13 583.421,16.483 581.469,14.532C579.518,12.58 576.872,11.484 574.112,11.484L21.163,11.484Z" style="fill:none;stroke:rgb(0,64,128);stroke-width:0.71px;"/>
        <path d="M478.069,464L478.069,425.939L508.525,425.939L508.525,320.573C508.444,301.755 497.368,284.724 480.201,277.018L445.526,140.762C396.497,128.26 346.044,122.218 295.449,122.788C247.679,122.273 200.025,127.606 153.551,138.669L115.075,277.018C97.907,284.724 86.831,301.755 86.75,320.573L86.75,425.939L117.207,425.939L117.207,464L122.005,482.524C135.677,487.684 150.76,487.684 164.432,482.524L169.231,464L169.231,425.939L426.045,425.939L426.045,464L430.844,482.524C444.516,487.684 459.599,487.684 473.271,482.524L478.069,464Z" style="fill:white;fill-rule:nonzero;"/>
        <path d="M478.069,464L478.069,425.939L508.525,425.939L508.525,320.573C508.444,301.755 497.368,284.724 480.201,277.018L445.526,140.762C396.497,128.26 346.044,122.218 295.449,122.788C247.679,122.273 200.025,127.606 153.551,138.669L115.075,277.018C97.907,284.724 86.831,301.755 86.75,320.573L86.75,425.939L117.207,425.939L117.207,464L122.005,482.524C135.677,487.684 150.76,487.684 164.432,482.524L169.231,464L169.231,425.939L426.045,425.939L426.045,464L430.844,482.524C444.516,487.684 459.599,487.684 473.271,482.524L478.069,464Z" style="fill:none;stroke:white;stroke-width:0.71px;"/>
        <path d="M398.826,268.935L446.205,268.935L446.205,300.522L398.826,300.522L398.826,347.902L367.239,347.902L367.239,300.522L319.859,300.522L319.859,268.935L367.239,268.935L367.239,221.556L398.826,221.556L398.826,268.935Z" style="fill:rgb(35,31,32);fill-rule:nonzero;"/>
        <path d="M398.826,268.935L446.205,268.935L446.205,300.522L398.826,300.522L398.826,347.902L367.239,347.902L367.239,300.522L319.859,300.522L319.859,268.935L367.239,268.935L367.239,221.556L398.826,221.556L398.826,268.935Z" style="fill:none;stroke:rgb(35,31,32);stroke-width:0.71px;"/>
        <path d="M194.794,232.975C196.911,217.053 211.182,205.616 227.183,207.016C243.184,208.417 255.25,222.161 254.568,238.208C253.563,250.988 248.135,263.018 239.221,272.23L163.739,350.29L163.739,381.346L290.35,381.346L290.35,347.902L215.78,347.902L264.79,297.217C275.151,286.545 282.736,273.495 286.879,259.209C294.807,235.704 288.936,209.741 271.669,191.933C254.401,174.124 228.63,167.456 204.893,174.655C181.155,181.853 163.429,201.711 158.96,226.111L194.794,232.975Z" style="fill:rgb(35,31,32);fill-rule:nonzero;"/>
        <path d="M194.794,232.975C196.911,217.053 211.182,205.616 227.183,207.016C243.184,208.417 255.25,222.161 254.568,238.208C253.563,250.988 248.135,263.018 239.221,272.23L163.739,350.29L163.739,381.346L290.35,381.346L290.35,347.902L215.78,347.902L264.79,297.217C275.151,286.545 282.736,273.495 286.879,259.209C294.807,235.704 288.936,209.741 271.669,191.933C254.401,174.124 228.63,167.456 204.893,174.655C181.155,181.853 163.429,201.711 158.96,226.111L194.794,232.975Z" style="fill:none;stroke:rgb(35,31,32);stroke-width:0.71px;"/>
    </g>
</svg>
