<?xml version="1.0" encoding="UTF-8" standalone="no"?>
<!DOCTYPE svg PUBLIC "-//W3C//DTD SVG 1.1//EN" "http://www.w3.org/Graphics/SVG/1.1/DTD/svg11.dtd">
<svg width="100%" height="100%" viewBox="0 0 227 227" version="1.1" xmlns="http://www.w3.org/2000/svg" xmlns:xlink="http://www.w3.org/1999/xlink" xml:space="preserve" xmlns:serif="http://www.serif.com/" style="fill-rule:evenodd;clip-rule:evenodd;stroke-miterlimit:2;">
    <g>
        <path d="M8.027,0.309C3.635,0.309 0.107,3.837 0.107,8.229L0.107,218.972C0.107,223.365 3.635,226.892 8.027,226.892L218.771,226.892C223.163,226.892 226.691,223.365 226.691,218.972L226.691,8.229C226.691,3.837 223.163,0.309 218.771,0.309L8.027,0.309Z" style="fill:white;fill-rule:nonzero;"/>
        <path d="M8.027,0.309C3.635,0.309 0.107,3.837 0.107,8.229L0.107,218.972C0.107,223.365 3.635,226.892 8.027,226.892L218.771,226.892C223.163,226.892 226.691,223.365 226.691,218.972L226.691,8.229C226.691,3.837 223.163,0.309 218.771,0.309L8.027,0.309Z" style="fill:none;stroke:rgb(0,64,128);stroke-width:0.22px;"/>
        <path d="M8.027,4.269C5.867,4.269 4.067,6.069 4.067,8.229L4.067,218.972C4.067,221.133 5.867,222.932 8.027,222.932L218.771,222.932C220.931,222.932 222.731,221.133 222.731,218.972L222.731,8.229C222.731,6.069 220.931,4.269 218.771,4.269L8.027,4.269Z" style="fill:rgb(0,64,128);fill-rule:nonzero;"/>
        <path d="M8.027,4.269C5.867,4.269 4.067,6.069 4.067,8.229L4.067,218.972C4.067,221.133 5.867,222.932 8.027,222.932L218.771,222.932C220.931,222.932 222.731,221.133 222.731,218.972L222.731,8.229C222.731,6.069 220.931,4.269 218.771,4.269L8.027,4.269Z" style="fill:none;stroke:rgb(0,64,128);stroke-width:0.22px;"/>
        <path d="M218.771,4.269L211.859,4.269L4.067,212.348L4.067,218.972C4.067,221.133 5.867,222.932 8.027,222.932L14.939,222.932L222.731,14.853L222.731,8.229C222.731,6.069 220.931,4.269 218.771,4.269Z" style="fill:rgb(211,63,39);fill-rule:nonzero;"/>
        <path d="M218.771,4.269L211.859,4.269L4.067,212.348L4.067,218.972C4.067,221.133 5.867,222.932 8.027,222.932L14.939,222.932L222.731,14.853L222.731,8.229C222.731,6.069 220.931,4.269 218.771,4.269Z" style="fill:none;stroke:rgb(211,63,39);stroke-width:0.22px;"/>
        <path d="M26.315,138.405L43.811,138.405L43.811,172.604L55.619,160.652L55.619,138.405L73.115,138.405L73.115,127.316L26.315,127.316L26.315,138.405Z" style="fill:white;fill-rule:nonzero;"/>
        <path d="M26.315,138.405L43.811,138.405L43.811,172.604L55.619,160.652L55.619,138.405L73.115,138.405L73.115,127.316L26.315,127.316L26.315,138.405Z" style="fill:none;stroke:white;stroke-width:0.22px;"/>
        <path d="M132.155,84.045L187.019,29.181L33.227,29.181C32.579,29.181 32.003,29.613 31.859,30.189L22.067,59.997L22.067,81.669C22.067,83.037 23.147,84.045 24.443,84.045L42.947,84.045C43.019,62.661 75.059,62.661 75.059,84.045L132.155,84.045Z" style="fill:white;fill-rule:nonzero;"/>
        <path d="M132.155,84.045L187.019,29.181L33.227,29.181C32.579,29.181 32.003,29.613 31.859,30.189L22.067,59.997L22.067,81.669C22.067,83.037 23.147,84.045 24.443,84.045L42.947,84.045C43.019,62.661 75.059,62.661 75.059,84.045L132.155,84.045Z" style="fill:none;stroke:white;stroke-width:0.22px;"/>
        <path d="M70.307,39.261L70.307,53.949C70.307,55.317 71.387,56.397 72.755,56.397L110.771,56.397C112.067,56.397 113.147,55.317 113.147,53.949L113.147,39.261C113.147,37.965 112.067,36.885 110.771,36.885L72.755,36.885C71.387,36.885 70.307,37.965 70.307,39.261Z" style="fill:rgb(0,64,128);fill-rule:nonzero;"/>
        <path d="M70.307,39.261L70.307,53.949C70.307,55.317 71.387,56.397 72.755,56.397L110.771,56.397C112.067,56.397 113.147,55.317 113.147,53.949L113.147,39.261C113.147,37.965 112.067,36.885 110.771,36.885L72.755,36.885C71.387,36.885 70.307,37.965 70.307,39.261Z" style="fill:none;stroke:white;stroke-width:0.22px;"/>
        <path d="M55.763,182.036L55.763,196.94L43.883,196.94L43.883,193.989L55.763,182.036Z" style="fill:white;fill-rule:nonzero;"/>
        <path d="M55.763,182.036L55.763,196.94L43.883,196.94L43.883,193.989L55.763,182.036Z" style="fill:none;stroke:white;stroke-width:0.22px;"/>
        <path d="M64.043,36.885L35.171,36.885C34.595,36.885 34.019,37.245 33.875,37.892L28.835,53.229C28.763,53.445 28.763,53.733 28.763,53.949C28.763,55.317 29.843,56.397 31.139,56.397L64.043,56.397C65.339,56.397 66.491,55.317 66.491,53.949L66.491,39.261C66.491,37.965 65.339,36.885 64.043,36.885Z" style="fill:rgb(0,64,128);fill-rule:nonzero;"/>
        <path d="M64.043,36.885L35.171,36.885C34.595,36.885 34.019,37.245 33.875,37.892L28.835,53.229C28.763,53.445 28.763,53.733 28.763,53.949C28.763,55.317 29.843,56.397 31.139,56.397L64.043,56.397C65.339,56.397 66.491,55.317 66.491,53.949L66.491,39.261C66.491,37.965 65.339,36.885 64.043,36.885Z" style="fill:none;stroke:white;stroke-width:0.22px;"/>
        <path d="M71.819,84.045C71.819,76.989 66.059,71.301 59.075,71.301C52.019,71.301 46.259,76.989 46.259,84.045C46.259,91.101 52.019,96.861 59.075,96.861C66.059,96.861 71.819,91.101 71.819,84.045Z" style="fill:white;fill-rule:nonzero;"/>
        <path d="M71.819,84.045C71.819,76.989 66.059,71.301 59.075,71.301C52.019,71.301 46.259,76.989 46.259,84.045C46.259,91.101 52.019,96.861 59.075,96.861C66.059,96.861 71.819,91.101 71.819,84.045Z" style="fill:none;stroke:white;stroke-width:0.22px;"/>
        <rect x="193.427" y="147.188" width="10.512" height="49.752" style="fill:white;"/>
        <rect x="193.427" y="147.188" width="10.512" height="49.752" style="fill:none;stroke:white;stroke-width:0.22px;"/>
        <path d="M144.611,196.94L132.371,196.94L148.355,171.164L133.451,147.188L145.763,147.188L154.475,161.228L163.187,147.188L175.499,147.188L160.595,171.164L176.579,196.94L164.339,196.94L154.475,181.1L144.611,196.94Z" style="fill:white;fill-rule:nonzero;"/>
        <path d="M144.611,196.94L132.371,196.94L148.355,171.164L133.451,147.188L145.763,147.188L154.475,161.228L163.187,147.188L175.499,147.188L160.595,171.164L176.579,196.94L164.339,196.94L154.475,181.1L144.611,196.94Z" style="fill:none;stroke:white;stroke-width:0.22px;"/>
        <path d="M106.739,163.316L106.739,165.836L92.339,165.836C83.699,165.836 76.643,172.821 76.643,181.46C76.643,187.292 79.883,192.549 84.923,195.284C88.523,197.228 92.483,198.236 96.588,198.38L96.947,198.38C100.403,198.38 103.859,197.372 106.739,195.429L106.739,196.94L117.179,196.94L117.179,163.604C117.179,154.316 110.052,146.613 100.835,145.964C99.54,145.821 98.243,145.821 96.947,145.821C95.219,145.821 93.42,145.892 91.691,146.036L81.467,156.332L82.115,158.204C87.731,156.117 93.707,155.252 99.612,155.613C103.643,155.9 106.739,159.212 106.739,163.316Z" style="fill:white;fill-rule:nonzero;"/>
        <path d="M106.739,163.316L106.739,165.836L92.339,165.836C83.699,165.836 76.643,172.821 76.643,181.46C76.643,187.292 79.883,192.549 84.923,195.284C88.523,197.228 92.483,198.236 96.588,198.38L96.947,198.38C100.403,198.38 103.859,197.372 106.739,195.429L106.739,196.94L117.179,196.94L117.179,163.604C117.179,154.316 110.052,146.613 100.835,145.964C99.54,145.821 98.243,145.821 96.947,145.821C95.219,145.821 93.42,145.892 91.691,146.036L81.467,156.332L82.115,158.204C87.731,156.117 93.707,155.252 99.612,155.613C103.643,155.9 106.739,159.212 106.739,163.316Z" style="fill:none;stroke:white;stroke-width:0.22px;"/>
        <path d="M93.635,174.117C89.891,174.117 86.867,177.14 86.867,180.885C86.867,183.476 88.307,185.781 90.612,186.932C92.699,188.084 95.147,188.588 97.523,188.588C100.835,188.588 104.076,187.509 106.811,185.42L106.739,174.117L93.635,174.117Z" style="fill:rgb(0,64,128);fill-rule:nonzero;"/>
        <path d="M93.635,174.117C89.891,174.117 86.867,177.14 86.867,180.885C86.867,183.476 88.307,185.781 90.612,186.932C92.699,188.084 95.147,188.588 97.523,188.588C100.835,188.588 104.076,187.509 106.811,185.42L106.739,174.117L93.635,174.117Z" style="fill:none;stroke:rgb(0,64,128);stroke-width:0.22px;"/>
        <path d="M167.003,70.652C171.539,73.604 174.275,78.645 174.275,84.045L207.683,84.045C208.475,84.045 209.123,83.469 209.123,82.604L209.123,32.061C209.123,31.125 208.691,30.261 207.899,29.685L167.003,70.652Z" style="fill:white;fill-rule:nonzero;"/>
        <path d="M167.003,70.652C171.539,73.604 174.275,78.645 174.275,84.045L207.683,84.045C208.475,84.045 209.123,83.469 209.123,82.604L209.123,32.061C209.123,31.125 208.691,30.261 207.899,29.685L167.003,70.652Z" style="fill:none;stroke:white;stroke-width:0.22px;"/>
        <path d="M181.187,56.397L203.219,56.397C204.587,56.397 205.595,55.317 205.595,53.949L205.595,39.261C205.595,37.965 204.587,36.885 203.219,36.885L200.699,36.885L181.187,56.397Z" style="fill:rgb(0,64,128);fill-rule:nonzero;"/>
        <path d="M181.187,56.397L203.219,56.397C204.587,56.397 205.595,55.317 205.595,53.949L205.595,39.261C205.595,37.965 204.587,36.885 203.219,36.885L200.699,36.885L181.187,56.397Z" style="fill:none;stroke:white;stroke-width:0.22px;"/>
        <path d="M163.259,52.941L179.315,36.885L165.635,36.885C164.339,36.885 163.259,37.965 163.259,39.261L163.259,52.941Z" style="fill:rgb(0,64,128);fill-rule:nonzero;"/>
        <path d="M163.259,52.941L179.315,36.885L165.635,36.885C164.339,36.885 163.259,37.965 163.259,39.261L163.259,52.941Z" style="fill:none;stroke:white;stroke-width:0.22px;"/>
        <path d="M117.035,39.261L117.035,53.949C117.035,55.317 118.115,56.397 119.411,56.397L156.995,56.397C158.291,56.397 159.444,55.317 159.444,53.949L159.444,39.261C159.444,37.965 158.291,36.885 156.995,36.885L119.411,36.885C118.115,36.885 117.035,37.965 117.035,39.261Z" style="fill:rgb(0,64,128);fill-rule:nonzero;"/>
        <path d="M117.035,39.261L117.035,53.949C117.035,55.317 118.115,56.397 119.411,56.397L156.995,56.397C158.291,56.397 159.444,55.317 159.444,53.949L159.444,39.261C159.444,37.965 158.291,36.885 156.995,36.885L119.411,36.885C118.115,36.885 117.035,37.965 117.035,39.261Z" style="fill:none;stroke:white;stroke-width:0.22px;"/>
        <path d="M147.131,90.453C149.507,94.413 153.683,96.861 158.219,96.861C165.347,96.861 171.035,91.101 171.035,84.045C171.035,79.508 168.587,75.333 164.627,73.029L147.131,90.453Z" style="fill:white;fill-rule:nonzero;"/>
        <path d="M147.131,90.453C149.507,94.413 153.683,96.861 158.219,96.861C165.347,96.861 171.035,91.101 171.035,84.045C171.035,79.508 168.587,75.333 164.627,73.029L147.131,90.453Z" style="fill:none;stroke:white;stroke-width:0.22px;"/>
        <path d="M204.587,131.781C204.587,128.47 201.995,125.876 198.683,125.876C195.443,125.876 192.779,128.47 192.779,131.781C192.779,135.093 195.443,137.684 198.683,137.684C201.995,137.684 204.587,135.093 204.587,131.781Z" style="fill:white;fill-rule:nonzero;"/>
        <path d="M204.587,131.781C204.587,128.47 201.995,125.876 198.683,125.876C195.443,125.876 192.779,128.47 192.779,131.781C192.779,135.093 195.443,137.684 198.683,137.684C201.995,137.684 204.587,135.093 204.587,131.781Z" style="fill:none;stroke:white;stroke-width:0.22px;"/>
    </g>
</svg>
