<?xml version="1.0" encoding="UTF-8" standalone="no"?>
<!DOCTYPE svg PUBLIC "-//W3C//DTD SVG 1.1//EN" "http://www.w3.org/Graphics/SVG/1.1/DTD/svg11.dtd">
<svg width="100%" height="100%" viewBox="0 0 227 227" version="1.1" xmlns="http://www.w3.org/2000/svg" xmlns:xlink="http://www.w3.org/1999/xlink" xml:space="preserve" xmlns:serif="http://www.serif.com/" style="fill-rule:evenodd;clip-rule:evenodd;stroke-miterlimit:2;">
    <g>
        <path d="M8.027,0.597C3.779,0.597 0.107,4.269 0.107,8.517L0.107,218.972C0.107,223.148 3.779,226.892 8.027,226.892L218.483,226.892C222.731,226.892 226.403,223.148 226.403,218.972L226.403,8.517C226.403,4.269 222.731,0.597 218.483,0.597L8.027,0.597Z" style="fill:white;fill-rule:nonzero;"/>
        <path d="M8.027,0.597C3.779,0.597 0.107,4.269 0.107,8.517L0.107,218.972C0.107,223.148 3.779,226.892 8.027,226.892L218.483,226.892C222.731,226.892 226.403,223.148 226.403,218.972L226.403,8.517C226.403,4.269 222.731,0.597 218.483,0.597L8.027,0.597Z" style="fill:none;stroke:rgb(0,64,128);stroke-width:0.22px;"/>
        <path d="M8.027,4.557C5.795,4.557 4.067,6.285 4.067,8.517L4.067,218.972C4.067,221.204 5.795,222.932 8.027,222.932L218.483,222.932C220.715,222.932 222.443,221.204 222.443,218.972L222.443,8.517C222.443,6.285 220.715,4.557 218.483,4.557L8.027,4.557Z" style="fill:rgb(0,64,128);fill-rule:nonzero;"/>
        <path d="M8.027,4.557C5.795,4.557 4.067,6.285 4.067,8.517L4.067,218.972C4.067,221.204 5.795,222.932 8.027,222.932L218.483,222.932C220.715,222.932 222.443,221.204 222.443,218.972L222.443,8.517C222.443,6.285 220.715,4.557 218.483,4.557L8.027,4.557Z" style="fill:none;stroke:white;stroke-width:0.22px;"/>
        <path d="M8.027,222.932C5.795,222.932 4.067,221.204 4.067,218.972L4.067,212.42L212.003,4.557L218.483,4.557C220.715,4.557 222.443,6.285 222.443,8.517L222.443,15.285L15.083,222.932L8.027,222.932Z" style="fill:rgb(211,63,39);fill-rule:nonzero;"/>
        <path d="M8.027,222.932C5.795,222.932 4.067,221.204 4.067,218.972L4.067,212.42L212.003,4.557L218.483,4.557C220.715,4.557 222.443,6.285 222.443,8.517L222.443,15.285L15.083,222.932L8.027,222.932Z" style="fill:none;stroke:rgb(211,63,39);stroke-width:0.22px;"/>
        <path d="M97.379,140.564L140.075,140.564C140.075,119.108 172.115,119.108 172.115,140.564L205.451,140.564C206.387,140.564 206.891,139.772 206.891,139.197L206.891,88.508C206.891,86.853 205.811,85.7 204.083,85.7L152.315,85.7L144.611,93.405L97.379,140.564Z" style="fill:white;fill-rule:nonzero;"/>
        <path d="M97.379,140.564L140.075,140.564C140.075,119.108 172.115,119.108 172.115,140.564L205.451,140.564C206.387,140.564 206.891,139.772 206.891,139.197L206.891,88.508C206.891,86.853 205.811,85.7 204.083,85.7L152.315,85.7L144.611,93.405L97.379,140.564Z" style="fill:none;stroke:white;stroke-width:0.22px;"/>
        <path d="M31.211,85.7L130.787,85.7L75.923,140.564L73.115,140.564C73.115,131.493 65.699,124.509 56.915,124.509C48.203,124.509 41.075,131.493 41.075,140.564L22.427,140.564C21.059,140.564 20.123,139.412 20.123,138.044L20.123,116.588L29.771,86.565C30.059,85.989 30.635,85.7 31.211,85.7Z" style="fill:white;fill-rule:nonzero;"/>
        <path d="M31.211,85.7L130.787,85.7L75.923,140.564L73.115,140.564C73.115,131.493 65.699,124.509 56.915,124.509C48.203,124.509 41.075,131.493 41.075,140.564L22.427,140.564C21.059,140.564 20.123,139.412 20.123,138.044L20.123,116.588L29.771,86.565C30.059,85.989 30.635,85.7 31.211,85.7Z" style="fill:none;stroke:white;stroke-width:0.22px;"/>
        <path d="M110.987,105.5L110.987,95.853C110.987,94.484 109.835,93.405 108.755,93.405L70.523,93.405C69.371,93.405 68.219,94.484 68.219,95.853L68.219,110.324C68.219,111.692 69.371,112.844 70.523,112.844L103.643,112.844L110.987,105.5Z" style="fill:rgb(0,64,128);fill-rule:nonzero;"/>
        <path d="M110.987,105.5L110.987,95.853C110.987,94.484 109.835,93.405 108.755,93.405L70.523,93.405C69.371,93.405 68.219,94.484 68.219,95.853L68.219,110.324C68.219,111.692 69.371,112.844 70.523,112.844L103.643,112.844L110.987,105.5Z" style="fill:none;stroke:white;stroke-width:0.22px;"/>
        <path d="M62.027,93.405L33.155,93.405C32.579,93.405 32.003,93.621 31.787,94.484L26.963,109.747C26.675,110.036 26.675,110.324 26.675,110.324C26.675,111.692 27.827,112.844 29.195,112.844L62.027,112.844C63.467,112.844 64.259,111.692 64.259,110.324L64.259,95.853C64.259,94.484 63.467,93.405 62.027,93.405Z" style="fill:rgb(0,64,128);fill-rule:nonzero;"/>
        <path d="M62.027,93.405L33.155,93.405C32.579,93.405 32.003,93.621 31.787,94.484L26.963,109.747C26.675,110.036 26.675,110.324 26.675,110.324C26.675,111.692 27.827,112.844 29.195,112.844L62.027,112.844C63.467,112.844 64.259,111.692 64.259,110.324L64.259,95.853C64.259,94.484 63.467,93.405 62.027,93.405Z" style="fill:none;stroke:white;stroke-width:0.22px;"/>
        <path d="M69.947,140.348C69.947,133.22 64.259,127.532 57.275,127.532C50.147,127.532 44.459,133.22 44.459,140.348C44.459,147.332 50.147,153.02 57.275,153.02C64.259,153.02 69.947,147.332 69.947,140.348Z" style="fill:white;fill-rule:nonzero;"/>
        <path d="M69.947,140.348C69.947,133.22 64.259,127.532 57.275,127.532C50.147,127.532 44.459,133.22 44.459,140.348C44.459,147.332 50.147,153.02 57.275,153.02C64.259,153.02 69.947,147.332 69.947,140.348Z" style="fill:none;stroke:white;stroke-width:0.22px;"/>
        <path d="M161.099,95.853L161.099,110.324C161.099,111.692 162.251,112.844 163.619,112.844L200.915,112.844C202.427,112.844 203.507,111.692 203.507,110.324L203.507,95.853C203.507,94.484 202.427,93.405 200.915,93.405L163.619,93.405C162.251,93.405 161.099,94.484 161.099,95.853Z" style="fill:rgb(0,64,128);fill-rule:nonzero;"/>
        <path d="M161.099,95.853L161.099,110.324C161.099,111.692 162.251,112.844 163.619,112.844L200.915,112.844C202.427,112.844 203.507,111.692 203.507,110.324L203.507,95.853C203.507,94.484 202.427,93.405 200.915,93.405L163.619,93.405C162.251,93.405 161.099,94.484 161.099,95.853Z" style="fill:none;stroke:white;stroke-width:0.22px;"/>
        <path d="M125.171,112.844L154.908,112.844C156.275,112.844 157.139,111.692 157.139,110.324L157.139,95.853C157.139,94.484 156.275,93.405 154.908,93.405L144.611,93.405L125.171,112.844Z" style="fill:rgb(0,64,128);fill-rule:nonzero;"/>
        <path d="M125.171,112.844L154.908,112.844C156.275,112.844 157.139,111.692 157.139,110.324L157.139,95.853C157.139,94.484 156.275,93.405 154.908,93.405L144.611,93.405L125.171,112.844Z" style="fill:none;stroke:white;stroke-width:0.22px;"/>
        <path d="M123.083,93.405L117.251,93.405C116.099,93.405 114.947,94.484 114.947,95.853L114.947,101.54L123.083,93.405Z" style="fill:rgb(0,64,128);fill-rule:nonzero;"/>
        <path d="M123.083,93.405L117.251,93.405C116.099,93.405 114.947,94.484 114.947,95.853L114.947,101.54L123.083,93.405Z" style="fill:none;stroke:white;stroke-width:0.22px;"/>
        <path d="M168.731,140.348C168.731,133.22 163.043,127.532 155.987,127.532C148.932,127.532 143.243,133.22 143.243,140.348C143.243,147.332 148.932,153.02 155.987,153.02C163.043,153.02 168.731,147.332 168.731,140.348Z" style="fill:white;fill-rule:nonzero;"/>
        <path d="M168.731,140.348C168.731,133.22 163.043,127.532 155.987,127.532C148.932,127.532 143.243,133.22 143.243,140.348C143.243,147.332 148.932,153.02 155.987,153.02C163.043,153.02 168.731,147.332 168.731,140.348Z" style="fill:none;stroke:white;stroke-width:0.22px;"/>
    </g>
</svg>
