<?xml version="1.0" encoding="UTF-8" standalone="no"?>
<!DOCTYPE svg PUBLIC "-//W3C//DTD SVG 1.1//EN" "http://www.w3.org/Graphics/SVG/1.1/DTD/svg11.dtd">
<svg width="100%" height="100%" viewBox="0 0 596 388" version="1.1" xmlns="http://www.w3.org/2000/svg" xmlns:xlink="http://www.w3.org/1999/xlink" xml:space="preserve" xmlns:serif="http://www.serif.com/" style="fill-rule:evenodd;clip-rule:evenodd;stroke-linecap:round;stroke-linejoin:round;stroke-miterlimit:2;">
    <g>
        <path d="M594.922,30.907C594.922,23.022 591.789,15.461 586.214,9.886C580.64,4.311 573.077,1.178 565.193,1.178L30.082,1.178C22.198,1.178 14.636,4.311 9.061,9.886C3.485,15.461 0.354,23.022 0.354,30.907L0.354,357.919C0.354,365.803 3.485,373.365 9.061,378.939C14.636,384.514 22.198,387.646 30.082,387.646L565.193,387.646C573.077,387.646 580.64,384.514 586.214,378.939C591.789,373.365 594.922,365.803 594.922,357.919L594.922,30.907Z" style="fill:white;fill-rule:nonzero;"/>
        <path d="M594.922,30.907C594.922,23.022 591.789,15.461 586.214,9.886C580.64,4.311 573.077,1.178 565.193,1.178L30.082,1.178C22.198,1.178 14.636,4.311 9.061,9.886C3.485,15.461 0.354,23.022 0.354,30.907L0.354,357.919C0.354,365.803 3.485,373.365 9.061,378.939C14.636,384.514 22.198,387.646 30.082,387.646L565.193,387.646C573.077,387.646 580.64,384.514 586.214,378.939C591.789,373.365 594.922,365.803 594.922,357.919L594.922,30.907Z" style="fill:none;stroke:white;stroke-width:0.71px;"/>
        <path d="M580.058,30.907C580.058,22.697 573.402,16.043 565.193,16.043L30.082,16.043C26.14,16.043 22.359,17.609 19.571,20.396C16.784,23.183 15.218,26.964 15.218,30.907L15.218,357.919C15.218,361.861 16.784,365.641 19.571,368.429C22.359,371.217 26.14,372.782 30.082,372.782L565.193,372.782C569.136,372.782 572.916,371.217 575.704,368.429C578.492,365.641 580.058,361.861 580.058,357.919L580.058,30.907Z" style="fill:rgb(0,64,128);fill-rule:nonzero;"/>
        <path d="M580.058,30.907C580.058,22.697 573.402,16.043 565.193,16.043L30.082,16.043C26.14,16.043 22.359,17.609 19.571,20.396C16.784,23.183 15.218,26.964 15.218,30.907L15.218,357.919C15.218,361.861 16.784,365.641 19.571,368.429C22.359,371.217 26.14,372.782 30.082,372.782L565.193,372.782C569.136,372.782 572.916,371.217 575.704,368.429C578.492,365.641 580.058,361.861 580.058,357.919L580.058,30.907Z" style="fill:none;stroke:rgb(0,64,128);stroke-width:0.71px;"/>
        <rect x="30.082" y="307.1" width="535.111" height="13.658" style="fill:white;"/>
        <rect x="30.082" y="307.1" width="535.111" height="13.658" style="fill:none;stroke:white;stroke-width:0.71px;"/>
        <path d="M325.844,95.869L374.642,127.523L67.393,127.523L67.393,151.825L45.248,256.01C44.383,260.077 45.4,264.315 48.017,267.546C50.633,270.776 54.568,272.654 58.725,272.654L128.496,272.654C120.646,280.56 120.677,293.329 128.565,301.198C136.453,309.066 149.222,309.066 157.11,301.198C164.998,293.329 165.029,280.56 157.179,272.654L178.1,272.654C170.25,280.56 170.28,293.329 178.168,301.198C186.056,309.066 198.825,309.066 206.713,301.198C214.601,293.329 214.632,280.56 206.782,272.654L379.507,272.654C371.657,280.56 371.688,293.329 379.576,301.198C387.465,309.066 400.233,309.066 408.12,301.198C416.009,293.329 416.04,280.56 408.189,272.654L429.11,272.654C421.26,280.56 421.291,293.329 429.18,301.198C437.066,309.066 449.836,309.066 457.724,301.198C465.611,293.329 465.643,280.56 457.793,272.654L536.551,272.654C540.708,272.654 544.643,270.776 547.259,267.546C549.875,264.315 550.892,260.077 550.027,256.01L527.883,151.825L527.883,127.523L399.004,127.523L447.803,95.869L447.803,83.822L386.822,45.771L325.844,83.822L325.844,95.869Z" style="fill:white;fill-rule:nonzero;"/>
        <path d="M325.844,95.869L374.642,127.523L67.393,127.523L67.393,151.825L45.248,256.01C44.383,260.077 45.4,264.315 48.017,267.546C50.633,270.776 54.568,272.654 58.725,272.654L128.496,272.654C120.646,280.56 120.677,293.329 128.565,301.198C136.453,309.066 149.222,309.066 157.11,301.198C164.998,293.329 165.029,280.56 157.179,272.654L178.1,272.654C170.25,280.56 170.28,293.329 178.168,301.198C186.056,309.066 198.825,309.066 206.713,301.198C214.601,293.329 214.632,280.56 206.782,272.654L379.507,272.654C371.657,280.56 371.688,293.329 379.576,301.198C387.465,309.066 400.233,309.066 408.12,301.198C416.009,293.329 416.04,280.56 408.189,272.654L429.11,272.654C421.26,280.56 421.291,293.329 429.18,301.198C437.066,309.066 449.836,309.066 457.724,301.198C465.611,293.329 465.643,280.56 457.793,272.654L536.551,272.654C540.708,272.654 544.643,270.776 547.259,267.546C549.875,264.315 550.892,260.077 550.027,256.01L527.883,151.825L527.883,127.523L399.004,127.523L447.803,95.869L447.803,83.822L386.822,45.771L325.844,83.822L325.844,95.869Z" style="fill:none;stroke:white;stroke-width:0.71px;"/>
        <rect x="461.145" y="157.252" width="37.159" height="89.184" style="fill:rgb(0,64,128);"/>
        <rect x="461.145" y="157.252" width="37.159" height="89.184" style="fill:none;stroke:rgb(0,64,128);stroke-width:0.52px;"/>
        <rect x="383.851" y="157.252" width="59.456" height="47.565" style="fill:rgb(0,64,128);"/>
        <rect x="383.851" y="157.252" width="59.456" height="47.565" style="fill:none;stroke:rgb(0,64,128);stroke-width:0.71px;"/>
        <rect x="306.557" y="157.252" width="59.457" height="47.565" style="fill:rgb(0,64,128);"/>
        <rect x="306.557" y="157.252" width="59.457" height="47.565" style="fill:none;stroke:rgb(0,64,128);stroke-width:0.71px;"/>
        <rect x="229.263" y="157.252" width="59.456" height="47.565" style="fill:rgb(0,64,128);"/>
        <rect x="229.263" y="157.252" width="59.456" height="47.565" style="fill:none;stroke:rgb(0,64,128);stroke-width:0.71px;"/>
        <rect x="151.969" y="157.252" width="59.456" height="47.565" style="fill:rgb(0,64,128);"/>
        <rect x="151.969" y="157.252" width="59.456" height="47.565" style="fill:none;stroke:rgb(0,64,128);stroke-width:0.71px;"/>
        <rect x="96.971" y="157.252" width="37.161" height="89.184" style="fill:rgb(0,64,128);"/>
        <rect x="96.971" y="157.252" width="37.161" height="89.184" style="fill:none;stroke:rgb(0,64,128);stroke-width:0.52px;"/>
        <path d="M386.822,58.836L336.68,89.588L336.68,90.255L380.892,118.671L392.755,118.671L436.967,90.255L436.967,89.588L386.822,58.836Z" style="fill:rgb(0,64,128);fill-rule:nonzero;"/>
        <path d="M386.822,58.836L336.68,89.588L336.68,90.255L380.892,118.671L392.755,118.671L436.967,90.255L436.967,89.588L386.822,58.836Z" style="fill:none;stroke:rgb(0,64,128);stroke-width:0.71px;"/>
    </g>
</svg>
