<?xml version="1.0" encoding="UTF-8" standalone="no"?>
<!DOCTYPE svg PUBLIC "-//W3C//DTD SVG 1.1//EN" "http://www.w3.org/Graphics/SVG/1.1/DTD/svg11.dtd">
<svg width="100%" height="100%" viewBox="0 0 114 60" version="1.1" xmlns="http://www.w3.org/2000/svg" xmlns:xlink="http://www.w3.org/1999/xlink" xml:space="preserve" xmlns:serif="http://www.serif.com/" style="fill-rule:evenodd;clip-rule:evenodd;stroke-miterlimit:2;">
    <g>
        <path d="M0.107,55.357C0.107,57.877 2.123,59.893 4.643,59.893L109.115,59.893C111.635,59.893 113.651,57.877 113.651,55.357L113.651,5.389C113.651,2.869 111.635,0.853 109.115,0.853L4.643,0.853C2.123,0.853 0.107,2.869 0.107,5.389L0.107,55.357Z" style="fill:white;fill-rule:nonzero;"/>
        <path d="M0.107,55.357C0.107,57.877 2.123,59.893 4.643,59.893L109.115,59.893C111.635,59.893 113.651,57.877 113.651,55.357L113.651,5.389C113.651,2.869 111.635,0.853 109.115,0.853L4.643,0.853C2.123,0.853 0.107,2.869 0.107,5.389L0.107,55.357Z" style="fill:none;stroke:rgb(0,64,128);stroke-width:0.22px;"/>
        <path d="M2.339,55.357C2.339,56.581 3.42,57.661 4.643,57.661L109.115,57.661C110.339,57.661 111.42,56.581 111.42,55.357L111.42,5.389C111.42,4.165 110.339,3.157 109.115,3.157L4.643,3.157C3.42,3.157 2.339,4.165 2.339,5.389L2.339,55.357Z" style="fill:rgb(0,64,128);fill-rule:nonzero;"/>
        <path d="M2.339,55.357C2.339,56.581 3.42,57.661 4.643,57.661L109.115,57.661C110.339,57.661 111.42,56.581 111.42,55.357L111.42,5.389C111.42,4.165 110.339,3.157 109.115,3.157L4.643,3.157C3.42,3.157 2.339,4.165 2.339,5.389L2.339,55.357Z" style="fill:none;stroke:white;stroke-width:0.22px;"/>
        <path d="M36.323,12.157L36.323,17.485L28.403,17.485L28.403,43.909L22.931,43.909L22.931,17.485L15.011,17.485L15.011,12.157L36.323,12.157Z" style="fill:white;fill-rule:nonzero;"/>
        <path d="M36.323,12.157L36.323,17.485L28.403,17.485L28.403,43.909L22.931,43.909L22.931,17.485L15.011,17.485L15.011,12.157L36.323,12.157Z" style="fill:none;stroke:white;stroke-width:0.22px;"/>
        <path d="M52.523,28.501L52.523,29.725L45.755,29.725C41.795,29.725 38.627,32.893 38.627,36.853C38.627,39.517 40.067,41.965 42.371,43.189C44.099,44.053 46.043,44.557 47.987,44.557C49.499,44.557 51.083,44.197 52.523,43.621L52.523,43.909L57.275,43.909L57.275,28.501C57.275,24.181 53.747,20.653 49.427,20.581L47.915,20.581C44.963,20.581 41.939,21.157 39.131,22.309L40.787,26.413C43.451,25.333 46.259,24.901 49.067,25.045C50.939,25.045 52.523,26.557 52.523,28.501Z" style="fill:white;fill-rule:nonzero;"/>
        <path d="M52.523,28.501L52.523,29.725L45.755,29.725C41.795,29.725 38.627,32.893 38.627,36.853C38.627,39.517 40.067,41.965 42.371,43.189C44.099,44.053 46.043,44.557 47.987,44.557C49.499,44.557 51.083,44.197 52.523,43.621L52.523,43.909L57.275,43.909L57.275,28.501C57.275,24.181 53.747,20.653 49.427,20.581L47.915,20.581C44.963,20.581 41.939,21.157 39.131,22.309L40.787,26.413C43.451,25.333 46.259,24.901 49.067,25.045C50.939,25.045 52.523,26.557 52.523,28.501Z" style="fill:none;stroke:white;stroke-width:0.22px;"/>
        <path d="M45.467,39.661C46.259,39.949 47.123,40.093 47.915,40.093C49.571,40.093 51.227,39.589 52.523,38.581L52.523,33.541L46.547,33.541C44.819,33.541 43.379,34.981 43.379,36.709C43.379,38.005 44.243,39.229 45.467,39.661Z" style="fill:rgb(0,64,128);fill-rule:nonzero;"/>
        <path d="M45.467,39.661C46.259,39.949 47.123,40.093 47.915,40.093C49.571,40.093 51.227,39.589 52.523,38.581L52.523,33.541L46.547,33.541C44.819,33.541 43.379,34.981 43.379,36.709C43.379,38.005 44.243,39.229 45.467,39.661Z" style="fill:none;stroke:white;stroke-width:0.22px;"/>
        <path d="M71.891,32.173L64.547,21.229L70.667,21.229L74.771,27.637L78.875,21.229L84.995,21.229L77.651,32.173L84.995,43.909L79.811,43.909L74.771,36.421L69.731,43.909L64.547,43.909L71.891,32.173Z" style="fill:white;fill-rule:nonzero;"/>
        <path d="M71.891,32.173L64.547,21.229L70.667,21.229L74.771,27.637L78.875,21.229L84.995,21.229L77.651,32.173L84.995,43.909L79.811,43.909L74.771,36.421L69.731,43.909L64.547,43.909L71.891,32.173Z" style="fill:none;stroke:white;stroke-width:0.22px;"/>
        <path d="M97.019,14.461C97.019,13.021 95.795,11.797 94.283,11.797C92.771,11.797 91.547,13.021 91.547,14.461C91.547,15.973 92.771,17.197 94.283,17.197C95.795,17.197 97.019,15.973 97.019,14.461Z" style="fill:white;fill-rule:nonzero;"/>
        <path d="M97.019,14.461C97.019,13.021 95.795,11.797 94.283,11.797C92.771,11.797 91.547,13.021 91.547,14.461C91.547,15.973 92.771,17.197 94.283,17.197C95.795,17.197 97.019,15.973 97.019,14.461Z" style="fill:none;stroke:white;stroke-width:0.22px;"/>
        <rect x="91.908" y="21.229" width="4.751" height="22.68" style="fill:white;"/>
        <rect x="91.908" y="21.229" width="4.751" height="22.68" style="fill:none;stroke:white;stroke-width:0.22px;"/>
    </g>
</svg>
