<?xml version="1.0" encoding="UTF-8" standalone="no"?>
<!DOCTYPE svg PUBLIC "-//W3C//DTD SVG 1.1//EN" "http://www.w3.org/Graphics/SVG/1.1/DTD/svg11.dtd">
<svg width="100%" height="100%" viewBox="0 0 596 596" version="1.1" xmlns="http://www.w3.org/2000/svg" xmlns:xlink="http://www.w3.org/1999/xlink" xml:space="preserve" xmlns:serif="http://www.serif.com/" style="fill-rule:evenodd;clip-rule:evenodd;stroke-linecap:round;stroke-linejoin:round;stroke-miterlimit:2;">
    <g>
        <path d="M0.354,23.376C0.354,17.462 2.703,11.791 6.884,7.61C11.065,3.429 16.736,1.079 22.65,1.079L572.626,1.079C584.939,1.079 594.922,11.062 594.922,23.376L594.922,573.35C594.922,579.264 592.572,584.935 588.392,589.116C584.21,593.298 578.539,595.646 572.626,595.646L22.65,595.646C16.736,595.646 11.065,593.298 6.884,589.116C2.703,584.935 0.354,579.264 0.354,573.35L0.354,23.376Z" style="fill:white;fill-rule:nonzero;"/>
        <path d="M0.354,23.376C0.354,17.462 2.703,11.791 6.884,7.61C11.065,3.429 16.736,1.079 22.65,1.079L572.626,1.079C584.939,1.079 594.922,11.062 594.922,23.376L594.922,573.35C594.922,579.264 592.572,584.935 588.392,589.116C584.21,593.298 578.539,595.646 572.626,595.646L22.65,595.646C16.736,595.646 11.065,593.298 6.884,589.116C2.703,584.935 0.354,579.264 0.354,573.35L0.354,23.376Z" style="fill:none;stroke:black;stroke-width:0.71px;"/>
        <path d="M12.245,23.376C12.245,17.629 16.903,12.971 22.65,12.971L572.626,12.971C575.385,12.971 578.031,14.067 579.983,16.018C581.934,17.97 583.03,20.617 583.03,23.376L583.03,573.35C583.03,579.097 578.372,583.755 572.626,583.755L22.65,583.755C19.89,583.755 17.244,582.659 15.293,580.708C13.341,578.756 12.245,576.11 12.245,573.35L12.245,23.376Z" style="fill:rgb(0,64,128);fill-rule:nonzero;"/>
        <path d="M12.245,23.376C12.245,17.629 16.903,12.971 22.65,12.971L572.626,12.971C575.385,12.971 578.031,14.067 579.983,16.018C581.934,17.97 583.03,20.617 583.03,23.376L583.03,573.35C583.03,579.097 578.372,583.755 572.626,583.755L22.65,583.755C19.89,583.755 17.244,582.659 15.293,580.708C13.341,578.756 12.245,576.11 12.245,573.35L12.245,23.376Z" style="fill:none;stroke:rgb(0,64,128);stroke-width:0.71px;"/>
        <path d="M31.94,526.462L297.638,66.26L563.335,526.462L31.94,526.462Z" style="fill:white;fill-rule:nonzero;"/>
        <path d="M31.94,526.462L297.638,66.26L563.335,526.462L31.94,526.462Z" style="fill:none;stroke:white;stroke-width:0.71px;"/>
        <path d="M530.489,509.602L473.001,405.551L424.572,405.551L463,509.6L530.489,509.602Z" style="fill:rgb(35,31,32);fill-rule:nonzero;"/>
        <path d="M530.489,509.602L473.001,405.551L424.572,405.551L463,509.6L530.489,509.602Z" style="fill:none;stroke:rgb(35,31,32);stroke-width:0.71px;"/>
        <path d="M326.666,469.373L329.415,509.6L398.534,509.6L374.955,405.549L348.812,405.551L382.776,463.011L338.408,489.237L326.666,469.373Z" style="fill:rgb(35,31,32);fill-rule:nonzero;"/>
        <path d="M326.666,469.373L329.415,509.6L398.534,509.6L374.955,405.549L348.812,405.551L382.776,463.011L338.408,489.237L326.666,469.373Z" style="fill:none;stroke:rgb(35,31,32);stroke-width:0.71px;"/>
        <path d="M220.321,405.549L196.742,509.6L265.86,509.6L267.359,487.664L222.883,475.706L241.745,405.551L220.321,405.549Z" style="fill:rgb(35,31,32);fill-rule:nonzero;"/>
        <path d="M220.321,405.549L196.742,509.6L265.86,509.6L267.359,487.664L222.883,475.706L241.745,405.551L220.321,405.549Z" style="fill:none;stroke:rgb(35,31,32);stroke-width:0.71px;"/>
        <path d="M132.275,509.6L64.787,509.6L122.274,405.551L170.703,405.551L132.275,509.6Z" style="fill:rgb(35,31,32);fill-rule:nonzero;"/>
        <path d="M132.275,509.6L64.787,509.6L122.274,405.551L170.703,405.551L132.275,509.6Z" style="fill:none;stroke:rgb(35,31,32);stroke-width:0.71px;"/>
        <path d="M269.564,307.668L269.564,335.167L233.409,469.641L266.59,478.561L298.377,360.338L298.377,404.635L341.433,477.472L371.012,459.987L331.821,393.689L331.821,272.473L341.327,287.91L341.327,346.705L362.803,346.705L362.803,281.829L328.313,225.816C324.973,220.39 320.291,215.914 314.722,212.819C304.949,207.388 292.728,209.372 285.176,217.617C275.134,228.58 269.564,242.909 269.564,257.776L269.564,274.93L225.542,327.402L242.017,341.013L269.564,307.668Z" style="fill:rgb(35,31,32);fill-rule:nonzero;"/>
        <path d="M269.564,307.668L269.564,335.167L233.409,469.641L266.59,478.561L298.377,360.338L298.377,404.635L341.433,477.472L371.012,459.987L331.821,393.689L331.821,272.473L341.327,287.91L341.327,346.705L362.803,346.705L362.803,281.829L328.313,225.816C324.973,220.39 320.291,215.914 314.722,212.819C304.949,207.388 292.728,209.372 285.176,217.617C275.134,228.58 269.564,242.909 269.564,257.776L269.564,274.93L225.542,327.402L242.017,341.013L269.564,307.668Z" style="fill:none;stroke:rgb(35,31,32);stroke-width:0.71px;"/>
        <path d="M323.408,176.575C323.408,162.343 311.87,150.805 297.638,150.805C283.406,150.805 271.868,162.343 271.868,176.575C271.868,190.808 283.406,202.345 297.638,202.345C311.87,202.345 323.408,190.808 323.408,176.575Z" style="fill:rgb(35,31,32);fill-rule:nonzero;"/>
        <path d="M323.408,176.575C323.408,162.343 311.87,150.805 297.638,150.805C283.406,150.805 271.868,162.343 271.868,176.575C271.868,190.808 283.406,202.345 297.638,202.345C311.87,202.345 323.408,190.808 323.408,176.575Z" style="fill:none;stroke:rgb(35,31,32);stroke-width:0.71px;"/>
    </g>
</svg>
