<?xml version="1.0" encoding="UTF-8" standalone="no"?>
<!DOCTYPE svg PUBLIC "-//W3C//DTD SVG 1.1//EN" "http://www.w3.org/Graphics/SVG/1.1/DTD/svg11.dtd">
<svg width="100%" height="100%" viewBox="0 0 596 596" version="1.1" xmlns="http://www.w3.org/2000/svg" xmlns:xlink="http://www.w3.org/1999/xlink" xml:space="preserve" xmlns:serif="http://www.serif.com/" style="fill-rule:evenodd;clip-rule:evenodd;stroke-linecap:round;stroke-linejoin:round;stroke-miterlimit:2;">
    <g>
        <path d="M564.432,595.647C572.518,595.647 580.273,592.434 585.99,586.716C591.71,580.997 594.922,573.244 594.922,565.156L594.922,31.57C594.922,23.484 591.71,15.728 585.99,10.01C580.273,4.292 572.518,1.079 564.432,1.079L30.844,1.079C22.758,1.079 15.002,4.292 9.284,10.01C3.566,15.728 0.354,23.484 0.354,31.57L0.354,565.156C0.354,573.244 3.566,580.997 9.284,586.716C15.002,592.434 22.758,595.647 30.844,595.647L564.432,595.647Z" style="fill:white;fill-rule:nonzero;"/>
        <path d="M564.432,595.647C572.518,595.647 580.273,592.434 585.99,586.716C591.71,580.997 594.922,573.244 594.922,565.156L594.922,31.57C594.922,23.484 591.71,15.728 585.99,10.01C580.273,4.292 572.518,1.079 564.432,1.079L30.844,1.079C22.758,1.079 15.002,4.292 9.284,10.01C3.566,15.728 0.354,23.484 0.354,31.57L0.354,565.156C0.354,573.244 3.566,580.997 9.284,586.716C15.002,592.434 22.758,595.647 30.844,595.647L564.432,595.647Z" style="fill:none;stroke:white;stroke-width:0.71px;"/>
        <path d="M564.432,580.402C568.475,580.402 572.352,578.795 575.211,575.936C578.07,573.078 579.676,569.199 579.676,565.156L579.676,31.57C579.676,27.527 578.07,23.649 575.211,20.79C572.352,17.931 568.475,16.325 564.432,16.325L30.844,16.325C26.801,16.325 22.923,17.931 20.064,20.79C17.205,23.649 15.599,27.527 15.599,31.57L15.599,565.156C15.599,573.576 22.424,580.402 30.844,580.402L564.432,580.402Z" style="fill:rgb(0,64,128);fill-rule:nonzero;"/>
        <path d="M564.432,580.402C568.475,580.402 572.352,578.795 575.211,575.936C578.07,573.078 579.676,569.199 579.676,565.156L579.676,31.57C579.676,27.527 578.07,23.649 575.211,20.79C572.352,17.931 568.475,16.325 564.432,16.325L30.844,16.325C26.801,16.325 22.923,17.931 20.064,20.79C17.205,23.649 15.599,27.527 15.599,31.57L15.599,565.156C15.599,573.576 22.424,580.402 30.844,580.402L564.432,580.402Z" style="fill:none;stroke:rgb(0,64,128);stroke-width:0.71px;"/>
        <path d="M266.058,118.705C266.058,95.841 247.523,77.306 224.659,77.306C201.794,77.306 183.259,95.841 183.259,118.705C183.259,141.57 201.794,160.105 224.659,160.105C247.523,160.105 266.058,141.57 266.058,118.705Z" style="fill:white;fill-rule:nonzero;"/>
        <path d="M266.058,118.705C266.058,95.841 247.523,77.306 224.659,77.306C201.794,77.306 183.259,95.841 183.259,118.705C183.259,141.57 201.794,160.105 224.659,160.105C247.523,160.105 266.058,141.57 266.058,118.705Z" style="fill:none;stroke:white;stroke-width:0.71px;"/>
        <path d="M137.455,329.228L181.441,202.157C187.7,184.074 203.788,171.194 222.802,169.043C241.815,166.891 260.375,175.85 270.516,192.077L317.809,267.745L317.809,330.879C317.809,339.454 310.857,346.404 302.282,346.404C293.709,346.404 286.758,339.454 286.758,330.879L286.758,284.305L276.408,267.745L276.408,420.133L308.806,490.527C313.586,500.913 309.041,513.207 298.656,517.986C288.271,522.765 275.978,518.221 271.198,507.835L228.798,415.71L228.798,362.572L178.179,504.309C173.949,516.152 160.92,522.324 149.077,518.095C137.234,513.864 131.062,500.834 135.292,488.992L193.609,325.704L193.609,261.926L166.796,339.385C165.06,344.728 160.573,348.716 155.063,349.814C149.554,350.913 143.881,348.949 140.229,344.679C136.577,340.41 135.517,334.501 137.455,329.228Z" style="fill:white;fill-rule:nonzero;"/>
        <path d="M137.455,329.228L181.441,202.157C187.7,184.074 203.788,171.194 222.802,169.043C241.815,166.891 260.375,175.85 270.516,192.077L317.809,267.745L317.809,330.879C317.809,339.454 310.857,346.404 302.282,346.404C293.709,346.404 286.758,339.454 286.758,330.879L286.758,284.305L276.408,267.745L276.408,420.133L308.806,490.527C313.586,500.913 309.041,513.207 298.656,517.986C288.271,522.765 275.978,518.221 271.198,507.835L228.798,415.71L228.798,362.572L178.179,504.309C173.949,516.152 160.92,522.324 149.077,518.095C137.234,513.864 131.062,500.834 135.292,488.992L193.609,325.704L193.609,261.926L166.796,339.385C165.06,344.728 160.573,348.716 155.063,349.814C149.554,350.913 143.881,348.949 140.229,344.679C136.577,340.41 135.517,334.501 137.455,329.228Z" style="fill:none;stroke:white;stroke-width:0.71px;"/>
        <path d="M422.631,244.06C422.631,225.728 407.77,210.868 389.438,210.868C371.107,210.868 356.246,225.728 356.246,244.06C356.246,262.391 371.107,277.252 389.438,277.252C407.77,277.252 422.631,262.391 422.631,244.06Z" style="fill:white;fill-rule:nonzero;"/>
        <path d="M422.631,244.06C422.631,225.728 407.77,210.868 389.438,210.868C371.107,210.868 356.246,225.728 356.246,244.06C356.246,262.391 371.107,277.252 389.438,277.252C407.77,277.252 422.631,262.391 422.631,244.06Z" style="fill:none;stroke:white;stroke-width:0.71px;"/>
        <path d="M358.973,308.46C363.522,295.32 375.213,285.959 389.032,284.395C402.85,282.832 416.337,289.343 423.707,301.135L457.821,355.717L457.821,403.38C457.821,409.912 452.526,415.205 445.995,415.205C439.463,415.205 434.169,409.912 434.169,403.38L434.169,363.641L425.194,349.282L425.194,453.048L445.136,496.377C448.604,503.913 445.307,512.83 437.772,516.298C430.238,519.766 421.319,516.47 417.853,508.935L392.299,453.413L392.299,407.969L357.323,505.9C354.401,514.082 345.398,518.346 337.216,515.424C329.033,512.502 324.769,503.5 327.69,495.318L365.097,390.582L365.097,359.636L346.758,412.613C345.499,416.49 342.243,419.382 338.246,420.179C334.249,420.975 330.133,419.551 327.484,416.454C324.835,413.356 324.065,409.07 325.471,405.244L358.973,308.46Z" style="fill:white;fill-rule:nonzero;"/>
        <path d="M358.973,308.46C363.522,295.32 375.213,285.959 389.032,284.395C402.85,282.832 416.337,289.343 423.707,301.135L457.821,355.717L457.821,403.38C457.821,409.912 452.526,415.205 445.995,415.205C439.463,415.205 434.169,409.912 434.169,403.38L434.169,363.641L425.194,349.282L425.194,453.048L445.136,496.377C448.604,503.913 445.307,512.83 437.772,516.298C430.238,519.766 421.319,516.47 417.853,508.935L392.299,453.413L392.299,407.969L357.323,505.9C354.401,514.082 345.398,518.346 337.216,515.424C329.033,512.502 324.769,503.5 327.69,495.318L365.097,390.582L365.097,359.636L346.758,412.613C345.499,416.49 342.243,419.382 338.246,420.179C334.249,420.975 330.133,419.551 327.484,416.454C324.835,413.356 324.065,409.07 325.471,405.244L358.973,308.46Z" style="fill:none;stroke:white;stroke-width:0.71px;"/>
    </g>
</svg>
