<?xml version="1.0" encoding="UTF-8" standalone="no"?>
<!DOCTYPE svg PUBLIC "-//W3C//DTD SVG 1.1//EN" "http://www.w3.org/Graphics/SVG/1.1/DTD/svg11.dtd">
<svg width="100%" height="100%" viewBox="0 0 596 596" version="1.1" xmlns="http://www.w3.org/2000/svg" xmlns:xlink="http://www.w3.org/1999/xlink" xml:space="preserve" xmlns:serif="http://www.serif.com/" style="fill-rule:evenodd;clip-rule:evenodd;stroke-linecap:round;stroke-linejoin:round;stroke-miterlimit:2;">
    <g>
        <path d="M564.432,595.647C572.518,595.647 580.273,592.434 585.99,586.716C591.71,580.997 594.922,573.244 594.922,565.156L594.922,31.57C594.922,23.484 591.71,15.728 585.99,10.01C580.273,4.292 572.518,1.079 564.432,1.079L30.844,1.079C22.758,1.079 15.002,4.292 9.284,10.01C3.566,15.728 0.354,23.484 0.354,31.57L0.354,565.156C0.354,573.244 3.566,580.997 9.284,586.716C15.002,592.434 22.758,595.647 30.844,595.647L564.432,595.647Z" style="fill:white;fill-rule:nonzero;"/>
        <path d="M564.432,595.647C572.518,595.647 580.273,592.434 585.99,586.716C591.71,580.997 594.922,573.244 594.922,565.156L594.922,31.57C594.922,23.484 591.71,15.728 585.99,10.01C580.273,4.292 572.518,1.079 564.432,1.079L30.844,1.079C22.758,1.079 15.002,4.292 9.284,10.01C3.566,15.728 0.354,23.484 0.354,31.57L0.354,565.156C0.354,573.244 3.566,580.997 9.284,586.716C15.002,592.434 22.758,595.647 30.844,595.647L564.432,595.647Z" style="fill:none;stroke:white;stroke-width:0.71px;"/>
        <path d="M564.432,580.402C568.475,580.402 572.352,578.795 575.211,575.936C578.07,573.078 579.676,569.199 579.676,565.156L579.676,31.57C579.676,27.527 578.07,23.649 575.211,20.79C572.352,17.931 568.475,16.325 564.432,16.325L30.844,16.325C26.801,16.325 22.923,17.931 20.064,20.79C17.205,23.649 15.599,27.527 15.599,31.57L15.599,565.156C15.599,573.576 22.424,580.402 30.844,580.402L564.432,580.402Z" style="fill:rgb(0,64,128);fill-rule:nonzero;"/>
        <path d="M564.432,580.402C568.475,580.402 572.352,578.795 575.211,575.936C578.07,573.078 579.676,569.199 579.676,565.156L579.676,31.57C579.676,27.527 578.07,23.649 575.211,20.79C572.352,17.931 568.475,16.325 564.432,16.325L30.844,16.325C26.801,16.325 22.923,17.931 20.064,20.79C17.205,23.649 15.599,27.527 15.599,31.57L15.599,565.156C15.599,573.576 22.424,580.402 30.844,580.402L564.432,580.402Z" style="fill:none;stroke:rgb(0,64,128);stroke-width:0.71px;"/>
        <path d="M280.478,84.902C280.478,72.287 270.251,62.061 257.637,62.061C245.021,62.061 234.795,72.287 234.795,84.902C234.795,97.517 245.021,107.743 257.637,107.743C270.251,107.743 280.478,97.517 280.478,84.902Z" style="fill:white;fill-rule:nonzero;"/>
        <path d="M280.478,84.902C280.478,72.287 270.251,62.061 257.637,62.061C245.021,62.061 234.795,72.287 234.795,84.902C234.795,97.517 245.021,107.743 257.637,107.743C270.251,107.743 280.478,97.517 280.478,84.902Z" style="fill:none;stroke:white;stroke-width:0.71px;"/>
        <path d="M366.862,154.062C366.862,143.949 358.664,135.75 348.55,135.75C338.436,135.75 330.236,143.949 330.236,154.062C330.236,164.177 338.436,172.376 348.55,172.376C358.664,172.376 366.862,164.177 366.862,154.062Z" style="fill:white;fill-rule:nonzero;"/>
        <path d="M366.862,154.062C366.862,143.949 358.664,135.75 348.55,135.75C338.436,135.75 330.236,143.949 330.236,154.062C330.236,164.177 338.436,172.376 348.55,172.376C358.664,172.376 366.862,164.177 366.862,154.062Z" style="fill:none;stroke:white;stroke-width:0.71px;"/>
        <path d="M209.524,201.052L233.792,130.944C237.246,120.967 246.122,113.861 256.612,112.674C267.103,111.487 277.342,116.43 282.937,125.382L309.029,167.13L309.029,201.963C309.029,206.693 305.194,210.529 300.464,210.529C295.733,210.529 291.898,206.693 291.898,201.963L291.898,176.267L286.188,167.13L286.188,251.206L304.063,290.045C306.699,295.774 304.192,302.557 298.463,305.194C292.733,307.83 285.951,305.324 283.313,299.594L259.92,248.766L259.92,219.449L231.992,297.648C229.659,304.182 222.47,307.586 215.936,305.253C209.402,302.92 205.997,295.732 208.331,289.198L240.506,199.107L240.506,163.92L225.712,206.656C224.754,209.604 222.279,211.804 219.239,212.41C216.199,213.015 213.069,211.932 211.055,209.577C209.04,207.222 208.455,203.961 209.524,201.052Z" style="fill:white;fill-rule:nonzero;"/>
        <path d="M209.524,201.052L233.792,130.944C237.246,120.967 246.122,113.861 256.612,112.674C267.103,111.487 277.342,116.43 282.937,125.382L309.029,167.13L309.029,201.963C309.029,206.693 305.194,210.529 300.464,210.529C295.733,210.529 291.898,206.693 291.898,201.963L291.898,176.267L286.188,167.13L286.188,251.206L304.063,290.045C306.699,295.774 304.192,302.557 298.463,305.194C292.733,307.83 285.951,305.324 283.313,299.594L259.92,248.766L259.92,219.449L231.992,297.648C229.659,304.182 222.47,307.586 215.936,305.253C209.402,302.92 205.997,295.732 208.331,289.198L240.506,199.107L240.506,163.92L225.712,206.656C224.754,209.604 222.279,211.804 219.239,212.41C216.199,213.015 213.069,211.932 211.055,209.577C209.04,207.222 208.455,203.961 209.524,201.052Z" style="fill:none;stroke:white;stroke-width:0.71px;"/>
        <path d="M331.74,189.595C334.25,182.344 340.702,177.18 348.325,176.317C355.949,175.454 363.391,179.046 367.457,185.553L386.278,215.667L386.278,241.963C386.278,245.567 383.357,248.488 379.753,248.488C376.149,248.488 373.229,245.567 373.229,241.963L373.229,220.038L368.276,212.116L368.276,269.367L379.279,293.273C381.192,297.43 379.373,302.35 375.217,304.264C371.061,306.176 366.14,304.357 364.226,300.201L350.127,269.568L350.127,244.496L330.831,298.526C329.219,303.04 324.252,305.393 319.737,303.781C315.223,302.168 312.87,297.202 314.482,292.687L335.119,234.903L335.119,217.829L325.002,247.057C324.307,249.196 322.511,250.792 320.305,251.232C318.1,251.671 315.829,250.885 314.368,249.176C312.905,247.467 312.481,245.102 313.257,242.992L331.74,189.595Z" style="fill:white;fill-rule:nonzero;"/>
        <path d="M331.74,189.595C334.25,182.344 340.702,177.18 348.325,176.317C355.949,175.454 363.391,179.046 367.457,185.553L386.278,215.667L386.278,241.963C386.278,245.567 383.357,248.488 379.753,248.488C376.149,248.488 373.229,245.567 373.229,241.963L373.229,220.038L368.276,212.116L368.276,269.367L379.279,293.273C381.192,297.43 379.373,302.35 375.217,304.264C371.061,306.176 366.14,304.357 364.226,300.201L350.127,269.568L350.127,244.496L330.831,298.526C329.219,303.04 324.252,305.393 319.737,303.781C315.223,302.168 312.87,297.202 314.482,292.687L335.119,234.903L335.119,217.829L325.002,247.057C324.307,249.196 322.511,250.792 320.305,251.232C318.1,251.671 315.829,250.885 314.368,249.176C312.905,247.467 312.481,245.102 313.257,242.992L331.74,189.595Z" style="fill:none;stroke:white;stroke-width:0.71px;"/>
        <path d="M242.51,349.778L221.345,419.538C191.234,413.192 161.387,431.387 153.234,461.059C145.081,490.732 161.441,521.622 190.567,531.552C219.694,541.482 251.517,527.018 263.186,498.544C274.856,470.07 262.339,437.432 234.622,424.064L238.715,410.4L295.379,475.252C294.799,481.281 298.403,486.929 304.114,488.943C309.826,490.958 316.176,488.822 319.508,483.765L328.175,483.76C331.187,508.079 349.11,527.907 373.005,533.348C396.898,538.79 421.642,528.68 434.888,508.063C448.134,487.446 447.044,460.74 432.162,441.269C417.281,421.799 391.798,413.739 368.427,421.108L349.331,379.601L353.398,366.262L361.912,366.153C365.424,365.454 367.898,362.294 367.736,358.716C367.573,355.138 364.822,352.216 361.262,351.838L331.764,351.785C328.063,351.8 324.965,354.589 324.563,358.267C324.16,361.944 326.582,365.338 330.19,366.153L338.758,366.262L327.679,402.565L248.8,377.269L253.355,362.141C253.544,360.332 255.062,358.955 256.88,358.942L271.249,358.833C274.747,358.107 277.196,354.943 277.02,351.373C276.844,347.805 274.097,344.897 270.544,344.517L249.146,344.517C246.014,344.609 243.314,346.749 242.51,349.778Z" style="fill:white;fill-rule:nonzero;"/>
        <path d="M242.51,349.778L221.345,419.538C191.234,413.192 161.387,431.387 153.234,461.059C145.081,490.732 161.441,521.622 190.567,531.552C219.694,541.482 251.517,527.018 263.186,498.544C274.856,470.07 262.339,437.432 234.622,424.064L238.715,410.4L295.379,475.252C294.799,481.281 298.403,486.929 304.114,488.943C309.826,490.958 316.176,488.822 319.508,483.765L328.175,483.76C331.187,508.079 349.11,527.907 373.005,533.348C396.898,538.79 421.642,528.68 434.888,508.063C448.134,487.446 447.044,460.74 432.162,441.269C417.281,421.799 391.798,413.739 368.427,421.108L349.331,379.601L353.398,366.262L361.912,366.153C365.424,365.454 367.898,362.294 367.736,358.716C367.573,355.138 364.822,352.216 361.262,351.838L331.764,351.785C328.063,351.8 324.965,354.589 324.563,358.267C324.16,361.944 326.582,365.338 330.19,366.153L338.758,366.262L327.679,402.565L248.8,377.269L253.355,362.141C253.544,360.332 255.062,358.955 256.88,358.942L271.249,358.833C274.747,358.107 277.196,354.943 277.02,351.373C276.844,347.805 274.097,344.897 270.544,344.517L249.146,344.517C246.014,344.609 243.314,346.749 242.51,349.778Z" style="fill:none;stroke:white;stroke-width:0.71px;"/>
        <path d="M224.262,457.666C222.366,464.129 220.039,470.457 217.296,476.607C216.503,478.328 215.482,479.933 214.26,481.379C211.884,483.788 208.12,484.14 205.339,482.215C202.557,480.289 201.562,476.642 202.981,473.571C205.77,468.132 208.109,462.474 209.976,456.654L217.505,432.135C194.353,427.863 171.808,442.114 165.737,464.861C159.666,487.608 172.109,511.198 194.312,519.032C216.514,526.863 241.005,516.303 250.551,494.782C260.097,473.26 251.486,448.018 230.778,436.818L224.262,457.666Z" style="fill:rgb(0,64,128);fill-rule:nonzero;"/>
        <path d="M224.262,457.666C222.366,464.129 220.039,470.457 217.296,476.607C216.503,478.328 215.482,479.933 214.26,481.379C211.884,483.788 208.12,484.14 205.339,482.215C202.557,480.289 201.562,476.642 202.981,473.571C205.77,468.132 208.109,462.474 209.976,456.654L217.505,432.135C194.353,427.863 171.808,442.114 165.737,464.861C159.666,487.608 172.109,511.198 194.312,519.032C216.514,526.863 241.005,516.303 250.551,494.782C260.097,473.26 251.486,448.018 230.778,436.818L224.262,457.666Z" style="fill:none;stroke:rgb(0,64,128);stroke-width:0.71px;"/>
        <path d="M323.396,416.608L309.043,463.269C307.444,463.273 305.855,463.509 304.325,463.974L243.649,394.35L244.571,391.313L323.396,416.608Z" style="fill:rgb(0,64,128);fill-rule:nonzero;"/>
        <path d="M323.396,416.608L309.043,463.269C307.444,463.273 305.855,463.509 304.325,463.974L243.649,394.35L244.571,391.313L323.396,416.608Z" style="fill:none;stroke:rgb(0,64,128);stroke-width:0.71px;"/>
        <path d="M355.641,426.916C340.523,436.13 330.422,451.725 328.196,469.288L321.895,469.287L343.15,399.663L355.641,426.916Z" style="fill:rgb(0,64,128);fill-rule:nonzero;"/>
        <path d="M355.641,426.916C340.523,436.13 330.422,451.725 328.196,469.288L321.895,469.287L343.15,399.663L355.641,426.916Z" style="fill:none;stroke:rgb(0,64,128);stroke-width:0.47px;"/>
        <path d="M361.175,438.914C350.625,445.826 343.458,456.842 341.415,469.287L375.143,469.287L361.175,438.914Z" style="fill:rgb(0,64,128);fill-rule:nonzero;"/>
        <path d="M361.175,438.914C350.625,445.826 343.458,456.842 341.415,469.287L375.143,469.287L361.175,438.914Z" style="fill:none;stroke:rgb(0,64,128);stroke-width:0.47px;"/>
        <path d="M392.548,473.679C393.568,475.907 393.371,478.502 392.028,480.551C390.685,482.599 388.382,483.814 385.933,483.765C371.1,483.473 356.262,483.496 341.429,483.833C344.438,502.229 358.472,516.869 376.725,520.653C394.977,524.436 413.674,516.579 423.746,500.894C433.818,485.208 433.184,464.939 422.148,449.914C411.114,434.89 391.963,428.219 373.982,433.138L392.548,473.679Z" style="fill:rgb(0,64,128);fill-rule:nonzero;"/>
        <path d="M392.548,473.679C393.568,475.907 393.371,478.502 392.028,480.551C390.685,482.599 388.382,483.814 385.933,483.765C371.1,483.473 356.262,483.496 341.429,483.833C344.438,502.229 358.472,516.869 376.725,520.653C394.977,524.436 413.674,516.579 423.746,500.894C433.818,485.208 433.184,464.939 422.148,449.914C411.114,434.89 391.963,428.219 373.982,433.138L392.548,473.679Z" style="fill:none;stroke:rgb(0,64,128);stroke-width:0.71px;"/>
    </g>
</svg>
