<?xml version="1.0" encoding="UTF-8" standalone="no"?>
<!DOCTYPE svg PUBLIC "-//W3C//DTD SVG 1.1//EN" "http://www.w3.org/Graphics/SVG/1.1/DTD/svg11.dtd">
<svg width="100%" height="100%" viewBox="0 0 142 142" version="1.1" xmlns="http://www.w3.org/2000/svg" xmlns:xlink="http://www.w3.org/1999/xlink" xml:space="preserve" xmlns:serif="http://www.serif.com/" style="fill-rule:evenodd;clip-rule:evenodd;stroke-miterlimit:2;">
    <g>
        <path d="M134.891,0.341L6.875,0.341C3.131,0.341 0.107,3.365 0.107,7.108L0.107,135.124C0.107,138.868 3.131,141.892 6.875,141.892L134.891,141.892C138.635,141.892 141.659,138.868 141.659,135.124L141.659,7.108C141.659,3.365 138.635,0.341 134.891,0.341Z" style="fill:white;fill-rule:nonzero;"/>
        <path d="M134.891,0.341L6.875,0.341C3.131,0.341 0.107,3.365 0.107,7.108L0.107,135.124C0.107,138.868 3.131,141.892 6.875,141.892L134.891,141.892C138.635,141.892 141.659,138.868 141.659,135.124L141.659,7.108C141.659,3.365 138.635,0.341 134.891,0.341Z" style="fill:none;stroke:rgb(0,104,178);stroke-width:0.22px;"/>
        <path d="M134.891,3.724L6.875,3.724C5.003,3.724 3.491,5.236 3.491,7.108L3.491,135.124C3.491,136.996 5.003,138.508 6.875,138.508L134.891,138.508C136.763,138.508 138.275,136.996 138.275,135.124L138.275,7.108C138.275,5.236 136.763,3.724 134.891,3.724Z" style="fill:rgb(0,64,128);fill-rule:nonzero;"/>
        <path d="M134.891,3.724L6.875,3.724C5.003,3.724 3.491,5.236 3.491,7.108L3.491,135.124C3.491,136.996 5.003,138.508 6.875,138.508L134.891,138.508C136.763,138.508 138.275,136.996 138.275,135.124L138.275,7.108C138.275,5.236 136.763,3.724 134.891,3.724Z" style="fill:none;stroke:white;stroke-width:0.22px;"/>
        <path d="M45.611,60.749L70.523,120.436L95.579,60.389L95.579,120.508L112.355,120.508L112.355,21.436L93.564,21.436L70.523,76.661L47.411,21.436L28.763,21.436L28.763,120.508L45.611,120.508L45.611,60.749Z" style="fill:white;fill-rule:nonzero;"/>
        <path d="M45.611,60.749L70.523,120.436L95.579,60.389L95.579,120.508L112.355,120.508L112.355,21.436L93.564,21.436L70.523,76.661L47.411,21.436L28.763,21.436L28.763,120.508L45.611,120.508L45.611,60.749Z" style="fill:none;stroke:white;stroke-width:0.22px;"/>
    </g>
</svg>
