<?xml version="1.0" encoding="UTF-8" standalone="no"?>
<!DOCTYPE svg PUBLIC "-//W3C//DTD SVG 1.1//EN" "http://www.w3.org/Graphics/SVG/1.1/DTD/svg11.dtd">
<svg width="100%" height="100%" viewBox="0 0 114 180" version="1.1" xmlns="http://www.w3.org/2000/svg" xmlns:xlink="http://www.w3.org/1999/xlink" xml:space="preserve" xmlns:serif="http://www.serif.com/" style="fill-rule:evenodd;clip-rule:evenodd;stroke-miterlimit:2;">
    <g>
        <path d="M113.651,173.987C113.651,177.299 110.987,179.891 107.675,179.891L6.083,179.891C2.771,179.963 0.107,177.299 0.107,173.987L0.107,6.731C0.107,3.419 2.771,0.683 6.083,0.683L107.675,0.683C110.987,0.683 113.651,3.347 113.651,6.731L113.651,173.987Z" style="fill:white;fill-rule:nonzero;"/>
        <path d="M113.651,173.987C113.651,177.299 110.987,179.891 107.675,179.891L6.083,179.891C2.771,179.963 0.107,177.299 0.107,173.987L0.107,6.731C0.107,3.419 2.771,0.683 6.083,0.683L107.675,0.683C110.987,0.683 113.651,3.347 113.651,6.731L113.651,173.987Z" style="fill:none;stroke:rgb(0,64,128);stroke-width:0.22px;"/>
        <path d="M110.627,173.987C110.627,175.643 109.331,176.939 107.675,176.939L6.083,176.939C4.427,176.939 3.131,175.643 3.131,173.987L3.131,6.731C3.131,5.003 4.427,3.707 6.083,3.707L107.675,3.707C109.331,3.707 110.627,5.003 110.627,6.731L110.627,173.987Z" style="fill:rgb(0,64,128);fill-rule:nonzero;"/>
        <path d="M110.627,173.987C110.627,175.643 109.331,176.939 107.675,176.939L6.083,176.939C4.427,176.939 3.131,175.643 3.131,173.987L3.131,6.731C3.131,5.003 4.427,3.707 6.083,3.707L107.675,3.707C109.331,3.707 110.627,5.003 110.627,6.731L110.627,173.987Z" style="fill:none;stroke:white;stroke-width:0.22px;"/>
        <path d="M58.643,23.075L91.547,70.163C91.763,70.451 91.835,70.739 91.835,70.955C91.835,71.747 91.187,72.395 90.468,72.395L90.179,72.395L68.579,68.579L68.579,159.658L45.179,159.658L45.179,68.579L23.579,72.395C22.715,72.467 21.923,71.819 21.923,70.955C21.923,70.739 21.995,70.451 22.211,70.163L55.115,23.075C55.979,21.923 57.779,21.923 58.643,23.075Z" style="fill:white;fill-rule:nonzero;"/>
        <path d="M58.643,23.075L91.547,70.163C91.763,70.451 91.835,70.739 91.835,70.955C91.835,71.747 91.187,72.395 90.468,72.395L90.179,72.395L68.579,68.579L68.579,159.658L45.179,159.658L45.179,68.579L23.579,72.395C22.715,72.467 21.923,71.819 21.923,70.955C21.923,70.739 21.995,70.451 22.211,70.163L55.115,23.075C55.979,21.923 57.779,21.923 58.643,23.075Z" style="fill:none;stroke:white;stroke-width:0.22px;"/>
    </g>
</svg>
