<?xml version="1.0" encoding="UTF-8" standalone="no"?>
<!DOCTYPE svg PUBLIC "-//W3C//DTD SVG 1.1//EN" "http://www.w3.org/Graphics/SVG/1.1/DTD/svg11.dtd">
<svg width="100%" height="100%" viewBox="0 0 596 715" version="1.1" xmlns="http://www.w3.org/2000/svg" xmlns:xlink="http://www.w3.org/1999/xlink" xml:space="preserve" xmlns:serif="http://www.serif.com/" style="fill-rule:evenodd;clip-rule:evenodd;stroke-linecap:round;stroke-linejoin:round;stroke-miterlimit:2;">
    <g>
        <path d="M28.893,714.646C21.324,714.646 14.065,711.64 8.713,706.287C3.36,700.936 0.354,693.677 0.354,686.107L0.354,29.705C0.354,22.136 3.36,14.876 8.713,9.524C14.065,4.172 21.324,1.165 28.893,1.165L566.382,1.165C582.144,1.165 594.922,13.943 594.922,29.705L594.922,686.107C594.922,693.677 591.915,700.936 586.563,706.287C581.21,711.64 573.951,714.646 566.382,714.646L28.893,714.646Z" style="fill:white;fill-rule:nonzero;"/>
        <path d="M28.893,714.646C21.324,714.646 14.065,711.64 8.713,706.287C3.36,700.936 0.354,693.677 0.354,686.107L0.354,29.705C0.354,22.136 3.36,14.876 8.713,9.524C14.065,4.172 21.324,1.165 28.893,1.165L566.382,1.165C582.144,1.165 594.922,13.943 594.922,29.705L594.922,686.107C594.922,693.677 591.915,700.936 586.563,706.287C581.21,711.64 573.951,714.646 566.382,714.646L28.893,714.646Z" style="fill:none;stroke:white;stroke-width:0.71px;"/>
        <path d="M566.382,15.435C574.264,15.435 580.652,21.824 580.652,29.705L580.652,686.107C580.652,689.892 579.148,693.521 576.473,696.196C573.796,698.873 570.167,700.376 566.382,700.376L28.893,700.376C25.108,700.376 21.479,698.873 18.803,696.196C16.127,693.521 14.623,689.892 14.623,686.107L14.623,29.705C14.623,25.92 16.127,22.29 18.803,19.615C21.479,16.938 25.108,15.435 28.893,15.435L566.382,15.435Z" style="fill:rgb(0,64,128);fill-rule:nonzero;"/>
        <path d="M566.382,15.435C574.264,15.435 580.652,21.824 580.652,29.705L580.652,686.107C580.652,689.892 579.148,693.521 576.473,696.196C573.796,698.873 570.167,700.376 566.382,700.376L28.893,700.376C25.108,700.376 21.479,698.873 18.803,696.196C16.127,693.521 14.623,689.892 14.623,686.107L14.623,29.705C14.623,25.92 16.127,22.29 18.803,19.615C21.479,16.938 25.108,15.435 28.893,15.435L566.382,15.435Z" style="fill:none;stroke:rgb(0,64,128);stroke-width:0.71px;"/>
        <path d="M229.857,328.177L408.228,328.177L408.228,68.946L467.685,68.946L467.685,646.866L408.228,646.866L408.228,387.635L229.857,387.635L229.857,461.36L127.592,461.36L127.592,254.451L229.857,254.451L229.857,328.177Z" style="fill:white;fill-rule:nonzero;"/>
        <path d="M229.857,328.177L408.228,328.177L408.228,68.946L467.685,68.946L467.685,646.866L408.228,646.866L408.228,387.635L229.857,387.635L229.857,461.36L127.592,461.36L127.592,254.451L229.857,254.451L229.857,328.177Z" style="fill:none;stroke:white;stroke-width:0.71px;"/>
        <rect x="135.916" y="262.775" width="85.617" height="190.261" style="fill:rgb(211,63,39);"/>
        <rect x="135.916" y="262.775" width="85.617" height="190.261" style="fill:none;stroke:rgb(211,63,39);stroke-width:0.71px;"/>
    </g>
</svg>
