<?xml version="1.0" encoding="UTF-8" standalone="no"?>
<!DOCTYPE svg PUBLIC "-//W3C//DTD SVG 1.1//EN" "http://www.w3.org/Graphics/SVG/1.1/DTD/svg11.dtd">
<svg width="100%" height="100%" viewBox="0 0 596 715" version="1.1" xmlns="http://www.w3.org/2000/svg" xmlns:xlink="http://www.w3.org/1999/xlink" xml:space="preserve" xmlns:serif="http://www.serif.com/" style="fill-rule:evenodd;clip-rule:evenodd;stroke-linecap:round;stroke-linejoin:round;stroke-miterlimit:2;">
    <g>
        <path d="M28.893,714.646C21.324,714.646 14.065,711.64 8.713,706.287C3.36,700.936 0.354,693.677 0.354,686.107L0.354,29.705C0.354,22.136 3.36,14.876 8.713,9.524C14.065,4.172 21.324,1.165 28.893,1.165L566.382,1.165C582.144,1.165 594.922,13.943 594.922,29.705L594.922,686.107C594.922,693.677 591.915,700.936 586.563,706.287C581.21,711.64 573.951,714.646 566.382,714.646L28.893,714.646Z" style="fill:white;fill-rule:nonzero;"/>
        <path d="M28.893,714.646C21.324,714.646 14.065,711.64 8.713,706.287C3.36,700.936 0.354,693.677 0.354,686.107L0.354,29.705C0.354,22.136 3.36,14.876 8.713,9.524C14.065,4.172 21.324,1.165 28.893,1.165L566.382,1.165C582.144,1.165 594.922,13.943 594.922,29.705L594.922,686.107C594.922,693.677 591.915,700.936 586.563,706.287C581.21,711.64 573.951,714.646 566.382,714.646L28.893,714.646Z" style="fill:none;stroke:rgb(0,64,128);stroke-width:0.71px;"/>
        <path d="M566.382,15.435C574.264,15.435 580.652,21.824 580.652,29.705L580.652,686.107C580.652,689.892 579.148,693.521 576.473,696.196C573.796,698.873 570.167,700.376 566.382,700.376L28.893,700.376C25.108,700.376 21.479,698.873 18.803,696.196C16.127,693.521 14.623,689.892 14.623,686.107L14.623,29.705C14.623,25.92 16.127,22.29 18.803,19.615C21.479,16.938 25.108,15.435 28.893,15.435L566.382,15.435Z" style="fill:rgb(0,64,128);fill-rule:nonzero;"/>
        <path d="M566.382,15.435C574.264,15.435 580.652,21.824 580.652,29.705L580.652,686.107C580.652,689.892 579.148,693.521 576.473,696.196C573.796,698.873 570.167,700.376 566.382,700.376L28.893,700.376C25.108,700.376 21.479,698.873 18.803,696.196C16.127,693.521 14.623,689.892 14.623,686.107L14.623,29.705C14.623,25.92 16.127,22.29 18.803,19.615C21.479,16.938 25.108,15.435 28.893,15.435L566.382,15.435Z" style="fill:none;stroke:rgb(0,64,128);stroke-width:0.71px;"/>
        <path d="M257.631,61.198L241.657,113.852C218.93,109.061 196.402,122.794 190.249,145.19C184.095,167.586 196.443,190.902 218.427,198.397C240.411,205.892 264.429,194.974 273.238,173.482C282.045,151.991 272.598,127.357 251.678,117.268L254.767,106.954L297.535,155.902C297.099,160.453 299.817,164.716 304.129,166.236C308.44,167.758 313.232,166.145 315.748,162.328L322.289,162.324C324.562,180.68 338.091,195.644 356.126,199.752C374.16,203.859 392.835,196.228 402.833,180.667C412.831,165.106 412.009,144.949 400.775,130.253C389.544,115.558 370.311,109.474 352.67,115.036L338.258,83.708L341.327,73.64L347.753,73.558C350.404,73.031 352.271,70.645 352.149,67.945C352.026,65.245 349.949,63.039 347.262,62.754L324.997,62.713C322.205,62.725 319.866,64.83 319.563,67.606C319.259,70.381 321.086,72.943 323.811,73.558L330.276,73.64L321.914,101.04L262.379,81.948L265.817,70.53C265.959,69.165 267.105,68.125 268.477,68.115L279.323,68.033C281.963,67.485 283.812,65.097 283.679,62.403C283.546,59.71 281.473,57.514 278.791,57.228L262.641,57.228C260.276,57.297 258.238,58.912 257.631,61.198Z" style="fill:white;fill-rule:nonzero;"/>
        <path d="M257.631,61.198L241.657,113.852C218.93,109.061 196.402,122.794 190.249,145.19C184.095,167.586 196.443,190.902 218.427,198.397C240.411,205.892 264.429,194.974 273.238,173.482C282.045,151.991 272.598,127.357 251.678,117.268L254.767,106.954L297.535,155.902C297.099,160.453 299.817,164.716 304.129,166.236C308.44,167.758 313.232,166.145 315.748,162.328L322.289,162.324C324.562,180.68 338.091,195.644 356.126,199.752C374.16,203.859 392.835,196.228 402.833,180.667C412.831,165.106 412.009,144.949 400.775,130.253C389.544,115.558 370.311,109.474 352.67,115.036L338.258,83.708L341.327,73.64L347.753,73.558C350.404,73.031 352.271,70.645 352.149,67.945C352.026,65.245 349.949,63.039 347.262,62.754L324.997,62.713C322.205,62.725 319.866,64.83 319.563,67.606C319.259,70.381 321.086,72.943 323.811,73.558L330.276,73.64L321.914,101.04L262.379,81.948L265.817,70.53C265.959,69.165 267.105,68.125 268.477,68.115L279.323,68.033C281.963,67.485 283.812,65.097 283.679,62.403C283.546,59.71 281.473,57.514 278.791,57.228L262.641,57.228C260.276,57.297 258.238,58.912 257.631,61.198Z" style="fill:none;stroke:white;stroke-width:0.71px;"/>
        <path d="M243.858,142.63C242.428,147.507 240.671,152.283 238.601,156.926C238.003,158.224 237.231,159.436 236.309,160.527C234.516,162.346 231.675,162.611 229.576,161.158C227.476,159.705 226.726,156.952 227.796,154.634C229.901,150.529 231.667,146.258 233.076,141.865L238.758,123.359C221.283,120.134 204.268,130.891 199.685,148.06C195.103,165.228 204.495,183.034 221.252,188.946C238.011,194.857 256.496,186.887 263.701,170.644C270.906,154.399 264.406,135.347 248.776,126.893L243.858,142.63Z" style="fill:rgb(0,64,128);fill-rule:nonzero;"/>
        <path d="M243.858,142.63C242.428,147.507 240.671,152.283 238.601,156.926C238.003,158.224 237.231,159.436 236.309,160.527C234.516,162.346 231.675,162.611 229.576,161.158C227.476,159.705 226.726,156.952 227.796,154.634C229.901,150.529 231.667,146.258 233.076,141.865L238.758,123.359C221.283,120.134 204.268,130.891 199.685,148.06C195.103,165.228 204.495,183.034 221.252,188.946C238.011,194.857 256.496,186.887 263.701,170.644C270.906,154.399 264.406,135.347 248.776,126.893L243.858,142.63Z" style="fill:none;stroke:rgb(0,64,128);stroke-width:0.71px;"/>
        <path d="M318.682,111.64L307.85,146.857C306.643,146.86 305.443,147.04 304.288,147.39L258.491,94.84L259.187,92.548L318.682,111.64Z" style="fill:rgb(0,64,128);fill-rule:nonzero;"/>
        <path d="M318.682,111.64L307.85,146.857C306.643,146.86 305.443,147.04 304.288,147.39L258.491,94.84L259.187,92.548L318.682,111.64Z" style="fill:none;stroke:rgb(0,64,128);stroke-width:0.71px;"/>
        <path d="M343.021,119.42C331.609,126.374 323.985,138.145 322.305,151.401L317.549,151.4L333.592,98.851L343.021,119.42Z" style="fill:rgb(0,64,128);fill-rule:nonzero;"/>
        <path d="M343.021,119.42C331.609,126.374 323.985,138.145 322.305,151.401L317.549,151.4L333.592,98.851L343.021,119.42Z" style="fill:none;stroke:rgb(0,64,128);stroke-width:0.35px;"/>
        <path d="M347.196,128.476C339.233,133.693 333.824,142.008 332.282,151.4L357.739,151.4L347.196,128.476Z" style="fill:rgb(0,64,128);fill-rule:nonzero;"/>
        <path d="M347.196,128.476C339.233,133.693 333.824,142.008 332.282,151.4L357.739,151.4L347.196,128.476Z" style="fill:none;stroke:rgb(0,64,128);stroke-width:0.35px;"/>
        <path d="M370.876,154.715C371.646,156.397 371.498,158.355 370.483,159.902C369.469,161.448 367.732,162.365 365.883,162.328C354.688,162.107 343.487,162.124 332.293,162.379C334.563,176.264 345.156,187.314 358.933,190.169C372.71,193.024 386.821,187.095 394.424,175.256C402.026,163.417 401.546,148.118 393.219,136.778C384.89,125.439 370.434,120.404 356.863,124.116L370.876,154.715Z" style="fill:rgb(0,64,128);fill-rule:nonzero;"/>
        <path d="M370.876,154.715C371.646,156.397 371.498,158.355 370.483,159.902C369.469,161.448 367.732,162.365 365.883,162.328C354.688,162.107 343.487,162.124 332.293,162.379C334.563,176.264 345.156,187.314 358.933,190.169C372.71,193.024 386.821,187.095 394.424,175.256C402.026,163.417 401.546,148.118 393.219,136.778C384.89,125.439 370.434,120.404 356.863,124.116L370.876,154.715Z" style="fill:none;stroke:rgb(0,64,128);stroke-width:0.71px;"/>
        <path d="M309.529,216.993L309.529,312.718L401.093,312.718L401.093,414.983L327.366,414.983L327.366,658.757L267.91,658.757L267.91,414.983L194.183,414.983L194.183,312.718L285.747,312.718L285.747,216.993L309.529,216.993Z" style="fill:white;fill-rule:nonzero;"/>
        <path d="M309.529,216.993L309.529,312.718L401.093,312.718L401.093,414.983L327.366,414.983L327.366,658.757L267.91,658.757L267.91,414.983L194.183,414.983L194.183,312.718L285.747,312.718L285.747,216.993L309.529,216.993Z" style="fill:none;stroke:white;stroke-width:0.71px;"/>
        <rect x="202.507" y="321.042" width="190.262" height="85.618" style="fill:rgb(211,63,39);"/>
        <rect x="202.507" y="321.042" width="190.262" height="85.618" style="fill:none;stroke:rgb(211,63,39);stroke-width:0.71px;"/>
    </g>
</svg>
