<?xml version="1.0" encoding="UTF-8" standalone="no"?>
<!DOCTYPE svg PUBLIC "-//W3C//DTD SVG 1.1//EN" "http://www.w3.org/Graphics/SVG/1.1/DTD/svg11.dtd">
<svg width="100%" height="100%" viewBox="0 0 596 715" version="1.1" xmlns="http://www.w3.org/2000/svg" xmlns:xlink="http://www.w3.org/1999/xlink" xml:space="preserve" xmlns:serif="http://www.serif.com/" style="fill-rule:evenodd;clip-rule:evenodd;stroke-linecap:round;stroke-linejoin:round;stroke-miterlimit:2;">
    <g>
        <path d="M28.893,714.646C21.324,714.646 14.065,711.64 8.713,706.287C3.36,700.936 0.354,693.677 0.354,686.107L0.354,29.705C0.354,22.136 3.36,14.876 8.713,9.524C14.065,4.172 21.324,1.165 28.893,1.165L566.382,1.165C582.144,1.165 594.922,13.943 594.922,29.705L594.922,686.107C594.922,693.677 591.915,700.936 586.563,706.287C581.21,711.64 573.951,714.646 566.382,714.646L28.893,714.646Z" style="fill:white;fill-rule:nonzero;"/>
        <path d="M28.893,714.646C21.324,714.646 14.065,711.64 8.713,706.287C3.36,700.936 0.354,693.677 0.354,686.107L0.354,29.705C0.354,22.136 3.36,14.876 8.713,9.524C14.065,4.172 21.324,1.165 28.893,1.165L566.382,1.165C582.144,1.165 594.922,13.943 594.922,29.705L594.922,686.107C594.922,693.677 591.915,700.936 586.563,706.287C581.21,711.64 573.951,714.646 566.382,714.646L28.893,714.646Z" style="fill:none;stroke:rgb(0,64,128);stroke-width:0.71px;"/>
        <path d="M566.382,15.435C574.264,15.435 580.652,21.824 580.652,29.705L580.652,686.107C580.652,689.892 579.148,693.521 576.473,696.196C573.796,698.873 570.167,700.376 566.382,700.376L28.893,700.376C25.108,700.376 21.479,698.873 18.803,696.196C16.127,693.521 14.623,689.892 14.623,686.107L14.623,29.705C14.623,25.92 16.127,22.29 18.803,19.615C21.479,16.938 25.108,15.435 28.893,15.435L566.382,15.435Z" style="fill:rgb(0,64,128);fill-rule:nonzero;"/>
        <path d="M566.382,15.435C574.264,15.435 580.652,21.824 580.652,29.705L580.652,686.107C580.652,689.892 579.148,693.521 576.473,696.196C573.796,698.873 570.167,700.376 566.382,700.376L28.893,700.376C25.108,700.376 21.479,698.873 18.803,696.196C16.127,693.521 14.623,689.892 14.623,686.107L14.623,29.705C14.623,25.92 16.127,22.29 18.803,19.615C21.479,16.938 25.108,15.435 28.893,15.435L566.382,15.435Z" style="fill:none;stroke:rgb(0,64,128);stroke-width:0.71px;"/>
        <path d="M65.756,346.014L260.773,346.014L260.773,254.451L363.04,254.451L363.04,328.177L458.171,328.177L458.171,68.946L517.628,68.946L517.628,646.866L458.171,646.866L458.171,387.635L363.04,387.635L363.04,461.36L260.773,461.36L260.773,369.797L65.756,369.797L65.756,346.014Z" style="fill:white;fill-rule:nonzero;"/>
        <path d="M65.756,346.014L260.773,346.014L260.773,254.451L363.04,254.451L363.04,328.177L458.171,328.177L458.171,68.946L517.628,68.946L517.628,646.866L458.171,646.866L458.171,387.635L363.04,387.635L363.04,461.36L260.773,461.36L260.773,369.797L65.756,369.797L65.756,346.014Z" style="fill:none;stroke:white;stroke-width:0.71px;"/>
        <rect x="269.099" y="262.775" width="85.618" height="190.261" style="fill:rgb(211,63,39);"/>
        <rect x="269.099" y="262.775" width="85.618" height="190.261" style="fill:none;stroke:rgb(211,63,39);stroke-width:0.71px;"/>
        <path d="M117.669,211.145L105.642,250.787C88.531,247.181 71.57,257.52 66.938,274.382C62.305,291.243 71.601,308.797 88.152,314.44C104.704,320.082 122.788,311.863 129.418,295.683C136.05,279.502 128.938,260.956 113.187,253.359L115.512,245.595L147.712,282.447C147.383,285.873 149.431,289.082 152.677,290.227C155.922,291.372 159.53,290.158 161.424,287.284L166.349,287.281C168.06,301.101 178.246,312.368 191.823,315.46C205.401,318.553 219.461,312.808 226.988,301.091C234.515,289.376 233.896,274.2 225.44,263.136C216.984,252.072 202.502,247.491 189.222,251.679L178.371,228.092L180.682,220.513L185.52,220.451C187.516,220.054 188.922,218.258 188.83,216.225C188.737,214.192 187.174,212.531 185.149,212.316L168.388,212.286C166.285,212.294 164.525,213.879 164.296,215.97C164.067,218.059 165.444,219.988 167.494,220.451L172.363,220.513L166.067,241.142L121.244,226.768L123.832,218.171C123.939,217.144 124.802,216.361 125.835,216.353L134,216.291C135.988,215.879 137.379,214.081 137.28,212.053C137.18,210.025 135.618,208.372 133.6,208.157L121.44,208.157C119.66,208.208 118.126,209.424 117.669,211.145Z" style="fill:white;fill-rule:nonzero;"/>
        <path d="M117.669,211.145L105.642,250.787C88.531,247.181 71.57,257.52 66.938,274.382C62.305,291.243 71.601,308.797 88.152,314.44C104.704,320.082 122.788,311.863 129.418,295.683C136.05,279.502 128.938,260.956 113.187,253.359L115.512,245.595L147.712,282.447C147.383,285.873 149.431,289.082 152.677,290.227C155.922,291.372 159.53,290.158 161.424,287.284L166.349,287.281C168.06,301.101 178.246,312.368 191.823,315.46C205.401,318.553 219.461,312.808 226.988,301.091C234.515,289.376 233.896,274.2 225.44,263.136C216.984,252.072 202.502,247.491 189.222,251.679L178.371,228.092L180.682,220.513L185.52,220.451C187.516,220.054 188.922,218.258 188.83,216.225C188.737,214.192 187.174,212.531 185.149,212.316L168.388,212.286C166.285,212.294 164.525,213.879 164.296,215.97C164.067,218.059 165.444,219.988 167.494,220.451L172.363,220.513L166.067,241.142L121.244,226.768L123.832,218.171C123.939,217.144 124.802,216.361 125.835,216.353L134,216.291C135.988,215.879 137.379,214.081 137.28,212.053C137.18,210.025 135.618,208.372 133.6,208.157L121.44,208.157C119.66,208.208 118.126,209.424 117.669,211.145Z" style="fill:none;stroke:white;stroke-width:0.71px;"/>
        <path d="M107.299,272.454C106.223,276.126 104.9,279.722 103.341,283.217C102.891,284.195 102.311,285.106 101.616,285.928C100.266,287.297 98.127,287.498 96.546,286.403C94.965,285.309 94.4,283.237 95.207,281.491C96.791,278.401 98.121,275.186 99.181,271.878L103.46,257.945C90.303,255.518 77.492,263.616 74.042,276.542C70.592,289.468 77.664,302.874 90.28,307.324C102.897,311.775 116.814,305.774 122.239,293.545C127.664,281.315 122.77,266.971 111.002,260.606L107.299,272.454Z" style="fill:rgb(0,64,128);fill-rule:nonzero;"/>
        <path d="M107.299,272.454C106.223,276.126 104.9,279.722 103.341,283.217C102.891,284.195 102.311,285.106 101.616,285.928C100.266,287.297 98.127,287.498 96.546,286.403C94.965,285.309 94.4,283.237 95.207,281.491C96.791,278.401 98.121,275.186 99.181,271.878L103.46,257.945C90.303,255.518 77.492,263.616 74.042,276.542C70.592,289.468 77.664,302.874 90.28,307.324C102.897,311.775 116.814,305.774 122.239,293.545C127.664,281.315 122.77,266.971 111.002,260.606L107.299,272.454Z" style="fill:none;stroke:rgb(0,64,128);stroke-width:0.71px;"/>
        <path d="M163.633,249.123L155.477,275.637C154.569,275.64 153.666,275.774 152.796,276.038L118.316,236.474L118.84,234.748L163.633,249.123Z" style="fill:rgb(0,64,128);fill-rule:nonzero;"/>
        <path d="M163.633,249.123L155.477,275.637C154.569,275.64 153.666,275.774 152.796,276.038L118.316,236.474L118.84,234.748L163.633,249.123Z" style="fill:none;stroke:rgb(0,64,128);stroke-width:0.63px;"/>
        <path d="M181.956,254.98C173.366,260.216 167.625,269.077 166.36,279.058L162.78,279.057L174.858,239.494L181.956,254.98Z" style="fill:rgb(0,64,128);fill-rule:nonzero;"/>
        <path d="M181.956,254.98C173.366,260.216 167.625,269.077 166.36,279.058L162.78,279.057L174.858,239.494L181.956,254.98Z" style="fill:none;stroke:rgb(0,64,128);stroke-width:0.27px;"/>
        <path d="M185.101,261.798C179.106,265.726 175.033,271.986 173.873,279.057L193.038,279.057L185.101,261.798Z" style="fill:rgb(0,64,128);fill-rule:nonzero;"/>
        <path d="M185.101,261.798C179.106,265.726 175.033,271.986 173.873,279.057L193.038,279.057L185.101,261.798Z" style="fill:none;stroke:rgb(0,64,128);stroke-width:0.27px;"/>
        <path d="M202.929,281.553C203.509,282.819 203.397,284.293 202.634,285.458C201.87,286.622 200.562,287.312 199.169,287.284C190.741,287.118 182.309,287.131 173.88,287.323C175.59,297.776 183.564,306.096 193.937,308.246C204.31,310.395 214.934,305.931 220.657,297.018C226.381,288.104 226.02,276.586 219.75,268.048C213.479,259.511 202.596,255.721 192.379,258.515L202.929,281.553Z" style="fill:rgb(0,64,128);fill-rule:nonzero;"/>
        <path d="M202.929,281.553C203.509,282.819 203.397,284.293 202.634,285.458C201.87,286.622 200.562,287.312 199.169,287.284C190.741,287.118 182.309,287.131 173.88,287.323C175.59,297.776 183.564,306.096 193.937,308.246C204.31,310.395 214.934,305.931 220.657,297.018C226.381,288.104 226.02,276.586 219.75,268.048C213.479,259.511 202.596,255.721 192.379,258.515L202.929,281.553Z" style="fill:none;stroke:rgb(0,64,128);stroke-width:0.71px;"/>
    </g>
</svg>
