<?xml version="1.0" encoding="UTF-8" standalone="no"?>
<!DOCTYPE svg PUBLIC "-//W3C//DTD SVG 1.1//EN" "http://www.w3.org/Graphics/SVG/1.1/DTD/svg11.dtd">
<svg width="100%" height="100%" viewBox="0 0 227 357" version="1.1" xmlns="http://www.w3.org/2000/svg" xmlns:xlink="http://www.w3.org/1999/xlink" xml:space="preserve" xmlns:serif="http://www.serif.com/" style="fill-rule:evenodd;clip-rule:evenodd;stroke-miterlimit:2;">
    <g>
        <path d="M208.835,3.805C216.683,3.805 223.019,10.141 223.019,17.989L223.019,339.18C223.019,347.028 216.683,353.364 208.835,353.364L17.819,353.364C10.043,353.364 3.635,347.028 3.635,339.252L3.635,17.989C3.635,10.141 9.971,3.805 17.819,3.805L208.835,3.805Z" style="fill:rgb(35,31,32);fill-rule:nonzero;"/>
        <path d="M208.835,3.805C216.683,3.805 223.019,10.141 223.019,17.989L223.019,339.18C223.019,347.028 216.683,353.364 208.835,353.364L17.819,353.364C10.043,353.364 3.635,347.028 3.635,339.252L3.635,17.989C3.635,10.141 9.971,3.805 17.819,3.805L208.835,3.805Z" style="fill:none;stroke:rgb(35,31,32);stroke-width:0.22px;"/>
        <path d="M208.835,10.861C212.723,10.861 215.891,14.101 215.891,17.989L215.891,339.18C215.891,343.068 212.723,346.309 208.835,346.309L17.819,346.309C13.931,346.309 10.763,343.141 10.763,339.18L10.763,17.989C10.691,14.101 13.931,10.861 17.819,10.861L208.835,10.861Z" style="fill:white;fill-rule:nonzero;"/>
        <path d="M208.835,10.861C212.723,10.861 215.891,14.101 215.891,17.989L215.891,339.18C215.891,343.068 212.723,346.309 208.835,346.309L17.819,346.309C13.931,346.309 10.763,343.141 10.763,339.18L10.763,17.989C10.691,14.101 13.931,10.861 17.819,10.861L208.835,10.861Z" style="fill:none;stroke:rgb(35,31,32);stroke-width:0.22px;"/>
        <path d="M70.811,82.357L113.363,39.949L155.843,82.357L155.843,119.148L127.475,90.853L127.475,119.22C127.475,137.293 132.227,154.86 141.227,170.269L172.835,225.205C182.052,241.044 186.947,259.116 186.947,277.477L186.947,317.293L158.651,317.293L158.651,277.477C158.651,264.156 155.125,250.981 148.427,239.46L113.363,178.548L78.227,239.316C71.531,250.908 68.075,264.085 68.075,277.477L68.075,317.293L39.707,317.293L39.707,277.477C39.707,258.972 44.603,240.9 53.891,224.988L85.499,170.125C94.499,154.501 99.179,137.004 99.179,119.22L99.179,90.853L70.811,119.148L70.811,82.357Z" style="fill:rgb(211,63,39);fill-rule:nonzero;"/>
        <path d="M70.811,82.357L113.363,39.949L155.843,82.357L155.843,119.148L127.475,90.853L127.475,119.22C127.475,137.293 132.227,154.86 141.227,170.269L172.835,225.205C182.052,241.044 186.947,259.116 186.947,277.477L186.947,317.293L158.651,317.293L158.651,277.477C158.651,264.156 155.125,250.981 148.427,239.46L113.363,178.548L78.227,239.316C71.531,250.908 68.075,264.085 68.075,277.477L68.075,317.293L39.707,317.293L39.707,277.477C39.707,258.972 44.603,240.9 53.891,224.988L85.499,170.125C94.499,154.501 99.179,137.004 99.179,119.22L99.179,90.853L70.811,119.148L70.811,82.357Z" style="fill:none;stroke:rgb(211,63,39);stroke-width:0.22px;"/>
    </g>
</svg>
