<?xml version="1.0" encoding="UTF-8" standalone="no"?>
<!DOCTYPE svg PUBLIC "-//W3C//DTD SVG 1.1//EN" "http://www.w3.org/Graphics/SVG/1.1/DTD/svg11.dtd">
<svg width="100%" height="100%" viewBox="0 0 313 352" version="1.1" xmlns="http://www.w3.org/2000/svg" xmlns:xlink="http://www.w3.org/1999/xlink" xml:space="preserve" xmlns:serif="http://www.serif.com/" style="fill-rule:evenodd;clip-rule:evenodd;stroke-miterlimit:2;">
    <g>
        <path d="M17.531,4.493C9.899,4.493 3.635,10.613 3.635,18.389L3.635,334.468C3.635,342.101 9.899,348.364 17.531,348.364L294.731,348.364C302.292,348.364 308.627,342.101 308.627,334.468L308.627,18.389C308.627,10.757 302.292,4.493 294.731,4.493L17.531,4.493Z" style="fill:rgb(35,31,32);fill-rule:nonzero;"/>
        <path d="M17.531,4.493C9.899,4.493 3.635,10.613 3.635,18.389L3.635,334.468C3.635,342.101 9.899,348.364 17.531,348.364L294.731,348.364C302.292,348.364 308.627,342.101 308.627,334.468L308.627,18.389C308.627,10.757 302.292,4.493 294.731,4.493L17.531,4.493Z" style="fill:none;stroke:rgb(35,31,32);stroke-width:0.22px;"/>
        <path d="M17.531,11.405C13.715,11.405 10.547,14.573 10.547,18.389L10.547,334.468C10.547,338.357 13.715,341.453 17.531,341.453L294.731,341.453C298.403,341.453 301.571,338.285 301.571,334.468L301.571,18.389C301.571,14.573 298.403,11.405 294.731,11.405L17.531,11.405Z" style="fill:white;fill-rule:nonzero;"/>
        <path d="M17.531,11.405C13.715,11.405 10.547,14.573 10.547,18.389L10.547,334.468C10.547,338.357 13.715,341.453 17.531,341.453L294.731,341.453C298.403,341.453 301.571,338.285 301.571,334.468L301.571,18.389C301.571,14.573 298.403,11.405 294.731,11.405L17.531,11.405Z" style="fill:none;stroke:rgb(35,31,32);stroke-width:0.22px;"/>
        <path d="M96.227,39.989L96.227,188.957L123.947,161.092L123.947,197.236L82.259,239.141L40.499,197.236L40.499,161.092L68.363,188.957L68.363,39.989L96.227,39.989Z" style="fill:rgb(35,31,32);fill-rule:nonzero;"/>
        <path d="M96.227,39.989L96.227,188.957L123.947,161.092L123.947,197.236L82.259,239.141L40.499,197.236L40.499,161.092L68.363,188.957L68.363,39.989L96.227,39.989Z" style="fill:none;stroke:rgb(35,31,32);stroke-width:0.22px;"/>
        <path d="M213.155,90.101L213.155,118.036C213.155,135.749 217.835,153.028 226.691,168.293L257.795,222.22C266.867,237.988 271.691,255.628 271.691,273.844L271.691,312.94L243.827,312.94L243.827,273.844C243.827,260.524 240.227,247.636 233.747,236.26L199.331,176.357L164.699,236.26C158.148,247.492 154.763,260.381 154.763,273.773L154.763,312.94L126.684,312.94L126.684,273.844C126.827,255.413 131.651,237.7 140.723,222.077L171.899,168.149C180.755,152.813 185.363,135.605 185.363,118.036L185.363,90.101L157.5,117.963L157.5,81.749L199.331,39.989L241.019,81.749L241.019,117.963L213.155,90.101Z" style="fill:rgb(211,63,39);fill-rule:nonzero;"/>
        <path d="M213.155,90.101L213.155,118.036C213.155,135.749 217.835,153.028 226.691,168.293L257.795,222.22C266.867,237.988 271.691,255.628 271.691,273.844L271.691,312.94L243.827,312.94L243.827,273.844C243.827,260.524 240.227,247.636 233.747,236.26L199.331,176.357L164.699,236.26C158.148,247.492 154.763,260.381 154.763,273.773L154.763,312.94L126.684,312.94L126.684,273.844C126.827,255.413 131.651,237.7 140.723,222.077L171.899,168.149C180.755,152.813 185.363,135.605 185.363,118.036L185.363,90.101L157.5,117.963L157.5,81.749L199.331,39.989L241.019,81.749L241.019,117.963L213.155,90.101Z" style="fill:none;stroke:rgb(211,63,39);stroke-width:0.22px;"/>
    </g>
</svg>
