<?xml version="1.0" encoding="UTF-8" standalone="no"?>
<!DOCTYPE svg PUBLIC "-//W3C//DTD SVG 1.1//EN" "http://www.w3.org/Graphics/SVG/1.1/DTD/svg11.dtd">
<svg width="100%" height="100%" viewBox="0 0 227 304" version="1.1" xmlns="http://www.w3.org/2000/svg" xmlns:xlink="http://www.w3.org/1999/xlink" xml:space="preserve" xmlns:serif="http://www.serif.com/" style="fill-rule:evenodd;clip-rule:evenodd;stroke-miterlimit:2;">
    <g>
        <path d="M15.299,3.653L211.355,3.653C218.123,3.653 223.523,9.125 223.523,15.821L223.523,288.772C223.523,295.396 218.123,300.869 211.427,300.869L15.299,300.869C8.603,300.869 3.131,295.468 3.131,288.772L3.131,15.821C3.131,9.053 8.603,3.653 15.299,3.653Z" style="fill:rgb(35,31,32);fill-rule:nonzero;"/>
        <path d="M15.299,3.653L211.355,3.653C218.123,3.653 223.523,9.125 223.523,15.821L223.523,288.772C223.523,295.396 218.123,300.869 211.427,300.869L15.299,300.869C8.603,300.869 3.131,295.468 3.131,288.772L3.131,15.821C3.131,9.053 8.603,3.653 15.299,3.653Z" style="fill:none;stroke:rgb(35,31,32);stroke-width:0.22px;"/>
        <path d="M15.299,9.701L211.355,9.701C214.739,9.773 217.475,12.437 217.475,15.821L217.475,288.772C217.475,292.084 214.739,294.82 211.427,294.82L15.299,294.82C11.915,294.82 9.179,292.084 9.179,288.772L9.179,15.821C9.179,12.437 11.915,9.701 15.299,9.701Z" style="fill:white;fill-rule:nonzero;"/>
        <path d="M15.299,9.701L211.355,9.701C214.739,9.773 217.475,12.437 217.475,15.821L217.475,288.772C217.475,292.084 214.739,294.82 211.427,294.82L15.299,294.82C11.915,294.82 9.179,292.084 9.179,288.772L9.179,15.821C9.179,12.437 11.915,9.701 15.299,9.701Z" style="fill:none;stroke:rgb(35,31,32);stroke-width:0.22px;"/>
        <path d="M45.611,278.621L45.611,67.372L25.379,87.605L25.379,61.324L55.691,31.013L86.003,61.324L86.003,87.605L65.771,67.372L65.771,278.621L45.611,278.621Z" style="fill:rgb(35,31,32);fill-rule:nonzero;"/>
        <path d="M45.611,278.621L45.611,67.372L25.379,87.605L25.379,61.324L55.691,31.013L86.003,61.324L86.003,87.605L65.771,67.372L65.771,278.621L45.611,278.621Z" style="fill:none;stroke:rgb(35,31,32);stroke-width:0.22px;"/>
        <path d="M154.907,159.172L202.283,206.548L187.955,220.876L140.651,173.5L140.651,278.621L120.419,278.621L120.419,67.372L100.187,87.605L100.187,61.324L130.5,31.013L160.883,61.324L160.883,87.605L140.651,67.372L140.651,124.829C140.651,137.789 145.763,150.101 154.907,159.172Z" style="fill:rgb(211,63,39);fill-rule:nonzero;"/>
        <path d="M154.907,159.172L202.283,206.548L187.955,220.876L140.651,173.5L140.651,278.621L120.419,278.621L120.419,67.372L100.187,87.605L100.187,61.324L130.5,31.013L160.883,61.324L160.883,87.605L140.651,67.372L140.651,124.829C140.651,137.789 145.763,150.101 154.907,159.172Z" style="fill:none;stroke:rgb(211,63,39);stroke-width:0.22px;"/>
    </g>
</svg>
