<?xml version="1.0" encoding="UTF-8" standalone="no"?>
<!DOCTYPE svg PUBLIC "-//W3C//DTD SVG 1.1//EN" "http://www.w3.org/Graphics/SVG/1.1/DTD/svg11.dtd">
<svg width="100%" height="100%" viewBox="0 0 227 286" version="1.1" xmlns="http://www.w3.org/2000/svg" xmlns:xlink="http://www.w3.org/1999/xlink" xml:space="preserve" xmlns:serif="http://www.serif.com/" style="fill-rule:evenodd;clip-rule:evenodd;stroke-miterlimit:2;">
    <g>
        <path d="M212.363,3.437C218.699,3.437 223.667,8.477 223.667,14.741L223.667,271.78C223.667,278.044 218.699,283.084 212.435,283.084L14.291,283.084C8.027,283.084 2.987,278.044 2.987,271.78L2.987,14.741C2.987,8.477 8.027,3.437 14.291,3.437L212.363,3.437Z" style="fill:rgb(35,31,32);fill-rule:nonzero;"/>
        <path d="M212.363,3.437C218.699,3.437 223.667,8.477 223.667,14.741L223.667,271.78C223.667,278.044 218.699,283.084 212.435,283.084L14.291,283.084C8.027,283.084 2.987,278.044 2.987,271.78L2.987,14.741C2.987,8.477 8.027,3.437 14.291,3.437L212.363,3.437Z" style="fill:none;stroke:rgb(35,31,32);stroke-width:0.22px;"/>
        <path d="M212.363,9.125C215.531,9.125 218.051,11.645 218.051,14.741L218.051,271.78C218.051,274.876 215.531,277.396 212.435,277.396L14.291,277.396C11.123,277.396 8.603,274.876 8.603,271.78L8.603,14.741C8.603,11.645 11.195,9.125 14.291,9.125L212.363,9.125Z" style="fill:white;fill-rule:nonzero;"/>
        <path d="M212.363,9.125C215.531,9.125 218.051,11.645 218.051,14.741L218.051,271.78C218.051,274.876 215.531,277.396 212.435,277.396L14.291,277.396C11.123,277.396 8.603,274.876 8.603,271.78L8.603,14.741C8.603,11.645 11.195,9.125 14.291,9.125L212.363,9.125Z" style="fill:none;stroke:rgb(35,31,32);stroke-width:0.22px;"/>
        <path d="M102.203,27.845L85.355,44.693L110.987,44.693L22.931,132.749L35.747,145.564L123.803,57.509L123.803,83.069L140.579,66.293L140.579,27.845L102.203,27.845Z" style="fill:rgb(35,31,32);fill-rule:nonzero;"/>
        <path d="M102.203,27.845L85.355,44.693L110.987,44.693L22.931,132.749L35.747,145.564L123.803,57.509L123.803,83.069L140.579,66.293L140.579,27.845L102.203,27.845Z" style="fill:none;stroke:rgb(35,31,32);stroke-width:0.22px;"/>
        <path d="M188.603,114.316L188.603,75.941L150.155,75.941L133.379,92.717L159.011,92.717L70.883,180.772L83.771,193.588L122.939,154.349L122.939,261.558L141.083,261.558L141.083,154.061C141.083,142.541 145.691,131.596 153.755,123.604L171.755,105.532L171.755,131.165L188.603,114.316Z" style="fill:rgb(211,63,39);fill-rule:nonzero;"/>
        <path d="M188.603,114.316L188.603,75.941L150.155,75.941L133.379,92.717L159.011,92.717L70.883,180.772L83.771,193.588L122.939,154.349L122.939,261.558L141.083,261.558L141.083,154.061C141.083,142.541 145.691,131.596 153.755,123.604L171.755,105.532L171.755,131.165L188.603,114.316Z" style="fill:none;stroke:rgb(211,63,39);stroke-width:0.22px;"/>
    </g>
</svg>
