<?xml version="1.0" encoding="UTF-8" standalone="no"?>
<!DOCTYPE svg PUBLIC "-//W3C//DTD SVG 1.1//EN" "http://www.w3.org/Graphics/SVG/1.1/DTD/svg11.dtd">
<svg width="100%" height="100%" viewBox="0 0 285 289" version="1.1" xmlns="http://www.w3.org/2000/svg" xmlns:xlink="http://www.w3.org/1999/xlink" xml:space="preserve" xmlns:serif="http://www.serif.com/" style="fill-rule:evenodd;clip-rule:evenodd;stroke-miterlimit:2;">
    <g>
        <path d="M14.435,3.917L269.819,3.917C276.083,3.917 281.267,9.101 281.267,15.365L281.267,274.564C281.267,280.828 276.083,286.012 269.819,286.012L14.435,286.012C8.171,286.012 2.987,280.828 2.987,274.564L2.987,15.365C2.987,9.029 8.171,3.917 14.579,3.917L14.435,3.917Z" style="fill:rgb(35,31,32);fill-rule:nonzero;"/>
        <path d="M14.435,3.917L269.819,3.917C276.083,3.917 281.267,9.101 281.267,15.365L281.267,274.564C281.267,280.828 276.083,286.012 269.819,286.012L14.435,286.012C8.171,286.012 2.987,280.828 2.987,274.564L2.987,15.365C2.987,9.029 8.171,3.917 14.579,3.917L14.435,3.917Z" style="fill:none;stroke:rgb(35,31,32);stroke-width:0.22px;"/>
        <path d="M14.435,9.677L269.819,9.677C272.915,9.749 275.507,12.269 275.507,15.365L275.507,274.564C275.507,277.66 272.915,280.251 269.819,280.323L14.435,280.323C11.339,280.323 8.747,277.66 8.747,274.564L8.747,15.365C8.747,12.269 11.339,9.677 14.435,9.677Z" style="fill:white;fill-rule:nonzero;"/>
        <path d="M14.435,9.677L269.819,9.677C272.915,9.749 275.507,12.269 275.507,15.365L275.507,274.564C275.507,277.66 272.915,280.251 269.819,280.323L14.435,280.323C11.339,280.323 8.747,277.66 8.747,274.564L8.747,15.365C8.747,12.269 11.339,9.677 14.435,9.677Z" style="fill:none;stroke:rgb(35,31,32);stroke-width:0.22px;"/>
        <path d="M51.011,264.988L51.011,64.397L31.787,83.549L31.787,58.565L60.587,29.837L89.315,58.565L89.315,83.549L70.163,64.397L70.163,264.988L51.011,264.988Z" style="fill:rgb(35,31,32);fill-rule:nonzero;"/>
        <path d="M51.011,264.988L51.011,64.397L31.787,83.549L31.787,58.565L60.587,29.837L89.315,58.565L89.315,83.549L70.163,64.397L70.163,264.988L51.011,264.988Z" style="fill:none;stroke:rgb(35,31,32);stroke-width:0.22px;"/>
        <path d="M121.931,264.988L121.931,64.397L102.779,83.549L102.779,58.565L131.507,29.837L160.307,58.565L160.307,83.549L141.227,64.397L141.227,264.988L121.931,264.988Z" style="fill:rgb(35,31,32);fill-rule:nonzero;"/>
        <path d="M121.931,264.988L121.931,64.397L102.779,83.549L102.779,58.565L131.507,29.837L160.307,58.565L160.307,83.549L141.227,64.397L141.227,264.988L121.931,264.988Z" style="fill:none;stroke:rgb(35,31,32);stroke-width:0.22px;"/>
        <path d="M160.307,103.204L160.307,143.884L178.091,161.596L178.091,134.308L212.147,168.508C221.147,177.508 226.115,189.676 226.115,202.492L226.115,264.988L245.411,264.988L245.411,202.492C245.411,184.636 238.355,167.644 225.827,155.116L191.627,120.844L218.627,120.844L201.059,103.204L160.307,103.204Z" style="fill:rgb(211,63,39);fill-rule:nonzero;"/>
        <path d="M160.307,103.204L160.307,143.884L178.091,161.596L178.091,134.308L212.147,168.508C221.147,177.508 226.115,189.676 226.115,202.492L226.115,264.988L245.411,264.988L245.411,202.492C245.411,184.636 238.355,167.644 225.827,155.116L191.627,120.844L218.627,120.844L201.059,103.204L160.307,103.204Z" style="fill:none;stroke:rgb(211,63,39);stroke-width:0.22px;"/>
    </g>
</svg>
