<?xml version="1.0" encoding="UTF-8" standalone="no"?>
<!DOCTYPE svg PUBLIC "-//W3C//DTD SVG 1.1//EN" "http://www.w3.org/Graphics/SVG/1.1/DTD/svg11.dtd">
<svg width="100%" height="100%" viewBox="0 0 285 305" version="1.1" xmlns="http://www.w3.org/2000/svg" xmlns:xlink="http://www.w3.org/1999/xlink" xml:space="preserve" xmlns:serif="http://www.serif.com/" style="fill-rule:evenodd;clip-rule:evenodd;stroke-miterlimit:2;">
    <g>
        <path d="M15.299,3.573L268.955,3.573C275.651,3.573 281.123,9.117 281.123,15.813L281.123,289.7C281.123,296.396 275.651,301.869 268.955,301.869L15.299,301.869C8.603,301.941 3.131,296.396 3.131,289.7L3.131,15.813C3.203,9.045 8.603,3.573 15.299,3.573Z" style="fill:rgb(35,31,32);fill-rule:nonzero;"/>
        <path d="M15.299,3.573L268.955,3.573C275.651,3.573 281.123,9.117 281.123,15.813L281.123,289.7C281.123,296.396 275.651,301.869 268.955,301.869L15.299,301.869C8.603,301.941 3.131,296.396 3.131,289.7L3.131,15.813C3.203,9.045 8.603,3.573 15.299,3.573Z" style="fill:none;stroke:rgb(35,31,32);stroke-width:0.22px;"/>
        <path d="M15.299,9.693L268.955,9.693C272.267,9.693 275.003,12.429 275.003,15.813L275.003,289.7C275.003,293.012 272.267,295.749 268.955,295.82L15.299,295.82C11.987,295.82 9.251,293.012 9.251,289.7L9.251,15.813C9.251,12.429 11.987,9.693 15.299,9.693Z" style="fill:white;fill-rule:nonzero;"/>
        <path d="M15.299,9.693L268.955,9.693C272.267,9.693 275.003,12.429 275.003,15.813L275.003,289.7C275.003,293.012 272.267,295.749 268.955,295.82L15.299,295.82C11.987,295.82 9.251,293.012 9.251,289.7L9.251,15.813C9.251,12.429 11.987,9.693 15.299,9.693Z" style="fill:none;stroke:rgb(35,31,32);stroke-width:0.22px;"/>
        <path d="M48.779,279.548L48.779,67.509L28.475,87.813L28.475,61.461L58.931,31.005L89.387,61.461L89.387,87.813L69.083,67.509L69.083,279.548L48.779,279.548Z" style="fill:rgb(35,31,32);fill-rule:nonzero;"/>
        <path d="M48.779,279.548L48.779,67.509L28.475,87.813L28.475,61.461L58.931,31.005L89.387,61.461L89.387,87.813L69.083,67.509L69.083,279.548L48.779,279.548Z" style="fill:none;stroke:rgb(35,31,32);stroke-width:0.22px;"/>
        <path d="M235.475,67.509L235.475,114.669C235.475,133.964 227.843,152.468 214.163,166.22L167.723,212.661C157.859,222.524 152.243,235.988 152.243,249.957L152.243,279.548L132.011,279.548L132.011,67.509L111.708,87.813L111.708,61.461L142.091,31.005L172.547,61.461L172.547,87.813L152.243,67.509L152.243,199.413L199.763,151.964C209.627,141.957 215.171,128.565 215.171,114.669L215.171,67.509L194.867,87.813L194.867,61.461L225.323,31.005L255.779,61.461L255.779,87.813L235.475,67.509Z" style="fill:rgb(35,31,32);fill-rule:nonzero;"/>
        <path d="M235.475,67.509L235.475,114.669C235.475,133.964 227.843,152.468 214.163,166.22L167.723,212.661C157.859,222.524 152.243,235.988 152.243,249.957L152.243,279.548L132.011,279.548L132.011,67.509L111.708,87.813L111.708,61.461L142.091,31.005L172.547,61.461L172.547,87.813L152.243,67.509L152.243,199.413L199.763,151.964C209.627,141.957 215.171,128.565 215.171,114.669L215.171,67.509L194.867,87.813L194.867,61.461L225.323,31.005L255.779,61.461L255.779,87.813L235.475,67.509Z" style="fill:none;stroke:rgb(35,31,32);stroke-width:0.22px;"/>
    </g>
</svg>
