<?xml version="1.0" encoding="UTF-8" standalone="no"?>
<!DOCTYPE svg PUBLIC "-//W3C//DTD SVG 1.1//EN" "http://www.w3.org/Graphics/SVG/1.1/DTD/svg11.dtd">
<svg width="100%" height="100%" viewBox="0 0 285 305" version="1.1" xmlns="http://www.w3.org/2000/svg" xmlns:xlink="http://www.w3.org/1999/xlink" xml:space="preserve" xmlns:serif="http://www.serif.com/" style="fill-rule:evenodd;clip-rule:evenodd;stroke-miterlimit:2;">
    <g>
        <path d="M15.299,3.645L268.955,3.645C275.651,3.645 281.123,9.117 281.123,15.741L281.123,289.7C281.123,296.396 275.651,301.869 268.955,301.869L15.299,301.869C8.603,301.869 3.131,296.396 3.131,289.7L3.131,15.741C3.203,9.045 8.603,3.573 15.371,3.645L15.299,3.645Z" style="fill:rgb(35,31,32);fill-rule:nonzero;"/>
        <path d="M15.299,3.645L268.955,3.645C275.651,3.645 281.123,9.117 281.123,15.741L281.123,289.7C281.123,296.396 275.651,301.869 268.955,301.869L15.299,301.869C8.603,301.869 3.131,296.396 3.131,289.7L3.131,15.741C3.203,9.045 8.603,3.573 15.371,3.645L15.299,3.645Z" style="fill:none;stroke:rgb(35,31,32);stroke-width:0.22px;"/>
        <path d="M15.299,9.693L268.955,9.693C272.267,9.693 275.003,12.429 275.003,15.741L275.003,289.7C275.003,293.012 272.267,295.749 268.955,295.749L15.299,295.749C11.987,295.749 9.251,293.012 9.251,289.7L9.251,15.741C9.251,12.429 11.987,9.693 15.371,9.693L15.299,9.693Z" style="fill:white;fill-rule:nonzero;"/>
        <path d="M15.299,9.693L268.955,9.693C272.267,9.693 275.003,12.429 275.003,15.741L275.003,289.7C275.003,293.012 272.267,295.749 268.955,295.749L15.299,295.749C11.987,295.749 9.251,293.012 9.251,289.7L9.251,15.741C9.251,12.429 11.987,9.693 15.371,9.693L15.299,9.693Z" style="fill:none;stroke:rgb(35,31,32);stroke-width:0.22px;"/>
        <path d="M48.851,80.181L48.851,188.756L28.475,168.453L28.475,194.804L58.931,225.26L89.387,194.804L89.387,168.453L69.083,188.756L69.083,80.181L48.851,80.181Z" style="fill:rgb(35,31,32);fill-rule:nonzero;"/>
        <path d="M48.851,80.181L48.851,188.756L28.475,168.453L28.475,194.804L58.931,225.26L89.387,194.804L89.387,168.453L69.083,188.756L69.083,80.181L48.851,80.181Z" style="fill:none;stroke:rgb(35,31,32);stroke-width:0.22px;"/>
        <path d="M132.011,67.509L132.011,114.669C132.011,134.037 139.643,152.612 153.395,166.293L199.691,212.661C209.627,222.596 215.171,235.988 215.171,249.957L215.171,279.548L235.403,279.548L235.403,67.509L255.779,87.813L255.779,61.461L225.323,31.005L194.867,61.461L194.867,87.813L215.171,67.509L215.171,199.413L167.723,151.964C157.859,142.028 152.243,128.565 152.243,114.596L152.243,67.509L172.547,87.813L172.547,61.461L142.091,31.005L111.708,61.461L111.708,87.813L132.011,67.509Z" style="fill:rgb(35,31,32);fill-rule:nonzero;"/>
        <path d="M132.011,67.509L132.011,114.669C132.011,134.037 139.643,152.612 153.395,166.293L199.691,212.661C209.627,222.596 215.171,235.988 215.171,249.957L215.171,279.548L235.403,279.548L235.403,67.509L255.779,87.813L255.779,61.461L225.323,31.005L194.867,61.461L194.867,87.813L215.171,67.509L215.171,199.413L167.723,151.964C157.859,142.028 152.243,128.565 152.243,114.596L152.243,67.509L172.547,87.813L172.547,61.461L142.091,31.005L111.708,61.461L111.708,87.813L132.011,67.509Z" style="fill:none;stroke:rgb(35,31,32);stroke-width:0.22px;"/>
    </g>
</svg>
