<?xml version="1.0" encoding="UTF-8" standalone="no"?>
<!DOCTYPE svg PUBLIC "-//W3C//DTD SVG 1.1//EN" "http://www.w3.org/Graphics/SVG/1.1/DTD/svg11.dtd">
<svg width="100%" height="100%" viewBox="0 0 285 381" version="1.1" xmlns="http://www.w3.org/2000/svg" xmlns:xlink="http://www.w3.org/1999/xlink" xml:space="preserve" xmlns:serif="http://www.serif.com/" style="fill-rule:evenodd;clip-rule:evenodd;stroke-miterlimit:2;">
    <g>
        <path d="M268.307,3.685C275.292,3.685 280.979,9.372 280.979,16.357L280.979,365.052C280.979,372.037 275.292,377.796 268.307,377.796L15.947,377.796C8.963,377.796 3.275,372.037 3.275,365.052L3.275,16.357C3.275,9.3 8.963,3.685 15.947,3.685L268.307,3.685Z" style="fill:rgb(35,31,32);fill-rule:nonzero;"/>
        <path d="M268.307,3.685C275.292,3.685 280.979,9.372 280.979,16.357L280.979,365.052C280.979,372.037 275.292,377.796 268.307,377.796L15.947,377.796C8.963,377.796 3.275,372.037 3.275,365.052L3.275,16.357C3.275,9.3 8.963,3.685 15.947,3.685L268.307,3.685Z" style="fill:none;stroke:rgb(35,31,32);stroke-width:0.22px;"/>
        <path d="M268.307,10.021C271.835,10.021 274.643,12.829 274.643,16.357L274.643,365.052C274.643,368.581 271.835,371.388 268.307,371.388L15.947,371.388C12.419,371.388 9.611,368.581 9.611,365.052L9.611,16.357C9.611,12.829 12.491,10.021 15.947,10.021L268.307,10.021Z" style="fill:white;fill-rule:nonzero;"/>
        <path d="M268.307,10.021C271.835,10.021 274.643,12.829 274.643,16.357L274.643,365.052C274.643,368.581 271.835,371.388 268.307,371.388L15.947,371.388C12.419,371.388 9.611,368.581 9.611,365.052L9.611,16.357C9.611,12.829 12.491,10.021 15.947,10.021L268.307,10.021Z" style="fill:none;stroke:rgb(35,31,32);stroke-width:0.22px;"/>
        <path d="M108.755,31.765L89.963,50.557L118.691,50.557L20.051,149.125L34.379,163.524L133.019,64.885L133.019,93.613L151.811,74.749L151.811,31.765L108.755,31.765Z" style="fill:rgb(35,31,32);fill-rule:nonzero;"/>
        <path d="M108.755,31.765L89.963,50.557L118.691,50.557L20.051,149.125L34.379,163.524L133.019,64.885L133.019,93.613L151.811,74.749L151.811,31.765L108.755,31.765Z" style="fill:none;stroke:rgb(35,31,32);stroke-width:0.22px;"/>
        <path d="M162.612,85.549L143.747,104.413L172.403,104.413L73.835,203.052L88.163,217.38L186.803,118.813L186.803,147.396L205.667,128.605L205.667,85.549L162.612,85.549Z" style="fill:rgb(35,31,32);fill-rule:nonzero;"/>
        <path d="M162.612,85.549L143.747,104.413L172.403,104.413L73.835,203.052L88.163,217.38L186.803,118.813L186.803,147.396L205.667,128.605L205.667,85.549L162.612,85.549Z" style="fill:none;stroke:rgb(35,31,32);stroke-width:0.22px;"/>
        <path d="M259.379,182.461L259.379,139.333L216.395,139.333L197.531,158.196L226.259,158.196L205.955,178.501C193.211,191.245 185.939,208.596 185.867,226.813L185.867,347.269L206.171,347.269L206.171,226.957C206.171,214.212 211.211,201.9 220.355,192.829L240.515,172.524L240.515,201.18L259.379,182.461Z" style="fill:rgb(35,31,32);fill-rule:nonzero;"/>
        <path d="M259.379,182.461L259.379,139.333L216.395,139.333L197.531,158.196L226.259,158.196L205.955,178.501C193.211,191.245 185.939,208.596 185.867,226.813L185.867,347.269L206.171,347.269L206.171,226.957C206.171,214.212 211.211,201.9 220.355,192.829L240.515,172.524L240.515,201.18L259.379,182.461Z" style="fill:none;stroke:rgb(35,31,32);stroke-width:0.22px;"/>
    </g>
</svg>
