<?xml version="1.0" encoding="UTF-8" standalone="no"?>
<!DOCTYPE svg PUBLIC "-//W3C//DTD SVG 1.1//EN" "http://www.w3.org/Graphics/SVG/1.1/DTD/svg11.dtd">
<svg width="100%" height="100%" viewBox="0 0 285 312" version="1.1" xmlns="http://www.w3.org/2000/svg" xmlns:xlink="http://www.w3.org/1999/xlink" xml:space="preserve" xmlns:serif="http://www.serif.com/" style="fill-rule:evenodd;clip-rule:evenodd;stroke-miterlimit:2;">
    <g>
        <path d="M15.659,4.021L268.595,4.021C275.507,4.021 281.051,9.637 281.051,16.477L281.051,296.413C281.051,303.18 275.507,308.796 268.667,308.796L15.659,308.796C8.82,308.796 3.203,303.252 3.203,296.413L3.203,16.477C3.203,9.565 8.82,4.021 15.731,4.021L15.659,4.021Z" style="fill:rgb(35,31,32);fill-rule:nonzero;"/>
        <path d="M15.659,4.021L268.595,4.021C275.507,4.021 281.051,9.637 281.051,16.477L281.051,296.413C281.051,303.18 275.507,308.796 268.667,308.796L15.659,308.796C8.82,308.796 3.203,303.252 3.203,296.413L3.203,16.477C3.203,9.565 8.82,4.021 15.731,4.021L15.659,4.021Z" style="fill:none;stroke:rgb(35,31,32);stroke-width:0.22px;"/>
        <path d="M15.659,10.213L268.595,10.213C272.051,10.285 274.859,13.021 274.859,16.477L274.859,296.413C274.859,299.796 272.051,302.605 268.667,302.605L15.659,302.605C12.203,302.605 9.395,299.796 9.395,296.413L9.395,16.477C9.395,13.021 12.203,10.213 15.659,10.213Z" style="fill:white;fill-rule:nonzero;"/>
        <path d="M15.659,10.213L268.595,10.213C272.051,10.285 274.859,13.021 274.859,16.477L274.859,296.413C274.859,299.796 272.051,302.605 268.667,302.605L15.659,302.605C12.203,302.605 9.395,299.796 9.395,296.413L9.395,16.477C9.395,13.021 12.203,10.213 15.659,10.213Z" style="fill:none;stroke:rgb(35,31,32);stroke-width:0.22px;"/>
        <path d="M46.763,82.285L46.763,193.236L26.027,172.501L26.027,199.428L57.131,230.532L88.235,199.428L88.235,172.501L67.499,193.236L67.499,82.285L46.763,82.285Z" style="fill:rgb(35,31,32);fill-rule:nonzero;"/>
        <path d="M46.763,82.285L46.763,193.236L26.027,172.501L26.027,199.428L57.131,230.532L88.235,199.428L88.235,172.501L67.499,193.236L67.499,82.285L46.763,82.285Z" style="fill:none;stroke:rgb(35,31,32);stroke-width:0.22px;"/>
        <path d="M131.795,285.972L131.795,69.324L110.987,90.061L110.987,63.132L142.163,32.029L173.267,63.132L173.267,90.061L152.459,69.324L152.459,285.972L131.795,285.972Z" style="fill:rgb(35,31,32);fill-rule:nonzero;"/>
        <path d="M131.795,285.972L131.795,69.324L110.987,90.061L110.987,63.132L142.163,32.029L173.267,63.132L173.267,90.061L152.459,69.324L152.459,285.972L131.795,285.972Z" style="fill:none;stroke:rgb(35,31,32);stroke-width:0.22px;"/>
        <path d="M216.755,285.972L216.755,69.324L196.019,90.061L196.019,63.132L227.123,32.029L258.226,63.132L258.226,90.061L237.491,69.324L237.491,285.972L216.755,285.972Z" style="fill:rgb(35,31,32);fill-rule:nonzero;"/>
        <path d="M216.755,285.972L216.755,69.324L196.019,90.061L196.019,63.132L227.123,32.029L258.226,63.132L258.226,90.061L237.491,69.324L237.491,285.972L216.755,285.972Z" style="fill:none;stroke:rgb(35,31,32);stroke-width:0.22px;"/>
    </g>
</svg>
