<?xml version="1.0" encoding="UTF-8" standalone="no"?>
<!DOCTYPE svg PUBLIC "-//W3C//DTD SVG 1.1//EN" "http://www.w3.org/Graphics/SVG/1.1/DTD/svg11.dtd">
<svg width="100%" height="100%" viewBox="0 0 596 794" version="1.1" xmlns="http://www.w3.org/2000/svg" xmlns:xlink="http://www.w3.org/1999/xlink" xml:space="preserve" xmlns:serif="http://www.serif.com/" style="fill-rule:evenodd;clip-rule:evenodd;stroke-linecap:round;stroke-linejoin:round;stroke-miterlimit:2;">
    <g>
        <path d="M21.163,758.963L21.163,35.574C21.163,31.894 22.625,28.366 25.227,25.764C27.829,23.162 31.357,21.701 35.037,21.701L560.238,21.701C563.918,21.701 567.446,23.162 570.049,25.764C572.65,28.366 574.112,31.894 574.112,35.574L574.112,758.963C574.112,766.626 567.901,772.837 560.238,772.837L35.037,772.837C31.357,772.837 27.829,771.375 25.227,768.774C22.625,766.171 21.163,762.644 21.163,758.963Z" style="fill:white;fill-rule:nonzero;"/>
        <path d="M74.675,696.534C74.675,703.104 77.285,709.407 81.931,714.052C86.577,718.698 92.878,721.308 99.448,721.308L495.827,721.308C502.397,721.308 508.699,718.698 513.344,714.052C517.99,709.407 520.601,703.104 520.601,696.534L520.601,300.156C520.601,293.585 517.99,287.285 513.344,282.638C508.699,277.992 502.397,275.382 495.827,275.382L99.448,275.382C85.766,275.382 74.675,286.474 74.675,300.156L74.675,696.534Z" style="fill:rgb(0,64,128);fill-rule:nonzero;"/>
        <path d="M74.675,696.534C74.675,703.104 77.285,709.407 81.931,714.052C86.577,718.698 92.878,721.308 99.448,721.308L495.827,721.308C502.397,721.308 508.699,718.698 513.344,714.052C517.99,709.407 520.601,703.104 520.601,696.534L520.601,300.156C520.601,293.585 517.99,287.285 513.344,282.638C508.699,277.992 502.397,275.382 495.827,275.382L99.448,275.382C85.766,275.382 74.675,286.474 74.675,300.156L74.675,696.534Z" style="fill:none;stroke:rgb(0,64,128);stroke-width:0.71px;"/>
        <path d="M200.652,542.433L179.595,481.601C176.598,472.945 168.896,466.779 159.794,465.749C150.692,464.719 141.808,469.008 136.953,476.776L114.313,512.999L114.313,543.223C114.313,547.328 117.64,550.656 121.745,550.656C125.85,550.656 129.177,547.328 129.177,543.223L129.177,520.926L134.132,512.999L134.132,585.952L118.623,619.65C116.334,624.621 118.51,630.507 123.481,632.795C128.453,635.082 134.338,632.908 136.626,627.936L156.923,583.834L156.923,558.396L181.156,626.247C183.181,631.916 189.418,634.871 195.088,632.847C200.757,630.822 203.712,624.584 201.687,618.915L173.77,540.745L173.77,510.214L186.605,547.295C187.437,549.853 189.585,551.762 192.222,552.287C194.86,552.814 197.575,551.873 199.324,549.829C201.072,547.786 201.58,544.957 200.652,542.433Z" style="fill:white;fill-rule:nonzero;"/>
        <path d="M200.652,542.433L179.595,481.601C176.598,472.945 168.896,466.779 159.794,465.749C150.692,464.719 141.808,469.008 136.953,476.776L114.313,512.999L114.313,543.223C114.313,547.328 117.64,550.656 121.745,550.656C125.85,550.656 129.177,547.328 129.177,543.223L129.177,520.926L134.132,512.999L134.132,585.952L118.623,619.65C116.334,624.621 118.51,630.507 123.481,632.795C128.453,635.082 134.338,632.908 136.626,627.936L156.923,583.834L156.923,558.396L181.156,626.247C183.181,631.916 189.418,634.871 195.088,632.847C200.757,630.822 203.712,624.584 201.687,618.915L173.77,540.745L173.77,510.214L186.605,547.295C187.437,549.853 189.585,551.762 192.222,552.287C194.86,552.814 197.575,551.873 199.324,549.829C201.072,547.786 201.58,544.957 200.652,542.433Z" style="fill:none;stroke:white;stroke-width:0.71px;"/>
        <path d="M314.156,632.786C314.156,620.199 303.952,609.994 291.364,609.994C278.777,609.994 268.573,620.199 268.573,632.786C268.573,645.374 278.777,655.578 291.364,655.578C303.952,655.578 314.156,645.374 314.156,632.786Z" style="fill:white;fill-rule:nonzero;"/>
        <path d="M314.156,632.786C314.156,620.199 303.952,609.994 291.364,609.994C278.777,609.994 268.573,620.199 268.573,632.786C268.573,645.374 278.777,655.578 291.364,655.578C303.952,655.578 314.156,645.374 314.156,632.786Z" style="fill:none;stroke:white;stroke-width:0.71px;"/>
        <path d="M329.919,647.51L356.65,594.045L343.443,569.465L328.626,599.1C326.791,602.772 322.327,604.26 318.655,602.424C314.984,600.588 313.496,596.124 315.332,592.453L335.329,552.457C339.357,544.401 347.593,539.311 356.602,539.311L383.128,539.311C387.507,539.311 391.53,541.716 393.603,545.574L408.958,574.155C410.249,576.497 410.182,579.351 408.783,581.63C407.383,583.91 404.868,585.26 402.196,585.169C399.523,585.078 397.105,583.559 395.864,581.19L381.882,555.166L372.883,555.166L404.828,614.622L431.116,614.622C436.59,614.622 441.026,619.059 441.026,624.532C441.026,630.004 436.59,634.442 431.116,634.442L400.088,634.442C395.71,634.442 391.686,632.036 389.613,628.178L375.178,601.309L347.645,656.373C345.197,661.268 339.245,663.252 334.35,660.805C329.454,658.358 327.471,652.405 329.919,647.51Z" style="fill:white;fill-rule:nonzero;"/>
        <path d="M329.919,647.51L356.65,594.045L343.443,569.465L328.626,599.1C326.791,602.772 322.327,604.26 318.655,602.424C314.984,600.588 313.496,596.124 315.332,592.453L335.329,552.457C339.357,544.401 347.593,539.311 356.602,539.311L383.128,539.311C387.507,539.311 391.53,541.716 393.603,545.574L408.958,574.155C410.249,576.497 410.182,579.351 408.783,581.63C407.383,583.91 404.868,585.26 402.196,585.169C399.523,585.078 397.105,583.559 395.864,581.19L381.882,555.166L372.883,555.166L404.828,614.622L431.116,614.622C436.59,614.622 441.026,619.059 441.026,624.532C441.026,630.004 436.59,634.442 431.116,634.442L400.088,634.442C395.71,634.442 391.686,632.036 389.613,628.178L375.178,601.309L347.645,656.373C345.197,661.268 339.245,663.252 334.35,660.805C329.454,658.358 327.471,652.405 329.919,647.51Z" style="fill:none;stroke:white;stroke-width:0.71px;"/>
        <path d="M352.668,521.373C352.668,510.975 344.238,502.545 333.841,502.545C323.442,502.545 315.013,510.975 315.013,521.373C315.013,531.772 323.442,540.202 333.841,540.202C344.238,540.202 352.668,531.772 352.668,521.373Z" style="fill:white;fill-rule:nonzero;"/>
        <path d="M352.668,521.373C352.668,510.975 344.238,502.545 333.841,502.545C323.442,502.545 315.013,510.975 315.013,521.373C315.013,531.772 323.442,540.202 333.841,540.202C344.238,540.202 352.668,531.772 352.668,521.373Z" style="fill:none;stroke:white;stroke-width:0.71px;"/>
        <path d="M178.724,441.651C178.724,430.705 169.851,421.832 158.905,421.832C147.959,421.832 139.086,430.705 139.086,441.651C139.086,452.597 147.959,461.47 158.905,461.47C169.851,461.47 178.724,452.597 178.724,441.651Z" style="fill:white;fill-rule:nonzero;"/>
        <path d="M178.724,441.651C178.724,430.705 169.851,421.832 158.905,421.832C147.959,421.832 139.086,430.705 139.086,441.651C139.086,452.597 147.959,461.47 158.905,461.47C169.851,461.47 178.724,452.597 178.724,441.651Z" style="fill:none;stroke:white;stroke-width:0.71px;"/>
        <path d="M495.827,358.83L434.441,300.156L373.057,358.83L384.895,358.83L384.895,454.665L422.055,454.665L422.055,417.505L446.829,417.505L446.829,454.665L483.989,454.665L483.989,358.83L495.827,358.83Z" style="fill:white;fill-rule:nonzero;"/>
        <path d="M495.827,358.83L434.441,300.156L373.057,358.83L384.895,358.83L384.895,454.665L422.055,454.665L422.055,417.505L446.829,417.505L446.829,454.665L483.989,454.665L483.989,358.83L495.827,358.83Z" style="fill:none;stroke:white;stroke-width:0.71px;"/>
        <rect x="422.055" y="377.867" width="24.774" height="24.774" style="fill:rgb(0,64,128);"/>
        <rect x="422.055" y="377.867" width="24.774" height="24.774" style="fill:none;stroke:rgb(0,64,128);stroke-width:0.34px;"/>
        <path d="M296.485,334.839L289.067,316.294C287.563,312.532 283.919,310.065 279.866,310.065L223.918,310.065C219.867,310.065 216.223,312.532 214.718,316.294L207.3,334.839C204.563,334.839 202.345,337.057 202.345,339.793L202.345,364.567C202.345,365.881 202.867,367.142 203.796,368.071C204.726,369 205.986,369.522 207.3,369.522L207.3,379.432C207.3,380.746 207.822,382.006 208.751,382.935C209.681,383.864 210.941,384.386 212.254,384.386L217.209,384.386C218.523,384.386 219.784,383.864 220.713,382.935C221.643,382.006 222.164,380.746 222.164,379.432L222.164,369.522L281.621,369.522L281.621,379.432C281.621,380.746 282.143,382.006 283.072,382.935C284.001,383.864 285.261,384.386 286.576,384.386L291.53,384.386C292.845,384.386 294.105,383.864 295.034,382.935C295.963,382.006 296.485,380.746 296.485,379.432L296.485,369.522C297.799,369.522 299.059,369 299.988,368.071C300.918,367.142 301.439,365.881 301.439,364.567L301.439,339.793C301.439,338.48 300.918,337.22 299.988,336.29C299.059,335.361 297.799,334.839 296.485,334.839Z" style="fill:white;fill-rule:nonzero;"/>
        <path d="M296.485,334.839L289.067,316.294C287.563,312.532 283.919,310.065 279.866,310.065L223.918,310.065C219.867,310.065 216.223,312.532 214.718,316.294L207.3,334.839C204.563,334.839 202.345,337.057 202.345,339.793L202.345,364.567C202.345,365.881 202.867,367.142 203.796,368.071C204.726,369 205.986,369.522 207.3,369.522L207.3,379.432C207.3,380.746 207.822,382.006 208.751,382.935C209.681,383.864 210.941,384.386 212.254,384.386L217.209,384.386C218.523,384.386 219.784,383.864 220.713,382.935C221.643,382.006 222.164,380.746 222.164,379.432L222.164,369.522L281.621,369.522L281.621,379.432C281.621,380.746 282.143,382.006 283.072,382.935C284.001,383.864 285.261,384.386 286.576,384.386L291.53,384.386C292.845,384.386 294.105,383.864 295.034,382.935C295.963,382.006 296.485,380.746 296.485,379.432L296.485,369.522C297.799,369.522 299.059,369 299.988,368.071C300.918,367.142 301.439,365.881 301.439,364.567L301.439,339.793C301.439,338.48 300.918,337.22 299.988,336.29C299.059,335.361 297.799,334.839 296.485,334.839Z" style="fill:none;stroke:white;stroke-width:0.71px;"/>
        <path d="M294.999,348.712C294.999,345.429 292.336,342.766 289.053,342.766C285.769,342.766 283.107,345.429 283.107,348.712C283.107,351.996 285.769,354.658 289.053,354.658C292.336,354.658 294.999,351.996 294.999,348.712Z" style="fill:rgb(0,64,128);fill-rule:nonzero;"/>
        <path d="M294.999,348.712C294.999,345.429 292.336,342.766 289.053,342.766C285.769,342.766 283.107,345.429 283.107,348.712C283.107,351.996 285.769,354.658 289.053,354.658C292.336,354.658 294.999,351.996 294.999,348.712Z" style="fill:none;stroke:rgb(0,64,128);stroke-width:0.71px;"/>
        <path d="M235.046,359.613C234.258,359.613 233.502,359.299 232.944,358.742C232.387,358.184 232.074,357.428 232.074,356.64L232.074,352.676C232.074,351.034 233.405,349.703 235.046,349.703L268.739,349.703C269.527,349.703 270.283,350.016 270.841,350.574C271.398,351.131 271.711,351.888 271.711,352.676L271.711,356.64C271.711,358.282 270.38,359.613 268.739,359.613L235.046,359.613Z" style="fill:rgb(0,64,128);fill-rule:nonzero;"/>
        <path d="M235.046,359.613C234.258,359.613 233.502,359.299 232.944,358.742C232.387,358.184 232.074,357.428 232.074,356.64L232.074,352.676C232.074,351.034 233.405,349.703 235.046,349.703L268.739,349.703C269.527,349.703 270.283,350.016 270.841,350.574C271.398,351.131 271.711,351.888 271.711,352.676L271.711,356.64C271.711,358.282 270.38,359.613 268.739,359.613L235.046,359.613Z" style="fill:none;stroke:rgb(0,64,128);stroke-width:0.55px;"/>
        <path d="M220.678,348.712C220.678,345.429 218.016,342.766 214.732,342.766C211.448,342.766 208.787,345.429 208.787,348.712C208.787,351.996 211.448,354.658 214.732,354.658C218.016,354.658 220.678,351.996 220.678,348.712Z" style="fill:rgb(0,64,128);fill-rule:nonzero;"/>
        <path d="M220.678,348.712C220.678,345.429 218.016,342.766 214.732,342.766C211.448,342.766 208.787,345.429 208.787,348.712C208.787,351.996 211.448,354.658 214.732,354.658C218.016,354.658 220.678,351.996 220.678,348.712Z" style="fill:none;stroke:rgb(0,64,128);stroke-width:0.71px;"/>
        <path d="M227.273,319.975C225.247,319.975 223.425,321.208 222.673,323.089L217.973,334.839L285.812,334.839L281.112,323.089C280.36,321.208 278.538,319.975 276.512,319.975L227.273,319.975Z" style="fill:rgb(0,64,128);fill-rule:nonzero;"/>
        <path d="M227.273,319.975C225.247,319.975 223.425,321.208 222.673,323.089L217.973,334.839L285.812,334.839L281.112,323.089C280.36,321.208 278.538,319.975 276.512,319.975L227.273,319.975Z" style="fill:none;stroke:rgb(0,64,128);stroke-width:0.71px;"/>
        <path d="M175.97,186.029C153.202,192.652 128.631,187.546 110.388,172.399L123.071,157.123C135.529,167.467 152.123,171.359 167.881,167.634C174.734,166.015 179.765,160.165 180.34,153.147C180.916,146.128 176.905,139.537 170.407,136.823C167.047,135.42 163.583,134.282 160.045,133.419L147.79,130.43C141.894,128.992 136.271,126.602 131.144,123.355C120.895,116.864 114.936,105.358 115.547,93.243C116.16,81.126 123.248,70.279 134.099,64.853C136.76,63.523 139.531,62.424 142.381,61.569C158.206,56.822 175.246,58.292 190.023,65.681C193.25,67.294 196.307,69.229 199.146,71.457L186.08,87.222C182.636,84.367 178.667,82.212 174.397,80.877C165.219,78.009 155.363,78.166 146.281,81.325C140.872,83.206 137.09,88.112 136.646,93.821C136.202,99.531 139.181,104.961 144.233,107.657C146.835,109.044 149.598,110.103 152.459,110.81L165.085,113.931C170.479,115.264 175.736,117.095 180.792,119.398C194.347,125.575 202.628,139.533 201.554,154.39C200.478,169.247 190.273,181.868 175.97,186.029Z" style="fill:rgb(35,31,32);fill-rule:nonzero;"/>
        <path d="M175.97,186.029C153.202,192.652 128.631,187.546 110.388,172.399L123.071,157.123C135.529,167.467 152.123,171.359 167.881,167.634C174.734,166.015 179.765,160.165 180.34,153.147C180.916,146.128 176.905,139.537 170.407,136.823C167.047,135.42 163.583,134.282 160.045,133.419L147.79,130.43C141.894,128.992 136.271,126.602 131.144,123.355C120.895,116.864 114.936,105.358 115.547,93.243C116.16,81.126 123.248,70.279 134.099,64.853C136.76,63.523 139.531,62.424 142.381,61.569C158.206,56.822 175.246,58.292 190.023,65.681C193.25,67.294 196.307,69.229 199.146,71.457L186.08,87.222C182.636,84.367 178.667,82.212 174.397,80.877C165.219,78.009 155.363,78.166 146.281,81.325C140.872,83.206 137.09,88.112 136.646,93.821C136.202,99.531 139.181,104.961 144.233,107.657C146.835,109.044 149.598,110.103 152.459,110.81L165.085,113.931C170.479,115.264 175.736,117.095 180.792,119.398C194.347,125.575 202.628,139.533 201.554,154.39C200.478,169.247 190.273,181.868 175.97,186.029Z" style="fill:none;stroke:black;stroke-width:0.71px;"/>
        <path d="M224.161,123.301C221.265,135.295 221.265,147.806 224.161,159.799C228.254,176.753 243.426,188.699 260.868,188.699C278.309,188.699 293.481,176.753 297.574,159.799C300.471,147.806 300.471,135.295 297.574,123.301C293.481,106.347 278.309,94.403 260.868,94.403C243.426,94.403 228.254,106.347 224.161,123.301Z" style="fill:rgb(35,31,32);fill-rule:nonzero;"/>
        <path d="M224.161,123.301C221.265,135.295 221.265,147.806 224.161,159.799C228.254,176.753 243.426,188.699 260.868,188.699C278.309,188.699 293.481,176.753 297.574,159.799C300.471,147.806 300.471,135.295 297.574,123.301C293.481,106.347 278.309,94.403 260.868,94.403C243.426,94.403 228.254,106.347 224.161,123.301Z" style="fill:none;stroke:black;stroke-width:0.71px;"/>
        <path d="M25.227,768.774C27.829,771.375 31.357,772.837 35.037,772.837L560.238,772.837C567.901,772.837 574.112,766.626 574.112,758.963L574.112,35.574C574.112,31.894 572.65,28.366 570.049,25.764C567.446,23.162 563.918,21.701 560.238,21.701L35.037,21.701C31.357,21.701 27.829,23.162 25.227,25.764C22.625,28.366 21.163,31.894 21.163,35.574L21.163,758.963C21.163,762.644 22.625,766.171 25.227,768.774ZM7.29,758.963L7.29,35.574C7.29,28.215 10.213,21.157 15.417,15.954C20.621,10.75 27.678,7.827 35.037,7.827L560.238,7.827C575.563,7.827 587.985,20.25 587.985,35.574L587.985,758.963C587.985,766.323 585.063,773.38 579.858,778.583C574.654,783.787 567.598,786.71 560.238,786.71L35.037,786.71C19.713,786.71 7.29,774.287 7.29,758.963Z" style="fill:rgb(35,31,32);fill-rule:nonzero;"/>
        <path d="M25.227,768.774C27.829,771.375 31.357,772.837 35.037,772.837L560.238,772.837C567.901,772.837 574.112,766.626 574.112,758.963L574.112,35.574C574.112,31.894 572.65,28.366 570.049,25.764C567.446,23.162 563.918,21.701 560.238,21.701L35.037,21.701C31.357,21.701 27.829,23.162 25.227,25.764C22.625,28.366 21.163,31.894 21.163,35.574L21.163,758.963C21.163,762.644 22.625,766.171 25.227,768.774ZM7.29,758.963L7.29,35.574C7.29,28.215 10.213,21.157 15.417,15.954C20.621,10.75 27.678,7.827 35.037,7.827L560.238,7.827C575.563,7.827 587.985,20.25 587.985,35.574L587.985,758.963C587.985,766.323 585.063,773.38 579.858,778.583C574.654,783.787 567.598,786.71 560.238,786.71L35.037,786.71C19.713,786.71 7.29,774.287 7.29,758.963Z" style="fill:none;stroke:rgb(35,31,32);stroke-width:0.71px;"/>
        <path d="M242.993,125.401C239.99,135.958 239.99,147.143 242.993,157.7C245.267,165.687 252.563,171.197 260.868,171.197C269.172,171.197 276.469,165.687 278.741,157.7C281.746,147.143 281.746,135.958 278.741,125.401C276.469,117.414 269.172,111.904 260.868,111.904C252.563,111.904 245.267,117.414 242.993,125.401Z" style="fill:white;fill-rule:nonzero;"/>
        <path d="M242.993,125.401C239.99,135.958 239.99,147.143 242.993,157.7C245.267,165.687 252.563,171.197 260.868,171.197C269.172,171.197 276.469,165.687 278.741,157.7C281.746,147.143 281.746,135.958 278.741,125.401C276.469,117.414 269.172,111.904 260.868,111.904C252.563,111.904 245.267,117.414 242.993,125.401Z" style="fill:none;stroke:white;stroke-width:0.58px;"/>
        <path d="M390.661,186.197L390.661,125.655C390.661,117.366 387.368,109.417 381.507,103.556C375.646,97.695 367.696,94.403 359.408,94.403C351.178,94.403 343.21,97.303 336.905,102.594L336.905,96.904L318.153,96.904L318.153,186.197L336.905,186.197L336.905,129.406C336.905,123.153 340.241,117.375 345.656,114.248C351.071,111.122 357.743,111.122 363.158,114.248C368.573,117.375 371.909,123.153 371.909,129.406L371.909,186.197L390.661,186.197Z" style="fill:rgb(35,31,32);fill-rule:nonzero;"/>
        <path d="M390.661,186.197L390.661,125.655C390.661,117.366 387.368,109.417 381.507,103.556C375.646,97.695 367.696,94.403 359.408,94.403C351.178,94.403 343.21,97.303 336.905,102.594L336.905,96.904L318.153,96.904L318.153,186.197L336.905,186.197L336.905,129.406C336.905,123.153 340.241,117.375 345.656,114.248C351.071,111.122 357.743,111.122 363.158,114.248C368.573,117.375 371.909,123.153 371.909,129.406L371.909,186.197L390.661,186.197Z" style="fill:none;stroke:black;stroke-width:0.71px;"/>
        <path d="M446.852,188.699C430.294,188.699 415.783,177.62 411.419,161.648C407.825,148.491 407.825,134.61 411.419,121.453C415.783,105.48 430.294,94.403 446.852,94.403C463.41,94.403 477.92,105.48 482.284,121.453C484.404,129.215 485.283,137.264 484.889,145.301L427.598,145.301C427.9,149.938 428.765,154.521 430.17,158.951C432.492,166.214 439.226,171.158 446.852,171.196C455.315,171.196 463.039,166.371 466.752,158.765L482.48,166.442C475.833,180.059 462.006,188.697 446.852,188.699Z" style="fill:rgb(35,31,32);fill-rule:nonzero;"/>
        <path d="M446.852,188.699C430.294,188.699 415.783,177.62 411.419,161.648C407.825,148.491 407.825,134.61 411.419,121.453C415.783,105.48 430.294,94.403 446.852,94.403C463.41,94.403 477.92,105.48 482.284,121.453C484.404,129.215 485.283,137.264 484.889,145.301L427.598,145.301C427.9,149.938 428.765,154.521 430.17,158.951C432.492,166.214 439.226,171.158 446.852,171.196C455.315,171.196 463.039,166.371 466.752,158.765L482.48,166.442C475.833,180.059 462.006,188.697 446.852,188.699Z" style="fill:none;stroke:black;stroke-width:0.71px;"/>
        <path d="M430.17,124.15C429.529,126.169 429.001,128.222 428.586,130.299L465.117,130.299C464.702,128.222 464.174,126.169 463.533,124.15C461.226,116.882 454.478,111.944 446.852,111.944C439.226,111.944 432.479,116.882 430.17,124.15Z" style="fill:white;fill-rule:nonzero;"/>
        <path d="M430.17,124.15C429.529,126.169 429.001,128.222 428.586,130.299L465.117,130.299C464.702,128.222 464.174,126.169 463.533,124.15C461.226,116.882 454.478,111.944 446.852,111.944C439.226,111.944 432.479,116.882 430.17,124.15Z" style="fill:none;stroke:white;stroke-width:0.51px;"/>
    </g>
</svg>
