<?xml version="1.0" encoding="UTF-8" standalone="no"?>
<!DOCTYPE svg PUBLIC "-//W3C//DTD SVG 1.1//EN" "http://www.w3.org/Graphics/SVG/1.1/DTD/svg11.dtd">
<svg width="100%" height="100%" viewBox="0 0 142 142" version="1.1" xmlns="http://www.w3.org/2000/svg" xmlns:xlink="http://www.w3.org/1999/xlink" xml:space="preserve" xmlns:serif="http://www.serif.com/" style="fill-rule:evenodd;clip-rule:evenodd;stroke-miterlimit:2;">
    <g>
        <path d="M141.803,135.052L141.803,7.037C141.803,3.293 138.779,0.197 135.035,0.197L6.947,0.197C3.131,0.197 0.107,3.221 0.107,7.037L0.107,135.052C0.107,138.868 3.131,141.892 6.947,141.892L134.963,141.892C138.779,141.892 141.803,138.796 141.803,135.052Z" style="fill:white;fill-rule:nonzero;"/>
        <path d="M141.803,135.052L141.803,7.037C141.803,3.293 138.779,0.197 135.035,0.197L6.947,0.197C3.131,0.197 0.107,3.221 0.107,7.037L0.107,135.052C0.107,138.868 3.131,141.892 6.947,141.892L134.963,141.892C138.779,141.892 141.803,138.796 141.803,135.052Z" style="fill:none;stroke:rgb(0,104,178);stroke-width:0.22px;"/>
        <path d="M138.419,135.052L138.419,7.037C138.419,5.093 136.907,3.58 135.035,3.58L6.947,3.58C5.003,3.58 3.491,5.093 3.491,7.037L3.491,135.052C3.491,136.996 5.003,138.508 6.947,138.508L134.963,138.508C136.907,138.508 138.419,136.996 138.419,135.052Z" style="fill:rgb(0,64,128);fill-rule:nonzero;"/>
        <path d="M138.419,135.052L138.419,7.037C138.419,5.093 136.907,3.58 135.035,3.58L6.947,3.58C5.003,3.58 3.491,5.093 3.491,7.037L3.491,135.052C3.491,136.996 5.003,138.508 6.947,138.508L134.963,138.508C136.907,138.508 138.419,136.996 138.419,135.052Z" style="fill:none;stroke:white;stroke-width:0.22px;"/>
        <path d="M74.411,21.221C91.115,20.86 104.795,34.325 104.795,50.957C104.795,66.869 92.268,79.973 76.355,80.621L54.467,80.621L54.467,120.22L37.691,120.22L37.691,21.221L74.411,21.221Z" style="fill:white;fill-rule:nonzero;"/>
        <path d="M74.411,21.221C91.115,20.86 104.795,34.325 104.795,50.957C104.795,66.869 92.268,79.973 76.355,80.621L54.467,80.621L54.467,120.22L37.691,120.22L37.691,21.221L74.411,21.221Z" style="fill:none;stroke:white;stroke-width:0.22px;"/>
        <path d="M54.539,37.061L54.539,64.853L73.763,64.853C81.323,64.565 87.299,58.517 87.299,50.885C87.299,43.397 81.395,37.276 73.907,37.061L54.539,37.061Z" style="fill:rgb(0,64,128);fill-rule:nonzero;"/>
        <path d="M54.539,37.061L54.539,64.853L73.763,64.853C81.323,64.565 87.299,58.517 87.299,50.885C87.299,43.397 81.395,37.276 73.907,37.061L54.539,37.061Z" style="fill:none;stroke:white;stroke-width:0.22px;"/>
    </g>
</svg>
