<?xml version="1.0" encoding="UTF-8" standalone="no"?>
<!DOCTYPE svg PUBLIC "-//W3C//DTD SVG 1.1//EN" "http://www.w3.org/Graphics/SVG/1.1/DTD/svg11.dtd">
<svg width="100%" height="100%" viewBox="0 0 596 794" version="1.1" xmlns="http://www.w3.org/2000/svg" xmlns:xlink="http://www.w3.org/1999/xlink" xml:space="preserve" xmlns:serif="http://www.serif.com/" style="fill-rule:evenodd;clip-rule:evenodd;stroke-linecap:round;stroke-linejoin:round;stroke-miterlimit:2;">
    <g>
        <path d="M0.354,768.873L0.354,25.664C0.354,11.982 11.445,0.89 25.127,0.89L570.148,0.89C583.83,0.89 594.922,11.982 594.922,25.664L594.922,768.873C594.922,782.555 583.83,793.647 570.148,793.647L25.127,793.647C11.445,793.647 0.354,782.555 0.354,768.873Z" style="fill:white;fill-rule:nonzero;"/>
        <path d="M0.354,768.873L0.354,25.664C0.354,11.982 11.445,0.89 25.127,0.89L570.148,0.89C583.83,0.89 594.922,11.982 594.922,25.664L594.922,768.873C594.922,782.555 583.83,793.647 570.148,793.647L25.127,793.647C11.445,793.647 0.354,782.555 0.354,768.873Z" style="fill:none;stroke:rgb(0,64,128);stroke-width:0.71px;"/>
        <path d="M12.74,768.873L12.74,25.664C12.74,22.379 14.045,19.228 16.368,16.906C18.691,14.583 21.842,13.278 25.127,13.278L570.148,13.278C573.434,13.278 576.584,14.583 578.906,16.906C581.229,19.228 582.535,22.379 582.535,25.664L582.535,768.873C582.535,772.159 581.229,775.309 578.906,777.632C576.584,779.955 573.434,781.26 570.148,781.26L25.127,781.26C21.842,781.26 18.691,779.955 16.368,777.632C14.045,775.309 12.74,772.159 12.74,768.873Z" style="fill:rgb(0,64,128);fill-rule:nonzero;"/>
        <path d="M12.74,768.873L12.74,25.664C12.74,22.379 14.045,19.228 16.368,16.906C18.691,14.583 21.842,13.278 25.127,13.278L570.148,13.278C573.434,13.278 576.584,14.583 578.906,16.906C581.229,19.228 582.535,22.379 582.535,25.664L582.535,768.873C582.535,772.159 581.229,775.309 578.906,777.632C576.584,779.955 573.434,781.26 570.148,781.26L25.127,781.26C21.842,781.26 18.691,779.955 16.368,777.632C14.045,775.309 12.74,772.159 12.74,768.873Z" style="fill:none;stroke:rgb(0,64,128);stroke-width:0.71px;"/>
        <path d="M99.496,43.006L99.496,751.532L297.654,751.532L297.654,674.876L495.745,555.963L495.745,238.679L297.654,119.765L297.654,43.006L99.496,43.006Z" style="fill:white;fill-rule:nonzero;"/>
        <path d="M99.496,43.006L99.496,751.532L297.654,751.532L297.654,674.876L495.745,555.963L495.745,238.679L297.654,119.765L297.654,43.006L99.496,43.006Z" style="fill:none;stroke:white;stroke-width:0.71px;"/>
        <rect x="297.654" y="242.679" width="27.251" height="47.602" style="fill:rgb(35,31,32);"/>
        <rect x="297.654" y="242.679" width="27.251" height="47.602" style="fill:none;stroke:rgb(35,31,32);stroke-width:0.71px;"/>
        <path d="M381.4,418.769C385.586,431.326 397.337,439.794 410.571,439.794C423.808,439.794 435.559,431.326 439.744,418.769C444.191,405.422 444.191,390.994 439.744,377.649C435.559,365.093 423.808,356.623 410.571,356.623C397.337,356.623 385.586,365.093 381.4,377.649C376.951,390.994 376.951,405.422 381.4,418.769Z" style="fill:rgb(35,31,32);fill-rule:nonzero;"/>
        <path d="M381.4,418.769C385.586,431.326 397.337,439.794 410.571,439.794C423.808,439.794 435.559,431.326 439.744,418.769C444.191,405.422 444.191,390.994 439.744,377.649C435.559,365.093 423.808,356.623 410.571,356.623C397.337,356.623 385.586,365.093 381.4,377.649C376.951,390.994 376.951,405.422 381.4,418.769Z" style="fill:none;stroke:rgb(35,31,32);stroke-width:0.71px;"/>
        <path d="M424.187,330.024C409.567,334.277 393.791,330.998 382.077,321.273L390.221,311.464C398.22,318.105 408.874,320.605 418.992,318.213C423.393,317.173 426.622,313.417 426.991,308.911C427.361,304.405 424.786,300.173 420.614,298.43C418.457,297.529 416.232,296.798 413.961,296.244L406.092,294.325C402.306,293.402 398.696,291.868 395.404,289.783C388.824,285.615 384.998,278.227 385.391,270.448C385.783,262.669 390.335,255.703 397.302,252.22C399.01,251.366 400.789,250.66 402.619,250.111C412.78,247.063 423.721,248.007 433.209,252.751C435.281,253.787 437.244,255.03 439.067,256.46L430.678,266.582C428.466,264.749 425.918,263.365 423.176,262.509C417.283,260.667 410.955,260.768 405.124,262.796C401.65,264.004 399.222,267.154 398.938,270.82C398.652,274.486 400.564,277.973 403.81,279.703C405.479,280.594 407.253,281.274 409.091,281.728L417.197,283.732C420.66,284.588 424.036,285.763 427.282,287.242C435.985,291.208 441.303,300.17 440.612,309.71C439.923,319.249 433.37,327.352 424.187,330.024Z" style="fill:rgb(35,31,32);fill-rule:nonzero;"/>
        <path d="M424.187,330.024C409.567,334.277 393.791,330.998 382.077,321.273L390.221,311.464C398.22,318.105 408.874,320.605 418.992,318.213C423.393,317.173 426.622,313.417 426.991,308.911C427.361,304.405 424.786,300.173 420.614,298.43C418.457,297.529 416.232,296.798 413.961,296.244L406.092,294.325C402.306,293.402 398.696,291.868 395.404,289.783C388.824,285.615 384.998,278.227 385.391,270.448C385.783,262.669 390.335,255.703 397.302,252.22C399.01,251.366 400.789,250.66 402.619,250.111C412.78,247.063 423.721,248.007 433.209,252.751C435.281,253.787 437.244,255.03 439.067,256.46L430.678,266.582C428.466,264.749 425.918,263.365 423.176,262.509C417.283,260.667 410.955,260.768 405.124,262.796C401.65,264.004 399.222,267.154 398.938,270.82C398.652,274.486 400.564,277.973 403.81,279.703C405.479,280.594 407.253,281.274 409.091,281.728L417.197,283.732C420.66,284.588 424.036,285.763 427.282,287.242C435.985,291.208 441.303,300.17 440.612,309.71C439.923,319.249 433.37,327.352 424.187,330.024Z" style="fill:none;stroke:rgb(35,31,32);stroke-width:0.71px;"/>
        <path d="M424.187,546.238C409.567,550.489 393.791,547.21 382.077,537.486L390.221,527.677C398.22,534.319 408.874,536.818 418.992,534.426C423.393,533.386 426.622,529.63 426.991,525.123C427.361,520.618 424.786,516.386 420.614,514.643C418.457,513.742 416.232,513.011 413.961,512.457L406.092,510.538C402.306,509.615 398.696,508.08 395.404,505.996C388.824,501.828 384.998,494.44 385.391,486.661C385.783,478.882 390.335,471.916 397.302,468.433C399.01,467.578 400.789,466.872 402.619,466.324C412.78,463.276 423.721,464.221 433.209,468.964C435.281,470.001 437.244,471.243 439.067,472.672L430.678,482.795C428.466,480.962 425.918,479.578 423.176,478.722C417.283,476.88 410.955,476.981 405.124,479.009C401.65,480.217 399.222,483.367 398.938,487.033C398.652,490.699 400.564,494.186 403.81,495.916C405.479,496.807 407.253,497.487 409.091,497.941L417.197,499.945C420.66,500.801 424.036,501.976 427.282,503.455C435.985,507.421 441.303,516.383 440.612,525.922C439.923,535.462 433.37,543.566 424.187,546.238Z" style="fill:rgb(35,31,32);fill-rule:nonzero;"/>
        <path d="M424.187,546.238C409.567,550.489 393.791,547.21 382.077,537.486L390.221,527.677C398.22,534.319 408.874,536.818 418.992,534.426C423.393,533.386 426.622,529.63 426.991,525.123C427.361,520.618 424.786,516.386 420.614,514.643C418.457,513.742 416.232,513.011 413.961,512.457L406.092,510.538C402.306,509.615 398.696,508.08 395.404,505.996C388.824,501.828 384.998,494.44 385.391,486.661C385.783,478.882 390.335,471.916 397.302,468.433C399.01,467.578 400.789,466.872 402.619,466.324C412.78,463.276 423.721,464.221 433.209,468.964C435.281,470.001 437.244,471.243 439.067,472.672L430.678,482.795C428.466,480.962 425.918,479.578 423.176,478.722C417.283,476.88 410.955,476.981 405.124,479.009C401.65,480.217 399.222,483.367 398.938,487.033C398.652,490.699 400.564,494.186 403.81,495.916C405.479,496.807 407.253,497.487 409.091,497.941L417.197,499.945C420.66,500.801 424.036,501.976 427.282,503.455C435.985,507.421 441.303,516.383 440.612,525.922C439.923,535.462 433.37,543.566 424.187,546.238Z" style="fill:none;stroke:rgb(35,31,32);stroke-width:0.71px;"/>
        <rect x="297.654" y="329.919" width="27.251" height="47.601" style="fill:rgb(35,31,32);"/>
        <rect x="297.654" y="329.919" width="27.251" height="47.601" style="fill:none;stroke:rgb(35,31,32);stroke-width:0.71px;"/>
        <rect x="297.654" y="417.158" width="27.251" height="47.602" style="fill:rgb(35,31,32);"/>
        <rect x="297.654" y="417.158" width="27.251" height="47.602" style="fill:none;stroke:rgb(35,31,32);stroke-width:0.71px;"/>
        <rect x="297.654" y="504.398" width="27.251" height="47.601" style="fill:rgb(35,31,32);"/>
        <rect x="297.654" y="504.398" width="27.251" height="47.601" style="fill:none;stroke:rgb(35,31,32);stroke-width:0.71px;"/>
        <rect x="297.654" y="591.637" width="27.251" height="47.602" style="fill:rgb(35,31,32);"/>
        <rect x="297.654" y="591.637" width="27.251" height="47.602" style="fill:none;stroke:rgb(35,31,32);stroke-width:0.71px;"/>
        <path d="M426.429,415.525C430.437,404.328 430.437,392.089 426.429,380.893C424.031,374.197 417.686,369.728 410.571,369.728C403.459,369.728 397.113,374.197 394.716,380.893C390.708,392.089 390.708,404.328 394.716,415.525C397.113,422.221 403.459,426.689 410.571,426.689C417.686,426.689 424.031,422.221 426.429,415.525Z" style="fill:white;fill-rule:nonzero;"/>
        <path d="M426.429,415.525C430.437,404.328 430.437,392.089 426.429,380.893C424.031,374.197 417.686,369.728 410.571,369.728C403.459,369.728 397.113,374.197 394.716,380.893C390.708,392.089 390.708,404.328 394.716,415.525C397.113,422.221 403.459,426.689 410.571,426.689C417.686,426.689 424.031,422.221 426.429,415.525Z" style="fill:none;stroke:white;stroke-width:0.71px;"/>
        <rect x="297.654" y="155.439" width="27.251" height="47.602" style="fill:rgb(35,31,32);"/>
        <rect x="297.654" y="155.439" width="27.251" height="47.602" style="fill:none;stroke:rgb(35,31,32);stroke-width:0.71px;"/>
    </g>
</svg>
