<?xml version="1.0" encoding="UTF-8" standalone="no"?>
<!DOCTYPE svg PUBLIC "-//W3C//DTD SVG 1.1//EN" "http://www.w3.org/Graphics/SVG/1.1/DTD/svg11.dtd">
<svg width="100%" height="100%" viewBox="0 0 596 596" version="1.1" xmlns="http://www.w3.org/2000/svg" xmlns:xlink="http://www.w3.org/1999/xlink" xml:space="preserve" xmlns:serif="http://www.serif.com/" style="fill-rule:evenodd;clip-rule:evenodd;stroke-linecap:round;stroke-linejoin:round;stroke-miterlimit:2;">
    <g>
        <path d="M594.922,567.108L594.922,29.619C594.922,22.05 591.915,14.79 586.563,9.438C581.21,4.086 573.951,1.079 566.382,1.079L28.893,1.079C21.324,1.079 14.065,4.086 8.713,9.438C3.36,14.79 0.354,22.05 0.354,29.619L0.354,567.108C0.354,574.677 3.36,581.936 8.713,587.288C14.065,592.64 21.324,595.647 28.893,595.647L566.382,595.647C573.951,595.647 581.21,592.64 586.563,587.288C591.915,581.936 594.922,574.677 594.922,567.108Z" style="fill:white;fill-rule:nonzero;"/>
        <path d="M594.922,567.108L594.922,29.619C594.922,22.05 591.915,14.79 586.563,9.438C581.21,4.086 573.951,1.079 566.382,1.079L28.893,1.079C21.324,1.079 14.065,4.086 8.713,9.438C3.36,14.79 0.354,22.05 0.354,29.619L0.354,567.108C0.354,574.677 3.36,581.936 8.713,587.288C14.065,592.64 21.324,595.647 28.893,595.647L566.382,595.647C573.951,595.647 581.21,592.64 586.563,587.288C591.915,581.936 594.922,574.677 594.922,567.108Z" style="fill:none;stroke:rgb(0,104,178);stroke-width:0.71px;"/>
        <path d="M580.652,567.108L580.652,29.619C580.652,25.834 579.148,22.204 576.473,19.528C573.796,16.852 570.167,15.349 566.382,15.349L28.893,15.349C25.108,15.349 21.479,16.852 18.803,19.528C16.127,22.204 14.623,25.834 14.623,29.619L14.623,567.108C14.623,570.892 16.127,574.522 18.803,577.198C21.479,579.873 25.108,581.377 28.893,581.377L566.382,581.377C570.167,581.377 573.796,579.873 576.473,577.198C579.148,574.522 580.652,570.892 580.652,567.108Z" style="fill:rgb(0,64,128);fill-rule:nonzero;"/>
        <path d="M580.652,567.108L580.652,29.619C580.652,25.834 579.148,22.204 576.473,19.528C573.796,16.852 570.167,15.349 566.382,15.349L28.893,15.349C25.108,15.349 21.479,16.852 18.803,19.528C16.127,22.204 14.623,25.834 14.623,29.619L14.623,567.108C14.623,570.892 16.127,574.522 18.803,577.198C21.479,579.873 25.108,581.377 28.893,581.377L566.382,581.377C570.167,581.377 573.796,579.873 576.473,577.198C579.148,574.522 580.652,570.892 580.652,567.108Z" style="fill:none;stroke:rgb(0,64,128);stroke-width:0.71px;"/>
        <path d="M125.944,276.762C125.944,281.687 129.937,285.68 134.862,285.68L460.413,285.68C462.778,285.68 465.047,284.741 466.72,283.068C468.393,281.395 469.332,279.127 469.332,276.762L469.332,111.458C469.332,106.533 465.339,102.54 460.413,102.54L374.9,102.54L346.284,62.915L248.991,62.915L220.376,102.54L134.862,102.54C132.498,102.54 130.229,103.48 128.557,105.152C126.884,106.825 125.944,109.093 125.944,111.458L125.944,276.762Z" style="fill:white;fill-rule:nonzero;"/>
        <path d="M125.944,276.762C125.944,281.687 129.937,285.68 134.862,285.68L460.413,285.68C462.778,285.68 465.047,284.741 466.72,283.068C468.393,281.395 469.332,279.127 469.332,276.762L469.332,111.458C469.332,106.533 465.339,102.54 460.413,102.54L374.9,102.54L346.284,62.915L248.991,62.915L220.376,102.54L134.862,102.54C132.498,102.54 130.229,103.48 128.557,105.152C126.884,106.825 125.944,109.093 125.944,111.458L125.944,276.762Z" style="fill:none;stroke:white;stroke-width:0.71px;"/>
        <path d="M374.082,196.155C374.082,153.936 339.857,119.711 297.638,119.711C255.419,119.711 221.194,153.936 221.194,196.155C221.194,238.374 255.419,272.6 297.638,272.6C339.857,272.6 374.082,238.374 374.082,196.155Z" style="fill:rgb(0,64,128);fill-rule:nonzero;"/>
        <path d="M374.082,196.155C374.082,153.936 339.857,119.711 297.638,119.711C255.419,119.711 221.194,153.936 221.194,196.155C221.194,238.374 255.419,272.6 297.638,272.6C339.857,272.6 374.082,238.374 374.082,196.155Z" style="fill:none;stroke:rgb(0,64,128);stroke-width:0.71px;"/>
        <path d="M366.875,196.155C366.875,157.917 335.876,126.918 297.638,126.918C259.398,126.918 228.401,157.917 228.401,196.155C228.401,234.393 259.398,265.392 297.638,265.392C335.876,265.392 366.875,234.393 366.875,196.155Z" style="fill:white;fill-rule:nonzero;"/>
        <path d="M366.875,196.155C366.875,157.917 335.876,126.918 297.638,126.918C259.398,126.918 228.401,157.917 228.401,196.155C228.401,234.393 259.398,265.392 297.638,265.392C335.876,265.392 366.875,234.393 366.875,196.155Z" style="fill:none;stroke:white;stroke-width:0.71px;"/>
        <path d="M357.095,196.155C357.095,163.318 330.475,136.699 297.638,136.699C264.801,136.699 238.181,163.318 238.181,196.155C238.181,228.993 264.801,255.612 297.638,255.612C330.475,255.612 357.095,228.993 357.095,196.155Z" style="fill:rgb(0,64,128);fill-rule:nonzero;"/>
        <path d="M357.095,196.155C357.095,163.318 330.475,136.699 297.638,136.699C264.801,136.699 238.181,163.318 238.181,196.155C238.181,228.993 264.801,255.612 297.638,255.612C330.475,255.612 357.095,228.993 357.095,196.155Z" style="fill:none;stroke:rgb(0,64,128);stroke-width:0.71px;"/>
        <rect x="412.101" y="87.527" width="34.338" height="11.446" style="fill:white;"/>
        <rect x="412.101" y="87.527" width="34.338" height="11.446" style="fill:none;stroke:white;stroke-width:0.48px;"/>
        <rect x="148.836" y="87.527" width="34.339" height="11.446" style="fill:white;"/>
        <rect x="148.836" y="87.527" width="34.339" height="11.446" style="fill:none;stroke:white;stroke-width:0.48px;"/>
        <path d="M215.524,334.85L242.013,321.355C252.67,342.271 274.162,355.441 297.638,355.441C321.113,355.441 342.604,342.271 353.263,321.355L379.751,334.85C364.019,365.729 332.293,385.17 297.638,385.17C262.983,385.17 231.257,365.729 215.524,334.85Z" style="fill:white;fill-rule:nonzero;"/>
        <path d="M215.524,334.85L242.013,321.355C252.67,342.271 274.162,355.441 297.638,355.441C321.113,355.441 342.604,342.271 353.263,321.355L379.751,334.85C364.019,365.729 332.293,385.17 297.638,385.17C262.983,385.17 231.257,365.729 215.524,334.85Z" style="fill:none;stroke:white;stroke-width:0.71px;"/>
        <path d="M149.304,368.591L175.792,355.096C199.138,400.914 246.214,429.762 297.638,429.762C349.061,429.762 396.138,400.914 419.484,355.096L445.972,368.591C417.551,424.371 360.24,459.491 297.638,459.491C235.036,459.491 177.725,424.371 149.304,368.591Z" style="fill:white;fill-rule:nonzero;"/>
        <path d="M149.304,368.591L175.792,355.096C199.138,400.914 246.214,429.762 297.638,429.762C349.061,429.762 396.138,400.914 419.484,355.096L445.972,368.591C417.551,424.371 360.24,459.491 297.638,459.491C235.036,459.491 177.725,424.371 149.304,368.591Z" style="fill:none;stroke:white;stroke-width:0.71px;"/>
        <path d="M83.083,402.332L109.572,388.835C145.605,459.556 218.267,504.083 297.638,504.083C377.009,504.083 449.671,459.556 485.704,388.835L512.19,402.332C471.084,483.014 388.188,533.812 297.638,533.812C207.088,533.812 124.192,483.014 83.083,402.332Z" style="fill:white;fill-rule:nonzero;"/>
        <path d="M83.083,402.332L109.572,388.835C145.605,459.556 218.267,504.083 297.638,504.083C377.009,504.083 449.671,459.556 485.704,388.835L512.19,402.332C471.084,483.014 388.188,533.812 297.638,533.812C207.088,533.812 124.192,483.014 83.083,402.332Z" style="fill:none;stroke:white;stroke-width:0.71px;"/>
    </g>
</svg>
