<?xml version="1.0" encoding="UTF-8" standalone="no"?>
<!DOCTYPE svg PUBLIC "-//W3C//DTD SVG 1.1//EN" "http://www.w3.org/Graphics/SVG/1.1/DTD/svg11.dtd">
<svg width="100%" height="100%" viewBox="0 0 596 596" version="1.1" xmlns="http://www.w3.org/2000/svg" xmlns:xlink="http://www.w3.org/1999/xlink" xml:space="preserve" xmlns:serif="http://www.serif.com/" style="fill-rule:evenodd;clip-rule:evenodd;stroke-linecap:round;stroke-linejoin:round;stroke-miterlimit:2;">
    <g>
        <path d="M594.922,567.108L594.922,29.619C594.922,22.05 591.915,14.79 586.563,9.438C581.21,4.086 573.951,1.079 566.382,1.079L28.893,1.079C21.324,1.079 14.065,4.086 8.713,9.438C3.36,14.79 0.354,22.05 0.354,29.619L0.354,567.108C0.354,574.677 3.36,581.936 8.713,587.288C14.065,592.64 21.324,595.647 28.893,595.647L566.382,595.647C573.951,595.647 581.21,592.64 586.563,587.288C591.915,581.936 594.922,574.677 594.922,567.108Z" style="fill:white;fill-rule:nonzero;"/>
        <path d="M594.922,567.108L594.922,29.619C594.922,22.05 591.915,14.79 586.563,9.438C581.21,4.086 573.951,1.079 566.382,1.079L28.893,1.079C21.324,1.079 14.065,4.086 8.713,9.438C3.36,14.79 0.354,22.05 0.354,29.619L0.354,567.108C0.354,574.677 3.36,581.936 8.713,587.288C14.065,592.64 21.324,595.647 28.893,595.647L566.382,595.647C573.951,595.647 581.21,592.64 586.563,587.288C591.915,581.936 594.922,574.677 594.922,567.108Z" style="fill:none;stroke:rgb(0,64,128);stroke-width:0.71px;"/>
        <path d="M580.652,567.108L580.652,29.619C580.652,25.834 579.148,22.204 576.473,19.528C573.796,16.852 570.167,15.349 566.382,15.349L28.893,15.349C25.108,15.349 21.479,16.852 18.803,19.528C16.127,22.204 14.623,25.834 14.623,29.619L14.623,567.108C14.623,570.892 16.127,574.522 18.803,577.198C21.479,579.873 25.108,581.377 28.893,581.377L566.382,581.377C570.167,581.377 573.796,579.873 576.473,577.198C579.148,574.522 580.652,570.892 580.652,567.108Z" style="fill:rgb(0,64,128);fill-rule:nonzero;"/>
        <path d="M580.652,567.108L580.652,29.619C580.652,25.834 579.148,22.204 576.473,19.528C573.796,16.852 570.167,15.349 566.382,15.349L28.893,15.349C25.108,15.349 21.479,16.852 18.803,19.528C16.127,22.204 14.623,25.834 14.623,29.619L14.623,567.108C14.623,570.892 16.127,574.522 18.803,577.198C21.479,579.873 25.108,581.377 28.893,581.377L566.382,581.377C570.167,581.377 573.796,579.873 576.473,577.198C579.148,574.522 580.652,570.892 580.652,567.108Z" style="fill:none;stroke:rgb(0,64,128);stroke-width:0.71px;"/>
        <path d="M336.77,533.812L336.77,344.235L366.498,327.258L366.498,533.812L336.77,533.812Z" style="fill:white;fill-rule:nonzero;"/>
        <path d="M336.77,533.812L336.77,344.235L366.498,327.258L366.498,533.812L336.77,533.812Z" style="fill:none;stroke:white;stroke-width:0.41px;"/>
        <path d="M218.133,387.332L522.761,213.38C525.499,211.815 527.505,209.228 528.335,206.185C529.166,203.143 528.754,199.895 527.189,197.156L456.429,73.241C454.865,70.502 452.278,68.497 449.235,67.666C446.193,66.835 442.945,67.247 440.206,68.811L135.58,242.764C132.841,244.328 130.835,246.915 130.005,249.957C129.173,253 129.586,256.248 131.15,258.986L201.911,382.903C205.167,388.606 212.431,390.588 218.133,387.332Z" style="fill:white;fill-rule:nonzero;"/>
        <path d="M218.133,387.332L522.761,213.38C525.499,211.815 527.505,209.228 528.335,206.185C529.166,203.143 528.754,199.895 527.189,197.156L456.429,73.241C454.865,70.502 452.278,68.497 449.235,67.666C446.193,66.835 442.945,67.247 440.206,68.811L135.58,242.764C132.841,244.328 130.835,246.915 130.005,249.957C129.173,253 129.586,256.248 131.15,258.986L201.911,382.903C205.167,388.606 212.431,390.588 218.133,387.332Z" style="fill:none;stroke:white;stroke-width:0.71px;"/>
        <path d="M63.281,331.976L139.247,309.137L156.938,340.117L98.661,393.934L63.281,331.976Z" style="fill:white;fill-rule:nonzero;"/>
        <path d="M63.281,331.976L139.247,309.137L156.938,340.117L98.661,393.934L63.281,331.976Z" style="fill:none;stroke:white;stroke-width:0.71px;"/>
    </g>
</svg>
