<?xml version="1.0" encoding="UTF-8" standalone="no"?>
<!DOCTYPE svg PUBLIC "-//W3C//DTD SVG 1.1//EN" "http://www.w3.org/Graphics/SVG/1.1/DTD/svg11.dtd">
<svg width="100%" height="100%" viewBox="0 0 596 596" version="1.1" xmlns="http://www.w3.org/2000/svg" xmlns:xlink="http://www.w3.org/1999/xlink" xml:space="preserve" xmlns:serif="http://www.serif.com/" style="fill-rule:evenodd;clip-rule:evenodd;stroke-linecap:round;stroke-linejoin:round;stroke-miterlimit:2;">
    <g>
        <path d="M40.001,0.93L555.274,0.93C577.17,0.93 594.921,18.681 594.921,40.578L594.921,555.999C594.921,577.895 577.17,595.646 555.274,595.646L40.001,595.646C18.105,595.646 0.354,577.895 0.354,555.999L0.354,40.578C0.354,18.681 18.105,0.93 40.001,0.93Z" style="fill:white;fill-rule:nonzero;"/>
        <path d="M40.001,0.93L555.274,0.93C577.17,0.93 594.921,18.681 594.921,40.578L594.921,555.999C594.921,577.895 577.17,595.646 555.274,595.646L40.001,595.646C18.105,595.646 0.354,577.895 0.354,555.999L0.354,40.578C0.354,18.681 18.105,0.93 40.001,0.93Z" style="fill:none;stroke:rgb(0,154,111);stroke-width:0.71px;"/>
        <path d="M40.001,20.755L555.274,20.755C560.532,20.755 565.574,22.843 569.292,26.561C573.009,30.278 575.097,35.321 575.097,40.578L575.097,555.999C575.097,566.947 566.222,575.823 555.274,575.823L40.001,575.823C29.053,575.823 20.178,566.947 20.178,555.999L20.178,40.578C20.178,35.321 22.267,30.278 25.983,26.561C29.702,22.843 34.743,20.755 40.001,20.755Z" style="fill:rgb(0,154,111);fill-rule:nonzero;"/>
        <path d="M40.001,20.755L555.274,20.755C560.532,20.755 565.574,22.843 569.292,26.561C573.009,30.278 575.097,35.321 575.097,40.578L575.097,555.999C575.097,566.947 566.222,575.823 555.274,575.823L40.001,575.823C29.053,575.823 20.178,566.947 20.178,555.999L20.178,40.578C20.178,35.321 22.267,30.278 25.983,26.561C29.702,22.843 34.743,20.755 40.001,20.755Z" style="fill:none;stroke:rgb(0,154,111);stroke-width:0.71px;"/>
        <path d="M275.016,265.281L244.643,265.253C236.234,266.679 229.706,273.369 228.485,281.81C227.265,290.252 231.631,298.516 239.293,302.264L241.212,302.614L245.03,302.781L282.547,302.781C289.387,302.218 295.691,298.858 299.974,293.496L334.76,258.924L362.521,304.48L364.24,311.244L318.292,401.375L294.518,499.965C291.866,508.598 294.976,517.964 302.267,523.295L308.298,525.217C313.513,526.088 318.861,524.848 323.162,521.771C327.462,518.694 330.362,514.034 331.222,508.816L355.444,419.094L395.926,353.891L398.279,360.473L410.982,416.42C412.399,425.561 419.335,432.867 428.391,434.756L521.187,437.037C528.536,439.019 536.348,436.31 540.893,430.205C545.438,424.1 545.791,415.839 541.783,409.367C537.94,404.601 532.782,401.069 526.95,399.208L452.832,397.81L443.917,317.174C443.852,308.953 441.75,300.877 437.801,293.667L409.566,235.462L452.164,235.462L477.722,280.729C483.213,288.444 493.515,290.993 501.972,286.73C510.427,282.466 514.503,272.667 511.566,263.664L479.206,205.493C474.754,198.234 466.392,194.343 457.972,195.612L344.641,195.62C337.419,194.97 330.493,198.638 326.971,204.976L275.016,265.281Z" style="fill:white;fill-rule:nonzero;"/>
        <path d="M275.016,265.281L244.643,265.253C236.234,266.679 229.706,273.369 228.485,281.81C227.265,290.252 231.631,298.516 239.293,302.264L241.212,302.614L245.03,302.781L282.547,302.781C289.387,302.218 295.691,298.858 299.974,293.496L334.76,258.924L362.521,304.48L364.24,311.244L318.292,401.375L294.518,499.965C291.866,508.598 294.976,517.964 302.267,523.295L308.298,525.217C313.513,526.088 318.861,524.848 323.162,521.771C327.462,518.694 330.362,514.034 331.222,508.816L355.444,419.094L395.926,353.891L398.279,360.473L410.982,416.42C412.399,425.561 419.335,432.867 428.391,434.756L521.187,437.037C528.536,439.019 536.348,436.31 540.893,430.205C545.438,424.1 545.791,415.839 541.783,409.367C537.94,404.601 532.782,401.069 526.95,399.208L452.832,397.81L443.917,317.174C443.852,308.953 441.75,300.877 437.801,293.667L409.566,235.462L452.164,235.462L477.722,280.729C483.213,288.444 493.515,290.993 501.972,286.73C510.427,282.466 514.503,272.667 511.566,263.664L479.206,205.493C474.754,198.234 466.392,194.343 457.972,195.612L344.641,195.62C337.419,194.97 330.493,198.638 326.971,204.976L275.016,265.281Z" style="fill:none;stroke:white;stroke-width:0.71px;"/>
        <path d="M300.585,153.677C300.585,134.542 316.096,119.031 335.231,119.031C354.366,119.031 369.877,134.542 369.877,153.677C369.877,172.811 354.366,188.323 335.231,188.323C316.096,188.323 300.585,172.811 300.585,153.677Z" style="fill:white;fill-rule:nonzero;"/>
        <path d="M300.585,153.677C300.585,134.542 316.096,119.031 335.231,119.031C354.366,119.031 369.877,134.542 369.877,153.677C369.877,172.811 354.366,188.323 335.231,188.323C316.096,188.323 300.585,172.811 300.585,153.677Z" style="fill:none;stroke:white;stroke-width:0.71px;"/>
        <rect x="59.806" y="99.635" width="128.136" height="426.011" style="fill:white;"/>
        <rect x="59.806" y="99.635" width="128.136" height="426.011" style="fill:none;stroke:white;stroke-width:0.71px;"/>
    </g>
</svg>
