<?xml version="1.0" encoding="UTF-8" standalone="no"?>
<!DOCTYPE svg PUBLIC "-//W3C//DTD SVG 1.1//EN" "http://www.w3.org/Graphics/SVG/1.1/DTD/svg11.dtd">
<svg width="100%" height="100%" viewBox="0 0 455 133" version="1.1" xmlns="http://www.w3.org/2000/svg" xmlns:xlink="http://www.w3.org/1999/xlink" xml:space="preserve" xmlns:serif="http://www.serif.com/" style="fill-rule:evenodd;clip-rule:evenodd;stroke-linecap:round;stroke-linejoin:round;stroke-miterlimit:2;">
    <g>
        <path d="M438.123,132.662L16.858,132.662C12.477,132.662 8.275,130.921 5.177,127.824C2.079,124.724 0.338,120.523 0.338,116.142L0.338,17.021C0.338,7.897 7.735,0.501 16.858,0.501L438.123,0.501C442.503,0.501 446.706,2.242 449.803,5.34C452.902,8.438 454.642,12.64 454.642,17.021L454.642,116.142C454.642,125.266 447.246,132.662 438.123,132.662Z" style="fill:white;fill-rule:nonzero;"/>
        <path d="M438.123,132.662L16.858,132.662C12.477,132.662 8.275,130.921 5.177,127.824C2.079,124.724 0.338,120.523 0.338,116.142L0.338,17.021C0.338,7.897 7.735,0.501 16.858,0.501L438.123,0.501C442.503,0.501 446.706,2.242 449.803,5.34C452.902,8.438 454.642,12.64 454.642,17.021L454.642,116.142C454.642,125.266 447.246,132.662 438.123,132.662Z" style="fill:none;stroke:rgb(0,154,111);stroke-width:0.68px;"/>
        <path d="M10.422,59.831L80.694,10.27C82.087,9.289 83.75,8.761 85.455,8.761L438.123,8.761C442.684,8.761 446.382,12.46 446.382,17.021L446.382,116.142C446.382,120.704 442.684,124.402 438.123,124.402L85.455,124.402C83.75,124.402 82.087,123.874 80.694,122.892L10.422,73.332C8.228,71.784 6.922,69.266 6.922,66.581C6.922,63.896 8.228,61.379 10.422,59.831Z" style="fill:rgb(0,154,111);fill-rule:nonzero;"/>
        <path d="M10.422,59.831L80.694,10.27C82.087,9.289 83.75,8.761 85.455,8.761L438.123,8.761C442.684,8.761 446.382,12.46 446.382,17.021L446.382,116.142C446.382,120.704 442.684,124.402 438.123,124.402L85.455,124.402C83.75,124.402 82.087,123.874 80.694,122.892L10.422,73.332C8.228,71.784 6.922,69.266 6.922,66.581C6.922,63.896 8.228,61.379 10.422,59.831Z" style="fill:none;stroke:rgb(0,154,111);stroke-width:0.68px;"/>
        <path d="M367.146,55.562L360.08,55.556C358.123,55.887 356.603,57.444 356.32,59.408C356.036,61.372 357.052,63.295 358.834,64.168L359.281,64.249L360.169,64.288L368.899,64.288C370.49,64.156 371.957,63.375 372.954,62.127L381.047,54.084L387.506,64.682L387.907,66.257L377.215,87.227L371.684,110.166C371.067,112.175 371.791,114.354 373.487,115.594L374.89,116.041C376.103,116.245 377.348,115.956 378.348,115.24C379.349,114.524 380.024,113.44 380.224,112.225L385.86,91.349L395.279,76.18L395.826,77.711L398.782,90.728C399.112,92.854 400.725,94.555 402.833,94.994L424.423,95.525C426.132,95.986 427.951,95.355 429.008,93.935C430.066,92.515 430.148,90.593 429.215,89.087C428.322,87.978 427.121,87.156 425.763,86.723L408.519,86.397L406.445,67.636C406.43,65.723 405.941,63.845 405.022,62.167L398.453,48.625L408.363,48.625L414.31,59.157C415.587,60.952 417.985,61.545 419.953,60.553C421.919,59.56 422.869,57.281 422.185,55.186L414.656,41.651C413.62,39.963 411.673,39.056 409.714,39.352L383.346,39.354C381.666,39.203 380.054,40.056 379.235,41.531L367.146,55.562Z" style="fill:white;fill-rule:nonzero;"/>
        <path d="M367.146,55.562L360.08,55.556C358.123,55.887 356.603,57.444 356.32,59.408C356.036,61.372 357.052,63.295 358.834,64.168L359.281,64.249L360.169,64.288L368.899,64.288C370.49,64.156 371.957,63.375 372.954,62.127L381.047,54.084L387.506,64.682L387.907,66.257L377.215,87.227L371.684,110.166C371.067,112.175 371.791,114.354 373.487,115.594L374.89,116.041C376.103,116.245 377.348,115.956 378.348,115.24C379.349,114.524 380.024,113.44 380.224,112.225L385.86,91.349L395.279,76.18L395.826,77.711L398.782,90.728C399.112,92.854 400.725,94.555 402.833,94.994L424.423,95.525C426.132,95.986 427.951,95.355 429.008,93.935C430.066,92.515 430.148,90.593 429.215,89.087C428.322,87.978 427.121,87.156 425.763,86.723L408.519,86.397L406.445,67.636C406.43,65.723 405.941,63.845 405.022,62.167L398.453,48.625L408.363,48.625L414.31,59.157C415.587,60.952 417.985,61.545 419.953,60.553C421.919,59.56 422.869,57.281 422.185,55.186L414.656,41.651C413.62,39.963 411.673,39.056 409.714,39.352L383.346,39.354C381.666,39.203 380.054,40.056 379.235,41.531L367.146,55.562Z" style="fill:none;stroke:white;stroke-width:0.68px;"/>
        <path d="M373.095,29.595C373.095,25.143 376.705,21.534 381.157,21.534C385.609,21.534 389.218,25.143 389.218,29.595C389.218,34.047 385.609,37.656 381.157,37.656C376.705,37.656 373.095,34.047 373.095,29.595Z" style="fill:white;fill-rule:nonzero;"/>
        <path d="M373.095,29.595C373.095,25.143 376.705,21.534 381.157,21.534C385.609,21.534 389.218,25.143 389.218,29.595C389.218,34.047 385.609,37.656 381.157,37.656C376.705,37.656 373.095,34.047 373.095,29.595Z" style="fill:none;stroke:white;stroke-width:0.68px;"/>
        <rect x="140.76" y="17.021" width="49.56" height="99.121" style="fill:white;"/>
        <rect x="140.76" y="17.021" width="49.56" height="99.121" style="fill:none;stroke:white;stroke-width:0.68px;"/>
        <path d="M284.737,90.319C285.336,91.431 285.794,92.612 286.101,93.837C287.058,97.663 287.058,101.666 286.101,105.494C285.796,106.715 285.338,107.894 284.741,109.002C283.912,110.538 282.316,111.505 280.57,111.527C278.825,111.505 277.228,110.538 276.4,109.002C275.802,107.894 275.345,106.715 275.04,105.494C274.083,101.666 274.083,97.663 275.04,93.837C275.345,92.612 275.804,91.431 276.404,90.319C277.232,88.785 278.827,87.82 280.57,87.799C282.314,87.82 283.908,88.785 284.737,90.319Z" style="fill:rgb(0,154,111);fill-rule:nonzero;"/>
        <path d="M284.737,90.319C285.336,91.431 285.794,92.612 286.101,93.837C287.058,97.663 287.058,101.666 286.101,105.494C285.796,106.715 285.338,107.894 284.741,109.002C283.912,110.538 282.316,111.505 280.57,111.527C278.825,111.505 277.228,110.538 276.4,109.002C275.802,107.894 275.345,106.715 275.04,105.494C274.083,101.666 274.083,97.663 275.04,93.837C275.345,92.612 275.804,91.431 276.404,90.319C277.232,88.785 278.827,87.82 280.57,87.799C282.314,87.82 283.908,88.785 284.737,90.319Z" style="fill:none;stroke:rgb(0,154,111);stroke-width:0.68px;"/>
        <path d="M234.544,34.742L335.692,34.742L335.692,47.956L234.544,47.956L247.76,61.173L226.733,61.173L206.909,41.349L226.733,21.525L247.76,21.525L234.544,34.742Z" style="fill:white;fill-rule:nonzero;"/>
        <path d="M234.544,34.742L335.692,34.742L335.692,47.956L234.544,47.956L247.76,61.173L226.733,61.173L206.909,41.349L226.733,21.525L247.76,21.525L234.544,34.742Z" style="fill:none;stroke:white;stroke-width:0.68px;"/>
        <path d="M210.871,83.093L206.909,87.055L206.909,92.729L210.486,90.664L210.486,116.133L216.268,116.133L216.268,83.093L210.871,83.093Z" style="fill:white;fill-rule:nonzero;"/>
        <path d="M210.871,83.093L206.909,87.055L206.909,92.729L210.486,90.664L210.486,116.133L216.268,116.133L216.268,83.093L210.871,83.093Z" style="fill:none;stroke:white;stroke-width:0.68px;"/>
        <path d="M252.743,87.744C251.889,89.207 251.247,90.785 250.835,92.429C249.649,97.174 249.649,102.138 250.835,106.884C251.247,108.527 251.889,110.104 252.743,111.567C254.659,114.85 258.161,116.879 261.961,116.906C265.762,116.879 269.266,114.85 271.181,111.567C272.036,110.104 272.677,108.527 273.088,106.884C274.275,102.138 274.275,97.174 273.088,92.429C272.677,90.785 272.036,89.207 271.181,87.744C269.266,84.462 265.762,82.433 261.961,82.406C258.161,82.433 254.659,84.462 252.743,87.744Z" style="fill:white;fill-rule:nonzero;"/>
        <path d="M252.743,87.744C251.889,89.207 251.247,90.785 250.835,92.429C249.649,97.174 249.649,102.138 250.835,106.884C251.247,108.527 251.889,110.104 252.743,111.567C254.659,114.85 258.161,116.879 261.961,116.906C265.762,116.879 269.266,114.85 271.181,111.567C272.036,110.104 272.677,108.527 273.088,106.884C274.275,102.138 274.275,97.174 273.088,92.429C272.677,90.785 272.036,89.207 271.181,87.744C269.266,84.462 265.762,82.433 261.961,82.406C258.161,82.433 254.659,84.462 252.743,87.744Z" style="fill:none;stroke:white;stroke-width:0.68px;"/>
        <path d="M318.441,100.401L318.441,116.133L323.39,116.133L323.39,99.411C323.39,97.421 322.6,95.512 321.192,94.105C319.784,92.697 317.875,91.906 315.884,91.906C313.326,91.906 310.896,93.03 309.24,94.98C307.961,93.233 305.992,92.122 303.835,91.934C301.68,91.745 299.547,92.497 297.986,93.995L297.986,92.566L293.037,92.566L293.037,116.133L297.986,116.133L297.986,100.401C297.986,99.016 298.725,97.737 299.924,97.044C301.123,96.352 302.601,96.352 303.801,97.044C305,97.737 305.739,99.016 305.739,100.401L305.739,116.133L310.688,116.133L310.688,100.401C310.688,99.016 311.427,97.737 312.626,97.044C313.827,96.352 315.303,96.352 316.503,97.044C317.703,97.737 318.441,99.016 318.441,100.401Z" style="fill:white;fill-rule:nonzero;"/>
        <path d="M318.441,100.401L318.441,116.133L323.39,116.133L323.39,99.411C323.39,97.421 322.6,95.512 321.192,94.105C319.784,92.697 317.875,91.906 315.884,91.906C313.326,91.906 310.896,93.03 309.24,94.98C307.961,93.233 305.992,92.122 303.835,91.934C301.68,91.745 299.547,92.497 297.986,93.995L297.986,92.566L293.037,92.566L293.037,116.133L297.986,116.133L297.986,100.401C297.986,99.016 298.725,97.737 299.924,97.044C301.123,96.352 302.601,96.352 303.801,97.044C305,97.737 305.739,99.016 305.739,100.401L305.739,116.133L310.688,116.133L310.688,100.401C310.688,99.016 311.427,97.737 312.626,97.044C313.827,96.352 315.303,96.352 316.503,97.044C317.703,97.737 318.441,99.016 318.441,100.401Z" style="fill:none;stroke:white;stroke-width:0.68px;"/>
        <path d="M224.351,87.744C223.497,89.207 222.855,90.785 222.444,92.429C221.257,97.174 221.257,102.138 222.444,106.884C222.855,108.527 223.497,110.104 224.351,111.567C226.267,114.85 229.77,116.879 233.57,116.906C237.371,116.879 240.874,114.85 242.79,111.567C243.644,110.104 244.286,108.527 244.698,106.884C245.883,102.138 245.883,97.174 244.698,92.429C244.286,90.785 243.644,89.207 242.79,87.744C240.874,84.462 237.371,82.433 233.57,82.406C229.77,82.433 226.267,84.462 224.351,87.744Z" style="fill:white;fill-rule:nonzero;"/>
        <path d="M224.351,87.744C223.497,89.207 222.855,90.785 222.444,92.429C221.257,97.174 221.257,102.138 222.444,106.884C222.855,108.527 223.497,110.104 224.351,111.567C226.267,114.85 229.77,116.879 233.57,116.906C237.371,116.879 240.874,114.85 242.79,111.567C243.644,110.104 244.286,108.527 244.698,106.884C245.883,102.138 245.883,97.174 244.698,92.429C244.286,90.785 243.644,89.207 242.79,87.744C240.874,84.462 237.371,82.433 233.57,82.406C229.77,82.433 226.267,84.462 224.351,87.744Z" style="fill:none;stroke:white;stroke-width:0.68px;"/>
        <path d="M257.795,90.311C257.196,91.422 256.737,92.603 256.431,93.827C255.475,97.654 255.475,101.657 256.431,105.484C256.737,106.707 257.194,107.885 257.792,108.994C258.62,110.529 260.216,111.496 261.961,111.517C263.708,111.496 265.304,110.529 266.132,108.994C266.731,107.885 267.188,106.707 267.493,105.484C268.45,101.657 268.45,97.654 267.493,93.827C267.187,92.603 266.729,91.422 266.128,90.311C265.3,88.777 263.706,87.812 261.961,87.789C260.217,87.812 258.625,88.777 257.795,90.311Z" style="fill:rgb(0,154,111);fill-rule:nonzero;"/>
        <path d="M257.795,90.311C257.196,91.422 256.737,92.603 256.431,93.827C255.475,97.654 255.475,101.657 256.431,105.484C256.737,106.707 257.194,107.885 257.792,108.994C258.62,110.529 260.216,111.496 261.961,111.517C263.708,111.496 265.304,110.529 266.132,108.994C266.731,107.885 267.188,106.707 267.493,105.484C268.45,101.657 268.45,97.654 267.493,93.827C267.187,92.603 266.729,91.422 266.128,90.311C265.3,88.777 263.706,87.812 261.961,87.789C260.217,87.812 258.625,88.777 257.795,90.311Z" style="fill:none;stroke:rgb(0,154,111);stroke-width:0.68px;"/>
        <path d="M229.404,90.311C228.804,91.422 228.346,92.603 228.04,93.827C227.083,97.654 227.083,101.657 228.04,105.484C228.345,106.707 228.802,107.885 229.4,108.994C230.229,110.529 231.825,111.496 233.57,111.517C235.316,111.496 236.913,110.529 237.741,108.994C238.338,107.885 238.796,106.707 239.101,105.484C240.058,101.657 240.058,97.654 239.101,93.827C238.795,92.603 238.336,91.422 237.737,90.311C236.909,88.777 235.314,87.812 233.57,87.789C231.827,87.812 230.232,88.777 229.404,90.311Z" style="fill:rgb(0,154,111);fill-rule:nonzero;"/>
        <path d="M229.404,90.311C228.804,91.422 228.346,92.603 228.04,93.827C227.083,97.654 227.083,101.657 228.04,105.484C228.345,106.707 228.802,107.885 229.4,108.994C230.229,110.529 231.825,111.496 233.57,111.517C235.316,111.496 236.913,110.529 237.741,108.994C238.338,107.885 238.796,106.707 239.101,105.484C240.058,101.657 240.058,97.654 239.101,93.827C238.795,92.603 238.336,91.422 237.737,90.311C236.909,88.777 235.314,87.812 233.57,87.789C231.827,87.812 230.232,88.777 229.404,90.311Z" style="fill:none;stroke:rgb(0,154,111);stroke-width:0.68px;"/>
    </g>
</svg>
