<?xml version="1.0" encoding="UTF-8" standalone="no"?>
<!DOCTYPE svg PUBLIC "-//W3C//DTD SVG 1.1//EN" "http://www.w3.org/Graphics/SVG/1.1/DTD/svg11.dtd">
<svg width="100%" height="100%" viewBox="0 0 171 171" version="1.1" xmlns="http://www.w3.org/2000/svg" xmlns:xlink="http://www.w3.org/1999/xlink" xml:space="preserve" xmlns:serif="http://www.serif.com/" style="fill-rule:evenodd;clip-rule:evenodd;stroke-linecap:round;stroke-linejoin:round;stroke-miterlimit:2;">
    <g>
        <rect x="0" y="0.936" width="170.064" height="170.064" style="fill:none;"/>
        <path d="M157.045,171L158.491,170.91L159.938,170.639L161.294,170.277L162.741,169.644L163.916,169.011L165.182,168.107L166.267,167.113L167.171,166.028L168.075,164.852L168.799,163.586L169.341,162.231L169.793,160.784L169.974,159.337L170.064,157.891L170.064,13.956L169.974,12.51L169.793,11.062L169.341,9.707L168.799,8.261L168.075,6.995L167.171,5.819L166.267,4.734L165.182,3.74L163.916,2.926L162.741,2.203L161.294,1.66L159.938,1.208L158.491,1.027L157.045,0.936L13.109,0.936L11.663,1.027L10.216,1.208L8.77,1.66L7.413,2.203L6.147,2.926L4.972,3.74L3.887,4.734L2.893,5.819L2.079,6.995L1.265,8.261L0.723,9.707L0.361,11.062L0.09,12.51L0,13.956L0,157.891L0.09,159.337L0.361,160.784L0.723,162.231L1.265,163.586L2.079,164.852L2.893,166.028L3.887,167.113L4.972,168.107L6.147,169.011L7.413,169.644L8.77,170.277L10.216,170.639L11.663,170.91L13.109,171L157.045,171Z" style="fill:white;fill-rule:nonzero;"/>
        <path d="M157.045,171L158.491,170.91L159.938,170.639L161.294,170.277L162.741,169.644L163.916,169.011L165.182,168.107L166.267,167.113L167.171,166.028L168.075,164.852L168.799,163.586L169.341,162.231L169.793,160.784L169.974,159.337L170.064,157.891L170.064,13.956L169.974,12.51L169.793,11.062L169.341,9.707L168.799,8.261L168.075,6.995L167.171,5.819L166.267,4.734L165.182,3.74L163.916,2.926L162.741,2.203L161.294,1.66L159.938,1.208L158.491,1.027L157.045,0.936L13.109,0.936L11.663,1.027L10.216,1.208L8.77,1.66L7.413,2.203L6.147,2.926L4.972,3.74L3.887,4.734L2.893,5.819L2.079,6.995L1.265,8.261L0.723,9.707L0.361,11.062L0.09,12.51L0,13.956L0,157.891L0.09,159.337L0.361,160.784L0.723,162.231L1.265,163.586L2.079,164.852L2.893,166.028L3.887,167.113L4.972,168.107L6.147,169.011L7.413,169.644L8.77,170.277L10.216,170.639L11.663,170.91L13.109,171L157.045,171Z" style="fill:none;"/>
        <path d="M157.045,164.401L158.039,164.31L159.034,164.129L159.938,163.767L160.842,163.134L161.656,162.501L162.289,161.688L162.831,160.874L163.192,159.879L163.464,158.885L163.555,157.891L163.555,13.956L163.464,12.962L163.192,11.967L162.831,10.973L162.289,10.158L161.656,9.346L160.842,8.622L159.938,8.17L159.034,7.718L158.039,7.537L157.045,7.446L13.109,7.446L12.024,7.537L11.03,7.718L10.126,8.17L9.221,8.622L8.498,9.346L7.775,10.158L7.323,10.973L6.871,11.967L6.6,12.962L6.6,158.885L6.871,159.879L7.323,160.874L7.775,161.688L8.498,162.501L9.221,163.134L10.126,163.767L11.03,164.129L12.024,164.31L13.109,164.401L157.045,164.401Z" style="fill:rgb(0,64,128);fill-rule:nonzero;"/>
        <path d="M157.045,164.401L158.039,164.31L159.034,164.129L159.938,163.767L160.842,163.134L161.656,162.501L162.289,161.688L162.831,160.874L163.192,159.879L163.464,158.885L163.555,157.891L163.555,13.956L163.464,12.962L163.192,11.967L162.831,10.973L162.289,10.158L161.656,9.346L160.842,8.622L159.938,8.17L159.034,7.718L158.039,7.537L157.045,7.446L13.109,7.446L12.024,7.537L11.03,7.718L10.126,8.17L9.221,8.622L8.498,9.346L7.775,10.158L7.323,10.973L6.871,11.967L6.6,12.962L6.6,158.885L6.871,159.879L7.323,160.874L7.775,161.688L8.498,162.501L9.221,163.134L10.126,163.767L11.03,164.129L12.024,164.31L13.109,164.401L157.045,164.401Z" style="fill:none;"/>
        <path d="M132.182,144.781L133.538,144.691L134.984,144.419L136.341,144.058L137.606,143.425L138.872,142.702L139.957,141.888L140.951,140.803L141.855,139.718L142.579,138.542L143.212,137.187L143.573,135.831L143.845,134.474L143.936,133.028L143.936,38.819L143.845,37.373L143.573,36.017L143.212,34.661L142.579,33.394L141.855,32.129L140.951,31.044L139.957,30.05L138.872,29.145L137.606,28.422L136.341,27.789L134.984,27.428L133.538,27.156L132.182,27.066L37.972,27.066L36.526,27.156L35.169,27.428L33.723,27.789L32.547,28.422L31.282,29.145L30.197,30.05L29.202,31.044L28.298,32.129L27.484,33.394L26.942,34.661L26.49,36.017L26.219,37.373L26.128,38.819L26.128,133.028L26.219,134.474L26.49,135.831L26.942,137.187L27.484,138.542L28.298,139.718L29.202,140.803L30.197,141.888L31.282,142.702L32.547,143.425L33.723,144.058L35.169,144.419L36.526,144.691L37.972,144.781L132.182,144.781Z" style="fill:white;fill-rule:nonzero;"/>
        <path d="M132.182,144.781L133.538,144.691L134.984,144.419L136.341,144.058L137.606,143.425L138.872,142.702L139.957,141.888L140.951,140.803L141.855,139.718L142.579,138.542L143.212,137.187L143.573,135.831L143.845,134.474L143.936,133.028L143.936,38.819L143.845,37.373L143.573,36.017L143.212,34.661L142.579,33.394L141.855,32.129L140.951,31.044L139.957,30.05L138.872,29.145L137.606,28.422L136.341,27.789L134.984,27.428L133.538,27.156L132.182,27.066L37.972,27.066L36.526,27.156L35.169,27.428L33.723,27.789L32.547,28.422L31.282,29.145L30.197,30.05L29.202,31.044L28.298,32.129L27.484,33.394L26.942,34.661L26.49,36.017L26.219,37.373L26.128,38.819L26.128,133.028L26.219,134.474L26.49,135.831L26.942,137.187L27.484,138.542L28.298,139.718L29.202,140.803L30.197,141.888L31.282,142.702L32.547,143.425L33.723,144.058L35.169,144.419L36.526,144.691L37.972,144.781L132.182,144.781Z" style="fill:none;"/>
        <path d="M74.724,62.786L60.701,48.762C60.046,48.17 59.671,47.331 59.667,46.449C59.661,45.567 60.025,44.725 60.671,44.124L65.684,39.111L84.374,57.803L79.362,62.814C78.761,63.46 77.918,63.826 77.036,63.82C76.154,63.815 75.316,63.439 74.724,62.786Z" style="fill:rgb(35,31,32);fill-rule:nonzero;"/>
        <path d="M74.724,62.786L60.701,48.762C60.046,48.17 59.671,47.331 59.667,46.449C59.661,45.567 60.025,44.725 60.671,44.124L65.684,39.111L84.374,57.803L79.362,62.814C78.761,63.46 77.918,63.826 77.036,63.82C76.154,63.815 75.316,63.439 74.724,62.786Z" style="fill:none;stroke:rgb(35,31,32);stroke-width:0.34px;"/>
        <path d="M104.277,66.518C108.551,70.823 112.252,75.662 115.291,80.913C116.007,82.333 115.61,84.06 114.343,85.023L133.068,103.746C133.501,103.324 133.884,102.851 134.211,102.34C135.336,99.924 135.936,97.295 135.975,94.625C136,88.457 134.498,82.375 131.609,76.925C127.279,68.999 121.835,61.733 115.443,55.351C109.062,48.96 101.797,43.518 93.871,39.185C88.419,36.295 82.338,34.795 76.168,34.82C73.501,34.857 70.873,35.459 68.454,36.584C67.945,36.911 67.473,37.295 67.048,37.726L85.772,56.451C86.734,55.185 88.462,54.788 89.882,55.507C95.134,58.543 99.972,62.245 104.277,66.518Z" style="fill:rgb(35,31,32);fill-rule:nonzero;"/>
        <path d="M104.277,66.518C108.551,70.823 112.252,75.662 115.291,80.913C116.007,82.333 115.61,84.06 114.343,85.023L133.068,103.746C133.501,103.324 133.884,102.851 134.211,102.34C135.336,99.924 135.936,97.295 135.975,94.625C136,88.457 134.498,82.375 131.609,76.925C127.279,68.999 121.835,61.733 115.443,55.351C109.062,48.96 101.797,43.518 93.871,39.185C88.419,36.295 82.338,34.795 76.168,34.82C73.501,34.857 70.873,35.459 68.454,36.584C67.945,36.911 67.473,37.295 67.048,37.726L85.772,56.451C86.734,55.185 88.462,54.788 89.882,55.507C95.134,58.543 99.972,62.245 104.277,66.518Z" style="fill:none;stroke:rgb(35,31,32);stroke-width:0.34px;"/>
        <path d="M108.011,96.069L122.034,110.095C122.626,110.749 123.464,111.124 124.344,111.128C125.228,111.135 126.073,110.769 126.672,110.124L131.684,105.112L112.994,86.421L107.979,91.434C107.333,92.035 106.971,92.875 106.975,93.76C106.982,94.64 107.354,95.48 108.011,96.069Z" style="fill:rgb(35,31,32);fill-rule:nonzero;"/>
        <path d="M108.011,96.069L122.034,110.095C122.626,110.749 123.464,111.124 124.344,111.128C125.228,111.135 126.073,110.769 126.672,110.124L131.684,105.112L112.994,86.421L107.979,91.434C107.333,92.035 106.971,92.875 106.975,93.76C106.982,94.64 107.354,95.48 108.011,96.069Z" style="fill:none;stroke:rgb(35,31,32);stroke-width:0.34px;"/>
        <path d="M41.043,129.407C42.719,129.796 44.442,129.953 46.162,129.863C48.616,129.832 51.01,129.091 53.051,127.724C54.311,126.853 55.26,125.601 55.757,124.153C56.416,122.261 56.392,120.2 55.689,118.322C54.973,116.724 53.642,115.487 51.999,114.883C50.684,114.353 49.319,113.96 47.924,113.705C46.668,113.431 45.406,113.179 44.141,112.953C43.298,112.768 42.476,112.499 41.687,112.146C41.234,111.926 40.895,111.526 40.756,111.04C40.696,110.695 40.702,110.343 40.771,110.002C40.954,109.484 41.326,109.056 41.813,108.799C42.339,108.466 42.939,108.261 43.561,108.204C44.189,108.119 44.826,108.1 45.458,108.157C46.272,108.182 47.07,108.391 47.791,108.774C48.561,109.226 49.156,109.924 49.482,110.755C49.598,111.11 49.71,111.469 49.816,111.827L55.704,111.692C55.349,108.04 52.841,104.956 49.336,103.867C45.897,102.869 42.215,103.131 38.95,104.6C36.675,105.722 35.085,107.877 34.686,110.378C34.242,113.204 35.669,115.991 38.215,117.283C39.811,117.988 41.489,118.485 43.212,118.754C44.801,119.003 46.362,119.394 47.881,119.912C48.606,120.143 49.216,120.636 49.594,121.295C49.922,121.949 49.873,122.73 49.461,123.337C48.774,124.124 47.851,124.665 46.829,124.88C45.864,125.015 44.882,125.015 43.916,124.88C42.448,124.686 41.179,123.763 40.542,122.428C40.343,121.829 40.185,121.222 40.064,120.605L33.923,120.767C33.946,121.949 34.212,123.117 34.704,124.197C35.138,125.165 35.722,126.063 36.432,126.853C37.699,128.122 39.296,129.004 41.043,129.407Z" style="fill:rgb(35,31,32);fill-rule:nonzero;"/>
        <path d="M41.043,129.407C42.719,129.796 44.442,129.953 46.162,129.863C48.616,129.832 51.01,129.091 53.051,127.724C54.311,126.853 55.26,125.601 55.757,124.153C56.416,122.261 56.392,120.2 55.689,118.322C54.973,116.724 53.642,115.487 51.999,114.883C50.684,114.353 49.319,113.96 47.924,113.705C46.668,113.431 45.406,113.179 44.141,112.953C43.298,112.768 42.476,112.499 41.687,112.146C41.234,111.926 40.895,111.526 40.756,111.04C40.696,110.695 40.702,110.343 40.771,110.002C40.954,109.484 41.326,109.056 41.813,108.799C42.339,108.466 42.939,108.261 43.561,108.204C44.189,108.119 44.826,108.1 45.458,108.157C46.272,108.182 47.07,108.391 47.791,108.774C48.561,109.226 49.156,109.924 49.482,110.755C49.598,111.11 49.71,111.469 49.816,111.827L55.704,111.692C55.349,108.04 52.841,104.956 49.336,103.867C45.897,102.869 42.215,103.131 38.95,104.6C36.675,105.722 35.085,107.877 34.686,110.378C34.242,113.204 35.669,115.991 38.215,117.283C39.811,117.988 41.489,118.485 43.212,118.754C44.801,119.003 46.362,119.394 47.881,119.912C48.606,120.143 49.216,120.636 49.594,121.295C49.922,121.949 49.873,122.73 49.461,123.337C48.774,124.124 47.851,124.665 46.829,124.88C45.864,125.015 44.882,125.015 43.916,124.88C42.448,124.686 41.179,123.763 40.542,122.428C40.343,121.829 40.185,121.222 40.064,120.605L33.923,120.767C33.946,121.949 34.212,123.117 34.704,124.197C35.138,125.165 35.722,126.063 36.432,126.853C37.699,128.122 39.296,129.004 41.043,129.407Z" style="fill:none;stroke:rgb(35,31,32);stroke-width:0.31px;"/>
        <path d="M70.52,129.846C71.245,129.882 71.975,129.839 72.693,129.721C75.604,129.337 78.266,127.876 80.148,125.624C81.307,124.232 82.182,122.627 82.727,120.903C83.187,119.27 83.43,117.581 83.447,115.884C83.394,114.048 82.975,112.246 82.216,110.578C81.447,108.849 80.269,107.333 78.786,106.162C76.425,104.342 73.501,103.401 70.52,103.507C67.538,103.401 64.614,104.342 62.252,106.162C60.768,107.333 59.592,108.849 58.822,110.578C58.062,112.246 57.643,114.048 57.59,115.884C57.609,117.581 57.851,119.27 58.311,120.903C58.856,122.627 59.732,124.232 60.889,125.624C62.773,127.876 65.434,129.337 68.346,129.721C69.064,129.839 69.792,129.882 70.52,129.846Z" style="fill:rgb(35,31,32);fill-rule:nonzero;"/>
        <path d="M70.52,129.846C71.245,129.882 71.975,129.839 72.693,129.721C75.604,129.337 78.266,127.876 80.148,125.624C81.307,124.232 82.182,122.627 82.727,120.903C83.187,119.27 83.43,117.581 83.447,115.884C83.394,114.048 82.975,112.246 82.216,110.578C81.447,108.849 80.269,107.333 78.786,106.162C76.425,104.342 73.501,103.401 70.52,103.507C67.538,103.401 64.614,104.342 62.252,106.162C60.768,107.333 59.592,108.849 58.822,110.578C58.062,112.246 57.643,114.048 57.59,115.884C57.609,117.581 57.851,119.27 58.311,120.903C58.856,122.627 59.732,124.232 60.889,125.624C62.773,127.876 65.434,129.337 68.346,129.721C69.064,129.839 69.792,129.882 70.52,129.846Z" style="fill:none;stroke:rgb(35,31,32);stroke-width:0.36px;"/>
        <path d="M92.019,129.407C93.693,129.796 95.418,129.953 97.136,129.863C99.592,129.832 101.988,129.091 104.029,127.724C105.289,126.853 106.237,125.601 106.733,124.153C107.394,122.261 107.369,120.2 106.666,118.322C105.949,116.724 104.618,115.487 102.975,114.883C101.662,114.353 100.295,113.96 98.9,113.705C97.644,113.431 96.38,113.179 95.117,112.953C94.272,112.768 93.452,112.499 92.661,112.146C92.21,111.926 91.873,111.526 91.731,111.04C91.67,110.695 91.678,110.343 91.745,110.002C91.93,109.484 92.302,109.056 92.789,108.799C93.314,108.466 93.914,108.261 94.538,108.204C95.167,108.119 95.802,108.1 96.434,108.157C97.246,108.182 98.045,108.391 98.769,108.774C99.535,109.226 100.132,109.924 100.458,110.755C100.576,111.11 100.686,111.469 100.792,111.827L106.68,111.692C106.325,108.04 103.816,104.956 100.313,103.867C96.874,102.869 93.189,103.131 89.924,104.6C87.649,105.722 86.062,107.877 85.662,110.378C85.218,113.204 86.644,115.991 89.192,117.283C90.787,117.988 92.465,118.485 94.19,118.754C95.777,119.003 97.338,119.394 98.857,119.912C99.582,120.143 100.192,120.636 100.569,121.295C100.899,121.949 100.849,122.73 100.438,123.337C99.749,124.124 98.826,124.665 97.807,124.88C96.838,125.015 95.858,125.015 94.89,124.88C93.424,124.686 92.153,123.763 91.518,122.428C91.319,121.829 91.16,121.222 91.043,120.605L84.899,120.767C84.922,121.949 85.186,123.117 85.68,124.197C86.115,125.165 86.697,126.063 87.408,126.853C88.675,128.122 90.272,129.004 92.019,129.407Z" style="fill:rgb(35,31,32);fill-rule:nonzero;"/>
        <path d="M92.019,129.407C93.693,129.796 95.418,129.953 97.136,129.863C99.592,129.832 101.988,129.091 104.029,127.724C105.289,126.853 106.237,125.601 106.733,124.153C107.394,122.261 107.369,120.2 106.666,118.322C105.949,116.724 104.618,115.487 102.975,114.883C101.662,114.353 100.295,113.96 98.9,113.705C97.644,113.431 96.38,113.179 95.117,112.953C94.272,112.768 93.452,112.499 92.661,112.146C92.21,111.926 91.873,111.526 91.731,111.04C91.67,110.695 91.678,110.343 91.745,110.002C91.93,109.484 92.302,109.056 92.789,108.799C93.314,108.466 93.914,108.261 94.538,108.204C95.167,108.119 95.802,108.1 96.434,108.157C97.246,108.182 98.045,108.391 98.769,108.774C99.535,109.226 100.132,109.924 100.458,110.755C100.576,111.11 100.686,111.469 100.792,111.827L106.68,111.692C106.325,108.04 103.816,104.956 100.313,103.867C96.874,102.869 93.189,103.131 89.924,104.6C87.649,105.722 86.062,107.877 85.662,110.378C85.218,113.204 86.644,115.991 89.192,117.283C90.787,117.988 92.465,118.485 94.19,118.754C95.777,119.003 97.338,119.394 98.857,119.912C99.582,120.143 100.192,120.636 100.569,121.295C100.899,121.949 100.849,122.73 100.438,123.337C99.749,124.124 98.826,124.665 97.807,124.88C96.838,125.015 95.858,125.015 94.89,124.88C93.424,124.686 92.153,123.763 91.518,122.428C91.319,121.829 91.16,121.222 91.043,120.605L84.899,120.767C84.922,121.949 85.186,123.117 85.68,124.197C86.115,125.165 86.697,126.063 87.408,126.853C88.675,128.122 90.272,129.004 92.019,129.407Z" style="fill:none;stroke:rgb(35,31,32);stroke-width:0.31px;"/>
        <path d="M65.238,112.058C64.893,112.771 64.66,113.538 64.552,114.326C64.172,116.374 64.312,118.49 64.958,120.47C65.4,121.754 66.239,122.865 67.357,123.638C68.296,124.249 69.401,124.551 70.52,124.504C71.638,124.551 72.743,124.249 73.68,123.638C74.798,122.865 75.639,121.754 76.079,120.47C76.727,118.49 76.867,116.374 76.485,114.326C76.377,113.538 76.147,112.771 75.799,112.058C75.256,110.908 74.358,109.964 73.236,109.368C72.383,108.98 71.455,108.789 70.52,108.81C69.583,108.789 68.654,108.98 67.803,109.368C66.681,109.964 65.781,110.908 65.238,112.058Z" style="fill:white;fill-rule:nonzero;"/>
        <path d="M65.238,112.058C64.893,112.771 64.66,113.538 64.552,114.326C64.172,116.374 64.312,118.49 64.958,120.47C65.4,121.754 66.239,122.865 67.357,123.638C68.296,124.249 69.401,124.551 70.52,124.504C71.638,124.551 72.743,124.249 73.68,123.638C74.798,122.865 75.639,121.754 76.079,120.47C76.727,118.49 76.867,116.374 76.485,114.326C76.377,113.538 76.147,112.771 75.799,112.058C75.256,110.908 74.358,109.964 73.236,109.368C72.383,108.98 71.455,108.789 70.52,108.81C69.583,108.789 68.654,108.98 67.803,109.368C66.681,109.964 65.781,110.908 65.238,112.058Z" style="fill:none;stroke:white;stroke-width:0.18px;"/>
    </g>
</svg>
