<?xml version="1.0" encoding="UTF-8" standalone="no"?>
<!DOCTYPE svg PUBLIC "-//W3C//DTD SVG 1.1//EN" "http://www.w3.org/Graphics/SVG/1.1/DTD/svg11.dtd">
<svg width="100%" height="100%" viewBox="0 0 1985 1843" version="1.1" xmlns="http://www.w3.org/2000/svg" xmlns:xlink="http://www.w3.org/1999/xlink" xml:space="preserve" xmlns:serif="http://www.serif.com/" style="fill-rule:evenodd;clip-rule:evenodd;stroke-linejoin:round;stroke-miterlimit:2;">
    <g>
        <path d="M141.732,1843L1842.52,1843L1845.02,1842.98L1846.27,1842.95L1847.52,1842.91L1848.77,1842.86L1850.02,1842.8L1851.27,1842.73L1852.52,1842.65L1853.77,1842.55L1855.01,1842.45L1856.26,1842.33L1857.5,1842.21L1858.74,1842.07L1859.99,1841.92L1861.23,1841.76L1862.47,1841.59L1863.7,1841.41L1864.94,1841.21L1866.17,1841.01L1867.41,1840.8L1868.64,1840.57L1869.86,1840.34L1871.09,1840.09L1872.31,1839.83L1873.54,1839.56L1874.75,1839.28L1875.97,1838.99L1877.19,1838.69L1878.4,1838.38L1879.61,1838.06L1880.81,1837.73L1882.01,1837.39L1883.21,1837.03L1884.41,1836.67L1885.6,1836.29L1886.79,1835.91L1887.98,1835.51L1889.16,1835.1L1890.34,1834.69L1891.52,1834.26L1892.69,1833.82L1893.86,1833.37L1895.02,1832.92L1896.18,1832.45L1897.34,1831.97L1898.49,1831.48L1899.63,1830.98L1900.78,1830.47L1901.91,1829.95L1903.05,1829.42L1904.18,1828.89L1905.3,1828.34L1906.42,1827.78L1907.53,1827.21L1908.64,1826.63L1909.75,1826.04L1910.84,1825.44L1911.94,1824.84L1913.02,1824.22L1914.11,1823.59L1915.18,1822.95L1916.25,1822.31L1917.32,1821.65L1918.38,1820.99L1919.43,1820.31L1920.48,1819.63L1921.52,1818.94L1922.56,1818.24L1923.59,1817.53L1924.61,1816.81L1925.63,1816.08L1926.63,1815.34L1927.64,1814.59L1928.63,1813.84L1929.63,1813.07L1930.61,1812.3L1931.58,1811.52L1932.55,1810.73L1933.52,1809.93L1934.47,1809.12L1935.42,1808.31L1936.36,1807.48L1937.29,1806.65L1938.22,1805.81L1939.14,1804.96L1940.05,1804.1L1940.96,1803.24L1941.85,1802.37L1942.74,1801.49L1943.62,1800.6L1944.49,1799.7L1945.36,1798.8L1946.21,1797.89L1947.06,1796.97L1947.9,1796.04L1948.73,1795.11L1949.56,1794.17L1950.37,1793.22L1951.18,1792.26L1951.98,1791.3L1952.77,1790.33L1953.55,1789.36L1954.33,1788.37L1955.09,1787.38L1955.84,1786.39L1956.59,1785.38L1957.33,1784.37L1958.06,1783.36L1958.78,1782.33L1959.49,1781.3L1960.19,1780.27L1960.88,1779.23L1961.57,1778.18L1962.24,1777.13L1962.91,1776.07L1963.56,1775L1964.21,1773.93L1965.47,1771.77L1966.09,1770.68L1966.7,1769.59L1967.29,1768.49L1967.88,1767.39L1968.46,1766.28L1969.03,1765.17L1969.59,1764.05L1970.14,1762.92L1970.68,1761.79L1971.21,1760.66L1971.72,1759.52L1972.23,1758.38L1972.73,1757.23L1973.22,1756.08L1973.7,1754.93L1974.17,1753.77L1974.63,1752.6L1975.08,1751.44L1975.51,1750.26L1975.94,1749.09L1976.36,1747.91L1976.76,1746.73L1977.16,1745.54L1977.54,1744.35L1977.92,1743.16L1978.28,1741.96L1978.64,1740.76L1978.98,1739.56L1979.31,1738.35L1979.64,1737.14L1979.95,1735.93L1980.25,1734.72L1980.54,1733.5L1980.82,1732.28L1981.34,1729.84L1981.59,1728.61L1981.82,1727.38L1982.05,1726.15L1982.47,1723.69L1982.66,1722.45L1982.84,1721.21L1983.01,1719.97L1983.17,1718.73L1983.32,1717.49L1983.46,1716.25L1983.58,1715L1983.7,1713.76L1983.8,1712.51L1983.9,1711.27L1983.98,1710.02L1984.05,1708.77L1984.11,1707.52L1984.16,1706.27L1984.2,1705.02L1984.23,1703.77L1984.25,1702.52L1984.25,140.96L1984.23,139.71L1984.2,138.459L1984.16,137.209L1984.11,135.959L1984.05,134.71L1983.98,133.462L1983.9,132.214L1983.8,130.967L1983.7,129.72L1983.46,127.23L1983.32,125.988L1983.17,124.746L1983.01,123.505L1982.84,122.266L1982.66,121.029L1982.47,119.793L1982.26,118.559L1982.05,117.327L1981.82,116.096L1981.59,114.868L1981.34,113.642L1981.08,112.418L1980.82,111.196L1980.54,109.977L1980.25,108.76L1979.95,107.546L1979.63,106.335L1979.31,105.126L1978.98,103.92L1978.64,102.718L1978.28,101.518L1977.92,100.322L1977.54,99.129L1977.16,97.939L1976.76,96.753L1976.36,95.57L1975.94,94.391L1975.51,93.215L1975.08,92.043L1974.63,90.876L1974.17,89.712L1973.7,88.552L1973.22,87.397L1972.73,86.246L1972.23,85.099L1971.72,83.956L1971.21,82.818L1970.68,81.685L1970.14,80.557L1969.59,79.433L1969.03,78.313L1968.46,77.2L1967.88,76.091L1967.29,74.987L1966.7,73.889L1966.09,72.796L1965.47,71.708L1964.84,70.626L1964.21,69.549L1963.56,68.478L1962.91,67.413L1962.24,66.353L1961.57,65.3L1960.88,64.252L1960.19,63.211L1959.49,62.176L1958.78,61.146L1958.06,60.124L1957.33,59.107L1956.59,58.098L1955.84,57.094L1955.09,56.098L1954.33,55.107L1953.55,54.124L1952.77,53.147L1951.98,52.178L1951.18,51.216L1950.37,50.261L1949.56,49.312L1948.73,48.371L1947.9,47.437L1947.06,46.512L1946.21,45.593L1945.36,44.681L1944.49,43.778L1943.62,42.882L1942.74,41.993L1941.85,41.113L1940.95,40.24L1940.05,39.375L1939.14,38.519L1938.22,37.67L1937.29,36.83L1936.36,35.998L1935.42,35.174L1934.47,34.358L1933.52,33.551L1932.55,32.752L1931.58,31.962L1930.61,31.18L1929.62,30.407L1928.63,29.643L1927.64,28.887L1926.63,28.141L1925.62,27.403L1924.61,26.674L1923.58,25.954L1922.56,25.243L1921.52,24.541L1920.48,23.849L1919.43,23.166L1918.38,22.491L1917.32,21.827L1916.25,21.171L1915.18,20.525L1914.11,19.889L1913.02,19.262L1911.94,18.645L1910.84,18.037L1909.74,17.438L1908.64,16.85L1907.53,16.271L1906.42,15.703L1905.3,15.144L1904.18,14.595L1903.05,14.056L1901.91,13.526L1900.78,13.007L1899.63,12.498L1898.49,11.999L1897.33,11.51L1896.18,11.032L1895.02,10.563L1893.86,10.105L1892.69,9.657L1891.52,9.22L1890.34,8.792L1889.16,8.376L1887.98,7.969L1886.79,7.573L1885.6,7.188L1884.41,6.813L1883.21,6.448L1882.01,6.095L1880.81,5.751L1879.6,5.419L1878.4,5.097L1877.18,4.786L1875.97,4.485L1874.75,4.195L1873.54,3.916L1872.31,3.648L1871.09,3.39L1869.86,3.144L1868.63,2.908L1867.4,2.683L1866.17,2.468L1864.94,2.265L1863.7,2.073L1862.46,1.891L1861.23,1.721L1859.99,1.561L1858.74,1.412L1857.5,1.274L1856.26,1.148L1855.01,1.032L1853.76,0.927L1852.52,0.833L1851.27,0.751L1850.02,0.679L1848.77,0.619L1847.52,0.569L1846.27,0.53L1845.02,0.502L1843.77,0.486L1842.52,0.48L141.731,0.48L140.481,0.486L139.23,0.502L137.979,0.53L136.729,0.569L135.48,0.619L134.23,0.679L132.982,0.751L131.734,0.834L130.487,0.928L129.24,1.032L127.995,1.148L126.751,1.275L125.508,1.413L124.266,1.561L123.025,1.721L121.786,1.892L120.549,2.073L119.313,2.265L118.079,2.469L116.847,2.683L115.616,2.908L114.388,3.144L113.162,3.39L111.938,3.648L110.716,3.916L109.497,4.195L108.28,4.485L107.066,4.786L105.855,5.097L104.646,5.419L103.441,5.751L102.238,6.095L101.039,6.449L99.841,6.813L98.648,7.188L97.459,7.574L96.272,7.97L95.089,8.376L93.91,8.792L92.734,9.22L91.563,9.658L90.395,10.105L89.231,10.563L88.071,11.032L86.916,11.511L85.765,11.999L84.618,12.499L83.475,13.008L82.337,13.527L81.204,14.056L80.076,14.595L78.952,15.144L77.833,15.703L76.719,16.272L75.61,16.851L74.506,17.439L73.408,18.037L72.315,18.645L71.227,19.262L70.145,19.889L69.068,20.525L67.998,21.172L66.932,21.827L65.873,22.492L64.819,23.166L63.772,23.849L62.73,24.542L61.695,25.244L60.666,25.954L59.643,26.674L58.627,27.403L57.617,28.141L56.613,28.888L55.617,29.643L54.627,30.408L53.643,31.181L52.667,31.962L51.697,32.752L50.735,33.551L49.78,34.358L48.832,35.174L47.891,35.998L46.957,36.831L46.031,37.671L45.112,38.52L44.201,39.376L43.297,40.241L42.401,41.114L41.513,41.994L40.632,42.882L39.759,43.778L38.895,44.682L38.038,45.593L37.189,46.512L36.349,47.438L35.517,48.372L34.693,49.313L33.877,50.261L33.07,51.217L32.271,52.179L31.481,53.148L30.699,54.125L29.926,55.108L29.162,56.098L28.406,57.095L27.66,58.098L26.922,59.108L26.193,60.124L25.473,61.147L24.762,62.176L24.061,63.211L23.368,64.253L22.685,65.301L22.01,66.354L21.346,67.414L20.69,68.479L20.044,69.55L19.408,70.626L18.781,71.709L18.164,72.796L17.556,73.89L16.958,74.988L16.369,76.092L15.791,77.201L15.222,78.314L14.663,79.433L14.114,80.557L13.575,81.686L13.045,82.819L12.526,83.957L12.017,85.099L11.519,86.246L11.03,87.397L10.551,88.553L10.083,89.713L9.625,90.876L9.176,92.044L8.739,93.216L8.312,94.392L7.895,95.571L7.488,96.753L7.092,97.94L6.707,99.13L6.332,100.323L5.968,101.519L5.614,102.719L5.271,103.921L4.938,105.127L4.616,106.335L4.305,107.547L4.004,108.761L3.714,109.978L3.435,111.197L3.167,112.418L2.91,113.643L2.663,114.869L2.427,116.097L2.202,117.327L1.987,118.56L1.784,119.793L1.592,121.029L1.41,122.267L1.24,123.506L1.08,124.747L0.932,125.988L0.794,127.231L0.667,128.476L0.551,129.721L0.447,130.967L0.353,132.215L0.27,133.463L0.198,134.711L0.138,135.96L0.088,137.21L0.049,138.46L0.021,139.711L0.005,140.961L0,142.212L0,1701.27L0.005,1702.52L0.021,1703.77L0.049,1705.02L0.088,1706.27L0.138,1707.52L0.198,1708.77L0.27,1710.02L0.353,1711.27L0.447,1712.51L0.551,1713.76L0.667,1715L0.794,1716.25L0.932,1717.49L1.08,1718.73L1.24,1719.97L1.411,1721.21L1.592,1722.45L1.785,1723.69L1.988,1724.92L2.202,1726.15L2.427,1727.38L2.663,1728.61L2.91,1729.84L3.167,1731.06L3.436,1732.28L3.714,1733.5L4.004,1734.72L4.305,1735.93L4.616,1737.15L4.938,1738.35L5.271,1739.56L5.614,1740.76L5.968,1741.96L6.333,1743.16L6.708,1744.35L7.093,1745.54L7.489,1746.73L7.895,1747.91L8.312,1749.09L8.739,1750.27L9.177,1751.44L9.625,1752.6L10.083,1753.77L10.551,1754.93L11.03,1756.08L11.519,1757.23L12.018,1758.38L12.527,1759.52L13.046,1760.66L13.575,1761.8L14.114,1762.92L14.663,1764.05L15.222,1765.17L15.791,1766.28L16.37,1767.39L16.958,1768.49L17.556,1769.59L18.164,1770.68L18.781,1771.77L19.408,1772.85L20.045,1773.93L20.691,1775L21.346,1776.07L22.011,1777.13L22.685,1778.18L23.368,1779.23L24.061,1780.27L24.763,1781.3L25.474,1782.33L26.193,1783.36L26.922,1784.37L27.66,1785.38L28.407,1786.39L29.163,1787.38L29.927,1788.37L30.7,1789.36L31.481,1790.33L32.272,1791.3L33.07,1792.26L33.878,1793.22L34.693,1794.17L35.517,1795.11L36.35,1796.04L37.19,1796.97L38.039,1797.89L38.896,1798.8L39.76,1799.7L40.632,1800.6L41.513,1801.49L42.401,1802.37L43.297,1803.24L44.201,1804.1L45.112,1804.96L46.031,1805.81L46.958,1806.65L47.891,1807.48L48.832,1808.31L49.78,1809.12L50.736,1809.93L51.698,1810.73L52.668,1811.52L53.644,1812.3L54.627,1813.07L55.617,1813.84L56.614,1814.59L57.617,1815.34L58.627,1816.08L59.644,1816.81L60.667,1817.53L61.695,1818.24L62.731,1818.94L63.772,1819.63L64.82,1820.31L65.874,1820.99L66.933,1821.65L67.998,1822.31L69.069,1822.95L70.146,1823.59L71.228,1824.22L72.316,1824.84L73.409,1825.44L74.507,1826.04L75.611,1826.63L76.72,1827.21L77.834,1827.78L78.953,1828.34L80.076,1828.89L81.205,1829.42L82.338,1829.95L83.476,1830.47L84.619,1830.98L85.766,1831.48L86.917,1831.97L88.072,1832.45L89.232,1832.92L90.396,1833.37L91.564,1833.82L92.735,1834.26L93.911,1834.69L95.09,1835.1L96.273,1835.51L97.459,1835.91L98.649,1836.29L99.842,1836.67L101.039,1837.03L102.239,1837.39L103.441,1837.73L104.647,1838.06L105.856,1838.38L107.067,1838.69L108.281,1838.99L109.498,1839.28L110.717,1839.56L111.938,1839.83L113.163,1840.09L114.389,1840.34L115.617,1840.57L116.848,1840.8L118.08,1841.01L119.313,1841.22L120.55,1841.41L121.787,1841.59L123.026,1841.76L124.267,1841.92L125.508,1842.07L126.751,1842.21L129.241,1842.45L131.735,1842.65L132.983,1842.73L134.231,1842.8L135.48,1842.86L136.73,1842.91L137.98,1842.95L139.231,1842.98L140.481,1842.99L141.732,1843Z" style="fill:white;"/>
        <path d="M141.107,1772.13L1843.14,1772.13L1843.77,1772.12L1844.39,1772.11L1845.02,1772.09L1845.64,1772.06L1846.27,1772.03L1846.89,1772L1847.52,1771.96L1848.14,1771.91L1848.76,1771.86L1849.39,1771.8L1850.01,1771.74L1850.63,1771.67L1851.25,1771.59L1851.87,1771.51L1852.49,1771.43L1853.11,1771.34L1854.35,1771.14L1854.96,1771.03L1855.58,1770.92L1856.19,1770.8L1856.8,1770.68L1857.42,1770.55L1858.03,1770.42L1858.64,1770.28L1859.24,1770.13L1859.85,1769.98L1860.46,1769.83L1861.06,1769.66L1861.66,1769.5L1862.27,1769.33L1862.87,1769.15L1863.46,1768.97L1864.06,1768.78L1864.66,1768.59L1865.84,1768.19L1866.43,1767.98L1867.02,1767.76L1867.6,1767.55L1868.19,1767.32L1868.77,1767.09L1869.35,1766.86L1869.93,1766.62L1870.5,1766.37L1871.08,1766.12L1871.65,1765.87L1872.22,1765.61L1872.78,1765.35L1873.35,1765.08L1873.91,1764.8L1874.47,1764.52L1875.03,1764.24L1875.58,1763.95L1876.13,1763.65L1876.68,1763.36L1877.23,1763.05L1877.77,1762.74L1878.31,1762.43L1878.85,1762.11L1879.39,1761.79L1879.92,1761.46L1880.45,1761.13L1880.98,1760.79L1881.5,1760.45L1882.54,1759.75L1883.05,1759.4L1883.56,1759.04L1884.07,1758.67L1884.58,1758.3L1885.08,1757.93L1885.58,1757.55L1886.07,1757.17L1886.56,1756.78L1887.54,1756L1888.02,1755.6L1888.5,1755.19L1888.97,1754.79L1889.44,1754.37L1889.91,1753.96L1890.37,1753.54L1890.83,1753.11L1891.29,1752.69L1891.74,1752.25L1892.18,1751.82L1892.63,1751.38L1893.07,1750.93L1893.51,1750.48L1893.94,1750.03L1894.37,1749.58L1894.79,1749.12L1895.21,1748.65L1895.63,1748.19L1896.04,1747.72L1896.45,1747.24L1896.85,1746.77L1897.25,1746.28L1897.64,1745.8L1898.04,1745.31L1898.42,1744.82L1898.8,1744.32L1899.18,1743.83L1899.56,1743.32L1899.92,1742.82L1900.29,1742.31L1900.65,1741.8L1901,1741.29L1901.36,1740.77L1901.7,1740.25L1902.04,1739.72L1902.38,1739.2L1902.71,1738.67L1903.04,1738.13L1903.36,1737.6L1903.68,1737.06L1904,1736.52L1904.3,1735.98L1904.61,1735.43L1904.91,1734.88L1905.2,1734.33L1905.49,1733.77L1905.77,1733.22L1906.05,1732.66L1906.33,1732.1L1906.6,1731.53L1906.86,1730.96L1907.12,1730.4L1907.38,1729.82L1907.63,1729.25L1907.87,1728.68L1908.11,1728.1L1908.57,1726.94L1908.8,1726.35L1909.02,1725.77L1909.44,1724.59L1909.64,1724L1909.84,1723.4L1910.03,1722.81L1910.22,1722.21L1910.4,1721.61L1910.58,1721.01L1910.92,1719.81L1911.08,1719.21L1911.53,1717.38L1911.67,1716.77L1911.93,1715.55L1912.05,1714.94L1912.17,1714.32L1912.29,1713.71L1912.39,1713.09L1912.49,1712.48L1912.59,1711.86L1912.68,1711.24L1912.77,1710.62L1912.85,1710L1912.92,1709.38L1912.99,1708.76L1913.05,1708.14L1913.11,1707.51L1913.16,1706.89L1913.21,1706.27L1913.25,1705.64L1913.29,1705.02L1913.32,1704.39L1913.34,1703.77L1913.36,1703.14L1913.38,1702.52L1913.38,1701.89L1913.39,1701.27L1913.39,142.213L1913.38,141.587L1913.38,140.962L1913.32,139.087L1913.29,138.462L1913.21,137.214L1913.16,136.59L1913.11,135.967L1913.05,135.345L1912.99,134.723L1912.92,134.101L1912.85,133.48L1912.77,132.86L1912.68,132.24L1912.59,131.622L1912.49,131.003L1912.39,130.387L1912.29,129.771L1912.17,129.155L1912.05,128.541L1911.93,127.928L1911.8,127.316L1911.67,126.706L1911.53,126.096L1911.38,125.487L1911.23,124.88L1911.08,124.274L1910.92,123.67L1910.75,123.067L1910.58,122.466L1910.4,121.866L1910.22,121.268L1910.03,120.671L1909.84,120.077L1909.64,119.483L1909.44,118.892L1909.23,118.302L1909.02,117.714L1908.8,117.128L1908.57,116.544L1908.34,115.963L1908.11,115.383L1907.87,114.805L1907.63,114.23L1907.38,113.656L1907.12,113.085L1906.86,112.516L1906.6,111.949L1906.33,111.385L1906.05,110.823L1905.78,110.264L1905.49,109.707L1905.2,109.152L1904.91,108.6L1904.61,108.051L1904.3,107.504L1904,106.961L1903.68,106.419L1903.36,105.881L1903.04,105.346L1902.71,104.813L1902.38,104.284L1902.04,103.756L1901.7,103.233L1901.36,102.712L1901,102.194L1900.65,101.68L1900.29,101.168L1899.92,100.66L1899.56,100.156L1899.18,99.654L1898.8,99.156L1898.42,98.661L1898.04,98.169L1897.65,97.681L1897.25,97.196L1896.85,96.715L1896.45,96.237L1896.04,95.763L1895.63,95.293L1895.21,94.826L1894.79,94.363L1894.37,93.903L1893.94,93.448L1893.51,92.996L1893.07,92.548L1892.63,92.103L1892.19,91.664L1891.74,91.227L1891.29,90.795L1890.83,90.366L1890.37,89.942L1889.91,89.522L1889.44,89.105L1888.97,88.694L1888.5,88.286L1888.02,87.882L1887.54,87.483L1887.05,87.088L1886.56,86.697L1886.07,86.311L1885.58,85.928L1885.08,85.55L1884.58,85.177L1884.07,84.808L1883.56,84.444L1883.05,84.084L1882.54,83.728L1882.02,83.377L1881.5,83.031L1880.98,82.689L1880.45,82.353L1879.92,82.02L1879.39,81.692L1878.85,81.369L1878.31,81.051L1877.77,80.738L1877.23,80.429L1876.68,80.125L1876.13,79.826L1875.58,79.532L1875.03,79.242L1874.47,78.958L1873.91,78.679L1873.35,78.404L1872.78,78.134L1872.22,77.87L1871.65,77.61L1871.08,77.355L1870.5,77.106L1869.93,76.862L1869.35,76.623L1868.77,76.388L1868.19,76.159L1867.6,75.935L1867.02,75.716L1866.43,75.503L1865.84,75.294L1865.25,75.091L1864.66,74.893L1864.06,74.701L1863.46,74.513L1862.87,74.331L1862.27,74.154L1861.67,73.982L1861.06,73.816L1860.46,73.655L1859.85,73.499L1859.25,73.349L1858.64,73.204L1858.03,73.064L1857.42,72.931L1856.8,72.802L1856.19,72.678L1855.58,72.56L1854.96,72.448L1854.35,72.341L1853.73,72.239L1853.11,72.143L1852.49,72.052L1851.87,71.967L1851.25,71.887L1850.63,71.812L1850.01,71.744L1849.39,71.681L1848.77,71.623L1848.14,71.57L1847.52,71.523L1846.89,71.482L1846.27,71.446L1845.65,71.416L1845.02,71.391L1844.4,71.372L1843.77,71.357L1843.14,71.35L1842.52,71.347L141.733,71.347L141.108,71.35L140.482,71.357L139.857,71.372L139.232,71.391L138.607,71.416L137.982,71.446L137.358,71.482L136.734,71.523L136.111,71.57L135.487,71.623L134.865,71.68L134.243,71.744L133.621,71.812L133,71.887L132.38,71.967L131.76,72.052L131.142,72.143L130.524,72.239L129.907,72.34L129.291,72.448L128.675,72.56L128.061,72.678L127.448,72.801L126.836,72.93L126.226,73.064L125.616,73.204L125.007,73.349L124.4,73.499L123.795,73.655L123.19,73.816L122.587,73.982L121.986,74.154L121.386,74.331L120.788,74.513L120.191,74.7L119.597,74.893L119.003,75.091L118.412,75.294L117.822,75.502L117.234,75.716L116.648,75.935L116.065,76.159L115.483,76.388L114.903,76.622L114.325,76.862L113.75,77.106L113.176,77.355L112.605,77.61L112.036,77.87L111.469,78.134L110.905,78.404L110.343,78.678L109.784,78.958L109.227,79.242L108.672,79.531L108.121,79.826L107.571,80.124L107.025,80.429L106.481,80.737L105.94,81.051L105.401,81.369L104.866,81.692L104.333,82.02L103.804,82.352L103.277,82.689L102.753,83.031L102.232,83.377L101.714,83.728L101.2,84.083L100.688,84.443L100.181,84.808L99.675,85.177L99.173,85.55L98.675,85.928L98.18,86.31L97.688,86.696L97.2,87.087L96.715,87.482L96.234,87.882L95.756,88.285L95.282,88.693L94.812,89.105L94.345,89.521L93.882,89.941L93.422,90.366L92.967,90.794L92.515,91.227L92.067,91.663L91.623,92.103L91.183,92.547L90.746,92.995L90.314,93.447L89.886,93.903L89.461,94.362L89.041,94.825L88.625,95.292L88.213,95.763L87.805,96.237L87.401,96.714L87.002,97.195L86.607,97.68L86.216,98.168L85.83,98.66L85.447,99.155L85.07,99.653L84.696,100.155L84.327,100.66L83.963,101.168L83.603,101.679L83.248,102.194L82.897,102.711L82.55,103.232L82.209,103.756L81.872,104.283L81.539,104.813L81.211,105.345L80.889,105.88L80.57,106.419L80.257,106.96L79.948,107.504L79.644,108.05L79.345,108.6L79.051,109.151L78.762,109.706L78.477,110.263L78.198,110.822L77.923,111.384L77.654,111.949L77.389,112.515L77.129,113.084L76.875,113.655L76.626,114.229L76.381,114.804L76.142,115.382L75.908,115.962L75.678,116.544L75.455,117.128L75.236,117.713L75.022,118.301L74.814,118.891L74.61,119.482L74.413,120.076L74.22,120.67L74.032,121.267L73.85,121.866L73.673,122.465L73.502,123.067L73.335,123.669L73.174,124.274L73.019,124.879L72.868,125.487L72.723,126.095L72.584,126.705L72.45,127.315L72.321,127.927L72.197,128.541L72.08,129.154L71.967,129.77L71.86,130.386L71.758,131.003L71.662,131.621L71.571,132.24L71.486,132.859L71.406,133.479L71.332,134.1L71.263,134.722L71.2,135.344L71.142,135.966L71.089,136.59L71.043,137.213L71.001,137.837L70.965,138.461L70.935,139.086L70.91,139.711L70.891,140.336L70.877,140.961L70.869,141.587L70.866,142.212L70.866,1701.27L70.869,1701.89L70.877,1702.52L70.891,1703.14L70.91,1703.77L70.935,1704.39L70.965,1705.02L71.001,1705.64L71.043,1706.27L71.089,1706.89L71.142,1707.51L71.2,1708.14L71.263,1708.76L71.332,1709.38L71.406,1710L71.486,1710.62L71.571,1711.24L71.662,1711.86L71.758,1712.48L71.86,1713.09L71.967,1713.71L72.079,1714.32L72.197,1714.94L72.321,1715.55L72.449,1716.16L72.584,1716.77L72.723,1717.38L72.868,1717.99L73.018,1718.6L73.174,1719.2L73.335,1719.81L73.501,1720.41L73.673,1721.01L73.85,1721.61L74.032,1722.21L74.219,1722.81L74.412,1723.4L74.61,1724L74.814,1724.59L75.022,1725.18L75.235,1725.77L75.454,1726.35L75.678,1726.94L75.907,1727.52L76.141,1728.1L76.38,1728.67L76.625,1729.25L76.875,1729.82L77.129,1730.4L77.389,1730.96L77.653,1731.53L77.923,1732.09L78.197,1732.66L78.477,1733.22L78.761,1733.77L79.05,1734.33L79.345,1734.88L79.644,1735.43L79.948,1735.98L80.256,1736.52L80.57,1737.06L80.888,1737.6L81.211,1738.13L81.539,1738.67L81.871,1739.2L82.208,1739.72L82.55,1740.25L82.896,1740.77L83.247,1741.28L83.603,1741.8L83.962,1742.31L84.327,1742.82L84.696,1743.32L85.069,1743.83L85.447,1744.32L85.829,1744.82L86.215,1745.31L86.606,1745.8L87.002,1746.28L87.401,1746.77L87.805,1747.24L88.212,1747.72L88.625,1748.19L89.041,1748.65L89.46,1749.12L89.885,1749.58L90.314,1750.03L90.746,1750.48L91.182,1750.93L91.622,1751.38L92.066,1751.82L92.514,1752.25L92.966,1752.69L93.422,1753.11L93.881,1753.54L94.344,1753.96L94.811,1754.37L95.282,1754.79L95.756,1755.19L96.233,1755.6L96.715,1756L97.199,1756.39L97.688,1756.78L98.179,1757.17L98.674,1757.55L99.172,1757.93L99.674,1758.3L100.18,1758.67L100.688,1759.04L101.199,1759.4L101.714,1759.75L102.231,1760.1L102.752,1760.45L103.276,1760.79L103.803,1761.13L104.333,1761.46L104.865,1761.79L105.401,1762.11L105.939,1762.43L106.48,1762.74L107.024,1763.05L107.571,1763.36L108.12,1763.65L108.672,1763.95L109.226,1764.24L109.783,1764.52L110.342,1764.8L110.904,1765.08L111.469,1765.35L112.035,1765.61L112.604,1765.87L113.175,1766.12L113.749,1766.37L114.325,1766.62L114.902,1766.86L115.482,1767.09L116.064,1767.32L116.648,1767.54L117.234,1767.76L117.822,1767.98L118.411,1768.19L119.002,1768.39L119.596,1768.59L120.191,1768.78L120.787,1768.97L121.985,1769.33L122.587,1769.5L123.189,1769.66L123.794,1769.82L124.399,1769.98L125.007,1770.13L125.615,1770.28L126.225,1770.42L126.835,1770.55L127.447,1770.68L128.061,1770.8L128.675,1770.92L129.289,1771.03L129.906,1771.14L130.522,1771.24L131.141,1771.34L131.76,1771.43L132.379,1771.51L133,1771.59L133.62,1771.67L134.242,1771.74L134.864,1771.8L135.487,1771.86L136.11,1771.91L136.733,1771.96L137.357,1772L137.982,1772.03L138.606,1772.06L139.231,1772.09L139.856,1772.11L140.481,1772.12L141.107,1772.13Z" style="fill:rgb(0,64,128);"/>
        <path d="M459.692,1559.53L1524.56,1559.53L1525.5,1559.52L1526.44,1559.5L1527.37,1559.47L1528.31,1559.43L1529.25,1559.39L1530.18,1559.33L1531.12,1559.27L1532.06,1559.2L1532.99,1559.12L1533.92,1559.03L1534.86,1558.94L1535.79,1558.84L1536.72,1558.72L1537.65,1558.61L1538.58,1558.48L1539.51,1558.34L1540.44,1558.2L1541.36,1558.04L1542.29,1557.88L1543.21,1557.71L1544.13,1557.54L1545.05,1557.35L1545.97,1557.16L1546.88,1556.96L1547.8,1556.75L1548.71,1556.53L1549.62,1556.31L1550.53,1556.07L1551.44,1555.83L1552.34,1555.58L1553.24,1555.32L1554.14,1555.06L1555.04,1554.79L1555.93,1554.5L1556.83,1554.22L1557.72,1553.92L1558.6,1553.61L1559.49,1553.3L1560.37,1552.98L1561.25,1552.65L1562.13,1552.32L1563.87,1551.62L1564.73,1551.26L1565.6,1550.9L1566.46,1550.52L1567.31,1550.14L1568.17,1549.75L1569.02,1549.35L1569.86,1548.95L1570.71,1548.54L1571.55,1548.12L1573.21,1547.26L1574.04,1546.82L1574.86,1546.37L1575.68,1545.91L1576.5,1545.45L1577.31,1544.98L1578.12,1544.5L1578.92,1544.02L1579.72,1543.52L1580.52,1543.03L1581.31,1542.52L1582.09,1542.01L1582.87,1541.49L1583.65,1540.96L1584.42,1540.43L1585.19,1539.89L1585.95,1539.34L1586.71,1538.79L1587.46,1538.23L1588.21,1537.66L1588.95,1537.09L1589.69,1536.51L1590.42,1535.92L1591.15,1535.33L1591.87,1534.73L1592.59,1534.13L1593.3,1533.52L1594,1532.9L1594.7,1532.27L1595.4,1531.64L1596.09,1531.01L1596.77,1530.36L1597.45,1529.71L1598.12,1529.06L1598.79,1528.4L1599.45,1527.73L1600.1,1527.06L1600.75,1526.38L1601.39,1525.7L1602.03,1525.01L1602.66,1524.32L1603.28,1523.62L1603.9,1522.91L1604.51,1522.2L1605.12,1521.48L1605.72,1520.76L1606.31,1520.03L1606.9,1519.3L1607.48,1518.56L1608.05,1517.82L1608.62,1517.07L1609.18,1516.32L1609.73,1515.56L1610.28,1514.8L1610.82,1514.03L1611.35,1513.26L1611.88,1512.49L1612.39,1511.71L1612.91,1510.92L1613.91,1509.34L1614.4,1508.54L1614.89,1507.73L1615.37,1506.93L1615.83,1506.11L1616.3,1505.3L1616.75,1504.48L1617.2,1503.65L1617.64,1502.83L1618.08,1501.99L1618.5,1501.16L1618.92,1500.32L1619.34,1499.48L1620.14,1497.78L1620.53,1496.93L1620.91,1496.07L1621.28,1495.21L1621.65,1494.35L1622.01,1493.48L1622.36,1492.61L1622.7,1491.74L1623.04,1490.86L1623.37,1489.98L1623.69,1489.1L1624,1488.22L1624.3,1487.33L1624.6,1486.44L1624.89,1485.55L1625.17,1484.65L1625.45,1483.76L1625.71,1482.86L1625.97,1481.95L1626.22,1481.05L1626.46,1480.14L1626.69,1479.23L1626.92,1478.32L1627.34,1476.5L1627.55,1475.58L1627.74,1474.66L1627.92,1473.74L1628.1,1472.82L1628.27,1471.9L1628.43,1470.98L1628.58,1470.05L1628.73,1469.12L1628.86,1468.19L1628.99,1467.27L1629.11,1466.34L1629.22,1465.4L1629.33,1464.47L1629.42,1463.54L1629.51,1462.6L1629.59,1461.67L1629.66,1460.73L1629.72,1459.8L1629.77,1458.86L1629.82,1457.92L1629.86,1456.99L1629.92,1454.17L1629.92,389.306L1629.88,387.43L1629.86,386.492L1629.82,385.555L1629.77,384.618L1629.72,383.682L1629.66,382.746L1629.59,381.81L1629.51,380.876L1629.42,379.941L1629.33,379.008L1629.22,378.076L1629.11,377.145L1628.99,376.214L1628.86,375.285L1628.73,374.356L1628.58,373.43L1628.43,372.504L1628.27,371.58L1628.1,370.657L1627.92,369.736L1627.74,368.816L1627.55,367.898L1627.34,366.982L1627.13,366.068L1626.92,365.155L1626.69,364.245L1626.46,363.336L1626.22,362.43L1625.97,361.525L1625.71,360.624L1625.45,359.724L1625.17,358.827L1624.89,357.932L1624.6,357.039L1624.3,356.149L1624,355.262L1623.69,354.377L1623.37,353.496L1623.04,352.617L1622.7,351.742L1622.36,350.869L1622.01,349.999L1621.65,349.132L1621.28,348.269L1620.91,347.409L1620.53,346.552L1620.14,345.698L1619.74,344.849L1619.34,344.002L1618.92,343.159L1618.5,342.32L1618.08,341.484L1617.64,340.653L1617.2,339.825L1616.75,339.001L1616.3,338.182L1615.83,337.366L1615.37,336.554L1614.89,335.747L1614.4,334.943L1613.91,334.145L1613.41,333.35L1612.91,332.56L1612.39,331.774L1611.88,330.993L1611.35,330.216L1610.82,329.444L1610.28,328.677L1609.73,327.915L1609.18,327.158L1608.62,326.405L1608.05,325.658L1607.48,324.915L1606.9,324.178L1606.31,323.445L1605.72,322.718L1605.12,321.997L1604.51,321.28L1603.9,320.569L1603.28,319.863L1602.66,319.163L1602.03,318.468L1601.39,317.779L1600.75,317.096L1600.1,316.418L1599.45,315.746L1598.79,315.08L1598.12,314.419L1597.45,313.765L1596.77,313.116L1596.09,312.474L1595.4,311.837L1594.7,311.207L1594,310.583L1593.3,309.965L1592.59,309.353L1591.87,308.748L1591.15,308.148L1590.42,307.556L1589.69,306.97L1588.95,306.39L1588.21,305.816L1587.46,305.25L1586.71,304.69L1585.95,304.136L1585.19,303.59L1584.42,303.05L1583.65,302.517L1582.87,301.99L1582.09,301.471L1581.31,300.959L1580.52,300.453L1579.72,299.955L1578.92,299.463L1578.12,298.979L1577.31,298.501L1576.5,298.031L1575.68,297.568L1574.86,297.112L1574.04,296.663L1573.21,296.222L1572.38,295.788L1571.55,295.361L1570.71,294.942L1569.86,294.53L1569.02,294.126L1568.17,293.729L1567.31,293.34L1566.46,292.958L1565.6,292.584L1564.73,292.217L1563.87,291.858L1563,291.507L1562.13,291.163L1561.25,290.827L1560.37,290.499L1559.49,290.179L1558.6,289.866L1557.72,289.561L1556.83,289.264L1555.93,288.975L1555.04,288.694L1554.14,288.421L1553.24,288.155L1552.34,287.898L1551.44,287.648L1550.53,287.407L1549.62,287.173L1548.71,286.948L1547.8,286.731L1546.88,286.522L1545.97,286.32L1545.05,286.127L1544.13,285.942L1543.21,285.765L1542.29,285.596L1541.36,285.436L1540.44,285.283L1539.51,285.139L1538.58,285.002L1537.65,284.875L1536.72,284.755L1535.79,284.644L1534.86,284.54L1533.92,284.445L1532.99,284.358L1532.06,284.28L1531.12,284.209L1530.18,284.147L1529.25,284.094L1528.31,284.048L1527.37,284.011L1526.44,283.982L1525.5,283.961L1524.56,283.949L1523.62,283.944L460.63,283.944L459.692,283.949L458.754,283.961L457.816,283.982L456.878,284.011L455.941,284.048L455.004,284.094L454.068,284.147L453.132,284.209L452.196,284.28L451.262,284.358L450.328,284.445L449.395,284.54L448.462,284.644L447.531,284.755L446.6,284.875L445.671,285.002L444.743,285.139L443.816,285.283L442.891,285.436L441.966,285.596L441.043,285.765L440.122,285.942L439.203,286.127L438.285,286.32L437.369,286.522L436.454,286.731L435.542,286.948L434.631,287.173L433.723,287.407L432.816,287.648L431.912,287.898L431.01,288.155L430.11,288.421L429.213,288.694L428.318,288.975L427.425,289.264L426.536,289.561L425.648,289.866L424.764,290.179L423.882,290.499L423.003,290.827L422.128,291.163L421.255,291.507L420.385,291.858L419.519,292.217L418.655,292.584L417.795,292.958L416.938,293.34L416.084,293.729L415.235,294.126L414.388,294.53L413.545,294.942L412.706,295.361L411.871,295.788L411.039,296.222L410.211,296.663L409.388,297.112L408.568,297.568L407.752,298.031L406.94,298.501L406.133,298.979L405.33,299.463L404.53,299.955L403.736,300.453L402.946,300.959L402.16,301.471L401.379,301.99L400.603,302.517L399.831,303.05L399.063,303.59L398.301,304.136L397.544,304.69L396.792,305.25L396.044,305.816L395.301,306.39L394.564,306.97L393.832,307.556L393.104,308.148L392.383,308.748L391.666,309.353L390.955,309.965L390.25,310.583L389.549,311.207L388.854,311.837L388.165,312.474L387.482,313.116L386.804,313.765L386.132,314.419L385.466,315.08L384.806,315.746L384.151,316.418L383.502,317.096L382.86,317.779L382.224,318.468L381.593,319.163L380.969,319.863L380.351,320.569L379.739,321.28L379.134,321.997L378.535,322.718L377.942,323.445L377.356,324.178L376.776,324.915L376.203,325.658L375.636,326.405L375.076,327.158L374.522,327.915L373.976,328.677L373.436,329.444L372.903,330.216L372.376,330.993L371.857,331.774L371.345,332.56L370.839,333.35L370.341,334.145L369.849,334.943L369.365,335.747L368.887,336.554L368.417,337.366L367.954,338.182L367.498,339.001L367.049,339.825L366.608,340.653L366.174,341.484L365.748,342.32L365.329,343.159L364.917,344.002L364.512,344.849L364.115,345.698L363.726,346.552L363.344,347.409L362.97,348.269L362.604,349.132L362.245,349.999L361.893,350.869L361.549,351.742L361.213,352.617L360.885,353.496L360.565,354.377L360.252,355.262L359.947,356.149L359.65,357.039L359.361,357.932L359.08,358.827L358.807,359.724L358.542,360.624L358.284,361.525L358.035,362.43L357.793,363.336L357.56,364.245L357.334,365.155L357.117,366.068L356.908,366.982L356.707,367.898L356.513,368.816L356.328,369.736L356.151,370.657L355.982,371.58L355.822,372.504L355.669,373.43L355.525,374.356L355.389,375.285L355.261,376.214L355.141,377.145L355.03,378.076L354.927,379.008L354.832,379.941L354.745,380.876L354.666,381.81L354.596,382.746L354.534,383.682L354.48,384.618L354.435,385.555L354.397,386.492L354.368,387.43L354.347,388.368L354.335,389.306L354.331,390.244L354.331,1453.24L354.335,1454.17L354.347,1455.11L354.368,1456.05L354.397,1456.99L354.435,1457.92L354.48,1458.86L354.534,1459.8L354.596,1460.73L354.666,1461.67L354.745,1462.6L354.832,1463.54L354.927,1464.47L355.03,1465.4L355.141,1466.34L355.261,1467.27L355.389,1468.19L355.525,1469.12L355.669,1470.05L355.822,1470.98L355.982,1471.9L356.151,1472.82L356.328,1473.74L356.513,1474.66L356.707,1475.58L356.908,1476.5L357.117,1477.41L357.334,1478.32L357.56,1479.23L357.793,1480.14L358.035,1481.05L358.284,1481.95L358.542,1482.86L358.807,1483.76L359.08,1484.65L359.361,1485.55L359.65,1486.44L359.947,1487.33L360.252,1488.22L360.565,1489.1L360.885,1489.98L361.213,1490.86L361.549,1491.74L361.893,1492.61L362.245,1493.48L362.604,1494.35L362.97,1495.21L363.344,1496.07L363.726,1496.93L364.115,1497.78L364.512,1498.63L364.917,1499.48L365.329,1500.32L365.748,1501.16L366.174,1501.99L366.608,1502.83L367.049,1503.65L367.498,1504.48L367.954,1505.3L368.417,1506.11L368.887,1506.93L369.365,1507.73L369.849,1508.54L370.341,1509.34L370.839,1510.13L371.345,1510.92L371.857,1511.71L372.376,1512.49L372.903,1513.26L373.436,1514.03L373.976,1514.8L374.522,1515.56L375.076,1516.32L375.636,1517.07L376.203,1517.82L376.776,1518.56L377.356,1519.3L377.942,1520.03L378.535,1520.76L379.134,1521.48L379.739,1522.2L380.351,1522.91L380.969,1523.62L381.593,1524.32L382.224,1525.01L382.86,1525.7L383.502,1526.38L384.151,1527.06L384.806,1527.73L385.466,1528.4L386.132,1529.06L386.804,1529.71L387.482,1530.36L388.165,1531.01L388.854,1531.64L389.549,1532.27L390.25,1532.9L390.955,1533.52L391.666,1534.13L392.383,1534.73L393.104,1535.33L393.832,1535.92L394.564,1536.51L395.301,1537.09L396.044,1537.66L396.792,1538.23L397.544,1538.79L398.301,1539.34L399.063,1539.89L399.831,1540.43L400.603,1540.96L401.379,1541.49L402.16,1542.01L402.946,1542.52L403.736,1543.03L404.53,1543.52L405.33,1544.02L406.133,1544.5L406.94,1544.98L407.752,1545.45L408.568,1545.91L409.388,1546.37L410.211,1546.82L411.039,1547.26L411.871,1547.69L412.706,1548.12L413.545,1548.54L414.388,1548.95L415.235,1549.35L416.084,1549.75L416.938,1550.14L417.795,1550.52L418.655,1550.9L419.519,1551.26L420.385,1551.62L421.255,1551.97L422.128,1552.32L423.003,1552.65L423.882,1552.98L424.764,1553.3L425.648,1553.61L426.536,1553.92L427.425,1554.22L428.318,1554.5L429.213,1554.79L430.11,1555.06L431.01,1555.32L431.912,1555.58L432.816,1555.83L433.723,1556.07L434.631,1556.31L435.542,1556.53L436.454,1556.75L437.369,1556.96L438.285,1557.16L439.203,1557.35L440.122,1557.54L441.043,1557.71L441.966,1557.88L442.891,1558.04L443.816,1558.2L444.743,1558.34L445.671,1558.48L446.6,1558.61L447.531,1558.72L448.462,1558.84L449.395,1558.94L450.328,1559.03L451.262,1559.12L452.196,1559.2L453.132,1559.27L454.068,1559.33L455.004,1559.39L455.941,1559.43L456.878,1559.47L457.816,1559.5L458.754,1559.52L459.692,1559.53Z" style="fill:white;"/>
        <path d="M1629.92,1392.7L1629.92,573.446L1629.91,572.7L1629.87,571.208L1629.84,570.462L1629.8,569.717L1629.76,568.972L1629.71,568.228L1629.66,567.483L1629.59,566.74L1629.53,565.997L1629.45,565.254L1629.37,564.512L1629.28,563.771L1629.19,563.031L1629.08,562.292L1628.98,561.553L1628.86,560.816L1628.74,560.079L1628.62,559.344L1628.34,557.876L1628.2,557.145L1628.04,556.415L1627.88,555.686L1627.72,554.958L1627.54,554.231L1627.37,553.507L1627.18,552.784L1626.99,552.063L1626.79,551.343L1626.59,550.625L1626.38,549.909L1626.16,549.195L1625.94,548.482L1625.71,547.772L1625.48,547.064L1625.24,546.357L1624.99,545.653L1624.74,544.952L1624.48,544.252L1624.21,543.555L1623.94,542.86L1623.66,542.167L1623.38,541.477L1623.09,540.79L1622.79,540.105L1622.49,539.422L1622.18,538.743L1621.87,538.065L1621.55,537.392L1621.22,536.72L1620.89,536.052L1620.55,535.386L1620.21,534.724L1619.86,534.064L1619.5,533.408L1619.14,532.754L1618.78,532.105L1618.4,531.458L1618.03,530.814L1617.64,530.174L1617.25,529.537L1616.86,528.904L1616.46,528.274L1616.05,527.647L1615.64,527.025L1615.22,526.406L1614.8,525.79L1614.38,525.178L1613.94,524.571L1613.5,523.966L1613.06,523.366L1612.61,522.77L1612.16,522.177L1611.7,521.589L1611.24,521.005L1610.77,520.424L1610.29,519.849L1609.81,519.277L1609.33,518.709L1608.84,518.146L1608.34,517.586L1607.84,517.032L1607.34,516.481L1606.83,515.936L1606.32,515.394L1605.8,514.857L1605.28,514.325L1604.75,513.797L1604.22,513.274L1603.68,512.756L1603.14,512.242L1602.59,511.733L1602.04,511.23L1601.49,510.73L1600.93,510.236L1600.37,509.747L1599.8,509.262L1599.23,508.783L1598.65,508.309L1598.07,507.839L1597.49,507.375L1596.9,506.916L1596.3,506.462L1595.71,506.013L1595.11,505.57L1594.5,505.132L1593.9,504.699L1593.28,504.272L1592.67,503.85L1592.05,503.433L1591.43,503.022L1590.8,502.616L1590.17,502.216L1589.54,501.821L1588.9,501.432L1588.26,501.049L1587.62,500.671L1586.97,500.299L1586.32,499.932L1585.67,499.572L1585.01,499.216L1584.35,498.867L1583.69,498.524L1583.02,498.186L1582.35,497.855L1581.68,497.528L1581.01,497.209L1580.33,496.895L1579.65,496.586L1578.97,496.284L1578.29,495.988L1577.6,495.698L1576.91,495.414L1576.21,495.136L1575.52,494.864L1574.82,494.598L1574.12,494.338L1573.42,494.085L1572.72,493.837L1572.01,493.596L1571.3,493.361L1570.59,493.133L1569.88,492.91L1569.17,492.694L1568.45,492.484L1567.73,492.28L1567.01,492.083L1566.29,491.892L1565.57,491.708L1564.84,491.529L1564.12,491.357L1563.39,491.191L1562.66,491.032L1561.93,490.879L1561.2,490.733L1560.46,490.593L1559.73,490.459L1559,490.333L1558.26,490.212L1557.52,490.098L1556.78,489.99L1556.04,489.889L1555.3,489.794L1554.56,489.706L1553.82,489.624L1553.08,489.549L1552.33,489.48L1551.59,489.418L1550.85,489.363L1550.1,489.313L1549.36,489.271L1548.61,489.235L1547.87,489.206L1547.12,489.183L1546.38,489.167L1545.63,489.156L1544.88,489.153L1311.02,489.153L1310.28,489.156L1309.53,489.167L1308.79,489.183L1308.04,489.206L1307.29,489.235L1306.55,489.271L1305.8,489.313L1305.06,489.363L1304.31,489.418L1303.57,489.48L1302.83,489.549L1302.08,489.624L1301.34,489.706L1300.6,489.794L1299.86,489.889L1299.12,489.99L1298.38,490.098L1297.65,490.212L1296.91,490.333L1296.17,490.459L1295.44,490.593L1294.71,490.733L1293.98,490.879L1293.25,491.032L1292.52,491.191L1291.79,491.357L1291.06,491.529L1290.34,491.708L1289.62,491.892L1288.89,492.083L1288.17,492.28L1287.46,492.484L1286.74,492.694L1286.03,492.91L1285.31,493.133L1284.6,493.361L1283.89,493.596L1283.19,493.837L1282.48,494.085L1281.78,494.338L1281.08,494.598L1280.39,494.864L1279.69,495.136L1279,495.414L1278.31,495.698L1277.62,495.988L1276.94,496.284L1276.25,496.586L1275.57,496.895L1274.9,497.209L1274.22,497.528L1273.55,497.855L1272.88,498.186L1272.22,498.524L1271.55,498.867L1270.9,499.216L1270.24,499.572L1269.59,499.932L1268.94,500.299L1268.29,500.671L1267.65,501.049L1267,501.432L1266.37,501.821L1265.73,502.216L1265.11,502.616L1264.48,503.022L1263.86,503.433L1263.24,503.85L1262.62,504.272L1262.01,504.699L1261.4,505.132L1260.8,505.57L1260.2,506.013L1259.6,506.462L1259.01,506.916L1258.42,507.375L1257.84,507.839L1257.26,508.309L1256.68,508.783L1256.11,509.262L1255.54,509.747L1254.98,510.236L1254.42,510.73L1253.86,511.23L1253.31,511.733L1252.77,512.242L1252.23,512.756L1251.69,513.274L1251.16,513.797L1250.63,514.325L1250.11,514.857L1249.59,515.394L1249.07,515.936L1248.56,516.481L1248.06,517.032L1247.56,517.586L1247.07,518.146L1246.58,518.709L1246.09,519.277L1245.61,519.849L1245.14,520.424L1244.67,521.005L1244.21,521.589L1243.75,522.177L1243.29,522.77L1242.84,523.366L1242.4,523.966L1241.96,524.571L1241.53,525.178L1241.1,525.79L1240.68,526.406L1240.26,527.025L1239.85,527.647L1239.45,528.274L1239.05,528.904L1238.65,529.537L1238.26,530.174L1237.88,530.814L1237.5,531.458L1237.13,532.105L1236.76,532.754L1236.4,533.408L1236.05,534.064L1235.7,534.724L1235.36,535.386L1235.02,536.052L1234.69,536.72L1234.36,537.392L1234.04,538.065L1233.73,538.743L1233.42,539.422L1233.12,540.105L1232.82,540.79L1232.53,541.477L1232.25,542.167L1231.97,542.86L1231.7,543.555L1231.43,544.252L1231.17,544.952L1230.92,545.653L1230.67,546.357L1230.43,547.064L1230.19,547.772L1229.96,548.482L1229.74,549.195L1229.53,549.909L1229.32,550.625L1229.11,551.343L1228.91,552.063L1228.72,552.784L1228.54,553.507L1228.36,554.231L1228.19,554.958L1228.02,555.686L1227.86,556.415L1227.71,557.145L1227.56,557.876L1227.42,558.61L1227.29,559.344L1227.16,560.079L1227.04,560.816L1226.93,561.553L1226.82,562.292L1226.72,563.031L1226.63,563.771L1226.54,564.512L1226.46,565.254L1226.38,565.997L1226.31,566.74L1226.25,567.483L1226.19,568.228L1226.14,568.972L1226.1,569.717L1226.07,570.462L1226.04,571.208L1226.01,571.954L1225.98,574.192L1225.98,1392.7L1629.92,1392.7Z"/>
        <path d="M836.246,924.137L835.902,921.881L835.538,919.627L835.154,917.376L834.75,915.13L834.325,912.887L833.881,910.647L833.416,908.412L832.932,906.181L832.427,903.955L831.903,901.733L831.359,899.516L830.795,897.304L830.211,895.097L829.608,892.895L828.985,890.699L828.342,888.508L827.68,886.323L826.998,884.145L826.296,881.972L825.576,879.806L824.835,877.647L824.076,875.494L823.297,873.347L822.5,871.209L821.683,869.077L820.847,866.952L819.992,864.835L819.118,862.727L818.226,860.626L817.314,858.532L816.384,856.447L815.435,854.371L814.468,852.303L813.482,850.244L812.478,848.194L811.456,846.152L810.415,844.121L809.356,842.098L808.279,840.085L807.185,838.082L806.072,836.088L804.941,834.105L803.793,832.132L802.627,830.169L801.444,828.217L800.243,826.275L799.025,824.344L797.79,822.424L796.537,820.516L795.268,818.619L793.981,816.732L792.678,814.858L791.358,812.996L790.021,811.145L788.668,809.306L787.299,807.48L785.913,805.666L784.511,803.864L783.093,802.074L781.659,800.298L780.209,798.535L778.744,796.784L777.263,795.047L775.766,793.323L774.254,791.613L772.727,789.916L771.185,788.232L769.627,786.563L768.055,784.908L766.468,783.267L764.867,781.64L763.25,780.028L761.62,778.43L667.514,589.105L667.006,588.088L666.49,587.077L665.965,586.07L665.431,585.068L664.888,584.07L664.336,583.078L663.775,582.09L663.206,581.108L662.628,580.13L662.041,579.158L661.445,578.191L660.842,577.23L660.229,576.273L659.608,575.322L658.979,574.377L658.341,573.438L657.694,572.504L657.04,571.576L656.377,570.654L655.706,569.737L655.027,568.827L654.34,567.923L653.645,567.025L652.941,566.133L652.23,565.248L651.512,564.369L650.785,563.496L650.05,562.63L649.309,561.77L648.559,560.918L647.801,560.071L647.037,559.232L646.264,558.399L645.484,557.573L644.698,556.754L643.903,555.943L643.102,555.138L642.293,554.341L641.478,553.551L640.655,552.768L639.826,551.992L638.989,551.224L638.146,550.463L637.296,549.71L636.439,548.965L635.576,548.227L634.707,547.497L633.83,546.774L632.947,546.06L632.059,545.353L631.163,544.654L630.262,543.963L629.354,543.281L628.441,542.606L627.521,541.94L626.596,541.282L625.665,540.632L624.728,539.99L623.785,539.357L622.837,538.732L621.883,538.116L620.924,537.508L619.959,536.909L618.989,536.318L618.014,535.736L617.034,535.163L616.048,534.598L615.058,534.043L614.063,533.496L613.063,532.958L612.058,532.428L611.048,531.908L610.034,531.397L609.016,530.895L607.993,530.402L606.965,529.918L605.934,529.443L604.898,528.978L603.858,528.522L602.814,528.074L601.766,527.637L600.714,527.209L599.659,526.79L598.6,526.38L597.537,525.98L596.471,525.589L595.401,525.208L594.328,524.836L593.251,524.474L592.172,524.122L591.089,523.779L584.333,521.708L577.558,519.698L570.765,517.751L563.955,515.867L557.126,514.046L550.282,512.289L543.422,510.594L536.546,508.962L529.656,507.395L522.75,505.891L515.833,504.451L508.902,503.075L501.958,501.762L495.003,500.514L488.036,499.331L481.059,498.211L474.071,497.157L467.075,496.167L460.069,495.241L453.055,494.379L446.034,493.584L439.005,492.852L431.97,492.186L424.929,491.584L417.883,491.048L410.832,490.577L403.777,490.17L396.719,489.83L389.658,489.554L382.595,489.343L375.53,489.198L368.463,489.118L361.397,489.103L354.331,489.153L354.331,584.83L360.369,584.776L366.408,584.777L372.446,584.832L378.484,584.941L384.52,585.105L390.555,585.324L396.587,585.597L402.617,585.924L408.644,586.306L414.667,586.741L420.685,587.231L426.699,587.776L432.708,588.375L438.711,589.027L444.708,589.734L450.699,590.495L456.683,591.31L462.658,592.179L468.626,593.102L474.585,594.078L480.535,595.108L486.476,596.192L492.406,597.33L498.326,598.52L504.235,599.764L510.133,601.062L516.018,602.412L521.892,603.815L527.752,605.272L533.6,606.781L539.433,608.342L545.251,609.957L551.056,611.624L556.844,613.342L562.617,615.114L562.888,615.199L563.158,615.288L563.427,615.378L563.695,615.471L563.963,615.566L564.229,615.664L564.495,615.764L564.76,615.866L565.024,615.971L565.287,616.078L565.549,616.188L565.81,616.299L566.07,616.413L566.329,616.53L566.586,616.648L566.843,616.769L567.099,616.893L567.354,617.018L567.607,617.146L567.859,617.276L568.111,617.408L568.361,617.543L568.61,617.679L568.857,617.818L569.104,617.959L569.349,618.103L569.592,618.249L569.835,618.396L570.076,618.546L570.316,618.698L570.554,618.852L570.792,619.008L571.027,619.167L571.261,619.327L571.494,619.489L571.726,619.654L571.956,619.82L572.184,619.989L572.411,620.16L572.636,620.333L572.86,620.507L573.082,620.684L573.303,620.862L573.521,621.043L573.739,621.226L573.955,621.41L574.169,621.596L574.382,621.785L574.593,621.975L574.802,622.167L575.009,622.361L575.215,622.557L575.418,622.754L575.621,622.954L575.821,623.155L576.02,623.357L576.216,623.562L576.411,623.769L576.604,623.977L576.795,624.187L576.985,624.398L577.172,624.611L577.358,624.826L577.542,625.043L577.723,625.261L577.903,625.481L578.081,625.702L578.256,625.925L578.43,626.149L578.602,626.376L578.771,626.603L578.939,626.832L579.105,627.063L579.269,627.295L579.43,627.528L579.59,627.763L579.747,628L579.902,628.237L580.056,628.476L580.207,628.716L580.355,628.959L580.502,629.202L580.646,629.446L580.789,629.691L580.929,629.938L581.067,630.187L581.203,630.436L581.336,630.686L581.468,630.938L581.597,631.191L581.724,631.445L655.912,780.413L354.331,780.413L354.331,1218.37L624.105,1218.37L624.105,1299.15L624.108,1299.97L624.119,1300.79L624.137,1301.61L624.162,1302.43L624.194,1303.24L624.234,1304.06L624.28,1304.88L624.334,1305.7L624.395,1306.51L624.463,1307.33L624.538,1308.14L624.62,1308.96L624.709,1309.77L624.806,1310.58L624.91,1311.4L625.021,1312.21L625.138,1313.02L625.263,1313.83L625.395,1314.64L625.534,1315.44L625.68,1316.25L625.833,1317.05L625.993,1317.85L626.161,1318.66L626.335,1319.46L626.516,1320.25L626.704,1321.05L626.899,1321.85L627.101,1322.64L627.31,1323.43L627.526,1324.22L627.749,1325.01L627.979,1325.79L628.215,1326.58L628.458,1327.36L628.708,1328.14L628.966,1328.91L629.229,1329.69L629.5,1330.46L629.777,1331.23L630.062,1332L630.353,1332.77L630.65,1333.53L630.954,1334.29L631.265,1335.05L631.582,1335.8L631.906,1336.55L632.237,1337.3L632.574,1338.05L632.917,1338.79L633.268,1339.53L633.624,1340.27L633.987,1341L634.356,1341.73L634.732,1342.46L635.114,1343.18L635.503,1343.9L635.897,1344.62L636.298,1345.33L636.706,1346.04L637.119,1346.75L637.539,1347.45L637.964,1348.15L638.396,1348.85L638.834,1349.54L639.278,1350.23L639.728,1350.91L640.184,1351.59L640.646,1352.27L641.113,1352.94L641.587,1353.61L642.066,1354.27L642.552,1354.93L643.043,1355.58L643.54,1356.23L644.042,1356.88L644.55,1357.52L645.063,1358.16L645.583,1358.79L646.107,1359.42L646.637,1360.04L647.173,1360.66L647.714,1361.28L648.26,1361.89L648.812,1362.49L649.369,1363.09L649.931,1363.69L650.498,1364.28L651.07,1364.86L651.648,1365.44L652.23,1366.02L652.818,1366.59L653.411,1367.15L654.008,1367.71L654.611,1368.27L655.218,1368.81L655.83,1369.36L656.447,1369.9L657.068,1370.43L657.694,1370.96L658.325,1371.48L658.96,1372L659.6,1372.51L660.244,1373.01L660.893,1373.51L661.545,1374.01L662.202,1374.49L662.864,1374.98L663.529,1375.45L664.199,1375.92L664.873,1376.39L665.551,1376.85L666.233,1377.3L666.918,1377.75L667.608,1378.19L668.302,1378.62L668.999,1379.05L669.7,1379.47L670.405,1379.89L671.113,1380.3L671.825,1380.7L672.541,1381.1L673.259,1381.49L673.981,1381.88L674.707,1382.26L675.436,1382.63L676.168,1383L676.903,1383.36L677.642,1383.71L678.383,1384.06L679.128,1384.4L679.875,1384.73L680.625,1385.06L681.379,1385.38L682.135,1385.69L682.894,1386L683.655,1386.3L684.418,1386.6L685.185,1386.88L685.954,1387.16L686.726,1387.44L687.499,1387.7L688.275,1387.97L689.054,1388.22L689.834,1388.47L690.617,1388.71L691.401,1388.94L692.188,1389.16L692.977,1389.38L693.767,1389.6L694.56,1389.8L695.354,1390L696.149,1390.19L696.947,1390.38L697.746,1390.56L698.547,1390.73L699.349,1390.89L700.152,1391.05L700.957,1391.19L701.763,1391.34L702.57,1391.47L703.379,1391.6L704.188,1391.72L704.999,1391.84L705.811,1391.94L706.623,1392.04L707.437,1392.14L708.25,1392.22L709.065,1392.3L709.881,1392.37L710.697,1392.44L711.513,1392.49L712.33,1392.55L713.148,1392.59L714.784,1392.65L715.602,1392.67L716.42,1392.69L717.239,1392.7L718.058,1392.7L718.876,1392.69L719.695,1392.67L720.513,1392.65L722.149,1392.59L722.966,1392.55L723.783,1392.49L724.6,1392.44L725.416,1392.37L726.231,1392.3L727.046,1392.22L727.86,1392.14L728.674,1392.04L729.486,1391.94L730.298,1391.84L731.108,1391.72L731.918,1391.6L733.534,1391.34L734.34,1391.19L735.145,1391.05L735.948,1390.89L736.75,1390.73L737.551,1390.56L738.35,1390.38L739.147,1390.19L739.943,1390L740.737,1389.8L741.529,1389.6L742.32,1389.38L743.109,1389.16L743.896,1388.94L744.68,1388.71L745.463,1388.47L746.243,1388.22L747.021,1387.97L747.797,1387.7L748.571,1387.44L749.343,1387.16L750.112,1386.88L750.878,1386.6L751.642,1386.3L752.403,1386L753.162,1385.69L753.918,1385.38L754.671,1385.06L755.421,1384.73L756.169,1384.4L756.913,1384.06L757.655,1383.71L758.393,1383.36L759.128,1383L759.86,1382.63L760.589,1382.26L761.315,1381.88L762.037,1381.49L762.756,1381.1L763.472,1380.7L764.184,1380.3L764.892,1379.89L765.597,1379.47L766.297,1379.05L766.995,1378.62L767.688,1378.19L768.378,1377.75L769.064,1377.3L769.746,1376.85L770.424,1376.39L771.098,1375.92L771.767,1375.45L772.433,1374.98L773.094,1374.49L773.751,1374.01L774.404,1373.51L775.053,1373.01L775.697,1372.51L776.337,1372L776.972,1371.48L777.603,1370.96L778.229,1370.43L778.85,1369.9L779.467,1369.36L780.079,1368.81L780.686,1368.27L781.288,1367.71L781.886,1367.15L782.479,1366.59L783.066,1366.02L783.648,1365.44L784.226,1364.86L784.799,1364.28L785.366,1363.69L785.928,1363.09L786.485,1362.49L787.037,1361.89L787.583,1361.28L788.124,1360.66L788.66,1360.04L789.189,1359.42L789.714,1358.79L790.233,1358.16L790.747,1357.52L791.255,1356.88L791.757,1356.23L792.254,1355.58L792.745,1354.93L793.23,1354.27L793.709,1353.61L794.183,1352.94L794.651,1352.27L795.113,1351.59L795.569,1350.91L796.019,1350.23L796.462,1349.54L796.9,1348.85L797.332,1348.15L797.758,1347.45L798.178,1346.75L798.591,1346.04L798.998,1345.33L799.399,1344.62L799.794,1343.9L800.182,1343.18L800.564,1342.46L800.94,1341.73L801.31,1341L801.673,1340.27L802.029,1339.53L802.379,1338.79L802.723,1338.05L803.06,1337.3L803.391,1336.55L803.714,1335.8L804.032,1335.05L804.343,1334.29L804.647,1333.53L804.944,1332.77L805.235,1332L805.519,1331.23L805.796,1330.46L806.067,1329.69L806.331,1328.91L806.588,1328.14L806.838,1327.36L807.082,1326.58L807.318,1325.79L807.548,1325.01L807.771,1324.22L807.986,1323.43L808.196,1322.64L808.397,1321.85L808.593,1321.05L808.781,1320.25L808.962,1319.46L809.136,1318.66L809.303,1317.85L809.463,1317.05L809.617,1316.25L809.763,1315.44L809.901,1314.64L810.034,1313.83L810.159,1313.02L810.276,1312.21L810.387,1311.4L810.49,1310.58L810.587,1309.77L810.676,1308.96L810.759,1308.14L810.834,1307.33L810.902,1306.51L810.962,1305.7L811.016,1304.88L811.063,1304.06L811.102,1303.24L811.134,1302.43L811.159,1301.61L811.177,1300.79L811.188,1299.97L811.191,1299.15L811.191,1153.9L811.194,1153.32L811.202,1152.75L811.215,1152.18L811.232,1151.61L811.256,1151.04L811.284,1150.47L811.317,1149.9L811.356,1149.32L811.399,1148.75L811.448,1148.18L811.502,1147.61L811.561,1147.04L811.625,1146.48L811.694,1145.91L811.768,1145.34L811.848,1144.77L811.932,1144.21L812.021,1143.64L812.116,1143.08L812.215,1142.52L812.32,1141.95L812.43,1141.39L812.544,1140.83L812.664,1140.27L812.789,1139.71L812.918,1139.16L813.053,1138.6L813.193,1138.04L813.338,1137.49L813.487,1136.94L813.642,1136.39L813.802,1135.84L813.966,1135.29L814.135,1134.74L814.31,1134.2L814.489,1133.66L814.673,1133.11L814.862,1132.57L815.055,1132.04L816.378,1128.36L817.667,1124.67L818.922,1120.97L820.144,1117.25L821.33,1113.53L822.483,1109.79L823.601,1106.05L824.685,1102.29L825.733,1098.53L826.748,1094.75L827.728,1090.97L828.673,1087.17L829.583,1083.37L830.458,1079.56L831.297,1075.74L832.102,1071.92L832.872,1068.09L833.606,1064.25L834.305,1060.4L834.969,1056.55L835.597,1052.69L836.189,1048.83L836.747,1044.96L837.268,1041.09L837.754,1037.21L838.204,1033.32L838.619,1029.44L838.998,1025.55L839.287,1025.53L839.577,1025.52L839.867,1025.51L840.447,1025.49L841.317,1025.49L841.897,1025.51L842.187,1025.52L842.477,1025.53L842.766,1025.55L843.056,1025.57L843.345,1025.59L843.634,1025.61L843.923,1025.64L844.212,1025.67L844.5,1025.7L844.788,1025.73L845.076,1025.77L845.363,1025.81L845.65,1025.85L845.937,1025.9L846.223,1025.94L846.509,1025.99L846.794,1026.05L847.079,1026.1L847.363,1026.16L847.646,1026.22L847.93,1026.28L848.212,1026.35L848.494,1026.42L848.776,1026.49L849.057,1026.56L849.336,1026.64L849.616,1026.71L849.895,1026.8L850.172,1026.88L850.449,1026.97L850.726,1027.05L851.001,1027.14L851.275,1027.24L851.549,1027.33L851.822,1027.43L870.563,1034.29L871.058,1034.47L871.555,1034.64L872.053,1034.81L872.553,1034.97L873.054,1035.14L873.557,1035.29L874.061,1035.44L874.566,1035.59L875.073,1035.73L876.089,1036.01L876.6,1036.14L877.111,1036.26L878.137,1036.5L878.651,1036.61L879.167,1036.72L879.683,1036.82L880.2,1036.92L880.718,1037.01L881.237,1037.1L881.757,1037.19L882.277,1037.26L882.798,1037.34L883.32,1037.41L883.842,1037.48L884.365,1037.54L884.888,1037.59L885.412,1037.64L885.937,1037.69L886.461,1037.73L886.986,1037.77L887.512,1037.81L888.037,1037.83L888.563,1037.86L889.089,1037.88L889.615,1037.89L890.142,1037.9L890.668,1037.91L891.194,1037.91L891.721,1037.9L892.247,1037.9L892.773,1037.88L893.299,1037.86L893.825,1037.84L894.351,1037.81L894.876,1037.78L895.402,1037.75L895.927,1037.7L896.451,1037.66L896.975,1037.61L897.499,1037.55L898.021,1037.49L898.544,1037.43L899.066,1037.36L899.587,1037.29L900.107,1037.21L900.627,1037.13L901.146,1037.04L901.665,1036.95L902.183,1036.85L902.699,1036.75L903.215,1036.64L903.729,1036.53L904.243,1036.42L904.756,1036.3L905.268,1036.18L905.778,1036.05L906.288,1035.91L906.796,1035.78L907.303,1035.64L907.808,1035.49L908.313,1035.34L908.815,1035.18L909.317,1035.02L909.817,1034.86L910.316,1034.69L910.813,1034.52L911.309,1034.34L911.803,1034.16L912.295,1033.97L912.786,1033.78L913.275,1033.59L913.763,1033.39L914.248,1033.19L914.732,1032.98L915.214,1032.77L915.694,1032.55L916.172,1032.33L916.648,1032.1L917.122,1031.88L917.594,1031.64L918.064,1031.41L918.532,1031.16L918.998,1030.92L919.461,1030.67L919.922,1030.42L920.381,1030.16L920.838,1029.9L921.292,1029.63L921.744,1029.36L922.194,1029.09L922.641,1028.81L923.086,1028.53L923.528,1028.24L923.968,1027.95L924.405,1027.66L924.839,1027.36L925.271,1027.06L925.7,1026.76L926.126,1026.45L926.55,1026.13L926.971,1025.82L927.389,1025.5L927.805,1025.18L928.217,1024.85L928.626,1024.52L929.033,1024.18L929.437,1023.84L929.837,1023.5L930.234,1023.16L938.882,1015.58L939.28,1015.24L939.681,1014.9L940.085,1014.56L940.492,1014.22L940.901,1013.89L941.314,1013.56L941.729,1013.24L942.147,1012.92L942.569,1012.6L942.993,1012.29L943.419,1011.98L943.849,1011.68L944.281,1011.38L944.715,1011.08L945.153,1010.79L945.593,1010.5L946.035,1010.21L946.48,1009.93L946.928,1009.65L947.377,1009.38L947.83,1009.11L948.285,1008.84L948.742,1008.58L949.201,1008.32L949.662,1008.07L950.126,1007.82L950.592,1007.57L951.061,1007.33L951.53,1007.09L952.003,1006.86L952.477,1006.63L952.954,1006.41L953.432,1006.19L953.912,1005.97L954.395,1005.76L954.878,1005.55L955.364,1005.35L955.852,1005.15L956.341,1004.95L956.833,1004.76L957.325,1004.58L957.819,1004.4L958.315,1004.22L958.813,1004.05L959.312,1003.88L959.813,1003.71L960.314,1003.55L960.818,1003.4L961.322,1003.25L961.828,1003.1L962.335,1002.96L962.844,1002.82L963.354,1002.69L963.865,1002.56L964.376,1002.44L964.89,1002.32L965.403,1002.2L965.918,1002.09L966.435,1001.99L966.952,1001.89L967.469,1001.79L967.988,1001.7L968.507,1001.61L969.027,1001.53L969.548,1001.45L970.07,1001.38L970.592,1001.31L971.115,1001.24L971.638,1001.18L972.162,1001.13L972.687,1001.08L973.211,1001.03L973.736,1000.99L974.262,1000.96L974.788,1000.92L975.313,1000.9L975.84,1000.87L976.366,1000.86L976.893,1000.84L977.419,1000.84L977.946,1000.83L978.473,1000.83L979,1000.84L979.526,1000.85L979.526,1053.55L1071.15,1053.55L1071.15,1037.11L1122.51,1037.11L1122.62,1037.1L1122.73,1037.1L1122.84,1037.09L1122.95,1037.09L1123.07,1037.08L1123.4,1037.05L1123.51,1037.04L1123.62,1037.03L1123.73,1037.01L1123.84,1037L1123.95,1036.98L1124.06,1036.97L1124.17,1036.95L1124.28,1036.93L1124.39,1036.91L1124.5,1036.89L1124.61,1036.87L1124.72,1036.85L1124.83,1036.83L1124.94,1036.81L1125.05,1036.78L1125.16,1036.75L1125.27,1036.73L1125.38,1036.7L1125.48,1036.67L1125.59,1036.64L1125.7,1036.61L1125.81,1036.58L1125.91,1036.55L1126.02,1036.52L1126.13,1036.48L1126.23,1036.45L1126.34,1036.41L1126.44,1036.37L1126.55,1036.34L1126.65,1036.3L1126.76,1036.26L1126.86,1036.22L1126.96,1036.18L1127.07,1036.13L1127.17,1036.09L1127.27,1036.05L1127.38,1036L1127.48,1035.95L1127.58,1035.91L1127.68,1035.86L1127.98,1035.71L1128.08,1035.66L1128.18,1035.61L1128.28,1035.55L1128.37,1035.5L1128.47,1035.45L1128.57,1035.39L1128.66,1035.33L1128.76,1035.28L1128.85,1035.22L1128.95,1035.16L1129.04,1035.1L1129.14,1035.04L1129.23,1034.98L1129.32,1034.92L1129.42,1034.85L1129.51,1034.79L1129.6,1034.73L1129.69,1034.66L1129.78,1034.59L1129.87,1034.53L1129.96,1034.46L1130.04,1034.39L1130.13,1034.32L1130.22,1034.25L1130.31,1034.18L1130.39,1034.11L1130.48,1034.04L1130.56,1033.96L1130.64,1033.89L1130.73,1033.81L1130.81,1033.74L1130.89,1033.66L1130.97,1033.59L1131.05,1033.51L1131.21,1033.35L1131.29,1033.27L1131.37,1033.19L1131.45,1033.11L1131.52,1033.03L1131.6,1032.95L1131.67,1032.87L1131.75,1032.78L1131.82,1032.7L1131.89,1032.61L1131.96,1032.53L1132.04,1032.44L1132.11,1032.36L1132.18,1032.27L1132.25,1032.18L1132.31,1032.09L1132.38,1032L1132.45,1031.91L1132.51,1031.82L1132.58,1031.73L1132.64,1031.64L1132.71,1031.55L1132.77,1031.46L1132.83,1031.36L1132.89,1031.27L1132.95,1031.18L1133.01,1031.08L1133.07,1030.99L1133.13,1030.89L1133.18,1030.8L1133.24,1030.7L1133.29,1030.6L1133.35,1030.5L1133.4,1030.41L1133.45,1030.31L1133.51,1030.21L1133.56,1030.11L1133.61,1030.01L1133.66,1029.91L1133.7,1029.81L1133.75,1029.71L1133.8,1029.61L1133.84,1029.5L1133.89,1029.4L1133.93,1029.3L1133.97,1029.2L1134.02,1029.09L1134.06,1028.99L1134.1,1028.88L1134.14,1028.78L1134.17,1028.68L1134.21,1028.57L1134.25,1028.46L1134.28,1028.36L1134.32,1028.25L1134.35,1028.15L1134.38,1028.04L1134.42,1027.93L1134.45,1027.82L1134.48,1027.72L1134.51,1027.61L1134.53,1027.5L1134.56,1027.39L1134.59,1027.28L1134.61,1027.18L1134.64,1027.07L1134.68,1026.85L1134.7,1026.74L1134.72,1026.63L1134.74,1026.52L1134.76,1026.41L1134.78,1026.3L1134.8,1026.19L1134.81,1026.08L1134.83,1025.97L1134.85,1025.75L1134.86,1025.63L1134.88,1025.52L1134.88,1025.41L1134.89,1025.3L1134.91,1025.08L1134.91,1024.97L1134.92,1024.86L1134.92,1024.74L1134.93,1024.63L1134.93,1024.07L1134.92,1023.96L1134.92,1023.85L1134.91,1023.74L1134.91,1023.63L1134.9,1023.52L1134.89,1023.4L1134.88,1023.29L1134.88,1023.18L1134.86,1023.07L1134.83,1022.74L1134.81,1022.63L1134.8,1022.52L1134.72,1022.08L1134.7,1021.97L1134.68,1021.86L1134.64,1021.64L1134.61,1021.53L1134.59,1021.42L1134.56,1021.31L1134.53,1021.2L1134.51,1021.1L1134.45,1020.88L1134.42,1020.77L1134.38,1020.67L1134.32,1020.45L1134.28,1020.35L1134.25,1020.24L1134.21,1020.14L1134.17,1020.03L1134.14,1019.93L1134.1,1019.82L1134.06,1019.72L1134.02,1019.61L1133.97,1019.51L1133.93,1019.41L1133.89,1019.3L1133.84,1019.2L1133.8,1019.1L1133.7,1018.9L1133.66,1018.8L1133.61,1018.7L1133.56,1018.6L1133.51,1018.5L1133.45,1018.4L1133.4,1018.3L1133.35,1018.2L1133.29,1018.1L1133.24,1018.01L1133.18,1017.91L1133.13,1017.81L1133.07,1017.72L1133.01,1017.62L1132.95,1017.53L1132.89,1017.44L1132.83,1017.34L1132.77,1017.25L1132.71,1017.16L1132.64,1017.06L1132.58,1016.97L1132.51,1016.88L1132.45,1016.79L1132.38,1016.7L1132.31,1016.61L1132.25,1016.52L1132.18,1016.44L1132.11,1016.35L1132.04,1016.26L1131.96,1016.18L1131.89,1016.09L1131.82,1016.01L1131.75,1015.92L1131.67,1015.84L1131.6,1015.76L1131.52,1015.68L1131.45,1015.59L1131.29,1015.43L1131.21,1015.35L1131.13,1015.27L1131.05,1015.2L1130.97,1015.12L1130.89,1015.04L1130.81,1014.97L1130.73,1014.89L1130.64,1014.82L1130.56,1014.74L1130.48,1014.67L1130.39,1014.6L1130.31,1014.53L1130.22,1014.45L1130.13,1014.39L1130.04,1014.32L1129.96,1014.25L1129.78,1014.11L1129.69,1014.05L1129.6,1013.98L1129.51,1013.92L1129.42,1013.85L1129.32,1013.79L1129.14,1013.67L1129.04,1013.61L1128.95,1013.55L1128.85,1013.49L1128.76,1013.43L1128.66,1013.37L1128.57,1013.32L1128.47,1013.26L1128.37,1013.21L1128.28,1013.15L1128.18,1013.1L1128.08,1013.05L1127.98,1012.99L1127.88,1012.94L1127.78,1012.9L1127.68,1012.85L1127.58,1012.8L1127.48,1012.75L1127.38,1012.71L1127.27,1012.66L1127.17,1012.62L1127.07,1012.57L1126.96,1012.53L1126.86,1012.49L1126.76,1012.45L1126.65,1012.41L1126.55,1012.37L1126.44,1012.33L1126.34,1012.3L1126.23,1012.26L1126.13,1012.23L1126.02,1012.19L1125.91,1012.16L1125.81,1012.13L1125.7,1012.09L1125.59,1012.06L1125.48,1012.03L1125.38,1012.01L1125.27,1011.98L1125.16,1011.95L1125.05,1011.93L1124.94,1011.9L1124.72,1011.86L1124.61,1011.83L1124.39,1011.79L1124.28,1011.77L1124.17,1011.76L1124.06,1011.74L1123.95,1011.72L1123.84,1011.71L1123.73,1011.69L1123.4,1011.66L1123.29,1011.65L1123.07,1011.63L1122.95,1011.62L1122.84,1011.61L1122.62,1011.61L1122.51,1011.6L1071.15,1011.6L1071.15,963.694L1122.17,963.694L1122.29,963.693L1122.4,963.692L1122.51,963.689L1122.62,963.686L1122.73,963.681L1122.84,963.676L1122.95,963.669L1123.07,963.663L1123.18,963.654L1123.29,963.645L1123.4,963.634L1123.51,963.624L1123.73,963.598L1123.84,963.584L1123.95,963.569L1124.06,963.552L1124.17,963.536L1124.28,963.517L1124.39,963.499L1124.5,963.479L1124.61,963.458L1124.72,963.436L1124.83,963.414L1124.94,963.389L1125.05,963.365L1125.16,963.339L1125.27,963.312L1125.38,963.285L1125.48,963.256L1125.59,963.227L1125.7,963.197L1125.81,963.166L1125.91,963.133L1126.02,963.1L1126.13,963.066L1126.23,963.031L1126.34,962.995L1126.44,962.958L1126.55,962.92L1126.65,962.881L1126.76,962.841L1126.86,962.801L1126.96,962.759L1127.07,962.717L1127.17,962.674L1127.27,962.629L1127.38,962.584L1127.48,962.539L1127.58,962.492L1127.68,962.444L1127.78,962.395L1127.88,962.346L1127.98,962.295L1128.08,962.245L1128.18,962.192L1128.28,962.139L1128.37,962.085L1128.47,962.031L1128.57,961.975L1128.66,961.918L1128.76,961.862L1128.85,961.803L1128.95,961.745L1129.04,961.685L1129.14,961.625L1129.32,961.501L1129.42,961.438L1129.51,961.375L1129.69,961.245L1129.78,961.178L1129.87,961.111L1129.96,961.043L1130.04,960.975L1130.13,960.906L1130.22,960.835L1130.31,960.765L1130.39,960.693L1130.48,960.621L1130.56,960.548L1130.64,960.474L1130.73,960.4L1130.81,960.325L1130.89,960.249L1130.97,960.171L1131.05,960.094L1131.21,959.938L1131.29,959.858L1131.37,959.778L1131.45,959.697L1131.52,959.616L1131.6,959.534L1131.67,959.451L1131.75,959.368L1131.82,959.284L1131.89,959.199L1131.96,959.113L1132.04,959.027L1132.11,958.941L1132.18,958.853L1132.25,958.765L1132.31,958.677L1132.45,958.499L1132.51,958.408L1132.58,958.318L1132.64,958.226L1132.71,958.134L1132.77,958.042L1132.83,957.949L1132.89,957.855L1132.95,957.761L1133.01,957.667L1133.07,957.572L1133.13,957.476L1133.18,957.38L1133.24,957.284L1133.29,957.186L1133.35,957.088L1133.4,956.991L1133.45,956.892L1133.51,956.793L1133.56,956.694L1133.61,956.594L1133.66,956.494L1133.7,956.393L1133.75,956.293L1133.8,956.19L1133.84,956.088L1133.89,955.986L1133.93,955.883L1133.97,955.781L1134.02,955.677L1134.06,955.573L1134.1,955.469L1134.14,955.365L1134.17,955.259L1134.21,955.155L1134.25,955.048L1134.28,954.943L1134.32,954.837L1134.35,954.731L1134.38,954.624L1134.42,954.517L1134.45,954.41L1134.51,954.194L1134.53,954.086L1134.56,953.978L1134.59,953.87L1134.61,953.76L1134.64,953.652L1134.66,953.543L1134.68,953.433L1134.7,953.324L1134.72,953.213L1134.74,953.104L1134.76,952.994L1134.78,952.883L1134.8,952.773L1134.81,952.663L1134.83,952.552L1134.84,952.441L1134.85,952.331L1134.86,952.219L1134.88,952.108L1134.88,951.997L1134.89,951.885L1134.91,951.663L1134.91,951.551L1134.92,951.44L1134.92,951.329L1134.93,951.216L1134.93,950.659L1134.92,950.547L1134.92,950.435L1134.91,950.324L1134.91,950.212L1134.89,949.99L1134.88,949.878L1134.88,949.767L1134.86,949.656L1134.84,949.434L1134.83,949.324L1134.81,949.212L1134.8,949.102L1134.78,948.992L1134.76,948.881L1134.74,948.771L1134.72,948.662L1134.7,948.552L1134.68,948.442L1134.64,948.224L1134.61,948.115L1134.59,948.006L1134.56,947.897L1134.53,947.79L1134.51,947.681L1134.48,947.574L1134.45,947.465L1134.42,947.359L1134.38,947.251L1134.32,947.039L1134.28,946.932L1134.25,946.827L1134.21,946.721L1134.17,946.616L1134.14,946.511L1134.1,946.406L1134.06,946.302L1134.02,946.199L1133.97,946.095L1133.93,945.992L1133.89,945.889L1133.84,945.787L1133.8,945.685L1133.75,945.584L1133.7,945.482L1133.66,945.381L1133.61,945.281L1133.56,945.181L1133.51,945.082L1133.45,944.983L1133.4,944.884L1133.35,944.787L1133.29,944.689L1133.24,944.592L1133.18,944.496L1133.13,944.399L1133.07,944.303L1133.01,944.209L1132.95,944.114L1132.89,944.02L1132.83,943.926L1132.77,943.834L1132.71,943.741L1132.64,943.649L1132.58,943.558L1132.51,943.467L1132.45,943.376L1132.38,943.288L1132.31,943.198L1132.25,943.11L1132.18,943.022L1132.11,942.935L1132.04,942.848L1131.96,942.762L1131.89,942.676L1131.82,942.592L1131.75,942.508L1131.67,942.424L1131.6,942.341L1131.52,942.259L1131.45,942.178L1131.37,942.097L1131.29,942.017L1131.21,941.938L1131.13,941.859L1131.05,941.781L1130.97,941.704L1130.89,941.626L1130.81,941.551L1130.73,941.475L1130.64,941.401L1130.56,941.328L1130.48,941.254L1130.39,941.182L1130.31,941.111L1130.22,941.04L1130.13,940.969L1130.04,940.9L1129.96,940.832L1129.87,940.764L1129.78,940.697L1129.69,940.631L1129.51,940.501L1129.42,940.437L1129.32,940.375L1129.23,940.312L1129.14,940.251L1129.04,940.19L1128.95,940.13L1128.85,940.072L1128.76,940.013L1128.66,939.957L1128.57,939.9L1128.47,939.844L1128.37,939.79L1128.28,939.736L1128.18,939.683L1128.08,939.631L1127.98,939.58L1127.88,939.529L1127.78,939.48L1127.68,939.431L1127.58,939.383L1127.48,939.336L1127.38,939.291L1127.27,939.246L1127.07,939.158L1126.96,939.116L1126.86,939.074L1126.76,939.034L1126.65,938.994L1126.55,938.956L1126.44,938.918L1126.34,938.88L1126.23,938.844L1126.13,938.809L1126.02,938.775L1125.91,938.742L1125.81,938.709L1125.7,938.678L1125.59,938.648L1125.48,938.619L1125.38,938.59L1125.27,938.563L1125.16,938.536L1125.05,938.51L1124.94,938.486L1124.83,938.462L1124.72,938.439L1124.61,938.418L1124.5,938.396L1124.39,938.376L1124.28,938.358L1124.17,938.339L1124.06,938.323L1123.95,938.306L1123.84,938.292L1123.73,938.277L1123.62,938.264L1123.51,938.252L1123.4,938.241L1123.18,938.221L1123.07,938.213L1122.95,938.206L1122.84,938.2L1122.73,938.194L1122.62,938.19L1122.51,938.186L1122.4,938.184L1122.29,938.182L1071.15,938.182L1071.15,921.74L979.526,921.74L979.526,973.636L978.704,973.704L977.882,973.778L977.061,973.86L976.24,973.95L975.421,974.046L974.603,974.151L973.785,974.262L972.968,974.38L972.153,974.506L971.338,974.64L970.525,974.781L969.713,974.928L968.903,975.084L968.094,975.246L967.286,975.416L966.48,975.592L965.676,975.777L964.873,975.968L964.072,976.167L963.273,976.372L962.476,976.584L961.681,976.804L960.887,977.031L960.096,977.265L959.307,977.506L958.52,977.754L957.735,978.009L956.953,978.271L956.172,978.541L955.395,978.817L954.62,979.1L953.847,979.39L953.077,979.687L952.31,979.991L951.545,980.301L950.784,980.619L950.025,980.943L949.269,981.274L948.516,981.612L947.767,981.956L947.02,982.307L946.276,982.665L945.536,983.03L944.799,983.401L944.065,983.778L943.335,984.163L942.608,984.553L941.885,984.951L941.165,985.354L940.449,985.764L939.737,986.18L939.028,986.603L938.323,987.033L937.623,987.468L936.925,987.91L936.232,988.358L935.543,988.812L934.858,989.272L934.178,989.738L933.501,990.21L916.094,1002.48L915.76,1002.72L915.423,1002.95L915.085,1003.17L914.744,1003.4L914.402,1003.62L914.057,1003.84L913.711,1004.05L913.362,1004.26L913.012,1004.47L912.66,1004.68L912.306,1004.88L911.95,1005.08L911.592,1005.28L911.233,1005.47L910.872,1005.66L910.509,1005.85L910.145,1006.03L909.779,1006.21L909.411,1006.38L909.042,1006.56L908.671,1006.73L908.299,1006.89L907.925,1007.06L907.55,1007.22L907.173,1007.37L906.795,1007.53L906.416,1007.68L906.035,1007.82L905.653,1007.96L905.27,1008.1L904.885,1008.24L904.5,1008.37L904.112,1008.5L903.725,1008.63L903.335,1008.75L902.945,1008.87L902.554,1008.98L902.161,1009.09L901.768,1009.2L901.374,1009.3L900.979,1009.4L900.583,1009.5L900.186,1009.6L899.788,1009.69L899.389,1009.77L898.99,1009.85L898.59,1009.93L898.189,1010.01L897.788,1010.08L897.386,1010.15L896.983,1010.21L896.58,1010.27L896.176,1010.33L895.772,1010.39L895.367,1010.44L894.962,1010.48L894.557,1010.53L894.15,1010.56L893.744,1010.6L893.338,1010.63L892.931,1010.66L892.524,1010.69L891.935,1010.72L890.757,1010.76L890.167,1010.77L889.578,1010.78L888.399,1010.78L887.809,1010.77L887.22,1010.76L886.63,1010.74L886.042,1010.72L885.453,1010.69L884.864,1010.65L884.276,1010.61L883.688,1010.56L883.101,1010.51L882.514,1010.46L881.928,1010.39L881.342,1010.33L880.757,1010.25L880.173,1010.17L879.589,1010.09L879.006,1010L878.425,1009.9L877.844,1009.8L877.264,1009.7L876.685,1009.59L876.106,1009.47L875.53,1009.35L874.954,1009.22L874.379,1009.09L873.806,1008.95L872.458,1008.61L871.112,1008.26L869.77,1007.9L868.432,1007.53L867.096,1007.14L865.765,1006.74L864.438,1006.32L863.114,1005.9L861.794,1005.46L860.479,1005.01L859.168,1004.55L857.862,1004.07L856.56,1003.58L855.263,1003.08L853.97,1002.57L852.682,1002.05L851.399,1001.51L850.122,1000.96L848.85,1000.4L840.685,996.759L840.765,992.713L840.807,988.667L840.81,984.62L840.774,980.573L840.701,976.526L840.589,972.481L840.438,968.436L840.249,964.394L840.021,960.353L839.755,956.315L839.45,952.28L839.107,948.248L838.726,944.218L838.307,940.193L837.849,936.172L837.353,932.156L836.818,928.144L836.246,924.137Z"/>
        <rect x="1317.4" y="582.696" width="221.1" height="136.063" style="fill:white;"/>
        <path d="M1379.01,883.244L1346.2,1079.09L1446.95,1043.38L1427.95,1126.82L1384.21,1112.82L1411.15,1224.9L1497.56,1149.1L1460.51,1137.25L1538.92,960.079L1396.34,1020.97L1454,906.005L1379.01,883.244Z" style="fill:white;"/>
    </g>
</svg>
