<?xml version="1.0" encoding="UTF-8" standalone="no"?>
<!DOCTYPE svg PUBLIC "-//W3C//DTD SVG 1.1//EN" "http://www.w3.org/Graphics/SVG/1.1/DTD/svg11.dtd">
<svg width="100%" height="100%" viewBox="0 0 259 259" version="1.1" xmlns="http://www.w3.org/2000/svg" xmlns:xlink="http://www.w3.org/1999/xlink" xml:space="preserve" xmlns:serif="http://www.serif.com/" style="fill-rule:evenodd;clip-rule:evenodd;stroke-linejoin:round;stroke-miterlimit:2;">
    <g transform="matrix(1,0,0,1,0.00100326,-35.361)">
        <g transform="matrix(0.941321,0,0,0.943141,8.59591,8.8571)">
            <rect x="0.107" y="35.469" width="258.423" height="258.422" style="fill:rgb(0,64,128);"/>
        </g>
        <path d="M19.985,293.891C14.711,293.894 9.675,291.804 5.943,288.074C2.209,284.346 0.111,279.287 0.107,274.014L0.107,55.347C0.104,50.073 2.197,45.037 5.925,41.305C9.652,37.571 14.711,35.473 19.985,35.469L238.653,35.469C243.926,35.466 248.963,37.558 252.696,41.287C256.431,45.014 258.526,50.073 258.53,55.347L258.53,274.014C258.532,279.287 256.44,284.324 252.713,288.057C248.985,291.791 243.926,293.887 238.653,293.891L19.985,293.891ZM19.985,283.953L238.653,283.953C241.288,283.95 243.818,282.903 245.682,281.036C247.549,279.169 248.592,276.649 248.592,274.014L248.592,55.347C248.589,52.71 247.542,50.181 245.675,48.317C243.808,46.452 241.288,45.407 238.653,45.409L19.985,45.409C17.349,45.411 14.819,46.459 12.956,48.326C11.091,50.193 10.045,52.71 10.045,55.347L10.045,274.014C10.049,276.649 11.097,279.178 12.964,281.043C14.831,282.91 17.349,283.953 19.985,283.953Z" style="fill:white;"/>
        <path d="M57.755,254.134L200.883,254.134C205.63,254.131 210.185,252.242 213.537,248.881C216.894,245.522 218.777,240.991 218.773,236.244L218.773,93.117C218.771,88.369 216.881,83.816 213.521,80.462C210.161,77.107 205.63,75.224 200.883,75.227L57.755,75.227C53.007,75.229 48.455,77.118 45.1,80.478C41.745,83.838 39.862,88.369 39.865,93.117L39.865,236.244C39.867,240.991 41.757,245.546 45.116,248.898C48.476,252.255 53.007,254.138 57.755,254.134Z" style="fill:white;"/>
        <path d="M57.755,254.134L200.883,254.134C205.63,254.131 210.185,252.242 213.537,248.881C216.894,245.522 218.777,240.991 218.773,236.244L218.773,93.117C218.771,88.369 216.881,83.816 213.521,80.462C210.161,77.107 205.63,75.224 200.883,75.227L57.755,75.227C53.007,75.229 48.455,77.118 45.1,80.478C41.745,83.838 39.862,88.369 39.865,93.117L39.865,236.244C39.867,240.991 41.757,245.546 45.116,248.898C48.476,252.255 53.007,254.138 57.755,254.134Z" style="fill:none;stroke:white;stroke-width:0.22px;"/>
        <path d="M114.411,120.947L114.411,132.456L105.821,132.456L96.252,141.052L96.518,208.358C96.739,213.758 93.827,218.801 89.04,221.311C84.252,223.821 78.449,223.349 74.13,220.097C69.813,216.846 67.997,210.405 69.086,205.113L87.42,130.044C88.721,124.706 93.511,120.949 99.007,120.947L114.411,120.947ZM174.047,108.601L174.047,136.431L130.313,136.431L130.313,108.601L174.047,108.601ZM79.653,128.168L61.359,203.237C59.85,211.495 63.226,219.881 70.034,224.79C76.842,229.701 85.867,230.253 93.226,226.214C100.583,222.174 104.959,216.794 104.471,208.414L104.471,152.334L114.411,152.334L114.411,240.22L189.95,240.22L189.95,109.019C189.947,104.8 188.267,100.754 185.281,97.771C182.296,94.788 178.267,93.115 174.047,93.117L130.313,93.117C126.092,93.12 122.046,94.798 119.063,97.786C116.081,100.772 114.408,104.8 114.411,109.019L114.411,112.996L98.964,112.996C89.794,112.999 81.82,119.258 79.653,128.168Z" style="fill:rgb(35,31,32);"/>
        <path d="M114.411,120.947L114.411,132.456L105.821,132.456L96.252,141.052L96.518,208.358C96.739,213.758 93.827,218.801 89.04,221.311C84.252,223.821 78.449,223.349 74.13,220.097C69.813,216.846 67.997,210.405 69.086,205.113L87.42,130.044C88.721,124.706 93.511,120.949 99.007,120.947L114.411,120.947ZM174.047,108.601L174.047,136.431L130.313,136.431L130.313,108.601L174.047,108.601ZM79.653,128.168L61.359,203.237C59.85,211.495 63.226,219.881 70.034,224.79C76.842,229.701 85.867,230.253 93.226,226.214C100.583,222.174 104.959,216.794 104.471,208.414L104.471,152.334L114.411,152.334L114.411,240.22L189.95,240.22L189.95,109.019C189.947,104.8 188.267,100.754 185.281,97.771C182.296,94.788 178.267,93.115 174.047,93.117L130.313,93.117C126.092,93.12 122.046,94.798 119.063,97.786C116.081,100.772 114.408,104.8 114.411,109.019L114.411,112.996L98.964,112.996C89.794,112.999 81.82,119.258 79.653,128.168Z" style="fill:none;stroke:rgb(35,31,32);stroke-width:0.22px;"/>
    </g>
</svg>
