<?xml version="1.0" encoding="UTF-8" standalone="no"?>
<!DOCTYPE svg PUBLIC "-//W3C//DTD SVG 1.1//EN" "http://www.w3.org/Graphics/SVG/1.1/DTD/svg11.dtd">
<svg width="100%" height="100%" viewBox="0 0 253 253" version="1.1" xmlns="http://www.w3.org/2000/svg" xmlns:xlink="http://www.w3.org/1999/xlink" xml:space="preserve" xmlns:serif="http://www.serif.com/" style="fill-rule:evenodd;clip-rule:evenodd;stroke-linejoin:round;stroke-miterlimit:2;">
    <g transform="matrix(1,0,0,1,0.00100334,-34.081)">
        <g transform="matrix(0.940613,0,0,0.934851,6.94208,9.97908)">
            <rect x="0.107" y="34.189" width="252.704" height="252.702" style="fill:rgb(0,64,128);"/>
        </g>
        <path d="M19.545,286.891C14.386,286.894 9.463,284.85 5.813,281.203C2.163,277.557 0.111,272.61 0.107,267.455L0.107,53.628C0.104,48.469 2.149,43.544 5.796,39.896C9.44,36.245 14.386,34.192 19.545,34.189L233.374,34.189C238.531,34.185 243.456,36.232 247.105,39.877C250.756,43.522 252.808,48.469 252.811,53.628L252.811,267.455C252.814,272.61 250.769,277.535 247.123,281.186C243.476,284.838 238.531,286.887 233.374,286.891L19.545,286.891ZM19.545,277.173L233.374,277.173C235.953,277.17 238.424,276.146 240.247,274.32C242.071,272.495 243.093,270.031 243.091,267.455L243.091,53.628C243.089,51.048 242.065,48.574 240.239,46.752C238.414,44.93 235.953,43.906 233.374,43.909L19.545,43.909C16.966,43.909 14.494,44.937 12.67,46.762C10.848,48.587 9.824,51.048 9.827,53.628L9.827,267.455C9.827,270.031 10.854,272.505 12.68,274.327C14.505,276.152 16.966,277.173 19.545,277.173Z" style="fill:white;"/>
        <path d="M56.479,248.014L196.438,248.014C201.083,248.011 205.534,246.164 208.814,242.879C212.095,239.592 213.937,235.162 213.933,230.519L213.933,90.56C213.93,85.917 212.083,81.467 208.798,78.185C205.513,74.906 201.083,73.065 196.438,73.068L56.479,73.068C51.836,73.068 47.385,74.915 44.104,78.201C40.824,81.486 38.982,85.917 38.985,90.56L38.985,230.519C38.988,235.162 40.835,239.615 44.12,242.894C47.404,246.176 51.836,248.018 56.479,248.014Z" style="fill:white;"/>
        <path d="M56.479,248.014L196.438,248.014C201.083,248.011 205.534,246.164 208.814,242.879C212.095,239.592 213.937,235.162 213.933,230.519L213.933,90.56C213.93,85.917 212.083,81.467 208.798,78.185C205.513,74.906 201.083,73.065 196.438,73.068L56.479,73.068C51.836,73.068 47.385,74.915 44.104,78.201C40.824,81.486 38.982,85.917 38.985,90.56L38.985,230.519C38.988,235.162 40.835,239.615 44.12,242.894C47.404,246.176 51.836,248.018 56.479,248.014Z" style="fill:none;stroke:white;stroke-width:0.22px;"/>
        <path d="M121.053,98.642L133.611,98.642L133.611,108.126C133.414,114.915 127.843,120.317 121.053,120.324C115.135,120.327 109.895,116.493 108.093,110.856C106.288,105.196 106.288,99.113 108.093,93.454C109.651,88.526 113.87,84.909 118.978,84.124C124.083,83.334 129.235,85.57 132.206,89.799L127.308,92.988C125.75,90.611 122.982,89.324 120.16,89.664C117.338,90.005 114.967,91.878 114.022,94.561C112.273,99.473 112.272,104.837 114.022,109.752C115.083,112.726 117.895,114.713 121.053,114.713C122.802,114.713 124.476,114.016 125.712,112.777C126.947,111.543 127.64,109.874 127.638,108.126L127.638,104.262L121.053,104.262L121.053,98.642ZM90.121,100.114C91.871,100.114 93.49,99.181 94.365,97.663C95.241,96.146 95.241,94.278 94.365,92.761C93.49,91.246 91.871,90.31 90.121,90.31L83.643,90.31L83.643,100.114L90.121,100.114ZM77.691,119.717L77.691,84.711L90.47,84.711C94.223,84.711 97.689,86.71 99.566,89.96C101.444,93.21 101.444,97.214 99.566,100.464C97.689,103.714 94.223,105.716 90.47,105.716L83.643,105.716L83.643,119.717L77.691,119.717ZM56.596,114.122L72.341,114.122L72.341,119.717L50.648,119.717L50.648,84.73L56.596,84.73L56.596,114.122Z" style="fill:rgb(35,31,32);"/>
        <path d="M121.053,98.642L133.611,98.642L133.611,108.126C133.414,114.915 127.843,120.317 121.053,120.324C115.135,120.327 109.895,116.493 108.093,110.856C106.288,105.196 106.288,99.113 108.093,93.454C109.651,88.526 113.87,84.909 118.978,84.124C124.083,83.334 129.235,85.57 132.206,89.799L127.308,92.988C125.75,90.611 122.982,89.324 120.16,89.664C117.338,90.005 114.967,91.878 114.022,94.561C112.273,99.473 112.272,104.837 114.022,109.752C115.083,112.726 117.895,114.713 121.053,114.713C122.802,114.713 124.476,114.016 125.712,112.777C126.947,111.543 127.64,109.874 127.638,108.126L127.638,104.262L121.053,104.262L121.053,98.642ZM90.121,100.114C91.871,100.114 93.49,99.181 94.365,97.663C95.241,96.146 95.241,94.278 94.365,92.761C93.49,91.246 91.871,90.31 90.121,90.31L83.643,90.31L83.643,100.114L90.121,100.114ZM77.691,119.717L77.691,84.711L90.47,84.711C94.223,84.711 97.689,86.71 99.566,89.96C101.444,93.21 101.444,97.214 99.566,100.464C97.689,103.714 94.223,105.716 90.47,105.716L83.643,105.716L83.643,119.717L77.691,119.717ZM56.596,114.122L72.341,114.122L72.341,119.717L50.648,119.717L50.648,84.73L56.596,84.73L56.596,114.122Z" style="fill:none;stroke:rgb(35,31,32);stroke-width:0.22px;"/>
        <path d="M191.132,117.721L160.503,117.721C157.547,117.725 154.712,118.899 152.625,120.991C150.535,123.083 149.365,125.903 149.366,128.861L149.366,133.327L160.503,133.327L160.503,128.566L191.132,128.566L191.132,148.057L175.529,148.057L175.529,220.747L202.271,220.747L202.271,128.861C202.268,125.903 201.093,123.07 199.001,120.981C196.91,118.892 194.087,117.721 191.132,117.721Z" style="fill:rgb(0,64,128);"/>
        <path d="M191.132,117.721L160.503,117.721C157.547,117.725 154.712,118.899 152.625,120.991C150.535,123.083 149.365,125.903 149.366,128.861L149.366,133.327L160.503,133.327L160.503,128.566L191.132,128.566L191.132,148.057L175.529,148.057L175.529,220.747L202.271,220.747L202.271,128.861C202.268,125.903 201.093,123.07 199.001,120.981C196.91,118.892 194.087,117.721 191.132,117.721Z" style="fill:none;stroke:rgb(0,64,128);stroke-width:0.22px;"/>
        <path d="M122.625,152.818L111.835,152.818C107.989,152.818 104.633,155.449 103.722,159.187L90.881,211.763C90.118,215.472 91.39,219.983 94.414,222.257C97.438,224.536 101.503,224.866 104.856,223.108C108.207,221.349 110.248,217.817 110.093,214.038L109.906,166.897L116.61,160.878L122.625,160.878L122.625,152.818ZM98.28,157.875C99.799,151.634 105.385,147.252 111.807,147.249L122.625,147.249L122.625,144.464C122.623,141.508 123.794,138.685 125.884,136.596C127.972,134.505 130.807,133.327 133.761,133.327L164.39,133.327C167.347,133.324 170.167,134.495 172.259,136.584C174.351,138.673 175.527,141.508 175.529,144.464L175.529,236.352L122.625,236.352L122.625,174.799L115.663,174.799L115.663,214.076C116.005,219.944 112.939,223.715 107.787,226.541C102.634,229.371 96.313,228.982 91.545,225.547C86.776,222.107 84.411,216.232 85.469,210.451L98.28,157.875ZM164.39,144.172L133.761,144.172L133.761,163.663L164.39,163.663L164.39,144.172Z" style="fill:rgb(35,31,32);"/>
        <path d="M122.625,152.818L111.835,152.818C107.989,152.818 104.633,155.449 103.722,159.187L90.881,211.763C90.118,215.472 91.39,219.983 94.414,222.257C97.438,224.536 101.503,224.866 104.856,223.108C108.207,221.349 110.248,217.817 110.093,214.038L109.906,166.897L116.61,160.878L122.625,160.878L122.625,152.818ZM98.28,157.875C99.799,151.634 105.385,147.252 111.807,147.249L122.625,147.249L122.625,144.464C122.623,141.508 123.794,138.685 125.884,136.596C127.972,134.505 130.807,133.327 133.761,133.327L164.39,133.327C167.347,133.324 170.167,134.495 172.259,136.584C174.351,138.673 175.527,141.508 175.529,144.464L175.529,236.352L122.625,236.352L122.625,174.799L115.663,174.799L115.663,214.076C116.005,219.944 112.939,223.715 107.787,226.541C102.634,229.371 96.313,228.982 91.545,225.547C86.776,222.107 84.411,216.232 85.469,210.451L98.28,157.875ZM164.39,144.172L133.761,144.172L133.761,163.663L164.39,163.663L164.39,144.172Z" style="fill:none;stroke:rgb(35,31,32);stroke-width:0.22px;"/>
    </g>
</svg>
