<?xml version="1.0" encoding="UTF-8" standalone="no"?>
<!DOCTYPE svg PUBLIC "-//W3C//DTD SVG 1.1//EN" "http://www.w3.org/Graphics/SVG/1.1/DTD/svg11.dtd">
<svg width="100%" height="100%" viewBox="0 0 171 171" version="1.1" xmlns="http://www.w3.org/2000/svg" xmlns:xlink="http://www.w3.org/1999/xlink" xml:space="preserve" xmlns:serif="http://www.serif.com/" style="fill-rule:evenodd;clip-rule:evenodd;stroke-linecap:round;stroke-linejoin:round;stroke-miterlimit:2;">
    <g>
        <rect x="0" y="0.936" width="170.064" height="170.064" style="fill:none;"/>
        <path d="M157.045,171L158.491,170.91L159.938,170.639L161.294,170.277L162.741,169.644L163.916,169.012L165.182,168.107L166.267,167.113L167.171,166.027L168.075,164.852L168.799,163.586L169.341,162.23L169.793,160.783L169.974,159.338L170.064,157.891L170.064,13.955L169.974,12.51L169.793,11.063L169.341,9.707L168.799,8.26L168.075,6.995L167.171,5.819L166.267,4.735L165.182,3.741L163.916,2.926L162.741,2.203L161.294,1.66L159.938,1.208L158.491,1.027L157.045,0.936L13.109,0.936L11.663,1.027L10.216,1.208L8.77,1.66L7.413,2.203L6.147,2.926L4.972,3.741L3.887,4.735L2.893,5.819L2.079,6.995L1.265,8.26L0.723,9.707L0.361,11.063L0.09,12.51L0,13.955L0,157.891L0.09,159.338L0.361,160.783L0.723,162.23L1.265,163.586L2.079,164.852L2.893,166.027L3.887,167.113L4.972,168.107L6.147,169.012L7.413,169.644L8.77,170.277L10.216,170.639L11.663,170.91L13.109,171L157.045,171Z" style="fill:white;fill-rule:nonzero;"/>
        <path d="M157.045,171L158.491,170.91L159.938,170.639L161.294,170.277L162.741,169.644L163.916,169.012L165.182,168.107L166.267,167.113L167.171,166.027L168.075,164.852L168.799,163.586L169.341,162.23L169.793,160.783L169.974,159.338L170.064,157.891L170.064,13.955L169.974,12.51L169.793,11.063L169.341,9.707L168.799,8.26L168.075,6.995L167.171,5.819L166.267,4.735L165.182,3.741L163.916,2.926L162.741,2.203L161.294,1.66L159.938,1.208L158.491,1.027L157.045,0.936L13.109,0.936L11.663,1.027L10.216,1.208L8.77,1.66L7.413,2.203L6.147,2.926L4.972,3.741L3.887,4.735L2.893,5.819L2.079,6.995L1.265,8.26L0.723,9.707L0.361,11.063L0.09,12.51L0,13.955L0,157.891L0.09,159.338L0.361,160.783L0.723,162.23L1.265,163.586L2.079,164.852L2.893,166.027L3.887,167.113L4.972,168.107L6.147,169.012L7.413,169.644L8.77,170.277L10.216,170.639L11.663,170.91L13.109,171L157.045,171Z" style="fill:none;"/>
        <path d="M157,164.445L157.994,164.355L158.989,164.174L159.893,163.812L160.796,163.18L161.611,162.547L162.244,161.732L162.786,160.92L163.147,159.924L163.418,158.93L163.509,157.936L163.509,14L163.418,13.006L163.147,12.012L162.786,11.018L162.244,10.204L161.611,9.391L160.796,8.666L159.893,8.215L158.989,7.762L157.994,7.582L157,7.491L13.064,7.491L11.979,7.582L10.984,7.762L10.08,8.215L9.176,8.666L8.453,9.391L7.729,10.204L7.277,11.018L6.825,12.012L6.554,13.006L6.554,158.93L6.825,159.924L7.277,160.92L7.729,161.732L8.453,162.547L9.176,163.18L10.08,163.812L10.984,164.174L11.979,164.355L13.064,164.445L157,164.445Z" style="fill:rgb(0,64,128);fill-rule:nonzero;"/>
        <path d="M157,164.445L157.994,164.355L158.989,164.174L159.893,163.812L160.796,163.18L161.611,162.547L162.244,161.732L162.786,160.92L163.147,159.924L163.418,158.93L163.509,157.936L163.509,14L163.418,13.006L163.147,12.012L162.786,11.018L162.244,10.204L161.611,9.391L160.796,8.666L159.893,8.215L158.989,7.762L157.994,7.582L157,7.491L13.064,7.491L11.979,7.582L10.984,7.762L10.08,8.215L9.176,8.666L8.453,9.391L7.729,10.204L7.277,11.018L6.825,12.012L6.554,13.006L6.554,158.93L6.825,159.924L7.277,160.92L7.729,161.732L8.453,162.547L9.176,163.18L10.08,163.812L10.984,164.174L11.979,164.355L13.064,164.445L157,164.445Z" style="fill:none;"/>
        <path d="M132.182,144.826L133.538,144.736L134.984,144.465L136.341,144.103L137.606,143.471L138.872,142.746L139.957,141.934L140.951,140.848L141.855,139.764L142.579,138.588L143.212,137.232L143.573,135.875L143.845,134.519L143.936,133.072L143.936,38.864L143.845,37.418L143.573,36.061L143.212,34.705L142.579,33.44L141.855,32.174L140.951,31.088L139.957,30.094L138.872,29.19L137.606,28.467L136.341,27.834L134.984,27.473L133.538,27.202L132.182,27.112L37.972,27.112L36.526,27.202L35.169,27.473L33.723,27.834L32.547,28.467L31.282,29.19L30.197,30.094L29.202,31.088L28.298,32.174L27.484,33.44L26.942,34.705L26.49,36.061L26.219,37.418L26.128,38.864L26.128,133.072L26.219,134.519L26.49,135.875L26.942,137.232L27.484,138.588L28.298,139.764L29.202,140.848L30.197,141.934L31.282,142.746L32.547,143.471L33.723,144.103L35.169,144.465L36.526,144.736L37.972,144.826L132.182,144.826Z" style="fill:white;fill-rule:nonzero;"/>
        <path d="M132.182,144.826L133.538,144.736L134.984,144.465L136.341,144.103L137.606,143.471L138.872,142.746L139.957,141.934L140.951,140.848L141.855,139.764L142.579,138.588L143.212,137.232L143.573,135.875L143.845,134.519L143.936,133.072L143.936,38.864L143.845,37.418L143.573,36.061L143.212,34.705L142.579,33.44L141.855,32.174L140.951,31.088L139.957,30.094L138.872,29.19L137.606,28.467L136.341,27.834L134.984,27.473L133.538,27.202L132.182,27.112L37.972,27.112L36.526,27.202L35.169,27.473L33.723,27.834L32.547,28.467L31.282,29.19L30.197,30.094L29.202,31.088L28.298,32.174L27.484,33.44L26.942,34.705L26.49,36.061L26.219,37.418L26.128,38.864L26.128,133.072L26.219,134.519L26.49,135.875L26.942,137.232L27.484,138.588L28.298,139.764L29.202,140.848L30.197,141.934L31.282,142.746L32.547,143.471L33.723,144.103L35.169,144.465L36.526,144.736L37.972,144.826L132.182,144.826Z" style="fill:none;"/>
        <path d="M85.96,95.039L38.592,95.039L38.592,131.317L131.799,131.317L131.799,95.039L100.776,95.039L100.776,102.123L120.983,102.123L120.983,123.861L64.98,123.861L64.98,102.123L85.96,102.123L85.96,95.039Z" style="fill:rgb(35,31,32);fill-rule:nonzero;"/>
        <path d="M85.96,95.039L38.592,95.039L38.592,131.317L131.799,131.317L131.799,95.039L100.776,95.039L100.776,102.123L120.983,102.123L120.983,123.861L64.98,123.861L64.98,102.123L85.96,102.123L85.96,95.039Z" style="fill:none;stroke:rgb(35,31,32);stroke-width:0.5px;"/>
        <path d="M102.285,86.981L95.996,86.981L95.996,111.631L101.844,105.809L101.844,112.16L93.403,120.562L84.962,112.16L84.962,105.809L90.812,111.631L90.812,86.983L64.523,86.985C64.468,82.231 60.6,78.407 55.847,78.407C51.093,78.407 47.224,82.233 47.171,86.987L40.014,86.987L38.52,82.813L38.52,74.987C38.688,74.133 39.292,73.432 40.11,73.139L49.555,68.291L55.277,57.319L47.531,57.319L47.531,53.153L50.931,46.563L58.1,42.825L81.324,42.825L88.819,44.948L130.073,44.948C131.103,44.928 131.984,45.672 132.136,46.686L132.136,85.313C132.08,86.278 131.263,87.018 130.297,86.977L119.634,86.979C119.577,82.229 115.71,78.407 110.959,78.407C106.205,78.407 102.338,82.231 102.285,86.981Z" style="fill:rgb(35,31,32);fill-rule:nonzero;"/>
        <path d="M102.285,86.981L95.996,86.981L95.996,111.631L101.844,105.809L101.844,112.16L93.403,120.562L84.962,112.16L84.962,105.809L90.812,111.631L90.812,86.983L64.523,86.985C64.468,82.231 60.6,78.407 55.847,78.407C51.093,78.407 47.224,82.233 47.171,86.987L40.014,86.987L38.52,82.813L38.52,74.987C38.688,74.133 39.292,73.432 40.11,73.139L49.555,68.291L55.277,57.319L47.531,57.319L47.531,53.153L50.931,46.563L58.1,42.825L81.324,42.825L88.819,44.948L130.073,44.948C131.103,44.928 131.984,45.672 132.136,46.686L132.136,85.313C132.08,86.278 131.263,87.018 130.297,86.977L119.634,86.979C119.577,82.229 115.71,78.407 110.959,78.407C106.205,78.407 102.338,82.231 102.285,86.981Z" style="fill:none;stroke:rgb(35,31,32);stroke-width:0.5px;"/>
        <path d="M62.489,87.082C62.489,83.414 59.515,80.442 55.847,80.442C52.179,80.442 49.206,83.414 49.206,87.082C49.206,90.75 52.179,93.723 55.847,93.723C59.515,93.723 62.489,90.75 62.489,87.082Z" style="fill:rgb(35,31,32);fill-rule:nonzero;"/>
        <path d="M62.489,87.082C62.489,83.414 59.515,80.442 55.847,80.442C52.179,80.442 49.206,83.414 49.206,87.082C49.206,90.75 52.179,93.723 55.847,93.723C59.515,93.723 62.489,90.75 62.489,87.082Z" style="fill:none;stroke:rgb(35,31,32);stroke-width:0.5px;"/>
        <path d="M117.599,87.082C117.599,83.414 114.627,80.442 110.959,80.442C107.292,80.442 104.32,83.414 104.32,87.082C104.32,90.75 107.292,93.723 110.959,93.723C114.627,93.723 117.599,90.75 117.599,87.082Z" style="fill:rgb(35,31,32);fill-rule:nonzero;"/>
        <path d="M117.599,87.082C117.599,83.414 114.627,80.442 110.959,80.442C107.292,80.442 104.32,83.414 104.32,87.082C104.32,90.75 107.292,93.723 110.959,93.723C114.627,93.723 117.599,90.75 117.599,87.082Z" style="fill:none;stroke:rgb(35,31,32);stroke-width:0.5px;"/>
        <path d="M69.912,52.274L52.879,52.274C52.713,52.274 52.559,52.188 52.474,52.045C52.391,51.901 52.387,51.725 52.465,51.579L54.042,48.674C54.123,48.52 54.283,48.426 54.455,48.426L69.912,48.426C70.038,48.426 70.157,48.477 70.246,48.565C70.335,48.655 70.384,48.774 70.384,48.897L70.384,51.803C70.384,51.928 70.335,52.049 70.246,52.137C70.157,52.225 70.038,52.274 69.912,52.274Z" style="fill:white;fill-rule:nonzero;"/>
        <path d="M54.667,68.498C54.543,68.508 54.423,68.452 54.354,68.348C54.285,68.245 54.276,68.112 54.333,68.002L59.309,58.366L70.384,58.366L70.384,65.975C70.384,66.584 69.921,67.094 69.314,67.149L54.667,68.498Z" style="fill:white;fill-rule:nonzero;"/>
        <path d="M89.086,66.065C89.086,66.309 88.99,66.541 88.818,66.713C88.646,66.885 88.413,66.981 88.17,66.981L80.373,66.981C80.129,66.981 79.895,66.885 79.725,66.713C79.552,66.541 79.455,66.309 79.455,66.065L79.455,54.51C79.455,54.266 79.552,54.034 79.725,53.862C79.895,53.69 80.129,53.594 80.373,53.594L88.17,53.594C88.413,53.594 88.646,53.69 88.818,53.862C88.99,54.034 89.086,54.266 89.086,54.51L89.086,66.065Z" style="fill:white;fill-rule:nonzero;"/>
        <path d="M124.864,66.889C125.176,66.889 125.478,66.764 125.699,66.543C125.918,66.323 126.043,66.022 126.043,65.709L126.043,54.733C126.043,54.42 125.918,54.12 125.699,53.901C125.478,53.678 125.176,53.555 124.864,53.555L98.158,53.555C97.846,53.555 97.544,53.678 97.324,53.901C97.104,54.12 96.98,54.42 96.98,54.733L96.98,65.709C96.98,66.022 97.104,66.323 97.324,66.543C97.544,66.764 97.846,66.889 98.158,66.889L124.864,66.889Z" style="fill:white;fill-rule:nonzero;"/>
    </g>
</svg>
