<?xml version="1.0" encoding="UTF-8" standalone="no"?>
<!DOCTYPE svg PUBLIC "-//W3C//DTD SVG 1.1//EN" "http://www.w3.org/Graphics/SVG/1.1/DTD/svg11.dtd">
<svg width="100%" height="100%" viewBox="0 0 171 171" version="1.1" xmlns="http://www.w3.org/2000/svg" xmlns:xlink="http://www.w3.org/1999/xlink" xml:space="preserve" xmlns:serif="http://www.serif.com/" style="fill-rule:evenodd;clip-rule:evenodd;stroke-linecap:square;stroke-miterlimit:2;">
    <g>
        <rect x="0" y="0.936" width="170.064" height="170.064" style="fill:none;"/>
        <path d="M157.045,171L158.491,170.91L159.938,170.639L161.294,170.277L162.741,169.644L163.916,169.012L165.182,168.107L166.267,167.113L167.171,166.027L168.075,164.852L168.799,163.586L169.341,162.23L169.793,160.783L169.974,159.338L170.064,157.891L170.064,13.955L169.974,12.51L169.793,11.063L169.341,9.707L168.799,8.26L168.075,6.995L167.171,5.819L166.267,4.735L165.182,3.741L163.916,2.926L162.741,2.203L161.294,1.66L159.938,1.208L158.491,1.027L157.045,0.936L13.109,0.936L11.663,1.027L10.216,1.208L8.77,1.66L7.413,2.203L6.147,2.926L4.972,3.741L3.887,4.735L2.893,5.819L2.079,6.995L1.265,8.26L0.723,9.707L0.361,11.063L0.09,12.51L0,13.955L0,157.891L0.09,159.338L0.361,160.783L0.723,162.23L1.265,163.586L2.079,164.852L2.893,166.027L3.887,167.113L4.972,168.107L6.147,169.012L7.413,169.644L8.77,170.277L10.216,170.639L11.663,170.91L13.109,171L157.045,171Z" style="fill:white;fill-rule:nonzero;"/>
        <path d="M157,164.445L157.994,164.355L158.989,164.174L159.893,163.812L160.796,163.18L161.611,162.547L162.244,161.732L162.786,160.92L163.147,159.924L163.418,158.93L163.509,157.936L163.509,14L163.418,13.006L163.147,12.012L162.786,11.018L162.244,10.204L161.611,9.391L160.796,8.666L159.893,8.215L158.989,7.762L157.994,7.582L157,7.491L13.064,7.491L11.979,7.582L10.984,7.762L10.08,8.215L9.176,8.666L8.453,9.391L7.729,10.204L7.277,11.018L6.825,12.012L6.554,13.006L6.554,158.93L6.825,159.924L7.277,160.92L7.729,161.732L8.453,162.547L9.176,163.18L10.08,163.812L10.984,164.174L11.979,164.355L13.064,164.445L157,164.445Z" style="fill:rgb(0,64,128);fill-rule:nonzero;"/>
        <path d="M157,164.445L157.994,164.355L158.989,164.174L159.893,163.812L160.796,163.18L161.611,162.547L162.244,161.732L162.786,160.92L163.147,159.924L163.418,158.93L163.509,157.936L163.509,14L163.418,13.006L163.147,12.012L162.786,11.018L162.244,10.204L161.611,9.391L160.796,8.666L159.893,8.215L158.989,7.762L157.994,7.582L157,7.491L13.064,7.491L11.979,7.582L10.984,7.762L10.08,8.215L9.176,8.666L8.453,9.391L7.729,10.204L7.277,11.018L6.825,12.012L6.554,13.006L6.554,158.93L6.825,159.924L7.277,160.92L7.729,161.732L8.453,162.547L9.176,163.18L10.08,163.812L10.984,164.174L11.979,164.355L13.064,164.445L157,164.445Z" style="fill:none;stroke:rgb(0,64,128);stroke-width:1px;"/>
        <path d="M132.182,144.826L133.538,144.736L134.984,144.465L136.341,144.103L137.606,143.471L138.872,142.746L139.957,141.934L140.951,140.848L141.855,139.764L142.579,138.588L143.212,137.232L143.573,135.875L143.845,134.519L143.936,133.072L143.936,38.864L143.845,37.418L143.573,36.061L143.212,34.705L142.579,33.44L141.855,32.174L140.951,31.088L139.957,30.094L138.872,29.19L137.606,28.467L136.341,27.834L134.984,27.473L133.538,27.202L132.182,27.112L37.972,27.112L36.526,27.202L35.169,27.473L33.723,27.834L32.547,28.467L31.282,29.19L30.197,30.094L29.202,31.088L28.298,32.174L27.484,33.44L26.942,34.705L26.49,36.061L26.219,37.418L26.128,38.864L26.128,133.072L26.219,134.519L26.49,135.875L26.942,137.232L27.484,138.588L28.298,139.764L29.202,140.848L30.197,141.934L31.282,142.746L32.547,143.471L33.723,144.103L35.169,144.465L36.526,144.736L37.972,144.826L132.182,144.826Z" style="fill:white;fill-rule:nonzero;"/>
        <path d="M132.182,144.826L133.538,144.736L134.984,144.465L136.341,144.103L137.606,143.471L138.872,142.746L139.957,141.934L140.951,140.848L141.855,139.764L142.579,138.588L143.212,137.232L143.573,135.875L143.845,134.519L143.936,133.072L143.936,38.864L143.845,37.418L143.573,36.061L143.212,34.705L142.579,33.44L141.855,32.174L140.951,31.088L139.957,30.094L138.872,29.19L137.606,28.467L136.341,27.834L134.984,27.473L133.538,27.202L132.182,27.112L37.972,27.112L36.526,27.202L35.169,27.473L33.723,27.834L32.547,28.467L31.282,29.19L30.197,30.094L29.202,31.088L28.298,32.174L27.484,33.44L26.942,34.705L26.49,36.061L26.219,37.418L26.128,38.864L26.128,133.072L26.219,134.519L26.49,135.875L26.942,137.232L27.484,138.588L28.298,139.764L29.202,140.848L30.197,141.934L31.282,142.746L32.547,143.471L33.723,144.103L35.169,144.465L36.526,144.736L37.972,144.826L132.182,144.826Z" style="fill:none;"/>
        <path d="M36.772,123.172L47.1,123.172L47.1,135.57L53.823,135.57L53.823,123.172L64.151,123.172C65.722,123.172 66.995,121.896 66.995,120.324C66.995,118.754 65.722,117.48 64.151,117.48L36.772,117.48C35.201,117.48 33.926,118.754 33.926,120.324C33.926,121.896 35.201,123.172 36.772,123.172Z" style="fill:rgb(35,31,32);fill-rule:nonzero;"/>
        <path d="M36.772,123.172L47.1,123.172L47.1,135.57L53.823,135.57L53.823,123.172L64.151,123.172C65.722,123.172 66.995,121.896 66.995,120.324C66.995,118.754 65.722,117.48 64.151,117.48L36.772,117.48C35.201,117.48 33.926,118.754 33.926,120.324C33.926,121.896 35.201,123.172 36.772,123.172Z" style="fill:none;stroke:rgb(35,31,32);stroke-width:0.46px;stroke-linecap:round;stroke-linejoin:round;"/>
        <path d="M85.031,67.776L103.116,36.368L121.2,67.776L112.933,64.911L125.333,88.832L117.067,85.971L133.603,116.969L106.734,111.803L106.734,135.57L99.5,135.57L99.5,111.803L72.63,116.969L89.164,85.971L80.898,88.832L93.297,64.911L85.031,67.776Z" style="fill:rgb(35,31,32);fill-rule:nonzero;"/>
        <path d="M85.031,67.776L103.116,36.368L121.2,67.776L112.933,64.911L125.333,88.832L117.067,85.971L133.603,116.969L106.734,111.803L106.734,135.57L99.5,135.57L99.5,111.803L72.63,116.969L89.164,85.971L80.898,88.832L93.297,64.911L85.031,67.776Z" style="fill:none;stroke:rgb(35,31,32);stroke-width:0.85px;stroke-linecap:round;stroke-linejoin:round;"/>
    </g>
</svg>
