<?xml version="1.0" encoding="UTF-8" standalone="no"?>
<!DOCTYPE svg PUBLIC "-//W3C//DTD SVG 1.1//EN" "http://www.w3.org/Graphics/SVG/1.1/DTD/svg11.dtd">
<svg width="100%" height="100%" viewBox="0 0 171 171" version="1.1" xmlns="http://www.w3.org/2000/svg" xmlns:xlink="http://www.w3.org/1999/xlink" xml:space="preserve" xmlns:serif="http://www.serif.com/" style="fill-rule:evenodd;clip-rule:evenodd;stroke-linecap:round;stroke-linejoin:round;stroke-miterlimit:2;">
    <g>
        <rect x="0" y="0.936" width="170.064" height="170.064" style="fill:none;"/>
        <path d="M157.045,171L158.491,170.91L159.938,170.639L161.294,170.277L162.741,169.644L163.916,169.012L165.182,168.107L166.267,167.113L167.171,166.027L168.075,164.852L168.799,163.586L169.341,162.23L169.793,160.783L169.974,159.338L170.064,157.891L170.064,13.955L169.974,12.51L169.793,11.063L169.341,9.707L168.799,8.26L168.075,6.995L167.171,5.819L166.267,4.735L165.182,3.741L163.916,2.926L162.741,2.203L161.294,1.66L159.938,1.208L158.491,1.027L157.045,0.936L13.109,0.936L11.663,1.027L10.216,1.208L8.77,1.66L7.413,2.203L6.147,2.926L4.972,3.741L3.887,4.735L2.893,5.819L2.079,6.995L1.265,8.26L0.723,9.707L0.361,11.063L0.09,12.51L0,13.955L0,157.891L0.09,159.338L0.361,160.783L0.723,162.23L1.265,163.586L2.079,164.852L2.893,166.027L3.887,167.113L4.972,168.107L6.147,169.012L7.413,169.644L8.77,170.277L10.216,170.639L11.663,170.91L13.109,171L157.045,171Z" style="fill:white;fill-rule:nonzero;"/>
        <path d="M157.045,171L158.491,170.91L159.938,170.639L161.294,170.277L162.741,169.644L163.916,169.012L165.182,168.107L166.267,167.113L167.171,166.027L168.075,164.852L168.799,163.586L169.341,162.23L169.793,160.783L169.974,159.338L170.064,157.891L170.064,13.955L169.974,12.51L169.793,11.063L169.341,9.707L168.799,8.26L168.075,6.995L167.171,5.819L166.267,4.735L165.182,3.741L163.916,2.926L162.741,2.203L161.294,1.66L159.938,1.208L158.491,1.027L157.045,0.936L13.109,0.936L11.663,1.027L10.216,1.208L8.77,1.66L7.413,2.203L6.147,2.926L4.972,3.741L3.887,4.735L2.893,5.819L2.079,6.995L1.265,8.26L0.723,9.707L0.361,11.063L0.09,12.51L0,13.955L0,157.891L0.09,159.338L0.361,160.783L0.723,162.23L1.265,163.586L2.079,164.852L2.893,166.027L3.887,167.113L4.972,168.107L6.147,169.012L7.413,169.644L8.77,170.277L10.216,170.639L11.663,170.91L13.109,171L157.045,171Z" style="fill:none;"/>
        <path d="M157,164.445L157.994,164.355L158.989,164.174L159.893,163.812L160.796,163.18L161.611,162.547L162.244,161.732L162.786,160.92L163.147,159.924L163.418,158.93L163.509,157.936L163.509,14L163.418,13.006L163.147,12.012L162.786,11.018L162.244,10.204L161.611,9.391L160.796,8.666L159.893,8.215L158.989,7.762L157.994,7.582L157,7.491L13.064,7.491L11.979,7.582L10.984,7.762L10.08,8.215L9.176,8.666L8.453,9.391L7.729,10.204L7.277,11.018L6.825,12.012L6.554,13.006L6.554,158.93L6.825,159.924L7.277,160.92L7.729,161.732L8.453,162.547L9.176,163.18L10.08,163.812L10.984,164.174L11.979,164.355L13.064,164.445L157,164.445Z" style="fill:rgb(0,64,128);fill-rule:nonzero;"/>
        <path d="M157,164.445L157.994,164.355L158.989,164.174L159.893,163.812L160.796,163.18L161.611,162.547L162.244,161.732L162.786,160.92L163.147,159.924L163.418,158.93L163.509,157.936L163.509,14L163.418,13.006L163.147,12.012L162.786,11.018L162.244,10.204L161.611,9.391L160.796,8.666L159.893,8.215L158.989,7.762L157.994,7.582L157,7.491L13.064,7.491L11.979,7.582L10.984,7.762L10.08,8.215L9.176,8.666L8.453,9.391L7.729,10.204L7.277,11.018L6.825,12.012L6.554,13.006L6.554,158.93L6.825,159.924L7.277,160.92L7.729,161.732L8.453,162.547L9.176,163.18L10.08,163.812L10.984,164.174L11.979,164.355L13.064,164.445L157,164.445Z" style="fill:none;"/>
        <path d="M132.182,144.826L133.538,144.736L134.984,144.465L136.341,144.103L137.606,143.471L138.872,142.746L139.957,141.934L140.951,140.848L141.855,139.764L142.579,138.588L143.212,137.232L143.573,135.875L143.845,134.519L143.936,133.072L143.936,38.864L143.845,37.418L143.573,36.061L143.212,34.705L142.579,33.44L141.855,32.174L140.951,31.088L139.957,30.094L138.872,29.19L137.606,28.467L136.341,27.834L134.984,27.473L133.538,27.202L132.182,27.112L37.972,27.112L36.526,27.202L35.169,27.473L33.723,27.834L32.547,28.467L31.282,29.19L30.197,30.094L29.202,31.088L28.298,32.174L27.484,33.44L26.942,34.705L26.49,36.061L26.219,37.418L26.128,38.864L26.128,133.072L26.219,134.519L26.49,135.875L26.942,137.232L27.484,138.588L28.298,139.764L29.202,140.848L30.197,141.934L31.282,142.746L32.547,143.471L33.723,144.103L35.169,144.465L36.526,144.736L37.972,144.826L132.182,144.826Z" style="fill:white;fill-rule:nonzero;"/>
        <path d="M132.182,144.826L133.538,144.736L134.984,144.465L136.341,144.103L137.606,143.471L138.872,142.746L139.957,141.934L140.951,140.848L141.855,139.764L142.579,138.588L143.212,137.232L143.573,135.875L143.845,134.519L143.936,133.072L143.936,38.864L143.845,37.418L143.573,36.061L143.212,34.705L142.579,33.44L141.855,32.174L140.951,31.088L139.957,30.094L138.872,29.19L137.606,28.467L136.341,27.834L134.984,27.473L133.538,27.202L132.182,27.112L37.972,27.112L36.526,27.202L35.169,27.473L33.723,27.834L32.547,28.467L31.282,29.19L30.197,30.094L29.202,31.088L28.298,32.174L27.484,33.44L26.942,34.705L26.49,36.061L26.219,37.418L26.128,38.864L26.128,133.072L26.219,134.519L26.49,135.875L26.942,137.232L27.484,138.588L28.298,139.764L29.202,140.848L30.197,141.934L31.282,142.746L32.547,143.471L33.723,144.103L35.169,144.465L36.526,144.736L37.972,144.826L132.182,144.826Z" style="fill:none;"/>
        <path d="M76.677,86.088L71.136,80.297C66.032,82.651 60.108,82.416 55.206,79.661C51.16,77.272 47.751,73.94 45.269,69.95C43.591,67.02 42.002,64.041 40.504,61.016C38.838,57.057 37.842,52.846 37.56,48.557C37.672,45.885 38.863,43.379 40.859,41.604C42.856,39.829 45.487,38.94 48.15,39.143C51.348,39.573 54.494,40.319 57.543,41.366C62.396,43.137 66.931,45.68 70.97,48.905C74,51.032 76.464,53.868 78.146,57.17C80.001,60.573 80.66,64.502 80.013,68.327C79.783,69.786 79.323,71.2 78.65,72.516L84.668,78.262L95.196,68.356C94.522,67.016 94.142,65.549 94.078,64.059C93.879,59.893 95.509,55.85 98.538,52.987L115.227,36.135C116.427,35.166 118.114,35.092 119.396,35.952C120.191,36.469 120.73,37.307 120.883,38.245C121.033,39.186 120.777,40.149 120.184,40.893L102.799,58.051C102.522,58.584 102.451,59.194 102.597,59.776C102.75,60.274 103.087,60.692 103.545,60.948C104.28,61.411 105.242,61.286 105.839,60.657L122.694,43.5C123.895,42.534 125.581,42.463 126.863,43.315C127.644,43.819 128.177,44.622 128.336,45.538C128.493,46.45 128.261,47.391 127.694,48.123L110.178,65.43C109.901,65.961 109.83,66.573 109.976,67.155C110.128,67.653 110.465,68.071 110.923,68.327C111.662,68.788 112.621,68.664 113.217,68.036L130.073,50.879C131.273,49.913 132.959,49.842 134.241,50.698C135.03,51.215 135.569,52.043 135.726,52.973C135.878,53.907 135.637,54.862 135.058,55.608L119.647,71.032C118.128,72.573 116.427,73.922 114.584,75.051C112.653,76.221 110.458,76.885 108.204,76.977C106.272,77.073 104.347,76.678 102.604,75.84L92.811,86.038L131.06,122.557C132.207,123.498 133.045,124.756 133.471,126.176C134.575,129.705 132.743,133.482 129.287,134.805C126.725,135.912 123.738,135.301 121.817,133.273L84.7,94.475L48.315,132.353C47.034,133.795 45.281,134.732 43.371,135C40.635,135.297 37.984,133.937 36.635,131.537C34.97,128.742 35.448,125.168 37.789,122.906L76.704,86.067L76.677,86.088Z" style="fill:rgb(35,31,32);fill-rule:nonzero;"/>
        <path d="M76.677,86.088L71.136,80.297C66.032,82.651 60.108,82.416 55.206,79.661C51.16,77.272 47.751,73.94 45.269,69.95C43.591,67.02 42.002,64.041 40.504,61.016C38.838,57.057 37.842,52.846 37.56,48.557C37.672,45.885 38.863,43.379 40.859,41.604C42.856,39.829 45.487,38.94 48.15,39.143C51.348,39.573 54.494,40.319 57.543,41.366C62.396,43.137 66.931,45.68 70.97,48.905C74,51.032 76.464,53.868 78.146,57.17C80.001,60.573 80.66,64.502 80.013,68.327C79.783,69.786 79.323,71.2 78.65,72.516L84.668,78.262L95.196,68.356C94.522,67.016 94.142,65.549 94.078,64.059C93.879,59.893 95.509,55.85 98.538,52.987L115.227,36.135C116.427,35.166 118.114,35.092 119.396,35.952C120.191,36.469 120.73,37.307 120.883,38.245C121.033,39.186 120.777,40.149 120.184,40.893L102.799,58.051C102.522,58.584 102.451,59.194 102.597,59.776C102.75,60.274 103.087,60.692 103.545,60.948C104.28,61.411 105.242,61.286 105.839,60.657L122.694,43.5C123.895,42.534 125.581,42.463 126.863,43.315C127.644,43.819 128.177,44.622 128.336,45.538C128.493,46.45 128.261,47.391 127.694,48.123L110.178,65.43C109.901,65.961 109.83,66.573 109.976,67.155C110.128,67.653 110.465,68.071 110.923,68.327C111.662,68.788 112.621,68.664 113.217,68.036L130.073,50.879C131.273,49.913 132.959,49.842 134.241,50.698C135.03,51.215 135.569,52.043 135.726,52.973C135.878,53.907 135.637,54.862 135.058,55.608L119.647,71.032C118.128,72.573 116.427,73.922 114.584,75.051C112.653,76.221 110.458,76.885 108.204,76.977C106.272,77.073 104.347,76.678 102.604,75.84L92.811,86.038L131.06,122.557C132.207,123.498 133.045,124.756 133.471,126.176C134.575,129.705 132.743,133.482 129.287,134.805C126.725,135.912 123.738,135.301 121.817,133.273L84.7,94.475L48.315,132.353C47.034,133.795 45.281,134.732 43.371,135C40.635,135.297 37.984,133.937 36.635,131.537C34.97,128.742 35.448,125.168 37.789,122.906L76.704,86.067L76.677,86.088Z" style="fill:none;stroke:white;stroke-width:0.5px;"/>
    </g>
</svg>
