<?xml version="1.0" encoding="UTF-8" standalone="no"?>
<!DOCTYPE svg PUBLIC "-//W3C//DTD SVG 1.1//EN" "http://www.w3.org/Graphics/SVG/1.1/DTD/svg11.dtd">
<svg width="100%" height="100%" viewBox="0 0 171 171" version="1.1" xmlns="http://www.w3.org/2000/svg" xmlns:xlink="http://www.w3.org/1999/xlink" xml:space="preserve" xmlns:serif="http://www.serif.com/" style="fill-rule:evenodd;clip-rule:evenodd;stroke-linecap:round;stroke-linejoin:round;stroke-miterlimit:2;">
    <g>
        <rect x="0.393" y="0.157" width="170.064" height="170.064" style="fill:none;"/>
        <path d="M157.438,170.221L158.884,170.131L160.331,169.86L161.687,169.498L163.134,168.866L164.309,168.233L165.574,167.329L166.659,166.334L167.564,165.248L168.468,164.073L169.191,162.807L169.733,161.452L170.186,160.004L170.366,158.559L170.457,157.112L170.457,13.176L170.366,11.731L170.186,10.284L169.733,8.928L169.191,7.481L168.468,6.215L167.564,5.04L166.659,3.956L165.574,2.961L164.309,2.147L163.134,1.424L161.687,0.881L160.331,0.429L158.884,0.248L157.438,0.157L13.502,0.157L12.056,0.248L10.609,0.429L9.163,0.881L7.806,1.424L6.541,2.147L5.365,2.961L4.28,3.956L3.286,5.04L2.472,6.215L1.658,7.481L1.116,8.928L0.754,10.284L0.483,11.731L0.393,13.176L0.393,157.112L0.483,158.559L0.754,160.004L1.116,161.452L1.658,162.807L2.472,164.073L3.286,165.248L4.28,166.334L5.365,167.329L6.541,168.233L7.806,168.866L9.163,169.498L10.609,169.86L12.056,170.131L13.502,170.221L157.438,170.221Z" style="fill:white;fill-rule:nonzero;"/>
        <path d="M157.438,170.221L158.884,170.131L160.331,169.86L161.687,169.498L163.134,168.866L164.309,168.233L165.574,167.329L166.659,166.334L167.564,165.248L168.468,164.073L169.191,162.807L169.733,161.452L170.186,160.004L170.366,158.559L170.457,157.112L170.457,13.176L170.366,11.731L170.186,10.284L169.733,8.928L169.191,7.481L168.468,6.215L167.564,5.04L166.659,3.956L165.574,2.961L164.309,2.147L163.134,1.424L161.687,0.881L160.331,0.429L158.884,0.248L157.438,0.157L13.502,0.157L12.056,0.248L10.609,0.429L9.163,0.881L7.806,1.424L6.541,2.147L5.365,2.961L4.28,3.956L3.286,5.04L2.472,6.215L1.658,7.481L1.116,8.928L0.754,10.284L0.483,11.731L0.393,13.176L0.393,157.112L0.483,158.559L0.754,160.004L1.116,161.452L1.658,162.807L2.472,164.073L3.286,165.248L4.28,166.334L5.365,167.329L6.541,168.233L7.806,168.866L9.163,169.498L10.609,169.86L12.056,170.131L13.502,170.221L157.438,170.221Z" style="fill:none;"/>
        <path d="M157.392,163.666L158.386,163.577L159.381,163.395L160.286,163.034L161.189,162.401L162.003,161.768L162.636,160.954L163.178,160.141L163.54,159.145L163.811,158.151L163.902,157.157L163.902,13.221L163.811,12.227L163.54,11.233L163.178,10.239L162.636,9.424L162.003,8.612L161.189,7.887L160.286,7.436L159.381,6.983L158.386,6.803L157.392,6.711L13.457,6.711L12.372,6.803L11.377,6.983L10.473,7.436L9.569,7.887L8.846,8.612L8.123,9.424L7.67,10.239L7.218,11.233L6.947,12.227L6.947,158.151L7.218,159.145L7.67,160.141L8.123,160.954L8.846,161.768L9.569,162.401L10.473,163.034L11.377,163.395L12.372,163.577L13.457,163.666L157.392,163.666Z" style="fill:rgb(0,64,128);fill-rule:nonzero;"/>
        <path d="M157.392,163.666L158.386,163.577L159.381,163.395L160.286,163.034L161.189,162.401L162.003,161.768L162.636,160.954L163.178,160.141L163.54,159.145L163.811,158.151L163.902,157.157L163.902,13.221L163.811,12.227L163.54,11.233L163.178,10.239L162.636,9.424L162.003,8.612L161.189,7.887L160.286,7.436L159.381,6.983L158.386,6.803L157.392,6.711L13.457,6.711L12.372,6.803L11.377,6.983L10.473,7.436L9.569,7.887L8.846,8.612L8.123,9.424L7.67,10.239L7.218,11.233L6.947,12.227L6.947,158.151L7.218,159.145L7.67,160.141L8.123,160.954L8.846,161.768L9.569,162.401L10.473,163.034L11.377,163.395L12.372,163.577L13.457,163.666L157.392,163.666Z" style="fill:none;"/>
        <path d="M132.574,144.047L133.931,143.957L135.377,143.686L136.733,143.325L137.999,142.692L139.265,141.967L140.35,141.155L141.344,140.069L142.248,138.985L142.972,137.809L143.605,136.454L143.966,135.096L144.237,133.741L144.328,132.293L144.328,38.084L144.237,36.639L143.966,35.282L143.605,33.926L142.972,32.661L142.248,31.395L141.344,30.309L140.35,29.315L139.265,28.411L137.999,27.688L136.733,27.055L135.377,26.694L133.931,26.422L132.574,26.332L38.365,26.332L36.919,26.422L35.563,26.694L34.116,27.055L32.94,27.688L31.675,28.411L30.59,29.315L29.595,30.309L28.691,31.395L27.877,32.661L27.335,33.926L26.883,35.282L26.612,36.639L26.522,38.084L26.522,132.293L26.612,133.741L26.883,135.096L27.335,136.454L27.877,137.809L28.691,138.985L29.595,140.069L30.59,141.155L31.675,141.967L32.94,142.692L34.116,143.325L35.563,143.686L36.919,143.957L38.365,144.047L132.574,144.047Z" style="fill:white;fill-rule:nonzero;"/>
        <path d="M132.574,144.047L133.931,143.957L135.377,143.686L136.733,143.325L137.999,142.692L139.265,141.967L140.35,141.155L141.344,140.069L142.248,138.985L142.972,137.809L143.605,136.454L143.966,135.096L144.237,133.741L144.328,132.293L144.328,38.084L144.237,36.639L143.966,35.282L143.605,33.926L142.972,32.661L142.248,31.395L141.344,30.309L140.35,29.315L139.265,28.411L137.999,27.688L136.733,27.055L135.377,26.694L133.931,26.422L132.574,26.332L38.365,26.332L36.919,26.422L35.563,26.694L34.116,27.055L32.94,27.688L31.675,28.411L30.59,29.315L29.595,30.309L28.691,31.395L27.877,32.661L27.335,33.926L26.883,35.282L26.612,36.639L26.522,38.084L26.522,132.293L26.612,133.741L26.883,135.096L27.335,136.454L27.877,137.809L28.691,138.985L29.595,140.069L30.59,141.155L31.675,141.967L32.94,142.692L34.116,143.325L35.563,143.686L36.919,143.957L38.365,144.047L132.574,144.047Z" style="fill:none;"/>
        <path d="M36.209,92.432C36.329,91.608 36.849,90.893 37.597,90.528L47.956,85.252L53.771,73.997C53.792,73.954 53.79,73.903 53.765,73.864C53.742,73.825 53.7,73.803 53.653,73.803L45.623,73.803L45.623,69.514L49.401,62.504L56.797,58.543L81.016,58.543L89.067,60.75L132.291,60.75C132.845,60.75 133.377,60.971 133.772,61.362C134.162,61.756 134.382,62.29 134.382,62.846L134.382,102.959C134.382,103.516 134.162,104.049 133.772,104.44C133.377,104.834 132.845,105.055 132.291,105.055L121.322,105.055C121.333,101.762 119.579,98.715 116.728,97.065C113.88,95.418 110.365,95.418 107.513,97.065C104.662,98.715 102.912,101.762 102.918,105.055L63.543,105.055C63.549,101.762 61.797,98.715 58.948,97.065C56.096,95.418 52.583,95.418 49.731,97.065C46.882,98.715 45.13,101.762 45.137,105.055L37.613,105.055L36.209,100.541L36.209,92.432Z" style="fill:rgb(35,31,32);fill-rule:nonzero;"/>
        <path d="M36.209,92.432C36.329,91.608 36.849,90.893 37.597,90.528L47.956,85.252L53.771,73.997C53.792,73.954 53.79,73.903 53.765,73.864C53.742,73.825 53.7,73.803 53.653,73.803L45.623,73.803L45.623,69.514L49.401,62.504L56.797,58.543L81.016,58.543L89.067,60.75L132.291,60.75C132.845,60.75 133.377,60.971 133.772,61.362C134.162,61.756 134.382,62.29 134.382,62.846L134.382,102.959C134.382,103.516 134.162,104.049 133.772,104.44C133.377,104.834 132.845,105.055 132.291,105.055L121.322,105.055C121.333,101.762 119.579,98.715 116.728,97.065C113.88,95.418 110.365,95.418 107.513,97.065C104.662,98.715 102.912,101.762 102.918,105.055L63.543,105.055C63.549,101.762 61.797,98.715 58.948,97.065C56.096,95.418 52.583,95.418 49.731,97.065C46.882,98.715 45.13,101.762 45.137,105.055L37.613,105.055L36.209,100.541L36.209,92.432Z" style="fill:none;stroke:rgb(35,31,32);stroke-width:0.5px;"/>
        <path d="M61.321,105.034C61.321,101.176 58.197,98.051 54.34,98.051C50.484,98.051 47.358,101.176 47.358,105.034C47.358,108.889 50.484,112.014 54.34,112.014C58.197,112.014 61.321,108.889 61.321,105.034Z" style="fill:rgb(35,31,32);fill-rule:nonzero;"/>
        <path d="M61.321,105.034C61.321,101.176 58.197,98.051 54.34,98.051C50.484,98.051 47.358,101.176 47.358,105.034C47.358,108.889 50.484,112.014 54.34,112.014C58.197,112.014 61.321,108.889 61.321,105.034Z" style="fill:none;stroke:rgb(35,31,32);stroke-width:0.5px;"/>
        <path d="M119.103,105.034C119.103,101.176 115.979,98.051 112.122,98.051C108.266,98.051 105.138,101.176 105.138,105.034C105.138,108.889 108.266,112.014 112.122,112.014C115.979,112.014 119.103,108.889 119.103,105.034Z" style="fill:rgb(35,31,32);fill-rule:nonzero;"/>
        <path d="M119.103,105.034C119.103,101.176 115.979,98.051 112.122,98.051C108.266,98.051 105.138,101.176 105.138,105.034C105.138,108.889 108.266,112.014 112.122,112.014C115.979,112.014 119.103,108.889 119.103,105.034Z" style="fill:none;stroke:rgb(35,31,32);stroke-width:0.5px;"/>
        <path d="M97.522,71.342C97.522,70.995 97.656,70.665 97.901,70.416C98.15,70.172 98.48,70.034 98.828,70.034L126.744,70.034C127.092,70.034 127.426,70.172 127.671,70.416C127.916,70.665 128.055,70.995 128.055,71.342L128.055,82.678C128.055,83.026 127.916,83.356 127.671,83.604C127.426,83.848 127.092,83.987 126.744,83.987L98.828,83.987C98.48,83.987 98.15,83.848 97.901,83.604C97.656,83.356 97.522,83.026 97.522,82.678L97.522,71.342Z" style="fill:white;fill-rule:nonzero;"/>
        <path d="M80.453,83.987C80.105,83.987 79.773,83.848 79.528,83.604C79.281,83.356 79.145,83.026 79.145,82.678L79.145,71.342C79.145,70.995 79.281,70.665 79.528,70.416C79.773,70.172 80.105,70.034 80.453,70.034L88.027,70.034C88.375,70.034 88.707,70.172 88.952,70.416C89.198,70.665 89.335,70.995 89.335,71.342L89.335,82.678C89.335,83.026 89.198,83.356 88.952,83.604C88.707,83.848 88.375,83.987 88.027,83.987L80.453,83.987Z" style="fill:white;fill-rule:nonzero;"/>
        <path d="M53.293,85.545C53.149,85.557 53.011,85.493 52.931,85.372C52.851,85.254 52.842,85.102 52.908,84.975L58.056,74.983L69.678,74.983L69.678,82.873C69.678,83.547 69.161,84.116 68.487,84.172L53.293,85.545Z" style="fill:white;fill-rule:nonzero;"/>
        <path d="M69.222,68.567L51.205,68.567C51.066,68.567 50.939,68.493 50.868,68.375C50.797,68.258 50.795,68.108 50.861,67.987L52.771,64.461L69.222,64.461C69.36,64.461 69.493,64.514 69.593,64.614C69.69,64.713 69.746,64.846 69.746,64.983L69.746,68.045C69.746,68.18 69.69,68.315 69.593,68.415C69.493,68.514 69.36,68.567 69.222,68.567Z" style="fill:white;fill-rule:nonzero;"/>
    </g>
</svg>
