<?xml version="1.0" encoding="UTF-8" standalone="no"?>
<!DOCTYPE svg PUBLIC "-//W3C//DTD SVG 1.1//EN" "http://www.w3.org/Graphics/SVG/1.1/DTD/svg11.dtd">
<svg width="100%" height="100%" viewBox="0 0 171 171" version="1.1" xmlns="http://www.w3.org/2000/svg" xmlns:xlink="http://www.w3.org/1999/xlink" xml:space="preserve" xmlns:serif="http://www.serif.com/" style="fill-rule:evenodd;clip-rule:evenodd;stroke-linecap:round;stroke-linejoin:round;stroke-miterlimit:2;">
    <g>
        <rect x="0" y="0.936" width="170.064" height="170.064" style="fill:none;"/>
        <path d="M157.045,171L158.491,170.91L159.938,170.639L161.294,170.277L162.741,169.644L163.916,169.012L165.182,168.107L166.267,167.113L167.171,166.027L168.075,164.852L168.799,163.586L169.341,162.23L169.793,160.783L169.974,159.338L170.064,157.891L170.064,13.955L169.974,12.51L169.793,11.063L169.341,9.707L168.799,8.26L168.075,6.995L167.171,5.819L166.267,4.735L165.182,3.741L163.916,2.926L162.741,2.203L161.294,1.66L159.938,1.208L158.491,1.027L157.045,0.936L13.109,0.936L11.663,1.027L10.216,1.208L8.77,1.66L7.413,2.203L6.147,2.926L4.972,3.741L3.887,4.735L2.893,5.819L2.079,6.995L1.265,8.26L0.723,9.707L0.361,11.063L0.09,12.51L0,13.955L0,157.891L0.09,159.338L0.361,160.783L0.723,162.23L1.265,163.586L2.079,164.852L2.893,166.027L3.887,167.113L4.972,168.107L6.147,169.012L7.413,169.644L8.77,170.277L10.216,170.639L11.663,170.91L13.109,171L157.045,171Z" style="fill:white;fill-rule:nonzero;"/>
        <path d="M157.045,171L158.491,170.91L159.938,170.639L161.294,170.277L162.741,169.644L163.916,169.012L165.182,168.107L166.267,167.113L167.171,166.027L168.075,164.852L168.799,163.586L169.341,162.23L169.793,160.783L169.974,159.338L170.064,157.891L170.064,13.955L169.974,12.51L169.793,11.063L169.341,9.707L168.799,8.26L168.075,6.995L167.171,5.819L166.267,4.735L165.182,3.741L163.916,2.926L162.741,2.203L161.294,1.66L159.938,1.208L158.491,1.027L157.045,0.936L13.109,0.936L11.663,1.027L10.216,1.208L8.77,1.66L7.413,2.203L6.147,2.926L4.972,3.741L3.887,4.735L2.893,5.819L2.079,6.995L1.265,8.26L0.723,9.707L0.361,11.063L0.09,12.51L0,13.955L0,157.891L0.09,159.338L0.361,160.783L0.723,162.23L1.265,163.586L2.079,164.852L2.893,166.027L3.887,167.113L4.972,168.107L6.147,169.012L7.413,169.644L8.77,170.277L10.216,170.639L11.663,170.91L13.109,171L157.045,171Z" style="fill:none;"/>
        <path d="M157,164.445L157.994,164.355L158.989,164.174L159.893,163.812L160.796,163.18L161.611,162.547L162.244,161.732L162.786,160.92L163.147,159.924L163.418,158.93L163.509,157.936L163.509,14L163.418,13.006L163.147,12.012L162.786,11.018L162.244,10.204L161.611,9.391L160.796,8.666L159.893,8.215L158.989,7.762L157.994,7.582L157,7.491L13.064,7.491L11.979,7.582L10.984,7.762L10.08,8.215L9.176,8.666L8.453,9.391L7.729,10.204L7.277,11.018L6.825,12.012L6.554,13.006L6.554,158.93L6.825,159.924L7.277,160.92L7.729,161.732L8.453,162.547L9.176,163.18L10.08,163.812L10.984,164.174L11.979,164.355L13.064,164.445L157,164.445Z" style="fill:rgb(0,64,128);fill-rule:nonzero;"/>
        <path d="M157,164.445L157.994,164.355L158.989,164.174L159.893,163.812L160.796,163.18L161.611,162.547L162.244,161.732L162.786,160.92L163.147,159.924L163.418,158.93L163.509,157.936L163.509,14L163.418,13.006L163.147,12.012L162.786,11.018L162.244,10.204L161.611,9.391L160.796,8.666L159.893,8.215L158.989,7.762L157.994,7.582L157,7.491L13.064,7.491L11.979,7.582L10.984,7.762L10.08,8.215L9.176,8.666L8.453,9.391L7.729,10.204L7.277,11.018L6.825,12.012L6.554,13.006L6.554,158.93L6.825,159.924L7.277,160.92L7.729,161.732L8.453,162.547L9.176,163.18L10.08,163.812L10.984,164.174L11.979,164.355L13.064,164.445L157,164.445Z" style="fill:none;"/>
        <path d="M132.182,144.826L133.538,144.736L134.984,144.465L136.341,144.103L137.606,143.471L138.872,142.746L139.957,141.934L140.951,140.848L141.855,139.764L142.579,138.588L143.212,137.232L143.573,135.875L143.845,134.519L143.936,133.072L143.936,38.864L143.845,37.418L143.573,36.061L143.212,34.705L142.579,33.44L141.855,32.174L140.951,31.088L139.957,30.094L138.872,29.19L137.606,28.467L136.341,27.834L134.984,27.473L133.538,27.202L132.182,27.112L37.972,27.112L36.526,27.202L35.169,27.473L33.723,27.834L32.547,28.467L31.282,29.19L30.197,30.094L29.202,31.088L28.298,32.174L27.484,33.44L26.942,34.705L26.49,36.061L26.219,37.418L26.128,38.864L26.128,133.072L26.219,134.519L26.49,135.875L26.942,137.232L27.484,138.588L28.298,139.764L29.202,140.848L30.197,141.934L31.282,142.746L32.547,143.471L33.723,144.103L35.169,144.465L36.526,144.736L37.972,144.826L132.182,144.826Z" style="fill:white;fill-rule:nonzero;"/>
        <path d="M132.182,144.826L133.538,144.736L134.984,144.465L136.341,144.103L137.606,143.471L138.872,142.746L139.957,141.934L140.951,140.848L141.855,139.764L142.579,138.588L143.212,137.232L143.573,135.875L143.845,134.519L143.936,133.072L143.936,38.864L143.845,37.418L143.573,36.061L143.212,34.705L142.579,33.44L141.855,32.174L140.951,31.088L139.957,30.094L138.872,29.19L137.606,28.467L136.341,27.834L134.984,27.473L133.538,27.202L132.182,27.112L37.972,27.112L36.526,27.202L35.169,27.473L33.723,27.834L32.547,28.467L31.282,29.19L30.197,30.094L29.202,31.088L28.298,32.174L27.484,33.44L26.942,34.705L26.49,36.061L26.219,37.418L26.128,38.864L26.128,133.072L26.219,134.519L26.49,135.875L26.942,137.232L27.484,138.588L28.298,139.764L29.202,140.848L30.197,141.934L31.282,142.746L32.547,143.471L33.723,144.103L35.169,144.465L36.526,144.736L37.972,144.826L132.182,144.826Z" style="fill:none;"/>
        <path d="M36.52,46.702L36.52,97.032C36.748,98.491 37.571,99.788 38.794,100.618C40.391,101.686 42.457,101.756 44.124,100.801C45.662,99.946 46.636,98.348 46.689,96.59L46.689,85.625L75.394,108.943L75.385,108.936L75.385,126.996C75.614,128.455 76.438,129.754 77.659,130.586C79.257,131.654 81.322,131.725 82.989,130.768C84.527,129.914 85.503,128.316 85.556,126.559L85.556,112.75L124.232,112.75L124.232,126.996C124.459,128.455 125.283,129.754 126.504,130.586C128.103,131.654 130.169,131.725 131.834,130.768C133.372,129.914 134.348,128.316 134.401,126.559L134.401,96.924L82.036,96.924C80.846,96.569 79.987,95.53 79.864,94.293C79.822,93.055 80.626,91.946 81.815,91.598C85.812,90.756 89.863,90.192 93.94,89.909C101.074,89.375 108.236,89.332 115.373,89.784C121.086,90.09 126.781,90.618 132.452,91.368C133.287,91.528 133.918,92.213 134.011,93.057L134.387,93.057C134.43,91.846 133.887,90.694 132.924,89.957C132.157,89.329 131.337,88.764 130.474,88.282L99.856,69.35C90.63,68.305 81.345,67.897 72.064,68.135C66.377,68.166 60.701,68.664 55.094,69.62C53.942,69.858 52.998,70.678 52.598,71.778C52.414,72.381 52.358,73.014 52.433,73.639L52.454,73.973L42.287,65.713C41.52,64.745 41.493,63.383 42.221,62.389C42.732,61.793 43.405,61.352 44.16,61.129C47.066,60.131 50.07,59.44 53.122,59.069C60.413,58.086 67.806,58.094 75.096,59.09C78.384,59.557 81.658,60.11 84.914,60.764L90.329,64.065L90.478,64.065L90.705,63.873L90.705,46.702C90.705,45.606 90.272,44.555 89.496,43.776C88.72,43.002 87.669,42.569 86.574,42.569L40.653,42.569C39.558,42.569 38.507,43.002 37.731,43.776C36.955,44.555 36.52,45.606 36.52,46.702Z" style="fill:rgb(35,31,32);fill-rule:nonzero;"/>
        <path d="M36.52,46.702L36.52,97.032C36.748,98.491 37.571,99.788 38.794,100.618C40.391,101.686 42.457,101.756 44.124,100.801C45.662,99.946 46.636,98.348 46.689,96.59L46.689,85.625L75.394,108.943L75.385,108.936L75.385,126.996C75.614,128.455 76.438,129.754 77.659,130.586C79.257,131.654 81.322,131.725 82.989,130.768C84.527,129.914 85.503,128.316 85.556,126.559L85.556,112.75L124.232,112.75L124.232,126.996C124.459,128.455 125.283,129.754 126.504,130.586C128.103,131.654 130.169,131.725 131.834,130.768C133.372,129.914 134.348,128.316 134.401,126.559L134.401,96.924L82.036,96.924C80.846,96.569 79.987,95.53 79.864,94.293C79.822,93.055 80.626,91.946 81.815,91.598C85.812,90.756 89.863,90.192 93.94,89.909C101.074,89.375 108.236,89.332 115.373,89.784C121.086,90.09 126.781,90.618 132.452,91.368C133.287,91.528 133.918,92.213 134.011,93.057L134.387,93.057C134.43,91.846 133.887,90.694 132.924,89.957C132.157,89.329 131.337,88.764 130.474,88.282L99.856,69.35C90.63,68.305 81.345,67.897 72.064,68.135C66.377,68.166 60.701,68.664 55.094,69.62C53.942,69.858 52.998,70.678 52.598,71.778C52.414,72.381 52.358,73.014 52.433,73.639L52.454,73.973L42.287,65.713C41.52,64.745 41.493,63.383 42.221,62.389C42.732,61.793 43.405,61.352 44.16,61.129C47.066,60.131 50.07,59.44 53.122,59.069C60.413,58.086 67.806,58.094 75.096,59.09C78.384,59.557 81.658,60.11 84.914,60.764L90.329,64.065L90.478,64.065L90.705,63.873L90.705,46.702C90.705,45.606 90.272,44.555 89.496,43.776C88.72,43.002 87.669,42.569 86.574,42.569L40.653,42.569C39.558,42.569 38.507,43.002 37.731,43.776C36.955,44.555 36.52,45.606 36.52,46.702Z" style="fill:none;stroke:rgb(35,31,32);stroke-width:0.5px;"/>
    </g>
</svg>
