<?xml version="1.0" encoding="UTF-8" standalone="no"?>
<!DOCTYPE svg PUBLIC "-//W3C//DTD SVG 1.1//EN" "http://www.w3.org/Graphics/SVG/1.1/DTD/svg11.dtd">
<svg width="100%" height="100%" viewBox="0 0 1985 1843" version="1.1" xmlns="http://www.w3.org/2000/svg" xmlns:xlink="http://www.w3.org/1999/xlink" xml:space="preserve" xmlns:serif="http://www.serif.com/" style="fill-rule:evenodd;clip-rule:evenodd;stroke-linejoin:round;stroke-miterlimit:2;">
    <g>
        <path d="M141.732,1843L1842.52,1843L1845.02,1842.98C1921.94,1841.49 1983.43,1779.45 1984.25,1702.52L1984.25,142.212C1984.11,64.789 1922.43,2.008 1845.02,0.503L1843.77,0.486L1842.52,0.481L141.731,0.481L140.48,0.486C63.55,1.3 1.514,62.793 0.021,139.711L0.004,140.962L0,142.212L0,1701.27C-0.005,1737.54 13.933,1772.49 38.896,1798.8L39.759,1799.7L40.632,1800.6C66.045,1826.47 100.484,1841.64 136.73,1842.91L137.98,1842.95L139.231,1842.98L140.481,1842.99L141.732,1843Z" style="fill:white;"/>
        <path d="M141.107,1772.13L1843.14,1772.13L1843.77,1772.12C1882.23,1771.38 1912.98,1740.36 1913.38,1701.89L1913.39,1701.27L1913.39,142.214C1913.32,103.502 1882.47,72.112 1843.77,71.359L1843.14,71.35L1842.52,71.348L141.733,71.348L141.107,71.35C102.641,71.757 71.624,102.501 70.877,140.962L70.869,141.587L70.866,142.213L70.866,1701.27C70.862,1719.4 77.832,1736.88 90.313,1750.03L90.746,1750.49L91.182,1750.93C103.889,1763.87 121.108,1771.45 139.231,1772.09L139.856,1772.11L140.481,1772.12L141.107,1772.13Z" style="fill:rgb(150,79,34);"/>
        <path d="M481.89,1559.54L1502.36,1559.54L1503.48,1559.53L1504.6,1559.51C1573.84,1558.18 1629.19,1502.34 1629.92,1433.09L1629.92,411.504C1629.8,341.816 1574.28,285.312 1504.6,283.964L1503.48,283.95L1502.36,283.944L481.89,283.944L480.771,283.95C411.524,284.678 355.687,340.027 354.351,409.265L354.336,410.384L354.331,411.504L354.331,1431.98C354.324,1464.43 366.727,1495.72 388.965,1519.36L389.735,1520.17L390.513,1520.98C413.424,1544.51 444.591,1558.31 477.413,1559.46L478.532,1559.49L479.651,1559.51L480.771,1559.53L481.89,1559.54Z" style="fill:white;"/>
        <path d="M481.89,1559.54L1502.36,1559.54L1504.6,1559.52L1506.84,1559.46L1509.08,1559.36L1510.19,1559.3L1512.43,1559.14L1513.54,1559.05L1514.66,1558.94L1515.77,1558.83L1516.88,1558.71L1519.1,1558.43L1520.21,1558.28L1521.32,1558.12L1522.43,1557.95L1523.53,1557.77L1524.63,1557.58L1525.74,1557.38L1526.84,1557.17L1527.93,1556.95L1529.03,1556.72L1530.12,1556.48L1531.21,1556.23L1532.3,1555.97L1533.39,1555.7L1534.47,1555.43L1535.56,1555.14L1536.64,1554.84L1537.71,1554.54L1538.79,1554.22L1539.86,1553.9L1540.93,1553.57L1541.99,1553.22L1543.06,1552.87L1544.12,1552.51L1545.17,1552.14L1546.22,1551.76L1547.27,1551.37L1548.32,1550.97L1549.36,1550.56L1551.44,1549.72L1552.47,1549.28L1553.49,1548.84L1554.52,1548.39L1555.54,1547.92L1556.55,1547.45L1557.56,1546.97L1558.57,1546.48L1559.57,1545.99L1560.57,1545.48L1561.57,1544.96L1562.55,1544.44L1563.54,1543.91L1564.52,1543.37L1565.49,1542.82L1566.46,1542.26L1567.43,1541.69L1568.39,1541.12L1569.35,1540.53L1570.3,1539.94L1571.24,1539.34L1572.18,1538.73L1573.11,1538.12L1574.97,1536.86L1575.88,1536.22L1576.79,1535.57L1577.7,1534.91L1578.6,1534.25L1579.5,1533.57L1580.38,1532.89L1581.27,1532.2L1582.14,1531.51L1583.88,1530.09L1584.74,1529.37L1585.59,1528.65L1587.27,1527.17L1588.93,1525.67L1589.75,1524.9L1590.56,1524.13L1591.37,1523.35L1592.16,1522.57L1592.96,1521.78L1593.74,1520.98L1594.52,1520.17L1595.29,1519.36L1596.81,1517.72L1597.56,1516.89L1598.3,1516.05L1599.76,1514.35L1600.48,1513.49L1601.19,1512.63L1601.89,1511.76L1602.59,1510.88L1603.28,1510L1603.96,1509.11L1604.63,1508.22L1605.3,1507.32L1606.6,1505.5L1607.88,1503.66L1608.5,1502.73L1609.12,1501.79L1609.73,1500.85L1610.33,1499.91L1610.92,1498.96L1611.5,1498.01L1612.08,1497.04L1612.64,1496.08L1613.2,1495.11L1613.75,1494.13L1614.83,1492.17L1615.87,1490.19L1616.87,1488.19L1617.36,1487.18L1617.84,1486.17L1618.31,1485.15L1618.77,1484.13L1619.22,1483.11L1619.67,1482.08L1620.1,1481.05L1620.53,1480.01L1620.95,1478.98L1621.36,1477.93L1621.75,1476.89L1622.14,1475.84L1622.52,1474.79L1623.26,1472.67L1623.61,1471.61L1624.29,1469.47L1624.61,1468.4L1624.92,1467.33L1625.23,1466.25L1625.53,1465.17L1626.09,1463.01L1626.36,1461.92L1626.62,1460.83L1626.86,1459.74L1627.1,1458.64L1627.33,1457.55L1627.55,1456.45L1627.76,1455.35L1627.96,1454.25L1628.15,1453.15L1628.33,1452.04L1628.5,1450.94L1628.67,1449.83L1628.82,1448.72L1628.96,1447.61L1629.09,1446.5L1629.21,1445.38L1629.33,1444.27L1629.43,1443.16L1629.61,1440.92L1629.68,1439.81L1629.8,1437.57L1629.84,1436.45L1629.88,1435.34L1629.92,1433.1L1629.92,410.385L1629.88,408.147L1629.8,405.909L1629.74,404.791L1629.68,403.674L1629.61,402.557L1629.43,400.325L1629.33,399.211L1629.21,398.097L1629.09,396.984L1628.96,395.873L1628.82,394.762L1628.67,393.653L1628.33,391.439L1628.15,390.335L1627.96,389.232L1627.76,388.131L1627.55,387.031L1627.33,385.933L1627.1,384.838L1626.86,383.744L1626.62,382.652L1626.36,381.563L1626.09,380.476L1625.81,379.392L1625.53,378.31L1625.23,377.23L1624.92,376.153L1624.61,375.079L1624.29,374.007L1623.95,372.939L1623.61,371.874L1623.26,370.811L1622.89,369.752L1622.52,368.696L1622.14,367.643L1621.75,366.593L1621.36,365.548L1620.95,364.505L1620.53,363.466L1620.1,362.431L1619.67,361.4L1619.22,360.373L1618.77,359.349L1618.31,358.329L1617.84,357.314L1617.36,356.303L1616.87,355.296L1616.37,354.293L1615.87,353.295L1615.35,352.301L1614.83,351.312L1614.29,350.327L1613.75,349.347L1613.2,348.372L1612.64,347.402L1612.08,346.437L1611.5,345.476L1610.92,344.521L1610.33,343.571L1609.73,342.627L1609.12,341.687L1608.5,340.753L1607.88,339.824L1607.24,338.901L1606.6,337.984L1605.95,337.071L1605.3,336.165L1604.63,335.265L1603.96,334.371L1603.28,333.482L1602.59,332.599L1601.89,331.723L1601.19,330.853L1600.48,329.988L1599.76,329.131L1599.03,328.279L1598.3,327.434L1597.56,326.595L1596.81,325.763L1596.05,324.938L1595.29,324.119L1594.52,323.307L1593.74,322.502L1592.96,321.703L1592.16,320.912L1591.37,320.127L1590.56,319.35L1589.75,318.579L1588.93,317.816L1588.1,317.06L1587.27,316.311L1586.43,315.57L1585.59,314.836L1584.74,314.109L1583.88,313.39L1583.01,312.678L1582.14,311.975L1581.27,311.278L1580.38,310.589L1579.5,309.909L1578.6,309.236L1577.7,308.571L1576.79,307.914L1575.88,307.264L1574.97,306.623L1574.04,305.99L1573.11,305.365L1572.18,304.749L1571.24,304.14L1570.3,303.54L1569.35,302.948L1568.39,302.364L1567.43,301.789L1566.46,301.222L1565.49,300.664L1564.52,300.114L1563.54,299.573L1562.55,299.041L1561.57,298.516L1560.57,298.002L1559.57,297.495L1558.57,296.997L1557.56,296.508L1556.55,296.028L1555.54,295.557L1554.52,295.095L1553.49,294.642L1552.47,294.198L1551.44,293.763L1550.4,293.337L1549.36,292.92L1548.32,292.512L1547.27,292.113L1546.22,291.723L1545.17,291.343L1544.12,290.972L1543.06,290.61L1541.99,290.258L1540.93,289.915L1539.86,289.581L1538.79,289.257L1537.71,288.942L1536.64,288.636L1535.56,288.34L1534.47,288.054L1533.39,287.777L1532.3,287.509L1531.21,287.251L1530.12,287.003L1529.03,286.764L1527.93,286.535L1526.84,286.315L1525.74,286.105L1524.63,285.905L1523.53,285.714L1522.43,285.533L1521.32,285.362L1520.21,285.201L1519.1,285.049L1517.99,284.907L1516.88,284.775L1515.77,284.652L1514.66,284.539L1513.54,284.436L1512.43,284.343L1511.31,284.259L1510.19,284.186L1509.08,284.122L1507.96,284.068L1506.84,284.024L1505.72,283.99L1504.6,283.965L1503.48,283.95L1502.36,283.945L481.89,283.945L480.771,283.95L479.651,283.965L478.532,283.99L477.413,284.024L476.295,284.068L475.177,284.122L474.059,284.186L472.942,284.259L471.826,284.343L470.71,284.436L469.596,284.539L468.482,284.652L467.369,284.775L466.258,284.907L465.147,285.049L464.039,285.201L462.931,285.362L461.825,285.533L460.72,285.714L459.617,285.905L458.516,286.105L457.416,286.315L456.318,286.535L455.223,286.764L454.129,287.003L453.038,287.251L451.948,287.509L450.861,287.777L449.777,288.054L448.695,288.34L447.615,288.636L446.539,288.942L445.464,289.257L444.393,289.581L443.325,289.915L442.259,290.258L441.197,290.61L440.137,290.972L439.081,291.343L438.028,291.723L436.979,292.113L435.933,292.512L434.891,292.92L433.852,293.337L432.816,293.763L431.785,294.198L430.758,294.642L429.734,295.095L428.715,295.557L427.699,296.028L426.688,296.508L425.681,296.997L424.678,297.495L423.68,298.002L422.687,298.516L421.697,299.041L420.712,299.573L419.733,300.114L418.758,300.664L417.788,301.222L416.822,301.789L415.862,302.364L414.907,302.948L413.957,303.54L413.012,304.14L412.072,304.749L411.138,305.365L410.209,305.99L409.286,306.623L408.369,307.264L407.457,307.914L406.551,308.571L405.65,309.236L404.756,309.909L403.867,310.589L402.984,311.278L402.108,311.975L401.238,312.678L400.374,313.39L399.516,314.109L398.665,314.836L397.819,315.57L396.98,316.311L396.148,317.06L395.323,317.816L394.504,318.579L393.692,319.35L392.887,320.127L392.088,320.912L391.297,321.703L390.513,322.502L389.735,323.307L388.964,324.119L388.201,324.938L387.445,325.763L386.696,326.595L385.955,327.434L385.221,328.279L384.494,329.131L383.775,329.988L383.063,330.853L382.36,331.723L381.664,332.599L380.975,333.482L380.294,334.371L379.621,335.265L378.956,336.165L378.299,337.071L377.65,337.984L377.009,338.901L376.375,339.824L375.75,340.753L375.134,341.687L374.525,342.627L373.925,343.571L373.333,344.521L372.75,345.476L372.174,346.437L371.607,347.402L371.049,348.372L370.5,349.347L369.958,350.327L369.426,351.312L368.902,352.301L368.387,353.295L367.88,354.293L367.383,355.296L366.894,356.303L366.414,357.314L365.942,358.329L365.48,359.349L365.027,360.373L364.583,361.4L364.148,362.431L363.722,363.466L363.305,364.505L362.897,365.548L362.498,366.593L362.109,367.643L361.729,368.696L361.357,369.752L360.996,370.811L360.644,371.874L360.3,372.939L359.966,374.007L359.642,375.079L359.327,376.153L359.021,377.23L358.726,378.31L358.439,379.392L358.162,380.476L357.895,381.563L357.637,382.652L357.388,383.744L357.149,384.838L356.92,385.933L356.701,387.031L356.49,388.131L356.291,389.232L356.1,390.335L355.919,391.439L355.748,392.546L355.586,393.653L355.434,394.762L355.292,395.873L355.16,396.984L355.037,398.097L354.925,399.211L354.821,400.325L354.729,401.441L354.645,402.557L354.571,403.674L354.507,404.791L354.454,405.909L354.409,407.028L354.375,408.147L354.351,409.266L354.335,410.385L354.331,411.505L354.331,1431.98L354.335,1433.1L354.351,1434.22L354.375,1435.34L354.409,1436.45L354.454,1437.57L354.507,1438.69L354.571,1439.81L354.645,1440.92L354.729,1442.04L354.821,1443.16L354.925,1444.27L355.037,1445.38L355.16,1446.5L355.292,1447.61L355.434,1448.72L355.586,1449.83L355.748,1450.94L355.919,1452.04L356.1,1453.15L356.291,1454.25L356.49,1455.35L356.701,1456.45L356.92,1457.55L357.149,1458.64L357.388,1459.74L357.637,1460.83L357.895,1461.92L358.162,1463.01L358.439,1464.09L358.726,1465.17L359.021,1466.25L359.327,1467.33L359.642,1468.4L359.966,1469.47L360.3,1470.54L360.644,1471.61L360.996,1472.67L361.357,1473.73L361.729,1474.79L362.109,1475.84L362.498,1476.89L362.897,1477.93L363.305,1478.98L363.722,1480.01L364.148,1481.05L364.583,1482.08L365.027,1483.11L365.48,1484.13L365.942,1485.15L366.414,1486.17L366.894,1487.18L367.383,1488.19L367.88,1489.19L368.387,1490.19L368.902,1491.18L369.426,1492.17L369.958,1493.15L370.5,1494.13L371.049,1495.11L371.607,1496.08L372.174,1497.04L372.75,1498.01L373.333,1498.96L373.925,1499.91L374.525,1500.85L375.134,1501.79L375.75,1502.73L376.375,1503.66L377.009,1504.58L377.65,1505.5L378.299,1506.41L378.956,1507.32L379.621,1508.22L380.294,1509.11L380.975,1510L381.664,1510.88L382.36,1511.76L383.063,1512.63L383.775,1513.49L384.494,1514.35L385.221,1515.2L385.955,1516.05L386.696,1516.89L387.445,1517.72L388.201,1518.54L388.964,1519.36L389.735,1520.17L390.513,1520.98L391.297,1521.78L392.088,1522.57L392.887,1523.35L393.692,1524.13L394.504,1524.9L395.323,1525.67L396.148,1526.42L396.98,1527.17L397.819,1527.91L398.665,1528.65L399.516,1529.37L400.374,1530.09L401.238,1530.8L402.108,1531.51L402.984,1532.2L403.867,1532.89L404.756,1533.57L405.65,1534.25L406.551,1534.91L407.457,1535.57L408.369,1536.22L409.286,1536.86L410.209,1537.49L411.138,1538.12L412.072,1538.73L413.012,1539.34L413.957,1539.94L414.907,1540.53L415.862,1541.12L416.822,1541.69L417.788,1542.26L418.758,1542.82L419.733,1543.37L420.712,1543.91L421.697,1544.44L422.687,1544.96L423.68,1545.48L424.678,1545.99L425.681,1546.48L426.688,1546.97L427.699,1547.45L428.715,1547.92L429.734,1548.39L430.758,1548.84L431.785,1549.28L432.816,1549.72L433.852,1550.14L434.891,1550.56L435.933,1550.97L436.979,1551.37L438.028,1551.76L439.081,1552.14L440.137,1552.51L441.197,1552.87L442.259,1553.22L443.325,1553.57L444.393,1553.9L445.464,1554.22L446.539,1554.54L447.615,1554.84L448.695,1555.14L449.777,1555.43L450.861,1555.7L451.948,1555.97L453.038,1556.23L454.129,1556.48L455.223,1556.72L456.318,1556.95L457.416,1557.17L458.516,1557.38L459.617,1557.58L460.72,1557.77L461.825,1557.95L462.931,1558.12L464.039,1558.28L465.147,1558.43L467.369,1558.71L468.482,1558.83L470.71,1559.05L471.826,1559.14L472.942,1559.22L474.059,1559.3L475.177,1559.36L477.413,1559.46L479.651,1559.52L480.771,1559.53L481.89,1559.54Z" style="fill:white;"/>
        <path d="M992.126,640.767L711.152,921.741L952.947,1163.54L952.947,1417.32L952.945,1417.72L952.94,1418.12L952.931,1418.52L952.919,1418.92L952.903,1419.33L952.884,1419.73L952.861,1420.13L952.834,1420.53L952.804,1420.93L952.771,1421.33L952.733,1421.73L952.693,1422.13L952.649,1422.53L952.602,1422.93L952.55,1423.33L952.496,1423.73L952.438,1424.12L952.376,1424.52L952.311,1424.92L952.243,1425.31L952.17,1425.71L952.095,1426.1L952.016,1426.5L951.934,1426.89L951.848,1427.28L951.759,1427.67L951.666,1428.06L951.57,1428.46L951.47,1428.84L951.367,1429.23L951.261,1429.62L951.151,1430.01L951.038,1430.39L950.921,1430.78L950.801,1431.16L950.678,1431.54L950.551,1431.92L950.421,1432.3L950.288,1432.68L950.151,1433.06L950.011,1433.44L949.867,1433.81L949.721,1434.19L949.571,1434.56L949.417,1434.93L949.261,1435.3L949.102,1435.67L948.938,1436.04L948.772,1436.4L948.603,1436.77L948.431,1437.13L948.255,1437.49L948.076,1437.85L947.894,1438.21L947.709,1438.57L947.521,1438.92L947.329,1439.27L947.134,1439.63L946.937,1439.97L946.736,1440.32L946.532,1440.67L946.326,1441.01L946.116,1441.36L945.903,1441.7L945.687,1442.04L945.468,1442.37L945.247,1442.71L945.022,1443.04L944.794,1443.37L944.564,1443.7L944.331,1444.03L944.094,1444.35L943.855,1444.68L943.613,1445L943.369,1445.32L943.121,1445.63L942.871,1445.95L942.618,1446.26L942.362,1446.57L942.104,1446.88L941.843,1447.18L941.579,1447.49L941.312,1447.79L941.043,1448.08L940.771,1448.38L940.497,1448.67L940.22,1448.96L939.941,1449.25L939.659,1449.54L939.374,1449.82L939.087,1450.1L938.798,1450.38L938.506,1450.66L938.212,1450.93L937.915,1451.2L937.616,1451.47L937.314,1451.74L937.011,1452L936.705,1452.26L936.396,1452.52L936.086,1452.77L935.773,1453.03L935.458,1453.28L935.141,1453.52L934.822,1453.77L934.5,1454.01L934.177,1454.25L933.852,1454.48L933.194,1454.94L932.862,1455.17L932.528,1455.39L932.193,1455.61L931.855,1455.83L931.516,1456.05L931.174,1456.26L930.831,1456.47L930.486,1456.67L930.139,1456.88L929.791,1457.08L929.44,1457.27L929.088,1457.47L928.735,1457.66L928.379,1457.84L928.022,1458.03L927.664,1458.21L927.303,1458.39L926.941,1458.56L926.578,1458.73L926.213,1458.9L925.847,1459.07L925.479,1459.23L925.11,1459.39L924.74,1459.54L924.368,1459.7L923.995,1459.84L923.621,1459.99L923.245,1460.13L922.868,1460.27L922.49,1460.41L922.11,1460.54L921.348,1460.8L920.582,1461.04L920.197,1461.15L919.811,1461.26L919.037,1461.48L918.648,1461.58L918.258,1461.68L917.868,1461.77L917.477,1461.87L917.085,1461.95L916.692,1462.04L916.299,1462.12L915.905,1462.2L915.51,1462.27L914.718,1462.41L914.322,1462.47L913.924,1462.54L913.527,1462.59L913.128,1462.65L912.73,1462.7L912.331,1462.74L911.932,1462.79L911.532,1462.83L911.131,1462.86L910.731,1462.89L909.929,1462.95L909.528,1462.97L909.126,1462.99L908.725,1463L908.323,1463.01L907.922,1463.02L907.52,1463.03L907.118,1463.03L906.716,1463.02L906.315,1463.02L905.913,1463.01L905.511,1462.99L905.11,1462.98L904.709,1462.96L904.308,1462.93L903.907,1462.91L903.506,1462.87L903.106,1462.84L902.306,1462.76L901.907,1462.71L901.508,1462.67L901.11,1462.61L900.712,1462.56L900.314,1462.5L899.918,1462.44L899.521,1462.37L894.786,1461.54L890.057,1460.66L885.336,1459.75L880.624,1458.79L875.92,1457.79L871.225,1456.75L866.539,1455.67L861.863,1454.55L857.197,1453.39L852.542,1452.19L847.897,1450.94L843.263,1449.66L838.641,1448.33L834.03,1446.97L829.432,1445.56L824.846,1444.11L820.273,1442.63L815.713,1441.1L811.167,1439.53L806.634,1437.93L802.116,1436.28L797.612,1434.6L793.124,1432.87L788.65,1431.11L784.193,1429.3L779.751,1427.46L775.326,1425.58L770.917,1423.66L766.525,1421.7L762.151,1419.71L757.794,1417.67L753.456,1415.6L749.136,1413.48L744.834,1411.34L740.551,1409.15L736.288,1406.92L732.044,1404.66L727.821,1402.36L723.618,1400.03L719.435,1397.66L715.273,1395.25L711.133,1392.8L707.014,1390.32L702.917,1387.8L698.842,1385.25L694.79,1382.66L690.761,1380.04L686.754,1377.38L682.771,1374.68L678.813,1371.95L674.878,1369.19L670.968,1366.39L667.082,1363.56L663.221,1360.69L659.385,1357.79L655.576,1354.86L651.792,1351.89L648.034,1348.89L644.302,1345.86L640.597,1342.79L636.919,1339.69L633.269,1336.56L629.646,1333.4L626.051,1330.21L622.484,1326.98L618.946,1323.73L615.436,1320.44L611.956,1317.12L608.504,1313.77L605.082,1310.4L601.689,1306.99L598.327,1303.55L594.995,1300.08L591.693,1296.59L588.422,1293.06L585.183,1289.51L581.975,1285.93L578.797,1282.32L575.652,1278.68L572.539,1275.02L569.458,1271.32L566.41,1267.61L563.394,1263.86L560.411,1260.09L557.461,1256.29L554.545,1252.47L551.663,1248.62L548.814,1244.74L546,1240.84L543.219,1236.92L540.473,1232.97L537.762,1229L535.086,1225.01L532.445,1220.99L529.839,1216.95L527.269,1212.88L524.734,1208.8L522.236,1204.69L519.773,1200.56L517.347,1196.41L514.958,1192.23L512.604,1188.04L510.288,1183.83L508.009,1179.59L505.767,1175.34L503.563,1171.06L501.396,1166.77L499.267,1162.46L497.175,1158.13L495.122,1153.78L493.107,1149.42L491.13,1145.03L489.191,1140.63L487.292,1136.21L485.431,1131.78L483.609,1127.33L481.827,1122.87L480.083,1118.38L478.378,1113.89L476.714,1109.38L475.089,1104.85L473.503,1100.31L471.958,1095.76L470.452,1091.19L468.987,1086.61L467.562,1082.02L466.177,1077.41L464.832,1072.8L463.528,1068.17L462.265,1063.53L461.042,1058.88L459.86,1054.22L458.719,1049.55L457.619,1044.86L456.561,1040.17L455.543,1035.47L454.566,1030.76L453.631,1026.05L452.737,1021.32L451.885,1016.59L451.075,1011.85L450.305,1007.1L449.578,1002.35L448.892,997.592L448.248,992.826L447.646,988.056L447.085,983.28L446.566,978.499L446.09,973.714L445.655,968.926L445.263,964.133L444.912,959.337L444.604,954.538L444.337,949.737L444.112,944.934L443.93,940.129L443.79,935.322L443.692,930.515L443.636,925.706L443.623,920.898L443.651,916.089L443.722,911.281L443.834,906.474L443.989,901.668L444.187,896.863L444.426,892.06L444.707,887.26L445.03,882.462L445.396,877.668L445.803,872.876L446.252,868.089L446.744,863.305L447.277,858.526L447.852,853.752L448.469,848.983L449.127,844.22L449.828,839.463L450.57,834.712L451.354,829.967L452.18,825.23L453.046,820.5L453.955,815.778L454.904,811.064L455.895,806.359L456.927,801.662L458,796.975L459.115,792.297L460.27,787.63L461.466,782.972L462.703,778.325L463.98,773.69L465.299,769.065L466.658,764.452L468.057,759.852L469.496,755.264L470.976,750.688L472.495,746.126L474.055,741.577L475.654,737.043L477.293,732.522L478.972,728.016L480.69,723.525L482.447,719.048L484.244,714.588L486.079,710.144L487.954,705.715L489.867,701.304L491.819,696.909L493.809,692.532L495.837,688.172L497.904,683.83L500.009,679.506L502.151,675.202L504.332,670.916L506.549,666.649L508.804,662.402L511.096,658.174L513.425,653.968L515.791,649.781L518.193,645.616L520.633,641.472L523.107,637.349L525.619,633.248L528.166,629.17L530.749,625.113L533.367,621.08L536.021,617.07L538.709,613.083L541.432,609.12L544.19,605.181L546.982,601.266L549.809,597.376L552.67,593.511L555.564,589.671L558.492,585.857L561.454,582.068L564.448,578.305L567.475,574.569L570.535,570.86L573.627,567.177L576.751,563.522L579.908,559.894L583.096,556.295L586.315,552.723L589.566,549.179L592.848,545.664L596.16,542.178L599.502,538.722L602.875,535.295L606.278,531.897L609.711,528.529L613.173,525.192L616.664,521.885L620.184,518.609L623.732,515.363L627.309,512.15L630.914,508.967L634.546,505.816L638.206,502.697L641.894,499.611L645.607,496.557L649.348,493.535L653.115,490.547L656.909,487.591L660.728,484.669L664.572,481.78L668.441,478.926L672.336,476.105L676.255,473.319L680.198,470.567L684.166,467.85L688.157,465.168L692.171,462.52L696.208,459.908L700.269,457.332L704.351,454.791L708.456,452.286L712.582,449.817L716.73,447.385L720.899,444.988L725.089,442.629L729.299,440.306L733.53,438.021L737.781,435.773L742.051,433.561L746.34,431.388L750.648,429.252L754.975,427.154L759.32,425.094L763.683,423.072L768.064,421.089L772.461,419.143L776.876,417.237L781.307,415.369L785.754,413.541L790.218,411.751L794.696,410.001L799.19,408.289L803.699,406.618L808.222,404.985L812.759,403.393L817.311,401.84L821.875,400.328L826.453,398.856L831.043,397.423L835.646,396.031L840.26,394.68L844.887,393.368L849.524,392.098L854.173,390.868L858.833,389.679L863.502,388.531L868.181,387.424L872.87,386.358L877.568,385.333L882.275,384.349L886.991,383.407L891.714,382.506L896.445,381.646L901.184,380.828L905.93,380.052L910.682,379.317L915.44,378.624L920.204,377.972L924.974,377.363L929.749,376.795L934.529,376.269L939.313,375.785L944.101,375.343L948.893,374.943L953.688,374.585L958.487,374.269L963.288,373.995L968.09,373.764L972.896,373.574L977.702,373.426L982.509,373.321L987.317,373.258L992.126,373.237L996.935,373.258L1001.74,373.321L1006.55,373.426L1011.36,373.574L1016.16,373.764L1020.96,373.995L1025.77,374.269L1030.56,374.585L1035.36,374.943L1040.15,375.343L1044.94,375.785L1049.72,376.269L1054.5,376.795L1059.28,377.363L1064.05,377.972L1068.81,378.624L1073.57,379.317L1078.32,380.052L1083.07,380.828L1087.81,381.646L1092.54,382.506L1097.26,383.407L1101.98,384.349L1106.68,385.333L1111.38,386.358L1116.07,387.424L1120.75,388.531L1125.42,389.679L1130.08,390.868L1134.73,392.098L1139.37,393.368L1143.99,394.68L1148.61,396.031L1153.21,397.423L1157.8,398.856L1162.38,400.328L1166.94,401.84L1171.49,403.393L1176.03,404.985L1180.55,406.618L1185.06,408.289L1189.56,410.001L1194.03,411.751L1198.5,413.541L1202.95,415.369L1207.38,417.237L1211.79,419.143L1216.19,421.089L1220.57,423.072L1224.93,425.094L1229.28,427.154L1233.6,429.252L1237.91,431.388L1242.2,433.561L1246.47,435.773L1250.72,438.021L1254.95,440.306L1259.16,442.629L1263.35,444.988L1267.52,447.385L1271.67,449.817L1275.8,452.286L1279.9,454.791L1283.98,457.332L1288.04,459.908L1292.08,462.52L1296.1,465.168L1300.09,467.85L1304.05,470.567L1308,473.319L1311.92,476.105L1315.81,478.926L1319.68,481.78L1323.52,484.669L1327.34,487.591L1331.14,490.547L1334.9,493.535L1338.64,496.557L1342.36,499.611L1346.05,502.697L1349.71,505.816L1353.34,508.967L1356.94,512.15L1360.52,515.363L1364.07,518.609L1367.59,521.885L1371.08,525.192L1374.54,528.529L1377.97,531.897L1381.38,535.295L1384.75,538.722L1388.09,542.178L1391.4,545.664L1394.69,549.179L1397.94,552.723L1401.16,556.295L1404.34,559.894L1407.5,563.522L1410.63,567.177L1413.72,570.86L1416.78,574.569L1419.8,578.305L1422.8,582.068L1425.76,585.857L1428.69,589.671L1431.58,593.511L1434.44,597.376L1437.27,601.266L1440.06,605.181L1442.82,609.12L1445.54,613.083L1448.23,617.07L1450.88,621.08L1453.5,625.113L1456.09,629.17L1458.63,633.248L1461.14,637.349L1463.62,641.472L1466.06,645.616L1468.46,649.781L1470.83,653.968L1473.16,658.174L1475.45,662.402L1477.7,666.649L1479.92,670.916L1482.1,675.202L1484.24,679.506L1486.35,683.83L1488.41,688.172L1490.44,692.532L1492.43,696.909L1494.38,701.304L1496.3,705.715L1498.17,710.144L1500.01,714.588L1501.8,719.048L1503.56,723.525L1505.28,728.016L1506.96,732.522L1508.6,737.043L1510.2,741.577L1511.76,746.126L1513.28,750.688L1514.76,755.264L1516.2,759.852L1517.59,764.452L1518.95,769.065L1520.27,773.69L1521.55,778.325L1522.79,782.972L1523.98,787.63L1525.14,792.297L1526.25,796.975L1527.33,801.662L1528.36,806.359L1529.35,811.064L1530.3,815.778L1531.21,820.5L1532.07,825.23L1532.9,829.967L1533.68,834.712L1534.42,839.463L1535.12,844.22L1535.78,848.983L1536.4,853.752L1536.98,858.526L1537.51,863.305L1538,868.089L1538.45,872.876L1538.86,877.668L1539.22,882.462L1539.54,887.26L1539.83,892.06L1540.07,896.863L1540.26,901.668L1540.42,906.474L1540.53,911.281L1540.6,916.089L1540.63,920.898L1540.62,925.706L1540.56,930.515L1540.46,935.322L1540.32,940.129L1540.14,944.934L1539.92,949.737L1539.65,954.538L1539.34,959.337L1538.99,964.133L1538.6,968.926L1538.16,973.714L1537.69,978.499L1537.17,983.28L1536.61,988.056L1536,992.826L1535.36,997.592L1534.67,1002.35L1533.95,1007.1L1533.18,1011.85L1532.37,1016.59L1531.51,1021.32L1530.62,1026.05L1529.69,1030.76L1528.71,1035.47L1527.69,1040.17L1526.63,1044.86L1525.53,1049.55L1524.39,1054.22L1523.21,1058.88L1521.99,1063.53L1520.72,1068.17L1519.42,1072.8L1518.08,1077.41L1516.69,1082.02L1515.27,1086.61L1513.8,1091.19L1512.29,1095.76L1510.75,1100.31L1509.16,1104.85L1507.54,1109.38L1505.87,1113.89L1504.17,1118.38L1502.43,1122.87L1500.64,1127.33L1498.82,1131.78L1496.96,1136.21L1495.06,1140.63L1493.12,1145.03L1491.15,1149.42L1489.13,1153.78L1487.08,1158.13L1484.99,1162.46L1482.86,1166.77L1480.69,1171.06L1478.48,1175.34L1476.24,1179.59L1473.96,1183.83L1471.65,1188.04L1469.29,1192.23L1466.91,1196.41L1464.48,1200.56L1462.02,1204.69L1459.52,1208.8L1456.98,1212.88L1454.41,1216.95L1451.81,1220.99L1449.17,1225.01L1446.49,1229L1443.78,1232.97L1441.03,1236.92L1438.25,1240.84L1435.44,1244.74L1432.59,1248.62L1429.71,1252.47L1426.79,1256.29L1423.84,1260.09L1420.86,1263.86L1417.84,1267.61L1414.79,1271.32L1411.71,1275.02L1408.6,1278.68L1405.45,1282.32L1402.28,1285.93L1399.07,1289.51L1395.83,1293.06L1392.56,1296.59L1389.26,1300.08L1385.92,1303.55L1382.56,1306.99L1379.17,1310.4L1375.75,1313.77L1372.3,1317.12L1368.82,1320.44L1365.31,1323.73L1361.77,1326.98L1358.2,1330.21L1354.61,1333.4L1350.98,1336.56L1347.33,1339.69L1343.65,1342.79L1339.95,1345.86L1336.22,1348.89L1332.46,1351.89L1328.68,1354.86L1324.87,1357.79L1321.03,1360.69L1317.17,1363.56L1313.28,1366.39L1309.37,1369.19L1305.44,1371.95L1301.48,1374.68L1297.5,1377.38L1293.49,1380.04L1289.46,1382.66L1285.41,1385.25L1281.33,1387.8L1277.24,1390.32L1273.12,1392.8L1268.98,1395.25L1264.82,1397.66L1260.63,1400.03L1256.43,1402.36L1252.21,1404.66L1247.96,1406.92L1243.7,1409.15L1239.42,1411.34L1235.12,1413.48L1230.8,1415.6L1226.46,1417.67L1222.1,1419.71L1217.73,1421.7L1213.33,1423.66L1208.93,1425.58L1204.5,1427.46L1200.06,1429.3L1195.6,1431.11L1191.13,1432.87L1186.64,1434.6L1182.14,1436.28L1177.62,1437.93L1173.08,1439.53L1168.54,1441.1L1163.98,1442.63L1159.41,1444.11L1154.82,1445.56L1150.22,1446.97L1145.61,1448.33L1140.99,1449.66L1136.36,1450.94L1131.71,1452.19L1127.05,1453.39L1122.39,1454.55L1117.71,1455.67L1113.03,1456.75L1108.33,1457.79L1103.63,1458.79L1098.92,1459.75L1094.2,1460.66L1089.47,1461.54L1084.73,1462.37L1084.33,1462.44L1083.94,1462.5L1083.54,1462.56L1083.14,1462.61L1082.74,1462.67L1082.34,1462.71L1081.95,1462.76L1081.15,1462.84L1080.75,1462.87L1080.34,1462.91L1079.94,1462.93L1079.54,1462.96L1079.14,1462.98L1078.74,1462.99L1078.34,1463.01L1077.94,1463.02L1077.54,1463.02L1077.13,1463.03L1076.73,1463.03L1075.13,1462.99L1074.72,1462.97L1074.32,1462.95L1072.72,1462.83L1072.32,1462.79L1071.92,1462.74L1071.52,1462.7L1071.12,1462.65L1070.73,1462.59L1070.33,1462.54L1069.93,1462.47L1069.53,1462.41L1069.14,1462.34L1068.74,1462.27L1068.35,1462.2L1067.95,1462.12L1067.56,1462.04L1067.17,1461.95L1066.78,1461.87L1066.38,1461.77L1065.99,1461.68L1065.6,1461.58L1065.22,1461.48L1064.05,1461.15L1063.67,1461.04L1063.29,1460.92L1062.9,1460.8L1061.76,1460.41L1061.38,1460.27L1061.01,1460.13L1060.63,1459.99L1060.26,1459.84L1059.88,1459.7L1059.51,1459.54L1059.14,1459.39L1058.4,1459.07L1058.04,1458.9L1057.67,1458.73L1056.95,1458.39L1056.23,1458.03L1055.87,1457.84L1055.52,1457.66L1055.16,1457.47L1054.81,1457.27L1054.46,1457.08L1054.11,1456.88L1053.77,1456.67L1053.42,1456.47L1052.74,1456.05L1051.72,1455.39L1051.39,1455.17L1050.4,1454.48L1050.08,1454.25L1049.75,1454.01L1049.43,1453.77L1049.11,1453.52L1048.79,1453.28L1048.48,1453.03L1048.17,1452.77L1047.86,1452.52L1047.24,1452L1046.94,1451.74L1046.04,1450.93L1045.75,1450.66L1045.45,1450.38L1045.17,1450.1L1044.59,1449.54L1043.75,1448.67L1043.48,1448.38L1043.21,1448.08L1042.94,1447.79L1042.67,1447.49L1042.41,1447.18L1042.15,1446.88L1041.63,1446.26L1041.38,1445.95L1041.13,1445.63L1040.88,1445.32L1040.4,1444.68L1040.16,1444.35L1039.92,1444.03L1039,1442.71L1038.78,1442.37L1038.56,1442.04L1038.14,1441.36L1037.93,1441.01L1037.72,1440.67L1037.32,1439.97L1037.12,1439.63L1036.92,1439.27L1036.54,1438.57L1035.82,1437.13L1035.65,1436.77L1035.48,1436.4L1035.31,1436.04L1034.83,1434.93L1034.53,1434.19L1034.38,1433.81L1034.24,1433.44L1033.96,1432.68L1033.57,1431.54L1033.33,1430.78L1033.21,1430.39L1033.1,1430.01L1032.88,1429.23L1032.78,1428.84L1032.68,1428.46L1032.59,1428.06L1032.49,1427.67L1032.4,1427.28L1032.24,1426.5L1032.16,1426.1L1032.08,1425.71L1032.01,1425.31L1031.94,1424.92L1031.88,1424.52L1031.81,1424.12L1031.76,1423.73L1031.7,1423.33L1031.6,1422.53L1031.48,1421.33L1031.39,1420.13L1031.35,1419.33L1031.33,1418.92L1031.31,1418.12L1031.31,1417.72L1031.3,1417.32L1031.3,1163.54L1273.1,921.741L992.126,640.767Z" style="fill:rgb(150,79,34);"/>
        <path d="M992.126,529.952L600.337,921.741L874.589,1195.99L874.589,1376.96L870.609,1375.91L866.638,1374.83L862.676,1373.71L858.724,1372.56L854.783,1371.38L850.852,1370.16L846.932,1368.91L843.023,1367.62L839.125,1366.3L835.239,1364.94L831.366,1363.55L827.504,1362.12L823.655,1360.67L819.819,1359.17L815.997,1357.65L812.188,1356.09L808.392,1354.5L804.61,1352.87L800.843,1351.21L797.091,1349.52L793.354,1347.8L789.631,1346.04L785.925,1344.26L782.234,1342.43L778.559,1340.58L774.901,1338.69L771.259,1336.78L767.634,1334.83L764.026,1332.85L760.436,1330.83L756.864,1328.79L753.31,1326.71L749.773,1324.61L746.256,1322.47L742.757,1320.3L739.278,1318.11L735.817,1315.88L732.377,1313.62L728.957,1311.33L725.556,1309.01L722.176,1306.66L718.816,1304.28L715.478,1301.88L712.161,1299.44L708.866,1296.98L705.591,1294.48L702.339,1291.96L699.109,1289.41L695.902,1286.83L692.717,1284.22L689.556,1281.59L686.417,1278.92L683.302,1276.23L680.21,1273.52L677.143,1270.77L674.1,1268L671.081,1265.2L668.086,1262.38L665.117,1259.53L662.172,1256.66L659.253,1253.75L656.359,1250.83L653.491,1247.88L650.649,1244.9L647.833,1241.9L645.043,1238.87L642.281,1235.82L639.544,1232.75L636.835,1229.65L634.154,1226.52L631.499,1223.38L628.873,1220.21L626.273,1217.02L623.703,1213.8L621.16,1210.57L618.646,1207.31L616.16,1204.03L613.703,1200.73L611.275,1197.4L608.877,1194.06L606.508,1190.69L604.168,1187.31L601.858,1183.9L599.578,1180.47L597.328,1177.03L595.108,1173.56L592.919,1170.08L590.76,1166.57L588.632,1163.05L586.535,1159.51L584.469,1155.95L582.435,1152.37L580.431,1148.78L578.46,1145.16L576.52,1141.53L574.611,1137.89L572.735,1134.22L570.891,1130.54L569.08,1126.85L567.3,1123.14L565.553,1119.41L563.839,1115.67L562.158,1111.91L560.51,1108.14L558.895,1104.35L557.313,1100.56L555.764,1096.74L554.249,1092.92L552.767,1089.08L551.319,1085.22L549.904,1081.36L548.524,1077.48L547.178,1073.59L545.865,1069.69L544.587,1065.78L543.344,1061.85L542.134,1057.92L540.959,1053.98L539.819,1050.02L538.713,1046.06L537.643,1042.08L536.606,1038.1L535.605,1034.11L534.639,1030.11L533.708,1026.1L532.812,1022.08L531.951,1018.06L531.125,1014.02L530.335,1009.98L529.581,1005.94L528.861,1001.89L528.177,997.827L527.529,993.763L526.916,989.694L526.339,985.618L525.798,981.538L525.292,977.453L524.823,973.364L524.389,969.272L523.99,965.175L523.628,961.075L523.302,956.973L523.011,952.867L522.757,948.759L522.538,944.65L522.354,940.537L522.209,936.424L522.099,932.31L522.024,928.194L521.985,924.079L521.982,919.964L522.017,915.848L522.086,911.733L522.192,907.618L522.333,903.505L522.511,899.393L522.724,895.283L522.974,891.174L523.26,887.069L523.581,882.965L523.939,878.865L524.332,874.768L524.761,870.675L525.226,866.586L525.727,862.5L526.263,858.42L526.835,854.344L527.443,850.273L528.087,846.208L528.766,842.149L529.48,838.095L530.23,834.048L531.016,830.008L531.836,825.975L532.692,821.949L533.583,817.931L534.51,813.921L535.471,809.919L536.468,805.926L537.499,801.942L538.565,797.966L539.666,794L540.802,790.044L541.972,786.098L543.177,782.163L544.416,778.238L545.689,774.324L546.997,770.422L548.338,766.53L549.714,762.652L551.124,758.785L552.567,754.93L554.044,751.089L555.555,747.26L557.099,743.445L558.677,739.644L560.288,735.856L561.932,732.083L563.608,728.324L565.318,724.58L567.06,720.852L568.835,717.138L570.643,713.441L572.482,709.758L574.354,706.093L576.258,702.444L578.193,698.812L580.161,695.197L582.16,691.599L584.19,688.019L586.252,684.457L588.345,680.913L590.468,677.387L592.623,673.881L594.808,670.393L597.023,666.924L599.269,663.475L601.545,660.046L603.851,656.637L606.187,653.248L608.552,649.88L610.946,646.532L613.371,643.206L615.823,639.901L618.305,636.617L620.815,633.356L623.354,630.116L625.921,626.899L628.516,623.705L631.139,620.533L633.79,617.384L636.468,614.259L639.173,611.157L641.906,608.079L644.665,605.026L647.451,601.996L650.263,598.991L653.102,596.01L655.966,593.055L658.856,590.125L661.772,587.22L664.713,584.341L667.68,581.488L670.671,578.66L673.687,575.86L676.727,573.085L679.791,570.338L682.879,567.617L685.991,564.923L689.126,562.257L692.285,559.618L695.467,557.007L698.671,554.424L701.897,551.869L705.146,549.342L708.417,546.845L711.71,544.375L715.025,541.935L718.36,539.524L721.717,537.142L725.094,534.789L728.492,532.466L731.909,530.173L735.347,527.911L738.805,525.678L742.282,523.475L745.778,521.303L749.292,519.162L752.826,517.052L756.378,514.972L759.948,512.924L763.536,510.907L767.141,508.922L770.764,506.968L774.403,505.047L778.059,503.156L781.732,501.298L785.42,499.473L789.125,497.679L792.845,495.919L796.581,494.19L800.331,492.495L804.096,490.832L807.875,489.203L811.669,487.606L815.476,486.043L819.297,484.513L823.131,483.017L826.979,481.555L830.838,480.126L834.71,478.731L838.595,477.37L842.491,476.043L846.398,474.75L850.316,473.491L854.246,472.267L858.186,471.077L862.137,469.922L866.097,468.801L870.067,467.715L874.046,466.664L878.035,465.648L882.031,464.667L886.037,463.72L890.051,462.809L894.072,461.933L898.101,461.092L902.137,460.287L906.181,459.517L910.23,458.782L914.286,458.083L918.348,457.42L922.416,456.791L926.488,456.199L930.566,455.642L934.649,455.121L938.736,454.636L942.827,454.186L946.922,453.773L951.021,453.395L955.122,453.053L959.227,452.747L963.333,452.477L967.443,452.243L971.554,452.045L975.666,451.882L979.78,451.756L983.895,451.667L988.01,451.612L992.126,451.594L996.242,451.612L1000.36,451.667L1004.47,451.756L1008.59,451.882L1012.7,452.045L1016.81,452.243L1020.92,452.477L1025.03,452.747L1029.13,453.053L1033.23,453.395L1037.33,453.773L1041.42,454.186L1045.52,454.636L1049.6,455.121L1053.69,455.642L1057.76,456.199L1061.84,456.791L1065.9,457.42L1069.97,458.083L1074.02,458.782L1078.07,459.517L1082.11,460.287L1086.15,461.092L1090.18,461.933L1094.2,462.809L1098.21,463.72L1102.22,464.667L1106.22,465.648L1110.21,466.664L1114.19,467.715L1118.16,468.801L1122.12,469.922L1126.07,471.077L1130.01,472.267L1133.94,473.491L1137.85,474.75L1141.76,476.043L1145.66,477.37L1149.54,478.731L1153.41,480.126L1157.27,481.555L1161.12,483.017L1164.96,484.513L1168.78,486.043L1172.58,487.606L1176.38,489.203L1180.16,490.832L1183.92,492.495L1187.67,494.19L1191.41,495.919L1195.13,497.679L1198.83,499.473L1202.52,501.298L1206.19,503.156L1209.85,505.047L1213.49,506.968L1217.11,508.922L1220.72,510.907L1224.3,512.924L1227.87,514.972L1231.43,517.052L1234.96,519.162L1238.47,521.303L1241.97,523.475L1245.45,525.678L1248.9,527.911L1252.34,530.173L1255.76,532.466L1259.16,534.789L1262.54,537.142L1265.89,539.524L1269.23,541.935L1272.54,544.375L1275.83,546.845L1279.11,549.342L1282.35,551.869L1285.58,554.424L1288.79,557.007L1291.97,559.618L1295.13,562.257L1298.26,564.923L1301.37,567.617L1304.46,570.338L1307.53,573.085L1310.57,575.86L1313.58,578.66L1316.57,581.488L1319.54,584.341L1322.48,587.22L1325.4,590.125L1328.29,593.055L1331.15,596.01L1333.99,598.991L1336.8,601.996L1339.59,605.026L1342.35,608.079L1345.08,611.157L1347.78,614.259L1350.46,617.384L1353.11,620.533L1355.74,623.705L1358.33,626.899L1360.9,630.116L1363.44,633.356L1365.95,636.617L1368.43,639.901L1370.88,643.206L1373.31,646.532L1375.7,649.88L1378.07,653.248L1380.4,656.637L1382.71,660.046L1384.98,663.475L1387.23,666.924L1389.44,670.393L1391.63,673.881L1393.78,677.387L1395.91,680.913L1398,684.457L1400.06,688.019L1402.09,691.599L1404.09,695.197L1406.06,698.812L1407.99,702.444L1409.9,706.093L1411.77,709.758L1413.61,713.441L1415.42,717.138L1417.19,720.852L1418.93,724.58L1420.64,728.324L1422.32,732.083L1423.96,735.856L1425.58,739.644L1427.15,743.445L1428.7,747.26L1430.21,751.089L1431.68,754.93L1433.13,758.785L1434.54,762.652L1435.91,766.53L1437.25,770.422L1438.56,774.324L1439.84,778.238L1441.08,782.163L1442.28,786.098L1443.45,790.044L1444.59,794L1445.69,797.966L1446.75,801.942L1447.78,805.926L1448.78,809.919L1449.74,813.921L1450.67,817.931L1451.56,821.949L1452.42,825.975L1453.24,830.008L1454.02,834.048L1454.77,838.095L1455.49,842.149L1456.17,846.208L1456.81,850.273L1457.42,854.344L1457.99,858.42L1458.53,862.5L1459.03,866.586L1459.49,870.675L1459.92,874.768L1460.31,878.865L1460.67,882.965L1460.99,887.069L1461.28,891.174L1461.53,895.283L1461.74,899.393L1461.92,903.505L1462.06,907.618L1462.17,911.733L1462.24,915.848L1462.27,919.964L1462.27,924.079L1462.23,928.194L1462.15,932.31L1462.04,936.424L1461.9,940.537L1461.71,944.65L1461.5,948.759L1461.24,952.867L1460.95,956.973L1460.62,961.075L1460.26,965.175L1459.86,969.272L1459.43,973.364L1458.96,977.453L1458.45,981.538L1457.91,985.618L1457.34,989.694L1456.72,993.763L1456.08,997.827L1455.39,1001.89L1454.67,1005.94L1453.92,1009.98L1453.13,1014.02L1452.3,1018.06L1451.44,1022.08L1450.54,1026.1L1449.61,1030.11L1448.65,1034.11L1447.65,1038.1L1446.61,1042.08L1445.54,1046.06L1444.43,1050.02L1443.29,1053.98L1442.12,1057.92L1440.91,1061.85L1439.67,1065.78L1438.39,1069.69L1437.07,1073.59L1435.73,1077.48L1434.35,1081.36L1432.93,1085.22L1431.49,1089.08L1430,1092.92L1428.49,1096.74L1426.94,1100.56L1425.36,1104.35L1423.74,1108.14L1422.09,1111.91L1420.41,1115.67L1418.7,1119.41L1416.95,1123.14L1415.17,1126.85L1413.36,1130.54L1411.52,1134.22L1409.64,1137.89L1407.73,1141.53L1405.79,1145.16L1403.82,1148.78L1401.82,1152.37L1399.78,1155.95L1397.72,1159.51L1395.62,1163.05L1393.49,1166.57L1391.33,1170.08L1389.14,1173.56L1386.92,1177.03L1384.67,1180.47L1382.39,1183.9L1380.08,1187.31L1377.74,1190.69L1375.38,1194.06L1372.98,1197.4L1370.55,1200.73L1368.09,1204.03L1365.61,1207.31L1363.09,1210.57L1360.55,1213.8L1357.98,1217.02L1355.38,1220.21L1352.75,1223.38L1350.1,1226.52L1347.42,1229.65L1344.71,1232.75L1341.97,1235.82L1339.21,1238.87L1336.42,1241.9L1333.6,1244.9L1330.76,1247.88L1327.89,1250.83L1325,1253.75L1322.08,1256.66L1319.14,1259.53L1316.17,1262.38L1313.17,1265.2L1310.15,1268L1307.11,1270.77L1304.04,1273.52L1300.95,1276.23L1297.83,1278.92L1294.7,1281.59L1291.53,1284.22L1288.35,1286.83L1285.14,1289.41L1281.91,1291.96L1278.66,1294.48L1275.39,1296.98L1272.09,1299.44L1268.77,1301.88L1265.44,1304.28L1262.08,1306.66L1258.7,1309.01L1255.3,1311.33L1251.88,1313.62L1248.43,1315.88L1244.97,1318.11L1241.5,1320.3L1238,1322.47L1234.48,1324.61L1230.94,1326.71L1227.39,1328.79L1223.82,1330.83L1220.23,1332.85L1216.62,1334.83L1212.99,1336.78L1209.35,1338.69L1205.69,1340.58L1202.02,1342.43L1198.33,1344.26L1194.62,1346.04L1190.9,1347.8L1187.16,1349.52L1183.41,1351.21L1179.64,1352.87L1175.86,1354.5L1172.06,1356.09L1168.26,1357.65L1164.43,1359.17L1160.6,1360.67L1156.75,1362.12L1152.89,1363.55L1149.01,1364.94L1145.13,1366.3L1141.23,1367.62L1137.32,1368.91L1133.4,1370.16L1129.47,1371.38L1125.53,1372.56L1121.58,1373.71L1117.61,1374.83L1113.64,1375.91L1109.66,1376.96L1109.66,1195.99L1383.91,921.741L992.126,529.952Z" style="fill:white;"/>
    </g>
</svg>
