<?xml version="1.0" encoding="UTF-8" standalone="no"?>
<!DOCTYPE svg PUBLIC "-//W3C//DTD SVG 1.1//EN" "http://www.w3.org/Graphics/SVG/1.1/DTD/svg11.dtd">
<svg width="100%" height="100%" viewBox="0 0 171 171" version="1.1" xmlns="http://www.w3.org/2000/svg" xmlns:xlink="http://www.w3.org/1999/xlink" xml:space="preserve" xmlns:serif="http://www.serif.com/" style="fill-rule:evenodd;clip-rule:evenodd;stroke-linecap:round;stroke-linejoin:round;stroke-miterlimit:2;">
    <g>
        <rect x="0" y="0.936" width="170.064" height="170.064" style="fill:none;"/>
        <path d="M157.045,171L158.491,170.91L159.938,170.639L161.294,170.277L162.741,169.644L163.916,169.012L165.182,168.107L166.267,167.113L167.171,166.027L168.075,164.852L168.799,163.586L169.341,162.23L169.793,160.783L169.974,159.338L170.064,157.891L170.064,13.955L169.974,12.51L169.793,11.063L169.341,9.707L168.799,8.26L168.075,6.995L167.171,5.819L166.267,4.735L165.182,3.741L163.916,2.926L162.741,2.203L161.294,1.66L159.938,1.208L158.491,1.027L157.045,0.936L13.109,0.936L11.663,1.027L10.216,1.208L8.77,1.66L7.413,2.203L6.147,2.926L4.972,3.741L3.887,4.735L2.893,5.819L2.079,6.995L1.265,8.26L0.723,9.707L0.361,11.063L0.09,12.51L0,13.955L0,157.891L0.09,159.338L0.361,160.783L0.723,162.23L1.265,163.586L2.079,164.852L2.893,166.027L3.887,167.113L4.972,168.107L6.147,169.012L7.413,169.644L8.77,170.277L10.216,170.639L11.663,170.91L13.109,171L157.045,171Z" style="fill:white;fill-rule:nonzero;"/>
        <path d="M157.045,171L158.491,170.91L159.938,170.639L161.294,170.277L162.741,169.644L163.916,169.012L165.182,168.107L166.267,167.113L167.171,166.027L168.075,164.852L168.799,163.586L169.341,162.23L169.793,160.783L169.974,159.338L170.064,157.891L170.064,13.955L169.974,12.51L169.793,11.063L169.341,9.707L168.799,8.26L168.075,6.995L167.171,5.819L166.267,4.735L165.182,3.741L163.916,2.926L162.741,2.203L161.294,1.66L159.938,1.208L158.491,1.027L157.045,0.936L13.109,0.936L11.663,1.027L10.216,1.208L8.77,1.66L7.413,2.203L6.147,2.926L4.972,3.741L3.887,4.735L2.893,5.819L2.079,6.995L1.265,8.26L0.723,9.707L0.361,11.063L0.09,12.51L0,13.955L0,157.891L0.09,159.338L0.361,160.783L0.723,162.23L1.265,163.586L2.079,164.852L2.893,166.027L3.887,167.113L4.972,168.107L6.147,169.012L7.413,169.644L8.77,170.277L10.216,170.639L11.663,170.91L13.109,171L157.045,171Z" style="fill:none;"/>
        <path d="M157,164.445L157.994,164.355L158.989,164.174L159.893,163.812L160.796,163.18L161.611,162.547L162.244,161.732L162.786,160.92L163.147,159.924L163.418,158.93L163.509,157.936L163.509,14L163.418,13.006L163.147,12.012L162.786,11.018L162.244,10.204L161.611,9.391L160.796,8.666L159.893,8.215L158.989,7.762L157.994,7.582L157,7.491L13.064,7.491L11.979,7.582L10.984,7.762L10.08,8.215L9.176,8.666L8.453,9.391L7.729,10.204L7.277,11.018L6.825,12.012L6.554,13.006L6.554,158.93L6.825,159.924L7.277,160.92L7.729,161.732L8.453,162.547L9.176,163.18L10.08,163.812L10.984,164.174L11.979,164.355L13.064,164.445L157,164.445Z" style="fill:rgb(150,79,34);fill-rule:nonzero;"/>
        <path d="M157,164.445L157.994,164.355L158.989,164.174L159.893,163.812L160.796,163.18L161.611,162.547L162.244,161.732L162.786,160.92L163.147,159.924L163.418,158.93L163.509,157.936L163.509,14L163.418,13.006L163.147,12.012L162.786,11.018L162.244,10.204L161.611,9.391L160.796,8.666L159.893,8.215L158.989,7.762L157.994,7.582L157,7.491L13.064,7.491L11.979,7.582L10.984,7.762L10.08,8.215L9.176,8.666L8.453,9.391L7.729,10.204L7.277,11.018L6.825,12.012L6.554,13.006L6.554,158.93L6.825,159.924L7.277,160.92L7.729,161.732L8.453,162.547L9.176,163.18L10.08,163.812L10.984,164.174L11.979,164.355L13.064,164.445L157,164.445Z" style="fill:none;"/>
        <path d="M132.182,144.826L133.538,144.736L134.984,144.465L136.341,144.103L137.606,143.471L138.872,142.746L139.957,141.934L140.951,140.848L141.855,139.764L142.579,138.588L143.212,137.232L143.573,135.875L143.845,134.519L143.936,133.072L143.936,38.864L143.845,37.418L143.573,36.061L143.212,34.705L142.579,33.44L141.855,32.174L140.951,31.088L139.957,30.094L138.872,29.19L137.606,28.467L136.341,27.834L134.984,27.473L133.538,27.202L132.182,27.112L37.972,27.112L36.526,27.202L35.169,27.473L33.723,27.834L32.547,28.467L31.282,29.19L30.197,30.094L29.202,31.088L28.298,32.174L27.484,33.44L26.942,34.705L26.49,36.061L26.219,37.418L26.128,38.864L26.128,133.072L26.219,134.519L26.49,135.875L26.942,137.232L27.484,138.588L28.298,139.764L29.202,140.848L30.197,141.934L31.282,142.746L32.547,143.471L33.723,144.103L35.169,144.465L36.526,144.736L37.972,144.826L132.182,144.826Z" style="fill:white;fill-rule:nonzero;"/>
        <path d="M132.182,144.826L133.538,144.736L134.984,144.465L136.341,144.103L137.606,143.471L138.872,142.746L139.957,141.934L140.951,140.848L141.855,139.764L142.579,138.588L143.212,137.232L143.573,135.875L143.845,134.519L143.936,133.072L143.936,38.864L143.845,37.418L143.573,36.061L143.212,34.705L142.579,33.44L141.855,32.174L140.951,31.088L139.957,30.094L138.872,29.19L137.606,28.467L136.341,27.834L134.984,27.473L133.538,27.202L132.182,27.112L37.972,27.112L36.526,27.202L35.169,27.473L33.723,27.834L32.547,28.467L31.282,29.19L30.197,30.094L29.202,31.088L28.298,32.174L27.484,33.44L26.942,34.705L26.49,36.061L26.219,37.418L26.128,38.864L26.128,133.072L26.219,134.519L26.49,135.875L26.942,137.232L27.484,138.588L28.298,139.764L29.202,140.848L30.197,141.934L31.282,142.746L32.547,143.471L33.723,144.103L35.169,144.465L36.526,144.736L37.972,144.826L132.182,144.826Z" style="fill:none;"/>
        <path d="M57.47,35.332L42.013,110.4L47.622,106.387L62.252,35.332L57.47,35.332Z" style="fill:rgb(150,79,34);fill-rule:nonzero;"/>
        <path d="M57.47,35.332L42.013,110.4L47.622,106.387L62.252,35.332L57.47,35.332Z" style="fill:none;stroke:rgb(150,79,34);stroke-width:0.5px;"/>
        <path d="M77.737,78.606L93.535,82.026C97.221,82.821 100.96,83.329 104.724,83.538C107.888,83.711 111.048,83.141 113.949,81.877C116.157,80.911 118.043,79.338 119.392,77.342C121.199,74.668 122.147,71.504 122.116,68.278C122.098,66.659 121.313,65.145 119.996,64.198C118.128,62.852 115.937,62.016 113.647,61.78C105.406,60.924 97.107,62.666 89.906,66.764C92.139,64.243 92.782,60.692 91.568,57.547C90.115,53.784 87.72,50.452 84.613,47.877L78.414,42.741C92.729,44.288 106.68,48.219 119.694,54.375C122.776,55.834 125.276,58.278 126.803,61.325C127.8,63.321 128.464,65.465 128.766,67.674C129.38,72.125 129.686,76.622 129.686,81.116C129.682,85.598 128.912,90.043 127.406,94.262C125.727,98.969 123.859,103.607 121.813,108.162C120.592,110.879 118.686,113.232 116.285,114.998L122.268,121.111L106.655,135.769L90.932,131.373C73.904,137.67 55.3,138.299 37.885,133.17L53.526,125.686C48.61,123.51 43.256,122.504 37.885,122.752C39.48,118.484 41.945,114.596 45.125,111.334C53.116,103.135 63.115,97.172 74.127,94.041C74.496,88.737 75.715,83.524 77.737,78.606Z" style="fill:rgb(150,79,34);fill-rule:nonzero;"/>
        <path d="M77.737,78.606L93.535,82.026C97.221,82.821 100.96,83.329 104.724,83.538C107.888,83.711 111.048,83.141 113.949,81.877C116.157,80.911 118.043,79.338 119.392,77.342C121.199,74.668 122.147,71.504 122.116,68.278C122.098,66.659 121.313,65.145 119.996,64.198C118.128,62.852 115.937,62.016 113.647,61.78C105.406,60.924 97.107,62.666 89.906,66.764C92.139,64.243 92.782,60.692 91.568,57.547C90.115,53.784 87.72,50.452 84.613,47.877L78.414,42.741C92.729,44.288 106.68,48.219 119.694,54.375C122.776,55.834 125.276,58.278 126.803,61.325C127.8,63.321 128.464,65.465 128.766,67.674C129.38,72.125 129.686,76.622 129.686,81.116C129.682,85.598 128.912,90.043 127.406,94.262C125.727,98.969 123.859,103.607 121.813,108.162C120.592,110.879 118.686,113.232 116.285,114.998L122.268,121.111L106.655,135.769L90.932,131.373C73.904,137.67 55.3,138.299 37.885,133.17L53.526,125.686C48.61,123.51 43.256,122.504 37.885,122.752C39.48,118.484 41.945,114.596 45.125,111.334C53.116,103.135 63.115,97.172 74.127,94.041C74.496,88.737 75.715,83.524 77.737,78.606Z" style="fill:none;stroke:rgb(150,79,34);stroke-width:0.5px;"/>
        <path d="M58.471,112.746C55.534,110.514 51.364,110.975 48.985,113.795C48.486,114.225 48.202,114.848 48.209,115.506C48.214,116.158 48.511,116.779 49.017,117.199C50.04,118.045 51.124,118.809 52.264,119.49C54.041,120.551 56.315,120.26 57.772,118.789C58.221,118.336 58.645,117.855 59.044,117.359C59.591,116.674 59.838,115.801 59.73,114.93C59.621,114.061 59.168,113.275 58.471,112.746Z" style="fill:white;fill-rule:nonzero;"/>
        <path d="M58.471,112.746C55.534,110.514 51.364,110.975 48.985,113.795C48.486,114.225 48.202,114.848 48.209,115.506C48.214,116.158 48.511,116.779 49.017,117.199C50.04,118.045 51.124,118.809 52.264,119.49C54.041,120.551 56.315,120.26 57.772,118.789C58.221,118.336 58.645,117.855 59.044,117.359C59.591,116.674 59.838,115.801 59.73,114.93C59.621,114.061 59.168,113.275 58.471,112.746Z" style="fill:none;stroke:white;stroke-width:0.16px;"/>
    </g>
</svg>
