<?xml version="1.0" encoding="UTF-8" standalone="no"?>
<!DOCTYPE svg PUBLIC "-//W3C//DTD SVG 1.1//EN" "http://www.w3.org/Graphics/SVG/1.1/DTD/svg11.dtd">
<svg width="100%" height="100%" viewBox="0 0 171 171" version="1.1" xmlns="http://www.w3.org/2000/svg" xmlns:xlink="http://www.w3.org/1999/xlink" xml:space="preserve" xmlns:serif="http://www.serif.com/" style="fill-rule:evenodd;clip-rule:evenodd;stroke-linecap:round;stroke-linejoin:round;stroke-miterlimit:2;">
    <g>
        <rect x="0" y="0.936" width="170.064" height="170.064" style="fill:none;"/>
        <path d="M157.045,171L158.491,170.91L159.938,170.639L161.294,170.277L162.741,169.644L163.916,169.012L165.182,168.107L166.267,167.113L167.171,166.027L168.075,164.852L168.799,163.586L169.341,162.23L169.793,160.783L169.974,159.338L170.064,157.891L170.064,13.955L169.974,12.51L169.793,11.063L169.341,9.707L168.799,8.26L168.075,6.995L167.171,5.819L166.267,4.735L165.182,3.741L163.916,2.926L162.741,2.203L161.294,1.66L159.938,1.208L158.491,1.027L157.045,0.936L13.109,0.936L11.663,1.027L10.216,1.208L8.77,1.66L7.413,2.203L6.147,2.926L4.972,3.741L3.887,4.735L2.893,5.819L2.079,6.995L1.265,8.26L0.723,9.707L0.361,11.063L0.09,12.51L0,13.955L0,157.891L0.09,159.338L0.361,160.783L0.723,162.23L1.265,163.586L2.079,164.852L2.893,166.027L3.887,167.113L4.972,168.107L6.147,169.012L7.413,169.644L8.77,170.277L10.216,170.639L11.663,170.91L13.109,171L157.045,171Z" style="fill:white;fill-rule:nonzero;"/>
        <path d="M157.045,171L158.491,170.91L159.938,170.639L161.294,170.277L162.741,169.644L163.916,169.012L165.182,168.107L166.267,167.113L167.171,166.027L168.075,164.852L168.799,163.586L169.341,162.23L169.793,160.783L169.974,159.338L170.064,157.891L170.064,13.955L169.974,12.51L169.793,11.063L169.341,9.707L168.799,8.26L168.075,6.995L167.171,5.819L166.267,4.735L165.182,3.741L163.916,2.926L162.741,2.203L161.294,1.66L159.938,1.208L158.491,1.027L157.045,0.936L13.109,0.936L11.663,1.027L10.216,1.208L8.77,1.66L7.413,2.203L6.147,2.926L4.972,3.741L3.887,4.735L2.893,5.819L2.079,6.995L1.265,8.26L0.723,9.707L0.361,11.063L0.09,12.51L0,13.955L0,157.891L0.09,159.338L0.361,160.783L0.723,162.23L1.265,163.586L2.079,164.852L2.893,166.027L3.887,167.113L4.972,168.107L6.147,169.012L7.413,169.644L8.77,170.277L10.216,170.639L11.663,170.91L13.109,171L157.045,171Z" style="fill:none;"/>
        <path d="M157,164.445L157.994,164.355L158.989,164.174L159.893,163.812L160.796,163.18L161.611,162.547L162.244,161.732L162.786,160.92L163.147,159.924L163.418,158.93L163.509,157.936L163.509,14L163.418,13.006L163.147,12.012L162.786,11.018L162.244,10.204L161.611,9.391L160.796,8.666L159.893,8.215L158.989,7.762L157.994,7.582L157,7.491L13.064,7.491L11.979,7.582L10.984,7.762L10.08,8.215L9.176,8.666L8.453,9.391L7.729,10.204L7.277,11.018L6.825,12.012L6.554,13.006L6.554,158.93L6.825,159.924L7.277,160.92L7.729,161.732L8.453,162.547L9.176,163.18L10.08,163.812L10.984,164.174L11.979,164.355L13.064,164.445L157,164.445Z" style="fill:rgb(150,79,34);fill-rule:nonzero;"/>
        <path d="M157,164.445L157.994,164.355L158.989,164.174L159.893,163.812L160.796,163.18L161.611,162.547L162.244,161.732L162.786,160.92L163.147,159.924L163.418,158.93L163.509,157.936L163.509,14L163.418,13.006L163.147,12.012L162.786,11.018L162.244,10.204L161.611,9.391L160.796,8.666L159.893,8.215L158.989,7.762L157.994,7.582L157,7.491L13.064,7.491L11.979,7.582L10.984,7.762L10.08,8.215L9.176,8.666L8.453,9.391L7.729,10.204L7.277,11.018L6.825,12.012L6.554,13.006L6.554,158.93L6.825,159.924L7.277,160.92L7.729,161.732L8.453,162.547L9.176,163.18L10.08,163.812L10.984,164.174L11.979,164.355L13.064,164.445L157,164.445Z" style="fill:none;"/>
        <path d="M132.182,144.826L133.538,144.736L134.984,144.465L136.341,144.103L137.606,143.471L138.872,142.746L139.957,141.934L140.951,140.848L141.855,139.764L142.579,138.588L143.212,137.232L143.573,135.875L143.845,134.519L143.936,133.072L143.936,38.864L143.845,37.418L143.573,36.061L143.212,34.705L142.579,33.44L141.855,32.174L140.951,31.088L139.957,30.094L138.872,29.19L137.606,28.467L136.341,27.834L134.984,27.473L133.538,27.202L132.182,27.112L37.972,27.112L36.526,27.202L35.169,27.473L33.723,27.834L32.547,28.467L31.282,29.19L30.197,30.094L29.202,31.088L28.298,32.174L27.484,33.44L26.942,34.705L26.49,36.061L26.219,37.418L26.128,38.864L26.128,133.072L26.219,134.519L26.49,135.875L26.942,137.232L27.484,138.588L28.298,139.764L29.202,140.848L30.197,141.934L31.282,142.746L32.547,143.471L33.723,144.103L35.169,144.465L36.526,144.736L37.972,144.826L132.182,144.826Z" style="fill:white;fill-rule:nonzero;"/>
        <path d="M132.182,144.826L133.538,144.736L134.984,144.465L136.341,144.103L137.606,143.471L138.872,142.746L139.957,141.934L140.951,140.848L141.855,139.764L142.579,138.588L143.212,137.232L143.573,135.875L143.845,134.519L143.936,133.072L143.936,38.864L143.845,37.418L143.573,36.061L143.212,34.705L142.579,33.44L141.855,32.174L140.951,31.088L139.957,30.094L138.872,29.19L137.606,28.467L136.341,27.834L134.984,27.473L133.538,27.202L132.182,27.112L37.972,27.112L36.526,27.202L35.169,27.473L33.723,27.834L32.547,28.467L31.282,29.19L30.197,30.094L29.202,31.088L28.298,32.174L27.484,33.44L26.942,34.705L26.49,36.061L26.219,37.418L26.128,38.864L26.128,133.072L26.219,134.519L26.49,135.875L26.942,137.232L27.484,138.588L28.298,139.764L29.202,140.848L30.197,141.934L31.282,142.746L32.547,143.471L33.723,144.103L35.169,144.465L36.526,144.736L37.972,144.826L132.182,144.826Z" style="fill:none;"/>
        <path d="M121.629,55.586L118.867,55.586L118.867,82.288L128.72,82.288C129.994,81.059 131.138,79.704 132.136,78.245C134.128,75.321 134.6,71.614 133.403,68.284C131.369,62.623 127.119,58.043 121.629,55.586Z" style="fill:rgb(150,79,34);fill-rule:nonzero;"/>
        <path d="M121.629,55.586L118.867,55.586L118.867,82.288L128.72,82.288C129.994,81.059 131.138,79.704 132.136,78.245C134.128,75.321 134.6,71.614 133.403,68.284C131.369,62.623 127.119,58.043 121.629,55.586Z" style="fill:none;stroke:rgb(150,79,34);stroke-width:0.5px;"/>
        <path d="M102.838,36.618C100.619,34.907 97.526,34.907 95.307,36.618C92.462,38.809 90.662,42.086 90.339,45.664C90.016,49.241 91.198,52.788 93.602,55.457C95.002,57.006 96.99,57.891 99.074,57.891C101.159,57.891 103.147,57.006 104.542,55.457C106.95,52.788 108.132,49.241 107.81,45.664C107.486,42.086 105.683,38.809 102.838,36.618Z" style="fill:rgb(150,79,34);fill-rule:nonzero;"/>
        <path d="M102.838,36.618C100.619,34.907 97.526,34.907 95.307,36.618C92.462,38.809 90.662,42.086 90.339,45.664C90.016,49.241 91.198,52.788 93.602,55.457C95.002,57.006 96.99,57.891 99.074,57.891C101.159,57.891 103.147,57.006 104.542,55.457C106.95,52.788 108.132,49.241 107.81,45.664C107.486,42.086 105.683,38.809 102.838,36.618Z" style="fill:none;stroke:rgb(150,79,34);stroke-width:0.5px;"/>
        <path d="M108.708,55.786C112.493,56.633 115.185,59.993 115.185,63.873L115.185,114.508L123.121,124.424C125.07,126.863 124.992,130.352 122.932,132.697C122.368,133.34 121.778,133.959 121.16,134.551C120.319,135.353 119.179,135.769 118.021,135.691C116.86,135.613 115.785,135.053 115.06,134.146L102.295,118.189L102.295,103.461L94.93,112.668L94.93,131.078C94.93,134.129 92.459,136.603 89.407,136.603C86.355,136.603 83.882,134.129 83.882,131.078L83.882,108.986L94.93,91.493L94.93,82.288L87.105,82.288C84.818,82.288 82.962,80.434 82.962,78.145C82.962,75.854 84.818,74 87.105,74L94.93,74L94.93,62.034L99.351,62.034C103.445,62.034 107.138,59.571 108.708,55.786Z" style="fill:rgb(150,79,34);fill-rule:nonzero;"/>
        <path d="M108.708,55.786C112.493,56.633 115.185,59.993 115.185,63.873L115.185,114.508L123.121,124.424C125.07,126.863 124.992,130.352 122.932,132.697C122.368,133.34 121.778,133.959 121.16,134.551C120.319,135.353 119.179,135.769 118.021,135.691C116.86,135.613 115.785,135.053 115.06,134.146L102.295,118.189L102.295,103.461L94.93,112.668L94.93,131.078C94.93,134.129 92.459,136.603 89.407,136.603C86.355,136.603 83.882,134.129 83.882,131.078L83.882,108.986L94.93,91.493L94.93,82.288L87.105,82.288C84.818,82.288 82.962,80.434 82.962,78.145C82.962,75.854 84.818,74 87.105,74L94.93,74L94.93,62.034L99.351,62.034C103.445,62.034 107.138,59.571 108.708,55.786Z" style="fill:none;stroke:rgb(150,79,34);stroke-width:0.5px;"/>
        <path d="M36.009,127.766L36.009,119.113C41.663,114.262 48.239,110.605 55.343,108.361L55.343,99.524L51.442,99.524C47.783,99.524 44.172,98.686 40.887,97.073L40.887,96.612C44.46,96.364 47.793,94.737 50.19,92.079L55.343,86.362L55.343,85.899L49.755,85.899C47.444,86.01 45.228,84.965 43.835,83.12L43.835,82.899C47.81,83.084 51.597,81.202 53.85,77.92C56.371,74.248 58.027,70.051 58.694,65.645L59.357,65.645C60.022,70.051 61.679,74.248 64.202,77.92C66.455,81.202 70.242,83.084 74.215,82.899L74.215,83.12C72.823,84.965 70.607,86.01 68.296,85.899L62.707,85.899L62.707,86.362L67.861,92.079C70.256,94.737 73.592,96.364 77.162,96.612L77.162,97.073C73.877,98.686 70.268,99.524 66.609,99.524L62.707,99.524L62.707,106.092L67.556,105.402C71.17,104.893 74.853,105.15 78.359,106.166L78.359,112.611C70.018,111.361 61.496,112.664 53.91,116.35C47.522,119.453 41.516,123.281 36.009,127.766Z" style="fill:rgb(150,79,34);fill-rule:nonzero;"/>
        <path d="M36.009,127.766L36.009,119.113C41.663,114.262 48.239,110.605 55.343,108.361L55.343,99.524L51.442,99.524C47.783,99.524 44.172,98.686 40.887,97.073L40.887,96.612C44.46,96.364 47.793,94.737 50.19,92.079L55.343,86.362L55.343,85.899L49.755,85.899C47.444,86.01 45.228,84.965 43.835,83.12L43.835,82.899C47.81,83.084 51.597,81.202 53.85,77.92C56.371,74.248 58.027,70.051 58.694,65.645L59.357,65.645C60.022,70.051 61.679,74.248 64.202,77.92C66.455,81.202 70.242,83.084 74.215,82.899L74.215,83.12C72.823,84.965 70.607,86.01 68.296,85.899L62.707,85.899L62.707,86.362L67.861,92.079C70.256,94.737 73.592,96.364 77.162,96.612L77.162,97.073C73.877,98.686 70.268,99.524 66.609,99.524L62.707,99.524L62.707,106.092L67.556,105.402C71.17,104.893 74.853,105.15 78.359,106.166L78.359,112.611C70.018,111.361 61.496,112.664 53.91,116.35C47.522,119.453 41.516,123.281 36.009,127.766Z" style="fill:none;stroke:rgb(150,79,34);stroke-width:0.5px;"/>
    </g>
</svg>
