<?xml version="1.0" encoding="UTF-8" standalone="no"?>
<!DOCTYPE svg PUBLIC "-//W3C//DTD SVG 1.1//EN" "http://www.w3.org/Graphics/SVG/1.1/DTD/svg11.dtd">
<svg width="100%" height="100%" viewBox="0 0 171 171" version="1.1" xmlns="http://www.w3.org/2000/svg" xmlns:xlink="http://www.w3.org/1999/xlink" xml:space="preserve" xmlns:serif="http://www.serif.com/" style="fill-rule:evenodd;clip-rule:evenodd;stroke-linecap:round;stroke-linejoin:round;stroke-miterlimit:2;">
    <g>
        <rect x="0" y="0.936" width="170.064" height="170.064" style="fill:none;"/>
        <path d="M157.045,171L158.491,170.91L159.938,170.639L161.294,170.277L162.741,169.644L163.916,169.012L165.182,168.107L166.267,167.113L167.171,166.027L168.075,164.852L168.799,163.586L169.341,162.23L169.793,160.783L169.974,159.338L170.064,157.891L170.064,13.955L169.974,12.51L169.793,11.063L169.341,9.707L168.799,8.26L168.075,6.995L167.171,5.819L166.267,4.735L165.182,3.741L163.916,2.926L162.741,2.203L161.294,1.66L159.938,1.208L158.491,1.027L157.045,0.936L13.109,0.936L11.663,1.027L10.216,1.208L8.77,1.66L7.413,2.203L6.147,2.926L4.972,3.741L3.887,4.735L2.893,5.819L2.079,6.995L1.265,8.26L0.723,9.707L0.361,11.063L0.09,12.51L0,13.955L0,157.891L0.09,159.338L0.361,160.783L0.723,162.23L1.265,163.586L2.079,164.852L2.893,166.027L3.887,167.113L4.972,168.107L6.147,169.012L7.413,169.644L8.77,170.277L10.216,170.639L11.663,170.91L13.109,171L157.045,171Z" style="fill:white;fill-rule:nonzero;"/>
        <path d="M157.045,171L158.491,170.91L159.938,170.639L161.294,170.277L162.741,169.644L163.916,169.012L165.182,168.107L166.267,167.113L167.171,166.027L168.075,164.852L168.799,163.586L169.341,162.23L169.793,160.783L169.974,159.338L170.064,157.891L170.064,13.955L169.974,12.51L169.793,11.063L169.341,9.707L168.799,8.26L168.075,6.995L167.171,5.819L166.267,4.735L165.182,3.741L163.916,2.926L162.741,2.203L161.294,1.66L159.938,1.208L158.491,1.027L157.045,0.936L13.109,0.936L11.663,1.027L10.216,1.208L8.77,1.66L7.413,2.203L6.147,2.926L4.972,3.741L3.887,4.735L2.893,5.819L2.079,6.995L1.265,8.26L0.723,9.707L0.361,11.063L0.09,12.51L0,13.955L0,157.891L0.09,159.338L0.361,160.783L0.723,162.23L1.265,163.586L2.079,164.852L2.893,166.027L3.887,167.113L4.972,168.107L6.147,169.012L7.413,169.644L8.77,170.277L10.216,170.639L11.663,170.91L13.109,171L157.045,171Z" style="fill:none;"/>
        <path d="M157,164.445L157.994,164.355L158.989,164.174L159.893,163.812L160.796,163.18L161.611,162.547L162.244,161.732L162.786,160.92L163.147,159.924L163.418,158.93L163.509,157.936L163.509,14L163.418,13.006L163.147,12.012L162.786,11.018L162.244,10.204L161.611,9.391L160.796,8.666L159.893,8.215L158.989,7.762L157.994,7.582L157,7.491L13.064,7.491L11.979,7.582L10.984,7.762L10.08,8.215L9.176,8.666L8.453,9.391L7.729,10.204L7.277,11.018L6.825,12.012L6.554,13.006L6.554,158.93L6.825,159.924L7.277,160.92L7.729,161.732L8.453,162.547L9.176,163.18L10.08,163.812L10.984,164.174L11.979,164.355L13.064,164.445L157,164.445Z" style="fill:rgb(150,79,34);fill-rule:nonzero;"/>
        <path d="M157,164.445L157.994,164.355L158.989,164.174L159.893,163.812L160.796,163.18L161.611,162.547L162.244,161.732L162.786,160.92L163.147,159.924L163.418,158.93L163.509,157.936L163.509,14L163.418,13.006L163.147,12.012L162.786,11.018L162.244,10.204L161.611,9.391L160.796,8.666L159.893,8.215L158.989,7.762L157.994,7.582L157,7.491L13.064,7.491L11.979,7.582L10.984,7.762L10.08,8.215L9.176,8.666L8.453,9.391L7.729,10.204L7.277,11.018L6.825,12.012L6.554,13.006L6.554,158.93L6.825,159.924L7.277,160.92L7.729,161.732L8.453,162.547L9.176,163.18L10.08,163.812L10.984,164.174L11.979,164.355L13.064,164.445L157,164.445Z" style="fill:none;"/>
        <path d="M132.182,144.826L133.538,144.736L134.984,144.465L136.341,144.103L137.606,143.471L138.872,142.746L139.957,141.934L140.951,140.848L141.855,139.764L142.579,138.588L143.212,137.232L143.573,135.875L143.845,134.519L143.936,133.072L143.936,38.864L143.845,37.418L143.573,36.061L143.212,34.705L142.579,33.44L141.855,32.174L140.951,31.088L139.957,30.094L138.872,29.19L137.606,28.467L136.341,27.834L134.984,27.473L133.538,27.202L132.182,27.112L37.972,27.112L36.526,27.202L35.169,27.473L33.723,27.834L32.547,28.467L31.282,29.19L30.197,30.094L29.202,31.088L28.298,32.174L27.484,33.44L26.942,34.705L26.49,36.061L26.219,37.418L26.128,38.864L26.128,133.072L26.219,134.519L26.49,135.875L26.942,137.232L27.484,138.588L28.298,139.764L29.202,140.848L30.197,141.934L31.282,142.746L32.547,143.471L33.723,144.103L35.169,144.465L36.526,144.736L37.972,144.826L132.182,144.826Z" style="fill:white;fill-rule:nonzero;"/>
        <path d="M132.182,144.826L133.538,144.736L134.984,144.465L136.341,144.103L137.606,143.471L138.872,142.746L139.957,141.934L140.951,140.848L141.855,139.764L142.579,138.588L143.212,137.232L143.573,135.875L143.845,134.519L143.936,133.072L143.936,38.864L143.845,37.418L143.573,36.061L143.212,34.705L142.579,33.44L141.855,32.174L140.951,31.088L139.957,30.094L138.872,29.19L137.606,28.467L136.341,27.834L134.984,27.473L133.538,27.202L132.182,27.112L37.972,27.112L36.526,27.202L35.169,27.473L33.723,27.834L32.547,28.467L31.282,29.19L30.197,30.094L29.202,31.088L28.298,32.174L27.484,33.44L26.942,34.705L26.49,36.061L26.219,37.418L26.128,38.864L26.128,133.072L26.219,134.519L26.49,135.875L26.942,137.232L27.484,138.588L28.298,139.764L29.202,140.848L30.197,141.934L31.282,142.746L32.547,143.471L33.723,144.103L35.169,144.465L36.526,144.736L37.972,144.826L132.182,144.826Z" style="fill:none;"/>
        <path d="M41.139,121.353L42.091,121.353L43.185,124.439C43.921,126.519 45.89,127.912 48.101,127.912L61.386,127.912L57.819,89.149C56.052,88.399 54.84,86.741 54.664,84.827C54.488,82.913 55.376,81.059 56.978,80L56.431,74.071L59.923,74.071L64.369,77.95L72.297,76.11L76.326,59.94C81.945,61.467 87.802,58.469 89.858,53.022L106.797,83.395C108.313,86.112 107.837,89.51 105.632,91.705L101.961,95.37L113.068,127.912L131.106,127.912L131.106,136.603L48.52,136.603C43.239,136.603 38.957,132.322 38.957,127.041L38.957,121.939L41.139,121.353Z" style="fill:rgb(150,79,34);fill-rule:nonzero;"/>
        <path d="M41.139,121.353L42.091,121.353L43.185,124.439C43.921,126.519 45.89,127.912 48.101,127.912L61.386,127.912L57.819,89.149C56.052,88.399 54.84,86.741 54.664,84.827C54.488,82.913 55.376,81.059 56.978,80L56.431,74.071L59.923,74.071L64.369,77.95L72.297,76.11L76.326,59.94C81.945,61.467 87.802,58.469 89.858,53.022L106.797,83.395C108.313,86.112 107.837,89.51 105.632,91.705L101.961,95.37L113.068,127.912L131.106,127.912L131.106,136.603L48.52,136.603C43.239,136.603 38.957,132.322 38.957,127.041L38.957,121.939L41.139,121.353Z" style="fill:none;stroke:rgb(150,79,34);stroke-width:0.5px;"/>
        <path d="M92.473,50.573L97.028,48.03C101.223,45.694 106.517,47.2 108.856,51.389L115.631,63.539C117.968,67.729 116.466,73.028 112.272,75.364L107.717,77.907L92.473,50.573Z" style="fill:rgb(150,79,34);fill-rule:nonzero;"/>
        <path d="M92.473,50.573L97.028,48.03C101.223,45.694 106.517,47.2 108.856,51.389L115.631,63.539C117.968,67.729 116.466,73.028 112.272,75.364L107.717,77.907L92.473,50.573Z" style="fill:none;stroke:rgb(150,79,34);stroke-width:0.5px;"/>
        <path d="M77.752,35.502C74.037,34.721 70.3,36.717 68.885,40.241C67.543,43.577 67.747,47.342 69.444,50.516C71.142,53.69 74.154,55.948 77.677,56.686C81.391,57.467 85.128,55.473 86.543,51.95C87.885,48.612 87.681,44.848 85.985,41.674C84.288,38.5 81.274,36.241 77.752,35.502Z" style="fill:rgb(150,79,34);fill-rule:nonzero;"/>
        <path d="M77.752,35.502C74.037,34.721 70.3,36.717 68.885,40.241C67.543,43.577 67.747,47.342 69.444,50.516C71.142,53.69 74.154,55.948 77.677,56.686C81.391,57.467 85.128,55.473 86.543,51.95C87.885,48.612 87.681,44.848 85.985,41.674C84.288,38.5 81.274,36.241 77.752,35.502Z" style="fill:none;stroke:rgb(150,79,34);stroke-width:0.5px;"/>
        <path d="M88.508,90.37L82.422,79.504L81.329,84.723L61.331,89.362L64.878,127.912L78.076,127.912L78.076,101.238L88.508,90.37Z" style="fill:white;fill-rule:nonzero;"/>
        <path d="M88.508,90.37L82.422,79.504L81.329,84.723L61.331,89.362L64.878,127.912L78.076,127.912L78.076,101.238L88.508,90.37Z" style="fill:none;stroke:white;stroke-width:0.38px;"/>
        <path d="M88.508,108.783L93.737,103.568L102.046,127.912L88.508,127.912L88.508,108.783Z" style="fill:white;fill-rule:nonzero;"/>
        <path d="M88.508,108.783L93.737,103.568L102.046,127.912L88.508,127.912L88.508,108.783Z" style="fill:none;stroke:white;stroke-width:0.19px;"/>
    </g>
</svg>
