<?xml version="1.0" encoding="UTF-8" standalone="no"?>
<!DOCTYPE svg PUBLIC "-//W3C//DTD SVG 1.1//EN" "http://www.w3.org/Graphics/SVG/1.1/DTD/svg11.dtd">
<svg width="100%" height="100%" viewBox="0 0 497 215" version="1.1" xmlns="http://www.w3.org/2000/svg" xmlns:xlink="http://www.w3.org/1999/xlink" xml:space="preserve" xmlns:serif="http://www.serif.com/" style="fill-rule:evenodd;clip-rule:evenodd;stroke-linejoin:round;stroke-miterlimit:2;">
    <g>
        <rect x="0" y="0.125" width="496.875" height="214.75" style="fill:white;"/>
        <path d="M479.25,112L479,116.375L478.375,120.75L477.625,125.125L476.625,129.375L475.5,133.625L474.125,137.875L472.5,142L470.75,146L468.75,150L464.25,157.5L461.625,161.125L458.875,164.625L456,168L453,171.125L449.75,174.25L446.5,177.125L443,179.75L439.375,182.25L435.625,184.75L431.75,186.875L427.875,188.875L423.875,190.625L419.75,192.25L415.5,193.625L411.25,194.75L407,195.75L402.625,196.5L398.25,197L393.875,197.375L389.375,197.5L107.5,197.5L103,197.375L98.625,197L94.25,196.5L89.875,195.75L85.625,194.75L81.375,193.625L77.125,192.25L73,190.625L69,188.875L65,186.875L61.125,184.75L53.875,179.75L50.375,177.125L47,174.25L40.75,168L37.875,164.625L35.25,161.125L32.625,157.5L30.25,153.75L28.125,150L26.125,146L24.375,142L22.75,137.875L21.375,133.625L19.125,125.125L17.875,116.375L17.625,112L17.5,107.5L17.625,103.125L17.875,98.75L19.125,90L20.25,85.75L21.375,81.375L22.75,77.25L24.375,73.125L26.125,69.125L28.125,65.125L30.25,61.25L32.625,57.5L37.875,50.5L40.75,47.125L43.875,43.875L47,40.875L50.375,38L53.875,35.25L57.5,32.75L61.125,30.375L65,28.25L69,26.25L73,24.375L77.125,22.875L81.375,21.5L85.625,20.25L89.875,19.375L94.25,18.5L98.625,18L103,17.75L107.5,17.625L389.375,17.625L393.875,17.75L398.25,18L402.625,18.5L407,19.375L411.25,20.25L415.5,21.5L419.75,22.875L423.875,24.375L427.875,26.25L431.75,28.25L435.625,30.375L439.375,32.75L443,35.25L446.5,38L449.75,40.875L453,43.875L456,47.125L458.875,50.5L461.625,54L464.25,57.5L466.5,61.25L468.75,65.125L470.75,69.125L472.5,73.125L474.125,77.25L475.5,81.375L476.625,85.75L477.625,90L478.375,94.375L479,98.75L479.25,103.125L479.375,107.5L479.25,112ZM490,102.625L489.625,97.75L489,92.75L488.25,87.875L487.125,83L485.75,78.25L484.25,73.625L482.5,69L480.5,64.5L478.25,60.125L475.75,55.75L473.125,51.625L470.375,47.5L467.25,43.625L464,39.875L460.625,36.25L457.125,33L453.25,29.75L449.375,26.625L445.375,23.875L441.125,21.25L436.875,18.75L432.5,16.5L428,14.5L423.375,12.75L418.625,11.125L413.875,9.875L409.125,8.75L404.25,7.875L399.25,7.375L394.375,7L389.375,6.875L107.5,6.875L102.5,7L97.5,7.375L92.625,7.875L87.875,8.75L83,9.875L78.25,11.125L73.5,12.75L68.875,14.5L64.375,16.5L60,18.75L55.625,21.25L51.5,23.875L47.5,26.625L43.5,29.75L36.25,36.25L32.75,39.875L29.625,43.625L26.625,47.5L23.625,51.625L21,55.75L18.625,60.125L16.375,64.5L14.375,69L12.625,73.625L11.125,78.25L9.75,83L8.625,87.875L7.875,92.75L7.25,97.75L6.875,102.625L6.75,107.5L6.875,112.5L7.25,117.375L7.875,122.25L8.625,127.125L9.75,132L11.125,136.75L12.625,141.375L14.375,146L16.375,150.625L18.625,155L21,159.25L23.625,163.5L26.625,167.5L29.625,171.375L32.75,175.125L36.25,178.75L39.875,182.125L43.5,185.375L47.5,188.375L51.5,191.25L55.625,193.875L60,196.375L64.375,198.5L68.875,200.5L73.5,202.375L78.25,203.875L83,205.25L87.875,206.25L92.625,207.125L97.5,207.75L102.5,208.125L107.5,208.25L389.375,208.25L394.375,208.125L399.25,207.75L404.25,207.125L409.125,206.25L413.875,205.25L418.625,203.875L423.375,202.375L428,200.5L432.5,198.5L436.875,196.375L441.125,193.875L445.375,191.25L449.375,188.375L453.25,185.375L457.125,182.125L460.625,178.75L464,175.125L467.25,171.375L470.375,167.5L473.125,163.5L475.75,159.25L478.25,155L480.5,150.625L482.5,146L484.25,141.375L485.75,136.75L487.125,132L488.25,127.125L489,122.25L489.625,117.375L490,112.5L490.125,107.5L490,102.625Z" style="fill:rgb(35,31,32);"/>
        <path d="M92.625,71.875L108.125,71.875L110.25,72.25L112.125,72.875L113.75,74L115.375,75.375L116.25,76.25L117.375,77.875L118.125,79.75L118.625,81.625L118.875,83.875L118.75,84.875L118.375,87L117.75,88.875L116.75,90.625L115.375,92.25L114.625,93L112.875,94.25L111.125,95L109.125,95.5L107,95.75L92.625,95.75L92.625,71.875ZM117.125,107.5L117.875,107.125L119.75,106.375L121.625,105.25L123.25,104.125L124.875,102.875L126.375,101.375L127.75,99.875L129,98.125L129.375,97.625L130.375,95.875L131.375,94L132.125,92L132.625,90.125L133.125,88L133.25,85.875L133.375,83.875L133.375,82.25L133.125,80.125L132.875,78.125L132.375,76.125L131.625,74.125L130.875,72.375L129.875,70.625L128.75,68.875L127.375,67.25L126,65.75L124.875,64.625L123.25,63.25L121.5,62.125L119.75,61.125L118,60.25L116.125,59.5L114.125,59L112.125,58.625L110,58.375L107.875,58.25L78.125,58.25L78.125,143.25L92.625,143.25L92.625,109.25L101.75,109.25L118.875,143.25L135,143.25L117.125,107.5Z" style="fill:rgb(35,31,32);"/>
        <rect x="154.625" y="82.625" width="12.875" height="60.625" style="fill:rgb(35,31,32);fill-rule:nonzero;"/>
        <path d="M161.125,56.75L159,57L157.125,57.75L156,58.75L154.75,60.375L154,62.25L153.875,64L154.125,66.125L155,67.875L156,69L157.625,70.25L159.5,70.875L161.125,71L163.125,70.75L165,69.875L166.125,69L167.5,67.375L168.125,65.375L168.25,64L168,61.875L167.125,60.125L166.125,58.75L164.625,57.5L162.625,56.875L161.125,56.75Z" style="fill:rgb(35,31,32);"/>
        <path d="M237,100.125L236.75,98L236.25,96L235.625,94L234.875,92.25L233.75,90.5L232.625,88.875L231.25,87.25L231,87.125L229.5,85.75L227.75,84.375L226.125,83.375L224.375,82.625L222.375,81.875L220.375,81.375L218.375,81.125L216.125,81L215.875,81L211.625,81.25L209.625,81.75L207.75,82.375L205.875,83.125L204,84.25L202.25,85.375L200.625,86.625L200.625,82.625L187.875,82.625L187.875,143.25L200.625,143.25L200.625,104.625L200.75,102.375L201.25,100.375L202.125,98.625L203.25,97L204,96.125L205.5,94.75L207.25,93.875L209.125,93.25L211.25,93L212.625,92.875L214.875,93L216.875,93.5L218.75,94.25L220.375,95.375L221.125,96.125L222.375,97.75L223.375,99.375L224,101.375L224.375,103.5L224.375,143.25L237.125,143.25L237.125,102.25L237,100.125Z" style="fill:rgb(35,31,32);"/>
        <path d="M289.75,122.75L289.375,124.75L288.75,126.625L287.625,128.375L286.25,130L285.125,131L283.5,132.125L281.625,132.875L279.625,133.5L277.5,133.625L275.375,133.375L273.375,132.875L271.5,132.125L269.75,130.875L268.25,129.5L267,127.875L266,126.125L265.375,124L265.25,123.875L264.875,121.75L264.375,119.625L264.125,117.5L263.875,113.5L263.875,113L264.125,108.75L264.5,106.75L264.875,104.625L265.375,102.5L266,100.625L267,98.875L268.25,97.25L269.875,95.875L271.5,94.75L273.5,93.875L275.5,93.375L277.5,93.25L279,93.25L281,93.625L283,94.375L284.625,95.375L286.25,96.75L287.25,97.75L288.375,99.5L289.125,101.25L289.75,103.25L289.875,105.375L289.875,121.25L289.75,122.75ZM289.875,83L289.875,85.375L288.25,84.25L286.375,83.25L284.5,82.5L282.625,81.875L280.625,81.5L278.625,81.375L276.875,81.375L274.75,81.5L272.625,81.875L270.75,82.375L268.75,83L266.875,83.75L265.125,84.75L263.375,85.875L261.625,87.125L260.625,87.875L259.125,89.375L257.75,90.875L256.5,92.5L255.375,94.25L254.5,96.125L253.625,97.875L253,99.875L252.375,102L252.25,102.75L251.875,104.875L251.625,106.875L251.375,109L251.25,111.125L251.25,114.375L251.375,116.625L251.5,118.75L251.75,120.875L252,122.875L252.375,124.875L252.75,126L253.25,128L254,129.875L254.875,131.75L256,133.5L257.125,135.125L258.5,136.75L260,138.25L261.625,139.625L262.5,140.25L266,142.5L267.875,143.375L269.75,144.125L271.75,144.625L273.75,145L275.875,145.25L278,145.375L278.625,145.375L280.375,145.25L282.5,144.875L284.5,144.375L286.25,143.5L288.125,142.5L289.875,141.25L289.875,147.125L289.5,149.125L288.875,151L287.75,152.75L286.375,154.375L285.625,155.125L283.875,156.25L282,157.125L280.125,157.625L278,157.75L276.25,157.75L274.125,157.625L269.875,157.125L267.875,156.75L265.875,156.25L263.75,155.625L261.875,155L259.875,154.25L257.875,153.375L252.875,164.125L253.5,164.375L255.5,165.25L257.5,166L259.375,166.75L261.5,167.25L263.5,167.875L265.5,168.25L267.625,168.75L269.625,169L271.75,169.25L273.75,169.5L275.875,169.625L278.875,169.625L281,169.5L283.125,169.125L285.125,168.625L287,168L288.875,167.25L290.625,166.25L292.25,165.125L293.875,163.875L295.5,162.375L296.125,161.75L297.5,160.25L298.75,158.5L299.75,156.75L300.625,155L301.375,153.125L302,151.125L302.375,149.125L302.625,147.125L302.625,83L289.875,83Z" style="fill:rgb(35,31,32);"/>
        <path d="M418.625,113.75L418.125,111.375L417.375,109.375L416.5,107.375L415.375,105.5L414,103.75L412.5,102.125L410.75,100.5L408.875,99.125L408.125,98.625L410,97.125L411.75,95.5L413.25,93.625L414.375,91.75L415.375,89.875L416.25,87.75L416.75,85.5L417,83.25L417.125,81.25L417,78.75L416.625,76.5L416.25,74.125L415.5,72L414.5,69.875L413.375,67.875L412.125,66L410.5,64.25L409.875,63.625L408.125,62L406.25,60.5L404.375,59.375L402.25,58.375L400.125,57.5L397.875,57L395.625,56.625L393.125,56.375L389.5,56.375L387.125,56.5L384.75,56.875L382.5,57.375L378.25,59.125L376.125,60.375L375.125,61.125L373.25,62.625L371.625,64.25L370.125,66.125L368.75,68L367.625,70L366.75,72.25L366.375,73.375L380.25,78.125L381.125,75.75L382.375,73.875L383.75,72.375L385.5,71.25L387.625,70.625L389.875,70.375L391.375,70.375L393.75,70.625L395.875,71.25L397.875,72.375L399.125,73.5L400.625,75.25L401.625,77.375L402.125,79.625L402.25,81.25L402,83.625L401.25,85.75L400.125,87.75L399.125,88.75L397.25,90.25L395.25,91.25L393,91.75L387.375,91.75L387.375,105.75L391.375,105.75L393.75,106L396,106.625L398,107.625L399.875,109L400.375,109.5L401.875,111.25L403.125,113.375L403.75,115.5L404.125,117.75L404.125,118.5L403.875,120.875L403.25,123.125L402.25,125.125L400.875,127L400.375,127.5L398.625,129L396.625,130.125L394.375,130.875L392.125,131.25L391.375,131.25L388.875,131.125L386.625,130.75L384.625,130L382.875,128.875L381.25,127.5L380,125.875L378.875,123.75L378.375,122.5L364.25,127.5L365.125,129.75L366.125,131.875L367.375,133.875L368.75,135.75L370.375,137.375L372.125,139L373.875,140.375L375.875,141.625L378,142.75L380.125,143.625L382.25,144.25L384.625,144.75L387,145.125L394.75,145.125L397.125,144.75L399.5,144.25L401.625,143.625L403.75,142.75L405.75,141.75L407.75,140.5L409.5,139.125L411.375,137.5L411.375,137.375L413,135.625L414.375,133.75L415.625,131.875L416.625,129.875L417.5,127.75L418.125,125.625L418.625,123.25L419,120.875L419,116L418.625,113.75Z" style="fill:rgb(35,31,32);"/>
        <rect x="0" y="0.125" width="496.875" height="214.875" style="fill:none;"/>
    </g>
</svg>
