<?xml version="1.0" encoding="UTF-8" standalone="no"?>
<!DOCTYPE svg PUBLIC "-//W3C//DTD SVG 1.1//EN" "http://www.w3.org/Graphics/SVG/1.1/DTD/svg11.dtd">
<svg width="100%" height="100%" viewBox="0 0 315 315" version="1.1" xmlns="http://www.w3.org/2000/svg" xmlns:xlink="http://www.w3.org/1999/xlink" xml:space="preserve" xmlns:serif="http://www.serif.com/" style="fill-rule:evenodd;clip-rule:evenodd;stroke-linejoin:round;stroke-miterlimit:2;">
    <g>
        <path d="M314,24.75L311.75,18L308,12L303,7L297,3.25L290.5,1L283.5,0.25L31.5,0.25L24.5,1L17.75,3.25L12,7L7,12L3.25,18L0.75,24.75L0,31.75L0,283.75L0.75,290.75L3.25,297.25L7,303.25L12,308.25L17.75,312L24.5,314.25L31.5,315L283.5,315L290.5,314.25L297,312L303,308.25L308,303.25L311.75,297.25L314,290.75L315,283.75L315,31.75L314,24.75Z" style="fill:rgb(248,152,40);"/>
        <rect x="31.5" y="126" width="252" height="63" style="fill:rgb(35,31,32);"/>
    </g>
</svg>
