<?xml version="1.0" encoding="UTF-8" standalone="no"?>
<!DOCTYPE svg PUBLIC "-//W3C//DTD SVG 1.1//EN" "http://www.w3.org/Graphics/SVG/1.1/DTD/svg11.dtd">
<svg width="100%" height="100%" viewBox="0 0 405 405" version="1.1" xmlns="http://www.w3.org/2000/svg" xmlns:xlink="http://www.w3.org/1999/xlink" xml:space="preserve" xmlns:serif="http://www.serif.com/" style="fill-rule:evenodd;clip-rule:evenodd;stroke-linejoin:round;stroke-miterlimit:2;">
    <g>
        <path d="M404.75,385.5L404.75,19.5L404.5,16.5L403.75,13.5L402.75,10.75L401,8L399,5.75L396.75,3.75L394.25,2L391.5,1L388.5,0.25L385.5,0L19.5,0L16.25,0.25L13.5,1L10.5,2L8,3.75L5.5,5.75L3.75,8L2,10.75L1,13.5L0.25,16.5L0,19.5L0,385.5L0.25,388.5L1,391.5L2,394.25L3.75,397L5.5,399.25L8,401.25L10.5,402.75L13.5,404L16.25,404.75L19.5,405L385.5,405L388.5,404.75L391.5,404L394.25,402.75L396.75,401.25L399,399.25L401,397L402.75,394.25L403.75,391.5L404.5,388.5L404.75,385.5Z" style="fill:white;fill-rule:nonzero;"/>
        <path d="M404.75,385.5L404.75,19.5L404.5,16.5L403.75,13.5L402.75,10.75L401,8L399,5.75L396.75,3.75L394.25,2L391.5,1L388.5,0.25L385.5,0L19.5,0L16.25,0.25L13.5,1L10.5,2L8,3.75L5.5,5.75L3.75,8L2,10.75L1,13.5L0.25,16.5L0,19.5L0,385.5L0.25,388.5L1,391.5L2,394.25L3.75,397L5.5,399.25L8,401.25L10.5,402.75L13.5,404L16.25,404.75L19.5,405L385.5,405L388.5,404.75L391.5,404L394.25,402.75L396.75,401.25L399,399.25L401,397L402.75,394.25L403.75,391.5L404.5,388.5L404.75,385.5Z" style="fill:none;"/>
        <path d="M393.75,14.5L390.25,11L385.5,9.75L19.5,9.75L14.5,11L11,14.5L9.75,19.5L9.75,385.5L11,390.25L14.5,394L19.5,395.25L385.5,395.25L390.25,394L393.75,390.25L395,385.5L395,19.5L393.75,14.5Z" style="fill:rgb(0,64,128);"/>
        <path d="M320,249L326.25,255L330.75,262.25L333.5,270.5L334,279L370.75,279L370.75,249L320,249Z" style="fill:white;"/>
        <path d="M370,107.25L367.5,103.75L364,101.25L359.5,100.5L167.25,100.5L163,101.25L159.5,103.75L157,107.25L156.25,111.5L156.25,235.75L370.75,235.75L370.75,111.5L370,107.25Z" style="fill:white;"/>
        <path d="M156.25,249L156.25,279L264.5,279L265,270.5L267.5,262.25L272,255L278.25,249L156.25,249Z" style="fill:white;"/>
        <path d="M139.5,154.75L136.75,151.75L133.25,151L60.25,151L55.5,152L51.75,154.75L49.5,159.25L34.5,214.25L34.5,271.75L35.25,275.25L38,278L41.75,279L63.25,279L63.5,272.75L64.75,266.5L67.25,260.75L70.5,255.25L74.75,250.75L80,247L85.75,244.25L91.75,242.5L98,242L104.25,242.5L110.25,244.25L116,247L121.25,250.75L125.5,255.25L128.75,260.75L131.25,266.5L132.5,272.75L132.75,279L140.5,279L140.5,158.25L139.5,154.75Z" style="fill:white;"/>
        <path d="M126.5,271.25L124.75,266L122.25,261L119,256.75L114.75,253.25L110,250.5L104.75,248.5L99.5,247.75L94,248L88.5,249.5L83.5,251.75L79,254.75L75.25,259L72.25,263.5L70.25,268.75L69.25,274L69.25,279.5L70.25,285L72.25,290L75.25,294.75L79,298.75L83.5,301.75L88.5,304.25L94,305.5L99.5,305.75L104.75,305L110,303.25L114.75,300.5L119,296.75L122.25,292.5L124.75,287.5L126.5,282.25L127,276.75L126.5,271.25Z" style="fill:white;"/>
        <path d="M327.5,271.25L326,266L323.5,261L320,256.75L316,253.25L311.25,250.5L306,248.5L300.5,247.75L295,248L289.75,249.5L284.5,251.75L280.25,254.75L276.25,259L273.5,263.5L271.25,268.75L270.25,274L270.25,279.5L271.25,285L273.5,290L276.25,294.75L280.25,298.75L284.5,301.75L289.75,304.25L295,305.5L300.5,305.75L306,305L311.25,303.25L316,300.5L320,296.75L323.5,292.5L326,287.5L327.5,282.25L328.25,276.75L327.5,271.25Z" style="fill:white;"/>
        <path d="M125.5,168.75L124,167L121.75,166.5L65.25,166.5L63.75,166.75L62.5,167.75L61.75,169.25L53.25,199.75L53.5,202.75L55.5,205.25L58.5,206.25L121,206.25L123.5,205.5L125.25,203.5L126,201L126,171L125.5,168.75Z" style="fill:rgb(0,64,128);"/>
    </g>
</svg>
