<?xml version="1.0" encoding="UTF-8" standalone="no"?>
<!DOCTYPE svg PUBLIC "-//W3C//DTD SVG 1.1//EN" "http://www.w3.org/Graphics/SVG/1.1/DTD/svg11.dtd">
<svg width="100%" height="100%" viewBox="0 0 421 292" version="1.1" xmlns="http://www.w3.org/2000/svg" xmlns:xlink="http://www.w3.org/1999/xlink" xml:space="preserve" xmlns:serif="http://www.serif.com/" style="fill-rule:evenodd;clip-rule:evenodd;stroke-linejoin:round;stroke-miterlimit:2;">
    <g>
        <rect x="0" y="0.25" width="421" height="291.75" style="fill:white;"/>
        <rect x="97.75" y="270" width="45" height="14.75" style="fill:rgb(35,31,32);"/>
        <rect x="188" y="270" width="45" height="14.75" style="fill:rgb(35,31,32);"/>
        <rect x="278" y="270" width="45" height="14.75" style="fill:rgb(35,31,32);"/>
        <path d="M399.25,239L399.25,255.5L399,257.5L398,261L397,262.75L396,264.25L394.75,265.75L393.25,267L390.25,269L388.25,269.5L386.5,270L368,270L368,284.75L384.5,284.75L388.25,284.5L392,283.75L395.75,282.25L399.25,280.75L402.25,278.75L405.25,276.25L407.75,273.25L409.75,270L411.5,266.75L412.75,263L413.5,259.25L413.75,255.5L413.75,239L399.25,239Z" style="fill:rgb(35,31,32);"/>
        <rect x="399.25" y="164.75" width="14.5" height="37" style="fill:rgb(35,31,32);"/>
        <rect x="399.25" y="90.25" width="14.5" height="37.25" style="fill:rgb(35,31,32);"/>
        <path d="M413.5,33L412.75,29.25L411.5,25.75L409.75,22.25L407.75,19L405.25,16.25L402.25,13.75L399.25,11.5L395.75,9.75L392,8.75L388.25,8L384.5,7.75L368,7.75L368,22.25L386.5,22.25L388.25,22.75L390.25,23.25L393.25,25.25L394.75,26.5L396,28L397,29.5L398,31.25L398.5,33L399,35L399.25,36.75L399.25,53.25L413.75,53.25L413.75,36.75L413.5,33Z" style="fill:rgb(35,31,32);"/>
        <rect x="278" y="7.75" width="45" height="14.5" style="fill:rgb(35,31,32);"/>
        <rect x="188" y="7.75" width="45" height="14.5" style="fill:rgb(35,31,32);"/>
        <rect x="97.75" y="7.75" width="45" height="14.5" style="fill:rgb(35,31,32);"/>
        <path d="M36.25,7.75L32.5,8L28.75,8.75L25.25,9.75L21.75,11.5L18.5,13.75L15.75,16.25L13.25,19L11,22.25L9.25,25.75L8.25,29.25L7.5,33L7.25,36.75L7.25,53.25L21.75,53.25L21.75,35L22.25,33L23.75,29.5L24.75,28L26,26.5L27.5,25.25L29,24.25L30.75,23.25L32.5,22.75L34.5,22.25L52.75,22.25L52.75,7.75L36.25,7.75Z" style="fill:rgb(35,31,32);"/>
        <rect x="7.25" y="90.25" width="14.5" height="37.25" style="fill:rgb(35,31,32);"/>
        <rect x="7.25" y="164.75" width="14.5" height="37" style="fill:rgb(35,31,32);"/>
        <path d="M34.5,270L32.5,269.5L30.75,269L29,268L27.5,267L26,265.75L24.75,264.25L23.75,262.75L22.25,259.25L21.75,257.5L21.75,239L7.25,239L7.25,255.5L7.5,259.25L8.25,263L9.25,266.75L11,270L13.25,273.25L15.75,276.25L18.5,278.75L21.75,280.75L28.75,283.75L32.5,284.5L36.25,284.75L52.75,284.75L52.75,270L34.5,270Z" style="fill:rgb(35,31,32);"/>
        <path d="M104.5,73.25L87,90.5L87,115.75L102.75,106.75L102.75,219L128.25,219L128.25,73.25L104.5,73.25Z" style="fill:rgb(35,31,32);"/>
        <path d="M179.75,73.25L162.25,90.5L162.25,115.75L178,106.75L178,219L203.5,219L203.5,73.25L179.75,73.25Z" style="fill:rgb(35,31,32);"/>
        <path d="M313.5,175.25L312.75,181.25L311.5,185L309.5,188.5L306.75,191.75L305.5,193L302,195.25L298.5,197L294.5,198.25L290.25,198.5L288.5,198.25L284.5,197.75L280.5,196.5L277,194.5L274,192L272.75,190.5L270.25,187.25L268.75,183.5L267.5,179.5L267.25,175.25L267.25,165.5L268,161.25L269.25,157.5L271.25,154L274,150.75L275.25,149.75L278.5,147.25L282.25,145.5L286,144.25L292,144.25L296,144.75L300,146.25L303.25,148.25L306.5,151L307.75,152.25L310.25,155.5L312,159.25L313,163L313.5,167.25L313.5,175.25ZM338.25,163.5L337.75,159.5L336.75,155.5L335.75,151.75L332.25,144.25L330,141L327.25,137.75L324.5,134.75L324,134L320.75,131.25L317.5,128.75L314,126.5L310.25,124.75L306.5,123.25L302.75,122L298.75,121.25L294.5,120.75L290.25,120.5L286.75,120.75L282.5,121.5L278.75,122.5L275,124L271.5,126.25L268,128.75L268.75,126.5L271.25,118.5L272.75,114.5L274.25,110.75L276.25,106.75L277,105L279.5,101.5L282.25,98.75L285.25,96.5L288.75,95L292.5,94L296.75,93.75L298.5,93.75L302.75,94.25L306.25,95.75L309.75,97.75L313,100.25L328.5,80.5L328.25,80.25L324.5,78L321,75.75L317.5,74L313.5,72.5L309.5,71.5L305.5,70.75L301.5,70.25L297.25,70L293.5,70L289.25,70.5L281.25,72.5L277.5,74L273.75,75.75L270,78L267,80.25L263.75,83L260.75,85.75L258,88.75L255.5,92.25L253.25,95.75L251.5,99.5L250.75,101.25L249,105.25L247.5,109L246,113.25L243.5,121.25L242.75,125.25L241,133.5L240.25,137.5L240,141.75L239.75,145.75L239.5,150L239.25,154L239.5,156.25L239.5,160.5L239.75,164.75L240.25,168.75L240.5,173L241.25,177.25L242,181.25L243,185.25L244,188.5L245.25,192.5L247,196.25L251.5,203.25L254,206.25L257,209.25L260.25,212L263,214L266.5,216.25L270.25,218L273.75,219.5L277.75,220.75L282,221.5L286,222L290.25,222.25L291.25,222.25L295.75,222L300,221.25L303.75,220.5L307.75,219.25L311.5,217.5L315,215.75L318.25,213.5L321.5,211L325.25,207.25L328,204.25L330.5,201L332.75,197.5L334.5,193.75L336,190L337,186.25L337.75,182L338.25,178L338.5,173.5L338.5,168L338.25,163.5Z" style="fill:rgb(35,31,32);"/>
        <rect x="0" y="0.25" width="421" height="291.75" style="fill:none;"/>
    </g>
</svg>
