<?xml version="1.0" encoding="UTF-8" standalone="no"?>
<!DOCTYPE svg PUBLIC "-//W3C//DTD SVG 1.1//EN" "http://www.w3.org/Graphics/SVG/1.1/DTD/svg11.dtd">
<svg width="100%" height="100%" viewBox="0 0 508 213" version="1.1" xmlns="http://www.w3.org/2000/svg" xmlns:xlink="http://www.w3.org/1999/xlink" xml:space="preserve" xmlns:serif="http://www.serif.com/" style="fill-rule:evenodd;clip-rule:evenodd;stroke-linecap:square;stroke-miterlimit:2;">
    <g>
        <rect x="0" y="0.5" width="507.5" height="212.5" style="fill:rgb(254,190,15);fill-rule:nonzero;"/>
        <rect x="0" y="0.5" width="507.5" height="212.5" style="fill:none;"/>
        <path d="M100,191.75L407.75,191.75L414,191L420.25,189.75L426.25,188.25L432.25,186L438.25,183.5L444,180.5L449.25,177L454.25,173.25L459.25,169.25L463.75,164.75L467.75,159.75L471.5,154.75L475,149.5L478,143.75L480.5,137.75L482.5,131.75L484.25,125.75L485.5,119.5L486.25,113.25L486.25,100.5L485.5,94.25L484.25,88L482.5,81.75L480.5,75.75L478,70L475,64.25L471.5,59L467.75,53.75L463.75,49L459.25,44.5L449.25,36.5L444,33.25L438.25,30.25L432.25,27.75L426.25,25.75L420.25,24L414,22.75L407.75,22L401.25,21.75L106.25,21.75L100,22L93.5,22.75L87.25,24L81.25,25.75L75.25,27.75L69.25,30.25L63.75,33.25L58.25,36.5L53.25,40.5L48.5,44.5L44,49L39.75,53.75L36,59L32.75,64.25L29.75,70L27.25,75.75L25,81.75L23.5,88L22.25,94.25L21.5,100.5L21.25,107L21.5,113.25L22.25,119.5L23.5,125.75L25,131.75L27.25,137.75L29.75,143.75L32.75,149.5L36,154.75L39.75,159.75L44,164.75L48.5,169.25L53.25,173.25L58.25,177L63.75,180.5L69.25,183.5L75.25,186L81.25,188.25L87.25,189.75L93.5,191L100,191.75Z" style="fill:white;fill-rule:nonzero;"/>
        <path d="M100,191.75L407.75,191.75L414,191L420.25,189.75L426.25,188.25L432.25,186L438.25,183.5L444,180.5L449.25,177L454.25,173.25L459.25,169.25L463.75,164.75L467.75,159.75L471.5,154.75L475,149.5L478,143.75L480.5,137.75L482.5,131.75L484.25,125.75L485.5,119.5L486.25,113.25L486.25,100.5L485.5,94.25L484.25,88L482.5,81.75L480.5,75.75L478,70L475,64.25L471.5,59L467.75,53.75L463.75,49L459.25,44.5L449.25,36.5L444,33.25L438.25,30.25L432.25,27.75L426.25,25.75L420.25,24L414,22.75L407.75,22L401.25,21.75L106.25,21.75L100,22L93.5,22.75L87.25,24L81.25,25.75L75.25,27.75L69.25,30.25L63.75,33.25L58.25,36.5L53.25,40.5L48.5,44.5L44,49L39.75,53.75L36,59L32.75,64.25L29.75,70L27.25,75.75L25,81.75L23.5,88L22.25,94.25L21.5,100.5L21.25,107L21.5,113.25L22.25,119.5L23.5,125.75L25,131.75L27.25,137.75L29.75,143.75L32.75,149.5L36,154.75L39.75,159.75L44,164.75L48.5,169.25L53.25,173.25L58.25,177L63.75,180.5L69.25,183.5L75.25,186L81.25,188.25L87.25,189.75L93.5,191L100,191.75Z" style="fill:none;stroke:white;stroke-width:0.75px;"/>
        <path d="M366.5,109.25L349.25,104.75L349.25,50.25L415.5,50.25L415.5,68.75L369.25,68.75L369.25,89L372,87.75L375,86.75L378,86.5L381.25,86.25L385.25,86.5L389.25,87L393.25,88.25L397,89.75L400.5,91.75L404,94L407,96.75L409.75,99.75L412.25,103L414.25,106.5L416,110.5L417.25,114.25L417.75,120.25L418,126.25L417.75,132L417.25,138L416,142L414.25,145.75L412.25,149.25L409.75,152.75L407,155.75L404,158.25L400.5,160.75L397,162.5L393.25,164.25L389.25,165.25L385.25,166L381.25,166.25L376,166L371.25,165L366.25,164L357.25,160L353,157.25L349,154.25L345.25,150.75L359.25,137.75L361.75,140.25L364.5,142.5L367.5,144.25L370.75,145.75L374,146.75L377.5,147.5L381.25,147.75L384,147.5L386.5,146.75L389,145.75L393.5,142.25L395.25,140.25L396.5,137.75L397.5,135L398,130.75L398.25,126.25L398,121.75L397.5,117.25L396.5,114.5L395.25,112.25L393.5,110L391.25,108.25L389,106.75L386.5,105.5L384,105L381.25,104.75L378,104.75L375,105.5L372,106.5L369.25,107.75L366.5,109.25Z" style="fill:rgb(35,31,32);fill-rule:nonzero;"/>
        <path d="M366.5,109.25L349.25,104.75L349.25,50.25L415.5,50.25L415.5,68.75L369.25,68.75L369.25,89L372,87.75L375,86.75L378,86.5L381.25,86.25L385.25,86.5L389.25,87L393.25,88.25L397,89.75L400.5,91.75L404,94L407,96.75L409.75,99.75L412.25,103L414.25,106.5L416,110.5L417.25,114.25L417.75,120.25L418,126.25L417.75,132L417.25,138L416,142L414.25,145.75L412.25,149.25L409.75,152.75L407,155.75L404,158.25L400.5,160.75L397,162.5L393.25,164.25L389.25,165.25L385.25,166L381.25,166.25L376,166L371.25,165L366.25,164L357.25,160L353,157.25L349,154.25L345.25,150.75L359.25,137.75L361.75,140.25L364.5,142.5L367.5,144.25L370.75,145.75L374,146.75L377.5,147.5L381.25,147.75L384,147.5L386.5,146.75L389,145.75L393.5,142.25L395.25,140.25L396.5,137.75L397.5,135L398,130.75L398.25,126.25L398,121.75L397.5,117.25L396.5,114.5L395.25,112.25L393.5,110L391.25,108.25L389,106.75L386.5,105.5L384,105L381.25,104.75L378,104.75L375,105.5L372,106.5L369.25,107.75L366.5,109.25Z" style="fill:none;stroke:rgb(35,31,32);stroke-width:0.75px;"/>
        <path d="M275,81.25L255.25,77.75L256,73.5L257.5,69.75L259.25,66L261.5,62.5L264.25,59.25L267.25,56.5L270.5,53.75L274,51.75L278,50L282,48.75L286,47.75L290,47.5L294.25,47.75L298.25,48.25L302.25,49.25L306.25,50.75L309.75,52.75L313.25,55L316.5,57.75L319.25,60.75L321.75,64L324,67.75L325.5,71.5L326.75,75.5L327.5,79.5L327.75,83.75L327.5,87.75L327,92L326,95.75L324.25,100.5L322.25,105L319.75,109.25L317,113.25L313.75,117L286.5,145L327.75,145L327.75,163.5L257.75,163.5L257.75,146.5L299.5,103.25L301.75,100.5L303.75,97.5L305.5,94.5L306.5,91.25L307.5,87.75L308,84.25L308,81.25L307.25,78.5L306,75.75L304.25,73.25L302.25,71L300,69.25L297.25,68L294.25,67.25L291.25,67L288.25,67.25L285.5,68L282.75,69.25L280.5,71.25L278.5,73.25L276.75,75.75L275.5,78.5L275,81.25Z" style="fill:rgb(35,31,32);fill-rule:nonzero;"/>
        <path d="M275,81.25L255.25,77.75L256,73.5L257.5,69.75L259.25,66L261.5,62.5L264.25,59.25L267.25,56.5L270.5,53.75L274,51.75L278,50L282,48.75L286,47.75L290,47.5L294.25,47.75L298.25,48.25L302.25,49.25L306.25,50.75L309.75,52.75L313.25,55L316.5,57.75L319.25,60.75L321.75,64L324,67.75L325.5,71.5L326.75,75.5L327.5,79.5L327.75,83.75L327.5,87.75L327,92L326,95.75L324.25,100.5L322.25,105L319.75,109.25L317,113.25L313.75,117L286.5,145L327.75,145L327.75,163.5L257.75,163.5L257.75,146.5L299.5,103.25L301.75,100.5L303.75,97.5L305.5,94.5L306.5,91.25L307.5,87.75L308,84.25L308,81.25L307.25,78.5L306,75.75L304.25,73.25L302.25,71L300,69.25L297.25,68L294.25,67.25L291.25,67L288.25,67.25L285.5,68L282.75,69.25L280.5,71.25L278.5,73.25L276.75,75.75L275.5,78.5L275,81.25Z" style="fill:none;stroke:rgb(35,31,32);stroke-width:0.75px;"/>
        <path d="M134,100.5L128,50.25L112.25,50.25L92.25,163.5L141.75,163.5L141.25,159.75L140.75,153L140.75,146.25L141.25,139.25L142,132.5L143.5,125.75L145.5,119.25L147.75,113L150.75,106.75L154,100.75L158,95L162.25,89.5L164.5,87L167,85L170,83.25L173,81.75L179.25,103.5L179.5,104.25L180.25,104.75L181,105L181.75,105L182.75,104.75L183.25,104L212.25,54.75L212.5,53.75L212.5,52.25L211.75,51.25L210.75,50.5L209.5,50.25L148.75,50.25L147.25,50.75L146.75,51.5L146.75,52.5L147,53.5L147.25,54L166,70L161,72.5L156.25,75.5L151.75,79L147.5,82.75L143.75,86.75L140.25,91L137,95.75L134,100.5Z" style="fill:rgb(35,31,32);fill-rule:nonzero;"/>
        <path d="M134,100.5L128,50.25L112.25,50.25L92.25,163.5L141.75,163.5L141.25,159.75L140.75,153L140.75,146.25L141.25,139.25L142,132.5L143.5,125.75L145.5,119.25L147.75,113L150.75,106.75L154,100.75L158,95L162.25,89.5L164.5,87L167,85L170,83.25L173,81.75L179.25,103.5L179.5,104.25L180.25,104.75L181,105L181.75,105L182.75,104.75L183.25,104L212.25,54.75L212.5,53.75L212.5,52.25L211.75,51.25L210.75,50.5L209.5,50.25L148.75,50.25L147.25,50.75L146.75,51.5L146.75,52.5L147,53.5L147.25,54L166,70L161,72.5L156.25,75.5L151.75,79L147.5,82.75L143.75,86.75L140.25,91L137,95.75L134,100.5Z" style="fill:none;stroke:rgb(35,31,32);stroke-width:0.75px;"/>
    </g>
</svg>
