<?xml version="1.0" encoding="UTF-8" standalone="no"?>
<!DOCTYPE svg PUBLIC "-//W3C//DTD SVG 1.1//EN" "http://www.w3.org/Graphics/SVG/1.1/DTD/svg11.dtd">
<svg width="100%" height="100%" viewBox="0 0 315 315" version="1.1" xmlns="http://www.w3.org/2000/svg" xmlns:xlink="http://www.w3.org/1999/xlink" xml:space="preserve" xmlns:serif="http://www.serif.com/" style="fill-rule:evenodd;clip-rule:evenodd;stroke-linejoin:round;stroke-miterlimit:2;">
    <g>
        <path d="M313.75,9.5L310.5,4.75L305.5,1.5L299.75,0.25L15,0.25L9.25,1.5L4.5,4.75L1.25,9.5L0,15.25L0,300L1.25,305.75L4.5,310.75L9.25,314L15,315L299.75,315L305.5,314L310.5,310.75L313.75,305.75L314.75,300L314.75,15.25L313.75,9.5Z" style="fill:rgb(35,31,32);"/>
        <path d="M306.25,11.5L303.5,8.75L299.75,7.75L15,7.75L11.25,8.75L8.5,11.5L7.5,15.25L7.5,300L8.5,303.75L11.25,306.5L15,307.5L299.75,307.5L303.5,306.5L306.25,303.75L307.25,300L307.25,15.25L306.25,11.5Z" style="fill:rgb(248,152,40);"/>
        <path d="M266.75,34.5L264,30.5L260,27.75L255,26.75L59.75,26.75L55,27.75L50.75,30.5L48.25,34.5L47.25,39.25L47.25,206L267.75,206L267.75,39.25L266.75,34.5Z" style="fill:rgb(35,31,32);"/>
        <path d="M75.25,221.25L71,219.25L66,218.5L61.5,219.25L57,221.25L53.5,224.5L53.5,282.25L57,285.5L61.5,287.5L66,288.25L70.75,287.5L75,285.5L78.75,282.25L78.75,224.5L75.25,221.25Z" style="fill:rgb(35,31,32);"/>
        <path d="M226.25,221.25L222,219.25L217.25,218.5L212.5,219.25L208.25,221.25L204.75,224.5L204.75,243.5L178,243.5L174.75,243L171.5,241.5L169,239.25L165,236L160,234.25L154.75,234.25L149.75,236L145.75,239.25L143.25,241.5L140.25,243L136.75,243.5L110.25,243.5L110.25,224.5L106.75,221.25L102.25,219.25L97.5,218.5L92.75,219.25L88.5,221.25L85,224.5L85,282.25L88.5,285.5L92.75,287.5L97.5,288.25L102.25,287.5L106.75,285.5L110.25,282.25L110.25,262.25L137,262.25L140.5,262.75L143.5,264L146,266.25L150,269.75L155,271.5L160.25,271.5L165.25,269.75L169.25,266.25L171.75,264L175,262.75L178.5,262.25L204.75,262.25L204.75,282.25L208.25,285.5L212.5,287.5L217.25,288.25L222,287.5L226.25,285.5L230,282.25L230,224.5L226.25,221.25Z" style="fill:rgb(35,31,32);"/>
        <path d="M257.75,221.25L253.5,219.25L248.75,218.5L244,219.25L239.75,221.25L236.25,224.5L236.25,282.25L239.75,285.5L244,287.5L248.75,288.25L253.5,287.5L257.75,285.5L261.25,282.25L261.25,224.5L257.75,221.25Z" style="fill:rgb(35,31,32);"/>
        <rect x="85" y="64.5" width="145" height="97.25" style="fill:rgb(248,152,40);"/>
    </g>
</svg>
