<?xml version="1.0" encoding="UTF-8" standalone="no"?>
<!DOCTYPE svg PUBLIC "-//W3C//DTD SVG 1.1//EN" "http://www.w3.org/Graphics/SVG/1.1/DTD/svg11.dtd">
<svg width="100%" height="100%" viewBox="0 0 596 794" version="1.1" xmlns="http://www.w3.org/2000/svg" xmlns:xlink="http://www.w3.org/1999/xlink" xml:space="preserve" xmlns:serif="http://www.serif.com/" style="fill-rule:evenodd;clip-rule:evenodd;stroke-linecap:round;stroke-linejoin:round;stroke-miterlimit:2;">
    <g>
        <path d="M32.064,787.305L563.211,787.305C569.939,787.305 576.392,784.632 581.149,779.875C585.907,775.117 588.579,768.664 588.579,761.937L588.579,32.601C588.579,25.873 585.907,19.42 581.149,14.662C576.392,9.906 569.939,7.232 563.211,7.232L32.064,7.232C25.335,7.232 18.883,9.906 14.126,14.662C9.368,19.42 6.696,25.873 6.696,32.601L6.696,761.937C6.696,768.664 9.368,775.117 14.126,779.875C18.883,784.632 25.335,787.305 32.064,787.305Z" style="fill:rgb(35,31,32);fill-rule:nonzero;"/>
        <path d="M32.064,787.305L563.211,787.305C569.939,787.305 576.392,784.632 581.149,779.875C585.907,775.117 588.579,768.664 588.579,761.937L588.579,32.601C588.579,25.873 585.907,19.42 581.149,14.662C576.392,9.906 569.939,7.232 563.211,7.232L32.064,7.232C25.335,7.232 18.883,9.906 14.126,14.662C9.368,19.42 6.696,25.873 6.696,32.601L6.696,761.937C6.696,768.664 9.368,775.117 14.126,779.875C18.883,784.632 25.335,787.305 32.064,787.305Z" style="fill:none;stroke:rgb(35,31,32);stroke-width:0.71px;"/>
        <path d="M32.064,774.62L563.211,774.62C566.575,774.62 569.802,773.285 572.18,770.906C574.559,768.528 575.896,765.3 575.896,761.937L575.896,32.601C575.896,29.237 574.559,26.011 572.18,23.632C569.802,21.253 566.575,19.917 563.211,19.917L32.064,19.917C25.059,19.917 19.38,25.596 19.38,32.601L19.38,761.937C19.38,765.3 20.716,768.528 23.095,770.906C25.474,773.285 28.7,774.62 32.064,774.62Z" style="fill:rgb(248,152,40);fill-rule:nonzero;"/>
        <path d="M32.064,774.62L563.211,774.62C566.575,774.62 569.802,773.285 572.18,770.906C574.559,768.528 575.896,765.3 575.896,761.937L575.896,32.601C575.896,29.237 574.559,26.011 572.18,23.632C569.802,21.253 566.575,19.917 563.211,19.917L32.064,19.917C25.059,19.917 19.38,25.596 19.38,32.601L19.38,761.937C19.38,765.3 20.716,768.528 23.095,770.906C25.474,773.285 28.7,774.62 32.064,774.62Z" style="fill:none;stroke:rgb(35,31,32);stroke-width:0.71px;"/>
        <path d="M143.617,54.818L143.617,247.344L201.375,247.344L201.375,189.586L403.527,276.223L403.527,516.881L201.375,593.892L201.375,536.134L143.617,536.134L143.617,728.661L201.375,728.661L201.375,645.399L451.659,550.052L451.659,244.485L201.375,137.22L201.375,54.818L143.617,54.818Z" style="fill:rgb(35,31,32);fill-rule:nonzero;"/>
        <path d="M143.617,54.818L143.617,247.344L201.375,247.344L201.375,189.586L403.527,276.223L403.527,516.881L201.375,593.892L201.375,536.134L143.617,536.134L143.617,728.661L201.375,728.661L201.375,645.399L451.659,550.052L451.659,244.485L201.375,137.22L201.375,54.818L143.617,54.818Z" style="fill:none;stroke:rgb(35,31,32);stroke-width:0.71px;"/>
        <rect x="143.617" y="305.102" width="57.758" height="57.758" style="fill:rgb(35,31,32);"/>
        <rect x="143.617" y="305.102" width="57.758" height="57.758" style="fill:none;stroke:rgb(35,31,32);stroke-width:0.71px;"/>
        <rect x="143.617" y="420.619" width="57.758" height="57.757" style="fill:rgb(35,31,32);"/>
        <rect x="143.617" y="420.619" width="57.758" height="57.757" style="fill:none;stroke:rgb(35,31,32);stroke-width:0.71px;"/>
        <path d="M509.685,19.917L493.993,19.917L19.38,671.623L19.38,693.168L509.685,19.917Z" style="fill:rgb(35,31,32);fill-rule:nonzero;"/>
        <path d="M509.685,19.917L493.993,19.917L19.38,671.623L19.38,693.168L509.685,19.917Z" style="fill:none;stroke:rgb(35,31,32);stroke-width:0.71px;"/>
        <path d="M556.758,19.917L541.066,19.917L19.38,736.261L19.38,757.808L556.758,19.917Z" style="fill:rgb(35,31,32);fill-rule:nonzero;"/>
        <path d="M556.758,19.917L541.066,19.917L19.38,736.261L19.38,757.808L556.758,19.917Z" style="fill:none;stroke:rgb(35,31,32);stroke-width:0.71px;"/>
        <path d="M575.896,58.276L575.896,36.73L38.518,774.62L54.209,774.62L575.896,58.276Z" style="fill:rgb(35,31,32);fill-rule:nonzero;"/>
        <path d="M575.896,58.276L575.896,36.73L38.518,774.62L54.209,774.62L575.896,58.276Z" style="fill:none;stroke:rgb(35,31,32);stroke-width:0.71px;"/>
        <path d="M575.896,122.914L575.896,101.368L85.591,774.62L101.283,774.62L575.896,122.914Z" style="fill:rgb(35,31,32);fill-rule:nonzero;"/>
        <path d="M575.896,122.914L575.896,101.368L85.591,774.62L101.283,774.62L575.896,122.914Z" style="fill:none;stroke:rgb(35,31,32);stroke-width:0.71px;"/>
    </g>
</svg>
