<?xml version="1.0" encoding="UTF-8" standalone="no"?>
<!DOCTYPE svg PUBLIC "-//W3C//DTD SVG 1.1//EN" "http://www.w3.org/Graphics/SVG/1.1/DTD/svg11.dtd">
<svg width="100%" height="100%" viewBox="0 0 518 169" version="1.1" xmlns="http://www.w3.org/2000/svg" xmlns:xlink="http://www.w3.org/1999/xlink" xml:space="preserve" xmlns:serif="http://www.serif.com/" style="fill-rule:evenodd;clip-rule:evenodd;stroke-linejoin:round;stroke-miterlimit:2;">
    <g>
        <path d="M509.75,169L511.5,168.75L513.25,168.25L514.75,167.25L516,165.75L517,164.25L517.5,162.5L517.75,160.75L517.75,8.25L517.5,6.5L517,4.75L516,3.25L514.75,2L513.25,0.75L511.5,0.25L6.5,0.25L4.75,0.75L1.75,3.25L0.75,4.75L0.25,6.5L0,8.25L0,160.75L0.25,162.5L0.75,164.25L1.75,165.75L3.25,167.25L4.75,168.25L6.5,168.75L8.25,169L509.75,169Z" style="fill:none;"/>
        <path d="M516.75,83L463.25,5.5L8.25,5.5L6.75,6L6,6.75L5.5,8.25L5.5,160.75L6,162.25L6.75,163.25L8.25,163.5L463.25,163.5L516.75,86L517.25,85L517.25,84L516.75,83Z" style="fill:rgb(0,64,128);"/>
        <path d="M77.75,85.75L86.25,94.25L91.25,89.25L77.75,75.5L77.75,60L77,56.25L75,53L72,50.75L68.25,49.5L64.25,50L60.75,51.5L58.25,54.5L46.25,73.75L46.25,95.25L53.5,95.25L53.5,75.75L56.25,71.25L56.25,111.5L43.75,132.75L53.5,138.5L67.75,114.5L67.75,99.75L78.25,139L89.25,136L77.75,93L77.75,85.75Z" style="fill:white;"/>
        <path d="M77.75,35.5L76,33L73.5,31L70.5,30.25L67.25,30.5L64.5,31.75L62.5,34L61.25,37L61.25,40.25L62.5,43L64.5,45.5L67.25,46.75L70.5,47.25L73.5,46.25L76,44.5L77.75,41.75L78.25,38.75L77.75,35.5Z" style="fill:white;"/>
        <path d="M136,54L145.25,54L147.25,54.5L148.25,55L149,55.5L150.25,57.25L150.5,58.25L150.5,60.5L150.25,61.5L149.75,62.5L149,63.25L147.5,64.25L146.25,64.75L136,64.75L136,54ZM136,39L145.25,39L147.25,39.5L149,41.25L149.25,42.5L149.5,43.5L149.5,43.75L149.25,45L148.75,45.75L148,46.75L147.75,47L147,47.5L146,48L136,48L136,39ZM156.25,55.25L155.75,54.25L155.25,53.5L154.5,52.75L153.75,51.75L152.25,50.75L152.25,50.5L153,50L154.5,48.5L155.5,46.5L156,44.5L156,42.25L155.25,39.25L154.75,38.25L154,37.5L153.5,36.5L151.75,35L150.25,33.75L149.25,33.5L148,33.25L147.25,33L146,32.75L129.5,32.75L129.5,70.75L147.25,70.75L150.25,70L151.25,69.5L153,68.25L154,67.25L155.25,65.5L156,64.75L156.75,61.75L157,60.5L157,58.25L156.25,55.25Z" style="fill:white;"/>
        <path d="M185.75,53.75L186,53L186.25,52L186.5,51.25L187,50.5L187.5,49.5L188.25,49L189.25,48.5L190,48.25L192,48.25L192.75,48.5L193.75,48.75L194.5,49.25L195.25,50L196.25,52L196.5,52.75L196.75,53.75L185.75,53.75ZM179.75,64.5L178.75,65.25L177.75,65.75L176.75,66L174.5,66.25L173,66.25L171,65.75L170.25,65.25L169.25,63.75L169,63L168.75,62L169,61.25L169.25,60.25L170.5,59L171.5,58.5L172.5,58.25L179.75,58.25L179.75,64.5ZM202.5,53.25L201.5,49.25L201,48.5L200.25,47.5L199.75,46.75L198.75,45.75L196.5,44.25L194.5,43.25L193.5,43L192.5,43L191.25,42.75L191,42.75L189,43L187.75,43.25L186.75,43.75L186,44.25L185,44.75L182.75,47L181,45.25L179.25,44L177.5,43.25L176.25,43L175.25,43L174.25,42.75L173.5,42.75L169.25,43.25L168.25,43.5L166,44L164,44.75L166,49.75L166.75,49.5L168,49L168.75,48.75L170,48.5L173.25,48.25L175.5,48.25L176.5,48.5L177.5,49L178.25,49.75L178.75,50.5L179.25,51.5L179.75,53.5L179.75,53.75L171.5,53.75L170.25,54L168.25,54.5L167.25,55L166.5,55.5L165.5,56.75L164.25,58.25L163.75,59.25L163.5,60.5L163.25,61.25L163.25,63.5L164,66.5L165.25,68L166.75,69.5L167.75,70L168,70L168.75,70.5L169.75,70.75L171,71.25L172,71.25L173,71.5L175.75,71.5L177.75,71L179.75,70L179.75,70.75L185.5,70.75L185.5,70L186,70.25L188,71L189,71.5L192.5,71.5L193.75,71.25L195.75,70.75L198,69.5L198.75,69L199.5,68.25L201,66.5L201.5,65.75L202,64.75L197.25,62.5L197.25,62.75L196.5,63.75L195.25,65.25L194.25,65.75L193.25,66L192.5,66.25L190,66.25L188,65.25L187.25,64.5L186.5,63.5L186.25,62.75L186,61.5L185.75,60.5L185.5,59.25L185.5,58.25L202.75,58.25L202.75,54.5L202.5,53.25Z" style="fill:white;"/>
        <path d="M226,43.5L223.75,43L222.75,42.75L222.25,43L221,43L219,43.5L218,44L217.25,44.5L216.25,45.25L216.25,43.75L210.5,43.75L210.5,70.75L216.25,70.75L216.25,53.75L216.5,52.5L216.75,51.5L217.25,50.75L218,49.75L219,49L219.75,48.5L221,48.25L222.5,48.25L224.5,48.75L226.5,43.75L226,43.5Z" style="fill:white;"/>
        <path d="M246,43.5L246,62L245.5,63.25L244.5,64.75L243.5,65.5L242.75,66L241.75,66.25L239.75,66.25L238.5,66L237,64.75L235.75,63L235.25,61L235.25,43.5L229.75,43.5L229.75,63.25L230.5,66.25L231,67L231.75,68L232.25,68.75L234,70.25L235,70.75L238,71.5L241.25,71.5L242.5,71L243.5,70.75L244.25,70.25L246,69L246,70.75L251.75,70.75L251.75,43.5L246,43.5Z" style="fill:white;"/>
        <path d="M295,49.25L294.75,48.5L294.5,47.5L293.75,46.5L293.25,45.5L292.75,45.5L291.25,44L290.25,43.5L287.25,42.75L286.75,42.75L284.5,43L283.5,43.25L282.5,43.75L281.75,44.25L280.75,44.75L279,46.5L278.25,45.5L277.5,45L276.75,44.25L275.75,43.75L275,43.25L273.75,43L272.75,43L272,42.75L269,43.5L267,44.5L266,45.5L266,43.75L260.25,43.75L260.25,70.75L266,70.75L266,52.75L266.25,51.5L266.5,50.5L267,49.75L268,48.75L269,48.5L270.25,48.25L270.5,48.25L271.5,48.5L272.75,48.75L273.5,49.25L273.75,49.5L274.25,50.25L274.75,51.25L275,52.25L275,70.75L280.75,70.75L280.75,51.5L281.25,50.75L281.75,49.75L282.75,48.75L284.75,48.25L285.25,48.25L287.25,48.75L288.25,49.25L288.5,49.5L289,50.25L289.5,51.25L289.75,52.25L289.75,70.75L295.25,70.75L295.25,50.5L295,49.25Z" style="fill:white;"/>
        <path d="M323.5,61L323.25,60.25L322.25,58.5L320.75,57L318.25,55.75L317.25,55.5L316.25,55L316,55L311.25,53.75L309.75,53L309.25,52.25L309.25,50.5L309.75,49.75L310.5,49L311.5,48.5L312.75,48.5L313.75,48.25L315.25,48.25L317.25,48.75L318.25,49.25L319,50L319.5,50.25L323,46.25L322.25,45.5L319.25,44L317.5,43.25L316.5,43L314.25,42.75L314,42.75L311.75,43L309.5,43.5L307.75,44.5L306.75,45.25L306.25,45.5L304.75,47L304.25,47.75L303.75,48.75L303.5,49.75L303.5,53.5L304.25,55L305,56L305.5,56.75L306.25,57.25L308.25,58.25L309.5,58.75L315,60.5L315.75,60.75L316.75,61L317.5,61.75L318,62.5L318.25,63.25L317.75,64.75L316.25,65.75L315.25,66L314,66.25L312.75,66.25L310.75,66L309.5,65.75L307.75,65L306.75,64.5L306,63.75L305.5,63.5L301.75,67.5L302.75,68.25L303.5,69L306.5,70.25L307.5,70.75L309.5,71.25L311.75,71.5L315.25,71.5L317.25,71L319.25,70.25L320.25,69.75L320.25,69.5L321.25,69L321.75,68.25L322.5,67.5L323,66.5L323.5,65.75L323.75,64.5L323.75,63.25L323.5,61Z" style="fill:white;"/>
        <path d="M153.25,98L144.75,128.75L136.25,98L129.5,98L140,136.25L149.25,136.25L160,98L153.25,98Z" style="fill:white;"/>
        <path d="M169.25,119.25L170.25,116.25L170.75,115.5L172,114.25L173,114L173.75,113.75L174.75,113.5L175,113.5L176,113.75L177,114.25L178,114.5L178,114.75L179,115.5L179.5,116.25L180,117.5L180.25,118.25L180.5,119.25L169.25,119.25ZM186.25,120L186.25,118.75L186,117.75L185.5,116.5L185.25,115.75L185,114.5L184.5,113.75L183.25,112L181.75,110.5L180.25,109.5L179.25,109L178,108.75L177.25,108.5L176,108.5L174.75,108.25L174,108.25L172.75,108.5L171.75,108.5L169.75,109.25L168.75,110L167.25,111L165.75,112.5L165.5,113.5L164.75,114.5L164,116.5L164,117.25L163.5,119.25L163.25,120.5L163.25,124.25L163.5,126.5L163.75,127.5L164,128.75L164.25,129.5L165.75,132.5L168,134.75L169.5,135.75L170.5,136.25L172.5,136.75L173.75,137L176.25,137L178.25,136.5L179.25,136L180.25,135.75L181.25,135.25L181.25,135L182.25,134.5L184.5,132.25L185.25,131.25L185.75,130.25L180.75,128L180.25,129L178.75,130.5L177.75,131L177,131.25L176,131.5L174.75,131.75L173.75,131.5L172.5,131.25L171.75,130.5L171.5,130.5L170.5,129.5L169.5,127.5L169,125.25L169,123.75L186.5,123.75L186.5,121L186.25,120Z" style="fill:white;"/>
        <path d="M209.25,108.75L208.25,108.5L207.25,108.5L206.25,108.25L205.5,108.25L204.5,108.5L203.5,108.5L201.5,109.25L200.5,110L199.75,110.5L199.75,109L194,109L194,136.25L199.75,136.25L199.75,118L200,117L200.75,116L201.5,115.25L201.5,115L202.25,114.5L203.25,114L205.25,113.5L205.75,113.75L207,113.75L208,114.25L210,109L209.25,108.75Z" style="fill:white;"/>
        <path d="M236.25,109L228.25,109L218.75,118.5L218.75,98L213,98L213,136.25L218.75,136.25L218.75,126.5L220.75,124.75L229.25,136.25L236.25,136.25L224.75,120.5L236.25,109Z" style="fill:white;"/>
        <path d="M402.25,65.5L377.75,65.5L377.75,71.75L394.5,71.75L380.75,103.5L388,103.5L402.25,71.25L402.25,65.5Z" style="fill:white;"/>
        <path d="M413.5,100L412.75,99L411.75,98L410.75,97.5L409.5,97.25L408.25,97.25L407,97.75L406.25,98.5L405.5,99.5L405.25,100.5L405.25,101.5L405.5,102.5L406,103.5L407.25,103.75L407.75,103.75L409,103.5L409.25,103.25L409.75,104.5L409.75,104.75L409,106.25L408,107L407,107L407,109.25L408.5,109L409.5,108.75L410.75,108.25L412.75,106.25L413.25,105.25L413.75,104L414,102.75L414,102.5L413.5,100Z" style="fill:white;"/>
        <path d="M435.5,88.25L435.5,90.5L435.25,91.75L435.25,92.75L434.75,93.75L434.25,95.75L433.75,96.5L433,97.25L432.5,98L430.5,99L428.5,99L427.5,98.75L426.75,98L426,97.5L425.5,96.5L425,95.75L424.25,93.75L423.5,90.5L423.5,89.5L423.25,88.25L423.25,86.25L423.5,85L423.5,82.75L423.75,81.75L424.25,80.75L424.5,79.75L425,78.75L426.5,76.5L427.5,75.75L428.5,75.5L430.5,75.5L431.5,75.75L432.5,76.25L433,77L433.75,78L434,78.5L434.75,80.5L435.25,82.5L435.5,83.75L435.5,86L435.75,87.25L435.5,88.25ZM441.25,84.5L441.25,83.25L441,82L440,78L439.5,77.25L439,76.25L438.5,75.5L438.25,74.75L437.75,74L437,73L436.25,72.5L435.5,71.75L434.5,71.25L433.75,71L432.75,70.5L431.75,70.25L430.5,70.25L429.5,70L429,70L427.75,70.25L424.75,71L424,71.5L423.25,72.25L421.75,73.5L421,74.5L420.5,75.5L419.75,76.5L419.5,77.5L419,78.5L418.75,79.25L418.25,80.25L418,81.5L418,82.5L417.75,83.75L417.5,84.75L417.5,88.75L417.75,90L418,92.25L419,96.25L420,98.25L420.5,99L420.75,99.5L421.25,100.25L422,101.25L422.75,102L424.5,103L425.25,103.5L428.25,104.25L431.25,104.25L433.25,103.75L435.25,102.75L436,102.25L437.5,100.75L438,100L438.5,99L438.75,98.75L439.25,98L439.75,97L440,96.25L440.25,95.25L440.75,94L441,93L441,92L441.25,90.75L441.25,89.75L441.5,88.5L441.5,85.5L441.25,84.5Z" style="fill:white;"/>
    </g>
</svg>
