<?xml version="1.0" encoding="UTF-8" standalone="no"?>
<!DOCTYPE svg PUBLIC "-//W3C//DTD SVG 1.1//EN" "http://www.w3.org/Graphics/SVG/1.1/DTD/svg11.dtd">
<svg width="100%" height="100%" viewBox="0 0 650 114" version="1.1" xmlns="http://www.w3.org/2000/svg" xmlns:xlink="http://www.w3.org/1999/xlink" xml:space="preserve" xmlns:serif="http://www.serif.com/" style="fill-rule:evenodd;clip-rule:evenodd;stroke-linejoin:round;stroke-miterlimit:2;">
    <g>
        <path d="M637.25,114L639.75,113.75L642,113L644.25,112L646.25,110.5L647.75,108.5L649,106.5L649.75,104L650,101.5L650,13.5L649.75,10.75L649,8.5L647.75,6.25L646.25,4.5L644.25,2.75L642,1.75L639.75,1L637.25,0.75L12.5,0.75L10.25,1L7.75,1.75L5.75,2.75L3.75,4.5L2.25,6.25L1,8.5L0.25,10.75L0,13.5L0,101.5L0.25,104L1,106.5L2.25,108.5L3.75,110.5L5.75,112L7.75,113L10.25,113.75L12.5,114L637.25,114Z" style="fill:none;"/>
        <path d="M649.25,56.75L588.5,8.5L587.5,7.5L586,7.25L584.75,7L12.5,7L9.5,7.75L7.25,10.25L6.25,13.5L6.25,101.5L7.25,104.75L9.5,107L12.5,107.75L586,107.75L587.5,107.25L588.5,106.5L649.25,58L649.5,57.75L649.5,57.25L649.25,56.75Z" style="fill:rgb(179,7,56);"/>
        <path d="M136.5,72.75L136.25,73L136.25,75L136,75.25L136,76.25L135.75,77L135.75,77.25L135.5,77.5L135.5,77.75L135.25,78L135.25,78.25L135,78.5L135,79.25L134.5,80.25L134.25,80.5L133.75,81.25L133.25,82.25L132.75,82.75L132.75,83L132.25,83.5L131.75,84.25L131.5,84.5L131.25,84.5L131.25,84.75L131,85L130.75,85L130.75,85.25L129.5,86.25L129.25,86.25L128.5,87L127,87.75L126.75,88L126.25,88.25L126,88.25L124.75,88.75L124.5,89L124,89L123.75,89.25L123,89.25L122,89.5L121.75,89.75L120.5,89.75L119,90L116.25,89.75L115.5,89.75L115.25,89.5L114,89.25L113.25,89.25L113,89L112.75,89L112.25,88.75L110.75,88.25L110.5,88L108.5,87L107.75,86.25L106.25,85.25L106.25,85L106,85L105.75,84.75L105.75,84.5L105.5,84.5L105.5,84.25L105,83.5L104.25,83L104.25,82.75L104,82.5L104,82.25L103.75,82.25L103.25,81.25L102.75,80.5L102.5,80.25L102,79.25L102,78.5L101.75,78.25L101.75,78L101.5,77.75L101.5,77L101.25,76.25L101,76L101,75L100.75,75L100.75,72.75L100.5,72.5L100.75,72L100.75,69.5L101,69.25L101,68.25L101.25,67.5L101.25,67L101.5,67L101.5,66.75L101.75,66.25L101.75,65.75L102,65.5L102.25,64.5L102.25,64.25L102.5,64.25L102.75,63.5L103.25,62.5L103.75,62L103.75,61.75L104.25,61.25L104.5,61.25L105.25,60L105.25,59.75L105.5,59.75L105.75,59.5L105.75,59.25L106.25,59L106.5,59L108.25,57.25L108.5,57.25L108.75,57L109.75,56.5L110,56.25L110,56.5L110.25,56.75L110.25,57.25L110.5,57.75L110.5,58L111,59L111,60L111.5,61.25L111.75,61.75L111.75,62.25L112,62.5L112,63L112.25,63.5L112.5,64.25L112.5,64.5L113,65.5L113,66L113.25,66.25L113.25,66.75L113.5,67L113.5,67.5L113.75,67.5L114,68.25L114,69.25L114.25,69.5L114.25,69.75L114.5,69.75L114.75,70.75L115.25,71.5L115.25,72L115.5,72.5L116,73L116,73.25L116.5,74L116.75,74L117.25,74.25L117.5,74.5L118,74.75L119,74.75L119.5,74.5L119.75,74.5L120.25,74L120.5,74L121,73.25L121,73L121.25,72.75L121.25,71.5L121,70.75L120.5,69.75L120.25,69.5L120.25,69.25L120,68.75L120,68.25L119.5,67.5L119.25,67L119.25,66.75L119,66.25L119,65.75L118.75,65.5L118.5,64.5L118.25,64.25L118,63.5L118,63L117.75,62.5L117.75,62.25L117.5,62L117.5,61.75L117.25,61.25L117,60L117,59.5L116.75,59.25L116.75,59L116.5,58.5L116.5,58L116.25,57.75L116.25,57L116,56.75L116,56.5L115.75,56.25L115.75,55.75L115.5,55.25L115.5,54.75L115.25,54.5L115.75,54.25L117.25,54.25L118,54L119.5,54.25L121.25,54.25L121.5,54.5L122.25,54.5L123.5,54.75L123.5,55L123.75,55L124.75,55.25L126.25,55.75L127,56.25L127.25,56.5L127.75,56.75L128.5,57L129.5,58L130.25,58.5L130.75,59L131,59L131.25,59.25L131.25,59.5L131.5,59.75L131.75,59.75L131.75,60L132.75,61.25L133.25,61.75L133.25,62L133.75,62.5L134.25,63.5L134.75,64.25L134.75,64.5L135,65.5L135.5,66L135.5,67L135.75,67L135.75,67.5L136,68.25L136,68.75L136.25,68.75L136.25,70.75L136.5,70.75L136.5,72.75ZM103,41.5L102,42.75L99.25,45.75L97.25,48.25L95.75,49.75L95.75,50L94.5,51.25L94,52L93.5,52.5L93,52.75L92.5,53.75L92,54L92,54.25L91.75,54.25L91.75,54.5L91.5,54.75L91.5,55L91.25,55L90,56.25L90,56.5L88.75,57.75L88.75,58L87.25,59.5L87.25,59.75L87,59.75L87,60L86,61.25L85.75,61.25L85,62L85,62.25L84.25,63L84,63.5L83.75,63.5L83.25,64.25L83,64.5L82.25,65.5L81.75,65.75L81.5,66L81.5,66.25L81,66.75L81,67L79.75,67L78.75,66.75L78.75,66L78.5,65.75L78.5,65.5L78.25,64.5L78,64.5L78,63.5L77.75,63L77.75,62.5L77.5,62.25L77.5,61.75L77.25,61.25L76.75,60L76.75,59.5L76.5,59.25L76.5,59L76.25,58.5L76.25,58L76,57.75L76,57L75.75,56.75L75.75,56.5L75.5,56.25L75.5,55.75L75.25,55.25L75.25,54.75L75,54.5L75,53.75L74.75,52.75L74.5,52.5L74.25,52L74,51.25L74,50.5L73.75,50L73.75,49.75L73.5,49.5L73.5,49L73.25,48.25L81,45.75L90.5,42.75L94.25,41.5L100.75,39.5L104.5,38.25L105,39.5L103,41.5ZM73.75,69.25L71.25,69.25L71.25,68.25L71,67.5L70.75,67L70.75,66L70.5,65.75L70.5,65.5L70,64.5L70,64.25L69.75,63.5L69.25,62.5L69.25,62.25L69,62L69,61.75L68.75,61.25L68,60L68,59.75L67.75,59.75L67.75,59.25L67.5,59L67.25,59L67,58.5L66.5,58L66.5,57.75L66,57.25L66,57L65.75,56.75L65.25,56.5L65.25,56.25L64.75,55.75L64,55.25L63,54.25L63,54L62.25,53.75L61,52.75L60.5,52.5L60.25,52.5L60.5,52L60.75,51.25L61,51L61.5,50L61.5,49.75L61.75,49.5L61.75,49.25L62,49L62.25,48.25L63.25,45.75L64.75,42.75L65.25,41.5L65.75,42.75L66.5,45.75L67.5,48.25L67.5,49L67.75,49.25L67.75,49.5L68,49.75L68,50.5L68.25,51L68.25,51.25L68.5,52L68.75,52.5L68.75,52.75L69,53.75L69.25,54L69.25,55L69.5,55L69.5,55.25L69.75,55.75L69.75,56.5L70,56.75L70,57L70.25,57.25L70.25,58L70.75,59L70.75,59.5L71,59.75L71,60L71.25,61.25L71.5,61.25L71.5,61.75L71.75,62L71.75,62.5L72,63L72,63.5L72.25,64.25L72.25,64.5L72.5,65.5L72.75,65.75L72.75,66.25L73,66.25L73,67L73.25,67.5L73.5,68.25L73.75,68.75L73.75,69.25ZM66,69.25L52.5,69.25L53,68.25L53.5,67.5L53.75,67L53.75,66.75L54,66.25L54,65.75L54.25,65.5L54.75,64.5L54.75,64.25L55,64.25L55.25,63.5L55.75,62.5L55.75,62.25L56,62L56,61.75L56.25,61.25L57,60L57,59.25L57.25,59L57.75,58L57.75,57.75L58,57.25L58.25,57L59.25,58L60,58.5L60.5,59L61,59.25L61,59.5L61.5,60L62.5,61.25L62.75,61.25L63,61.75L63,62L63.5,62.5L64,63.5L64.25,64.25L64.5,64.25L64.5,64.5L65,65.5L65,65.75L65.25,66L65.25,66.25L65.5,66.75L65.5,67L65.75,67.5L65.75,68.25L66,68.75L66,69.25ZM66,75.25L65.75,76L65.75,76.25L65.5,77L65.5,77.75L65.25,78L65.25,78.25L65,78.5L64.75,79.25L64.25,80.25L64,80.5L63.5,81.25L63,82.25L63,82.5L62,83.5L61.5,84.25L61.25,84.5L61,84.5L61,84.75L60.75,85L60.5,85L60.5,85.25L59.25,86.25L59,86.5L58.5,86.75L58.25,87L57.75,87.25L57,87.75L56.5,88L56.25,88.25L56,88.25L54.5,88.75L54.25,89L54,89L53.5,89.25L52.75,89.25L51.75,89.5L51.5,89.75L50.25,89.75L48.5,90L46.25,89.75L45.25,89.75L45,89.5L44,89.25L43,89.25L42.75,89L42.5,89L42,88.75L40.75,88.25L40.5,88.25L40,87.75L39.75,87.75L39,87.25L38.5,87L38.25,86.75L38,86.75L37.5,86.25L36.25,85.25L35.75,84.75L35.75,84.5L35.5,84.5L35.25,84.25L34.75,83.5L34,82.75L34,82.5L33.25,81.75L33,81.25L32.75,80.5L32.5,80.25L32,79.25L31.75,78.5L31.5,78.25L31.5,78L31.25,77.75L31.25,77L31,76.25L31,76L30.75,75.25L30.75,74.5L30.5,74.25L30.5,69.75L30.75,69.5L30.75,68.25L31,67.5L31.25,67L31.25,66.75L31.5,66.25L31.5,66L31.75,65.75L31.75,65.5L32.25,64.5L32.25,64.25L32.75,63.5L33.25,62.5L33.25,62.25L34.25,61.25L35.25,60L35.25,59.75L35.5,59.75L35.75,59.5L35.75,59.25L36,59L36.25,59L37.5,57.75L38.25,57.25L38.5,57.25L39,56.75L40,56.25L40.75,55.75L41,55.75L42,55.25L43.5,55L43.75,55L43.75,54.75L44.75,54.5L45.75,54.5L46.25,54.25L50.75,54.25L51,54.5L51.5,54.5L53,54.75L53,55L52.75,55.25L52.5,55.75L52.5,56.25L52.25,56.5L52.25,56.75L52,57L52,57.25L51.75,57.75L51.5,58L51.25,58.5L51.25,59L51,59L51,59.75L50.75,59.75L50.75,60L50.25,61.25L49.75,61.75L49.75,62.25L49.5,62.5L49,63.5L48.75,64.25L48.5,64.5L48.25,65.5L48,65.75L48,66.25L47.75,66.25L47.75,66.75L47.5,67L47.25,67.5L47,68.25L46.5,69.25L46.5,69.5L46.25,69.75L45.75,70.75L45.5,71.5L45.5,73.25L45.75,73.25L46.25,74L46.75,74.25L47.25,74.75L48,74.75L48.25,75L48.5,75L55.5,74.75L58.5,74.75L63.5,75L66,75L66,75.25ZM141.25,69.25L141.25,67.5L141,67L141,66.25L140.75,66L140.75,65.5L140.5,64.5L140.25,64.25L140,63.5L139.5,62.5L139.5,62.25L139.25,62L139.25,61.75L139,61.25L138.75,61.25L138.25,60L138,59.75L138,59.25L137.75,59L137.5,59L137.25,58.5L136.75,58L136.75,57.75L135.25,56.25L135,55.75L134.5,55.25L134,55L134,54.75L133.5,54.5L133,54L132.5,53.75L131.5,52.75L130.75,52.5L130.5,52.5L129.75,52L128.5,51.25L127.75,51L126.75,50.5L125.5,50L124.75,49.75L123.5,49.5L123,49.5L122.25,49.25L121.5,49.25L120.25,49L117,49L115.75,49.25L114.75,49.25L113.75,49.5L113.75,49L113.5,48.25L112.75,45.75L111.75,42.75L111.25,41.5L110.75,39.5L110.5,38.25L109,33.5L108.5,32.5L107.25,28.25L107.25,27.75L107,27L107,26.75L106.75,26.5L106.75,26L106.5,25.75L106.5,25.25L106.25,24.75L106.25,24.5L106,24L106,23.5L105.75,23.5L105.75,22.75L105.5,22.75L105.5,22.5L105.25,21.75L105,20.75L104.75,20.5L104,20L103.75,19.75L102.75,19.5L94.25,19.5L93.25,19.75L93,20L92.25,20.5L92.25,20.75L91.75,21.75L91.75,23.5L92,23.5L92,24L92.75,24.75L93,24.75L94,25.25L99.5,25.25L100.25,25.5L100.5,25.5L100.75,25.75L100.75,26L101,26.5L101,26.75L101.25,27L101.5,27.75L101.5,28.25L102.75,32.5L100,33.5L85.5,38.25L81.75,39.5L75,41.5L71.5,42.75L71.25,41.5L70.5,39.5L70,38.25L68.75,33.5L68.5,32.5L67,28.25L70.5,28.25L71.5,27.75L72.25,27L72.25,26.75L72.5,26.5L72.5,26L72.75,25.75L72.75,25.25L72.5,24.75L72.5,24.5L72,23.5L71.25,22.75L71,22.75L70,22.5L58,22.5L57.25,22.75L57,22.75L56.5,23.5L56.25,23.5L55.75,24.5L55.75,24.75L55.5,25.25L55.5,25.75L55.75,26L56,26.5L56,27L56.75,27.75L57.75,28.25L61.25,28.25L62.75,32.5L63,33.5L60.75,38.25L60,39.5L59.25,41.5L58.75,42.75L57.25,45.75L56.25,48.25L55.75,49L55.75,49.25L55.5,49.5L55.5,49.75L55.25,50L54.25,49.75L53,49.5L52.75,49.5L52,49.25L50.75,49.25L49,49L48.25,49L45.25,49.25L45,49.25L44.25,49.5L43.75,49.5L42,49.75L41.5,50L39,51L38.5,51.25L37.25,52L36.25,52.5L36,52.5L35.5,52.75L34.5,53.75L33.75,54L33.75,54.25L33.5,54.25L33,54.75L33,55L32.5,55.25L30.5,57.25L30.25,57.75L30,58L29.5,59L29.25,59L29,59.25L29,59.5L28.75,59.75L28.75,60L28,61.25L27.5,61.75L27.5,62L27.25,62.25L27.25,62.5L27,63L27,63.5L26.75,64.25L26.5,64.5L26.25,65.5L26,65.75L26,66.75L25.75,67L25.75,67.5L25.5,68.25L25.5,69.5L25.25,69.75L25.25,74.5L25.5,74.75L25.5,76.25L25.75,77L25.75,77.25L26,77.5L26,78.25L26.25,78.5L26.5,79.25L26.5,79.75L26.75,80.25L27,80.5L27,81.25L27.5,82.25L28,82.75L28,83L28.25,83.5L28.75,84.25L28.75,84.5L29,84.5L29,84.75L29.25,85L29.25,85.25L30,86.25L30.5,86.75L30.5,87L30.75,87.25L31.5,87.75L31.5,88L31.75,88.25L32.5,88.75L32.5,89L32.75,89L32.75,89.25L33,89.25L33.25,89.5L33.25,89.75L33.5,89.75L33.75,90L35,91L35.75,91.5L36,91.5L36.5,92L37.75,92.5L38.5,93L38.75,93.25L41.75,94.25L42,94.25L42.5,94.5L44,94.75L45,95L47.5,95L48.5,95.25L49.5,95L51.75,95L52.75,94.75L54,94.5L54.5,94.25L55,94.25L55.75,94L57,93.5L57.75,93.25L58.25,93L59,92.5L60,92L60.75,91.5L61,91.5L61.75,91L63,90L63,89.75L63.25,89.75L63.25,89.5L63.75,89.25L64,89.25L64,89L64.75,88.25L65,88.25L65,88L66,87L66,86.75L66.25,86.75L66.25,86.5L66.5,86.25L67.25,85.25L67.75,84.75L67.75,84.5L68,84.5L68,84.25L68.5,83.5L68.75,83L68.75,82.75L69,82.5L69,82.25L69.5,81.25L69.75,80.5L70,80.25L70,79.75L70.25,79.25L70.5,78.5L70.75,78.25L70.75,77L71,77L71,76L71.25,75.25L71.25,75L74.75,75L75.75,76L75.75,76.25L76,76.25L77.5,77L78.25,77L79.25,77.25L80,77L81,77L82.25,76.25L83.5,75L83.5,74.75L83.75,74.75L83.75,74.25L84,74L84.25,73.25L84.25,71.5L84.75,70.75L85,70.75L86.5,69.25L86.75,68.75L87,68.75L87,68.25L88.25,67L88.5,67L88.5,66.75L89.75,65.5L90.5,64.5L90.5,64.25L90.75,64.25L91.25,63.5L92.75,62L92.75,61.75L93.25,61.25L93.5,61.25L94.5,60L94.5,59.75L94.75,59.75L94.75,59.5L95.25,59L95.5,59L96,58L97.75,56.25L98,55.75L98.5,55.25L99,55L99,54.75L99.25,54.5L99.25,54.25L99.5,54.25L99.5,54L100,53.75L100.75,52.75L101,52.5L101.25,52.5L101.5,52L102,51.25L102.75,50.5L103,50L103.5,49.5L103.75,49.5L103.75,49.25L104,49.25L104,49L104.75,48.25L106.75,45.75L107.75,48.25L107.75,49L108,49.25L108,50L108.25,50.5L108.25,51L108.5,51.25L107.25,52L106.5,52.5L106.25,52.5L105.5,52.75L104.5,53.75L104,54L104,54.25L103.75,54.25L103.5,54.5L103,54.75L103,55L102.5,55.25L102,55.75L101.75,56.25L100.25,57.75L100.25,58L99.75,58.5L99.5,59L99,59.5L99,59.75L98.75,60L98.25,61.25L97.75,61.75L97.75,62L97.5,62.25L97.5,62.5L97,63.5L96.75,64.25L96.75,64.5L96.25,65.5L96.25,65.75L96,66L96,67.5L95.75,68.25L95.75,69.25L95.5,69.5L95.5,74.25L95.75,74.5L95.75,76.25L96,77L96,77.75L96.25,78L96.25,78.5L96.5,79.25L97,80.25L97,80.5L97.5,81.25L97.5,81.75L97.75,82.25L98.25,82.75L98.25,83L98.5,83.5L99,84.25L99,84.5L99.25,84.75L99.25,85L99.5,85.25L100.25,86.25L100.5,86.25L100.5,86.5L101.25,87.25L101.5,87.75L101.75,87.75L101.75,88L102,88.25L102.75,88.75L102.75,89L103,89L103,89.25L103.25,89.25L103.5,89.5L103.5,89.75L103.75,89.75L104,90L105.25,91L106,91.5L106.25,91.5L106.75,92L108,92.5L108.75,93L109.75,93.5L112,94.25L112.5,94.25L113,94.5L114.5,94.75L115.75,95L121.25,95L122.75,94.75L124,94.5L124.5,94.25L125,94.25L126,94L127.25,93.5L128.25,93L129,92.5L130.25,92L130.75,91.5L131.25,91.5L132,91L133.25,89.75L133.5,89.75L133.5,89.5L133.75,89.25L134,89.25L135.25,88L135.25,87.75L136.75,86.25L137.5,85.25L137.75,85L137.75,84.75L138,84.5L138,84.25L138.5,83.5L138.75,83L139,82.75L139,82.5L139.25,82.25L139.75,81.25L140,80.5L140.25,80.25L140.25,79.75L140.5,79.25L140.75,78.5L140.75,78.25L141,78L141,77L141.25,76.25L141.25,75L141.5,75L141.5,69.5L141.25,69.25Z" style="fill:rgb(249,249,249);"/>
        <path d="M304.5,44.25L310.75,65.75L298.25,65.75L304.5,44.25ZM309.75,35.25L299.25,35.25L286.75,79.5L294.5,79.5L296.25,72.75L312.5,72.75L314.5,79.5L322.25,79.5L309.75,35.25Z" style="fill:rgb(249,249,249);"/>
        <path d="M352,68L351.75,67L350.5,65L349.75,64.25L347.75,62.75L347.25,62.5L346,62L345,61.5L343.5,61.25L338,59.75L337.25,59.25L336.25,58.75L335.75,58L335.5,56.75L335.75,55.75L336,55L336.75,54.25L338,53.75L339.5,53.25L342.5,53.25L343.75,53.5L345.75,54.5L347,55.25L347.5,55.5L351.5,51L350.5,50L349.5,49.5L348.25,48.75L347.25,48.25L345,47.5L344,47.25L342.75,47.25L341.5,47L339.75,47L337.25,47.5L336,48L335,48.25L333.75,49L332.75,49.5L332.25,50L331.25,50.75L330.25,51.75L329.25,53.75L328.75,56.25L328.75,56.75L329,59.25L330,61.25L330.5,62L331.25,63L332.25,63.75L333,64.25L335.5,65.25L336,65.5L342,67.5L343,67.75L344.25,68L345,68.75L345.75,69.75L345.75,71.5L345.25,72.5L344.75,73L343.75,73.5L342.5,73.75L339.75,74L338.5,74L336,73.5L335,73.25L333.75,72.75L331.75,71.25L331,70.75L327,75.5L328,76.5L329,77L331.25,78.25L332.25,78.75L333.5,79.25L334.5,79.5L338.25,80.25L341,80.25L342.25,80L343.75,79.75L345,79.5L346,79.25L347,78.75L348,78L348.25,78L350.25,76.5L351,75.5L352,73.5L352.25,72.25L352.25,69.25L352,68Z" style="fill:rgb(249,249,249);"/>
        <path d="M388,48L378.75,48L367.75,59L367.75,35.25L361.25,35.25L361.25,79.5L367.75,79.5L367.75,68.25L370.033,66.045L380,79.5L388,79.5L375,61.25L388,48Z" style="fill:rgb(249,249,249);"/>
        <path d="M398.5,59.75L398.75,58.75L399,57.5L399.5,56.25L401.75,54L402.75,53.5L403.75,53.25L406.25,53.25L407.5,53.75L408.5,54.5L408.75,54.5L410.25,56.5L410.75,57.5L411,58.75L411.25,59.75L398.5,59.75ZM418.25,61.75L417,55.5L416.5,54.5L415.25,52.25L414.5,51.25L412.75,49.5L412,49L411,48.5L409.75,48L408.75,47.5L406.25,47L403.75,47L402.5,47.25L400,48L397,49.5L396,50.25L395.25,51.25L393.75,53L392.75,55.5L392.5,56.75L392.25,57.5L391.5,61.25L391.5,64.5L391.75,67L391.75,68.25L392.25,69.5L392.5,70.75L392.75,71.75L393.25,73L393.75,74L395.25,76L396,76.75L397,77.5L397.75,78.25L400,79.5L401.25,79.75L403.5,80.25L405,80.25L406.5,80L407.75,80L408.75,79.75L410,79.25L411,78.75L412.25,78.25L412.5,78L413.5,77.25L414.25,76.5L415.25,75.75L416,74.75L416.75,73.5L417.25,72.5L411.75,69.75L411.75,70.25L410.25,72L408.25,73.5L407.25,73.75L406,74L403.5,74L402.25,73.5L401.25,73L399.75,71.5L399.25,70.5L398.5,68L398.25,66.75L398,65L418.25,65L418.25,61.75Z" style="fill:rgb(249,249,249);"/>
        <path d="M444.75,47.75L443.5,47.25L442.25,47L440.5,47L439,47.25L438,47.5L436.75,47.75L435.5,48.25L433.5,49.75L433.5,48L427,48L427,79.5L433.5,79.5L433.5,59.5L433.75,58.25L434,57.25L434.75,56L435.75,55L436.75,54.25L437.75,53.75L439,53.25L440.75,53.25L442,53.5L443.25,54L445.5,48L444.75,47.75Z" style="fill:rgb(249,249,249);"/>
        <path d="M516.25,60.25L516,59L515.5,57.75L514,55.25L513.25,54.25L512.25,53.25L511.25,52.5L511.25,52.25L508.75,50.75L506.25,49.75L504.75,49.5L503.25,49.5L502.25,49.25L501,49.5L499.5,49.75L498,50.25L497.75,50.5L497.75,42.5L515.75,42.5L515.75,35.25L490,35.25L490,56.5L496.75,58.5L498,57.5L499.25,57L500.75,56.75L502,56.5L502.25,56.5L503.75,56.75L505,57L506.25,57.75L507.25,58.75L508,60L508.5,61.25L509,64.25L509,66.5L508.75,68L508.25,69.25L507.5,70.5L506.25,71.75L505,72.75L503.75,73.25L501,73.25L499.5,73L497,72L495.75,71.25L494.75,70.25L493.75,69.5L488.5,74.25L489.5,75.5L490.5,76.5L494.25,78.75L495.25,79.25L496.75,79.5L498,80L499.5,80.25L503.75,80.25L506.75,79.75L509.25,78.75L512.25,76.5L513.25,75.5L514,74.25L514.75,73.25L515.5,71.75L516,70.5L516.25,69.5L516.75,66.75L516.75,63.25L516.25,60.25Z" style="fill:rgb(249,249,249);"/>
        <path d="M531.25,75.25L530.75,74L530.5,74L529.5,73L528.25,72.25L527,72L526.75,72L525.25,72.25L524,72.75L522.25,74.5L522,76L521.75,77L522,78.25L522.75,79.25L524,79.75L524.75,79.75L526,79.5L526.5,79.25L527,80.5L526.5,82L526,82.5L525,83.25L524.25,83.5L524,83.5L524,86L525.25,85.75L526.75,85.5L528,85L529.25,84L529.5,83.75L530.5,82.5L531,81.5L531.5,80L531.75,78.75L531.75,76.75L531.25,75.25Z" style="fill:rgb(249,249,249);"/>
        <path d="M555,63.25L554.25,67L554,68L553.25,70.25L552.75,71.25L552,72.25L551.25,73L550.25,73.5L549,74L546.75,74L545.75,73.75L544.5,73.25L543,71.25L542.75,70.5L541.75,68L541.5,67L541,65.75L540.75,64.5L540.75,63.25L540.5,61.75L540.5,59.25L540.75,56.5L541.25,54.25L541.75,53L542,52L543,49.75L543.5,49L544.5,48L546.5,47L549,47L550,47.25L551.25,48L552,48.75L552.75,49.75L553,50.75L554,52.75L555,57.75L555,63.25ZM561.25,57.25L561.25,55.75L561,54.75L561,53.25L560.5,52.25L560.25,51L559.75,49.75L559.5,49L559,47.75L558.25,46.75L557.25,45L556.5,44.25L555.5,43.5L554.75,42.75L553.75,42L552.5,41.5L551.5,41.25L549,40.75L547,40.75L545.75,41L544.5,41L541.5,42.5L540.5,43.25L539.75,43.75L538,45.75L537.25,46.75L536,49.25L535.75,50.25L535.25,51.5L535,52.5L534.75,53.75L534.5,55.25L534.25,56.25L534,57.75L534,62.5L534.5,66.5L534.75,67.5L535,68.75L535.5,70L535.75,71L536.25,72.25L536.75,73.25L537.75,74.75L539.25,76.75L540,77.5L542,79L543,79.5L544,79.75L546.5,80.25L548.75,80.25L551.25,79.75L552.25,79.5L554.25,78.5L556.25,77L557,76.25L557.75,75.25L558.25,74L558.5,73.75L559,73L560,70.75L560.5,69.75L561,67.25L561,66L561.25,64.75L561.5,63.25L561.5,58.5L561.25,57.25Z" style="fill:rgb(249,249,249);"/>
        <path d="M194.25,35.25L189,40.5L189,48.25L193.75,45.5L193.75,79.5L201.25,79.5L201.25,35.25L194.25,35.25Z" style="fill:rgb(249,249,249);"/>
        <path d="M236.25,65L236.25,63.75L235.25,61L234.5,60L233.75,58.75L232.75,58L231.75,57L230.75,56.25L233,54.25L233.75,53.25L235.25,49.5L235.25,48L235.5,47.25L235,44.25L234.75,43L234.25,41.75L232.75,39.25L231.75,38.25L231.75,38L230.75,37.25L229.5,36.25L228.25,35.5L225.5,34.5L218.25,34.5L216.75,35L215.5,35.5L214.25,36.25L213.5,36.75L211.5,38.75L210.5,40L210,41L209.5,42.5L209,43.25L216.25,45.75L216.75,44.25L217.5,43.25L218.75,42.25L219.75,41.75L221.25,41.5L222,41.5L223.5,41.75L224.75,42.25L226,43L226,43.25L227,44.25L227.5,45.75L227.75,47L227.75,47.25L227.5,48.75L227,50L226,51L226,51.25L225,52L223.75,52.5L222.25,52.75L220,52.75L220,60L223.5,60L224.75,60.5L226,61.25L226.75,61.75L227.75,63L228.25,64.25L228.5,65.5L228.5,68L227.5,70.5L226.75,71.25L225.5,72L224.5,72.75L223,73.25L220.5,73.25L218,72.25L217,71.5L216.25,70.5L215.5,69.25L215.25,68.5L208,71.25L209.25,73.75L210,75L211,76.25L213,77.75L214.25,78.75L216.75,79.75L218.25,80L219.5,80.25L224,80.25L225.5,80L226.75,79.75L228,79.25L229.5,78.75L230.5,78L231.75,77L232.5,76.5L233.5,75.25L234.25,74L235,73L236,70.5L236.5,67.5L236.5,66.5L236.25,65Z" style="fill:rgb(249,249,249);"/>
        <path d="M258.25,88.75L258,89.75L258,90.5L257.5,91.25L256.75,91.5L256,92L172.25,92L171.5,91.5L171,91.25L170.25,90.5L170,89.75L170,25.25L170.25,24.25L171,23.75L171.5,23.25L172.25,22.75L256,22.75L257.5,23.75L258,24.25L258,25.25L258.25,26L258.25,88.75ZM261.25,24.25L260.75,22.75L259.5,21.5L258.25,20.5L256.75,19.75L255,19.5L173,19.5L171.5,19.75L170,20.5L168.5,21.5L167.75,22.75L167,24.25L166.75,26L166.75,88.75L167,90.5L168.5,93.5L170,94.5L171.5,95L173,95.25L255,95.25L256.75,95L258.25,94.5L259.5,93.5L260.75,92L261.25,90.5L261.5,88.75L261.5,26L261.25,24.25Z" style="fill:white;"/>
    </g>
</svg>
