<?xml version="1.0" encoding="UTF-8" standalone="no"?>
<!DOCTYPE svg PUBLIC "-//W3C//DTD SVG 1.1//EN" "http://www.w3.org/Graphics/SVG/1.1/DTD/svg11.dtd">
<svg width="100%" height="100%" viewBox="0 0 443 977" version="1.1" xmlns="http://www.w3.org/2000/svg" xmlns:xlink="http://www.w3.org/1999/xlink" xml:space="preserve" xmlns:serif="http://www.serif.com/" style="fill-rule:evenodd;clip-rule:evenodd;stroke-linejoin:round;stroke-miterlimit:2;">
    <g>
        <path d="M10.25,977L432.75,977L435.25,976.25L437.25,975L439.25,973.5L440.75,971.5L442,969.25L442.75,967L443,964.5L443,13.5L442.75,11L442,8.5L440.75,6.5L439.25,4.5L437.25,3L435.25,1.75L432.75,1L430.5,0.75L12.75,0.75L10.25,1L8,1.75L5.75,3L3.75,4.5L2.25,6.5L1,8.5L0.25,11L0,13.5L0,964.5L0.25,967L1,969.25L2.25,971.5L3.75,973.5L5.75,975L8,976.25L10.25,977Z" style="fill:white;fill-rule:nonzero;"/>
        <path d="M10.25,977L432.75,977L435.25,976.25L437.25,975L439.25,973.5L440.75,971.5L442,969.25L442.75,967L443,964.5L443,13.5L442.75,11L442,8.5L440.75,6.5L439.25,4.5L437.25,3L435.25,1.75L432.75,1L430.5,0.75L12.75,0.75L10.25,1L8,1.75L5.75,3L3.75,4.5L2.25,6.5L1,8.5L0.25,11L0,13.5L0,964.5L0.25,967L1,969.25L2.25,971.5L3.75,973.5L5.75,975L8,976.25L10.25,977Z" style="fill:none;"/>
        <path d="M430,15L428.75,14L427.25,13.5L15.75,13.5L14.25,14L13,15L12.75,16.5L12.75,205.5L13,207L14.25,208.25L15.75,208.75L427.25,208.75L428.75,208.25L430,207L430.5,205.5L430.5,16.5L430,15Z" style="fill:rgb(179,7,56);"/>
        <path d="M430,223L428.75,221.75L427.25,221.25L15.75,221.25L14.25,221.75L13,223L12.75,224.5L12.75,482.75L13,484.25L14.25,485.25L15.75,485.75L427.25,485.75L428.75,485.25L430,484.25L430.5,482.75L430.5,224.5L430,223Z" style="fill:rgb(179,7,56);"/>
        <path d="M430,500L428.75,499L427.25,498.5L15.75,498.5L14.25,499L13,500L12.75,501.5L12.75,759.75L13,761.25L14.25,762.5L15.75,763L427.25,763L428.75,762.5L430,761.25L430.5,759.75L430.5,501.5L430,500Z" style="fill:rgb(179,7,56);"/>
        <path d="M430,777.25L428.75,776L427.25,775.75L15.75,775.75L14.25,776L13,777.25L12.75,778.75L12.75,961.5L13,963L14.25,964.25L15.75,964.5L427.25,964.5L428.75,964.25L430,963L430.5,961.5L430.5,778.75L430,777.25Z" style="fill:rgb(179,7,56);"/>
        <path d="M301.25,858.25L300.25,859.75L299.75,860.25L299,860.5L215.25,860.5L214.5,860.25L213.75,859.75L213.25,859L212.75,857.5L212.75,794.5L213.25,793L213.75,792.25L214.5,791.75L216,791.25L298,791.25L299,791.5L299.75,791.75L300.25,792.25L301.25,793.75L301.25,858.25ZM304.25,792.75L303.5,791.25L302.5,790L301.25,789L299.75,788.25L214.5,788.25L212.75,789L211.5,790L210.5,791.25L210,792.75L209.75,794.5L209.75,857.5L210,859.25L210.5,860.5L211.5,862L212.75,863L214.5,863.5L216,863.75L298,863.75L299.75,863.5L301.25,863L302.5,862L303.5,860.5L304.25,859.25L304.5,857.5L304.5,794.5L304.25,792.75Z" style="fill:white;"/>
        <path d="M404.5,824.5L366.25,797.75L365.25,797.75L364.5,798.5L364.5,799L367.75,816.5L329.5,816.5L329.5,835.5L367.75,835.5L364.5,853L364.5,853.5L365.25,854.25L366.25,854L404.5,827.25L405,826.5L405,825.5L404.5,824.5Z" style="fill:white;fill-rule:nonzero;"/>
        <path d="M69.5,923.75L69.25,922.75L68.75,921.5L68,920.25L67.75,920L67,919L65.5,917.5L64.5,917L63.5,916.25L62.5,915.75L61.25,915L60,914.5L58.75,914.25L57,913.75L52.75,912.75L52.25,912.5L51,912.25L49.75,911.5L49.25,911.25L48.25,910.5L47.75,909.5L47.25,908.25L47.25,905.5L47.75,904.5L48.5,903.5L49.5,902.75L50.75,902L52,902L53,901.75L55.75,901.5L58,901.5L59.25,901.75L60.25,902L61.5,902.5L62.5,903L63.5,903.75L64.75,904.5L69,899L68.5,898.5L66.5,897L64.5,896L63.25,895.75L62,895.25L61,895L59.5,894.75L58.5,894.5L53.25,894.5L50.75,895L46.25,896.5L45.25,897.25L44,898L41.75,900.25L41,901.25L40.25,903.5L40,904.5L39.75,905.75L39.75,908L40,909.5L40.25,910.5L40.5,911.75L41.5,913.75L44,916.25L45.25,917L47.5,918.25L50,919.25L51,919.5L55.5,920.5L56.5,921L57.75,921.25L59,922L59.75,922.25L60.75,923L61.5,923.75L62,924.75L62.25,926L62.5,927L62.5,927.25L62.25,928.5L62,929.5L61.25,930.75L60.25,931.75L59.25,932L58.25,932.5L57,932.75L55.5,933L51.25,933L50,932.75L47.75,932L46.75,931.75L45.5,931L44.25,930.5L43.5,929.75L42.25,929L38,934.5L39,935L41,936.5L43.25,937.75L45.25,938.75L47.75,939.5L50,940L51.25,940L52.75,940.25L54.75,940.25L56,940L57.5,940L60,939.5L61.25,939L63.25,938L64.25,937.75L65.25,937L68,934.25L69,932L69.75,929.5L70,928.5L70,926.25L69.5,923.75Z" style="fill:white;"/>
        <path d="M94.75,932L93.75,932.75L92.5,933.25L91.5,933.75L90.25,934L88,934L85.5,933.5L84.5,932.75L83.5,932.25L83,931.5L82.5,930.25L82.25,929L82.25,928.25L82.75,927L83.5,926L84.25,925.5L85.25,925L86.5,924.75L94.75,924.75L95,932L94.75,932ZM101.25,917L101.25,916L101,914.75L100.5,913.75L100,912.5L98.5,910.5L97.75,909.75L95.75,908.25L94.75,908L93.5,907.5L91.25,907L89.75,907L88.75,906.75L88.25,906.75L87,907L85.75,907L84.5,907.25L83.25,907.25L82,907.5L80.75,908L79.5,908L77,909L79.25,914.75L80,914.5L81.25,914L85,913.25L86,913.25L87.5,913L90.25,913L91.5,913.25L92.5,913.75L93.5,914.5L94.25,915.75L94.75,916.75L94.75,919.5L85.75,919.5L85.25,919.75L84,919.75L82.75,920L81.75,920.25L80.5,921L79.75,921.5L77.5,923.75L76.5,925.75L75.75,929.5L76,930.75L76,932L76.5,933L77,934.25L77.5,935L79,937L80,937.75L82.5,939L85,939.75L86,940L87.25,940L88.75,940.25L89,940.25L91.5,939.75L92.5,939.5L93.75,939L94.75,938.25L94.75,939.25L101.5,939.25L101.5,918L101.25,917Z" style="fill:white;"/>
        <path d="M136.75,916.75L136.75,915.5L136.25,914.25L135.75,913.25L135.25,912L134.5,911L132.75,909.25L131.75,908.5L130.75,908L129.5,907.5L128.5,907.25L127.25,907L124.5,907L122,907.5L120,908.5L118,910L118,907.75L111.25,907.75L111.25,939.25L118,939.25L118,918L118.5,916.75L119,915.75L119.75,914.75L120.5,914L121.75,913.5L122.75,913.25L125.5,913.25L126.75,913.75L127.75,914L128.5,914.75L129.25,915.75L129.75,917L130.25,918L130.25,939.25L137,939.25L137,918L136.75,916.75Z" style="fill:white;"/>
        <path d="M164.25,927.75L164,929L163.75,930L163.25,931.25L162.5,932L162.25,932L161.25,933L160.25,933.5L159.25,933.75L158,934L157.75,934L155.25,933.5L154.25,933L153,931.75L152.25,930.75L151.75,929.75L151.5,929L151.25,928L151,926.5L150.75,925.5L150.75,922.5L151,921L151.25,920L151.5,918.5L151.5,918L152,916.75L152.5,915.75L153.25,914.75L153.75,914.25L155,913.75L156,913.25L157.25,913L157.75,913L160.25,913.5L161.25,914L162.25,914.75L162.25,915L163.25,916L163.75,917L164,918L164.25,919.25L164.25,927.75ZM164.25,895.25L164.25,909L163.25,908.25L162,907.75L161,907.5L159.75,907L156.75,907L154.25,907.5L153.25,908L152,908.25L150,909.75L149.5,910L147.75,911.75L146.25,913.75L145.75,914.75L145.25,916L145,917L144.75,917.5L144.25,920L144.25,926L144.5,927.5L144.5,928.75L144.75,929.5L145.25,930.75L145.5,932L146,933L148.25,936L149,936.75L150.5,938L151.75,938.5L152.75,939L154,939.5L155,939.75L157.5,940.25L158.25,940.25L160.75,939.75L161.75,939.5L163,938.75L164,938L164.25,938L164.25,939.25L170.75,939.25L170.75,895.25L164.25,895.25Z" style="fill:white;"/>
        <path d="M201,907.75L193.75,930.5L186.5,907.75L179.5,907.75L189.75,939.25L198,939.25L208,907.75L201,907.75Z" style="fill:white;"/>
        <rect x="215.5" y="907.75" width="6.5" height="31.5" style="fill:white;fill-rule:nonzero;"/>
        <path d="M219.25,894.5L217.5,894.5L216.5,895.25L216,895.5L215.25,896.5L215,897.5L215,898.25L215.25,899.25L215.75,900.5L216,900.75L217.25,901.5L218.25,901.75L220,901.75L221,901L221.5,900.75L222.25,899.75L222.5,898.75L222.5,898.25L222.25,897L221.5,895.5L220.5,894.75L219.25,894.5Z" style="fill:white;"/>
        <path d="M259.75,907.75L250.25,907.75L239.25,918.75L239.25,895.25L232.75,895.25L232.75,939.25L239.25,939.25L239.25,928.25L241.5,926L251.25,939.25L259.5,939.25L246.25,921.25L259.75,907.75Z" style="fill:white;"/>
        <path d="M281.75,932L280.75,932.75L279.75,933.25L278.5,933.75L277.25,934L275,934L272.5,933.5L271.5,932.75L270.75,932.25L270,931.5L269.5,930.25L269.25,929L269.25,928.25L269.75,927L270.5,926L271.25,925.5L272.25,925L273.5,924.75L281.75,924.75L282,932L281.75,932ZM288.25,916L288,914.75L287.5,913.75L287,912.5L286.5,911.5L284.75,909.75L283,908.25L281.75,908L280.75,907.5L278.25,907L276.75,907L275.75,906.75L275.25,906.75L272.75,907L271.5,907.25L270.25,907.25L269,907.5L268,908L266.5,908L265.5,908.5L264.25,909L266.25,914.75L267,914.5L268.25,914L272,913.25L274.5,913L277.5,913L278.5,913.25L279.75,913.75L280.75,914.5L281.25,915.75L281.75,916.75L281.75,919.5L272.75,919.5L272.25,919.75L271,919.75L269.75,920L268.75,920.25L267.75,921L266.75,921.5L265.5,922.75L264,924.75L263.5,925.75L263,928.25L263,932L263.5,933L264,934.25L264.5,935L266,937L267,937.75L268.25,938.25L268.5,938.5L269.5,939L272,939.75L273.25,940L274.5,940L275.75,940.25L276,940.25L279.75,939.5L280.75,939L281.75,938.25L281.75,939.25L288.5,939.25L288.5,917L288.25,916Z" style="fill:white;"/>
        <path d="M357.25,918.75L357,920.25L357,922L356.75,923.25L356.25,924.75L356,926L355.75,927.5L355.25,928.75L354.5,929.75L353.75,931L352.75,932L351.75,932.5L350.25,933L347.5,933L345,932L344,931L343.25,929.75L342.75,928.75L342.25,927.5L341.75,926L341.25,924.75L341,923.25L340.75,922L340.5,918.75L340.5,915.75L340.75,912.75L341.25,909.75L343.25,904.75L344,903.75L345,902.75L346.25,902L347.25,901.5L350.25,901.5L352.75,902.5L353.75,903.5L354.5,904.75L355,905.75L356,908.25L356.25,909.5L356.75,911L357,912.5L357.25,915.5L357.25,918.75ZM364.75,913.5L364.75,911.75L364.5,910.5L364,909L363.75,907.5L363.25,906.25L363,905L362.25,903.75L362,902.5L361.25,901.25L360.75,900.5L359.75,899.25L359,898.25L358,897.25L356.75,896.5L355.75,895.75L354.5,895.25L353,894.75L351.75,894.5L350.25,894.25L348,894.25L346.5,894.5L344,895L342.5,895.5L341.5,896.25L340.25,897L338.25,899L337.5,900L336.5,901.25L335.75,903L335.25,904.25L334.75,905.25L334.25,906.75L334,908L333.5,909.5L333,912.5L332.75,915.5L332.75,919.5L333,921L333.25,922.75L333.75,925.5L334,927L335,929.5L335.25,930.75L336.5,933.25L337,934L338,935L338.75,936.25L340,937.25L342,938.75L344.5,939.75L346,940L348.75,940.25L350,940.25L352.75,939.75L354,939.5L355.25,939L356.5,938.25L357.5,937.5L358.75,936.5L359.5,935.5L361.25,933.25L361.5,932.75L362.5,930.5L363.5,928L364,926.5L364.25,925.25L364.5,923.5L364.75,922.25L364.75,920.5L365,919L365,915L364.75,913.5Z" style="fill:white;"/>
        <path d="M378.25,935.25L377.5,934L376.5,932.75L375.25,932.25L374,932L372.25,932L371,932.75L370,933.25L369.25,934.5L368.75,935.75L368.75,937L369,938.25L369.75,939.25L371,939.5L371.5,939.75L373,939.25L373.5,939L374,940.25L374,940.5L373.5,941.75L373,942.5L371.75,943.25L371,943.5L371,946L372.25,945.75L373.75,945.5L375,944.75L376,944L376.5,943.75L378,941.25L378.5,940L378.75,938.5L378.75,936.5L378.25,935.25Z" style="fill:white;"/>
        <path d="M403.25,921.75L402.75,920.5L402.25,919.75L401.75,918.75L401,917.75L400.25,917L399.25,916.25L399.25,916L398.25,915.25L397.25,914.75L396,914.25L395,914L392.5,913.5L391.75,913.5L390.25,913.75L389.25,914L388,914.25L387.75,914.5L387.75,907.75L403,907.75L403,901.5L381,901.5L381,919.75L386.75,921.25L387.75,920.5L389,920L390,919.75L392.75,919.75L394,920.25L395,920.75L396,921.75L397,923.75L397.5,926.25L397.5,926.75L397.25,928.25L396.75,930.75L396,931.75L395.5,932.5L395,932.75L394,933.5L392.75,934L390.25,934L389.25,933.75L388,933.5L387,933L385,931.5L384.25,930.75L379.75,935L381.5,936.75L382.5,937.5L384.5,938.5L385.75,939L386.75,939.5L388,939.75L389,940L390.5,940L391.75,940.25L394,940L396.5,939.25L397.5,938.75L398.5,938L399.25,937.5L400.25,936.75L401,935.75L401.75,935L402.25,934L403,932.75L403.5,930.75L403.75,929.5L404,928.5L404,925.5L403.25,921.75Z" style="fill:white;"/>
        <path d="M62.25,693.75L62.25,724L46.25,693.75L38,693.75L38,737.75L45.5,737.75L45.5,708L61.25,737.75L70,737.75L70,693.75L62.25,693.75Z" style="fill:white;"/>
        <path d="M86.75,718L87,717L87.25,715.75L87.75,714.75L88.5,713.75L89,713L90,712.25L93,711.5L93.25,711.5L94.5,711.75L95.75,712.25L96.75,712.75L97,713L98,713.75L98.5,714.75L99,716L99.5,718L86.75,718ZM106.75,722L106.5,721.25L106.5,719L106.25,717.75L106,716.25L105.5,715L105.25,714L104.75,712.75L103.5,710.5L102.75,709.75L102,708.75L101,708L100.25,707.25L99.25,706.75L98,706.25L97,706L94.5,705.5L90.75,705.5L89.5,705.75L88.5,706.25L87.25,706.75L86.25,707.25L85.25,708L83.5,709.5L82.75,710.5L82.25,711.5L81.5,712.5L81,713.75L80.75,715L80.5,715.75L80,718.25L80,719.5L79.75,720.75L79.75,724L80,725.25L80,726.5L80.25,727.75L80.75,729L81,730L81.5,731.25L82,732.25L84.25,735.25L85.25,736L86,736.5L88.25,737.75L89.25,738L90.5,738.25L92,738.5L93.5,738.5L95.75,738.25L98.25,737.5L99.5,737L100.5,736.5L100.75,736.25L102.75,734.75L104.25,733L105.75,731L100,728L100,728.25L99.25,729.5L98.5,730.5L97.75,731L96.75,731.75L95.5,732L94.5,732.25L93,732.5L91.75,732.25L90.5,731.75L89.5,731.25L88,729.75L87,727.75L86.75,726.5L86.5,725L86.25,723.25L106.5,723.25L106.75,722Z" style="fill:white;"/>
        <path d="M137.25,725.25L136.75,724.5L135.25,722.5L134.25,722L133.25,721.25L132.75,721L131.5,720.25L129.25,719.5L129,719.5L123.5,718L122.75,717.75L121.75,717L121.25,716L121,715L121.25,714L121.75,713.25L122.5,712.5L123.5,712L126.5,711.5L126.75,711.5L130.5,712.25L131.5,713L132.5,713.5L133,714L137,709.25L134,707L132.75,706.75L132,706.25L129.5,705.75L127,705.5L124,705.5L121.75,706.25L120.5,706.75L118.5,707.75L117.75,708.25L116,710L115.5,711L115,712.25L114.5,713.25L114.5,716.25L115,718.75L115.5,719.5L116,720.5L116.75,721.25L117.75,722L118.75,722.5L119.75,723.25L121.25,723.75L121.5,723.75L127.75,725.75L129.75,726.5L130.75,727.25L131.25,728L131.25,730L131,730.75L130.25,731.25L129.25,731.75L128,732.25L125.25,732.5L124,732.25L122.75,732.25L121.75,731.75L120.5,731.5L119.25,731L118.25,730.5L117.25,729.75L116.75,729.25L112.75,734L113.5,734.75L114.75,735.5L115.75,736L116.75,736.75L119,737.5L120.25,738L122.5,738.5L128,738.5L129.25,738.25L131.5,737.5L132.75,737L133.75,736.5L134.75,735.5L135.75,734.75L136.5,733.75L137.5,731.75L137.75,730.5L137.75,727.75L137.25,725.25Z" style="fill:white;"/>
        <path d="M158.25,732.25L157,732L156,731.5L165.5,717L165.75,718.25L166,719.25L166.25,720.75L166.25,722.75L166,724L166,725.25L165.75,726.5L165.25,727.75L165.25,728.25L164.75,729.25L164,730.25L163,731L162.5,731.25L161.5,732L159,732.5L158.25,732.25ZM152.25,725.5L152,724.25L152,720.25L152.5,717.75L152.75,716.25L153,716L153.5,714.75L154,713.75L154.75,713L155.75,712.25L156.75,712L157.75,711.5L160,711.5L161.25,712L162.25,712.5L152.5,727L152.25,725.5ZM172.75,718.5L172.5,717L172.25,716L171.75,714.75L171.5,713.5L171,712.5L170.25,711.75L169.75,710.75L173,706.5L166.5,706.5L165.75,707.25L165,707L162.75,706L160.25,705.5L157.75,705.5L155.25,706L154,706.5L152,707.5L151,708.25L150.75,708.25L149,710L148.25,711L147,713.25L146.5,714.25L146,715.75L146.25,715.75L146,716L146,717.25L145.5,719.75L145.5,724.25L145.75,726.75L146.25,729.25L146.75,730.5L147.25,731.25L148.5,733.25L145.5,737.75L151.75,737.75L152.25,736.75L153,737L154.25,737.75L155.25,738L157.75,738.5L160.75,738.5L161.75,738.25L164.25,737.5L165.25,737L166.5,736.5L167.25,735.75L169.25,734L170,733L171.25,730.75L172,728.25L172.25,726.75L172.75,724.25L172.75,723L173,722L173,721.25L172.75,719.75L172.75,718.5Z" style="fill:white;"/>
        <path d="M201.25,706.5L194.25,727.75L187,706.5L180.25,706.5L190.722,738.166L189,743.25L188.5,744.25L187.75,745L186.5,745.25L185.25,745.25L182.75,744.75L182.5,744.75L180.25,750.5L181.5,750.75L182.5,751L184,751.25L185,751.5L186.5,751.5L187.75,751.25L188.75,751L190,750.75L191,750.25L193,748.75L194,747.75L194.5,746.75L195.25,745.75L195.5,744.75L208.5,706.5L201.25,706.5Z" style="fill:white;"/>
        <path d="M232,730.5L231.75,730.5L230.75,731.25L229.75,731.75L226,732.5L225,732.5L223.75,732.25L222.75,731.75L221.5,731.25L220.75,730.75L220,729.75L219.5,728.75L219.25,727.5L219.75,725.5L221.25,724L222.5,723.5L223.75,723.25L232,723.25L232,730.5ZM238,713L237.75,712L235.5,709L235,708.25L234,707.5L231.75,706.25L230.75,706L229.5,705.5L228.25,705.5L226.75,705.25L224,705.25L222.75,705.5L221.5,705.5L220.5,705.75L219,706L218,706.25L214.25,707.25L216.5,713.25L219.5,712.25L222,711.75L224.5,711.5L227.25,711.5L228.5,711.75L229.75,712.25L230.5,713L231.25,714L231.75,715.25L232,716.5L232,718L222.25,718L221,718.25L220,718.5L218.75,718.75L217.75,719.25L216.75,720L215.5,721.25L214,723L213.5,724.25L213.25,725.25L213,726.5L213,729.25L213.25,730.5L213.5,731.5L214,732.5L214.5,733.75L216,735.25L217,736L218.25,736.75L218.5,737L219.75,737.25L220.75,737.75L222,738.25L223.25,738.25L224.5,738.5L227.25,738.5L228.5,738.25L229.75,737.75L230.75,737.25L232,736.75L232,737.75L238.5,737.75L238.5,714.25L238,713Z" style="fill:white;"/>
        <path d="M341.5,722.25L353.75,704L353.75,722.25L341.5,722.25ZM361.5,722.25L361.5,693.75L351.75,693.75L332.75,722.25L332.75,729.5L353.75,729.5L353.75,737.75L361.5,737.75L361.5,729.5L365,729.5L365,722.25L361.5,722.25Z" style="fill:white;"/>
        <path d="M378.25,733.75L377.5,732.5L377.5,732.25L376.5,731.25L375.25,730.75L374,730.5L372.25,730.5L371,731L370,731.75L369.25,733L368.75,734.25L368.75,735.25L369,736.75L369.75,737.5L371,738L371.5,738L373,737.75L373.5,737.5L374,738.75L374,739L373.5,740.25L373,741L371.75,741.75L371,741.75L371,744.25L372.25,744.25L373.75,743.75L375,743.25L376,742.5L376.5,742L377.25,741L378,739.75L378.5,738.5L378.75,737L378.75,735L378.25,733.75Z" style="fill:white;"/>
        <path d="M400.25,728L399.25,730L398.25,731L397.5,731.5L396.5,732L394,732.5L391.5,732L389.5,731L388.75,730.25L388,729.25L387.5,726.75L387.75,725.5L388,724.5L389.5,722.5L390.25,722L391.5,721.5L392.5,721.25L394,721L395,721.25L396.25,721.5L397.5,722L398.25,722.5L399,723.25L399.75,724.25L400.25,726.75L400.25,728ZM392.25,714.75L391,714.25L390,713.75L389.75,713.5L389,712.5L388.75,711.5L388.5,710L388.5,709.75L388.75,708.5L389.25,707.25L390.25,706.25L391.5,705.75L392.5,705.25L394.5,705.25L395.75,705.5L397.75,706.5L398,706.75L398.75,707.75L399,708.75L399.25,710L399.25,710.5L399,711.75L398.5,712.75L397.5,713.75L396.5,714.5L395.25,714.75L392.25,714.75ZM406.5,724.5L405.75,722.25L405.25,721.25L403.75,719.25L401.75,717.75L402.25,717.5L404,715.75L404.75,714.75L405.25,713.75L405.5,712.5L405.75,711.5L406,710L406,709.5L405.25,705.75L404.75,704.75L403.25,702.75L402.5,702L402,701.75L401,701L399,700L397.75,699.5L396.5,699.25L395.25,699.25L394,699L393.5,699L392,699.25L389.5,699.75L387.5,700.75L386.25,701.25L385.5,702L385,702.25L384.25,703.25L383.5,704L383,705.25L382.5,706.25L382,708.75L382,710.75L382.25,712L382.5,713L383,714.25L383.25,715.25L385,717L386,717.75L385.25,718.5L383.25,720L382.75,721L382,722L381.75,723L381.25,724.25L381,725.5L381,728L381.5,730.5L382.5,732.75L384,734.5L385.75,736.25L387.75,737.25L389,737.75L390,738L392.5,738.5L395.25,738.5L399,737.75L402,736.25L403,735.5L404.75,733.75L405.25,732.75L406.25,730.5L406.5,729.25L406.75,726.75L406.75,725.75L406.5,724.5Z" style="fill:white;"/>
        <path d="M55.75,627L62,648.5L49.5,648.5L55.75,627ZM61,618L50.5,618L38,662L45.75,662L47.5,655.5L63.75,655.5L65.75,662L73.5,662L61,618Z" style="fill:white;"/>
        <path d="M103.25,650.75L103,649.75L102.5,648.75L101.75,647.75L101,647L99,645.5L98.25,645.25L97.25,644.75L95,644L94.75,644L89,642.5L88.5,642L87.5,641.5L86.75,640.75L86.5,639.5L86.75,638.5L87.25,637.75L88.25,637L89.25,636.5L90.75,636L93.75,636L95,636.25L96,636.75L97.25,637.25L98.5,638.25L102.75,633.75L101.75,632.75L100.75,632L99.5,631.5L98.5,631L97.75,630.75L96.5,630.25L95,630L92.75,629.75L91,629.75L88.5,630.25L87.25,630.75L86.25,631L85,631.75L84,632.25L83.25,632.75L82.5,633.5L81,635.5L80.5,636.5L80,639L80,640.75L80.25,642L80.5,643L81,644L81.75,644.75L82.5,645.75L83.25,646.5L84.25,647L86.75,648L87.25,648.25L93.5,650L95.25,650.75L96.25,651.5L97,652.5L97,654.25L96.5,655.25L95,656.25L93.75,656.5L91,656.75L89.75,656.75L86,656L85,655.5L83,654L82.5,653.5L78.25,658.25L81.25,660.5L82.5,661L83.5,661.5L84.75,662L86,662.25L88.25,662.75L89.5,663L92.25,663L93.75,662.75L95,662.5L97.25,662L98.25,661.5L99.25,660.75L99.5,660.75L100.5,660L102.25,658.25L102.75,657.25L103.25,656L103.5,655L103.5,652L103.25,650.75Z" style="fill:white;"/>
        <path d="M139.5,630.75L130,630.75L119,641.75L119,618L112.5,618L112.5,662L119,662L119,651L121.5,648.75L131,662L139.5,662L126,644L139.5,630.75Z" style="fill:white;"/>
        <path d="M149.75,642.5L150,641.5L150.25,640.25L150.75,639L151.5,638L152,637.5L153,636.75L154,636.25L155,636L157.5,636L158.75,636.5L159.75,637.25L160,637.25L161,638L161.5,639.25L162,640.25L162.25,641.5L162.5,642.5L149.75,642.5ZM169.75,646.5L169.5,645.75L169.5,643.25L169.25,642L168.75,640.75L168.25,638.25L167.75,637.25L166.5,635L165.75,634L164,632.25L163.25,631.75L162.25,631.25L161,630.75L160,630.25L157.5,629.75L155,629.75L152.5,630.25L151.5,630.75L149.25,631.75L148.25,632.25L146.5,634L145.75,635L145.25,635.75L144.5,637L144,638L143.5,639.5L143.5,640.25L143,641.5L143,642.75L142.75,644L142.75,648.5L143,649.75L143,651L143.5,653.5L144,654.5L144.5,655.75L145.75,657.75L146.5,658.75L147.25,659.5L148.25,660.25L149,661L150,661.75L151.25,662L152.25,662.5L153.5,662.75L155,663L157.75,663L160,662.5L161.25,662L163.75,660.75L165.75,659.25L166.5,658.5L167.25,657.5L168,656.25L168.75,655.25L163,652.5L163,653L161.5,654.75L160.75,655.5L159.75,656L158.5,656.5L157.5,656.75L154.75,656.75L153.5,656.25L152.5,655.75L152.25,655.75L151.75,655L151,654.25L150.5,653.25L150,652L149.5,649.5L149.25,647.75L169.5,647.75L169.75,646.5Z" style="fill:white;"/>
        <path d="M196,630.5L194.75,630L193.5,629.75L191.5,629.75L190.5,630L188,630.5L187,631L184.75,632.5L184.75,630.75L178.25,630.75L178.25,662L184.75,662L184.75,642.25L185,641L185.25,640L186,638.75L187,637.75L188,637L189,636.5L190.25,636L192,636L193.25,636.25L194.25,636.75L196.75,630.75L196,630.5Z" style="fill:white;"/>
        <path d="M359,643L358.75,641.75L357.75,639.25L357,638L356,637L355.25,636L354.25,635L354,635L353,634.25L351.75,633.5L350.25,633L349,632.5L347.5,632.25L346.25,632L343.75,632L342.5,632.5L341,633L340.75,633.25L340.75,625.25L358.5,625.25L358.5,618L332.75,618L332.75,639.25L339.5,641L340.75,640.25L342,639.75L345,639.25L345.25,639.25L346.75,639.5L348,639.75L349.25,640.5L350.25,641.5L351,642.75L351.5,644L352,647L352,647.5L351.75,649.25L351.5,650.75L350.5,653.25L349.25,654.5L347.75,655.5L346.5,656L343.75,656L342.5,655.75L341,655.25L340,654.75L338.75,654L337.75,653L336.75,652.25L331.5,657L332.25,658.25L333.5,659L334.75,660L337,661.5L338.25,662L339.5,662.25L341,662.75L342.25,663L346.75,663L348,662.75L349.5,662.5L352,661.5L353.25,660.75L354,660L355.25,659L356,658.25L357,657L357.75,656L358.5,654.5L359,653L359,652.25L359.25,650.75L359.5,649.5L359.5,646L359,643Z" style="fill:white;"/>
        <path d="M374.5,659.5L374,658L373.5,656.75L372.5,655.75L371.25,655L369.75,654.75L369.5,654.75L368,655L367,655.5L366,656.25L365,657.25L364.75,658.75L364.75,659.75L365,661L365.75,662L367,662.5L367.75,662.5L369,662L369.25,662L369.75,663.25L369.5,664.75L369,665.25L367.75,666L367,666.25L367,668.75L368.25,668.5L369.75,668.25L371,667.75L372,666.75L372.5,666.5L373.5,665.25L374,664.25L374.5,662.75L374.75,661.5L374.75,661L374.5,659.5Z" style="fill:white;"/>
        <path d="M389,656.75L388,656.5L386.75,656L386,655.25L385.25,654.25L384.75,653.25L384.25,652L384.25,647.75L384.75,646.5L385.25,645.5L386,644.5L386.75,643.75L387.75,643.25L389,642.75L391.25,642.75L392.25,643.25L393.5,643.75L394.5,644.5L395,645.25L395.75,646.25L396.25,648.75L396.25,650.75L396,652L395.75,653L395.25,654L394.5,655L393.75,655.75L392.5,656.25L391.5,656.75L389,656.75ZM402.25,645.5L401.75,644.25L400.75,642.25L400,641.25L399,640.25L398,639.5L397.25,638.75L395,637.5L394,637.25L391.5,636.75L389,636.75L387.5,637L385.5,638L384.5,638.75L384.75,637.75L385,636.5L386,634.25L386.5,633L387,632.25L388.5,630.75L389.5,630L390.75,629.75L393,629.75L394,630L395,630.5L396,631.5L400,626.25L399,625.5L398,625L395.5,624L394.5,623.75L393.25,623.5L390.75,623.5L388.25,624L387.25,624.5L386,625L383.75,626.25L383,627.25L382,628L381.25,629L380,631.25L379.75,632L378.75,634.5L378.5,635.5L378,636.75L377.25,640.5L377.25,641.5L377,643L377,648.5L377.5,651L377.5,652.25L378,653.5L378.25,654.25L378.75,655.5L379.25,656.5L380,657.75L380.5,658.75L382.5,660.25L383,661L384.25,661.5L385.25,662L386.5,662.5L389,663L391.5,663L394,662.5L395,662L396.25,661.5L397.25,661L399,659.25L400,658.5L400.75,657.25L401.75,655.25L402.25,654L402.75,651.75L402.75,647.75L402.25,645.5Z" style="fill:white;"/>
        <path d="M153.5,526.75L148.25,532L148.25,539.5L153,537L153,570.75L160.75,570.75L160.75,526.75L153.5,526.75Z" style="fill:white;"/>
        <path d="M193.75,551.75L193.25,550.25L192.75,549L192,548L191.25,546.75L189.75,544.75L187.25,542.75L183.5,541.25L182,541L180.75,540.75L178.25,540.75L176.75,541.25L175.5,541.75L175.25,542L175.25,534L193,534L193,526.75L167.25,526.75L167.25,548L174,549.75L176.5,548.25L178,548L181,548L182.25,548.5L183.5,549.25L184.75,550.25L185.5,551.25L185.75,552.75L186.25,554.25L186.25,558L186,559.5L185.5,560.75L185,561.75L184.25,562.75L183.5,563.25L182.25,564L181,564.5L179.5,564.75L178.25,564.75L176.75,564.5L175.5,564L174.25,563.25L173,562.75L172,561.75L171.25,560.75L165.75,565.75L167,566.75L169,568.75L171.5,570L174,571L175.5,571.5L176.75,571.75L181.25,571.75L182.5,571.5L184,571.25L185.25,570.75L187.75,569.25L188.5,568.75L190.75,566.75L191.5,565.75L192.25,564.5L192.75,563.25L193.25,561.75L193.5,560.75L194,559.5L194,553.25L193.75,551.75Z" style="fill:white;"/>
        <path d="M101,539.25L62.75,539.25L66,521.75L65.5,520.75L65.25,520.5L64.25,520.75L26,547.5L25.5,548.25L25.5,549.25L26,550.25L64.25,577L65.25,577.25L65.5,576.75L65.75,576.5L66,575.75L62.75,558.25L101,558.25L101,539.25Z" style="fill:white;fill-rule:nonzero;"/>
        <path d="M101,539.25L62.75,539.25L66,521.75L65.5,520.75L65.25,520.5L64.25,520.75L26,547.5L25.5,548.25L25.5,549.25L26,550.25L64.25,577L65.25,577.25L65.5,576.75L65.75,576.5L66,575.75L62.75,558.25L101,558.25L101,539.25Z" style="fill:none;"/>
        <path d="M81.75,272.75L55,234.5L54.25,234L53,234L52.25,234.5L25.5,272.75L25.25,273.25L25.25,273.75L25.75,274.25L26.5,274.5L44,271.5L44,309.5L63,309.5L63,271.5L80.75,274.5L81.75,274.25L82,273.75L82,273.25L81.75,272.75Z" style="fill:white;"/>
        <path d="M140.75,249.5L135.5,254.75L135.5,262.5L140.25,259.75L140.25,293.75L148,293.75L148,249.5L140.75,249.5Z" style="fill:white;"/>
        <path d="M178.75,260L178.5,258.5L178,257.25L176.5,254.75L175.75,253.75L173.75,251.75L170,249.5L167.5,248.75L166,248.5L164.5,248.5L161.75,248.75L160.5,249.25L159,249.75L157.75,250.25L156.5,251L155.5,251.75L154.5,252.75L153.5,254L152.75,255L152,256.25L151.5,257.5L150.75,260.25L158.25,261.75L158.75,260.25L159.25,259.25L160.25,258L160.5,257.75L161.5,257L163,256.5L164.25,256.25L164.75,256.25L166.25,256.5L167.5,256.75L168.75,257.5L169.5,258L170.25,259.25L170.75,260.25L171.25,261.75L171.25,264.25L169.75,268L168.75,269.25L168,270.25L151.75,287L151.75,293.75L179,293.75L179,286.5L163,286.5L173.5,275.75L175.5,273.25L176.25,272L177,271L178,268.5L178.75,265.75L179,264.25L179,261.25L178.75,260Z" style="fill:white;"/>
        <path d="M45.5,365.5L56,365.5L57.5,365.75L58.75,366L59.5,366.5L60.5,367.5L61.5,368.25L62,369.25L62.25,370.5L62.25,373L62,374L61.5,375.25L59.75,377L58.75,377.5L57.5,377.75L56,378L45.5,378L45.5,365.5ZM45.5,348L56.25,348L57.5,348.25L58.75,348.75L59.5,349.5L59.75,350L60.5,350.75L61,352L61,353.75L60.75,355L60.25,356L59.5,357L58.25,358L57,358.5L45.5,358.5L45.5,348ZM69.5,369L69.25,368L68.75,366.75L68.25,365.75L67.75,365L66.25,363L65.25,362.25L64.25,361.75L64.25,361.5L66.25,360L67,359L68,357L68.5,354.5L68.5,352L68,349.5L67.75,348.5L67,347.25L66.5,346.25L65.75,345.25L64.75,344.25L62.75,342.75L60.75,341.75L59.5,341.25L58.25,341L38,341L38,385L58.5,385L59.75,384.75L61,384.25L62,384L64.25,382.75L65,382L66.5,380.75L68,378.75L69,376.75L69.75,373L69.75,370.25L69.5,369Z" style="fill:white;"/>
        <path d="M96,377.75L95.75,377.75L95,378.5L92.5,379.5L91.5,379.75L89.75,379.75L88.25,379.5L87,379.25L86,379L85,378.5L84,377L83.5,376L83.5,374L84,372.75L84.75,371.75L85.5,371.25L86.5,370.75L87.75,370.5L96,370.5L96,377.75ZM103.5,363.25L104,362.25L104.25,361.25L105,360.5L106,359.75L107,359.25L108,359L111.25,359L113.25,360L114.75,362L115.25,363.25L115.5,364.25L116,365.25L103,365.25L103.5,363.25ZM122.75,370.5L122.75,367.25L122.25,364.75L122,362.25L121.5,361.25L121,360L120.5,359L118.25,356L117.25,355.25L116.25,354.75L115.25,354L114.25,353.5L110.5,352.75L107.75,352.75L106.5,353L105.5,353.25L104.25,353.5L103.25,354.25L102.25,354.75L100.25,356.25L99.5,357.25L97.5,355.25L96.5,354.75L95.5,354L93.25,353L92,353L91,352.75L87.75,352.75L86.25,353L85.25,353L81.5,353.75L79,354.5L77.75,355L80,360.75L82.5,359.75L83.5,359.5L86,359L91,359L92.25,359.25L93.25,359.75L94.25,360.5L95,361.5L95.5,362.5L96,365L96,365.25L85.25,365.25L82.75,366L81.75,366.75L80.75,367.25L79.5,368.5L78,370.5L77.5,371.75L77.25,372.75L77,374L77,376.5L77.25,377.75L78,380L78.5,380.75L79.25,381.75L80,382.5L82.25,384L82.5,384L83.5,384.5L86,385.25L88.25,385.75L89.5,386L90.25,386L91.5,385.75L92.5,385.5L93.75,385.25L95,384.75L96,384L96,385L102.75,385L102.75,384L103.5,384.25L104.5,385L107,385.75L109.25,386L109.75,386L111,385.75L113.25,385.25L115.75,384.25L116.75,383.75L117,383.5L119,382L119.75,381L120.75,380L122,378L116.25,375.25L116.25,375.75L115.5,376.75L113.75,378.5L113,379L111.75,379.5L110.5,379.75L109.25,379.75L108,379.5L107,379.25L105.75,378.5L104,376.75L103.5,375.5L103.25,374L102.75,371.5L102.75,370.5L122.75,370.5Z" style="fill:white;"/>
        <path d="M149.5,353.25L147,352.75L143.75,352.75L141.5,353.5L140.25,354L139.25,354.5L138.25,355.25L138.25,353.5L131.75,353.5L131.75,385L138.25,385L138.25,365L138.5,363.75L138.75,362.75L140.25,360.75L140.5,360.5L141.5,359.75L142.5,359.25L143.75,359L146.75,359L148,359.5L150.25,353.5L149.5,353.25Z" style="fill:white;"/>
        <path d="M172.75,353.5L172.75,373.5L172.25,376L171.5,377L170.75,377.75L170,378.75L169,379.25L166.5,379.75L164,379.25L163,378.75L161.25,377L160.75,376L160.5,374.75L160.5,353.5L153.75,353.5L153.75,376.25L154,377.25L154.25,378.5L154.75,379.75L155.25,380.75L156,381.75L157,382.75L158,383.5L158.75,384.25L160,384.75L161,385.25L163.5,385.75L164.5,386L164.75,386L167.25,385.75L169.75,384.75L170.75,384.25L172.75,383L172.75,385L179.25,385L179.25,353.5L172.75,353.5Z" style="fill:white;"/>
        <path d="M229.5,360.25L229,359L228.5,358L228,356.75L227,356L226,354.75L223.75,353.5L222.75,353L221.5,352.75L218.5,352.75L216,353.25L215,353.5L212.75,354.75L212,355.75L211,356.5L210.75,356.75L210,355.75L209,355L208.25,354.25L207.25,353.5L206,353.25L205,353L203.75,352.75L201.5,352.75L200.25,353L199.25,353.25L198,353.75L196,355.25L195.75,355.5L195.75,353.5L189.25,353.5L189.25,385L195.75,385L195.75,364L196,362.75L196.25,361.75L197,360.5L197.25,360.25L198.25,359.5L199.25,359L202.25,359L203.25,359.25L204.5,360L204.75,360.25L205.5,361.25L206,362.25L206,385L212.75,385L212.75,362.75L213.25,361.75L214,360.5L215,359.5L216.25,359L219.25,359L220.5,359.25L221.25,360L221.75,360.25L222.5,361.25L223,362.25L223,385L229.75,385L229.75,361.5L229.5,360.25Z" style="fill:white;"/>
        <path d="M262.25,373.75L261.75,372.75L261.25,371.5L260.75,370.75L260,369.75L259,369L258,368.5L257.25,368L255,367.25L253.75,366.75L248,365.25L247.5,365L246.25,364.5L245.75,363.5L245.5,362.25L245.75,361.25L246.25,360.5L247,359.75L248.25,359.25L249.75,359L253.75,359L255,359.5L256,360L257,360.75L257.5,361.25L261.75,356.5L260.75,355.75L258.5,354.25L257.5,353.75L256.75,353.5L255.25,353.25L252.75,352.75L250,352.75L248.5,353L247.5,353L246.25,353.5L244,354.5L243,355.25L242.25,355.75L241.5,356.5L240.5,357.25L240,358.5L239,360.5L239,363.75L239.5,365.75L240,366.75L240.75,367.75L242.25,369.25L243.25,370L245.75,371L246,371L252.25,373L253.25,373.25L255.25,374.25L256,375.5L256,376.25L255.75,377.25L255.5,378L254,379L252.75,379.5L251.25,379.75L248.5,379.75L246.25,379.25L245,378.75L244,378.25L242.75,377.75L242,377L241.25,376.5L237.25,381L238.25,382L239.25,382.75L240.25,383.25L241.5,383.75L242.5,384.5L243.75,384.75L244.75,385.25L247.25,385.75L248.25,385.75L249.75,386L250,386L252.5,385.75L254,385.5L255,385.25L256.25,384.75L258.25,383.75L258.5,383.5L259.5,383L261.75,380L262,379L262.5,377.75L262.5,375L262.25,373.75Z" style="fill:white;"/>
        <path d="M65.5,416.5L55.5,451.75L45.75,416.5L38,416.5L50.25,460.75L61,460.75L73.25,416.5L65.5,416.5Z" style="fill:white;"/>
        <path d="M84,440.75L84.25,440L84.5,438.75L85,437.5L85.75,436.5L86.25,435.75L88.25,434.75L89.25,434.5L90.5,434.25L91.75,434.5L93,435L94,435.75L94.25,435.75L95,436.75L95.75,437.5L96.25,438.75L96.5,440L96.75,440.75L84,440.75ZM103.75,443L103.75,441.75L103.25,439.25L102.75,437.75L102.5,436.75L102,435.5L101.5,434.5L100,432.5L98.25,430.75L97.5,430.25L96.5,429.75L95.25,429.25L94.25,428.75L91.75,428.25L89.25,428.25L86.75,428.75L85.75,429L84.5,429.5L83.5,430.25L82.5,430.75L81.75,431.5L80.75,432.25L79.5,434.25L78.75,435.5L78.25,436.5L78,437.75L77.75,438.75L77.25,441L77,442.5L77,446.75L77.25,448.25L77.25,449.25L77.5,450.5L78.25,452.75L78.75,454L79.25,455L80,456.25L80.75,457.25L81.5,458L82.5,458.75L83.25,459.5L84.5,460L85.5,460.5L88,461.25L92,461.25L93.25,461L94.5,461L95.5,460.5L96.75,460L97.75,459.25L98,459.25L100,457.75L103,453.75L97.5,451L97.25,451.25L95.75,453.25L95,454L94,454.5L92.75,455L91.75,455.25L90.25,455.25L87.75,454.75L86.75,454.25L86,453.5L85.25,452.5L84.75,451.75L84.25,450.5L84,449.25L83.5,446.25L103.75,446.25L103.75,446L104,444.75L104,444L103.75,443Z" style="fill:white;"/>
        <path d="M130.25,429L129,428.5L128,428.25L124.75,428.25L123.5,428.5L122.25,429L121.25,429.5L120,430.25L119,431L119,429.25L112.5,429.25L112.5,460.75L119,460.75L119,440.75L119.5,438.25L121,436.25L121.25,436.25L122.25,435.25L123.25,434.75L125.75,434.25L126.25,434.5L127.5,434.5L128.5,435L131,429.25L130.25,429Z" style="fill:white;"/>
        <path d="M161.5,429L152,429L141,440L141,416.5L134.5,416.5L134.5,460.75L141,460.75L141,449.5L143.284,447.295L153.25,460.75L161.25,460.75L148.25,442.5L161.5,429Z" style="fill:white;"/>
        <path d="M361.25,385L332.75,385L332.75,392.25L352.5,392.25L336.25,429L344.75,429L361.25,391.75L361.25,385Z" style="fill:white;"/>
        <path d="M374.5,426.5L374,425L373.5,423.75L372.5,422.5L371.25,422L369.75,421.75L369.5,421.75L368,422L367,422.5L366,423.25L365,424.25L364.75,425.5L364.75,426.75L365,428L365.75,429L367,429.5L367.75,429.5L369,429L369.25,428.75L369.75,430.25L369.5,431.5L369,432.25L367.75,433L367,433.25L367,435.75L368.25,435.5L369.75,435.25L371,434.5L372,433.75L372.5,433.5L373.5,432.25L374.5,429.75L374.75,428.25L374.75,428L374.5,426.5Z" style="fill:white;"/>
        <path d="M398,411.5L397.75,413L397.75,414.25L397.25,416.5L396.75,417.75L396.5,419L395,422L394,422.75L392,423.75L389.5,423.75L387.5,422.75L386.5,422L385,419L384.75,417.75L384,415.5L383.5,413L383.5,407.5L383.75,406.25L384.25,404L384.5,402.75L385,401.5L386.5,398.5L387.5,397.75L389.5,396.75L390.75,396.5L392,396.75L393,397L395,398.5L395.5,399.5L396,400.25L396.5,401.25L396.75,402.5L397.25,403.75L397.5,404.75L397.75,406.25L397.75,407.25L398,408.75L398,411.5ZM404.25,408.25L404.25,407L404,405.5L404,404.25L403.5,401.75L403.25,400.75L402.75,399.5L401.25,396.5L401,395.75L399.25,394L398.5,393L397.5,392.25L395.5,391.25L394.5,391L392,390.5L388.75,390.5L387.5,390.75L386.25,391.25L385.25,391.75L384.25,392L383.25,392.75L382.5,393.5L380.25,396.5L378.5,400L378.25,401L377.75,402.25L377,406L377,413.5L378,418.5L378.25,419.5L379.25,422L379.75,422.75L380.25,423.75L380.5,424.5L381.25,425.5L383,427.25L384,428L387,429.5L388.25,429.75L389.25,430L391.5,430L394,429.5L395,429.25L397.25,428.25L398,427.5L399,426.75L400.75,425L401.25,423.75L401.5,423.5L403,420.5L403.25,419.25L403.5,418.25L404,417L404,415.75L404.25,414.25L404.25,411.75L404.5,410.25L404.5,409.75L404.25,408.25Z" style="fill:white;"/>
        <path d="M307,145.25L306.75,145.5L306,146.75L305.25,148.25L305,148.5L305,149L304.5,149.25L304.5,149.5L304,149.75L303.25,151.25L303,151.25L301.75,152.5L301.75,152.75L300.5,154L299,155.25L298,156.25L297.75,156.25L297.25,156.5L297.25,156.75L296,157.5L295,158L294.75,158.25L293,159L292.5,159.5L291.75,159.75L291.5,159.75L289.5,160.5L289.5,160.75L288.25,161L286,161.5L285.75,161.5L284.75,161.75L284.5,161.75L282,162L277.5,162L274,161.5L272,161L270.5,160.75L270.5,160.5L268.75,159.75L268.5,159.75L267.5,159.5L267,159L265.5,158.25L265.25,158L264,157.5L263.75,157.5L262.5,156.25L262.25,156.25L261.25,155.25L261,155.25L259.5,153.75L258.75,153.25L258.75,153L258.5,153L258.25,152.75L258.25,152.5L257,151.25L256.25,150.25L256,149.75L255.25,149L255,148.5L254.75,148.25L254,146.75L253.5,145.5L253.25,145.5L253.25,145.25L253,145L253,144.75L252.5,144L252.5,143.5L251.75,142L251.75,141.5L251.5,141.25L251.5,140.75L251.25,140.5L251.25,139.75L251,139.75L251,138L250.75,137.25L250.75,137L281.75,137L281.75,136.75L282.25,136.5L282.5,136.5L283,136.25L283.5,135.5L283.75,135.5L284,135.25L284,135L284.75,133.5L284.75,131.25L284.5,131L284.5,130.25L284,129.25L283.75,128.5L283.25,128L283.25,127.5L283,127.25L282.25,125.75L282,125L281.75,124.5L281.75,124.25L281.5,124.25L281.5,124L281.25,123.75L281.25,123.25L280.75,122.25L280.25,121L280,120.75L279.75,120.25L279.75,120L279.5,119.75L279.5,119.5L279.25,119L278.5,117.75L278.5,117.5L278.25,117L278,116.25L278,116L277.75,115.75L277.75,115.5L277.5,115.25L277.25,114.75L277.25,114.5L277,114L276.5,112.75L276,112.25L276,111.75L275.75,111.5L275.75,111.25L275.25,110.25L275,109.5L274.75,109L274.75,108.75L274.5,108.75L274.25,108.25L274.25,107.75L273.75,106.75L273.25,106L273.25,105.75L273,105.5L273,105.25L272.75,105L272.75,104.75L272.5,104L272,103.5L274,103.25L275.25,103L275.75,102.75L276.25,102.75L278,102.5L282.75,102.5L283.75,102.75L284,102.75L284.5,103L286.5,103.25L287.75,103.5L288.5,103.75L290,104L291.25,104.75L292.75,105.25L293,105.5L295.5,106.75L297,107.75L297,108L297.5,108.25L298,108.75L298.5,108.75L298.5,109L299,109.5L299.25,109.5L300,110.25L301.25,111.25L301.25,111.5L301.75,111.75L301.75,112L302.5,112.75L303.5,114L304,114.5L304,114.75L304.75,115.5L304.75,115.75L305,116L305,116.25L305.5,117L306,117.5L306,117.75L306.5,119L306.75,119L307,119.5L307,119.75L307.25,120L307.25,120.25L307.5,120.75L307.75,121L308,122.25L308.25,123.25L308.5,123.5L308.5,123.75L308.75,124L308.75,125L309,125.75L309.25,126.25L309.5,127.25L309.5,128.5L309.75,129.25L309.75,135.5L309.5,136.25L309.5,137.25L309.25,138L309.25,138.5L308.75,139.75L308.75,140.5L308.5,140.5L308.5,141.25L308.25,141.5L308.25,142L307.75,143.5L307.5,144L307,144.75L307,145.25ZM243.5,120L243.5,120.75L243.25,121L243,122.25L242.5,123.25L242.5,124.25L242.25,124.5L242.25,125L242,125.75L242,127.5L237.75,127.5L237.75,127.25L238,126.25L238.25,125.75L238.5,125L238.75,124.5L238.75,124L239,123.75L239,123.25L239.25,122.25L239.75,121L239.75,120.25L240,120L240,119.5L240.25,119L240.75,117.75L240.75,117L241,116.25L241.25,116L241.25,115.5L241.5,115.25L241.5,114.75L241.75,114.5L241.75,114L242,112.75L242.25,112.5L242.25,112.25L242.5,112L242.5,111.25L243,110.25L243.25,109.5L243.25,108.75L243.5,108.75L243.5,108.25L243.75,108L243.75,107.25L244,106.75L244.25,106L244.25,105.75L244.5,105.5L244.5,105L244.75,104.75L244.75,104L245,103.75L245,103L245.25,102.75L245.25,102L245.5,101.75L246,100.25L246,100L246.25,99.5L246.75,98L246.75,97.5L247.25,96.25L247.25,96L247.75,95L247.75,94.5L248,94.25L248,93.75L248.25,92.5L249.5,88.5L251,83.25L251.75,81.25L252.75,83.25L255,88.5L257,92.5L257.25,93.75L257.5,93.75L257.5,94.25L258,94.75L258,95L258.5,96L258.5,96.25L259.25,97.5L259.25,97.75L259.5,98L260,99.5L259.75,99.5L259,100.25L256.5,101.75L255.75,102.5L255.5,102.5L255.5,102.75L255,103.25L254.5,103.5L253,105L252.5,105.25L252.5,105.5L250.25,107.75L250.25,108L250,108.25L249.75,108.75L249.5,108.75L249.5,109L249.25,109.5L249,109.5L248.5,110.25L247.75,111.25L247.75,111.5L247.5,111.75L247.5,112L247.25,112.25L247.25,112.5L247,112.75L246.25,114L245.75,114.5L245.75,114.75L245.5,115.25L245.5,115.5L245.25,115.75L245.25,116L245,116.25L244.75,117L244.5,117.5L244.5,117.75L244,119L243.75,119.5L243.75,119.75L243.5,120ZM237.5,96.25L237,97.5L237,98L236.5,99.5L236.25,100L236.25,100.25L235.75,101.75L235.75,102.5L235.5,102.5L235.5,103.25L235.25,103.5L235.25,104L235,104.75L234.75,105L234.75,105.75L234.5,106L234.25,106.75L234,107.25L234,108L233.75,108.25L233.75,108.75L233.5,108.75L233.5,109.5L233.25,110.25L233,111.25L233,111.5L232.75,111.75L232.75,112.25L232.5,112.5L232.5,112.75L232,114L232,114.75L231.75,115.25L231.5,115.5L231.5,116L231.25,116.25L231,117L231,117.75L230.5,119L230.25,119.5L230.25,120L230,120.25L230,121L229.5,122.25L229.25,123.25L229.25,123.5L227.75,123.5L227.5,123.75L227.25,123.75L226,124L225.75,123.75L225.75,123.5L225.5,123.5L225.5,123.25L224.5,122.25L223.5,121L222.5,120L222.5,119.75L222,119.5L221.75,119L221.5,119L220.5,117.75L220.5,117.5L218.25,115.25L218,114.75L218,114.5L215,111.5L215,111.25L214,110.25L213.5,109.5L213.25,109.5L213,109L212.75,108.75L212.5,108.75L212.25,108.25L212,108L212,107.75L210,105.75L210,105.5L209.25,104.75L208.75,104L207.5,102.75L207.5,102.5L207.25,102.5L207,102L205,100L204.75,99.5L203.25,98L203.25,97.75L203,97.5L202,96.25L200,94.25L200,94L199.75,94L199.75,93.75L198.75,92.5L195,88.5L190.5,83.25L188.75,81.25L185.75,77.75L186.5,75.75L192.75,77.75L203.75,81.25L209.75,83.25L225.75,88.5L238.75,92.5L238.25,93.75L238.25,94.25L238,94.5L238,95L237.5,96L237.5,96.25ZM260.75,109.5L261,109.5L261.75,108.75L262,108.75L262.5,108.25L263,108L263,107.75L263.75,107.25L264,107.75L264,108.25L264.25,108.75L264.5,109L264.75,109.5L265,110.25L265.5,111.25L265.5,111.5L265.75,111.75L265.75,112L266,112.25L266,112.5L266.25,112.75L266.75,114L267,114.5L267,114.75L267.25,115.25L267.5,115.5L267.5,115.75L267.75,116L267.75,116.25L268.25,117L268.5,117.5L268.5,117.75L269,119L269.25,119.5L269.25,119.75L269.5,120L269.5,120.25L269.75,120.75L270,121L270.5,122.25L271,123.25L271.25,123.5L271.25,124L271.5,124L271.5,124.5L271.75,125L272,125.75L272.75,127.25L273,127.5L250.75,127.5L250.75,127.25L251,126.25L251,125.75L251.25,125L251.25,124L251.5,123.75L251.5,123.25L252,122.25L252.5,121L252.5,120.75L252.75,120.25L253,120L253,119.75L253.25,119.5L253.25,119L253.5,119L254,117.75L254,117.5L254.5,117L255,116.25L255.25,116L255.25,115.75L255.75,115.25L256,114.75L256,114.5L256.5,114L257.5,112.75L260.75,109.5ZM180.25,107.75L181.25,108.75L181.5,108.75L182.25,109.5L183.25,110.25L185,112L185,112.25L185.5,112.5L185.75,112.75L186.75,114L187.25,114.5L187.25,114.75L187.5,115.25L188,115.75L188,116L188.25,116.25L188.75,117L189,117.5L189,117.75L189.75,119L190,119L190,119.5L190.25,119.75L190.25,120L190.5,120.25L190.75,120.75L190.75,121L191.25,122.25L191.5,123.25L191.5,123.75L191.75,124L191.75,124.5L192,125L192.25,125.75L192.25,126.25L192.5,127.25L192.5,128L192.75,128.25L192.75,130.5L193,131L193,134L192.75,134.5L192.75,136.5L192.5,136.75L192.5,137.25L192.25,138L192.25,138.5L192,139.75L192,140L191.75,140.5L191.75,140.75L191.5,141L191.5,141.5L191.25,141.5L191.25,142L190.75,143.5L190.5,144L190.25,144.75L190,145L190,145.5L189.75,145.5L189.25,146.75L189,147.25L188.25,148.25L188,148.5L188,149L187.5,149.25L187.5,149.5L187.25,149.75L187,150.25L186.25,151.25L186,151.25L185,152.5L185,152.75L184.75,153L184.5,153L184.5,153.25L183.75,153.75L182.25,155.25L182,155.25L181,156.25L180.75,156.25L180.5,156.5L180.25,156.5L180.25,156.75L179.25,157.5L179,157.5L178,158L177.75,158.25L176,159L176,159.25L175.5,159.5L174.75,159.75L174.5,159.75L172.75,160.5L172.75,160.75L171,161L169.25,161.5L167.5,161.75L167.25,161.75L165.75,162L161,162L158.5,161.75L158.25,161.75L157.25,161.5L155,161L153.75,160.75L153.5,160.5L151.5,159.75L150.5,159.5L150,159L148.25,158.25L148.25,158L147.25,157.5L147,157.5L146,156.75L145.75,156.5L145.25,156.25L144.25,155.25L144,155.25L142.5,154L142.5,153.75L141.75,153.25L141.75,153L141.5,153L141.25,152.75L141.25,152.5L140,151.25L139.25,150.25L139,149.75L138.75,149.5L138.75,149.25L138.5,149.25L138.25,149L138,148.5L137.75,148.25L137,146.75L136.25,145.5L136.25,145.25L136,145L136,144.75L135.75,144L134.75,142L134.75,141.5L134.5,141.5L134.5,140.5L134.25,140.5L134.25,139.75L134,138.5L133.75,138L133.75,136.75L133.5,136.5L133.5,135L133.25,135L133.25,130.25L133.5,129.25L133.5,127.75L133.75,127.5L133.75,127.25L134,126.25L134,125.75L134.25,125L134.25,124L134.5,123.75L134.5,123.25L135,122.25L135.5,121L135.5,120.75L135.75,120.25L135.75,120L136.25,119.5L136.25,119L136.5,119L137,117.75L137,117.5L137.25,117L137.75,116.25L138.75,115.25L139,114.75L139,114.5L139.5,114L140.5,112.75L141.75,111.5L141.75,111.25L143,110.25L143.75,109.5L144.5,109L144.5,108.75L144.75,108.75L145.5,108.25L146,108L146,107.75L146.5,107.25L146.75,107.25L147.5,106.75L149.5,105.75L150,105.25L150.75,105L151,105L151.75,104.75L153,104L154.25,103.75L155,103.5L156.5,103.25L157.75,103L158.25,102.75L158.75,102.75L159.75,102.5L166.5,102.5L167.5,102.75L168,102.75L168.5,103L168.5,103.25L168.25,103.5L168.25,103.75L168,104L168,104.75L167.75,105L167.75,105.5L167.5,105.75L167.5,106L167.25,106.75L167,107.25L167,108.25L166.75,108.75L166.75,109L166.5,109.5L166.25,110.25L166,111.25L166,111.5L165.75,111.75L165.75,112.25L165.5,112.5L165.5,112.75L165,114L164.75,114.5L164.75,115.25L164.5,115.5L164.5,116L164.25,116.25L164,117L164,117.75L163.75,119L163.5,119L163.5,119.5L163.25,119.75L163.25,120L163,120.25L163,121L162.5,122.25L162,123.25L162,123.5L161.75,123.5L161.75,124.25L161.5,124.25L161.5,125L161,125.75L160.25,127.25L160.25,127.5L160,127.75L160,128L159.75,128.25L159.75,128.5L159.25,129.25L158.75,130.25L158.75,131L158.5,131.25L158.5,133.5L158.75,133.5L158.75,134L159,134.5L159.5,135L159.5,135.25L159.75,135.5L160,135.5L161,136.5L161.5,136.5L162.25,136.75L162.5,137L164,136.75L164.75,136.5L165.25,136.5L166.25,135.5L166.5,135.5L166.5,135.25L166.75,135L167,134.5L167.5,134L167.75,133.5L168,133.25L168,133L168.25,132.75L168.25,132.25L168.5,132.25L168.5,132L168.75,131.75L168.75,131.25L169,131L169.25,130.5L169.25,130.25L169.75,129.25L170,128.5L170,128.25L170.25,128L170.25,127.5L170.5,127.25L170.75,126.25L171,125.75L171.25,125L171.5,124.5L171.5,124L171.75,123.75L171.75,123.25L172.25,122.25L172.75,121L172.75,120.75L173,120.25L173,119.5L173.25,119L173.5,117.75L173.75,117.5L173.75,117L174,116.25L174.25,116L174.25,115.5L174.5,115.25L174.5,114.5L174.75,114L175.25,112.75L175.25,112.5L175.5,112.25L175.5,111.75L175.75,111.5L175.75,111.25L176,110.25L176.25,109.5L176.25,108.75L176.5,108.75L176.5,108.25L176.75,108L176.75,107.25L177,106.75L177.25,106L178.5,106.75L179.25,107.25L179.5,107.25L180.25,107.75ZM318.5,132.25L318.5,128.25L318.25,128L318.25,127.25L318,126.25L318,125.75L317.75,125L317.75,124L317.5,123.75L317.5,123.25L317.25,122.25L317,121L317,120.75L316.75,120.25L316.75,120L316.5,119.75L316.5,119.5L316.25,119L315.75,117.75L315.75,117.5L315.5,117L315,116.25L315,116L314.75,115.75L314.75,115.5L314.5,115.25L314.25,114.75L314.25,114.5L314,114L313.25,112.75L313.25,112.5L312.5,111.75L312.5,111.5L312.25,111.25L311.5,110.25L311,109.5L310.75,109L310.75,108.75L310.5,108.75L309.75,108L309.75,107.75L309.5,107.25L309.25,107.25L308.75,106.75L308.25,106L307.75,105.5L307.75,105.25L307.25,105L306.25,104L305.75,103.75L305,103L305,102.75L304.75,102.75L304.75,102.5L304.5,102.5L303.75,101.75L301.5,100.25L301,100L300.5,99.5L300,99.5L297.75,98L297,97.75L296.5,97.5L293.75,96.25L291.5,95.5L289.75,95L288.75,94.75L287.25,94.5L283.75,94L282,94L281,93.75L278.25,94L276.25,94L275,94.25L272.5,94.5L271.5,94.75L270.75,95L268.5,95.5L268.25,95L268.25,94.75L267.75,94.25L267.75,93.75L267,92.5L265.25,88.5L263,83.25L260.25,77.75L259.5,75.75L255.75,68L256.25,66.5L258.5,59.25L264.25,59L265.75,58.75L266.75,57.75L266.75,57.5L267.5,56.5L267.75,56.25L267.75,55.75L268,55L268,53.5L267.75,53L267.5,52L267,51.5L266.5,50.75L266,50.5L265.25,50L264.5,50L263.75,49.75L244,49.75L242.75,50L242.25,50L241.25,50.5L241,50.75L240.5,51.5L240,52L239.75,53L239.5,53L239.5,54.5L239.25,54.75L239.5,55L239.5,55.75L239.75,56.25L239.75,56.5L240.5,57.5L241.75,58.75L242,58.75L243.25,59L248.75,59.25L246.5,66.5L246,68L243.75,75.75L243.25,77.75L242,81.25L241.5,83.25L235.5,81.25L224.5,77.75L218.25,75.75L194,68L189.25,66.5L191.5,59.25L191.5,58.75L191.75,57.75L192,57.5L192.25,56.5L192.25,56.25L192.5,55.75L193,55L193.5,54.75L193.75,54.5L194.5,54.5L204,54.25L205.5,53.75L206,53.5L206.25,53L206.75,53L207.25,52L207.5,51.75L207.5,51.5L207.75,50.75L207.75,50.5L208,50L208,49.75L207.75,48.75L207.75,48.25L207.25,47.25L207,47L206.25,46L206,45.75L205,45.25L204.75,45L203.5,44.75L189.5,44.75L188,45L187.75,45.25L186.75,45.75L186.5,46L185.75,47L185.5,47.25L185,48.25L185,48.75L184.75,49.75L184.75,50L184.5,50L184.5,50.5L184.25,50.75L184,51.5L184,52L183.75,53L183.5,53L183.5,53.75L183.25,54.25L183.25,54.5L183,54.75L183,55L182.75,55.75L182.75,56.25L182.5,56.5L182.25,57.5L182.25,57.75L182,58.75L181.75,59L181.75,59.25L179.5,66.5L179,68L176.75,75.75L176,77.75L175,81.25L174.5,83.25L173,88.5L171.75,92.5L171.25,93.75L171.25,94.25L171,94.5L168.75,94.25L167.75,94L166.75,94L164.75,93.75L161,93.75L160,94L158,94L157.5,94.25L155.5,94.5L155.25,94.5L154,94.75L153.25,95L149.75,96L149.25,96.25L146.25,97.5L146,97.75L145.5,98L143,99.5L142.75,99.5L142.25,100L141.75,100.25L139.5,101.75L138.75,102.5L138.5,102.5L138.25,102.75L138.25,103L137.75,103.25L137.25,103.75L136.75,104L136.25,104.75L136,105L135.75,105L135.25,105.5L135.25,105.75L133.25,107.75L133.25,108L133,108.25L132.75,108.75L132.5,108.75L132.5,109L132,109.5L131.5,110.25L130.75,111.25L130.75,111.5L130.5,111.75L130.5,112L129.75,112.75L129.25,114L128.75,114.5L128.75,114.75L128.5,115.25L128.25,115.5L128.25,115.75L128,116L128,116.25L127.75,117L127.5,117.5L127.5,117.75L127,119L126.75,119.5L126.75,119.75L126.5,120L126.5,120.25L126.25,120.75L126.25,121L126,122.25L125.5,123.25L125.5,124L125.25,124.25L125.25,125L125,125.75L125,128L124.75,128.25L124.75,131.75L124.5,132L124.5,133.25L124.75,133.5L124.75,136.5L125,136.75L125,138.5L125.25,139.75L125.25,140L125.5,140.5L125.5,141.5L125.75,141.5L125.75,142L126.25,143.5L126.5,144L126.75,144.75L126.75,145.5L127,145.5L127.5,146.75L127.75,147.25L128,148.25L128,148.5L128.25,149L128.5,149.25L128.5,149.5L128.75,149.75L129.5,151.25L129.75,151.25L130.5,152.5L130.5,152.75L130.75,153L130.75,153.25L131.25,153.75L131.25,154L132.25,155.25L133,156.25L133.25,156.5L133.25,156.75L135.5,159L135.5,159.25L136,159.75L136.25,159.75L137,160.5L137,160.75L137.5,161L138.25,161.75L138.5,161.75L139.5,162.75L142.5,164.75L143,165L146.25,167L146.75,167L150.25,168.5L150.75,168.75L154.5,169.75L154.75,170L155,170L158.75,170.5L160.25,170.5L160.5,170.75L165.5,170.75L165.75,170.5L167.75,170.5L171,170L171.25,170L172,169.75L175.25,168.75L175.5,168.75L176,168.5L179.25,167L180,167L183.25,165L183.75,164.75L186.75,162.75L186.75,162.5L187.25,162.25L187.5,162L188,161.75L188,161.5L188.75,161L189.25,160.75L189.25,160.5L190,159.75L190.5,159.5L190.75,159.25L190.75,159L191.5,158.25L191.5,158L192.25,157.5L193,156.75L193,156.5L193.25,156.25L193.5,156.25L194,155.25L194.75,154L195.5,153.25L195.5,153L195.75,152.75L195.75,152.5L196.5,151.25L196.75,151.25L197,150.25L197.25,149.75L197.5,149.5L197.5,149.25L197.75,149L198,148.5L198.25,148.25L198.5,147.25L198.75,146.75L199.25,145.5L199.5,145.25L199.5,144.75L199.75,144L200,143.5L200.25,142L200.5,141.5L200.5,141L200.75,140.75L200.75,139.75L201,138.5L201.25,138L201.25,136.75L201.5,136.5L201.5,132.75L201.75,132.25L201.75,132L201.5,131.75L201.5,127.75L201.25,127.5L201.25,127.25L201,126.25L201,125.75L200.75,125L200.75,123.5L200.5,123.5L200.5,123.25L200.25,122.25L200,121L200,120.75L199.75,120.25L199.75,120L199.5,119.75L199.5,119.5L199.25,119L198.75,117.75L198.75,117.5L198.5,117L198,116.25L198,116L197.75,115.75L197.75,115.5L197.5,115.25L197.25,114.75L197.25,114.5L197,114L196.25,112.75L196.25,112.5L195.75,112L195.75,111.75L195.5,111.5L195.5,111.25L194.5,110.25L194,109.5L193.75,109L193.75,108.75L193.5,108.75L193.25,108.25L193,108L193,107.75L191,105.75L191,105.5L190.5,105L190,104.75L189.5,104L189,103.75L188.75,103.5L188.25,103.25L188,103L188,102.75L187.75,102.5L187.5,102.5L187.25,102L186.75,101.75L184.5,100.25L184,100L183.5,99.5L183.25,99.5L180.75,98L179.75,97.5L180.25,96.25L180.25,96L180.5,95.5L180.5,95L180.75,94.75L180.75,94.25L181,94L181,93.75L181.25,92.5L182.5,88.5L186.25,92.5L187.25,93.75L187.25,94L187.5,94L187.5,94.25L188,94.5L188,94.75L189.25,96L189.25,96.25L191,98L192,99.5L192.25,99.5L192.5,100L194.5,102L194.75,102.5L195,102.5L195,103L195.5,103.25L196.25,104L196.75,104.75L197.5,105.5L197.5,105.75L199.5,107.75L199.5,108L199.75,108.25L200,108.75L200.25,108.75L200.5,109L200.75,109.5L202.5,111.25L202.5,111.5L203,111.75L203,112L205.5,114.5L205.5,114.75L206,115.25L206,115.5L208,117.5L208,117.75L209,119L209.25,119L209.5,119.5L210,119.75L210,120L211,121L212,122.25L213.25,123.5L213.25,123.75L213.5,124L213.75,124L213.75,124.25L214,124.5L214.25,125L217,127.75L217,128L217.5,128.25L217.75,128.5L218.25,129.25L219,130.25L219.25,130.5L219.5,131L220,131.25L220,131.75L220.25,132L220.25,134L220.5,134.5L220.5,135.25L220.75,135.5L221,136.25L221,136.5L221.25,136.5L221.25,137L221.5,137L221.5,137.25L224,139.75L224.25,139.75L225,140L226,140.5L226.5,140.5L226.75,140.75L227.75,141L229.75,141L230.75,140.75L231.25,140.5L231.75,140.5L232.5,140L233.25,139.75L234.75,138.5L235,138.5L235.25,138L236,137.25L236,137L242,137L242,138.5L242.25,139.75L242.25,140L242.5,140.5L242.5,141.5L242.75,141.5L242.75,142L243.25,143.5L243.5,144L243.75,144.75L243.75,145.5L244.5,146.75L244.75,147.25L245,148.25L245,148.5L245.25,149L245.5,149.25L245.5,149.5L245.75,149.75L246.5,151.25L247.25,152.5L247.5,152.75L247.5,153L247.75,153L247.75,153.25L248,153.75L248.25,154L249,155.25L249.25,155.25L249.75,156.25L250,156.25L250,156.5L250.25,156.5L250.25,156.75L250.75,157.5L251,157.5L251.5,158L251.5,158.25L252.5,159L252.5,159.25L253,159.75L254,160.5L254,160.75L254.25,161L255,161.5L255.5,162L255.75,162L255.75,162.25L256.25,162.5L256.25,162.75L259.25,164.75L259.75,165L263,167L263.5,167L267,168.5L267.5,168.75L271,169.75L271.5,170L271.75,170L275,170.5L275.75,170.5L276,170.75L284.25,170.75L284.25,170.5L285,170.5L288.5,170L288.75,170L289.25,169.75L292.75,168.75L293.25,168.5L296.5,167L297,167L300.5,165L301,164.75L304,162.75L304,162.5L304.5,162.25L304.5,162L304.75,162L305.75,161L306.25,160.75L306.25,160.5L307.25,159.75L307.75,159.25L307.75,159L308.5,158.25L308.5,158L309.25,157.5L310,156.75L310,156.5L310.25,156.25L310.5,156.25L311,155.25L312,154L312,153.75L312.5,153.25L312.5,153L312.75,153L312.75,152.5L313.5,151.25L313.75,151.25L314.25,150.25L314.25,149.75L314.75,149.25L314.75,149L315,148.5L315.25,148.25L315.5,147.25L315.75,146.75L316.25,145.5L316.5,145.5L316.5,144.75L316.75,144L317,143.5L317.25,142L317.5,141.5L317.5,141L317.75,140.75L317.75,139.75L318,138.5L318.25,138L318.25,136.5L318.5,136.5L318.5,133.25L318.75,133L318.75,132.75L318.5,132.25Z" style="fill:rgb(249,249,249);"/>
        <path d="M200.25,304L200,304.75L198.75,306L198,306.25L119,306.25L118.25,306L117,304.75L116.5,303.25L116.5,240.25L116.75,239.25L117,238.75L117.5,238L118.25,237.5L119.75,237L197,237L198,237.25L198.75,237.5L199.5,238L200,238.75L200.25,239.25L200.25,304ZM203.25,238.5L202.75,237L201.75,235.75L200.25,234.75L198.75,234L197,233.75L119.75,233.75L118.25,234L116.5,234.75L115.25,235.75L114.25,237L113.75,238.5L113.5,240.25L113.5,303.25L113.75,304.75L114.25,306.25L115.25,307.75L116.5,308.5L118.25,309.25L119.75,309.5L197,309.5L198.75,309.25L201.75,307.75L202.75,306.25L203.25,304.75L203.5,303.25L203.5,240.25L203.25,238.5Z" style="fill:white;"/>
        <path d="M217.5,581L217.25,581.75L216.75,582.5L215.25,583.5L131.5,583.5L130.75,583L130.25,582.5L129.25,581L129.25,516.5L130.25,515L130.75,514.75L131.5,514.25L215.25,514.25L216,514.75L216.75,515L217.25,515.75L217.5,516.5L217.5,581ZM220.5,515.75L220,514.25L218.75,512.75L217.5,512L216,511.25L214.5,511L132.25,511L130.75,511.25L129.25,512L128,512.75L127,514.25L126.25,515.75L126,517.25L126,580.25L126.25,582L127,583.5L128,584.75L129.25,585.75L130.75,586.5L132.25,586.75L214.5,586.75L216,586.5L217.5,585.75L218.75,584.75L220,583.5L220.5,582L220.75,580.25L220.75,517.25L220.5,515.75Z" style="fill:white;"/>
        <path d="M237,803.75L231.75,809L231.75,816.75L236.5,814L236.5,848L244.25,848L244.25,803.75L237,803.75Z" style="fill:white;"/>
        <path d="M279,832.25L278.75,830.75L278.25,829.75L276.75,827.25L275.75,826.5L274.75,825.5L273.75,824.75L275,824L275.75,822.75L276.75,821.75L278,819.25L278,818L278.25,816.5L278.25,814.25L278,812.75L277.75,811.5L277.25,810.25L275.75,807.75L274.75,806.75L274.75,806.5L273.5,805.75L272.25,804.75L270,803.5L268.5,803.25L267.25,803L262.75,803L261.25,803.25L260,803.5L258.5,804.25L257.25,805L256.75,805.5L255.5,806.25L254.5,807.25L253.75,808.5L253,809.5L252.25,811L252,811.75L259.25,814.25L259.75,812.75L260.5,811.75L261.5,810.75L262.75,810.25L264,810L265,810L266.5,810.25L267.75,810.75L269,811.75L270,812.75L270.5,814.25L270.75,815.5L270.75,815.75L270.5,817.25L270,818.5L269,819.75L268,820.5L266.5,821L265.25,821.25L263,821.25L263,828.5L265,828.5L266.5,828.75L267.75,829L269,829.75L269.75,830.5L270.5,831.5L271.25,832.75L271.5,834.25L271.75,835L271.5,836.5L271,838L270.25,839L269.75,839.75L268.75,840.75L267.25,841.25L266,841.75L263.5,841.75L261,840.75L260,840L259.25,839L258.5,837.75L258.25,837.25L251,839.75L251.5,841.25L252.25,842.25L253,843.5L254,844.75L255,845.5L256,846.5L257,847.25L258.5,848L259.75,848.25L261.25,848.75L262.5,848.75L264,849L265.5,849L268.5,848.75L269.75,848.25L271.25,848L272.25,847.25L273.5,846.5L274.75,845.5L275.25,845L276.25,843.75L277.25,842.75L278,841.5L278.5,840.25L279.25,837.5L279.25,833.5L279,832.25Z" style="fill:white;"/>
    </g>
</svg>
