<?xml version="1.0" encoding="UTF-8" standalone="no"?>
<!DOCTYPE svg PUBLIC "-//W3C//DTD SVG 1.1//EN" "http://www.w3.org/Graphics/SVG/1.1/DTD/svg11.dtd">
<svg width="100%" height="100%" viewBox="0 0 447 580" version="1.1" xmlns="http://www.w3.org/2000/svg" xmlns:xlink="http://www.w3.org/1999/xlink" xml:space="preserve" xmlns:serif="http://www.serif.com/" style="fill-rule:evenodd;clip-rule:evenodd;stroke-linejoin:round;stroke-miterlimit:2;">
    <g>
        <path d="M433.5,580L436.25,579.75L438.5,579L440.5,578L442.5,576.25L444,574.5L445.25,572.25L446,569.75L446.25,567.25L446.25,13L446,10.75L445.25,8.25L444,6L442.5,4.25L440.5,2.75L438.5,1.5L436.25,0.75L433.5,0.5L12.75,0.5L10.25,0.75L7.75,1.5L5.5,2.75L3.75,4.25L2,6L1,8.25L0.25,10.75L0,13L0,567.25L0.25,569.75L1,572.25L2,574.5L5.5,578L7.75,579L10.25,579.75L12.75,580L433.5,580Z" style="fill:white;fill-rule:nonzero;"/>
        <path d="M433.5,580L436.25,579.75L438.5,579L440.5,578L442.5,576.25L444,574.5L445.25,572.25L446,569.75L446.25,567.25L446.25,13L446,10.75L445.25,8.25L444,6L442.5,4.25L440.5,2.75L438.5,1.5L436.25,0.75L433.5,0.5L12.75,0.5L10.25,0.75L7.75,1.5L5.5,2.75L3.75,4.25L2,6L1,8.25L0.25,10.75L0,13L0,567.25L0.25,569.75L1,572.25L2,574.5L5.5,578L7.75,579L10.25,579.75L12.75,580L433.5,580Z" style="fill:none;"/>
        <path d="M433.25,329.75L432,328.5L430.5,328L15.75,328L14.25,328.5L13,329.75L12.75,331.25L12.75,564.25L13,565.75L14.25,567L15.75,567.25L430.5,567.25L432,567L433.25,565.75L433.5,564.25L433.5,331.25L433.25,329.75Z" style="fill:rgb(179,7,56);"/>
        <path d="M433.25,14.75L432,13.5L430.5,13L15.75,13L14.25,13.5L13,14.75L12.75,16.25L12.75,312.25L13,314L14.25,315L15.75,315.5L430.5,315.5L432,315L433.25,314L433.5,312.25L433.5,16.25L433.25,14.75Z" style="fill:rgb(179,7,56);"/>
        <path d="M311.5,121.5L311.25,121.75L311.25,125L311,125.25L311,126L310.75,127L310.75,127.5L310.5,128.5L310.5,129L310.25,129.25L310.25,129.75L310,130L310,130.75L309,132.75L308.75,133.75L308.5,133.75L308.5,134.25L308.25,134.5L307.5,135.75L307.5,136L307,137L306.75,137.25L306.5,137.75L306,138.25L305.75,138.75L305.5,139L304.75,140L304.5,140.25L303.5,141.5L303.25,141.5L303,141.75L303,142L302.25,142.75L302,142.75L300.5,144.25L299.5,145L299,145.5L298.75,145.5L297.75,146.25L297.5,146.5L294.5,148L294.25,148L294,148.25L293.25,148.5L293.25,148.75L293,148.75L291.25,149.5L291,149.5L289.75,149.75L287.5,150.25L286.25,150.5L283.5,151L279.25,151L277.5,150.5L275.5,150.25L273.75,149.75L272,149.5L270.25,148.75L270,148.75L270,148.5L269,148.25L268.75,148L268.5,148L267,147L266.75,147L265.5,146.5L265.5,146.25L264.5,145.5L264.25,145.5L264,145L263.75,145L262.75,144.25L261.25,142.75L261,142.75L259.75,141.5L258.75,140.25L258.5,140L257.75,139L257.5,138.75L257.25,138.25L256.75,137.75L256.5,137.25L256.5,137L255.75,136L255.5,135.75L255,134.5L255,134.25L254.75,134.25L254.75,133.75L254.5,133.75L254.25,132.75L254,132.25L253.5,130.75L253.5,130.5L253.25,130.25L253.25,129.75L253,129.5L253,129L252.75,128.75L252.75,128.5L252.5,127.5L252.5,127L252.25,126L256.25,126L262.75,125.75L272.5,125.75L281.25,126L281.75,126L282.25,125.75L283.25,125.75L283.75,125.5L284,125.25L284.25,125.25L285.75,123.75L286.25,122.75L286.5,122.5L286.5,120.25L286,119.25L285.5,118L285.25,117.5L285.25,117.25L285,116.75L284.75,116.75L284.75,116.5L283.75,114.5L283.5,113.75L283.25,113.25L283.25,112.75L283,112.5L283,112.25L282.75,112L282.25,111L281.75,109.75L281.5,109.5L281.5,109L281.25,108.75L281.25,108.5L280.75,108L280.75,107.75L280.25,106.5L280,105.75L279.5,105L279.5,104.75L279.25,104.5L278.75,103.5L278.5,102.75L277.75,101.25L277.75,101L277.5,100.75L277.5,100.25L277.25,100.25L276.75,99L276.5,98.25L276.25,97.75L276,97.5L276,97L275.75,96.75L275.5,96.25L275.5,96L275.25,95.75L274.75,94.75L274.75,94.5L274.5,94.5L274.5,93.75L274.25,93.5L274,93L274,92.75L273.75,92.5L275.5,92L277,91.75L277.25,91.75L278,91.5L279.5,91.5L280.75,91.25L284.5,91.5L285.25,91.5L285.75,91.75L286.25,91.75L288,92L289.25,92.5L290,92.75L291.5,93L292.75,93.5L293.5,93.75L293.5,94L294.5,94.25L294.75,94.5L295,94.5L295.5,94.75L297,95.75L298,96L298,96.25L298.75,96.75L299,97L299.75,97.5L300,97.75L300.75,98.25L302.75,100.25L303.25,100.5L304,101.25L304.25,101.75L305,102.75L305.5,103.5L305.75,103.5L306.25,104.5L306.75,105L307.25,105.75L307.5,106.5L308.25,107.75L308.25,108L308.75,108.5L308.75,109L309,109L309,109.5L309.25,109.75L309.75,111L310,112L310.25,112.25L310.25,113L310.5,113.25L310.5,114.5L310.75,115L311,116L311,116.75L311.25,117.25L311.25,119.75L311.5,120.25L311.5,121.5ZM251.75,97L251.25,97.5L251.25,97.75L251,97.75L250.75,98.25L250.25,99L249.5,100.25L249.25,100.25L249.25,100.5L248.75,101L248.75,101.25L248.5,101.75L247.75,102.75L247.5,103.5L247,104.5L246.75,104.75L246.75,105L246.25,105.75L246.25,106.5L246,106.5L245.5,107.75L245.5,108L245.25,108.25L245.25,108.75L245,109L245,109.75L244.5,111L244.25,112L244.25,112.5L244,112.75L244,113.75L243.75,114.5L243.75,115L243.5,116L243.5,116.5L239.25,116.5L239.25,116L239.75,115L239.75,114.5L240,113.75L240.25,113.25L240.25,112.75L240.5,112.5L240.5,112L241,111L241.25,109.75L241.25,109.5L241.5,109L241.5,108.5L241.75,108.25L241.75,107.75L242.25,106.5L242.75,105L242.75,104.5L243,104.5L243,104L243.25,103.5L243.5,102.75L243.75,101.75L243.75,101.25L244,101L244,100.5L244.25,100.25L244.5,99L244.75,98.25L244.75,97.75L245,97.75L245,97L245.25,96.75L245.25,96.25L245.5,96L245.5,95.75L245.75,94.75L246,94.5L246,94L246.25,93.75L246.25,93.5L246.5,93L246.5,92.5L246.75,92L246.75,91.5L247,91.5L247,90.75L247.5,89L247.5,88.75L247.75,88.5L247.75,88.25L248.25,86.75L248.25,86.5L248.75,85.25L248.75,85L249,84.5L249.25,83.75L249.25,83.5L249.5,83L249.5,82.5L250,81.5L251.25,77.5L252.75,72L253.5,70.25L254.25,72L256.5,77.5L259,82.5L259,82.75L259.25,82.75L259.25,83L259.5,83.5L259.5,83.75L259.75,84.5L260,85L260.25,85.25L260.75,86.5L260.75,86.75L261,86.75L261.75,88.25L261.25,88.5L261,88.75L260.5,89L258,90.75L257.5,91.25L257.25,91.25L257.25,91.5L257,91.5L257,91.75L256.75,91.75L256.5,92L256.25,92.5L256,92.75L255.5,93L254.75,93.5L254.5,93.75L254.5,94L254,94.5L253.75,94.5L253.5,94.75L253,95.75L252.5,96L251.75,96.75L251.75,97ZM238.75,86.5L238.5,86.75L238.25,88.25L238.25,88.5L238,88.75L238,89L237.5,90.75L237.25,91L237.25,91.5L237,91.75L237,92L236.75,92.5L236.75,93L236.5,93.5L236.5,94L236.25,94.25L236.25,94.5L236,94.75L235.75,95.75L235.75,96.25L235.5,96.75L235.5,97L235.25,97.5L235.25,97.75L235,98.25L234.75,99L234.5,100.25L234.5,100.5L234.25,100.75L234.25,101.25L234,101.75L233.75,102.75L233.5,103.5L233.25,104L233.25,104.5L233,104.5L233,105L232.5,106.5L232.25,107.75L232.25,108L232,108.25L232,108.5L231.75,108.75L231.75,109L231.5,109.5L231.5,109.75L231.25,111L230.75,112L230.75,112.25L229.5,112.5L229,112.5L227.5,112.75L227.25,112.5L227.25,112.25L226,111L225,109.75L224,108.75L224,108.5L223.25,107.75L222.25,106.5L222,106.5L221.5,105.75L220.5,104.75L220.5,104.5L220.25,104.5L220,104L219.5,103.5L219,102.75L217.75,101.75L217.5,101.25L217.5,101L216.75,100.25L216.5,100.25L215.5,99L215,98.25L214.25,97.5L214,97L213,96L212.5,95.75L212,94.75L211.5,94.5L211.5,94.25L209.75,92.5L209.5,92L208.5,91L208.5,90.75L207,89L206.75,88.75L206.25,88.5L206.25,88.25L205,86.75L204.75,86.75L204.5,86.5L203.5,85.25L202.75,84.5L202.5,83.75L202.25,83.75L202,83.5L201.75,83L201.5,83L201.5,82.75L201.25,82.75L201.25,82.5L200.25,81.5L196.75,77.5L192.25,72L190.5,70.25L187.5,66.75L188,64.75L194.25,66.75L205.25,70.25L211.25,72L227.5,77.5L240.25,81.5L240,82.5L239.75,82.75L239.75,83.5L239.5,83.75L239.25,84.5L239.25,85L239,85.25L238.75,86.5ZM262.5,98.25L263.25,97.75L263.5,97.5L264.25,97L264.5,96.75L265.25,96.25L265.5,96.75L265.5,97L265.75,97.5L266,97.75L266.25,98.25L266.5,99L267,100.25L267.25,100.25L267.25,100.75L267.75,101.25L267.75,101.75L268.5,102.75L268.5,103.5L269,104.5L269.25,104.75L269.25,105L269.75,105.75L270,106.5L270.5,107.75L270.75,108L270.75,108.25L271,108.5L271,108.75L271.25,109L271.5,109.5L271.5,109.75L272,111L272.5,112L272.75,112.25L272.75,112.5L273,112.75L273,113.25L273.25,113.75L273.75,114.5L274.5,116L274.5,116.5L252.25,116.5L252.25,116L252.5,115L252.5,114.5L252.75,113.75L253,113.25L253,112.75L253.25,112.5L253.25,112L253.5,111L254,109.75L254,109.5L254.25,109L254.5,108.75L254.5,108.5L255,108L255,107.75L255.75,106.5L256,105.75L256.5,105L256.75,104.75L256.75,104.5L257,104.5L257.5,103.5L258,102.75L259.25,101.75L259.5,101.25L259.5,101L260,100.5L260.5,100.25L262.5,98.25ZM182,96.75L182.75,97.5L183.25,97.75L184,98.25L184.75,99L185.75,100.25L186,100.25L187.5,101.75L188.25,102.75L188.75,103.5L189,104L190,105L190.5,106.5L190.75,106.5L191.25,107.75L191.5,108L191.5,108.25L191.75,108.5L191.75,108.75L192,109L192.25,109.5L192.25,109.75L192.75,111L193.25,112L193.25,112.5L193.5,112.75L193.5,113.75L193.75,114.5L193.75,115L194,116L194,116.5L194.25,116.75L194.25,117.5L194.5,118L194.5,123.25L194.25,123.75L194.25,125.75L194,125.75L194,127L193.75,127.25L193.75,127.5L193.5,128.5L193.5,129.5L193.25,129.5L193.25,130.25L193,130.25L193,130.75L192.25,132.25L192.25,132.75L191.5,134.25L191.5,134.5L190.75,135.75L190.5,136L190,137L189.75,137.25L189.25,138.25L189,138.25L188.75,138.75L188.5,139L187.75,140L187.5,140.25L186.5,141.5L185.25,142.75L185,142.75L184,144L183.5,144.25L182.5,145L182.25,145L182,145.5L181.75,145.5L180.75,146.5L179.5,147L179.25,147L177.75,148L177.5,148L177.25,148.25L176.25,148.5L176.25,148.75L176,148.75L174.5,149.5L174.25,149.5L172.5,149.75L170.75,150.25L169,150.5L167.25,151L162.75,151L160,150.5L158.75,150.25L156.5,149.75L155.25,149.5L155,149.5L153.25,148.75L153,148.75L153,148.5L152.25,148.25L151.75,148L150,147L149.75,147L148.75,146.5L148.5,146.25L147.5,145.5L147.25,145.5L146.75,145L145.75,144.25L144.25,142.75L144,142.75L143.25,142L143.25,141.75L143,141.5L142.75,141.5L141.75,140.25L141.5,140L140.75,139L140.5,138.75L140.25,138.25L139.75,137.75L139.5,137.25L139.5,137L139,136L138.75,135.75L138,134.5L137.75,134.25L137.5,133.75L137.25,132.75L137,132.25L136.5,130.75L136.25,130.5L136.25,129.75L136,129.5L136,129L135.75,128.75L135.75,128.5L135.5,127.5L135.5,127L135.25,126L135.25,125.25L135,125L135,123.75L134.75,123.25L134.75,119.25L135,118L135,117.25L135.25,116.75L135.25,116L135.5,115L135.5,114.5L135.75,113.75L136,113.25L136,112.5L136.25,112.25L136.25,112L136.5,111L137,109.75L137,109.5L137.25,109L137.5,108.75L137.5,108.5L138,108L138,107.75L138.75,106.5L139,105.75L139.5,105L139.5,104.75L139.75,104.5L140,104.5L140.5,103.5L141,102.75L142.5,101.25L142.5,101L143.25,100.25L144.75,99L146,97.75L146.5,97.5L147,97L147.5,96.75L148.25,96.25L148.5,96L149,95.75L150.5,94.75L151.25,94.5L151.5,94.5L151.75,94.25L152.25,94L152.5,93.75L154.75,93L155.75,92.75L158,92L159.25,91.75L160,91.75L160.25,91.5L161.25,91.5L162.5,91.25L167,91.25L168,91.5L169,91.5L169.5,91.75L170,91.75L170,92L169.75,92.5L169.75,93L169.5,93.5L169.5,94.25L169.25,94.5L169.25,94.75L169,95.75L168.75,96L168.75,96.25L168.5,96.75L168.5,97L168.25,97.5L168.25,97.75L168,98.25L167.75,99L167.5,100.25L167.25,100.5L167.25,101L167,101.25L167,101.75L166.5,102.75L166.5,104L166.25,104.5L166,104.75L166,105L165.5,106.5L165.25,107.75L165,108L165,108.25L164.75,108.5L164.75,109L164.5,109.5L164.5,109.75L164,111L163.5,112L163.5,112.75L163.25,113L163.25,113.25L163,113.75L162.75,114.5L161.75,116.5L161.75,116.75L161.5,116.75L161.25,117.25L161.25,117.5L161,118L160.5,119.25L160.5,119.75L160.25,120.25L160.25,122.5L160.5,122.75L160.5,123.25L161.5,124.25L161.5,124.5L162.25,125L162.5,125.25L162.75,125.25L163,125.5L164,125.75L165.5,125.75L166.25,125.5L166.5,125.25L166.75,125.25L167,125L167.75,124.5L168.25,124L168.25,123.75L168.75,123.25L169,122.75L169.5,122.5L169.5,121.75L170,121.25L170,120.75L170.25,120.5L170.25,120.25L170.75,119.25L171.25,118L171.5,117.5L171.5,117.25L171.75,116.75L172,116.5L172,116L172.5,115L172.5,114.5L172.75,113.75L173,113.25L173,113L173.25,113L173.25,112.25L173.5,112L173.75,111L174.25,109.75L174.25,109.5L174.5,109L174.5,108.5L174.75,108.25L174.75,108L175,107.75L175.25,106.5L175.5,105.75L175.5,105L175.75,104.75L175.75,104.5L176.25,103.5L176.25,102.75L176.75,101.75L176.75,101.25L177,101L177,100.5L177.25,100.25L177.5,99L177.75,98.25L178,97.75L178,97.5L178.25,97L178.25,96.75L178.5,96.25L178.5,95.75L178.75,94.75L180.25,95.75L181,96L181.25,96.25L182,96.75ZM320,119.75L320,116.75L319.75,116.5L319.75,116L319.5,115L319.5,113L319.25,113L319.25,112L318.75,111L318.5,109.75L318.5,109.5L318.25,109L318.25,108.75L318,108.5L318,108.25L317.75,108L317.75,107.75L317.25,106.5L316.75,105L316.5,104.75L316.5,104.5L316.25,104.5L316.25,104L316,103.5L315.75,103.5L315.5,102.75L314.75,101.25L314.25,100.75L314.25,100.5L314,100.25L313.75,100.25L313.25,99L312.75,98.25L312,97.5L311.75,97L310.5,95.75L309.75,94.75L309.25,94.25L308.75,94L308.75,93.75L308.5,93.5L307.75,93L306.5,91.75L306.5,91.5L306.25,91.5L306,91.25L305.5,91L305.25,90.75L303,89L301.5,88.25L299.25,86.75L298.5,86.75L298.25,86.5L295.5,85.25L294.75,85L293,84.5L291.25,83.75L290.25,83.75L289,83.5L288.75,83.5L287,83L285.25,83L284,82.75L278.5,82.75L277.75,83L276.75,83L273,83.75L272.25,83.75L270,84.5L269.75,83.75L269.5,83.5L269.5,83L269.25,83L269.25,82.5L266.75,77.5L264.5,72L263.5,70.25L262,66.75L261,64.75L257.5,56.75L258,55.5L260,48L265.75,48L267.25,47.5L268.5,46.5L269,45.25L269.25,45.25L269.25,45L269.5,44.5L269.5,42L269.25,41.75L269,41L268.5,40.5L268,39.75L267.75,39.5L266.75,39L266.75,38.75L266,38.75L265.5,38.5L245.5,38.5L244.25,38.75L244,38.75L243.75,39L243,39.5L242.5,39.75L242,40.5L241.5,41L241.5,41.75L241.25,42L241.25,42.5L241,43.25L241,44L241.5,45L241.5,45.25L242,46.5L242.25,46.5L243.25,47.5L243.5,47.5L244.75,48L250.5,48L248.25,55.5L247.75,56.75L245.25,64.75L244.75,66.75L243.75,70.25L243,72L237,70.25L226.25,66.75L220,64.75L195.75,56.75L190.75,55.5L193,48L193.25,47.5L193.5,46.5L193.75,45.25L194,45L194,44.5L194.5,44L194.5,43.75L195,43.5L195.25,43.5L196.25,43.25L205.75,43.25L207,42.5L208,42L208.25,41.75L208.75,41L209,40.75L209,40.5L209.25,39.75L209.25,39.5L209.5,39L209.5,37.5L209.25,37.25L208.75,36L208.5,35.75L208,35L207.75,34.75L206.75,34L206.25,34L205.25,33.75L191,33.75L189.5,34L188.25,34.75L187.25,35.75L187.25,36L186.75,37.25L186.5,37.5L186.25,38.5L186.25,38.75L186,39L186,39.5L185.75,39.75L185.75,40.5L185.5,40.75L185.5,41L185.25,41.75L185.25,42L185,42.25L185,42.5L184.75,43.25L184.75,43.5L184.5,43.75L184.5,44.5L184.25,45L184.25,45.25L184,46.5L183.75,46.5L183.5,47.5L183.5,48L183.25,48L181.25,55.5L180.75,56.75L178.25,64.75L177.75,66.75L176.5,70.25L176,72L174.5,77.5L173.25,81.5L172.75,82.5L172.75,83L172.5,83.5L170.25,83L169.25,83L168.75,82.75L166.5,82.75L164,82.5L162.75,82.75L161,82.75L159.75,83L159,83L157.25,83.5L157,83.5L155.5,83.75L155,83.75L153,84.5L151.5,85L151,85.25L148,86.5L147.5,86.75L147,86.75L144.5,88.25L144.25,88.5L143.25,89L141,90.75L140.75,91L140.25,91.25L140,91.5L139.75,91.5L139.75,91.75L138.5,93L137.75,93.5L137,94.25L137,94.5L136.75,94.5L136.5,94.75L136,95.75L135.5,96L134.5,97L134.25,97.5L133.5,98.25L133.25,99L132.5,100.25L132.25,100.25L132,100.5L132,100.75L131.5,101.25L131.5,101.75L130.75,102.75L130.5,103.5L130,104.5L129.75,104.75L129.75,105L129.25,105.75L129,106.5L128.5,107.75L128.5,108L128.25,108.25L128.25,108.5L128,108.75L128,109.5L127.75,109.75L127.5,111L127.25,112L127.25,112.5L127,112.75L127,113.75L126.75,114.5L126.75,115L126.5,116L126.5,116.75L126.25,117.25L126.25,124.5L126.5,125L126.5,126L126.75,127L126.75,127.5L127,128.5L127,129.5L127.25,129.5L127.25,130.5L127.5,130.75L127.75,132.25L128,132.75L128.25,133.75L128.5,134.25L128.5,134.5L129,135.75L129.25,136L129.75,137L129.75,137.25L130.5,138.75L130.5,139L131,140L131.25,140.25L132,141.5L132.25,141.75L132.25,142L132.75,142.75L133,142.75L133.75,144L134,144.25L134.5,145L134.75,145.5L136.25,147L137,148L137.25,148L137.25,148.25L137.75,148.5L137.75,148.75L138.5,149.5L138.75,149.5L139.25,149.75L139.5,150.25L139.75,150.25L140,150.5L140.25,151L140.5,151L141,151.5L144,153.5L144.5,154L147.75,155.75L148.25,156L148.5,156L151.75,157.5L152.25,157.5L152.5,157.75L156,158.75L156.75,158.75L160.25,159.25L160.5,159.5L162,159.5L165,159.75L167.25,159.5L168.25,159.5L169.25,159.25L172.5,158.75L173.5,158.75L177,157.75L177,157.5L177.75,157.5L181,156L181.5,155.75L184.75,154L185.25,153.5L188.25,151.5L188.5,151.5L189,151L189.25,151L189.5,150.5L190.25,149.75L190.75,149.5L191.5,148.75L191.75,148.75L191.75,148.5L193.75,146.5L193.75,146.25L194.5,145.5L194.75,145L195,145L195.5,144.25L195.75,144L196.5,142.75L197,142L197.25,141.75L197.25,141.5L197.5,141.5L198.25,140.25L198.25,140L198.75,139L199,138.75L199.5,137.75L199.5,137.25L199.75,137L200,136L200.25,135.75L200.75,134.5L201,134.25L201,133.75L201.25,133.75L201.5,132.75L201.5,132.25L202,130.75L202,130.5L202.25,130.25L202.25,129.5L202.5,129.5L202.5,127.25L202.75,127L202.75,125.75L203,125.75L203,122.75L203.25,122.5L203.25,119.75L203,119.25L203,116.5L202.75,116L202.75,115L202.5,114.5L202.5,113L202.25,112.75L202.25,112L202,111L201.5,109.75L201.5,109.5L201.25,109L201.25,108.5L201,108.25L201,108L200.75,107.75L200.25,106.5L199.75,105L199.5,104.75L199.5,104.5L199,103.5L198.5,102.75L197.75,101.25L197.5,101L197.5,100.75L197,100.25L196.25,99L195.75,98.25L195,97.5L194.75,97L194,96.25L194,96L193.5,95.75L192.75,94.75L192,94L192,93.75L191.5,93.5L191,93L190.5,92.75L190.5,92.5L190,92L189.5,91.75L189.5,91.5L189.25,91.5L189.25,91.25L189,91.25L188.75,91L188.25,90.75L186,89L185.5,88.75L185.25,88.5L184.75,88.25L182.25,86.75L181.75,86.75L181.5,86.5L181.75,85.25L181.75,85L182,84.5L182.25,83.75L182.25,83.5L182.5,83L182.5,82.5L183,81.5L184.25,77.5L187.75,81.5L188.75,82.5L188.75,82.75L189,82.75L189,83L190.5,84.5L190.75,85L191,85.25L192,86.5L192.25,86.75L192.5,86.75L193.75,88.25L193.75,88.5L196,90.75L196,91L196.5,91.25L196.5,91.75L196.75,91.75L197,92L197.25,92.5L199,94.25L199,94.5L199.25,94.5L199.5,94.75L200,95.75L200.5,96L200.75,96.25L201,96.75L201.5,97L201.75,97.5L202.5,98.25L203,99L204,100.25L204.25,100.25L205.25,101.25L205.5,101.75L206.5,102.75L207,103.5L207.5,104L207.75,104.5L208,104.5L208.5,105L209.5,106.5L209.75,106.5L210.75,107.75L211.5,108.5L211.5,108.75L211.75,109L212,109L212.25,109.5L212.5,109.75L213.5,111L214.75,112.25L214.75,112.5L216.75,114.5L217,115L218,116L218.25,116.5L219.75,118L220.75,119.25L221.25,119.75L221.5,120.25L221.75,120.25L221.75,122.75L222,123.25L222,123.75L222.25,124L222.25,124.5L222.5,125L222.75,125.25L222.75,125.5L223.25,126L223.75,127L224.25,127.25L224.25,127.5L225.75,128.5L226,128.75L226.5,129L227.5,129.25L227.75,129.5L228.25,129.5L229.5,129.75L231.25,129.75L232.5,129.5L233.25,129.5L233.25,129.25L234.25,129L235,128.75L235,128.5L236.5,127.5L236.5,127.25L236.75,127L237.5,126L243.5,126L243.5,127L243.75,127.25L243.75,127.5L244,128.5L244,129.5L244.25,129.75L244.25,130.5L244.5,130.75L244.75,132.25L245,132.75L245.25,133.75L245.25,134.25L245.5,134.25L245.5,134.5L246,135.75L246.25,136L246.5,137L246.75,137.25L247,137.75L247,138.25L247.25,138.25L247.5,138.75L247.5,139L248,140L248.25,140.25L249,141.5L249,141.75L249.25,142L249.75,142.75L250.75,144L250.75,144.25L251.25,145L251.5,145L251.75,145.5L252.5,146.25L252.5,146.5L253.25,147L254,148L254.5,148.5L254.5,148.75L254.75,148.75L255.5,149.5L256,149.75L256.75,150.5L257,151L257.5,151L257.75,151.5L261,153.5L261.25,154L261.5,154L264.75,155.75L265,156L265.25,156L268.5,157.5L269,157.5L269,157.75L272.5,158.75L273.25,158.75L276.75,159.25L277,159.5L277.5,159.5L280,159.75L283.25,159.75L286,159.5L286.25,159.5L286.5,159.25L290,158.75L290.75,158.75L294.25,157.75L294.25,157.5L294.75,157.5L298.25,156L298.75,155.75L302,154L302.5,153.5L305.5,151.5L306,151L306.25,151L306.5,150.5L306.75,150.25L307.5,149.75L307.75,149.5L308.75,148.75L308.75,148.5L311,146.25L311.5,145.5L311.75,145.5L311.75,145L312,145L312.5,144.25L312.75,144L313.5,142.75L314,142L314.25,142L314.25,141.5L314.5,141.5L315.25,140.25L315.25,140L315.75,139L316,138.75L316.5,137.75L316.5,137.25L316.75,137L317.25,136L317.25,135.75L318,134.5L318,133.75L318.5,132.75L318.5,132.25L319,130.75L319.25,130.5L319.25,129.25L319.5,129L319.5,127.5L319.75,127.25L319.75,127L320,126L320,122.75L320.25,122.5L320.25,120.25L320,119.75Z" style="fill:rgb(249,249,249);"/>
        <path d="M199,221.75L193,227.75L193,236.5L198.25,233.5L198.25,272.25L207.25,272.25L207.25,221.75L199,221.75Z" style="fill:white;"/>
        <path d="M223.25,254.5L237,233.5L237,254.75L223.25,254.5ZM245.75,254.75L245.75,221.75L234.75,221.75L213.25,254.75L213.25,262.75L237,262.75L237,272.25L245.75,272.25L245.75,262.75L249.75,262.75L249.75,254.75L245.75,254.75Z" style="fill:white;"/>
        <path d="M274.75,284L274.5,284.75L274,285.5L273.25,286.25L272.25,286.5L271.5,286.75L174.75,286.75L174,286.5L173,286.25L172.25,285.5L171.25,284L171.25,210L172.25,208.5L173,208L174,207.5L272.25,207.5L273.25,208L274,208.5L274.5,209.25L274.75,210L275,211L275,283L274.75,284ZM278.25,209.25L277.5,207.5L276.5,206L275,204.75L273.25,204L271.5,203.75L174.75,203.75L173,204L171.25,204.75L169.75,206L168.5,207.5L167.75,209.25L167.5,211L167.5,283L167.75,284.75L168.5,286.75L169.75,288L171.25,289.25L173,290L174.75,290.25L271.5,290.25L273.25,290L275,289.25L276.5,288L277.5,286.75L278.25,284.75L278.5,283L278.5,211L278.25,209.25Z" style="fill:white;"/>
        <path d="M69.75,376.75L69.25,374.25L68,372L67.5,371.5L67,370.75L64.5,368.5L62.25,367.25L61.25,366.75L60,366.25L57,365.5L52.5,364.5L52.25,364.25L49.75,363.25L49.25,362.75L48.25,362L47.5,361.25L47,358.75L47,358.25L47.25,357L47.75,356L48.5,355.25L50.5,353.75L50.75,353.75L52,353.5L53,353.25L55.75,353L56.5,353.25L58,353.25L59,353.5L60.25,353.75L62.5,354.75L64.5,356.25L69,350.5L68.5,350.25L66.5,348.75L65.25,348.25L63.25,347.25L60.75,346.5L59.5,346.25L58.5,346.25L57,346L54.5,346L53.25,346.25L52,346.25L50.75,346.5L48.5,347.25L47.25,347.75L45.25,348.75L44,349.5L43.25,350.25L42.25,351L41.5,352L40.5,354L40.25,355L39.75,357.5L39.75,361L40.25,362.25L40.5,363.25L41,364.5L41.5,365.5L44,368L45,368.75L45.25,368.75L46.5,369.5L47.5,370L48.75,370.5L49.75,371L51,371.25L55.5,372.25L56.25,372.5L57.5,373L59,373.5L59.75,374L60.75,374.75L61.5,375.5L62,376.5L62.25,377.5L62.5,378.75L62.25,380.25L61,382.75L60.25,383.25L58.25,384.25L57,384.5L55.5,384.75L52.5,384.75L48.75,384L47.75,383.75L46.5,383.25L43.25,381.5L42.25,380.75L37.75,386L38.75,386.75L40,387.5L40.75,388.25L43,389.5L44.25,389.75L45.25,390.25L46.5,390.75L47.5,391L51.25,391.75L54.5,391.75L57.5,391.5L61.25,390.75L64.25,389.25L65,388.75L66,388L66.75,387L67.5,386.25L67.75,385.75L69,383.75L69.5,382.5L70,380L70,377.75L69.75,376.75Z" style="fill:white;"/>
        <path d="M94.75,383.75L94.5,383.75L93.75,384.5L92.5,385L91.5,385.25L90.25,385.5L88.75,385.75L88,385.5L86.5,385.5L84.5,384.5L83.5,383.75L82.75,383L82.25,382L82.25,379.75L82.5,378.75L83.5,377.75L84.25,377.25L85.25,376.75L86.5,376.5L94.75,376.5L94.75,383.75ZM100.75,366.25L100.5,365.25L100,364.25L99.25,363L98.25,362.25L97.75,361.5L95.75,360L94.5,359.5L93.5,359.25L92.25,358.75L91.25,358.75L89.75,358.5L87,358.5L85.5,358.75L84.5,358.75L82,359.25L77,360.5L79.25,366.5L80,366L82.5,365.5L83.5,365.25L85,365L87.25,364.75L90.25,364.75L91.5,365L92.5,365.5L93.5,366.25L94.25,367.25L94.75,369.75L94.75,371.25L85.25,371.25L82.75,371.75L81.75,372L80.5,372.5L79.5,373.25L78.75,374.25L78.25,374.5L76.75,376.25L76.5,377.5L76,378.5L75.75,379.75L75.75,382.5L76,383.75L76.5,384.75L76.75,385.75L77.25,386.75L78,387.75L79,388.5L79.75,389.25L81,389.75L81.25,390L82.5,390.5L83.5,391L87.25,391.75L90.25,391.75L91.5,391.5L92.5,391L93.75,390.5L94.75,389.75L94.75,391L101.25,391L101.25,367.5L100.75,366.25Z" style="fill:white;"/>
        <path d="M136.5,367.25L135.75,364.75L135.25,363.75L134.5,362.75L133.5,362L133.5,361.75L132.75,361L131.75,360.25L129.5,359.25L128.25,359L127.25,358.75L124.5,358.75L122,359.25L121,359.75L119.75,360L118,361.5L118,359.5L111.25,359.5L111.25,391L118,391L118,369.5L118.25,368.5L118.75,367.5L119.5,366.5L120.5,365.75L121.5,365.25L124,364.75L126.5,365.25L127.5,365.75L128.5,366.5L129.25,367.5L129.75,368.5L130.25,371L130.25,391L136.75,391L136.75,368.5L136.5,367.25Z" style="fill:white;"/>
        <path d="M164,380.75L163.5,381.75L163.25,382.75L162.25,383.75L160.25,385.25L157.75,385.75L155.25,385.25L154.25,384.5L153.75,384.25L152.75,383.5L152,382.5L151.5,381.25L151.5,380.75L150.75,377L150.75,374L151,372.75L151,371.5L151.25,370.25L151.5,369.75L151.75,368.5L153.25,366.5L154.75,365.5L156,365L157.25,364.75L159,364.75L160.25,365.25L161.25,365.75L162.25,366.5L163,367.5L163.5,368.75L164,369.75L164,380.75ZM164,347L164,360.75L163.25,360L160.75,359L159.75,358.75L156.75,358.75L153,359.5L151,360.5L149.75,361.25L149.5,361.75L148.5,362.5L147.75,363.25L145.5,366.25L145.25,367.5L144.75,368.75L144.75,369.25L144.25,371.75L144.25,372.75L144,374.25L144,375.25L144.25,376.5L144.25,379L144.5,380.25L144.75,381.25L145,382.5L145.5,383.75L146.5,385.75L147.25,386.75L148.25,387.5L149,388.5L149.5,388.75L151.5,390.25L152.75,390.75L153.75,391.25L156.25,391.75L159.5,391.75L160.5,391.5L163,390.5L164,389.75L164,391L170.75,391L170.75,347L164,347Z" style="fill:white;"/>
        <path d="M207.25,366L206.75,364.75L206,363.75L205.5,362.75L203.75,361L202.5,360.25L201.75,359.75L200.5,359.25L199.5,359L198,358.75L195.5,358.75L193,359.25L190.75,360L188.75,361.5L188.75,359.5L182.25,359.5L182.25,391L188.75,391L188.75,371L189,369.5L189.25,368.5L189.75,367.5L190.5,366.5L191.5,365.75L192.5,365.25L195,364.75L196.5,365L197.5,365.25L198.5,365.75L199.5,366.5L200.25,367.5L200.75,368.5L201.25,371L201.25,391L207.75,391L207.75,368.5L207.25,366Z" style="fill:white;"/>
        <path d="M222,371.25L222.25,370.25L222.75,369L223.75,367L225.25,365.5L227.25,365L228.5,364.75L228.75,364.75L229.75,365L232.25,366L233.25,367L234,368L234.5,369L234.75,370.25L235,371.25L222,371.25ZM241.75,373.25L241.75,372L241.5,371L241.25,369.5L241,368.25L240.5,367.25L240,366L238.75,363.75L238.25,362.75L236.25,361.25L235.5,360.5L233.5,359.5L229.75,358.75L226.25,358.75L225,359L223.75,359.5L222.75,359.75L221.5,360.5L220.5,361.25L218,363.75L217,365.75L216,368.25L215.75,369L215.25,371.5L215.25,372.75L215,374L215,377.25L216,382.25L216.25,383.25L216.75,384.5L217.5,385.5L218,386.5L219.75,388.5L220.5,389.25L221.5,389.75L223.5,391L227.25,391.75L230,391.75L232.5,391.25L233.5,390.75L234.75,390.25L235.75,389.75L236,389.5L238,388L239.75,386.25L240.5,385.25L241,384L235.5,381.25L235.25,381.5L234.5,382.75L233.75,383.75L233,384.25L232,385L231,385.25L228.5,385.75L228.25,385.75L227,385.5L226,385L224.75,384.5L224.75,384.25L224,383.75L223.5,383L223,382L222.5,380.75L222,379.75L221.75,378.25L221.5,376.5L241.75,376.5L242,375.25L242,374.5L241.75,373.25Z" style="fill:white;"/>
        <path d="M273,379.75L272.5,378.5L272,377.75L271.5,376.75L270.75,375.75L269.75,375L268.5,374.5L268,374.25L267,373.5L264.5,372.75L264.25,372.75L259,371.25L258,371L257,370.25L256.5,369.25L256.5,367.25L257,366.5L257.75,365.75L259,365.25L260.5,365L261.75,364.75L262.25,364.75L263.25,365L265.75,365.5L266.75,366L267.75,366.75L268.25,367.25L272.5,362.5L270.5,361L269.25,360.25L268.25,359.75L267.25,359.5L263.5,358.75L259.5,358.75L258.25,359.25L257,359.5L256,359.75L253.75,361L253,361.5L252.25,362.5L251.25,363.25L250.75,364.25L250.25,365.5L250,366.5L249.75,367.75L249.75,369.5L250,370.75L250.5,371.75L250.75,372.75L251.5,373.75L253,375.25L255.25,376.5L256.5,377L256.75,377L263,378.75L265,379.75L266,380.5L266.5,381.25L266.75,382.25L266.5,383.25L266.25,383.75L265.5,384.5L264.75,385L263.5,385.5L260.5,385.75L258.25,385.5L255.75,384.75L254.75,384.25L253.5,383.75L252.75,383L252,382.5L248,387L249,388L250,388.75L252.25,389.75L254.25,390.75L255.5,391.25L258,391.75L263.25,391.75L264.5,391.5L267,390.75L269,389.75L269.25,389.5L271.25,388L272.75,385L273.25,382.5L273.25,380.75L273,379.75Z" style="fill:white;"/>
        <path d="M323,347L317.75,352.25L317.75,359.75L322.5,357L322.5,391L330.25,391L330.25,347L323,347Z" style="fill:white;"/>
        <path d="M368.25,375.25L367.75,374L367.5,372.5L366,370.5L365,369.25L364,368.5L362.75,367.75L364,366.75L365,365.75L365.75,364.75L366.5,363.5L367.5,361L367.5,357.25L367.25,356L367,354.5L366.5,353.25L365.75,352L364.75,350.75L364,349.75L363.75,349.75L362.75,348.75L361.5,347.75L360.5,347.25L357.75,346.25L356.25,346L351.75,346L350.25,346.25L346.5,347.75L345.75,348.25L343.5,350.25L342,352.75L341.5,354L341.25,354.75L348.5,357L349,355.75L349.75,354.75L350.75,353.75L353.25,353.25L355.5,353.25L357,353.75L358,354.5L358.25,354.75L359,356L359.5,357L359.75,358.5L359.75,360.25L358.25,362.75L357,363.5L355.75,364L354.5,364.25L352.25,364.25L352.25,371.5L354.25,371.5L355.5,371.75L357,372L358.25,372.75L358.75,373.5L359.75,374.5L360.5,375.75L360.75,377.25L360.75,379.5L360.25,380.75L359.5,382L357.75,383.75L356.5,384.25L355.25,384.5L354.25,384.75L352.75,384.5L351.5,384.25L350.25,383.75L349.25,383L348.5,382L347.75,380.75L347.5,380.25L340.25,382.75L340.5,384L341.25,385.5L342.25,386.75L343,387.5L344,388.75L346.5,390.25L347.5,390.75L349,391.25L350.25,391.75L351.75,392L356.25,392L357.75,391.75L361.5,390.25L362.75,389.5L363.75,388.5L364.5,388L365.5,386.75L366.5,385.75L368,382L368.5,379L368.5,376.5L368.25,375.25Z" style="fill:white;"/>
        <path d="M381.5,386.75L380.75,385.75L380.75,385.5L379.75,384.5L378.5,383.75L375.5,383.75L374.25,384.25L373.5,385L372.5,386.25L372,387.5L372,388.5L372.25,389.75L373,390.75L374.25,391.25L375,391.25L376.25,391L376.5,390.75L377,392L377,392.25L376.75,393.5L376.25,394.25L375,395L374.25,395L374.25,397.5L375.75,397.5L378.25,396.5L379.5,395.75L379.75,395.25L380.75,394.25L381.75,391.75L382,390.25L382,388.25L381.5,386.75Z" style="fill:white;"/>
        <path d="M406.75,374.5L406.5,373.5L406,372.25L405.5,371.25L404.75,370.25L404.25,369.25L403.5,368.5L400.5,366.25L399.25,365.75L398,365.5L397,365.25L393.75,365.25L392.5,365.5L391.25,366L391,366.25L391,359.5L406.25,359.5L406.25,353.25L384.25,353.25L384.25,371.25L390,373L391.25,372.25L392.25,371.75L393.5,371.5L394.5,371.5L394.75,371.25L397.25,371.75L399.25,373.25L399.75,374.5L400.25,375.25L400.5,376.75L400.5,380L400.25,381.25L400,382.25L399.25,383.25L398.75,384L398.25,384.5L397.25,385.25L394.75,385.75L393.75,385.75L392.5,385.5L391.25,385L390.25,384.5L388.25,383L387.5,382.25L383,386.75L384.75,388.5L385.75,389.25L386.75,389.75L388,390.25L389,390.75L390.25,391.25L391.25,391.5L392.5,391.75L396.25,391.75L398.5,391.25L400.75,390.25L401.75,389.75L402.5,389.25L403.5,388.5L405.75,385.5L406.75,382.5L407,381.25L407.25,378.75L407.25,377L406.75,374.5Z" style="fill:white;"/>
        <path d="M65,422.5L37.75,422.5L37.75,466.5L45.25,466.5L45.25,447L59.75,447L59.75,440.25L45.25,440.25L45.25,429.5L65,429.5L65,422.5Z" style="fill:white;"/>
        <path d="M79.75,461.25L78.75,461L77.5,460.5L76.5,460L75,458.5L74.5,457.5L74,456.25L73.75,455.25L73.5,453.75L73.5,452.5L73.25,450.75L73.25,450L73.5,448.75L73.5,447.5L74,445L74.75,443.5L75.5,442.5L76.5,441.75L76.75,441.25L78,440.75L79.25,440.5L81,440.5L82.25,440.75L83.25,441L84.25,441.75L85.5,443L86.25,444L86.75,445L86.75,446L87.25,447L87.25,448.25L87.5,449.75L87.5,452.75L86.75,456.5L86.5,457L86,458.25L84,460.25L82.75,460.75L81.75,461.25L79.75,461.25ZM93.75,447L93.25,444.25L92.25,441.75L91.25,439.75L90.5,438.75L89.5,437.75L87.5,436.25L86.25,435.5L85.25,435L82.75,434.5L81.75,434.25L79,434.25L76.5,434.75L75.25,435.25L73.25,436.25L72.25,437L72,437.25L71,438L69.5,440L68.75,440.75L67.75,443.25L67.5,444.25L67.5,444.5L66.75,448.25L66.75,452.25L67,453.5L67,454.75L67.5,457.25L67.5,457.5L67.75,458.75L68.25,459.75L69,461L69.5,461.75L71.25,463.75L72.25,464.5L72.25,464.75L73.25,465.25L74.25,466L75.5,466.5L76.5,467L77.75,467.25L79.25,467.25L80.25,467.5L80.5,467.5L82,467.25L83,467.25L84.25,466.75L85.5,466.5L86.5,466L87.5,465.25L88.5,464.75L88.75,464.5L89.75,463.75L91.25,461.75L91.75,460.75L92.5,459.5L93,458.5L93.25,457.25L93.25,457L93.75,455.75L93.75,454.5L94.25,452L94.25,449.5L93.75,447Z" style="fill:white;"/>
        <path d="M120.75,434.75L118.25,434.25L116.25,434.25L112.5,435L110.5,436L109.5,436.75L109.5,435.25L103,435.25L103,466.5L109.5,466.5L109.5,445.5L110,444.25L110.5,443.25L112.5,441.25L113.75,440.75L114.75,440.5L116.75,440.5L118,440.75L119,441L121.5,435.25L120.75,434.75Z" style="fill:white;"/>
        <path d="M143.75,435L143.75,456.25L142.75,458.75L142,459.5L141,460.25L139,461.25L136.5,461.25L135.25,460.75L134.25,460.25L132.5,458.5L132,457.5L131.5,456.25L131.5,435L124.75,435L124.75,456.25L125,457.75L125.25,458.75L125.5,460L126,461.25L126.5,462.25L128,464.25L130,465.75L131,466.25L132.25,466.75L133.25,467.25L134.5,467.25L135.75,467.5L136,467.5L137.25,467.25L138.5,467.25L139.5,466.75L140.75,466.5L142,465.75L142.75,465.25L143.75,464.5L143.75,466.5L150.5,466.5L150.5,435L143.75,435Z" style="fill:white;"/>
        <path d="M184.25,455.25L183.25,453.25L182.5,452.25L181.75,451.5L181,450.5L179.75,450L178.25,449.25L175.75,448.25L175.5,448.25L170,446.75L169.25,446.5L168.25,446L167.75,445L167.5,443.75L167.75,443L168.25,442L169,441.25L170,440.75L171.75,440.5L174.5,440.5L175.75,440.75L176.75,441L178,441.5L179,442.25L179.5,442.75L183.5,438L181.5,436.5L180.5,436L179.25,435.5L178.5,435L174.75,434.25L171.75,434.25L170.5,434.5L169.5,434.75L168.25,435L167,435.5L165,436.75L164.25,437.25L163.25,438L162.5,439L161.5,441L161,442.25L161,443.5L160.75,444L161.25,446.5L161.5,447.25L162,448.5L164.25,450.75L165.25,451.5L167.75,452.5L168,452.75L174.25,454.5L175.25,454.75L176.25,455.25L177.25,456L177.75,457L178,457.75L177.75,458.75L177.5,459.5L176.75,460.25L175.75,460.75L174.75,461L173.25,461.25L170.5,461.25L169.25,461L168.25,460.75L167,460.25L166,459.75L164.75,459.25L163.75,458.5L163.25,458L159.25,462.75L161.25,464.25L162.25,464.75L163.25,465.5L164.5,466L165.5,466.5L169.25,467.25L170.25,467.5L173.25,467.5L175.75,467L178.25,466.25L180.25,465.25L180.5,465L181.5,464.5L183,462.5L183.5,461.75L184,460.5L184.25,459.25L184.5,458.25L184.5,456.5L184.25,455.25Z" style="fill:white;"/>
        <path d="M350.25,460.25L349,460L347.75,459.25L346.5,458.75L345.75,457.75L345,456.5L344.5,455.25L344.5,452.5L345,451L345.75,449.75L346.5,448.75L347.5,448L349,447.5L350.25,447.25L351.75,447L353,447.25L354.5,447.5L355.75,448L357,448.75L358,449.75L358.5,450.75L359,452.25L359,455.25L358,457.75L357,458.75L356,459.25L354.75,460L353.25,460.25L350.25,460.25ZM349.75,439.75L348.5,439.25L347.25,438.5L347,438.25L346.25,437.25L345.75,435.75L345.5,434.5L345.5,433.75L345.75,432.25L346.5,431.25L347.25,430L347.75,429.75L350.25,428.75L354,428.75L355.25,429.25L356.25,430.25L356.75,430.5L357.5,431.5L358,432.75L358,434.75L357.75,436.25L357.25,437.5L356.25,438.5L354.75,439.25L353.25,439.75L349.75,439.75ZM366.5,451L366,449.75L365.5,448.25L365,447.25L363.25,445L362.25,444L361,443.25L361.5,442.75L362.75,441.75L363.75,440.75L364.5,439.75L365.5,437.25L365.75,435.75L365.75,433.5L365.5,432L365.25,430.75L364.5,428L362.75,425.75L361.75,425L361.25,424.5L358.75,423L357.75,422.5L356.25,422L355,421.75L353.25,421.5L351,421.5L348,422L346.75,422.25L344.25,423.25L343,424L342,424.75L340.5,426.25L339,428.75L338,431.25L337.75,432.75L337.75,435L338,436.5L339.5,440.25L340.5,441.25L341.25,442.5L342.5,443.25L341.5,444L338.5,447L337,450.75L336.75,452.25L336.75,455.5L337,456.75L337.5,458.25L337.75,459.5L338.5,460.75L339.25,461.75L341.25,464L342.25,464.75L343.5,465.5L347.25,467L350.25,467.5L353.5,467.5L356.25,467L359,466L360.25,465.5L361.5,464.75L362.5,464L362.5,463.75L364.5,461.75L365,460.5L365.75,459.25L366.25,458L366.5,456.75L366.75,455.25L366.75,452.5L366.5,451Z" style="fill:white;"/>
        <path d="M380.25,463.75L379.25,461.25L378,460L376.75,459.5L375.5,459.25L373.75,459.25L372.75,460L371.75,460.5L370.75,461.75L370.5,463L370.5,464.25L370.75,465.5L371.5,466.5L372.75,467L373.5,467L374.75,466.5L375,466.25L375.5,467.75L375.25,469L374.75,469.75L373.5,470.5L372.75,470.75L372.5,470.75L372.5,473.25L375.5,472.75L376.5,472L377.75,471.25L379.25,469.75L380.25,467.25L380.5,465.75L380.5,465.25L380.25,463.75Z" style="fill:white;"/>
        <path d="M400.75,444.5L400.5,445.5L399.5,446.5L398.75,447L397.75,447.75L395.25,448.25L394.25,448L393,447.75L392,447.25L391,446.5L390.25,445.75L389.75,444.5L389.25,443.5L389.25,439L389.75,437.75L390.25,436.75L391,435.75L391.75,435L392.75,434.5L395.25,434L396.25,434.25L397.5,434.5L398.5,435L399.5,435.75L400.25,436.75L401.25,438.75L401.25,443.25L400.75,444.5ZM408.25,442.5L408.25,441.25L407.5,437.75L407.5,437.5L407.25,436.5L406.75,435.25L406.25,434.25L404.75,432.25L403,430.5L401.25,429.25L400.25,428.75L396.5,428L394,428L391.5,428.5L390.5,428.75L389.25,429.25L386.25,431.5L386.25,431.75L385.5,432.5L384.75,433.5L384,434.75L383.5,435.75L383.25,436.75L382.75,438L382.75,443.25L383.25,445.5L383.5,446.75L384.75,448.75L385.5,449.75L387.25,451.5L388.5,452.25L389.25,452.75L390.5,453.25L392.75,454L394,454.25L396.75,454.25L397.75,454L399,453.5L400,452.75L401,452.25L400.75,453L400.5,454.25L399,458L398.5,458.75L397,460.25L396,460.75L394.75,461.25L392.5,461.25L391.5,460.75L390.25,460.25L389.25,459.5L385.25,464.5L385.5,464.75L386.5,465.25L387.5,466L388.5,466.5L389.75,467L391,467.25L392,467.25L393.5,467.5L396,467.25L398.25,466.5L399.5,466L402.5,463.75L403.5,462.75L404,461.75L404.75,460.75L405.5,459.5L407.25,454.25L408.25,449.25L408.25,448L408.5,446.75L408.5,443.75L408.25,442.5Z" style="fill:white;"/>
        <path d="M62.5,498L62.5,515.75L45.25,515.75L45.25,498L37.75,498L37.75,542.25L45.25,542.25L45.25,522.75L62.5,522.75L62.5,542.25L70.25,542.25L70.25,498L62.5,498Z" style="fill:white;"/>
        <rect x="81.5" y="510.5" width="6.5" height="31.75" style="fill:white;fill-rule:nonzero;"/>
        <path d="M84.75,497.25L83.5,497.5L82.5,498L82.25,498.25L81.5,499.25L81,500.5L81,501L81.25,502.25L81.75,503.25L82.25,503.75L83,504.25L84.25,504.5L84.75,504.75L86,504.5L87,503.75L87.5,503.75L88.25,502.5L88.5,501.5L88.5,501L88.25,499.75L87.5,498.25L86.5,497.75L85.25,497.25L84.75,497.25Z" style="fill:white;"/>
        <rect x="98.5" y="498" width="6.75" height="44.25" style="fill:white;fill-rule:nonzero;"/>
        <rect x="116.25" y="498" width="6.5" height="44.25" style="fill:white;fill-rule:nonzero;"/>
        <path d="M138.25,522.5L138.5,521.5L139.5,519L140,518.25L140.75,517.25L141.5,516.75L142.5,516.25L143.5,516L146,516L147.25,516.5L148.5,517.25L150.25,519L150.75,520.25L151,521.5L151.25,522.5L138.25,522.5ZM158.25,526.5L158,525.75L158,523.25L157.5,520.75L157.25,519.25L156.75,518.5L155.75,516L155,515L154.5,514L153.5,513L152.5,512.5L151.75,511.75L149.75,510.75L147.25,510L146,509.75L143.5,509.75L142.5,510L140,510.5L139,511L137.75,511.75L136.75,512.5L136,513L135.25,514L134.25,514.75L133.75,515.75L133.25,517L132.25,519.25L132,520.25L131.5,522.75L131.25,525L131.25,528.5L131.5,529.75L131.75,530.75L132,532.25L132.25,533.5L132.5,534.5L133,535.75L133.5,536.75L135,538.75L136,539.5L136.75,540.25L137.75,541L138.75,541.5L141,542.5L142.25,542.75L143.5,542.75L144.75,543L145,543L147.5,542.75L149.75,542L151,541.5L152,540.75L152.25,540.75L154.25,539.25L156,537.25L156.5,536.5L157.25,535.25L151.5,532.5L151.5,532.75L150,534.75L149.25,535.5L148.25,536.25L147.25,536.5L146,536.75L143.25,536.75L142.25,536.25L141,535.75L141,535.5L140.25,535L139.5,534L139.25,533.25L138.25,530.75L137.75,527.75L158,527.75L158.25,526.5Z" style="fill:white;"/>
        <path d="M185.5,510.5L178.25,533.25L171,510.5L164,510.5L174.25,542.25L182.25,542.25L192.5,510.5L185.5,510.5Z" style="fill:white;"/>
        <path d="M216,534.75L215.75,535L214.75,535.5L213.5,536.25L212.5,536.5L211.25,536.75L208,536.75L206.75,536.5L205.75,536L205.5,535.75L204.5,535.25L203.75,534.25L203.5,533.25L203.25,532L203.25,531L203.75,530L204.5,529L205.25,528.25L206.25,527.75L216,527.75L216,534.75ZM222,517.75L221.5,516.5L220.5,514.5L218,512L217,511.25L214.75,510.25L212.25,509.75L208,509.75L205.5,510L203,510.5L202,510.75L200.75,511L198.25,512L200.25,517.75L200.75,517.5L202,517L203.25,516.75L205.5,516.25L206.75,516L211.5,516L212.5,516.25L213.75,516.75L214.5,517.5L215.25,518.5L215.75,519.5L216,521L216,522.5L205.25,522.5L204,522.75L202.75,523.25L201.75,523.75L199.75,525.25L199.5,525.5L198.75,526.5L198,527.75L197.5,528.75L197.25,529.75L196.75,532.25L197,533.75L197.25,534.75L197.5,536L198.5,538L199.25,539L200,539.75L201,540.5L202.25,541L202.25,541.25L204.75,542.25L205.75,542.5L207,542.75L209.5,543L210,543L211.25,542.75L212.5,542.75L213.75,542.25L214.75,541.75L216,541.25L216,542L222.5,542L222.5,520L222,517.75Z" style="fill:white;"/>
        <path d="M206.75,499.75L206.25,500.75L206.25,502.25L206.5,503.5L206.75,504.5L207.75,505.5L208.5,506.5L211,507L211.25,507L212.25,506.75L213.5,506.5L214.5,505.5L215.25,504.5L211,504.25L210.75,504.25L209.75,504L209,503.5L208.75,502.25L208.75,501.5L209.5,500.5L209.75,500.25L211,499.75L206.75,499.75Z" style="fill:white;"/>
        <path d="M211,497.25L208.5,497.75L207.75,498.75L207.5,498.75L206.75,499.75L211.25,499.75L212.25,500.25L213,500.75L213.25,502.25L212.75,503.5L212,504L211,504.25L215.25,504.5L215.75,503.5L215.75,502L215.5,500.75L215,499.5L214.5,498.5L214.25,498.5L213.25,497.75L212.25,497.5L211,497.25Z" style="fill:white;"/>
        <path d="M250.5,533.25L250,534.25L249.25,535.25L248.25,536.25L247.25,536.75L246,537L244.25,537L241.75,536.5L240.25,535.25L239.5,534.5L238.75,533.5L238.5,532.25L238.25,531.5L238,530.5L238,529L237.75,526.75L237.75,524.75L238.5,521L238.5,520.5L239,519.25L240.75,517.5L241.25,517.25L242.25,516.5L243.5,516.25L246,516.25L247.25,516.75L248.25,517.25L249.25,518L250.25,519L250.75,520L251,521.25L251,532L250.5,533.25ZM251,510.75L251,512L250,511.25L247.5,510.25L246.5,510L243.25,510L242,510.25L240.75,510.75L239.75,511L237.5,512.25L236.5,513L234.25,515.25L233.5,516.25L232.5,518.25L232,519.5L231.75,520.75L231.5,521.5L231.5,522.75L231.25,524L231.25,525.25L231,526.5L231.25,527.75L231.25,530.25L232.25,534.25L232.75,535.5L233.25,536.5L235.5,539.5L236.5,540.25L237,540.5L238,541.25L239,541.75L240.25,542.25L241.25,542.75L242.5,543L243.75,543L245,543.25L245.5,543.25L246.75,543L247.75,542.75L249,542.5L250.25,541.75L251,541L251,544.75L250.75,545.75L250.25,547L249.5,548L248.5,548.75L247.5,549.25L246.25,549.5L241.75,549.5L238.25,548.75L237,548.25L235.75,548L234.5,547.5L232,553L232.75,553.25L235.25,554.25L236.25,554.75L237.5,554.75L238.75,555.25L240,555.25L242.5,555.75L246.5,555.75L249,555.25L250,554.75L252.25,553.75L253.25,553L254,552L255,551L255.75,550L256.5,548.75L257.25,546.75L257.75,544.25L257.75,510.75L251,510.75Z" style="fill:white;"/>
        <path d="M364.75,523L364.5,521.75L364,520.25L363.25,519L361.75,517L359.75,515L357.25,513.5L354.75,512.5L351.75,512L351,512L348,512.5L346.75,513L346.5,513.25L346.5,505.25L364.25,505.25L364.25,498L338.5,498L338.5,519.25L345.25,521L346.5,520.25L347.75,519.75L349.25,519.25L352.5,519.25L353.75,519.75L355,520.5L356,521.75L356.75,522.75L357.25,524L357.75,527L357.75,527.5L357.5,529.25L357.25,530.75L356.25,533.25L355,534.5L353.5,535.25L352.25,535.75L351,536L349.5,536L348,535.75L345.5,534.75L344.25,533.75L343.25,533L342.5,532L337,537L338,538.25L339.25,539.25L340.5,540L342.75,541.5L345.5,542.5L346.75,542.75L348.25,543L351,543L353.75,542.75L355.25,542.5L356.5,542L358,541.5L359,540.5L359.75,540L361,539.25L361.75,538L362.75,537L364.25,534.5L364.5,533.25L364.75,532.25L365,530.75L365.25,529.5L365.25,526L364.75,523Z" style="fill:white;"/>
        <path d="M380.25,539.5L379.75,538L379.25,536.75L378,535.75L376.75,535L375.5,534.75L375.25,534.75L373.75,535L372.75,535.5L371.75,536.25L370.75,537.25L370.5,538.75L370.5,539.75L370.75,541L371.5,542L372.75,542.5L373.5,542.5L374.75,542.25L375,542L375.5,543.25L375.25,544.75L374.75,545.5L373.5,546L372.75,546.25L372.5,546.25L372.5,548.75L374,548.75L375.5,548.25L376.5,547.75L377.75,546.75L378.25,546.5L379.25,545.5L379.75,544L380.25,542.75L380.5,541.5L380.5,541L380.25,539.5Z" style="fill:white;"/>
        <path d="M394.75,536.75L393.75,536.5L392.5,536L391.5,535L391,534.25L390.5,533.25L390,532L390,527.75L390.25,526.5L391.75,524.5L392.5,523.75L394.5,522.75L397,522.75L398,523.25L399.25,523.75L400.25,524.5L400.75,525.25L401.5,526.25L402,528.75L402,530.75L401.75,531.75L401.5,533L401,534L400.25,535L399.5,535.75L398.25,536.5L397.25,536.75L394.75,536.75ZM408.25,527.75L408.25,526.75L408,525.5L407.5,524.25L406.5,522.25L405.75,521.25L404.75,520.25L403,518.75L401.75,518L400.75,517.5L399.75,517.25L398.5,516.75L397.25,516.75L396,516.5L395.75,516.5L393.25,517L391.25,518L390.25,518.75L390.5,517.75L390.75,516.5L392.25,513L392.5,512.5L393.5,511.5L394.25,510.5L395.25,510L396.25,509.75L398.5,509.75L399.75,510L400.75,510.5L401.75,511.5L405.75,506.25L404.75,505.5L402.5,504.25L401.25,504L400.25,503.75L399,503.75L397.75,503.5L396.5,503.75L395.25,503.75L394,504L392.75,504.5L391.75,505L389.5,506.5L388.5,507L386.25,510L385.75,511.25L385.5,512L384.5,514.25L383.75,516.75L382.75,521.75L382.75,528.5L383,529.75L383,531L383.25,532.25L383.75,533.5L384,534.25L384.25,535.5L385.5,537.75L386.25,538.75L388.25,540.25L388.75,541L390,541.5L391,542L392.25,542.5L393.5,542.75L394.5,542.75L396,543L397.25,542.75L398.5,542.75L399.75,542.5L400.75,542L402,541.5L403,541L405.75,538.25L406.5,537.25L407.5,535.25L408,534L408.25,533L408.25,531.75L408.5,530.5L408.5,529L408.25,527.75Z" style="fill:white;"/>
    </g>
</svg>
