<?xml version="1.0" encoding="UTF-8" standalone="no"?>
<!DOCTYPE svg PUBLIC "-//W3C//DTD SVG 1.1//EN" "http://www.w3.org/Graphics/SVG/1.1/DTD/svg11.dtd">
<svg width="100%" height="100%" viewBox="0 0 596 596" version="1.1" xmlns="http://www.w3.org/2000/svg" xmlns:xlink="http://www.w3.org/1999/xlink" xml:space="preserve" xmlns:serif="http://www.serif.com/" style="fill-rule:evenodd;clip-rule:evenodd;stroke-linecap:round;stroke-linejoin:round;stroke-miterlimit:2;">
    <g>
        <path d="M59.81,595.647L535.465,595.647C551.234,595.647 566.356,589.382 577.507,578.232C588.657,567.081 594.922,551.958 594.922,536.19L594.922,60.536C594.922,44.767 588.657,29.644 577.507,18.494C566.356,7.344 551.234,1.079 535.465,1.079L59.81,1.079C44.042,1.079 28.918,7.344 17.768,18.494C6.618,29.644 0.354,44.767 0.354,60.536L0.354,536.19C0.354,551.958 6.618,567.081 17.768,578.232C28.918,589.382 44.042,595.647 59.81,595.647Z" style="fill:rgb(0,64,128);fill-rule:nonzero;"/>
        <path d="M59.81,595.647L535.465,595.647C551.234,595.647 566.356,589.382 577.507,578.232C588.657,567.081 594.922,551.958 594.922,536.19L594.922,60.536C594.922,44.767 588.657,29.644 577.507,18.494C566.356,7.344 551.234,1.079 535.465,1.079L59.81,1.079C44.042,1.079 28.918,7.344 17.768,18.494C6.618,29.644 0.354,44.767 0.354,60.536L0.354,536.19C0.354,551.958 6.618,567.081 17.768,578.232C28.918,589.382 44.042,595.647 59.81,595.647Z" style="fill:none;stroke:rgb(0,104,178);stroke-width:0.71px;"/>
        <path d="M162.937,426.229L431.909,426.229L431.909,466.11L437.24,483.714C452.402,491.818 470.609,491.818 485.771,483.714L491.103,466.11L491.103,426.229L515.516,426.229L517.302,424.495L517.302,392.985L515.516,391.25L79.331,391.25L77.543,392.985L77.543,424.495L79.331,426.229L103.744,426.229L103.744,466.11L109.075,483.714C124.237,491.818 142.444,491.818 157.606,483.714L162.937,466.11L162.937,426.229Z" style="fill:white;fill-rule:nonzero;"/>
        <path d="M162.937,426.229L431.909,426.229L431.909,466.11L437.24,483.714C452.402,491.818 470.609,491.818 485.771,483.714L491.103,466.11L491.103,426.229L515.516,426.229L517.302,424.495L517.302,392.985L515.516,391.25L79.331,391.25L77.543,392.985L77.543,424.495L79.331,426.229L103.744,426.229L103.744,466.11L109.075,483.714C124.237,491.818 142.444,491.818 157.606,483.714L162.937,466.11L162.937,426.229Z" style="fill:none;stroke:white;stroke-width:0.71px;"/>
        <path d="M517.732,308.775L517.732,376.064L517.732,308.775C514.003,292.058 503.421,277.675 488.57,269.14L442.078,121.528C394.405,112.769 346.1,107.888 297.638,106.933C249.176,107.888 200.871,112.769 153.197,121.528L106.705,269.14C91.854,277.675 81.272,292.058 77.543,308.775L77.543,376.064L79.331,377.798L515.945,377.798L517.732,376.064L517.732,308.775Z" style="fill:white;fill-rule:nonzero;"/>
        <path d="M517.732,308.775L517.732,376.064L517.732,308.775C514.003,292.058 503.421,277.675 488.57,269.14L442.078,121.528C394.405,112.769 346.1,107.888 297.638,106.933C249.176,107.888 200.871,112.769 153.197,121.528L106.705,269.14C91.854,277.675 81.272,292.058 77.543,308.775L77.543,376.064L79.331,377.798L515.945,377.798L517.732,376.064L517.732,308.775Z" style="fill:none;stroke:white;stroke-width:0.71px;"/>
        <path d="M488.635,320.068C488.635,304.837 476.287,292.49 461.056,292.49C445.824,292.49 433.477,304.837 433.477,320.068C433.477,335.3 445.824,347.648 461.056,347.648C476.287,347.648 488.635,335.3 488.635,320.068Z" style="fill:rgb(0,64,128);fill-rule:nonzero;"/>
        <path d="M488.635,320.068C488.635,304.837 476.287,292.49 461.056,292.49C445.824,292.49 433.477,304.837 433.477,320.068C433.477,335.3 445.824,347.648 461.056,347.648C476.287,347.648 488.635,335.3 488.635,320.068Z" style="fill:none;stroke:rgb(0,64,128);stroke-width:0.71px;"/>
        <path d="M399.88,348.176L399.88,307.065C332.841,289.572 262.435,289.572 195.396,307.065L195.396,348.176L399.88,348.176Z" style="fill:rgb(0,64,128);fill-rule:nonzero;"/>
        <path d="M399.88,348.176L399.88,307.065C332.841,289.572 262.435,289.572 195.396,307.065L195.396,348.176L399.88,348.176Z" style="fill:none;stroke:rgb(0,64,128);stroke-width:0.71px;"/>
        <path d="M161.369,320.068C161.369,304.837 149.021,292.49 133.791,292.49C118.559,292.49 106.211,304.837 106.211,320.068C106.211,335.3 118.559,347.648 133.791,347.648C149.021,347.648 161.369,335.3 161.369,320.068Z" style="fill:rgb(0,64,128);fill-rule:nonzero;"/>
        <path d="M161.369,320.068C161.369,304.837 149.021,292.49 133.791,292.49C118.559,292.49 106.211,304.837 106.211,320.068C106.211,335.3 118.559,347.648 133.791,347.648C149.021,347.648 161.369,335.3 161.369,320.068Z" style="fill:none;stroke:rgb(0,64,128);stroke-width:0.71px;"/>
        <path d="M297.638,153.585C257.627,154.135 217.687,157.067 178.026,162.364L149.198,255.448C196.829,238.488 247.08,230.071 297.638,230.585C348.195,230.071 398.446,238.488 446.078,255.448L417.249,162.364C377.589,157.067 337.647,154.135 297.638,153.585Z" style="fill:rgb(0,64,128);fill-rule:nonzero;"/>
        <path d="M297.638,153.585C257.627,154.135 217.687,157.067 178.026,162.364L149.198,255.448C196.829,238.488 247.08,230.071 297.638,230.585C348.195,230.071 398.446,238.488 446.078,255.448L417.249,162.364C377.589,157.067 337.647,154.135 297.638,153.585Z" style="fill:none;stroke:rgb(0,64,128);stroke-width:0.71px;"/>
    </g>
</svg>
