<?xml version="1.0" encoding="UTF-8" standalone="no"?>
<!DOCTYPE svg PUBLIC "-//W3C//DTD SVG 1.1//EN" "http://www.w3.org/Graphics/SVG/1.1/DTD/svg11.dtd">
<svg width="100%" height="100%" viewBox="0 0 596 596" version="1.1" xmlns="http://www.w3.org/2000/svg" xmlns:xlink="http://www.w3.org/1999/xlink" xml:space="preserve" xmlns:serif="http://www.serif.com/" style="fill-rule:evenodd;clip-rule:evenodd;stroke-linecap:round;stroke-linejoin:round;stroke-miterlimit:2;">
    <g>
        <path d="M59.81,595.647L535.465,595.647C551.234,595.647 566.356,589.382 577.507,578.232C588.657,567.081 594.922,551.958 594.922,536.19L594.922,60.536C594.922,44.767 588.657,29.644 577.507,18.494C566.356,7.344 551.234,1.079 535.465,1.079L59.81,1.079C44.042,1.079 28.918,7.344 17.768,18.494C6.618,29.644 0.354,44.767 0.354,60.536L0.354,536.19C0.354,551.958 6.618,567.081 17.768,578.232C28.918,589.382 44.042,595.647 59.81,595.647Z" style="fill:rgb(0,64,128);fill-rule:nonzero;"/>
        <path d="M59.81,595.647L535.465,595.647C551.234,595.647 566.356,589.382 577.507,578.232C588.657,567.081 594.922,551.958 594.922,536.19L594.922,60.536C594.922,44.767 588.657,29.644 577.507,18.494C566.356,7.344 551.234,1.079 535.465,1.079L59.81,1.079C44.042,1.079 28.918,7.344 17.768,18.494C6.618,29.644 0.354,44.767 0.354,60.536L0.354,536.19C0.354,551.958 6.618,567.081 17.768,578.232C28.918,589.382 44.042,595.647 59.81,595.647Z" style="fill:none;stroke:rgb(0,104,178);stroke-width:0.71px;"/>
        <path d="M547.005,298.363C547.005,160.641 435.359,48.996 297.638,48.996C159.917,48.996 48.271,160.641 48.271,298.363C48.271,436.084 159.917,547.73 297.638,547.73C435.359,547.73 547.005,436.084 547.005,298.363Z" style="fill:white;fill-rule:nonzero;"/>
        <path d="M547.005,298.363C547.005,160.641 435.359,48.996 297.638,48.996C159.917,48.996 48.271,160.641 48.271,298.363C48.271,436.084 159.917,547.73 297.638,547.73C435.359,547.73 547.005,436.084 547.005,298.363Z" style="fill:none;stroke:white;stroke-width:0.71px;"/>
        <path d="M289.926,430.381L221.968,316.654L194.355,351.169L194.355,430.381L149.47,430.381L149.47,166.345L194.355,166.345L194.355,279.317L284.733,166.345L342.216,166.345L251.9,279.239L342.216,430.381L289.926,430.381Z" style="fill:rgb(35,31,32);fill-rule:nonzero;"/>
        <path d="M289.926,430.381L221.968,316.654L194.355,351.169L194.355,430.381L149.47,430.381L149.47,166.345L194.355,166.345L194.355,279.317L284.733,166.345L342.216,166.345L251.9,279.239L342.216,430.381L289.926,430.381Z" style="fill:none;stroke:rgb(35,31,32);stroke-width:0.71px;"/>
        <path d="M479.546,241.784L464.938,277.593C452.662,271.504 438.11,272.193 426.464,279.416C414.817,286.639 407.733,299.37 407.733,313.074L407.733,430.381L368.128,430.381L368.128,241.784L407.733,241.784L407.733,252.408C427.94,236.031 455.463,231.959 479.546,241.784Z" style="fill:rgb(35,31,32);fill-rule:nonzero;"/>
        <path d="M479.546,241.784L464.938,277.593C452.662,271.504 438.11,272.193 426.464,279.416C414.817,286.639 407.733,299.37 407.733,313.074L407.733,430.381L368.128,430.381L368.128,241.784L407.733,241.784L407.733,252.408C427.94,236.031 455.463,231.959 479.546,241.784Z" style="fill:none;stroke:rgb(35,31,32);stroke-width:0.71px;"/>
    </g>
</svg>
