<?xml version="1.0" encoding="UTF-8" standalone="no"?>
<!DOCTYPE svg PUBLIC "-//W3C//DTD SVG 1.1//EN" "http://www.w3.org/Graphics/SVG/1.1/DTD/svg11.dtd">
<svg width="100%" height="100%" viewBox="0 0 596 596" version="1.1" xmlns="http://www.w3.org/2000/svg" xmlns:xlink="http://www.w3.org/1999/xlink" xml:space="preserve" xmlns:serif="http://www.serif.com/" style="fill-rule:evenodd;clip-rule:evenodd;stroke-linecap:round;stroke-linejoin:round;stroke-miterlimit:2;">
    <g>
        <path d="M59.81,595.647L535.465,595.647C551.234,595.647 566.356,589.382 577.507,578.232C588.657,567.081 594.922,551.958 594.922,536.19L594.922,60.536C594.922,44.767 588.657,29.644 577.507,18.494C566.356,7.344 551.234,1.079 535.465,1.079L59.81,1.079C44.042,1.079 28.918,7.344 17.768,18.494C6.618,29.644 0.354,44.767 0.354,60.536L0.354,536.19C0.354,551.958 6.618,567.081 17.768,578.232C28.918,589.382 44.042,595.647 59.81,595.647Z" style="fill:rgb(0,64,128);fill-rule:nonzero;"/>
        <path d="M59.81,595.647L535.465,595.647C551.234,595.647 566.356,589.382 577.507,578.232C588.657,567.081 594.922,551.958 594.922,536.19L594.922,60.536C594.922,44.767 588.657,29.644 577.507,18.494C566.356,7.344 551.234,1.079 535.465,1.079L59.81,1.079C44.042,1.079 28.918,7.344 17.768,18.494C6.618,29.644 0.354,44.767 0.354,60.536L0.354,536.19C0.354,551.958 6.618,567.081 17.768,578.232C28.918,589.382 44.042,595.647 59.81,595.647Z" style="fill:none;stroke:rgb(0,64,128);stroke-width:0.71px;"/>
        <path d="M156.819,58.45L323.715,58.45C410.129,58.45 480.181,128.501 480.181,214.915C480.181,301.328 410.129,371.38 323.715,371.38L245.482,371.38L245.482,538.276L156.819,538.276L156.819,58.45Z" style="fill:white;fill-rule:nonzero;"/>
        <path d="M156.819,58.45L323.715,58.45C410.129,58.45 480.181,128.501 480.181,214.915C480.181,301.328 410.129,371.38 323.715,371.38L245.482,371.38L245.482,538.276L156.819,538.276L156.819,58.45Z" style="fill:none;stroke:white;stroke-width:0.71px;"/>
        <path d="M245.482,282.716L323.715,282.716C361.161,282.716 391.518,252.361 391.518,214.915C391.518,177.469 361.161,147.113 323.715,147.113L245.482,147.113L245.482,282.716Z" style="fill:rgb(0,64,128);fill-rule:nonzero;"/>
        <path d="M245.482,282.716L323.715,282.716C361.161,282.716 391.518,252.361 391.518,214.915C391.518,177.469 361.161,147.113 323.715,147.113L245.482,147.113L245.482,282.716Z" style="fill:none;stroke:rgb(0,64,128);stroke-width:0.71px;"/>
    </g>
</svg>
