<?xml version="1.0" encoding="UTF-8" standalone="no"?>
<!DOCTYPE svg PUBLIC "-//W3C//DTD SVG 1.1//EN" "http://www.w3.org/Graphics/SVG/1.1/DTD/svg11.dtd">
<svg width="100%" height="100%" viewBox="0 0 596 596" version="1.1" xmlns="http://www.w3.org/2000/svg" xmlns:xlink="http://www.w3.org/1999/xlink" xml:space="preserve" xmlns:serif="http://www.serif.com/" style="fill-rule:evenodd;clip-rule:evenodd;stroke-linecap:round;stroke-linejoin:round;stroke-miterlimit:2;">
    <g>
        <path d="M59.81,595.647L535.465,595.647C551.234,595.647 566.356,589.382 577.507,578.232C588.657,567.081 594.922,551.958 594.922,536.19L594.922,60.536C594.922,44.767 588.657,29.644 577.507,18.494C566.356,7.344 551.234,1.079 535.465,1.079L59.81,1.079C44.042,1.079 28.918,7.344 17.768,18.494C6.618,29.644 0.354,44.767 0.354,60.536L0.354,536.19C0.354,551.958 6.618,567.081 17.768,578.232C28.918,589.382 44.042,595.647 59.81,595.647Z" style="fill:rgb(0,64,128);fill-rule:nonzero;"/>
        <path d="M59.81,595.647L535.465,595.647C551.234,595.647 566.356,589.382 577.507,578.232C588.657,567.081 594.922,551.958 594.922,536.19L594.922,60.536C594.922,44.767 588.657,29.644 577.507,18.494C566.356,7.344 551.234,1.079 535.465,1.079L59.81,1.079C44.042,1.079 28.918,7.344 17.768,18.494C6.618,29.644 0.354,44.767 0.354,60.536L0.354,536.19C0.354,551.958 6.618,567.081 17.768,578.232C28.918,589.382 44.042,595.647 59.81,595.647Z" style="fill:none;stroke:rgb(0,64,128);stroke-width:0.71px;"/>
        <path d="M193.328,188.837L314.872,188.837C377.803,188.837 428.819,239.853 428.819,302.785C428.819,365.716 377.803,416.732 314.872,416.732L257.898,416.732L257.898,538.276L193.328,538.276L193.328,188.837Z" style="fill:white;fill-rule:nonzero;"/>
        <path d="M193.328,188.837L314.872,188.837C377.803,188.837 428.819,239.853 428.819,302.785C428.819,365.716 377.803,416.732 314.872,416.732L257.898,416.732L257.898,538.276L193.328,538.276L193.328,188.837Z" style="fill:none;stroke:white;stroke-width:0.71px;"/>
        <path d="M547.982,126.251L547.982,180.489L297.638,97.041L47.293,180.489L47.293,126.251L297.638,42.804L547.982,126.251Z" style="fill:white;fill-rule:nonzero;"/>
        <path d="M547.982,126.251L547.982,180.489L297.638,97.041L47.293,180.489L47.293,126.251L297.638,42.804L547.982,126.251Z" style="fill:none;stroke:white;stroke-width:0.71px;"/>
        <path d="M257.898,352.162L314.872,352.162C342.143,352.162 364.249,330.055 364.249,302.785C364.249,275.515 342.143,253.408 314.872,253.408L257.898,253.408L257.898,352.162Z" style="fill:rgb(0,64,128);fill-rule:nonzero;"/>
        <path d="M257.898,352.162L314.872,352.162C342.143,352.162 364.249,330.055 364.249,302.785C364.249,275.515 342.143,253.408 314.872,253.408L257.898,253.408L257.898,352.162Z" style="fill:none;stroke:rgb(0,64,128);stroke-width:0.71px;"/>
    </g>
</svg>
