<?xml version="1.0" encoding="UTF-8" standalone="no"?>
<!DOCTYPE svg PUBLIC "-//W3C//DTD SVG 1.1//EN" "http://www.w3.org/Graphics/SVG/1.1/DTD/svg11.dtd">
<svg width="100%" height="100%" viewBox="0 0 596 596" version="1.1" xmlns="http://www.w3.org/2000/svg" xmlns:xlink="http://www.w3.org/1999/xlink" xml:space="preserve" xmlns:serif="http://www.serif.com/" style="fill-rule:evenodd;clip-rule:evenodd;stroke-linecap:round;stroke-linejoin:round;stroke-miterlimit:2;">
    <g>
        <path d="M59.81,595.647L535.465,595.647C551.234,595.647 566.356,589.382 577.507,578.232C588.657,567.081 594.922,551.958 594.922,536.19L594.922,60.536C594.922,44.767 588.657,29.644 577.507,18.494C566.356,7.344 551.234,1.079 535.465,1.079L59.81,1.079C44.042,1.079 28.918,7.344 17.768,18.494C6.618,29.644 0.354,44.767 0.354,60.536L0.354,536.19C0.354,551.958 6.618,567.081 17.768,578.232C28.918,589.382 44.042,595.647 59.81,595.647Z" style="fill:white;fill-rule:nonzero;"/>
        <path d="M59.81,595.647L535.465,595.647C551.234,595.647 566.356,589.382 577.507,578.232C588.657,567.081 594.922,551.958 594.922,536.19L594.922,60.536C594.922,44.767 588.657,29.644 577.507,18.494C566.356,7.344 551.234,1.079 535.465,1.079L59.81,1.079C44.042,1.079 28.918,7.344 17.768,18.494C6.618,29.644 0.354,44.767 0.354,60.536L0.354,536.19C0.354,551.958 6.618,567.081 17.768,578.232C28.918,589.382 44.042,595.647 59.81,595.647Z" style="fill:none;stroke:black;stroke-width:1px;"/>
        <path d="M93.159,412.544C78.198,412.544 66.069,424.674 66.069,439.635C66.069,454.597 78.198,466.725 93.159,466.725L336.263,466.725C351.225,466.725 363.354,454.597 363.354,439.635C363.354,424.674 351.225,412.544 336.263,412.544L93.159,412.544Z" style="fill:rgb(35,31,32);fill-rule:nonzero;"/>
        <path d="M93.159,412.544C78.198,412.544 66.069,424.674 66.069,439.635C66.069,454.597 78.198,466.725 93.159,466.725L336.263,466.725C351.225,466.725 363.354,454.597 363.354,439.635C363.354,424.674 351.225,412.544 336.263,412.544L93.159,412.544Z" style="fill:none;stroke:rgb(35,31,32);stroke-width:0.71px;"/>
        <path d="M462.762,221.554L284.955,221.554L284.955,170.102L312.064,170.102C313.891,174.027 317.845,176.521 322.175,176.477L463.05,176.477C467.103,176.649 470.924,174.585 473.001,171.101C475.08,167.617 475.08,163.275 473.001,159.79C470.924,156.307 467.103,154.243 463.05,154.414L322.175,154.414C317.451,154.368 313.222,157.333 311.656,161.789L235.636,161.789C234.07,157.333 229.841,154.368 225.117,154.414L84.242,154.414C80.189,154.243 76.368,156.307 74.29,159.79C72.212,163.275 72.212,167.617 74.29,171.101C76.368,174.585 80.189,176.649 84.242,176.477L225.117,176.477C229.446,176.521 233.401,174.027 235.229,170.102L262.337,170.102L262.337,221.554L151.332,221.554C130.483,221.554 111.639,233.968 103.411,253.124L68.003,335.55C64.542,343.609 65.363,352.866 70.187,360.189C75.011,367.512 83.194,371.92 91.964,371.92L316.75,371.92C325.56,371.92 333.42,366.386 336.391,358.092L349.36,321.872C351.414,316.138 355.871,311.587 361.562,309.414L471.241,267.551C485.264,284.724 509.136,290.218 529.255,280.905C549.374,271.592 560.63,249.835 556.611,228.033C552.592,206.23 534.316,189.918 512.198,188.391C490.082,186.864 469.739,200.51 462.762,221.554Z" style="fill:rgb(35,31,32);fill-rule:nonzero;"/>
        <path d="M462.762,221.554L284.955,221.554L284.955,170.102L312.064,170.102C313.891,174.027 317.845,176.521 322.175,176.477L463.05,176.477C467.103,176.649 470.924,174.585 473.001,171.101C475.08,167.617 475.08,163.275 473.001,159.79C470.924,156.307 467.103,154.243 463.05,154.414L322.175,154.414C317.451,154.368 313.222,157.333 311.656,161.789L235.636,161.789C234.07,157.333 229.841,154.368 225.117,154.414L84.242,154.414C80.189,154.243 76.368,156.307 74.29,159.79C72.212,163.275 72.212,167.617 74.29,171.101C76.368,174.585 80.189,176.649 84.242,176.477L225.117,176.477C229.446,176.521 233.401,174.027 235.229,170.102L262.337,170.102L262.337,221.554L151.332,221.554C130.483,221.554 111.639,233.968 103.411,253.124L68.003,335.55C64.542,343.609 65.363,352.866 70.187,360.189C75.011,367.512 83.194,371.92 91.964,371.92L316.75,371.92C325.56,371.92 333.42,366.386 336.391,358.092L349.36,321.872C351.414,316.138 355.871,311.587 361.562,309.414L471.241,267.551C485.264,284.724 509.136,290.218 529.255,280.905C549.374,271.592 560.63,249.835 556.611,228.033C552.592,206.23 534.316,189.918 512.198,188.391C490.082,186.864 469.739,200.51 462.762,221.554Z" style="fill:none;stroke:rgb(35,31,32);stroke-width:0.71px;"/>
        <path d="M117.787,259.299C123.014,247.13 134.421,238.747 147.596,237.392L147.596,299.787L100.396,299.787L117.787,259.299Z" style="fill:white;fill-rule:nonzero;"/>
        <path d="M117.787,259.299C123.014,247.13 134.421,238.747 147.596,237.392L147.596,299.787L100.396,299.787L117.787,259.299Z" style="fill:none;stroke:white;stroke-width:0.71px;"/>
        <rect x="168.458" y="237.201" width="36.508" height="62.586" style="fill:white;fill-rule:nonzero;"/>
        <rect x="168.458" y="237.201" width="36.508" height="62.586" style="fill:none;stroke:white;stroke-width:0.71px;"/>
        <rect x="225.828" y="237.201" width="36.509" height="62.586" style="fill:white;fill-rule:nonzero;"/>
        <rect x="225.828" y="237.201" width="36.509" height="62.586" style="fill:none;stroke:white;stroke-width:0.71px;"/>
        <path d="M479.913,221.554L507.002,221.554C514.539,221.554 521,226.934 522.367,234.346C523.732,241.757 519.614,249.089 512.573,251.776L487.266,261.435C497.462,269.798 511.796,270.902 523.153,264.2C534.51,257.498 540.473,244.417 538.082,231.449C535.691,218.48 525.455,208.385 512.455,206.174C499.455,203.962 486.458,210.105 479.913,221.554Z" style="fill:white;fill-rule:nonzero;"/>
        <path d="M479.913,221.554L507.002,221.554C514.539,221.554 521,226.934 522.367,234.346C523.732,241.757 519.614,249.089 512.573,251.776L487.266,261.435C497.462,269.798 511.796,270.902 523.153,264.2C534.51,257.498 540.473,244.417 538.082,231.449C535.691,218.48 525.455,208.385 512.455,206.174C499.455,203.962 486.458,210.105 479.913,221.554Z" style="fill:none;stroke:white;stroke-width:0.71px;"/>
    </g>
</svg>
