<?xml version="1.0" encoding="UTF-8" standalone="no"?>
<!DOCTYPE svg PUBLIC "-//W3C//DTD SVG 1.1//EN" "http://www.w3.org/Graphics/SVG/1.1/DTD/svg11.dtd">
<svg width="100%" height="100%" viewBox="0 0 596 596" version="1.1" xmlns="http://www.w3.org/2000/svg" xmlns:xlink="http://www.w3.org/1999/xlink" xml:space="preserve" xmlns:serif="http://www.serif.com/" style="fill-rule:evenodd;clip-rule:evenodd;stroke-linecap:round;stroke-linejoin:round;stroke-miterlimit:2;">
    <g>
        <path d="M59.81,595.647L535.465,595.647C551.234,595.647 566.356,589.382 577.507,578.232C588.657,567.081 594.922,551.958 594.922,536.19L594.922,60.536C594.922,44.767 588.657,29.644 577.507,18.494C566.356,7.344 551.234,1.079 535.465,1.079L59.81,1.079C44.042,1.079 28.918,7.344 17.768,18.494C6.618,29.644 0.354,44.767 0.354,60.536L0.354,536.19C0.354,551.958 6.618,567.081 17.768,578.232C28.918,589.382 44.042,595.647 59.81,595.647Z" style="fill:white;fill-rule:nonzero;"/>
        <path d="M59.81,595.647L535.465,595.647C551.234,595.647 566.356,589.382 577.507,578.232C588.657,567.081 594.922,551.958 594.922,536.19L594.922,60.536C594.922,44.767 588.657,29.644 577.507,18.494C566.356,7.344 551.234,1.079 535.465,1.079L59.81,1.079C44.042,1.079 28.918,7.344 17.768,18.494C6.618,29.644 0.354,44.767 0.354,60.536L0.354,536.19C0.354,551.958 6.618,567.081 17.768,578.232C28.918,589.382 44.042,595.647 59.81,595.647Z" style="fill:none;stroke:rgb(35,31,32);stroke-width:1px;"/>
        <rect x="57.724" y="522.629" width="490.258" height="10.432" style="fill:rgb(35,31,32);fill-rule:nonzero;"/>
        <rect x="57.724" y="522.629" width="490.258" height="10.432" style="fill:none;stroke:rgb(35,31,32);stroke-width:0.71px;"/>
        <path d="M142.176,506.983L152.607,491.336C131.484,478.939 112.71,462.917 97.144,444.007C92.76,438.683 92.38,431.116 96.208,425.378C123.418,384.601 154.971,346.893 190.312,312.919C200.026,303.579 212.98,298.363 226.457,298.363L377.643,298.363L292.925,245.414L385.376,194.053L417.595,194.053L323.715,246.208L407.164,298.363L547.982,298.363L547.982,491.336L505.764,491.336C503.172,509.299 487.777,522.629 469.629,522.629C451.481,522.629 436.088,509.299 433.495,491.336L402.203,491.336C399.61,509.299 384.218,522.629 366.068,522.629C347.92,522.629 332.527,509.299 329.935,491.336L309.072,491.336L298.642,506.983L142.176,506.983Z" style="fill:rgb(35,31,32);fill-rule:nonzero;"/>
        <path d="M142.176,506.983L152.607,491.336C131.484,478.939 112.71,462.917 97.144,444.007C92.76,438.683 92.38,431.116 96.208,425.378C123.418,384.601 154.971,346.893 190.312,312.919C200.026,303.579 212.98,298.363 226.457,298.363L377.643,298.363L292.925,245.414L385.376,194.053L417.595,194.053L323.715,246.208L407.164,298.363L547.982,298.363L547.982,491.336L505.764,491.336C503.172,509.299 487.777,522.629 469.629,522.629C451.481,522.629 436.088,509.299 433.495,491.336L402.203,491.336C399.61,509.299 384.218,522.629 366.068,522.629C347.92,522.629 332.527,509.299 329.935,491.336L309.072,491.336L298.642,506.983L142.176,506.983Z" style="fill:none;stroke:rgb(35,31,32);stroke-width:0.71px;"/>
        <path d="M167.25,186.3C167.25,151.734 139.229,123.713 104.664,123.713C70.098,123.713 42.078,151.734 42.078,186.3C42.078,220.865 70.098,248.886 104.664,248.886C139.229,248.886 167.25,220.865 167.25,186.3Z" style="fill:rgb(35,31,32);fill-rule:nonzero;"/>
        <path d="M167.25,186.3C167.25,151.734 139.229,123.713 104.664,123.713C70.098,123.713 42.078,151.734 42.078,186.3C42.078,220.865 70.098,248.886 104.664,248.886C139.229,248.886 167.25,220.865 167.25,186.3Z" style="fill:none;stroke:rgb(35,31,32);stroke-width:0.71px;"/>
        <path d="M547.982,74.097L547.982,140.648C547.982,143.619 546.715,146.449 544.499,148.428C542.283,150.407 539.327,151.347 536.376,151.013L55.869,96.523C47.184,95.537 40.779,87.943 41.272,79.217C41.765,70.49 48.986,63.666 57.726,63.666L537.552,63.666C540.317,63.666 542.971,64.765 544.928,66.721C546.883,68.677 547.982,71.33 547.982,74.097Z" style="fill:rgb(35,31,32);fill-rule:nonzero;"/>
        <path d="M547.982,74.097L547.982,140.648C547.982,143.619 546.715,146.449 544.499,148.428C542.283,150.407 539.327,151.347 536.376,151.013L55.869,96.523C47.184,95.537 40.779,87.943 41.272,79.217C41.765,70.49 48.986,63.666 57.726,63.666L537.552,63.666C540.317,63.666 542.971,64.765 544.928,66.721C546.883,68.677 547.982,71.33 547.982,74.097Z" style="fill:none;stroke:rgb(35,31,32);stroke-width:0.71px;"/>
        <path d="M412.379,355.734C412.379,344.211 403.039,334.871 391.518,334.871C379.995,334.871 370.655,344.211 370.655,355.734C370.655,367.255 379.995,376.595 391.518,376.595C403.039,376.595 412.379,367.255 412.379,355.734Z" style="fill:white;fill-rule:nonzero;"/>
        <path d="M412.379,355.734C412.379,344.211 403.039,334.871 391.518,334.871C379.995,334.871 370.655,344.211 370.655,355.734C370.655,367.255 379.995,376.595 391.518,376.595C403.039,376.595 412.379,367.255 412.379,355.734Z" style="fill:none;stroke:white;stroke-width:0.71px;"/>
        <path d="M464.534,355.734C464.534,344.211 455.193,334.871 443.672,334.871C432.15,334.871 422.81,344.211 422.81,355.734C422.81,367.255 432.15,376.595 443.672,376.595C455.193,376.595 464.534,367.255 464.534,355.734Z" style="fill:white;fill-rule:nonzero;"/>
        <path d="M464.534,355.734C464.534,344.211 455.193,334.871 443.672,334.871C432.15,334.871 422.81,344.211 422.81,355.734C422.81,367.255 432.15,376.595 443.672,376.595C455.193,376.595 464.534,367.255 464.534,355.734Z" style="fill:none;stroke:white;stroke-width:0.71px;"/>
        <path d="M516.689,355.734C516.689,344.211 507.349,334.871 495.826,334.871C484.305,334.871 474.965,344.211 474.965,355.734C474.965,367.255 484.305,376.595 495.826,376.595C507.349,376.595 516.689,367.255 516.689,355.734Z" style="fill:white;fill-rule:nonzero;"/>
        <path d="M516.689,355.734C516.689,344.211 507.349,334.871 495.826,334.871C484.305,334.871 474.965,344.211 474.965,355.734C474.965,367.255 484.305,376.595 495.826,376.595C507.349,376.595 516.689,367.255 516.689,355.734Z" style="fill:none;stroke:white;stroke-width:0.71px;"/>
        <path d="M148.247,373.247C146.947,374.801 146.664,376.967 147.521,378.803C148.378,380.638 150.221,381.811 152.247,381.811L198.831,381.811C202.01,381.811 205.016,380.362 206.994,377.874L229.09,350.099C233.888,344.067 234.97,335.881 231.903,328.81L228.209,320.294C226.183,315.621 222.009,312.227 217.021,311.197C212.033,310.165 206.855,311.627 203.143,315.115C183.699,333.378 165.368,352.79 148.247,373.247Z" style="fill:white;fill-rule:nonzero;"/>
        <path d="M148.247,373.247C146.947,374.801 146.664,376.967 147.521,378.803C148.378,380.638 150.221,381.811 152.247,381.811L198.831,381.811C202.01,381.811 205.016,380.362 206.994,377.874L229.09,350.099C233.888,344.067 234.97,335.881 231.903,328.81L228.209,320.294C226.183,315.621 222.009,312.227 217.021,311.197C212.033,310.165 206.855,311.627 203.143,315.115C183.699,333.378 165.368,352.79 148.247,373.247Z" style="fill:none;stroke:white;stroke-width:0.71px;"/>
        <path d="M151.604,186.3C151.604,160.375 130.588,139.36 104.664,139.36C78.74,139.36 57.724,160.375 57.724,186.3C57.724,212.223 78.74,233.239 104.664,233.239C130.588,233.239 151.604,212.223 151.604,186.3Z" style="fill:white;fill-rule:nonzero;"/>
        <path d="M151.604,186.3C151.604,160.375 130.588,139.36 104.664,139.36C78.74,139.36 57.724,160.375 57.724,186.3C57.724,212.223 78.74,233.239 104.664,233.239C130.588,233.239 151.604,212.223 151.604,186.3Z" style="fill:none;stroke:white;stroke-width:0.71px;"/>
        <path d="M99.448,150.188C99.448,147.308 101.784,144.973 104.664,144.973C107.545,144.973 109.88,147.308 109.88,150.188L109.88,186.3C109.88,188.245 108.798,190.028 107.072,190.925C105.347,191.824 103.266,191.687 101.673,190.572L79.603,175.119C77.244,173.466 76.67,170.214 78.322,167.855C79.974,165.495 83.227,164.922 85.586,166.574L99.448,176.28L99.448,150.188Z" style="fill:rgb(35,31,32);fill-rule:nonzero;"/>
        <path d="M99.448,150.188C99.448,147.308 101.784,144.973 104.664,144.973C107.545,144.973 109.88,147.308 109.88,150.188L109.88,186.3C109.88,188.245 108.798,190.028 107.072,190.925C105.347,191.824 103.266,191.687 101.673,190.572L79.603,175.119C77.244,173.466 76.67,170.214 78.322,167.855C79.974,165.495 83.227,164.922 85.586,166.574L99.448,176.28L99.448,150.188Z" style="fill:none;stroke:rgb(35,31,32);stroke-width:0.46px;"/>
    </g>
</svg>
