<?xml version="1.0" encoding="UTF-8" standalone="no"?>
<!DOCTYPE svg PUBLIC "-//W3C//DTD SVG 1.1//EN" "http://www.w3.org/Graphics/SVG/1.1/DTD/svg11.dtd">
<svg width="100%" height="100%" viewBox="0 0 596 596" version="1.1" xmlns="http://www.w3.org/2000/svg" xmlns:xlink="http://www.w3.org/1999/xlink" xml:space="preserve" xmlns:serif="http://www.serif.com/" style="fill-rule:evenodd;clip-rule:evenodd;stroke-linecap:round;stroke-linejoin:round;stroke-miterlimit:2;">
    <g>
        <path d="M59.81,595.647L535.465,595.647C551.234,595.647 566.356,589.382 577.507,578.232C588.657,567.081 594.922,551.958 594.922,536.19L594.922,60.536C594.922,44.767 588.657,29.644 577.507,18.494C566.356,7.344 551.234,1.079 535.465,1.079L59.81,1.079C44.042,1.079 28.918,7.344 17.768,18.494C6.618,29.644 0.354,44.767 0.354,60.536L0.354,536.19C0.354,551.958 6.618,567.081 17.768,578.232C28.918,589.382 44.042,595.647 59.81,595.647Z" style="fill:white;fill-rule:nonzero;"/>
        <path d="M59.81,595.647L535.465,595.647C551.234,595.647 566.356,589.382 577.507,578.232C588.657,567.081 594.922,551.958 594.922,536.19L594.922,60.536C594.922,44.767 588.657,29.644 577.507,18.494C566.356,7.344 551.234,1.079 535.465,1.079L59.81,1.079C44.042,1.079 28.918,7.344 17.768,18.494C6.618,29.644 0.354,44.767 0.354,60.536L0.354,536.19C0.354,551.958 6.618,567.081 17.768,578.232C28.918,589.382 44.042,595.647 59.81,595.647Z" style="fill:none;stroke:rgb(35,31,32);stroke-width:1px;"/>
        <path d="M29.691,378.551L70.763,466.563L556.372,466.563C558.377,466.563 560.243,465.538 561.32,463.847C562.397,462.156 562.536,460.032 561.688,458.214L524.512,378.551L29.691,378.551Z" style="fill:rgb(35,31,32);fill-rule:nonzero;"/>
        <path d="M29.691,378.551L70.763,466.563L556.372,466.563C558.377,466.563 560.243,465.538 561.32,463.847C562.397,462.156 562.536,460.032 561.688,458.214L524.512,378.551L29.691,378.551Z" style="fill:none;stroke:rgb(35,31,32);stroke-width:0.71px;"/>
        <path d="M135.306,319.875L129.438,358.015L465.838,358.015L448.234,319.875L135.306,319.875Z" style="fill:rgb(35,31,32);fill-rule:nonzero;"/>
        <path d="M135.306,319.875L129.438,358.015L465.838,358.015L448.234,319.875L135.306,319.875Z" style="fill:none;stroke:rgb(35,31,32);stroke-width:0.71px;"/>
        <path d="M207.157,184.346L188.113,299.34L205.715,299.34L224.52,187.24C225.04,184.137 223.865,180.992 221.436,178.992C219.008,176.991 215.696,176.439 212.75,177.543C209.803,178.648 207.671,181.242 207.157,184.346Z" style="fill:rgb(35,31,32);fill-rule:nonzero;"/>
        <path d="M207.157,184.346L188.113,299.34L205.715,299.34L224.52,187.24C225.04,184.137 223.865,180.992 221.436,178.992C219.008,176.991 215.696,176.439 212.75,177.543C209.803,178.648 207.671,181.242 207.157,184.346Z" style="fill:none;stroke:rgb(35,31,32);stroke-width:0.71px;"/>
        <path d="M259.5,246.533L250.698,299.34L350.445,299.34L326.975,246.533L259.5,246.533Z" style="fill:rgb(35,31,32);fill-rule:nonzero;"/>
        <path d="M259.5,246.533L250.698,299.34L350.445,299.34L326.975,246.533L259.5,246.533Z" style="fill:none;stroke:rgb(35,31,32);stroke-width:0.71px;"/>
        <path d="M408.605,184.346L389.561,299.34L407.163,299.34L425.968,187.24C426.488,184.137 425.313,180.992 422.884,178.992C420.455,176.991 417.144,176.439 414.197,177.543C411.252,178.648 409.119,181.242 408.605,184.346Z" style="fill:rgb(35,31,32);fill-rule:nonzero;"/>
        <path d="M408.605,184.346L389.561,299.34L407.163,299.34L425.968,187.24C426.488,184.137 425.313,180.992 422.884,178.992C420.455,176.991 417.144,176.439 414.197,177.543C411.252,178.648 409.119,181.242 408.605,184.346Z" style="fill:none;stroke:rgb(35,31,32);stroke-width:0.71px;"/>
    </g>
</svg>
