<?xml version="1.0" encoding="UTF-8" standalone="no"?>
<!DOCTYPE svg PUBLIC "-//W3C//DTD SVG 1.1//EN" "http://www.w3.org/Graphics/SVG/1.1/DTD/svg11.dtd">
<svg width="100%" height="100%" viewBox="0 0 851 851" version="1.1" xmlns="http://www.w3.org/2000/svg" xmlns:xlink="http://www.w3.org/1999/xlink" xml:space="preserve" xmlns:serif="http://www.serif.com/" style="fill-rule:evenodd;clip-rule:evenodd;stroke-linejoin:round;stroke-miterlimit:2;">
    <g>
        <path d="M779.527,851L70.866,851L70.24,850.997L69.615,850.989L68.99,850.975L68.365,850.956L67.74,850.93L67.115,850.9L66.491,850.865L65.867,850.823L65.243,850.776L64.62,850.724L63.998,850.666L63.376,850.602L62.754,850.534L62.133,850.46L61.513,850.379L60.893,850.294L60.274,850.204L59.656,850.107L59.04,850.005L58.423,849.899L57.808,849.786L57.194,849.669L56.581,849.544L55.969,849.416L55.358,849.282L54.749,849.142L54.14,848.998L53.533,848.847L52.927,848.691L52.323,848.531L51.72,848.364L51.119,848.193L50.519,848.015L49.921,847.834L49.324,847.646L48.729,847.453L48.136,847.255L47.544,847.052L46.955,846.843L46.367,846.63L45.781,846.411L45.197,846.187L44.616,845.959L44.036,845.724L43.458,845.485L42.882,845.24L42.309,844.991L41.738,844.736L41.169,844.476L40.602,844.212L40.038,843.943L39.476,843.668L38.917,843.388L38.359,843.104L37.805,842.815L37.253,842.52L36.704,842.221L36.157,841.918L35.614,841.609L35.072,841.295L34.534,840.977L33.999,840.654L33.466,840.327L32.936,839.994L32.41,839.657L31.886,839.315L31.365,838.969L30.847,838.619L30.333,838.263L29.821,837.903L29.314,837.539L28.808,837.169L28.307,836.796L27.808,836.419L27.313,836.036L26.822,835.65L26.334,835.258L25.849,834.864L25.368,834.464L24.89,834.061L24.416,833.653L23.945,833.241L23.479,832.825L23.015,832.405L22.556,831.98L22.1,831.552L21.648,831.12L21.2,830.683L20.756,830.243L20.316,829.798L19.88,829.351L19.447,828.899L19.019,828.443L18.595,827.984L18.174,827.521L17.758,827.054L17.346,826.584L16.939,826.109L16.535,825.631L16.136,825.151L15.74,824.666L15.35,824.177L14.963,823.686L14.581,823.191L14.203,822.693L13.83,822.191L13.461,821.686L13.096,821.177L12.736,820.667L12.381,820.152L12.03,819.634L11.684,819.114L11.342,818.589L11.005,818.063L10.673,817.533L10.345,817.001L10.022,816.465L9.704,815.926L9.39,815.385L9.082,814.841L8.778,814.295L8.479,813.746L8.185,813.194L7.895,812.639L7.611,812.083L7.331,811.523L7.057,810.961L6.787,810.397L6.522,809.831L6.263,809.261L6.008,808.69L5.759,808.117L5.515,807.542L5.275,806.963L5.041,806.383L4.812,805.801L4.588,805.217L4.369,804.632L4.156,804.044L3.947,803.455L3.744,802.863L3.546,802.27L3.354,801.675L3.166,801.079L2.983,800.48L2.807,799.88L2.635,799.279L2.469,798.676L2.308,798.072L2.152,797.466L2.002,796.859L1.857,796.251L1.717,795.641L1.583,795.031L1.455,794.419L1.331,793.805L1.213,793.191L1.101,792.576L0.994,791.96L0.892,791.343L0.796,790.725L0.705,790.106L0.62,789.487L0.54,788.867L0.465,788.246L0.396,787.624L0.333,787.002L0.275,786.379L0.223,785.756L0.176,785.132L0.135,784.508L0.099,783.884L0.068,783.259L0.043,782.634L0.024,782.009L0.011,781.384L0.002,780.759L0,780.133L0,71.473L0.002,70.847L0.011,70.222L0.024,69.597L0.043,68.972L0.068,68.347L0.099,67.722L0.135,67.098L0.176,66.474L0.223,65.85L0.275,65.227L0.333,64.604L0.396,63.982L0.465,63.361L0.54,62.74L0.62,62.12L0.705,61.5L0.796,60.881L0.892,60.263L0.994,59.646L1.101,59.03L1.213,58.415L1.331,57.801L1.455,57.188L1.583,56.576L1.717,55.965L1.857,55.355L2.002,54.747L2.152,54.14L2.308,53.534L2.469,52.93L2.635,52.327L2.807,51.726L2.983,51.126L3.166,50.528L3.354,49.931L3.546,49.336L3.744,48.743L3.947,48.151L4.156,47.562L4.369,46.974L4.588,46.388L4.812,45.804L5.041,45.223L5.275,44.643L5.515,44.065L5.759,43.489L6.008,42.916L6.263,42.345L6.522,41.776L6.787,41.209L7.057,40.645L7.331,40.083L7.611,39.523L7.895,38.966L8.185,38.412L8.479,37.86L8.778,37.311L9.082,36.764L9.39,36.221L9.704,35.679L10.022,35.141L10.345,34.605L10.673,34.073L11.005,33.543L11.342,33.017L11.684,32.493L12.03,31.972L12.381,31.454L12.736,30.94L13.096,30.428L13.461,29.92L13.83,29.415L14.203,28.914L14.581,28.415L14.963,27.92L15.35,27.429L15.74,26.94L16.136,26.456L16.535,25.975L16.939,25.497L17.346,25.022L17.758,24.552L18.174,24.085L18.595,23.622L19.019,23.163L19.447,22.707L19.88,22.255L20.316,21.807L20.756,21.363L21.2,20.923L21.648,20.487L22.1,20.054L22.556,19.626L23.015,19.202L23.479,18.781L23.945,18.365L24.416,17.953L24.89,17.545L25.368,17.142L25.849,16.743L26.334,16.347L26.822,15.957L27.313,15.57L27.808,15.188L28.307,14.81L28.808,14.437L29.314,14.068L29.821,13.703L30.333,13.343L30.847,12.988L31.365,12.637L31.886,12.291L32.41,11.949L32.937,11.612L33.466,11.28L33.999,10.952L34.534,10.629L35.072,10.311L35.614,9.997L36.158,9.688L36.704,9.385L37.253,9.085L37.805,8.792L38.359,8.502L38.917,8.218L39.476,7.938L40.038,7.664L40.602,7.394L41.169,7.129L41.738,6.87L42.309,6.615L42.882,6.366L43.458,6.122L44.036,5.882L44.616,5.648L45.197,5.419L45.781,5.195L46.367,4.976L46.955,4.763L47.544,4.554L48.136,4.351L48.729,4.153L49.324,3.96L49.921,3.773L50.519,3.59L51.119,3.414L51.72,3.242L52.323,3.076L52.927,2.915L53.533,2.759L54.14,2.609L54.749,2.464L55.358,2.324L55.969,2.19L56.581,2.062L57.194,1.938L57.808,1.82L58.423,1.708L59.04,1.601L59.656,1.499L60.274,1.403L60.893,1.312L61.513,1.227L62.133,1.147L62.754,1.072L63.376,1.003L63.998,0.94L64.62,0.882L65.243,0.83L65.867,0.783L66.491,0.742L67.115,0.706L67.74,0.675L68.365,0.65L68.99,0.631L69.615,0.618L70.24,0.609L70.866,0.606L779.527,0.606L780.153,0.609L780.778,0.618L781.403,0.631L782.028,0.65L782.653,0.675L783.278,0.706L783.902,0.742L784.526,0.783L785.15,0.83L785.773,0.882L786.396,0.94L787.018,1.003L787.64,1.072L788.261,1.147L788.881,1.227L789.5,1.312L790.119,1.403L790.737,1.499L791.354,1.601L791.97,1.708L792.585,1.82L793.199,1.938L793.813,2.062L794.425,2.19L795.035,2.324L795.645,2.464L796.253,2.609L796.86,2.759L797.466,2.915L798.07,3.076L798.673,3.242L799.274,3.414L799.874,3.59L800.473,3.773L801.069,3.96L801.664,4.153L802.257,4.351L802.849,4.554L803.438,4.763L804.026,4.976L804.612,5.195L805.195,5.419L805.777,5.648L806.357,5.882L806.936,6.122L807.511,6.366L808.084,6.615L808.655,6.87L809.225,7.129L809.791,7.394L810.355,7.664L810.917,7.938L811.477,8.218L812.034,8.502L812.588,8.792L813.14,9.085L813.689,9.385L814.235,9.688L814.779,9.997L815.32,10.311L815.859,10.629L816.395,10.952L816.927,11.28L817.457,11.612L817.983,11.949L818.508,12.291L819.028,12.637L819.546,12.988L820.061,13.343L820.572,13.703L821.08,14.068L821.585,14.437L822.087,14.81L822.585,15.188L823.08,15.57L823.571,15.957L824.06,16.347L824.545,16.743L825.025,17.142L825.504,17.545L825.978,17.953L826.448,18.365L826.915,18.781L827.378,19.202L827.837,19.626L828.293,20.054L828.745,20.487L829.193,20.923L829.637,21.363L830.077,21.807L830.514,22.255L830.946,22.707L831.374,23.163L831.799,23.622L832.219,24.085L832.635,24.552L833.047,25.022L833.455,25.497L833.858,25.975L834.258,26.456L834.653,26.94L835.044,27.429L835.431,27.92L835.813,28.415L836.19,28.914L836.563,29.415L836.933,29.92L837.297,30.428L837.657,30.94L838.013,31.454L838.363,31.972L838.709,32.493L839.051,33.017L839.388,33.543L839.721,34.073L840.048,34.605L840.371,35.141L840.689,35.679L841.003,36.221L841.312,36.765L841.615,37.311L841.915,37.86L842.209,38.412L842.498,38.966L842.782,39.523L843.062,40.083L843.337,40.645L843.606,41.209L843.871,41.776L844.13,42.345L844.385,42.916L844.634,43.489L844.879,44.065L845.118,44.643L845.353,45.223L845.581,45.804L845.806,46.388L846.024,46.974L846.237,47.562L846.446,48.151L846.649,48.743L846.848,49.336L847.04,49.931L847.228,50.528L847.409,51.126L847.587,51.726L847.758,52.327L847.925,52.93L848.085,53.534L848.241,54.14L848.392,54.747L848.536,55.355L848.676,55.965L848.81,56.576L848.938,57.188L849.063,57.801L849.18,58.415L849.293,59.03L849.399,59.646L849.501,60.263L849.598,60.881L849.688,61.5L849.773,62.12L849.854,62.74L849.928,63.361L849.996,63.982L850.06,64.604L850.118,65.227L850.17,65.85L850.217,66.474L850.259,67.098L850.294,67.722L850.324,68.347L850.35,68.972L850.369,69.597L850.383,70.222L850.391,70.847L850.394,71.473L850.394,780.133L850.391,780.759L850.383,781.384L850.369,782.009L850.35,782.634L850.324,783.259L850.294,783.884L850.259,784.508L850.217,785.132L850.17,785.756L850.118,786.379L850.06,787.002L849.996,787.624L849.928,788.246L849.854,788.867L849.773,789.487L849.688,790.106L849.598,790.725L849.501,791.343L849.399,791.96L849.293,792.576L849.18,793.191L849.063,793.805L848.938,794.419L848.81,795.031L848.676,795.641L848.536,796.251L848.392,796.859L848.241,797.466L848.085,798.072L847.925,798.676L847.758,799.279L847.587,799.88L847.409,800.48L847.228,801.079L847.04,801.675L846.847,802.27L846.649,802.863L846.446,803.455L846.237,804.044L846.024,804.632L845.805,805.218L845.581,805.801L845.353,806.383L845.118,806.963L844.879,807.542L844.634,808.117L844.385,808.69L844.13,809.261L843.87,809.831L843.606,810.397L843.337,810.961L843.062,811.523L842.782,812.083L842.498,812.64L842.209,813.194L841.914,813.746L841.615,814.295L841.312,814.841L841.003,815.385L840.689,815.926L840.371,816.465L840.048,817.001L839.721,817.533L839.388,818.063L839.051,818.589L838.709,819.114L838.363,819.634L838.013,820.152L837.657,820.667L837.297,821.178L836.933,821.686L836.563,822.191L836.19,822.693L835.813,823.191L835.43,823.686L835.044,824.177L834.652,824.666L834.258,825.151L833.858,825.631L833.455,826.11L833.047,826.584L832.635,827.054L832.219,827.521L831.799,827.984L831.374,828.443L830.946,828.899L830.514,829.351L830.077,829.799L829.637,830.243L829.192,830.683L828.745,831.12L828.293,831.552L827.837,831.98L827.378,832.405L826.915,832.825L826.448,833.241L825.978,833.653L825.503,834.061L825.025,834.464L824.545,834.864L824.06,835.259L823.571,835.65L823.08,836.037L822.585,836.419L822.087,836.796L821.585,837.169L821.08,837.539L820.571,837.903L820.061,838.263L819.546,838.619L819.028,838.969L818.508,839.315L817.983,839.657L817.457,839.994L816.927,840.327L816.395,840.654L815.859,840.977L815.32,841.295L814.779,841.609L814.235,841.918L813.689,842.221L813.14,842.521L812.588,842.815L812.033,843.104L811.477,843.388L810.917,843.668L810.355,843.943L809.791,844.212L809.225,844.477L808.655,844.736L808.084,844.991L807.511,845.24L806.936,845.485L806.357,845.724L805.777,845.959L805.195,846.187L804.611,846.412L804.026,846.63L803.438,846.843L802.849,847.052L802.257,847.255L801.664,847.454L801.069,847.646L800.473,847.834L799.874,848.015L799.274,848.193L798.673,848.364L798.07,848.531L797.466,848.691L796.86,848.847L796.253,848.998L795.645,849.142L795.035,849.282L794.425,849.416L793.813,849.544L793.199,849.669L792.585,849.786L791.97,849.899L791.354,850.005L790.737,850.107L790.119,850.204L789.5,850.294L788.881,850.379L788.261,850.46L787.64,850.534L787.018,850.602L786.396,850.666L785.773,850.724L785.15,850.776L784.526,850.823L783.902,850.865L783.278,850.9L782.653,850.93L782.028,850.956L781.403,850.975L780.778,850.989L780.153,850.997L779.527,851Z"/>
        <path d="M779.527,815.567L70.866,815.567L70.553,815.565L70.24,815.561L69.928,815.554L69.615,815.544L69.303,815.532L68.99,815.517L68.678,815.499L68.366,815.478L68.054,815.455L67.743,815.428L67.432,815.4L67.121,815.368L66.81,815.334L66.499,815.296L66.189,815.256L65.879,815.213L65.57,815.169L65.261,815.121L64.953,815.07L64.644,815.016L64.337,814.96L64.03,814.901L63.723,814.839L63.417,814.775L63.112,814.708L62.807,814.638L62.503,814.565L62.199,814.49L61.897,814.413L61.594,814.332L61.293,814.249L60.992,814.163L60.692,814.075L60.393,813.984L60.095,813.89L59.797,813.794L59.501,813.694L59.205,813.592L58.91,813.489L58.616,813.381L58.324,813.272L58.032,813.161L57.741,813.045L57.451,812.928L57.162,812.809L56.874,812.687L56.587,812.562L56.302,812.435L56.017,812.305L55.734,812.172L55.452,812.038L55.171,811.901L54.891,811.761L54.613,811.619L54.335,811.474L54.06,811.327L53.785,811.177L53.512,811.026L53.24,810.872L52.969,810.714L52.7,810.555L52.432,810.394L52.166,810.23L51.901,810.064L51.638,809.895L51.376,809.724L51.115,809.551L50.856,809.376L50.599,809.198L50.344,809.018L50.089,808.835L49.837,808.652L49.586,808.464L49.337,808.276L49.089,808.085L48.844,807.891L48.6,807.696L48.357,807.499L48.117,807.299L47.878,807.097L47.641,806.893L47.405,806.687L47.172,806.479L46.94,806.269L46.711,806.057L46.483,805.842L46.257,805.627L46.033,805.409L45.811,805.188L45.591,804.966L45.373,804.742L45.156,804.516L44.942,804.289L44.73,804.059L44.52,803.827L44.312,803.593L44.106,803.359L43.902,803.122L43.7,802.882L43.501,802.642L43.303,802.4L43.107,802.156L42.915,801.91L42.723,801.663L42.534,801.413L42.348,801.163L42.163,800.91L41.981,800.656L41.801,800.4L41.624,800.143L41.448,799.884L41.275,799.624L41.104,799.362L40.936,799.098L40.769,798.834L40.606,798.567L40.444,798.299L40.285,798.03L40.128,797.759L39.974,797.488L39.822,797.214L39.672,796.94L39.525,796.664L39.38,796.386L39.238,796.108L39.099,795.829L38.961,795.547L38.826,795.265L38.694,794.982L38.564,794.698L38.437,794.412L38.313,794.126L38.19,793.837L38.07,793.548L37.953,793.258L37.839,792.967L37.727,792.675L37.618,792.382L37.511,792.088L37.406,791.794L37.305,791.499L37.206,791.202L37.109,790.904L37.016,790.606L36.925,790.307L36.836,790.007L36.751,789.707L36.667,789.405L36.587,789.103L36.509,788.8L36.434,788.497L36.361,788.192L36.292,787.887L36.225,787.582L36.16,787.276L36.099,786.969L36.04,786.663L35.983,786.355L35.93,786.046L35.879,785.738L35.831,785.429L35.785,785.12L35.743,784.81L35.703,784.5L35.666,784.19L35.631,783.878L35.6,783.568L35.57,783.256L35.544,782.945L35.521,782.633L35.5,782.321L35.482,782.008L35.467,781.697L35.455,781.384L35.445,781.072L35.438,780.759L35.434,780.446L35.433,780.133L35.433,71.473L35.434,71.16L35.438,70.847L35.445,70.535L35.455,70.222L35.467,69.91L35.482,69.597L35.5,69.285L35.521,68.973L35.544,68.661L35.57,68.35L35.6,68.039L35.631,67.728L35.666,67.417L35.703,67.106L35.743,66.796L35.785,66.486L35.831,66.177L35.879,65.868L35.93,65.56L35.983,65.251L36.04,64.944L36.099,64.637L36.16,64.33L36.225,64.024L36.292,63.719L36.361,63.414L36.434,63.11L36.509,62.806L36.587,62.503L36.668,62.201L36.751,61.9L36.836,61.599L36.925,61.299L37.016,61L37.109,60.702L37.206,60.404L37.305,60.108L37.406,59.812L37.511,59.517L37.618,59.223L37.727,58.931L37.839,58.639L37.954,58.348L38.07,58.058L38.19,57.769L38.313,57.481L38.437,57.194L38.564,56.909L38.694,56.624L38.827,56.341L38.961,56.059L39.099,55.778L39.238,55.498L39.38,55.22L39.525,54.942L39.672,54.667L39.822,54.392L39.974,54.119L40.128,53.847L40.285,53.576L40.444,53.307L40.606,53.039L40.769,52.773L40.936,52.508L41.104,52.245L41.275,51.982L41.448,51.722L41.624,51.463L41.801,51.206L41.981,50.951L42.163,50.696L42.348,50.444L42.534,50.193L42.723,49.944L42.915,49.696L43.107,49.451L43.303,49.207L43.501,48.964L43.7,48.724L43.902,48.485L44.106,48.248L44.312,48.012L44.52,47.779L44.73,47.547L44.942,47.318L45.156,47.09L45.373,46.864L45.591,46.64L45.811,46.418L46.033,46.198L46.257,45.979L46.483,45.763L46.711,45.549L46.94,45.337L47.172,45.127L47.405,44.919L47.641,44.713L47.878,44.509L48.117,44.307L48.357,44.107L48.6,43.91L48.844,43.714L49.089,43.521L49.337,43.33L49.586,43.141L49.837,42.955L50.089,42.77L50.344,42.588L50.599,42.408L50.856,42.23L51.115,42.055L51.376,41.882L51.638,41.711L51.901,41.542L52.166,41.376L52.432,41.212L52.7,41.051L52.969,40.892L53.24,40.735L53.512,40.581L53.785,40.429L54.06,40.279L54.335,40.132L54.613,39.987L54.891,39.845L55.171,39.706L55.452,39.568L55.734,39.433L56.017,39.301L56.302,39.171L56.587,39.044L56.874,38.919L57.162,38.797L57.451,38.677L57.741,38.56L58.032,38.446L58.324,38.334L58.617,38.225L58.91,38.118L59.205,38.013L59.501,37.912L59.797,37.813L60.095,37.716L60.393,37.623L60.692,37.532L60.992,37.443L61.293,37.357L61.594,37.274L61.897,37.194L62.199,37.116L62.503,37.041L62.807,36.968L63.112,36.898L63.417,36.832L63.723,36.767L64.03,36.706L64.337,36.646L64.644,36.59L64.953,36.537L65.261,36.486L65.57,36.438L65.879,36.392L66.189,36.35L66.499,36.31L66.81,36.272L67.121,36.238L67.432,36.207L67.743,36.177L68.055,36.151L68.366,36.128L68.678,36.107L68.99,36.089L69.303,36.074L69.615,36.062L69.928,36.052L70.24,36.045L70.553,36.041L70.866,36.04L779.527,36.04L779.84,36.041L780.153,36.045L780.466,36.052L780.778,36.062L781.091,36.074L781.402,36.089L781.715,36.107L782.027,36.128L782.339,36.151L782.65,36.177L782.962,36.207L783.272,36.238L783.584,36.272L783.894,36.31L784.204,36.35L784.514,36.392L784.823,36.438L785.132,36.486L785.44,36.537L785.749,36.59L786.057,36.646L786.363,36.706L786.67,36.767L786.976,36.832L787.281,36.898L787.586,36.968L787.891,37.041L788.194,37.116L788.497,37.194L788.799,37.274L789.101,37.357L789.401,37.443L789.701,37.532L790,37.623L790.298,37.716L790.596,37.813L790.893,37.912L791.188,38.013L791.483,38.118L791.776,38.225L792.069,38.334L792.361,38.446L792.652,38.561L792.942,38.677L793.231,38.797L793.52,38.919L793.806,39.044L794.092,39.171L794.376,39.301L794.659,39.434L794.941,39.568L795.223,39.706L795.502,39.845L795.78,39.987L796.058,40.132L796.334,40.279L796.608,40.429L796.882,40.581L797.153,40.735L797.424,40.892L797.693,41.051L797.961,41.212L798.228,41.376L798.492,41.542L798.756,41.711L799.018,41.882L799.278,42.055L799.537,42.23L799.794,42.408L800.05,42.588L800.304,42.77L800.557,42.955L800.807,43.141L801.057,43.33L801.304,43.521L801.55,43.714L801.794,43.91L802.036,44.107L802.276,44.307L802.516,44.509L802.753,44.713L802.988,44.919L803.222,45.127L803.453,45.337L803.683,45.549L803.91,45.763L804.136,45.979L804.36,46.198L804.582,46.418L804.803,46.64L805.021,46.864L805.236,47.09L805.451,47.318L805.663,47.547L805.873,47.779L806.081,48.012L806.287,48.248L806.491,48.485L806.693,48.724L806.893,48.964L807.09,49.207L807.285,49.451L807.479,49.696L807.67,49.944L807.858,50.193L808.046,50.444L808.23,50.696L808.412,50.951L808.592,51.206L808.77,51.463L808.945,51.722L809.118,51.983L809.289,52.245L809.458,52.508L809.624,52.773L809.788,53.039L809.949,53.307L810.108,53.576L810.266,53.847L810.42,54.119L810.571,54.392L810.721,54.667L810.868,54.942L811.013,55.22L811.155,55.498L811.295,55.778L811.432,56.059L811.566,56.341L811.699,56.624L811.829,56.909L811.956,57.194L812.081,57.481L812.203,57.769L812.322,58.058L812.439,58.348L812.555,58.639L812.666,58.931L812.775,59.224L812.883,59.517L812.986,59.812L813.089,60.108L813.188,60.404L813.284,60.702L813.378,61L813.469,61.299L813.557,61.599L813.643,61.9L813.726,62.201L813.807,62.503L813.885,62.806L813.959,63.11L814.032,63.414L814.102,63.719L814.169,64.024L814.233,64.33L814.295,64.637L814.354,64.944L814.41,65.251L814.464,65.56L814.515,65.868L814.563,66.177L814.608,66.486L814.65,66.796L814.69,67.106L814.728,67.417L814.762,67.728L814.794,68.039L814.822,68.35L814.849,68.662L814.872,68.973L814.893,69.285L814.911,69.597L814.926,69.91L814.938,70.222L814.948,70.535L814.955,70.847L814.959,71.16L814.961,71.473L814.961,780.133L814.959,780.446L814.955,780.759L814.948,781.072L814.938,781.384L814.926,781.697L814.911,782.008L814.893,782.321L814.872,782.633L814.849,782.945L814.822,783.256L814.794,783.568L814.762,783.878L814.728,784.19L814.69,784.5L814.65,784.81L814.607,785.12L814.563,785.429L814.515,785.738L814.464,786.046L814.41,786.355L814.354,786.663L814.295,786.969L814.233,787.276L814.169,787.582L814.102,787.887L814.032,788.192L813.959,788.497L813.884,788.8L813.807,789.103L813.726,789.405L813.643,789.707L813.557,790.007L813.469,790.307L813.378,790.606L813.284,790.904L813.188,791.202L813.088,791.499L812.986,791.794L812.883,792.089L812.775,792.382L812.666,792.675L812.555,792.967L812.439,793.258L812.322,793.548L812.203,793.837L812.081,794.126L811.956,794.412L811.829,794.698L811.699,794.982L811.566,795.265L811.432,795.547L811.295,795.829L811.155,796.108L811.013,796.386L810.868,796.664L810.721,796.94L810.571,797.214L810.42,797.488L810.266,797.759L810.108,798.03L809.949,798.299L809.788,798.567L809.624,798.834L809.458,799.098L809.289,799.362L809.118,799.624L808.945,799.884L808.77,800.143L808.592,800.4L808.412,800.656L808.229,800.91L808.046,801.163L807.858,801.413L807.67,801.663L807.479,801.91L807.285,802.156L807.09,802.4L806.893,802.642L806.693,802.882L806.491,803.122L806.287,803.359L806.081,803.594L805.873,803.828L805.663,804.059L805.451,804.289L805.236,804.516L805.021,804.742L804.803,804.966L804.582,805.188L804.36,805.409L804.136,805.627L803.91,805.842L803.683,806.057L803.453,806.269L803.221,806.479L802.987,806.687L802.753,806.893L802.516,807.097L802.276,807.299L802.036,807.499L801.794,807.696L801.55,807.891L801.304,808.085L801.057,808.276L800.557,808.652L800.304,808.836L800.05,809.018L799.794,809.198L799.537,809.376L799.278,809.551L799.018,809.724L798.756,809.895L798.492,810.064L798.228,810.23L797.961,810.394L797.693,810.555L797.424,810.714L797.153,810.872L796.882,811.026L796.608,811.177L796.334,811.327L796.058,811.474L795.78,811.619L795.502,811.761L795.223,811.901L794.941,812.038L794.659,812.172L794.376,812.305L794.092,812.435L793.806,812.562L793.52,812.687L793.231,812.809L792.942,812.928L792.652,813.045L792.361,813.161L792.069,813.272L791.776,813.381L791.482,813.489L791.188,813.592L790.893,813.695L790.596,813.794L790.298,813.89L790,813.984L789.701,814.075L789.401,814.163L789.101,814.249L788.799,814.332L788.497,814.413L788.194,814.491L787.891,814.565L787.586,814.638L787.281,814.708L786.976,814.775L786.67,814.839L786.363,814.901L786.057,814.96L785.749,815.016L785.44,815.07L785.132,815.121L784.823,815.169L784.514,815.214L784.204,815.256L783.894,815.296L783.584,815.334L783.272,815.368L782.962,815.4L782.65,815.428L782.339,815.455L782.027,815.478L781.715,815.499L781.402,815.517L781.091,815.532L780.778,815.544L780.466,815.554L780.153,815.561L779.84,815.565L779.527,815.567Z" style="fill:white;"/>
        <path d="M74.409,529.946L74.409,644.489L75.472,645.258L76.542,646.018L77.618,646.769L78.701,647.51L79.791,648.242L80.886,648.963L81.988,649.675L83.097,650.378L84.211,651.071L85.332,651.753L86.459,652.426L87.591,653.089L88.73,653.742L89.874,654.385L91.023,655.018L92.178,655.64L93.339,656.252L94.505,656.854L95.676,657.446L96.853,658.028L98.034,658.598L99.221,659.159L100.413,659.709L101.609,660.249L102.81,660.777L104.016,661.295L105.226,661.803L106.44,662.3L107.659,662.787L108.882,663.261L110.109,663.726L111.341,664.18L112.576,664.623L113.815,665.054L115.058,665.476L116.305,665.885L117.555,666.285L118.809,666.672L120.065,667.049L121.326,667.415L122.589,667.77L123.855,668.113L125.125,668.445L126.397,668.766L127.673,669.076L128.951,669.375L130.231,669.662L131.514,669.938L132.799,670.203L134.087,670.456L135.376,670.698L136.668,670.927L137.962,671.147L139.258,671.354L140.556,671.55L141.855,671.735L143.156,671.909L144.458,672.07L145.762,672.22L147.066,672.359L148.373,672.486L149.68,672.602L150.988,672.707L152.297,672.798L153.606,672.879L154.917,672.949L156.228,673.007L157.539,673.053L158.851,673.088L160.163,673.112L161.476,673.123L162.788,673.123L164.1,673.112L165.412,673.088L166.724,673.053L168.035,673.007L169.346,672.949L170.657,672.879L171.966,672.798L173.275,672.707L174.583,672.602L175.891,672.486L177.197,672.359L178.501,672.22L179.805,672.07L181.107,671.909L182.408,671.735L183.708,671.55L185.005,671.354L186.301,671.147L187.595,670.927L188.886,670.698L190.176,670.456L191.464,670.203L192.749,669.938L194.032,669.662L195.313,669.375L196.59,669.076L197.866,668.766L199.138,668.445L200.407,668.113L201.674,667.77L202.938,667.415L204.198,667.049L205.455,666.672L206.708,666.285L207.958,665.885L209.205,665.476L210.448,665.054L211.687,664.623L212.922,664.18L214.154,663.726L215.381,663.261L216.604,662.787L217.823,662.3L219.038,661.803L220.248,661.295L221.453,660.777L222.654,660.249L223.85,659.709L225.042,659.159L226.229,658.598L227.41,658.028L228.586,657.446L229.758,656.854L230.924,656.252L232.084,655.64L233.239,655.018L234.389,654.385L235.533,653.742L236.671,653.089L237.804,652.426L238.931,651.753L240.051,651.071L241.166,650.378L242.274,649.675L243.376,648.963L244.472,648.242L245.562,647.51L246.645,646.769L247.721,646.018L248.791,645.258L249.854,644.489L250.917,645.258L251.986,646.018L253.063,646.769L254.146,647.51L255.235,648.242L256.331,648.963L257.433,649.675L258.54,650.378L259.656,651.071L260.776,651.753L261.903,652.426L263.036,653.089L264.174,653.742L265.318,654.385L266.468,655.018L267.623,655.64L268.783,656.252L269.949,656.854L271.121,657.446L272.297,658.028L273.479,658.598L274.666,659.159L275.857,659.709L277.053,660.249L278.254,660.777L279.459,661.295L280.669,661.803L281.884,662.3L283.103,662.787L284.326,663.261L285.553,663.726L286.785,664.18L288.02,664.623L289.259,665.054L290.502,665.476L291.749,665.885L292.999,666.285L294.252,666.672L295.509,667.049L296.77,667.415L298.033,667.77L299.3,668.113L300.569,668.445L301.842,668.766L303.117,669.076L304.395,669.375L305.675,669.662L306.958,669.938L308.243,670.203L309.531,670.456L310.821,670.698L312.112,670.927L313.406,671.147L314.702,671.354L316,671.55L317.299,671.735L318.6,671.909L319.902,672.07L321.206,672.22L322.51,672.359L323.816,672.486L325.124,672.602L326.432,672.707L327.741,672.798L329.05,672.879L330.361,672.949L331.672,673.007L332.983,673.053L334.295,673.088L335.607,673.112L336.919,673.123L338.231,673.123L339.544,673.112L340.856,673.088L342.168,673.053L343.479,673.007L344.79,672.949L346.101,672.879L347.41,672.798L348.719,672.707L350.027,672.602L351.334,672.486L352.641,672.359L353.946,672.22L355.249,672.07L356.551,671.909L357.852,671.735L359.151,671.55L360.449,671.354L361.745,671.147L363.039,670.927L364.331,670.698L365.62,670.456L366.908,670.203L368.193,669.938L369.476,669.662L370.756,669.375L372.034,669.076L373.31,668.766L374.582,668.445L375.852,668.113L377.118,667.77L378.381,667.415L379.642,667.049L380.898,666.672L382.152,666.285L383.402,665.885L384.649,665.476L385.892,665.054L387.131,664.623L388.366,664.18L389.598,663.726L390.825,663.261L392.048,662.787L393.267,662.3L394.481,661.803L395.691,661.295L396.897,660.777L398.098,660.249L399.294,659.709L400.486,659.159L401.672,658.598L402.854,658.028L404.03,657.446L405.202,656.854L406.368,656.252L407.528,655.64L408.684,655.018L409.833,654.385L410.977,653.742L412.116,653.089L413.248,652.426L414.375,651.753L415.495,651.071L416.61,650.378L417.718,649.675L418.82,648.963L419.917,648.242L421.006,647.51L422.089,646.769L423.165,646.018L424.235,645.258L425.297,644.489L426.36,645.258L427.431,646.018L428.507,646.769L429.59,647.51L430.679,648.242L431.774,648.963L432.877,649.675L433.985,650.378L435.1,651.071L436.221,651.753L437.347,652.426L438.479,653.089L439.618,653.742L440.762,654.385L441.912,655.018L443.066,655.64L444.228,656.252L445.394,656.854L446.564,657.446L447.741,658.028L448.923,658.598L450.109,659.159L451.301,659.709L452.497,660.249L453.698,660.777L454.903,661.295L456.113,661.803L457.328,662.3L458.547,662.787L459.771,663.261L460.997,663.726L462.229,664.18L463.464,664.623L464.703,665.054L465.946,665.476L467.192,665.885L468.443,666.285L469.696,666.672L470.953,667.049L472.214,667.416L473.478,667.77L474.744,668.113L476.014,668.445L477.285,668.766L478.561,669.076L479.839,669.375L481.119,669.662L482.402,669.938L483.688,670.203L484.975,670.456L486.265,670.698L487.557,670.928L488.851,671.147L490.146,671.354L491.443,671.55L492.743,671.735L494.044,671.909L495.346,672.07L496.649,672.22L497.954,672.359L499.261,672.487L500.567,672.602L501.876,672.707L503.185,672.798L504.494,672.879L505.805,672.95L507.116,673.007L508.428,673.053L509.739,673.088L511.052,673.112L512.362,673.123L513.676,673.123L514.987,673.112L516.3,673.088L517.612,673.053L518.922,673.007L520.234,672.95L521.544,672.879L522.854,672.798L524.163,672.707L525.472,672.602L526.778,672.487L528.085,672.359L529.39,672.22L530.693,672.07L531.995,671.909L533.296,671.735L534.596,671.55L535.894,671.354L537.188,671.147L538.482,670.928L539.774,670.698L541.064,670.456L542.352,670.203L543.638,669.938L544.92,669.662L546.2,669.375L547.479,669.076L548.754,668.766L550.026,668.445L551.296,668.113L552.563,667.77L553.825,667.416L555.086,667.049L556.343,666.672L557.597,666.285L558.847,665.885L560.093,665.476L561.336,665.054L562.575,664.623L563.811,664.18L565.042,663.726L566.269,663.261L567.492,662.787L568.711,662.3L569.926,661.803L571.136,661.295L572.341,660.777L573.542,660.249L574.738,659.709L575.93,659.159L577.116,658.598L578.298,658.028L579.475,657.446L580.646,656.854L581.812,656.252L582.973,655.64L584.128,655.018L585.277,654.385L586.421,653.742L587.56,653.089L588.692,652.426L589.818,651.753L590.939,651.071L592.054,650.378L593.162,649.675L594.265,648.963L595.36,648.242L596.45,647.51L597.533,646.769L598.609,646.018L599.679,645.258L600.741,644.489L601.809,645.261L602.883,646.024L603.964,646.778L605.051,647.522L606.146,648.256L607.246,648.981L608.353,649.696L609.466,650.401L610.585,651.096L611.71,651.781L612.842,652.457L613.979,653.122L615.122,653.777L616.271,654.421L617.426,655.056L618.587,655.68L619.752,656.294L620.924,656.898L622.1,657.492L623.281,658.075L624.468,658.647L625.66,659.209L626.856,659.76L628.059,660.3L629.265,660.831L630.476,661.35L631.691,661.858L632.911,662.356L634.136,662.843L635.364,663.319L636.597,663.784L637.834,664.239L639.074,664.681L640.319,665.114L641.568,665.535L642.82,665.945L644.076,666.344L645.335,666.732L646.598,667.108L647.863,667.473L649.133,667.828L650.405,668.17L651.68,668.502L652.958,668.823L654.239,669.131L655.522,669.429L656.809,669.715L658.098,669.991L659.389,670.253L660.682,670.505L661.978,670.747L663.274,670.975L664.574,671.193L665.876,671.399L667.179,671.593L668.483,671.776L669.79,671.947L671.098,672.107L672.407,672.254L673.718,672.391L675.029,672.516L676.343,672.629L677.656,672.731L678.971,672.821L680.286,672.899L681.602,672.966L682.918,673.021L775.984,529.946L591.175,529.946L532.581,572.899L247.286,572.899L224.747,529.946L74.409,529.946Z"/>
        <path d="M591.175,458.356L712.877,458.356L536.57,101L350.438,194.066L350.438,208.384L492.296,151.641L591.175,458.356Z"/>
        <path d="M425.096,670.326L424.033,671.095L422.963,671.855L421.887,672.606L420.804,673.347L419.715,674.079L418.619,674.8L417.517,675.513L416.408,676.215L415.294,676.908L414.173,677.59L413.046,678.263L411.914,678.926L410.776,679.58L409.632,680.222L408.482,680.855L407.327,681.477L406.166,682.089L405,682.692L403.829,683.284L402.652,683.865L401.471,684.436L400.284,684.997L399.093,685.546L397.896,686.085L396.696,686.615L395.49,687.133L394.28,687.64L393.065,688.137L391.847,688.624L390.624,689.099L389.396,689.563L388.165,690.017L386.93,690.46L385.69,690.892L384.448,691.313L383.201,691.723L381.951,692.122L380.697,692.509L379.44,692.886L378.18,693.252L376.917,693.607L375.65,693.951L374.38,694.283L373.108,694.604L371.833,694.914L370.555,695.211L369.274,695.499L367.992,695.775L366.707,696.04L365.419,696.293L364.129,696.535L362.837,696.765L361.543,696.984L360.248,697.192L358.95,697.388L357.651,697.573L356.35,697.746L355.048,697.908L353.744,698.058L352.439,698.197L351.133,698.324L349.826,698.439L348.518,698.544L347.209,698.636L345.899,698.717L344.589,698.787L343.278,698.844L341.966,698.891L340.654,698.925L339.342,698.949L338.03,698.96L336.718,698.96L335.406,698.949L334.094,698.925L332.782,698.891L331.47,698.844L330.16,698.787L328.849,698.717L327.539,698.636L326.23,698.544L324.922,698.439L323.615,698.324L322.309,698.197L321.004,698.058L319.7,697.908L318.398,697.746L317.097,697.573L315.798,697.388L314.5,697.192L313.205,696.984L311.911,696.765L310.619,696.535L309.33,696.293L308.042,696.04L306.756,695.775L305.474,695.499L304.193,695.211L302.915,694.914L301.64,694.604L300.368,694.283L299.098,693.951L297.832,693.607L296.568,693.252L295.308,692.886L294.051,692.509L292.797,692.122L291.547,691.723L290.301,691.313L289.058,690.892L287.818,690.46L286.583,690.017L285.352,689.563L284.125,689.099L282.901,688.624L281.683,688.137L280.468,687.64L279.258,687.133L278.052,686.615L276.852,686.085L275.655,685.546L274.464,684.997L273.277,684.436L272.096,683.865L270.919,683.284L269.748,682.692L268.582,682.089L267.421,681.477L266.266,680.855L265.116,680.222L263.972,679.58L262.834,678.926L261.702,678.263L260.575,677.59L259.454,676.908L258.34,676.215L257.23,675.513L256.129,674.8L255.033,674.079L253.944,673.347L252.861,672.606L251.785,671.855L250.715,671.095L249.652,670.326L248.589,671.095L247.52,671.855L246.443,672.606L245.36,673.347L244.271,674.079L243.175,674.8L242.073,675.513L240.964,676.215L239.85,676.908L238.729,677.59L237.603,678.263L236.47,678.926L235.332,679.58L234.188,680.222L233.038,680.855L231.883,681.477L230.722,682.089L229.556,682.692L228.385,683.284L227.208,683.865L226.027,684.436L224.84,684.997L223.649,685.546L222.453,686.085L221.251,686.615L220.046,687.133L218.836,687.64L217.622,688.137L216.402,688.624L215.179,689.099L213.952,689.563L212.721,690.017L211.485,690.46L210.247,690.892L209.003,691.313L207.757,691.723L206.507,692.122L205.253,692.509L203.996,692.886L202.736,693.252L201.472,693.607L200.206,693.951L198.937,694.283L197.664,694.604L196.389,694.914L195.111,695.211L193.831,695.499L192.547,695.775L191.262,696.04L189.975,696.293L188.685,696.535L187.393,696.765L186.099,696.984L184.803,697.192L183.506,697.388L182.207,697.573L180.906,697.746L179.604,697.908L178.3,698.058L176.995,698.197L175.689,698.324L174.382,698.439L173.074,698.544L171.765,698.636L170.455,698.717L169.145,698.787L167.833,698.844L166.522,698.891L165.21,698.925L163.898,698.949L162.586,698.96L161.274,698.96L159.961,698.949L158.649,698.925L157.338,698.891L156.026,698.844L154.715,698.787L153.405,698.717L152.095,698.636L150.786,698.544L149.478,698.439L148.171,698.324L146.865,698.197L145.56,698.058L144.256,697.908L142.954,697.746L141.653,697.573L140.354,697.388L139.057,697.192L137.761,696.984L136.467,696.765L135.175,696.535L133.885,696.293L132.598,696.04L131.313,695.775L130.029,695.499L128.748,695.211L127.471,694.914L126.196,694.604L124.924,694.283L123.654,693.951L122.388,693.607L121.124,693.252L119.864,692.886L118.607,692.509L117.353,692.122L116.103,691.723L114.856,691.313L113.614,690.892L112.375,690.46L111.139,690.017L109.908,689.563L108.681,689.099L107.458,688.624L106.239,688.137L105.024,687.64L103.814,687.133L102.608,686.615L101.407,686.085L100.211,685.546L99.02,684.997L97.833,684.436L96.651,683.865L95.475,683.284L94.303,682.692L93.137,682.089L91.977,681.477L90.821,680.855L89.672,680.222L88.528,679.58L87.39,678.926L86.257,678.263L85.13,677.59L84.01,676.908L82.895,676.215L81.787,675.513L80.685,674.8L79.589,674.079L78.5,673.347L77.417,672.606L76.34,671.855L75.271,671.095L74.208,670.326L74.208,696.309L75.271,697.082L76.34,697.844L77.417,698.598L78.5,699.342L79.59,700.077L80.686,700.801L81.789,701.516L82.897,702.221L84.012,702.917L85.133,703.602L86.26,704.278L87.393,704.943L88.532,705.598L89.677,706.244L90.827,706.879L91.982,707.504L93.144,708.119L94.311,708.723L95.482,709.318L96.66,709.902L97.842,710.475L99.029,711.038L100.222,711.59L101.419,712.132L102.621,712.664L103.828,713.184L105.039,713.694L106.254,714.193L107.474,714.682L108.698,715.16L109.926,715.627L111.159,716.083L112.395,716.527L113.635,716.961L114.879,717.384L116.127,717.796L117.378,718.198L118.633,718.587L119.891,718.966L121.153,719.335L122.417,719.691L123.685,720.036L124.956,720.371L126.229,720.693L127.506,721.004L128.785,721.305L130.067,721.594L131.352,721.872L132.638,722.138L133.927,722.393L135.219,722.637L136.512,722.869L137.807,723.089L139.104,723.299L140.403,723.497L141.704,723.683L143.007,723.858L144.311,724.021L145.616,724.172L146.922,724.313L148.23,724.442L149.539,724.558L150.849,724.665L152.159,724.758L153.471,724.84L154.783,724.911L156.095,724.97L157.408,725.018L158.722,725.054L160.036,725.078L161.35,725.09L162.664,725.092L163.978,725.082L165.292,725.059L166.605,725.026L167.918,724.98L169.231,724.923L170.543,724.855L171.855,724.775L173.166,724.683L174.476,724.58L175.785,724.464L177.092,724.338L178.399,724.201L179.705,724.05L181.009,723.889L182.312,723.717L183.612,723.533L184.912,723.337L186.209,723.13L187.505,722.912L188.799,722.682L190.09,722.44L191.38,722.188L192.667,721.923L193.952,721.648L195.234,721.361L196.514,721.063L197.791,720.753L199.065,720.432L200.336,720.1L201.605,719.757L202.87,719.403L204.132,719.037L205.391,718.661L206.646,718.272L207.898,717.874L209.147,717.463L210.392,717.043L211.633,716.611L212.87,716.168L214.103,715.713L215.332,715.249L216.557,714.773L217.777,714.287L218.994,713.79L220.206,713.282L221.413,712.763L222.616,712.234L223.814,711.694L225.007,711.144L226.195,710.583L227.378,710.011L228.557,709.429L229.729,708.837L230.897,708.235L232.06,707.622L233.216,706.999L234.368,706.366L235.514,705.722L236.653,705.068L237.788,704.405L238.916,703.731L240.038,703.047L241.154,702.354L242.264,701.651L243.368,700.938L244.465,700.214L245.556,699.482L246.64,698.74L247.718,697.989L248.789,697.227L249.854,696.457L250.917,697.226L251.986,697.987L253.063,698.737L254.146,699.478L255.235,700.21L256.331,700.932L257.433,701.644L258.54,702.346L259.656,703.04L260.776,703.722L261.903,704.395L263.036,705.058L264.174,705.71L265.318,706.353L266.468,706.986L267.623,707.609L268.783,708.221L269.949,708.823L271.121,709.415L272.297,709.996L273.479,710.567L274.666,711.127L275.857,711.677L277.053,712.217L278.254,712.746L279.459,713.264L280.669,713.772L281.884,714.268L283.103,714.754L284.326,715.23L285.553,715.695L286.785,716.148L288.02,716.591L289.259,717.023L290.502,717.444L291.749,717.854L292.999,718.253L294.252,718.641L295.509,719.018L296.77,719.383L298.033,719.738L299.3,720.082L300.569,720.414L301.842,720.735L303.117,721.044L304.395,721.343L305.675,721.63L306.958,721.906L308.243,722.17L309.531,722.424L310.821,722.666L312.112,722.896L313.406,723.116L314.702,723.323L316,723.519L317.299,723.704L318.6,723.877L319.902,724.039L321.206,724.189L322.51,724.328L323.816,724.455L325.124,724.571L326.432,724.674L327.741,724.767L329.05,724.848L330.361,724.918L331.672,724.976L332.983,725.022L334.295,725.057L335.607,725.08L336.919,725.091L338.231,725.091L339.544,725.08L340.856,725.057L342.168,725.022L343.479,724.976L344.79,724.918L346.101,724.848L347.41,724.767L348.719,724.674L350.027,724.571L351.334,724.455L352.641,724.328L353.946,724.189L355.249,724.039L356.551,723.877L357.852,723.704L359.151,723.519L360.449,723.323L361.745,723.116L363.039,722.896L364.331,722.666L365.62,722.424L366.908,722.17L368.193,721.906L369.476,721.63L370.756,721.343L372.034,721.044L373.31,720.735L374.582,720.414L375.852,720.082L377.118,719.738L378.381,719.383L379.642,719.018L380.898,718.641L382.152,718.253L383.402,717.854L384.649,717.444L385.892,717.023L387.131,716.591L388.366,716.148L389.598,715.695L390.825,715.23L392.048,714.754L393.267,714.268L394.481,713.772L395.691,713.264L396.897,712.746L398.098,712.217L399.294,711.677L400.486,711.127L401.672,710.567L402.854,709.996L404.03,709.415L405.202,708.823L406.368,708.221L407.528,707.609L408.684,706.986L409.833,706.353L410.977,705.71L412.116,705.058L413.248,704.395L414.375,703.722L415.495,703.04L416.61,702.346L417.718,701.644L418.82,700.932L419.917,700.21L421.006,699.478L422.089,698.737L423.165,697.987L424.235,697.226L425.297,696.457L426.36,697.226L427.431,697.987L428.507,698.737L429.59,699.478L430.679,700.21L431.774,700.932L432.877,701.644L433.985,702.346L435.1,703.04L436.221,703.722L437.347,704.395L438.479,705.058L439.618,705.71L440.762,706.353L441.912,706.986L443.066,707.609L444.228,708.221L445.394,708.823L446.564,709.415L447.741,709.996L448.923,710.567L450.109,711.127L451.301,711.677L452.497,712.217L453.698,712.746L454.903,713.264L456.113,713.772L457.328,714.269L458.547,714.754L459.771,715.23L460.997,715.695L462.229,716.148L463.464,716.591L464.703,717.023L465.946,717.444L467.192,717.854L468.443,718.253L469.696,718.641L470.953,719.018L472.214,719.383L473.478,719.738L474.744,720.082L476.014,720.414L477.285,720.735L478.561,721.044L479.839,721.343L481.119,721.63L482.402,721.906L483.688,722.17L484.975,722.424L486.265,722.666L487.557,722.896L488.851,723.116L490.146,723.323L491.443,723.519L492.743,723.704L494.044,723.877L495.346,724.039L496.649,724.189L497.954,724.328L499.261,724.455L500.567,724.571L501.876,724.674L503.185,724.767L504.494,724.848L505.805,724.918L507.116,724.976L508.428,725.022L509.739,725.057L511.052,725.08L512.362,725.091L513.676,725.091L514.987,725.08L516.3,725.057L517.612,725.022L518.922,724.976L520.234,724.918L521.544,724.848L522.854,724.767L524.163,724.674L525.472,724.571L526.778,724.455L528.085,724.328L529.39,724.189L530.693,724.039L531.995,723.877L533.296,723.704L534.596,723.519L535.894,723.323L537.188,723.116L538.482,722.896L539.774,722.666L541.064,722.424L542.352,722.17L543.638,721.906L544.92,721.63L546.2,721.343L547.479,721.044L548.754,720.735L550.026,720.414L551.296,720.082L552.563,719.738L553.825,719.383L555.086,719.018L556.343,718.641L557.597,718.253L558.847,717.854L560.093,717.444L561.336,717.023L562.575,716.591L563.811,716.148L565.042,715.695L566.269,715.23L567.492,714.754L568.711,714.269L569.926,713.772L571.136,713.264L572.341,712.746L573.542,712.217L574.738,711.677L575.93,711.127L577.116,710.567L578.298,709.996L579.475,709.415L580.646,708.823L581.812,708.221L582.973,707.609L584.128,706.986L585.277,706.353L586.421,705.71L587.56,705.058L588.692,704.395L589.818,703.722L590.939,703.04L592.054,702.346L593.162,701.644L594.265,700.932L595.36,700.21L596.45,699.478L597.533,698.737L598.609,697.987L599.679,697.226L600.741,696.457L601.802,697.224L602.868,697.983L603.942,698.731L605.022,699.47L606.108,700.201L607.201,700.92L608.301,701.631L609.405,702.332L610.518,703.023L611.635,703.704L612.758,704.376L613.888,705.037L615.022,705.688L616.163,706.33L617.31,706.961L618.462,707.583L619.619,708.194L620.781,708.794L621.949,709.385L623.123,709.965L624.301,710.536L625.484,711.095L626.672,711.644L627.864,712.183L629.063,712.711L630.265,713.229L631.471,713.736L632.682,714.232L633.897,714.717L635.116,715.193L636.341,715.657L637.568,716.11L638.8,716.553L640.035,716.985L641.274,717.406L642.518,717.815L643.764,718.214L645.014,718.602L646.268,718.979L647.523,719.345L648.783,719.7L650.046,720.044L651.313,720.377L652.581,720.698L653.853,721.008L655.126,721.307L656.403,721.595L657.683,721.872L658.964,722.137L660.248,722.391L661.534,722.633L662.822,722.865L664.112,723.085L665.404,723.294L666.698,723.491L667.993,723.677L669.291,723.851L670.589,724.014L671.89,724.167L673.19,724.306L674.493,724.435L675.797,724.552L677.101,724.658L678.406,724.752L679.713,724.835L681.02,724.907L682.326,724.966L683.635,725.014L684.942,725.051L686.251,725.077L687.56,725.09L688.869,725.092L690.178,725.083L691.486,725.062L692.795,725.03L694.103,724.986L695.41,724.93L696.717,724.864L698.023,724.786L699.329,724.695L700.634,724.594L701.938,724.481L703.241,724.357L704.543,724.221L705.843,724.074L707.143,723.915L708.439,723.745L709.736,723.563L711.03,723.371L712.323,723.166L713.614,722.951L714.903,722.723L716.189,722.485L717.475,722.235L718.757,721.974L720.037,721.702L721.314,721.419L722.59,721.124L723.862,720.817L725.132,720.501L726.399,720.171L727.663,719.833L728.924,719.482L730.182,719.12L731.437,718.748L732.688,718.364L733.936,717.968L735.18,717.563L736.421,717.146L737.657,716.718L738.891,716.28L740.12,715.831L741.345,715.371L742.566,714.9L743.783,714.419L744.996,713.926L746.204,713.423L747.408,712.91L748.607,712.385L749.802,711.85L750.991,711.305L752.177,710.75L753.356,710.184L754.531,709.607L755.701,709.021L756.866,708.423L758.025,707.816L759.18,707.199L760.328,706.572L761.471,705.934L762.608,705.286L763.739,704.628L764.865,703.96L765.985,703.284L767.099,702.596L768.207,701.899L769.309,701.192L770.403,700.476L771.492,699.75L772.575,699.014L773.65,698.269L774.72,697.514L775.783,696.751L775.783,670.472L774.722,671.239L773.653,671.995L772.578,672.742L771.497,673.479L770.41,674.207L769.315,674.925L768.216,675.634L767.108,676.333L765.996,677.022L764.878,677.702L763.753,678.371L762.622,679.031L761.486,679.68L760.345,680.32L759.197,680.949L758.044,681.569L756.886,682.177L755.722,682.777L754.553,683.365L753.379,683.944L752.2,684.511L751.016,685.069L749.827,685.617L748.634,686.153L747.435,686.679L746.232,687.195L745.024,687.7L743.813,688.194L742.597,688.677L741.376,689.151L740.152,689.613L738.924,690.064L737.691,690.504L736.455,690.934L735.215,691.353L733.972,691.761L732.724,692.158L731.474,692.544L730.22,692.919L728.962,693.283L727.702,693.635L726.438,693.977L725.172,694.307L723.903,694.627L722.631,694.935L721.356,695.232L720.079,695.517L718.8,695.792L717.518,696.055L716.233,696.307L714.946,696.547L713.658,696.777L712.367,696.995L711.075,697.201L709.781,697.396L708.485,697.58L707.188,697.752L705.889,697.913L704.589,698.062L703.287,698.201L701.984,698.327L700.681,698.442L699.376,698.545L698.071,698.638L696.765,698.718L695.458,698.788L694.15,698.845L692.842,698.891L691.534,698.925L690.226,698.949L688.917,698.96L687.607,698.96L686.299,698.949L684.99,698.925L683.683,698.891L682.374,698.845L681.066,698.788L679.76,698.718L678.453,698.638L677.148,698.545L675.844,698.442L674.54,698.327L673.237,698.201L671.936,698.062L670.636,697.913L669.336,697.752L668.039,697.58L666.743,697.396L665.449,697.201L664.156,696.995L662.866,696.777L661.578,696.547L660.291,696.307L659.007,696.055L657.725,695.792L656.445,695.517L655.168,695.232L653.894,694.935L652.621,694.627L651.353,694.307L650.086,693.977L648.822,693.635L647.562,693.283L646.305,692.919L645.051,692.544L643.8,692.158L642.553,691.761L641.31,691.353L640.069,690.934L638.833,690.504L637.601,690.064L636.372,689.613L635.148,689.151L633.928,688.677L632.712,688.194L631.5,687.7L630.292,687.195L629.089,686.679L627.891,686.153L626.697,685.617L625.509,685.069L624.324,684.511L623.146,683.944L621.972,683.365L620.803,682.777L619.639,682.177L618.48,681.569L617.327,680.949L616.18,680.32L615.038,679.68L613.902,679.031L612.771,678.371L611.646,677.702L610.528,677.022L609.416,676.333L608.309,675.634L607.209,674.925L606.114,674.207L605.027,673.479L603.945,672.742L602.871,671.995L601.803,671.239L600.741,670.472L599.676,671.24L598.604,671.997L597.523,672.745L596.438,673.483L595.346,674.212L594.247,674.931L593.143,675.641L592.031,676.341L590.914,677.031L589.79,677.711L588.661,678.381L587.526,679.042L586.386,679.692L585.239,680.333L584.087,680.962L582.93,681.583L581.767,682.192L580.598,682.792L579.425,683.381L578.246,683.96L577.063,684.529L575.873,685.086L574.68,685.634L573.481,686.171L572.278,686.698L571.071,687.213L569.859,687.719L568.643,688.213L567.422,688.698L566.197,689.17L564.968,689.632L563.734,690.085L562.498,690.525L561.257,690.955L560.013,691.374L558.764,691.781L557.513,692.178L556.257,692.564L554.999,692.939L553.737,693.302L552.472,693.655L551.204,693.997L549.933,694.327L548.659,694.646L547.383,694.954L546.104,695.251L544.821,695.536L543.537,695.809L542.251,696.072L540.962,696.324L539.671,696.564L538.378,696.793L537.083,697.01L535.786,697.215L534.487,697.411L533.187,697.593L531.885,697.765L530.582,697.925L529.277,698.074L527.971,698.211L526.664,698.337L525.355,698.452L524.047,698.554L522.736,698.645L521.426,698.725L520.114,698.794L518.802,698.85L517.49,698.895L516.177,698.928L514.864,698.951L513.552,698.96L512.237,698.96L510.926,698.947L509.612,698.923L508.3,698.887L506.987,698.84L505.676,698.781L504.364,698.71L503.054,698.628L501.744,698.536L500.435,698.43L499.127,698.314L497.82,698.186L496.515,698.046L495.21,697.896L493.907,697.733L492.605,697.559L491.306,697.375L490.007,697.177L488.71,696.969L487.416,696.75L486.123,696.519L484.832,696.277L483.544,696.023L482.258,695.758L480.974,695.482L479.692,695.195L478.414,694.896L477.138,694.585L475.865,694.264L474.595,693.932L473.327,693.588L472.063,693.234L470.802,692.868L469.544,692.492L468.289,692.103L467.038,691.705L465.79,691.294L464.547,690.874L463.307,690.442L462.07,690L460.838,689.545L459.609,689.082L458.386,688.606L457.165,688.12L455.95,687.624L454.738,687.116L453.532,686.598L452.33,686.07L451.133,685.531L449.939,684.981L448.752,684.421L447.569,683.85L446.392,683.27L445.219,682.678L444.052,682.077L442.89,681.465L441.733,680.843L440.582,680.211L439.437,679.569L438.297,678.917L437.163,678.254L436.035,677.583L434.913,676.901L433.797,676.209L432.687,675.507L431.583,674.795L430.485,674.075L429.395,673.343L428.311,672.603L427.232,671.853L426.161,671.094L425.096,670.326Z"/>
        <rect x="293.167" y="322.607" width="128.861" height="71.589"/>
        <path d="M172.155,429.72L103.045,429.72L103.045,501.31L209.721,501.31L172.155,429.72Z"/>
        <rect x="350.438" y="222.382" width="14.318" height="85.908"/>
    </g>
</svg>
