<?xml version="1.0" encoding="UTF-8" standalone="no"?>
<!DOCTYPE svg PUBLIC "-//W3C//DTD SVG 1.1//EN" "http://www.w3.org/Graphics/SVG/1.1/DTD/svg11.dtd">
<svg width="100%" height="100%" viewBox="0 0 596 596" version="1.1" xmlns="http://www.w3.org/2000/svg" xmlns:xlink="http://www.w3.org/1999/xlink" xml:space="preserve" xmlns:serif="http://www.serif.com/" style="fill-rule:evenodd;clip-rule:evenodd;stroke-linecap:round;stroke-linejoin:round;stroke-miterlimit:2;">
    <g>
        <path d="M59.81,595.647L535.465,595.647C551.234,595.647 566.356,589.382 577.507,578.232C588.657,567.081 594.922,551.958 594.922,536.19L594.922,60.536C594.922,44.767 588.657,29.644 577.507,18.494C566.356,7.344 551.234,1.079 535.465,1.079L59.81,1.079C44.042,1.079 28.918,7.344 17.768,18.494C6.618,29.644 0.354,44.767 0.354,60.536L0.354,536.19C0.354,551.958 6.618,567.081 17.768,578.232C28.918,589.382 44.042,595.647 59.81,595.647Z" style="fill:white;fill-rule:nonzero;"/>
        <path d="M59.81,595.647L535.465,595.647C551.234,595.647 566.356,589.382 577.507,578.232C588.657,567.081 594.922,551.958 594.922,536.19L594.922,60.536C594.922,44.767 588.657,29.644 577.507,18.494C566.356,7.344 551.234,1.079 535.465,1.079L59.81,1.079C44.042,1.079 28.918,7.344 17.768,18.494C6.618,29.644 0.354,44.767 0.354,60.536L0.354,536.19C0.354,551.958 6.618,567.081 17.768,578.232C28.918,589.382 44.042,595.647 59.81,595.647Z" style="fill:none;stroke:rgb(35,31,32);stroke-width:1px;"/>
        <path d="M499.133,82.171L135.957,131.495L135.957,115.705C90.279,146.781 62.94,198.448 62.94,253.694L62.94,387.027L170.157,381.811L176.118,388.887L78.586,533.061L250.699,533.061L370.49,355.979C377.353,345.835 377.895,332.685 371.892,322.01C365.888,311.335 354.369,304.968 342.136,305.563L334.336,305.942C327.142,314.963 318.368,322.601 308.441,328.484C285.982,341.792 258.245,342.572 235.073,330.544C225.805,325.735 217.369,319.469 210.086,311.987L135.957,315.593L135.957,152.549L477.142,106.21L479.552,134.824C480.211,142.634 485.409,149.323 492.815,151.888C500.222,154.453 508.443,152.412 513.792,146.682C519.138,140.952 520.606,132.608 517.536,125.396L499.133,82.171Z" style="fill:rgb(35,31,32);fill-rule:nonzero;"/>
        <path d="M499.133,82.171L135.957,131.495L135.957,115.705C90.279,146.781 62.94,198.448 62.94,253.694L62.94,387.027L170.157,381.811L176.118,388.887L78.586,533.061L250.699,533.061L370.49,355.979C377.353,345.835 377.895,332.685 371.892,322.01C365.888,311.335 354.369,304.968 342.136,305.563L334.336,305.942C327.142,314.963 318.368,322.601 308.441,328.484C285.982,341.792 258.245,342.572 235.073,330.544C225.805,325.735 217.369,319.469 210.086,311.987L135.957,315.593L135.957,152.549L477.142,106.21L479.552,134.824C480.211,142.634 485.409,149.323 492.815,151.888C500.222,154.453 508.443,152.412 513.792,146.682C519.138,140.952 520.606,132.608 517.536,125.396L499.133,82.171Z" style="fill:none;stroke:rgb(35,31,32);stroke-width:0.71px;"/>
        <path d="M249.489,302.77C263.069,309.819 279.325,309.362 292.489,301.562C305.096,294.091 314.752,282.514 319.839,268.77C325.089,254.588 326.438,239.257 323.746,224.377C321.609,212.558 316.819,201.378 309.735,191.679C303.033,182.501 293.787,175.49 283.14,171.515C268.657,166.106 252.422,168.382 239.986,177.564C229.727,185.137 221.88,195.518 217.392,207.454C208.451,231.231 210.92,257.797 224.091,279.519C230.362,289.37 239.124,297.391 249.489,302.77Z" style="fill:rgb(35,31,32);fill-rule:nonzero;"/>
        <path d="M249.489,302.77C263.069,309.819 279.325,309.362 292.489,301.562C305.096,294.091 314.752,282.514 319.839,268.77C325.089,254.588 326.438,239.257 323.746,224.377C321.609,212.558 316.819,201.378 309.735,191.679C303.033,182.501 293.787,175.49 283.14,171.515C268.657,166.106 252.422,168.382 239.986,177.564C229.727,185.137 221.88,195.518 217.392,207.454C208.451,231.231 210.92,257.797 224.091,279.519C230.362,289.37 239.124,297.391 249.489,302.77Z" style="fill:none;stroke:rgb(35,31,32);stroke-width:0.71px;"/>
    </g>
</svg>
