<?xml version="1.0" encoding="UTF-8" standalone="no"?>
<!DOCTYPE svg PUBLIC "-//W3C//DTD SVG 1.1//EN" "http://www.w3.org/Graphics/SVG/1.1/DTD/svg11.dtd">
<svg width="100%" height="100%" viewBox="0 0 596 596" version="1.1" xmlns="http://www.w3.org/2000/svg" xmlns:xlink="http://www.w3.org/1999/xlink" xml:space="preserve" xmlns:serif="http://www.serif.com/" style="fill-rule:evenodd;clip-rule:evenodd;stroke-linecap:round;stroke-linejoin:round;stroke-miterlimit:2;">
    <g>
        <path d="M59.81,595.647L535.465,595.647C551.234,595.647 566.356,589.382 577.507,578.232C588.657,567.081 594.922,551.958 594.922,536.19L594.922,60.536C594.922,44.767 588.657,29.644 577.507,18.494C566.356,7.344 551.234,1.079 535.465,1.079L59.81,1.079C44.042,1.079 28.918,7.344 17.768,18.494C6.618,29.644 0.354,44.767 0.354,60.536L0.354,536.19C0.354,551.958 6.618,567.081 17.768,578.232C28.918,589.382 44.042,595.647 59.81,595.647Z" style="fill:white;fill-rule:nonzero;"/>
        <path d="M59.81,595.647L535.465,595.647C551.234,595.647 566.356,589.382 577.507,578.232C588.657,567.081 594.922,551.958 594.922,536.19L594.922,60.536C594.922,44.767 588.657,29.644 577.507,18.494C566.356,7.344 551.234,1.079 535.465,1.079L59.81,1.079C44.042,1.079 28.918,7.344 17.768,18.494C6.618,29.644 0.354,44.767 0.354,60.536L0.354,536.19C0.354,551.958 6.618,567.081 17.768,578.232C28.918,589.382 44.042,595.647 59.81,595.647Z" style="fill:none;stroke:rgb(35,31,32);stroke-width:1px;"/>
        <path d="M167.56,124.165C171.152,132.494 172.116,141.721 170.322,150.613C168.842,157.946 166.008,164.939 161.966,171.234C157.059,178.874 149.777,184.69 141.241,187.785C130.582,191.649 118.987,192.103 108.059,189.085C124.465,225.918 157.609,252.593 197.098,260.744C245.934,270.825 295.962,273.85 345.657,269.726L379.468,360.528L364.663,384.891L110.93,306.115C92.334,300.341 80.203,282.474 81.7,263.06C81.896,260.523 80.232,258.215 77.763,257.6C75.294,256.983 72.742,258.238 71.722,260.569C65.773,274.166 65.9,289.654 72.069,303.153C78.238,316.65 89.867,326.881 104.041,331.283L518.774,460.044L526.508,435.139L446.812,410.396L457.979,392.018L385.791,198.157L285.51,124.165L167.56,124.165Z" style="fill:rgb(35,31,32);fill-rule:nonzero;"/>
        <path d="M167.56,124.165C171.152,132.494 172.116,141.721 170.322,150.613C168.842,157.946 166.008,164.939 161.966,171.234C157.059,178.874 149.777,184.69 141.241,187.785C130.582,191.649 118.987,192.103 108.059,189.085C124.465,225.918 157.609,252.593 197.098,260.744C245.934,270.825 295.962,273.85 345.657,269.726L379.468,360.528L364.663,384.891L110.93,306.115C92.334,300.341 80.203,282.474 81.7,263.06C81.896,260.523 80.232,258.215 77.763,257.6C75.294,256.983 72.742,258.238 71.722,260.569C65.773,274.166 65.9,289.654 72.069,303.153C78.238,316.65 89.867,326.881 104.041,331.283L518.774,460.044L526.508,435.139L446.812,410.396L457.979,392.018L385.791,198.157L285.51,124.165L167.56,124.165Z" style="fill:none;stroke:rgb(35,31,32);stroke-width:0.71px;"/>
        <path d="M152.009,159.055C155.866,150.428 156.431,140.688 153.597,131.673C150.437,121.614 144.92,112.455 137.506,104.958C130.778,98.155 122.588,92.973 113.558,89.808C105.112,86.848 95.99,86.386 87.288,88.478C80.66,90.072 74.877,94.109 71.098,99.783C67.356,105.397 65.357,111.993 65.35,118.74C65.345,123.863 66.192,128.952 67.856,133.797C70.599,141.784 74.958,149.12 80.66,155.348C89.647,165.918 102.068,172.987 115.746,175.315C123.298,176.6 131.061,175.692 138.111,172.696C144.3,170.067 149.265,165.193 152.009,159.055Z" style="fill:rgb(35,31,32);fill-rule:nonzero;"/>
        <path d="M152.009,159.055C155.866,150.428 156.431,140.688 153.597,131.673C150.437,121.614 144.92,112.455 137.506,104.958C130.778,98.155 122.588,92.973 113.558,89.808C105.112,86.848 95.99,86.386 87.288,88.478C80.66,90.072 74.877,94.109 71.098,99.783C67.356,105.397 65.357,111.993 65.35,118.74C65.345,123.863 66.192,128.952 67.856,133.797C70.599,141.784 74.958,149.12 80.66,155.348C89.647,165.918 102.068,172.987 115.746,175.315C123.298,176.6 131.061,175.692 138.111,172.696C144.3,170.067 149.265,165.193 152.009,159.055Z" style="fill:none;stroke:rgb(35,31,32);stroke-width:0.71px;"/>
    </g>
</svg>
