<?xml version="1.0" encoding="UTF-8" standalone="no"?>
<!DOCTYPE svg PUBLIC "-//W3C//DTD SVG 1.1//EN" "http://www.w3.org/Graphics/SVG/1.1/DTD/svg11.dtd">
<svg width="100%" height="100%" viewBox="0 0 853 853" version="1.1" xmlns="http://www.w3.org/2000/svg" xmlns:xlink="http://www.w3.org/1999/xlink" xml:space="preserve" xmlns:serif="http://www.serif.com/" style="fill-rule:evenodd;clip-rule:evenodd;stroke-linejoin:round;stroke-miterlimit:2;">
    <g>
        <path d="M71.866,851.394L780.527,851.394L781.152,851.392L781.778,851.383L782.403,851.37L783.028,851.35L783.653,851.325L784.278,851.295L784.902,851.259L785.526,851.218L786.149,851.171L786.773,851.119L787.395,851.061L788.017,850.997L788.639,850.929L789.26,850.854L789.88,850.774L790.5,850.689L791.118,850.598L791.736,850.502L792.353,850.4L792.97,850.293L793.585,850.181L794.199,850.063L794.812,849.94L795.424,849.811L796.035,849.677L796.644,849.537L797.253,849.392L797.86,849.242L798.465,849.086L799.07,848.925L799.673,848.759L800.274,848.587L800.874,848.41L801.472,848.228L802.069,848.041L802.663,847.848L803.257,847.65L803.848,847.447L804.438,847.238L805.025,847.025L805.611,846.806L806.195,846.582L806.777,846.353L807.357,846.119L807.935,845.879L808.51,845.635L809.084,845.386L809.655,845.131L810.224,844.871L810.791,844.607L811.355,844.337L811.917,844.063L812.476,843.783L813.033,843.499L813.588,843.21L814.139,842.915L814.689,842.616L815.235,842.312L815.779,842.004L816.32,841.69L816.859,841.372L817.394,841.049L817.927,840.721L818.456,840.389L818.983,840.052L819.507,839.71L820.028,839.364L820.545,839.013L821.06,838.658L821.571,838.298L822.08,837.933L822.584,837.564L823.086,837.191L823.585,836.813L824.079,836.431L824.571,836.044L825.059,835.654L825.544,835.258L826.025,834.859L826.503,834.455L826.977,834.048L827.447,833.636L827.914,833.22L828.378,832.799L828.837,832.375L829.293,831.947L829.744,831.514L830.192,831.078L830.637,830.638L831.077,830.194L831.513,829.746L831.945,829.294L832.374,828.838L832.798,828.379L833.218,827.916L833.634,827.449L834.046,826.978L834.454,826.504L834.858,826.027L835.257,825.545L835.652,825.061L836.043,824.572L836.43,824.081L836.812,823.586L837.19,823.087L837.563,822.586L837.932,822.081L838.296,821.573L838.656,821.061L839.012,820.547L839.363,820.029L839.709,819.508L840.051,818.984L840.388,818.458L840.72,817.928L841.048,817.395L841.371,816.86L841.689,816.322L842.002,815.78L842.311,815.237L842.615,814.69L842.914,814.141L843.208,813.589L843.498,813.034L843.782,812.478L844.061,811.918L844.336,811.356L844.606,810.792L844.87,810.225L845.13,809.656L845.384,809.085L845.634,808.512L845.878,807.936L846.117,807.358L846.352,806.778L846.581,806.197L846.805,805.613L847.023,805.027L847.237,804.439L847.445,803.849L847.649,803.258L847.847,802.665L848.039,802.07L848.227,801.473L848.409,800.875L848.586,800.275L848.758,799.674L848.924,799.071L849.085,798.467L849.241,797.861L849.391,797.254L849.536,796.646L849.675,796.036L849.809,795.425L849.938,794.813L850.062,794.2L850.18,793.586L850.292,792.971L850.399,792.355L850.501,791.738L850.597,791.12L850.688,790.501L850.773,789.881L850.853,789.261L850.927,788.64L850.996,788.019L851.059,787.397L851.117,786.774L851.17,786.151L851.217,785.527L851.258,784.903L851.294,784.279L851.324,783.654L851.349,783.029L851.368,782.404L851.382,781.779L851.39,781.154L851.393,780.528L851.393,71.867L851.39,71.242L851.382,70.616L851.368,69.991L851.349,69.366L851.324,68.741L851.294,68.116L851.258,67.492L851.217,66.868L851.17,66.245L851.117,65.621L851.059,64.999L850.996,64.377L850.927,63.755L850.853,63.134L850.773,62.514L850.688,61.894L850.597,61.276L850.501,60.658L850.399,60.041L850.292,59.424L850.18,58.809L850.062,58.195L849.938,57.582L849.809,56.97L849.675,56.359L849.536,55.75L849.391,55.141L849.241,54.534L849.085,53.929L848.924,53.324L848.758,52.721L848.586,52.12L848.409,51.52L848.227,50.922L848.039,50.325L847.847,49.731L847.649,49.137L847.445,48.546L847.237,47.956L847.023,47.369L846.805,46.783L846.581,46.199L846.352,45.617L846.117,45.037L845.878,44.459L845.634,43.884L845.384,43.31L845.13,42.739L844.87,42.17L844.606,41.603L844.336,41.039L844.061,40.477L843.782,39.918L843.498,39.361L843.208,38.806L842.914,38.255L842.615,37.705L842.311,37.159L842.002,36.615L841.689,36.074L841.371,35.535L841.048,35L840.72,34.467L840.388,33.938L840.051,33.411L839.709,32.887L839.363,32.366L839.012,31.849L838.656,31.334L838.296,30.823L837.932,30.314L837.563,29.81L837.19,29.308L836.812,28.809L836.43,28.315L836.043,27.823L835.652,27.335L835.257,26.85L834.858,26.369L834.454,25.891L834.046,25.417L833.634,24.947L833.218,24.48L832.798,24.016L832.374,23.557L831.945,23.101L831.513,22.65L831.077,22.202L830.637,21.757L830.192,21.317L829.744,20.881L829.293,20.449L828.837,20.02L828.378,19.596L827.914,19.176L827.447,18.76L826.977,18.348L826.503,17.94L826.025,17.536L825.544,17.137L825.059,16.742L824.571,16.351L824.079,15.964L823.585,15.582L823.086,15.204L822.584,14.831L822.08,14.462L821.571,14.098L821.06,13.738L820.545,13.382L820.028,13.031L819.507,12.685L818.983,12.343L818.456,12.006L817.927,11.674L817.394,11.346L816.859,11.023L816.32,10.705L815.779,10.392L815.235,10.083L814.689,9.779L814.139,9.48L813.588,9.186L813.033,8.896L812.476,8.612L811.917,8.333L811.355,8.058L810.791,7.788L810.224,7.524L809.655,7.264L809.084,7.01L808.51,6.76L807.935,6.516L807.357,6.277L806.777,6.042L806.195,5.813L805.611,5.589L805.025,5.371L804.438,5.157L803.848,4.949L803.257,4.745L802.663,4.547L802.069,4.355L801.472,4.167L800.874,3.985L800.274,3.808L799.673,3.636L799.07,3.47L798.465,3.309L797.86,3.153L797.253,3.003L796.644,2.858L796.035,2.719L795.424,2.585L794.812,2.456L794.199,2.332L793.585,2.214L792.97,2.102L792.353,1.995L791.736,1.893L791.118,1.797L790.5,1.706L789.88,1.621L789.26,1.541L788.639,1.467L788.017,1.398L787.395,1.335L786.773,1.277L786.149,1.224L785.526,1.177L784.902,1.136L784.278,1.1L783.653,1.07L783.028,1.045L782.403,1.026L781.778,1.012L781.152,1.004L780.527,1.001L71.866,1.001L71.24,1.004L70.615,1.012L69.99,1.026L69.365,1.045L68.74,1.07L68.115,1.1L67.491,1.136L66.867,1.177L66.243,1.224L65.62,1.277L64.997,1.335L64.375,1.398L63.754,1.467L63.133,1.541L62.513,1.621L61.893,1.706L61.274,1.797L60.656,1.893L60.039,1.995L59.423,2.102L58.808,2.214L58.194,2.332L57.581,2.456L56.969,2.585L56.358,2.719L55.748,2.858L55.14,3.003L54.533,3.153L53.927,3.309L53.323,3.47L52.72,3.636L52.119,3.808L51.519,3.985L50.921,4.167L50.324,4.355L49.729,4.547L49.136,4.745L48.545,4.949L47.955,5.157L47.367,5.371L46.781,5.589L46.197,5.813L45.616,6.042L45.036,6.277L44.458,6.516L43.882,6.76L43.309,7.01L42.738,7.264L42.169,7.524L41.602,7.788L41.038,8.058L40.476,8.333L39.916,8.612L39.36,8.896L38.805,9.186L38.253,9.48L37.704,9.779L37.157,10.083L36.614,10.392L36.072,10.705L35.534,11.023L34.999,11.346L34.466,11.674L33.936,12.006L33.41,12.343L32.886,12.685L32.365,13.031L31.847,13.382L31.333,13.738L30.821,14.098L30.313,14.462L29.808,14.831L29.307,15.204L28.808,15.582L28.313,15.964L27.822,16.351L27.333,16.742L26.849,17.137L26.367,17.536L25.89,17.94L25.416,18.348L24.945,18.76L24.478,19.176L24.015,19.596L23.556,20.02L23.1,20.449L22.648,20.881L22.2,21.317L21.756,21.757L21.316,22.202L20.88,22.65L20.447,23.101L20.019,23.557L19.595,24.016L19.174,24.48L18.758,24.947L18.346,25.417L17.939,25.891L17.535,26.369L17.136,26.85L16.74,27.335L16.35,27.823L15.963,28.315L15.581,28.809L15.203,29.308L14.83,29.81L14.461,30.314L14.096,30.823L13.736,31.334L13.381,31.849L13.03,32.366L12.684,32.887L12.342,33.411L12.005,33.938L11.673,34.467L11.345,35L11.022,35.535L10.704,36.074L10.39,36.615L10.082,37.159L9.778,37.705L9.479,38.255L9.184,38.806L8.895,39.361L8.611,39.918L8.331,40.477L8.057,41.039L7.787,41.603L7.523,42.17L7.263,42.739L7.008,43.31L6.759,43.884L6.515,44.459L6.275,45.037L6.041,45.617L5.812,46.199L5.588,46.783L5.369,47.369L5.156,47.956L4.947,48.546L4.744,49.137L4.546,49.731L4.353,50.325L4.166,50.922L3.984,51.52L3.807,52.12L3.635,52.721L3.469,53.324L3.308,53.929L3.152,54.534L3.002,55.141L2.857,55.75L2.717,56.359L2.583,56.97L2.454,57.582L2.331,58.195L2.213,58.809L2.101,59.424L1.994,60.041L1.892,60.658L1.796,61.276L1.705,61.894L1.62,62.514L1.54,63.134L1.465,63.755L1.397,64.377L1.333,64.999L1.275,65.621L1.223,66.245L1.176,66.868L1.135,67.492L1.099,68.116L1.069,68.741L1.044,69.366L1.024,69.991L1.011,70.616L1.002,71.242L1,71.867L1,780.528L1.002,781.154L1.011,781.779L1.024,782.404L1.044,783.029L1.069,783.654L1.099,784.279L1.135,784.903L1.176,785.527L1.223,786.151L1.275,786.774L1.333,787.397L1.397,788.019L1.465,788.64L1.54,789.261L1.62,789.881L1.705,790.501L1.796,791.12L1.892,791.738L1.994,792.355L2.101,792.971L2.213,793.586L2.331,794.2L2.454,794.813L2.583,795.425L2.717,796.036L2.857,796.646L3.002,797.254L3.152,797.861L3.308,798.467L3.469,799.071L3.635,799.674L3.807,800.275L3.984,800.875L4.166,801.473L4.353,802.07L4.546,802.665L4.744,803.258L4.947,803.849L5.156,804.439L5.369,805.027L5.588,805.613L5.812,806.197L6.041,806.778L6.275,807.358L6.515,807.936L6.759,808.512L7.008,809.085L7.263,809.656L7.523,810.225L7.787,810.792L8.057,811.356L8.331,811.918L8.611,812.478L8.895,813.034L9.184,813.589L9.479,814.141L9.778,814.69L10.082,815.237L10.39,815.78L10.704,816.322L11.022,816.86L11.345,817.395L11.673,817.928L12.005,818.458L12.342,818.984L12.684,819.508L13.03,820.029L13.381,820.547L13.736,821.061L14.096,821.573L14.461,822.081L14.83,822.586L15.203,823.087L15.581,823.586L15.963,824.081L16.35,824.572L16.74,825.061L17.136,825.545L17.535,826.027L17.939,826.504L18.346,826.978L18.758,827.449L19.174,827.916L19.595,828.379L20.019,828.838L20.447,829.294L20.88,829.746L21.316,830.194L21.756,830.638L22.2,831.078L22.648,831.514L23.1,831.947L23.556,832.375L24.015,832.799L24.478,833.22L24.945,833.636L25.416,834.048L25.89,834.455L26.367,834.859L26.849,835.258L27.333,835.654L27.822,836.044L28.313,836.431L28.808,836.813L29.307,837.191L29.808,837.564L30.313,837.933L30.821,838.298L31.333,838.658L31.847,839.013L32.365,839.364L32.886,839.71L33.41,840.052L33.936,840.389L34.466,840.721L34.999,841.049L35.534,841.372L36.072,841.69L36.614,842.004L37.157,842.312L37.704,842.616L38.253,842.915L38.805,843.21L39.36,843.499L39.916,843.783L40.476,844.063L41.038,844.337L41.602,844.607L42.169,844.871L42.738,845.131L43.309,845.386L43.882,845.635L44.458,845.879L45.036,846.119L45.616,846.353L46.197,846.582L46.781,846.806L47.367,847.025L47.955,847.238L48.545,847.447L49.136,847.65L49.729,847.848L50.324,848.041L50.921,848.228L51.519,848.41L52.119,848.587L52.72,848.759L53.323,848.925L53.927,849.086L54.533,849.242L55.14,849.392L55.748,849.537L56.358,849.677L56.969,849.811L57.581,849.94L58.194,850.063L58.808,850.181L59.423,850.293L60.039,850.4L60.656,850.502L61.274,850.598L61.893,850.689L62.513,850.774L63.133,850.854L63.754,850.929L64.375,850.997L64.997,851.061L65.62,851.119L66.243,851.171L66.867,851.218L67.491,851.259L68.115,851.295L68.74,851.325L69.365,851.35L69.99,851.37L70.615,851.383L71.24,851.392L71.866,851.394Z" style="fill:rgb(35,31,32);"/>
        <path d="M71.866,815.961L780.527,815.961L780.84,815.96L781.152,815.956L781.465,815.949L781.778,815.939L782.09,815.927L782.402,815.912L782.714,815.894L783.027,815.873L783.338,815.85L783.65,815.823L783.961,815.795L784.272,815.763L784.583,815.728L784.894,815.691L785.204,815.651L785.513,815.609L785.823,815.563L786.132,815.515L786.44,815.464L786.748,815.411L787.056,815.355L787.363,815.296L787.67,815.234L787.976,815.17L788.281,815.102L788.586,815.033L788.89,814.96L789.193,814.885L789.496,814.807L789.798,814.727L790.1,814.644L790.4,814.558L790.7,814.469L791,814.378L791.298,814.285L791.595,814.188L791.892,814.089L792.188,813.988L792.482,813.883L792.776,813.777L793.069,813.667L793.361,813.555L793.652,813.441L793.942,813.324L794.231,813.204L794.519,813.082L794.805,812.957L795.091,812.83L795.376,812.7L795.659,812.568L795.941,812.433L796.222,812.296L796.502,812.156L796.78,812.014L797.057,811.869L797.333,811.722L797.608,811.572L797.881,811.42L798.153,811.266L798.424,811.109L798.693,810.95L798.961,810.789L799.227,810.625L799.492,810.459L799.755,810.29L800.017,810.119L800.277,809.946L800.536,809.771L800.793,809.593L801.049,809.413L801.303,809.231L801.556,809.046L801.807,808.86L802.056,808.671L802.303,808.48L802.549,808.286L802.793,808.091L803.036,807.893L803.276,807.694L803.515,807.492L803.752,807.288L803.987,807.082L804.221,806.874L804.452,806.664L804.682,806.452L804.91,806.238L805.136,806.021L805.36,805.803L805.582,805.583L805.802,805.361L806.02,805.137L806.236,804.911L806.45,804.683L806.663,804.454L806.873,804.222L807.081,803.989L807.287,803.753L807.491,803.516L807.692,803.277L807.892,803.037L808.09,802.794L808.285,802.55L808.478,802.305L808.669,802.057L808.858,801.808L809.045,801.557L809.23,801.305L809.412,801.05L809.592,800.795L809.769,800.538L809.945,800.279L810.118,800.018L810.289,799.756L810.457,799.493L810.624,799.228L810.787,798.962L810.949,798.694L811.108,798.425L811.265,798.154L811.419,797.882L811.571,797.609L811.721,797.335L811.868,797.059L812.012,796.781L812.155,796.503L812.294,796.223L812.432,795.942L812.566,795.66L812.699,795.377L812.828,795.092L812.956,794.807L813.08,794.52L813.203,794.232L813.322,793.943L813.439,793.653L813.554,793.362L813.666,793.07L813.775,792.778L813.882,792.484L813.986,792.189L814.088,791.893L814.187,791.597L814.283,791.299L814.377,791.001L814.468,790.702L814.557,790.402L814.642,790.101L814.725,789.8L814.806,789.498L814.884,789.195L814.959,788.891L815.031,788.587L815.101,788.282L815.168,787.977L815.233,787.671L815.294,787.364L815.353,787.057L815.41,786.75L815.463,786.442L815.514,786.133L815.562,785.824L815.607,785.515L815.65,785.205L815.69,784.895L815.727,784.584L815.762,784.274L815.793,783.962L815.822,783.651L815.848,783.34L815.872,783.028L815.892,782.716L815.91,782.404L815.926,782.091L815.938,781.779L815.948,781.466L815.955,781.154L815.959,780.841L815.96,780.528L815.96,71.867L815.959,71.554L815.955,71.242L815.948,70.929L815.938,70.616L815.926,70.304L815.91,69.992L815.892,69.68L815.872,69.367L815.848,69.056L815.822,68.744L815.793,68.433L815.762,68.122L815.727,67.811L815.69,67.5L815.65,67.19L815.607,66.881L815.562,66.571L815.514,66.262L815.463,65.954L815.41,65.646L815.353,65.338L815.294,65.031L815.233,64.724L815.168,64.418L815.101,64.113L815.031,63.808L814.959,63.504L814.884,63.201L814.806,62.898L814.725,62.596L814.642,62.294L814.557,61.994L814.468,61.694L814.377,61.394L814.283,61.096L814.187,60.799L814.088,60.502L813.986,60.206L813.882,59.912L813.775,59.618L813.666,59.325L813.554,59.033L813.439,58.742L813.322,58.452L813.203,58.163L813.08,57.875L812.956,57.589L812.828,57.303L812.699,57.018L812.566,56.735L812.432,56.453L812.294,56.172L812.155,55.892L812.012,55.614L811.868,55.337L811.721,55.061L811.571,54.786L811.419,54.513L811.265,54.241L811.108,53.97L810.949,53.701L810.787,53.433L810.624,53.167L810.457,52.902L810.289,52.639L810.118,52.377L809.945,52.117L809.769,51.858L809.592,51.601L809.412,51.345L809.23,51.091L809.045,50.838L808.858,50.587L808.669,50.338L808.478,50.091L808.285,49.845L808.09,49.601L807.892,49.358L807.692,49.118L807.491,48.879L807.287,48.642L807.081,48.407L806.873,48.173L806.663,47.942L806.45,47.712L806.236,47.484L806.02,47.258L805.802,47.034L805.582,46.812L805.36,46.592L805.136,46.374L804.91,46.158L804.682,45.944L804.452,45.731L804.221,45.521L803.987,45.313L803.752,45.107L803.515,44.903L803.276,44.702L803.036,44.502L802.793,44.304L802.549,44.109L802.303,43.916L802.056,43.725L801.807,43.536L801.556,43.349L801.303,43.164L801.049,42.982L800.793,42.802L800.536,42.625L800.277,42.449L800.017,42.276L799.755,42.105L799.492,41.937L799.227,41.77L798.961,41.607L798.693,41.445L798.424,41.286L798.153,41.129L797.881,40.975L797.608,40.823L797.333,40.673L797.057,40.526L796.78,40.382L796.502,40.239L796.222,40.1L795.941,39.962L795.659,39.828L795.376,39.695L795.091,39.566L794.805,39.438L794.519,39.314L794.231,39.191L793.942,39.072L793.652,38.955L793.361,38.84L793.069,38.728L792.776,38.619L792.482,38.512L792.188,38.408L791.892,38.306L791.595,38.207L791.298,38.111L791,38.017L790.7,37.926L790.4,37.837L790.1,37.752L789.798,37.669L789.496,37.588L789.193,37.51L788.89,37.435L788.586,37.363L788.281,37.293L787.976,37.226L787.67,37.161L787.363,37.1L787.056,37.041L786.748,36.984L786.44,36.931L786.132,36.88L785.823,36.832L785.513,36.787L785.204,36.744L784.894,36.704L784.583,36.667L784.272,36.632L783.961,36.601L783.65,36.572L783.338,36.546L783.027,36.522L782.714,36.502L782.402,36.484L782.09,36.468L781.778,36.456L781.465,36.446L781.152,36.439L780.84,36.435L780.527,36.434L71.866,36.434L71.553,36.435L71.24,36.439L70.928,36.446L70.615,36.456L70.303,36.468L69.99,36.484L69.678,36.502L69.366,36.522L69.054,36.546L68.743,36.572L68.432,36.601L68.12,36.632L67.81,36.667L67.499,36.704L67.189,36.744L66.879,36.787L66.57,36.832L66.261,36.88L65.952,36.931L65.644,36.984L65.337,37.041L65.03,37.1L64.723,37.161L64.417,37.226L64.112,37.293L63.807,37.363L63.503,37.435L63.199,37.51L62.896,37.588L62.594,37.669L62.293,37.752L61.992,37.837L61.692,37.926L61.393,38.017L61.095,38.111L60.797,38.207L60.501,38.306L60.205,38.408L59.91,38.512L59.616,38.619L59.324,38.728L59.032,38.84L58.741,38.955L58.451,39.072L58.162,39.191L57.874,39.314L57.587,39.438L57.302,39.566L57.017,39.695L56.734,39.828L56.452,39.962L56.171,40.1L55.891,40.239L55.613,40.382L55.335,40.526L55.059,40.673L54.785,40.823L54.512,40.975L54.24,41.129L53.969,41.286L53.7,41.445L53.432,41.607L53.166,41.77L52.901,41.937L52.638,42.105L52.376,42.276L52.115,42.449L51.856,42.625L51.599,42.802L51.344,42.982L51.089,43.164L50.837,43.349L50.586,43.536L50.337,43.725L50.089,43.916L49.844,44.109L49.6,44.304L49.357,44.502L49.117,44.702L48.878,44.903L48.641,45.107L48.405,45.313L48.172,45.521L47.94,45.731L47.711,45.944L47.483,46.158L47.257,46.374L47.033,46.592L46.811,46.812L46.591,47.034L46.373,47.258L46.156,47.484L45.942,47.712L45.73,47.942L45.52,48.173L45.312,48.407L45.106,48.642L44.902,48.879L44.7,49.118L44.501,49.358L44.303,49.601L44.108,49.845L43.914,50.091L43.723,50.338L43.534,50.587L43.348,50.838L43.163,51.091L42.981,51.345L42.801,51.601L42.623,51.858L42.448,52.117L42.275,52.377L42.104,52.639L41.935,52.902L41.769,53.167L41.605,53.433L41.444,53.701L41.285,53.97L41.128,54.241L40.974,54.513L40.822,54.786L40.672,55.061L40.525,55.337L40.38,55.614L40.238,55.892L40.098,56.172L39.961,56.453L39.826,56.735L39.694,57.018L39.564,57.303L39.437,57.589L39.312,57.875L39.19,58.163L39.07,58.452L38.953,58.742L38.839,59.033L38.727,59.325L38.617,59.618L38.511,59.912L38.406,60.206L38.305,60.502L38.206,60.799L38.109,61.096L38.016,61.394L37.925,61.694L37.836,61.994L37.75,62.294L37.667,62.596L37.587,62.898L37.509,63.201L37.434,63.504L37.361,63.808L37.292,64.113L37.224,64.418L37.16,64.724L37.098,65.031L37.039,65.338L36.983,65.646L36.93,65.954L36.879,66.262L36.831,66.571L36.785,66.881L36.743,67.19L36.703,67.5L36.666,67.811L36.631,68.122L36.599,68.433L36.571,68.744L36.544,69.056L36.521,69.367L36.5,69.68L36.482,69.992L36.467,70.304L36.455,70.616L36.445,70.929L36.438,71.242L36.434,71.554L36.433,71.867L36.433,780.528L36.434,780.841L36.438,781.154L36.445,781.466L36.455,781.779L36.467,782.091L36.482,782.404L36.5,782.716L36.521,783.028L36.544,783.34L36.571,783.651L36.599,783.962L36.631,784.274L36.666,784.584L36.703,784.895L36.743,785.205L36.785,785.515L36.831,785.824L36.879,786.133L36.93,786.442L36.983,786.75L37.039,787.057L37.098,787.364L37.16,787.671L37.224,787.977L37.292,788.282L37.361,788.587L37.434,788.891L37.509,789.195L37.587,789.498L37.667,789.8L37.75,790.101L37.836,790.402L37.925,790.702L38.016,791.001L38.109,791.299L38.206,791.597L38.305,791.893L38.406,792.189L38.511,792.484L38.617,792.778L38.727,793.07L38.839,793.362L38.953,793.653L39.07,793.943L39.19,794.232L39.312,794.52L39.437,794.807L39.564,795.092L39.694,795.377L39.826,795.66L39.961,795.942L40.098,796.223L40.238,796.503L40.38,796.781L40.525,797.059L40.672,797.335L40.822,797.609L40.974,797.882L41.128,798.154L41.285,798.425L41.444,798.694L41.605,798.962L41.769,799.228L41.935,799.493L42.104,799.756L42.275,800.018L42.448,800.279L42.623,800.538L42.801,800.795L42.981,801.05L43.163,801.305L43.348,801.557L43.534,801.808L43.723,802.057L43.914,802.305L44.108,802.55L44.303,802.794L44.501,803.037L44.7,803.277L44.902,803.516L45.106,803.753L45.312,803.989L45.52,804.222L45.73,804.454L45.942,804.683L46.156,804.911L46.373,805.137L46.591,805.361L46.811,805.583L47.033,805.803L47.257,806.021L47.483,806.238L47.711,806.452L47.94,806.664L48.172,806.874L48.405,807.082L48.641,807.288L48.878,807.492L49.117,807.694L49.357,807.893L49.6,808.091L49.844,808.286L50.089,808.48L50.337,808.671L50.586,808.86L50.837,809.046L51.089,809.231L51.344,809.413L51.599,809.593L51.856,809.771L52.115,809.946L52.376,810.119L52.638,810.29L52.901,810.459L53.166,810.625L53.432,810.789L53.7,810.95L53.969,811.109L54.24,811.266L54.512,811.42L54.785,811.572L55.059,811.722L55.335,811.869L55.613,812.014L55.891,812.156L56.171,812.296L56.452,812.433L56.734,812.568L57.017,812.7L57.302,812.83L57.587,812.957L57.874,813.082L58.162,813.204L58.451,813.324L58.741,813.441L59.032,813.555L59.324,813.667L59.616,813.777L59.91,813.883L60.205,813.988L60.501,814.089L60.797,814.188L61.095,814.285L61.393,814.378L61.692,814.469L61.992,814.558L62.293,814.644L62.594,814.727L62.896,814.807L63.199,814.885L63.503,814.96L63.807,815.033L64.112,815.102L64.417,815.17L64.723,815.234L65.03,815.296L65.337,815.355L65.644,815.411L65.952,815.464L66.261,815.515L66.57,815.563L66.879,815.609L67.189,815.651L67.499,815.691L67.81,815.728L68.12,815.763L68.432,815.795L68.743,815.823L69.054,815.85L69.366,815.873L69.678,815.894L69.99,815.912L70.303,815.927L70.615,815.939L70.928,815.949L71.24,815.956L71.553,815.96L71.866,815.961Z" style="fill:white;"/>
        <path d="M305.527,460.419L311.789,484.286L312.068,485.367L312.336,486.451L312.595,487.538L312.844,488.627L313.082,489.718L313.311,490.812L313.53,491.907L313.738,493.004L313.937,494.104L314.125,495.205L314.304,496.307L314.472,497.412L314.63,498.517L314.778,499.624L314.916,500.733L315.044,501.843L315.161,502.953L315.268,504.065L315.366,505.178L315.452,506.292L315.529,507.406L315.596,508.521L315.652,509.637L315.698,510.753L315.734,511.869L315.759,512.986L315.775,514.103L315.78,515.22L315.78,554.604L315.782,554.728L315.784,554.79L315.787,554.853L315.793,554.977L315.797,555.039L315.807,555.163L315.819,555.287L315.826,555.348L315.833,555.41L315.841,555.472L315.85,555.533L315.868,555.657L315.878,555.718L315.9,555.84L315.924,555.962L315.936,556.023L315.964,556.145L315.978,556.205L315.993,556.266L316.008,556.326L316.04,556.446L316.057,556.506L316.075,556.565L316.093,556.625L316.131,556.743L316.15,556.803L316.17,556.861L316.191,556.92L316.212,556.978L316.234,557.037L316.278,557.153L316.302,557.211L316.325,557.268L316.349,557.325L316.399,557.439L316.425,557.496L316.451,557.552L316.478,557.609L316.505,557.664L316.561,557.776L316.589,557.831L316.618,557.886L316.648,557.941L316.678,557.995L316.709,558.049L316.74,558.103L316.771,558.157L316.803,558.21L316.836,558.263L316.868,558.316L316.902,558.368L316.936,558.421L316.97,558.472L317.005,558.524L317.075,558.626L317.111,558.677L317.185,558.777L317.222,558.827L317.26,558.876L317.298,558.925L317.337,558.974L317.376,559.022L317.456,559.118L317.496,559.165L317.578,559.259L317.662,559.351L317.704,559.397L317.747,559.442L317.79,559.486L317.834,559.531L317.878,559.575L317.922,559.618L318.057,559.747L318.103,559.789L318.149,559.83L318.196,559.871L318.29,559.953L318.338,559.993L318.434,560.071L318.483,560.11L318.581,560.186L318.681,560.26L318.731,560.297L318.782,560.333L318.833,560.369L318.884,560.404L318.936,560.438L318.988,560.473L319.04,560.506L319.092,560.54L319.145,560.573L319.198,560.605L319.252,560.637L319.305,560.669L319.359,560.7L319.413,560.73L319.468,560.76L319.522,560.79L319.577,560.819L319.633,560.847L319.688,560.876L319.8,560.93L319.856,560.957L319.912,560.983L319.969,561.009L320.083,561.059L320.14,561.083L320.198,561.107L320.255,561.13L320.313,561.152L320.371,561.175L320.43,561.196L320.488,561.217L320.547,561.238L320.606,561.258L320.665,561.278L320.724,561.297L320.783,561.315L320.903,561.351L320.962,561.368L321.082,561.4L321.143,561.416L321.203,561.43L321.264,561.445L321.324,561.459L321.446,561.485L321.507,561.497L321.568,561.508L321.629,561.52L321.69,561.53L321.752,561.54L321.813,561.55L321.875,561.559L321.936,561.567L321.998,561.575L322.122,561.589L322.183,561.595L322.245,561.601L322.369,561.611L322.431,561.615L322.494,561.619L322.556,561.622L322.68,561.626L322.804,561.628L699.646,561.628L699.832,561.63L700.019,561.633L700.205,561.637L700.391,561.643L700.577,561.651L700.763,561.66L700.949,561.671L701.135,561.684L701.321,561.698L701.506,561.714L701.692,561.732L701.877,561.751L702.062,561.772L702.247,561.794L702.432,561.818L702.616,561.844L702.801,561.871L702.985,561.9L703.168,561.931L703.352,561.963L703.535,561.996L703.718,562.032L703.901,562.069L704.083,562.107L704.265,562.147L704.446,562.189L704.627,562.232L704.808,562.277L704.989,562.324L705.169,562.372L705.348,562.421L705.527,562.472L705.706,562.525L705.884,562.58L706.062,562.635L706.239,562.693L706.416,562.752L706.592,562.812L706.768,562.874L706.943,562.938L707.117,563.003L707.291,563.07L707.465,563.138L707.637,563.208L707.809,563.279L707.981,563.352L708.152,563.426L708.322,563.502L708.491,563.579L708.66,563.657L708.829,563.738L708.996,563.819L709.163,563.902L709.329,563.987L709.494,564.073L709.658,564.16L709.822,564.249L709.985,564.34L710.147,564.431L710.308,564.524L710.469,564.619L710.629,564.715L710.787,564.812L710.945,564.911L711.102,565.011L711.259,565.113L711.414,565.216L711.568,565.32L711.722,565.425L711.874,565.532L712.026,565.641L712.177,565.75L712.326,565.861L712.475,565.973L712.623,566.087L712.77,566.202L712.915,566.318L713.06,566.435L713.204,566.554L713.346,566.673L713.488,566.795L713.628,566.917L713.768,567.04L713.906,567.165L714.043,567.291L714.179,567.418L714.314,567.547L714.448,567.676L714.581,567.807L714.712,567.939L714.843,568.072L714.972,568.206L715.1,568.341L715.227,568.478L715.353,568.615L715.477,568.754L715.6,568.894L715.722,569.034L715.843,569.176L715.963,569.319L716.081,569.463L716.198,569.608L716.314,569.754L716.428,569.901L716.541,570.049L716.653,570.198L716.764,570.348L716.873,570.499L716.981,570.651L717.087,570.803L717.193,570.957L717.296,571.112L717.399,571.267L717.5,571.424L717.6,571.581L717.698,571.739L717.795,571.898L717.891,572.058L717.985,572.219L718.078,572.38L718.169,572.543L718.259,572.706L718.348,572.87L718.435,573.035L718.52,573.2L718.604,573.366L718.687,573.533L718.768,573.701L718.848,573.869L718.926,574.038L719.003,574.208L719.079,574.378L719.152,574.549L719.225,574.721L719.295,574.893L719.365,575.066L719.433,575.24L719.499,575.414L719.563,575.588L719.627,575.764L719.688,575.939L719.748,576.116L719.807,576.293L719.864,576.47L719.92,576.648L719.973,576.826L720.026,577.005L720.077,577.184L720.126,577.364L720.173,577.544L720.219,577.724L720.264,577.905L720.307,578.087L720.348,578.268L720.388,578.45L720.426,578.633L720.462,578.815L720.497,578.998L720.53,579.182L720.562,579.365L720.592,579.549L720.621,579.733L720.647,579.917L720.673,580.102L720.696,580.287L720.718,580.472L720.739,580.657L720.757,580.842L720.774,581.028L720.79,581.213L720.804,581.399L720.816,581.585L720.827,581.771L720.836,581.957L720.843,582.143L720.849,582.329L720.853,582.516L720.855,582.702L720.856,582.888L720.855,583.075L720.853,583.261L720.849,583.447L720.843,583.633L720.836,583.819L720.827,584.005L720.816,584.191L720.804,584.377L720.79,584.563L720.774,584.749L720.757,584.934L720.739,585.12L720.718,585.305L720.696,585.49L720.673,585.674L720.647,585.859L720.621,586.043L720.592,586.227L720.562,586.411L720.53,586.595L720.497,586.778L720.462,586.961L720.426,587.144L720.388,587.326L720.348,587.508L720.307,587.69L720.264,587.871L720.219,588.052L720.173,588.233L720.126,588.413L720.077,588.592L720.026,588.772L719.973,588.95L719.92,589.129L719.864,589.307L719.807,589.484L719.748,589.661L719.688,589.837L719.627,590.013L719.563,590.188L719.499,590.363L719.433,590.537L719.365,590.71L719.295,590.883L719.225,591.056L719.152,591.227L719.079,591.398L719.003,591.569L718.926,591.738L718.848,591.907L718.768,592.076L718.687,592.243L718.604,592.41L718.52,592.576L718.435,592.742L718.348,592.907L718.259,593.071L718.169,593.234L718.078,593.396L717.985,593.558L717.891,593.718L717.795,593.878L717.698,594.037L717.6,594.195L717.5,594.353L717.399,594.509L717.296,594.665L717.193,594.819L717.087,594.973L716.981,595.126L716.873,595.278L716.764,595.429L716.653,595.579L716.541,595.728L716.428,595.876L716.314,596.023L716.198,596.168L716.081,596.313L715.963,596.457L715.843,596.6L715.722,596.742L715.6,596.883L715.477,597.023L715.353,597.161L715.227,597.299L715.1,597.435L714.972,597.57L714.843,597.705L714.712,597.838L714.581,597.969L714.448,598.1L714.314,598.23L714.179,598.358L714.043,598.485L713.906,598.611L713.768,598.736L713.628,598.86L713.488,598.982L713.346,599.103L713.204,599.223L713.06,599.342L712.915,599.459L712.77,599.575L712.623,599.69L712.475,599.803L712.326,599.915L712.177,600.026L712.026,600.136L711.874,600.244L711.722,600.351L711.568,600.457L711.414,600.561L711.259,600.664L711.102,600.765L710.945,600.865L710.787,600.964L710.629,601.061L710.469,601.157L710.308,601.252L710.147,601.345L709.985,601.437L709.822,601.527L709.658,601.616L709.494,601.704L709.329,601.79L709.163,601.874L708.996,601.957L708.829,602.039L708.66,602.119L708.491,602.198L708.322,602.275L708.152,602.351L707.981,602.425L707.809,602.498L707.637,602.569L707.465,602.638L707.291,602.707L707.117,602.773L706.943,602.838L706.768,602.902L706.592,602.964L706.416,603.025L706.239,603.084L706.062,603.141L705.884,603.197L705.706,603.251L705.527,603.304L705.348,603.355L705.169,603.405L704.989,603.453L704.808,603.499L704.627,603.544L704.446,603.588L704.265,603.629L704.083,603.669L703.901,603.708L703.718,603.745L703.535,603.78L703.352,603.814L703.168,603.846L702.985,603.876L702.801,603.905L702.616,603.933L702.432,603.958L702.247,603.982L702.062,604.005L701.692,604.045L701.506,604.062L701.321,604.078L701.135,604.092L700.949,604.105L700.763,604.116L700.577,604.126L700.391,604.133L700.205,604.139L700.019,604.144L699.832,604.147L699.646,604.148L315.78,604.148L315.407,604.146L315.034,604.142L314.661,604.133L314.288,604.122L313.915,604.107L313.542,604.089L313.17,604.068L312.797,604.043L312.425,604.016L312.053,603.984L311.682,603.95L311.311,603.913L310.94,603.872L310.569,603.828L310.199,603.78L309.829,603.73L309.46,603.676L309.091,603.619L308.723,603.558L308.356,603.495L307.988,603.428L307.622,603.358L307.256,603.285L306.891,603.209L306.526,603.129L306.163,603.046L305.799,602.96L305.437,602.871L305.076,602.779L304.715,602.683L304.355,602.584L303.996,602.483L303.638,602.378L303.281,602.27L302.925,602.158L302.57,602.044L302.215,601.926L301.862,601.806L301.51,601.682L301.159,601.555L300.81,601.426L300.461,601.293L300.113,601.157L299.767,601.018L299.422,600.876L299.078,600.731L298.736,600.583L298.395,600.431L298.055,600.277L297.716,600.12L297.379,599.96L297.044,599.797L296.709,599.632L296.377,599.463L296.045,599.291L295.716,599.116L295.387,598.939L295.061,598.759L294.736,598.575L294.412,598.389L294.091,598.2L293.771,598.009L293.452,597.814L293.135,597.617L292.821,597.417L292.507,597.214L292.196,597.008L291.886,596.8L291.579,596.589L291.273,596.375L290.969,596.159L290.667,595.94L290.367,595.718L290.069,595.494L289.772,595.267L289.478,595.037L289.186,594.805L288.896,594.57L288.608,594.333L288.322,594.094L288.038,593.851L287.756,593.607L287.477,593.359L287.199,593.11L286.924,592.858L286.651,592.603L286.381,592.347L286.112,592.087L285.846,591.826L285.582,591.562L285.321,591.296L285.062,591.028L284.805,590.757L284.55,590.484L284.298,590.209L284.049,589.931L283.802,589.652L283.557,589.37L283.315,589.086L283.075,588.8L282.838,588.512L282.603,588.222L282.371,587.93L282.142,587.636L281.915,587.34L281.69,587.042L281.469,586.741L281.25,586.439L281.033,586.135L280.819,585.83L280.608,585.522L280.4,585.212L280.195,584.901L279.992,584.588L279.792,584.273L279.594,583.956L279.4,583.638L279.208,583.318L279.019,582.996L278.833,582.672L278.65,582.347L278.469,582.021L278.292,581.693L278.117,581.363L277.945,581.032L277.777,580.699L277.611,580.365L277.448,580.029L277.288,579.692L277.131,579.353L276.977,579.014L276.826,578.672L276.678,578.33L276.533,577.986L276.391,577.641L276.252,577.295L276.116,576.947L275.983,576.599L275.853,576.249L275.726,575.898L275.602,575.546L275.482,575.193L275.364,574.839L275.25,574.483L275.139,574.127L275.031,573.77L274.926,573.412L274.824,573.053L274.725,572.693L274.63,572.333L274.537,571.971L274.448,571.609L274.362,571.246L274.279,570.882L274.2,570.517L274.123,570.152L274.05,569.786L273.98,569.42L273.913,569.053L273.85,568.685L273.79,568.317L273.732,567.948L273.679,567.579L273.628,567.209L273.581,566.839L273.537,566.469L273.496,566.098L273.458,565.726L273.424,565.355L273.393,564.983L273.365,564.611L273.34,564.239L273.319,563.866L273.301,563.493L273.286,563.121L273.275,562.748L273.267,562.375L273.262,562.002L273.26,561.628L273.26,515.22L273.257,514.492L273.247,513.765L273.23,513.038L273.207,512.311L273.177,511.584L273.14,510.858L273.097,510.132L273.047,509.406L272.99,508.681L272.927,507.956L272.857,507.232L272.781,506.509L272.698,505.786L272.608,505.065L272.511,504.344L272.409,503.624L272.299,502.905L272.183,502.187L272.06,501.47L271.931,500.754L271.795,500.039L271.653,499.326L271.504,498.614L271.348,497.904L271.186,497.194L271.018,496.487L270.843,495.781L270.662,495.076L195.038,206.852L153.069,206.97L152.883,206.969L152.696,206.966L152.51,206.961L152.324,206.955L152.138,206.948L151.952,206.939L151.765,206.928L151.579,206.915L151.394,206.901L151.208,206.885L151.022,206.868L150.837,206.849L150.652,206.828L150.467,206.806L150.282,206.782L150.097,206.756L149.913,206.729L149.729,206.7L149.545,206.67L149.361,206.638L149.178,206.604L148.995,206.569L148.812,206.532L148.63,206.494L148.448,206.454L148.266,206.412L148.085,206.369L147.904,206.324L147.723,206.278L147.543,206.23L147.363,206.181L147.184,206.13L147.005,206.077L146.827,206.023L146.649,205.967L146.472,205.91L146.295,205.851L146.119,205.79L145.943,205.728L145.768,205.665L145.593,205.6L145.419,205.533L145.245,205.465L145.073,205.395L144.9,205.324L144.729,205.252L144.558,205.177L144.387,205.102L144.218,205.025L144.049,204.946L143.88,204.866L143.713,204.784L143.546,204.701L143.38,204.617L143.214,204.531L142.886,204.355L142.723,204.264L142.561,204.173L142.399,204.079L142.238,203.985L142.079,203.889L141.92,203.792L141.762,203.693L141.604,203.593L141.448,203.491L141.293,203.389L141.138,203.284L140.984,203.179L140.832,203.072L140.68,202.964L140.529,202.854L140.379,202.743L140.231,202.631L140.083,202.518L139.936,202.403L139.79,202.287L139.645,202.169L139.501,202.051L139.359,201.931L139.217,201.81L139.076,201.687L138.937,201.564L138.798,201.439L138.661,201.313L138.525,201.186L138.39,201.058L138.256,200.928L138.123,200.797L137.991,200.665L137.861,200.532L137.731,200.398L137.603,200.263L137.476,200.126L137.35,199.989L137.226,199.85L137.102,199.711L136.98,199.57L136.859,199.428L136.74,199.285L136.621,199.141L136.504,198.996L136.388,198.85L136.274,198.703L136.161,198.555L136.049,198.406L135.938,198.256L135.829,198.105L135.721,197.953L135.614,197.8L135.509,197.646L135.405,197.492L135.302,197.336L135.201,197.18L135.101,197.022L135.002,196.864L134.905,196.705L134.81,196.545L134.715,196.384L134.623,196.223L134.531,196.06L134.441,195.897L134.352,195.733L134.265,195.568L134.18,195.403L134.095,195.237L134.013,195.07L133.931,194.902L133.851,194.733L133.773,194.564L133.696,194.395L133.621,194.224L133.547,194.053L133.474,193.881L133.404,193.709L133.334,193.536L133.266,193.362L133.2,193.188L133.135,193.013L133.072,192.838L133.01,192.662L132.95,192.486L132.891,192.309L132.834,192.131L132.779,191.953L132.725,191.775L132.672,191.596L132.622,191.417L132.572,191.237L132.525,191.057L132.479,190.876L132.434,190.695L132.391,190.514L132.35,190.332L132.31,190.15L132.272,189.968L132.236,189.785L132.201,189.602L132.167,189.418L132.136,189.235L132.105,189.051L132.077,188.867L132.05,188.682L132.025,188.497L132.001,188.313L131.979,188.128L131.959,187.942L131.94,187.757L131.923,187.571L131.907,187.385L131.894,187.2L131.881,187.014L131.871,186.828L131.862,186.641L131.854,186.455L131.849,186.269L131.845,186.083L131.842,185.896L131.841,185.71L131.842,185.523L131.845,185.337L131.849,185.151L131.854,184.964L131.862,184.778L131.871,184.592L131.881,184.406L131.907,184.034L131.923,183.848L131.94,183.663L131.959,183.477L131.979,183.292L132.001,183.107L132.025,182.922L132.05,182.737L132.077,182.553L132.105,182.369L132.167,182.001L132.201,181.818L132.236,181.635L132.272,181.452L132.31,181.269L132.35,181.087L132.391,180.906L132.434,180.724L132.479,180.543L132.525,180.363L132.572,180.182L132.622,180.003L132.672,179.823L132.725,179.644L132.779,179.466L132.834,179.288L132.891,179.111L132.95,178.934L133.01,178.757L133.072,178.582L133.135,178.406L133.2,178.232L133.266,178.057L133.334,177.884L133.404,177.711L133.474,177.538L133.547,177.367L133.621,177.195L133.696,177.025L133.773,176.855L133.851,176.686L133.931,176.518L134.013,176.35L134.095,176.183L134.18,176.017L134.265,175.851L134.352,175.686L134.441,175.522L134.531,175.359L134.623,175.197L134.715,175.035L134.81,174.875L134.905,174.715L135.002,174.555L135.101,174.397L135.201,174.24L135.302,174.083L135.405,173.928L135.509,173.773L135.614,173.619L135.721,173.466L135.829,173.315L135.938,173.164L136.049,173.014L136.161,172.865L136.274,172.717L136.388,172.57L136.504,172.424L136.621,172.279L136.74,172.135L136.859,171.992L136.98,171.85L137.102,171.709L137.226,171.569L137.35,171.431L137.476,171.293L137.603,171.157L137.731,171.021L137.861,170.887L137.991,170.754L138.123,170.622L138.256,170.492L138.39,170.362L138.525,170.234L138.661,170.106L138.798,169.98L138.937,169.856L139.076,169.732L139.217,169.61L139.359,169.489L139.501,169.369L139.645,169.25L139.79,169.133L139.936,169.017L140.083,168.902L140.231,168.789L140.379,168.676L140.529,168.565L140.68,168.456L140.832,168.348L140.984,168.241L141.138,168.135L141.293,168.031L141.448,167.928L141.604,167.827L141.762,167.727L141.92,167.628L142.079,167.531L142.238,167.435L142.399,167.34L142.561,167.247L142.723,167.155L142.886,167.065L143.05,166.976L143.214,166.889L143.38,166.803L143.546,166.718L143.713,166.635L143.88,166.554L144.049,166.474L144.218,166.395L144.387,166.318L144.558,166.242L144.729,166.168L144.9,166.095L145.073,166.024L145.245,165.955L145.419,165.886L145.593,165.82L145.768,165.755L145.943,165.691L146.119,165.629L146.295,165.569L146.472,165.51L146.649,165.453L146.827,165.397L147.005,165.343L147.184,165.29L147.363,165.239L147.543,165.189L147.723,165.141L147.904,165.095L148.085,165.05L148.266,165.007L148.448,164.965L148.63,164.925L148.812,164.887L148.995,164.85L149.178,164.815L149.361,164.781L149.729,164.719L149.913,164.69L150.097,164.663L150.282,164.638L150.467,164.614L150.652,164.591L150.837,164.571L151.022,164.552L151.208,164.534L151.394,164.519L151.579,164.504L151.765,164.492L151.952,164.481L152.138,164.472L152.324,164.464L152.51,164.458L152.696,164.454L152.883,164.451L153.069,164.45L216.142,164.273L216.274,164.273L216.406,164.274L216.538,164.276L216.671,164.28L216.803,164.284L217.067,164.296L217.199,164.304L217.331,164.313L217.595,164.335L217.726,164.348L217.858,164.362L217.989,164.376L218.121,164.392L218.383,164.428L218.514,164.448L218.644,164.468L218.775,164.49L218.905,164.513L219.035,164.537L219.165,164.562L219.294,164.589L219.424,164.616L219.553,164.645L219.682,164.675L219.81,164.706L219.939,164.738L220.067,164.771L220.194,164.805L220.322,164.841L220.449,164.877L220.576,164.915L220.702,164.954L220.828,164.994L220.954,165.035L221.079,165.077L221.204,165.12L221.329,165.164L221.453,165.21L221.577,165.256L221.7,165.304L221.946,165.402L222.068,165.453L222.19,165.505L222.311,165.558L222.432,165.612L222.552,165.667L222.672,165.723L222.791,165.781L222.91,165.839L223.028,165.898L223.146,165.959L223.263,166.02L223.379,166.082L223.495,166.146L223.611,166.21L223.726,166.276L223.84,166.342L223.954,166.41L224.067,166.478L224.18,166.548L224.292,166.618L224.403,166.69L224.514,166.762L224.624,166.835L224.842,166.985L224.95,167.061L225.057,167.138L225.164,167.217L225.27,167.296L225.375,167.376L225.48,167.457L225.584,167.538L225.687,167.621L225.789,167.705L225.891,167.789L225.992,167.875L226.092,167.961L226.192,168.049L226.29,168.137L226.388,168.226L226.485,168.315L226.582,168.406L226.772,168.59L226.866,168.683L226.959,168.777L227.051,168.872L227.142,168.968L227.233,169.064L227.322,169.161L227.411,169.259L227.499,169.358L227.586,169.458L227.672,169.558L227.758,169.659L227.926,169.863L228.09,170.071L228.171,170.175L228.251,170.281L228.33,170.387L228.408,170.494L228.485,170.601L228.561,170.71L228.636,170.818L228.71,170.928L228.783,171.038L228.927,171.26L228.997,171.372L229.135,171.598L229.202,171.712L229.334,171.942L229.398,172.057L229.461,172.173L229.523,172.29L229.584,172.407L229.645,172.525L229.704,172.643L229.762,172.762L229.819,172.882L229.875,173.001L229.93,173.122L229.984,173.243L230.036,173.364L230.088,173.486L230.139,173.608L230.188,173.73L230.237,173.853L230.284,173.977L230.331,174.101L230.376,174.225L230.42,174.35L230.463,174.475L230.505,174.6L230.546,174.726L230.585,174.852L230.624,174.979L230.662,175.106L230.698,175.233L230.733,175.36L230.767,175.488L242.937,221.871L700.882,221.871L701.014,221.873L701.146,221.876L701.278,221.88L701.41,221.885L701.541,221.891L701.673,221.899L701.805,221.908L701.936,221.917L702.068,221.928L702.33,221.954L702.461,221.968L702.592,221.984L702.723,222.001L702.854,222.018L702.984,222.037L703.114,222.058L703.245,222.079L703.375,222.101L703.504,222.125L703.634,222.15L703.763,222.176L703.892,222.203L704.021,222.231L704.15,222.26L704.278,222.29L704.406,222.322L704.534,222.355L704.661,222.388L704.788,222.423L704.915,222.459L705.042,222.496L705.168,222.535L705.294,222.574L705.42,222.614L705.545,222.656L705.67,222.698L705.794,222.742L705.918,222.787L706.042,222.833L706.165,222.88L706.288,222.928L706.41,222.977L706.532,223.027L706.653,223.078L706.775,223.131L706.895,223.184L707.015,223.239L707.135,223.294L707.254,223.351L707.373,223.408L707.491,223.467L707.608,223.526L707.725,223.587L707.842,223.649L707.958,223.712L708.074,223.775L708.188,223.84L708.303,223.906L708.416,223.973L708.53,224.04L708.642,224.109L708.754,224.179L708.865,224.25L708.976,224.321L709.086,224.394L709.195,224.468L709.304,224.542L709.412,224.618L709.52,224.694L709.627,224.772L709.733,224.85L709.838,224.929L709.943,225.009L710.047,225.091L710.15,225.173L710.253,225.256L710.354,225.339L710.455,225.424L710.556,225.51L710.655,225.596L710.754,225.684L710.852,225.772L710.949,225.861L711.046,225.951L711.141,226.041L711.236,226.133L711.33,226.225L711.424,226.319L711.516,226.413L711.608,226.508L711.699,226.603L711.788,226.7L711.878,226.797L711.966,226.895L712.053,226.994L712.14,227.093L712.225,227.194L712.31,227.295L712.394,227.397L712.477,227.499L712.559,227.602L712.64,227.706L712.72,227.811L712.799,227.916L712.878,228.023L712.955,228.129L713.032,228.237L713.107,228.345L713.182,228.454L713.255,228.563L713.328,228.673L713.4,228.784L713.47,228.895L713.54,229.007L713.609,229.119L713.677,229.233L713.744,229.346L713.809,229.461L713.874,229.575L713.938,229.691L714.001,229.807L714.062,229.923L714.123,230.041L714.183,230.158L714.241,230.276L714.299,230.395L714.356,230.514L714.466,230.754L714.519,230.874L714.571,230.995L714.623,231.117L714.673,231.239L714.722,231.361L714.77,231.484L714.817,231.607L714.863,231.731L714.908,231.855L714.951,231.979L714.994,232.104L715.036,232.229L715.076,232.355L715.115,232.481L715.153,232.607L715.191,232.734L715.227,232.86L715.261,232.988L715.295,233.115L715.328,233.243L715.39,233.499L715.419,233.628L715.447,233.757L715.474,233.886L715.5,234.015L715.525,234.145L715.548,234.274L715.571,234.404L715.592,234.534L715.613,234.665L715.631,234.795L715.649,234.926L715.666,235.057L715.682,235.188L715.696,235.319L715.71,235.45L715.722,235.581L715.733,235.713L715.742,235.844L715.751,235.976L715.759,236.107L715.765,236.239L715.77,236.371L715.774,236.503L715.777,236.635L715.779,236.766L715.78,236.898L715.779,237.03L715.777,237.162L715.774,237.294L715.77,237.426L715.765,237.557L715.759,237.689L715.743,237.953L715.733,238.084L715.722,238.215L715.71,238.347L715.696,238.478L715.682,238.609L715.667,238.74L715.65,238.871L715.632,239.001L715.613,239.132L715.593,239.262L715.571,239.392L715.549,239.522L715.525,239.652L715.501,239.782L715.475,239.911L715.448,240.04L715.42,240.169L715.39,240.298L715.36,240.426L715.329,240.554L715.296,240.682L661.086,449.172L661.052,449.3L661.016,449.429L660.98,449.556L660.943,449.684L660.865,449.938L660.824,450.064L660.782,450.19L660.739,450.316L660.695,450.441L660.65,450.566L660.604,450.69L660.556,450.814L660.508,450.938L660.408,451.184L660.356,451.306L660.303,451.428L660.249,451.549L660.194,451.67L660.138,451.791L660.081,451.91L660.023,452.03L659.964,452.149L659.904,452.267L659.842,452.385L659.78,452.502L659.717,452.619L659.652,452.735L659.587,452.85L659.52,452.965L659.453,453.08L659.385,453.194L659.315,453.307L659.245,453.419L659.173,453.531L659.101,453.642L659.027,453.753L658.953,453.863L658.878,453.972L658.801,454.081L658.724,454.189L658.646,454.296L658.567,454.403L658.487,454.509L658.406,454.614L658.324,454.719L658.241,454.822L658.157,454.925L658.072,455.028L657.987,455.129L657.9,455.23L657.813,455.33L657.725,455.429L657.636,455.527L657.546,455.625L657.455,455.722L657.363,455.818L657.27,455.913L657.177,456.008L657.083,456.101L656.988,456.194L656.892,456.286L656.795,456.377L656.698,456.467L656.6,456.556L656.5,456.645L656.401,456.732L656.3,456.819L656.199,456.905L656.097,456.99L655.994,457.074L655.89,457.157L655.786,457.239L655.681,457.32L655.575,457.4L655.469,457.48L655.361,457.558L655.254,457.636L655.145,457.712L655.036,457.788L654.926,457.862L654.815,457.936L654.704,458.008L654.592,458.08L654.48,458.151L654.367,458.22L654.253,458.289L654.139,458.357L654.024,458.423L653.909,458.489L653.793,458.553L653.676,458.617L653.559,458.68L653.441,458.741L653.323,458.801L653.204,458.861L653.085,458.919L652.965,458.977L652.845,459.033L652.724,459.088L652.603,459.142L652.481,459.195L652.359,459.247L652.236,459.298L652.113,459.348L651.99,459.396L651.866,459.444L651.742,459.49L651.617,459.536L651.492,459.58L651.366,459.623L651.24,459.665L651.114,459.706L650.987,459.746L650.86,459.785L650.733,459.823L650.605,459.859L650.349,459.929L650.22,459.962L650.091,459.994L649.833,460.054L649.703,460.083L649.573,460.11L649.443,460.136L649.313,460.161L649.182,460.185L649.051,460.208L648.92,460.23L648.789,460.25L648.658,460.269L648.526,460.287L648.394,460.304L648.262,460.32L648.131,460.335L647.998,460.348L647.866,460.361L647.734,460.372L647.602,460.382L647.469,460.391L647.336,460.398L647.204,460.405L647.071,460.41L646.938,460.414L646.806,460.417L646.673,460.419L305.527,460.419Z" style="fill:rgb(35,31,32);"/>
        <path d="M413.976,666.639L413.974,666.265L413.969,665.892L413.961,665.518L413.95,665.145L413.935,664.772L413.917,664.399L413.896,664.026L413.871,663.653L413.844,663.281L413.813,662.908L413.779,662.536L413.741,662.165L413.7,661.794L413.656,661.423L413.609,661.052L413.559,660.682L413.505,660.312L413.448,659.943L413.388,659.575L413.325,659.206L413.258,658.839L413.188,658.472L413.115,658.106L413.039,657.74L412.96,657.375L412.877,657.011L412.792,656.647L412.703,656.284L412.611,655.922L412.515,655.561L412.417,655.201L412.316,654.841L412.211,654.483L412.103,654.125L411.992,653.769L411.878,653.413L411.761,653.058L411.641,652.705L411.517,652.352L411.391,652L411.262,651.65L411.129,651.301L410.994,650.953L410.855,650.606L410.713,650.26L410.569,649.916L410.421,649.573L410.27,649.231L410.117,648.891L409.96,648.551L409.801,648.214L409.638,647.877L409.473,647.543L409.304,647.209L409.133,646.877L408.959,646.547L408.782,646.218L408.602,645.89L408.419,645.565L408.234,645.241L408.045,644.918L407.854,644.597L407.66,644.278L407.463,643.96L407.264,643.645L407.062,643.331L406.857,643.019L406.649,642.708L406.438,642.4L406.225,642.093L406.009,641.788L405.791,641.485L405.57,641.184L405.346,640.885L405.119,640.588L404.891,640.293L404.659,640L404.425,639.709L404.188,639.419L403.949,639.133L403.708,638.848L403.464,638.565L403.217,638.284L402.968,638.006L402.717,637.73L402.463,637.456L402.206,637.184L401.948,636.914L401.687,636.647L401.424,636.382L401.158,636.119L400.89,635.859L400.62,635.601L400.348,635.345L400.073,635.092L399.797,634.841L399.518,634.593L399.236,634.347L398.953,634.104L398.668,633.863L398.38,633.624L398.091,633.388L397.799,633.155L397.506,632.924L397.21,632.696L396.912,632.47L396.613,632.247L396.311,632.026L396.008,631.808L395.703,631.593L395.395,631.381L395.086,631.171L394.775,630.964L394.463,630.76L394.148,630.558L393.832,630.359L393.514,630.163L393.195,629.97L392.873,629.779L392.551,629.591L392.226,629.407L391.9,629.224L391.572,629.045L391.243,628.869L390.912,628.696L390.58,628.525L390.246,628.357L389.911,628.193L389.574,628.031L389.236,627.872L388.896,627.716L388.556,627.564L388.213,627.414L387.87,627.267L387.525,627.123L387.179,626.982L386.832,626.844L386.484,626.709L386.134,626.578L385.784,626.449L385.432,626.323L385.079,626.201L384.725,626.081L384.37,625.965L384.014,625.852L383.657,625.742L383.299,625.635L382.941,625.531L382.581,625.43L382.22,625.332L381.859,625.238L381.497,625.147L381.134,625.059L380.77,624.974L380.406,624.892L380.041,624.813L379.675,624.738L379.308,624.666L378.941,624.597L378.573,624.531L378.205,624.469L377.836,624.409L377.467,624.353L377.097,624.3L376.727,624.251L376.357,624.204L375.986,624.161L375.614,624.121L375.242,624.084L374.87,624.051L374.498,624.021L374.126,623.994L373.753,623.97L373.38,623.95L373.007,623.933L372.633,623.919L372.26,623.908L371.887,623.901L371.513,623.897L371.14,623.896L370.766,623.899L370.393,623.904L370.019,623.913L369.646,623.925L369.273,623.941L368.9,623.96L368.527,623.982L368.154,624.007L367.782,624.036L367.41,624.067L367.038,624.102L366.666,624.141L366.295,624.182L365.924,624.227L365.554,624.275L365.184,624.326L364.814,624.381L364.445,624.438L364.077,624.499L363.709,624.564L363.341,624.631L362.974,624.701L362.608,624.775L362.243,624.852L361.878,624.932L361.514,625.016L361.15,625.102L360.788,625.192L360.426,625.285L360.065,625.381L359.705,625.48L359.346,625.582L358.987,625.688L358.63,625.796L358.274,625.908L357.918,626.023L357.564,626.141L357.21,626.262L356.858,626.386L356.507,626.513L356.157,626.643L355.808,626.776L355.46,626.913L355.114,627.052L354.768,627.194L354.424,627.34L354.081,627.488L353.74,627.64L353.4,627.794L353.061,627.951L352.724,628.112L352.388,628.275L352.053,628.441L351.72,628.61L351.388,628.782L351.058,628.957L350.73,629.135L350.403,629.315L350.078,629.499L349.754,629.685L349.432,629.874L349.111,630.066L348.793,630.261L348.475,630.458L348.16,630.658L347.847,630.861L347.535,631.067L347.225,631.276L346.917,631.487L346.611,631.701L346.306,631.917L346.004,632.136L345.703,632.358L345.405,632.582L345.108,632.809L344.813,633.039L344.521,633.271L344.23,633.506L343.942,633.743L343.655,633.983L343.371,634.225L343.089,634.47L342.809,634.717L342.531,634.967L342.255,635.219L341.982,635.473L341.71,635.73L341.441,635.989L341.175,636.25L340.91,636.514L340.648,636.78L340.389,637.049L340.131,637.32L339.876,637.592L339.623,637.868L339.373,638.145L339.125,638.424L338.88,638.706L338.637,638.99L338.397,639.276L338.159,639.564L337.924,639.854L337.691,640.146L337.461,640.44L337.233,640.736L337.008,641.034L336.786,641.334L336.566,641.636L336.349,641.94L336.134,642.246L335.922,642.554L335.713,642.863L335.507,643.174L335.303,643.488L335.102,643.802L334.904,644.119L334.708,644.437L334.516,644.757L334.326,645.079L334.139,645.402L333.955,645.727L333.774,646.054L333.595,646.382L333.42,646.712L333.247,647.043L333.077,647.376L332.91,647.71L332.746,648.045L332.585,648.382L332.427,648.721L332.272,649.061L332.12,649.402L331.971,649.744L331.825,650.088L331.682,650.433L331.541,650.779L331.404,651.127L331.27,651.475L331.139,651.825L331.011,652.176L330.887,652.528L330.765,652.881L330.646,653.235L330.531,653.591L330.418,653.947L330.309,654.304L330.202,654.662L330.099,655.021L329.999,655.381L329.903,655.742L329.809,656.103L329.718,656.466L329.631,656.829L329.547,657.193L329.466,657.557L329.388,657.923L329.314,658.289L329.242,658.655L329.174,659.023L329.109,659.39L329.048,659.759L328.989,660.128L328.934,660.497L328.882,660.867L328.833,661.237L328.787,661.608L328.745,661.979L328.706,662.351L328.67,662.722L328.637,663.095L328.608,663.467L328.582,663.839L328.559,664.212L328.539,664.585L328.523,664.958L328.51,665.332L328.5,665.705L328.494,666.079L328.491,666.452L328.491,666.826L328.494,667.199L328.5,667.573L328.51,667.946L328.523,668.319L328.539,668.692L328.559,669.065L328.582,669.438L328.608,669.811L328.637,670.183L328.67,670.555L328.706,670.927L328.745,671.299L328.787,671.67L328.833,672.04L328.882,672.411L328.934,672.781L328.989,673.15L329.048,673.519L329.109,673.887L329.174,674.255L329.242,674.622L329.314,674.989L329.388,675.355L329.466,675.72L329.547,676.085L329.631,676.449L329.718,676.812L329.809,677.175L329.903,677.536L329.999,677.897L330.099,678.257L330.202,678.616L330.309,678.974L330.418,679.331L330.531,679.687L330.646,680.042L330.765,680.397L330.887,680.75L331.011,681.102L331.139,681.453L331.27,681.802L331.404,682.151L331.541,682.499L331.682,682.845L331.825,683.19L331.971,683.534L332.12,683.876L332.272,684.217L332.427,684.557L332.585,684.895L332.746,685.232L332.91,685.568L333.077,685.902L333.247,686.235L333.42,686.566L333.595,686.896L333.774,687.224L333.955,687.55L334.139,687.875L334.326,688.199L334.516,688.52L334.708,688.84L334.904,689.159L335.102,689.475L335.303,689.79L335.507,690.103L335.713,690.415L335.922,690.724L336.134,691.032L336.349,691.338L336.566,691.641L336.786,691.943L337.008,692.244L337.233,692.542L337.461,692.838L337.691,693.132L337.924,693.424L338.159,693.714L338.397,694.002L338.637,694.288L338.88,694.572L339.125,694.853L339.373,695.133L339.623,695.41L339.876,695.685L340.131,695.958L340.389,696.229L340.648,696.497L340.91,696.763L341.175,697.027L341.441,697.289L341.71,697.548L341.982,697.805L342.255,698.059L342.531,698.311L342.809,698.561L343.089,698.808L343.371,699.053L343.655,699.295L343.942,699.535L344.23,699.772L344.521,700.007L344.813,700.239L345.108,700.468L345.405,700.695L345.703,700.92L346.004,701.142L346.306,701.361L346.611,701.577L346.917,701.791L347.225,702.002L347.535,702.211L347.847,702.416L348.16,702.619L348.475,702.82L348.793,703.017L349.111,703.212L349.432,703.404L349.754,703.593L350.078,703.779L350.403,703.963L350.73,704.143L351.058,704.321L351.388,704.496L351.72,704.668L352.053,704.837L352.388,705.003L352.724,705.166L353.061,705.326L353.4,705.484L353.74,705.638L354.081,705.79L354.424,705.938L354.768,706.083L355.114,706.226L355.46,706.365L355.808,706.501L356.157,706.635L356.507,706.765L356.858,706.892L357.21,707.016L357.564,707.137L357.918,707.255L358.274,707.37L358.63,707.481L358.987,707.59L359.346,707.696L359.705,707.798L360.065,707.897L360.426,707.993L360.788,708.086L361.15,708.176L361.514,708.262L361.878,708.345L362.243,708.426L362.608,708.503L362.974,708.576L363.341,708.647L363.709,708.714L364.077,708.778L364.445,708.839L364.814,708.897L365.184,708.951L365.554,709.003L365.924,709.051L366.295,709.096L366.666,709.137L367.038,709.175L367.41,709.21L367.782,709.242L368.154,709.271L368.527,709.296L368.9,709.318L369.273,709.337L369.646,709.352L370.019,709.365L370.393,709.373L370.766,709.379L371.14,709.382L371.513,709.381L371.887,709.377L372.26,709.369L372.633,709.359L373.007,709.345L373.38,709.328L373.753,709.307L374.126,709.284L374.498,709.257L374.87,709.227L375.242,709.193L375.614,709.157L375.986,709.117L376.357,709.074L376.727,709.027L377.097,708.978L377.467,708.925L377.836,708.869L378.205,708.809L378.573,708.747L378.941,708.681L379.308,708.612L379.675,708.54L380.041,708.464L380.406,708.386L380.77,708.304L381.134,708.219L381.497,708.131L381.859,708.04L382.22,707.945L382.581,707.848L382.941,707.747L383.299,707.643L383.657,707.536L384.014,707.426L384.37,707.313L384.725,707.196L385.079,707.077L385.432,706.954L385.784,706.829L386.134,706.7L386.484,706.568L386.832,706.434L387.179,706.296L387.525,706.155L387.87,706.011L388.213,705.864L388.556,705.714L388.896,705.561L389.236,705.406L389.574,705.247L389.911,705.085L390.246,704.92L390.58,704.753L390.912,704.582L391.243,704.409L391.572,704.232L391.9,704.053L392.226,703.871L392.551,703.686L392.873,703.499L393.195,703.308L393.514,703.115L393.832,702.919L394.148,702.72L394.463,702.518L394.775,702.314L395.086,702.107L395.395,701.897L395.703,701.684L396.008,701.469L396.311,701.251L396.613,701.031L396.912,700.808L397.21,700.582L397.506,700.354L397.799,700.123L398.091,699.89L398.38,699.654L398.668,699.415L398.953,699.174L399.236,698.931L399.518,698.685L399.797,698.436L400.073,698.186L400.348,697.932L400.62,697.677L400.89,697.419L401.158,697.158L401.424,696.896L401.687,696.631L401.948,696.363L402.206,696.094L402.463,695.822L402.717,695.548L402.968,695.272L403.217,694.993L403.464,694.713L403.708,694.43L403.949,694.145L404.188,693.858L404.425,693.569L404.659,693.278L404.891,692.985L405.119,692.69L405.346,692.393L405.57,692.094L405.791,691.793L406.009,691.49L406.225,691.185L406.438,690.878L406.649,690.57L406.857,690.259L407.062,689.947L407.264,689.633L407.463,689.317L407.66,689L407.854,688.681L408.045,688.36L408.234,688.037L408.419,687.713L408.602,687.387L408.782,687.06L408.959,686.731L409.133,686.401L409.304,686.069L409.473,685.735L409.638,685.4L409.801,685.064L409.96,684.726L410.117,684.387L410.27,684.047L410.421,683.705L410.569,683.362L410.713,683.017L410.855,682.672L410.994,682.325L411.129,681.977L411.262,681.628L411.391,681.277L411.517,680.926L411.641,680.573L411.761,680.22L411.878,679.865L411.992,679.509L412.103,679.153L412.211,678.795L412.316,678.436L412.417,678.077L412.515,677.717L412.611,677.355L412.703,676.993L412.792,676.631L412.877,676.267L412.96,675.903L413.039,675.538L413.115,675.172L413.188,674.806L413.258,674.439L413.325,674.071L413.388,673.703L413.448,673.335L413.505,672.965L413.559,672.596L413.609,672.226L413.656,671.855L413.7,671.484L413.741,671.113L413.779,670.741L413.813,670.369L413.844,669.997L413.871,669.625L413.896,669.252L413.917,668.879L413.935,668.506L413.95,668.133L413.961,667.759L413.969,667.386L413.974,667.012L413.976,666.639Z" style="fill:rgb(35,31,32);"/>
        <path d="M686.773,666.639L686.772,666.265L686.767,665.892L686.759,665.518L686.747,665.145L686.733,664.772L686.715,664.399L686.694,664.026L686.669,663.653L686.641,663.281L686.61,662.908L686.576,662.536L686.539,662.165L686.498,661.794L686.454,661.423L686.407,661.052L686.356,660.682L686.303,660.312L686.246,659.943L686.186,659.575L686.122,659.206L686.056,658.839L685.986,658.472L685.913,658.106L685.837,657.74L685.757,657.375L685.675,657.011L685.589,656.647L685.5,656.284L685.408,655.922L685.313,655.561L685.215,655.201L685.113,654.841L685.008,654.483L684.901,654.125L684.79,653.769L684.676,653.413L684.559,653.058L684.438,652.705L684.315,652.352L684.189,652L684.059,651.65L683.927,651.301L683.791,650.953L683.653,650.606L683.511,650.26L683.366,649.916L683.219,649.573L683.068,649.231L682.914,648.891L682.758,648.551L682.598,648.214L682.436,647.877L682.27,647.543L682.102,647.209L681.931,646.877L681.757,646.547L681.58,646.218L681.4,645.89L681.217,645.565L681.031,645.241L680.843,644.918L680.652,644.597L680.458,644.278L680.261,643.96L680.061,643.645L679.859,643.331L679.654,643.019L679.446,642.708L679.236,642.4L679.023,642.093L678.807,641.788L678.588,641.485L678.367,641.184L678.143,640.885L677.917,640.588L677.688,640.293L677.457,640L677.223,639.709L676.986,639.419L676.747,639.133L676.505,638.848L676.261,638.565L676.015,638.284L675.766,638.006L675.514,637.73L675.26,637.456L675.004,637.184L674.746,636.914L674.485,636.647L674.221,636.382L673.956,636.119L673.688,635.859L673.418,635.601L673.145,635.345L672.871,635.092L672.594,634.841L672.315,634.593L672.034,634.347L671.751,634.104L671.465,633.863L671.178,633.624L670.888,633.388L670.597,633.155L670.303,632.924L670.008,632.696L669.71,632.47L669.41,632.247L669.109,632.026L668.805,631.808L668.5,631.593L668.193,631.381L667.884,631.171L667.573,630.964L667.26,630.76L666.946,630.558L666.63,630.359L666.312,630.163L665.992,629.97L665.671,629.779L665.348,629.591L665.024,629.407L664.697,629.224L664.37,629.045L664.04,628.869L663.71,628.696L663.377,628.525L663.043,628.357L662.708,628.193L662.371,628.031L662.033,627.872L661.694,627.716L661.353,627.564L661.011,627.414L660.668,627.267L660.323,627.123L659.977,626.982L659.63,626.844L659.281,626.709L658.932,626.578L658.581,626.449L658.229,626.323L657.877,626.201L657.523,626.081L657.168,625.965L656.812,625.852L656.455,625.742L656.097,625.635L655.738,625.531L655.379,625.43L655.018,625.332L654.657,625.238L654.294,625.147L653.932,625.059L653.568,624.974L653.203,624.892L652.838,624.813L652.472,624.738L652.106,624.666L651.739,624.597L651.371,624.531L651.003,624.469L650.634,624.409L650.265,624.353L649.895,624.3L649.525,624.251L649.154,624.204L648.783,624.161L648.412,624.121L648.04,624.084L647.668,624.051L647.296,624.021L646.923,623.994L646.55,623.97L646.177,623.95L645.804,623.933L645.431,623.919L645.058,623.908L644.684,623.901L644.311,623.897L643.937,623.896L643.564,623.899L643.19,623.904L642.817,623.913L642.444,623.925L642.07,623.941L641.697,623.96L641.324,623.982L640.952,624.007L640.579,624.036L640.207,624.067L639.835,624.102L639.464,624.141L639.092,624.182L638.722,624.227L638.351,624.275L637.981,624.326L637.612,624.381L637.243,624.438L636.874,624.499L636.506,624.564L636.139,624.631L635.772,624.701L635.406,624.775L635.04,624.852L634.676,624.932L634.311,625.016L633.948,625.102L633.585,625.192L633.224,625.285L632.863,625.381L632.503,625.48L632.143,625.582L631.785,625.688L631.428,625.796L631.071,625.908L630.716,626.023L630.361,626.141L630.008,626.262L629.656,626.386L629.304,626.513L628.954,626.643L628.605,626.776L628.258,626.913L627.911,627.052L627.566,627.194L627.222,627.34L626.879,627.488L626.537,627.64L626.197,627.794L625.859,627.951L625.521,628.112L625.185,628.275L624.851,628.441L624.518,628.61L624.186,628.782L623.856,628.957L623.527,629.135L623.201,629.315L622.875,629.499L622.551,629.685L622.229,629.874L621.909,630.066L621.59,630.261L621.273,630.458L620.958,630.658L620.644,630.861L620.333,631.067L620.023,631.276L619.714,631.487L619.408,631.701L619.104,631.917L618.801,632.136L618.501,632.358L618.202,632.582L617.906,632.809L617.611,633.039L617.318,633.271L617.028,633.506L616.739,633.743L616.453,633.983L616.169,634.225L615.886,634.47L615.606,634.717L615.328,634.967L615.053,635.219L614.779,635.473L614.508,635.73L614.239,635.989L613.972,636.25L613.708,636.514L613.446,636.78L613.186,637.049L612.929,637.32L612.674,637.592L612.421,637.868L612.171,638.145L611.923,638.424L611.678,638.706L611.435,638.99L611.194,639.276L610.957,639.564L610.721,639.854L610.488,640.146L610.258,640.44L610.031,640.736L609.806,641.034L609.583,641.334L609.363,641.636L609.146,641.94L608.932,642.246L608.72,642.554L608.511,642.863L608.304,643.174L608.101,643.488L607.9,643.802L607.701,644.119L607.506,644.437L607.313,644.757L607.124,645.079L606.937,645.402L606.752,645.727L606.571,646.054L606.393,646.382L606.217,646.712L606.044,647.043L605.875,647.376L605.708,647.71L605.544,648.045L605.383,648.382L605.225,648.721L605.07,649.061L604.918,649.402L604.768,649.744L604.622,650.088L604.479,650.433L604.339,650.779L604.202,651.127L604.068,651.475L603.937,651.825L603.809,652.176L603.684,652.528L603.562,652.881L603.444,653.235L603.328,653.591L603.216,653.947L603.106,654.304L603,654.662L602.897,655.021L602.797,655.381L602.7,655.742L602.607,656.103L602.516,656.466L602.429,656.829L602.345,657.193L602.264,657.557L602.186,657.923L602.111,658.289L602.04,658.655L601.972,659.023L601.907,659.39L601.845,659.759L601.787,660.128L601.731,660.497L601.679,660.867L601.63,661.237L601.585,661.608L601.543,661.979L601.503,662.351L601.468,662.722L601.435,663.095L601.406,663.467L601.38,663.839L601.357,664.212L601.337,664.585L601.321,664.958L601.308,665.332L601.298,665.705L601.291,666.079L601.288,666.452L601.288,666.826L601.291,667.199L601.298,667.573L601.308,667.946L601.321,668.319L601.337,668.692L601.357,669.065L601.38,669.438L601.406,669.811L601.435,670.183L601.468,670.555L601.503,670.927L601.543,671.299L601.585,671.67L601.63,672.04L601.679,672.411L601.731,672.781L601.787,673.15L601.845,673.519L601.907,673.887L601.972,674.255L602.04,674.622L602.111,674.989L602.186,675.355L602.264,675.72L602.345,676.085L602.429,676.449L602.516,676.812L602.607,677.175L602.7,677.536L602.797,677.897L602.897,678.257L603,678.616L603.106,678.974L603.216,679.331L603.328,679.687L603.444,680.042L603.562,680.397L603.684,680.75L603.809,681.102L603.937,681.453L604.068,681.802L604.202,682.151L604.339,682.499L604.479,682.845L604.622,683.19L604.768,683.534L604.918,683.876L605.07,684.217L605.225,684.557L605.383,684.895L605.544,685.232L605.708,685.568L605.875,685.902L606.044,686.235L606.217,686.566L606.393,686.896L606.571,687.224L606.752,687.55L606.937,687.875L607.124,688.199L607.313,688.52L607.506,688.84L607.701,689.159L607.9,689.475L608.101,689.79L608.304,690.103L608.511,690.415L608.72,690.724L608.932,691.032L609.146,691.338L609.363,691.641L609.583,691.943L609.806,692.244L610.031,692.542L610.258,692.838L610.488,693.132L610.721,693.424L610.957,693.714L611.194,694.002L611.435,694.288L611.678,694.572L611.923,694.853L612.171,695.133L612.421,695.41L612.674,695.685L612.929,695.958L613.186,696.229L613.446,696.497L613.708,696.763L613.972,697.027L614.239,697.289L614.508,697.548L614.779,697.805L615.053,698.059L615.328,698.311L615.606,698.561L615.886,698.808L616.169,699.053L616.453,699.295L616.739,699.535L617.028,699.772L617.318,700.007L617.611,700.239L617.906,700.468L618.202,700.695L618.501,700.92L618.801,701.142L619.104,701.361L619.408,701.577L619.714,701.791L620.023,702.002L620.333,702.211L620.644,702.416L620.958,702.619L621.273,702.82L621.59,703.017L621.909,703.212L622.229,703.404L622.551,703.593L622.875,703.779L623.201,703.963L623.527,704.143L623.856,704.321L624.186,704.496L624.518,704.668L624.851,704.837L625.185,705.003L625.521,705.166L625.859,705.326L626.197,705.484L626.537,705.638L626.879,705.79L627.222,705.938L627.566,706.083L627.911,706.226L628.258,706.365L628.605,706.501L628.954,706.635L629.304,706.765L629.656,706.892L630.008,707.016L630.361,707.137L630.716,707.255L631.071,707.37L631.428,707.481L631.785,707.59L632.143,707.696L632.503,707.798L632.863,707.897L633.224,707.993L633.585,708.086L633.948,708.176L634.311,708.262L634.676,708.345L635.04,708.426L635.406,708.503L635.772,708.576L636.139,708.647L636.506,708.714L636.874,708.778L637.243,708.839L637.612,708.897L637.981,708.951L638.351,709.003L638.722,709.051L639.092,709.096L639.464,709.137L639.835,709.175L640.207,709.21L640.579,709.242L640.952,709.271L641.324,709.296L641.697,709.318L642.07,709.337L642.444,709.352L642.817,709.365L643.19,709.373L643.564,709.379L643.937,709.382L644.311,709.381L644.684,709.377L645.058,709.369L645.431,709.359L645.804,709.345L646.177,709.328L646.55,709.307L646.923,709.284L647.296,709.257L647.668,709.227L648.04,709.193L648.412,709.157L648.783,709.117L649.154,709.074L649.525,709.027L649.895,708.978L650.265,708.925L650.634,708.869L651.003,708.809L651.371,708.747L651.739,708.681L652.106,708.612L652.472,708.54L652.838,708.464L653.203,708.386L653.568,708.304L653.932,708.219L654.294,708.131L654.657,708.04L655.018,707.945L655.379,707.848L655.738,707.747L656.097,707.643L656.455,707.536L656.812,707.426L657.168,707.313L657.523,707.196L657.877,707.077L658.229,706.954L658.581,706.829L658.932,706.7L659.281,706.568L659.63,706.434L659.977,706.296L660.323,706.155L660.668,706.011L661.011,705.864L661.353,705.714L661.694,705.561L662.033,705.406L662.371,705.247L662.708,705.085L663.043,704.92L663.377,704.753L663.71,704.582L664.04,704.409L664.37,704.232L664.697,704.053L665.024,703.871L665.348,703.686L665.671,703.499L665.992,703.308L666.312,703.115L666.63,702.919L666.946,702.72L667.26,702.518L667.573,702.314L667.884,702.107L668.193,701.897L668.5,701.684L668.805,701.469L669.109,701.251L669.41,701.031L669.71,700.808L670.008,700.582L670.303,700.354L670.597,700.123L670.888,699.89L671.178,699.654L671.465,699.415L671.751,699.174L672.034,698.931L672.315,698.685L672.594,698.436L672.871,698.186L673.145,697.932L673.418,697.677L673.688,697.419L673.956,697.158L674.221,696.896L674.485,696.631L674.746,696.363L675.004,696.094L675.26,695.822L675.514,695.548L675.766,695.272L676.015,694.993L676.261,694.713L676.505,694.43L676.747,694.145L676.986,693.858L677.223,693.569L677.457,693.278L677.688,692.985L677.917,692.69L678.143,692.393L678.367,692.094L678.588,691.793L678.807,691.49L679.023,691.185L679.236,690.878L679.446,690.57L679.654,690.259L679.859,689.947L680.061,689.633L680.261,689.317L680.458,689L680.652,688.681L680.843,688.36L681.031,688.037L681.217,687.713L681.4,687.387L681.58,687.06L681.757,686.731L681.931,686.401L682.102,686.069L682.27,685.735L682.436,685.4L682.598,685.064L682.758,684.726L682.914,684.387L683.068,684.047L683.219,683.705L683.366,683.362L683.511,683.017L683.653,682.672L683.791,682.325L683.927,681.977L684.059,681.628L684.189,681.277L684.315,680.926L684.438,680.573L684.559,680.22L684.676,679.865L684.79,679.509L684.901,679.153L685.008,678.795L685.113,678.436L685.215,678.077L685.313,677.717L685.408,677.355L685.5,676.993L685.589,676.631L685.675,676.267L685.757,675.903L685.837,675.538L685.913,675.172L685.986,674.806L686.056,674.439L686.122,674.071L686.186,673.703L686.246,673.335L686.303,672.965L686.356,672.596L686.407,672.226L686.454,671.855L686.498,671.484L686.539,671.113L686.576,670.741L686.61,670.369L686.641,669.997L686.669,669.625L686.694,669.252L686.715,668.879L686.733,668.506L686.747,668.133L686.759,667.759L686.767,667.386L686.772,667.012L686.773,666.639Z" style="fill:rgb(35,31,32);"/>
        <path d="M485.999,249.048L561.987,249.048L556.556,290.622L485.999,290.622L485.999,249.048Z" style="fill:white;"/>
        <path d="M443.379,249.048L443.379,290.622L373.141,290.622L367.392,249.048L443.379,249.048Z" style="fill:white;"/>
        <path d="M604.602,249.048L679.626,249.048L668.774,290.622L598.86,290.622L604.602,249.048Z" style="fill:white;"/>
        <path d="M325.093,249.048L330.524,290.622L260.923,290.622L250.068,249.048L325.093,249.048Z" style="fill:white;"/>
        <path d="M485.999,318.76L552.724,318.76L546.977,360.972L485.999,360.972L485.999,318.76Z" style="fill:white;"/>
        <path d="M661.753,318.76L650.574,360.972L589.602,360.972L595.023,318.76L661.753,318.76Z" style="fill:white;"/>
        <path d="M268.265,318.76L334.355,318.76L340.103,360.972L279.12,360.972L268.265,318.76Z" style="fill:white;"/>
        <path d="M376.97,318.76L443.379,318.76L443.379,360.972L382.72,360.972L376.97,318.76Z" style="fill:white;"/>
        <path d="M286.462,389.11L343.932,389.11L349.997,432.918L297.959,432.918L286.462,389.11Z" style="fill:white;"/>
        <path d="M643.233,389.11L631.743,432.918L579.702,432.918L585.771,389.11L643.233,389.11Z" style="fill:white;"/>
        <path d="M485.999,389.11L543.145,389.11L537.082,432.918L485.999,432.918L485.999,389.11Z" style="fill:white;"/>
        <path d="M386.549,389.11L443.379,389.11L443.379,432.918L392.615,432.918L386.549,389.11Z" style="fill:white;"/>
    </g>
</svg>
