<?xml version="1.0" encoding="UTF-8" standalone="no"?>
<!DOCTYPE svg PUBLIC "-//W3C//DTD SVG 1.1//EN" "http://www.w3.org/Graphics/SVG/1.1/DTD/svg11.dtd">
<svg width="100%" height="100%" viewBox="0 0 596 596" version="1.1" xmlns="http://www.w3.org/2000/svg" xmlns:xlink="http://www.w3.org/1999/xlink" xml:space="preserve" xmlns:serif="http://www.serif.com/" style="fill-rule:evenodd;clip-rule:evenodd;stroke-linecap:round;stroke-linejoin:round;stroke-miterlimit:2;">
    <g>
        <path d="M59.81,595.647L535.465,595.647C551.234,595.647 566.356,589.382 577.507,578.232C588.657,567.081 594.922,551.958 594.922,536.19L594.922,60.536C594.922,44.767 588.657,29.644 577.507,18.494C566.356,7.344 551.234,1.079 535.465,1.079L59.81,1.079C44.042,1.079 28.918,7.344 17.768,18.494C6.618,29.644 0.354,44.767 0.354,60.536L0.354,536.19C0.354,551.958 6.618,567.081 17.768,578.232C28.918,589.382 44.042,595.647 59.81,595.647Z" style="fill:white;fill-rule:nonzero;"/>
        <path d="M59.81,595.647L535.465,595.647C551.234,595.647 566.356,589.382 577.507,578.232C588.657,567.081 594.922,551.958 594.922,536.19L594.922,60.536C594.922,44.767 588.657,29.644 577.507,18.494C566.356,7.344 551.234,1.079 535.465,1.079L59.81,1.079C44.042,1.079 28.918,7.344 17.768,18.494C6.618,29.644 0.354,44.767 0.354,60.536L0.354,536.19C0.354,551.958 6.618,567.081 17.768,578.232C28.918,589.382 44.042,595.647 59.81,595.647Z" style="fill:none;stroke:rgb(35,31,32);stroke-width:1px;"/>
        <rect x="59.028" y="59.754" width="44.007" height="476.436" style="fill:rgb(35,31,32);fill-rule:nonzero;"/>
        <rect x="59.028" y="59.754" width="44.007" height="476.436" style="fill:none;stroke:rgb(35,31,32);stroke-width:0.71px;"/>
        <rect x="126.505" y="163.02" width="214.162" height="126.151" style="fill:rgb(35,31,32);fill-rule:nonzero;"/>
        <rect x="126.505" y="163.02" width="214.162" height="126.151" style="fill:none;stroke:rgb(35,31,32);stroke-width:0.71px;"/>
        <path d="M265.857,173.288L265.857,278.903L333.333,226.096L265.857,173.288Z" style="fill:white;fill-rule:nonzero;"/>
        <path d="M265.857,173.288L265.857,278.903L333.333,226.096L265.857,173.288Z" style="fill:none;stroke:white;stroke-width:0.71px;"/>
        <path d="M211.782,389.007L295.476,434.082L243.511,384.722C238.999,380.437 232.787,378.428 226.62,379.261C220.452,380.093 214.996,383.678 211.782,389.007Z" style="fill:rgb(35,31,32);fill-rule:nonzero;"/>
        <path d="M211.782,389.007L295.476,434.082L243.511,384.722C238.999,380.437 232.787,378.428 226.62,379.261C220.452,380.093 214.996,383.678 211.782,389.007Z" style="fill:none;stroke:rgb(35,31,32);stroke-width:0.71px;"/>
        <path d="M252.966,381.565L307.957,433.799L316.449,433.799L286.797,383.763C283.34,377.93 277.227,374.179 270.461,373.74C263.695,373.299 257.148,376.228 252.966,381.565Z" style="fill:rgb(35,31,32);fill-rule:nonzero;"/>
        <path d="M252.966,381.565L307.957,433.799L316.449,433.799L286.797,383.763C283.34,377.93 277.227,374.179 270.461,373.74C263.695,373.299 257.148,376.228 252.966,381.565Z" style="fill:none;stroke:rgb(35,31,32);stroke-width:0.71px;"/>
        <path d="M380.592,418.486C372.684,428.563 362.671,436.793 351.253,442.6L292.729,442.6L195.973,390.489C185.987,385.112 173.532,388.846 168.154,398.831C162.776,408.818 166.512,421.273 176.497,426.65L279.703,482.235C288.253,486.839 297.813,489.25 307.525,489.25L536.229,489.25L536.229,378.942L524.797,378.942C517.49,378.942 510.446,376.215 505.043,371.295C491.749,359.188 475.655,350.572 458.208,346.223L304.376,307.876C296.649,325.764 303.649,346.6 320.608,356.195C331.111,362.137 342.725,365.855 354.727,367.12C360.389,367.715 365.706,370.126 369.887,373.992C374.023,377.817 377.783,382.031 381.114,386.575C388.116,396.125 387.902,409.17 380.592,418.486Z" style="fill:rgb(35,31,32);fill-rule:nonzero;"/>
        <path d="M380.592,418.486C372.684,428.563 362.671,436.793 351.253,442.6L292.729,442.6L195.973,390.489C185.987,385.112 173.532,388.846 168.154,398.831C162.776,408.818 166.512,421.273 176.497,426.65L279.703,482.235C288.253,486.839 297.813,489.25 307.525,489.25L536.229,489.25L536.229,378.942L524.797,378.942C517.49,378.942 510.446,376.215 505.043,371.295C491.749,359.188 475.655,350.572 458.208,346.223L304.376,307.876C296.649,325.764 303.649,346.6 320.608,356.195C331.111,362.137 342.725,365.855 354.727,367.12C360.389,367.715 365.706,370.126 369.887,373.992C374.023,377.817 377.783,382.031 381.114,386.575C388.116,396.125 387.902,409.17 380.592,418.486Z" style="fill:none;stroke:rgb(35,31,32);stroke-width:0.71px;"/>
    </g>
</svg>
