<?xml version="1.0" encoding="UTF-8" standalone="no"?>
<!DOCTYPE svg PUBLIC "-//W3C//DTD SVG 1.1//EN" "http://www.w3.org/Graphics/SVG/1.1/DTD/svg11.dtd">
<svg width="100%" height="100%" viewBox="0 0 596 596" version="1.1" xmlns="http://www.w3.org/2000/svg" xmlns:xlink="http://www.w3.org/1999/xlink" xml:space="preserve" xmlns:serif="http://www.serif.com/" style="fill-rule:evenodd;clip-rule:evenodd;stroke-linecap:round;stroke-linejoin:round;stroke-miterlimit:2;">
    <g>
        <path d="M59.81,595.647L535.465,595.647C551.234,595.647 566.356,589.382 577.507,578.232C588.657,567.081 594.922,551.958 594.922,536.19L594.922,60.536C594.922,44.767 588.657,29.644 577.507,18.494C566.356,7.344 551.234,1.079 535.465,1.079L59.81,1.079C44.042,1.079 28.918,7.344 17.768,18.494C6.618,29.644 0.354,44.767 0.354,60.536L0.354,536.19C0.354,551.958 6.618,567.081 17.768,578.232C28.918,589.382 44.042,595.647 59.81,595.647Z" style="fill:white;fill-rule:nonzero;"/>
        <path d="M59.81,595.647L535.465,595.647C551.234,595.647 566.356,589.382 577.507,578.232C588.657,567.081 594.922,551.958 594.922,536.19L594.922,60.536C594.922,44.767 588.657,29.644 577.507,18.494C566.356,7.344 551.234,1.079 535.465,1.079L59.81,1.079C44.042,1.079 28.918,7.344 17.768,18.494C6.618,29.644 0.354,44.767 0.354,60.536L0.354,536.19C0.354,551.958 6.618,567.081 17.768,578.232C28.918,589.382 44.042,595.647 59.81,595.647Z" style="fill:none;stroke:rgb(35,31,32);stroke-width:1px;"/>
        <path d="M147.041,325.744C147.041,309.541 160.175,296.406 176.378,296.406L266.174,296.406C283.027,296.406 298.4,306.032 305.761,321.193L359.246,431.358L429.655,431.358C442.617,431.358 453.125,441.866 453.125,454.828C453.125,467.789 442.617,478.297 429.655,478.297L325.996,478.297C320.378,478.297 315.254,475.089 312.801,470.035L284.926,412.621L284.926,478.297L147.041,478.297L147.041,325.744Z" style="fill:rgb(35,31,32);fill-rule:nonzero;"/>
        <path d="M147.041,325.744C147.041,309.541 160.175,296.406 176.378,296.406L266.174,296.406C283.027,296.406 298.4,306.032 305.761,321.193L359.246,431.358L429.655,431.358C442.617,431.358 453.125,441.866 453.125,454.828C453.125,467.789 442.617,478.297 429.655,478.297L325.996,478.297C320.378,478.297 315.254,475.089 312.801,470.035L284.926,412.621L284.926,478.297L147.041,478.297L147.041,325.744Z" style="fill:none;stroke:rgb(35,31,32);stroke-width:0.71px;"/>
        <path d="M394.451,507.635L88.366,507.635L88.366,89.092L379.782,89.092L379.782,174.169C379.782,182.27 386.35,188.837 394.451,188.837C402.552,188.837 409.119,182.27 409.119,174.169L409.119,74.423C409.119,70.533 407.574,66.801 404.823,64.051C402.072,61.3 398.341,59.754 394.451,59.754L73.697,59.754C65.596,59.754 59.028,66.321 59.028,74.423L59.028,522.304C59.028,526.194 60.573,529.924 63.325,532.676C66.076,535.427 69.807,536.972 73.697,536.972L394.451,536.972C402.552,536.972 409.119,530.405 409.119,522.304C409.119,514.204 402.552,507.635 394.451,507.635Z" style="fill:rgb(35,31,32);fill-rule:nonzero;"/>
        <path d="M394.451,507.635L88.366,507.635L88.366,89.092L379.782,89.092L379.782,174.169C379.782,182.27 386.35,188.837 394.451,188.837C402.552,188.837 409.119,182.27 409.119,174.169L409.119,74.423C409.119,70.533 407.574,66.801 404.823,64.051C402.072,61.3 398.341,59.754 394.451,59.754L73.697,59.754C65.596,59.754 59.028,66.321 59.028,74.423L59.028,522.304C59.028,526.194 60.573,529.924 63.325,532.676C66.076,535.427 69.807,536.972 73.697,536.972L394.451,536.972C402.552,536.972 409.119,530.405 409.119,522.304C409.119,514.204 402.552,507.635 394.451,507.635Z" style="fill:none;stroke:rgb(35,31,32);stroke-width:0.71px;"/>
        <path d="M298.171,212.881L319.88,216.204L310.943,197.029L197.846,179.716L191.998,217.918C188.964,237.731 197.285,257.576 213.542,269.301C229.8,281.028 251.255,282.661 269.1,273.529C286.944,264.398 298.171,246.042 298.171,225.997L298.171,212.881Z" style="fill:rgb(35,31,32);fill-rule:nonzero;"/>
        <path d="M298.171,212.881L319.88,216.204L310.943,197.029L197.846,179.716L191.998,217.918C188.964,237.731 197.285,257.576 213.542,269.301C229.8,281.028 251.255,282.661 269.1,273.529C286.944,264.398 298.171,246.042 298.171,225.997L298.171,212.881Z" style="fill:none;stroke:rgb(35,31,32);stroke-width:0.71px;"/>
        <path d="M200.065,165.216L313.163,182.529L335.003,156.193L214.654,137.77C209.048,136.912 203.809,140.761 202.951,146.367L200.065,165.216Z" style="fill:rgb(35,31,32);fill-rule:nonzero;"/>
        <path d="M200.065,165.216L313.163,182.529L335.003,156.193L214.654,137.77C209.048,136.912 203.809,140.761 202.951,146.367L200.065,165.216Z" style="fill:none;stroke:rgb(35,31,32);stroke-width:0.71px;"/>
    </g>
</svg>
