<?xml version="1.0" encoding="UTF-8" standalone="no"?>
<!DOCTYPE svg PUBLIC "-//W3C//DTD SVG 1.1//EN" "http://www.w3.org/Graphics/SVG/1.1/DTD/svg11.dtd">
<svg width="100%" height="100%" viewBox="0 0 596 596" version="1.1" xmlns="http://www.w3.org/2000/svg" xmlns:xlink="http://www.w3.org/1999/xlink" xml:space="preserve" xmlns:serif="http://www.serif.com/" style="fill-rule:evenodd;clip-rule:evenodd;stroke-linecap:round;stroke-linejoin:round;stroke-miterlimit:2;">
    <g>
        <path d="M59.81,595.647L535.465,595.647C551.234,595.647 566.356,589.382 577.507,578.232C588.657,567.081 594.922,551.958 594.922,536.19L594.922,60.536C594.922,44.767 588.657,29.644 577.507,18.494C566.356,7.344 551.234,1.079 535.465,1.079L59.81,1.079C44.042,1.079 28.918,7.344 17.768,18.494C6.618,29.644 0.354,44.767 0.354,60.536L0.354,536.19C0.354,551.958 6.618,567.081 17.768,578.232C28.918,589.382 44.042,595.647 59.81,595.647Z" style="fill:white;fill-rule:nonzero;"/>
        <path d="M59.81,595.647L535.465,595.647C551.234,595.647 566.356,589.382 577.507,578.232C588.657,567.081 594.922,551.958 594.922,536.19L594.922,60.536C594.922,44.767 588.657,29.644 577.507,18.494C566.356,7.344 551.234,1.079 535.465,1.079L59.81,1.079C44.042,1.079 28.918,7.344 17.768,18.494C6.618,29.644 0.354,44.767 0.354,60.536L0.354,536.19C0.354,551.958 6.618,567.081 17.768,578.232C28.918,589.382 44.042,595.647 59.81,595.647Z" style="fill:none;stroke:rgb(35,31,32);stroke-width:1px;"/>
        <rect x="59.028" y="59.754" width="44.007" height="476.436" style="fill:rgb(35,31,32);fill-rule:nonzero;"/>
        <rect x="59.028" y="59.754" width="44.007" height="476.436" style="fill:none;stroke:rgb(35,31,32);stroke-width:0.71px;"/>
        <path d="M375.872,194.899L343.158,194.899L266.224,239.758C266.768,252.074 273.713,263.207 284.535,269.11C295.357,275.014 308.478,274.827 319.127,268.617L349.958,250.64L375.872,250.64L375.872,295.038L161.709,295.038L161.709,168.888L375.872,168.888L375.872,194.899Z" style="fill:rgb(35,31,32);fill-rule:nonzero;"/>
        <path d="M375.872,194.899L343.158,194.899L266.224,239.758C266.768,252.074 273.713,263.207 284.535,269.11C295.357,275.014 308.478,274.827 319.127,268.617L349.958,250.64L375.872,250.64L375.872,295.038L161.709,295.038L161.709,168.888L375.872,168.888L375.872,194.899Z" style="fill:none;stroke:rgb(35,31,32);stroke-width:0.71px;"/>
        <path d="M246.787,179.156L246.787,284.77L179.312,231.963L246.787,179.156Z" style="fill:white;fill-rule:nonzero;"/>
        <path d="M246.787,179.156L246.787,284.77L179.312,231.963L246.787,179.156Z" style="fill:none;stroke:white;stroke-width:0.71px;"/>
        <path d="M466.817,306.882C437.012,297.315 409.877,280.867 387.605,258.87L387.605,283.707C395.918,286.637 402.221,293.519 404.408,302.057C406.595,310.594 404.378,319.661 398.498,326.225C408.491,327.427 416.604,334.869 418.666,344.72C420.727,354.573 416.276,364.642 407.604,369.749L465.237,369.749C482.387,369.749 498.678,362.246 509.825,349.213L536.229,349.213L536.229,231.865L507.958,231.865C503.444,231.865 499.183,229.787 496.403,226.231C485.282,212.011 468.234,203.7 450.182,203.7L345.537,203.7L275.729,244.404C277.688,252.515 283.365,259.222 291.04,262.494C298.716,265.766 307.485,265.217 314.693,261.014L347.579,241.839L387.605,241.839C409.05,265.907 436.329,284.049 466.817,294.518L466.817,306.882Z" style="fill:rgb(35,31,32);fill-rule:nonzero;"/>
        <path d="M466.817,306.882C437.012,297.315 409.877,280.867 387.605,258.87L387.605,283.707C395.918,286.637 402.221,293.519 404.408,302.057C406.595,310.594 404.378,319.661 398.498,326.225C408.491,327.427 416.604,334.869 418.666,344.72C420.727,354.573 416.276,364.642 407.604,369.749L465.237,369.749C482.387,369.749 498.678,362.246 509.825,349.213L536.229,349.213L536.229,231.865L507.958,231.865C503.444,231.865 499.183,229.787 496.403,226.231C485.282,212.011 468.234,203.7 450.182,203.7L345.537,203.7L275.729,244.404C277.688,252.515 283.365,259.222 291.04,262.494C298.716,265.766 307.485,265.217 314.693,261.014L347.579,241.839L387.605,241.839C409.05,265.907 436.329,284.049 466.817,294.518L466.817,306.882Z" style="fill:none;stroke:rgb(35,31,32);stroke-width:0.71px;"/>
        <path d="M399.813,363.605C407.588,361.329 412.047,353.182 409.771,345.407C407.496,337.632 399.35,333.172 391.574,335.448L321.182,356.044C316.153,357.517 312.29,361.56 311.05,366.652C309.81,371.744 311.38,377.111 315.169,380.73C318.958,384.35 324.391,385.673 329.421,384.202L399.813,363.605Z" style="fill:rgb(35,31,32);fill-rule:nonzero;"/>
        <path d="M399.813,363.605C407.588,361.329 412.047,353.182 409.771,345.407C407.496,337.632 399.35,333.172 391.574,335.448L321.182,356.044C316.153,357.517 312.29,361.56 311.05,366.652C309.81,371.744 311.38,377.111 315.169,380.73C318.958,384.35 324.391,385.673 329.421,384.202L399.813,363.605Z" style="fill:none;stroke:rgb(35,31,32);stroke-width:0.71px;"/>
        <path d="M383.773,325.504C390.541,323.523 395.475,317.695 396.309,310.694C397.144,303.691 393.719,296.867 387.605,293.351L387.605,306.773L322.428,306.773L295.048,314.785C285.718,317.514 280.367,327.29 283.098,336.621C285.828,345.953 295.604,351.302 304.935,348.572L383.773,325.504Z" style="fill:rgb(35,31,32);fill-rule:nonzero;"/>
        <path d="M383.773,325.504C390.541,323.523 395.475,317.695 396.309,310.694C397.144,303.691 393.719,296.867 387.605,293.351L387.605,306.773L322.428,306.773L295.048,314.785C285.718,317.514 280.367,327.29 283.098,336.621C285.828,345.953 295.604,351.302 304.935,348.572L383.773,325.504Z" style="fill:none;stroke:rgb(35,31,32);stroke-width:0.71px;"/>
    </g>
</svg>
