<?xml version="1.0" encoding="UTF-8" standalone="no"?>
<!DOCTYPE svg PUBLIC "-//W3C//DTD SVG 1.1//EN" "http://www.w3.org/Graphics/SVG/1.1/DTD/svg11.dtd">
<svg width="100%" height="100%" viewBox="0 0 596 596" version="1.1" xmlns="http://www.w3.org/2000/svg" xmlns:xlink="http://www.w3.org/1999/xlink" xml:space="preserve" xmlns:serif="http://www.serif.com/" style="fill-rule:evenodd;clip-rule:evenodd;stroke-linecap:round;stroke-linejoin:round;stroke-miterlimit:2;">
    <g>
        <path d="M59.81,595.647L535.465,595.647C551.234,595.647 566.356,589.382 577.507,578.232C588.657,567.081 594.922,551.958 594.922,536.19L594.922,60.536C594.922,44.767 588.657,29.644 577.507,18.494C566.356,7.344 551.234,1.079 535.465,1.079L59.81,1.079C44.042,1.079 28.918,7.344 17.768,18.494C6.618,29.644 0.354,44.767 0.354,60.536L0.354,536.19C0.354,551.958 6.618,567.081 17.768,578.232C28.918,589.382 44.042,595.647 59.81,595.647Z" style="fill:white;fill-rule:nonzero;"/>
        <path d="M59.81,595.647L535.465,595.647C551.234,595.647 566.356,589.382 577.507,578.232C588.657,567.081 594.922,551.958 594.922,536.19L594.922,60.536C594.922,44.767 588.657,29.644 577.507,18.494C566.356,7.344 551.234,1.079 535.465,1.079L59.81,1.079C44.042,1.079 28.918,7.344 17.768,18.494C6.618,29.644 0.354,44.767 0.354,60.536L0.354,536.19C0.354,551.958 6.618,567.081 17.768,578.232C28.918,589.382 44.042,595.647 59.81,595.647Z" style="fill:none;stroke:rgb(35,31,32);stroke-width:1px;"/>
        <path d="M97.167,445.049L498.109,445.049C508.224,445.049 517.924,441.032 525.077,433.878C532.229,426.726 536.247,417.026 536.247,406.911L536.247,189.815C536.247,179.7 532.229,169.999 525.077,162.847C517.924,155.694 508.224,151.676 498.109,151.676L97.167,151.676C87.052,151.676 77.351,155.694 70.199,162.847C63.046,169.999 59.028,179.7 59.028,189.815L59.028,406.911C59.028,417.026 63.046,426.726 70.199,433.878C77.351,441.032 87.052,445.049 97.167,445.049Z" style="fill:rgb(35,31,32);fill-rule:nonzero;"/>
        <path d="M97.167,445.049L498.109,445.049C508.224,445.049 517.924,441.032 525.077,433.878C532.229,426.726 536.247,417.026 536.247,406.911L536.247,189.815C536.247,179.7 532.229,169.999 525.077,162.847C517.924,155.694 508.224,151.676 498.109,151.676L97.167,151.676C87.052,151.676 77.351,155.694 70.199,162.847C63.046,169.999 59.028,179.7 59.028,189.815L59.028,406.911C59.028,417.026 63.046,426.726 70.199,433.878C77.351,441.032 87.052,445.049 97.167,445.049Z" style="fill:none;stroke:rgb(35,31,32);stroke-width:0.71px;"/>
        <path d="M82.498,377.574L82.498,406.911C82.498,410.801 84.043,414.533 86.794,417.284C89.545,420.034 93.276,421.579 97.167,421.579L498.109,421.579C501.999,421.579 505.729,420.034 508.48,417.284C511.232,414.533 512.776,410.801 512.776,406.911L512.776,377.574L82.498,377.574Z" style="fill:white;fill-rule:nonzero;"/>
        <path d="M82.498,377.574L82.498,406.911C82.498,410.801 84.043,414.533 86.794,417.284C89.545,420.034 93.276,421.579 97.167,421.579L498.109,421.579C501.999,421.579 505.729,420.034 508.48,417.284C511.232,414.533 512.776,410.801 512.776,406.911L512.776,377.574L82.498,377.574Z" style="fill:none;stroke:white;stroke-width:0.71px;"/>
        <path d="M512.776,318.899L512.776,189.815C512.776,185.924 511.232,182.194 508.48,179.442C505.729,176.692 501.999,175.146 498.109,175.146L97.167,175.146C89.065,175.146 82.498,181.714 82.498,189.815L82.498,318.899L512.776,318.899Z" style="fill:white;fill-rule:nonzero;"/>
        <path d="M512.776,318.899L512.776,189.815C512.776,185.924 511.232,182.194 508.48,179.442C505.729,176.692 501.999,175.146 498.109,175.146L97.167,175.146C89.065,175.146 82.498,181.714 82.498,189.815L82.498,318.899L512.776,318.899Z" style="fill:none;stroke:white;stroke-width:0.71px;"/>
        <rect x="182.246" y="204.483" width="82.144" height="82.145" style="fill:rgb(35,31,32);fill-rule:nonzero;"/>
        <rect x="182.246" y="204.483" width="82.144" height="82.145" style="fill:none;stroke:rgb(35,31,32);stroke-width:0.71px;"/>
        <path d="M152.908,204.483L100.101,245.556L152.908,286.628L152.908,204.483Z" style="fill:rgb(35,31,32);fill-rule:nonzero;"/>
        <path d="M152.908,204.483L100.101,245.556L152.908,286.628L152.908,204.483Z" style="fill:none;stroke:rgb(35,31,32);stroke-width:0.71px;"/>
    </g>
</svg>
