<?xml version="1.0" encoding="UTF-8" standalone="no"?>
<!DOCTYPE svg PUBLIC "-//W3C//DTD SVG 1.1//EN" "http://www.w3.org/Graphics/SVG/1.1/DTD/svg11.dtd">
<svg width="100%" height="100%" viewBox="0 0 683 137" version="1.1" xmlns="http://www.w3.org/2000/svg" xmlns:xlink="http://www.w3.org/1999/xlink" xml:space="preserve" xmlns:serif="http://www.serif.com/" style="fill-rule:evenodd;clip-rule:evenodd;stroke-linejoin:round;stroke-miterlimit:2;">
    <g>
        <rect x="0" y="0.5" width="682.25" height="136.5"/>
        <rect x="5.25" y="5.75" width="671.75" height="126" style="fill:white;"/>
        <path d="M215.5,32L206.75,40.75L206.75,53.5L214.75,49L214.75,105.5L227.5,105.5L227.5,32L215.5,32Z"/>
        <path d="M287,72.25L286.5,77.25L285.5,81.75L285,83.75L283.5,87.75L282.25,90.25L281,92L279.25,93.25L277.5,94.25L275.5,95L273.25,95.25L273,95.25L270.5,95L268.5,94.25L266.75,93.25L265.25,91.5L264,89.75L263.5,89L261.75,85L261.25,83L260.5,80.75L260,78.5L259.75,76L259.25,73.75L259.25,65.25L259.5,63L259.75,60.5L261.25,53.75L262,51.75L263,49.75L264,48L264,47.75L265.25,45.75L267,44.25L268.75,43.25L270.75,42.5L273.25,42.25L273.5,42.25L276,42.5L278,43.25L279.75,44.5L281.25,46L282.5,48L282.75,48.5L283.75,50.25L285.25,54.25L286.25,58.75L286.5,61L286.75,63.5L287,66.25L287,72.25ZM299.75,66.25L299.75,63.75L299.5,61.25L298.75,56.5L297.75,52L295.75,45.75L293.75,42.25L293.5,41.75L292.25,39.75L289.25,36.25L287.75,35L285.75,33.75L284,32.75L280,31.25L277.75,30.75L273.25,30.25L273,30.25L270.5,30.5L268.25,30.75L266,31.25L264,32L262,33L260.25,34L258.5,35.25L255.5,38.25L254,40.25L252.75,42.25L250.75,45.75L249.25,49.75L248.5,52L247,58.75L246.75,61L246.5,63.5L246.5,66.25L246.25,68.75L246.25,71.25L246.75,76.25L247.5,81L248.5,85.5L250.75,91.5L251.75,93.5L252.75,95.25L252.75,95.5L254.25,97.5L255.5,99.25L257,101L258.75,102.25L260.5,103.75L262.25,104.75L266.25,106.25L268.5,106.75L270.75,107L276,107L278.25,106.75L280.5,106L284.5,104.5L286.25,103.5L288,102.25L289.5,100.75L291.25,99.25L293.75,95.25L294.5,93.5L296.5,90L297.25,87.75L298.25,83.5L299.25,79L299.75,74L299.75,71.5L300,68.75L299.75,66.25Z"/>
        <path d="M359.75,72.25L359.25,77.25L358.25,81.75L357.75,83.75L356.25,87.75L355,90.25L353.75,92L352,93.25L350.25,94.25L348.25,95L345.75,95.25L345.5,95.25L343.25,95L341.25,94.25L339.25,93.25L337.75,91.5L336.5,89.75L336.25,89L335.25,87L333.75,83L332.75,78.5L332.25,76L332,73.75L332,71.25L331.75,68.75L331.75,68L332,65.25L332.25,63L332.5,60.5L333.25,56L334,53.75L334.75,51.75L336.5,48L336.5,47.75L338,45.75L339.5,44.25L341.5,43.25L343.5,42.5L345.75,42.25L346.25,42.25L348.5,42.5L350.75,43.25L352.5,44.5L354,46L355.25,48L355.5,48.5L356.5,50.25L357.25,52.25L357.75,54.25L358.5,56.5L359,58.75L359.25,61L359.5,63.5L359.75,66.25L359.75,72.25ZM372.25,63.75L372.25,61.25L372,58.75L370.5,52L369.75,50L369.25,48L368.25,45.75L367.5,44L366.25,42.25L366.25,41.75L364.75,39.75L363.5,38L362,36.25L358.5,33.75L356.75,32.75L352.75,31.25L350.5,30.75L348.25,30.5L345.75,30.25L345.5,30.25L341,30.75L338.75,31.25L336.75,32L334.75,33L333,34L331.25,35.25L328,38.25L326.75,40.25L325.25,42.25L324.25,44L322.75,47.75L321.75,49.75L319.75,58.75L319.5,61L319.25,63.5L319,66.25L319,71.25L319.5,76.25L319.75,78.5L320.25,81L321.25,85.5L321.75,87.5L322.5,89.5L323.5,91.5L324.25,93.5L325.25,95.25L325.5,95.5L326.75,97.5L329.75,101L331.5,102.25L333.25,103.75L335,104.75L339,106.25L341.25,106.75L343.5,107L348.75,107L351,106.75L353,106L355.25,105.25L357.25,104.5L359,103.5L360.5,102.25L362.25,100.75L363.75,99.25L365.25,97.25L366.25,95.25L368.25,91.75L369,90L369.75,87.75L370.5,85.75L371.5,81.25L371.75,79L372.25,76.5L372.25,74L372.5,71.5L372.5,66.25L372.25,63.75Z"/>
        <path d="M474.25,64.25L473.75,62.5L473,60.5L472,59L470.75,57.25L470,56.5L468.25,55L466.75,54L465,53L463.25,52.25L461.25,51.75L459.25,51.5L458.25,51.5L456,51.75L454,52L452.25,52.5L450.25,53L448.75,54L447,55L444,57.5L443.25,58.5L442,57L440.5,55.5L439,54.25L437.5,53.25L435.5,52.5L433.75,52L432,51.75L429.75,51.5L427.75,51.75L426,52L424,52.75L422.25,53.5L420.5,54.5L419,55.75L418.25,56.25L418.25,53.25L407.25,53.25L407.25,105.5L418.25,105.5L418.25,70.5L418.5,68.5L419,66.5L420.5,64.25L422.25,63.25L423.75,62.25L426,62L426.75,62L429,62.25L430.75,62.75L433,64.25L434.25,66L435,67.5L435.25,69.5L435.25,105.5L446.5,105.5L446.5,70.5L446.75,68.5L447.25,66.5L448.25,65L449,64.25L450.5,63.25L452.25,62.25L454.25,62L455.25,62L457.25,62.25L459.25,62.75L460.75,63.75L461.25,64.25L462.5,66L463.25,67.5L463.75,69.5L463.75,105.5L474.75,105.5L474.75,68.25L474.25,64.25Z"/>
    </g>
</svg>
