<?xml version="1.0" encoding="UTF-8" standalone="no"?>
<!DOCTYPE svg PUBLIC "-//W3C//DTD SVG 1.1//EN" "http://www.w3.org/Graphics/SVG/1.1/DTD/svg11.dtd">
<svg width="100%" height="100%" viewBox="0 0 683 399" version="1.1" xmlns="http://www.w3.org/2000/svg" xmlns:xlink="http://www.w3.org/1999/xlink" xml:space="preserve" xmlns:serif="http://www.serif.com/" style="fill-rule:evenodd;clip-rule:evenodd;stroke-linejoin:round;stroke-miterlimit:2;">
    <g>
        <rect x="5.25" y="5.25" width="672" height="388.5" style="fill:white;"/>
        <path d="M672,388.5L10.75,388.5L10.75,10.5L672,10.5L672,388.5ZM0,0L0,399L682.5,399L682.5,0L0,0Z"/>
        <path d="M252.5,77L252.25,79.5L252,81.75L251.5,84.25L251,86.5L250.5,88.5L249,92.5L248,94.5L247.75,94.75L246.5,96.75L245,98L243,99L241,99.75L238.5,100L238.25,100L236,99.75L234,99L232.25,98L230.5,96.25L229.25,94.5L229,93.75L228,91.75L227.25,89.75L226.5,87.5L226,85.5L225.5,83.25L225,80.75L224.75,78.5L224.5,76L224.5,72.5L224.75,70L224.75,67.5L225.25,65.25L225.5,62.75L226.75,58.5L228.25,54.5L229.25,52.75L229.5,52.5L230.75,50.5L232.25,49L234.25,48L236.25,47.25L239,47.25L241.25,47.5L243.25,48L245,49.25L246.75,50.75L248,52.75L249.25,55L250.75,59.25L251,61.25L252,65.75L252.25,68.5L252.5,71L252.5,77ZM265,66L264.5,63.5L264.25,61.25L263.25,56.75L262.5,54.5L261.75,52.5L261,50.75L259.25,47L259,46.5L257.5,44.5L256.25,42.75L254.5,41.25L253,39.75L251.25,38.5L249.5,37.5L247.5,36.5L245.25,36L243.25,35.5L241,35.25L236,35.25L233.5,35.5L229.5,36.75L227.5,37.75L225.75,38.75L224,40L222.25,41.5L221,43L218,47L217.25,48.75L216.25,50.5L215.25,52.5L214,56.75L213.5,59L212.75,61L212.5,63.5L212,68.25L212,71L211.75,73.5L212,76L212,81L212.5,83.5L212.75,85.75L213.25,88L214,90L214.75,92.25L215.25,94.25L217.25,98.25L218,100L218.25,100.25L219.5,102.25L222.5,105.75L224,107.25L226,108.25L227.75,109.5L231.75,111L233.75,111.5L236,111.75L241.5,111.75L243.75,111.25L245.75,110.75L248,110.25L249.75,109.25L251.75,108.25L253.5,107L256.5,104L259.25,100L261,96.5L262.5,92.5L263,90.5L263.75,88.25L264.25,86L264.5,83.75L265,81.25L265,78.75L265.25,76.25L265.25,68.5L265,66Z"/>
        <path d="M319.5,89.25L319.25,91.5L318.5,93.5L317.25,95.5L315.75,97L314,98.25L311.75,99.25L309.75,99.75L307.25,100L307,100L304.5,99.75L302.25,99L300.25,98.25L298.5,97L296.75,95.25L295.75,93.25L295,91.25L294.75,88.75L295.25,86.25L295.75,84L297,82.25L298.5,80.75L298.75,80.75L300.5,79.25L302.5,78.5L304.75,78L307.25,77.75L309.75,78L312,78.5L314,79.5L315.75,80.75L316,80.75L317.5,82.5L318.5,84.25L319.25,86.5L319.5,88.75L319.5,89.25ZM306,65.75L303.75,65.5L301.5,64.5L299.75,63.5L299,62.75L297.75,61L296.75,59L296.5,56.75L296.75,55.25L297.25,53L298.25,51L300.5,48.75L302.5,47.75L304.75,47.25L308.5,47.25L311,47.5L313,48.25L314.75,49.5L315.5,50.25L316.75,52L317.25,54L317.5,56.75L317.5,57.5L317,59.75L316,61.75L313.75,64L311.75,65L309.75,65.5L307.25,65.75L306,65.75ZM331.5,83.75L330.75,81.5L330,79.5L329,77.75L327.75,76L324.5,72.75L322.5,71.5L324,70.25L325.75,68.75L327.25,67L328.25,65.25L329.25,63L330,61L330.25,59L330.5,56.75L330.5,54.5L330,52L329.5,50L329,47.75L328,45.75L326.75,44L325.25,42.25L323.5,40.75L322.25,39.75L320.5,38.5L316.5,36.5L312,35.5L309.75,35.25L305.25,35.25L302.75,35.5L300.5,35.75L298.5,36.5L296.25,37.25L294.25,38.25L292.5,39.25L290.75,40.75L289.5,42L288,43.75L286.75,45.5L284.75,49.5L284.25,51.5L284,53.75L284,58.5L284.25,60.75L285.75,64.75L287,66.75L288.25,68.5L291.75,71.5L291.25,71.75L287.75,74.75L286.25,76.25L285,78L284,80L282.5,84L282.25,86.5L282,88.75L282,89.75L282.25,92.25L282.75,94.5L283.25,96.5L284,98.75L285.25,100.75L286.5,102.5L288,104.25L289.75,105.75L290,106.25L292,107.5L293.75,108.75L295.75,109.75L297.75,110.5L302.25,111.5L304.75,111.75L310.5,111.75L313,111.25L315.25,110.75L317.25,110.25L319.5,109.25L323,107.25L324.75,105.75L327,103.5L328.5,101.75L329.5,99.75L330.5,98L331.75,93.5L332,91.25L332,85.75L331.5,83.75Z"/>
        <rect x="350.75" y="77.25" width="21.75" height="10.25"/>
        <path d="M407.25,36.75L398.5,45.5L398.5,58.25L406.5,53.75L406.5,110.25L419.25,110.25L419.25,36.75L407.25,36.75Z"/>
        <path d="M480.25,36.75L433,36.75L433,48.75L465.75,48.75L439,110.25L453,110.25L480.25,48L480.25,36.75Z"/>
        <path d="M196.5,162L192,162L188,162.25L187.25,164L186.25,165.75L185.25,167.75L183.75,171.25L182.75,173.25L182,175.25L181.5,177L180.75,179L179.5,182.75L177.5,190.5L177.25,192.25L176.75,194.5L176.5,196.25L176,200.25L176,202.25L175.75,204.25L175.75,216.75L176,218.75L176,221L176.25,222.75L176.5,224.75L177,226.75L177.25,228.75L177.75,230.75L178,232.75L178.5,234.75L179.5,238.5L180,240.5L180.75,242.25L182,246L182.75,248L183.5,249.75L185.25,253.5L186,255.25L188,259L200.5,258.75L197.75,253.5L196,249.75L195.25,248L194.5,246L194,244.25L193.25,242.5L192,238.5L190,230.75L189.75,229L189.25,227L188.75,223L188.25,218.75L188.25,216.75L188,214.75L188,206.5L188.25,204.25L188.25,202.25L188.5,200.5L188.75,198.25L189,196.25L189.25,194.5L189.75,192.25L190,190.5L192,182.75L193.25,179L194,177L194.5,175.25L195.25,173.25L196,171.5L197,169.75L197.75,167.75L200.5,162.25L198.5,162.25L196.5,162Z"/>
        <path d="M252.5,203L252.25,205.5L252,207.75L251.5,210.25L251,212.5L250.5,214.5L249,218.5L248,220.5L247.75,220.75L246.5,222.5L245,224L243,225L241,225.75L238.25,225.75L236,225.5L234,225L232.25,224L230.5,222.25L229.25,220.5L229,219.75L228,217.75L227.25,215.75L226.5,213.5L226,211.5L225.5,209.25L225,206.75L224.75,204.5L224.5,202L224.5,198.5L224.75,196L224.75,193.5L225.25,191.25L225.5,188.75L226.75,184.5L228.25,180.5L229.25,178.75L229.5,178.5L230.75,176.5L232.25,175L234.25,173.75L236.25,173.25L238.5,173L239,173L241.25,173.5L243.25,174L245,175.25L246.75,176.75L248,178.75L249.25,181L250,183L250.75,185.25L251.5,189.5L252,191.75L252.5,196.75L252.5,203ZM265,192L264.5,189.5L264.25,187.25L263.25,182.75L262.5,180.5L261.75,178.5L261,176.75L260,174.75L259.25,173L259,172.5L257.5,170.5L256.25,168.75L254.5,167.25L253,165.75L251.25,164.5L249.5,163.5L247.5,162.5L245.25,162L243.25,161.5L241,161.25L236,161.25L233.5,161.5L231.5,162L227.5,163.5L224,166L222.25,167.5L221,169L219.5,170.75L218,173L215.25,178.5L214,182.75L213.5,184.75L212.75,187L212.5,189.25L212,194.25L212,196.75L211.75,199.5L212,202L212,207L212.5,209.5L212.75,211.75L213.25,214L214,216L214.75,218.25L215.25,220.25L217.25,224.25L218,226L218.25,226.25L219.5,228.25L222.5,231.75L224,233.25L226,234.25L227.75,235.5L231.75,237L233.75,237.5L236,237.75L241.5,237.75L243.75,237.25L245.75,236.75L248,236.25L249.75,235.25L251.75,234.25L253.5,233L255,231.5L256.5,229.75L257.75,228L259.25,226L261,222.5L262.5,218.5L263,216.5L263.75,214.25L264.25,212L265,207.25L265,204.75L265.25,202L265.25,194.5L265,192Z"/>
        <path d="M319.5,215L319.25,217.5L318.5,219.5L317.25,221.5L315.75,223L314,224.25L311.75,225L309.75,225.75L304.5,225.75L302.25,225L300.25,224.25L298.5,223L296.75,221.25L295.75,219.25L295,217.25L294.75,214.75L294.75,214.5L295.75,210L297,208.25L298.75,206.5L300.5,205.25L302.5,204.5L304.75,204L307.25,203.75L309.75,204L312,204.5L314,205.5L315.75,206.75L316,206.75L317.5,208.5L318.5,210.25L319.25,212.5L319.5,214.75L319.5,215ZM306,191.75L303.75,191.25L301.5,190.5L299.75,189.5L299,188.75L297.75,187L296.75,185L296.5,182.5L296.75,181.25L297.25,179L298.25,177L300.5,174.75L302.5,173.75L304.75,173.25L307.25,173L308.5,173.25L311,173.5L313,174.25L314.75,175.5L315.5,176.25L316.75,178L317.25,180L317.5,182.5L317.5,183.5L317,185.75L316,187.75L314.5,189.25L313.75,189.75L311.75,191L309.75,191.5L307.25,191.75L306,191.75ZM331.5,209.75L330.75,207.5L330,205.5L329,203.75L327.75,202L324.5,198.75L322.5,197.5L324,196.25L325.75,194.75L327.25,193L329.25,189L330,187L330.25,185L330.5,182.5L330.5,180.5L330,178L329.5,176L329,173.75L328,171.75L326.75,170L325.25,168.25L323.5,166.75L322.25,165.75L320.5,164.5L316.5,162.5L312,161.5L309.75,161.25L305.25,161.25L302.75,161.5L300.5,161.75L298.5,162.25L296.25,163.25L294.25,164.25L292.5,165.25L290.75,166.75L289.5,167.75L288,169.5L286.75,171.5L284.75,175.5L284.25,177.5L284,179.75L284,184.5L284.25,186.75L285.75,190.75L287,192.75L288.25,194.5L291.75,197.5L291.25,197.75L287.75,200.75L286.25,202.25L285,204L284,206L282.5,210L282.25,212.5L282,214.75L282,215.75L282.25,218.25L282.75,220.5L283.25,222.5L284,224.75L286.5,228.25L288,230.25L289.75,231.75L290,232.25L292,233.5L293.75,234.5L297.75,236.5L302.25,237.5L304.75,237.75L310.5,237.75L313,237.25L315.25,236.75L317.25,236.25L319.5,235.25L323,233.25L324.75,231.75L327,229.5L328.5,227.75L329.5,225.75L330.5,224L331.75,219.5L332,217.25L332,211.75L331.5,209.75Z"/>
        <rect x="350.75" y="203.25" width="21.75" height="10.25"/>
        <path d="M407.25,162.75L398.5,171.5L398.5,184.25L406.5,179.75L406.5,236.25L419.25,236.25L419.25,162.75L407.25,162.75Z"/>
        <path d="M480.5,206.75L480,204.5L479.25,202.5L478.75,200.5L477.75,198.25L476.5,196.5L475.5,194.75L474,193.25L471.5,191L467.5,188.5L463.5,187L461.25,186.5L458.75,186L456.75,186L454.5,186.25L452.25,186.75L450,187.5L449,188L449,174.75L479,174.75L479,162.75L436,162.75L436,198L447.25,201L449.25,199.75L451.5,199L453.5,198.25L455.75,198L456.75,198L459,198.25L461,199L463.25,200.25L465,201.75L466.25,203.75L467,205.75L467,206L467.5,208.5L467.75,210.75L467.75,214.5L467.25,217L466.75,219L465.75,221L464.5,222.5L463.25,223.5L461.25,224.75L459,225.5L457,226L454.5,226L452.25,225.5L450,224.75L448.25,224L446.25,222.75L444.5,221.5L442.5,219.5L433.75,227.75L435.25,229.5L438.75,232.5L440.75,233.75L442.75,234.75L446.75,236.5L449,237L453.5,237.75L459,237.75L465.75,236.25L467.75,235.25L469.75,234L471.5,232.75L473.25,231.25L474.75,229.75L476.25,227.75L477.5,226L478.5,224L479.25,221.75L480,219.75L480.5,215.25L480.75,212.75L480.75,209.5L480.5,206.75Z"/>
        <path d="M493.5,163L480.5,163L481.5,164.75L482.25,166.5L484.25,170L485,172L485.75,173.75L486.75,175.5L487.5,177.5L488,179.25L488.75,181.25L489.25,183L490,185L490.5,186.75L491,188.75L491.25,190.75L491.75,192.75L492,194.75L492.5,196.75L492.75,198.5L493,200.75L493,202.75L493.25,206.75L493.5,208.75L493.5,212.75L493.25,215L493.25,217L493,219L493,221.25L492.5,225.25L492,227.25L491.75,229.25L491.25,231.25L491,233.25L490.5,235L490,237L488.25,242.75L487.75,244.5L487,246.25L486,248.25L483.75,253.5L480.75,258.75L481.25,258.75L485.25,259L491.75,259L494,258.75L494.5,257.5L496.5,254L498,250.5L499,248.75L499.75,246.75L500.25,245L501,243L501.75,241.25L502.75,237.25L503.25,235.5L504.25,231.5L504.5,229.5L505,227.75L505.75,221.5L506,219.5L506,204.75L505.75,203L505.75,200.75L505.5,198.75L505.25,197L504.75,194.75L504.5,193L503.5,189L503.25,187L502.75,185.25L502.25,183.25L501.5,181.5L501,179.5L500.25,177.5L499.5,175.75L498.75,173.75L498,172L497,170.25L496.25,168.25L494.25,164.75L493.5,163Z"/>
        <path d="M253.75,288.75L245,297.5L245,310.25L252.75,305.75L252.75,362.25L265.75,362.25L265.75,288.75L253.75,288.75Z" style="fill:rgb(238,55,43);"/>
        <path d="M319.5,341L319.25,343.5L318.5,345.5L317.25,347.5L315.75,349L314,350.25L311.75,351L309.75,351.75L307,351.75L304.5,351.5L302.25,351L300.25,350.25L298.5,349L296.75,347.25L295.75,345.25L295,343.25L294.75,340.75L294.75,340.5L295.75,336L297,334.25L298.75,332.5L300.5,331.25L302.5,330.5L304.75,329.75L309.75,329.75L312,330.5L314,331.25L317.5,334.25L318.5,336.25L319.25,338.5L319.5,340.75L319.5,341ZM303.75,317.25L301.5,316.5L299.75,315.25L299,314.75L297.75,313L296.75,311L296.5,308.5L296.75,307.25L297.25,305L298.25,303L300.5,300.75L302.5,299.75L304.75,299.25L307.25,299L308.5,299L311,299.5L313,300.25L314.75,301.5L315.5,302.25L316.75,304L317.25,306L317.5,308.5L317.5,309.5L317,311.75L316,313.75L314.5,315.25L313.75,315.75L311.75,317L309.75,317.5L305.68,317.678L303.75,317.25ZM331.5,335.5L330,331.5L329,329.75L327.75,327.75L326,326.25L324.5,324.75L322.5,323.5L324,322.25L325.75,320.75L327.25,318.75L328.25,317L329.25,315L330,313L330.5,308.5L330.5,306.25L330,304L329.5,302L329,299.75L328,297.75L326.75,296L325.25,294.25L323.5,292.75L322.25,291.5L320.5,290.5L316.5,288.5L314.25,287.75L309.75,287.25L307.25,287L305.25,287.25L302.75,287.5L300.5,287.75L298.5,288.25L296.25,289.25L294.25,290.25L292.5,291.25L290.75,292.75L289.5,293.75L288,295.5L286.75,297.25L284.75,301.25L284.25,303.5L284,305.75L284,310.25L284.25,312.5L285,314.75L285.75,316.75L287,318.5L288.25,320.5L291.75,323.5L291.25,323.75L289.5,325L286.25,328.25L285,330L284,332L282.5,336L282.25,338.5L282,340.75L282,341.75L282.25,344.25L282.75,346.5L283.25,348.5L284,350.75L286.5,354.25L288,356L290,358L292,359.5L293.75,360.5L297.75,362.5L302.25,363.5L304.75,363.75L308,363.75L313,363.25L315.25,362.75L317.25,362.25L319.5,361.25L321.25,360.25L324.75,357.75L327,355.5L328.5,353.75L330.5,349.75L331.25,347.75L331.75,345.5L332,343.25L332,337.75L331.5,335.5Z" style="fill:rgb(238,55,43);"/>
        <rect x="350.75" y="329.25" width="21.75" height="10.25" style="fill:rgb(238,55,43);"/>
        <path d="M438.25,330.25L439.75,328.5L441,326.75L442.25,324.5L443,322.75L444,320.5L444.75,318.5L445.25,316.25L445.5,314.25L445.75,311.75L445.75,308.5L445.25,306L444.75,303.75L444,301.75L442,297.75L439.25,294.25L438.75,293.75L437,292.25L435.25,291L433.25,289.75L431.25,288.75L429.25,288L427,287.75L424.75,287.25L422.25,287L421.75,287L419.25,287.25L417,287.5L415,288L412.75,288.75L408.75,290.75L407,292.25L406.75,292.5L405,294L402,297.5L400,301.5L398.5,306L398.5,306.5L411.5,309L412,306.75L413,304.75L414.25,303L415,302.25L416.75,301L418.75,300.25L421,299.75L422,299.75L424.5,300L426.5,300.5L428.5,301.75L429.75,302.75L431.25,304.5L432.25,306.5L432.75,308.75L432.75,313L432.25,315L431.5,317.25L430.5,319.25L429,321.25L427.5,323L400.25,351.25L400.25,362.25L445.75,362.25L445.75,350.25L419,350.25L436.5,332.25L438.25,330.25Z" style="fill:rgb(238,55,43);"/>
        <path d="M505.25,326.25L505,329L505,331.5L504.5,333.75L504.25,336L503.75,338.5L503,340.5L502.5,342.5L501.5,344.5L500.75,346.25L500.5,346.75L499.25,348.5L497.5,350L495.75,351L493.5,351.5L491.25,351.75L491,351.75L488.75,351.5L486.75,350.75L485,349.75L483.25,348.25L482,346.25L480.75,343.75L479.25,339.5L478.75,337.5L478.25,335.25L477.75,332.75L477.5,330.5L477.25,328L477.25,322L477.5,319.5L478,317.25L478.25,314.75L478.75,312.5L481,306.5L482,304.5L483.5,302.5L485,301L486.75,299.75L489,299.25L491.25,299L491.75,299L494,299.25L496,300L497.75,301.25L499.5,302.75L500.75,304.5L501,305.25L502.75,309L503.25,311L504.75,317.75L505.25,322.75L505.25,326.25ZM517.75,320.5L517.75,317.75L517.25,315.5L517,313.25L516,308.75L514.5,304.5L512.75,300.75L512,299L511.75,298.5L510.25,296.5L509,294.75L507.25,293.25L505.75,291.75L504,290.5L502.25,289.5L500,288.5L498,287.75L496,287.5L493.75,287.25L491.25,287L491,287L488.5,287.25L486.25,287.5L484.25,288L482,288.75L480.25,289.5L476.75,292L475,293.5L473.5,295L472.25,296.75L470.75,299L468,304.5L467.25,306.5L466.75,308.75L466,310.75L465.5,313L465.25,315.25L464.75,317.75L464.75,320.25L464.5,322.75L464.5,330.5L464.75,332.75L465.5,337.75L466,340L467.25,344.25L468,346.25L469.75,350.25L470.75,352L471,352.25L472.25,354L473.75,356L476.75,359L478.5,360.25L480.5,361.5L482.25,362.25L484.5,362.75L486.5,363.25L488.75,363.75L491.75,363.75L494,363.5L496.5,363.25L500.5,362.25L502.5,361.25L504.25,360L506,359L507.75,357.5L509.25,355.75L510.5,354L512,352L513.75,348.5L515.25,344.5L516.5,340.25L517,338L517.25,335.75L517.75,330.75L518,328L518,323L517.75,320.5Z" style="fill:rgb(238,55,43);"/>
    </g>
</svg>
