<?xml version="1.0" encoding="UTF-8" standalone="no"?>
<!DOCTYPE svg PUBLIC "-//W3C//DTD SVG 1.1//EN" "http://www.w3.org/Graphics/SVG/1.1/DTD/svg11.dtd">
<svg width="100%" height="100%" viewBox="0 0 596 310" version="1.1" xmlns="http://www.w3.org/2000/svg" xmlns:xlink="http://www.w3.org/1999/xlink" xml:space="preserve" xmlns:serif="http://www.serif.com/" style="fill-rule:evenodd;clip-rule:evenodd;stroke-linecap:round;stroke-linejoin:round;stroke-miterlimit:2;">
    <g>
        <rect x="0.354" y="0.471" width="594.568" height="309.175" style="fill-rule:nonzero;"/>
        <rect x="0.354" y="0.471" width="594.568" height="309.175" style="fill:none;stroke:black;stroke-width:0.71px;"/>
        <rect x="12.245" y="12.363" width="570.785" height="285.392" style="fill:white;fill-rule:nonzero;"/>
        <rect x="12.245" y="12.363" width="570.785" height="285.392" style="fill:none;stroke:black;stroke-width:0.71px;"/>
        <path d="M369.58,225.632L331.528,161.419L277.423,161.419L277.423,147.133L324.988,147.133L324.988,131.08L277.423,131.08L277.423,94.442C278.154,92.39 279.995,90.936 282.161,90.702C284.28,90.657 286.388,90.377 288.445,89.867C291.188,88.966 293.752,87.59 296.018,85.801C298.316,83.968 300.073,81.546 301.104,78.794C302.742,75.026 303.26,70.866 302.593,66.812C301.801,63.856 300.369,61.111 298.397,58.77C295.799,55.725 292.494,53.363 288.772,51.89C285.011,50.178 280.751,49.906 276.803,51.127C273.88,51.919 271.202,53.429 269.012,55.521C264.789,59.553 262.267,65.047 261.963,70.879L261.963,131.891C226.878,136.089 201.039,166.747 202.845,202.037C204.651,237.327 233.485,265.186 268.816,265.779C304.147,266.372 333.899,239.496 336.889,204.286L360.461,244.063L392.769,244.063L392.769,225.632L369.58,225.632Z" style="fill-rule:nonzero;"/>
        <path d="M369.58,225.632L331.528,161.419L277.423,161.419L277.423,147.133L324.988,147.133L324.988,131.08L277.423,131.08L277.423,94.442C278.154,92.39 279.995,90.936 282.161,90.702C284.28,90.657 286.388,90.377 288.445,89.867C291.188,88.966 293.752,87.59 296.018,85.801C298.316,83.968 300.073,81.546 301.104,78.794C302.742,75.026 303.26,70.866 302.593,66.812C301.801,63.856 300.369,61.111 298.397,58.77C295.799,55.725 292.494,53.363 288.772,51.89C285.011,50.178 280.751,49.906 276.803,51.127C273.88,51.919 271.202,53.429 269.012,55.521C264.789,59.553 262.267,65.047 261.963,70.879L261.963,131.891C226.878,136.089 201.039,166.747 202.845,202.037C204.651,237.327 233.485,265.186 268.816,265.779C304.147,266.372 333.899,239.496 336.889,204.286L360.461,244.063L392.769,244.063L392.769,225.632L369.58,225.632Z" style="fill:none;stroke:black;stroke-width:0.71px;"/>
        <path d="M261.963,147.133C239.963,150.544 222.563,167.562 218.664,189.482C214.765,211.401 225.23,233.376 244.706,244.164C264.182,254.952 288.361,252.168 304.875,237.236C321.389,222.305 326.587,198.526 317.809,178.066L261.963,178.066L261.963,147.133Z" style="fill:white;fill-rule:nonzero;"/>
        <path d="M261.963,147.133C239.963,150.544 222.563,167.562 218.664,189.482C214.765,211.401 225.23,233.376 244.706,244.164C264.182,254.952 288.361,252.168 304.875,237.236C321.389,222.305 326.587,198.526 317.809,178.066L261.963,178.066L261.963,147.133Z" style="fill:none;stroke:black;stroke-width:0.71px;"/>
    </g>
</svg>
