<?xml version="1.0" encoding="UTF-8" standalone="no"?>
<!DOCTYPE svg PUBLIC "-//W3C//DTD SVG 1.1//EN" "http://www.w3.org/Graphics/SVG/1.1/DTD/svg11.dtd">
<svg width="100%" height="100%" viewBox="0 0 596 310" version="1.1" xmlns="http://www.w3.org/2000/svg" xmlns:xlink="http://www.w3.org/1999/xlink" xml:space="preserve" xmlns:serif="http://www.serif.com/" style="fill-rule:evenodd;clip-rule:evenodd;stroke-linecap:round;stroke-linejoin:round;stroke-miterlimit:2;">
    <g>
        <rect x="0.354" y="0.471" width="594.568" height="309.175" style="fill-rule:nonzero;"/>
        <rect x="0.354" y="0.471" width="594.568" height="309.175" style="fill:none;stroke:black;stroke-width:0.71px;"/>
        <rect x="12.245" y="12.363" width="570.785" height="285.392" style="fill:white;fill-rule:nonzero;"/>
        <rect x="12.245" y="12.363" width="570.785" height="285.392" style="fill:none;stroke:black;stroke-width:0.71px;"/>
        <path d="M198.832,240.651C198.832,224.844 186.017,212.028 170.209,212.028C154.401,212.028 141.586,224.844 141.586,240.651C141.586,256.46 154.401,269.274 170.209,269.274C186.017,269.274 198.832,256.46 198.832,240.651Z" style="fill-rule:nonzero;"/>
        <path d="M198.832,240.651C198.832,224.844 186.017,212.028 170.209,212.028C154.401,212.028 141.586,224.844 141.586,240.651C141.586,256.46 154.401,269.274 170.209,269.274C186.017,269.274 198.832,256.46 198.832,240.651Z" style="fill:none;stroke:black;stroke-width:0.71px;"/>
        <path d="M95.881,188.989C96.377,185.611 98.505,182.693 101.572,181.192L144.041,159.558L167.875,113.399C167.961,113.232 167.954,113.033 167.857,112.873C167.759,112.713 167.585,112.616 167.398,112.616L134.476,112.616L134.476,95.037L149.961,66.298L180.283,50.069L279.564,50.069L312.575,59.114L489.756,59.114C492.032,59.114 494.216,60.018 495.826,61.628C497.436,63.239 498.341,65.422 498.341,67.699L498.341,232.153C498.341,234.43 497.436,236.614 495.826,238.224C494.216,239.835 492.032,240.738 489.756,240.738L444.806,240.738C444.837,227.24 437.653,214.753 425.969,207.994C414.283,201.236 399.877,201.236 388.192,207.994C376.507,214.753 369.323,227.24 369.355,240.738L207.934,240.738C207.966,227.24 200.782,214.753 189.097,207.994C177.412,201.236 163.006,201.236 151.321,207.994C139.636,214.753 132.452,227.24 132.483,240.738L101.642,240.738L95.881,222.239L95.881,188.989Z" style="fill-rule:nonzero;"/>
        <path d="M95.881,188.989C96.377,185.611 98.505,182.693 101.572,181.192L144.041,159.558L167.875,113.399C167.961,113.232 167.954,113.033 167.857,112.873C167.759,112.713 167.585,112.616 167.398,112.616L134.476,112.616L134.476,95.037L149.961,66.298L180.283,50.069L279.564,50.069L312.575,59.114L489.756,59.114C492.032,59.114 494.216,60.018 495.826,61.628C497.436,63.239 498.341,65.422 498.341,67.699L498.341,232.153C498.341,234.43 497.436,236.614 495.826,238.224C494.216,239.835 492.032,240.738 489.756,240.738L444.806,240.738C444.837,227.24 437.653,214.753 425.969,207.994C414.283,201.236 399.877,201.236 388.192,207.994C376.507,214.753 369.323,227.24 369.355,240.738L207.934,240.738C207.966,227.24 200.782,214.753 189.097,207.994C177.412,201.236 163.006,201.236 151.321,207.994C139.636,214.753 132.452,227.24 132.483,240.738L101.642,240.738L95.881,222.239L95.881,188.989Z" style="fill:none;stroke:black;stroke-width:0.71px;"/>
        <path d="M435.703,240.651C435.703,224.844 422.888,212.028 407.08,212.028C391.272,212.028 378.458,224.844 378.458,240.651C378.458,256.46 391.272,269.274 407.08,269.274C422.888,269.274 435.703,256.46 435.703,240.651Z" style="fill-rule:nonzero;"/>
        <path d="M435.703,240.651C435.703,224.844 422.888,212.028 407.08,212.028C391.272,212.028 378.458,224.844 378.458,240.651C378.458,256.46 391.272,269.274 407.08,269.274C422.888,269.274 435.703,256.46 435.703,240.651Z" style="fill:none;stroke:black;stroke-width:0.71px;"/>
        <path d="M347.223,102.534C347.223,101.11 347.787,99.746 348.794,98.74C349.799,97.734 351.165,97.168 352.588,97.168L467.033,97.168C468.456,97.168 469.82,97.734 470.827,98.74C471.834,99.746 472.398,101.11 472.398,102.534L472.398,149C472.398,150.423 471.834,151.788 470.827,152.794C469.82,153.801 468.456,154.366 467.033,154.366L352.588,154.366C351.165,154.366 349.799,153.801 348.794,152.794C347.787,151.788 347.223,150.423 347.223,149L347.223,102.534Z" style="fill:white;fill-rule:nonzero;"/>
        <path d="M347.223,102.534C347.223,101.11 347.787,99.746 348.794,98.74C349.799,97.734 351.165,97.168 352.588,97.168L467.033,97.168C468.456,97.168 469.82,97.734 470.827,98.74C471.834,99.746 472.398,101.11 472.398,102.534L472.398,149C472.398,150.423 471.834,151.788 470.827,152.794C469.82,153.801 468.456,154.366 467.033,154.366L352.588,154.366C351.165,154.366 349.799,153.801 348.794,152.794C347.787,151.788 347.223,150.423 347.223,149L347.223,102.534Z" style="fill:none;stroke:black;stroke-width:0.71px;"/>
        <path d="M277.258,154.366C275.834,154.366 274.47,153.801 273.463,152.794C272.458,151.788 271.892,150.423 271.892,149L271.892,102.534C271.892,101.11 272.458,99.746 273.463,98.74C274.47,97.734 275.834,97.168 277.258,97.168L308.307,97.168C309.729,97.168 311.095,97.734 312.101,98.74C313.107,99.746 313.673,101.11 313.673,102.534L313.673,149C313.673,150.423 313.107,151.788 312.101,152.794C311.095,153.801 309.729,154.366 308.307,154.366L277.258,154.366Z" style="fill:white;fill-rule:nonzero;"/>
        <path d="M277.258,154.366C275.834,154.366 274.47,153.801 273.463,152.794C272.458,151.788 271.892,150.423 271.892,149L271.892,102.534C271.892,101.11 272.458,99.746 273.463,98.74C274.47,97.734 275.834,97.168 277.258,97.168L308.307,97.168C309.729,97.168 311.095,97.734 312.101,98.74C313.107,99.746 313.673,101.11 313.673,102.534L313.673,149C313.673,150.423 313.107,151.788 312.101,152.794C311.095,153.801 309.729,154.366 308.307,154.366L277.258,154.366Z" style="fill:none;stroke:black;stroke-width:0.58px;"/>
        <path d="M165.915,160.762C165.33,160.814 164.763,160.545 164.435,160.057C164.107,159.57 164.07,158.943 164.339,158.422L185.446,117.451L233.09,117.451L233.09,149.791C233.09,152.568 230.972,154.886 228.207,155.136L165.915,160.762Z" style="fill:white;fill-rule:nonzero;"/>
        <path d="M165.915,160.762C165.33,160.814 164.763,160.545 164.435,160.057C164.107,159.57 164.07,158.943 164.339,158.422L185.446,117.451L233.09,117.451L233.09,149.791C233.09,152.568 230.972,154.886 228.207,155.136L165.915,160.762Z" style="fill:none;stroke:black;stroke-width:0.71px;"/>
        <path d="M231.217,91.151L157.36,91.151C156.793,91.151 156.268,90.852 155.978,90.365C155.687,89.877 155.675,89.273 155.945,88.774L163.779,74.324L231.217,74.324C231.787,74.324 232.333,74.55 232.735,74.952C233.138,75.355 233.364,75.901 233.364,76.47L233.364,89.005C233.364,89.574 233.138,90.12 232.735,90.522C232.333,90.925 231.787,91.151 231.217,91.151Z" style="fill:white;fill-rule:nonzero;"/>
        <path d="M231.217,91.151L157.36,91.151C156.793,91.151 156.268,90.852 155.978,90.365C155.687,89.877 155.675,89.273 155.945,88.774L163.779,74.324L231.217,74.324C231.787,74.324 232.333,74.55 232.735,74.952C233.138,75.355 233.364,75.901 233.364,76.47L233.364,89.005C233.364,89.574 233.138,90.12 232.735,90.522C232.333,90.925 231.787,91.151 231.217,91.151Z" style="fill:none;stroke:black;stroke-width:0.71px;"/>
    </g>
</svg>
