<?xml version="1.0" encoding="UTF-8" standalone="no"?>
<!DOCTYPE svg PUBLIC "-//W3C//DTD SVG 1.1//EN" "http://www.w3.org/Graphics/SVG/1.1/DTD/svg11.dtd">
<svg width="100%" height="100%" viewBox="0 0 596 310" version="1.1" xmlns="http://www.w3.org/2000/svg" xmlns:xlink="http://www.w3.org/1999/xlink" xml:space="preserve" xmlns:serif="http://www.serif.com/" style="fill-rule:evenodd;clip-rule:evenodd;stroke-linecap:round;stroke-linejoin:round;stroke-miterlimit:2;">
    <g>
        <rect x="0.354" y="0.471" width="594.568" height="309.175" style="fill-rule:nonzero;"/>
        <rect x="0.354" y="0.471" width="594.568" height="309.175" style="fill:none;stroke:black;stroke-width:0.71px;"/>
        <rect x="12.245" y="12.363" width="570.785" height="285.392" style="fill:white;fill-rule:nonzero;"/>
        <rect x="12.245" y="12.363" width="570.785" height="285.392" style="fill:none;stroke:black;stroke-width:0.71px;"/>
        <path d="M220.368,229.944C220.368,214.055 207.488,201.176 191.6,201.176C175.711,201.176 162.831,214.055 162.831,229.944C162.831,245.832 175.711,258.714 191.6,258.714C207.488,258.714 220.368,245.832 220.368,229.944Z" style="fill-rule:nonzero;"/>
        <path d="M220.368,229.944C220.368,214.055 207.488,201.176 191.6,201.176C175.711,201.176 162.831,214.055 162.831,229.944C162.831,245.832 175.711,258.714 191.6,258.714C207.488,258.714 220.368,245.832 220.368,229.944Z" style="fill:none;stroke:black;stroke-width:0.71px;"/>
        <path d="M420.022,229.944C420.022,214.055 407.144,201.176 391.255,201.176C375.366,201.176 362.486,214.055 362.486,229.944C362.486,245.832 375.366,258.714 391.255,258.714C407.144,258.714 420.022,245.832 420.022,229.944Z" style="fill-rule:nonzero;"/>
        <path d="M420.022,229.944C420.022,214.055 407.144,201.176 391.255,201.176C375.366,201.176 362.486,214.055 362.486,229.944C362.486,245.832 375.366,258.714 391.255,258.714C407.144,258.714 420.022,245.832 420.022,229.944Z" style="fill:none;stroke:black;stroke-width:0.71px;"/>
        <path d="M260.381,54.906C254.276,54.906 249.326,59.856 249.326,65.961L249.326,189.04L462.319,189.04L462.319,65.961C462.319,59.856 457.37,54.906 451.266,54.906L260.381,54.906Z" style="fill-rule:nonzero;"/>
        <path d="M260.381,54.906C254.276,54.906 249.326,59.856 249.326,65.961L249.326,189.04L462.319,189.04L462.319,65.961C462.319,59.856 457.37,54.906 451.266,54.906L260.381,54.906Z" style="fill:none;stroke:black;stroke-width:0.71px;"/>
        <path d="M462.319,232.155L425.748,232.155C426.494,220.526 421.329,209.305 412.013,202.305L462.319,202.305L462.319,232.155Z" style="fill-rule:nonzero;"/>
        <path d="M462.319,232.155L425.748,232.155C426.494,220.526 421.329,209.305 412.013,202.305L462.319,202.305L462.319,232.155Z" style="fill:none;stroke:black;stroke-width:0.7px;"/>
        <path d="M356.764,232.195C356.004,220.553 361.169,209.313 370.497,202.305L249.326,202.305L249.326,232.155L356.761,232.155L356.764,232.195Z" style="fill-rule:nonzero;"/>
        <path d="M356.764,232.195C356.004,220.553 361.169,209.313 370.497,202.305L249.326,202.305L249.326,232.155L356.761,232.155L356.764,232.195Z" style="fill:none;stroke:black;stroke-width:0.71px;"/>
        <path d="M157.105,232.155C156.282,219.305 162.67,207.061 173.682,200.386C184.695,193.711 198.504,193.711 209.516,200.386C220.528,207.061 226.917,219.305 226.093,232.155L233.85,232.155L233.85,112.392C233.85,110.437 233.073,108.563 231.69,107.181C230.308,105.799 228.434,105.022 226.479,105.022L154.064,105.022C149.079,105.022 144.71,108.358 143.398,113.168L128.457,167.938L128.457,224.785C128.457,226.74 129.233,228.614 130.616,229.997C131.999,231.379 133.874,232.155 135.828,232.155L157.105,232.155Z" style="fill-rule:nonzero;"/>
        <path d="M157.105,232.155C156.282,219.305 162.67,207.061 173.682,200.386C184.695,193.711 198.504,193.711 209.516,200.386C220.528,207.061 226.917,219.305 226.093,232.155L233.85,232.155L233.85,112.392C233.85,110.437 233.073,108.563 231.69,107.181C230.308,105.799 228.434,105.022 226.479,105.022L154.064,105.022C149.079,105.022 144.71,108.358 143.398,113.168L128.457,167.938L128.457,224.785C128.457,226.74 129.233,228.614 130.616,229.997C131.999,231.379 133.874,232.155 135.828,232.155L157.105,232.155Z" style="fill:none;stroke:black;stroke-width:0.71px;"/>
        <path d="M159.11,120.499C157.448,120.499 155.992,121.611 155.555,123.215L147.317,153.412C146.894,154.963 147.218,156.623 148.194,157.9C149.17,159.179 150.687,159.929 152.294,159.929L214.318,159.929C217.168,159.929 219.478,157.619 219.478,154.77L219.478,124.921C219.478,122.479 217.498,120.499 215.056,120.499L159.11,120.499Z" style="fill:white;fill-rule:nonzero;"/>
        <path d="M159.11,120.499C157.448,120.499 155.992,121.611 155.555,123.215L147.317,153.412C146.894,154.963 147.218,156.623 148.194,157.9C149.17,159.179 150.687,159.929 152.294,159.929L214.318,159.929C217.168,159.929 219.478,157.619 219.478,154.77L219.478,124.921C219.478,122.479 217.498,120.499 215.056,120.499L159.11,120.499Z" style="fill:none;stroke:black;stroke-width:0.71px;"/>
    </g>
</svg>
