<?xml version="1.0" encoding="UTF-8" standalone="no"?>
<!DOCTYPE svg PUBLIC "-//W3C//DTD SVG 1.1//EN" "http://www.w3.org/Graphics/SVG/1.1/DTD/svg11.dtd">
<svg width="100%" height="100%" viewBox="0 0 596 310" version="1.1" xmlns="http://www.w3.org/2000/svg" xmlns:xlink="http://www.w3.org/1999/xlink" xml:space="preserve" xmlns:serif="http://www.serif.com/" style="fill-rule:evenodd;clip-rule:evenodd;stroke-linecap:round;stroke-linejoin:round;stroke-miterlimit:2;">
    <g>
        <rect x="0.354" y="0.471" width="594.568" height="309.175" style="fill-rule:nonzero;"/>
        <rect x="0.354" y="0.471" width="594.568" height="309.175" style="fill:none;stroke:black;stroke-width:0.71px;"/>
        <rect x="12.245" y="12.363" width="570.785" height="285.392" style="fill:white;fill-rule:nonzero;"/>
        <rect x="12.245" y="12.363" width="570.785" height="285.392" style="fill:none;stroke:black;stroke-width:0.71px;"/>
        <path d="M363.716,154.411C363.039,150.856 361.544,147.507 359.348,144.63L317.107,89.321C310.282,80.383 297.503,78.671 288.565,85.496L234.565,126.736C234.401,123.173 234.707,119.604 235.473,116.12L212.293,124.767C204.962,127.502 198.438,132.041 193.326,137.965C188.115,144.002 186.358,152.287 188.671,159.92C189.976,164.224 191.897,168.317 194.376,172.07C199.667,171.6 204.998,171.939 210.187,173.076L208.305,178.624C184.26,173.712 160.539,188.338 154.129,212.027C147.72,235.718 160.829,260.309 184.07,268.19C207.311,276.073 232.676,264.531 242,241.831C251.325,219.13 241.396,193.092 219.324,182.362L221.207,176.812C236.535,184.001 247.437,198.164 250.462,214.822C252.975,228.656 265.023,238.714 279.084,238.714L346.845,238.714C353.896,260.12 375.286,273.383 397.596,270.183C419.904,266.983 436.705,248.242 437.456,225.719C438.207,203.193 422.692,183.375 400.646,178.696C378.601,174.017 356.374,185.826 347.912,206.715L341.69,206.715C349.085,185.827 368.838,171.865 390.996,171.865L419.724,171.865L410.378,154.411L363.716,154.411Z" style="fill-rule:nonzero;"/>
        <path d="M363.716,154.411C363.039,150.856 361.544,147.507 359.348,144.63L317.107,89.321C310.282,80.383 297.503,78.671 288.565,85.496L234.565,126.736C234.401,123.173 234.707,119.604 235.473,116.12L212.293,124.767C204.962,127.502 198.438,132.041 193.326,137.965C188.115,144.002 186.358,152.287 188.671,159.92C189.976,164.224 191.897,168.317 194.376,172.07C199.667,171.6 204.998,171.939 210.187,173.076L208.305,178.624C184.26,173.712 160.539,188.338 154.129,212.027C147.72,235.718 160.829,260.309 184.07,268.19C207.311,276.073 232.676,264.531 242,241.831C251.325,219.13 241.396,193.092 219.324,182.362L221.207,176.812C236.535,184.001 247.437,198.164 250.462,214.822C252.975,228.656 265.023,238.714 279.084,238.714L346.845,238.714C353.896,260.12 375.286,273.383 397.596,270.183C419.904,266.983 436.705,248.242 437.456,225.719C438.207,203.193 422.692,183.375 400.646,178.696C378.601,174.017 356.374,185.826 347.912,206.715L341.69,206.715C349.085,185.827 368.838,171.865 390.996,171.865L419.724,171.865L410.378,154.411L363.716,154.411Z" style="fill:none;stroke:black;stroke-width:0.71px;"/>
        <path d="M265.178,61.167L283.866,58.387L283.866,72.369L266.411,74.366L266.411,89.006L275.789,87.933L285.034,80.873C294.021,74.01 306.397,73.692 315.726,80.085C320.858,70.721 320.053,59.224 313.665,50.667C307.276,42.111 296.482,38.071 286.046,40.331C275.61,42.591 267.454,50.734 265.178,61.167Z" style="fill-rule:nonzero;"/>
        <path d="M265.178,61.167L283.866,58.387L283.866,72.369L266.411,74.366L266.411,89.006L275.789,87.933L285.034,80.873C294.021,74.01 306.397,73.692 315.726,80.085C320.858,70.721 320.053,59.224 313.665,50.667C307.276,42.111 296.482,38.071 286.046,40.331C275.61,42.591 267.454,50.734 265.178,61.167Z" style="fill:none;stroke:black;stroke-width:0.71px;"/>
        <path d="M193.491,222.3L203.579,192.558C187.241,190.192 171.792,200.666 167.941,216.72C164.091,232.771 173.108,249.114 188.742,254.417C204.375,259.719 221.474,252.234 228.184,237.151C234.894,222.068 229.004,204.357 214.599,196.296L204.511,226.037C203.479,229.081 200.175,230.711 197.132,229.679C194.089,228.646 192.459,225.343 193.491,222.3Z" style="fill:white;fill-rule:nonzero;"/>
        <path d="M193.491,222.3L203.579,192.558C187.241,190.192 171.792,200.666 167.941,216.72C164.091,232.771 173.108,249.114 188.742,254.417C204.375,259.719 221.474,252.234 228.184,237.151C234.894,222.068 229.004,204.357 214.599,196.296L204.511,226.037C203.479,229.081 200.175,230.711 197.132,229.679C194.089,228.646 192.459,225.343 193.491,222.3Z" style="fill:none;stroke:black;stroke-width:0.71px;"/>
        <path d="M276.49,154.411C271.829,154.411 267.617,157.193 265.788,161.48L264.633,164.185C254.052,161.329 245.069,154.328 239.714,144.765L287.599,108.196L322.893,154.411L276.49,154.411Z" style="fill:white;fill-rule:nonzero;"/>
        <path d="M276.49,154.411C271.829,154.411 267.617,157.193 265.788,161.48L264.633,164.185C254.052,161.329 245.069,154.328 239.714,144.765L287.599,108.196L322.893,154.411L276.49,154.411Z" style="fill:none;stroke:black;stroke-width:0.71px;"/>
        <path d="M397.104,238.714L362.56,238.714C369.138,251.574 383.528,258.419 397.656,255.407C411.784,252.394 422.131,240.275 422.892,225.85C423.652,211.425 414.636,198.285 400.903,193.805C387.171,189.323 372.141,194.617 364.247,206.715L397.104,206.715C404.475,216.108 404.475,229.32 397.104,238.714Z" style="fill:white;fill-rule:nonzero;"/>
        <path d="M397.104,238.714L362.56,238.714C369.138,251.574 383.528,258.419 397.656,255.407C411.784,252.394 422.131,240.275 422.892,225.85C423.652,211.425 414.636,198.285 400.903,193.805C387.171,189.323 372.141,194.617 364.247,206.715L397.104,206.715C404.475,216.108 404.475,229.32 397.104,238.714Z" style="fill:none;stroke:black;stroke-width:0.71px;"/>
    </g>
</svg>
