<?xml version="1.0" encoding="UTF-8" standalone="no"?>
<!DOCTYPE svg PUBLIC "-//W3C//DTD SVG 1.1//EN" "http://www.w3.org/Graphics/SVG/1.1/DTD/svg11.dtd">
<svg width="100%" height="100%" viewBox="0 0 596 310" version="1.1" xmlns="http://www.w3.org/2000/svg" xmlns:xlink="http://www.w3.org/1999/xlink" xml:space="preserve" xmlns:serif="http://www.serif.com/" style="fill-rule:evenodd;clip-rule:evenodd;stroke-linecap:round;stroke-linejoin:round;stroke-miterlimit:2;">
    <g>
        <rect x="0.354" y="0.471" width="594.568" height="309.175" style="fill-rule:nonzero;"/>
        <rect x="0.354" y="0.471" width="594.568" height="309.175" style="fill:none;stroke:black;stroke-width:0.71px;"/>
        <rect x="12.245" y="12.363" width="570.785" height="285.392" style="fill:white;fill-rule:nonzero;"/>
        <rect x="12.245" y="12.363" width="570.785" height="285.392" style="fill:none;stroke:black;stroke-width:0.71px;"/>
        <path d="M434.678,206.685C434.678,189.281 420.569,175.173 403.165,175.173C385.762,175.173 371.653,189.281 371.653,206.685C371.653,224.09 385.762,238.198 403.165,238.198C420.569,238.198 434.678,224.09 434.678,206.685Z" style="fill-rule:nonzero;"/>
        <path d="M434.678,206.685C434.678,189.281 420.569,175.173 403.165,175.173C385.762,175.173 371.653,189.281 371.653,206.685C371.653,224.09 385.762,238.198 403.165,238.198C420.569,238.198 434.678,224.09 434.678,206.685Z" style="fill:none;stroke:black;stroke-width:0.71px;"/>
        <path d="M189.715,206.685C189.715,189.281 175.607,175.173 158.204,175.173C140.8,175.173 126.691,189.281 126.691,206.685C126.691,224.09 140.8,238.198 158.204,238.198C175.607,238.198 189.715,224.09 189.715,206.685Z" style="fill-rule:nonzero;"/>
        <path d="M189.715,206.685C189.715,189.281 175.607,175.173 158.204,175.173C140.8,175.173 126.691,189.281 126.691,206.685C126.691,224.09 140.8,238.198 158.204,238.198C175.607,238.198 189.715,224.09 189.715,206.685Z" style="fill:none;stroke:black;stroke-width:0.71px;"/>
        <path d="M94.414,71.125C92.872,71.125 91.503,72.116 91.023,73.583L66.93,147.214L66.93,200.739C66.93,202.316 67.556,203.829 68.671,204.944C69.786,206.059 71.298,206.685 72.875,206.685L118.605,206.685C118.605,184.816 136.334,167.087 158.204,167.087C180.073,167.087 197.802,184.816 197.802,206.685L363.567,206.685C363.567,184.816 381.296,167.087 403.165,167.087C425.035,167.087 442.764,184.816 442.764,206.685L525.341,206.685C526.287,206.685 527.195,206.309 527.864,205.64C528.534,204.971 528.909,204.064 528.909,203.118L528.909,78.259C528.909,74.319 525.715,71.125 521.774,71.125L94.414,71.125Z" style="fill-rule:nonzero;"/>
        <path d="M94.414,71.125C92.872,71.125 91.503,72.116 91.023,73.583L66.93,147.214L66.93,200.739C66.93,202.316 67.556,203.829 68.671,204.944C69.786,206.059 71.298,206.685 72.875,206.685L118.605,206.685C118.605,184.816 136.334,167.087 158.204,167.087C180.073,167.087 197.802,184.816 197.802,206.685L363.567,206.685C363.567,184.816 381.296,167.087 403.165,167.087C425.035,167.087 442.764,184.816 442.764,206.685L525.341,206.685C526.287,206.685 527.195,206.309 527.864,205.64C528.534,204.971 528.909,204.064 528.909,203.118L528.909,78.259C528.909,74.319 525.715,71.125 521.774,71.125L94.414,71.125Z" style="fill:none;stroke:black;stroke-width:0.71px;"/>
        <path d="M415.551,96.096L415.551,132.364C415.551,135.648 418.213,138.31 421.496,138.31L514.249,138.31C515.825,138.31 517.338,137.683 518.453,136.569C519.568,135.454 520.193,133.941 520.193,132.364L520.193,96.096C520.193,92.813 517.531,90.151 514.249,90.151L421.496,90.151C419.919,90.151 418.407,90.777 417.292,91.892C416.178,93.007 415.551,94.52 415.551,96.096Z" style="fill:white;fill-rule:nonzero;"/>
        <path d="M415.551,96.096L415.551,132.364C415.551,135.648 418.213,138.31 421.496,138.31L514.249,138.31C515.825,138.31 517.338,137.683 518.453,136.569C519.568,135.454 520.193,133.941 520.193,132.364L520.193,96.096C520.193,92.813 517.531,90.151 514.249,90.151L421.496,90.151C419.919,90.151 418.407,90.777 417.292,91.892C416.178,93.007 415.551,94.52 415.551,96.096Z" style="fill:none;stroke:black;stroke-width:0.71px;"/>
        <path d="M301.395,96.096L301.395,132.364C301.395,135.648 304.056,138.31 307.339,138.31L400.092,138.31C401.669,138.31 403.181,137.683 404.296,136.569C405.411,135.454 406.037,133.941 406.037,132.364L406.037,96.096C406.037,92.813 403.375,90.151 400.092,90.151L307.339,90.151C305.762,90.151 304.25,90.777 303.135,91.892C302.021,93.007 301.395,94.52 301.395,96.096Z" style="fill:white;fill-rule:nonzero;"/>
        <path d="M301.395,96.096L301.395,132.364C301.395,135.648 304.056,138.31 307.339,138.31L400.092,138.31C401.669,138.31 403.181,137.683 404.296,136.569C405.411,135.454 406.037,133.941 406.037,132.364L406.037,96.096C406.037,92.813 403.375,90.151 400.092,90.151L307.339,90.151C305.762,90.151 304.25,90.777 303.135,91.892C302.021,93.007 301.395,94.52 301.395,96.096Z" style="fill:none;stroke:black;stroke-width:0.71px;"/>
        <path d="M186.047,96.096L186.047,132.364C186.047,135.648 188.709,138.31 191.993,138.31L285.935,138.31C287.512,138.31 289.024,137.683 290.139,136.569C291.254,135.454 291.88,133.941 291.88,132.364L291.88,96.096C291.88,92.813 289.219,90.151 285.935,90.151L191.993,90.151C190.417,90.151 188.904,90.777 187.789,91.892C186.674,93.007 186.047,94.52 186.047,96.096Z" style="fill:white;fill-rule:nonzero;"/>
        <path d="M186.047,96.096L186.047,132.364C186.047,135.648 188.709,138.31 191.993,138.31L285.935,138.31C287.512,138.31 289.024,137.683 290.139,136.569C291.254,135.454 291.88,133.941 291.88,132.364L291.88,96.096C291.88,92.813 289.219,90.151 285.935,90.151L191.993,90.151C190.417,90.151 188.904,90.777 187.789,91.892C186.674,93.007 186.047,94.52 186.047,96.096Z" style="fill:none;stroke:black;stroke-width:0.71px;"/>
        <path d="M170.589,90.151L99.449,90.151C97.906,90.151 96.539,91.142 96.059,92.609L83.654,130.515C83.062,132.326 83.373,134.311 84.492,135.854C85.61,137.397 87.4,138.31 89.305,138.31L170.589,138.31C172.166,138.31 173.678,137.683 174.793,136.569C175.908,135.454 176.534,133.941 176.534,132.364L176.534,96.096C176.534,92.813 173.873,90.151 170.589,90.151Z" style="fill:white;fill-rule:nonzero;"/>
        <path d="M170.589,90.151L99.449,90.151C97.906,90.151 96.539,91.142 96.059,92.609L83.654,130.515C83.062,132.326 83.373,134.311 84.492,135.854C85.61,137.397 87.4,138.31 89.305,138.31L170.589,138.31C172.166,138.31 173.678,137.683 174.793,136.569C175.908,135.454 176.534,133.941 176.534,132.364L176.534,96.096C176.534,92.813 173.873,90.151 170.589,90.151Z" style="fill:none;stroke:black;stroke-width:0.71px;"/>
    </g>
</svg>
