<?xml version="1.0" encoding="UTF-8" standalone="no"?>
<!DOCTYPE svg PUBLIC "-//W3C//DTD SVG 1.1//EN" "http://www.w3.org/Graphics/SVG/1.1/DTD/svg11.dtd">
<svg width="100%" height="100%" viewBox="0 0 596 596" version="1.1" xmlns="http://www.w3.org/2000/svg" xmlns:xlink="http://www.w3.org/1999/xlink" xml:space="preserve" xmlns:serif="http://www.serif.com/" style="fill-rule:evenodd;clip-rule:evenodd;stroke-linecap:round;stroke-linejoin:round;stroke-miterlimit:2;">
    <g>
        <rect x="0.354" y="1.079" width="594.568" height="594.568" style="fill-rule:nonzero;"/>
        <rect x="0.354" y="1.079" width="594.568" height="594.568" style="fill:none;stroke:black;stroke-width:0.71px;"/>
        <rect x="18.648" y="19.374" width="557.979" height="557.979" style="fill:white;fill-rule:nonzero;"/>
        <rect x="18.648" y="19.374" width="557.979" height="557.979" style="fill:none;stroke:black;stroke-width:0.71px;"/>
        <path d="M498.086,372.526L467.521,199.185C467.22,197.48 465.922,196.124 464.231,195.749C462.541,195.374 460.791,196.055 459.798,197.473L421.187,252.616L327.923,159.352C295.954,127.383 247.876,117.82 206.107,135.121C164.338,152.423 137.105,193.181 137.105,238.392L137.105,502.894L208.453,502.894L208.453,247.004C208.453,229.208 219.173,213.165 235.613,206.355C252.054,199.545 270.979,203.309 283.562,215.893L370.736,303.067L315.593,341.678C314.175,342.671 313.495,344.421 313.869,346.111C314.244,347.801 315.6,349.1 317.305,349.4L490.646,379.965C492.709,380.329 494.821,379.663 496.302,378.182C497.783,376.701 498.449,374.59 498.086,372.526Z" style="fill-rule:nonzero;"/>
        <path d="M498.086,372.526L467.521,199.185C467.22,197.48 465.922,196.124 464.231,195.749C462.541,195.374 460.791,196.055 459.798,197.473L421.187,252.616L327.923,159.352C295.954,127.383 247.876,117.82 206.107,135.121C164.338,152.423 137.105,193.181 137.105,238.392L137.105,502.894L208.453,502.894L208.453,247.004C208.453,229.208 219.173,213.165 235.613,206.355C252.054,199.545 270.979,203.309 283.562,215.893L370.736,303.067L315.593,341.678C314.175,342.671 313.495,344.421 313.869,346.111C314.244,347.801 315.6,349.1 317.305,349.4L490.646,379.965C492.709,380.329 494.821,379.663 496.302,378.182C497.783,376.701 498.449,374.59 498.086,372.526Z" style="fill:none;stroke:black;stroke-width:0.71px;"/>
    </g>
</svg>
