<?xml version="1.0" encoding="UTF-8" standalone="no"?>
<!DOCTYPE svg PUBLIC "-//W3C//DTD SVG 1.1//EN" "http://www.w3.org/Graphics/SVG/1.1/DTD/svg11.dtd">
<svg width="100%" height="100%" viewBox="0 0 596 596" version="1.1" xmlns="http://www.w3.org/2000/svg" xmlns:xlink="http://www.w3.org/1999/xlink" xml:space="preserve" xmlns:serif="http://www.serif.com/" style="fill-rule:evenodd;clip-rule:evenodd;stroke-linecap:round;stroke-linejoin:round;stroke-miterlimit:2;">
    <g>
        <rect x="0.354" y="1.079" width="594.568" height="594.568" style="fill-rule:nonzero;"/>
        <rect x="0.354" y="1.079" width="594.568" height="594.568" style="fill:none;stroke:black;stroke-width:0.71px;"/>
        <rect x="18.648" y="19.374" width="557.979" height="557.979" style="fill:white;fill-rule:nonzero;"/>
        <rect x="18.648" y="19.374" width="557.979" height="557.979" style="fill:none;stroke:black;stroke-width:0.71px;"/>
        <path d="M466.601,76.023L436.036,249.364C435.735,251.069 434.437,252.425 432.746,252.799C431.056,253.175 429.307,252.494 428.313,251.076L389.702,195.933L284.901,300.734C262.601,323.035 250.072,353.281 250.072,384.818L250.072,520.733L178.724,520.733L178.724,384.818C178.724,334.358 198.77,285.964 234.451,250.283L339.251,145.482L284.109,106.871C282.69,105.878 282.01,104.128 282.385,102.437C282.76,100.747 284.116,99.449 285.821,99.149L459.162,68.584C461.226,68.221 463.336,68.886 464.817,70.367C466.299,71.849 466.965,73.96 466.601,76.023Z" style="fill-rule:nonzero;"/>
        <path d="M466.601,76.023L436.036,249.364C435.735,251.069 434.437,252.425 432.746,252.799C431.056,253.175 429.307,252.494 428.313,251.076L389.702,195.933L284.901,300.734C262.601,323.035 250.072,353.281 250.072,384.818L250.072,520.733L178.724,520.733L178.724,384.818C178.724,334.358 198.77,285.964 234.451,250.283L339.251,145.482L284.109,106.871C282.69,105.878 282.01,104.128 282.385,102.437C282.76,100.747 284.116,99.449 285.821,99.149L459.162,68.584C461.226,68.221 463.336,68.886 464.817,70.367C466.299,71.849 466.965,73.96 466.601,76.023Z" style="fill:none;stroke:black;stroke-width:0.71px;"/>
    </g>
</svg>
