<?xml version="1.0" encoding="UTF-8" standalone="no"?>
<!DOCTYPE svg PUBLIC "-//W3C//DTD SVG 1.1//EN" "http://www.w3.org/Graphics/SVG/1.1/DTD/svg11.dtd">
<svg width="100%" height="100%" viewBox="0 0 596 596" version="1.1" xmlns="http://www.w3.org/2000/svg" xmlns:xlink="http://www.w3.org/1999/xlink" xml:space="preserve" xmlns:serif="http://www.serif.com/" style="fill-rule:evenodd;clip-rule:evenodd;stroke-linecap:round;stroke-linejoin:round;stroke-miterlimit:2;">
    <g>
        <rect x="0.354" y="1.079" width="594.568" height="594.568" style="fill-rule:nonzero;"/>
        <rect x="0.354" y="1.079" width="594.568" height="594.568" style="fill:none;stroke:black;stroke-width:0.71px;"/>
        <rect x="18.648" y="19.374" width="557.979" height="557.979" style="fill:white;fill-rule:nonzero;"/>
        <rect x="18.648" y="19.374" width="557.979" height="557.979" style="fill:none;stroke:black;stroke-width:0.71px;"/>
        <path d="M97.19,372.526L127.755,199.185C128.056,197.48 129.354,196.124 131.044,195.749C132.735,195.374 134.484,196.055 135.478,197.473L174.089,252.616L267.353,159.352C299.321,127.383 347.399,117.82 389.168,135.121C430.938,152.423 458.171,193.181 458.171,238.392L458.171,502.894L386.822,502.894L386.822,247.004C386.822,229.208 376.103,213.165 359.662,206.355C343.222,199.545 324.298,203.309 311.714,215.893L224.54,303.067L279.683,341.678C281.101,342.671 281.781,344.421 281.407,346.111C281.032,347.801 279.676,349.1 277.97,349.4L104.629,379.965C102.566,380.329 100.455,379.663 98.974,378.182C97.492,376.701 96.826,374.59 97.19,372.526Z" style="fill-rule:nonzero;"/>
        <path d="M97.19,372.526L127.755,199.185C128.056,197.48 129.354,196.124 131.044,195.749C132.735,195.374 134.484,196.055 135.478,197.473L174.089,252.616L267.353,159.352C299.321,127.383 347.399,117.82 389.168,135.121C430.938,152.423 458.171,193.181 458.171,238.392L458.171,502.894L386.822,502.894L386.822,247.004C386.822,229.208 376.103,213.165 359.662,206.355C343.222,199.545 324.298,203.309 311.714,215.893L224.54,303.067L279.683,341.678C281.101,342.671 281.781,344.421 281.407,346.111C281.032,347.801 279.676,349.1 277.97,349.4L104.629,379.965C102.566,380.329 100.455,379.663 98.974,378.182C97.492,376.701 96.826,374.59 97.19,372.526Z" style="fill:none;stroke:black;stroke-width:0.71px;"/>
    </g>
</svg>
