<?xml version="1.0" encoding="UTF-8" standalone="no"?>
<!DOCTYPE svg PUBLIC "-//W3C//DTD SVG 1.1//EN" "http://www.w3.org/Graphics/SVG/1.1/DTD/svg11.dtd">
<svg width="100%" height="100%" viewBox="0 0 596 596" version="1.1" xmlns="http://www.w3.org/2000/svg" xmlns:xlink="http://www.w3.org/1999/xlink" xml:space="preserve" xmlns:serif="http://www.serif.com/" style="fill-rule:evenodd;clip-rule:evenodd;stroke-linecap:round;stroke-linejoin:round;stroke-miterlimit:2;">
    <g>
        <rect x="0.354" y="1.079" width="594.568" height="594.568" style="fill-rule:nonzero;"/>
        <rect x="0.354" y="1.079" width="594.568" height="594.568" style="fill:none;stroke:black;stroke-width:0.71px;"/>
        <rect x="10.846" y="11.572" width="573.583" height="573.583" style="fill:white;fill-rule:nonzero;"/>
        <rect x="10.846" y="11.572" width="573.583" height="573.583" style="fill:none;stroke:black;stroke-width:0.71px;"/>
        <path d="M460.844,247.989C474.457,208.088 474.457,164.8 460.844,124.9C451.885,95.548 424.799,75.495 394.109,75.495C363.42,75.495 336.334,95.548 327.375,124.9C313.762,164.8 313.762,208.088 327.375,247.989C336.334,277.342 363.42,297.394 394.109,297.394C424.799,297.394 451.885,277.342 460.844,247.989Z" style="fill-rule:nonzero;"/>
        <path d="M460.844,247.989C474.457,208.088 474.457,164.8 460.844,124.9C451.885,95.548 424.799,75.495 394.109,75.495C363.42,75.495 336.334,95.548 327.375,124.9C313.762,164.8 313.762,208.088 327.375,247.989C336.334,277.342 363.42,297.394 394.109,297.394C424.799,297.394 451.885,277.342 460.844,247.989Z" style="fill:none;stroke:black;stroke-width:0.71px;"/>
        <path d="M215.681,81.521L124.222,220.37L124.222,252.196L224.25,252.196L224.25,291.368L260.972,291.368L260.972,252.196L278.11,252.196L278.11,217.921L260.972,217.921L260.972,81.521L215.681,81.521Z" style="fill-rule:nonzero;"/>
        <path d="M215.681,81.521L124.222,220.37L124.222,252.196L224.25,252.196L224.25,291.368L260.972,291.368L260.972,252.196L278.11,252.196L278.11,217.921L260.972,217.921L260.972,81.521L215.681,81.521Z" style="fill:none;stroke:black;stroke-width:0.71px;"/>
        <path d="M448.356,420.774L469.778,420.774L469.778,437.912L448.356,437.912L448.356,486.176C448.356,488.123 449.13,489.993 450.508,491.37C451.885,492.747 453.753,493.521 455.701,493.521C458.722,493.521 461.724,493.049 464.599,492.123L469.851,508.437C465.279,509.909 460.504,510.659 455.701,510.659C448.884,510.659 442.345,507.95 437.524,503.129C432.703,498.308 429.995,491.77 429.995,484.952L429.995,437.912L417.754,437.912L417.754,420.774L429.995,420.774L429.995,401.8L448.356,385.799L448.356,420.774Z" style="fill-rule:nonzero;"/>
        <path d="M448.356,420.774L469.778,420.774L469.778,437.912L448.356,437.912L448.356,486.176C448.356,488.123 449.13,489.993 450.508,491.37C451.885,492.747 453.753,493.521 455.701,493.521C458.722,493.521 461.724,493.049 464.599,492.123L469.851,508.437C465.279,509.909 460.504,510.659 455.701,510.659C448.884,510.659 442.345,507.95 437.524,503.129C432.703,498.308 429.995,491.77 429.995,484.952L429.995,437.912L417.754,437.912L417.754,420.774L429.995,420.774L429.995,401.8L448.356,385.799L448.356,420.774Z" style="fill:none;stroke:black;stroke-width:0.71px;"/>
        <path d="M310.906,449.846L310.906,508.21L329.269,508.21L329.269,446.173C329.269,438.788 326.334,431.704 321.111,426.481C315.889,421.259 308.805,418.325 301.419,418.325C291.926,418.325 282.913,422.495 276.766,429.729C272.024,423.247 264.716,419.13 256.717,418.431C248.718,417.732 240.806,420.519 235.012,426.079L235.012,420.774L216.65,420.774L216.65,508.21L235.012,508.21L235.012,449.846C235.012,444.707 237.753,439.958 242.203,437.389C246.654,434.82 252.136,434.82 256.586,437.389C261.036,439.958 263.778,444.707 263.778,449.846L263.778,508.21L282.14,508.21L282.14,449.846C282.14,444.707 284.881,439.958 289.331,437.389C293.782,434.82 299.265,434.82 303.715,437.389C308.165,439.958 310.906,444.707 310.906,449.846Z" style="fill-rule:nonzero;"/>
        <path d="M310.906,449.846L310.906,508.21L329.269,508.21L329.269,446.173C329.269,438.788 326.334,431.704 321.111,426.481C315.889,421.259 308.805,418.325 301.419,418.325C291.926,418.325 282.913,422.495 276.766,429.729C272.024,423.247 264.716,419.13 256.717,418.431C248.718,417.732 240.806,420.519 235.012,426.079L235.012,420.774L216.65,420.774L216.65,508.21L235.012,508.21L235.012,449.846C235.012,444.707 237.753,439.958 242.203,437.389C246.654,434.82 252.136,434.82 256.586,437.389C261.036,439.958 263.778,444.707 263.778,449.846L263.778,508.21L282.14,508.21L282.14,449.846C282.14,444.707 284.881,439.958 289.331,437.389C293.782,434.82 299.265,434.82 303.715,437.389C308.165,439.958 310.906,444.707 310.906,449.846Z" style="fill:none;stroke:black;stroke-width:0.71px;"/>
        <path d="M143.786,451.457L174.229,420.774L200.095,420.774L163.267,457.893L200.095,508.21L177.341,508.21L150.172,471.091L143.786,477.527L143.786,508.21L125.424,508.21L125.424,385.799L143.786,385.799L143.786,451.526L143.786,451.457Z" style="fill-rule:nonzero;"/>
        <path d="M143.786,451.457L174.229,420.774L200.095,420.774L163.267,457.893L200.095,508.21L177.341,508.21L150.172,471.091L143.786,477.527L143.786,508.21L125.424,508.21L125.424,385.799L143.786,385.799L143.786,451.526L143.786,451.457Z" style="fill:none;stroke:black;stroke-width:0.71px;"/>
        <path d="M389.027,385.799L355.452,508.21L374.491,508.21L408.066,385.799L389.027,385.799Z" style="fill-rule:nonzero;"/>
        <path d="M389.027,385.799L355.452,508.21L374.491,508.21L408.066,385.799L389.027,385.799Z" style="fill:none;stroke:black;stroke-width:0.71px;"/>
        <path d="M424.191,241.377C437.709,206.003 437.709,166.886 424.191,131.511C419.88,118.558 407.762,109.819 394.109,109.819C380.457,109.819 368.339,118.558 364.027,131.511C350.51,166.886 350.51,206.003 364.027,241.377C368.339,254.331 380.457,263.07 394.109,263.07C407.762,263.07 419.88,254.331 424.191,241.377Z" style="fill:white;fill-rule:nonzero;"/>
        <path d="M424.191,241.377C437.709,206.003 437.709,166.886 424.191,131.511C419.88,118.558 407.762,109.819 394.109,109.819C380.457,109.819 368.339,118.558 364.027,131.511C350.51,166.886 350.51,206.003 364.027,241.377C368.339,254.331 380.457,263.07 394.109,263.07C407.762,263.07 419.88,254.331 424.191,241.377Z" style="fill:none;stroke:black;stroke-width:0.71px;"/>
        <path d="M166.823,217.921L224.25,217.921L224.25,130.738L166.823,217.921Z" style="fill:white;fill-rule:nonzero;"/>
        <path d="M166.823,217.921L224.25,217.921L224.25,130.738L166.823,217.921Z" style="fill:none;stroke:black;stroke-width:0.71px;"/>
    </g>
</svg>
