<?xml version="1.0" encoding="UTF-8" standalone="no"?>
<!DOCTYPE svg PUBLIC "-//W3C//DTD SVG 1.1//EN" "http://www.w3.org/Graphics/SVG/1.1/DTD/svg11.dtd">
<svg width="100%" height="100%" viewBox="0 0 321 161" version="1.1" xmlns="http://www.w3.org/2000/svg" xmlns:xlink="http://www.w3.org/1999/xlink" xml:space="preserve" xmlns:serif="http://www.serif.com/" style="fill-rule:evenodd;clip-rule:evenodd;stroke-linejoin:round;stroke-miterlimit:2;">
    <g>
        <rect x="5.5" y="6" width="310" height="149.25" style="fill:none;"/>
        <path d="M5.5,6L315.5,6L5.5,6Z"/>
        <path d="M5.5,155.25L315.5,155.25L5.5,155.25Z"/>
        <path d="M315.5,155.25L5.5,155.25L5.5,6L315.5,6L315.5,155.25ZM0,0.25L0,161L321,161L321,0.25L0,0.25Z"/>
        <path d="M0,161L321,161L0,161Z"/>
        <path d="M5.5,6L315.5,6L5.5,6Z" style="fill:rgb(249,250,250);"/>
        <rect x="5.5" y="6" width="310" height="149.25" style="fill:white;"/>
        <path d="M5.5,155.25L315.5,155.25L5.5,155.25Z" style="fill:rgb(249,250,250);"/>
        <path d="M75.75,38.75L66.25,48.25L66.25,61.75L74.75,57L74.75,117.25L88.5,117.25L88.5,38.75L75.75,38.75Z"/>
        <path d="M152,82L151.75,84.5L151.5,87.25L150.5,92L149,96.5L148.25,98.5L147.25,100.5L146.75,101L145.5,103L143.75,104.5L141.75,105.5L139.5,106L137,106.25L136.75,106.25L134.25,106L132.25,105.25L130.25,104.25L128.5,102.5L127.25,100.5L125.75,97.5L125,95.5L123.5,90.75L123,88.5L122.75,86L122.25,83.5L122.25,74.5L122.5,71.75L122.75,69.25L123.75,64.5L125.25,60L127.25,56L127.5,55.75L128.75,53.75L130.5,52L132.5,50.75L134.5,50.25L137,50L137.75,50L140.25,50.25L142.25,51L144.25,52.25L145.75,53.75L147.25,56L148.5,58.5L150,62.75L150.5,65.25L151.25,67.5L151.5,70L151.75,72.75L152,75.25L152,82ZM165.5,72.5L165,67.5L164,62.5L163.5,60.25L162,55.75L161.25,53.75L160.25,51.75L159,49.75L158.75,49.25L155.75,45.25L154.25,43.5L152.5,42L150.5,40.75L148.75,39.75L146.5,38.75L142,37.5L139.75,37.25L134.25,37.25L131.75,37.75L129.5,38.25L127.25,39L123.25,41L121.5,42.25L119.75,44L118.25,45.75L115.25,49.75L115.25,50L114.25,51.75L113.25,53.75L112.25,56L111.5,58L110.75,60.25L110.25,62.75L109.25,67.5L109,70L108.75,72.75L108.5,75.25L108.5,81L108.75,83.75L109.25,88.75L110.25,93.75L110.75,96L111.5,98.25L112.5,100.5L113.25,102.5L115.25,106.5L117,109L120,112.5L121.75,114L123.75,115.5L125.5,116.5L127.75,117.5L130,118.25L132.25,118.75L134.5,119L137,119.25L137.75,119.25L140.25,119L142.75,118.5L145,118L147.25,117.25L151.25,115.25L154.75,112.25L156.25,110.5L157.75,108.5L159,106.5L160.25,104.75L161.25,102.5L162.75,98.5L163.5,96L164.5,91.5L164.75,89L165.25,86.5L165.5,83.75L165.5,81L165.75,78L165.5,72.5Z"/>
        <path d="M255.25,103.75L255,101.5L253.5,97L252,95L250.5,93.5L248.5,92L246.25,91L244,90.5L241.75,90.25L239.25,90.5L237,91L234.75,92L231.25,95L230,97L228.75,99.25L228.25,101.5L228,103.75L228.25,106.25L228.75,108.5L230,110.75L231.25,112.5L233,114.25L234.75,115.75L237,116.75L239.25,117.25L241.75,117.5L244,117.25L246.25,116.75L248.5,115.75L250.5,114.25L253.5,110.75L255,106.25L255.25,103.75Z" style="fill-rule:nonzero;"/>
        <path d="M255.25,103.75L255,101.5L253.5,97L252,95L250.5,93.5L248.5,92L246.25,91L244,90.5L241.75,90.25L239.25,90.5L237,91L234.75,92L231.25,95L230,97L228.75,99.25L228.25,101.5L228,103.75L228.25,106.25L228.75,108.5L230,110.75L231.25,112.5L233,114.25L234.75,115.75L237,116.75L239.25,117.25L241.75,117.5L244,117.25L246.25,116.75L248.5,115.75L250.5,114.25L253.5,110.75L255,106.25L255.25,103.75Z" style="fill:none;"/>
        <path d="M218,51.75L217.75,49.25L217.25,47L216,44.75L214.75,43L213,41.25L211.25,40L209,38.75L206.75,38.25L204.25,38L202,38.25L199.75,38.75L197.5,40L195.5,41.25L192.5,44.75L191.5,47L191,49.25L190.75,51.75L191,54L191.5,56.5L192.5,58.5L194,60.5L195.5,62.25L197.5,63.5L199.75,64.5L202,65L204.25,65.25L206.75,65L209,64.5L211.25,63.5L213,62.25L214.75,60.5L217.25,56.5L217.75,54L218,51.75Z" style="fill-rule:nonzero;"/>
        <path d="M218,51.75L217.75,49.25L217.25,47L216,44.75L214.75,43L213,41.25L211.25,40L209,38.75L206.75,38.25L204.25,38L202,38.25L199.75,38.75L197.5,40L195.5,41.25L192.5,44.75L191.5,47L191,49.25L190.75,51.75L191,54L191.5,56.5L192.5,58.5L194,60.5L195.5,62.25L197.5,63.5L199.75,64.5L202,65L204.25,65.25L206.75,65L209,64.5L211.25,63.5L213,62.25L214.75,60.5L217.25,56.5L217.75,54L218,51.75Z" style="fill:none;"/>
        <path d="M211.25,51.75L211,50L210.25,48.25L209.25,47L207.75,45.75L206.25,45L204.25,44.75L202.75,45L201,45.75L199.5,47L198.5,48.25L197.75,50L197.5,51.75L197.75,53.5L198.5,55L199.5,56.5L201,57.5L202.75,58.25L204.25,58.5L206.25,58.25L207.75,57.5L209.25,56.5L210.25,55L211,53.5L211.25,51.75Z" style="fill:white;fill-rule:nonzero;"/>
        <path d="M211.25,51.75L211,50L210.25,48.25L209.25,47L207.75,45.75L206.25,45L204.25,44.75L202.75,45L201,45.75L199.5,47L198.5,48.25L197.75,50L197.5,51.75L197.75,53.5L198.5,55L199.5,56.5L201,57.5L202.75,58.25L204.25,58.5L206.25,58.25L207.75,57.5L209.25,56.5L210.25,55L211,53.5L211.25,51.75Z" style="fill:none;"/>
        <path d="M244.5,38L243.75,38.75L243.25,40L242.25,41.25L241.25,43L239.75,44.75L239.5,45L239.25,45.75L238.5,47L237.5,48.25L236.75,49.25L236.25,50L235.25,51.75L234,53.5L233.5,54L233,55L232,56.5L231.25,57.5L230.75,58.25L230.5,58.5L229.25,60.5L228.25,62.25L227.25,63.5L226.5,64.5L226.25,65L226,65.25L209.25,90.25L209,90.5L208.75,91L208,92L206,95L204.5,97L204.5,97.25L204,98L203.25,99L203.25,99.25L202.25,100.5L201.5,101.5L201,102L200,103.75L198.75,105.5L198.25,106.25L197.5,107.25L196,109.75L195.5,110.5L195.25,110.75L194,112.5L193,114.25L192,115.75L191.25,116.75L191,117.25L190.75,117.5L201.5,117.5L202.25,116.75L202.75,115.75L203.75,114.25L204.75,112.5L206.25,110.75L206.25,110.5L206.75,109.75L207.5,108.5L208.5,107.25L209.25,106.25L209.5,105.5L212,102L212.25,101.5L213,100.5L214,99.25L214,99L214.75,98L215.25,97.25L215.25,97L216.75,95L218.75,92L219.5,91L219.75,90.5L220,90.25L236.75,65.25L237.5,64.5L238,63.5L239,62.25L240,60.5L241.5,58.5L241.75,58.25L242,57.5L242.75,56.5L243.75,55L244.5,54L245,53.5L246,51.75L247.25,50L247.75,49.25L248.25,48.25L249.25,47L250,45.75L250.5,45L250.75,44.75L252,43L253,41.25L254,40L254.75,38.75L255,38.25L255.25,38L244.5,38Z"/>
        <path d="M248.5,103.75L248.25,102L247.5,100.5L246.5,99L245,98L243.5,97.25L241.75,97L239.75,97.25L238.25,98L236.75,99L235.75,100.5L235,102L234.75,103.75L235,105.5L235.75,107.25L236.75,108.5L238.25,109.75L239.75,110.5L241.75,110.75L243.5,110.5L245,109.75L246.5,108.5L247.5,107.25L248.25,105.5L248.5,103.75Z" style="fill:white;fill-rule:nonzero;"/>
        <path d="M248.5,103.75L248.25,102L247.5,100.5L246.5,99L245,98L243.5,97.25L241.75,97L239.75,97.25L238.25,98L236.75,99L235.75,100.5L235,102L234.75,103.75L235,105.5L235.75,107.25L236.75,108.5L238.25,109.75L239.75,110.5L241.75,110.75L243.5,110.5L245,109.75L246.5,108.5L247.5,107.25L248.25,105.5L248.5,103.75Z" style="fill:none;"/>
    </g>
</svg>
