<?xml version="1.0" encoding="UTF-8" standalone="no"?>
<!DOCTYPE svg PUBLIC "-//W3C//DTD SVG 1.1//EN" "http://www.w3.org/Graphics/SVG/1.1/DTD/svg11.dtd">
<svg width="100%" height="100%" viewBox="0 0 635 191" version="1.1" xmlns="http://www.w3.org/2000/svg" xmlns:xlink="http://www.w3.org/1999/xlink" xml:space="preserve" xmlns:serif="http://www.serif.com/" style="fill-rule:evenodd;clip-rule:evenodd;stroke-linejoin:round;stroke-miterlimit:2;">
    <g>
        <rect x="4.75" y="5.5" width="625.5" height="180.75" style="fill:white;"/>
        <path d="M625.5,37.25L566.75,95.75L625.5,154.5L625.5,181.5L9.75,181.5L9.75,154.5L68.25,95.75L9.75,37.25L9.75,10.5L625.5,10.5L625.5,37.25ZM0,0.5L0,191L635,191L635,0.5L0,0.5Z"/>
        <path d="M467.5,89L465.25,83.5L461.5,78.75L456.75,75L451,72.5L445,71.75L437.25,73L430.25,76.25L424.25,81.25L420.5,77.25L415.75,74L410.25,72.25L404.5,71.75L399,72.75L393.75,75L389.25,78.25L389.25,73.75L373.75,73.75L373.75,147.25L389.25,147.25L389.25,98.25L390,94.25L392,90.5L395.25,87.75L399.25,86.25L403.5,86.25L407.25,87.75L410.5,90.5L412.75,94.25L413.25,98.25L413.25,147.25L428.75,147.25L428.75,98.25L429.5,94.25L431.5,90.5L434.75,87.75L438.75,86.25L443,86.25L446.75,87.75L450,90.5L452.25,94.25L453,98.25L453,147.25L468.25,147.25L468.25,95L467.5,89Z"/>
        <path d="M223,116L221.5,111L220.25,108.75L217.25,104.75L215.25,103L213,101.5L212.25,100.75L214.5,99L216.25,97.25L217.75,95L219.25,93L220.25,90.75L221,88.25L221.5,82.75L221,77.25L220.5,74.75L219.5,72.5L218.25,70L216.75,67.75L215,65.75L212,62.75L210,61.25L207.75,60L205.25,58.75L202.75,58L200,57.5L197.5,57.25L190.25,57.25L187.75,57.75L185,58.5L182.5,59.5L180.25,60.75L178.25,62L176,63.75L174,65.75L172.5,67.75L171,70L169.75,72.5L169,74.75L183.5,79.75L184.5,77L185.75,74.75L187.75,73.25L189.75,72.25L192.25,71.75L193.75,71.5L195,71.5L197.5,71.75L200,72.75L202.25,74.25L202.75,74.75L204.5,77L205.75,79.5L206,82L206,82.75L205.75,85.75L205,88L203.25,90.25L202.75,90.75L200.75,92.25L198.5,93.25L195.75,93.75L190.75,93.75L190.75,108.25L195,108.25L197.5,108.5L200,109.25L202.5,110.5L204.25,112.25L206,114.25L207.25,116.5L208,119L208,121.5L207.75,124.25L207,126.75L205.75,129L204.25,130.75L202.25,132.5L199.75,133.75L197.25,134.25L195,134.5L192,134.5L189.5,134L187.25,133L185.25,131.5L183.75,130L182.25,127.75L181.5,125.5L166.75,130.75L167.75,133.25L169.25,135.75L170.5,138L172.25,140L174.25,142L176.25,143.5L176.75,144L179,145.5L181.5,146.75L184,147.75L186.5,148.5L192,149L196,149L201.5,148.5L204,148L206.5,147L208.75,146L211.25,144.75L215.25,141.25L217.5,139L220.5,134.5L221.5,132.25L223,127.25L223.5,124.5L223.5,118.75L223,116Z"/>
        <path d="M250.25,141.75L249.5,139.25L248.25,137L247.75,136.25L245.75,134.25L243.75,133L241.25,132.5L240.25,132.5L237.5,132.75L235,133.75L233,135.25L231.5,137.25L230.5,139.75L230.25,142.25L231,144.75L232.25,146.5L234.25,147.75L236.25,147.75L238.75,147.25L239.75,146.5L240.5,149L240.5,149.5L240,152L239,153.5L236.75,154.75L235,155.25L234.75,155.25L234.75,160.25L237.5,160L240,159.5L242.25,158.25L244.75,156.75L245.75,155.75L247.75,153.5L249,151.25L249.75,148.75L250.25,146.25L250.5,144.75L250.25,141.75Z"/>
        <path d="M312,112.25L311.5,109.5L310.75,106.75L310,104.25L308.75,102L307.75,100L306.25,97.75L304.5,96L302.5,94.25L301.25,93L296.75,90L294.25,89L289.25,87.5L283.75,87L283.5,87L280.75,87.25L278.25,87.75L275.75,88.75L274.5,89.5L274.5,73.75L310.25,73.75L310.25,59L259,59L259,101.25L272.25,105L277.25,102.5L279.75,101.75L282.25,101.5L283.5,101.25L286.25,101.75L288.75,102.5L291.25,103.75L293.5,106L295,108L295.75,110.5L296,110.75L296.5,113.75L297,116.5L297,118L296.75,121.25L296.25,124L295.5,126.5L294.5,128.75L293,130.75L291.5,132L289,133.5L286.75,134.5L284,134.75L280.75,134.75L275.75,133.75L271.25,131.25L269,129.5L267,127.75L266.75,127L256,137L258,139L260,140.75L262.25,142.5L264.25,144L266.5,145.25L271.5,147.25L274,148L276.5,148.5L279.25,148.75L281.75,149L283.5,149L286.5,148.75L289,148.5L291.75,148L294.25,147L296.5,146L298.75,144.75L301.25,143L305.25,139.5L308.25,135L309.5,132.75L310.5,130.25L311.25,127.5L311.25,127.25L311.75,124.75L312.25,122L312.25,115L312,112.25Z"/>
    </g>
</svg>
