<?xml version="1.0" encoding="UTF-8" standalone="no"?>
<!DOCTYPE svg PUBLIC "-//W3C//DTD SVG 1.1//EN" "http://www.w3.org/Graphics/SVG/1.1/DTD/svg11.dtd">
<svg width="100%" height="100%" viewBox="0 0 596 183" version="1.1" xmlns="http://www.w3.org/2000/svg" xmlns:xlink="http://www.w3.org/1999/xlink" xml:space="preserve" xmlns:serif="http://www.serif.com/" style="fill-rule:evenodd;clip-rule:evenodd;stroke-linecap:round;stroke-linejoin:round;stroke-miterlimit:2;">
    <g>
        <rect x="0.354" y="0.778" width="594.568" height="181.868" style="fill-rule:nonzero;"/>
        <rect x="0.354" y="0.778" width="594.568" height="181.868" style="fill:none;stroke:black;stroke-width:0.71px;"/>
        <rect x="10.846" y="11.271" width="573.583" height="160.883" style="fill:white;fill-rule:nonzero;"/>
        <rect x="10.846" y="11.271" width="573.583" height="160.883" style="fill:none;stroke:black;stroke-width:0.71px;"/>
        <path d="M137.447,130.124C137.447,118.629 128.129,109.311 116.636,109.311C105.142,109.311 95.823,118.629 95.823,130.124C95.823,141.617 105.142,150.933 116.636,150.933C128.129,150.933 137.447,141.617 137.447,130.124Z" style="fill-rule:nonzero;"/>
        <path d="M137.447,130.124C137.447,118.629 128.129,109.311 116.636,109.311C105.142,109.311 95.823,118.629 95.823,130.124C95.823,141.617 105.142,150.933 116.636,150.933C128.129,150.933 137.447,141.617 137.447,130.124Z" style="fill:none;stroke:black;stroke-width:0.71px;"/>
        <path d="M248.288,116.512C248.288,97.501 232.876,82.089 213.864,82.089C194.853,82.089 179.44,97.501 179.44,116.512C179.44,135.524 194.853,150.936 213.864,150.936C232.876,150.936 248.288,135.524 248.288,116.512Z" style="fill-rule:nonzero;"/>
        <path d="M248.288,116.512C248.288,97.501 232.876,82.089 213.864,82.089C194.853,82.089 179.44,97.501 179.44,116.512C179.44,135.524 194.853,150.936 213.864,150.936C232.876,150.936 248.288,135.524 248.288,116.512Z" style="fill:none;stroke:black;stroke-width:0.71px;"/>
        <path d="M244.783,86.134C244.676,87.106 244.073,87.954 243.188,88.372C242.589,88.656 241.949,88.842 241.292,88.924C240.277,89.05 239.275,88.607 238.687,87.771C226.717,77.406 209.565,75.574 195.677,83.178C181.788,90.782 174.09,106.218 176.374,121.886L139.486,121.886C135.182,110.005 122.499,103.397 110.295,106.677L105.266,86.318C105.047,84.462 105.67,82.607 106.964,81.258C108.259,79.911 110.088,79.214 111.951,79.358L161.441,79.358L172.357,35.57C172.769,34.095 174.138,33.094 175.669,33.148L227.428,33.148C229.338,33.148 230.892,34.687 230.909,36.598C230.926,38.508 229.399,40.075 227.489,40.109L224.27,40.109L233.04,74.88C233.167,75.388 233.486,75.827 233.929,76.107L237.744,78.291L240.43,80.06L243.114,82.165C244.319,83.11 244.951,84.611 244.783,86.134Z" style="fill-rule:nonzero;"/>
        <path d="M244.783,86.134C244.676,87.106 244.073,87.954 243.188,88.372C242.589,88.656 241.949,88.842 241.292,88.924C240.277,89.05 239.275,88.607 238.687,87.771C226.717,77.406 209.565,75.574 195.677,83.178C181.788,90.782 174.09,106.218 176.374,121.886L139.486,121.886C135.182,110.005 122.499,103.397 110.295,106.677L105.266,86.318C105.047,84.462 105.67,82.607 106.964,81.258C108.259,79.911 110.088,79.214 111.951,79.358L161.441,79.358L172.357,35.57C172.769,34.095 174.138,33.094 175.669,33.148L227.428,33.148C229.338,33.148 230.892,34.687 230.909,36.598C230.926,38.508 229.399,40.075 227.489,40.109L224.27,40.109L233.04,74.88C233.167,75.388 233.486,75.827 233.929,76.107L237.744,78.291L240.43,80.06L243.114,82.165C244.319,83.11 244.951,84.611 244.783,86.134Z" style="fill:none;stroke:black;stroke-width:0.71px;"/>
        <path d="M246.863,126.312L315.446,136.473L315.992,136.723L315.972,137.038L315.543,137.756L315.348,138.063L315.188,138.319L315.02,138.547L314.879,138.6L313.444,138.632L309.604,138.621L302.328,138.613L297.723,138.574L296.174,138.479L293.372,138.144C292.5,138.04 291.638,137.858 290.798,137.601C289.88,137.321 288.968,137.023 288.063,136.711C287.722,136.592 287.362,136.543 287.003,136.563L280.621,136.428L276.604,136.328L275.921,136.361C275.253,136.523 274.687,136.966 274.371,137.578C274.055,138.188 274.019,138.905 274.271,139.545C274.687,140.592 275.318,141.543 276.122,142.333C276.959,143.402 277.946,144.345 279.052,145.134C280.062,145.854 281.129,146.49 282.243,147.037C283.041,147.428 283.86,147.772 284.697,148.069C286.102,148.566 287.543,148.956 289.007,149.235C290.844,149.696 292.726,149.95 294.619,149.993C295.433,150.01 296.247,150.04 297.06,150.08L369.88,150.047C370.845,149.921 371.593,149.144 371.684,148.176C371.712,147.873 371.708,147.567 371.67,147.264C371.596,146.758 371.348,146.292 370.97,145.947L367.231,142.318L363.913,139.09C363.409,138.753 362.817,138.574 362.21,138.574C361.596,138.574 360.981,138.569 360.367,138.56L353.187,138.567L348.661,138.553C348.585,138.553 348.513,138.521 348.46,138.466L347.106,136.375L344.579,132.06L344.049,131.176C343.363,130.176 342.261,129.546 341.052,129.46L338.887,129.439C338.761,129.439 338.646,129.362 338.599,129.245L338.511,127.161L338.504,124.011L338.545,122.691C338.549,122.547 338.662,122.427 338.807,122.416L340.328,122.349L340.891,122.322L343.157,122.242L346.542,122.189L350.532,122.135L354.414,122.182L358.295,122.268L362.808,122.296L364.576,122.189L365.455,122.162L366.407,122.203L367.875,122.129L371.107,122.075L373.279,121.995L373.996,122.028L377.215,121.921L381.404,121.934L389.53,121.988L395.53,122.049L397.16,121.974L400.658,121.954L404.883,122.135L440.228,122.065L444.021,122.01L444.327,122.191L444.327,128.978L444.021,129.104L441.674,129.102C440.387,129.163 439.22,129.882 438.586,131.004L434.586,137.962C434.485,138.216 434.251,138.393 433.979,138.42L408.027,138.473L406.926,138.42L399.214,138.04C398.622,138.065 398.063,138.315 397.648,138.739C396.923,139.427 396.733,140.51 397.183,141.405C398.341,143.126 399.861,144.573 401.639,145.645C404.07,147.176 406.753,148.268 409.563,148.871C412.646,149.542 415.797,149.854 418.951,149.801L450.883,149.792L490.18,149.792L497.091,149.813C497.887,149.875 498.66,149.535 499.153,148.908C499.648,148.281 499.797,147.449 499.55,146.689C499.451,146.373 499.274,146.086 499.037,145.856L492.649,139.667C492.376,139.361 492.071,139.084 491.739,138.841C491.38,138.591 490.948,138.461 490.511,138.469L468.84,138.41C468.672,138.38 468.52,138.292 468.409,138.16L464.843,132.299L463.849,130.678C463.59,130.309 463.264,129.991 462.888,129.74C462.518,129.461 462.091,129.268 461.635,129.178C461.22,129.105 460.801,129.049 460.382,129.01L458.45,128.988L458.282,127.799L458.305,122.121L458.574,121.899L463.49,121.899L465.714,122.048L466.826,122.171L469.642,122.22L471.297,122.466L476.263,122.591L487.009,122.739L492.42,122.492L498.873,122.503L499.137,122.008L499.254,120.203L499.336,119.444L499.459,116.557L499.534,115.279L499.575,114.239L499.699,112.399L499.781,110.799L499.699,109.233L499.336,108.797L499.295,107.114L499.534,105.595L499.657,103.914L499.74,103.674L499.815,99.031L499.575,98.75L497.454,98.825L490.886,98.784L490.12,98.784L489.881,98.627L489.806,97.943L489.922,95.823L489.881,93.984L489.84,93.464C489.829,93.329 489.763,93.204 489.656,93.119C489.55,93.035 489.412,92.999 489.278,93.02L484.517,92.82L482.033,92.698L481.844,92.669C481.641,92.617 481.516,92.411 481.564,92.206L481.782,87.626C481.817,87.404 481.993,87.232 482.215,87.202L499.015,87.097C499.299,87.094 499.554,86.918 499.657,86.652L499.575,81.653L499.5,76.805C499.498,76.686 499.412,76.585 499.295,76.566L491.126,76.169L489.401,76.016L489.221,76.004C489.012,75.934 488.889,75.719 488.932,75.505L488.868,71.212C488.867,70.994 489.026,70.808 489.241,70.776L495.648,70.964C495.952,70.973 496.214,70.747 496.25,70.444L496.415,62.916L496.291,60.556C496.275,60.253 496.033,60.011 495.73,59.995L492.364,59.872L489.922,59.674L481.15,59.558L475.862,59.393L474.979,59.311L474.378,59.277L471.572,59.277L470.813,59.154C470.489,59.102 470.226,58.867 470.136,58.552L470.177,56.35C470.18,56.187 470.261,56.034 470.394,55.94C470.527,55.845 470.698,55.82 470.854,55.872L475.342,55.994L479.591,56.028L485.193,56.11L488.95,56.186C489.096,56.124 489.201,55.993 489.23,55.838L489.347,54.797L489.524,51.07L489.401,48.547L489.401,45.387C489.401,45.256 489.346,45.131 489.248,45.043C489.151,44.954 489.021,44.912 488.891,44.924L482.799,44.573L479.928,44.384L478.304,44.333L475.136,44.356L472.019,44.25L469.72,44.143L465.71,44.005L456.446,43.787L451.872,43.653L447.321,43.436L444.208,43.302L440.467,43.164L437.654,42.867L427.226,42.405L424.816,42.327L420.538,41.975L416.991,41.786L412.277,41.596L408.947,41.351L406.188,41.245L402.126,40.964L396.048,40.881L387.404,40.491L378.432,39.938L366.439,39.486L359.746,39.239L353.114,38.706L341.739,38.234L322.418,37.31L310.961,36.756L298.416,36.223L293.671,36.087L290.141,35.833L284.24,35.264L283.979,35.315L283.891,35.347L280.925,37.968L280.83,38.089L280.772,38.197L280.76,39.593L280.887,39.689L281.141,39.841L281.649,39.917L282.31,40.063L282.906,40.209L282.786,44.214L282.583,46.036L281.789,46.138L281.611,46.455L281.024,56.951L281.024,57.485L280.49,61.775L280.162,67.542L280.188,70.943L280.326,71.749L280.1,76.408L279.935,84.375L279.534,84.547L279.293,84.635L279.147,84.743L279.046,84.832L278.982,84.946L278.912,85.054L278.912,85.136L278.811,87.733L278.548,102.124L278.621,102.607L278.704,102.824L278.788,102.943L278.909,102.99L279.041,103.014L279.364,103.064L279.543,103.124L279.687,103.195L279.759,103.349L279.771,103.674L279.712,106.68L279.652,108.179L279.628,113.032L279.593,113.138L279.497,113.305L279.438,113.389L279.329,113.402L278.993,113.402L278.825,113.414L278.694,113.51L278.61,113.63L278.585,113.75L278.598,114.097L278.645,114.276L278.729,114.876L278.766,115.186L278.8,115.632L278.837,116.144L278.897,116.626L278.958,117.558L279.042,117.895L279.089,118.301L279.173,119.047L279.257,119.992L279.282,120.303L279.316,120.508L279.388,120.698L279.448,120.879L279.581,120.987L279.7,121.047L280.588,121.419L280.84,121.525L280.971,121.622L281.055,121.693L281.139,121.717L281.5,121.861L281.727,122.017L282.025,122.173L282.193,122.256L282.685,122.461L282.961,122.58L287.925,122.58L289.016,122.604L290.503,122.58L293.189,122.619L294.809,122.545L295.36,122.498L297.049,122.522L298.8,122.498L301.701,122.461L305.06,122.401L306.87,122.352L310.778,122.317L312.782,122.27L314.518,122.249L317.735,122.209L319.894,122.249L323.226,122.209L323.741,122.322L324.131,122.322L324.365,122.483L324.445,122.637L324.445,129.265L324.365,129.346L324.292,129.501L324.017,129.501L323.266,129.467L322.327,129.501C321.664,129.525 321.017,129.712 320.443,130.049L248.165,119.419C247.967,121.756 247.531,124.065 246.863,126.312Z" style="fill-rule:nonzero;"/>
        <path d="M246.863,126.312L315.446,136.473L315.992,136.723L315.972,137.038L315.543,137.756L315.348,138.063L315.188,138.319L315.02,138.547L314.879,138.6L313.444,138.632L309.604,138.621L302.328,138.613L297.723,138.574L296.174,138.479L293.372,138.144C292.5,138.04 291.638,137.858 290.798,137.601C289.88,137.321 288.968,137.023 288.063,136.711C287.722,136.592 287.362,136.543 287.003,136.563L280.621,136.428L276.604,136.328L275.921,136.361C275.253,136.523 274.687,136.966 274.371,137.578C274.055,138.188 274.019,138.905 274.271,139.545C274.687,140.592 275.318,141.543 276.122,142.333C276.959,143.402 277.946,144.345 279.052,145.134C280.062,145.854 281.129,146.49 282.243,147.037C283.041,147.428 283.86,147.772 284.697,148.069C286.102,148.566 287.543,148.956 289.007,149.235C290.844,149.696 292.726,149.95 294.619,149.993C295.433,150.01 296.247,150.04 297.06,150.08L369.88,150.047C370.845,149.921 371.593,149.144 371.684,148.176C371.712,147.873 371.708,147.567 371.67,147.264C371.596,146.758 371.348,146.292 370.97,145.947L367.231,142.318L363.913,139.09C363.409,138.753 362.817,138.574 362.21,138.574C361.596,138.574 360.981,138.569 360.367,138.56L353.187,138.567L348.661,138.553C348.585,138.553 348.513,138.521 348.46,138.466L347.106,136.375L344.579,132.06L344.049,131.176C343.363,130.176 342.261,129.546 341.052,129.46L338.887,129.439C338.761,129.439 338.646,129.362 338.599,129.245L338.511,127.161L338.504,124.011L338.545,122.691C338.549,122.547 338.662,122.427 338.807,122.416L340.328,122.349L340.891,122.322L343.157,122.242L346.542,122.189L350.532,122.135L354.414,122.182L358.295,122.268L362.808,122.296L364.576,122.189L365.455,122.162L366.407,122.203L367.875,122.129L371.107,122.075L373.279,121.995L373.996,122.028L377.215,121.921L381.404,121.934L389.53,121.988L395.53,122.049L397.16,121.974L400.658,121.954L404.883,122.135L440.228,122.065L444.021,122.01L444.327,122.191L444.327,128.978L444.021,129.104L441.674,129.102C440.387,129.163 439.22,129.882 438.586,131.004L434.586,137.962C434.485,138.216 434.251,138.393 433.979,138.42L408.027,138.473L406.926,138.42L399.214,138.04C398.622,138.065 398.063,138.315 397.648,138.739C396.923,139.427 396.733,140.51 397.183,141.405C398.341,143.126 399.861,144.573 401.639,145.645C404.07,147.176 406.753,148.268 409.563,148.871C412.646,149.542 415.797,149.854 418.951,149.801L450.883,149.792L490.18,149.792L497.091,149.813C497.887,149.875 498.66,149.535 499.153,148.908C499.648,148.281 499.797,147.449 499.55,146.689C499.451,146.373 499.274,146.086 499.037,145.856L492.649,139.667C492.376,139.361 492.071,139.084 491.739,138.841C491.38,138.591 490.948,138.461 490.511,138.469L468.84,138.41C468.672,138.38 468.52,138.292 468.409,138.16L464.843,132.299L463.849,130.678C463.59,130.309 463.264,129.991 462.888,129.74C462.518,129.461 462.091,129.268 461.635,129.178C461.22,129.105 460.801,129.049 460.382,129.01L458.45,128.988L458.282,127.799L458.305,122.121L458.574,121.899L463.49,121.899L465.714,122.048L466.826,122.171L469.642,122.22L471.297,122.466L476.263,122.591L487.009,122.739L492.42,122.492L498.873,122.503L499.137,122.008L499.254,120.203L499.336,119.444L499.459,116.557L499.534,115.279L499.575,114.239L499.699,112.399L499.781,110.799L499.699,109.233L499.336,108.797L499.295,107.114L499.534,105.595L499.657,103.914L499.74,103.674L499.815,99.031L499.575,98.75L497.454,98.825L490.886,98.784L490.12,98.784L489.881,98.627L489.806,97.943L489.922,95.823L489.881,93.984L489.84,93.464C489.829,93.329 489.763,93.204 489.656,93.119C489.55,93.035 489.412,92.999 489.278,93.02L484.517,92.82L482.033,92.698L481.844,92.669C481.641,92.617 481.516,92.411 481.564,92.206L481.782,87.626C481.817,87.404 481.993,87.232 482.215,87.202L499.015,87.097C499.299,87.094 499.554,86.918 499.657,86.652L499.575,81.653L499.5,76.805C499.498,76.686 499.412,76.585 499.295,76.566L491.126,76.169L489.401,76.016L489.221,76.004C489.012,75.934 488.889,75.719 488.932,75.505L488.868,71.212C488.867,70.994 489.026,70.808 489.241,70.776L495.648,70.964C495.952,70.973 496.214,70.747 496.25,70.444L496.415,62.916L496.291,60.556C496.275,60.253 496.033,60.011 495.73,59.995L492.364,59.872L489.922,59.674L481.15,59.558L475.862,59.393L474.979,59.311L474.378,59.277L471.572,59.277L470.813,59.154C470.489,59.102 470.226,58.867 470.136,58.552L470.177,56.35C470.18,56.187 470.261,56.034 470.394,55.94C470.527,55.845 470.698,55.82 470.854,55.872L475.342,55.994L479.591,56.028L485.193,56.11L488.95,56.186C489.096,56.124 489.201,55.993 489.23,55.838L489.347,54.797L489.524,51.07L489.401,48.547L489.401,45.387C489.401,45.256 489.346,45.131 489.248,45.043C489.151,44.954 489.021,44.912 488.891,44.924L482.799,44.573L479.928,44.384L478.304,44.333L475.136,44.356L472.019,44.25L469.72,44.143L465.71,44.005L456.446,43.787L451.872,43.653L447.321,43.436L444.208,43.302L440.467,43.164L437.654,42.867L427.226,42.405L424.816,42.327L420.538,41.975L416.991,41.786L412.277,41.596L408.947,41.351L406.188,41.245L402.126,40.964L396.048,40.881L387.404,40.491L378.432,39.938L366.439,39.486L359.746,39.239L353.114,38.706L341.739,38.234L322.418,37.31L310.961,36.756L298.416,36.223L293.671,36.087L290.141,35.833L284.24,35.264L283.979,35.315L283.891,35.347L280.925,37.968L280.83,38.089L280.772,38.197L280.76,39.593L280.887,39.689L281.141,39.841L281.649,39.917L282.31,40.063L282.906,40.209L282.786,44.214L282.583,46.036L281.789,46.138L281.611,46.455L281.024,56.951L281.024,57.485L280.49,61.775L280.162,67.542L280.188,70.943L280.326,71.749L280.1,76.408L279.935,84.375L279.534,84.547L279.293,84.635L279.147,84.743L279.046,84.832L278.982,84.946L278.912,85.054L278.912,85.136L278.811,87.733L278.548,102.124L278.621,102.607L278.704,102.824L278.788,102.943L278.909,102.99L279.041,103.014L279.364,103.064L279.543,103.124L279.687,103.195L279.759,103.349L279.771,103.674L279.712,106.68L279.652,108.179L279.628,113.032L279.593,113.138L279.497,113.305L279.438,113.389L279.329,113.402L278.993,113.402L278.825,113.414L278.694,113.51L278.61,113.63L278.585,113.75L278.598,114.097L278.645,114.276L278.729,114.876L278.766,115.186L278.8,115.632L278.837,116.144L278.897,116.626L278.958,117.558L279.042,117.895L279.089,118.301L279.173,119.047L279.257,119.992L279.282,120.303L279.316,120.508L279.388,120.698L279.448,120.879L279.581,120.987L279.7,121.047L280.588,121.419L280.84,121.525L280.971,121.622L281.055,121.693L281.139,121.717L281.5,121.861L281.727,122.017L282.025,122.173L282.193,122.256L282.685,122.461L282.961,122.58L287.925,122.58L289.016,122.604L290.503,122.58L293.189,122.619L294.809,122.545L295.36,122.498L297.049,122.522L298.8,122.498L301.701,122.461L305.06,122.401L306.87,122.352L310.778,122.317L312.782,122.27L314.518,122.249L317.735,122.209L319.894,122.249L323.226,122.209L323.741,122.322L324.131,122.322L324.365,122.483L324.445,122.637L324.445,129.265L324.365,129.346L324.292,129.501L324.017,129.501L323.266,129.467L322.327,129.501C321.664,129.525 321.017,129.712 320.443,130.049L248.165,119.419C247.967,121.756 247.531,124.065 246.863,126.312Z" style="fill:none;stroke:black;stroke-width:0.71px;"/>
        <path d="M301.971,48.134L304.891,48.163L308.805,48.179L312.863,48.233L316.488,48.287L319.355,48.368L321.323,48.37L322.736,48.287L324.043,48.224L324.228,48.194L324.489,48.269L325.342,48.283C325.448,48.292 325.555,48.271 325.649,48.221C325.711,48.206 325.756,48.153 325.762,48.09C325.767,48.027 325.73,47.968 325.672,47.943L324.009,47.774L321.249,47.719L320.627,47.692L319.978,47.53L317.874,47.369L315.033,47.301L312.836,47.151L310.481,46.962L305.504,46.881L301.393,46.773L294.575,46.529L288.623,46.394L285.755,46.313L285.052,46.232L284.187,46.259C284.114,46.256 284.043,46.286 283.994,46.339C283.944,46.393 283.921,46.465 283.929,46.538L283.89,47.195C283.938,47.3 284.043,47.367 284.159,47.367L285.472,47.39L285.837,47.476L289.462,47.53L297.389,47.935L300.554,48.044L301.971,48.134Z" style="fill:white;fill-rule:nonzero;"/>
        <path d="M301.971,48.134L304.891,48.163L308.805,48.179L312.863,48.233L316.488,48.287L319.355,48.368L321.323,48.37L322.736,48.287L324.043,48.224L324.228,48.194L324.489,48.269L325.342,48.283C325.448,48.292 325.555,48.271 325.649,48.221C325.711,48.206 325.756,48.153 325.762,48.09C325.767,48.027 325.73,47.968 325.672,47.943L324.009,47.774L321.249,47.719L320.627,47.692L319.978,47.53L317.874,47.369L315.033,47.301L312.836,47.151L310.481,46.962L305.504,46.881L301.393,46.773L294.575,46.529L288.623,46.394L285.755,46.313L285.052,46.232L284.187,46.259C284.114,46.256 284.043,46.286 283.994,46.339C283.944,46.393 283.921,46.465 283.929,46.538L283.89,47.195C283.938,47.3 284.043,47.367 284.159,47.367L285.472,47.39L285.837,47.476L289.462,47.53L297.389,47.935L300.554,48.044L301.971,48.134Z" style="fill:none;stroke:white;stroke-width:0.58px;"/>
        <path d="M322.683,66.5L318.087,66.469L313.699,66.485L306.418,66.439L301.646,66.377L299.799,66.254L289.432,66.208L282.869,66.256C282.582,66.25 282.319,66.412 282.194,66.67L281.182,67.858C281.095,67.94 281.059,68.064 281.089,68.181C281.118,68.297 281.208,68.389 281.325,68.421C281.441,68.452 281.565,68.418 281.649,68.332L282.753,67.214C282.895,67.082 283.081,67.006 283.274,67L285.337,66.992L286.63,67.054L291.802,67.146L296.828,67.131L298.368,67.293L300.638,67.346L302.039,67.539L304.841,67.539L305.757,67.677L310.206,67.631L312.33,67.539L316.239,67.585L320.012,67.585L320.882,67.631L323.968,67.585L325.9,67.631C325.969,67.632 326.03,67.595 326.062,67.534C326.093,67.474 326.087,67.401 326.046,67.346L324.114,66.616L323.86,66.516L322.683,66.5Z" style="fill:white;fill-rule:nonzero;"/>
        <path d="M322.683,66.5L318.087,66.469L313.699,66.485L306.418,66.439L301.646,66.377L299.799,66.254L289.432,66.208L282.869,66.256C282.582,66.25 282.319,66.412 282.194,66.67L281.182,67.858C281.095,67.94 281.059,68.064 281.089,68.181C281.118,68.297 281.208,68.389 281.325,68.421C281.441,68.452 281.565,68.418 281.649,68.332L282.753,67.214C282.895,67.082 283.081,67.006 283.274,67L285.337,66.992L286.63,67.054L291.802,67.146L296.828,67.131L298.368,67.293L300.638,67.346L302.039,67.539L304.841,67.539L305.757,67.677L310.206,67.631L312.33,67.539L316.239,67.585L320.012,67.585L320.882,67.631L323.968,67.585L325.9,67.631C325.969,67.632 326.03,67.595 326.062,67.534C326.093,67.474 326.087,67.401 326.046,67.346L324.114,66.616L323.86,66.516L322.683,66.5Z" style="fill:none;stroke:white;stroke-width:0.63px;"/>
        <path d="M308.263,85.772L311.673,85.764L314.328,85.86L316.096,85.92L317.309,85.92L318.921,85.809L320.216,85.809C320.242,85.809 320.266,85.794 320.277,85.77C320.287,85.746 320.284,85.718 320.268,85.698C320.219,85.639 320.19,85.567 320.187,85.491L320.149,85.062C320.141,84.963 320.063,84.882 319.964,84.87L317.981,84.884L317.745,84.966L316.784,84.944L315.844,84.818L313.433,84.818L312.885,84.848L311.066,84.818L305.91,84.693L300.77,84.663L297.337,84.663L294.956,84.693L293.351,84.781L292.204,84.685L286.42,84.53L283.306,84.493L282.685,84.5L282.098,84.491C282.031,84.486 281.966,84.516 281.927,84.57C281.887,84.625 281.878,84.695 281.904,84.758L282.11,85.175L282.255,85.587C282.285,85.681 282.381,85.736 282.477,85.713L283.261,85.757L285.207,85.934L285.458,85.979L287.071,85.964L290.762,86.045L295.111,85.934L300.326,85.89L304.446,85.883L307.479,85.787L308.263,85.772Z" style="fill:white;fill-rule:nonzero;"/>
        <path d="M308.263,85.772L311.673,85.764L314.328,85.86L316.096,85.92L317.309,85.92L318.921,85.809L320.216,85.809C320.242,85.809 320.266,85.794 320.277,85.77C320.287,85.746 320.284,85.718 320.268,85.698C320.219,85.639 320.19,85.567 320.187,85.491L320.149,85.062C320.141,84.963 320.063,84.882 319.964,84.87L317.981,84.884L317.745,84.966L316.784,84.944L315.844,84.818L313.433,84.818L312.885,84.848L311.066,84.818L305.91,84.693L300.77,84.663L297.337,84.663L294.956,84.693L293.351,84.781L292.204,84.685L286.42,84.53L283.306,84.493L282.685,84.5L282.098,84.491C282.031,84.486 281.966,84.516 281.927,84.57C281.887,84.625 281.878,84.695 281.904,84.758L282.11,85.175L282.255,85.587C282.285,85.681 282.381,85.736 282.477,85.713L283.261,85.757L285.207,85.934L285.458,85.979L287.071,85.964L290.762,86.045L295.111,85.934L300.326,85.89L304.446,85.883L307.479,85.787L308.263,85.772Z" style="fill:none;stroke:white;stroke-width:0.53px;"/>
        <path d="M320.615,103.804L319.927,103.627L316.48,103.53L314.047,103.375L311.17,103.332L305.984,103.176L302.441,103.036L298.336,102.799L295.999,102.755L292.145,102.71L289.068,102.799L285.628,102.865L284.001,102.843L282.729,103.08C282.31,103.204 282.011,103.575 281.981,104.011L281.856,104.936L281.752,106.222L281.797,107.05L281.834,107.478L282.056,107.515L282.448,106.533L282.736,105.993C283.082,105.48 283.664,105.176 284.282,105.186L290.162,104.81L296.391,104.618L301.412,104.573L306.347,104.447L310.289,104.269L313.233,104.145L317.309,103.967L319.299,103.967L320.061,103.93L320.615,103.804Z" style="fill:white;fill-rule:nonzero;"/>
        <path d="M320.615,103.804L319.927,103.627L316.48,103.53L314.047,103.375L311.17,103.332L305.984,103.176L302.441,103.036L298.336,102.799L295.999,102.755L292.145,102.71L289.068,102.799L285.628,102.865L284.001,102.843L282.729,103.08C282.31,103.204 282.011,103.575 281.981,104.011L281.856,104.936L281.752,106.222L281.797,107.05L281.834,107.478L282.056,107.515L282.448,106.533L282.736,105.993C283.082,105.48 283.664,105.176 284.282,105.186L290.162,104.81L296.391,104.618L301.412,104.573L306.347,104.447L310.289,104.269L313.233,104.145L317.309,103.967L319.299,103.967L320.061,103.93L320.615,103.804Z" style="fill:none;stroke:white;stroke-width:0.54px;"/>
        <path d="M389.77,86.76L400.896,86.86L411.372,87.015L421.511,86.992L428.067,87.021L430.733,86.96L431.307,86.849L431.207,86.761L428.17,86.575L424.365,86.369L420.525,86.061L416.625,86.081L409.017,85.961L401.604,85.787L396.908,85.787L389.711,85.684L384.157,85.581L374.183,85.581L367.012,85.616L347.274,85.307L339.563,85.375L338.602,85.376C338.533,85.359 338.462,85.391 338.431,85.454C338.399,85.518 338.417,85.594 338.473,85.637L339.286,85.956L341.481,86.027L345.492,86.129L354.198,86.301L372.263,86.609L381.449,86.541L388.933,86.652L389.77,86.76Z" style="fill:white;fill-rule:nonzero;"/>
        <path d="M389.77,86.76L400.896,86.86L411.372,87.015L421.511,86.992L428.067,87.021L430.733,86.96L431.307,86.849L431.207,86.761L428.17,86.575L424.365,86.369L420.525,86.061L416.625,86.081L409.017,85.961L401.604,85.787L396.908,85.787L389.711,85.684L384.157,85.581L374.183,85.581L367.012,85.616L347.274,85.307L339.563,85.375L338.602,85.376C338.533,85.359 338.462,85.391 338.431,85.454C338.399,85.518 338.417,85.594 338.473,85.637L339.286,85.956L341.481,86.027L345.492,86.129L354.198,86.301L372.263,86.609L381.449,86.541L388.933,86.652L389.77,86.76Z" style="fill:none;stroke:white;stroke-width:0.71px;"/>
        <path d="M447.351,67.266C447.271,67.138 447.131,67.059 446.979,67.056L443.989,67.058L440.621,66.982L438.466,66.752L435.961,66.901L432.01,66.645L430.336,66.569L428.843,66.51L428.164,66.402L423.226,66.352L415.51,66.325L409.943,66.205L401.402,66.139L393.692,66.172L386.758,66.216L383.666,66.238L378.707,66.384L376.844,66.478L370.95,66.514L363.508,66.555L354.253,66.608L350.592,66.566L347.748,66.479L343.468,66.519L339.896,66.632L337.855,66.615L335.533,66.6C335.468,66.616 335.415,66.664 335.394,66.728C335.373,66.792 335.387,66.863 335.431,66.914L335.706,67.211C335.871,67.355 336.089,67.427 336.308,67.41L337.242,67.403L339.821,67.477L342.949,67.424L347.126,67.365L347.665,67.468L350.493,67.473L359.052,67.666L365.563,67.659L366.54,67.74L369.322,67.733L371.272,67.624L375.417,67.659L381.89,67.544L385.829,67.53L389.602,67.397L401.337,67.429L412.152,67.397L416.922,67.473L422.674,67.329L425.27,67.195L432.91,67.364L436.017,67.364L441.074,67.66L443.07,67.757L445.01,67.731L447.062,67.566C447.177,67.559 447.282,67.501 447.349,67.408L447.351,67.266Z" style="fill:white;fill-rule:nonzero;"/>
        <path d="M447.351,67.266C447.271,67.138 447.131,67.059 446.979,67.056L443.989,67.058L440.621,66.982L438.466,66.752L435.961,66.901L432.01,66.645L430.336,66.569L428.843,66.51L428.164,66.402L423.226,66.352L415.51,66.325L409.943,66.205L401.402,66.139L393.692,66.172L386.758,66.216L383.666,66.238L378.707,66.384L376.844,66.478L370.95,66.514L363.508,66.555L354.253,66.608L350.592,66.566L347.748,66.479L343.468,66.519L339.896,66.632L337.855,66.615L335.533,66.6C335.468,66.616 335.415,66.664 335.394,66.728C335.373,66.792 335.387,66.863 335.431,66.914L335.706,67.211C335.871,67.355 336.089,67.427 336.308,67.41L337.242,67.403L339.821,67.477L342.949,67.424L347.126,67.365L347.665,67.468L350.493,67.473L359.052,67.666L365.563,67.659L366.54,67.74L369.322,67.733L371.272,67.624L375.417,67.659L381.89,67.544L385.829,67.53L389.602,67.397L401.337,67.429L412.152,67.397L416.922,67.473L422.674,67.329L425.27,67.195L432.91,67.364L436.017,67.364L441.074,67.66L443.07,67.757L445.01,67.731L447.062,67.566C447.177,67.559 447.282,67.501 447.349,67.408L447.351,67.266Z" style="fill:none;stroke:white;stroke-width:0.71px;"/>
        <path d="M338.52,48.381L336.02,48.397C335.79,48.303 335.534,48.293 335.297,48.369C335.186,48.444 335.118,48.569 335.114,48.702C335.11,48.837 335.171,48.964 335.277,49.046C335.521,49.081 335.76,49.139 335.992,49.219L343.078,49.496L344.943,49.632L347.399,49.668L351.203,49.768L354.698,49.733L357.428,49.75L358.934,49.88L361.537,50.051L363.231,50.222L366.626,50.328L368.94,50.399L374.508,50.535L381.217,50.571L384.312,50.588L384.777,50.671L387.505,50.777L392.302,50.812L397.495,50.878L400.678,51.055L402.132,51.119L405.237,51.362L413.775,51.604L416.958,51.71L419.445,51.751L420.756,51.751L421.563,51.811L426.938,52.146L435.954,52.293L440.07,52.47L442.55,52.441L444.934,52.501L446.866,52.482L447.391,52.401L447.434,51.834L447.038,51.692L446.352,51.675L442.639,51.639L436.31,51.284L430.379,51.119L420.839,50.671L416.676,50.529L410.032,50.275L402.344,50.046L390.032,49.698L378.766,49.32L370.105,49.107L363.185,49.107L360.078,49.077L356.158,48.829L353.109,48.736L349.55,48.594L347.612,48.594L346.886,48.524L344.949,48.524L342.287,48.417L339.872,48.417L338.52,48.381Z" style="fill:white;fill-rule:nonzero;"/>
        <path d="M338.52,48.381L336.02,48.397C335.79,48.303 335.534,48.293 335.297,48.369C335.186,48.444 335.118,48.569 335.114,48.702C335.11,48.837 335.171,48.964 335.277,49.046C335.521,49.081 335.76,49.139 335.992,49.219L343.078,49.496L344.943,49.632L347.399,49.668L351.203,49.768L354.698,49.733L357.428,49.75L358.934,49.88L361.537,50.051L363.231,50.222L366.626,50.328L368.94,50.399L374.508,50.535L381.217,50.571L384.312,50.588L384.777,50.671L387.505,50.777L392.302,50.812L397.495,50.878L400.678,51.055L402.132,51.119L405.237,51.362L413.775,51.604L416.958,51.71L419.445,51.751L420.756,51.751L421.563,51.811L426.938,52.146L435.954,52.293L440.07,52.47L442.55,52.441L444.934,52.501L446.866,52.482L447.391,52.401L447.434,51.834L447.038,51.692L446.352,51.675L442.639,51.639L436.31,51.284L430.379,51.119L420.839,50.671L416.676,50.529L410.032,50.275L402.344,50.046L390.032,49.698L378.766,49.32L370.105,49.107L363.185,49.107L360.078,49.077L356.158,48.829L353.109,48.736L349.55,48.594L347.612,48.594L346.886,48.524L344.949,48.524L342.287,48.417L339.872,48.417L338.52,48.381Z" style="fill:none;stroke:white;stroke-width:0.71px;"/>
        <path d="M469.74,53.593C469.862,53.578 469.959,53.482 469.974,53.36L469.999,52.858C469.95,52.68 469.805,52.545 469.623,52.51L467.573,52.438L466.202,52.349L463.333,52.239L461.801,52.223L459.721,52.223L459.308,52.179L457.893,52.194L457.15,52.223L455.617,52.258L455.267,52.258L455.124,52.374L455.115,52.482L455.302,52.633L455.481,52.731L455.661,52.848L455.832,52.902L456.066,52.94L458.413,53.03L459.359,53.035L461.308,53.11L463.778,53.281L466.46,53.458L467.623,53.593L469.74,53.593Z" style="fill:white;fill-rule:nonzero;"/>
        <path d="M469.74,53.593C469.862,53.578 469.959,53.482 469.974,53.36L469.999,52.858C469.95,52.68 469.805,52.545 469.623,52.51L467.573,52.438L466.202,52.349L463.333,52.239L461.801,52.223L459.721,52.223L459.308,52.179L457.893,52.194L457.15,52.223L455.617,52.258L455.267,52.258L455.124,52.374L455.115,52.482L455.302,52.633L455.481,52.731L455.661,52.848L455.832,52.902L456.066,52.94L458.413,53.03L459.359,53.035L461.308,53.11L463.778,53.281L466.46,53.458L467.623,53.593L469.74,53.593Z" style="fill:none;stroke:white;stroke-width:0.21px;"/>
        <path d="M468.419,68.337L473.417,68.468L477.189,68.576L478.416,68.588L479.27,68.72L482.897,68.792L485.217,68.9L486.817,68.941L487.88,68.891L488.345,68.862C488.495,68.844 488.618,68.735 488.654,68.588L488.714,68.132L488.718,67.991L488.546,67.867L488.462,67.831L485.735,67.788L483.511,67.735L481.348,67.699L478.524,67.675L474.711,67.618L470.905,67.591L468.057,67.459L467.359,67.423L464.848,67.387L461.697,67.359L460.45,67.363L460.24,67.541L459.896,67.339L456.941,67.231L454.886,67.231L454.47,67.346L454.482,67.678L454.838,67.757L455.366,67.816L455.478,67.886L457.249,67.898L459.682,68.035L462.902,68.155L466.909,68.251L468.419,68.337Z" style="fill:white;fill-rule:nonzero;"/>
        <path d="M468.419,68.337L473.417,68.468L477.189,68.576L478.416,68.588L479.27,68.72L482.897,68.792L485.217,68.9L486.817,68.941L487.88,68.891L488.345,68.862C488.495,68.844 488.618,68.735 488.654,68.588L488.714,68.132L488.718,67.991L488.546,67.867L488.462,67.831L485.735,67.788L483.511,67.735L481.348,67.699L478.524,67.675L474.711,67.618L470.905,67.591L468.057,67.459L467.359,67.423L464.848,67.387L461.697,67.359L460.45,67.363L460.24,67.541L459.896,67.339L456.941,67.231L454.886,67.231L454.47,67.346L454.482,67.678L454.838,67.757L455.366,67.816L455.478,67.886L457.249,67.898L459.682,68.035L462.902,68.155L466.909,68.251L468.419,68.337Z" style="fill:none;stroke:white;stroke-width:0.48px;"/>
        <path d="M476.836,86.928L475.912,86.928L475.188,86.853L474.525,86.803L473.577,86.754L472.304,86.729L471.717,86.716L471.555,86.716L471.542,86.766L471.441,86.766L471.316,86.666L470.631,86.591L468.995,86.579L466.773,86.554L462.916,86.554L459.769,86.516L459.069,86.504L457.359,86.442L456.598,86.379L455.375,86.342L455.024,86.342L454.925,86.366L454.925,86.454L455.037,86.491L455.05,86.641L455.149,86.666L455.438,86.966L455.674,87.141L455.824,87.253L456.023,87.328L458.283,87.353L460.431,87.415L462.854,87.465L462.989,87.503L466.686,87.515L466.886,87.552L467.734,87.515L468.87,87.415L470.58,87.415L472.853,87.378L475.139,87.363L475.531,87.316L476.686,87.19L476.867,87.142C476.924,87.131 476.961,87.077 476.953,87.02C476.944,86.963 476.894,86.922 476.836,86.928Z" style="fill:white;fill-rule:nonzero;"/>
        <path d="M476.836,86.928L475.912,86.928L475.188,86.853L474.525,86.803L473.577,86.754L472.304,86.729L471.717,86.716L471.555,86.716L471.542,86.766L471.441,86.766L471.316,86.666L470.631,86.591L468.995,86.579L466.773,86.554L462.916,86.554L459.769,86.516L459.069,86.504L457.359,86.442L456.598,86.379L455.375,86.342L455.024,86.342L454.925,86.366L454.925,86.454L455.037,86.491L455.05,86.641L455.149,86.666L455.438,86.966L455.674,87.141L455.824,87.253L456.023,87.328L458.283,87.353L460.431,87.415L462.854,87.465L462.989,87.503L466.686,87.515L466.886,87.552L467.734,87.515L468.87,87.415L470.58,87.415L472.853,87.378L475.139,87.363L475.531,87.316L476.686,87.19L476.867,87.142C476.924,87.131 476.961,87.077 476.953,87.02C476.944,86.963 476.894,86.922 476.836,86.928Z" style="fill:none;stroke:white;stroke-width:0.31px;"/>
        <path d="M333.441,122.317L329.434,122.309C329.254,122.257 329.141,122.081 329.169,121.895L329.15,113.772L329.15,102.832L329.081,90.876L329.069,80.358L329.035,77.07L329.081,75.498L328.989,53.457L328.999,48.759C329.044,48.493 329.289,48.309 329.556,48.339L333.307,48.333C333.485,48.302 333.656,48.424 333.688,48.604L333.799,76.183L333.813,104.429L333.827,121.912C333.844,122.02 333.81,122.13 333.734,122.209C333.658,122.288 333.551,122.328 333.441,122.317Z" style="fill:white;fill-rule:nonzero;"/>
        <path d="M333.441,122.317L329.434,122.309C329.254,122.257 329.141,122.081 329.169,121.895L329.15,113.772L329.15,102.832L329.081,90.876L329.069,80.358L329.035,77.07L329.081,75.498L328.989,53.457L328.999,48.759C329.044,48.493 329.289,48.309 329.556,48.339L333.307,48.333C333.485,48.302 333.656,48.424 333.688,48.604L333.799,76.183L333.813,104.429L333.827,121.912C333.844,122.02 333.81,122.13 333.734,122.209C333.658,122.288 333.551,122.328 333.441,122.317Z" style="fill:none;stroke:black;stroke-width:0.07px;"/>
        <path d="M453.244,122.047L449.436,122.047C449.339,122.047 449.248,122.005 449.185,121.932C449.122,121.86 449.093,121.764 449.106,121.669L449.019,105.012L448.931,81.407L448.882,61.61L448.874,48.537C448.847,48.411 448.873,48.28 448.945,48.176C449.019,48.071 449.132,48.001 449.259,47.984L453.18,47.951C453.304,47.944 453.424,48.001 453.498,48.101C453.572,48.2 453.592,48.331 453.549,48.448L453.701,72.711L453.741,91.363L453.71,121.573C453.708,121.831 453.502,122.041 453.244,122.047Z" style="fill:white;fill-rule:nonzero;"/>
        <path d="M453.244,122.047L449.436,122.047C449.339,122.047 449.248,122.005 449.185,121.932C449.122,121.86 449.093,121.764 449.106,121.669L449.019,105.012L448.931,81.407L448.882,61.61L448.874,48.537C448.847,48.411 448.873,48.28 448.945,48.176C449.019,48.071 449.132,48.001 449.259,47.984L453.18,47.951C453.304,47.944 453.424,48.001 453.498,48.101C453.572,48.2 453.592,48.331 453.549,48.448L453.701,72.711L453.741,91.363L453.71,121.573C453.708,121.831 453.502,122.041 453.244,122.047Z" style="fill:none;stroke:black;stroke-width:0.07px;"/>
        <path d="M127.111,130.111C127.111,124.32 122.416,119.625 116.625,119.625C110.833,119.625 106.138,124.32 106.138,130.111C106.138,135.903 110.833,140.598 116.625,140.598C122.416,140.598 127.111,135.903 127.111,130.111Z" style="fill:white;fill-rule:nonzero;"/>
        <path d="M127.111,130.111C127.111,124.32 122.416,119.625 116.625,119.625C110.833,119.625 106.138,124.32 106.138,130.111C106.138,135.903 110.833,140.598 116.625,140.598C122.416,140.598 127.111,135.903 127.111,130.111Z" style="fill:none;stroke:black;stroke-width:0.71px;"/>
        <path d="M231.362,116.512C231.362,106.848 223.528,99.016 213.864,99.016C204.201,99.016 196.367,106.848 196.367,116.512C196.367,126.176 204.201,134.009 213.864,134.009C223.528,134.009 231.362,126.176 231.362,116.512Z" style="fill:white;fill-rule:nonzero;"/>
        <path d="M231.362,116.512C231.362,106.848 223.528,99.016 213.864,99.016C204.201,99.016 196.367,106.848 196.367,116.512C196.367,126.176 204.201,134.009 213.864,134.009C223.528,134.009 231.362,126.176 231.362,116.512Z" style="fill:none;stroke:black;stroke-width:0.71px;"/>
        <path d="M177.846,41.059L167.961,80.502L177.417,89.957C181.496,84.365 186.804,79.784 192.932,76.567C193.056,76.516 193.17,76.443 193.27,76.352C193.954,75.72 194.342,74.831 194.342,73.899L194.342,41.427C194.4,41.117 194.317,40.797 194.116,40.554C193.914,40.312 193.615,40.171 193.3,40.17L179.103,40.139C178.524,40.127 178.009,40.504 177.846,41.059Z" style="fill:white;fill-rule:nonzero;"/>
        <path d="M177.846,41.059L167.961,80.502L177.417,89.957C181.496,84.365 186.804,79.784 192.932,76.567C193.056,76.516 193.17,76.443 193.27,76.352C193.954,75.72 194.342,74.831 194.342,73.899L194.342,41.427C194.4,41.117 194.317,40.797 194.116,40.554C193.914,40.312 193.615,40.171 193.3,40.17L179.103,40.139C178.524,40.127 178.009,40.504 177.846,41.059Z" style="fill:none;stroke:black;stroke-width:0.37px;"/>
        <path d="M201.457,71.722L201.457,41.212C201.567,40.589 202.111,40.136 202.744,40.139L215.47,40.139C216.03,40.139 216.521,40.517 216.666,41.059L224.147,70.741C224.254,71.166 224.132,71.616 223.826,71.929C223.519,72.242 223.071,72.373 222.645,72.274C216.053,71.003 209.265,71.17 202.744,72.765C202.181,72.781 201.677,72.416 201.518,71.876C201.502,71.822 201.481,71.771 201.457,71.722Z" style="fill:white;fill-rule:nonzero;"/>
        <path d="M201.457,71.722L201.457,41.212C201.567,40.589 202.111,40.136 202.744,40.139L215.47,40.139C216.03,40.139 216.521,40.517 216.666,41.059L224.147,70.741C224.254,71.166 224.132,71.616 223.826,71.929C223.519,72.242 223.071,72.373 222.645,72.274C216.053,71.003 209.265,71.17 202.744,72.765C202.181,72.781 201.677,72.416 201.518,71.876C201.502,71.822 201.481,71.771 201.457,71.722Z" style="fill:none;stroke:black;stroke-width:0.32px;"/>
    </g>
</svg>
