<?xml version="1.0" encoding="UTF-8" standalone="no"?>
<!DOCTYPE svg PUBLIC "-//W3C//DTD SVG 1.1//EN" "http://www.w3.org/Graphics/SVG/1.1/DTD/svg11.dtd">
<svg width="100%" height="100%" viewBox="0 0 596 596" version="1.1" xmlns="http://www.w3.org/2000/svg" xmlns:xlink="http://www.w3.org/1999/xlink" xml:space="preserve" xmlns:serif="http://www.serif.com/" style="fill-rule:evenodd;clip-rule:evenodd;stroke-linecap:round;stroke-linejoin:round;stroke-miterlimit:2;">
    <g>
        <rect x="0.354" y="1.079" width="594.568" height="594.568" style="fill-rule:nonzero;"/>
        <rect x="0.354" y="1.079" width="594.568" height="594.568" style="fill:none;stroke:black;stroke-width:0.71px;"/>
        <rect x="9.272" y="9.998" width="576.732" height="576.73" style="fill:white;fill-rule:nonzero;"/>
        <rect x="9.272" y="9.998" width="576.732" height="576.73" style="fill:none;stroke:black;stroke-width:0.71px;"/>
        <path d="M396.586,439.07C396.164,448.183 394.81,457.23 392.543,466.068C392.042,468.024 390.279,469.391 388.261,469.391L333.55,469.391C331.531,469.391 329.769,468.024 329.268,466.068C327,457.23 325.646,448.183 325.223,439.07C323.563,429.156 323.067,419.082 323.743,409.054C323.896,388.663 324.026,368.269 324.135,347.877L356.751,335.736L397.681,348.885C397.789,368.942 397.917,388.997 398.067,409.054C398.742,419.082 398.245,429.156 396.586,439.07Z" style="fill-rule:nonzero;"/>
        <path d="M396.586,439.07C396.164,448.183 394.81,457.23 392.543,466.068C392.042,468.024 390.279,469.391 388.261,469.391L333.55,469.391C331.531,469.391 329.769,468.024 329.268,466.068C327,457.23 325.646,448.183 325.223,439.07C323.563,429.156 323.067,419.082 323.743,409.054C323.896,388.663 324.026,368.269 324.135,347.877L356.751,335.736L397.681,348.885C397.789,368.942 397.917,388.997 398.067,409.054C398.742,419.082 398.245,429.156 396.586,439.07Z" style="fill:none;stroke:black;stroke-width:0.71px;"/>
        <path d="M297.749,278.16C292.279,268.975 287.902,259.182 284.706,248.98C278.245,235.758 272.309,222.285 266.912,208.594C262.45,199.587 259.053,190.09 256.793,180.296C253.695,171.715 251.485,162.838 250.197,153.807C249.912,151.808 251.017,149.87 252.882,149.097L303.427,128.16C305.293,127.387 307.444,127.976 308.657,129.592C314.132,136.889 318.846,144.728 322.723,152.987C328.05,161.511 332.364,170.627 335.577,180.152C341.842,193.468 347.438,207.088 352.35,220.961C356.265,228.447 359.479,236.279 361.953,244.356L325.058,213.634L324.709,268.923L297.749,278.16Z" style="fill-rule:nonzero;"/>
        <path d="M297.749,278.16C292.279,268.975 287.902,259.182 284.706,248.98C278.245,235.758 272.309,222.285 266.912,208.594C262.45,199.587 259.053,190.09 256.793,180.296C253.695,171.715 251.485,162.838 250.197,153.807C249.912,151.808 251.017,149.87 252.882,149.097L303.427,128.16C305.293,127.387 307.444,127.976 308.657,129.592C314.132,136.889 318.846,144.728 322.723,152.987C328.05,161.511 332.364,170.627 335.577,180.152C341.842,193.468 347.438,207.088 352.35,220.961C356.265,228.447 359.479,236.279 361.953,244.356L325.058,213.634L324.709,268.923L297.749,278.16Z" style="fill:none;stroke:black;stroke-width:0.71px;"/>
        <rect x="413.718" y="367.235" width="11.918" height="210.575" style="fill-rule:nonzero;"/>
        <rect x="413.718" y="367.235" width="11.918" height="210.575" style="fill:none;stroke:black;stroke-width:0.17px;"/>
        <rect x="413.718" y="18.916" width="11.918" height="229.245" style="fill-rule:nonzero;"/>
        <rect x="413.718" y="18.916" width="11.918" height="229.245" style="fill:none;stroke:black;stroke-width:0.17px;"/>
        <rect x="291.692" y="488.624" width="11.892" height="59.457" style="fill-rule:nonzero;"/>
        <rect x="291.692" y="488.624" width="11.892" height="59.457" style="fill:none;stroke:black;stroke-width:0.17px;"/>
        <rect x="291.692" y="399.439" width="11.892" height="59.457" style="fill-rule:nonzero;"/>
        <rect x="291.692" y="399.439" width="11.892" height="59.457" style="fill:none;stroke:black;stroke-width:0.17px;"/>
        <rect x="291.692" y="42.699" width="11.892" height="59.457" style="fill-rule:nonzero;"/>
        <rect x="291.692" y="42.699" width="11.892" height="59.457" style="fill:none;stroke:black;stroke-width:0.17px;"/>
        <rect x="169.66" y="18.916" width="11.899" height="558.894" style="fill-rule:nonzero;"/>
        <rect x="169.66" y="18.916" width="11.899" height="558.894" style="fill:none;stroke:black;stroke-width:0.17px;"/>
        <path d="M324.709,268.923L237.243,298.888L317.077,313.933L281.531,363.737L356.751,335.736L468.353,371.59L406.894,306.391L458.792,255.917L379.203,258.72L325.058,213.634L324.709,268.923Z" style="fill-rule:nonzero;"/>
        <path d="M324.709,268.923L237.243,298.888L317.077,313.933L281.531,363.737L356.751,335.736L468.353,371.59L406.894,306.391L458.792,255.917L379.203,258.72L325.058,213.634L324.709,268.923Z" style="fill:none;stroke:black;stroke-width:0.71px;"/>
        <path d="M330.628,273.181L260.471,297.215L327.323,309.813L297.645,351.394L356.608,329.445L448.189,358.868L398.553,306.21L443.596,262.401L377.143,264.741L330.924,226.256L330.628,273.181Z" style="fill:rgb(240,94,36);fill-rule:nonzero;"/>
        <path d="M330.628,273.181L260.471,297.215L327.323,309.813L297.645,351.394L356.608,329.445L448.189,358.868L398.553,306.21L443.596,262.401L377.143,264.741L330.924,226.256L330.628,273.181Z" style="fill:none;stroke:black;stroke-width:0.71px;"/>
        <path d="M337.539,388.898C337.251,389.005 336.931,388.989 336.656,388.85C336.38,388.712 336.175,388.465 336.09,388.168L330.776,369.757C330.498,368.795 330.902,367.767 331.76,367.25C349.322,356.678 371.304,356.734 388.812,367.396C389.689,367.93 390.082,368.998 389.763,369.973L383.661,388.559C383.566,388.847 383.357,389.084 383.082,389.214C382.808,389.344 382.491,389.355 382.208,389.244C367.87,383.626 351.963,383.503 337.539,388.898Z" style="fill:white;fill-rule:nonzero;"/>
        <path d="M337.539,388.898C337.251,389.005 336.931,388.989 336.656,388.85C336.38,388.712 336.175,388.465 336.09,388.168L330.776,369.757C330.498,368.795 330.902,367.767 331.76,367.25C349.322,356.678 371.304,356.734 388.812,367.396C389.689,367.93 390.082,368.998 389.763,369.973L383.661,388.559C383.566,388.847 383.357,389.084 383.082,389.214C382.808,389.344 382.491,389.355 382.208,389.244C367.87,383.626 351.963,383.503 337.539,388.898Z" style="fill:none;stroke:black;stroke-width:0.71px;"/>
        <path d="M382.478,454.507C383.297,454.395 384.033,453.948 384.51,453.271C384.987,452.595 385.161,451.751 384.992,450.942L380.808,430.893C380.711,430.433 380.304,430.102 379.833,430.102L340.661,430.102C340.198,430.102 339.798,430.42 339.692,430.87L334.945,451.137C334.752,451.961 334.918,452.829 335.401,453.524C335.884,454.218 336.641,454.674 337.48,454.78C352.427,456.653 367.555,456.561 382.478,454.507Z" style="fill:white;fill-rule:nonzero;"/>
        <path d="M382.478,454.507C383.297,454.395 384.033,453.948 384.51,453.271C384.987,452.595 385.161,451.751 384.992,450.942L380.808,430.893C380.711,430.433 380.304,430.102 379.833,430.102L340.661,430.102C340.198,430.102 339.798,430.42 339.692,430.87L334.945,451.137C334.752,451.961 334.918,452.829 335.401,453.524C335.884,454.218 336.641,454.674 337.48,454.78C352.427,456.653 367.555,456.561 382.478,454.507Z" style="fill:none;stroke:black;stroke-width:0.7px;"/>
        <path d="M303.78,144.123C304.581,143.914 305.433,144.046 306.132,144.488C306.831,144.93 307.314,145.643 307.469,146.456L311.273,166.579C311.361,167.042 311.113,167.503 310.677,167.683L274.486,182.674C274.06,182.851 273.567,182.71 273.298,182.335L261.156,165.427C260.661,164.74 260.484,163.875 260.664,163.048C260.845,162.221 261.368,161.51 262.104,161.092C275.196,153.642 289.208,147.937 303.78,144.123Z" style="fill:white;fill-rule:nonzero;"/>
        <path d="M303.78,144.123C304.581,143.914 305.433,144.046 306.132,144.488C306.831,144.93 307.314,145.643 307.469,146.456L311.273,166.579C311.361,167.042 311.113,167.503 310.677,167.683L274.486,182.674C274.06,182.851 273.567,182.71 273.298,182.335L261.156,165.427C260.661,164.74 260.484,163.875 260.664,163.048C260.845,162.221 261.368,161.51 262.104,161.092C275.196,153.642 289.208,147.937 303.78,144.123Z" style="fill:none;stroke:black;stroke-width:0.71px;"/>
        <path d="M325.058,213.634L339.908,226C340.984,224.773 342.006,223.498 342.969,222.18C343.574,221.351 343.53,220.214 342.86,219.435L330.111,204.599C329.914,204.369 329.63,204.23 329.326,204.215C329.022,204.201 328.727,204.312 328.507,204.523C317.41,215.199 302.761,221.4 287.371,221.936C287.063,221.947 286.774,222.085 286.572,222.319C286.372,222.552 286.276,222.858 286.311,223.164L288.448,242.207C288.559,243.203 289.325,243.999 290.316,244.148C302.205,245.934 314.353,243.783 324.904,238.019L325.058,213.634Z" style="fill:white;fill-rule:nonzero;"/>
        <path d="M325.058,213.634L339.908,226C340.984,224.773 342.006,223.498 342.969,222.18C343.574,221.351 343.53,220.214 342.86,219.435L330.111,204.599C329.914,204.369 329.63,204.23 329.326,204.215C329.022,204.201 328.727,204.312 328.507,204.523C317.41,215.199 302.761,221.4 287.371,221.936C287.063,221.947 286.774,222.085 286.572,222.319C286.372,222.552 286.276,222.858 286.311,223.164L288.448,242.207C288.559,243.203 289.325,243.999 290.316,244.148C302.205,245.934 314.353,243.783 324.904,238.019L325.058,213.634Z" style="fill:none;stroke:black;stroke-width:0.71px;"/>
    </g>
</svg>
