<?xml version="1.0" encoding="UTF-8" standalone="no"?>
<!DOCTYPE svg PUBLIC "-//W3C//DTD SVG 1.1//EN" "http://www.w3.org/Graphics/SVG/1.1/DTD/svg11.dtd">
<svg width="100%" height="100%" viewBox="0 0 596 596" version="1.1" xmlns="http://www.w3.org/2000/svg" xmlns:xlink="http://www.w3.org/1999/xlink" xml:space="preserve" xmlns:serif="http://www.serif.com/" style="fill-rule:evenodd;clip-rule:evenodd;stroke-linecap:round;stroke-linejoin:round;stroke-miterlimit:2;">
    <g>
        <rect x="0.354" y="1.079" width="594.568" height="594.568" style="fill-rule:nonzero;"/>
        <rect x="0.354" y="1.079" width="594.568" height="594.568" style="fill:none;stroke:black;stroke-width:0.71px;"/>
        <rect x="9.272" y="9.998" width="576.732" height="576.73" style="fill:white;fill-rule:nonzero;"/>
        <rect x="9.272" y="9.998" width="576.732" height="576.73" style="fill:none;stroke:black;stroke-width:0.71px;"/>
        <path d="M374.128,231.203L286.661,261.168L366.496,276.212L330.949,326.017L406.17,298.016L517.771,333.871L456.313,268.671L508.209,218.197L428.62,220.999L374.476,175.914L374.128,231.203Z" style="fill-rule:nonzero;"/>
        <path d="M374.128,231.203L286.661,261.168L366.496,276.212L330.949,326.017L406.17,298.016L517.771,333.871L456.313,268.671L508.209,218.197L428.62,220.999L374.476,175.914L374.128,231.203Z" style="fill:none;stroke:black;stroke-width:0.71px;"/>
        <path d="M267.314,577.81L255.395,577.81C246.503,450.67 145.331,349.497 18.191,340.605L18.191,328.687C151.903,337.621 258.38,444.098 267.314,577.81Z" style="fill-rule:nonzero;"/>
        <path d="M267.314,577.81L255.395,577.81C246.503,450.67 145.331,349.497 18.191,340.605L18.191,328.687C151.903,337.621 258.38,444.098 267.314,577.81Z" style="fill:none;stroke:black;stroke-width:0.71px;"/>
        <path d="M111.369,234.787L114.866,223.421C91.297,216.171 67.095,211.175 42.583,208.501L41.835,220.382C65.414,222.988 88.695,227.811 111.369,234.787Z" style="fill-rule:nonzero;"/>
        <path d="M111.369,234.787L114.866,223.421C91.297,216.171 67.095,211.175 42.583,208.501L41.835,220.382C65.414,222.988 88.695,227.811 111.369,234.787Z" style="fill:none;stroke:black;stroke-width:0.71px;"/>
        <path d="M198.596,260.438L192.542,270.673C175.519,260.605 157.729,251.89 139.339,244.609L143.717,233.553C162.686,241.063 181.036,250.052 198.596,260.438Z" style="fill-rule:nonzero;"/>
        <path d="M198.596,260.438L192.542,270.673C175.519,260.605 157.729,251.89 139.339,244.609L143.717,233.553C162.686,241.063 181.036,250.052 198.596,260.438Z" style="fill:none;stroke:black;stroke-width:0.71px;"/>
        <path d="M263.096,324.518L271.372,315.978C256.721,301.781 240.977,288.756 224.285,277.025L217.448,286.754C233.629,298.127 248.893,310.754 263.096,324.518Z" style="fill-rule:nonzero;"/>
        <path d="M263.096,324.518L271.372,315.978C256.721,301.781 240.977,288.756 224.285,277.025L217.448,286.754C233.629,298.127 248.893,310.754 263.096,324.518Z" style="fill:none;stroke:black;stroke-width:0.71px;"/>
        <path d="M319.131,393.345L329.171,386.974C318.239,369.748 305.971,353.408 292.479,338.104L283.559,345.968C296.639,360.805 308.532,376.645 319.131,393.345Z" style="fill-rule:nonzero;"/>
        <path d="M319.131,393.345L329.171,386.974C318.239,369.748 305.971,353.408 292.479,338.104L283.559,345.968C296.639,360.805 308.532,376.645 319.131,393.345Z" style="fill:none;stroke:black;stroke-width:0.63px;"/>
        <path d="M357.549,473.351L368.799,469.499C362.19,450.199 354.075,431.445 344.529,413.414L334.021,418.98C343.274,436.459 351.143,454.639 357.549,473.351Z" style="fill-rule:nonzero;"/>
        <path d="M357.549,473.351L368.799,469.499C362.19,450.199 354.075,431.445 344.529,413.414L334.021,418.98C343.274,436.459 351.143,454.639 357.549,473.351Z" style="fill:none;stroke:black;stroke-width:0.48px;"/>
        <path d="M388.067,558.997C386.147,538.686 382.634,518.557 377.562,498.796L366.043,501.754C370.962,520.911 374.368,540.425 376.229,560.117L388.067,558.997Z" style="fill-rule:nonzero;"/>
        <path d="M388.067,558.997C386.147,538.686 382.634,518.557 377.562,498.796L366.043,501.754C370.962,520.911 374.368,540.425 376.229,560.117L388.067,558.997Z" style="fill:none;stroke:black;stroke-width:0.31px;"/>
        <path d="M342.242,231.573L350.383,222.904C260.062,138.088 142.018,88.952 18.191,84.63L18.191,96.529C138.991,100.846 254.126,148.827 342.242,231.573Z" style="fill-rule:nonzero;"/>
        <path d="M342.242,231.573L350.383,222.904C260.062,138.088 142.018,88.952 18.191,84.63L18.191,96.529C138.991,100.846 254.126,148.827 342.242,231.573Z" style="fill:none;stroke:black;stroke-width:0.71px;"/>
        <path d="M511.371,577.81C509.426,522.088 498.381,467.061 478.673,414.906L467.55,419.108C486.75,469.921 497.532,523.525 499.473,577.81L511.371,577.81Z" style="fill-rule:nonzero;"/>
        <path d="M511.371,577.81C509.426,522.088 498.381,467.061 478.673,414.906L467.55,419.108C486.75,469.921 497.532,523.525 499.473,577.81L511.371,577.81Z" style="fill:none;stroke:black;stroke-width:0.61px;"/>
        <path d="M447.924,311.431C450.381,331.534 452.86,351.634 455.359,371.732C457.195,381.615 457.87,391.678 457.372,401.717C458.011,410.819 457.714,419.96 456.488,429.001C456.218,431.002 454.626,432.566 452.62,432.8L398.279,439.148C396.274,439.382 394.364,438.228 393.64,436.343C390.363,427.829 387.968,419 386.491,409.997C383.692,400.343 382.03,390.395 381.539,380.356C378.979,356.926 376.39,333.499 373.772,310.076L406.17,298.016L447.924,311.431Z" style="fill-rule:nonzero;"/>
        <path d="M447.924,311.431C450.381,331.534 452.86,351.634 455.359,371.732C457.195,381.615 457.87,391.678 457.372,401.717C458.011,410.819 457.714,419.96 456.488,429.001C456.218,431.002 454.626,432.566 452.62,432.8L398.279,439.148C396.274,439.382 394.364,438.228 393.64,436.343C390.363,427.829 387.968,419 386.491,409.997C383.692,400.343 382.03,390.395 381.539,380.356C378.979,356.926 376.39,333.499 373.772,310.076L406.17,298.016L447.924,311.431Z" style="fill:none;stroke:black;stroke-width:0.71px;"/>
        <path d="M380.047,235.46L309.89,259.495L376.741,272.093L347.063,313.674L406.026,291.725L497.606,321.148L447.971,268.49L493.015,224.681L426.561,227.021L380.342,188.536L380.047,235.46Z" style="fill:rgb(240,94,36);fill-rule:nonzero;"/>
        <path d="M380.047,235.46L309.89,259.495L376.741,272.093L347.063,313.674L406.026,291.725L497.606,321.148L447.971,268.49L493.015,224.681L426.561,227.021L380.342,188.536L380.047,235.46Z" style="fill:none;stroke:black;stroke-width:0.71px;"/>
        <path d="M439.318,353.314C439.617,353.387 439.934,353.332 440.19,353.163C440.448,352.994 440.623,352.724 440.674,352.421L443.815,333.517C443.979,332.53 443.458,331.554 442.546,331.141C423.876,322.677 402.05,325.284 385.896,337.905C385.088,338.538 384.821,339.644 385.252,340.576L393.468,358.329C393.596,358.604 393.831,358.815 394.119,358.912C394.407,359.008 394.724,358.983 394.991,358.839C408.581,351.597 424.367,349.628 439.318,353.314Z" style="fill:white;fill-rule:nonzero;"/>
        <path d="M439.318,353.314C439.617,353.387 439.934,353.332 440.19,353.163C440.448,352.994 440.623,352.724 440.674,352.421L443.815,333.517C443.979,332.53 443.458,331.554 442.546,331.141C423.876,322.677 402.05,325.284 385.896,337.905C385.088,338.538 384.821,339.644 385.252,340.576L393.468,358.329C393.596,358.604 393.831,358.815 394.119,358.912C394.407,359.008 394.724,358.983 394.991,358.839C408.581,351.597 424.367,349.628 439.318,353.314Z" style="fill:none;stroke:black;stroke-width:0.71px;"/>
        <path d="M402.297,423.695C401.469,423.677 400.686,423.318 400.134,422.702C399.582,422.085 399.311,421.268 399.385,420.444L401.216,400.045C401.258,399.576 401.622,399.202 402.091,399.146L440.999,394.601C441.458,394.547 441.894,394.817 442.051,395.252L449.116,414.831C449.404,415.627 449.34,416.508 448.94,417.254C448.541,418 447.843,418.541 447.021,418.744C432.394,422.338 417.356,424.002 402.297,423.695Z" style="fill:white;fill-rule:nonzero;"/>
        <path d="M402.297,423.695C401.469,423.677 400.686,423.318 400.134,422.702C399.582,422.085 399.311,421.268 399.385,420.444L401.216,400.045C401.258,399.576 401.622,399.202 402.091,399.146L440.999,394.601C441.458,394.547 441.894,394.817 442.051,395.252L449.116,414.831C449.404,415.627 449.34,416.508 448.94,417.254C448.541,418 447.843,418.541 447.021,418.744C432.394,422.338 417.356,424.002 402.297,423.695Z" style="fill:none;stroke:black;stroke-width:0.7px;"/>
    </g>
</svg>
