<?xml version="1.0" encoding="UTF-8" standalone="no"?>
<!DOCTYPE svg PUBLIC "-//W3C//DTD SVG 1.1//EN" "http://www.w3.org/Graphics/SVG/1.1/DTD/svg11.dtd">
<svg width="100%" height="100%" viewBox="0 0 596 596" version="1.1" xmlns="http://www.w3.org/2000/svg" xmlns:xlink="http://www.w3.org/1999/xlink" xml:space="preserve" xmlns:serif="http://www.serif.com/" style="fill-rule:evenodd;clip-rule:evenodd;stroke-linecap:round;stroke-linejoin:round;stroke-miterlimit:2;">
    <g>
        <rect x="0.354" y="1.079" width="594.568" height="594.568" style="fill-rule:nonzero;"/>
        <rect x="0.354" y="1.079" width="594.568" height="594.568" style="fill:none;stroke:black;stroke-width:0.71px;"/>
        <rect x="9.272" y="9.998" width="576.732" height="576.73" style="fill:white;fill-rule:nonzero;"/>
        <rect x="9.272" y="9.998" width="576.732" height="576.73" style="fill:none;stroke:black;stroke-width:0.71px;"/>
        <path d="M394.424,455.682C394.847,464.796 396.201,473.843 398.467,482.68C398.969,484.636 400.73,486.003 402.75,486.003L457.46,486.003C459.479,486.003 461.242,484.636 461.743,482.68C464.01,473.843 465.365,464.796 465.787,455.682C467.446,445.769 467.942,435.695 467.267,425.666C467.114,405.274 466.984,384.882 466.876,364.49L434.26,352.348L393.329,365.498C393.223,385.554 393.094,405.611 392.943,425.666C392.269,435.695 392.765,445.769 394.424,455.682Z" style="fill-rule:nonzero;"/>
        <path d="M394.424,455.682C394.847,464.796 396.201,473.843 398.467,482.68C398.969,484.636 400.73,486.003 402.75,486.003L457.46,486.003C459.479,486.003 461.242,484.636 461.743,482.68C464.01,473.843 465.365,464.796 465.787,455.682C467.446,445.769 467.942,435.695 467.267,425.666C467.114,405.274 466.984,384.882 466.876,364.49L434.26,352.348L393.329,365.498C393.223,385.554 393.094,405.611 392.943,425.666C392.269,435.695 392.765,445.769 394.424,455.682Z" style="fill:none;stroke:black;stroke-width:0.71px;"/>
        <path d="M243.35,197.287L243.35,18.916L255.269,18.916L255.269,209.178L41.508,209.178L41.508,197.287L243.35,197.287Z" style="fill-rule:nonzero;"/>
        <path d="M243.35,197.287L243.35,18.916L255.269,18.916L255.269,209.178L41.508,209.178L41.508,197.287L243.35,197.287Z" style="fill:none;stroke:black;stroke-width:0.71px;"/>
        <rect x="365.401" y="488.624" width="11.893" height="59.457" style="fill-rule:nonzero;"/>
        <rect x="365.401" y="488.624" width="11.893" height="59.457" style="fill:none;stroke:black;stroke-width:0.17px;"/>
        <rect x="365.401" y="399.439" width="11.893" height="59.457" style="fill-rule:nonzero;"/>
        <rect x="365.401" y="399.439" width="11.893" height="59.457" style="fill:none;stroke:black;stroke-width:0.17px;"/>
        <rect x="365.401" y="42.699" width="11.893" height="59.457" style="fill-rule:nonzero;"/>
        <rect x="365.401" y="42.699" width="11.893" height="59.457" style="fill:none;stroke:black;stroke-width:0.17px;"/>
        <rect x="487.427" y="18.916" width="11.898" height="264.43" style="fill-rule:nonzero;"/>
        <rect x="487.427" y="18.916" width="11.898" height="264.43" style="fill:none;stroke:black;stroke-width:0.17px;"/>
        <rect x="487.427" y="381.657" width="11.898" height="196.153" style="fill-rule:nonzero;"/>
        <rect x="487.427" y="381.657" width="11.898" height="196.153" style="fill:none;stroke:black;stroke-width:0.17px;"/>
        <path d="M466.301,285.536L553.768,315.5L473.933,330.544L509.479,380.35L434.26,352.348L322.658,388.204L384.117,323.004L332.219,272.529L411.808,275.332L465.953,230.246L466.301,285.536Z" style="fill-rule:nonzero;"/>
        <path d="M466.301,285.536L553.768,315.5L473.933,330.544L509.479,380.35L434.26,352.348L322.658,388.204L384.117,323.004L332.219,272.529L411.808,275.332L465.953,230.246L466.301,285.536Z" style="fill:none;stroke:black;stroke-width:0.71px;"/>
        <path d="M243.35,577.81L243.35,399.439L41.508,399.439L41.508,387.548L255.269,387.548L255.269,577.81L243.35,577.81Z" style="fill-rule:nonzero;"/>
        <path d="M243.35,577.81L243.35,399.439L41.508,399.439L41.508,387.548L255.269,387.548L255.269,577.81L243.35,577.81Z" style="fill:none;stroke:black;stroke-width:0.71px;"/>
        <path d="M350.354,358.821C347.588,359.232 344.81,359.559 342.022,359.8C327.718,363.261 313.283,366.156 298.751,368.476C288.994,370.894 278.989,372.164 268.938,372.263C259.89,373.438 250.747,373.685 241.649,372.997C239.636,372.845 237.981,371.349 237.628,369.36L228.072,315.492C227.719,313.503 228.758,311.53 230.596,310.694C238.902,306.918 247.572,304.004 256.472,301.996C265.943,298.631 275.775,296.383 285.768,295.296C300.121,292.048 314.628,289.516 329.233,287.709C334.261,286.346 339.363,285.27 344.515,284.488L384.117,323.004L350.354,358.821Z" style="fill-rule:nonzero;"/>
        <path d="M350.354,358.821C347.588,359.232 344.81,359.559 342.022,359.8C327.718,363.261 313.283,366.156 298.751,368.476C288.994,370.894 278.989,372.164 268.938,372.263C259.89,373.438 250.747,373.685 241.649,372.997C239.636,372.845 237.981,371.349 237.628,369.36L228.072,315.492C227.719,313.503 228.758,311.53 230.596,310.694C238.902,306.918 247.572,304.004 256.472,301.996C265.943,298.631 275.775,296.383 285.768,295.296C300.121,292.048 314.628,289.516 329.233,287.709C334.261,286.346 339.363,285.27 344.515,284.488L384.117,323.004L350.354,358.821Z" style="fill:none;stroke:black;stroke-width:0.71px;"/>
        <rect x="71.236" y="292.417" width="59.456" height="11.891" style="fill-rule:nonzero;"/>
        <rect x="71.236" y="292.417" width="59.456" height="11.891" style="fill:none;stroke:black;stroke-width:0.71px;"/>
        <rect x="160.422" y="292.417" width="59.457" height="11.891" style="fill-rule:nonzero;"/>
        <rect x="160.422" y="292.417" width="59.457" height="11.891" style="fill:none;stroke:black;stroke-width:0.71px;"/>
        <rect x="365.401" y="221.069" width="11.893" height="43.704" style="fill-rule:nonzero;"/>
        <rect x="365.401" y="221.069" width="11.893" height="43.704" style="fill:none;stroke:black;stroke-width:0.17px;"/>
        <rect x="365.401" y="131.884" width="11.893" height="59.456" style="fill-rule:nonzero;"/>
        <rect x="365.401" y="131.884" width="11.893" height="59.456" style="fill:none;stroke:black;stroke-width:0.17px;"/>
        <path d="M460.383,289.792L530.538,313.828L463.688,326.425L493.364,368.007L434.401,346.058L342.821,375.481L392.457,322.823L347.414,279.014L413.867,281.354L460.087,242.869L460.383,289.792Z" style="fill:rgb(240,94,36);fill-rule:nonzero;"/>
        <path d="M460.383,289.792L530.538,313.828L463.688,326.425L493.364,368.007L434.401,346.058L342.821,375.481L392.457,322.823L347.414,279.014L413.867,281.354L460.087,242.869L460.383,289.792Z" style="fill:none;stroke:black;stroke-width:0.71px;"/>
        <path d="M453.471,405.51C453.76,405.619 454.079,405.601 454.354,405.462C454.631,405.324 454.835,405.078 454.92,404.782L460.234,386.37C460.512,385.409 460.108,384.379 459.25,383.862C441.688,373.289 419.706,373.346 402.199,384.008C401.322,384.543 400.928,385.61 401.248,386.586L407.349,405.171C407.443,405.46 407.653,405.698 407.929,405.828C408.202,405.955 408.52,405.967 408.803,405.856C423.14,400.239 439.048,400.117 453.471,405.51Z" style="fill:white;fill-rule:nonzero;"/>
        <path d="M453.471,405.51C453.76,405.619 454.079,405.601 454.354,405.462C454.631,405.324 454.835,405.078 454.92,404.782L460.234,386.37C460.512,385.409 460.108,384.379 459.25,383.862C441.688,373.289 419.706,373.346 402.199,384.008C401.322,384.543 400.928,385.61 401.248,386.586L407.349,405.171C407.443,405.46 407.653,405.698 407.929,405.828C408.202,405.955 408.52,405.967 408.803,405.856C423.14,400.239 439.048,400.117 453.471,405.51Z" style="fill:none;stroke:black;stroke-width:0.71px;"/>
        <path d="M408.533,471.121C407.714,471.007 406.978,470.56 406.5,469.884C406.023,469.207 405.849,468.364 406.019,467.553L410.203,447.506C410.3,447.044 410.706,446.714 411.178,446.714L450.35,446.714C450.812,446.714 451.214,447.033 451.319,447.483L456.065,467.749C456.259,468.574 456.093,469.441 455.608,470.135C455.126,470.83 454.37,471.288 453.53,471.393C438.583,473.265 423.456,473.174 408.533,471.121Z" style="fill:white;fill-rule:nonzero;"/>
        <path d="M408.533,471.121C407.714,471.007 406.978,470.56 406.5,469.884C406.023,469.207 405.849,468.364 406.019,467.553L410.203,447.506C410.3,447.044 410.706,446.714 411.178,446.714L450.35,446.714C450.812,446.714 451.214,447.033 451.319,447.483L456.065,467.749C456.259,468.574 456.093,469.441 455.608,470.135C455.126,470.83 454.37,471.288 453.53,471.393C438.583,473.265 423.456,473.174 408.533,471.121Z" style="fill:none;stroke:black;stroke-width:0.7px;"/>
        <path d="M316.187,351.372C316.132,351.675 316.204,351.987 316.389,352.234C316.573,352.481 316.852,352.639 317.157,352.671L336.215,354.688C337.211,354.793 338.153,354.216 338.512,353.282C345.854,334.142 341.959,312.508 328.402,297.132C327.723,296.362 326.604,296.161 325.698,296.647L308.465,305.899C308.196,306.043 307.999,306.291 307.921,306.584C307.841,306.877 307.886,307.191 308.044,307.451C316.08,320.587 318.979,336.229 316.187,351.372Z" style="fill:white;fill-rule:nonzero;"/>
        <path d="M316.187,351.372C316.132,351.675 316.204,351.987 316.389,352.234C316.573,352.481 316.852,352.639 317.157,352.671L336.215,354.688C337.211,354.793 338.153,354.216 338.512,353.282C345.854,334.142 341.959,312.508 328.402,297.132C327.723,296.362 326.604,296.161 325.698,296.647L308.465,305.899C308.196,306.043 307.999,306.291 307.921,306.584C307.841,306.877 307.886,307.191 308.044,307.451C316.08,320.587 318.979,336.229 316.187,351.372Z" style="fill:none;stroke:black;stroke-width:0.53px;"/>
        <path d="M243.736,318.585C243.704,317.759 244.017,316.955 244.599,316.369C245.182,315.781 245.982,315.461 246.809,315.487L267.279,316.105C267.75,316.12 268.146,316.462 268.229,316.926L275.071,355.496C275.152,355.951 274.909,356.402 274.484,356.584L255.357,364.799C254.58,365.132 253.697,365.121 252.929,364.766C252.16,364.412 251.579,363.747 251.328,362.939C246.874,348.549 244.321,333.638 243.736,318.585Z" style="fill:white;fill-rule:nonzero;"/>
        <path d="M243.736,318.585C243.704,317.759 244.017,316.955 244.599,316.369C245.182,315.781 245.982,315.461 246.809,315.487L267.279,316.105C267.75,316.12 268.146,316.462 268.229,316.926L275.071,355.496C275.152,355.951 274.909,356.402 274.484,356.584L255.357,364.799C254.58,365.132 253.697,365.121 252.929,364.766C252.16,364.412 251.579,363.747 251.328,362.939C246.874,348.549 244.321,333.638 243.736,318.585Z" style="fill:none;stroke:black;stroke-width:0.44px;"/>
    </g>
</svg>
