<?xml version="1.0" encoding="UTF-8" standalone="no"?>
<!DOCTYPE svg PUBLIC "-//W3C//DTD SVG 1.1//EN" "http://www.w3.org/Graphics/SVG/1.1/DTD/svg11.dtd">
<svg width="100%" height="100%" viewBox="0 0 596 596" version="1.1" xmlns="http://www.w3.org/2000/svg" xmlns:xlink="http://www.w3.org/1999/xlink" xml:space="preserve" xmlns:serif="http://www.serif.com/" style="fill-rule:evenodd;clip-rule:evenodd;stroke-linecap:round;stroke-linejoin:round;stroke-miterlimit:2;">
    <g>
        <rect x="0.354" y="1.079" width="594.568" height="594.568" style="fill-rule:nonzero;"/>
        <rect x="0.354" y="1.079" width="594.568" height="594.568" style="fill:none;stroke:black;stroke-width:0.71px;"/>
        <rect x="9.272" y="9.998" width="576.732" height="576.73" style="fill:white;fill-rule:nonzero;"/>
        <rect x="9.272" y="9.998" width="576.732" height="576.73" style="fill:none;stroke:black;stroke-width:0.71px;"/>
        <path d="M396.586,443.596C396.164,452.709 394.81,461.755 392.543,470.593C392.042,472.549 390.279,473.917 388.261,473.917L333.55,473.917C331.531,473.917 329.769,472.549 329.268,470.593C327,461.755 325.646,452.709 325.223,443.596C323.563,433.682 323.067,423.609 323.743,413.579C323.896,393.188 324.026,372.795 324.135,352.404L356.751,340.262L397.681,353.412C397.789,373.467 397.917,393.524 398.067,413.579C398.742,423.609 398.245,433.682 396.586,443.596Z" style="fill-rule:nonzero;"/>
        <path d="M396.586,443.596C396.164,452.709 394.81,461.755 392.543,470.593C392.042,472.549 390.279,473.917 388.261,473.917L333.55,473.917C331.531,473.917 329.769,472.549 329.268,470.593C327,461.755 325.646,452.709 325.223,443.596C323.563,433.682 323.067,423.609 323.743,413.579C323.896,393.188 324.026,372.795 324.135,352.404L356.751,340.262L397.681,353.412C397.789,373.467 397.917,393.524 398.067,413.579C398.742,423.609 398.245,433.682 396.586,443.596Z" style="fill:none;stroke:black;stroke-width:0.71px;"/>
        <rect x="413.718" y="371.76" width="11.918" height="206.05" style="fill-rule:nonzero;"/>
        <rect x="413.718" y="371.76" width="11.918" height="206.05" style="fill:none;stroke:black;stroke-width:0.17px;"/>
        <rect x="413.718" y="18.916" width="11.918" height="234.19" style="fill-rule:nonzero;"/>
        <rect x="413.718" y="18.916" width="11.918" height="234.19" style="fill:none;stroke:black;stroke-width:0.17px;"/>
        <rect x="291.692" y="488.624" width="11.892" height="59.457" style="fill-rule:nonzero;"/>
        <rect x="291.692" y="488.624" width="11.892" height="59.457" style="fill:none;stroke:black;stroke-width:0.17px;"/>
        <rect x="291.692" y="399.439" width="11.892" height="59.457" style="fill-rule:nonzero;"/>
        <rect x="291.692" y="399.439" width="11.892" height="59.457" style="fill:none;stroke:black;stroke-width:0.17px;"/>
        <rect x="291.692" y="42.699" width="11.892" height="59.457" style="fill-rule:nonzero;"/>
        <rect x="291.692" y="42.699" width="11.892" height="59.457" style="fill:none;stroke:black;stroke-width:0.17px;"/>
        <path d="M324.709,273.449L237.243,303.414L317.077,318.458L281.531,368.262L356.751,340.262L468.353,376.117L406.894,310.916L458.792,260.443L379.203,263.245L325.058,218.16L324.709,273.449Z" style="fill-rule:nonzero;"/>
        <path d="M324.709,273.449L237.243,303.414L317.077,318.458L281.531,368.262L356.751,340.262L468.353,376.117L406.894,310.916L458.792,260.443L379.203,263.245L325.058,218.16L324.709,273.449Z" style="fill:none;stroke:black;stroke-width:0.71px;"/>
        <path d="M330.628,277.706L260.471,301.742L327.323,314.338L297.645,355.92L356.608,333.97L448.189,363.393L398.553,310.736L443.596,266.927L377.143,269.267L330.924,230.782L330.628,277.706Z" style="fill:rgb(240,94,36);fill-rule:nonzero;"/>
        <path d="M330.628,277.706L260.471,301.742L327.323,314.338L297.645,355.92L356.608,333.97L448.189,363.393L398.553,310.736L443.596,266.927L377.143,269.267L330.924,230.782L330.628,277.706Z" style="fill:none;stroke:black;stroke-width:0.71px;"/>
        <rect x="169.66" y="18.916" width="11.899" height="558.894" style="fill-rule:nonzero;"/>
        <rect x="169.66" y="18.916" width="11.899" height="558.894" style="fill:none;stroke:black;stroke-width:0.17px;"/>
        <rect x="291.692" y="221.069" width="11.892" height="45.664" style="fill-rule:nonzero;"/>
        <rect x="291.692" y="221.069" width="11.892" height="45.664" style="fill:none;stroke:black;stroke-width:0.17px;"/>
        <rect x="291.692" y="131.884" width="11.892" height="59.456" style="fill-rule:nonzero;"/>
        <rect x="291.692" y="131.884" width="11.892" height="59.456" style="fill:none;stroke:black;stroke-width:0.17px;"/>
        <path d="M396.541,262.634L379.203,263.245L325.058,218.16L324.709,273.449L324.088,273.662C324.049,273.023 324.015,272.385 323.985,271.746C322.326,261.832 321.83,251.759 322.506,241.73C321.814,227.03 321.855,212.305 322.627,197.608C321.333,183.136 322.349,168.55 325.633,154.397C325.994,152.843 327.163,151.603 328.693,151.154C348.631,145.294 369.832,145.289 389.772,151.14C391.304,151.589 392.474,152.829 392.835,154.383C396.122,168.541 397.138,183.131 395.844,197.608C396.753,212.297 397.081,227.016 396.828,241.73C397.298,248.695 397.202,255.685 396.541,262.634Z" style="fill-rule:nonzero;"/>
        <path d="M396.541,262.634L379.203,263.245L325.058,218.16L324.709,273.449L324.088,273.662C324.049,273.023 324.015,272.385 323.985,271.746C322.326,261.832 321.83,251.759 322.506,241.73C321.814,227.03 321.855,212.305 322.627,197.608C321.333,183.136 322.349,168.55 325.633,154.397C325.994,152.843 327.163,151.603 328.693,151.154C348.631,145.294 369.832,145.289 389.772,151.14C391.304,151.589 392.474,152.829 392.835,154.383C396.122,168.541 397.138,183.131 395.844,197.608C396.753,212.297 397.081,227.016 396.828,241.73C397.298,248.695 397.202,255.685 396.541,262.634Z" style="fill:none;stroke:black;stroke-width:0.71px;"/>
        <path d="M337.539,393.424C337.251,393.532 336.931,393.515 336.656,393.376C336.38,393.238 336.175,392.991 336.09,392.695L330.776,374.283C330.498,373.321 330.902,372.292 331.76,371.776C349.322,361.204 371.304,361.259 388.812,371.921C389.689,372.455 390.082,373.524 389.763,374.499L383.661,393.084C383.566,393.373 383.357,393.611 383.082,393.74C382.808,393.87 382.491,393.88 382.208,393.769C367.87,388.152 351.963,388.029 337.539,393.424Z" style="fill:white;fill-rule:nonzero;"/>
        <path d="M337.539,393.424C337.251,393.532 336.931,393.515 336.656,393.376C336.38,393.238 336.175,392.991 336.09,392.695L330.776,374.283C330.498,373.321 330.902,372.292 331.76,371.776C349.322,361.204 371.304,361.259 388.812,371.921C389.689,372.455 390.082,373.524 389.763,374.499L383.661,393.084C383.566,393.373 383.357,393.611 383.082,393.74C382.808,393.87 382.491,393.88 382.208,393.769C367.87,388.152 351.963,388.029 337.539,393.424Z" style="fill:none;stroke:black;stroke-width:0.71px;"/>
        <path d="M382.478,459.034C383.297,458.921 384.033,458.473 384.51,457.796C384.987,457.121 385.161,456.277 384.992,455.467L380.808,435.419C380.711,434.958 380.304,434.628 379.833,434.628L340.661,434.628C340.198,434.628 339.798,434.946 339.692,435.396L334.945,455.663C334.752,456.488 334.918,457.355 335.401,458.049C335.884,458.744 336.641,459.201 337.48,459.305C352.427,461.178 367.555,461.086 382.478,459.034Z" style="fill:white;fill-rule:nonzero;"/>
        <path d="M382.478,459.034C383.297,458.921 384.033,458.473 384.51,457.796C384.987,457.121 385.161,456.277 384.992,455.467L380.808,435.419C380.711,434.958 380.304,434.628 379.833,434.628L340.661,434.628C340.198,434.628 339.798,434.946 339.692,435.396L334.945,455.663C334.752,456.488 334.918,457.355 335.401,458.049C335.884,458.744 336.641,459.201 337.48,459.305C352.427,461.178 367.555,461.086 382.478,459.034Z" style="fill:none;stroke:black;stroke-width:0.7px;"/>
        <path d="M383.032,221.575C383.321,221.682 383.642,221.664 383.917,221.527C384.192,221.388 384.396,221.142 384.481,220.845L389.796,202.433C390.073,201.472 389.67,200.443 388.812,199.926C371.249,189.353 349.269,189.41 331.76,200.072C330.884,200.606 330.489,201.674 330.81,202.65L336.91,221.235C337.005,221.524 337.215,221.761 337.49,221.891C337.765,222.02 338.081,222.031 338.363,221.92C352.702,216.303 368.609,216.18 383.032,221.575Z" style="fill:white;fill-rule:nonzero;"/>
        <path d="M383.032,221.575C383.321,221.682 383.642,221.664 383.917,221.527C384.192,221.388 384.396,221.142 384.481,220.845L389.796,202.433C390.073,201.472 389.67,200.443 388.812,199.926C371.249,189.353 349.269,189.41 331.76,200.072C330.884,200.606 330.489,201.674 330.81,202.65L336.91,221.235C337.005,221.524 337.215,221.761 337.49,221.891C337.765,222.02 338.081,222.031 338.363,221.92C352.702,216.303 368.609,216.18 383.032,221.575Z" style="fill:none;stroke:black;stroke-width:0.71px;"/>
    </g>
</svg>
