<?xml version="1.0" encoding="UTF-8" standalone="no"?>
<!DOCTYPE svg PUBLIC "-//W3C//DTD SVG 1.1//EN" "http://www.w3.org/Graphics/SVG/1.1/DTD/svg11.dtd">
<svg width="100%" height="100%" viewBox="0 0 596 596" version="1.1" xmlns="http://www.w3.org/2000/svg" xmlns:xlink="http://www.w3.org/1999/xlink" xml:space="preserve" xmlns:serif="http://www.serif.com/" style="fill-rule:evenodd;clip-rule:evenodd;stroke-linecap:round;stroke-linejoin:round;stroke-miterlimit:2;">
    <g>
        <rect x="0.354" y="1.079" width="594.568" height="594.568" style="fill-rule:nonzero;"/>
        <rect x="0.354" y="1.079" width="594.568" height="594.568" style="fill:none;stroke:black;stroke-width:0.71px;"/>
        <rect x="18.191" y="18.916" width="558.893" height="558.894" style="fill:white;fill-rule:nonzero;"/>
        <rect x="18.191" y="18.916" width="558.893" height="558.894" style="fill:none;stroke:black;stroke-width:0.71px;"/>
        <path d="M223.317,262.688L52.378,262.688L52.378,334.037L223.317,334.037C244.661,334.037 261.963,351.339 261.963,372.684L261.963,543.622L333.313,543.622L333.313,372.684C333.313,350.385 326.535,328.614 313.879,310.254L528.032,310.254L528.032,286.471L291.627,286.471C272.189,271.07 248.117,262.688 223.317,262.688Z" style="fill-rule:nonzero;"/>
        <path d="M223.317,262.688L52.378,262.688L52.378,334.037L223.317,334.037C244.661,334.037 261.963,351.339 261.963,372.684L261.963,543.622L333.313,543.622L333.313,372.684C333.313,350.385 326.535,328.614 313.879,310.254L528.032,310.254L528.032,286.471L291.627,286.471C272.189,271.07 248.117,262.688 223.317,262.688Z" style="fill:none;stroke:black;stroke-width:0.71px;"/>
    </g>
</svg>
