<?xml version="1.0" encoding="UTF-8" standalone="no"?>
<!DOCTYPE svg PUBLIC "-//W3C//DTD SVG 1.1//EN" "http://www.w3.org/Graphics/SVG/1.1/DTD/svg11.dtd">
<svg width="100%" height="100%" viewBox="0 0 596 596" version="1.1" xmlns="http://www.w3.org/2000/svg" xmlns:xlink="http://www.w3.org/1999/xlink" xml:space="preserve" xmlns:serif="http://www.serif.com/" style="fill-rule:evenodd;clip-rule:evenodd;stroke-linecap:round;stroke-linejoin:round;stroke-miterlimit:2;">
    <g>
        <rect x="0.354" y="1.079" width="594.568" height="594.568" style="fill-rule:nonzero;"/>
        <rect x="0.354" y="1.079" width="594.568" height="594.568" style="fill:none;stroke:black;stroke-width:0.71px;"/>
        <rect x="18.191" y="18.916" width="558.893" height="558.894" style="fill:white;fill-rule:nonzero;"/>
        <rect x="18.191" y="18.916" width="558.893" height="558.894" style="fill:none;stroke:black;stroke-width:0.71px;"/>
        <path d="M216.778,97.864L216.778,53.104L288.126,53.104L288.126,97.864C288.126,251.18 368.863,393.167 500.621,471.565L464.138,532.879C387.09,487.036 323.6,421.549 280.161,343.121L280.161,540.543L256.377,540.543L256.377,294.136C230.242,232.001 216.778,165.272 216.778,97.864Z" style="fill-rule:nonzero;"/>
        <path d="M216.778,97.864L216.778,53.104L288.126,53.104L288.126,97.864C288.126,251.18 368.863,393.167 500.621,471.565L464.138,532.879C387.09,487.036 323.6,421.549 280.161,343.121L280.161,540.543L256.377,540.543L256.377,294.136C230.242,232.001 216.778,165.272 216.778,97.864Z" style="fill:none;stroke:black;stroke-width:0.71px;"/>
    </g>
</svg>
