<?xml version="1.0" encoding="UTF-8" standalone="no"?>
<!DOCTYPE svg PUBLIC "-//W3C//DTD SVG 1.1//EN" "http://www.w3.org/Graphics/SVG/1.1/DTD/svg11.dtd">
<svg width="100%" height="100%" viewBox="0 0 596 596" version="1.1" xmlns="http://www.w3.org/2000/svg" xmlns:xlink="http://www.w3.org/1999/xlink" xml:space="preserve" xmlns:serif="http://www.serif.com/" style="fill-rule:evenodd;clip-rule:evenodd;stroke-linecap:round;stroke-linejoin:round;stroke-miterlimit:2;">
    <g>
        <rect x="0.354" y="1.079" width="594.568" height="594.568" style="fill-rule:nonzero;"/>
        <rect x="0.354" y="1.079" width="594.568" height="594.568" style="fill:none;stroke:black;stroke-width:0.71px;"/>
        <rect x="18.191" y="18.916" width="558.893" height="558.894" style="fill:white;fill-rule:nonzero;"/>
        <rect x="18.191" y="18.916" width="558.893" height="558.894" style="fill:none;stroke:black;stroke-width:0.71px;"/>
        <path d="M216.778,498.862C216.778,440.558 226.851,382.692 246.552,327.818L92.647,69.892L113.07,57.706L257.548,299.832C299.691,201.282 372.027,118.653 464.138,63.847L500.621,125.162C368.863,203.558 288.126,345.545 288.126,498.862L288.126,543.622L216.778,543.622L216.778,498.862Z" style="fill-rule:nonzero;"/>
        <path d="M216.778,498.862C216.778,440.558 226.851,382.692 246.552,327.818L92.647,69.892L113.07,57.706L257.548,299.832C299.691,201.282 372.027,118.653 464.138,63.847L500.621,125.162C368.863,203.558 288.126,345.545 288.126,498.862L288.126,543.622L216.778,543.622L216.778,498.862Z" style="fill:none;stroke:black;stroke-width:0.71px;"/>
    </g>
</svg>
