<?xml version="1.0" encoding="UTF-8" standalone="no"?>
<!DOCTYPE svg PUBLIC "-//W3C//DTD SVG 1.1//EN" "http://www.w3.org/Graphics/SVG/1.1/DTD/svg11.dtd">
<svg width="100%" height="100%" viewBox="0 0 317 842" version="1.1" xmlns="http://www.w3.org/2000/svg" xmlns:xlink="http://www.w3.org/1999/xlink" xml:space="preserve" xmlns:serif="http://www.serif.com/" style="fill-rule:evenodd;clip-rule:evenodd;stroke-linecap:round;stroke-linejoin:round;stroke-miterlimit:2;">
    <g>
        <rect x="0.354" y="0.464" width="315.443" height="841.181" style="fill-rule:nonzero;"/>
        <rect x="0.354" y="0.464" width="315.443" height="841.181" style="fill:none;stroke:black;stroke-width:0.71px;"/>
        <rect x="21.383" y="21.494" width="273.385" height="799.122" style="fill:white;fill-rule:nonzero;"/>
        <rect x="21.383" y="21.494" width="273.385" height="799.122" style="fill:none;stroke:black;stroke-width:0.71px;"/>
        <path d="M153.425,46.178L64.153,173.67C63.275,174.924 63.239,176.584 64.061,177.875C64.884,179.166 66.403,179.835 67.912,179.569L126.532,169.233L126.532,630.831L189.621,630.831L189.621,169.233L248.24,179.569C249.748,179.835 251.267,179.166 252.089,177.875C252.912,176.584 252.875,174.924 251.998,173.67L162.727,46.178C161.665,44.661 159.928,43.757 158.076,43.757C156.223,43.757 154.487,44.661 153.425,46.178Z" style="fill-rule:nonzero;"/>
        <path d="M153.425,46.178L64.153,173.67C63.275,174.924 63.239,176.584 64.061,177.875C64.884,179.166 66.403,179.835 67.912,179.569L126.532,169.233L126.532,630.831L189.621,630.831L189.621,169.233L248.24,179.569C249.748,179.835 251.267,179.166 252.089,177.875C252.912,176.584 252.875,174.924 251.998,173.67L162.727,46.178C161.665,44.661 159.928,43.757 158.076,43.757C156.223,43.757 154.487,44.661 153.425,46.178Z" style="fill:none;stroke:black;stroke-width:0.71px;"/>
    </g>
</svg>
