<?xml version="1.0" encoding="UTF-8" standalone="no"?>
<!DOCTYPE svg PUBLIC "-//W3C//DTD SVG 1.1//EN" "http://www.w3.org/Graphics/SVG/1.1/DTD/svg11.dtd">
<svg width="100%" height="100%" viewBox="0 0 511 277" version="1.1" xmlns="http://www.w3.org/2000/svg" xmlns:xlink="http://www.w3.org/1999/xlink" xml:space="preserve" xmlns:serif="http://www.serif.com/" style="fill-rule:evenodd;clip-rule:evenodd;stroke-linejoin:round;stroke-miterlimit:2;">
    <g>
        <rect x="3.75" y="4.25" width="503" height="269.25" style="fill:white;"/>
        <path d="M503.25,270L7.25,270L7.25,7.75L503.25,7.75L503.25,270ZM0,0.75L0,277L510.25,277L510.25,0.75L0,0.75Z"/>
        <rect x="42.75" y="39.75" width="154" height="198.25" style="fill:rgb(0,64,128);"/>
        <path d="M147.75,164.25L146.75,163.25L145.25,163L94,163L92.75,163.25L91.75,164.25L91.25,165.75L91.25,216.75L91.75,218.25L92.75,219.25L94,219.5L145.25,219.5L146.75,219.25L147.75,218.25L148,216.75L148,165.75L147.75,164.25Z" style="fill:white;"/>
        <path d="M146.5,165L146,164.5L145.25,164.25L94,164.25L93.5,164.5L92.75,165L92.75,217.5L93.5,218L94,218.25L145.25,218.25L146,218L146.5,217.5L146.75,216.75L146.75,165.75L146.5,165Z" style="fill:rgb(0,64,128);"/>
        <path d="M133,180.75L131.5,177L128.75,173.75L125,172L121,171.25L106.25,171.25L106.25,211L113,211L113,195L121.75,195L125.75,194.25L129.25,192L131.75,188.75L133.25,184.75L133,180.75Z" style="fill:white;"/>
        <path d="M125.5,180.5L123.5,178.25L121,177.75L113,177.75L113,188.75L120.75,188.75L123.5,188L125.5,186L126.25,183.25L125.5,180.5Z" style="fill:rgb(0,64,128);"/>
        <path d="M106,54.5L119.75,102L133.25,54.5L106,54.5Z" style="fill:white;"/>
        <path d="M141.5,100.25L138,105L133.5,108.5L128.25,111L122.75,112.25L117,112.25L111.5,111.25L106.25,108.75L101.75,105L98.25,100.5L71.5,122.5L77,129.25L83.5,134.75L90.75,139.5L98.5,143.25L106.75,145.5L115.25,146.75L124,146.75L132.5,145.5L140.75,143.25L148.5,139.5L155.75,135L162.25,129.25L168,122.75L141.5,100.25Z" style="fill:rgb(249,250,250);"/>
        <path d="M315.75,71.5L304.25,99L292.75,71.5L283.5,71.5L283.5,121L292,121L292,91L304.25,121L316.5,91L316.5,121L325.25,121L325.25,71.5L315.75,71.5Z"/>
        <path d="M356,113L354.75,113.75L352.25,114.75L351,115L348.5,115L347,114.75L345.75,114.5L344.5,113.75L343.5,113L342,111L342,108.5L342.5,107.25L343.25,106L344.25,105.5L345.5,105L346.75,104.75L356,104.75L356.25,112.75L356,113ZM363,93.5L362.5,92L361.75,91L361.25,89.75L360.25,88.5L359.5,88L358.25,87L357.25,86.25L356,85.5L354.75,85.25L353.25,85L352,84.75L350.25,84.5L348.75,84.5L347.25,84.75L345.75,84.75L344.5,85L343,85L341.75,85.25L340.25,85.5L339,86L337.5,86.5L336.25,87L338.75,93.5L339.5,93.25L340.75,92.75L342.25,92.25L343.5,92L345,91.75L347.75,91.5L351,91.5L352.25,91.75L353.5,92.25L354.75,93.25L355.5,94.5L356,95.75L356,98.75L345.75,98.75L345.25,99L343.75,99L342.5,99.25L341.25,99.75L340.25,100.25L339,101L337.5,102.5L336.75,103.5L336,104.75L335,107.25L334.75,108.5L334.75,111.5L335,112.75L335.5,114.25L336,115.25L336.5,116.5L337.25,117.5L338.25,118.25L339.5,119L340.5,120L341,120L342.25,120.75L343.5,121L345,121.5L346.25,121.75L347.75,122L349.5,122L351,121.75L352.25,121.5L355,120.75L356,120L356,121L363.5,121L363.5,96L363,93.5Z"/>
        <path d="M405,85.5L394.5,85.5L382,98L382,71.5L374.75,71.5L374.75,121L382,121L382,108.75L384.75,106L395.75,121L405,121L390,100.5L405,85.5Z"/>
        <path d="M436.75,108.5L436,106L435.25,105L434.25,104L433.25,103.25L432,102.5L431.25,102L428.75,101L427.25,100.5L421,98.75L420.25,98.5L419,97.75L418.25,96.75L418.25,94.5L418.75,93.5L419.75,92.75L421,92.25L422.75,91.75L424.25,91.5L424.5,91.5L426,91.75L427.25,92L428.75,92.5L430,93L431,93.75L431.5,94.25L436.25,89L435,88L434,87.25L432.75,86.5L431.5,86L430.5,85.75L429,85.25L427.75,85L426.25,84.75L423,84.75L421.5,85L419,85.5L417.75,86L415.25,87.5L414.5,88L412.5,90L411.75,91L411.25,92.25L411,93.5L410.75,95L410.75,97L411,98.25L411.5,99.5L412.5,101.5L413.5,102.5L415.5,104L416.75,104.75L418.25,105.25L418.75,105.5L425.75,107.5L426.75,108L428,108.25L429,109L429.75,110.25L429.75,112.25L429.25,113L428.5,113.75L427.5,114.5L426.25,114.75L424.5,115L421.5,115L418.75,114.5L417.5,114L415.25,112.75L414,112L413.25,111.5L408.75,116.75L409.75,117.75L411,118.25L413.25,119.75L414.75,120.25L415.75,120.75L417.25,121.25L419.75,121.75L421.25,122L424.5,122L426,121.75L428.75,121.25L431.25,120.25L432.25,119.5L432.5,119.5L433.75,118.5L434.75,117.75L435.5,116.75L436.25,115.5L436.75,114.25L437,113L437,109.75L436.75,108.5Z"/>
        <path d="M273.25,184.5L274.25,183.25L275,181.75L276,180.5L276.75,179L277.5,176.25L278,174.75L278.25,171.75L278.25,171.25L278,169.75L277.75,168L277.5,166.5L277,165L276.5,163.75L275.5,162.5L274.5,161L273.5,160L269.75,157L266.75,156L262.25,155.25L260.5,155.5L259,155.75L257.25,156L254.5,157.25L253.25,158L250.75,160L249.75,161.25L248.75,162.75L248,164L247.25,165.5L246.75,167L246.5,168.5L255,170.25L255.5,168.75L256.25,167.25L257,166L257.5,165.75L258.75,164.75L260,164.25L261.75,164L264,164L265.25,164.5L266.75,165.25L267.5,166L268.5,167.25L269,168.5L269.5,170L269.5,173L269,174.5L268.5,175.75L267.75,177.25L266.75,178.5L265.75,179.5L247.5,198.75L247.5,206L278.25,206L278.25,198L260.25,198L272,185.75L273.25,184.5Z"/>
        <path d="M330.25,177.75L330.25,170.75L321.5,170.75L321.5,156.5L314,163L314,170.75L309,170.75L309,177.75L314,177.75L314,198L314.25,199.25L314.75,200.5L316.25,203L318,205L319.25,205.5L320.5,206.25L321.75,206.75L323,207L326,207L327.5,206.75L328.75,206.5L330.25,206.25L328.25,199.5L327.25,199.75L325.75,200L323.5,200L322.25,199.25L321.75,198.5L321.5,197L321.5,177.75L330.25,177.75Z"/>
        <rect x="338.75" y="170.75" width="7.5" height="35.25" style="fill-rule:nonzero;"/>
        <path d="M342.5,155.5L341,155.75L340,156.5L339.5,156.75L338.75,157.75L338.25,159.25L338.25,159.75L338.5,161.25L339.25,162.25L339.5,162.75L340.5,163.5L342,163.75L343.75,163.75L345,163L345.5,162.75L346.25,161.5L346.5,160.25L346.75,159.75L346.5,158.5L346,157.25L345.5,156.75L344.25,156L343.25,155.5L342.5,155.5Z"/>
        <path d="M403.25,178L403,176.75L402.5,175.5L401.75,174.5L400.75,173.5L399.5,172L397,170.5L395.75,170.25L394.5,169.75L391,169.75L389.75,170L388.25,170.25L387,170.75L386,171.5L384.75,172L382.5,174.25L380.5,172.25L379.5,171.5L378.25,170.75L377,170.25L376,170L374.5,169.75L372,169.75L370.5,170L368,171L367,171.75L365.75,172.5L365.5,172.75L365.5,170.75L358.25,170.75L358.25,206L365.5,206L365.5,182.5L365.75,181L366.25,179.75L367.25,178.25L368.25,177.5L369.5,177L370.75,176.75L372.75,176.75L374,177.25L375.25,178L375.5,178.25L376.25,179.25L376.75,180.5L377,182L377,206L384.5,206L384.5,182.5L384.75,181L385.75,178.5L386.25,178.25L387.25,177.5L388.5,177L390,176.75L392,176.75L393.25,177.25L394.25,178L395.5,179.25L396,180.5L396.25,182L396.25,206L403.75,206L403.75,181L403.25,178Z"/>
        <path d="M421.5,184L421.75,182.75L422.25,181.25L422.75,180L424.25,178L426.25,177L428.75,176.5L429,176.5L430.25,176.75L431.5,177.25L433,178L434,179L435.5,181.5L436,184L421.5,184ZM443.5,184.75L443,182L442.5,180.5L442.25,179.25L441.25,176.75L440.5,175.5L439.5,174.5L438.75,173.5L437.5,172.5L436.5,172L435.5,171.25L433,170.25L431.5,170L430.25,169.75L427.5,169.75L424.5,170.25L423.5,170.5L421,171.75L419.75,172.5L418.75,173.25L418,174.25L417,175.25L416.25,176.5L415.25,179L414.5,181.25L414.25,182.75L414,184L413.75,185.5L413.75,187L413.5,188.25L413.75,189.25L413.75,192L414,193.5L414.5,194.75L414.75,196.25L415.25,197.5L415.5,198.75L417,201.25L417.75,202L418.75,203.25L419.75,204L422,205.5L424.5,206.5L427.25,207L430.5,207L431.75,206.75L433.25,206.25L437,204.75L438.5,203.75L440.5,201.75L441.25,200.75L442.25,199.5L442.75,198.25L436.5,195.25L436.25,195.75L434.75,197.75L433.75,198.75L432.75,199.25L431.5,199.75L430.25,200L428.5,200L427.25,199.75L425.75,199.5L424.5,198.75L423.75,198L422.5,196L422,194.75L421.5,193.25L421.25,191.75L421,190L443.75,190L443.75,186.25L443.5,184.75Z"/>
        <path d="M473.5,170.5L472.25,170L470.75,169.75L467.25,169.75L464.5,170.5L463.25,171.25L462.25,171.75L461,172.5L461,170.75L453.5,170.75L453.5,206L461,206L461,183.75L461.25,182.25L461.5,181L462.25,179.75L463.5,178.5L464.5,177.75L465.75,177L467,176.75L468.5,176.5L469.25,176.75L470.5,177L471.75,177.5L474.5,170.75L473.5,170.5Z"/>
    </g>
</svg>
