<?xml version="1.0" encoding="UTF-8" standalone="no"?>
<!DOCTYPE svg PUBLIC "-//W3C//DTD SVG 1.1//EN" "http://www.w3.org/Graphics/SVG/1.1/DTD/svg11.dtd">
<svg width="100%" height="100%" viewBox="0 0 378 247" version="1.1" xmlns="http://www.w3.org/2000/svg" xmlns:xlink="http://www.w3.org/1999/xlink" xml:space="preserve" xmlns:serif="http://www.serif.com/" style="fill-rule:evenodd;clip-rule:evenodd;stroke-linecap:square;stroke-miterlimit:2;">
    <g>
        <rect x="0" y="0" width="377.75" height="247" style="fill:white;"/>
        <path d="M371.5,240.75L6.25,240.75L6.25,6.5L371.5,6.5L371.5,240.75ZM0,0L0,247L377.75,247L377.75,0L0,0Z"/>
        <path d="M177.5,175L175.75,175.25L174.5,176L173.25,177.25L165.75,191L165,192L163.75,192.75L162.25,193L146,193L144.75,193.25L143.5,193.75L142.5,194.75L142,195.75L141.75,197L141.75,209L142,210.5L142.75,212L143.75,213L145,213.5L146.5,213.75L150.25,213.75L150.5,211.75L151,209.5L152.25,207.75L153.75,206L155.75,205L157.75,204.25L159.75,204L162.25,204.25L164.25,205L166,206L167.5,207.75L168.75,209.5L169.5,211.75L169.75,213.75L207.75,213.75L208,211.75L208.75,209.5L210,207.75L211.5,206L213.5,205L215.5,204.25L217.75,204L219.75,204.25L222,205L223.75,206L225.5,207.75L226.5,209.5L227.25,211.75L227.5,213.75L234.75,213.75L236.25,213.5L237.5,213L238.5,212L239.25,210.5L239.5,209L239.5,197L239.25,195.75L238.75,194.75L237.75,193.75L236.75,193.25L235.25,193L233.25,193L232,192.75L231.25,192.25L230.5,191.5L221.75,177.25L220.75,176L219.5,175.25L217.75,175L177.5,175Z" style="fill-rule:nonzero;"/>
        <path d="M177.5,175L175.75,175.25L174.5,176L173.25,177.25L165.75,191L165,192L163.75,192.75L162.25,193L146,193L144.75,193.25L143.5,193.75L142.5,194.75L142,195.75L141.75,197L141.75,209L142,210.5L142.75,212L143.75,213L145,213.5L146.5,213.75L150.25,213.75L150.5,211.75L151,209.5L152.25,207.75L153.75,206L155.75,205L157.75,204.25L159.75,204L162.25,204.25L164.25,205L166,206L167.5,207.75L168.75,209.5L169.5,211.75L169.75,213.75L207.75,213.75L208,211.75L208.75,209.5L210,207.75L211.5,206L213.5,205L215.5,204.25L217.75,204L219.75,204.25L222,205L223.75,206L225.5,207.75L226.5,209.5L227.25,211.75L227.5,213.75L234.75,213.75L236.25,213.5L237.5,213L238.5,212L239.25,210.5L239.5,209L239.5,197L239.25,195.75L238.75,194.75L237.75,193.75L236.75,193.25L235.25,193L233.25,193L232,192.75L231.25,192.25L230.5,191.5L221.75,177.25L220.75,176L219.5,175.25L217.75,175L177.5,175Z" style="fill:none;stroke:black;stroke-width:0.75px;"/>
        <path d="M225.75,215L225.75,212.5L225.5,212.25L225.5,211.75L225.25,211.5L225.25,211L225,210.5L224.75,209.75L222.75,207.75L222.75,207.5L222.5,207.5L221.75,206.75L221,206.5L220.5,206.25L220,206.25L219.75,206L215.75,206L215.25,206.25L214.75,206.25L214.5,206.5L213.75,206.75L213,207.5L212.75,207.5L211.75,208.5L211.75,208.75L211.25,209L211,209.5L210.75,209.75L210.5,210.5L210,211.5L210,212.25L209.75,212.5L209.75,215L210,215.25L210,216.25L210.25,216.75L210.5,217L210.75,217.75L211,218L211,218.25L211.75,219L211.75,219.25L213,220.25L213.25,220.5L213.5,220.5L213.75,220.75L214.5,221L214.75,221.25L215.25,221.5L216.25,221.5L216.5,221.75L219,221.75L219.25,221.5L220,221.5L221,221L221.75,220.75L222,220.5L222.5,220.25L224,218.75L224,218.5L224.75,217.75L225,217L225.25,216.75L225.25,216.25L225.5,215.75L225.5,215.25L225.75,215Z" style="fill-rule:nonzero;"/>
        <path d="M225.75,215L225.75,212.5L225.5,212.25L225.5,211.75L225.25,211.5L225.25,211L225,210.5L224.75,209.75L222.75,207.75L222.75,207.5L222.5,207.5L221.75,206.75L221,206.5L220.5,206.25L220,206.25L219.75,206L215.75,206L215.25,206.25L214.75,206.25L214.5,206.5L213.75,206.75L213,207.5L212.75,207.5L211.75,208.5L211.75,208.75L211.25,209L211,209.5L210.75,209.75L210.5,210.5L210,211.5L210,212.25L209.75,212.5L209.75,215L210,215.25L210,216.25L210.25,216.75L210.5,217L210.75,217.75L211,218L211,218.25L211.75,219L211.75,219.25L213,220.25L213.25,220.5L213.5,220.5L213.75,220.75L214.5,221L214.75,221.25L215.25,221.5L216.25,221.5L216.5,221.75L219,221.75L219.25,221.5L220,221.5L221,221L221.75,220.75L222,220.5L222.5,220.25L224,218.75L224,218.5L224.75,217.75L225,217L225.25,216.75L225.25,216.25L225.5,215.75L225.5,215.25L225.75,215Z" style="fill:none;stroke:black;stroke-width:0.75px;"/>
        <path d="M168,214.75L168,213L167.75,212.5L167.75,211.75L167.5,211.5L167.5,211.25L167.25,211L167.25,210.5L166.75,209.75L166.75,209.5L166.25,209L166,209L166,208.75L165.5,208.25L165.5,208L165,207.5L164.75,207.5L164,206.75L163.75,206.75L162.75,206.25L162.25,206.25L162,206L157.75,206L157.5,206.25L157.25,206.25L156.5,206.5L156.25,206.75L156,206.75L155.25,207.5L155,207.5L154,208.5L153.75,209L153.5,209L153.25,209.25L152.75,210.25L152.5,210.5L152.5,211L152.25,211.5L152.25,212L152,212.25L152,215.25L152.25,215.5L152.25,216.25L152.5,216.75L152.5,217L152.75,217.25L153.25,218L153.25,218.25L153.75,218.75L153.75,219L154.75,220L155,220L155.25,220.25L155.75,220.5L156.25,221L156.5,221L157.25,221.25L157.5,221.5L158.5,221.5L158.75,221.75L161,221.75L161.5,221.5L162.25,221.5L162.5,221.25L162.75,221.25L163.25,221L163.75,221L164.25,220.5L164.75,220.25L165,220L165.25,220L165.5,219.75L165.5,219.5L166.25,218.5L166.75,218L167.25,217L167.25,216.75L167.5,216.5L167.5,216.25L167.75,215.75L167.75,215L168,214.75Z" style="fill-rule:nonzero;"/>
        <path d="M168,214.75L168,213L167.75,212.5L167.75,211.75L167.5,211.5L167.5,211.25L167.25,211L167.25,210.5L166.75,209.75L166.75,209.5L166.25,209L166,209L166,208.75L165.5,208.25L165.5,208L165,207.5L164.75,207.5L164,206.75L163.75,206.75L162.75,206.25L162.25,206.25L162,206L157.75,206L157.5,206.25L157.25,206.25L156.5,206.5L156.25,206.75L156,206.75L155.25,207.5L155,207.5L154,208.5L153.75,209L153.5,209L153.25,209.25L152.75,210.25L152.5,210.5L152.5,211L152.25,211.5L152.25,212L152,212.25L152,215.25L152.25,215.5L152.25,216.25L152.5,216.75L152.5,217L152.75,217.25L153.25,218L153.25,218.25L153.75,218.75L153.75,219L154.75,220L155,220L155.25,220.25L155.75,220.5L156.25,221L156.5,221L157.25,221.25L157.5,221.5L158.5,221.5L158.75,221.75L161,221.75L161.5,221.5L162.25,221.5L162.5,221.25L162.75,221.25L163.25,221L163.75,221L164.25,220.5L164.75,220.25L165,220L165.25,220L165.5,219.75L165.5,219.5L166.25,218.5L166.75,218L167.25,217L167.25,216.75L167.5,216.5L167.5,216.25L167.75,215.75L167.75,215L168,214.75Z" style="fill:none;stroke:black;stroke-width:0.75px;"/>
        <path d="M170,192.25L170,192.75L170.25,193L192.75,193L192.75,180L178,180L177,180.25L176.25,181L170,192.25Z" style="fill:white;fill-rule:nonzero;"/>
        <path d="M170,192.25L170,192.75L170.25,193L192.75,193L192.75,180L178,180L177,180.25L176.25,181L170,192.25Z" style="fill:none;stroke:black;stroke-width:0.75px;"/>
        <path d="M196.75,193L219.25,193L212.25,181.25L210.75,180.25L210,180L196.75,180L196.75,193Z" style="fill:white;fill-rule:nonzero;"/>
        <path d="M196.75,193L219.25,193L212.25,181.25L210.75,180.25L210,180L196.75,180L196.75,193Z" style="fill:none;stroke:black;stroke-width:0.75px;"/>
        <path d="M138.25,47.25L138.25,41L137.75,38L137.25,35.25L136.25,32.75L135.25,30.5L133.5,28.25L131.75,26.5L129.75,25.5L127.25,24.75L124.5,24.5L121.75,24.75L119.5,25.5L117.5,26.5L115.5,28.25L114,30.5L112.75,32.75L111.75,35.25L111.25,38L110.75,44L111,47.25L111.25,50.25L111.75,53L112.75,55.5L114,57.75L115.5,60L117.5,61.75L119.5,63L121.75,63.5L124.5,64L127.25,63.5L129.75,62.75L131.75,61.75L133.5,60L135.25,57.75L136.25,55.5L137.25,53L137.75,50.25L138.25,47.25ZM131.75,44L131.25,49L130.25,53L129.25,54.75L128.75,56L127.75,56.5L126.75,57.25L125.75,57.5L124.5,57.75L122.25,57.25L121.25,56.5L120.5,56L119.75,54.75L119,53L118.25,51L117.75,48.75L117.5,46.5L117.5,41.75L117.75,39.25L118.25,37.25L119,35.25L119.75,33.5L120.5,32.25L121.25,31.5L122.25,31L123.5,30.75L124.5,30.5L125.75,30.75L126.75,31L127.75,31.5L128.75,32.25L129.25,33.5L130.25,35.25L131.25,39.25L131.5,41.5L131.75,44Z" style="fill-rule:nonzero;"/>
        <path d="M138.25,47.25L138.25,41L137.75,38L137.25,35.25L136.25,32.75L135.25,30.5L133.5,28.25L131.75,26.5L129.75,25.5L127.25,24.75L124.5,24.5L121.75,24.75L119.5,25.5L117.5,26.5L115.5,28.25L114,30.5L112.75,32.75L111.75,35.25L111.25,38L110.75,44L111,47.25L111.25,50.25L111.75,53L112.75,55.5L114,57.75L115.5,60L117.5,61.75L119.5,63L121.75,63.5L124.5,64L127.25,63.5L129.75,62.75L131.75,61.75L133.5,60L135.25,57.75L136.25,55.5L137.25,53L137.75,50.25L138.25,47.25ZM131.75,44L131.25,49L130.25,53L129.25,54.75L128.75,56L127.75,56.5L126.75,57.25L125.75,57.5L124.5,57.75L122.25,57.25L121.25,56.5L120.5,56L119.75,54.75L119,53L118.25,51L117.75,48.75L117.5,46.5L117.5,41.75L117.75,39.25L118.25,37.25L119,35.25L119.75,33.5L120.5,32.25L121.25,31.5L122.25,31L123.5,30.75L124.5,30.5L125.75,30.75L126.75,31L127.75,31.5L128.75,32.25L129.25,33.5L130.25,35.25L131.25,39.25L131.5,41.5L131.75,44Z" style="fill:none;"/>
        <path d="M172.5,52L172.25,49.75L171.75,47.75L170.75,46L169.25,44.5L167.5,43.25L170.25,40.5L171,39L171.5,37.25L171.75,35.5L171.75,33.5L171.25,31.75L170.5,30L169.5,28.5L168.25,27.25L166.75,26.25L165.25,25.5L161.75,24.5L157.75,24.5L154.25,25.5L152.75,26.25L151.25,27.25L150.25,28.5L149,30L148.25,31.75L147.75,33.5L147.75,35.25L148,37.25L148.5,39L149.25,40.5L150.5,42L151.75,43.25L150,44.5L148.75,46.25L147.75,47.75L147,50L147,54L147.5,56L148.25,57.75L149.25,59.25L150.75,60.75L152.25,62L153.75,62.75L157.75,63.75L159.75,64L161.75,63.75L165.75,62.75L168.75,60.75L170.25,59.25L171.25,57.75L172,56L172.5,54L172.5,52ZM165.25,35.25L165,36.25L164.5,37.75L164,38.25L162.75,39.25L162.25,39.75L161.5,40L158,40L157.25,39.75L156.5,39.25L156,39L155,37.75L154.5,37L154.25,35.25L154.5,34.5L154.5,33.75L155,33L155.25,32.25L156,31.75L156.5,31.25L158,30.75L159.75,30.5L160.75,30.75L161.5,30.75L163,31.25L163.5,31.75L164.25,32.25L164.5,33L165,33.75L165,34.5L165.25,35.25ZM166,51L166,53L165.75,53.75L165.5,54.75L163.5,56.75L162.75,57L161.75,57.5L160.75,57.5L159.75,57.75L158.75,57.5L157.75,57.5L156,56.75L154.5,55.5L154,54.75L153.75,54L153.5,53L153.5,51L153.75,50L154,49.25L154.5,48.5L155.25,47.75L156.75,46.75L157.75,46.5L158.75,46.5L159.75,46.25L160.75,46.5L161.75,46.5L162.75,46.75L164.25,47.75L164.75,48.5L165.5,49.25L165.75,50L166,51Z" style="fill-rule:nonzero;"/>
        <path d="M172.5,52L172.25,49.75L171.75,47.75L170.75,46L169.25,44.5L167.5,43.25L170.25,40.5L171,39L171.5,37.25L171.75,35.5L171.75,33.5L171.25,31.75L170.5,30L169.5,28.5L168.25,27.25L166.75,26.25L165.25,25.5L161.75,24.5L157.75,24.5L154.25,25.5L152.75,26.25L151.25,27.25L150.25,28.5L149,30L148.25,31.75L147.75,33.5L147.75,35.25L148,37.25L148.5,39L149.25,40.5L150.5,42L151.75,43.25L150,44.5L148.75,46.25L147.75,47.75L147,50L147,54L147.5,56L148.25,57.75L149.25,59.25L150.75,60.75L152.25,62L153.75,62.75L157.75,63.75L159.75,64L161.75,63.75L165.75,62.75L168.75,60.75L170.25,59.25L171.25,57.75L172,56L172.5,54L172.5,52ZM165.25,35.25L165,36.25L164.5,37.75L164,38.25L162.75,39.25L162.25,39.75L161.5,40L158,40L157.25,39.75L156.5,39.25L156,39L155,37.75L154.5,37L154.25,35.25L154.5,34.5L154.5,33.75L155,33L155.25,32.25L156,31.75L156.5,31.25L158,30.75L159.75,30.5L160.75,30.75L161.5,30.75L163,31.25L163.5,31.75L164.25,32.25L164.5,33L165,33.75L165,34.5L165.25,35.25ZM166,51L166,53L165.75,53.75L165.5,54.75L163.5,56.75L162.75,57L161.75,57.5L160.75,57.5L159.75,57.75L158.75,57.5L157.75,57.5L156,56.75L154.5,55.5L154,54.75L153.75,54L153.5,53L153.5,51L153.75,50L154,49.25L154.5,48.5L155.25,47.75L156.75,46.75L157.75,46.5L158.75,46.5L159.75,46.25L160.75,46.5L161.75,46.5L162.75,46.75L164.25,47.75L164.75,48.5L165.5,49.25L165.75,50L166,51Z" style="fill:none;"/>
        <path d="M195.75,49.5L195.75,43.25L208.5,43.25L208.5,43.75L208.75,44.5L208.75,48.25L208.5,48.75L208.5,49.5L195.75,49.5ZM236.5,25.25L242.75,25.25L242.75,63L236,63L236,34L232,36.25L232,29.75L236.5,25.25ZM273.75,25.25L273.75,31L270.5,39L260,63L252.75,63L256,55.25L259.5,47.25L263,39.5L266.5,31.5L249.75,31.5L249.75,25.25L273.75,25.25Z" style="fill-rule:nonzero;"/>
        <path d="M195.75,49.5L195.75,43.25L208.5,43.25L208.5,43.75L208.75,44.5L208.75,48.25L208.5,48.75L208.5,49.5L195.75,49.5ZM236.5,25.25L242.75,25.25L242.75,63L236,63L236,34L232,36.25L232,29.75L236.5,25.25ZM273.75,25.25L273.75,31L270.5,39L260,63L252.75,63L256,55.25L259.5,47.25L263,39.5L266.5,31.5L249.75,31.5L249.75,25.25L273.75,25.25Z" style="fill:none;"/>
        <path d="M106.5,94.25L99,94.25L96.25,99.75L94.25,105.5L92.75,111.25L91.75,117L91.5,123L91.75,129.25L92.75,135.25L94.25,141L96.25,146.75L99,152.25L106.5,152L103.75,146.5L101.75,141L100,135.25L99.25,129.25L99,123.25L99.25,117L100,111L101.75,105.25L103.75,99.75L106.5,94.25Z" style="fill-rule:nonzero;"/>
        <path d="M106.5,94.25L99,94.25L96.25,99.75L94.25,105.5L92.75,111.25L91.75,117L91.5,123L91.75,129.25L92.75,135.25L94.25,141L96.25,146.75L99,152.25L106.5,152L103.75,146.5L101.75,141L100,135.25L99.25,129.25L99,123.25L99.25,117L100,111L101.75,105.25L103.75,99.75L106.5,94.25Z" style="fill:none;"/>
        <path d="M137.5,119.75L137.5,116.5L137.25,113.5L136.5,110.75L135.75,108.25L134.5,106L132.75,104L131,102.25L129,101L126.5,100.25L123.75,100L121.25,100.25L118.75,101L116.75,102.25L115,104L113.25,106L112.25,108.25L111.25,110.75L110.75,113.5L110.25,116.5L110,119.75L110.25,122.75L110.75,125.75L111.25,128.5L112.25,131L113.25,133.25L115,135.5L116.75,137.25L118.75,138.5L121.25,139.25L123.75,139.5L126.5,139L129,138.5L131,137.25L132.75,135.5L134.5,133.25L135.75,131L136.5,128.5L137.25,125.75L137.5,122.75L137.5,119.5L137.5,119.75ZM131,117.25L131,122L130.5,124.5L130.25,126.5L129.5,128.5L128.75,130.25L128,131.5L127,132.25L126.25,132.75L123.75,133.25L122.75,133L121.5,132.75L120.5,132.25L119.75,131.5L119.25,130.25L118.25,128.5L117.25,124.5L116.75,122L116.75,117.25L117.75,112.75L118.25,110.75L119.25,109L119.75,108L120.75,107L121.5,106.75L122.75,106.25L125,106.25L126.25,106.75L127,107L128,108L128.75,109L129.5,110.75L130.25,112.75L130.5,114.75L131,117.25Z" style="fill-rule:nonzero;"/>
        <path d="M137.5,119.75L137.5,116.5L137.25,113.5L136.5,110.75L135.75,108.25L134.5,106L132.75,104L131,102.25L129,101L126.5,100.25L123.75,100L121.25,100.25L118.75,101L116.75,102.25L115,104L113.25,106L112.25,108.25L111.25,110.75L110.75,113.5L110.25,116.5L110,119.75L110.25,122.75L110.75,125.75L111.25,128.5L112.25,131L113.25,133.25L115,135.5L116.75,137.25L118.75,138.5L121.25,139.25L123.75,139.5L126.5,139L129,138.5L131,137.25L132.75,135.5L134.5,133.25L135.75,131L136.5,128.5L137.25,125.75L137.5,122.75L137.5,119.5L137.5,119.75ZM131,117.25L131,122L130.5,124.5L130.25,126.5L129.5,128.5L128.75,130.25L128,131.5L127,132.25L126.25,132.75L123.75,133.25L122.75,133L121.5,132.75L120.5,132.25L119.75,131.5L119.25,130.25L118.25,128.5L117.25,124.5L116.75,122L116.75,117.25L117.75,112.75L118.25,110.75L119.25,109L119.75,108L120.75,107L121.5,106.75L122.75,106.25L125,106.25L126.25,106.75L127,107L128,108L128.75,109L129.5,110.75L130.25,112.75L130.5,114.75L131,117.25Z" style="fill:none;"/>
        <path d="M171.75,129.75L171.75,125.25L171,123.25L170,121.75L168.75,120L167,118.75L168.5,117.5L169.5,116L170.25,114.5L170.75,113L171,111L171,109L170.5,107.25L169.75,105.5L168.75,104L167.5,102.75L166,101.75L164.5,101L161,100L157,100L155.25,100.5L153.75,101L152,101.75L150.75,102.75L149.5,104L148.25,105.5L147.75,107L147.25,109L147.25,112.75L147.75,114.5L148.5,116L149.75,117.5L151,118.75L149.25,120L148,121.75L147,123.5L146.25,125.25L146.25,129.75L146.75,131.5L147.5,133.25L150,136.25L151.5,137.25L153.25,138.25L155,138.75L157,139.25L159,139.5L161.25,139.25L163,138.75L165,138.25L166.5,137.25L168.25,136.25L169.5,134.75L170.5,133.25L171.5,131.5L171.75,129.75ZM164.5,110.75L164.25,111.75L163.75,113.25L163.5,113.75L162.25,115L160.75,115.5L159.75,115.5L159,115.75L157.25,115.5L156,115L155.25,114.5L154.75,114L153.75,112.5L153.75,109.25L154.25,108.5L154.5,108L155.25,107.25L156,107L156.5,106.5L157.25,106.25L160.75,106.25L161.5,106.5L162.25,107L162.75,107.25L163.5,108L163.75,108.5L164.25,109.25L164.25,110L164.5,110.75ZM165.5,127.5L165.25,128.5L165.25,129.5L164.75,130.25L164,131L163.5,131.75L162,132.75L161,133L160,133L159,133.25L158,133L157,133L156.25,132.75L155.5,132.25L154.5,131.75L153,129.5L152.75,128.5L152.75,126.5L153,125.5L154.5,123.25L156.25,122.25L157,122L160,122L162,122.25L163.5,123.25L164.75,124.75L165.25,125.5L165.25,126.5L165.5,127.5Z" style="fill-rule:nonzero;"/>
        <path d="M171.75,129.75L171.75,125.25L171,123.25L170,121.75L168.75,120L167,118.75L168.5,117.5L169.5,116L170.25,114.5L170.75,113L171,111L171,109L170.5,107.25L169.75,105.5L168.75,104L167.5,102.75L166,101.75L164.5,101L161,100L157,100L155.25,100.5L153.75,101L152,101.75L150.75,102.75L149.5,104L148.25,105.5L147.75,107L147.25,109L147.25,112.75L147.75,114.5L148.5,116L149.75,117.5L151,118.75L149.25,120L148,121.75L147,123.5L146.25,125.25L146.25,129.75L146.75,131.5L147.5,133.25L150,136.25L151.5,137.25L153.25,138.25L155,138.75L157,139.25L159,139.5L161.25,139.25L163,138.75L165,138.25L166.5,137.25L168.25,136.25L169.5,134.75L170.5,133.25L171.5,131.5L171.75,129.75ZM164.5,110.75L164.25,111.75L163.75,113.25L163.5,113.75L162.25,115L160.75,115.5L159.75,115.5L159,115.75L157.25,115.5L156,115L155.25,114.5L154.75,114L153.75,112.5L153.75,109.25L154.25,108.5L154.5,108L155.25,107.25L156,107L156.5,106.5L157.25,106.25L160.75,106.25L161.5,106.5L162.25,107L162.75,107.25L163.5,108L163.75,108.5L164.25,109.25L164.25,110L164.5,110.75ZM165.5,127.5L165.25,128.5L165.25,129.5L164.75,130.25L164,131L163.5,131.75L162,132.75L161,133L160,133L159,133.25L158,133L157,133L156.25,132.75L155.5,132.25L154.5,131.75L153,129.5L152.75,128.5L152.75,126.5L153,125.5L154.5,123.25L156.25,122.25L157,122L160,122L162,122.25L163.5,123.25L164.75,124.75L165.25,125.5L165.25,126.5L165.5,127.5Z" style="fill:none;"/>
        <path d="M277.75,152L278.5,152L279.25,152.25L281.75,152.25L282.5,152L285.5,152L288.25,146.75L290.25,141.25L291.75,135.5L292.5,129.75L293,123.5L292.5,117.5L291.75,111.5L290.25,105.75L288,100L285.25,94.5L277.5,94.75L280.25,100L282.5,105.5L284,111.25L285,117.25L285.25,123.25L285,129.5L284,135.5L282.5,141.25L280.5,146.75L277.75,152Z" style="fill-rule:nonzero;"/>
        <path d="M277.75,152L278.5,152L279.25,152.25L281.75,152.25L282.5,152L285.5,152L288.25,146.75L290.25,141.25L291.75,135.5L292.5,129.75L293,123.5L292.5,117.5L291.75,111.5L290.25,105.75L288,100L285.25,94.5L277.5,94.75L280.25,100L282.5,105.5L284,111.25L285,117.25L285.25,123.25L285,129.5L284,135.5L282.5,141.25L280.5,146.75L277.75,152Z" style="fill:none;"/>
        <path d="M266.25,123L266,122.25L265.5,121.25L264.5,120L263.75,119.75L263,119.25L262.25,119L260,119L258,119.5L257,120L256.25,120.5L250.25,119L250.25,101L272.5,101L272.5,107L257.25,107L257.25,113.75L257.75,113.5L259.5,113L260.25,113L261,112.75L262.75,113L264.25,113.25L265.75,113.75L267.25,114.5L268.5,115.25L269.75,116.5L271.75,119L272.5,120.5L273,122.25L273,123L273.25,123.75L273.25,124.5L273.5,125.25L273.5,127L273.25,128L273.25,128.5L273,129.25L273,130.25L272.5,131.5L271.75,133.25L269.75,135.75L268.5,137L267.25,137.75L265.75,138.5L264.25,139L262.75,139.25L261,139.5L258.25,139.25L255.75,138.5L253.25,137.5L251.25,136L249.25,134.25L253.75,130L256.25,132L257.75,132.75L259.25,133L261,133.25L261.75,133.25L262.25,133L263.75,132.5L264.5,132L265.25,131.25L265.75,130.25L266.75,127.75L266.75,124.75L266.5,124L266.25,123Z" style="fill-rule:nonzero;"/>
        <path d="M266.25,123L266,122.25L265.5,121.25L264.5,120L263.75,119.75L263,119.25L262.25,119L260,119L258,119.5L257,120L256.25,120.5L250.25,119L250.25,101L272.5,101L272.5,107L257.25,107L257.25,113.75L257.75,113.5L259.5,113L260.25,113L261,112.75L262.75,113L264.25,113.25L265.75,113.75L267.25,114.5L268.5,115.25L269.75,116.5L271.75,119L272.5,120.5L273,122.25L273,123L273.25,123.75L273.25,124.5L273.5,125.25L273.5,127L273.25,128L273.25,128.5L273,129.25L273,130.25L272.5,131.5L271.75,133.25L269.75,135.75L268.5,137L267.25,137.75L265.75,138.5L264.25,139L262.75,139.25L261,139.5L258.25,139.25L255.75,138.5L253.25,137.5L251.25,136L249.25,134.25L253.75,130L256.25,132L257.75,132.75L259.25,133L261,133.25L261.75,133.25L262.25,133L263.75,132.5L264.5,132L265.25,131.25L265.75,130.25L266.75,127.75L266.75,124.75L266.5,124L266.25,123Z" style="fill:none;"/>
        <path d="M235.75,101L242,101L242,138.5L235.5,138.5L235.5,109.5L231.25,112L231.25,105.25L235.75,101Z" style="fill-rule:nonzero;"/>
        <path d="M235.75,101L242,101L242,138.5L235.5,138.5L235.5,109.5L231.25,112L231.25,105.25L235.75,101Z" style="fill:none;"/>
        <rect x="195" y="118.75" width="13" height="6.25" style="fill-rule:nonzero;"/>
        <rect x="195" y="118.75" width="13" height="6.25" style="fill:none;"/>
    </g>
</svg>
