<?xml version="1.0" encoding="UTF-8" standalone="no"?>
<!DOCTYPE svg PUBLIC "-//W3C//DTD SVG 1.1//EN" "http://www.w3.org/Graphics/SVG/1.1/DTD/svg11.dtd">
<svg width="100%" height="100%" viewBox="0 0 78 516" version="1.1" xmlns="http://www.w3.org/2000/svg" xmlns:xlink="http://www.w3.org/1999/xlink" xml:space="preserve" xmlns:serif="http://www.serif.com/" style="fill-rule:evenodd;clip-rule:evenodd;stroke-linejoin:round;stroke-miterlimit:2;">
    <g>
        <path d="M77.25,103.75L0,0.75L0,129.5L77.25,232.5L77.25,103.75Z" style="fill:none;"/>
        <path d="M77.25,361.5L0,258.25L0,387.25L77.25,490.25L77.25,361.5Z" style="fill:none;"/>
        <path d="M0,516L77.25,516L77.25,490.25L0,387.25L0,516ZM0,258.25L77.25,361.5L77.25,232.5L0,129.5L0,258.25ZM0,0.75L77.25,103.75L77.25,0.75L0,0.75Z"/>
        <path d="M0,387.25L77.25,490.25L77.25,361.5L0,258.25L0,387.25ZM0,0.75L0,129.5L77.25,232.5L77.25,103.75L0,0.75Z" style="fill:white;"/>
    </g>
</svg>
