<?xml version="1.0" encoding="UTF-8" standalone="no"?>
<!DOCTYPE svg PUBLIC "-//W3C//DTD SVG 1.1//EN" "http://www.w3.org/Graphics/SVG/1.1/DTD/svg11.dtd">
<svg width="100%" height="100%" viewBox="0 0 567 737" version="1.1" xmlns="http://www.w3.org/2000/svg" xmlns:xlink="http://www.w3.org/1999/xlink" xml:space="preserve" xmlns:serif="http://www.serif.com/" style="fill-rule:evenodd;clip-rule:evenodd;stroke-linejoin:round;stroke-miterlimit:2;">
    <g>
        <rect x="0" y="0" width="567" height="737" style="fill:none;"/>
        <g transform="matrix(0.938749,0,0,0.957193,15.1016,16.0224)">
            <rect x="0" y="0" width="567" height="737" style="fill:rgb(249,250,250);"/>
        </g>
        <path d="M546.5,711L546.25,712L545.25,714L544.5,714.5L543.75,715.25L542.75,716L539.75,716.75L27.25,716.75L26,716.5L24,716L22.5,714.5L21.75,714L21,713L20.5,711L20.25,709.75L20.25,27.25L21,24.25L21.75,23.5L22.5,22.5L23.25,21.75L24,21.25L26,20.75L27.25,20.5L539.75,20.5L542.75,21.25L543.75,21.75L544.5,22.5L545.25,23.5L545.75,24.25L546.25,25.25L546.5,26.25L546.5,711ZM559.75,24L559.25,21L557.75,18L556.25,15.25L551.75,10.75L549,9L546,8L542.75,7.25L539.75,7L27.25,7L24,7.25L20.75,8L18,9L15.25,10.75L12.75,13L10.5,15.25L9,18L7.75,21L7,24L6.75,27.25L6.75,709.75L7,713L7.75,716.25L9,719.25L10.5,721.75L12.75,724.25L15.25,726.25L18,728L20.75,729.25L24,730L27.25,730.25L539.75,730.25L542.75,730L546,729.25L549,728L551.75,726.25L554,724.25L556.25,721.75L557.75,719.25L559.25,716.25L559.75,713L560,709.75L560,27.25L559.75,24Z"/>
        <path d="M368.5,335.75L348.5,335.75L324.5,359.5L324.5,308.5L310.5,308.5L310.5,403.75L324.5,403.75L324.5,379.75L329.5,374.75L350.75,403.75L368.5,403.75L339.75,364.5L368.5,335.75Z"/>
        <path d="M468.75,352.75L468.25,350.25L467.75,348L466.5,345.75L465.5,343.5L464,341.5L462.5,340L458.5,337L456.5,335.75L454.25,335L451.75,334.25L449.25,334L447.25,333.75L442.25,334.25L439.75,335L437.5,335.75L435.25,336.75L433.25,338L431.25,339.5L428,342.75L426.5,340.75L424.5,339L422.75,337.5L420.75,336.25L418.5,335.25L416,334.5L413.75,334L411.25,333.75L410.5,333.75L408,334L405.75,334.5L403.25,335.25L401,336L398.75,337.25L396.75,339L395.5,340L395.5,336L381.25,336L381.25,403.75L395.5,403.75L395.5,358.25L395.75,355.75L397.75,351.25L398.75,350.25L400.5,348.75L402.75,347.75L405.25,347.25L406.75,347.25L409.5,347.5L411.75,348.25L413.75,349.5L414.75,350.25L416.25,352.25L417.25,354.5L418,358.25L418,403.75L432,403.75L432,358.25L432.5,355.75L433.25,353.5L434.5,351.25L435.5,350.25L437.25,348.75L439.5,347.75L442,347.25L443.5,347.25L446,347.5L448.5,348.25L450.5,349.5L451.5,350.25L453,352.25L454,354.5L454.5,357L454.5,403.75L469,403.75L469,355.25L468.75,352.75Z"/>
        <path d="M233,188.5L153,68.25L150.25,66L146.75,66L144,68.25L64.25,188.5L63.5,190L63.75,191.75L64.5,193L66,193.75L67.5,194L120.25,184L120.25,304L176.75,304L176.75,184L229.5,194L231,193.75L232.5,193L233.25,191.75L233.5,190L233,188.5Z"/>
        <path d="M413.25,159.25L411,163.25L407.75,167L406,168.5L402.25,171.25L398,173.25L393.75,174.25L388.75,174.75L385.75,174.5L381.25,174L377,172.25L373,170L369.5,167L367.5,165L365,161.25L363.25,157.25L362,152.75L361.75,147.75L361.75,135.5L362.5,131L364.25,126.5L366.5,122.75L369.5,119L371.5,117.25L375.25,114.5L379.5,112.75L384,111.5L388.75,111.25L391.5,111.25L396,112.25L400.5,113.75L404.25,116L407.75,119.25L409.5,121L412.25,124.75L414.25,129L415.5,133.5L415.75,138.25L415.75,147.75L415.5,150.5L415,155L413.25,159.25ZM447.25,150.25L446.25,140.75L445.5,136.25L444.5,131.5L443.5,127L443.5,126.5L442.25,122L440.5,117.5L438.5,113.5L436.25,109.25L433.5,105.5L430.5,102L427.25,98.75L423.75,95.5L420,93L415.75,90.25L411.75,88.25L407.25,86.75L403,85.25L398.25,84.25L393.75,84L388.75,83.75L386,83.75L381.25,84L376.5,84.75L372,86L367.75,87.25L363.5,89.25L359.5,91.25L355.75,93.75L352,96.75L348.5,100L346.5,102L343.5,105.5L340.75,109.25L338.5,113.25L336.5,117.25L335,121.75L333.75,126L332.75,130.75L332.25,135.25L332,140.25L332,148.5L332.5,153.25L333.25,158L334.5,162.25L335.75,166.75L337.5,171L340,174.75L342.5,178.75L345.5,182.25L348.75,185.75L350.5,187.5L354,190.5L358,193.25L361.75,195.5L366,197.75L370.25,199.25L374.5,200.5L384,202L388.75,202L393.5,201.75L398.25,201L402.75,199.75L406.75,198L411,195.5L414.75,192.75L413.75,195.75L412.5,200.5L410.75,205L407.25,213.75L405.25,218.25L403.5,221.5L400.75,225L397.75,228L394.25,230.5L390.25,232.25L385.5,233.25L380.75,233.5L378.25,233.5L373.75,232.5L369.5,231L365.5,228.5L361.75,225.25L343.75,248.5L345.25,249.25L349.25,252L353.25,254.5L357.75,256.5L362,258.25L366.5,259.5L370.75,260.5L375.5,261L386,261L390.75,260.25L395.25,259.25L399.75,258L404,256.25L408.25,254.25L412.5,251.75L413,251.25L417,248.5L420.5,245.5L423.75,242.25L426.75,238.75L429.5,234.75L432,230.75L434,226.25L435.5,223.25L439,214.25L440.5,209.75L442,205L444.25,196L445.25,191.25L446,186.5L446.75,182L447.25,177.25L447.75,167.75L447.75,155.25L447.25,150.25Z"/>
        <path d="M233.25,545.5L232.5,544.25L231,543.25L229.5,543.25L176.75,553L176.75,433.25L120.25,433.25L120.25,553L67.5,543.25L66,543.25L64.5,544.25L63.75,545.5L63.5,547.25L64.25,548.75L144,669L146.75,671L150.25,671L153,669L233,548.75L233.5,547.25L233.25,545.5Z"/>
        <path d="M443.75,507.5L442.75,502.75L441.75,498.5L440,494.25L435.5,486.25L432.75,482.5L429.5,479L428.5,478L425,474.75L421.25,472L417.5,469.5L413.5,467.5L409.25,465.5L404.75,464.25L400.25,463.25L395.5,462.5L390.75,462.25L389.25,462.25L384.5,462.5L379.75,463L375.25,464L370.75,465.25L362.25,469.25L358.5,471.75L354.75,474.75L354.5,474.75L351,478L347.75,481.5L344.75,485.25L342.25,489L340.25,493L338.25,497.5L336.75,501.75L335.5,507L365.25,513.25L366.25,508.5L368,504.25L370.5,500.5L373.5,497.5L377,495L381.25,493L385.75,492L389.75,491.75L394.75,492L399.25,493.25L403.5,495L407,498L407.75,498.75L410.75,502.25L412.75,506.25L414.25,510.5L415,515.5L415,517.5L414.5,522L413.75,526.25L412.25,530.5L410.25,534.5L407.75,538.75L404.75,542.75L402.25,545.5L339.25,610.75L339.25,636L444.5,636L444.5,608.25L382.75,608.25L423.25,566.75L426.75,563L430,559L432.75,555.25L435.25,551.25L437.5,547.25L439.5,543L442.5,534.5L444,525.5L444.5,521L444.5,512.25L443.75,507.5Z"/>
    </g>
</svg>
