<?xml version="1.0" encoding="UTF-8" standalone="no"?>
<!DOCTYPE svg PUBLIC "-//W3C//DTD SVG 1.1//EN" "http://www.w3.org/Graphics/SVG/1.1/DTD/svg11.dtd">
<svg width="100%" height="100%" viewBox="0 0 71 607" version="1.1" xmlns="http://www.w3.org/2000/svg" xmlns:xlink="http://www.w3.org/1999/xlink" xml:space="preserve" xmlns:serif="http://www.serif.com/" style="fill-rule:evenodd;clip-rule:evenodd;stroke-linejoin:round;stroke-miterlimit:2;">
    <g>
        <path d="M71,607L0,607L0,16.5L0.25,13.75L1,11L2.25,8.25L3.75,6L6,4L8.25,2.25L10.75,1L13.5,0.25L16.5,0L19.25,0.25L22,1L24.75,2.25L71,28.25L71,607Z" style="fill:white;fill-rule:nonzero;"/>
        <path d="M71,607L0,607L0,16.5L0.25,13.75L1,11L2.25,8.25L3.75,6L6,4L8.25,2.25L10.75,1L13.5,0.25L16.5,0L19.25,0.25L22,1L24.75,2.25L71,28.25L71,607Z" style="fill:none;"/>
        <path d="M71,290.5L0,250.25L0,108.5L71,148.75L71,290.5Z" style="fill-rule:nonzero;"/>
        <path d="M71,290.5L0,250.25L0,108.5L71,148.75L71,290.5Z" style="fill:none;"/>
        <path d="M52,153.5L51.75,150.5L51,147.75L49.75,145.25L48.25,143L46,140.75L43.75,139.25L41.25,138L38.25,137.25L35.5,137L32.75,137.25L29.75,138L27.25,139.25L24.75,140.75L22.75,143L21.25,145.25L20,147.75L19.25,150.5L19,153.5L19.25,156.25L20,159L21.25,161.75L22.75,164.25L24.75,166.25L27.25,167.75L29.75,169L32.75,169.75L35.5,170L38.25,169.75L41.25,169L43.75,167.75L46,166.25L48.25,164.25L49.75,161.75L51,159L51.75,156.25L52,153.5ZM52,243.25L51.75,240.25L51,237.5L49.75,235L48.25,232.75L46,230.5L43.75,229L41.25,227.75L38.25,227L35.5,226.75L32.75,227L29.75,227.75L27.25,229L24.75,230.5L22.75,232.75L21.25,235L20,237.5L19.25,240.25L19,243.25L19.25,246L20,248.75L21.25,251.5L22.75,254L24.75,256L27.25,257.5L29.75,258.75L32.75,259.5L35.5,259.75L38.25,259.5L41.25,258.75L43.75,257.5L46,256L48.25,254L49.75,251.5L51,248.75L51.75,246L52,243.25Z" style="fill:white;fill-rule:nonzero;"/>
        <path d="M52,153.5L51.75,150.5L51,147.75L49.75,145.25L48.25,143L46,140.75L43.75,139.25L41.25,138L38.25,137.25L35.5,137L32.75,137.25L29.75,138L27.25,139.25L24.75,140.75L22.75,143L21.25,145.25L20,147.75L19.25,150.5L19,153.5L19.25,156.25L20,159L21.25,161.75L22.75,164.25L24.75,166.25L27.25,167.75L29.75,169L32.75,169.75L35.5,170L38.25,169.75L41.25,169L43.75,167.75L46,166.25L48.25,164.25L49.75,161.75L51,159L51.75,156.25L52,153.5ZM52,243.25L51.75,240.25L51,237.5L49.75,235L48.25,232.75L46,230.5L43.75,229L41.25,227.75L38.25,227L35.5,226.75L32.75,227L29.75,227.75L27.25,229L24.75,230.5L22.75,232.75L21.25,235L20,237.5L19.25,240.25L19,243.25L19.25,246L20,248.75L21.25,251.5L22.75,254L24.75,256L27.25,257.5L29.75,258.75L32.75,259.5L35.5,259.75L38.25,259.5L41.25,258.75L43.75,257.5L46,256L48.25,254L49.75,251.5L51,248.75L51.75,246L52,243.25Z" style="fill:none;"/>
    </g>
</svg>
