<?xml version="1.0" encoding="UTF-8" standalone="no"?>
<!DOCTYPE svg PUBLIC "-//W3C//DTD SVG 1.1//EN" "http://www.w3.org/Graphics/SVG/1.1/DTD/svg11.dtd">
<svg width="100%" height="100%" viewBox="0 0 71 607" version="1.1" xmlns="http://www.w3.org/2000/svg" xmlns:xlink="http://www.w3.org/1999/xlink" xml:space="preserve" xmlns:serif="http://www.serif.com/" style="fill-rule:evenodd;clip-rule:evenodd;stroke-linejoin:round;stroke-miterlimit:2;">
    <g>
        <path d="M0,607L70.75,607L70.75,13.5L70,10.75L68.75,8.25L67,5.75L65,3.75L62.75,2.25L60,0.75L57.25,0L51.75,0L49,0.75L46.25,2L0,28.25L0,607Z" style="fill:white;fill-rule:nonzero;"/>
        <path d="M0,607L70.75,607L70.75,13.5L70,10.75L68.75,8.25L67,5.75L65,3.75L62.75,2.25L60,0.75L57.25,0L51.75,0L49,0.75L46.25,2L0,28.25L0,607Z" style="fill:none;"/>
        <path d="M70.75,250.25L0,290.5L0,148.75L70.75,108.5L70.75,250.25Z" style="fill-rule:nonzero;"/>
        <path d="M70.75,250.25L0,290.5L0,148.75L70.75,108.5L70.75,250.25Z" style="fill:none;"/>
        <rect x="23.75" y="143.5" width="23.5" height="112" style="fill:white;fill-rule:nonzero;"/>
        <rect x="23.75" y="143.5" width="23.5" height="112" style="fill:none;"/>
    </g>
</svg>
