<?xml version="1.0" encoding="UTF-8" standalone="no"?>
<!DOCTYPE svg PUBLIC "-//W3C//DTD SVG 1.1//EN" "http://www.w3.org/Graphics/SVG/1.1/DTD/svg11.dtd">
<svg width="100%" height="100%" viewBox="0 0 71 607" version="1.1" xmlns="http://www.w3.org/2000/svg" xmlns:xlink="http://www.w3.org/1999/xlink" xml:space="preserve" xmlns:serif="http://www.serif.com/" style="fill-rule:evenodd;clip-rule:evenodd;stroke-linejoin:round;stroke-miterlimit:2;">
    <g>
        <path d="M71,607L0,607L0,16.5L0.25,13.75L1,11L2.25,8.25L3.75,6L5.75,3.75L8.25,2.25L10.75,1L13.5,0.25L16.5,0L19.25,0.25L22,1L24.75,2.25L71,28.25L71,607Z" style="fill:white;fill-rule:nonzero;"/>
        <path d="M71,607L0,607L0,16.5L0.25,13.75L1,11L2.25,8.25L3.75,6L5.75,3.75L8.25,2.25L10.75,1L13.5,0.25L16.5,0L19.25,0.25L22,1L24.75,2.25L71,28.25L71,607Z" style="fill:none;"/>
        <path d="M71,290.5L0,250.25L0,108.5L71,148.75L71,290.5Z" style="fill-rule:nonzero;"/>
        <path d="M71,290.5L0,250.25L0,108.5L71,148.75L71,290.5Z" style="fill:none;"/>
        <rect x="23.5" y="143.5" width="23.75" height="112" style="fill:white;fill-rule:nonzero;"/>
        <rect x="23.5" y="143.5" width="23.75" height="112" style="fill:none;"/>
    </g>
</svg>
