<?xml version="1.0" encoding="UTF-8" standalone="no"?>
<!DOCTYPE svg PUBLIC "-//W3C//DTD SVG 1.1//EN" "http://www.w3.org/Graphics/SVG/1.1/DTD/svg11.dtd">
<svg width="100%" height="100%" viewBox="0 0 533 798" version="1.1" xmlns="http://www.w3.org/2000/svg" xmlns:xlink="http://www.w3.org/1999/xlink" xml:space="preserve" xmlns:serif="http://www.serif.com/" style="fill-rule:evenodd;clip-rule:evenodd;stroke-linecap:square;stroke-miterlimit:2;">
    <g>
        <rect x="0.375" y="0.625" width="531.5" height="797" style="fill:rgb(248,152,40);fill-rule:nonzero;"/>
        <rect x="0.375" y="0.625" width="531.5" height="797" style="fill:none;stroke:rgb(248,152,40);stroke-width:0.75px;"/>
        <rect x="405.375" y="371.125" width="91.25" height="91" style="fill:white;"/>
        <rect x="109.375" y="49.624" width="91.25" height="91" style="fill:white;"/>
        <path d="M515.375,766.125L515.125,768.125L514.875,770.375L514.125,772.375L512.875,774.125L511.625,776.125L510.125,777.375L508.375,778.875L506.375,779.875L504.375,780.625L502.375,781.125L29.875,781.125L27.875,780.625L25.875,779.875L23.875,778.875L22.125,777.375L20.625,776.125L19.375,774.125L18.375,772.375L17.375,770.375L17.125,768.125L16.875,766.125L16.875,32.125L17.125,29.875L17.375,27.875L19.375,23.875L20.625,22.375L22.125,20.875L23.875,19.375L25.875,18.375L27.875,17.625L29.875,17.125L502.375,17.125L504.375,17.625L506.375,18.375L508.375,19.375L510.125,20.875L511.625,22.375L512.875,23.875L514.125,25.875L514.875,27.875L515.125,29.875L515.375,32.125L515.375,766.125ZM522.625,28.875L522.125,25.875L520.875,22.875L519.375,19.875L517.375,17.375L515.125,14.875L512.375,13.125L509.625,11.625L506.625,10.375L503.375,9.625L500.125,9.375L32.125,9.375L28.875,9.625L25.625,10.375L22.625,11.625L19.875,13.125L17.125,14.875L14.875,17.375L12.875,19.875L11.375,22.875L10.375,25.875L9.625,28.875L9.375,32.125L9.375,766.125L9.625,769.375L10.375,772.375L11.375,775.625L12.875,778.375L14.875,780.875L17.125,783.125L19.875,785.125L22.625,786.625L25.625,787.875L28.875,788.625L32.125,788.875L500.125,788.875L503.375,788.625L506.625,787.875L509.625,786.625L512.375,785.125L515.125,783.125L517.375,780.875L519.375,778.375L520.875,775.625L522.125,772.375L522.625,769.375L522.875,766.125L522.875,32.125L522.625,28.875Z" style="fill:rgb(35,31,32);"/>
        <path d="M132.125,302.875L177.625,302.875L177.625,262.375L342.125,328.125L342.125,505.125L177.625,568.375L177.625,530.625L132.125,530.625L132.125,664.625L177.625,664.625L177.625,603.625L374.875,527.875L374.875,305.875L177.625,226.875L177.625,171.125L132.125,171.125L132.125,302.875Z" style="fill:rgb(35,31,32);fill-rule:nonzero;"/>
        <path d="M132.125,302.875L177.625,302.875L177.625,262.375L342.125,328.125L342.125,505.125L177.625,568.375L177.625,530.625L132.125,530.625L132.125,664.625L177.625,664.625L177.625,603.625L374.875,527.875L374.875,305.875L177.625,226.875L177.625,171.125L132.125,171.125L132.125,302.875Z" style="fill:none;stroke:rgb(35,31,32);stroke-width:0.75px;"/>
        <rect x="132.125" y="439.375" width="45.5" height="45.5" style="fill:rgb(35,31,32);fill-rule:nonzero;"/>
        <rect x="132.125" y="439.375" width="45.5" height="45.5" style="fill:none;stroke:rgb(35,31,32);stroke-width:0.75px;"/>
        <rect x="132.125" y="348.375" width="45.5" height="45.5" style="fill:rgb(35,31,32);fill-rule:nonzero;"/>
        <rect x="132.125" y="348.375" width="45.5" height="45.5" style="fill:none;stroke:rgb(35,31,32);stroke-width:0.75px;"/>
        <path d="M107.375,724.625L106.875,723.125L106.375,721.875L105.375,720.375L103.125,718.125L101.875,717.375L103.625,715.875L104.875,714.375L105.875,712.625L106.375,710.875L106.625,708.875L106.625,707.125L106.375,705.125L105.875,703.375L105.125,701.625L104.125,699.875L101.375,697.125L99.625,696.125L97.875,695.375L95.875,694.875L89.375,694.875L87.625,695.375L85.875,696.125L84.375,697.125L82.875,698.375L81.625,699.875L80.375,701.625L79.625,703.875L86.875,706.375L87.875,704.375L88.375,703.625L89.875,702.625L90.875,702.375L92.875,702.125L94.375,702.375L95.625,702.875L96.875,703.875L97.875,704.625L98.375,705.625L98.625,706.625L98.625,709.625L98.125,710.875L97.375,711.875L96.375,712.625L95.125,713.375L93.625,713.625L92.375,713.875L90.875,713.875L90.875,721.125L92.625,721.125L94.125,721.375L95.625,721.875L98.125,723.375L98.875,724.625L99.625,726.375L99.875,728.125L99.625,729.375L99.125,730.875L98.375,732.125L97.875,732.875L96.625,733.875L95.375,734.375L93.875,734.875L92.875,734.875L90.625,734.625L89.875,734.375L88.875,733.875L88.125,733.375L87.375,732.625L86.125,730.875L86.125,730.125L78.375,732.875L78.875,734.375L79.625,735.375L80.375,736.625L82.875,739.125L85.875,741.125L88.875,742.125L90.375,742.125L93.875,742.375L95.375,742.125L97.125,741.875L98.625,741.375L101.625,739.875L102.875,738.875L105.125,736.625L105.875,735.125L106.625,733.875L107.625,730.875L107.625,729.125L107.875,727.625L107.375,724.625Z" style="fill:rgb(35,31,32);"/>
        <path d="M142.625,723.875L142.125,726.125L141.375,728.875L140.625,730.375L140.125,731.625L139.375,732.625L138.375,733.625L137.125,734.375L135.875,734.875L132.875,734.875L131.875,734.625L129.875,733.125L129.125,732.375L128.375,731.125L127.375,728.875L126.625,726.125L125.625,720.625L125.625,718.625L126.125,713.125L126.625,710.625L127.375,708.125L128.125,706.875L128.625,705.625L129.375,704.375L130.375,703.375L131.375,702.625L132.875,702.125L135.625,702.125L136.625,702.625L137.875,703.125L138.625,703.875L139.625,704.625L140.125,705.875L141.375,708.125L142.125,710.875L142.625,713.625L142.875,716.375L143.125,718.625L142.625,723.875ZM150.125,710.625L149.125,706.625L147.625,703.125L147.125,702.125L146.125,700.625L144.875,699.125L143.875,697.875L142.375,696.875L140.875,696.125L139.375,695.625L137.625,695.125L135.875,694.875L132.625,694.875L129.625,695.375L128.125,695.875L126.875,696.625L125.875,697.375L123.625,699.375L121.875,701.625L120.375,704.375L118.375,710.375L117.875,713.875L117.625,717.125L117.875,720.625L118.125,723.875L118.625,727.125L119.375,729.875L120.375,732.625L121.625,734.875L122.875,736.625L124.125,738.125L125.625,739.375L127.125,740.375L128.875,741.375L130.625,741.875L132.625,742.125L134.375,742.375L136.375,742.125L138.125,741.875L139.875,741.375L141.625,740.625L144.625,738.125L145.875,736.625L147.125,734.875L147.875,733.375L148.625,731.625L149.875,727.625L150.625,723.375L150.875,719.125L150.875,714.875L150.125,710.625Z" style="fill:rgb(35,31,32);"/>
        <path d="M187.625,723.875L187.125,726.125L186.375,728.875L185.625,730.375L185.125,731.625L184.375,732.625L183.375,733.625L182.125,734.375L180.875,734.875L177.875,734.875L176.875,734.625L174.875,733.125L174.125,732.375L173.375,731.125L172.375,728.875L171.625,726.125L170.625,720.625L170.625,718.625L171.125,713.125L171.625,710.625L172.375,708.125L173.125,706.875L173.625,705.625L174.375,704.375L175.375,703.375L176.375,702.625L177.875,702.125L180.625,702.125L181.625,702.625L182.875,703.125L183.625,703.875L184.625,704.625L185.125,705.875L186.375,708.125L187.125,710.875L187.625,713.625L187.875,716.375L188.125,718.625L187.625,723.875ZM195.125,710.625L194.125,706.625L192.625,703.125L192.125,702.125L191.125,700.625L189.875,699.125L188.875,697.875L187.375,696.875L185.875,696.125L184.375,695.625L182.625,695.125L180.875,694.875L177.625,694.875L174.625,695.375L173.125,695.875L171.875,696.625L170.875,697.375L168.625,699.375L166.875,701.625L165.375,704.375L163.375,710.375L162.875,713.875L162.625,717.125L162.875,720.625L163.125,723.875L163.625,727.125L164.375,729.875L165.375,732.625L166.625,734.875L167.875,736.625L169.125,738.125L170.625,739.375L172.125,740.375L173.875,741.375L175.625,741.875L177.625,742.125L179.375,742.375L181.375,742.125L183.125,741.875L184.875,741.375L186.625,740.625L189.625,738.125L190.875,736.625L192.125,734.875L192.875,733.375L193.625,731.625L194.875,727.625L195.625,723.375L195.875,719.125L195.875,714.875L195.125,710.625Z" style="fill:rgb(35,31,32);"/>
        <path d="M240.625,709.875L242.125,709.875L243.625,710.375L244.875,711.125L245.125,711.375L246.125,712.625L246.625,713.875L246.875,715.375L246.875,741.125L254.875,741.125L254.875,714.375L255.375,713.125L256.375,711.875L257.125,711.125L258.375,710.375L259.875,709.875L261.125,709.875L240.625,709.875Z" style="fill:rgb(35,31,32);"/>
        <path d="M274.125,708.625L240.625,709.875L251.875,709.375L256.125,709.375L259.375,709.625L262.125,709.875L264.125,710.375L265.625,711.375L266.375,712.625L267.125,714.125L267.375,716.375L267.375,722.125L267.125,730.125L267.125,735.375L267.375,741.125L275.375,741.125L275.375,714.375L275.125,712.875L275.125,711.375L274.625,710.125L274.125,708.625Z" style="fill:rgb(35,31,32);"/>
        <path d="M234.375,703.375L226.625,703.375L226.625,741.125L234.375,741.125L234.125,727.375L234.125,718.125L234.625,715.125L235.375,712.875L236.375,711.375L237.875,710.375L239.875,709.875L242.625,709.625L249.875,709.875L260.125,709.875L266.625,709.375L274.125,708.625L273.125,707.625L252.625,707.375L251.625,706.125L234.375,705.625L234.375,703.375Z" style="fill:rgb(35,31,32);"/>
        <path d="M265.125,702.375L261.875,702.375L258.875,702.875L257.375,703.625L256.125,704.375L254.625,705.125L253.625,706.125L252.625,707.375L273.125,707.625L272.375,706.375L271.625,705.625L270.375,704.625L267.875,703.125L266.625,702.625L265.125,702.375Z" style="fill:rgb(35,31,32);"/>
        <path d="M242.875,702.375L240.375,702.625L238.375,703.125L236.375,704.125L234.375,705.625L251.625,706.125L250.125,704.625L248.125,703.625L246.375,702.625L244.125,702.375L242.875,702.375Z" style="fill:rgb(35,31,32);"/>
        <path d="M275.125,712.875L275.125,711.375L274.625,710.125L274.125,708.625L273.125,707.625L272.375,706.375L271.625,705.625L270.375,704.625L267.875,703.125L266.625,702.625L265.125,702.375L261.875,702.375L258.875,702.875L257.375,703.625L256.125,704.375L254.625,705.125L253.625,706.125L252.625,707.375L251.625,706.125L250.125,704.625L248.125,703.625L246.375,702.625L244.125,702.375L242.875,702.375L240.375,702.625L238.375,703.125L236.375,704.125L234.375,705.625L234.375,703.375L226.625,703.375L226.625,741.125L234.375,741.125L234.125,727.375L234.125,718.125L234.625,715.125L235.375,712.875L236.375,711.375L237.875,710.375L239.875,709.875L242.125,709.875L243.625,710.375L244.875,711.125L245.125,711.375L246.125,712.625L246.625,713.875L246.875,715.375L246.875,741.125L254.875,741.125L254.875,714.375L255.375,713.125L256.375,711.875L257.125,711.125L258.375,710.375L259.875,709.875L260.125,709.875L261.208,709.792L262.125,709.875L264.125,710.375L265.625,711.375L266.375,712.625L267.125,714.125L267.375,716.375L267.375,722.125L267.125,730.125L267.125,735.375L267.375,741.125L275.375,741.125L275.375,714.375L275.125,712.875Z" style="fill:rgb(35,31,32);"/>
        <path d="M464.875,422.875L463.875,419.875L461.875,417.375L460.875,416.375L459.375,415.375L461.125,413.875L462.375,412.375L463.375,410.625L463.875,408.875L464.125,407.125L464.125,405.125L463.875,403.375L463.375,401.375L462.625,399.625L461.625,398.125L460.375,396.625L458.875,395.375L455.375,393.375L453.375,392.875L448.875,392.875L447.125,393.125L445.125,393.625L443.375,394.375L441.625,395.375L438.875,398.125L437.875,399.625L437.125,401.875L444.625,404.375L444.875,403.375L445.375,402.375L445.875,401.625L447.375,400.625L448.375,400.375L450.375,400.125L452.125,400.375L453.375,400.875L454.375,401.875L454.625,401.875L456.125,404.375L456.375,405.875L456.375,406.125L456.125,407.625L455.625,408.875L454.625,410.125L452.875,411.375L451.625,411.625L448.375,411.625L448.375,419.375L450.125,419.125L451.625,419.375L453.125,419.875L454.625,420.625L455.625,421.625L456.375,422.875L457.125,424.375L457.375,426.125L457.125,427.625L456.625,428.875L455.875,430.125L455.375,430.875L454.125,431.875L451.625,432.875L450.375,432.875L448.125,432.625L447.375,432.375L446.375,431.875L444.875,430.875L443.625,428.875L443.375,428.125L435.875,430.875L436.625,432.125L437.125,433.625L439.125,436.125L440.375,437.375L441.875,438.125L443.125,438.875L444.625,439.625L446.375,440.125L447.875,440.375L451.375,440.375L453.125,440.125L454.625,439.875L456.125,439.375L459.125,437.875L461.625,435.875L462.625,434.625L463.375,433.375L464.125,431.875L465.125,428.875L465.125,427.375L465.375,425.875L464.875,422.875Z" style="fill:rgb(35,31,32);"/>
        <rect x="433.625" y="455.375" width="11.75" height="4.5" style="fill:rgb(35,31,32);"/>
        <rect x="456.875" y="455.375" width="11.5" height="4.5" style="fill:rgb(35,31,32);"/>
        <path d="M489.875,445.625L489.875,450.875L489.375,452.875L488.625,453.625L488.125,454.375L486.125,455.375L480.125,455.375L480.125,459.875L485.125,459.875L487.125,459.625L489.125,458.875L490.875,457.875L492.375,456.375L493.375,454.875L494.125,452.875L494.125,445.625L489.875,445.625Z" style="fill:rgb(35,31,32);"/>
        <rect x="489.875" y="422.375" width="4.25" height="11.75" style="fill:rgb(35,31,32);"/>
        <rect x="489.875" y="399.125" width="4.25" height="11.75" style="fill:rgb(35,31,32);"/>
        <path d="M493.375,378.375L492.375,376.875L490.875,375.375L489.125,374.375L487.125,373.625L485.125,373.375L480.125,373.375L480.125,377.875L486.125,377.875L488.125,378.875L488.625,379.625L489.375,380.625L489.625,381.375L489.875,382.375L489.875,387.625L494.125,387.625L494.125,380.375L493.375,378.375Z" style="fill:rgb(35,31,32);"/>
        <rect x="456.875" y="373.375" width="11.5" height="4.5" style="fill:rgb(35,31,32);"/>
        <rect x="433.625" y="373.375" width="11.75" height="4.5" style="fill:rgb(35,31,32);"/>
        <path d="M416.875,373.375L414.875,373.625L412.875,374.375L411.125,375.375L408.625,378.375L407.875,380.375L407.625,382.375L407.625,387.625L412.375,387.625L412.375,381.375L412.875,380.625L413.375,379.625L414.125,378.875L414.875,378.375L415.875,377.875L422.125,377.875L422.125,373.375L416.875,373.375Z" style="fill:rgb(35,31,32);"/>
        <rect x="407.625" y="399.125" width="4.75" height="11.75" style="fill:rgb(35,31,32);"/>
        <rect x="407.625" y="422.375" width="4.75" height="11.75" style="fill:rgb(35,31,32);"/>
        <path d="M415.875,455.375L414.875,454.875L414.125,454.375L413.375,453.625L412.875,452.875L412.375,451.875L412.375,445.625L407.625,445.625L407.625,450.875L407.875,452.875L408.625,454.875L411.125,457.875L412.875,458.875L414.875,459.625L416.875,459.875L422.125,459.875L422.125,455.375L415.875,455.375Z" style="fill:rgb(35,31,32);"/>
        <path d="M168.875,101.374L167.875,98.374L165.875,95.874L164.875,94.874L163.375,93.874L165.125,92.374L166.375,90.874L167.375,89.124L167.875,87.374L168.125,85.624L168.125,83.624L167.875,81.874L167.375,79.874L166.625,78.124L165.625,76.624L164.375,75.124L162.875,73.874L159.375,71.874L157.375,71.374L152.875,71.374L151.125,71.624L149.125,72.124L147.375,72.874L145.625,73.874L142.875,76.624L141.875,78.124L141.125,80.374L148.625,82.874L148.875,81.874L149.375,80.874L149.875,80.124L151.375,79.124L152.375,78.874L154.375,78.624L156.125,78.874L157.375,79.374L158.375,80.374L158.625,80.374L160.125,82.874L160.375,84.374L160.375,84.624L160.125,86.124L159.625,87.374L158.625,88.624L156.875,89.874L155.625,90.124L152.375,90.124L152.375,97.874L154.125,97.624L155.625,97.874L157.125,98.374L158.625,99.124L159.625,100.124L160.375,101.374L161.125,102.874L161.375,104.624L161.125,106.124L160.625,107.374L159.875,108.624L159.375,109.374L158.125,110.374L155.625,111.374L154.375,111.374L152.125,111.124L151.375,110.874L150.375,110.374L148.875,109.374L147.625,107.374L147.375,106.624L139.875,109.374L140.625,110.624L141.125,112.124L143.125,114.624L144.375,115.874L145.875,116.624L147.125,117.374L148.625,118.124L150.375,118.624L151.875,118.874L155.375,118.874L157.125,118.624L158.625,118.374L160.125,117.874L163.125,116.374L165.625,114.374L166.625,113.124L167.375,111.874L168.125,110.374L169.125,107.374L169.125,105.874L169.375,104.374L168.875,101.374Z" style="fill:rgb(35,31,32);"/>
        <path d="M193.625,129.375L193.125,131.375L192.625,132.125L191.125,133.625L190.125,133.875L188.875,134.125L120.625,134.125L119.625,133.875L118.875,133.625L117.875,132.875L117.125,132.125L116.625,131.375L116.125,130.375L116.125,60.125L116.625,59.125L117.125,58.375L117.875,57.625L118.875,56.875L119.625,56.625L190.125,56.625L191.125,56.875L192.625,58.375L193.125,59.125L193.625,61.125L193.625,129.375ZM197.875,59.125L197.125,57.125L196.125,55.375L194.625,53.875L192.875,52.875L191.125,52.125L188.875,51.875L120.625,51.875L118.625,52.125L116.625,52.875L115.125,53.875L113.625,55.375L112.625,57.125L111.875,59.125L111.625,61.125L111.625,129.375L111.875,131.625L112.625,133.375L113.625,135.125L115.125,136.625L116.625,137.625L118.625,138.375L120.625,138.625L188.875,138.625L191.125,138.375L192.875,137.625L194.625,136.625L196.125,135.125L197.125,133.375L197.875,131.625L198.125,129.375L198.125,61.125L197.875,59.125Z" style="fill:rgb(35,31,32);"/>
        <path d="M266.375,68.625L230.625,68.625L230.625,77.375L244.125,77.375L244.125,121.875L253.125,121.875L253.125,77.375L266.375,77.375L266.375,68.625Z" style="fill:rgb(35,31,32);"/>
        <path d="M297.375,84.125L288.625,109.875L282.375,128.625L281.875,129.625L280.875,130.625L279.375,130.875L279.125,130.875L277.875,130.625L276.375,130.625L274.875,130.125L274.625,130.125L271.875,137.125L274.625,137.875L277.125,138.125L279.625,138.125L282.125,137.875L284.375,137.125L286.375,135.625L288.375,133.875L289.875,131.625L290.375,130.375L305.625,84.125L297.375,84.125ZM271.875,84.125L284.375,122.375L288.625,109.875L280.125,84.125L271.875,84.125Z" style="fill:rgb(35,31,32);"/>
        <path d="M344.875,93.125L344.375,91.625L344.125,90.375L343.375,89.125L342.375,87.875L341.375,86.875L341.375,86.625L339.375,84.875L337.125,83.875L334.625,83.125L332.125,82.875L331.875,82.875L329.375,83.125L326.875,83.625L324.375,84.875L322.375,86.375L322.375,83.875L314.375,83.875L314.375,121.875L322.375,121.875L322.375,97.625L322.625,95.875L322.875,94.625L323.375,93.375L324.375,92.375L325.625,91.375L326.875,90.875L328.375,90.375L329.875,90.125L331.375,90.375L332.875,90.875L334.125,91.375L336.125,93.375L336.625,94.625L337.125,96.125L337.125,121.875L345.125,121.875L345.125,94.625L344.875,93.125Z" style="fill:rgb(35,31,32);"/>
        <path d="M384.125,108.375L383.375,106.125L382.125,104.375L380.375,102.625L378.125,101.375L375.625,100.375L374.125,99.875L373.875,99.875L367.125,98.125L366.375,97.625L365.125,96.875L364.375,95.875L364.125,94.375L364.375,93.125L364.875,92.375L365.625,91.625L366.625,91.125L368.875,90.375L371.125,90.125L374.125,90.625L376.625,91.625L377.875,92.625L378.625,93.125L383.375,87.375L380.625,85.375L377.875,84.125L374.875,83.125L371.375,82.875L368.875,82.875L366.875,83.125L365.125,83.875L363.125,84.625L361.375,85.375L359.875,86.625L357.375,89.625L356.375,92.125L356.125,94.375L356.375,96.875L356.875,98.875L358.125,100.875L359.625,102.375L361.625,103.875L364.125,104.875L364.875,104.875L372.125,107.375L373.375,107.625L374.625,108.125L375.875,108.875L376.625,110.125L376.625,111.125L376.375,112.375L375.875,113.375L375.125,114.125L374.125,114.625L372.875,115.125L371.625,115.375L367.875,115.375L366.375,115.125L364.875,114.625L363.625,114.375L362.125,113.875L360.875,113.125L359.625,112.125L359.125,111.375L354.125,117.125L355.625,118.375L357.125,119.375L359.125,120.375L360.875,121.375L362.875,121.875L365.125,122.375L367.125,122.625L369.375,122.875L371.625,122.625L373.625,122.375L375.625,121.875L377.625,121.125L379.375,120.125L380.875,119.125L382.375,117.625L383.375,115.875L384.375,113.125L384.625,110.625L384.125,108.375Z" style="fill:rgb(35,31,32);"/>
        <path d="M402.125,98.125L402.375,96.375L402.875,95.125L403.625,93.625L404.375,92.625L405.375,91.625L406.625,90.875L408.125,90.375L409.875,90.125L410.125,90.125L411.375,90.375L412.875,90.875L414.125,91.625L415.875,93.125L416.625,94.625L417.625,98.125L402.125,98.125ZM425.875,100.625L425.375,97.125L423.875,91.875L423.125,90.375L422.125,88.875L421.125,87.625L419.875,86.375L416.875,84.375L415.125,83.625L413.375,83.125L411.375,82.875L407.625,82.875L405.625,83.375L403.875,83.875L402.125,84.625L400.625,85.625L399.125,86.875L397.625,88.375L396.375,90.125L394.875,94.125L394.375,96.375L393.875,98.375L393.625,101.375L393.625,104.375L393.875,107.375L394.625,110.625L395.625,113.625L397.125,116.375L397.875,117.375L398.875,118.625L400.125,119.625L402.625,121.125L404.125,121.875L405.625,122.125L407.125,122.625L410.125,122.875L413.125,122.375L416.125,121.625L418.625,120.125L421.125,118.375L422.125,117.125L423.125,116.125L424.125,114.875L424.875,113.375L418.125,110.125L417.375,111.375L415.875,113.375L414.875,114.125L412.375,115.125L411.125,115.375L408.125,115.125L406.875,114.875L405.625,114.125L404.625,113.375L403.875,112.375L403.125,110.875L402.375,109.125L401.875,106.875L401.375,104.375L425.875,104.375L425.875,100.625Z" style="fill:rgb(35,31,32);"/>
        <path d="M453.625,114.625L451.125,115.375L449.625,115.375L448.625,115.125L447.375,114.375L446.875,113.625L446.375,112.125L446.375,91.375L455.625,91.375L455.625,83.875L446.375,83.875L446.375,68.625L438.375,75.625L438.375,83.875L433.125,83.875L433.125,91.375L438.375,91.375L438.375,111.625L438.875,114.625L439.375,115.875L440.625,118.375L442.125,120.125L444.125,121.375L446.125,122.125L448.625,122.625L450.875,122.875L455.875,121.875L453.625,114.625Z" style="fill:rgb(35,31,32);"/>
    </g>
</svg>
