<?xml version="1.0" encoding="UTF-8" standalone="no"?>
<!DOCTYPE svg PUBLIC "-//W3C//DTD SVG 1.1//EN" "http://www.w3.org/Graphics/SVG/1.1/DTD/svg11.dtd">
<svg width="100%" height="100%" viewBox="0 0 228 228" version="1.1" xmlns="http://www.w3.org/2000/svg" xmlns:xlink="http://www.w3.org/1999/xlink" xml:space="preserve" xmlns:serif="http://www.serif.com/" style="fill-rule:evenodd;clip-rule:evenodd;stroke-miterlimit:2;">
    <g>
        <path d="M227.123,114.493C227.123,51.997 176.003,0.877 113.507,0.877C51.227,0.877 0.107,51.997 0.107,114.493C0.107,176.772 51.227,227.893 113.507,227.893C176.003,227.893 227.123,176.772 227.123,114.493Z" style="fill:rgb(211,63,39);fill-rule:nonzero;"/>
        <path d="M227.123,114.493C227.123,51.997 176.003,0.877 113.507,0.877C51.227,0.877 0.107,51.997 0.107,114.493C0.107,176.772 51.227,227.893 113.507,227.893C176.003,227.893 227.123,176.772 227.123,114.493Z" style="fill:none;stroke:rgb(211,63,39);stroke-width:0.22px;"/>
        <path d="M198.683,114.493C198.683,67.621 160.379,29.317 113.507,29.317C66.851,29.317 28.547,67.621 28.547,114.493C28.547,161.148 66.851,199.453 113.507,199.453C160.379,199.453 198.683,161.148 198.683,114.493Z" style="fill:white;fill-rule:nonzero;"/>
        <path d="M198.683,114.493C198.683,67.621 160.379,29.317 113.507,29.317C66.851,29.317 28.547,67.621 28.547,114.493C28.547,161.148 66.851,199.453 113.507,199.453C160.379,199.453 198.683,161.148 198.683,114.493Z" style="fill:none;stroke:rgb(241,93,42);stroke-width:0.22px;"/>
        <path d="M62.315,150.349L55.547,138.973L52.667,142.356L52.667,150.349L48.131,150.349L48.131,123.637L52.667,123.637L52.667,135.013L61.739,123.637L67.427,123.637L58.355,135.013L67.427,150.349L62.315,150.349Z" style="fill:rgb(35,31,32);fill-rule:nonzero;"/>
        <path d="M62.315,150.349L55.547,138.973L52.667,142.356L52.667,150.349L48.131,150.349L48.131,123.637L52.667,123.637L52.667,135.013L61.739,123.637L67.427,123.637L58.355,135.013L67.427,150.349L62.315,150.349Z" style="fill:none;stroke:rgb(35,31,32);stroke-width:0.22px;"/>
        <rect x="174.275" y="123.637" width="3.96" height="26.712" style="fill:rgb(35,31,32);fill-rule:nonzero;"/>
        <rect x="174.275" y="123.637" width="3.96" height="26.712" style="fill:none;stroke:rgb(35,31,32);stroke-width:0.22px;"/>
        <rect x="163.475" y="123.637" width="3.96" height="26.712" style="fill:rgb(35,31,32);fill-rule:nonzero;"/>
        <rect x="163.475" y="123.637" width="3.96" height="26.712" style="fill:none;stroke:rgb(35,31,32);stroke-width:0.22px;"/>
        <path d="M139.643,131.269L138.203,135.013C137.627,134.725 137.051,134.436 136.187,134.436C134.243,134.436 132.227,136.38 132.227,138.396L132.227,150.349L128.267,150.349L128.267,131.269L132.227,131.269L132.227,132.42C134.531,130.693 137.051,130.405 139.643,131.269Z" style="fill:rgb(35,31,32);fill-rule:nonzero;"/>
        <path d="M139.643,131.269L138.203,135.013C137.627,134.725 137.051,134.436 136.187,134.436C134.243,134.436 132.227,136.38 132.227,138.396L132.227,150.349L128.267,150.349L128.267,131.269L132.227,131.269L132.227,132.42C134.531,130.693 137.051,130.405 139.643,131.269Z" style="fill:none;stroke:rgb(35,31,32);stroke-width:0.22px;"/>
        <path d="M118.619,131.269L123.155,131.269L123.155,135.013L118.619,135.013L118.619,145.524C118.619,146.316 119.123,147.181 119.987,147.181C120.851,147.181 121.427,146.893 122.004,146.893L123.155,150.349C122.291,150.637 121.139,150.925 119.987,150.925C116.891,150.925 114.588,148.332 114.588,145.236L114.588,135.013L111.779,135.013L111.779,131.269L114.588,131.269L114.588,127.309L118.619,123.637L118.619,131.269Z" style="fill:rgb(35,31,32);fill-rule:nonzero;"/>
        <path d="M118.619,131.269L123.155,131.269L123.155,135.013L118.619,135.013L118.619,145.524C118.619,146.316 119.123,147.181 119.987,147.181C120.851,147.181 121.427,146.893 122.004,146.893L123.155,150.349C122.291,150.637 121.139,150.925 119.987,150.925C116.891,150.925 114.588,148.332 114.588,145.236L114.588,135.013L111.779,135.013L111.779,131.269L114.588,131.269L114.588,127.309L118.619,123.637L118.619,131.269Z" style="fill:none;stroke:rgb(35,31,32);stroke-width:0.22px;"/>
        <path d="M142.163,136.957C141.587,138.108 141.587,139.549 141.587,140.701C141.587,142.068 141.587,143.509 142.163,144.661C143.028,148.332 146.123,150.925 149.867,150.925C153.539,150.925 156.635,148.332 157.499,144.661C158.075,143.509 158.075,142.068 158.075,140.701C158.075,139.549 158.075,138.108 157.499,136.957C156.635,133.285 153.539,130.693 149.867,130.693C146.123,130.693 143.028,133.285 142.163,136.957Z" style="fill:rgb(35,31,32);fill-rule:nonzero;"/>
        <path d="M142.163,136.957C141.587,138.108 141.587,139.549 141.587,140.701C141.587,142.068 141.587,143.509 142.163,144.661C143.028,148.332 146.123,150.925 149.867,150.925C153.539,150.925 156.635,148.332 157.499,144.661C158.075,143.509 158.075,142.068 158.075,140.701C158.075,139.549 158.075,138.108 157.499,136.957C156.635,133.285 153.539,130.693 149.867,130.693C146.123,130.693 143.028,133.285 142.163,136.957Z" style="fill:none;stroke:rgb(35,31,32);stroke-width:0.22px;"/>
        <path d="M70.307,136.957C70.019,138.108 70.019,139.549 70.019,140.701C70.019,142.068 70.019,143.509 70.307,144.661C71.171,148.332 74.555,150.925 78.227,150.925C81.971,150.925 85.067,148.332 85.931,144.661C86.219,143.509 86.507,142.068 86.507,140.701C86.507,139.549 86.219,138.108 85.931,136.957C85.067,133.285 81.971,130.693 78.227,130.693C74.555,130.693 71.171,133.285 70.307,136.957Z" style="fill:rgb(35,31,32);fill-rule:nonzero;"/>
        <path d="M70.307,136.957C70.019,138.108 70.019,139.549 70.019,140.701C70.019,142.068 70.019,143.509 70.307,144.661C71.171,148.332 74.555,150.925 78.227,150.925C81.971,150.925 85.067,148.332 85.931,144.661C86.219,143.509 86.507,142.068 86.507,140.701C86.507,139.549 86.219,138.108 85.931,136.957C85.067,133.285 81.971,130.693 78.227,130.693C74.555,130.693 71.171,133.285 70.307,136.957Z" style="fill:none;stroke:rgb(35,31,32);stroke-width:0.22px;"/>
        <path d="M107.531,150.349L107.531,137.533C107.531,133.86 104.363,130.693 100.691,130.693C98.963,130.693 97.307,131.269 95.867,132.42L95.867,131.269L91.908,131.269L91.908,150.349L95.867,150.349L95.867,138.108C95.867,133.285 103.499,133.285 103.499,138.108L103.499,150.349L107.531,150.349Z" style="fill:rgb(35,31,32);fill-rule:nonzero;"/>
        <path d="M107.531,150.349L107.531,137.533C107.531,133.86 104.363,130.693 100.691,130.693C98.963,130.693 97.307,131.269 95.867,132.42L95.867,131.269L91.908,131.269L91.908,150.349L95.867,150.349L95.867,138.108C95.867,133.285 103.499,133.285 103.499,138.108L103.499,150.349L107.531,150.349Z" style="fill:none;stroke:rgb(35,31,32);stroke-width:0.22px;"/>
        <path d="M71.171,84.685C66.275,86.125 61.163,84.973 57.203,81.877L60.083,78.709C62.027,80.149 64.331,81.301 66.851,81.301C67.715,81.301 68.579,81.013 69.443,80.724C71.171,80.437 72.251,78.997 72.251,77.556C72.251,76.189 71.387,74.748 70.019,74.173C69.443,73.885 68.579,73.885 67.715,73.597L65.195,73.021C64.043,72.733 62.891,72.157 61.739,71.365C56.915,68.485 57.203,61.429 62.315,59.125C62.891,58.837 63.467,58.549 64.043,58.261C67.427,57.397 71.171,57.685 74.267,59.125C74.843,59.413 75.419,59.989 76.283,60.565L73.403,63.661C72.539,63.085 71.675,62.796 70.883,62.509C70.019,62.221 68.867,61.933 68.003,61.933C66.851,61.933 66.059,62.221 64.907,62.509C63.755,62.796 62.891,64.237 62.891,65.389C62.891,66.541 63.467,67.621 64.331,68.197C64.907,68.485 65.771,68.485 66.275,68.772L68.867,69.349C70.019,69.637 71.171,70.213 72.251,70.501C74.843,71.941 76.571,74.461 76.571,77.556C76.571,80.724 74.555,83.82 71.171,84.685Z" style="fill:rgb(35,31,32);fill-rule:nonzero;"/>
        <path d="M71.171,84.685C66.275,86.125 61.163,84.973 57.203,81.877L60.083,78.709C62.027,80.149 64.331,81.301 66.851,81.301C67.715,81.301 68.579,81.013 69.443,80.724C71.171,80.437 72.251,78.997 72.251,77.556C72.251,76.189 71.387,74.748 70.019,74.173C69.443,73.885 68.579,73.885 67.715,73.597L65.195,73.021C64.043,72.733 62.891,72.157 61.739,71.365C56.915,68.485 57.203,61.429 62.315,59.125C62.891,58.837 63.467,58.549 64.043,58.261C67.427,57.397 71.171,57.685 74.267,59.125C74.843,59.413 75.419,59.989 76.283,60.565L73.403,63.661C72.539,63.085 71.675,62.796 70.883,62.509C70.019,62.221 68.867,61.933 68.003,61.933C66.851,61.933 66.059,62.221 64.907,62.509C63.755,62.796 62.891,64.237 62.891,65.389C62.891,66.541 63.467,67.621 64.331,68.197C64.907,68.485 65.771,68.485 66.275,68.772L68.867,69.349C70.019,69.637 71.171,70.213 72.251,70.501C74.843,71.941 76.571,74.461 76.571,77.556C76.571,80.724 74.555,83.82 71.171,84.685Z" style="fill:none;stroke:rgb(35,31,32);stroke-width:0.22px;"/>
        <path d="M97.307,58.261L97.307,62.509L90.468,62.509L90.468,84.685L85.931,84.685L85.931,62.509L79.379,62.509L79.379,58.261L97.307,58.261Z" style="fill:rgb(35,31,32);fill-rule:nonzero;"/>
        <path d="M97.307,58.261L97.307,62.509L90.468,62.509L90.468,84.685L85.931,84.685L85.931,62.509L79.379,62.509L79.379,58.261L97.307,58.261Z" style="fill:none;stroke:rgb(35,31,32);stroke-width:0.22px;"/>
        <path d="M100.98,78.421C102.42,82.453 106.379,85.261 110.627,85.261C115.163,85.261 118.908,82.453 120.275,78.421C121.139,76.189 121.427,73.885 121.427,71.652C121.427,69.061 121.139,66.829 120.275,64.813C118.908,60.565 115.163,57.685 110.627,57.685C106.379,57.685 102.42,60.565 100.98,64.813C100.403,66.829 99.827,69.061 99.827,71.652C99.827,73.885 100.403,76.189 100.98,78.421Z" style="fill:rgb(35,31,32);fill-rule:nonzero;"/>
        <path d="M100.98,78.421C102.42,82.453 106.379,85.261 110.627,85.261C115.163,85.261 118.908,82.453 120.275,78.421C121.139,76.189 121.427,73.885 121.427,71.652C121.427,69.061 121.139,66.829 120.275,64.813C118.908,60.565 115.163,57.685 110.627,57.685C106.379,57.685 102.42,60.565 100.98,64.813C100.403,66.829 99.827,69.061 99.827,71.652C99.827,73.885 100.403,76.189 100.98,78.421Z" style="fill:none;stroke:rgb(35,31,32);stroke-width:0.22px;"/>
        <path d="M128.267,84.685L128.267,58.261L138.203,58.261C142.451,58.261 146.123,61.645 146.123,66.253C146.123,70.501 142.451,74.173 138.203,74.173L132.803,74.173L132.803,84.685L128.267,84.685Z" style="fill:rgb(35,31,32);fill-rule:nonzero;"/>
        <path d="M128.267,84.685L128.267,58.261L138.203,58.261C142.451,58.261 146.123,61.645 146.123,66.253C146.123,70.501 142.451,74.173 138.203,74.173L132.803,74.173L132.803,84.685L128.267,84.685Z" style="fill:none;stroke:rgb(35,31,32);stroke-width:0.22px;"/>
        <path d="M151.523,84.685L151.523,58.261L161.171,58.261C165.779,58.261 169.163,61.645 169.163,66.253C169.163,70.501 165.779,74.173 161.171,74.173L156.059,74.173L156.059,84.685L151.523,84.685Z" style="fill:rgb(35,31,32);fill-rule:nonzero;"/>
        <path d="M151.523,84.685L151.523,58.261L161.171,58.261C165.779,58.261 169.163,61.645 169.163,66.253C169.163,70.501 165.779,74.173 161.171,74.173L156.059,74.173L156.059,84.685L151.523,84.685Z" style="fill:none;stroke:rgb(35,31,32);stroke-width:0.22px;"/>
        <path d="M52.667,114.493C42.155,113.124 42.155,97.789 52.667,96.349L173.123,96.349C177.659,96.925 181.115,100.885 181.115,105.42C181.115,109.957 177.659,113.989 173.123,114.493L52.667,114.493Z" style="fill:rgb(35,31,32);fill-rule:nonzero;"/>
        <path d="M52.667,114.493C42.155,113.124 42.155,97.789 52.667,96.349L173.123,96.349C177.659,96.925 181.115,100.885 181.115,105.42C181.115,109.957 177.659,113.989 173.123,114.493L52.667,114.493Z" style="fill:none;stroke:rgb(35,31,32);stroke-width:0.22px;"/>
        <path d="M146.123,137.245C145.835,138.396 145.547,139.549 145.547,140.701C145.547,142.068 145.835,143.221 146.123,144.373C146.411,146.028 148.139,147.181 149.867,147.181C151.523,147.181 153.251,146.028 153.539,144.373C153.827,143.221 154.115,142.068 154.115,140.701C154.115,139.549 153.827,138.396 153.539,137.245C153.251,135.517 151.523,134.436 149.867,134.436C148.139,134.436 146.411,135.517 146.123,137.245Z" style="fill:white;fill-rule:nonzero;"/>
        <path d="M146.123,137.245C145.835,138.396 145.547,139.549 145.547,140.701C145.547,142.068 145.835,143.221 146.123,144.373C146.411,146.028 148.139,147.181 149.867,147.181C151.523,147.181 153.251,146.028 153.539,144.373C153.827,143.221 154.115,142.068 154.115,140.701C154.115,139.549 153.827,138.396 153.539,137.245C153.251,135.517 151.523,134.436 149.867,134.436C148.139,134.436 146.411,135.517 146.123,137.245Z" style="fill:none;stroke:rgb(35,31,32);stroke-width:0.22px;"/>
        <path d="M74.555,137.245C73.979,138.396 73.979,139.549 73.979,140.701C73.979,142.068 73.979,143.221 74.555,144.373C74.843,146.028 76.571,147.181 78.227,147.181C79.955,147.181 81.683,146.028 81.971,144.373C82.187,143.221 82.475,142.068 82.475,140.701C82.475,139.549 82.187,138.396 81.971,137.245C81.683,135.517 79.955,134.436 78.227,134.436C76.571,134.436 74.843,135.517 74.555,137.245Z" style="fill:white;fill-rule:nonzero;"/>
        <path d="M74.555,137.245C73.979,138.396 73.979,139.549 73.979,140.701C73.979,142.068 73.979,143.221 74.555,144.373C74.843,146.028 76.571,147.181 78.227,147.181C79.955,147.181 81.683,146.028 81.971,144.373C82.187,143.221 82.475,142.068 82.475,140.701C82.475,139.549 82.187,138.396 81.971,137.245C81.683,135.517 79.955,134.436 78.227,134.436C76.571,134.436 74.843,135.517 74.555,137.245Z" style="fill:none;stroke:rgb(35,31,32);stroke-width:0.22px;"/>
        <path d="M116.028,77.341C116.603,75.325 116.891,73.309 116.891,71.652C116.891,69.637 116.603,67.621 116.028,65.965C115.163,63.661 112.932,61.933 110.627,61.933C108.323,61.933 106.091,63.661 105.516,65.676C104.651,67.621 104.363,69.637 104.363,71.652C104.363,73.309 104.651,75.325 105.516,77.341C106.091,79.573 108.323,81.013 110.627,81.013C112.932,81.013 115.163,79.573 116.028,77.341Z" style="fill:white;fill-rule:nonzero;"/>
        <path d="M116.028,77.341C116.603,75.325 116.891,73.309 116.891,71.652C116.891,69.637 116.603,67.621 116.028,65.965C115.163,63.661 112.932,61.933 110.627,61.933C108.323,61.933 106.091,63.661 105.516,65.676C104.651,67.621 104.363,69.637 104.363,71.652C104.363,73.309 104.651,75.325 105.516,77.341C106.091,79.573 108.323,81.013 110.627,81.013C112.932,81.013 115.163,79.573 116.028,77.341Z" style="fill:none;stroke:rgb(35,31,32);stroke-width:0.22px;"/>
        <path d="M137.915,69.925L132.803,69.925L132.803,62.509L137.915,62.509C139.932,62.509 141.587,64.237 141.587,66.253C141.587,68.197 139.932,69.925 137.915,69.925Z" style="fill:white;fill-rule:nonzero;"/>
        <path d="M137.915,69.925L132.803,69.925L132.803,62.509L137.915,62.509C139.932,62.509 141.587,64.237 141.587,66.253C141.587,68.197 139.932,69.925 137.915,69.925Z" style="fill:none;stroke:rgb(35,31,32);stroke-width:0.22px;"/>
        <path d="M160.956,69.925L156.059,69.925L156.059,62.509L160.956,62.509C162.899,62.509 164.627,64.237 164.627,66.253C164.627,68.197 162.899,69.925 160.956,69.925Z" style="fill:white;fill-rule:nonzero;"/>
        <path d="M160.956,69.925L156.059,69.925L156.059,62.509L160.956,62.509C162.899,62.509 164.627,64.237 164.627,66.253C164.627,68.197 162.899,69.925 160.956,69.925Z" style="fill:none;stroke:rgb(35,31,32);stroke-width:0.22px;"/>
    </g>
</svg>
