<?xml version="1.0" encoding="UTF-8" standalone="no"?>
<!DOCTYPE svg PUBLIC "-//W3C//DTD SVG 1.1//EN" "http://www.w3.org/Graphics/SVG/1.1/DTD/svg11.dtd">
<svg width="100%" height="100%" viewBox="0 0 1985 1843" version="1.1" xmlns="http://www.w3.org/2000/svg" xmlns:xlink="http://www.w3.org/1999/xlink" xml:space="preserve" xmlns:serif="http://www.serif.com/" style="fill-rule:evenodd;clip-rule:evenodd;stroke-linejoin:round;stroke-miterlimit:2;">
    <g>
        <path d="M141.732,1843L1842.52,1843L1845.02,1842.98C1921.94,1841.49 1983.43,1779.45 1984.25,1702.52L1984.25,142.212C1984.11,64.789 1922.43,2.008 1845.02,0.503L1843.77,0.486L1842.52,0.481L141.731,0.481L140.48,0.486C63.55,1.3 1.514,62.793 0.021,139.711L0.004,140.962L0,142.212L0,1701.27C-0.005,1737.54 13.933,1772.49 38.896,1798.8L39.759,1799.7L40.632,1800.6C66.045,1826.47 100.484,1841.64 136.73,1842.91L137.98,1842.95L139.231,1842.98L140.481,1842.99L141.732,1843Z" style="fill:white;"/>
        <path d="M141.107,1772.13L1843.14,1772.13L1843.77,1772.12C1882.23,1771.38 1912.98,1740.36 1913.38,1701.89L1913.39,1701.27L1913.39,142.214C1913.32,103.502 1882.47,72.112 1843.77,71.359L1843.14,71.35L1842.52,71.348L141.733,71.348L141.107,71.35C102.641,71.757 71.624,102.501 70.877,140.962L70.869,141.587L70.866,142.213L70.866,1701.27C70.862,1719.4 77.832,1736.88 90.313,1750.03L90.746,1750.49L91.182,1750.93C103.889,1763.87 121.108,1771.45 139.231,1772.09L139.856,1772.11L140.481,1772.12L141.107,1772.13Z" style="fill:rgb(150,79,34);"/>
        <path d="M481.89,1559.54L1502.36,1559.54L1503.48,1559.53L1504.6,1559.51C1573.84,1558.18 1629.19,1502.34 1629.92,1433.09L1629.92,411.504C1629.8,341.816 1574.28,285.312 1504.6,283.964L1503.48,283.95L1502.36,283.944L481.89,283.944L480.771,283.95C411.524,284.678 355.687,340.027 354.351,409.265L354.336,410.384L354.331,411.504L354.331,1431.98C354.324,1464.43 366.727,1495.72 388.965,1519.36L389.735,1520.17L390.513,1520.98C413.424,1544.51 444.591,1558.31 477.413,1559.46L478.532,1559.49L479.651,1559.51L480.771,1559.53L481.89,1559.54Z" style="fill:white;"/>
        <path d="M1176.38,1262.53L1176.38,668.647L793.701,668.647L793.701,1337.26L772.725,1343.51C709.893,1362.6 647.947,1384.6 587.151,1409.42L566.929,1417.8L566.929,425.677L1417.32,425.677L1417.32,1251.86L1397.21,1251.71C1330.18,1251.5 1263.14,1254.47 1196.39,1260.6L1176.38,1262.53Z" style="fill:rgb(150,79,34);"/>
    </g>
</svg>
