<?xml version="1.0" encoding="UTF-8" standalone="no"?>
<!DOCTYPE svg PUBLIC "-//W3C//DTD SVG 1.1//EN" "http://www.w3.org/Graphics/SVG/1.1/DTD/svg11.dtd">
<svg width="100%" height="100%" viewBox="0 0 256 224" version="1.1" xmlns="http://www.w3.org/2000/svg" xmlns:xlink="http://www.w3.org/1999/xlink" xml:space="preserve" xmlns:serif="http://www.serif.com/" style="fill-rule:evenodd;clip-rule:evenodd;stroke-miterlimit:2;">
    <g>
        <path d="M119.916,5.013L1.331,210.501C0.539,211.796 0.107,213.38 0.107,214.964C0.107,219.933 4.067,223.893 9.035,223.893L246.275,223.893C251.243,223.82 255.203,219.86 255.203,214.964C255.203,213.38 254.771,211.796 253.979,210.501L135.396,5.013C133.812,2.277 130.858,0.549 127.619,0.549C124.451,0.549 121.5,2.277 119.916,5.013Z" style="fill:rgb(211,63,39);fill-rule:nonzero;"/>
        <path d="M119.916,5.013L1.331,210.501C0.539,211.796 0.107,213.38 0.107,214.964C0.107,219.933 4.067,223.893 9.035,223.893L246.275,223.893C251.243,223.82 255.203,219.86 255.203,214.964C255.203,213.38 254.771,211.796 253.979,210.501L135.396,5.013C133.812,2.277 130.858,0.549 127.619,0.549C124.451,0.549 121.5,2.277 119.916,5.013Z" style="fill:none;stroke:rgb(211,63,39);stroke-width:0.22px;"/>
        <path d="M39.996,197.108L215.315,197.108L127.619,45.261L39.996,197.108Z" style="fill:white;fill-rule:nonzero;"/>
        <path d="M39.996,197.108L215.315,197.108L127.619,45.261L39.996,197.108Z" style="fill:none;stroke:white;stroke-width:0.22px;"/>
        <path d="M120.923,91.845L107.531,91.845L107.531,118.269C107.531,120.357 106.739,122.373 105.228,123.884L98.027,131.157C95.579,133.604 94.139,137.061 94.139,140.588L94.139,189.045L107.531,189.045L107.531,143.9C107.531,141.741 108.396,139.724 109.907,138.212L117.035,130.941C119.555,128.42 120.923,125.037 120.923,121.507L120.923,91.845Z" style="fill:rgb(35,31,32);fill-rule:nonzero;"/>
        <path d="M120.923,91.845L107.531,91.845L107.531,118.269C107.531,120.357 106.739,122.373 105.228,123.884L98.027,131.157C95.579,133.604 94.139,137.061 94.139,140.588L94.139,189.045L107.531,189.045L107.531,143.9C107.531,141.741 108.396,139.724 109.907,138.212L117.035,130.941C119.555,128.42 120.923,125.037 120.923,121.507L120.923,91.845Z" style="fill:none;stroke:rgb(35,31,32);stroke-width:0.22px;"/>
        <path d="M147.779,91.845L147.779,118.269C147.779,120.357 148.571,122.373 150.083,123.884L157.283,131.157C159.803,133.675 161.171,137.061 161.171,140.588L161.171,189.045L147.779,189.045L147.779,143.9C147.779,141.741 146.916,139.724 145.403,138.212L138.275,130.941C135.755,128.493 134.387,125.108 134.387,121.58L134.387,91.845L147.779,91.845Z" style="fill:rgb(35,31,32);fill-rule:nonzero;"/>
        <path d="M147.779,91.845L147.779,118.269C147.779,120.357 148.571,122.373 150.083,123.884L157.283,131.157C159.803,133.675 161.171,137.061 161.171,140.588L161.171,189.045L147.779,189.045L147.779,143.9C147.779,141.741 146.916,139.724 145.403,138.212L138.275,130.941C135.755,128.493 134.387,125.108 134.387,121.58L134.387,91.845L147.779,91.845Z" style="fill:none;stroke:rgb(35,31,32);stroke-width:0.22px;"/>
    </g>
</svg>
