<?xml version="1.0" encoding="UTF-8" standalone="no"?>
<!DOCTYPE svg PUBLIC "-//W3C//DTD SVG 1.1//EN" "http://www.w3.org/Graphics/SVG/1.1/DTD/svg11.dtd">
<svg width="100%" height="100%" viewBox="0 0 227 227" version="1.1" xmlns="http://www.w3.org/2000/svg" xmlns:xlink="http://www.w3.org/1999/xlink" xml:space="preserve" xmlns:serif="http://www.serif.com/" style="fill-rule:evenodd;clip-rule:evenodd;stroke-miterlimit:2;">
    <g>
        <path d="M226.403,113.852C226.403,51.573 175.427,0.597 113.147,0.597C51.083,0.597 0.107,51.573 0.107,113.852C0.107,175.916 51.083,226.892 113.147,226.892C175.427,226.892 226.403,175.916 226.403,113.852Z" style="fill:rgb(211,63,39);fill-rule:nonzero;"/>
        <path d="M226.403,113.852C226.403,51.573 175.427,0.597 113.147,0.597C51.083,0.597 0.107,51.573 0.107,113.852C0.107,175.916 51.083,226.892 113.147,226.892C175.427,226.892 226.403,175.916 226.403,113.852Z" style="fill:none;stroke:rgb(241,93,42);stroke-width:0.22px;"/>
        <path d="M177.947,168.86L123.011,113.852L177.947,58.917C190.979,74.541 198.107,93.765 198.107,113.852C198.107,134.012 190.979,153.236 177.947,168.86Z" style="fill:rgb(0,104,178);fill-rule:nonzero;"/>
        <path d="M177.947,168.86L123.011,113.852L177.947,58.917C190.979,74.541 198.107,93.765 198.107,113.852C198.107,134.012 190.979,153.236 177.947,168.86Z" style="fill:none;stroke:rgb(241,93,42);stroke-width:0.22px;"/>
        <path d="M58.139,178.724L113.147,123.788L168.083,178.724C136.331,205.652 89.891,205.652 58.139,178.724Z" style="fill:rgb(0,104,178);fill-rule:nonzero;"/>
        <path d="M58.139,178.724L113.147,123.788L168.083,178.724C136.331,205.652 89.891,205.652 58.139,178.724Z" style="fill:none;stroke:rgb(241,93,42);stroke-width:0.22px;"/>
        <path d="M48.275,168.86L103.211,113.852L48.275,58.917C35.243,74.253 28.115,93.765 28.115,113.852C28.115,134.012 35.243,153.524 48.275,168.86Z" style="fill:rgb(0,104,178);fill-rule:nonzero;"/>
        <path d="M48.275,168.86L103.211,113.852L48.275,58.917C35.243,74.253 28.115,93.765 28.115,113.852C28.115,134.012 35.243,153.524 48.275,168.86Z" style="fill:none;stroke:rgb(241,93,42);stroke-width:0.22px;"/>
        <path d="M168.083,49.053C152.747,36.021 133.235,28.892 113.147,28.892C92.987,28.892 73.763,36.021 58.139,49.053L113.147,103.989L168.083,49.053Z" style="fill:rgb(0,104,178);fill-rule:nonzero;"/>
        <path d="M168.083,49.053C152.747,36.021 133.235,28.892 113.147,28.892C92.987,28.892 73.763,36.021 58.139,49.053L113.147,103.989L168.083,49.053Z" style="fill:none;stroke:rgb(241,93,42);stroke-width:0.22px;"/>
    </g>
</svg>
