<?xml version="1.0" encoding="UTF-8" standalone="no"?>
<!DOCTYPE svg PUBLIC "-//W3C//DTD SVG 1.1//EN" "http://www.w3.org/Graphics/SVG/1.1/DTD/svg11.dtd">
<svg width="100%" height="100%" viewBox="0 0 226 226" version="1.1" xmlns="http://www.w3.org/2000/svg" xmlns:xlink="http://www.w3.org/1999/xlink" xml:space="preserve" xmlns:serif="http://www.serif.com/" style="fill-rule:evenodd;clip-rule:evenodd;stroke-miterlimit:2;">
    <g>
        <path d="M225.395,113.356C225.395,51.365 174.635,0.605 112.643,0.605C50.867,0.605 0.107,51.365 0.107,113.356C0.107,175.133 50.867,225.893 112.643,225.893C174.635,225.893 225.395,175.133 225.395,113.356Z" style="fill:rgb(211,63,39);fill-rule:nonzero;"/>
        <path d="M225.395,113.356C225.395,51.365 174.635,0.605 112.643,0.605C50.867,0.605 0.107,51.365 0.107,113.356C0.107,175.133 50.867,225.893 112.643,225.893C174.635,225.893 225.395,175.133 225.395,113.356Z" style="fill:none;stroke:rgb(211,63,39);stroke-width:0.22px;"/>
        <path d="M197.171,113.356C197.171,66.844 159.155,28.829 112.643,28.829C66.347,28.829 28.331,66.844 28.331,113.356C28.331,159.652 66.347,197.668 112.643,197.668C159.155,197.668 197.171,159.652 197.171,113.356Z" style="fill:white;fill-rule:nonzero;"/>
        <path d="M197.171,113.356C197.171,66.844 159.155,28.829 112.643,28.829C66.347,28.829 28.331,66.844 28.331,113.356C28.331,159.652 66.347,197.668 112.643,197.668C159.155,197.668 197.171,159.652 197.171,113.356Z" style="fill:none;stroke:rgb(241,93,42);stroke-width:0.22px;"/>
        <path d="M70.019,59.285L63.539,65.765L63.539,74.765L69.443,71.669L69.443,112.564L78.803,112.564L78.803,59.285L70.019,59.285Z" style="fill:rgb(35,31,32);fill-rule:nonzero;"/>
        <path d="M70.019,59.285L63.539,65.765L63.539,74.765L69.443,71.669L69.443,112.564L78.803,112.564L78.803,59.285L70.019,59.285Z" style="fill:none;stroke:rgb(35,31,32);stroke-width:0.22px;"/>
        <path d="M96.516,66.844C95.147,69.149 94.283,71.669 93.42,74.189C92.555,78.149 92.052,82.109 92.052,86.069C92.052,89.957 92.555,93.917 93.42,97.589C94.283,100.397 95.147,102.989 96.516,105.221C99.612,110.549 105.299,113.644 111.492,113.644C117.683,113.644 123.299,110.549 126.395,105.221C127.835,102.7 128.699,100.109 129.563,97.589C130.354,93.628 130.932,89.957 130.932,86.069C130.932,82.109 130.354,78.149 129.563,74.189C128.699,71.669 127.835,69.149 126.395,66.844C123.299,61.517 117.683,58.133 111.492,58.133C105.299,58.133 99.612,61.517 96.516,66.844Z" style="fill:rgb(35,31,32);fill-rule:nonzero;"/>
        <path d="M96.516,66.844C95.147,69.149 94.283,71.669 93.42,74.189C92.555,78.149 92.052,82.109 92.052,86.069C92.052,89.957 92.555,93.917 93.42,97.589C94.283,100.397 95.147,102.989 96.516,105.221C99.612,110.549 105.299,113.644 111.492,113.644C117.683,113.644 123.299,110.549 126.395,105.221C127.835,102.7 128.699,100.109 129.563,97.589C130.354,93.628 130.932,89.957 130.932,86.069C130.932,82.109 130.354,78.149 129.563,74.189C128.699,71.669 127.835,69.149 126.395,66.844C123.299,61.517 117.683,58.133 111.492,58.133C105.299,58.133 99.612,61.517 96.516,66.844Z" style="fill:none;stroke:rgb(35,31,32);stroke-width:0.22px;"/>
        <path d="M104.723,70.805C103.859,72.82 102.995,74.477 102.492,76.421C101.915,79.589 101.339,82.685 101.339,86.069C101.339,89.165 101.915,92.261 102.492,95.357C102.995,97.301 103.859,99.317 104.723,100.973C106.091,103.493 108.683,104.933 111.492,105.221C114.299,104.933 116.819,103.493 118.259,100.973C119.123,99.317 119.915,97.301 120.492,95.357C121.067,92.261 121.643,89.165 121.643,86.069C121.643,82.973 121.067,79.589 120.492,76.421C119.915,74.477 119.123,72.82 118.259,70.805C116.819,68.573 114.299,66.844 111.492,66.844C108.683,66.844 106.091,68.285 104.723,70.805Z" style="fill:white;fill-rule:nonzero;"/>
        <path d="M104.723,70.805C103.859,72.82 102.995,74.477 102.492,76.421C101.915,79.589 101.339,82.685 101.339,86.069C101.339,89.165 101.915,92.261 102.492,95.357C102.995,97.301 103.859,99.317 104.723,100.973C106.091,103.493 108.683,104.933 111.492,105.221C114.299,104.933 116.819,103.493 118.259,100.973C119.123,99.317 119.915,97.301 120.492,95.357C121.067,92.261 121.643,89.165 121.643,86.069C121.643,82.973 121.067,79.589 120.492,76.421C119.915,74.477 119.123,72.82 118.259,70.805C116.819,68.573 114.299,66.844 111.492,66.844C108.683,66.844 106.091,68.285 104.723,70.805Z" style="fill:none;stroke:rgb(35,31,32);stroke-width:0.22px;"/>
        <path d="M156.563,84.341L163.619,84.341L163.619,89.957L156.563,89.957L156.563,105.508C156.563,106.588 157.715,107.741 159.155,107.741C159.947,107.741 161.099,107.741 161.963,107.164L163.619,112.564C162.251,113.141 160.523,113.356 159.155,113.356C154.619,113.356 150.659,109.757 150.659,104.933L150.659,89.957L146.699,89.957L146.699,84.341L150.659,84.341L150.659,78.149L156.563,73.037L156.563,84.341Z" style="fill:rgb(35,31,32);fill-rule:nonzero;"/>
        <path d="M156.563,84.341L163.619,84.341L163.619,89.957L156.563,89.957L156.563,105.508C156.563,106.588 157.715,107.741 159.155,107.741C159.947,107.741 161.099,107.741 161.963,107.164L163.619,112.564C162.251,113.141 160.523,113.356 159.155,113.356C154.619,113.356 150.659,109.757 150.659,104.933L150.659,89.957L146.699,89.957L146.699,84.341L150.659,84.341L150.659,78.149L156.563,73.037L156.563,84.341Z" style="fill:none;stroke:rgb(35,31,32);stroke-width:0.22px;"/>
        <path d="M87.516,133.157C73.979,133.157 63.251,144.101 63.251,157.637L63.251,157.925L59.003,157.925C58.787,142.157 71.747,128.909 87.516,128.909L137.699,128.909C153.468,129.197 166.211,141.869 166.211,157.637L166.211,157.925L161.963,157.925L161.963,157.637C161.963,144.101 151.235,133.157 137.699,133.157L87.516,133.157Z" style="fill:rgb(35,31,32);fill-rule:nonzero;"/>
        <path d="M87.516,133.157C73.979,133.157 63.251,144.101 63.251,157.637L63.251,157.925L59.003,157.925C58.787,142.157 71.747,128.909 87.516,128.909L137.699,128.909C153.468,129.197 166.211,141.869 166.211,157.637L166.211,157.925L161.963,157.925L161.963,157.637C161.963,144.101 151.235,133.157 137.699,133.157L87.516,133.157Z" style="fill:none;stroke:rgb(35,31,32);stroke-width:0.22px;"/>
        <path d="M108.971,157.06C108.971,145.54 99.323,135.964 87.803,135.964C76.211,135.964 66.635,145.54 66.635,157.06C66.635,168.652 76.211,178.228 87.803,178.228C99.323,178.228 108.971,168.652 108.971,157.06Z" style="fill:rgb(35,31,32);fill-rule:nonzero;"/>
        <path d="M108.971,157.06C108.971,145.54 99.323,135.964 87.803,135.964C76.211,135.964 66.635,145.54 66.635,157.06C66.635,168.652 76.211,178.228 87.803,178.228C99.323,178.228 108.971,168.652 108.971,157.06Z" style="fill:none;stroke:rgb(35,31,32);stroke-width:0.22px;"/>
        <path d="M158.579,157.06C158.579,145.54 149.291,135.964 137.699,135.964C126.179,135.964 116.819,145.54 116.819,157.06C116.819,168.652 126.179,178.228 137.699,178.228C149.291,178.228 158.579,168.652 158.579,157.06Z" style="fill:rgb(35,31,32);fill-rule:nonzero;"/>
        <path d="M158.579,157.06C158.579,145.54 149.291,135.964 137.699,135.964C126.179,135.964 116.819,145.54 116.819,157.06C116.819,168.652 126.179,178.228 137.699,178.228C149.291,178.228 158.579,168.652 158.579,157.06Z" style="fill:none;stroke:rgb(35,31,32);stroke-width:0.22px;"/>
        <path d="M97.379,157.06C97.379,152.02 93.131,147.772 87.803,147.772C82.475,147.772 78.227,152.02 78.227,157.06C78.227,162.172 82.475,166.42 87.803,166.42C93.131,166.42 97.379,162.172 97.379,157.06Z" style="fill:white;fill-rule:nonzero;"/>
        <path d="M97.379,157.06C97.379,152.02 93.131,147.772 87.803,147.772C82.475,147.772 78.227,152.02 78.227,157.06C78.227,162.172 82.475,166.42 87.803,166.42C93.131,166.42 97.379,162.172 97.379,157.06Z" style="fill:none;stroke:rgb(35,31,32);stroke-width:0.22px;"/>
        <path d="M146.987,157.06C146.987,152.02 142.811,147.772 137.699,147.772C132.659,147.772 128.41,152.02 128.41,157.06C128.41,162.172 132.659,166.42 137.699,166.42C142.811,166.42 146.987,162.172 146.987,157.06Z" style="fill:white;fill-rule:nonzero;"/>
        <path d="M146.987,157.06C146.987,152.02 142.811,147.772 137.699,147.772C132.659,147.772 128.41,152.02 128.41,157.06C128.41,162.172 132.659,166.42 137.699,166.42C142.811,166.42 146.987,162.172 146.987,157.06Z" style="fill:none;stroke:rgb(35,31,32);stroke-width:0.22px;"/>
    </g>
</svg>
