<?xml version="1.0" encoding="UTF-8" standalone="no"?>
<!DOCTYPE svg PUBLIC "-//W3C//DTD SVG 1.1//EN" "http://www.w3.org/Graphics/SVG/1.1/DTD/svg11.dtd">
<svg width="100%" height="100%" viewBox="0 0 245 214" version="1.1" xmlns="http://www.w3.org/2000/svg" xmlns:xlink="http://www.w3.org/1999/xlink" xml:space="preserve" xmlns:serif="http://www.serif.com/" style="fill-rule:evenodd;clip-rule:evenodd;stroke-miterlimit:2;">
    <g>
        <path d="M7.523,213.892C3.275,213.892 0.107,210.724 0.107,206.764C0.107,205.396 0.395,204.316 1.043,203.092L116.099,4.157C118.979,-0.667 125.675,-0.667 128.554,4.157L243.611,203.092C244.26,204.316 244.475,205.396 244.475,206.764C244.475,210.724 241.379,213.892 237.131,213.892L7.523,213.892Z" style="fill:rgb(211,63,39);fill-rule:nonzero;"/>
        <path d="M7.523,213.892C3.275,213.892 0.107,210.724 0.107,206.764C0.107,205.396 0.395,204.316 1.043,203.092L116.099,4.157C118.979,-0.667 125.675,-0.667 128.554,4.157L243.611,203.092C244.26,204.316 244.475,205.396 244.475,206.764C244.475,210.724 241.379,213.892 237.131,213.892L7.523,213.892Z" style="fill:none;stroke:rgb(211,63,39);stroke-width:0.22px;"/>
        <path d="M38.987,188.405L122.363,44.117L205.668,188.405L38.987,188.405Z" style="fill:white;fill-rule:nonzero;"/>
        <path d="M38.987,188.405L122.363,44.117L205.668,188.405L38.987,188.405Z" style="fill:none;stroke:white;stroke-width:0.22px;"/>
        <path d="M122.363,169.973L108.179,184.157C107.603,184.732 106.739,184.157 106.739,183.58L106.739,138.221L81.467,138.221L81.467,122.597L106.739,122.597L106.739,93.436L121.715,71.909C122.003,71.333 122.651,71.333 122.939,71.909L137.915,93.436L137.915,122.597L163.188,122.597L163.188,138.221L137.915,138.221L137.915,183.58C137.915,183.869 137.627,184.444 137.051,184.444C136.764,184.444 136.475,184.157 136.475,184.157L122.363,169.973Z" style="fill:rgb(35,31,32);fill-rule:nonzero;"/>
        <path d="M122.363,169.973L108.179,184.157C107.603,184.732 106.739,184.157 106.739,183.58L106.739,138.221L81.467,138.221L81.467,122.597L106.739,122.597L106.739,93.436L121.715,71.909C122.003,71.333 122.651,71.333 122.939,71.909L137.915,93.436L137.915,122.597L163.188,122.597L163.188,138.221L137.915,138.221L137.915,183.58C137.915,183.869 137.627,184.444 137.051,184.444C136.764,184.444 136.475,184.157 136.475,184.157L122.363,169.973Z" style="fill:none;stroke:rgb(35,31,32);stroke-width:0.22px;"/>
    </g>
</svg>
