<?xml version="1.0" encoding="UTF-8" standalone="no"?>
<!DOCTYPE svg PUBLIC "-//W3C//DTD SVG 1.1//EN" "http://www.w3.org/Graphics/SVG/1.1/DTD/svg11.dtd">
<svg width="100%" height="100%" viewBox="0 0 596 596" version="1.1" xmlns="http://www.w3.org/2000/svg" xmlns:xlink="http://www.w3.org/1999/xlink" xml:space="preserve" xmlns:serif="http://www.serif.com/" style="fill-rule:evenodd;clip-rule:evenodd;stroke-linecap:round;stroke-linejoin:round;stroke-miterlimit:2;">
    <g>
        <path d="M594.922,298.363C594.922,134.178 461.823,1.079 297.638,1.079C133.453,1.079 0.354,134.178 0.354,298.363C0.354,462.547 133.453,595.647 297.638,595.647C461.823,595.647 594.922,462.547 594.922,298.363Z" style="fill:rgb(211,63,39);fill-rule:nonzero;"/>
        <path d="M594.922,298.363C594.922,134.178 461.823,1.079 297.638,1.079C133.453,1.079 0.354,134.178 0.354,298.363C0.354,462.547 133.453,595.647 297.638,595.647C461.823,595.647 594.922,462.547 594.922,298.363Z" style="fill:none;stroke:rgb(211,63,39);stroke-width:0.71px;"/>
        <path d="M441.61,468.611L127.389,154.391C52.527,242.916 58,374.042 139.979,456.021C221.958,538 353.084,543.474 441.61,468.611Z" style="fill:white;fill-rule:nonzero;"/>
        <path d="M441.61,468.611L127.389,154.391C52.527,242.916 58,374.042 139.979,456.021C221.958,538 353.084,543.474 441.61,468.611Z" style="fill:none;stroke:white;stroke-width:0.71px;"/>
        <path d="M467.887,442.334C542.748,353.809 537.275,222.683 455.297,140.704C373.317,58.726 242.191,53.253 153.666,128.115L467.887,442.334Z" style="fill:white;fill-rule:nonzero;"/>
        <path d="M467.887,442.334C542.748,353.809 537.275,222.683 455.297,140.704C373.317,58.726 242.191,53.253 153.666,128.115L467.887,442.334Z" style="fill:none;stroke:white;stroke-width:0.71px;"/>
        <path d="M175.027,380.895L175.027,449.169C178.681,453.616 184.134,456.193 189.889,456.193C195.645,456.193 201.098,453.616 204.751,449.169L204.751,380.895C201.122,376.41 195.66,373.803 189.889,373.803C184.119,373.803 178.656,376.41 175.027,380.895Z" style="fill:rgb(35,31,32);fill-rule:nonzero;"/>
        <path d="M175.027,380.895L175.027,449.169C178.681,453.616 184.134,456.193 189.889,456.193C195.645,456.193 201.098,453.616 204.751,449.169L204.751,380.895C201.122,376.41 195.66,373.803 189.889,373.803C184.119,373.803 178.656,376.41 175.027,380.895Z" style="fill:none;stroke:rgb(35,31,32);stroke-width:0.41px;"/>
        <path d="M353.607,380.608C353.527,380.703 353.448,380.798 353.37,380.895L353.37,403.301L322.028,403.301C317.914,403.301 314.007,401.497 311.338,398.367C307.919,394.354 302.911,392.041 297.638,392.041C292.365,392.041 287.357,394.354 283.938,398.367C281.269,401.497 277.362,403.301 273.248,403.301L241.906,403.301L241.906,380.895C238.276,376.41 232.814,373.803 227.043,373.803C221.273,373.803 215.812,376.41 212.182,380.895L212.182,449.169C215.835,453.616 221.288,456.193 227.043,456.193C232.799,456.193 238.252,453.616 241.906,449.169L241.906,425.371L273.556,425.371C277.67,425.371 281.577,427.175 284.246,430.306C287.666,434.319 292.673,436.63 297.946,436.63C303.219,436.63 308.227,434.319 311.646,430.306C314.315,427.175 318.223,425.371 322.337,425.371L353.37,425.371L353.37,449.169C357.024,453.616 362.477,456.193 368.232,456.193C373.987,456.193 379.44,453.616 383.094,449.169L383.094,410.095L353.607,380.608Z" style="fill:rgb(35,31,32);fill-rule:nonzero;"/>
        <path d="M353.607,380.608C353.527,380.703 353.448,380.798 353.37,380.895L353.37,403.301L322.028,403.301C317.914,403.301 314.007,401.497 311.338,398.367C307.919,394.354 302.911,392.041 297.638,392.041C292.365,392.041 287.357,394.354 283.938,398.367C281.269,401.497 277.362,403.301 273.248,403.301L241.906,403.301L241.906,380.895C238.276,376.41 232.814,373.803 227.043,373.803C221.273,373.803 215.812,376.41 212.182,380.895L212.182,449.169C215.835,453.616 221.288,456.193 227.043,456.193C232.799,456.193 238.252,453.616 241.906,449.169L241.906,425.371L273.556,425.371C277.67,425.371 281.577,427.175 284.246,430.306C287.666,434.319 292.673,436.63 297.946,436.63C303.219,436.63 308.227,434.319 311.646,430.306C314.315,427.175 318.223,425.371 322.337,425.371L353.37,425.371L353.37,449.169C357.024,453.616 362.477,456.193 368.232,456.193C373.987,456.193 379.44,453.616 383.094,449.169L383.094,410.095L353.607,380.608Z" style="fill:none;stroke:rgb(35,31,32);stroke-width:0.71px;"/>
        <path d="M390.525,417.526L390.525,449.169C394.178,453.616 399.632,456.193 405.387,456.193C411.143,456.193 416.595,453.616 420.249,449.169L420.249,447.25L390.525,417.526Z" style="fill:rgb(35,31,32);fill-rule:nonzero;"/>
        <path d="M390.525,417.526L390.525,449.169C394.178,453.616 399.632,456.193 405.387,456.193C411.143,456.193 416.595,453.616 420.249,449.169L420.249,447.25L390.525,417.526Z" style="fill:none;stroke:rgb(35,31,32);stroke-width:0.41px;"/>
        <path d="M420.249,394.697L420.249,380.895C415.418,374.923 407.481,372.423 400.1,374.548L420.249,394.697Z" style="fill:rgb(35,31,32);fill-rule:nonzero;"/>
        <path d="M420.249,394.697L420.249,380.895C415.418,374.923 407.481,372.423 400.1,374.548L420.249,394.697Z" style="fill:none;stroke:rgb(35,31,32);stroke-width:0.28px;"/>
        <path d="M329.006,303.454L383.094,303.454L383.094,188.588L214.14,188.588L172.974,147.422C175.64,145.212 178.995,144.002 182.458,144.002L412.818,144.002C416.76,144.002 420.539,145.568 423.327,148.355C426.113,151.142 427.68,154.922 427.68,158.864L427.68,355.471L381.021,355.471L329.006,303.454Z" style="fill:rgb(35,31,32);fill-rule:nonzero;"/>
        <path d="M329.006,303.454L383.094,303.454L383.094,188.588L214.14,188.588L172.974,147.422C175.64,145.212 178.995,144.002 182.458,144.002L412.818,144.002C416.76,144.002 420.539,145.568 423.327,148.355C426.113,151.142 427.68,154.922 427.68,158.864L427.68,355.471L381.021,355.471L329.006,303.454Z" style="fill:none;stroke:black;stroke-width:0.71px;"/>
        <path d="M276.453,303.454L328.469,355.471L167.596,355.471L167.596,194.597L212.182,239.183L212.182,303.454L276.453,303.454Z" style="fill:rgb(35,31,32);fill-rule:nonzero;"/>
        <path d="M276.453,303.454L328.469,355.471L167.596,355.471L167.596,194.597L212.182,239.183L212.182,303.454L276.453,303.454Z" style="fill:none;stroke:black;stroke-width:0.71px;"/>
        <path d="M276.453,303.454L212.182,239.183L212.182,303.454L276.453,303.454Z" style="fill:rgb(248,152,40);fill-rule:nonzero;"/>
        <path d="M276.453,303.454L212.182,239.183L212.182,303.454L276.453,303.454Z" style="fill:none;stroke:rgb(248,152,40);stroke-width:0.71px;"/>
        <path d="M214.14,188.588L329.006,303.454L383.094,303.454L383.094,188.588L214.14,188.588Z" style="fill:rgb(248,152,40);fill-rule:nonzero;"/>
        <path d="M214.14,188.588L329.006,303.454L383.094,303.454L383.094,188.588L214.14,188.588Z" style="fill:none;stroke:rgb(248,152,40);stroke-width:0.71px;"/>
    </g>
</svg>
