<?xml version="1.0" encoding="UTF-8" standalone="no"?>
<!DOCTYPE svg PUBLIC "-//W3C//DTD SVG 1.1//EN" "http://www.w3.org/Graphics/SVG/1.1/DTD/svg11.dtd">
<svg width="100%" height="100%" viewBox="0 0 596 596" version="1.1" xmlns="http://www.w3.org/2000/svg" xmlns:xlink="http://www.w3.org/1999/xlink" xml:space="preserve" xmlns:serif="http://www.serif.com/" style="fill-rule:evenodd;clip-rule:evenodd;stroke-linecap:round;stroke-linejoin:round;stroke-miterlimit:2;">
    <g>
        <path d="M59.81,595.647L535.465,595.647C551.234,595.647 566.356,589.382 577.507,578.232C588.657,567.081 594.922,551.958 594.922,536.19L594.922,60.536C594.922,44.767 588.657,29.644 577.507,18.494C566.356,7.344 551.234,1.079 535.465,1.079L59.81,1.079C44.042,1.079 28.918,7.344 17.768,18.494C6.618,29.644 0.354,44.767 0.354,60.536L0.354,536.19C0.354,551.958 6.618,567.081 17.768,578.232C28.918,589.382 44.042,595.647 59.81,595.647Z" style="fill:white;fill-rule:nonzero;"/>
        <path d="M59.81,595.647L535.465,595.647C551.234,595.647 566.356,589.382 577.507,578.232C588.657,567.081 594.922,551.958 594.922,536.19L594.922,60.536C594.922,44.767 588.657,29.644 577.507,18.494C566.356,7.344 551.234,1.079 535.465,1.079L59.81,1.079C44.042,1.079 28.918,7.344 17.768,18.494C6.618,29.644 0.354,44.767 0.354,60.536L0.354,536.19C0.354,551.958 6.618,567.081 17.768,578.232C28.918,589.382 44.042,595.647 59.81,595.647Z" style="fill:none;stroke:rgb(35,31,32);stroke-width:1px;"/>
        <path d="M536.247,74.423C536.247,70.533 534.701,66.801 531.95,64.051C529.2,61.3 525.469,59.754 521.578,59.754L73.697,59.754C65.596,59.754 59.028,66.321 59.028,74.423L59.028,522.304L94.233,522.304L94.233,94.958L501.042,94.958L501.042,522.304L536.247,522.304L536.247,74.423Z" style="fill:rgb(35,31,32);fill-rule:nonzero;"/>
        <path d="M536.247,74.423C536.247,70.533 534.701,66.801 531.95,64.051C529.2,61.3 525.469,59.754 521.578,59.754L73.697,59.754C65.596,59.754 59.028,66.321 59.028,74.423L59.028,522.304L94.233,522.304L94.233,94.958L501.042,94.958L501.042,522.304L536.247,522.304L536.247,74.423Z" style="fill:none;stroke:rgb(35,31,32);stroke-width:0.71px;"/>
        <path d="M392.494,112.561L421.832,112.561C421.832,128.9 428.323,144.57 439.877,156.124C451.431,167.678 467.1,174.169 483.44,174.169L483.44,203.507C459.319,203.507 436.188,193.925 419.132,176.869C402.076,159.813 392.494,136.681 392.494,112.561Z" style="fill:rgb(35,31,32);fill-rule:nonzero;"/>
        <path d="M392.494,112.561L421.832,112.561C421.832,128.9 428.323,144.57 439.877,156.124C451.431,167.678 467.1,174.169 483.44,174.169L483.44,203.507C459.319,203.507 436.188,193.925 419.132,176.869C402.076,159.813 392.494,136.681 392.494,112.561Z" style="fill:none;stroke:rgb(35,31,32);stroke-width:0.71px;"/>
        <path d="M341.154,112.561L370.491,112.561C370.491,142.517 382.392,171.245 403.573,192.428C424.755,213.609 453.484,225.509 483.44,225.509L483.44,254.847C445.704,254.847 409.513,239.856 382.828,213.172C356.146,186.488 341.154,150.297 341.154,112.561Z" style="fill:rgb(35,31,32);fill-rule:nonzero;"/>
        <path d="M341.154,112.561L370.491,112.561C370.491,142.517 382.392,171.245 403.573,192.428C424.755,213.609 453.484,225.509 483.44,225.509L483.44,254.847C445.704,254.847 409.513,239.856 382.828,213.172C356.146,186.488 341.154,150.297 341.154,112.561Z" style="fill:none;stroke:rgb(35,31,32);stroke-width:0.71px;"/>
        <path d="M289.814,112.561L319.151,112.561C319.151,156.133 336.46,197.92 367.271,228.73C398.081,259.54 439.868,276.85 483.44,276.85L483.44,306.187C432.087,306.187 382.837,285.787 346.525,249.475C310.214,213.163 289.814,163.913 289.814,112.561Z" style="fill:rgb(35,31,32);fill-rule:nonzero;"/>
        <path d="M289.814,112.561L319.151,112.561C319.151,156.133 336.46,197.92 367.271,228.73C398.081,259.54 439.868,276.85 483.44,276.85L483.44,306.187C432.087,306.187 382.837,285.787 346.525,249.475C310.214,213.163 289.814,163.913 289.814,112.561Z" style="fill:none;stroke:rgb(35,31,32);stroke-width:0.71px;"/>
        <path d="M220.849,498.833L220.849,412.914L205.715,404.273L205.715,498.833L220.849,498.833Z" style="fill:rgb(35,31,32);fill-rule:nonzero;"/>
        <path d="M220.849,498.833L220.849,412.914L205.715,404.273L205.715,498.833L220.849,498.833Z" style="fill:none;stroke:rgb(35,31,32);stroke-width:0.71px;"/>
        <path d="M288.569,434.855L133.488,346.297C132.094,345.501 131.073,344.185 130.649,342.636C130.227,341.087 130.437,339.434 131.233,338.038L173.075,264.765C173.872,263.371 175.189,262.35 176.738,261.927C178.287,261.503 179.94,261.713 181.334,262.51L336.416,351.066C337.81,351.863 338.831,353.18 339.253,354.729C339.677,356.278 339.467,357.931 338.671,359.326L296.829,432.6C295.17,435.502 291.473,436.513 288.569,434.855Z" style="fill:rgb(35,31,32);fill-rule:nonzero;"/>
        <path d="M288.569,434.855L133.488,346.297C132.094,345.501 131.073,344.185 130.649,342.636C130.227,341.087 130.437,339.434 131.233,338.038L173.075,264.765C173.872,263.371 175.189,262.35 176.738,261.927C178.287,261.503 179.94,261.713 181.334,262.51L336.416,351.066C337.81,351.863 338.831,353.18 339.253,354.729C339.677,356.278 339.467,357.931 338.671,359.326L296.829,432.6C295.17,435.502 291.473,436.513 288.569,434.855Z" style="fill:none;stroke:rgb(35,31,32);stroke-width:0.71px;"/>
        <path d="M371.721,399.112L333.048,387.485L318.223,413.446L347.891,440.844L371.721,399.112Z" style="fill:rgb(35,31,32);fill-rule:nonzero;"/>
        <path d="M371.721,399.112L333.048,387.485L318.223,413.446L347.891,440.844L371.721,399.112Z" style="fill:none;stroke:rgb(35,31,32);stroke-width:0.71px;"/>
    </g>
</svg>
