<?xml version="1.0" encoding="UTF-8" standalone="no"?>
<!DOCTYPE svg PUBLIC "-//W3C//DTD SVG 1.1//EN" "http://www.w3.org/Graphics/SVG/1.1/DTD/svg11.dtd">
<svg width="100%" height="100%" viewBox="0 0 369 316" version="1.1" xmlns="http://www.w3.org/2000/svg" xmlns:xlink="http://www.w3.org/1999/xlink" xml:space="preserve" xmlns:serif="http://www.serif.com/" style="fill-rule:evenodd;clip-rule:evenodd;stroke-miterlimit:2;">
    <g>
        <path d="M66.818,315.853L184.395,247.885L301.971,315.853L324.147,277.405L184.395,196.693L44.643,277.405L66.818,315.853Z" style="fill:white;fill-rule:nonzero;"/>
        <path d="M66.818,315.853L184.395,247.885L301.971,315.853L324.147,277.405L184.395,196.693L44.643,277.405L66.818,315.853Z" style="fill:none;stroke:rgb(35,31,32);stroke-width:0.22px;"/>
        <path d="M22.322,0.493L0.146,39.013L139.971,119.653L0.146,200.437L22.322,238.885L184.395,145.428L346.467,238.885L368.643,200.437L228.819,119.653L368.643,39.013L346.467,0.493L184.395,94.094L22.322,0.493Z" style="fill:white;fill-rule:nonzero;"/>
        <path d="M22.322,0.493L0.146,39.013L139.971,119.653L0.146,200.437L22.322,238.885L184.395,145.428L346.467,238.885L368.643,200.437L228.819,119.653L368.643,39.013L346.467,0.493L184.395,94.094L22.322,0.493Z" style="fill:none;stroke:rgb(35,31,32);stroke-width:0.22px;"/>
        <path d="M151.419,266.965L129.171,228.445L44.643,277.405L66.818,315.853L151.419,266.965Z" style="fill:rgb(211,63,39);fill-rule:nonzero;"/>
        <path d="M151.419,266.965L129.171,228.445L44.643,277.405L66.818,315.853L151.419,266.965Z" style="fill:none;stroke:rgb(211,63,39);stroke-width:0.22px;"/>
        <path d="M217.299,266.965L239.475,228.445L324.147,277.405L301.971,315.853L217.299,266.965Z" style="fill:rgb(211,63,39);fill-rule:nonzero;"/>
        <path d="M217.299,266.965L239.475,228.445L324.147,277.405L301.971,315.853L217.299,266.965Z" style="fill:none;stroke:rgb(211,63,39);stroke-width:0.22px;"/>
        <path d="M253.227,133.837L230.979,172.284L346.467,238.885L368.643,200.437L253.227,133.837Z" style="fill:rgb(211,63,39);fill-rule:nonzero;"/>
        <path d="M253.227,133.837L230.979,172.284L346.467,238.885L368.643,200.437L253.227,133.837Z" style="fill:none;stroke:rgb(211,63,39);stroke-width:0.22px;"/>
        <path d="M0.146,200.437L22.322,238.885L137.811,172.284L115.563,133.837L0.146,200.437Z" style="fill:rgb(211,63,39);fill-rule:nonzero;"/>
        <path d="M0.146,200.437L22.322,238.885L137.811,172.284L115.563,133.837L0.146,200.437Z" style="fill:none;stroke:rgb(211,63,39);stroke-width:0.22px;"/>
        <path d="M230.979,67.094L253.227,105.613L368.643,39.013L346.467,0.493L230.979,67.094Z" style="fill:rgb(211,63,39);fill-rule:nonzero;"/>
        <path d="M230.979,67.094L253.227,105.613L368.643,39.013L346.467,0.493L230.979,67.094Z" style="fill:none;stroke:rgb(211,63,39);stroke-width:0.22px;"/>
        <path d="M22.322,0.493L0.146,39.013L115.563,105.613L137.811,67.094L22.322,0.493Z" style="fill:rgb(211,63,39);fill-rule:nonzero;"/>
        <path d="M22.322,0.493L0.146,39.013L115.563,105.613L137.811,67.094L22.322,0.493Z" style="fill:none;stroke:rgb(211,63,39);stroke-width:0.22px;"/>
    </g>
</svg>
