<?xml version="1.0" encoding="UTF-8" standalone="no"?>
<!DOCTYPE svg PUBLIC "-//W3C//DTD SVG 1.1//EN" "http://www.w3.org/Graphics/SVG/1.1/DTD/svg11.dtd">
<svg width="100%" height="100%" viewBox="0 0 256 224" version="1.1" xmlns="http://www.w3.org/2000/svg" xmlns:xlink="http://www.w3.org/1999/xlink" xml:space="preserve" xmlns:serif="http://www.serif.com/" style="fill-rule:evenodd;clip-rule:evenodd;stroke-miterlimit:2;">
    <g>
        <path d="M135.396,5.013L254.051,210.5C254.844,211.869 255.203,213.38 255.203,214.893C255.203,219.86 251.172,223.893 246.203,223.893L9.107,223.893C4.139,223.893 0.107,219.86 0.107,214.893C0.107,213.38 0.539,211.796 1.259,210.5L119.916,5.013C123.372,-0.891 132.011,-0.891 135.396,5.013Z" style="fill:rgb(211,63,39);fill-rule:nonzero;"/>
        <path d="M135.396,5.013L254.051,210.5C254.844,211.869 255.203,213.38 255.203,214.893C255.203,219.86 251.172,223.893 246.203,223.893L9.107,223.893C4.139,223.893 0.107,219.86 0.107,214.893C0.107,213.38 0.539,211.796 1.259,210.5L119.916,5.013C123.372,-0.891 132.011,-0.891 135.396,5.013Z" style="fill:none;stroke:rgb(211,63,39);stroke-width:0.22px;"/>
        <path d="M39.996,197.037L127.619,45.333L215.315,197.037L39.996,197.037Z" style="fill:white;fill-rule:nonzero;"/>
        <path d="M39.996,197.037L127.619,45.333L215.315,197.037L39.996,197.037Z" style="fill:none;stroke:white;stroke-width:0.22px;"/>
        <path d="M106.164,164.852L114.083,175.652L112.715,177.38L112.5,179.469L106.02,185.013L106.451,187.748L134.675,187.748L132.875,178.028L137.412,170.9L138.491,165.356L139.571,163.557L141.299,160.748L141.875,158.084L142.379,155.781L139.067,139.724L141.299,133.316L147.997,126.261L148.068,116.108L147.347,114.02L148.644,108.909L154.403,100.556L208.619,194.517L46.331,194.517L55.764,178.316L61.019,178.316L63.539,187.677L77.003,187.677L77.003,187.028L70.019,176.732L82.259,165.716L90.323,167.661L91.763,175.725L86.795,186.38L86.723,187.677L98.099,187.677L93.851,181.053L99.395,166.077L106.164,164.852Z" style="fill:rgb(35,31,32);fill-rule:nonzero;"/>
        <path d="M106.164,164.852L114.083,175.652L112.715,177.38L112.5,179.469L106.02,185.013L106.451,187.748L134.675,187.748L132.875,178.028L137.412,170.9L138.491,165.356L139.571,163.557L141.299,160.748L141.875,158.084L142.379,155.781L139.067,139.724L141.299,133.316L147.997,126.261L148.068,116.108L147.347,114.02L148.644,108.909L154.403,100.556L208.619,194.517L46.331,194.517L55.764,178.316L61.019,178.316L63.539,187.677L77.003,187.677L77.003,187.028L70.019,176.732L82.259,165.716L90.323,167.661L91.763,175.725L86.795,186.38L86.723,187.677L98.099,187.677L93.851,181.053L99.395,166.077L106.164,164.852Z" style="fill:none;stroke:rgb(35,31,32);stroke-width:0.22px;"/>
        <path d="M127.907,132.092L132.731,136.483L133.523,148.292L126.54,154.989L115.308,149.661L114.011,140.732L115.308,139.724L121.571,137.493L127.907,132.092Z" style="fill:rgb(35,31,32);fill-rule:nonzero;"/>
        <path d="M127.907,132.092L132.731,136.483L133.523,148.292L126.54,154.989L115.308,149.661L114.011,140.732L115.308,139.724L121.571,137.493L127.907,132.092Z" style="fill:none;stroke:rgb(35,31,32);stroke-width:0.22px;"/>
        <path d="M126.251,127.339L131.147,127.412L139.571,106.821L135.971,108.117L126.251,127.339Z" style="fill:rgb(35,31,32);fill-rule:nonzero;"/>
        <path d="M126.251,127.339L131.147,127.412L139.571,106.821L135.971,108.117L126.251,127.339Z" style="fill:none;stroke:rgb(35,31,32);stroke-width:0.22px;"/>
        <path d="M138.708,117.836L142.021,116.613L136.043,132.884L131.363,132.812L138.708,117.836Z" style="fill:rgb(35,31,32);fill-rule:nonzero;"/>
        <path d="M138.708,117.836L142.021,116.613L136.043,132.884L131.363,132.812L138.708,117.836Z" style="fill:none;stroke:rgb(35,31,32);stroke-width:0.22px;"/>
    </g>
</svg>
