<?xml version="1.0" encoding="UTF-8" standalone="no"?>
<!DOCTYPE svg PUBLIC "-//W3C//DTD SVG 1.1//EN" "http://www.w3.org/Graphics/SVG/1.1/DTD/svg11.dtd">
<svg width="100%" height="100%" viewBox="0 0 228 228" version="1.1" xmlns="http://www.w3.org/2000/svg" xmlns:xlink="http://www.w3.org/1999/xlink" xml:space="preserve" xmlns:serif="http://www.serif.com/" style="fill-rule:evenodd;clip-rule:evenodd;stroke-miterlimit:2;">
    <g>
        <path d="M227.123,114.276C227.123,51.997 176.003,0.877 113.723,0.877C51.227,0.877 0.107,51.997 0.107,114.276C0.107,176.772 51.227,227.893 113.723,227.893C176.003,227.893 227.123,176.772 227.123,114.276Z" style="fill:rgb(211,63,39);fill-rule:nonzero;"/>
        <path d="M227.123,114.276C227.123,51.997 176.003,0.877 113.723,0.877C51.227,0.877 0.107,51.997 0.107,114.276C0.107,176.772 51.227,227.893 113.723,227.893C176.003,227.893 227.123,176.772 227.123,114.276Z" style="fill:none;stroke:rgb(211,63,39);stroke-width:0.22px;"/>
        <rect x="11.195" y="97.501" width="204.552" height="34.056" style="fill:white;fill-rule:nonzero;"/>
        <rect x="11.195" y="97.501" width="204.552" height="34.056" style="fill:none;stroke:white;stroke-width:0.22px;"/>
    </g>
</svg>
