<?xml version="1.0" encoding="UTF-8" standalone="no"?>
<!DOCTYPE svg PUBLIC "-//W3C//DTD SVG 1.1//EN" "http://www.w3.org/Graphics/SVG/1.1/DTD/svg11.dtd">
<svg width="100%" height="100%" viewBox="0 0 243 213" version="1.1" xmlns="http://www.w3.org/2000/svg" xmlns:xlink="http://www.w3.org/1999/xlink" xml:space="preserve" xmlns:serif="http://www.serif.com/" style="fill-rule:evenodd;clip-rule:evenodd;stroke-miterlimit:2;">
    <g>
        <path d="M128.771,4.597L241.523,200.148C242.387,201.3 242.675,202.956 242.675,204.396C242.675,208.932 239.003,212.892 234.179,212.892L8.603,212.892C3.779,212.892 0.107,208.932 0.107,204.396C0.107,202.668 0.395,201.3 1.187,200.148L114.011,4.597C117.395,-1.091 125.315,-1.091 128.771,4.597Z" style="fill:rgb(211,63,39);fill-rule:nonzero;"/>
        <path d="M128.771,4.597L241.523,200.148C242.387,201.3 242.675,202.956 242.675,204.396C242.675,208.932 239.003,212.892 234.179,212.892L8.603,212.892C3.779,212.892 0.107,208.932 0.107,204.396C0.107,202.668 0.395,201.3 1.187,200.148L114.011,4.597C117.395,-1.091 125.315,-1.091 128.771,4.597Z" style="fill:none;stroke:rgb(211,63,39);stroke-width:0.22px;"/>
        <path d="M204.732,187.405L38.051,187.405L121.355,42.829L204.732,187.405Z" style="fill:white;fill-rule:nonzero;"/>
        <path d="M204.732,187.405L38.051,187.405L121.355,42.829L204.732,187.405Z" style="fill:none;stroke:white;stroke-width:0.22px;"/>
        <path d="M41.723,184.812L41.435,184.812C41.435,185.1 41.723,185.1 41.723,185.1L200.484,185.1L81.683,115.692L81.395,115.692L41.723,184.812Z" style="fill:rgb(35,31,32);fill-rule:nonzero;"/>
        <path d="M41.723,184.812L41.435,184.812C41.435,185.1 41.723,185.1 41.723,185.1L200.484,185.1L81.683,115.692L81.395,115.692L41.723,184.812Z" style="fill:none;stroke:rgb(35,31,32);stroke-width:0.22px;"/>
        <path d="M110.339,117.924C110.339,113.964 107.171,110.869 103.211,110.869C99.251,110.869 96.155,113.964 96.155,117.924C96.155,121.884 99.251,125.053 103.211,125.053C107.171,125.053 110.339,121.884 110.339,117.924Z" style="fill:rgb(35,31,32);fill-rule:nonzero;"/>
        <path d="M110.339,117.924C110.339,113.964 107.171,110.869 103.211,110.869C99.251,110.869 96.155,113.964 96.155,117.924C96.155,121.884 99.251,125.053 103.211,125.053C107.171,125.053 110.339,121.884 110.339,117.924Z" style="fill:none;stroke:rgb(35,31,32);stroke-width:0.22px;"/>
        <path d="M154.835,143.989C154.835,140.315 151.667,136.932 147.707,136.932C143.747,136.932 140.651,140.315 140.651,143.989C140.651,148.02 143.747,151.405 147.707,151.405C151.667,151.405 154.835,148.02 154.835,143.989Z" style="fill:rgb(35,31,32);fill-rule:nonzero;"/>
        <path d="M154.835,143.989C154.835,140.315 151.667,136.932 147.707,136.932C143.747,136.932 140.651,140.315 140.651,143.989C140.651,148.02 143.747,151.405 147.707,151.405C151.667,151.405 154.835,148.02 154.835,143.989Z" style="fill:none;stroke:rgb(35,31,32);stroke-width:0.22px;"/>
        <path d="M120.491,87.613L151.667,106.044C153.107,106.909 153.971,108.348 153.971,109.716L153.395,123.9C153.395,125.053 154.259,126.42 155.412,126.996L168.155,134.411C169.307,135.204 169.811,136.356 169.811,137.796C169.811,138.372 169.523,138.949 169.307,139.524L163.907,148.812C162.756,150.828 160.235,151.405 158.22,150.252L155.412,148.812C156.203,147.444 156.491,145.716 156.491,144.276C156.491,139.524 152.531,135.493 147.707,135.493C144.611,135.493 141.804,136.932 140.075,139.741L110.339,122.459C111.203,121.092 111.707,119.651 111.707,117.924C111.707,113.1 107.747,109.14 102.923,109.14C99.827,109.14 96.731,110.869 95.291,113.388L89.603,110.292C87.659,109.14 86.795,106.332 88.235,104.316L93.635,95.029C94.427,93.301 96.731,92.724 98.675,93.877L100.403,94.741C100.691,95.029 101.267,95.245 101.843,95.245C102.131,95.245 102.707,95.029 102.923,94.741L116.243,87.613C117.683,87.037 119.123,87.037 120.491,87.613Z" style="fill:rgb(35,31,32);fill-rule:nonzero;"/>
        <path d="M120.491,87.613L151.667,106.044C153.107,106.909 153.971,108.348 153.971,109.716L153.395,123.9C153.395,125.053 154.259,126.42 155.412,126.996L168.155,134.411C169.307,135.204 169.811,136.356 169.811,137.796C169.811,138.372 169.523,138.949 169.307,139.524L163.907,148.812C162.756,150.828 160.235,151.405 158.22,150.252L155.412,148.812C156.203,147.444 156.491,145.716 156.491,144.276C156.491,139.524 152.531,135.493 147.707,135.493C144.611,135.493 141.804,136.932 140.075,139.741L110.339,122.459C111.203,121.092 111.707,119.651 111.707,117.924C111.707,113.1 107.747,109.14 102.923,109.14C99.827,109.14 96.731,110.869 95.291,113.388L89.603,110.292C87.659,109.14 86.795,106.332 88.235,104.316L93.635,95.029C94.427,93.301 96.731,92.724 98.675,93.877L100.403,94.741C100.691,95.029 101.267,95.245 101.843,95.245C102.131,95.245 102.707,95.029 102.923,94.741L116.243,87.613C117.683,87.037 119.123,87.037 120.491,87.613Z" style="fill:none;stroke:rgb(35,31,32);stroke-width:0.22px;"/>
        <path d="M149.723,111.444L149.723,123.036C149.723,123.325 149.147,123.325 148.859,123.325L131.579,113.1L137.555,103.236L149.147,109.716C149.435,110.292 149.723,110.869 149.723,111.444Z" style="fill:white;fill-rule:nonzero;"/>
        <path d="M149.723,111.444L149.723,123.036C149.723,123.325 149.147,123.325 148.859,123.325L131.579,113.1L137.555,103.236L149.147,109.716C149.435,110.292 149.723,110.869 149.723,111.444Z" style="fill:none;stroke:rgb(35,31,32);stroke-width:0.22px;"/>
        <path d="M134.387,101.221L128.483,111.444L111.203,101.221L121.931,95.245C122.507,95.029 123.371,95.029 124.235,95.245L134.387,101.221Z" style="fill:white;fill-rule:nonzero;"/>
        <path d="M134.387,101.221L128.483,111.444L111.203,101.221L121.931,95.245C122.507,95.029 123.371,95.029 124.235,95.245L134.387,101.221Z" style="fill:none;stroke:rgb(35,31,32);stroke-width:0.22px;"/>
    </g>
</svg>
