<?xml version="1.0" encoding="UTF-8" standalone="no"?>
<!DOCTYPE svg PUBLIC "-//W3C//DTD SVG 1.1//EN" "http://www.w3.org/Graphics/SVG/1.1/DTD/svg11.dtd">
<svg width="100%" height="100%" viewBox="0 0 256 224" version="1.1" xmlns="http://www.w3.org/2000/svg" xmlns:xlink="http://www.w3.org/1999/xlink" xml:space="preserve" xmlns:serif="http://www.serif.com/" style="fill-rule:evenodd;clip-rule:evenodd;stroke-miterlimit:2;">
    <g>
        <path d="M135.396,5.013L253.979,210.5C254.844,211.869 255.203,213.38 255.203,214.964C255.203,219.86 251.243,223.892 246.275,223.892L9.035,223.892C4.139,223.892 0.107,219.86 0.107,214.964C0.107,213.38 0.539,211.796 1.331,210.429L119.916,5.013C123.372,-0.963 131.939,-0.963 135.467,5.085L135.396,5.013Z" style="fill:rgb(211,63,39);fill-rule:nonzero;"/>
        <path d="M135.396,5.013L253.979,210.5C254.844,211.869 255.203,213.38 255.203,214.964C255.203,219.86 251.243,223.892 246.275,223.892L9.035,223.892C4.139,223.892 0.107,219.86 0.107,214.964C0.107,213.38 0.539,211.796 1.331,210.429L119.916,5.013C123.372,-0.963 131.939,-0.963 135.467,5.085L135.396,5.013Z" style="fill:none;stroke:rgb(211,63,39);stroke-width:0.22px;"/>
        <path d="M127.691,45.261L215.315,197.036L39.996,197.036L127.691,45.261Z" style="fill:white;fill-rule:nonzero;"/>
        <path d="M127.691,45.261L215.315,197.036L39.996,197.036L127.691,45.261Z" style="fill:none;stroke:white;stroke-width:0.22px;"/>
        <path d="M154.259,103.221L128.771,96.309L128.627,96.309C128.268,96.309 127.979,96.597 127.979,96.957C127.979,97.101 127.979,97.173 128.05,97.245L131.795,103.651L112.644,110.708C98.027,116.036 88.307,130.005 88.307,145.556L88.307,189.044L104.363,189.044L104.363,145.483C104.363,136.772 109.835,128.925 118.043,125.9L137.339,118.772L138.635,126.044C138.708,126.332 138.996,126.548 139.283,126.548C139.5,126.548 139.644,126.476 139.788,126.261L154.763,104.588C154.835,104.444 154.907,104.228 154.907,104.084C154.907,103.651 154.619,103.292 154.259,103.221Z" style="fill:rgb(35,31,32);fill-rule:nonzero;"/>
        <path d="M154.259,103.221L128.771,96.309L128.627,96.309C128.268,96.309 127.979,96.597 127.979,96.957C127.979,97.101 127.979,97.173 128.05,97.245L131.795,103.651L112.644,110.708C98.027,116.036 88.307,130.005 88.307,145.556L88.307,189.044L104.363,189.044L104.363,145.483C104.363,136.772 109.835,128.925 118.043,125.9L137.339,118.772L138.635,126.044C138.708,126.332 138.996,126.548 139.283,126.548C139.5,126.548 139.644,126.476 139.788,126.261L154.763,104.588C154.835,104.444 154.907,104.228 154.907,104.084C154.907,103.651 154.619,103.292 154.259,103.221Z" style="fill:none;stroke:rgb(35,31,32);stroke-width:0.22px;"/>
    </g>
</svg>
