<?xml version="1.0" encoding="UTF-8" standalone="no"?>
<!DOCTYPE svg PUBLIC "-//W3C//DTD SVG 1.1//EN" "http://www.w3.org/Graphics/SVG/1.1/DTD/svg11.dtd">
<svg width="100%" height="100%" viewBox="0 0 497 709" version="1.1" xmlns="http://www.w3.org/2000/svg" xmlns:xlink="http://www.w3.org/1999/xlink" xml:space="preserve" xmlns:serif="http://www.serif.com/" style="fill-rule:evenodd;clip-rule:evenodd;stroke-linejoin:round;stroke-miterlimit:2;">
    <g>
        <path d="M0,709L496.25,709L248.25,489.25L0,709ZM0,354.5L0,574.25L248.25,354.5L496.25,574.25L496.25,354.5L248.25,135L0,354.5ZM248.25,0.25L496.25,220L496.25,0.25L248.25,0.25ZM0,220L248.25,0.25L0,0.25L0,220Z"/>
        <path d="M248.25,0.25L0,220L0,354.5L248.25,135L496.25,354.5L496.25,220L248.25,0.25ZM0,574.25L0,709L248.25,489.25L496.25,709L496.25,574.25L248.25,354.5L0,574.25Z" style="fill:rgb(252,185,20);"/>
    </g>
</svg>
