<?xml version="1.0" encoding="UTF-8" standalone="no"?>
<!DOCTYPE svg PUBLIC "-//W3C//DTD SVG 1.1//EN" "http://www.w3.org/Graphics/SVG/1.1/DTD/svg11.dtd">
<svg width="100%" height="100%" viewBox="0 0 315 315" version="1.1" xmlns="http://www.w3.org/2000/svg" xmlns:xlink="http://www.w3.org/1999/xlink" xml:space="preserve" xmlns:serif="http://www.serif.com/" style="fill-rule:evenodd;clip-rule:evenodd;stroke-linejoin:round;stroke-miterlimit:2;">
    <g>
        <path d="M314.25,24.5L311.75,18L308,12L303,7L297,3.25L290.5,1L283.5,0L31.5,0L24.5,1L18,3.25L12,7L6.75,12L3,18L0.75,24.5L0,31.5L0,283.5L0.75,290.5L3,297.25L6.75,303.25L12,308.25L18,312L24.5,314.25L31.5,315L283.5,315L290.5,314.25L297,312L303,308.25L308,303.25L311.75,297.25L314.25,290.5L315,283.5L315,31.5L314.25,24.5Z" style="fill:rgb(248,152,40);"/>
        <path d="M276.5,146.75L275.25,136L272.75,125.25L269.25,115L265,105L259.75,95.5L253.5,86.5L246.75,77.75L239.25,70L231,63L222,56.75L212.5,51.25L202.5,46.75L192.25,43L181.75,40.5L171,38.5L160.25,38L149.25,38.25L138.5,39.5L127.75,41.5L117.25,44.75L107.25,49L97.75,54L88.5,59.75L79.75,66.5L72,74L64.75,82L58.25,90.75L52.5,100L47.75,110L43.75,120L41,130.5L39,141.25L38,152.25L38,163L39,173.75L41,184.5L43.75,195L47.75,205.25L52.5,215L58.25,224.5L64.75,233.25L72,241.25L79.75,248.5L88.5,255.25L97.75,261.25L107.25,266.25L117.25,270.25L127.75,273.5L138.5,275.75L149.25,277L160.25,277.25L171,276.5L181.75,274.75L192.25,272L202.5,268.5L212.5,263.75L222,258.25L231,252L239.25,245L246.75,237.25L253.5,228.75L259.75,219.75L265,210.25L269.25,200.25L272.75,189.75L275.25,179.25L276.5,168.5L277,157.5L276.5,146.75Z" style="fill:rgb(35,31,32);"/>
    </g>
</svg>
