<?xml version="1.0" encoding="UTF-8" standalone="no"?>
<!DOCTYPE svg PUBLIC "-//W3C//DTD SVG 1.1//EN" "http://www.w3.org/Graphics/SVG/1.1/DTD/svg11.dtd">
<svg width="100%" height="100%" viewBox="0 0 298 397" version="1.1" xmlns="http://www.w3.org/2000/svg" xmlns:xlink="http://www.w3.org/1999/xlink" xml:space="preserve" xmlns:serif="http://www.serif.com/" style="fill-rule:evenodd;clip-rule:evenodd;stroke-linecap:round;stroke-linejoin:round;stroke-miterlimit:2;">
    <g>
        <path d="M3.644,379.482L3.644,17.788C3.644,14.108 5.106,10.579 7.708,7.977C10.31,5.376 13.838,3.914 17.518,3.914L280.118,3.914C287.78,3.914 293.992,10.126 293.992,17.788L293.992,379.482C293.992,383.162 292.53,386.691 289.929,389.292C287.327,391.894 283.798,393.356 280.118,393.356L17.518,393.356C9.856,393.356 3.644,387.144 3.644,379.482Z" style="fill:rgb(35,31,32);fill-rule:nonzero;"/>
        <path d="M3.644,379.482L3.644,17.788C3.644,14.108 5.106,10.579 7.708,7.977C10.31,5.376 13.838,3.914 17.518,3.914L280.118,3.914C287.78,3.914 293.992,10.126 293.992,17.788L293.992,379.482C293.992,383.162 292.53,386.691 289.929,389.292C287.327,391.894 283.798,393.356 280.118,393.356L17.518,393.356C9.856,393.356 3.644,387.144 3.644,379.482Z" style="fill:none;stroke:rgb(35,31,32);stroke-width:0.35px;"/>
        <path d="M10.581,379.482L10.581,17.788C10.581,15.948 11.312,14.184 12.613,12.883C13.914,11.582 15.678,10.851 17.518,10.851L280.118,10.851C281.958,10.851 283.723,11.582 285.024,12.883C286.325,14.184 287.056,15.948 287.056,17.788L287.056,379.482C287.056,383.314 283.95,386.419 280.118,386.419L17.518,386.419C15.678,386.419 13.914,385.688 12.613,384.387C11.312,383.086 10.581,381.323 10.581,379.482Z" style="fill:white;fill-rule:nonzero;"/>
        <path d="M10.581,379.482L10.581,17.788C10.581,15.948 11.312,14.184 12.613,12.883C13.914,11.582 15.678,10.851 17.518,10.851L280.118,10.851C281.958,10.851 283.723,11.582 285.024,12.883C286.325,14.184 287.056,15.948 287.056,17.788L287.056,379.482C287.056,383.314 283.95,386.419 280.118,386.419L17.518,386.419C15.678,386.419 13.914,385.688 12.613,384.387C11.312,383.086 10.581,381.323 10.581,379.482Z" style="fill:none;stroke:black;stroke-width:0.35px;"/>
        <path d="M223.14,182.284C223.14,141.238 189.864,107.963 148.818,107.963C107.772,107.963 74.497,141.238 74.497,182.284C74.497,223.331 107.772,256.605 148.818,256.605C189.864,256.605 223.14,223.331 223.14,182.284Z" style="fill:rgb(211,63,39);fill-rule:nonzero;"/>
        <path d="M223.14,182.284C223.14,141.238 189.864,107.963 148.818,107.963C107.772,107.963 74.497,141.238 74.497,182.284C74.497,223.331 107.772,256.605 148.818,256.605C189.864,256.605 223.14,223.331 223.14,182.284Z" style="fill:none;stroke:rgb(241,93,42);stroke-width:0.35px;"/>
        <path d="M191.38,218.277C210.097,196.146 208.728,163.364 188.233,142.87C167.738,122.374 134.957,121.006 112.825,139.722L191.38,218.277Z" style="fill:rgb(0,104,178);fill-rule:nonzero;"/>
        <path d="M191.38,218.277C210.097,196.146 208.728,163.364 188.233,142.87C167.738,122.374 134.957,121.006 112.825,139.722L191.38,218.277Z" style="fill:none;stroke:rgb(0,104,178);stroke-width:0.35px;"/>
        <path d="M184.812,224.846L106.256,146.291C87.541,168.422 88.909,201.205 109.404,221.699C129.897,242.194 162.681,243.562 184.812,224.846Z" style="fill:rgb(0,104,178);fill-rule:nonzero;"/>
        <path d="M184.812,224.846L106.256,146.291C87.541,168.422 88.909,201.205 109.404,221.699C129.897,242.194 162.681,243.562 184.812,224.846Z" style="fill:none;stroke:rgb(0,104,178);stroke-width:0.35px;"/>
        <path d="M87.984,93.016C76.6,96.327 64.315,93.774 55.193,86.201L61.535,78.562C67.764,83.734 76.06,85.681 83.94,83.818C87.366,83.008 89.881,80.084 90.169,76.574C90.457,73.065 88.452,69.769 85.203,68.412C83.523,67.711 81.791,67.142 80.022,66.71L73.894,65.216C70.946,64.497 68.135,63.302 65.571,61.679C60.447,58.433 57.467,52.68 57.773,46.622C58.079,40.564 61.623,35.14 67.048,32.428C68.379,31.762 69.764,31.213 71.189,30.785C79.102,28.412 87.622,29.147 95.01,32.841C96.625,33.648 98.152,34.615 99.572,35.729L93.039,43.611C91.317,42.184 89.333,41.106 87.198,40.439C82.609,39.005 77.68,39.084 73.14,40.663C70.435,41.604 68.544,44.057 68.322,46.911C68.1,49.766 69.589,52.481 72.116,53.829C73.417,54.523 74.798,55.053 76.229,55.406L82.542,56.967C85.238,57.633 87.867,58.548 90.395,59.7C97.172,62.788 101.313,69.767 100.776,77.196C100.238,84.625 95.136,90.935 87.984,93.016Z" style="fill:rgb(35,31,32);fill-rule:nonzero;"/>
        <path d="M87.984,93.016C76.6,96.327 64.315,93.774 55.193,86.201L61.535,78.562C67.764,83.734 76.06,85.681 83.94,83.818C87.366,83.008 89.881,80.084 90.169,76.574C90.457,73.065 88.452,69.769 85.203,68.412C83.523,67.711 81.791,67.142 80.022,66.71L73.894,65.216C70.946,64.497 68.135,63.302 65.571,61.679C60.447,58.433 57.467,52.68 57.773,46.622C58.079,40.564 61.623,35.14 67.048,32.428C68.379,31.762 69.764,31.213 71.189,30.785C79.102,28.412 87.622,29.147 95.01,32.841C96.625,33.648 98.152,34.615 99.572,35.729L93.039,43.611C91.317,42.184 89.333,41.106 87.198,40.439C82.609,39.005 77.68,39.084 73.14,40.663C70.435,41.604 68.544,44.057 68.322,46.911C68.1,49.766 69.589,52.481 72.116,53.829C73.417,54.523 74.798,55.053 76.229,55.406L82.542,56.967C85.238,57.633 87.867,58.548 90.395,59.7C97.172,62.788 101.313,69.767 100.776,77.196C100.238,84.625 95.136,90.935 87.984,93.016Z" style="fill:none;stroke:rgb(35,31,32);stroke-width:0.35px;"/>
        <path d="M112.08,61.651C110.632,67.648 110.632,73.904 112.08,79.9C114.126,88.378 121.712,94.351 130.434,94.351C139.154,94.351 146.74,88.378 148.787,79.9C150.235,73.904 150.235,67.648 148.787,61.651C146.74,53.175 139.154,47.202 130.434,47.202C121.712,47.202 114.126,53.175 112.08,61.651Z" style="fill:rgb(35,31,32);fill-rule:nonzero;"/>
        <path d="M112.08,61.651C110.632,67.648 110.632,73.904 112.08,79.9C114.126,88.378 121.712,94.351 130.434,94.351C139.154,94.351 146.74,88.378 148.787,79.9C150.235,73.904 150.235,67.648 148.787,61.651C146.74,53.175 139.154,47.202 130.434,47.202C121.712,47.202 114.126,53.175 112.08,61.651Z" style="fill:none;stroke:rgb(35,31,32);stroke-width:0.35px;"/>
        <path d="M121.496,62.702C119.994,67.98 119.994,73.572 121.496,78.851C122.633,82.845 126.281,85.6 130.434,85.6C134.586,85.6 138.234,82.845 139.37,78.851C140.872,73.572 140.872,67.98 139.37,62.702C138.234,58.708 134.586,55.953 130.434,55.953C126.281,55.953 122.633,58.708 121.496,62.702Z" style="fill:white;fill-rule:nonzero;"/>
        <path d="M121.496,62.702C119.994,67.98 119.994,73.572 121.496,78.851C122.633,82.845 126.281,85.6 130.434,85.6C134.586,85.6 138.234,82.845 139.37,78.851C140.872,73.572 140.872,67.98 139.37,62.702C138.234,58.708 134.586,55.953 130.434,55.953C126.281,55.953 122.633,58.708 121.496,62.702Z" style="fill:none;stroke:rgb(35,31,32);stroke-width:0.29px;"/>
        <path d="M195.33,93.1L195.33,62.829C195.33,58.684 193.684,54.709 190.753,51.779C187.822,48.849 183.848,47.202 179.704,47.202C175.589,47.202 171.604,48.652 168.452,51.298L168.452,48.453L159.076,48.453L159.076,93.1L168.452,93.1L168.452,64.704C168.452,61.577 170.12,58.688 172.827,57.125C175.535,55.562 178.871,55.562 181.579,57.125C184.286,58.688 185.954,61.577 185.954,64.704L185.954,93.1L195.33,93.1Z" style="fill:rgb(35,31,32);fill-rule:nonzero;"/>
        <path d="M195.33,93.1L195.33,62.829C195.33,58.684 193.684,54.709 190.753,51.779C187.822,48.849 183.848,47.202 179.704,47.202C175.589,47.202 171.604,48.652 168.452,51.298L168.452,48.453L159.076,48.453L159.076,93.1L168.452,93.1L168.452,64.704C168.452,61.577 170.12,58.688 172.827,57.125C175.535,55.562 178.871,55.562 181.579,57.125C184.286,58.688 185.954,61.577 185.954,64.704L185.954,93.1L195.33,93.1Z" style="fill:none;stroke:rgb(35,31,32);stroke-width:0.35px;"/>
        <path d="M72.623,276.279C71.724,277.819 71.048,279.478 70.616,281.208C69.368,286.202 69.368,291.426 70.616,296.419C71.048,298.15 71.724,299.808 72.623,301.349C74.639,304.802 78.326,306.938 82.325,306.967C86.324,306.938 90.011,304.802 92.027,301.349C92.925,299.808 93.601,298.15 94.033,296.419C95.282,291.426 95.282,286.202 94.033,281.208C93.601,279.478 92.925,277.819 92.027,276.279C90.011,272.825 86.324,270.69 82.325,270.661C78.326,270.69 74.639,272.825 72.623,276.279Z" style="fill:rgb(35,31,32);fill-rule:nonzero;"/>
        <path d="M72.623,276.279C71.724,277.819 71.048,279.478 70.616,281.208C69.368,286.202 69.368,291.426 70.616,296.419C71.048,298.15 71.724,299.808 72.623,301.349C74.639,304.802 78.326,306.938 82.325,306.967C86.324,306.938 90.011,304.802 92.027,301.349C92.925,299.808 93.601,298.15 94.033,296.419C95.282,291.426 95.282,286.202 94.033,281.208C93.601,279.478 92.925,277.819 92.027,276.279C90.011,272.825 86.324,270.69 82.325,270.661C78.326,270.69 74.639,272.825 72.623,276.279Z" style="fill:none;stroke:black;stroke-width:0.35px;"/>
        <path d="M223.425,94.351C215.146,94.351 207.892,88.811 205.709,80.825C203.912,74.246 203.912,67.306 205.709,60.727C207.892,52.741 215.146,47.202 223.425,47.202C231.704,47.202 238.96,52.741 241.142,60.727C242.202,64.608 242.642,68.633 242.444,72.651L213.798,72.651C213.95,74.97 214.382,77.262 215.085,79.476C216.245,83.108 219.612,85.58 223.425,85.599C227.657,85.599 231.519,83.186 233.376,79.384L241.239,83.222C237.916,90.031 231.003,94.35 223.425,94.351Z" style="fill:rgb(35,31,32);fill-rule:nonzero;"/>
        <path d="M223.425,94.351C215.146,94.351 207.892,88.811 205.709,80.825C203.912,74.246 203.912,67.306 205.709,60.727C207.892,52.741 215.146,47.202 223.425,47.202C231.704,47.202 238.96,52.741 241.142,60.727C242.202,64.608 242.642,68.633 242.444,72.651L213.798,72.651C213.95,74.97 214.382,77.262 215.085,79.476C216.245,83.108 219.612,85.58 223.425,85.599C227.657,85.599 231.519,83.186 233.376,79.384L241.239,83.222C237.916,90.031 231.003,94.35 223.425,94.351Z" style="fill:none;stroke:rgb(35,31,32);stroke-width:0.35px;"/>
        <path d="M215.085,62.076C214.765,63.086 214.5,64.112 214.292,65.15L232.558,65.15C232.351,64.112 232.087,63.086 231.767,62.076C230.612,58.442 227.238,55.973 223.425,55.973C219.612,55.973 216.239,58.442 215.085,62.076Z" style="fill:white;fill-rule:nonzero;"/>
        <path d="M215.085,62.076C214.765,63.086 214.5,64.112 214.292,65.15L232.558,65.15C232.351,64.112 232.087,63.086 231.767,62.076C230.612,58.442 227.238,55.973 223.425,55.973C219.612,55.973 216.239,58.442 215.085,62.076Z" style="fill:none;stroke:rgb(35,31,32);stroke-width:0.25px;"/>
        <path d="M77.94,278.979C77.309,280.148 76.827,281.391 76.504,282.68C75.498,286.707 75.498,290.92 76.504,294.948C76.826,296.233 77.307,297.473 77.936,298.639C78.808,300.256 80.488,301.274 82.325,301.296C84.162,301.274 85.842,300.256 86.714,298.639C87.343,297.473 87.824,296.233 88.145,294.948C89.152,290.92 89.152,286.707 88.145,282.68C87.823,281.391 87.34,280.148 86.71,278.979C85.837,277.365 84.16,276.349 82.325,276.326C80.49,276.349 78.812,277.365 77.94,278.979Z" style="fill:white;fill-rule:nonzero;"/>
        <path d="M77.94,278.979C77.309,280.148 76.827,281.391 76.504,282.68C75.498,286.707 75.498,290.92 76.504,294.948C76.826,296.233 77.307,297.473 77.936,298.639C78.808,300.256 80.488,301.274 82.325,301.296C84.162,301.274 85.842,300.256 86.714,298.639C87.343,297.473 87.824,296.233 88.145,294.948C89.152,290.92 89.152,286.707 88.145,282.68C87.823,281.391 87.34,280.148 86.71,278.979C85.837,277.365 84.16,276.349 82.325,276.326C80.49,276.349 78.812,277.365 77.94,278.979Z" style="fill:none;stroke:rgb(35,31,32);stroke-width:0.19px;"/>
        <path d="M116.984,306.826C122.428,306.167 126.522,301.548 126.522,296.066C126.469,292.729 124.756,289.638 121.956,287.823C124.262,286.196 125.656,283.569 125.713,280.748C125.713,275.45 121.593,271.066 116.306,270.737C115.219,270.634 114.125,270.634 113.039,270.737C107.751,271.066 103.631,275.45 103.631,280.748C103.688,283.569 105.083,286.196 107.389,287.823C104.588,289.638 102.876,292.729 102.822,296.066C102.822,301.548 106.917,306.167 112.359,306.826C113.896,307.014 115.449,307.014 116.984,306.826Z" style="fill:rgb(35,31,32);fill-rule:nonzero;"/>
        <path d="M116.984,306.826C122.428,306.167 126.522,301.548 126.522,296.066C126.469,292.729 124.756,289.638 121.956,287.823C124.262,286.196 125.656,283.569 125.713,280.748C125.713,275.45 121.593,271.066 116.306,270.737C115.219,270.634 114.125,270.634 113.039,270.737C107.751,271.066 103.631,275.45 103.631,280.748C103.688,283.569 105.083,286.196 107.389,287.823C104.588,289.638 102.876,292.729 102.822,296.066C102.822,301.548 106.917,306.167 112.359,306.826C113.896,307.014 115.449,307.014 116.984,306.826Z" style="fill:none;stroke:black;stroke-width:0.33px;"/>
        <rect x="142.85" y="287.742" width="11.937" height="5.665" style="fill:rgb(35,31,32);"/>
        <rect x="142.85" y="287.742" width="11.937" height="5.665" style="fill:none;stroke:black;stroke-width:0.17px;"/>
        <path d="M175.274,271.469L171.114,275.628L171.114,281.585L174.87,279.417L174.87,306.153L180.938,306.153L180.938,271.469L175.274,271.469Z" style="fill:rgb(35,31,32);fill-rule:nonzero;"/>
        <path d="M175.274,271.469L171.114,275.628L171.114,281.585L174.87,279.417L174.87,306.153L180.938,306.153L180.938,271.469L175.274,271.469Z" style="fill:none;stroke:black;stroke-width:0.14px;"/>
        <path d="M113.775,285.133C114.372,285.182 114.972,285.182 115.569,285.133C117.86,284.964 119.635,283.06 119.644,280.763C119.652,278.466 117.892,276.549 115.602,276.364C114.983,276.312 114.361,276.312 113.742,276.364C111.453,276.549 109.692,278.466 109.701,280.763C109.709,283.06 111.484,284.964 113.775,285.133Z" style="fill:white;fill-rule:nonzero;"/>
        <path d="M113.775,285.133C114.372,285.182 114.972,285.182 115.569,285.133C117.86,284.964 119.635,283.06 119.644,280.763C119.652,278.466 117.892,276.549 115.602,276.364C114.983,276.312 114.361,276.312 113.742,276.364C111.453,276.549 109.692,278.466 109.701,280.763C109.709,283.06 111.484,284.964 113.775,285.133Z" style="fill:none;stroke:rgb(35,31,32);stroke-width:0.14px;"/>
        <path d="M115.596,301.261C118.329,301.077 120.452,298.807 120.453,296.068C120.454,293.329 118.333,291.056 115.6,290.87C114.982,290.825 114.362,290.825 113.744,290.87C111.012,291.056 108.891,293.329 108.892,296.068C108.893,298.807 111.016,301.077 113.749,301.261C114.363,301.306 114.98,301.306 115.596,301.261Z" style="fill:white;fill-rule:nonzero;"/>
        <path d="M115.596,301.261C118.329,301.077 120.452,298.807 120.453,296.068C120.454,293.329 118.333,291.056 115.6,290.87C114.982,290.825 114.362,290.825 113.744,290.87C111.012,291.056 108.891,293.329 108.892,296.068C108.893,298.807 111.016,301.077 113.749,301.261C114.363,301.306 114.98,301.306 115.596,301.261Z" style="fill:none;stroke:rgb(35,31,32);stroke-width:0.16px;"/>
        <path d="M202.714,306.826C208.156,306.167 212.251,301.548 212.251,296.066C212.198,292.729 210.485,289.638 207.685,287.823C209.991,286.196 211.386,283.569 211.442,280.748C211.442,275.45 207.321,271.066 202.034,270.737C200.948,270.634 199.854,270.634 198.768,270.737C193.479,271.066 189.36,275.45 189.36,280.748C189.417,283.569 190.812,286.196 193.118,287.823C190.317,289.638 188.604,292.729 188.551,296.066C188.551,301.548 192.646,306.167 198.089,306.826C199.624,307.014 201.177,307.014 202.714,306.826Z" style="fill:rgb(35,31,32);fill-rule:nonzero;"/>
        <path d="M202.714,306.826C208.156,306.167 212.251,301.548 212.251,296.066C212.198,292.729 210.485,289.638 207.685,287.823C209.991,286.196 211.386,283.569 211.442,280.748C211.442,275.45 207.321,271.066 202.034,270.737C200.948,270.634 199.854,270.634 198.768,270.737C193.479,271.066 189.36,275.45 189.36,280.748C189.417,283.569 190.812,286.196 193.118,287.823C190.317,289.638 188.604,292.729 188.551,296.066C188.551,301.548 192.646,306.167 198.089,306.826C199.624,307.014 201.177,307.014 202.714,306.826Z" style="fill:none;stroke:black;stroke-width:0.33px;"/>
        <path d="M66.358,369.656L59.377,369.656C50.218,354.766 50.218,335.989 59.377,321.099L66.358,321.099C57.012,335.935 57.012,354.819 66.358,369.656Z" style="fill:rgb(35,31,32);fill-rule:nonzero;"/>
        <path d="M66.358,369.656L59.377,369.656C50.218,354.766 50.218,335.989 59.377,321.099L66.358,321.099C57.012,335.935 57.012,354.819 66.358,369.656Z" style="fill:none;stroke:black;stroke-width:0.35px;"/>
        <path d="M72.623,335.736C71.724,337.276 71.048,338.935 70.616,340.665C69.368,345.659 69.368,350.882 70.616,355.876C71.048,357.606 71.724,359.265 72.623,360.805C74.639,364.259 78.326,366.394 82.325,366.424C86.324,366.394 90.011,364.259 92.027,360.805C92.925,359.265 93.601,357.606 94.033,355.876C95.282,350.882 95.282,345.659 94.033,340.665C93.601,338.935 92.925,337.276 92.027,335.736C90.011,332.282 86.324,330.146 82.325,330.118C78.326,330.146 74.639,332.282 72.623,335.736Z" style="fill:rgb(35,31,32);fill-rule:nonzero;"/>
        <path d="M72.623,335.736C71.724,337.276 71.048,338.935 70.616,340.665C69.368,345.659 69.368,350.882 70.616,355.876C71.048,357.606 71.724,359.265 72.623,360.805C74.639,364.259 78.326,366.394 82.325,366.424C86.324,366.394 90.011,364.259 92.027,360.805C92.925,359.265 93.601,357.606 94.033,355.876C95.282,350.882 95.282,345.659 94.033,340.665C93.601,338.935 92.925,337.276 92.027,335.736C90.011,332.282 86.324,330.146 82.325,330.118C78.326,330.146 74.639,332.282 72.623,335.736Z" style="fill:none;stroke:black;stroke-width:0.35px;"/>
        <path d="M199.505,285.133C200.101,285.182 200.701,285.182 201.298,285.133C203.589,284.964 205.364,283.06 205.372,280.763C205.381,278.466 203.62,276.549 201.331,276.364C200.712,276.312 200.09,276.312 199.472,276.364C197.182,276.549 195.421,278.466 195.43,280.763C195.438,283.06 197.214,284.964 199.505,285.133Z" style="fill:white;fill-rule:nonzero;"/>
        <path d="M199.505,285.133C200.101,285.182 200.701,285.182 201.298,285.133C203.589,284.964 205.364,283.06 205.372,280.763C205.381,278.466 203.62,276.549 201.331,276.364C200.712,276.312 200.09,276.312 199.472,276.364C197.182,276.549 195.421,278.466 195.43,280.763C195.438,283.06 197.214,284.964 199.505,285.133Z" style="fill:none;stroke:rgb(35,31,32);stroke-width:0.14px;"/>
        <path d="M201.325,301.261C204.058,301.077 206.181,298.807 206.182,296.068C206.183,293.329 204.062,291.056 201.329,290.87C200.712,290.825 200.091,290.825 199.474,290.87C196.74,291.056 194.619,293.329 194.62,296.068C194.622,298.807 196.744,301.077 199.478,301.261C200.093,301.306 200.71,301.306 201.325,301.261Z" style="fill:white;fill-rule:nonzero;"/>
        <path d="M201.325,301.261C204.058,301.077 206.181,298.807 206.182,296.068C206.183,293.329 204.062,291.056 201.329,290.87C200.712,290.825 200.091,290.825 199.474,290.87C196.74,291.056 194.619,293.329 194.62,296.068C194.622,298.807 196.744,301.077 199.478,301.261C200.093,301.306 200.71,301.306 201.325,301.261Z" style="fill:none;stroke:rgb(35,31,32);stroke-width:0.16px;"/>
        <path d="M77.94,338.436C77.309,339.605 76.827,340.848 76.504,342.137C75.498,346.164 75.498,350.377 76.504,354.404C76.826,355.69 77.307,356.93 77.936,358.096C78.808,359.713 80.488,360.73 82.325,360.753C84.162,360.73 85.842,359.713 86.714,358.096C87.343,356.93 87.824,355.69 88.145,354.404C89.152,350.377 89.152,346.164 88.145,342.137C87.823,340.848 87.34,339.605 86.71,338.436C85.837,336.822 84.16,335.806 82.325,335.783C80.49,335.806 78.812,336.822 77.94,338.436Z" style="fill:white;fill-rule:nonzero;"/>
        <path d="M77.94,338.436C77.309,339.605 76.827,340.848 76.504,342.137C75.498,346.164 75.498,350.377 76.504,354.404C76.826,355.69 77.307,356.93 77.936,358.096C78.808,359.713 80.488,360.73 82.325,360.753C84.162,360.73 85.842,359.713 86.714,358.096C87.343,356.93 87.824,355.69 88.145,354.404C89.152,350.377 89.152,346.164 88.145,342.137C87.823,340.848 87.34,339.605 86.71,338.436C85.837,336.822 84.16,335.806 82.325,335.783C80.49,335.806 78.812,336.822 77.94,338.436Z" style="fill:none;stroke:rgb(35,31,32);stroke-width:0.19px;"/>
        <path d="M116.984,366.282C122.428,365.624 126.522,361.005 126.522,355.522C126.469,352.186 124.756,349.094 121.956,347.28C124.262,345.653 125.656,343.026 125.713,340.204C125.713,334.907 121.593,330.523 116.306,330.194C115.219,330.091 114.125,330.091 113.039,330.194C107.751,330.523 103.631,334.907 103.631,340.204C103.688,343.026 105.083,345.653 107.389,347.28C104.588,349.094 102.876,352.186 102.822,355.522C102.822,361.005 106.917,365.624 112.359,366.282C113.896,366.471 115.449,366.471 116.984,366.282Z" style="fill:rgb(35,31,32);fill-rule:nonzero;"/>
        <path d="M116.984,366.282C122.428,365.624 126.522,361.005 126.522,355.522C126.469,352.186 124.756,349.094 121.956,347.28C124.262,345.653 125.656,343.026 125.713,340.204C125.713,334.907 121.593,330.523 116.306,330.194C115.219,330.091 114.125,330.091 113.039,330.194C107.751,330.523 103.631,334.907 103.631,340.204C103.688,343.026 105.083,345.653 107.389,347.28C104.588,349.094 102.876,352.186 102.822,355.522C102.822,361.005 106.917,365.624 112.359,366.282C113.896,366.471 115.449,366.471 116.984,366.282Z" style="fill:none;stroke:black;stroke-width:0.33px;"/>
        <path d="M113.775,344.589C114.372,344.638 114.972,344.638 115.569,344.589C117.86,344.42 119.635,342.517 119.644,340.22C119.652,337.923 117.892,336.006 115.602,335.821C114.983,335.769 114.361,335.769 113.742,335.821C111.453,336.006 109.692,337.923 109.701,340.22C109.709,342.517 111.484,344.42 113.775,344.589Z" style="fill:white;fill-rule:nonzero;"/>
        <path d="M113.775,344.589C114.372,344.638 114.972,344.638 115.569,344.589C117.86,344.42 119.635,342.517 119.644,340.22C119.652,337.923 117.892,336.006 115.602,335.821C114.983,335.769 114.361,335.769 113.742,335.821C111.453,336.006 109.692,337.923 109.701,340.22C109.709,342.517 111.484,344.42 113.775,344.589Z" style="fill:none;stroke:rgb(35,31,32);stroke-width:0.14px;"/>
        <path d="M175.274,330.926L171.114,335.085L171.114,341.042L174.87,338.874L174.87,365.609L180.938,365.609L180.938,330.926L175.274,330.926Z" style="fill:rgb(35,31,32);fill-rule:nonzero;"/>
        <path d="M175.274,330.926L171.114,335.085L171.114,341.042L174.87,338.874L174.87,365.609L180.938,365.609L180.938,330.926L175.274,330.926Z" style="fill:none;stroke:black;stroke-width:0.14px;"/>
        <path d="M115.596,360.718C118.329,360.534 120.452,358.263 120.453,355.525C120.454,352.785 118.333,350.513 115.6,350.327C114.982,350.281 114.362,350.281 113.744,350.327C111.012,350.513 108.891,352.785 108.892,355.525C108.893,358.263 111.016,360.534 113.749,360.718C114.363,360.763 114.98,360.763 115.596,360.718Z" style="fill:white;fill-rule:nonzero;"/>
        <path d="M115.596,360.718C118.329,360.534 120.452,358.263 120.453,355.525C120.454,352.785 118.333,350.513 115.6,350.327C114.982,350.281 114.362,350.281 113.744,350.327C111.012,350.513 108.891,352.785 108.892,355.525C108.893,358.263 111.016,360.534 113.749,360.718C114.363,360.763 114.98,360.763 115.596,360.718Z" style="fill:none;stroke:rgb(35,31,32);stroke-width:0.16px;"/>
        <path d="M190.591,357.613C191.993,363.306 197.433,367.051 203.251,366.331C209.07,365.61 213.431,360.651 213.401,354.787L213.402,353.714C213.402,347.323 208.22,342.14 201.829,342.14C199.882,342.14 198,342.842 196.528,344.117C196.981,342.318 197.632,340.574 198.469,338.917C199.239,337.316 200.735,336.186 202.487,335.885C204.238,335.583 206.026,336.149 207.288,337.401L210.975,332.677C208.058,330.401 204.257,329.587 200.663,330.472C197.069,331.357 194.08,333.84 192.554,337.212C189.622,343.598 188.931,350.786 190.591,357.613Z" style="fill:rgb(35,31,32);fill-rule:nonzero;"/>
        <path d="M190.591,357.613C191.993,363.306 197.433,367.051 203.251,366.331C209.07,365.61 213.431,360.651 213.401,354.787L213.402,353.714C213.402,347.323 208.22,342.14 201.829,342.14C199.882,342.14 198,342.842 196.528,344.117C196.981,342.318 197.632,340.574 198.469,338.917C199.239,337.316 200.735,336.186 202.487,335.885C204.238,335.583 206.026,336.149 207.288,337.401L210.975,332.677C208.058,330.401 204.257,329.587 200.663,330.472C197.069,331.357 194.08,333.84 192.554,337.212C189.622,343.598 188.931,350.786 190.591,357.613Z" style="fill:none;stroke:black;stroke-width:0.34px;"/>
        <path d="M216.398,369.656C225.745,354.819 225.745,335.935 216.398,321.099L223.378,321.099C232.538,335.989 232.538,354.766 223.378,369.656L216.398,369.656Z" style="fill:rgb(35,31,32);fill-rule:nonzero;"/>
        <path d="M216.398,369.656C225.745,354.819 225.745,335.935 216.398,321.099L223.378,321.099C232.538,335.989 232.538,354.766 223.378,369.656L216.398,369.656Z" style="fill:none;stroke:black;stroke-width:0.35px;"/>
        <rect x="142.85" y="347.199" width="11.937" height="5.664" style="fill:rgb(35,31,32);"/>
        <rect x="142.85" y="347.199" width="11.937" height="5.664" style="fill:none;stroke:rgb(35,31,32);stroke-width:0.17px;"/>
        <path d="M207.333,355.249L207.333,353.309C207.333,351.343 206.284,349.526 204.581,348.542C202.878,347.559 200.779,347.559 199.077,348.542C197.374,349.526 196.325,351.343 196.325,353.309L196.325,355.249C196.325,357.215 197.374,359.033 199.077,360.016C200.779,360.999 202.878,360.999 204.581,360.016C206.284,359.033 207.333,357.215 207.333,355.249Z" style="fill:white;fill-rule:nonzero;"/>
        <path d="M207.333,355.249L207.333,353.309C207.333,351.343 206.284,349.526 204.581,348.542C202.878,347.559 200.779,347.559 199.077,348.542C197.374,349.526 196.325,351.343 196.325,353.309L196.325,355.249C196.325,357.215 197.374,359.033 199.077,360.016C200.779,360.999 202.878,360.999 204.581,360.016C206.284,359.033 207.333,357.215 207.333,355.249Z" style="fill:none;stroke:rgb(35,31,32);stroke-width:0.15px;"/>
    </g>
</svg>
