<?xml version="1.0" encoding="UTF-8" standalone="no"?>
<!DOCTYPE svg PUBLIC "-//W3C//DTD SVG 1.1//EN" "http://www.w3.org/Graphics/SVG/1.1/DTD/svg11.dtd">
<svg width="100%" height="100%" viewBox="0 0 683 137" version="1.1" xmlns="http://www.w3.org/2000/svg" xmlns:xlink="http://www.w3.org/1999/xlink" xml:space="preserve" xmlns:serif="http://www.serif.com/" style="fill-rule:evenodd;clip-rule:evenodd;stroke-linejoin:round;stroke-miterlimit:2;">
    <g>
        <rect x="0" y="0.5" width="682.5" height="136.5"/>
        <rect x="5.5" y="5.75" width="671.75" height="126" style="fill:rgb(249,250,250);"/>
        <path d="M161.5,72L161.25,74.75L161,77L159.5,83.75L158,87.75L157,89.5L156.75,90L155.5,91.75L153.75,93.25L152,94.25L149.75,94.75L147.5,95L147.25,95L145,94.75L143,94L141,93L139.75,91.5L138.25,89.5L137,87L136.25,84.75L135.5,82.75L135,80.75L134,76L133.75,73.75L133.75,71.25L133.5,68.75L133.5,67.75L134.25,60.25L135,55.75L135.75,53.75L136.5,51.5L137.5,49.75L138.25,47.75L138.5,47.75L139.75,45.75L141.25,44.25L143.25,43L145.25,42.5L147.5,42.25L148,42.25L150.25,42.5L152.5,43.25L154.25,44.25L155.75,45.75L157,47.75L158.25,50.25L159,52.25L159.5,54.25L160.25,56.5L160.75,58.75L161,61L161.5,66L161.5,72ZM174,63.5L173.75,61L173.25,56.5L172.75,54L172.25,51.75L170,45.75L169.25,44L168.25,42L167.75,41.75L166.5,39.75L165.25,38L163.75,36.25L160.25,33.5L158.5,32.75L156.5,31.75L154.5,31L152.25,30.5L149.75,30.25L145,30.25L140.5,31.25L136.5,32.75L134.75,33.75L133,35.25L131.5,36.5L129.75,38.25L128.5,40L127.25,42L126.25,43.75L125.25,45.75L123,51.75L121.5,58.5L120.75,66L120.75,71L121,73.75L121.25,76L122,81L122.5,83.25L123.5,87.25L124.25,89.5L125.25,91.5L126,93.25L128.5,97.25L130,99.25L131.5,100.75L133.25,102.25L134.75,103.5L136.75,104.75L138.75,105.5L140.75,106L145.25,107L148,107L150.5,106.75L152.75,106.5L155,106L157,105.25L158.75,104.5L160.75,103.25L162.25,102L164,100.75L167,97.25L168.25,95.25L169,93.5L170,91.75L171.5,87.75L172.25,85.5L172.75,83.5L173.5,78.75L173.75,76.25L174,74L174.25,71.25L174.25,66.25L174,63.5Z"/>
        <path d="M186.25,101.5L185.75,99.75L184.75,98L183,96.25L181.5,95.25L179.5,95L179.25,95L177,95.25L175.25,96L174,96.75L172.75,98.5L172.25,100.25L172,102L172.5,103.75L173.5,105L175,105.75L176.25,105.75L178.25,105.25L178.75,105L179.5,106.75L179.5,107.25L179,109L178.25,110L176.5,111L175.25,111L175.25,114.75L177.25,114.5L179.25,114L180.75,113.25L182.5,112.25L183,111.5L184.5,110L185.5,108.25L186,106.5L186.25,104.5L186.5,103.75L186.25,101.5Z"/>
        <path d="M235.5,73.5L237,71.75L239.5,67.75L240.5,65.75L242,61.75L242.5,59.5L243,55L243,54L242.75,51.5L242.25,47L241.5,45L239.5,41L236.5,37.5L236.25,37L234.25,35.5L232.5,34.25L230.5,33L228.5,32L226.5,31.25L224.5,30.75L222,30.5L219.75,30.25L216.75,30.25L212.25,31.25L210,32L208,33L206.25,34L204.25,35.5L204,35.75L202.25,37.25L200.75,39L199.5,40.75L198.25,42.75L197.5,44.75L196.5,47L196,49.25L195.75,49.75L208.75,52.25L209.25,50L210.25,48L211.5,46.25L212.25,45.5L214,44.25L216,43.25L218.5,43L219.25,43L221.75,43.25L224,43.75L225.75,45L227.25,46L228.5,47.75L229.5,49.75L230,52L230.25,53.75L230.25,54L230,56.25L229.5,58.25L228.75,60.25L227.5,62.5L226.25,64.25L224.5,66.25L197.5,94.5L197.5,105.25L243,105.25L243,93.25L216.25,93.25L233.75,75.25L235.5,73.5Z"/>
        <path d="M262,82.75M262,82.75L283.75,82.75L283.75,72.25L262,72.25L262,82.75Z"/>
        <path d="M318.5,32L309.75,40.75L309.75,53.25L317.75,48.75L317.75,105.25L330.5,105.25L330.5,32L318.5,32Z"/>
        <path d="M345.5,98L343.75,96.25L342,95.25L340.25,95L339.75,95L337.75,95.25L336,96L334.75,96.75L333.5,98.5L332.75,100.25L332.75,102L333,103.75L334.25,105L335.75,105.75L337,105.75L338.75,105.25L339.25,105L340,106.75L340,107.25L339.5,109L338.75,110L337.25,111L335.75,111L335.75,114.75L338,114.5L339.75,114L341.5,113.25L343,112.25L343.75,111.5L345,110L346,108.25L346.75,106.5L347,104.5L347,101.5L345.5,98Z"/>
        <path d="M403.75,81.5L403.5,79.25L403,77.25L402,75L401.25,73.25L399.75,71.5L398.5,69.75L396.75,68.5L394.75,67L394.5,66.75L396.25,65.25L398,63.5L399.25,62L400.5,60L401.25,58L401.75,56L402,53.75L402.25,51.75L402,49.25L401.75,47L401.25,45L400.5,42.75L399.5,40.75L398.25,39L396.75,37.25L396,36.5L392.5,33.5L388.5,31.5L386.5,31L384,30.5L381.75,30.25L376,30.25L371.5,31.25L367.5,33.25L366,34.25L364.25,35.75L362.5,37.5L361.25,39.25L360,41.25L359,43.25L358.5,45L370.5,49L371.25,46.75L372.5,45L374,43.75L375.75,42.75L378,42.25L380,42.25L382.25,42.5L384.25,43.25L386.25,44.75L386.75,45L388,46.75L389,48.75L389.5,51L389.5,51.75L389.25,54L388.25,56.25L387,58L386.75,58.25L384.75,59.75L382.75,60.5L380.5,60.75L376.5,60.75L376.5,73L380,73L382.25,73.25L384.5,73.75L386.5,75L387.75,76.25L389.25,78L390.25,80L390.75,82L391,84L390.75,86.25L390,88.5L389,90.25L387.75,91.75L386,93L384,94.25L382,94.75L380,95L377.5,94.75L375.5,94.5L373.5,93.5L371.75,92.5L370.5,90.75L369.5,89L368.75,87.25L356.5,91.75L357.5,93.75L358.5,96L359.75,97.75L362.75,101.25L364.75,102.5L365,102.75L366.75,104L368.75,105L373.25,106.5L377.75,107L383.25,107L387.75,106L391.75,104.5L393.75,103.25L395.5,102L398.75,98.75L400.25,96.75L401.5,95L402.25,93L403,90.75L403.5,88.5L404,84L403.75,81.5Z"/>
        <path d="M483.75,53L468.25,53L449.75,71.25L449.75,32L439,32L439,105.25L449.75,105.25L449.75,87L453.75,83.25L470,105.25L483.75,105.25L461.5,75L483.75,53Z"/>
        <path d="M560.75,64L560.25,62.25L559.5,60.5L558.5,58.75L557.25,57.25L556.5,56.25L554.75,55L553.25,54L551.5,53L549.75,52.25L547.75,51.75L545.75,51.5L542.5,51.5L540.5,51.75L538.75,52.25L536.75,53L535.25,53.75L533.5,54.75L530.5,57.25L529.75,58.25L528.5,56.75L527,55.25L525.5,54L524,53.25L522,52.5L518.5,51.5L514.25,51.5L512.5,52L510.5,52.5L508.75,53.25L507,54.25L505.5,55.5L504.75,56.25L504.75,53L493.75,53L493.75,105.25L504.75,105.25L504.75,70.5L505,68.25L505.5,66.5L506.5,64.75L507,64.25L508.75,63L510.25,62.25L512.5,61.75L513.25,61.75L515.5,62L517.25,62.75L518.75,63.5L519.5,64.25L520.75,65.75L521.5,67.5L521.75,69.5L521.75,105.25L533,105.25L533,70.5L533.25,68.25L533.75,66.5L534.75,65L536.75,63L538.75,62.25L540.5,61.75L541.75,61.75L543.75,62L547.25,63.5L547.75,64.25L549,65.75L549.75,67.5L550.25,69.5L550.25,105.25L561.25,105.25L561.25,68L560.75,64Z"/>
    </g>
</svg>
