<?xml version="1.0" encoding="UTF-8" standalone="no"?>
<!DOCTYPE svg PUBLIC "-//W3C//DTD SVG 1.1//EN" "http://www.w3.org/Graphics/SVG/1.1/DTD/svg11.dtd">
<svg width="100%" height="100%" viewBox="0 0 596 310" version="1.1" xmlns="http://www.w3.org/2000/svg" xmlns:xlink="http://www.w3.org/1999/xlink" xml:space="preserve" xmlns:serif="http://www.serif.com/" style="fill-rule:evenodd;clip-rule:evenodd;stroke-linecap:round;stroke-linejoin:round;stroke-miterlimit:2;">
    <g>
        <rect x="0.354" y="0.471" width="594.568" height="309.175" style="fill-rule:nonzero;"/>
        <rect x="0.354" y="0.471" width="594.568" height="309.175" style="fill:none;stroke:black;stroke-width:0.71px;"/>
        <rect x="12.245" y="12.363" width="570.785" height="285.392" style="fill:white;fill-rule:nonzero;"/>
        <rect x="12.245" y="12.363" width="570.785" height="285.392" style="fill:none;stroke:black;stroke-width:0.71px;"/>
        <path d="M335.031,223.05C332.447,209.883 322.327,199.486 309.234,196.548C301.843,194.89 294.102,195.957 287.433,199.55C278.418,204.345 272.095,213.003 270.27,223.05L129.838,223.05L129.838,213.594L157.319,213.594C152.389,208.087 149.801,200.875 150.104,193.49C152.238,161.465 154.239,129.431 156.108,97.39C156.48,94.318 157.59,91.383 159.342,88.832C160.197,87.514 161.156,86.267 162.209,85.101C166.277,80.969 171.033,77.574 176.263,75.07C185.462,70.605 195.225,67.409 205.283,65.571C218.656,63.28 232.155,61.792 245.706,61.116C279.398,58.973 313.215,59.862 346.748,63.77C365.526,65.808 384.119,69.306 402.353,74.234C410.605,76.76 418.495,80.346 425.823,84.904C431.095,88.208 435.421,92.823 438.377,98.298C439.485,101.034 440.108,103.942 440.219,106.893L445.404,195.899C444.736,203.593 441.132,210.733 435.341,215.841C430.035,220.542 423.174,223.11 416.085,223.05L334.925,223.05L335.031,223.05Z" style="fill-rule:nonzero;"/>
        <path d="M335.031,223.05C332.447,209.883 322.327,199.486 309.234,196.548C301.843,194.89 294.102,195.957 287.433,199.55C278.418,204.345 272.095,213.003 270.27,223.05L129.838,223.05L129.838,213.594L157.319,213.594C152.389,208.087 149.801,200.875 150.104,193.49C152.238,161.465 154.239,129.431 156.108,97.39C156.48,94.318 157.59,91.383 159.342,88.832C160.197,87.514 161.156,86.267 162.209,85.101C166.277,80.969 171.033,77.574 176.263,75.07C185.462,70.605 195.225,67.409 205.283,65.571C218.656,63.28 232.155,61.792 245.706,61.116C279.398,58.973 313.215,59.862 346.748,63.77C365.526,65.808 384.119,69.306 402.353,74.234C410.605,76.76 418.495,80.346 425.823,84.904C431.095,88.208 435.421,92.823 438.377,98.298C439.485,101.034 440.108,103.942 440.219,106.893L445.404,195.899C444.736,203.593 441.132,210.733 435.341,215.841C430.035,220.542 423.174,223.11 416.085,223.05L334.925,223.05L335.031,223.05Z" style="fill:none;stroke:black;stroke-width:0.71px;"/>
        <path d="M331.38,228.871C331.38,212.983 318.502,200.105 302.614,200.105C286.728,200.105 273.85,212.983 273.85,228.871C273.85,244.758 286.728,257.637 302.614,257.637C318.502,257.637 331.38,244.758 331.38,228.871Z" style="fill-rule:nonzero;"/>
        <path d="M331.38,228.871C331.38,212.983 318.502,200.105 302.614,200.105C286.728,200.105 273.85,212.983 273.85,228.871C273.85,244.758 286.728,257.637 302.614,257.637C318.502,257.637 331.38,244.758 331.38,228.871Z" style="fill:none;stroke:black;stroke-width:0.71px;"/>
        <path d="M400.121,147.138C401.682,147.138 403.179,146.518 404.283,145.413C405.388,144.31 406.007,142.813 406.007,141.252L406.007,112.058C406.007,110.497 405.388,109 404.283,107.896C403.179,106.792 401.682,106.172 400.121,106.172L341.793,106.172C340.231,106.172 338.734,106.792 337.631,107.896C336.527,109 335.906,110.497 335.906,112.058L335.906,141.252C335.906,142.813 336.527,144.31 337.631,145.413C338.734,146.518 340.231,147.138 341.793,147.138L400.121,147.138Z" style="fill:white;fill-rule:nonzero;"/>
        <path d="M400.121,147.138C401.682,147.138 403.179,146.518 404.283,145.413C405.388,144.31 406.007,142.813 406.007,141.252L406.007,112.058C406.007,110.497 405.388,109 404.283,107.896C403.179,106.792 401.682,106.172 400.121,106.172L341.793,106.172C340.231,106.172 338.734,106.792 337.631,107.896C336.527,109 335.906,110.497 335.906,112.058L335.906,141.252C335.906,142.813 336.527,144.31 337.631,145.413C338.734,146.518 340.231,147.138 341.793,147.138L400.121,147.138Z" style="fill:none;stroke:black;stroke-width:0.71px;"/>
        <path d="M254.017,147.138C255.578,147.138 257.075,146.518 258.178,145.413C259.282,144.31 259.902,142.813 259.902,141.252L259.902,112.058C259.902,110.497 259.282,109 258.178,107.896C257.075,106.792 255.578,106.172 254.017,106.172L213.803,106.172C212.242,106.172 210.745,106.792 209.641,107.896C208.537,109 207.917,110.497 207.917,112.058L207.917,141.252C207.917,142.813 208.537,144.31 209.641,145.413C210.745,146.518 212.242,147.138 213.803,147.138L254.017,147.138Z" style="fill:white;fill-rule:nonzero;"/>
        <path d="M254.017,147.138C255.578,147.138 257.075,146.518 258.178,145.413C259.282,144.31 259.902,142.813 259.902,141.252L259.902,112.058C259.902,110.497 259.282,109 258.178,107.896C257.075,106.792 255.578,106.172 254.017,106.172L213.803,106.172C212.242,106.172 210.745,106.792 209.641,107.896C208.537,109 207.917,110.497 207.917,112.058L207.917,141.252C207.917,142.813 208.537,144.31 209.641,145.413C210.745,146.518 212.242,147.138 213.803,147.138L254.017,147.138Z" style="fill:none;stroke:black;stroke-width:0.71px;"/>
    </g>
</svg>
