<?xml version="1.0" encoding="UTF-8" standalone="no"?>
<!DOCTYPE svg PUBLIC "-//W3C//DTD SVG 1.1//EN" "http://www.w3.org/Graphics/SVG/1.1/DTD/svg11.dtd">
<svg width="100%" height="100%" viewBox="0 0 596 596" version="1.1" xmlns="http://www.w3.org/2000/svg" xmlns:xlink="http://www.w3.org/1999/xlink" xml:space="preserve" xmlns:serif="http://www.serif.com/" style="fill-rule:evenodd;clip-rule:evenodd;stroke-linecap:round;stroke-linejoin:round;stroke-miterlimit:2;">
    <g>
        <path d="M59.81,595.647L535.465,595.647C551.234,595.647 566.356,589.382 577.507,578.232C588.657,567.081 594.922,551.958 594.922,536.19L594.922,60.536C594.922,44.767 588.657,29.644 577.507,18.494C566.356,7.344 551.234,1.079 535.465,1.079L59.81,1.079C44.042,1.079 28.918,7.344 17.768,18.494C6.618,29.644 0.354,44.767 0.354,60.536L0.354,536.19C0.354,551.958 6.618,567.081 17.768,578.232C28.918,589.382 44.042,595.647 59.81,595.647Z" style="fill:white;fill-rule:nonzero;"/>
        <path d="M59.81,595.647L535.465,595.647C551.234,595.647 566.356,589.382 577.507,578.232C588.657,567.081 594.922,551.958 594.922,536.19L594.922,60.536C594.922,44.767 588.657,29.644 577.507,18.494C566.356,7.344 551.234,1.079 535.465,1.079L59.81,1.079C44.042,1.079 28.918,7.344 17.768,18.494C6.618,29.644 0.354,44.767 0.354,60.536L0.354,536.19C0.354,551.958 6.618,567.081 17.768,578.232C28.918,589.382 44.042,595.647 59.81,595.647Z" style="fill:none;stroke:rgb(35,31,32);stroke-width:1px;"/>
        <path d="M368.334,513.278C362.023,514.871 355.415,514.871 349.104,513.278L313.484,504.282C297.355,500.208 280.468,500.208 264.34,504.282L228.719,513.278C222.409,514.871 215.8,514.871 209.489,513.278L173.869,504.282C157.741,500.208 140.853,500.208 124.725,504.282L84.831,514.358C81.325,515.243 77.653,515.243 74.147,514.358L70.763,513.501L70.763,544.042C77.927,545.254 85.265,544.96 92.309,543.181L132.204,533.105C143.423,530.272 155.171,530.272 166.39,533.105L202.011,542.102C213.23,544.935 224.978,544.935 236.198,542.102L271.818,533.105C283.038,530.272 294.786,530.272 306.006,533.105L341.625,542.102C352.846,544.935 364.593,544.935 375.813,542.102L411.433,533.105C422.653,530.272 434.4,530.272 445.62,533.105L485.514,543.181C493.929,545.307 502.739,545.307 511.154,543.181L524.512,539.807L524.512,509.095L503.676,514.358C500.17,515.243 496.499,515.243 492.992,514.358L453.099,504.282C436.971,500.208 420.083,500.208 403.954,504.282L368.334,513.278Z" style="fill:rgb(35,31,32);fill-rule:nonzero;"/>
        <path d="M368.334,513.278C362.023,514.871 355.415,514.871 349.104,513.278L313.484,504.282C297.355,500.208 280.468,500.208 264.34,504.282L228.719,513.278C222.409,514.871 215.8,514.871 209.489,513.278L173.869,504.282C157.741,500.208 140.853,500.208 124.725,504.282L84.831,514.358C81.325,515.243 77.653,515.243 74.147,514.358L70.763,513.501L70.763,544.042C77.927,545.254 85.265,544.96 92.309,543.181L132.204,533.105C143.423,530.272 155.171,530.272 166.39,533.105L202.011,542.102C213.23,544.935 224.978,544.935 236.198,542.102L271.818,533.105C283.038,530.272 294.786,530.272 306.006,533.105L341.625,542.102C352.846,544.935 364.593,544.935 375.813,542.102L411.433,533.105C422.653,530.272 434.4,530.272 445.62,533.105L485.514,543.181C493.929,545.307 502.739,545.307 511.154,543.181L524.512,539.807L524.512,509.095L503.676,514.358C500.17,515.243 496.499,515.243 492.992,514.358L453.099,504.282C436.971,500.208 420.083,500.208 403.954,504.282L368.334,513.278Z" style="fill:none;stroke:rgb(35,31,32);stroke-width:0.71px;"/>
        <path d="M418.754,453.71C430.265,452.584 441.885,453.456 453.099,456.288L492.992,466.365C496.499,467.249 500.17,467.249 503.676,466.365L524.512,461.102L524.512,491.815L511.154,495.189C502.739,497.314 493.929,497.314 485.514,495.189L445.62,485.113C434.4,482.279 422.653,482.279 411.433,485.113L375.813,494.109C364.593,496.944 352.846,496.944 341.625,494.109L306.006,485.113C294.786,482.279 283.038,482.279 271.818,485.113L236.198,494.109C224.978,496.944 213.23,496.944 202.011,494.109L166.39,485.113C155.171,482.279 143.423,482.279 132.204,485.113L92.309,495.189C85.265,496.968 77.927,497.261 70.763,496.05L70.763,465.509L74.147,466.365C77.653,467.249 81.325,467.249 84.831,466.365L124.725,456.288C135.939,453.456 147.558,452.584 159.069,453.71L189.812,334.621C193.791,319.21 207.691,308.442 223.608,308.442L354.216,308.442C370.133,308.442 384.033,319.21 388.012,334.621L418.754,453.71Z" style="fill:rgb(35,31,32);fill-rule:nonzero;"/>
        <path d="M418.754,453.71C430.265,452.584 441.885,453.456 453.099,456.288L492.992,466.365C496.499,467.249 500.17,467.249 503.676,466.365L524.512,461.102L524.512,491.815L511.154,495.189C502.739,497.314 493.929,497.314 485.514,495.189L445.62,485.113C434.4,482.279 422.653,482.279 411.433,485.113L375.813,494.109C364.593,496.944 352.846,496.944 341.625,494.109L306.006,485.113C294.786,482.279 283.038,482.279 271.818,485.113L236.198,494.109C224.978,496.944 213.23,496.944 202.011,494.109L166.39,485.113C155.171,482.279 143.423,482.279 132.204,485.113L92.309,495.189C85.265,496.968 77.927,497.261 70.763,496.05L70.763,465.509L74.147,466.365C77.653,467.249 81.325,467.249 84.831,466.365L124.725,456.288C135.939,453.456 147.558,452.584 159.069,453.71L189.812,334.621C193.791,319.21 207.691,308.442 223.608,308.442L354.216,308.442C370.133,308.442 384.033,319.21 388.012,334.621L418.754,453.71Z" style="fill:none;stroke:rgb(35,31,32);stroke-width:0.71px;"/>
        <path d="M345.631,227.199C345.631,195.874 320.237,170.48 288.912,170.48C257.587,170.48 232.193,195.874 232.193,227.199C232.193,258.524 257.587,283.917 288.912,283.917C320.237,283.917 345.631,258.524 345.631,227.199Z" style="fill:rgb(35,31,32);fill-rule:nonzero;"/>
        <path d="M345.631,227.199C345.631,195.874 320.237,170.48 288.912,170.48C257.587,170.48 232.193,195.874 232.193,227.199C232.193,258.524 257.587,283.917 288.912,283.917C320.237,283.917 345.631,258.524 345.631,227.199Z" style="fill:none;stroke:rgb(35,31,32);stroke-width:0.71px;"/>
        <path d="M297.638,105.743L70.763,181.368L70.763,135.378L297.638,59.754L524.512,135.378L524.512,181.368L297.638,105.743Z" style="fill:rgb(35,31,32);fill-rule:nonzero;"/>
        <path d="M297.638,105.743L70.763,181.368L70.763,135.378L297.638,59.754L524.512,135.378L524.512,181.368L297.638,105.743Z" style="fill:none;stroke:rgb(35,31,32);stroke-width:0.71px;"/>
        <path d="M219.104,395.702L236.556,463.306L228.719,465.285C222.409,466.878 215.8,466.878 209.489,465.285L201.652,463.306L219.104,395.702Z" style="fill:white;fill-rule:nonzero;"/>
        <path d="M219.104,395.702L236.556,463.306L228.719,465.285C222.409,466.878 215.8,466.878 209.489,465.285L201.652,463.306L219.104,395.702Z" style="fill:none;stroke:white;stroke-width:0.48px;"/>
        <path d="M341.268,463.306L358.72,395.702L376.171,463.306L368.334,465.285C362.023,466.878 355.415,466.878 349.104,465.285L341.268,463.306Z" style="fill:white;fill-rule:nonzero;"/>
        <path d="M341.268,463.306L358.72,395.702L376.171,463.306L368.334,465.285C362.023,466.878 355.415,466.878 349.104,465.285L341.268,463.306Z" style="fill:none;stroke:white;stroke-width:0.48px;"/>
    </g>
</svg>
