<?xml version="1.0" encoding="UTF-8" standalone="no"?>
<!DOCTYPE svg PUBLIC "-//W3C//DTD SVG 1.1//EN" "http://www.w3.org/Graphics/SVG/1.1/DTD/svg11.dtd">
<svg width="100%" height="100%" viewBox="0 0 688 144" version="1.1" xmlns="http://www.w3.org/2000/svg" xmlns:xlink="http://www.w3.org/1999/xlink" xml:space="preserve" xmlns:serif="http://www.serif.com/" style="fill-rule:evenodd;clip-rule:evenodd;stroke-linejoin:round;stroke-miterlimit:2;">
    <g>
        <path d="M601.25,0.75L601.25,144L687.25,144L687.25,0.75L601.25,0.75ZM486.75,144L544,144L544,0.75L486.75,0.75L486.75,144ZM372.25,144L429.5,144L429.5,0.75L372.25,0.75L372.25,144ZM257.75,144L315,144L315,0.75L257.75,0.75L257.75,144ZM143.25,144L200.5,144L200.5,0.75L143.25,0.75L143.25,144ZM0,144L86,144L86,0.75L0,0.75L0,144Z"/>
        <path d="M544,0.75L544,144L601.25,144L601.25,0.75L544,0.75ZM429.5,144L486.75,144L486.75,0.75L429.5,0.75L429.5,144ZM315,144L372.25,144L372.25,0.75L315,0.75L315,144ZM200.5,144L257.75,144L257.75,0.75L200.5,0.75L200.5,144ZM86,144L143.25,144L143.25,0.75L86,0.75L86,144Z" style="fill:rgb(252,185,20);"/>
    </g>
</svg>
