<?xml version="1.0" encoding="UTF-8" standalone="no"?>
<!DOCTYPE svg PUBLIC "-//W3C//DTD SVG 1.1//EN" "http://www.w3.org/Graphics/SVG/1.1/DTD/svg11.dtd">
<svg width="100%" height="100%" viewBox="0 0 256 224" version="1.1" xmlns="http://www.w3.org/2000/svg" xmlns:xlink="http://www.w3.org/1999/xlink" xml:space="preserve" xmlns:serif="http://www.serif.com/" style="fill-rule:evenodd;clip-rule:evenodd;stroke-miterlimit:2;">
    <g>
        <path d="M119.916,5.085L1.331,210.501C0.467,211.869 0.107,213.38 0.107,214.964C0.107,219.933 4.067,223.893 9.035,223.893L246.275,223.893C251.243,223.893 255.203,219.933 255.203,214.964C255.203,213.38 254.844,211.869 253.979,210.501L135.396,5.085C133.812,2.277 130.858,0.549 127.619,0.549C124.451,0.549 121.5,2.277 119.916,5.085Z" style="fill:rgb(211,63,39);fill-rule:nonzero;"/>
        <path d="M119.916,5.085L1.331,210.501C0.467,211.869 0.107,213.38 0.107,214.964C0.107,219.933 4.067,223.893 9.035,223.893L246.275,223.893C251.243,223.893 255.203,219.933 255.203,214.964C255.203,213.38 254.844,211.869 253.979,210.501L135.396,5.085C133.812,2.277 130.858,0.549 127.619,0.549C124.451,0.549 121.5,2.277 119.916,5.085Z" style="fill:none;stroke:rgb(211,63,39);stroke-width:0.22px;"/>
        <path d="M39.996,197.037L215.315,197.037L127.619,45.261L39.996,197.037Z" style="fill:white;fill-rule:nonzero;"/>
        <path d="M39.996,197.037L215.315,197.037L127.619,45.261L39.996,197.037Z" style="fill:none;stroke:white;stroke-width:0.22px;"/>
        <path d="M129.419,91.917L129.419,118.845C129.419,122.373 130.858,125.756 133.379,128.276L152.027,147.068C153.467,148.58 154.259,150.597 154.259,152.756L154.259,189.045L167.724,189.045L167.724,149.444C167.724,145.845 166.355,142.46 163.907,140.013L145.188,121.149C143.676,119.637 142.812,117.621 142.812,115.532L142.812,91.917L129.419,91.917Z" style="fill:rgb(35,31,32);fill-rule:nonzero;"/>
        <path d="M129.419,91.917L129.419,118.845C129.419,122.373 130.858,125.756 133.379,128.276L152.027,147.068C153.467,148.58 154.259,150.597 154.259,152.756L154.259,189.045L167.724,189.045L167.724,149.444C167.724,145.845 166.355,142.46 163.907,140.013L145.188,121.149C143.676,119.637 142.812,117.621 142.812,115.532L142.812,91.917L129.419,91.917Z" style="fill:none;stroke:rgb(35,31,32);stroke-width:0.22px;"/>
        <rect x="102.635" y="91.917" width="13.392" height="97.128" style="fill:rgb(35,31,32);fill-rule:nonzero;"/>
        <rect x="102.635" y="91.917" width="13.392" height="97.128" style="fill:none;stroke:rgb(35,31,32);stroke-width:0.22px;"/>
    </g>
</svg>
