<?xml version="1.0" encoding="UTF-8" standalone="no"?>
<!DOCTYPE svg PUBLIC "-//W3C//DTD SVG 1.1//EN" "http://www.w3.org/Graphics/SVG/1.1/DTD/svg11.dtd">
<svg width="100%" height="100%" viewBox="0 0 171 171" version="1.1" xmlns="http://www.w3.org/2000/svg" xmlns:xlink="http://www.w3.org/1999/xlink" xml:space="preserve" xmlns:serif="http://www.serif.com/" style="fill-rule:evenodd;clip-rule:evenodd;stroke-linecap:round;stroke-linejoin:round;stroke-miterlimit:2;">
    <g>
        <rect x="0" y="0.936" width="170.064" height="170.064" style="fill:none;"/>
        <path d="M157.045,171L158.491,170.91L159.938,170.639L161.294,170.277L162.741,169.644L163.916,169.012L165.182,168.107L166.267,167.113L167.171,166.027L168.075,164.852L168.799,163.586L169.341,162.23L169.793,160.783L169.974,159.338L170.064,157.891L170.064,13.955L169.974,12.51L169.793,11.063L169.341,9.707L168.799,8.26L168.075,6.995L167.171,5.819L166.267,4.735L165.182,3.741L163.916,2.926L162.741,2.203L161.294,1.66L159.938,1.208L158.491,1.027L157.045,0.936L13.109,0.936L11.663,1.027L10.216,1.208L8.77,1.66L7.413,2.203L6.147,2.926L4.972,3.741L3.887,4.735L2.893,5.819L2.079,6.995L1.265,8.26L0.723,9.707L0.361,11.063L0.09,12.51L0,13.955L0,157.891L0.09,159.338L0.361,160.783L0.723,162.23L1.265,163.586L2.079,164.852L2.893,166.027L3.887,167.113L4.972,168.107L6.147,169.012L7.413,169.644L8.77,170.277L10.216,170.639L11.663,170.91L13.109,171L157.045,171Z" style="fill:white;fill-rule:nonzero;"/>
        <path d="M157.045,171L158.491,170.91L159.938,170.639L161.294,170.277L162.741,169.644L163.916,169.012L165.182,168.107L166.267,167.113L167.171,166.027L168.075,164.852L168.799,163.586L169.341,162.23L169.793,160.783L169.974,159.338L170.064,157.891L170.064,13.955L169.974,12.51L169.793,11.063L169.341,9.707L168.799,8.26L168.075,6.995L167.171,5.819L166.267,4.735L165.182,3.741L163.916,2.926L162.741,2.203L161.294,1.66L159.938,1.208L158.491,1.027L157.045,0.936L13.109,0.936L11.663,1.027L10.216,1.208L8.77,1.66L7.413,2.203L6.147,2.926L4.972,3.741L3.887,4.735L2.893,5.819L2.079,6.995L1.265,8.26L0.723,9.707L0.361,11.063L0.09,12.51L0,13.955L0,157.891L0.09,159.338L0.361,160.783L0.723,162.23L1.265,163.586L2.079,164.852L2.893,166.027L3.887,167.113L4.972,168.107L6.147,169.012L7.413,169.644L8.77,170.277L10.216,170.639L11.663,170.91L13.109,171L157.045,171Z" style="fill:none;"/>
        <path d="M157,164.445L157.994,164.355L158.989,164.174L159.893,163.812L160.796,163.18L161.611,162.547L162.244,161.732L162.786,160.92L163.147,159.924L163.418,158.93L163.509,157.936L163.509,14L163.418,13.006L163.147,12.012L162.786,11.018L162.244,10.204L161.611,9.391L160.796,8.666L159.893,8.215L158.989,7.762L157.994,7.582L157,7.491L13.064,7.491L11.979,7.582L10.984,7.762L10.08,8.215L9.176,8.666L8.453,9.391L7.729,10.204L7.277,11.018L6.825,12.012L6.554,13.006L6.554,158.93L6.825,159.924L7.277,160.92L7.729,161.732L8.453,162.547L9.176,163.18L10.08,163.812L10.984,164.174L11.979,164.355L13.064,164.445L157,164.445Z" style="fill:rgb(150,79,34);fill-rule:nonzero;"/>
        <path d="M157,164.445L157.994,164.355L158.989,164.174L159.893,163.812L160.796,163.18L161.611,162.547L162.244,161.732L162.786,160.92L163.147,159.924L163.418,158.93L163.509,157.936L163.509,14L163.418,13.006L163.147,12.012L162.786,11.018L162.244,10.204L161.611,9.391L160.796,8.666L159.893,8.215L158.989,7.762L157.994,7.582L157,7.491L13.064,7.491L11.979,7.582L10.984,7.762L10.08,8.215L9.176,8.666L8.453,9.391L7.729,10.204L7.277,11.018L6.825,12.012L6.554,13.006L6.554,158.93L6.825,159.924L7.277,160.92L7.729,161.732L8.453,162.547L9.176,163.18L10.08,163.812L10.984,164.174L11.979,164.355L13.064,164.445L157,164.445Z" style="fill:none;"/>
        <path d="M132.182,144.826L133.538,144.736L134.984,144.465L136.341,144.103L137.606,143.471L138.872,142.746L139.957,141.934L140.951,140.848L141.855,139.764L142.579,138.588L143.212,137.232L143.573,135.875L143.845,134.519L143.936,133.072L143.936,38.864L143.845,37.418L143.573,36.061L143.212,34.705L142.579,33.44L141.855,32.174L140.951,31.088L139.957,30.094L138.872,29.19L137.606,28.467L136.341,27.834L134.984,27.473L133.538,27.202L132.182,27.112L37.972,27.112L36.526,27.202L35.169,27.473L33.723,27.834L32.547,28.467L31.282,29.19L30.197,30.094L29.202,31.088L28.298,32.174L27.484,33.44L26.942,34.705L26.49,36.061L26.219,37.418L26.128,38.864L26.128,133.072L26.219,134.519L26.49,135.875L26.942,137.232L27.484,138.588L28.298,139.764L29.202,140.848L30.197,141.934L31.282,142.746L32.547,143.471L33.723,144.103L35.169,144.465L36.526,144.736L37.972,144.826L132.182,144.826Z" style="fill:white;fill-rule:nonzero;"/>
        <path d="M132.182,144.826L133.538,144.736L134.984,144.465L136.341,144.103L137.606,143.471L138.872,142.746L139.957,141.934L140.951,140.848L141.855,139.764L142.579,138.588L143.212,137.232L143.573,135.875L143.845,134.519L143.936,133.072L143.936,38.864L143.845,37.418L143.573,36.061L143.212,34.705L142.579,33.44L141.855,32.174L140.951,31.088L139.957,30.094L138.872,29.19L137.606,28.467L136.341,27.834L134.984,27.473L133.538,27.202L132.182,27.112L37.972,27.112L36.526,27.202L35.169,27.473L33.723,27.834L32.547,28.467L31.282,29.19L30.197,30.094L29.202,31.088L28.298,32.174L27.484,33.44L26.942,34.705L26.49,36.061L26.219,37.418L26.128,38.864L26.128,133.072L26.219,134.519L26.49,135.875L26.942,137.232L27.484,138.588L28.298,139.764L29.202,140.848L30.197,141.934L31.282,142.746L32.547,143.471L33.723,144.103L35.169,144.465L36.526,144.736L37.972,144.826L132.182,144.826Z" style="fill:none;"/>
        <path d="M103.999,85.995L104.003,79.157L114.165,79.157C119.829,79.057 125.222,76.705 129.153,72.629C132.434,69.272 134.507,64.924 135.054,60.262C135.488,56.967 135.118,53.62 133.971,50.498C132.789,47.27 130.871,44.358 128.375,41.997C126.731,40.463 124.86,39.188 122.833,38.223C119.729,36.739 116.313,36.036 112.876,36.17C110.575,36.248 108.299,36.696 106.14,37.498C98.3,40.389 92.842,47.561 92.139,55.891L92.139,67.133L77.918,67.133L77.918,55.891C77.217,47.561 71.759,40.389 63.919,37.498C61.759,36.696 59.484,36.248 57.184,36.17C53.746,36.036 50.331,36.739 47.227,38.223C45.198,39.188 43.328,40.463 41.686,41.997C39.187,44.358 37.271,47.27 36.086,50.498C34.941,53.62 34.57,56.967 35.005,60.262C35.552,64.924 37.627,69.272 40.905,72.629C44.837,76.705 50.23,79.057 55.895,79.157L66.057,79.157L66.061,85.995L66.057,92.834L55.895,92.834C50.23,92.934 44.837,95.28 40.905,99.36C37.627,102.715 35.552,107.064 35.005,111.725C34.57,115.019 34.941,118.371 36.086,121.488C37.271,124.717 39.187,127.627 41.686,129.988C43.328,131.524 45.198,132.797 47.227,133.768C50.331,135.248 53.746,135.951 57.184,135.816C59.484,135.738 61.759,135.291 63.919,134.492C71.759,131.598 77.217,124.426 77.918,116.094L77.918,104.857L92.139,104.857L92.139,116.094C92.842,124.426 98.3,131.598 106.14,134.492C108.299,135.291 110.575,135.738 112.876,135.816C116.313,135.951 119.729,135.248 122.833,133.768C124.86,132.797 126.731,131.524 128.375,129.988C130.871,127.627 132.789,124.717 133.971,121.488C135.118,118.371 135.488,115.019 135.054,111.725C134.507,107.064 132.434,102.715 129.153,99.36C125.222,95.28 119.829,92.934 114.165,92.834L104.003,92.834L103.999,85.995Z" style="fill:rgb(150,79,34);fill-rule:nonzero;"/>
        <path d="M103.999,85.995L104.003,79.157L114.165,79.157C119.829,79.057 125.222,76.705 129.153,72.629C132.434,69.272 134.507,64.924 135.054,60.262C135.488,56.967 135.118,53.62 133.971,50.498C132.789,47.27 130.871,44.358 128.375,41.997C126.731,40.463 124.86,39.188 122.833,38.223C119.729,36.739 116.313,36.036 112.876,36.17C110.575,36.248 108.299,36.696 106.14,37.498C98.3,40.389 92.842,47.561 92.139,55.891L92.139,67.133L77.918,67.133L77.918,55.891C77.217,47.561 71.759,40.389 63.919,37.498C61.759,36.696 59.484,36.248 57.184,36.17C53.746,36.036 50.331,36.739 47.227,38.223C45.198,39.188 43.328,40.463 41.686,41.997C39.187,44.358 37.271,47.27 36.086,50.498C34.941,53.62 34.57,56.967 35.005,60.262C35.552,64.924 37.627,69.272 40.905,72.629C44.837,76.705 50.23,79.057 55.895,79.157L66.057,79.157L66.061,85.995L66.057,92.834L55.895,92.834C50.23,92.934 44.837,95.28 40.905,99.36C37.627,102.715 35.552,107.064 35.005,111.725C34.57,115.019 34.941,118.371 36.086,121.488C37.271,124.717 39.187,127.627 41.686,129.988C43.328,131.524 45.198,132.797 47.227,133.768C50.331,135.248 53.746,135.951 57.184,135.816C59.484,135.738 61.759,135.291 63.919,134.492C71.759,131.598 77.217,124.426 77.918,116.094L77.918,104.857L92.139,104.857L92.139,116.094C92.842,124.426 98.3,131.598 106.14,134.492C108.299,135.291 110.575,135.738 112.876,135.816C116.313,135.951 119.729,135.248 122.833,133.768C124.86,132.797 126.731,131.524 128.375,129.988C130.871,127.627 132.789,124.717 133.971,121.488C135.118,118.371 135.488,115.019 135.054,111.725C134.507,107.064 132.434,102.715 129.153,99.36C125.222,95.28 119.829,92.934 114.165,92.834L104.003,92.834L103.999,85.995Z" style="fill:none;stroke:rgb(150,79,34);stroke-width:0.5px;"/>
        <path d="M50.252,121.676C49.411,120.977 48.701,120.135 48.156,119.187C47.701,118.367 47.358,117.49 47.133,116.578C46.897,115.59 46.838,114.568 46.962,113.559C47.186,110.811 48.64,108.311 50.917,106.76C52.335,105.662 54.055,105.033 55.845,104.953L66.08,104.953L66.08,115.49C65.803,118.328 64.225,120.875 61.81,122.391C60.546,123.234 59.092,123.75 57.578,123.896C56.28,124.041 54.964,123.928 53.711,123.555C52.441,123.172 51.264,122.533 50.252,121.676Z" style="fill:white;fill-rule:nonzero;"/>
        <path d="M119.807,121.676C120.649,120.977 121.359,120.135 121.902,119.187C122.357,118.367 122.701,117.49 122.928,116.578C123.163,115.59 123.22,114.568 123.095,113.559C122.872,110.811 121.419,108.311 119.144,106.76C117.723,105.662 116.004,105.033 114.215,104.953L103.978,104.953L103.978,115.49C104.258,118.328 105.835,120.875 108.25,122.391C109.514,123.234 110.969,123.75 112.482,123.896C113.782,124.041 115.095,123.928 116.349,123.555C117.617,123.172 118.795,122.533 119.807,121.676Z" style="fill:white;fill-rule:nonzero;"/>
        <rect x="77.895" y="79.071" width="14.166" height="13.791" style="fill:white;"/>
        <path d="M119.807,50.309C120.649,51.01 121.359,51.85 121.902,52.803C122.357,53.623 122.701,54.5 122.928,55.409C123.163,56.395 123.22,57.418 123.095,58.426C122.872,61.174 121.419,63.674 119.144,65.231C117.723,66.325 116.004,66.955 114.215,67.034L103.978,67.034L103.978,56.495C104.258,53.663 105.835,51.112 108.25,49.6C109.514,48.754 110.969,48.237 112.482,48.09C113.782,47.946 115.095,48.059 116.349,48.434C117.617,48.815 118.795,49.454 119.807,50.309Z" style="fill:white;fill-rule:nonzero;"/>
        <path d="M50.252,50.309C49.411,51.01 48.701,51.85 48.156,52.803C47.701,53.623 47.358,54.5 47.133,55.409C46.897,56.395 46.838,57.418 46.962,58.426C47.186,61.174 48.64,63.674 50.917,65.231C52.335,66.325 54.055,66.955 55.845,67.034L66.08,67.034L66.08,56.495C65.803,53.663 64.225,51.112 61.81,49.6C60.546,48.754 59.092,48.237 57.578,48.09C56.28,47.946 54.964,48.059 53.711,48.434C52.441,48.815 51.264,49.454 50.252,50.309Z" style="fill:white;fill-rule:nonzero;"/>
    </g>
</svg>
