<?xml version="1.0" encoding="UTF-8" standalone="no"?>
<!DOCTYPE svg PUBLIC "-//W3C//DTD SVG 1.1//EN" "http://www.w3.org/Graphics/SVG/1.1/DTD/svg11.dtd">
<svg width="100%" height="100%" viewBox="0 0 171 172" version="1.1" xmlns="http://www.w3.org/2000/svg" xmlns:xlink="http://www.w3.org/1999/xlink" xml:space="preserve" xmlns:serif="http://www.serif.com/" style="fill-rule:evenodd;clip-rule:evenodd;stroke-miterlimit:2;">
    <g>
        <path d="M170.687,86.113L85.654,171.145L0.623,86.113L85.654,0.866L170.687,86.113Z" style="fill:rgb(35,31,32);fill-rule:nonzero;"/>
        <path d="M170.687,86.113L85.654,171.145L0.623,86.113L85.654,0.866L170.687,86.113Z" style="fill:none;stroke:rgb(35,31,32);stroke-width:0.22px;"/>
        <path d="M52.391,102.313L35.902,86.113L85.654,36.361L101.927,52.561L99.911,54.793L85.654,40.538L40.294,86.113L54.335,100.153L52.391,102.313Z" style="fill:none;stroke:rgb(35,31,32);stroke-width:0.22px;"/>
        <path d="M55.774,132.841L69.455,119.377L85.654,135.649L135.19,86.113L118.918,69.625L132.382,56.162L162.335,86.113L85.654,162.505L55.774,132.841Z" style="fill:white;fill-rule:nonzero;"/>
        <path d="M55.774,132.841L69.455,119.377L85.654,135.649L135.19,86.113L118.918,69.625L132.382,56.162L162.335,86.113L85.654,162.505L55.774,132.841Z" style="fill:none;stroke:white;stroke-width:0.22px;"/>
        <path d="M85.654,131.474L131.015,86.113L116.758,71.856L118.918,69.625L135.19,86.113L85.654,135.649L69.455,119.377L71.398,117.145L85.654,131.474Z" style="fill:none;stroke:rgb(35,31,32);stroke-width:0.22px;"/>
        <path d="M38.926,115.777L52.391,102.313L35.902,86.113L85.654,36.361L101.927,52.561L115.318,39.169L85.654,9.434L9.046,86.113L38.926,115.777Z" style="fill:white;fill-rule:nonzero;"/>
        <path d="M38.926,115.777L52.391,102.313L35.902,86.113L85.654,36.361L101.927,52.561L115.318,39.169L85.654,9.434L9.046,86.113L38.926,115.777Z" style="fill:none;stroke:white;stroke-width:0.22px;"/>
        <path d="M71.398,117.145L116.758,71.856L131.015,86.113L85.654,131.474L71.398,117.145Z" style="fill:rgb(254,190,15);fill-rule:nonzero;"/>
        <path d="M71.398,117.145L116.758,71.856L131.015,86.113L85.654,131.474L71.398,117.145Z" style="fill:none;stroke:rgb(254,190,15);stroke-width:0.22px;"/>
        <path d="M54.335,100.153L99.911,54.793L85.654,40.538L40.294,86.113L54.335,100.153Z" style="fill:rgb(254,190,15);fill-rule:nonzero;"/>
        <path d="M54.335,100.153L99.911,54.793L85.654,40.538L40.294,86.113L54.335,100.153Z" style="fill:none;stroke:rgb(254,190,15);stroke-width:0.22px;"/>
    </g>
</svg>
