<?xml version="1.0" encoding="UTF-8" standalone="no"?>
<!DOCTYPE svg PUBLIC "-//W3C//DTD SVG 1.1//EN" "http://www.w3.org/Graphics/SVG/1.1/DTD/svg11.dtd">
<svg width="100%" height="100%" viewBox="0 0 1701 1701" version="1.1" xmlns="http://www.w3.org/2000/svg" xmlns:xlink="http://www.w3.org/1999/xlink" xml:space="preserve" xmlns:serif="http://www.serif.com/" style="fill-rule:evenodd;clip-rule:evenodd;stroke-linejoin:round;stroke-miterlimit:2;">
    <g>
        <path d="M59.527,0.21L59.005,0.213L58.482,0.22L57.96,0.231L57.438,0.247L56.916,0.268L56.394,0.293L55.873,0.323L55.352,0.357L54.831,0.396L54.31,0.439L53.79,0.488L53.27,0.541L52.751,0.597L52.232,0.659L51.714,0.725L51.196,0.796L50.68,0.872L50.164,0.952L49.648,1.036L49.133,1.125L48.619,1.218L48.106,1.316L47.594,1.419L47.083,1.526L46.572,1.637L46.063,1.753L45.555,1.874L45.047,1.999L44.541,2.127L44.036,2.261L43.532,2.399L43.03,2.542L42.529,2.689L42.029,2.84L41.53,2.996L41.033,3.156L40.537,3.321L40.043,3.49L39.55,3.663L39.059,3.84L38.569,4.022L38.081,4.208L37.594,4.398L37.109,4.593L36.627,4.791L36.145,4.995L35.666,5.202L35.188,5.414L34.712,5.629L34.238,5.849L33.766,6.073L33.296,6.301L32.829,6.534L32.363,6.77L31.899,7.01L31.437,7.255L30.978,7.503L30.521,7.756L30.065,8.012L29.613,8.273L29.162,8.538L28.714,8.806L28.268,9.078L27.825,9.354L27.384,9.634L26.946,9.918L26.51,10.207L26.076,10.498L25.646,10.793L25.217,11.093L24.792,11.396L24.369,11.703L23.949,12.013L23.531,12.327L23.117,12.645L22.705,12.966L22.296,13.291L21.89,13.619L21.486,13.951L21.086,14.287L20.689,14.626L20.294,14.968L19.903,15.314L19.515,15.664L19.129,16.017L18.747,16.373L18.368,16.732L17.993,17.095L17.62,17.461L17.251,17.831L16.884,18.204L16.522,18.579L16.162,18.958L15.806,19.34L15.453,19.726L15.104,20.114L14.757,20.505L14.415,20.899L14.076,21.297L13.74,21.697L13.408,22.101L13.08,22.506L12.755,22.916L12.434,23.328L12.116,23.742L11.802,24.16L11.491,24.58L11.185,25.002L10.882,25.428L10.583,25.856L10.287,26.287L9.996,26.721L9.708,27.157L9.424,27.595L9.144,28.036L8.867,28.479L8.595,28.925L8.327,29.373L8.062,29.824L7.801,30.276L7.545,30.731L7.292,31.188L7.044,31.648L6.799,32.11L6.559,32.574L6.323,33.04L6.09,33.507L5.862,33.977L5.638,34.449L5.418,34.923L5.203,35.399L4.991,35.876L4.784,36.356L4.581,36.837L4.382,37.32L4.187,37.805L3.997,38.292L3.811,38.78L3.629,39.269L3.452,39.761L3.279,40.253L3.11,40.748L2.945,41.244L2.785,41.741L2.629,42.24L2.478,42.74L2.331,43.241L2.188,43.743L2.05,44.247L1.916,44.752L1.788,45.258L1.663,45.765L1.542,46.274L1.426,46.783L1.315,47.293L1.208,47.805L1.105,48.317L1.007,48.83L0.914,49.344L0.825,49.859L0.741,50.375L0.661,50.891L0.585,51.407L0.515,51.925L0.448,52.443L0.386,52.962L0.329,53.481L0.277,54L0.229,54.521L0.185,55.042L0.146,55.563L0.112,56.083L0.082,56.605L0.057,57.127L0.036,57.649L0.02,58.171L0.009,58.693L0.002,59.215L0,59.738L0,1641.47L0.002,1641.99L0.009,1642.51L0.02,1643.04L0.036,1643.56L0.057,1644.08L0.082,1644.6L0.112,1645.12L0.146,1645.65L0.185,1646.17L0.229,1646.69L0.277,1647.21L0.329,1647.73L0.386,1648.25L0.448,1648.76L0.515,1649.28L0.585,1649.8L0.661,1650.32L0.741,1650.83L0.825,1651.35L0.914,1651.86L1.007,1652.38L1.105,1652.89L1.208,1653.4L1.315,1653.91L1.426,1654.42L1.542,1654.93L1.663,1655.44L1.788,1655.95L1.916,1656.46L2.05,1656.96L2.188,1657.46L2.331,1657.97L2.478,1658.47L2.629,1658.97L2.785,1659.47L2.945,1659.96L3.11,1660.46L3.279,1660.95L3.452,1661.45L3.629,1661.94L3.811,1662.43L3.997,1662.92L4.187,1663.4L4.382,1663.89L4.581,1664.37L4.784,1664.85L4.991,1665.33L5.203,1665.81L5.418,1666.29L5.638,1666.76L5.862,1667.23L6.09,1667.7L6.323,1668.17L6.559,1668.63L6.799,1669.1L7.044,1669.56L7.292,1670.02L7.545,1670.48L7.801,1670.93L8.062,1671.38L8.327,1671.84L8.595,1672.28L8.867,1672.73L9.144,1673.17L9.424,1673.61L9.708,1674.05L9.996,1674.49L10.287,1674.92L10.583,1675.35L10.882,1675.78L11.185,1676.21L11.491,1676.63L11.802,1677.05L12.116,1677.47L12.434,1677.88L12.755,1678.29L13.08,1678.7L13.408,1679.11L13.74,1679.51L14.076,1679.91L14.415,1680.31L14.757,1680.7L15.104,1681.09L15.453,1681.48L15.806,1681.87L16.162,1682.25L16.522,1682.63L16.884,1683L17.251,1683.38L17.62,1683.75L17.993,1684.11L18.368,1684.48L18.747,1684.84L19.129,1685.19L19.515,1685.54L19.903,1685.89L20.294,1686.24L20.689,1686.58L21.086,1686.92L21.486,1687.26L21.89,1687.59L22.296,1687.92L22.705,1688.24L23.117,1688.56L23.531,1688.88L23.949,1689.2L24.369,1689.51L24.792,1689.81L25.217,1690.12L25.646,1690.41L26.076,1690.71L26.51,1691L26.946,1691.29L27.384,1691.57L27.825,1691.85L28.268,1692.13L28.714,1692.4L29.162,1692.67L29.613,1692.93L30.065,1693.2L30.521,1693.45L30.978,1693.7L31.437,1693.95L31.899,1694.2L32.363,1694.44L32.829,1694.67L33.296,1694.91L33.766,1695.13L34.238,1695.36L34.712,1695.58L35.188,1695.79L35.666,1696.01L36.145,1696.21L36.627,1696.42L37.109,1696.61L37.594,1696.81L38.081,1697L38.569,1697.19L39.059,1697.37L39.55,1697.54L40.043,1697.72L40.537,1697.89L41.033,1698.05L41.53,1698.21L42.029,1698.37L42.529,1698.52L43.03,1698.67L43.532,1698.81L44.036,1698.95L44.541,1699.08L45.047,1699.21L46.063,1699.45L46.572,1699.57L47.594,1699.79L48.106,1699.89L48.619,1699.99L49.133,1700.08L49.648,1700.17L50.164,1700.26L50.68,1700.34L51.196,1700.41L52.232,1700.55L53.27,1700.67L54.31,1700.77L55.352,1700.85L55.873,1700.88L56.394,1700.92L57.96,1700.98L58.482,1700.99L59.005,1701L1641.78,1701L1642.3,1700.99L1642.83,1700.98L1644.39,1700.92L1644.91,1700.88L1645.44,1700.85L1646.48,1700.77L1647.52,1700.67L1648.04,1700.61L1648.55,1700.55L1649.07,1700.48L1650.11,1700.34L1650.62,1700.26L1651.14,1700.17L1651.65,1700.08L1652.17,1699.99L1652.68,1699.89L1653.19,1699.79L1654.21,1699.57L1655.74,1699.21L1656.25,1699.08L1656.75,1698.95L1657.25,1698.81L1657.76,1698.67L1658.76,1698.37L1659.26,1698.21L1659.75,1698.05L1660.25,1697.89L1660.74,1697.72L1661.24,1697.54L1661.73,1697.37L1662.22,1697.19L1662.71,1697L1663.19,1696.81L1663.68,1696.61L1664.16,1696.42L1664.64,1696.21L1665.12,1696.01L1665.6,1695.79L1666.07,1695.58L1666.55,1695.36L1667.02,1695.13L1667.49,1694.91L1667.96,1694.67L1668.42,1694.44L1668.89,1694.2L1669.35,1693.95L1669.81,1693.7L1670.27,1693.45L1670.72,1693.2L1671.17,1692.93L1671.63,1692.67L1672.07,1692.4L1672.52,1692.13L1672.96,1691.85L1673.4,1691.57L1673.84,1691.29L1674.28,1691L1674.71,1690.71L1675.14,1690.41L1675.57,1690.12L1676,1689.81L1676.42,1689.51L1676.84,1689.2L1677.26,1688.88L1677.67,1688.56L1678.08,1688.24L1678.49,1687.92L1678.9,1687.59L1679.3,1687.26L1679.7,1686.92L1680.1,1686.58L1680.49,1686.24L1681.66,1685.19L1682.04,1684.84L1682.42,1684.48L1682.79,1684.11L1683.17,1683.75L1683.54,1683.38L1683.9,1683L1684.27,1682.63L1684.63,1682.25L1684.98,1681.87L1685.33,1681.48L1685.68,1681.09L1686.03,1680.7L1686.37,1680.31L1686.71,1679.91L1687.05,1679.51L1687.38,1679.11L1687.71,1678.7L1688.03,1678.29L1688.35,1677.88L1688.67,1677.47L1688.99,1677.05L1689.29,1676.63L1689.6,1676.21L1689.91,1675.78L1690.2,1675.35L1690.5,1674.92L1690.79,1674.49L1691.08,1674.05L1691.92,1672.73L1692.19,1672.28L1692.46,1671.84L1692.72,1671.38L1692.99,1670.93L1693.24,1670.48L1693.99,1669.1L1694.23,1668.63L1694.46,1668.17L1694.7,1667.7L1694.92,1667.23L1695.15,1666.76L1695.37,1666.29L1695.58,1665.81L1695.8,1665.33L1696,1664.85L1696.21,1664.37L1696.4,1663.89L1696.6,1663.4L1696.79,1662.92L1696.98,1662.43L1697.16,1661.94L1697.33,1661.45L1697.51,1660.95L1697.68,1660.46L1697.84,1659.96L1698,1659.47L1698.16,1658.97L1698.31,1658.47L1698.46,1657.97L1698.6,1657.46L1698.74,1656.96L1698.87,1656.46L1699,1655.95L1699.36,1654.42L1699.58,1653.4L1699.68,1652.89L1699.78,1652.38L1699.87,1651.86L1699.96,1651.35L1700.05,1650.83L1700.13,1650.32L1700.2,1649.8L1700.27,1649.28L1700.34,1648.76L1700.4,1648.25L1700.46,1647.73L1700.56,1646.69L1700.6,1646.17L1700.64,1645.65L1700.67,1645.12L1700.71,1644.6L1700.77,1643.04L1700.78,1642.51L1700.79,1641.99L1700.79,59.215L1700.77,58.171L1700.75,57.649L1700.73,57.127L1700.71,56.605L1700.67,56.083L1700.64,55.563L1700.6,55.042L1700.56,54.521L1700.51,54L1700.46,53.481L1700.4,52.962L1700.34,52.443L1700.27,51.925L1700.2,51.407L1700.13,50.891L1700.05,50.375L1699.96,49.859L1699.87,49.344L1699.78,48.83L1699.68,48.317L1699.58,47.805L1699.47,47.293L1699.36,46.783L1699.24,46.274L1699.12,45.765L1699,45.258L1698.87,44.752L1698.74,44.247L1698.6,43.743L1698.46,43.241L1698.31,42.74L1698.16,42.24L1698,41.741L1697.84,41.244L1697.68,40.748L1697.51,40.253L1697.33,39.761L1697.16,39.269L1696.98,38.78L1696.79,38.292L1696.6,37.805L1696.4,37.32L1696.21,36.837L1696,36.356L1695.8,35.876L1695.58,35.399L1695.37,34.923L1695.15,34.449L1694.92,33.977L1694.7,33.507L1694.46,33.04L1694.23,32.574L1693.99,32.11L1693.74,31.648L1693.49,31.188L1693.24,30.731L1692.99,30.276L1692.72,29.824L1692.46,29.373L1692.19,28.925L1691.92,28.479L1691.64,28.036L1691.36,27.595L1691.08,27.157L1690.79,26.721L1690.5,26.287L1690.2,25.856L1689.91,25.428L1689.6,25.002L1689.29,24.58L1688.99,24.16L1688.67,23.742L1688.35,23.328L1688.03,22.916L1687.71,22.506L1687.38,22.101L1687.05,21.697L1686.71,21.297L1686.37,20.899L1686.03,20.505L1685.68,20.114L1685.33,19.726L1684.98,19.34L1684.63,18.958L1684.27,18.579L1683.9,18.204L1683.54,17.831L1683.17,17.461L1682.79,17.095L1682.42,16.732L1682.04,16.373L1681.66,16.017L1681.27,15.664L1680.88,15.314L1680.49,14.968L1680.1,14.626L1679.7,14.287L1679.3,13.951L1678.9,13.619L1678.49,13.291L1678.08,12.966L1677.67,12.645L1677.26,12.327L1676.84,12.013L1676.42,11.703L1676,11.396L1675.57,11.093L1675.14,10.793L1674.71,10.498L1674.28,10.207L1673.84,9.918L1673.4,9.634L1672.96,9.354L1672.52,9.078L1672.07,8.806L1671.63,8.538L1671.17,8.273L1670.72,8.012L1670.27,7.756L1669.81,7.503L1669.35,7.255L1668.89,7.01L1668.42,6.77L1667.96,6.534L1667.49,6.301L1667.02,6.073L1666.55,5.849L1666.07,5.629L1665.6,5.414L1665.12,5.202L1664.64,4.995L1664.16,4.791L1663.68,4.593L1663.19,4.398L1662.71,4.208L1662.22,4.022L1661.73,3.84L1661.24,3.663L1660.74,3.49L1660.25,3.321L1659.75,3.156L1659.26,2.996L1658.76,2.84L1658.26,2.689L1657.76,2.542L1657.25,2.399L1656.75,2.261L1656.25,2.127L1655.74,1.999L1655.23,1.874L1654.72,1.753L1654.21,1.637L1653.7,1.526L1653.19,1.419L1652.68,1.316L1652.17,1.218L1651.65,1.125L1651.14,1.036L1650.62,0.952L1650.11,0.872L1649.59,0.796L1649.07,0.725L1648.55,0.659L1648.04,0.597L1647.52,0.541L1647,0.488L1646.48,0.439L1645.96,0.396L1645.44,0.357L1644.91,0.323L1644.39,0.293L1643.87,0.268L1643.35,0.247L1642.83,0.231L1642.3,0.22L1641.78,0.213L1641.26,0.21L59.527,0.21Z" style="fill:white;"/>
        <path d="M59.527,34.226L59.303,34.227L59.08,34.23L58.856,34.235L58.632,34.242L58.408,34.25L58.185,34.261L57.961,34.274L57.738,34.289L57.514,34.306L57.291,34.324L57.068,34.345L56.846,34.368L56.623,34.392L56.401,34.418L56.179,34.447L55.957,34.477L55.735,34.509L55.514,34.544L55.293,34.58L55.073,34.618L54.852,34.658L54.632,34.7L54.413,34.744L54.194,34.79L53.975,34.837L53.757,34.887L53.539,34.939L53.321,34.993L53.105,35.048L52.888,35.105L52.672,35.165L52.457,35.226L52.242,35.289L52.028,35.353L51.814,35.42L51.601,35.489L51.388,35.559L51.177,35.631L50.965,35.706L50.755,35.782L50.545,35.86L50.336,35.939L50.127,36.021L49.919,36.104L49.712,36.189L49.506,36.277L49.301,36.366L49.096,36.456L48.892,36.548L48.689,36.643L48.487,36.739L48.285,36.836L48.085,36.936L47.885,37.038L47.687,37.14L47.489,37.245L47.292,37.352L47.096,37.46L46.901,37.57L46.707,37.682L46.514,37.795L46.321,37.91L46.13,38.027L45.94,38.145L45.752,38.265L45.564,38.387L45.377,38.51L45.191,38.635L45.006,38.762L44.823,38.89L44.641,39.02L44.46,39.151L44.279,39.284L44.1,39.419L43.922,39.555L43.746,39.693L43.571,39.832L43.397,39.973L43.224,40.115L43.052,40.259L42.882,40.404L42.713,40.551L42.545,40.699L42.379,40.849L42.214,41L42.05,41.153L41.888,41.307L41.727,41.462L41.567,41.62L41.409,41.778L41.252,41.938L41.096,42.099L40.942,42.261L40.79,42.425L40.638,42.59L40.488,42.756L40.34,42.924L40.193,43.093L40.048,43.263L39.904,43.435L39.762,43.608L39.621,43.782L39.482,43.957L39.344,44.133L39.208,44.311L39.073,44.49L38.94,44.67L38.809,44.852L38.679,45.034L38.551,45.217L38.424,45.402L38.299,45.587L38.176,45.775L38.054,45.962L37.934,46.151L37.816,46.341L37.699,46.532L37.584,46.725L37.471,46.917L37.359,47.112L37.249,47.307L37.141,47.502L37.034,47.7L36.93,47.897L36.827,48.096L36.725,48.296L36.626,48.497L36.528,48.698L36.432,48.9L36.337,49.103L36.245,49.307L36.155,49.512L36.066,49.717L35.979,49.923L35.894,50.13L35.81,50.338L35.729,50.546L35.649,50.756L35.571,50.966L35.495,51.176L35.42,51.387L35.348,51.599L35.278,51.812L35.209,52.025L35.143,52.239L35.078,52.453L35.015,52.667L34.954,52.883L34.894,53.099L34.837,53.315L34.782,53.533L34.728,53.75L34.676,53.967L34.627,54.186L34.579,54.405L34.533,54.624L34.489,54.843L34.447,55.063L34.407,55.284L34.369,55.504L34.333,55.725L34.299,55.946L34.266,56.167L34.236,56.39L34.208,56.612L34.181,56.834L34.157,57.056L34.134,57.279L34.113,57.502L34.095,57.725L34.078,57.949L34.064,58.172L34.051,58.396L34.04,58.619L34.031,58.843L34.024,59.066L34.019,59.291L34.016,59.514L34.015,59.738L34.015,1641.47L34.016,1641.69L34.019,1641.92L34.024,1642.14L34.031,1642.37L34.04,1642.59L34.051,1642.81L34.064,1643.04L34.078,1643.26L34.095,1643.48L34.113,1643.71L34.134,1643.93L34.157,1644.15L34.181,1644.37L34.208,1644.6L34.236,1644.82L34.266,1645.04L34.299,1645.26L34.333,1645.48L34.369,1645.7L34.407,1645.92L34.447,1646.14L34.489,1646.36L34.533,1646.58L34.579,1646.8L34.627,1647.02L34.676,1647.24L34.728,1647.46L34.782,1647.68L34.837,1647.89L34.894,1648.11L34.954,1648.32L35.015,1648.54L35.078,1648.75L35.143,1648.97L35.209,1649.18L35.278,1649.4L35.348,1649.61L35.42,1649.82L35.495,1650.03L35.571,1650.24L35.649,1650.45L35.729,1650.66L35.81,1650.87L35.894,1651.08L35.979,1651.28L36.066,1651.49L36.155,1651.7L36.245,1651.9L36.337,1652.1L36.432,1652.31L36.528,1652.51L36.626,1652.71L36.725,1652.91L36.827,1653.11L36.93,1653.31L37.034,1653.51L37.141,1653.71L37.249,1653.9L37.359,1654.1L37.471,1654.29L37.584,1654.48L37.699,1654.68L37.816,1654.87L37.934,1655.06L38.054,1655.25L38.176,1655.43L38.299,1655.62L38.424,1655.81L38.551,1655.99L38.679,1656.17L38.809,1656.36L38.94,1656.54L39.073,1656.72L39.208,1656.9L39.344,1657.07L39.482,1657.25L39.621,1657.43L39.762,1657.6L39.904,1657.77L40.048,1657.94L40.193,1658.12L40.34,1658.28L40.488,1658.45L40.638,1658.62L40.79,1658.78L40.942,1658.95L41.096,1659.11L41.252,1659.27L41.409,1659.43L41.567,1659.59L41.727,1659.75L41.888,1659.9L42.05,1660.05L42.214,1660.21L42.379,1660.36L42.545,1660.51L42.713,1660.66L42.882,1660.8L43.052,1660.95L43.224,1661.09L43.397,1661.24L43.571,1661.38L43.746,1661.51L43.922,1661.65L44.1,1661.79L44.279,1661.92L44.46,1662.06L44.641,1662.19L44.823,1662.32L45.006,1662.45L45.191,1662.57L45.377,1662.7L45.564,1662.82L45.94,1663.06L46.13,1663.18L46.321,1663.3L46.514,1663.41L46.707,1663.53L46.901,1663.64L47.096,1663.75L47.292,1663.86L47.489,1663.96L47.687,1664.07L47.885,1664.17L48.285,1664.37L48.689,1664.57L48.892,1664.66L49.096,1664.75L49.506,1664.93L49.712,1665.02L49.919,1665.1L50.127,1665.19L50.545,1665.35L50.755,1665.43L50.965,1665.5L51.177,1665.58L51.388,1665.65L51.814,1665.79L52.028,1665.85L52.242,1665.92L52.672,1666.04L52.888,1666.1L53.105,1666.16L53.321,1666.22L53.975,1666.37L54.194,1666.42L54.413,1666.46L54.632,1666.51L54.852,1666.55L55.073,1666.59L55.293,1666.63L55.514,1666.66L55.735,1666.7L56.623,1666.82L56.846,1666.84L57.068,1666.86L57.514,1666.9L57.738,1666.92L57.961,1666.93L58.185,1666.95L58.408,1666.96L58.632,1666.97L58.856,1666.97L59.08,1666.98L1641.71,1666.98L1641.94,1666.97L1642.16,1666.97L1642.38,1666.96L1642.61,1666.95L1642.83,1666.93L1643.06,1666.92L1643.28,1666.9L1643.51,1666.88L1643.73,1666.86L1643.96,1666.84L1644.18,1666.81L1644.4,1666.79L1644.63,1666.76L1645.07,1666.7L1645.29,1666.66L1645.52,1666.62L1645.74,1666.59L1645.96,1666.54L1646.18,1666.5L1646.4,1666.46L1646.84,1666.36L1647.06,1666.31L1647.5,1666.21L1647.94,1666.09L1648.15,1666.03L1648.37,1665.97L1648.58,1665.91L1648.8,1665.84L1649.01,1665.77L1649.23,1665.71L1649.44,1665.63L1649.66,1665.56L1649.87,1665.49L1650.08,1665.41L1650.29,1665.33L1650.71,1665.17L1650.92,1665.08L1651.13,1665L1651.33,1664.91L1651.54,1664.82L1651.75,1664.73L1651.95,1664.63L1652.15,1664.54L1652.36,1664.44L1652.56,1664.34L1652.96,1664.14L1653.16,1664.04L1653.36,1663.93L1653.56,1663.82L1653.75,1663.71L1653.95,1663.6L1654.15,1663.49L1654.34,1663.37L1654.53,1663.26L1654.72,1663.14L1654.91,1663.02L1655.1,1662.9L1655.29,1662.78L1655.48,1662.65L1655.67,1662.52L1655.85,1662.4L1656.04,1662.27L1656.22,1662.14L1656.4,1662L1656.58,1661.87L1656.76,1661.73L1656.94,1661.59L1657.12,1661.46L1657.29,1661.32L1657.47,1661.17L1657.64,1661.03L1657.81,1660.88L1657.98,1660.74L1658.15,1660.59L1658.32,1660.44L1658.49,1660.29L1658.65,1660.13L1658.82,1659.98L1658.98,1659.83L1659.3,1659.51L1659.46,1659.35L1659.62,1659.19L1659.77,1659.03L1659.92,1658.86L1660.08,1658.7L1660.53,1658.19L1660.67,1658.02L1660.82,1657.85L1660.96,1657.68L1661.11,1657.5L1661.25,1657.33L1661.38,1657.15L1661.66,1656.79L1661.79,1656.61L1661.93,1656.43L1662.06,1656.25L1662.19,1656.06L1662.31,1655.88L1662.44,1655.69L1662.57,1655.5L1662.69,1655.31L1662.81,1655.12L1663.05,1654.74L1663.16,1654.55L1663.28,1654.36L1663.5,1653.96L1663.61,1653.77L1663.83,1653.37L1663.93,1653.17L1664.23,1652.57L1664.33,1652.36L1664.42,1652.16L1664.52,1651.96L1664.7,1651.54L1664.79,1651.34L1664.87,1651.13L1664.96,1650.92L1665.04,1650.71L1665.2,1650.29L1665.28,1650.08L1665.35,1649.87L1665.42,1649.65L1665.5,1649.44L1665.56,1649.22L1665.63,1649.01L1665.7,1648.79L1665.76,1648.58L1665.82,1648.36L1665.88,1648.15L1665.94,1647.93L1666,1647.71L1666.05,1647.49L1666.1,1647.27L1666.15,1647.05L1666.2,1646.83L1666.25,1646.61L1666.29,1646.39L1666.33,1646.17L1666.38,1645.95L1666.41,1645.73L1666.45,1645.5L1666.49,1645.28L1666.55,1644.84L1666.58,1644.61L1666.6,1644.39L1666.63,1644.17L1666.65,1643.94L1666.67,1643.72L1666.69,1643.49L1666.71,1643.27L1666.72,1643.04L1666.74,1642.82L1666.75,1642.59L1666.76,1642.37L1666.76,1642.15L1666.77,1641.92L1666.77,59.291L1666.76,59.066L1666.76,58.843L1666.75,58.619L1666.74,58.396L1666.72,58.172L1666.71,57.949L1666.69,57.725L1666.67,57.502L1666.65,57.279L1666.63,57.056L1666.61,56.834L1666.58,56.612L1666.55,56.39L1666.52,56.167L1666.49,55.946L1666.45,55.725L1666.42,55.504L1666.38,55.284L1666.34,55.063L1666.3,54.843L1666.25,54.624L1666.21,54.405L1666.16,54.186L1666.11,53.967L1666.06,53.75L1666.01,53.533L1665.95,53.315L1665.89,53.099L1665.83,52.883L1665.77,52.667L1665.71,52.453L1665.64,52.239L1665.58,52.025L1665.51,51.812L1665.44,51.599L1665.37,51.387L1665.29,51.176L1665.22,50.966L1665.06,50.546L1664.98,50.338L1664.89,50.13L1664.81,49.923L1664.72,49.717L1664.63,49.512L1664.54,49.307L1664.45,49.103L1664.36,48.9L1664.26,48.698L1664.16,48.497L1664.06,48.296L1663.96,48.096L1663.86,47.897L1663.75,47.7L1663.65,47.502L1663.43,47.112L1663.32,46.917L1663.2,46.725L1663.09,46.532L1662.97,46.341L1662.85,46.151L1662.73,45.962L1662.61,45.775L1662.49,45.587L1662.36,45.402L1662.24,45.217L1662.11,45.034L1661.85,44.67L1661.71,44.49L1661.58,44.311L1661.44,44.133L1661.3,43.957L1661.17,43.782L1661.03,43.608L1660.88,43.435L1660.74,43.263L1660.59,43.093L1660.45,42.924L1660.3,42.756L1660.15,42.59L1660,42.425L1659.84,42.261L1659.69,42.099L1659.54,41.938L1659.38,41.778L1659.22,41.62L1659.06,41.462L1658.9,41.307L1658.74,41.153L1658.57,41L1658.41,40.849L1658.24,40.699L1658.07,40.551L1657.91,40.404L1657.73,40.259L1657.56,40.115L1657.39,39.973L1657.22,39.832L1657.04,39.693L1656.86,39.555L1656.69,39.419L1656.51,39.284L1656.33,39.151L1656.15,39.02L1655.96,38.89L1655.78,38.762L1655.6,38.635L1655.41,38.51L1655.22,38.387L1655.04,38.265L1654.85,38.145L1654.66,38.027L1654.47,37.91L1654.27,37.795L1654.08,37.682L1653.89,37.57L1653.69,37.46L1653.5,37.352L1653.3,37.245L1653.1,37.14L1652.9,37.038L1652.7,36.936L1652.5,36.836L1652.3,36.739L1652.1,36.643L1651.89,36.548L1651.69,36.456L1651.49,36.366L1651.28,36.277L1651.07,36.189L1650.87,36.104L1650.66,36.021L1650.45,35.939L1650.24,35.86L1650.03,35.782L1649.82,35.706L1649.61,35.631L1649.4,35.559L1649.19,35.489L1648.97,35.42L1648.76,35.353L1648.54,35.289L1648.33,35.226L1648.12,35.165L1647.9,35.105L1647.68,35.048L1647.46,34.993L1647.25,34.939L1647.03,34.887L1646.81,34.837L1646.59,34.79L1646.37,34.744L1646.15,34.7L1645.93,34.658L1645.71,34.618L1645.49,34.58L1645.27,34.544L1645.05,34.509L1644.83,34.477L1644.61,34.447L1644.39,34.418L1644.16,34.392L1643.94,34.368L1643.72,34.345L1643.5,34.324L1643.27,34.306L1643.05,34.289L1642.83,34.274L1642.6,34.261L1642.38,34.25L1642.16,34.242L1641.93,34.235L1641.71,34.23L1641.48,34.227L1641.26,34.226L59.527,34.226Z" style="fill:rgb(0,64,128);"/>
        <path d="M1311.44,269.371L1311,268.925L1310.55,268.482L1310.1,268.044L1309.64,267.609L1309.18,267.179L1308.71,266.753L1308.25,266.331L1307.77,265.913L1307.3,265.499L1306.82,265.09L1306.34,264.685L1305.85,264.283L1305.36,263.887L1304.87,263.495L1304.37,263.107L1303.87,262.724L1303.37,262.345L1302.86,261.971L1302.35,261.601L1301.83,261.235L1301.32,260.875L1300.8,260.519L1300.27,260.167L1299.75,259.82L1299.22,259.478L1298.69,259.141L1298.15,258.808L1297.61,258.481L1297.07,258.157L1296.53,257.839L1295.98,257.526L1295.43,257.217L1294.88,256.914L1294.32,256.615L1293.77,256.321L1293.21,256.032L1292.64,255.749L1292.08,255.47L1291.51,255.196L1290.94,254.928L1290.37,254.664L1289.79,254.406L1289.21,254.152L1288.63,253.904L1288.05,253.661L1287.47,253.423L1286.88,253.191L1286.3,252.963L1285.71,252.741L1285.11,252.524L1284.52,252.313L1283.93,252.106L1283.33,251.905L1282.73,251.71L1282.13,251.519L1281.53,251.334L1280.92,251.154L1280.32,250.98L1279.71,250.812L1279.1,250.648L1278.49,250.49L1277.88,250.337L1277.26,250.189L1276.65,250.048L1276.04,249.912L1275.42,249.781L1274.8,249.656L1274.18,249.536L1273.56,249.421L1272.94,249.313L1272.32,249.21L1271.7,249.112L1271.07,249.02L1270.45,248.933L1269.82,248.852L1269.2,248.776L1268.57,248.707L1267.95,248.642L1267.32,248.584L1266.69,248.53L1266.06,248.482L1265.43,248.44L1264.8,248.404L1264.17,248.373L1263.54,248.348L1262.91,248.329L1262.28,248.314L1261.65,248.306L1261.02,248.303L439.765,248.303L439.143,248.306L438.52,248.314L437.897,248.328L437.275,248.347L436.653,248.372L436.031,248.402L435.41,248.438L434.789,248.478L434.167,248.524L433.547,248.577L432.927,248.634L432.308,248.697L431.689,248.765L431.071,248.839L430.453,248.918L429.836,249.002L429.22,249.092L428.605,249.188L427.991,249.288L427.377,249.395L426.765,249.506L426.153,249.623L425.542,249.745L424.933,249.873L424.325,250.006L423.718,250.144L423.112,250.288L422.508,250.437L421.904,250.591L421.303,250.751L420.702,250.915L420.104,251.085L419.506,251.261L418.91,251.441L418.316,251.627L417.724,251.818L417.133,252.015L416.543,252.216L415.956,252.423L415.371,252.634L414.787,252.851L414.206,253.073L413.626,253.3L413.048,253.532L412.473,253.77L411.899,254.012L411.328,254.259L410.758,254.512L410.191,254.769L409.627,255.031L409.064,255.298L408.505,255.571L407.947,255.848L407.392,256.13L406.839,256.417L406.29,256.708L405.742,257.005L405.197,257.306L404.655,257.612L404.116,257.923L403.579,258.238L403.045,258.559L402.514,258.884L401.986,259.213L401.46,259.548L400.938,259.886L400.419,260.23L399.902,260.578L399.389,260.93L398.879,261.287L398.372,261.648L397.869,262.015L397.368,262.385L396.871,262.759L396.377,263.139L395.886,263.522L395.399,263.909L394.915,264.301L394.435,264.697L393.958,265.098L393.485,265.502L393.015,265.911L392.549,266.324L392.086,266.741L391.628,267.162L391.173,267.586L390.722,268.015L390.274,268.448L389.83,268.885L389.391,269.325L388.955,269.77L388.522,270.218L388.094,270.67L387.67,271.126L387.25,271.586L386.834,272.049L386.422,272.516L386.015,272.986L385.611,273.46L385.211,273.938L384.816,274.419L384.425,274.903L384.038,275.391L383.656,275.882L383.278,276.377L382.904,276.875L382.535,277.376L382.169,277.88L381.809,278.388L381.453,278.899L381.102,279.413L380.754,279.93L380.412,280.449L380.074,280.973L379.741,281.498L379.412,282.027L379.088,282.559L378.769,283.093L378.455,283.63L378.145,284.17L377.839,284.713L377.539,285.259L377.244,285.807L376.953,286.357L376.667,286.91L376.386,287.466L376.11,288.024L375.839,288.584L375.573,289.147L375.312,289.712L375.055,290.279L374.804,290.849L374.558,291.421L374.316,291.995L374.08,292.571L373.849,293.149L373.623,293.729L373.402,294.312L373.186,294.895L372.975,295.481L372.77,296.068L372.569,296.658L372.374,297.249L372.184,297.842L372,298.437L371.82,299.033L371.646,299.631L371.477,300.23L371.313,300.831L371.154,301.433L371.001,302.036L370.854,302.641L370.711,303.247L370.574,303.855L370.442,304.463L370.315,305.072L370.194,305.683L370.078,306.295L369.968,306.907L369.863,307.522L369.763,308.136L369.669,308.751L369.58,309.367L369.497,309.984L369.418,310.602L369.346,311.22L369.279,311.839L369.217,312.459L369.161,313.079L369.11,313.699L340.157,687.673L339.657,687.676L339.157,687.682L338.657,687.693L338.157,687.709L337.657,687.729L337.157,687.753L336.658,687.781L336.158,687.814L335.66,687.852L335.161,687.894L334.663,687.94L334.165,687.991L333.668,688.046L333.171,688.106L332.675,688.169L332.179,688.237L331.684,688.31L331.19,688.387L330.696,688.468L330.203,688.554L329.711,688.644L329.22,688.738L328.729,688.837L328.24,688.94L327.751,689.047L327.264,689.159L326.777,689.275L326.291,689.395L325.807,689.52L325.323,689.648L324.841,689.782L324.36,689.919L323.88,690.061L323.401,690.206L322.924,690.356L322.448,690.51L321.974,690.668L321.5,690.831L321.029,690.998L320.559,691.169L320.09,691.344L319.623,691.523L319.157,691.706L318.693,691.894L318.231,692.085L317.771,692.281L317.312,692.48L316.855,692.684L316.4,692.892L315.946,693.103L315.495,693.319L315.045,693.538L314.598,693.762L314.152,693.989L313.709,694.221L313.268,694.456L312.828,694.695L312.391,694.939L311.956,695.186L311.522,695.437L311.092,695.691L310.664,695.949L310.237,696.211L309.814,696.478L309.392,696.747L308.973,697.021L308.557,697.297L308.143,697.578L307.731,697.862L307.322,698.15L306.915,698.442L306.511,698.737L306.11,699.036L305.711,699.338L305.315,699.644L304.922,699.953L304.531,700.266L304.144,700.582L303.759,700.901L303.376,701.224L302.997,701.55L302.621,701.88L302.247,702.213L301.877,702.549L301.509,702.889L301.145,703.231L300.783,703.577L300.425,703.926L300.069,704.278L299.717,704.634L299.368,704.992L299.022,705.354L298.68,705.718L298.34,706.085L298.004,706.456L297.671,706.83L297.342,707.206L297.016,707.585L296.692,707.967L296.373,708.352L296.057,708.74L295.744,709.131L295.435,709.524L295.129,709.92L294.827,710.319L294.528,710.72L294.233,711.124L293.941,711.53L293.654,711.939L293.369,712.351L293.089,712.766L292.812,713.182L292.538,713.601L292.269,714.023L292.003,714.446L291.741,714.872L291.482,715.301L291.228,715.731L290.977,716.164L290.73,716.6L290.487,717.037L290.248,717.476L290.012,717.918L289.781,718.361L289.553,718.807L289.33,719.254L289.11,719.704L288.895,720.155L288.683,720.608L288.475,721.064L288.271,721.521L288.072,721.98L287.876,722.44L287.685,722.902L287.498,723.366L287.314,723.832L287.135,724.299L286.96,724.768L286.789,725.237L286.623,725.709L286.46,726.183L286.302,726.657L286.147,727.133L285.997,727.61L285.852,728.089L285.71,728.568L285.573,729.05L285.44,729.532L285.311,730.016L285.187,730.5L285.066,730.985L284.95,731.472L284.839,731.96L284.731,732.449L284.628,732.939L284.53,733.429L284.436,733.92L284.345,734.412L284.26,734.905L284.178,735.398L284.102,735.893L284.029,736.388L283.96,736.884L283.896,737.38L283.837,737.877L283.782,738.374L283.731,738.872L283.685,739.37L283.644,739.868L283.606,740.367L283.573,740.866L283.544,741.366L283.52,741.866L283.5,742.365L283.484,742.865L283.474,743.366L283.467,743.866L283.465,744.366L283.465,1254.6L326.211,1254.6L483.058,1097.76L475.783,1097.76L648.223,701.477L437.103,701.477L437.103,624.115L741.022,624.115L741.022,695.951L630.211,950.603L838.414,742.4L838.414,726.498L854.316,726.498L1311.44,269.371Z" style="fill:white;"/>
        <path d="M1666.77,154.533L1666.77,59.291L1666.76,59.066L1666.76,58.843L1666.75,58.619L1666.74,58.396L1666.72,58.172L1666.71,57.949L1666.69,57.725L1666.67,57.502L1666.65,57.279L1666.63,57.056L1666.61,56.834L1666.58,56.612L1666.55,56.39L1666.52,56.167L1666.49,55.946L1666.45,55.725L1666.42,55.504L1666.38,55.284L1666.34,55.063L1666.3,54.843L1666.25,54.624L1666.21,54.405L1666.16,54.186L1666.11,53.967L1666.06,53.75L1666.01,53.533L1665.95,53.315L1665.89,53.099L1665.83,52.883L1665.77,52.667L1665.71,52.453L1665.64,52.239L1665.58,52.025L1665.51,51.812L1665.44,51.599L1665.37,51.387L1665.29,51.176L1665.22,50.966L1665.06,50.546L1664.98,50.338L1664.89,50.13L1664.81,49.923L1664.72,49.717L1664.63,49.512L1664.54,49.307L1664.45,49.103L1664.36,48.9L1664.26,48.698L1664.16,48.497L1664.06,48.296L1663.96,48.096L1663.86,47.897L1663.75,47.7L1663.65,47.502L1663.43,47.112L1663.32,46.917L1663.2,46.725L1663.09,46.532L1662.97,46.341L1662.85,46.151L1662.73,45.962L1662.61,45.775L1662.49,45.587L1662.36,45.402L1662.24,45.217L1662.11,45.034L1661.85,44.67L1661.71,44.49L1661.58,44.311L1661.44,44.133L1661.3,43.957L1661.17,43.782L1661.03,43.608L1660.88,43.435L1660.74,43.263L1660.59,43.093L1660.45,42.924L1660.3,42.756L1660.15,42.59L1660,42.425L1659.84,42.261L1659.69,42.099L1659.54,41.938L1659.38,41.778L1659.22,41.62L1659.06,41.462L1658.9,41.307L1658.74,41.153L1658.57,41L1658.41,40.849L1658.24,40.699L1658.07,40.551L1657.91,40.404L1657.73,40.259L1657.56,40.115L1657.39,39.973L1657.22,39.832L1657.04,39.693L1656.86,39.555L1656.69,39.419L1656.51,39.284L1656.33,39.151L1656.15,39.02L1655.96,38.89L1655.78,38.762L1655.6,38.635L1655.41,38.51L1655.22,38.387L1655.04,38.265L1654.85,38.145L1654.66,38.027L1654.47,37.91L1654.27,37.795L1654.08,37.682L1653.89,37.57L1653.69,37.46L1653.5,37.352L1653.3,37.245L1653.1,37.14L1652.9,37.038L1652.7,36.936L1652.5,36.836L1652.3,36.739L1652.1,36.643L1651.89,36.548L1651.69,36.456L1651.49,36.366L1651.28,36.277L1651.07,36.189L1650.87,36.104L1650.66,36.021L1650.45,35.939L1650.24,35.86L1650.03,35.782L1649.82,35.706L1649.61,35.631L1649.4,35.559L1649.19,35.489L1648.97,35.42L1648.76,35.353L1648.54,35.289L1648.33,35.226L1648.12,35.165L1647.9,35.105L1647.68,35.048L1647.46,34.993L1647.25,34.939L1647.03,34.887L1646.81,34.837L1646.59,34.79L1646.37,34.744L1646.15,34.7L1645.93,34.658L1645.71,34.618L1645.49,34.58L1645.27,34.544L1645.05,34.509L1644.83,34.477L1644.61,34.447L1644.39,34.418L1644.16,34.392L1643.94,34.368L1643.72,34.345L1643.5,34.324L1643.27,34.306L1643.05,34.289L1642.83,34.274L1642.6,34.261L1642.38,34.25L1642.16,34.242L1641.93,34.235L1641.71,34.23L1641.48,34.227L1641.26,34.226L1546.59,34.226L34.015,1546.8L34.015,1641.47L34.016,1641.69L34.019,1641.92L34.024,1642.14L34.031,1642.37L34.04,1642.59L34.051,1642.81L34.064,1643.04L34.078,1643.26L34.095,1643.48L34.113,1643.71L34.134,1643.93L34.157,1644.15L34.181,1644.37L34.208,1644.6L34.236,1644.82L34.266,1645.04L34.299,1645.26L34.333,1645.48L34.369,1645.7L34.407,1645.92L34.447,1646.14L34.489,1646.36L34.533,1646.58L34.579,1646.8L34.627,1647.02L34.676,1647.24L34.728,1647.46L34.782,1647.68L34.837,1647.89L34.894,1648.11L34.954,1648.32L35.015,1648.54L35.078,1648.75L35.143,1648.97L35.209,1649.18L35.278,1649.4L35.348,1649.61L35.42,1649.82L35.495,1650.03L35.571,1650.24L35.649,1650.45L35.729,1650.66L35.81,1650.87L35.894,1651.08L35.979,1651.28L36.066,1651.49L36.155,1651.7L36.245,1651.9L36.337,1652.1L36.432,1652.31L36.528,1652.51L36.626,1652.71L36.725,1652.91L36.827,1653.11L36.93,1653.31L37.034,1653.51L37.141,1653.71L37.249,1653.9L37.359,1654.1L37.471,1654.29L37.584,1654.48L37.699,1654.68L37.816,1654.87L37.934,1655.06L38.054,1655.25L38.176,1655.43L38.299,1655.62L38.424,1655.81L38.551,1655.99L38.679,1656.17L38.809,1656.36L38.94,1656.54L39.073,1656.72L39.208,1656.9L39.344,1657.07L39.482,1657.25L39.621,1657.43L39.762,1657.6L39.904,1657.77L40.048,1657.94L40.193,1658.12L40.34,1658.28L40.488,1658.45L40.638,1658.62L40.79,1658.78L40.942,1658.95L41.096,1659.11L41.252,1659.27L41.409,1659.43L41.567,1659.59L41.727,1659.75L41.888,1659.9L42.05,1660.05L42.214,1660.21L42.379,1660.36L42.545,1660.51L42.713,1660.66L42.882,1660.8L43.052,1660.95L43.224,1661.09L43.397,1661.24L43.571,1661.38L43.746,1661.51L43.922,1661.65L44.1,1661.79L44.279,1661.92L44.46,1662.06L44.641,1662.19L44.823,1662.32L45.006,1662.45L45.191,1662.57L45.377,1662.7L45.564,1662.82L45.94,1663.06L46.13,1663.18L46.321,1663.3L46.514,1663.41L46.707,1663.53L46.901,1663.64L47.096,1663.75L47.292,1663.86L47.489,1663.96L47.687,1664.07L47.885,1664.17L48.285,1664.37L48.689,1664.57L48.892,1664.66L49.096,1664.75L49.506,1664.93L49.712,1665.02L49.919,1665.1L50.127,1665.19L50.545,1665.35L50.755,1665.43L50.965,1665.5L51.177,1665.58L51.388,1665.65L51.814,1665.79L52.028,1665.85L52.242,1665.92L52.672,1666.04L52.888,1666.1L53.105,1666.16L53.321,1666.22L53.975,1666.37L54.194,1666.42L54.413,1666.46L54.632,1666.51L54.852,1666.55L55.073,1666.59L55.293,1666.63L55.514,1666.66L55.735,1666.7L56.623,1666.82L56.846,1666.84L57.068,1666.86L57.514,1666.9L57.738,1666.92L57.961,1666.93L58.185,1666.95L58.408,1666.96L58.632,1666.97L58.856,1666.97L59.08,1666.98L154.323,1666.98L1666.77,154.533Z" style="fill:rgb(211,63,39);"/>
        <path d="M1417.32,1254.6L1417.32,743.866L1417.31,743.366L1417.3,742.865L1417.29,742.365L1417.27,741.866L1417.21,740.866L1417.18,740.367L1417.14,739.868L1417.1,739.37L1417.06,738.872L1417.01,738.374L1416.95,737.877L1416.89,737.38L1416.83,736.884L1416.76,736.388L1416.69,735.893L1416.61,735.398L1416.53,734.905L1416.44,734.412L1416.35,733.92L1416.26,733.429L1416.16,732.939L1416.06,732.449L1415.95,731.96L1415.84,731.472L1415.72,730.985L1415.6,730.5L1415.48,730.016L1415.35,729.532L1415.21,729.05L1415.08,728.568L1414.94,728.089L1414.79,727.61L1414.64,727.133L1414.49,726.657L1414.33,726.183L1414.17,725.709L1414,725.237L1413.83,724.768L1413.65,724.299L1413.47,723.832L1413.29,723.366L1413.1,722.902L1412.91,722.44L1412.72,721.98L1412.52,721.521L1412.31,721.064L1412.1,720.608L1411.89,720.155L1411.68,719.704L1411.46,719.254L1411.23,718.807L1411.01,718.361L1410.78,717.918L1410.54,717.476L1410.3,717.037L1410.06,716.6L1409.81,716.164L1409.56,715.731L1409.3,715.301L1409.05,714.872L1408.79,714.446L1408.52,714.023L1408.25,713.601L1407.98,713.182L1407.7,712.766L1407.42,712.351L1407.13,711.939L1406.85,711.53L1406.55,711.124L1406.26,710.72L1405.96,710.319L1405.66,709.92L1405.35,709.524L1405.04,709.131L1404.73,708.74L1404.41,708.352L1404.09,707.967L1403.77,707.585L1403.45,707.206L1403.12,706.83L1402.78,706.456L1402.45,706.085L1402.11,705.718L1401.77,705.354L1401.42,704.992L1401.07,704.634L1400.72,704.278L1400.36,703.926L1400,703.577L1399.64,703.231L1399.28,702.889L1398.91,702.549L1398.54,702.213L1398.17,701.88L1397.79,701.55L1397.41,701.224L1397.03,700.901L1396.64,700.582L1396.26,700.266L1395.87,699.953L1395.47,699.644L1395.08,699.338L1394.68,699.036L1394.28,698.737L1393.87,698.442L1393.47,698.15L1393.06,697.862L1392.64,697.578L1392.23,697.297L1391.81,697.021L1391.4,696.747L1390.97,696.478L1390.55,696.211L1390.12,695.949L1389.7,695.691L1389.26,695.437L1388.83,695.186L1388.4,694.939L1387.96,694.695L1387.52,694.456L1387.08,694.221L1386.63,693.989L1386.19,693.762L1385.74,693.538L1385.29,693.319L1384.84,693.103L1384.39,692.892L1383.93,692.684L1383.48,692.48L1383.02,692.281L1382.56,692.085L1382.09,691.894L1381.63,691.706L1381.17,691.523L1380.7,691.344L1380.23,691.169L1379.76,690.998L1379.29,690.831L1378.81,690.668L1378.34,690.51L1377.86,690.356L1377.39,690.206L1376.91,690.061L1376.43,689.919L1375.95,689.782L1375.46,689.648L1374.98,689.52L1374.5,689.395L1374.01,689.275L1373.52,689.159L1373.04,689.047L1372.55,688.94L1372.06,688.837L1371.57,688.738L1371.08,688.644L1370.58,688.554L1370.09,688.468L1369.6,688.387L1369.1,688.31L1368.61,688.237L1368.11,688.169L1367.62,688.106L1367.12,688.046L1366.62,687.991L1366.13,687.94L1365.63,687.894L1365.13,687.852L1364.63,687.814L1364.13,687.781L1363.63,687.753L1363.13,687.729L1362.63,687.709L1362.13,687.693L1361.63,687.682L1361.13,687.676L1360.63,687.673L1344.32,476.986L1058.03,763.275L1058.03,787.99L1033.31,787.99L971.987,849.317L973.044,849.571L974.1,849.835L975.152,850.107L976.202,850.389L977.25,850.68L978.295,850.981L979.337,851.29L980.377,851.608L981.413,851.937L982.447,852.273L983.479,852.619L984.506,852.975L985.53,853.339L986.552,853.712L987.569,854.094L988.584,854.484L989.596,854.885L990.603,855.294L991.606,855.711L992.606,856.138L993.604,856.573L994.596,857.018L995.584,857.471L996.568,857.932L997.549,858.402L998.525,858.881L999.497,859.368L1000.46,859.864L1001.43,860.369L1002.39,860.882L1003.34,861.403L1004.29,861.933L1005.24,862.471L1006.18,863.018L1007.11,863.572L1008.04,864.135L1008.97,864.706L1009.89,865.285L1010.8,865.873L1011.71,866.468L1012.62,867.071L1013.52,867.683L1014.41,868.302L1015.3,868.929L1016.18,869.564L1017.06,870.206L1017.93,870.856L1018.79,871.515L1019.65,872.18L1020.51,872.853L1021.36,873.533L1022.2,874.222L1023.03,874.917L1023.86,875.62L1024.69,876.33L1025.5,877.047L1026.32,877.772L1027.12,878.503L1027.92,879.242L1028.71,879.987L1029.49,880.74L1030.27,881.499L1031.04,882.266L1031.81,883.039L1032.57,883.818L1033.32,884.606L1034.06,885.398L1034.8,886.197L1035.53,887.004L1036.25,887.816L1036.96,888.635L1037.67,889.46L1038.38,890.291L1039.07,891.128L1039.75,891.972L1040.43,892.821L1041.1,893.677L1041.77,894.538L1042.42,895.405L1043.07,896.277L1043.71,897.156L1044.35,898.04L1044.97,898.93L1045.59,899.825L1046.2,900.726L1046.8,901.632L1047.39,902.543L1047.98,903.459L1048.56,904.381L1049.12,905.308L1049.69,906.238L1050.24,907.175L1050.78,908.116L1051.32,909.063L1051.85,910.013L1052.37,910.968L1052.88,911.928L1053.38,912.893L1053.87,913.861L1054.36,914.834L1054.83,915.812L1055.3,916.793L1055.76,917.778L1056.21,918.768L1056.66,919.761L1057.09,920.759L1057.51,921.76L1057.93,922.765L1058.33,923.773L1058.73,924.784L1059.12,925.8L1059.5,926.819L1059.87,927.841L1060.23,928.866L1060.59,929.895L1060.93,930.927L1061.27,931.961L1061.59,932.998L1061.91,934.038L1062.21,935.082L1062.51,936.127L1062.8,937.176L1063.08,938.227L1063.35,939.279L1063.71,941.345L1064.04,943.414L1064.36,945.485L1064.65,947.561L1064.93,949.638L1065.19,951.718L1065.43,953.8L1065.65,955.884L1065.85,957.97L1066.04,960.058L1066.2,962.148L1066.34,964.237L1066.47,966.33L1066.57,968.423L1066.66,970.517L1066.73,972.611L1066.78,974.707L1066.8,976.803L1066.81,978.898L1066.8,980.994L1066.78,983.09L1066.73,985.185L1066.66,987.279L1066.57,989.374L1066.47,991.467L1066.34,993.559L1066.2,995.649L1066.04,997.739L1065.85,999.827L1065.65,1001.91L1065.43,1004L1065.19,1006.08L1064.93,1008.16L1064.65,1010.24L1064.36,1012.31L1064.04,1014.38L1063.71,1016.45L1063.35,1018.52L1063.08,1019.57L1062.8,1020.62L1062.52,1021.66L1062.22,1022.71L1061.91,1023.75L1061.6,1024.79L1061.27,1025.82L1060.94,1026.86L1060.6,1027.89L1060.24,1028.91L1059.88,1029.94L1059.51,1030.96L1059.13,1031.98L1058.75,1032.99L1058.35,1034L1057.95,1035.01L1057.53,1036.01L1057.11,1037.01L1056.68,1038.01L1056.24,1039L1055.79,1039.99L1055.33,1040.97L1054.86,1041.95L1054.39,1042.93L1053.9,1043.9L1053.41,1044.87L1052.91,1045.83L1052.4,1046.79L1051.36,1048.69L1050.82,1049.64L1050.28,1050.58L1049.73,1051.51L1049.17,1052.44L1048.6,1053.37L1048.03,1054.29L1047.44,1055.2L1046.85,1056.11L1046.25,1057.02L1045.64,1057.92L1045.03,1058.81L1044.4,1059.7L1043.77,1060.58L1043.13,1061.46L1042.49,1062.33L1041.83,1063.2L1041.17,1064.06L1040.5,1064.91L1039.83,1065.76L1039.14,1066.6L1038.45,1067.44L1037.75,1068.27L1037.04,1069.1L1036.33,1069.91L1035.61,1070.73L1034.88,1071.53L1034.15,1072.33L1033.41,1073.12L1032.66,1073.91L1031.9,1074.69L1031.14,1075.46L1030.37,1076.23L1029.59,1076.98L1028.81,1077.74L1027.23,1079.22L1026.42,1079.95L1025.61,1080.68L1024.8,1081.39L1023.98,1082.1L1023.15,1082.8L1022.32,1083.5L1021.48,1084.19L1020.63,1084.87L1019.78,1085.54L1018.92,1086.21L1018.06,1086.86L1017.19,1087.51L1016.31,1088.16L1014.55,1089.42L1013.66,1090.04L1012.76,1090.65L1011.86,1091.25L1010.95,1091.85L1010.04,1092.44L1009.12,1093.02L1008.2,1093.59L1007.27,1094.15L1006.33,1094.71L1005.4,1095.25L1004.46,1095.79L1003.51,1096.32L1002.56,1096.84L1001.6,1097.36L1000.64,1097.86L999.674,1098.36L998.704,1098.84L997.729,1099.32L996.752,1099.8L995.77,1100.26L994.783,1100.71L993.793,1101.16L992.799,1101.59L991.802,1102.02L990.8,1102.44L989.795,1102.85L988.786,1103.25L987.773,1103.64L986.758,1104.02L985.739,1104.4L984.717,1104.76L983.691,1105.12L982.662,1105.47L981.631,1105.8L980.597,1106.13L979.56,1106.45L978.52,1106.76L977.477,1107.06L976.431,1107.36L975.383,1107.64L974.333,1107.91L973.28,1108.18L972.225,1108.43L971.168,1108.68L970.108,1108.92L969.047,1109.14L967.983,1109.36L966.918,1109.57L965.852,1109.77L964.782,1109.96L963.712,1110.14L962.64,1110.31L961.566,1110.47L960.492,1110.62L959.416,1110.77L958.339,1110.9L956.181,1111.14L955.1,1111.24L954.019,1111.34L952.937,1111.42L951.854,1111.5L950.771,1111.57L949.687,1111.62L948.602,1111.67L947.518,1111.71L946.432,1111.74L945.347,1111.75L944.261,1111.76L943.176,1111.76L941.738,1111.75L940.301,1111.73L938.863,1111.69L937.427,1111.64L935.99,1111.58L934.555,1111.5L933.119,1111.41L931.686,1111.31L930.252,1111.2L928.819,1111.07L927.389,1110.93L925.959,1110.78L924.53,1110.62L923.104,1110.44L921.679,1110.25L920.255,1110.05L918.834,1109.83L917.414,1109.6L915.996,1109.36L914.581,1109.11L913.168,1108.85L911.758,1108.57L910.35,1108.28L908.943,1107.98L907.541,1107.66L906.141,1107.34L904.744,1107L903.35,1106.64L901.959,1106.28L900.571,1105.9L899.188,1105.51L897.807,1105.11L896.43,1104.7L895.056,1104.27L893.687,1103.84L892.321,1103.39L890.959,1102.92L889.602,1102.45L888.249,1101.97L886.899,1101.47L885.556,1100.96L884.216,1100.44L882.88,1099.9L881.55,1099.36L880.225,1098.8L878.904,1098.23L877.589,1097.65L876.278,1097.06L874.973,1096.46L873.674,1095.84L872.38,1095.22L871.091,1094.58L869.808,1093.93L868.531,1093.27L867.26,1092.6L865.995,1091.91L864.735,1091.22L863.482,1090.51L862.236,1089.8L860.996,1089.07L859.763,1088.33L858.535,1087.58L857.314,1086.82L856.102,1086.05L854.895,1085.27L853.694,1084.48L852.502,1083.68L851.316,1082.86L850.138,1082.04L848.966,1081.21L847.803,1080.36L846.646,1079.51L845.498,1078.64L844.357,1077.77L843.224,1076.88L842.099,1075.99L840.982,1075.08L839.873,1074.17L838.771,1073.24L837.679,1072.31L836.594,1071.36L835.518,1070.41L834.451,1069.45L833.392,1068.48L832.341,1067.49L831.299,1066.5L830.267,1065.5L829.242,1064.49L828.228,1063.48L827.222,1062.45L826.225,1061.41L825.237,1060.37L871.162,1017.34L871.729,1017.98L872.303,1018.62L872.882,1019.25L873.466,1019.87L874.056,1020.5L874.651,1021.11L875.252,1021.72L875.858,1022.33L876.47,1022.93L877.087,1023.52L877.709,1024.11L878.337,1024.69L878.969,1025.27L879.606,1025.84L880.249,1026.41L880.896,1026.97L881.55,1027.53L882.207,1028.08L882.869,1028.62L883.536,1029.16L884.208,1029.69L884.885,1030.21L885.565,1030.73L886.252,1031.25L886.941,1031.75L887.637,1032.25L888.336,1032.75L889.039,1033.24L889.747,1033.72L890.459,1034.2L891.176,1034.67L891.896,1035.13L892.62,1035.59L893.349,1036.04L894.081,1036.48L894.817,1036.92L895.558,1037.35L896.302,1037.78L897.05,1038.2L897.801,1038.61L898.556,1039.01L899.314,1039.41L900.077,1039.8L900.843,1040.19L901.611,1040.56L902.384,1040.93L903.159,1041.3L903.938,1041.66L904.72,1042L905.505,1042.35L906.293,1042.68L907.083,1043.01L907.877,1043.34L908.674,1043.65L909.473,1043.96L910.275,1044.26L911.08,1044.55L911.887,1044.84L912.697,1045.12L913.509,1045.39L914.324,1045.66L915.141,1045.92L915.96,1046.17L916.781,1046.41L917.604,1046.65L918.431,1046.88L919.258,1047.1L920.088,1047.31L920.919,1047.52L921.752,1047.72L922.587,1047.91L923.424,1048.09L924.262,1048.27L925.102,1048.44L925.942,1048.6L926.785,1048.76L927.629,1048.91L928.474,1049.05L929.32,1049.18L930.168,1049.3L931.017,1049.42L931.866,1049.53L932.717,1049.63L933.568,1049.73L934.421,1049.81L935.273,1049.89L936.127,1049.97L936.981,1050.03L937.836,1050.09L938.691,1050.14L939.547,1050.18L940.403,1050.21L941.26,1050.24L942.116,1050.26L942.973,1050.27L944.332,1050.27L944.835,1050.25L945.338,1050.24L945.84,1050.21L946.343,1050.19L946.845,1050.16L947.347,1050.12L947.848,1050.09L948.35,1050.04L948.85,1049.99L949.351,1049.94L949.85,1049.88L950.35,1049.82L950.849,1049.76L951.347,1049.69L951.844,1049.61L952.341,1049.54L952.837,1049.45L953.332,1049.37L953.827,1049.27L954.32,1049.18L954.813,1049.08L955.306,1048.97L955.797,1048.86L956.287,1048.75L956.775,1048.63L957.264,1048.51L957.751,1048.38L958.236,1048.25L958.721,1048.12L959.205,1047.98L959.687,1047.84L960.168,1047.69L960.647,1047.54L961.126,1047.38L961.603,1047.22L962.078,1047.06L962.552,1046.89L963.024,1046.72L963.495,1046.54L963.965,1046.36L964.433,1046.17L964.898,1045.98L965.362,1045.79L965.825,1045.59L966.286,1045.39L966.745,1045.19L967.203,1044.98L967.658,1044.76L968.111,1044.55L968.563,1044.33L969.013,1044.1L969.461,1043.87L969.906,1043.64L970.35,1043.4L970.791,1043.16L971.23,1042.91L971.668,1042.67L972.103,1042.41L972.535,1042.16L972.966,1041.89L973.394,1041.63L973.819,1041.36L974.243,1041.09L974.664,1040.82L975.083,1040.54L975.499,1040.25L975.912,1039.97L976.323,1039.68L976.731,1039.38L977.138,1039.09L977.541,1038.79L977.941,1038.48L978.34,1038.17L978.734,1037.86L979.127,1037.55L979.517,1037.23L979.903,1036.91L980.287,1036.58L980.668,1036.26L981.047,1035.92L981.422,1035.59L981.794,1035.25L982.163,1034.91L982.529,1034.56L982.893,1034.22L983.253,1033.87L983.61,1033.51L983.964,1033.15L984.314,1032.79L984.662,1032.43L985.007,1032.06L985.348,1031.69L985.686,1031.32L986.021,1030.94L986.352,1030.57L986.68,1030.18L987.004,1029.8L987.325,1029.41L987.643,1029.02L987.957,1028.63L988.268,1028.23L988.575,1027.84L988.879,1027.44L989.18,1027.03L989.476,1026.63L989.77,1026.22L990.059,1025.81L990.345,1025.39L990.627,1024.98L990.905,1024.56L991.18,1024.14L991.451,1023.71L991.719,1023.29L991.982,1022.86L992.242,1022.43L992.498,1021.99L992.75,1021.56L992.999,1021.12L993.243,1020.68L993.484,1020.24L993.721,1019.8L993.953,1019.35L994.183,1018.9L994.407,1018.45L994.628,1018L994.846,1017.55L995.059,1017.09L995.268,1016.63L995.473,1016.17L995.673,1015.71L995.87,1015.25L996.063,1014.79L996.252,1014.32L996.437,1013.85L996.616,1013.38L996.793,1012.91L996.965,1012.44L997.133,1011.96L997.297,1011.49L997.456,1011.01L997.611,1010.53L997.763,1010.05L997.91,1009.57L998.053,1009.09L998.191,1008.61L998.451,1007.17L998.698,1005.74L998.933,1004.3L999.153,1002.86L999.362,1001.41L999.558,999.97L999.74,998.524L999.909,997.077L1000.07,995.628L1000.21,994.178L1000.34,992.727L1000.46,991.273L1000.56,989.82L1000.65,988.365L1000.73,986.91L1000.8,985.454L1000.85,983.998L1000.89,982.541L1000.91,981.084L1000.93,979.627L1000.93,978.17L1000.91,976.713L1000.89,975.255L1000.85,973.799L1000.8,972.342L1000.73,970.887L1000.65,969.432L1000.56,967.977L1000.46,966.523L1000.34,965.07L1000.21,963.619L1000.07,962.169L999.909,960.72L999.74,959.273L999.558,957.827L999.362,956.383L999.153,954.94L998.933,953.5L998.698,952.062L998.451,950.625L998.191,949.191L998.053,948.708L997.91,948.226L997.763,947.744L997.611,947.265L997.456,946.786L997.297,946.31L997.133,945.833L996.965,945.359L996.793,944.887L996.617,944.415L996.437,943.946L996.252,943.478L996.063,943.012L995.87,942.547L995.674,942.084L995.473,941.623L995.268,941.163L995.059,940.706L994.846,940.25L994.629,939.797L994.408,939.345L994.183,938.895L993.954,938.446L993.721,938.001L993.484,937.557L993.244,937.115L992.999,936.676L992.751,936.238L992.499,935.803L992.242,935.37L991.982,934.939L991.719,934.511L991.451,934.085L991.181,933.661L990.905,933.24L990.627,932.821L990.345,932.404L990.059,931.99L989.77,931.579L989.477,931.171L989.18,930.765L988.88,930.36L988.576,929.96L988.269,929.562L987.958,929.166L987.644,928.773L987.325,928.383L987.005,927.996L986.68,927.611L986.353,927.231L986.021,926.852L985.687,926.476L985.349,926.104L985.008,925.733L984.663,925.367L984.315,925.003L983.965,924.643L983.61,924.285L983.254,923.931L982.894,923.58L982.53,923.231L982.164,922.887L981.795,922.546L981.422,922.207L981.047,921.872L980.669,921.54L980.288,921.212L979.904,920.888L979.518,920.565L979.127,920.247L978.735,919.933L978.34,919.621L977.942,919.314L977.541,919.01L977.139,918.709L976.732,918.411L976.324,918.118L975.913,917.828L975.499,917.542L975.083,917.259L974.664,916.98L974.243,916.705L973.82,916.433L973.395,916.165L972.967,915.901L972.536,915.641L972.104,915.384L971.668,915.132L971.231,914.883L970.792,914.638L970.351,914.397L969.906,914.159L969.461,913.926L969.014,913.696L968.563,913.471L968.112,913.249L967.658,913.032L967.203,912.818L966.746,912.608L966.287,912.403L965.826,912.202L965.363,912.005L964.898,911.812L964.433,911.622L963.965,911.438L963.495,911.256L963.024,911.079L962.552,910.906L962.078,910.738L961.603,910.574L961.126,910.414L960.647,910.258L960.168,910.106L959.688,909.959L959.205,909.815L958.722,909.677L958.236,909.542L957.751,909.411L957.264,909.285L956.776,909.163L956.287,909.045L955.797,908.932L955.306,908.823L954.813,908.719L954.32,908.618L953.827,908.523L953.332,908.431L952.837,908.343L952.341,908.261L951.844,908.182L951.347,908.107L950.849,908.038L950.35,907.973L949.851,907.911L949.351,907.855L948.85,907.803L948.35,907.755L947.849,907.712L947.347,907.673L946.845,907.638L946.343,907.607L945.84,907.582L945.338,907.561L944.835,907.544L944.332,907.531L943.829,907.523L943.085,907.526L942.34,907.536L941.596,907.554L940.852,907.576L940.107,907.606L939.364,907.643L938.621,907.687L937.878,907.736L937.135,907.793L936.394,907.856L935.652,907.926L934.911,908.002L934.172,908.085L933.433,908.175L932.694,908.271L931.957,908.374L931.221,908.483L930.484,908.599L929.75,908.722L929.017,908.851L928.285,908.986L927.554,909.129L926.824,909.277L926.097,909.433L925.369,909.595L924.645,909.763L923.92,909.938L923.198,910.118L922.478,910.307L921.759,910.5L921.042,910.701L920.326,910.907L919.613,911.121L918.901,911.341L918.192,911.566L917.485,911.799L916.779,912.037L916.076,912.282L915.376,912.534L914.677,912.791L913.98,913.055L913.287,913.325L912.596,913.601L911.906,913.883L911.22,914.172L910.536,914.466L909.854,914.767L909.177,915.073L908.501,915.386L907.828,915.705L907.158,916.03L906.49,916.36L905.827,916.697L905.166,917.04L904.508,917.389L903.853,917.743L903.201,918.104L778.45,1042.85L778.781,1043.03L779.111,1043.2L779.439,1043.37L779.766,1043.55L780.091,1043.74L780.414,1043.92L780.736,1044.11L781.056,1044.3L781.375,1044.49L781.691,1044.69L782.005,1044.89L782.318,1045.09L782.629,1045.29L782.938,1045.5L783.246,1045.71L783.551,1045.93L783.854,1046.14L784.156,1046.36L784.456,1046.58L784.753,1046.81L785.048,1047.03L785.342,1047.26L785.633,1047.5L785.922,1047.73L786.209,1047.97L786.494,1048.21L786.776,1048.45L787.057,1048.7L787.335,1048.94L787.611,1049.19L787.885,1049.45L788.156,1049.7L788.425,1049.96L788.691,1050.22L788.956,1050.48L789.218,1050.75L789.478,1051.01L789.734,1051.28L789.989,1051.56L790.241,1051.83L790.491,1052.11L790.738,1052.38L790.983,1052.67L791.225,1052.95L791.464,1053.23L791.701,1053.52L791.936,1053.81L792.167,1054.1L792.396,1054.4L792.623,1054.69L792.846,1054.99L793.147,1055.49L793.445,1055.99L793.738,1056.49L794.026,1057L794.31,1057.51L794.589,1058.02L794.864,1058.53L795.134,1059.05L795.4,1059.57L795.661,1060.09L795.918,1060.61L796.17,1061.14L796.417,1061.67L796.66,1062.2L796.898,1062.73L797.132,1063.26L797.36,1063.8L797.584,1064.34L797.804,1064.88L798.018,1065.42L798.228,1065.96L798.433,1066.51L798.633,1067.05L798.828,1067.6L799.019,1068.15L799.204,1068.71L799.385,1069.26L799.561,1069.81L799.731,1070.37L799.897,1070.93L800.059,1071.49L800.215,1072.05L800.366,1072.61L800.513,1073.18L800.654,1073.74L800.79,1074.31L800.922,1074.88L801.048,1075.45L801.169,1076.02L801.286,1076.59L801.397,1077.16L801.503,1077.73L801.604,1078.31L801.701,1078.88L801.792,1079.46L801.878,1080.03L801.959,1080.61L802.035,1081.19L802.106,1081.76L802.172,1082.34L802.232,1082.92L802.288,1083.5L802.338,1084.08L802.384,1084.66L802.424,1085.25L802.459,1085.83L802.489,1086.41L802.514,1086.99L802.534,1087.57L802.549,1088.16L802.559,1088.74L802.563,1089.32L802.562,1089.9L802.556,1090.49L802.545,1091.07L802.529,1091.65L802.508,1092.23L802.482,1092.82L802.451,1093.4L802.414,1093.98L802.372,1094.56L802.326,1095.14L802.274,1095.72L802.217,1096.3L802.155,1096.88L802.087,1097.46L802.016,1098.04L801.938,1098.62L801.855,1099.19L801.768,1099.77L801.676,1100.34L801.578,1100.92L801.476,1101.49L801.368,1102.06L801.255,1102.64L801.138,1103.21L801.015,1103.78L800.887,1104.34L800.754,1104.91L800.617,1105.48L800.474,1106.04L800.326,1106.61L800.174,1107.17L800.016,1107.73L799.854,1108.29L799.687,1108.85L799.514,1109.4L799.337,1109.96L799.155,1110.51L798.968,1111.06L798.776,1111.61L798.58,1112.16L798.378,1112.71L798.172,1113.25L797.961,1113.8L797.746,1114.34L797.525,1114.88L797.3,1115.42L797.07,1115.95L796.835,1116.48L796.596,1117.02L796.352,1117.54L796.103,1118.07L795.85,1118.6L795.592,1119.12L795.33,1119.64L795.063,1120.16L794.791,1120.67L794.515,1121.19L794.234,1121.7L793.949,1122.21L793.66,1122.71L793.366,1123.21L793.067,1123.71L792.765,1124.21L792.458,1124.71L792.146,1125.2L791.831,1125.69L791.511,1126.18L791.186,1126.66L790.857,1127.14L790.525,1127.62L790.188,1128.09L789.847,1128.57L789.501,1129.04L789.152,1129.5L788.798,1129.97L788.441,1130.43L788.079,1130.88L787.714,1131.34L787.344,1131.79L786.971,1132.23L786.593,1132.68L786.212,1133.12L785.827,1133.56L785.438,1133.99L785.045,1134.42L784.648,1134.85L784.248,1135.27L783.844,1135.69L783.437,1136.11L783.025,1136.52L782.61,1136.93L782.191,1137.33L781.77,1137.74L781.344,1138.13L780.915,1138.53L780.482,1138.92L780.046,1139.3L779.607,1139.69L779.164,1140.07L778.718,1140.44L778.269,1140.81L777.816,1141.18L777.361,1141.54L776.902,1141.9L776.44,1142.26L775.975,1142.61L775.506,1142.95L775.035,1143.3L774.561,1143.63L774.084,1143.97L773.604,1144.3L773.121,1144.63L772.635,1144.95L772.146,1145.26L771.655,1145.58L771.161,1145.89L770.664,1146.19L770.164,1146.49L769.662,1146.79L769.157,1147.08L768.65,1147.36L768.141,1147.65L767.628,1147.92L767.113,1148.2L766.597,1148.46L766.077,1148.73L765.556,1148.99L765.032,1149.24L764.505,1149.49L763.977,1149.74L763.447,1149.98L762.914,1150.22L762.379,1150.45L761.843,1150.68L761.304,1150.9L760.764,1151.12L760.221,1151.33L759.677,1151.54L759.131,1151.74L758.583,1151.94L758.033,1152.13L757.482,1152.32L756.929,1152.5L756.375,1152.68L755.818,1152.86L755.261,1153.03L754.702,1153.19L754.142,1153.35L753.58,1153.5L753.017,1153.65L752.452,1153.8L751.886,1153.94L751.319,1154.07L750.751,1154.2L750.182,1154.33L749.612,1154.45L749.041,1154.56L748.468,1154.67L747.895,1154.77L747.321,1154.87L746.746,1154.97L746.17,1155.06L745.594,1155.14L745.017,1155.22L744.438,1155.29L743.86,1155.36L743.281,1155.43L742.701,1155.49L742.121,1155.54L741.541,1155.59L740.959,1155.63L740.378,1155.67L739.796,1155.7L739.214,1155.73L738.05,1155.77L737.467,1155.79L736.885,1155.79L736.302,1155.8L736.302,1134.07L736.514,1134.08L736.725,1134.09L737.784,1134.09L737.996,1134.08L738.208,1134.08L738.419,1134.07L738.63,1134.05L738.842,1134.04L739.053,1134.03L739.264,1134.01L739.476,1133.99L739.686,1133.97L739.896,1133.95L740.107,1133.93L740.317,1133.9L740.527,1133.87L740.737,1133.84L740.947,1133.81L741.156,1133.78L741.365,1133.74L741.573,1133.71L741.781,1133.67L742.197,1133.59L742.404,1133.54L742.611,1133.5L743.023,1133.4L743.229,1133.35L743.434,1133.29L743.638,1133.24L743.842,1133.18L744.045,1133.12L744.249,1133.06L744.451,1133L744.653,1132.94L745.055,1132.8L745.255,1132.74L745.455,1132.66L745.654,1132.59L745.852,1132.52L746.05,1132.44L746.247,1132.36L746.443,1132.28L746.833,1132.12L747.027,1132.03L747.221,1131.95L747.413,1131.86L747.605,1131.77L747.796,1131.68L747.986,1131.59L748.175,1131.49L748.364,1131.39L748.552,1131.3L748.738,1131.2L748.924,1131.09L749.109,1130.99L749.293,1130.89L749.477,1130.78L749.659,1130.67L749.84,1130.56L750.021,1130.45L750.2,1130.34L750.378,1130.23L750.556,1130.11L750.732,1129.99L750.907,1129.87L751.081,1129.75L751.254,1129.63L751.426,1129.51L751.598,1129.38L751.767,1129.26L751.936,1129.13L752.104,1129L752.27,1128.87L752.436,1128.74L752.6,1128.6L752.763,1128.47L752.924,1128.33L753.085,1128.19L753.244,1128.05L753.402,1127.91L753.56,1127.77L753.715,1127.63L753.87,1127.48L754.022,1127.33L754.174,1127.19L754.325,1127.04L754.474,1126.89L754.622,1126.74L754.769,1126.58L754.914,1126.43L755.058,1126.27L755.2,1126.12L755.341,1125.96L755.48,1125.8L755.619,1125.64L755.756,1125.48L755.891,1125.31L756.025,1125.15L756.158,1124.99L756.289,1124.82L756.418,1124.65L756.547,1124.48L756.673,1124.31L756.798,1124.14L756.922,1123.97L757.044,1123.8L757.165,1123.62L757.284,1123.45L757.518,1123.09L757.632,1122.92L757.745,1122.74L757.856,1122.56L757.966,1122.38L758.074,1122.19L758.181,1122.01L758.286,1121.83L758.389,1121.64L758.491,1121.46L758.591,1121.27L758.689,1121.08L758.786,1120.89L758.881,1120.7L758.974,1120.51L759.066,1120.32L759.156,1120.13L759.244,1119.94L759.331,1119.75L759.416,1119.55L759.499,1119.36L759.581,1119.16L759.661,1118.97L759.739,1118.77L759.815,1118.57L759.89,1118.37L759.963,1118.17L760.034,1117.97L760.104,1117.77L760.171,1117.57L760.237,1117.37L760.301,1117.17L760.363,1116.97L760.424,1116.77L760.483,1116.56L760.54,1116.36L760.595,1116.15L760.648,1115.95L760.7,1115.74L760.75,1115.54L760.798,1115.33L760.844,1115.13L760.888,1114.92L760.931,1114.71L760.972,1114.5L761.011,1114.29L761.047,1114.09L761.083,1113.88L761.116,1113.67L761.147,1113.46L761.177,1113.25L761.205,1113.04L761.231,1112.83L761.255,1112.62L761.278,1112.41L761.298,1112.2L761.317,1111.99L761.334,1111.77L761.349,1111.56L761.362,1111.35L761.373,1111.14L761.382,1110.93L761.39,1110.72L761.396,1110.51L761.399,1110.29L761.401,1110.08L761.401,1109.87L761.399,1109.66L761.396,1109.45L761.391,1109.24L761.383,1109.02L761.374,1108.81L761.363,1108.6L761.35,1108.39L761.335,1108.18L761.318,1107.97L761.3,1107.76L761.279,1107.54L761.257,1107.33L761.233,1107.12L761.208,1106.91L761.18,1106.7L761.15,1106.49L761.119,1106.28L761.085,1106.08L761.05,1105.87L761.014,1105.66L760.975,1105.45L760.934,1105.24L760.892,1105.03L760.848,1104.83L760.801,1104.62L760.753,1104.41L760.704,1104.21L760.652,1104L760.599,1103.8L760.544,1103.59L760.487,1103.39L760.429,1103.19L760.368,1102.98L760.306,1102.78L760.242,1102.58L760.176,1102.38L760.109,1102.18L760.04,1101.98L759.968,1101.78L759.896,1101.58L759.821,1101.38L759.745,1101.18L759.667,1100.99L759.587,1100.79L759.506,1100.59L759.423,1100.4L759.338,1100.21L759.251,1100.01L759.163,1099.82L759.073,1099.63L758.981,1099.44L758.888,1099.25L758.793,1099.06L758.696,1098.87L758.598,1098.68L758.499,1098.49L758.397,1098.31L758.293,1098.12L758.189,1097.94L758.083,1097.76L757.921,1097.89L757.759,1098.03L757.596,1098.16L757.432,1098.29L757.266,1098.42L757.099,1098.55L756.931,1098.68L756.762,1098.8L756.592,1098.93L756.421,1099.05L756.249,1099.17L755.901,1099.41L755.726,1099.52L755.549,1099.64L755.372,1099.75L755.014,1099.97L754.833,1100.08L754.652,1100.19L754.47,1100.29L754.287,1100.4L754.103,1100.5L753.918,1100.6L753.732,1100.7L753.545,1100.8L753.357,1100.89L753.169,1100.99L752.98,1101.08L752.79,1101.17L752.599,1101.26L752.408,1101.35L752.215,1101.43L752.022,1101.51L751.828,1101.6L751.634,1101.68L751.438,1101.76L751.242,1101.83L751.046,1101.91L750.849,1101.98L750.651,1102.05L750.452,1102.12L750.253,1102.19L750.053,1102.26L749.853,1102.32L749.652,1102.39L749.451,1102.45L749.249,1102.51L749.046,1102.57L748.64,1102.67L748.436,1102.73L748.231,1102.78L748.026,1102.83L747.821,1102.87L747.616,1102.92L747.41,1102.96L747.203,1103L746.997,1103.04L746.79,1103.08L746.582,1103.12L746.374,1103.15L746.166,1103.18L745.958,1103.21L745.75,1103.24L745.541,1103.27L745.332,1103.29L745.122,1103.32L744.913,1103.34L744.703,1103.36L744.493,1103.38L744.283,1103.39L744.073,1103.41L743.653,1103.43L743.442,1103.44L743.232,1103.44L743.021,1103.45L742.179,1103.45L741.969,1103.44L741.758,1103.44L741.338,1103.42L741.127,1103.41L740.917,1103.39L740.708,1103.38L740.498,1103.36L740.288,1103.34L740.079,1103.32L739.87,1103.29L739.661,1103.27L739.452,1103.24L739.243,1103.21L739.035,1103.18L738.827,1103.15L738.619,1103.12L738.412,1103.08L738.205,1103.04L737.998,1103L737.791,1102.96L737.585,1102.92L737.379,1102.87L737.174,1102.83L736.97,1102.78L736.765,1102.73L736.561,1102.67L736.357,1102.62L736.155,1102.57L735.952,1102.51L735.75,1102.45L735.549,1102.39L735.348,1102.32L735.147,1102.26L734.749,1102.12L734.55,1102.05L734.353,1101.98L734.155,1101.91L733.958,1101.83L733.763,1101.76L733.567,1101.68L733.373,1101.6L733.179,1101.51L732.793,1101.35L732.602,1101.26L732.411,1101.17L732.221,1101.08L732.032,1100.99L731.843,1100.89L731.656,1100.8L731.469,1100.7L731.283,1100.6L731.098,1100.5L730.914,1100.4L730.731,1100.29L730.549,1100.19L730.367,1100.08L730.187,1099.97L729.829,1099.75L729.652,1099.64L729.476,1099.52L729.3,1099.41L729.125,1099.29L728.952,1099.17L728.78,1099.05L728.609,1098.92L728.438,1098.8L728.27,1098.68L728.102,1098.55L727.935,1098.42L727.77,1098.29L727.605,1098.16L727.441,1098.03L727.279,1097.89L727.119,1097.76L726.959,1097.62L726.8,1097.48L726.643,1097.34L726.487,1097.2L726.332,1097.06L726.179,1096.91L726.026,1096.77L725.875,1096.62L725.726,1096.47L725.577,1096.32L725.43,1096.17L725.284,1096.02L566.702,1254.6L1204.72,1254.6L1204.72,1410.51L1204.73,1410.88L1204.73,1411.25L1204.74,1411.63L1204.75,1412L1204.77,1412.37L1204.78,1412.75L1204.8,1413.12L1204.83,1413.49L1204.89,1414.23L1204.92,1414.61L1204.96,1414.98L1205.04,1415.72L1205.09,1416.09L1205.14,1416.46L1205.2,1416.83L1205.25,1417.2L1205.31,1417.56L1205.38,1417.93L1205.44,1418.3L1205.51,1418.67L1205.59,1419.03L1205.66,1419.4L1205.74,1419.76L1205.83,1420.13L1205.91,1420.49L1206,1420.85L1206.09,1421.21L1206.19,1421.57L1206.29,1421.93L1206.39,1422.29L1206.5,1422.65L1206.6,1423.01L1206.71,1423.36L1206.83,1423.72L1206.95,1424.07L1207.07,1424.43L1207.19,1424.78L1207.45,1425.48L1207.58,1425.83L1207.72,1426.17L1207.85,1426.52L1208,1426.87L1208.14,1427.21L1208.29,1427.55L1208.44,1427.89L1208.59,1428.23L1208.91,1428.91L1209.08,1429.24L1209.24,1429.58L1209.41,1429.91L1209.58,1430.24L1209.76,1430.57L1209.93,1430.9L1210.11,1431.23L1210.3,1431.55L1210.48,1431.88L1210.67,1432.2L1210.86,1432.52L1211.06,1432.84L1211.26,1433.15L1211.46,1433.47L1211.66,1433.78L1211.86,1434.09L1212.07,1434.4L1212.28,1434.71L1212.5,1435.01L1212.71,1435.32L1212.93,1435.62L1213.15,1435.92L1213.61,1436.52L1213.83,1436.81L1214.07,1437.1L1214.3,1437.39L1214.54,1437.68L1214.78,1437.97L1215.02,1438.25L1215.27,1438.53L1215.51,1438.81L1215.76,1439.09L1216.01,1439.36L1216.27,1439.64L1216.79,1440.18L1217.05,1440.44L1217.31,1440.71L1217.58,1440.97L1217.84,1441.23L1218.12,1441.48L1218.39,1441.74L1218.66,1441.99L1218.94,1442.24L1219.22,1442.49L1219.5,1442.73L1219.79,1442.97L1220.07,1443.21L1220.36,1443.45L1220.65,1443.68L1220.94,1443.92L1221.24,1444.15L1221.53,1444.37L1221.83,1444.6L1222.13,1444.82L1222.43,1445.04L1222.74,1445.25L1223.04,1445.47L1223.35,1445.68L1223.66,1445.89L1223.97,1446.09L1224.29,1446.3L1224.6,1446.5L1224.92,1446.69L1225.23,1446.89L1225.55,1447.08L1225.88,1447.27L1226.2,1447.46L1226.53,1447.64L1226.85,1447.82L1227.18,1448L1227.84,1448.34L1228.17,1448.51L1228.51,1448.68L1228.84,1448.84L1229.18,1449L1229.52,1449.16L1229.86,1449.31L1230.2,1449.46L1230.54,1449.61L1230.89,1449.75L1231.23,1449.9L1231.58,1450.04L1231.92,1450.17L1232.27,1450.3L1232.62,1450.43L1232.97,1450.56L1233.33,1450.69L1233.68,1450.81L1234.03,1450.92L1234.39,1451.04L1234.75,1451.15L1235.1,1451.26L1235.82,1451.46L1236.18,1451.56L1236.54,1451.66L1237.26,1451.84L1237.63,1451.93L1237.99,1452.01L1238.36,1452.09L1238.72,1452.17L1239.09,1452.24L1239.45,1452.31L1239.82,1452.37L1240.19,1452.44L1240.56,1452.5L1240.92,1452.56L1242.03,1452.71L1242.77,1452.79L1243.15,1452.83L1243.52,1452.86L1243.89,1452.9L1244.26,1452.92L1244.63,1452.95L1245.01,1452.97L1245.38,1452.99L1245.75,1453L1246.13,1453.01L1246.5,1453.02L1246.87,1453.03L1318.48,1453.03L1318.86,1453.02L1319.23,1453.01L1319.6,1453L1319.98,1452.99L1320.72,1452.95L1321.09,1452.92L1321.46,1452.9L1321.84,1452.86L1322.21,1452.83L1322.58,1452.79L1323.32,1452.71L1323.69,1452.66L1324.06,1452.61L1324.43,1452.56L1325.17,1452.44L1325.53,1452.37L1325.9,1452.31L1326.27,1452.24L1326.63,1452.17L1327,1452.09L1327.36,1452.01L1327.73,1451.93L1328.45,1451.75L1328.81,1451.66L1329.17,1451.56L1329.54,1451.46L1329.89,1451.36L1330.25,1451.26L1330.61,1451.15L1330.96,1451.04L1331.32,1450.92L1331.67,1450.81L1332.03,1450.69L1332.73,1450.43L1333.08,1450.3L1333.43,1450.17L1333.78,1450.04L1334.12,1449.9L1334.47,1449.75L1334.81,1449.61L1335.15,1449.46L1335.5,1449.31L1335.83,1449.16L1336.17,1449L1336.85,1448.68L1337.18,1448.51L1337.84,1448.17L1338.17,1448L1338.5,1447.82L1338.83,1447.64L1339.15,1447.46L1339.48,1447.27L1339.8,1447.08L1340.12,1446.89L1340.44,1446.69L1340.75,1446.5L1341.07,1446.3L1341.38,1446.09L1341.69,1445.89L1342,1445.68L1342.31,1445.47L1342.62,1445.25L1342.92,1445.04L1343.22,1444.82L1343.52,1444.6L1343.82,1444.37L1344.12,1444.15L1344.41,1443.92L1344.7,1443.68L1344.99,1443.45L1345.28,1443.21L1345.57,1442.97L1345.85,1442.73L1346.13,1442.49L1346.41,1442.24L1346.69,1441.99L1346.97,1441.74L1347.24,1441.48L1347.51,1441.23L1347.78,1440.97L1348.04,1440.71L1348.31,1440.44L1348.57,1440.18L1348.83,1439.91L1349.08,1439.64L1349.34,1439.36L1349.59,1439.09L1350.09,1438.53L1350.33,1438.25L1350.58,1437.97L1350.82,1437.68L1351.05,1437.39L1351.29,1437.1L1351.75,1436.52L1351.98,1436.22L1352.2,1435.92L1352.42,1435.62L1352.64,1435.32L1352.86,1435.01L1353.07,1434.71L1353.28,1434.4L1353.7,1433.78L1353.9,1433.47L1354.1,1433.15L1354.3,1432.84L1354.49,1432.52L1354.68,1432.2L1354.87,1431.88L1355.06,1431.55L1355.24,1431.23L1355.42,1430.9L1355.6,1430.57L1355.77,1430.24L1355.94,1429.91L1356.11,1429.58L1356.28,1429.24L1356.44,1428.91L1356.76,1428.23L1356.91,1427.89L1357.06,1427.55L1357.21,1427.21L1357.36,1426.87L1357.5,1426.52L1357.64,1426.17L1357.77,1425.83L1357.91,1425.48L1358.04,1425.13L1358.16,1424.78L1358.29,1424.43L1358.41,1424.07L1358.53,1423.72L1358.64,1423.36L1358.75,1423.01L1358.86,1422.65L1358.96,1422.29L1359.07,1421.93L1359.17,1421.57L1359.26,1421.21L1359.35,1420.85L1359.44,1420.49L1359.53,1420.13L1359.61,1419.76L1359.69,1419.4L1359.77,1419.03L1359.84,1418.67L1359.91,1418.3L1359.98,1417.93L1360.04,1417.56L1360.1,1417.2L1360.16,1416.83L1360.21,1416.46L1360.31,1415.72L1360.35,1415.35L1360.43,1414.61L1360.47,1414.23L1360.53,1413.49L1360.55,1413.12L1360.57,1412.75L1360.59,1412.37L1360.6,1412L1360.62,1411.63L1360.62,1411.25L1360.63,1410.88L1360.63,1254.6L1417.32,1254.6Z" style="fill:white;"/>
        <path d="M741.022,624.115L437.103,624.115L437.103,701.477L648.223,701.477L475.783,1097.76L483.058,1097.76L630.211,950.603L741.022,695.951L741.022,624.115Z"/>
        <path d="M1063.35,939.279L1063.08,938.227L1062.8,937.176L1062.51,936.127L1062.21,935.082L1061.91,934.038L1061.59,932.998L1061.27,931.961L1060.93,930.927L1060.59,929.895L1060.23,928.866L1059.87,927.841L1059.5,926.819L1059.12,925.8L1058.73,924.784L1058.33,923.773L1057.93,922.765L1057.51,921.76L1057.09,920.759L1056.66,919.761L1056.21,918.768L1055.76,917.778L1055.3,916.793L1054.83,915.812L1054.36,914.834L1053.87,913.861L1053.38,912.893L1052.88,911.928L1052.37,910.968L1051.85,910.013L1051.32,909.063L1050.78,908.116L1050.24,907.175L1049.69,906.238L1049.12,905.308L1048.56,904.381L1047.98,903.459L1047.39,902.543L1046.8,901.632L1046.2,900.726L1045.59,899.825L1044.97,898.93L1044.35,898.04L1043.71,897.156L1043.07,896.277L1042.42,895.405L1041.77,894.538L1041.1,893.677L1040.43,892.821L1039.75,891.972L1039.07,891.128L1038.38,890.291L1037.67,889.46L1036.96,888.635L1036.25,887.816L1035.53,887.004L1034.8,886.197L1034.06,885.398L1033.32,884.606L1032.57,883.818L1031.81,883.039L1031.04,882.266L1030.27,881.499L1029.49,880.74L1028.71,879.987L1027.92,879.242L1027.12,878.503L1026.32,877.772L1025.5,877.047L1024.69,876.33L1023.86,875.62L1023.03,874.917L1022.2,874.222L1021.36,873.533L1020.51,872.853L1019.65,872.18L1018.79,871.515L1017.93,870.856L1017.06,870.206L1016.18,869.564L1015.3,868.929L1014.41,868.302L1013.52,867.683L1012.62,867.071L1011.71,866.468L1010.8,865.873L1009.89,865.285L1008.97,864.706L1008.04,864.135L1007.11,863.572L1006.18,863.018L1005.24,862.471L1004.29,861.933L1003.34,861.403L1002.39,860.882L1001.43,860.369L1000.46,859.864L999.497,859.368L998.525,858.881L997.549,858.402L996.568,857.932L995.584,857.471L994.596,857.018L993.604,856.573L992.606,856.138L991.606,855.711L990.603,855.294L989.596,854.885L988.584,854.484L987.569,854.094L986.552,853.712L985.53,853.339L984.506,852.975L983.479,852.619L982.447,852.273L981.413,851.937L980.377,851.608L979.337,851.29L978.295,850.981L977.25,850.68L976.202,850.389L975.152,850.107L974.1,849.835L973.044,849.571L971.987,849.317L903.201,918.104L903.853,917.743L904.508,917.389L905.166,917.04L905.827,916.697L906.49,916.36L907.158,916.03L907.828,915.705L908.501,915.386L909.177,915.073L909.854,914.767L910.536,914.466L911.22,914.172L911.906,913.883L912.596,913.601L913.287,913.325L913.98,913.055L914.677,912.791L915.376,912.534L916.076,912.282L916.779,912.037L917.485,911.799L918.192,911.566L918.901,911.341L919.613,911.121L920.326,910.907L921.042,910.701L921.759,910.5L922.478,910.307L923.198,910.118L923.92,909.938L924.645,909.763L925.369,909.595L926.097,909.433L926.824,909.277L927.554,909.129L928.285,908.986L929.017,908.851L929.75,908.722L930.484,908.599L931.221,908.483L931.957,908.374L932.694,908.271L933.433,908.175L934.172,908.085L934.911,908.002L935.652,907.926L936.394,907.856L937.135,907.793L937.878,907.736L938.621,907.687L939.364,907.643L940.107,907.606L940.852,907.576L941.596,907.554L942.34,907.536L943.085,907.526L943.829,907.523L944.332,907.531L944.835,907.544L945.338,907.561L945.84,907.582L946.343,907.607L946.845,907.638L947.347,907.673L947.849,907.712L948.35,907.755L948.85,907.803L949.351,907.855L949.851,907.911L950.35,907.973L950.849,908.038L951.347,908.107L951.844,908.182L952.341,908.261L952.837,908.343L953.332,908.431L953.827,908.523L954.32,908.618L954.813,908.719L955.306,908.823L955.797,908.932L956.287,909.045L956.776,909.163L957.264,909.285L957.751,909.411L958.236,909.542L958.722,909.677L959.205,909.815L959.688,909.959L960.168,910.106L960.647,910.258L961.126,910.414L961.603,910.574L962.078,910.738L962.552,910.906L963.024,911.079L963.495,911.256L963.965,911.438L964.433,911.622L964.898,911.812L965.363,912.005L965.826,912.202L966.287,912.403L966.746,912.608L967.203,912.818L967.658,913.032L968.112,913.249L968.563,913.471L969.014,913.696L969.461,913.926L969.906,914.159L970.351,914.397L970.792,914.638L971.231,914.883L971.668,915.132L972.104,915.384L972.536,915.641L972.967,915.901L973.395,916.165L973.82,916.433L974.243,916.705L974.664,916.98L975.083,917.259L975.499,917.542L975.913,917.828L976.324,918.118L976.732,918.411L977.139,918.709L977.541,919.01L977.942,919.314L978.34,919.621L978.735,919.933L979.127,920.247L979.518,920.565L979.904,920.888L980.288,921.212L980.669,921.54L981.047,921.872L981.422,922.207L981.795,922.546L982.164,922.887L982.53,923.231L982.894,923.58L983.254,923.931L983.61,924.285L983.965,924.643L984.315,925.003L984.663,925.367L985.008,925.733L985.349,926.104L985.687,926.476L986.021,926.852L986.353,927.231L986.68,927.611L987.005,927.996L987.325,928.383L987.644,928.773L987.958,929.166L988.269,929.562L988.576,929.96L988.88,930.36L989.18,930.765L989.477,931.171L989.77,931.579L990.059,931.99L990.345,932.404L990.627,932.821L990.905,933.24L991.181,933.661L991.451,934.085L991.719,934.511L991.982,934.939L992.242,935.37L992.499,935.803L992.751,936.238L992.999,936.676L993.244,937.115L993.484,937.557L993.721,938.001L993.954,938.446L994.183,938.895L994.408,939.345L994.629,939.797L994.846,940.25L995.059,940.706L995.268,941.163L995.473,941.623L995.674,942.084L995.87,942.547L996.063,943.012L996.252,943.478L996.437,943.946L996.617,944.415L996.793,944.887L996.965,945.359L997.133,945.833L997.297,946.31L997.456,946.786L997.611,947.265L997.763,947.744L997.91,948.226L998.053,948.708L998.191,949.191L998.451,950.625L998.698,952.062L998.933,953.5L999.153,954.94L999.362,956.383L999.558,957.827L999.74,959.273L999.909,960.72L1000.07,962.169L1000.21,963.619L1000.34,965.07L1000.46,966.523L1000.56,967.977L1000.65,969.432L1000.73,970.887L1000.8,972.342L1000.85,973.799L1000.89,975.255L1000.91,976.713L1000.93,978.17L1000.93,979.627L1000.91,981.084L1000.89,982.541L1000.85,983.998L1000.8,985.454L1000.73,986.91L1000.65,988.365L1000.56,989.82L1000.46,991.273L1000.34,992.727L1000.21,994.178L1000.07,995.628L999.909,997.077L999.74,998.524L999.558,999.97L999.362,1001.41L999.153,1002.86L998.933,1004.3L998.698,1005.74L998.451,1007.17L998.191,1008.61L998.053,1009.09L997.91,1009.57L997.763,1010.05L997.611,1010.53L997.456,1011.01L997.297,1011.49L997.133,1011.96L996.965,1012.44L996.793,1012.91L996.616,1013.38L996.437,1013.85L996.252,1014.32L996.063,1014.79L995.87,1015.25L995.673,1015.71L995.473,1016.17L995.268,1016.63L995.059,1017.09L994.846,1017.55L994.628,1018L994.407,1018.45L994.183,1018.9L993.953,1019.35L993.721,1019.8L993.484,1020.24L993.243,1020.68L992.999,1021.12L992.75,1021.56L992.498,1021.99L992.242,1022.43L991.982,1022.86L991.719,1023.29L991.451,1023.71L991.18,1024.14L990.905,1024.56L990.627,1024.98L990.345,1025.39L990.059,1025.81L989.77,1026.22L989.476,1026.63L989.18,1027.03L988.879,1027.44L988.575,1027.84L988.268,1028.23L987.957,1028.63L987.643,1029.02L987.325,1029.41L987.004,1029.8L986.68,1030.18L986.352,1030.57L986.021,1030.94L985.686,1031.32L985.348,1031.69L985.007,1032.06L984.662,1032.43L984.314,1032.79L983.964,1033.15L983.61,1033.51L983.253,1033.87L982.893,1034.22L982.529,1034.56L982.163,1034.91L981.794,1035.25L981.422,1035.59L981.047,1035.92L980.668,1036.26L980.287,1036.58L979.903,1036.91L979.517,1037.23L979.127,1037.55L978.734,1037.86L978.34,1038.17L977.941,1038.48L977.541,1038.79L977.138,1039.09L976.731,1039.38L976.323,1039.68L975.912,1039.97L975.499,1040.25L975.083,1040.54L974.664,1040.82L974.243,1041.09L973.819,1041.36L973.394,1041.63L972.966,1041.89L972.535,1042.16L972.103,1042.41L971.668,1042.67L971.23,1042.91L970.791,1043.16L970.35,1043.4L969.906,1043.64L969.461,1043.87L969.013,1044.1L968.563,1044.33L968.111,1044.55L967.658,1044.76L967.203,1044.98L966.745,1045.19L966.286,1045.39L965.825,1045.59L965.362,1045.79L964.898,1045.98L964.433,1046.17L963.965,1046.36L963.495,1046.54L963.024,1046.72L962.552,1046.89L962.078,1047.06L961.603,1047.22L961.126,1047.38L960.647,1047.54L960.168,1047.69L959.687,1047.84L959.205,1047.98L958.721,1048.12L958.236,1048.25L957.751,1048.38L957.264,1048.51L956.775,1048.63L956.287,1048.75L955.797,1048.86L955.306,1048.97L954.813,1049.08L954.32,1049.18L953.827,1049.27L953.332,1049.37L952.837,1049.45L952.341,1049.54L951.844,1049.61L951.347,1049.69L950.849,1049.76L950.35,1049.82L949.85,1049.88L949.351,1049.94L948.85,1049.99L948.35,1050.04L947.848,1050.09L947.347,1050.12L946.845,1050.16L946.343,1050.19L945.84,1050.21L945.338,1050.24L944.835,1050.25L944.332,1050.27L942.973,1050.27L942.116,1050.26L941.26,1050.24L940.403,1050.21L939.547,1050.18L938.691,1050.14L937.836,1050.09L936.981,1050.03L936.127,1049.97L935.273,1049.89L934.421,1049.81L933.568,1049.73L932.717,1049.63L931.866,1049.53L931.017,1049.42L930.168,1049.3L929.32,1049.18L928.474,1049.05L927.629,1048.91L926.785,1048.76L925.942,1048.6L925.102,1048.44L924.262,1048.27L923.424,1048.09L922.587,1047.91L921.752,1047.72L920.919,1047.52L920.088,1047.31L919.258,1047.1L918.431,1046.88L917.604,1046.65L916.781,1046.41L915.96,1046.17L915.141,1045.92L914.324,1045.66L913.509,1045.39L912.697,1045.12L911.887,1044.84L911.08,1044.55L910.275,1044.26L909.473,1043.96L908.674,1043.65L907.877,1043.34L907.083,1043.01L906.293,1042.68L905.505,1042.35L904.72,1042L903.938,1041.66L903.159,1041.3L902.384,1040.93L901.611,1040.56L900.843,1040.19L900.077,1039.8L899.314,1039.41L898.556,1039.01L897.801,1038.61L897.05,1038.2L896.302,1037.78L895.558,1037.35L894.817,1036.92L894.081,1036.48L893.349,1036.04L892.62,1035.59L891.896,1035.13L891.176,1034.67L890.459,1034.2L889.747,1033.72L889.039,1033.24L888.336,1032.75L887.637,1032.25L886.941,1031.75L886.252,1031.25L885.565,1030.73L884.885,1030.21L884.208,1029.69L883.536,1029.16L882.869,1028.62L882.207,1028.08L881.55,1027.53L880.896,1026.97L880.249,1026.41L879.606,1025.84L878.969,1025.27L878.337,1024.69L877.709,1024.11L877.087,1023.52L876.47,1022.93L875.858,1022.33L875.252,1021.72L874.651,1021.11L874.056,1020.5L873.466,1019.87L872.882,1019.25L872.303,1018.62L871.729,1017.98L871.162,1017.34L825.237,1060.37L826.229,1061.42L827.231,1062.46L828.242,1063.49L829.263,1064.51L830.292,1065.53L831.33,1066.53L832.377,1067.53L833.433,1068.51L834.498,1069.49L835.571,1070.46L836.653,1071.42L837.743,1072.36L838.842,1073.3L839.949,1074.23L841.064,1075.15L842.188,1076.06L843.319,1076.96L844.458,1077.85L845.605,1078.72L846.761,1079.59L847.923,1080.45L849.093,1081.3L850.271,1082.13L851.456,1082.96L852.648,1083.78L853.848,1084.58L855.055,1085.38L856.269,1086.16L857.489,1086.93L858.717,1087.7L859.951,1088.45L861.191,1089.19L862.439,1089.92L863.693,1090.63L864.953,1091.34L866.22,1092.04L867.492,1092.72L868.771,1093.39L870.055,1094.06L871.345,1094.71L872.641,1095.34L873.942,1095.97L875.25,1096.59L876.563,1097.19L877.881,1097.78L879.203,1098.36L880.532,1098.93L881.865,1099.49L883.203,1100.03L884.546,1100.57L885.894,1101.09L887.246,1101.6L888.603,1102.09L889.964,1102.58L891.329,1103.05L892.698,1103.51L894.071,1103.96L895.449,1104.4L896.83,1104.82L898.216,1105.23L899.604,1105.63L900.996,1106.02L902.392,1106.39L903.79,1106.76L905.192,1107.11L906.597,1107.44L908.005,1107.77L909.415,1108.08L910.829,1108.38L912.245,1108.67L913.663,1108.94L915.084,1109.2L916.508,1109.45L917.933,1109.69L919.36,1109.91L920.789,1110.12L922.221,1110.32L923.653,1110.51L925.088,1110.68L926.523,1110.84L927.961,1110.99L929.399,1111.12L930.84,1111.25L932.28,1111.35L933.722,1111.45L935.164,1111.53L936.607,1111.6L938.051,1111.66L939.495,1111.71L940.939,1111.74L942.385,1111.76L943.829,1111.77L944.918,1111.76L946.006,1111.75L947.094,1111.72L948.182,1111.69L949.27,1111.64L950.356,1111.59L951.442,1111.53L952.529,1111.45L953.614,1111.37L954.698,1111.28L955.782,1111.18L956.865,1111.07L957.946,1110.95L959.027,1110.82L960.106,1110.68L961.185,1110.53L962.262,1110.37L963.337,1110.2L964.41,1110.02L965.482,1109.84L966.553,1109.64L967.622,1109.43L968.688,1109.22L969.754,1108.99L970.816,1108.76L971.877,1108.52L972.936,1108.26L973.992,1108L975.046,1107.73L976.098,1107.45L977.146,1107.16L978.193,1106.86L979.236,1106.55L980.277,1106.23L981.315,1105.91L982.351,1105.57L983.383,1105.22L984.412,1104.87L985.438,1104.51L986.461,1104.13L987.48,1103.75L988.496,1103.36L989.509,1102.96L990.518,1102.55L991.522,1102.14L992.524,1101.71L993.521,1101.28L994.516,1100.83L995.506,1100.38L996.491,1099.92L997.474,1099.45L998.451,1098.97L999.424,1098.48L1000.39,1097.99L1001.36,1097.48L1002.32,1096.97L1003.27,1096.45L1004.22,1095.92L1005.17,1095.38L1006.11,1094.84L1007.05,1094.28L1007.98,1093.72L1008.91,1093.15L1009.83,1092.57L1010.74,1091.98L1011.66,1091.39L1012.56,1090.78L1013.46,1090.17L1014.36,1089.55L1015.25,1088.93L1016.13,1088.29L1017.01,1087.65L1017.88,1087L1018.75,1086.34L1019.61,1085.67L1020.46,1085L1021.31,1084.32L1022.16,1083.63L1022.99,1082.94L1023.83,1082.23L1024.65,1081.52L1025.47,1080.81L1026.28,1080.08L1027.09,1079.35L1027.88,1078.61L1028.68,1077.86L1029.46,1077.11L1030.24,1076.35L1031.01,1075.58L1031.78,1074.81L1032.54,1074.03L1033.29,1073.24L1034.04,1072.45L1034.77,1071.65L1036.23,1070.03L1036.94,1069.21L1037.65,1068.39L1038.36,1067.55L1039.05,1066.72L1039.74,1065.87L1040.42,1065.02L1041.09,1064.17L1041.75,1063.3L1042.41,1062.44L1043.06,1061.56L1043.7,1060.68L1044.33,1059.8L1044.96,1058.91L1045.58,1058.01L1046.19,1057.11L1046.79,1056.2L1047.38,1055.29L1047.97,1054.37L1048.55,1053.45L1049.12,1052.52L1049.68,1051.59L1050.23,1050.66L1050.78,1049.71L1051.31,1048.77L1051.84,1047.81L1052.36,1046.86L1052.87,1045.9L1053.38,1044.93L1053.87,1043.96L1054.36,1042.99L1054.83,1042.01L1055.3,1041.03L1055.76,1040.04L1056.21,1039.05L1056.65,1038.06L1057.09,1037.06L1057.51,1036.06L1057.93,1035.05L1058.33,1034.04L1058.73,1033.03L1059.12,1032.01L1059.5,1030.99L1059.87,1029.97L1060.24,1028.94L1060.59,1027.91L1060.93,1026.88L1061.27,1025.84L1061.59,1024.8L1061.91,1023.76L1062.21,1022.72L1062.51,1021.67L1062.8,1020.62L1063.08,1019.57L1063.35,1018.52L1063.71,1016.45L1064.04,1014.38L1064.36,1012.31L1064.65,1010.24L1064.93,1008.16L1065.19,1006.08L1065.43,1004L1065.65,1001.91L1065.85,999.827L1066.04,997.739L1066.2,995.649L1066.34,993.559L1066.47,991.467L1066.57,989.374L1066.66,987.279L1066.73,985.185L1066.78,983.09L1066.8,980.994L1066.81,978.898L1066.8,976.803L1066.78,974.707L1066.73,972.611L1066.66,970.517L1066.57,968.423L1066.47,966.33L1066.34,964.237L1066.2,962.148L1066.04,960.058L1065.85,957.97L1065.65,955.884L1065.43,953.8L1065.19,951.718L1064.93,949.638L1064.65,947.561L1064.36,945.485L1064.04,943.414L1063.71,941.345L1063.35,939.279Z"/>
        <path d="M1253.48,871.627L1309.4,871.627L1309.4,916.362L1253.48,916.362L1253.48,1042.69L1253.49,1042.86L1253.49,1043.03L1253.5,1043.2L1253.51,1043.36L1253.53,1043.7L1253.54,1043.87L1253.55,1044.04L1253.57,1044.21L1253.59,1044.38L1253.61,1044.54L1253.63,1044.71L1253.65,1044.88L1253.67,1045.05L1253.7,1045.21L1253.72,1045.38L1253.75,1045.55L1253.78,1045.72L1253.81,1045.88L1253.84,1046.05L1253.87,1046.21L1253.91,1046.38L1253.94,1046.54L1253.98,1046.71L1254.02,1046.88L1254.06,1047.04L1254.1,1047.2L1254.15,1047.37L1254.19,1047.53L1254.29,1047.85L1254.34,1048.02L1254.39,1048.18L1254.44,1048.34L1254.49,1048.5L1254.55,1048.66L1254.6,1048.82L1254.66,1048.98L1254.72,1049.14L1254.78,1049.29L1254.84,1049.45L1254.91,1049.61L1254.97,1049.76L1255.04,1049.92L1255.11,1050.08L1255.17,1050.23L1255.24,1050.38L1255.32,1050.54L1255.39,1050.69L1255.46,1050.84L1255.54,1050.99L1255.62,1051.14L1255.69,1051.29L1255.77,1051.44L1255.85,1051.59L1255.94,1051.74L1256.02,1051.89L1256.11,1052.03L1256.19,1052.18L1256.28,1052.32L1256.37,1052.47L1256.46,1052.61L1256.55,1052.75L1256.64,1052.9L1256.73,1053.04L1256.83,1053.18L1256.93,1053.32L1257.02,1053.45L1257.12,1053.59L1257.22,1053.73L1257.32,1053.86L1257.42,1054L1257.53,1054.13L1257.63,1054.27L1257.74,1054.4L1257.84,1054.53L1257.95,1054.66L1258.06,1054.79L1258.17,1054.92L1258.28,1055.04L1258.4,1055.17L1258.51,1055.29L1258.63,1055.42L1258.74,1055.54L1258.86,1055.67L1258.98,1055.79L1259.09,1055.91L1259.21,1056.03L1259.34,1056.14L1259.58,1056.38L1259.71,1056.49L1259.83,1056.6L1259.96,1056.72L1260.08,1056.83L1260.47,1057.16L1260.6,1057.26L1260.74,1057.37L1260.87,1057.47L1261,1057.58L1261.14,1057.68L1261.27,1057.78L1261.55,1057.98L1261.69,1058.08L1261.83,1058.17L1261.96,1058.27L1262.11,1058.36L1262.25,1058.45L1262.39,1058.54L1262.53,1058.63L1262.68,1058.72L1262.82,1058.81L1262.97,1058.9L1263.11,1058.98L1263.26,1059.06L1263.41,1059.15L1263.56,1059.23L1263.71,1059.31L1263.86,1059.39L1264.01,1059.46L1264.16,1059.54L1264.31,1059.61L1264.46,1059.69L1264.62,1059.76L1264.77,1059.83L1264.93,1059.9L1265.08,1059.96L1265.24,1060.03L1265.39,1060.09L1265.55,1060.16L1265.71,1060.22L1265.87,1060.28L1266.02,1060.34L1266.18,1060.4L1266.34,1060.45L1266.5,1060.51L1266.66,1060.56L1266.82,1060.61L1266.99,1060.67L1267.15,1060.71L1267.31,1060.76L1267.47,1060.81L1267.63,1060.85L1267.8,1060.9L1267.96,1060.94L1268.13,1060.98L1268.29,1061.02L1268.46,1061.06L1268.62,1061.09L1268.79,1061.13L1268.95,1061.16L1269.12,1061.19L1269.29,1061.22L1269.45,1061.25L1269.62,1061.28L1269.79,1061.31L1269.95,1061.33L1270.12,1061.35L1270.29,1061.38L1270.46,1061.4L1270.63,1061.41L1270.79,1061.43L1270.96,1061.45L1271.13,1061.46L1271.3,1061.47L1271.47,1061.49L1271.64,1061.5L1271.81,1061.5L1271.98,1061.51L1272.14,1061.51L1272.31,1061.52L1273.35,1061.52L1274.04,1061.51L1274.73,1061.49L1275.43,1061.47L1276.12,1061.44L1276.82,1061.41L1277.51,1061.37L1278.2,1061.32L1278.89,1061.26L1279.58,1061.2L1280.28,1061.14L1280.97,1061.06L1281.66,1060.98L1282.34,1060.9L1283.03,1060.81L1283.72,1060.71L1284.41,1060.6L1285.09,1060.49L1285.78,1060.38L1286.46,1060.25L1287.14,1060.12L1287.82,1059.99L1288.5,1059.85L1289.18,1059.7L1289.86,1059.54L1290.53,1059.38L1291.21,1059.21L1291.88,1059.04L1292.55,1058.86L1293.22,1058.68L1293.89,1058.49L1294.55,1058.29L1295.21,1058.08L1295.88,1057.88L1309.59,1100.46L1308.54,1100.79L1307.48,1101.11L1306.42,1101.43L1305.36,1101.73L1304.3,1102.03L1303.23,1102.31L1302.16,1102.59L1301.09,1102.85L1300.01,1103.11L1298.94,1103.35L1297.86,1103.59L1296.78,1103.82L1295.7,1104.03L1294.61,1104.24L1293.52,1104.43L1292.44,1104.62L1291.35,1104.8L1290.25,1104.96L1289.16,1105.12L1288.07,1105.27L1286.97,1105.4L1285.88,1105.53L1283.68,1105.75L1282.58,1105.85L1280.38,1106.01L1279.27,1106.07L1278.17,1106.13L1277.07,1106.18L1275.96,1106.21L1274.86,1106.24L1273.76,1106.25L1272.65,1106.26L1272.06,1106.25L1271.47,1106.25L1270.89,1106.23L1270.3,1106.21L1269.71,1106.19L1269.12,1106.16L1268.53,1106.13L1267.95,1106.09L1267.36,1106.05L1266.77,1106L1266.18,1105.94L1265.6,1105.88L1265.01,1105.82L1264.43,1105.75L1263.84,1105.68L1263.26,1105.6L1262.68,1105.51L1262.1,1105.42L1261.52,1105.33L1260.94,1105.23L1259.78,1105.01L1259.2,1104.89L1258.62,1104.77L1258.05,1104.65L1257.47,1104.52L1256.9,1104.38L1256.33,1104.24L1255.76,1104.09L1255.19,1103.94L1254.62,1103.79L1254.05,1103.63L1253.49,1103.46L1252.93,1103.29L1252.36,1103.12L1251.8,1102.94L1251.25,1102.75L1250.69,1102.56L1250.13,1102.37L1249.58,1102.17L1249.03,1101.96L1248.48,1101.75L1247.93,1101.54L1247.38,1101.32L1246.84,1101.09L1246.29,1100.86L1245.75,1100.63L1245.22,1100.39L1244.68,1100.15L1244.14,1099.9L1243.61,1099.65L1243.08,1099.39L1242.56,1099.13L1242.03,1098.86L1241.51,1098.59L1240.99,1098.32L1240.47,1098.04L1239.95,1097.75L1239.44,1097.46L1238.93,1097.17L1238.42,1096.87L1237.92,1096.57L1236.92,1095.95L1235.92,1095.31L1235.43,1094.99L1234.94,1094.66L1234.46,1094.33L1233.98,1093.99L1233.5,1093.65L1233.02,1093.3L1232.55,1092.95L1232.08,1092.6L1231.14,1091.88L1230.68,1091.51L1230.22,1091.14L1229.77,1090.77L1229.32,1090.39L1228.87,1090.01L1228.43,1089.62L1227.99,1089.23L1227.55,1088.84L1227.11,1088.44L1226.68,1088.04L1226.26,1087.63L1225.83,1087.22L1225.41,1086.81L1225,1086.39L1224.58,1085.97L1224.17,1085.55L1222.97,1084.26L1222.19,1083.38L1221.8,1082.93L1221.42,1082.49L1221.04,1082.04L1220.67,1081.58L1220.29,1081.12L1219.93,1080.66L1219.57,1080.2L1219.21,1079.73L1218.85,1079.26L1218.5,1078.79L1218.16,1078.31L1217.82,1077.83L1217.48,1077.35L1217.15,1076.86L1216.82,1076.37L1216.49,1075.88L1216.17,1075.39L1215.86,1074.89L1215.55,1074.39L1215.24,1073.89L1214.94,1073.38L1214.64,1072.88L1214.34,1072.37L1214.05,1071.85L1213.77,1071.34L1213.21,1070.3L1212.94,1069.78L1212.68,1069.25L1212.42,1068.72L1212.16,1068.19L1211.91,1067.66L1211.66,1067.13L1211.42,1066.59L1211.18,1066.05L1210.94,1065.51L1210.71,1064.97L1210.49,1064.42L1210.27,1063.88L1210.06,1063.33L1209.85,1062.78L1209.64,1062.23L1209.44,1061.67L1209.25,1061.12L1209.06,1060.56L1208.87,1060L1208.69,1059.44L1208.51,1058.88L1208.34,1058.32L1208.18,1057.75L1208.02,1057.18L1207.86,1056.62L1207.71,1056.05L1207.57,1055.48L1207.42,1054.91L1207.29,1054.33L1207.16,1053.76L1207.03,1053.18L1206.91,1052.61L1206.8,1052.03L1206.69,1051.45L1206.58,1050.87L1206.48,1050.29L1206.38,1049.71L1206.29,1049.13L1206.21,1048.54L1206.13,1047.96L1206.06,1047.38L1205.99,1046.79L1205.92,1046.21L1205.86,1045.62L1205.81,1045.04L1205.76,1044.45L1205.71,1043.86L1205.68,1043.27L1205.64,1042.69L1205.61,1042.1L1205.59,1041.51L1205.57,1040.92L1205.56,1040.33L1205.55,1039.74L1205.55,916.362L1173.6,916.362L1173.6,871.627L1205.55,871.627L1205.55,822.099L1253.48,780.332L1253.48,871.627Z"/>
        <path d="M792.846,1054.99L792.623,1054.69L792.396,1054.4L792.167,1054.1L791.936,1053.81L791.701,1053.52L791.464,1053.23L791.225,1052.95L790.983,1052.67L790.738,1052.38L790.491,1052.11L790.241,1051.83L789.989,1051.56L789.734,1051.28L789.478,1051.01L789.218,1050.75L788.956,1050.48L788.691,1050.22L788.425,1049.96L788.156,1049.7L787.885,1049.45L787.611,1049.19L787.335,1048.94L787.057,1048.7L786.776,1048.45L786.494,1048.21L786.209,1047.97L785.922,1047.73L785.633,1047.5L785.342,1047.26L785.048,1047.03L784.753,1046.81L784.456,1046.58L784.156,1046.36L783.854,1046.14L783.551,1045.93L783.246,1045.71L782.938,1045.5L782.629,1045.29L782.318,1045.09L782.005,1044.89L781.691,1044.69L781.375,1044.49L781.056,1044.3L780.736,1044.11L780.414,1043.92L780.091,1043.74L779.766,1043.55L779.439,1043.37L779.111,1043.2L778.781,1043.03L778.45,1042.85L725.284,1096.02L725.43,1096.17L725.577,1096.32L725.726,1096.47L725.875,1096.62L726.026,1096.77L726.179,1096.91L726.332,1097.06L726.487,1097.2L726.643,1097.34L726.8,1097.48L726.959,1097.62L727.119,1097.76L727.279,1097.89L727.441,1098.03L727.605,1098.16L727.77,1098.29L727.935,1098.42L728.102,1098.55L728.27,1098.68L728.438,1098.8L728.609,1098.92L728.78,1099.05L728.952,1099.17L729.125,1099.29L729.3,1099.41L729.476,1099.52L729.652,1099.64L729.829,1099.75L730.187,1099.97L730.367,1100.08L730.549,1100.19L730.731,1100.29L730.914,1100.4L731.098,1100.5L731.283,1100.6L731.469,1100.7L731.656,1100.8L731.843,1100.89L732.032,1100.99L732.221,1101.08L732.411,1101.17L732.602,1101.26L732.793,1101.35L733.179,1101.51L733.373,1101.6L733.567,1101.68L733.763,1101.76L733.958,1101.83L734.155,1101.91L734.353,1101.98L734.55,1102.05L734.749,1102.12L735.147,1102.26L735.348,1102.32L735.549,1102.39L735.75,1102.45L735.952,1102.51L736.155,1102.57L736.357,1102.62L736.561,1102.67L736.765,1102.73L736.97,1102.78L737.174,1102.83L737.379,1102.87L737.585,1102.92L737.791,1102.96L737.998,1103L738.205,1103.04L738.412,1103.08L738.619,1103.12L738.827,1103.15L739.035,1103.18L739.243,1103.21L739.452,1103.24L739.661,1103.27L739.87,1103.29L740.079,1103.32L740.288,1103.34L740.498,1103.36L740.708,1103.38L740.917,1103.39L741.127,1103.41L741.338,1103.42L741.758,1103.44L741.969,1103.44L742.179,1103.45L743.021,1103.45L743.232,1103.44L743.442,1103.44L743.653,1103.43L744.073,1103.41L744.283,1103.39L744.493,1103.38L744.703,1103.36L744.913,1103.34L745.122,1103.32L745.332,1103.29L745.541,1103.27L745.75,1103.24L745.958,1103.21L746.166,1103.18L746.374,1103.15L746.582,1103.12L746.79,1103.08L746.997,1103.04L747.203,1103L747.41,1102.96L747.616,1102.92L747.821,1102.87L748.026,1102.83L748.231,1102.78L748.436,1102.73L748.64,1102.67L749.046,1102.57L749.249,1102.51L749.451,1102.45L749.652,1102.39L749.853,1102.32L750.053,1102.26L750.253,1102.19L750.452,1102.12L750.651,1102.05L750.849,1101.98L751.046,1101.91L751.242,1101.83L751.438,1101.76L751.634,1101.68L751.828,1101.6L752.022,1101.51L752.215,1101.43L752.408,1101.35L752.599,1101.26L752.79,1101.17L752.98,1101.08L753.169,1100.99L753.357,1100.89L753.545,1100.8L753.732,1100.7L753.918,1100.6L754.103,1100.5L754.287,1100.4L754.47,1100.29L754.652,1100.19L754.833,1100.08L755.014,1099.97L755.372,1099.75L755.549,1099.64L755.726,1099.52L755.901,1099.41L756.249,1099.17L756.421,1099.05L756.592,1098.93L756.762,1098.8L756.931,1098.68L757.099,1098.55L757.266,1098.42L757.432,1098.29L757.596,1098.16L757.759,1098.03L757.921,1097.89L758.083,1097.76L758.189,1097.94L758.293,1098.12L758.397,1098.31L758.499,1098.49L758.598,1098.68L758.696,1098.87L758.793,1099.06L758.888,1099.25L758.981,1099.44L759.073,1099.63L759.163,1099.82L759.251,1100.01L759.338,1100.21L759.423,1100.4L759.506,1100.59L759.587,1100.79L759.667,1100.99L759.745,1101.18L759.821,1101.38L759.896,1101.58L759.968,1101.78L760.04,1101.98L760.109,1102.18L760.176,1102.38L760.242,1102.58L760.306,1102.78L760.368,1102.98L760.429,1103.19L760.487,1103.39L760.544,1103.59L760.599,1103.8L760.652,1104L760.704,1104.21L760.753,1104.41L760.801,1104.62L760.848,1104.83L760.892,1105.03L760.934,1105.24L760.975,1105.45L761.014,1105.66L761.05,1105.87L761.085,1106.08L761.119,1106.28L761.15,1106.49L761.18,1106.7L761.208,1106.91L761.233,1107.12L761.257,1107.33L761.279,1107.54L761.3,1107.76L761.318,1107.97L761.335,1108.18L761.35,1108.39L761.363,1108.6L761.374,1108.81L761.383,1109.02L761.391,1109.24L761.396,1109.45L761.399,1109.66L761.401,1109.87L761.401,1110.08L761.399,1110.29L761.396,1110.51L761.39,1110.72L761.382,1110.93L761.373,1111.14L761.362,1111.35L761.349,1111.56L761.334,1111.77L761.317,1111.99L761.298,1112.2L761.278,1112.41L761.255,1112.62L761.231,1112.83L761.205,1113.04L761.177,1113.25L761.147,1113.46L761.116,1113.67L761.083,1113.88L761.047,1114.09L761.011,1114.29L760.972,1114.5L760.931,1114.71L760.888,1114.92L760.844,1115.13L760.798,1115.33L760.75,1115.54L760.7,1115.74L760.648,1115.95L760.595,1116.15L760.54,1116.36L760.483,1116.56L760.424,1116.77L760.363,1116.97L760.301,1117.17L760.237,1117.37L760.171,1117.57L760.104,1117.77L760.034,1117.97L759.963,1118.17L759.89,1118.37L759.815,1118.57L759.739,1118.77L759.661,1118.97L759.581,1119.16L759.499,1119.36L759.416,1119.55L759.331,1119.75L759.244,1119.94L759.156,1120.13L759.066,1120.32L758.974,1120.51L758.881,1120.7L758.786,1120.89L758.689,1121.08L758.591,1121.27L758.491,1121.46L758.389,1121.64L758.286,1121.83L758.181,1122.01L758.074,1122.19L757.966,1122.38L757.856,1122.56L757.745,1122.74L757.632,1122.92L757.518,1123.09L757.284,1123.45L757.165,1123.62L757.044,1123.8L756.922,1123.97L756.798,1124.14L756.673,1124.31L756.547,1124.48L756.418,1124.65L756.289,1124.82L756.158,1124.99L756.025,1125.15L755.891,1125.31L755.756,1125.48L755.619,1125.64L755.48,1125.8L755.341,1125.96L755.2,1126.12L755.058,1126.27L754.914,1126.43L754.769,1126.58L754.622,1126.74L754.474,1126.89L754.325,1127.04L754.174,1127.19L754.022,1127.33L753.87,1127.48L753.715,1127.63L753.56,1127.77L753.402,1127.91L753.244,1128.05L753.085,1128.19L752.924,1128.33L752.763,1128.47L752.6,1128.6L752.436,1128.74L752.27,1128.87L752.104,1129L751.936,1129.13L751.767,1129.26L751.598,1129.38L751.426,1129.51L751.254,1129.63L751.081,1129.75L750.907,1129.87L750.732,1129.99L750.556,1130.11L750.378,1130.23L750.2,1130.34L750.021,1130.45L749.84,1130.56L749.659,1130.67L749.477,1130.78L749.293,1130.89L749.109,1130.99L748.924,1131.09L748.738,1131.2L748.552,1131.3L748.364,1131.39L748.175,1131.49L747.986,1131.59L747.796,1131.68L747.605,1131.77L747.413,1131.86L747.221,1131.95L747.027,1132.03L746.833,1132.12L746.443,1132.28L746.247,1132.36L746.05,1132.44L745.852,1132.52L745.654,1132.59L745.455,1132.66L745.255,1132.74L745.055,1132.8L744.653,1132.94L744.451,1133L744.249,1133.06L744.045,1133.12L743.842,1133.18L743.638,1133.24L743.434,1133.29L743.229,1133.35L743.023,1133.4L742.611,1133.5L742.404,1133.54L742.197,1133.59L741.781,1133.67L741.573,1133.71L741.365,1133.74L741.156,1133.78L740.947,1133.81L740.737,1133.84L740.527,1133.87L740.317,1133.9L740.107,1133.93L739.896,1133.95L739.686,1133.97L739.476,1133.99L739.264,1134.01L739.053,1134.03L738.842,1134.04L738.63,1134.05L738.419,1134.07L738.208,1134.08L737.996,1134.08L737.784,1134.09L736.725,1134.09L736.514,1134.08L736.302,1134.07L736.302,1155.8L736.885,1155.79L737.467,1155.79L738.05,1155.77L739.214,1155.73L739.796,1155.7L740.378,1155.67L740.959,1155.63L741.541,1155.59L742.121,1155.54L742.701,1155.49L743.281,1155.43L743.86,1155.36L744.438,1155.29L745.017,1155.22L745.594,1155.14L746.17,1155.06L746.746,1154.97L747.321,1154.87L747.895,1154.77L748.468,1154.67L749.041,1154.56L749.612,1154.45L750.182,1154.33L750.751,1154.2L751.319,1154.07L751.886,1153.94L752.452,1153.8L753.017,1153.65L753.58,1153.5L754.142,1153.35L754.702,1153.19L755.261,1153.03L755.818,1152.86L756.375,1152.68L756.929,1152.5L757.482,1152.32L758.033,1152.13L758.583,1151.94L759.131,1151.74L759.677,1151.54L760.221,1151.33L760.764,1151.12L761.304,1150.9L761.843,1150.68L762.379,1150.45L762.914,1150.22L763.447,1149.98L763.977,1149.74L764.505,1149.49L765.032,1149.24L765.556,1148.99L766.077,1148.73L766.597,1148.46L767.113,1148.2L767.628,1147.92L768.141,1147.65L768.65,1147.36L769.157,1147.08L769.662,1146.79L770.164,1146.49L770.664,1146.19L771.161,1145.89L771.655,1145.58L772.146,1145.26L772.635,1144.95L773.121,1144.63L773.604,1144.3L774.084,1143.97L774.561,1143.63L775.035,1143.3L775.506,1142.95L775.975,1142.61L776.44,1142.26L776.902,1141.9L777.361,1141.54L777.816,1141.18L778.269,1140.81L778.718,1140.44L779.164,1140.07L779.607,1139.69L780.046,1139.3L780.482,1138.92L780.915,1138.53L781.344,1138.13L781.77,1137.74L782.191,1137.33L782.61,1136.93L783.025,1136.52L783.437,1136.11L783.844,1135.69L784.248,1135.27L784.648,1134.85L785.045,1134.42L785.438,1133.99L785.827,1133.56L786.212,1133.12L786.593,1132.68L786.971,1132.23L787.344,1131.79L787.714,1131.34L788.079,1130.88L788.441,1130.43L788.798,1129.97L789.152,1129.5L789.501,1129.04L789.847,1128.57L790.188,1128.09L790.525,1127.62L790.857,1127.14L791.186,1126.66L791.511,1126.18L791.831,1125.69L792.146,1125.2L792.458,1124.71L792.765,1124.21L793.067,1123.71L793.366,1123.21L793.66,1122.71L793.949,1122.21L794.234,1121.7L794.515,1121.19L794.791,1120.67L795.063,1120.16L795.33,1119.64L795.592,1119.12L795.85,1118.6L796.103,1118.07L796.352,1117.54L796.596,1117.02L796.835,1116.48L797.07,1115.95L797.3,1115.42L797.525,1114.88L797.746,1114.34L797.961,1113.8L798.172,1113.25L798.378,1112.71L798.58,1112.16L798.776,1111.61L798.968,1111.06L799.155,1110.51L799.337,1109.96L799.514,1109.4L799.687,1108.85L799.854,1108.29L800.016,1107.73L800.174,1107.17L800.326,1106.61L800.474,1106.04L800.617,1105.48L800.754,1104.91L800.887,1104.34L801.015,1103.78L801.138,1103.21L801.255,1102.64L801.368,1102.06L801.476,1101.49L801.578,1100.92L801.676,1100.34L801.768,1099.77L801.855,1099.19L801.938,1098.62L802.016,1098.04L802.087,1097.46L802.155,1096.88L802.217,1096.3L802.274,1095.72L802.326,1095.14L802.372,1094.56L802.414,1093.98L802.451,1093.4L802.482,1092.82L802.508,1092.23L802.529,1091.65L802.545,1091.07L802.556,1090.49L802.562,1089.9L802.563,1089.32L802.559,1088.74L802.549,1088.16L802.534,1087.57L802.514,1086.99L802.489,1086.41L802.459,1085.83L802.424,1085.25L802.384,1084.66L802.338,1084.08L802.288,1083.5L802.232,1082.92L802.172,1082.34L802.106,1081.76L802.035,1081.19L801.959,1080.61L801.878,1080.03L801.792,1079.46L801.701,1078.88L801.604,1078.31L801.503,1077.73L801.397,1077.16L801.286,1076.59L801.169,1076.02L801.048,1075.45L800.922,1074.88L800.79,1074.31L800.654,1073.74L800.513,1073.18L800.366,1072.61L800.215,1072.05L800.059,1071.49L799.897,1070.93L799.731,1070.37L799.561,1069.81L799.385,1069.26L799.204,1068.71L799.019,1068.15L798.828,1067.6L798.633,1067.05L798.433,1066.51L798.228,1065.96L798.018,1065.42L797.804,1064.88L797.584,1064.34L797.36,1063.8L797.132,1063.26L796.898,1062.73L796.66,1062.2L796.417,1061.67L796.17,1061.14L795.918,1060.61L795.661,1060.09L795.4,1059.57L795.134,1059.05L794.864,1058.53L794.589,1058.02L794.31,1057.51L794.026,1057L793.738,1056.49L793.445,1055.99L793.147,1055.49L792.846,1054.99Z"/>
        <path d="M1058.03,763.275L1033.31,787.99L1058.03,787.99L1058.03,763.275Z"/>
        <path d="M854.316,726.498L838.414,726.498L838.414,742.4L854.316,726.498Z"/>
    </g>
</svg>
