<?xml version="1.0" encoding="UTF-8" standalone="no"?>
<!DOCTYPE svg PUBLIC "-//W3C//DTD SVG 1.1//EN" "http://www.w3.org/Graphics/SVG/1.1/DTD/svg11.dtd">
<svg width="100%" height="100%" viewBox="0 0 228 228" version="1.1" xmlns="http://www.w3.org/2000/svg" xmlns:xlink="http://www.w3.org/1999/xlink" xml:space="preserve" xmlns:serif="http://www.serif.com/" style="fill-rule:evenodd;clip-rule:evenodd;stroke-miterlimit:2;">
    <g>
        <path d="M227.843,114.132C227.843,51.493 176.507,0.157 113.868,0.157C51.443,0.157 0.107,51.493 0.107,114.132C0.107,176.556 51.443,227.892 113.868,227.892C176.507,227.892 227.843,176.556 227.843,114.132Z" style="fill:rgb(0,64,128);fill-rule:nonzero;"/>
        <path d="M227.843,114.132C227.843,51.493 176.507,0.157 113.868,0.157C51.443,0.157 0.107,51.493 0.107,114.132C0.107,176.556 51.443,227.892 113.868,227.892C176.507,227.892 227.843,176.556 227.843,114.132Z" style="fill:none;stroke:rgb(0,64,128);stroke-width:0.22px;"/>
        <path d="M223.883,114.132C223.883,53.437 174.563,4.117 113.868,4.117C53.387,4.117 4.067,53.437 4.067,114.132C4.067,174.612 53.387,223.932 113.868,223.932C174.563,223.932 223.883,174.612 223.883,114.132Z" style="fill:none;stroke:white;stroke-width:3.96px;"/>
        <path d="M83.915,84.541L63.395,84.541L67.067,63.445L67.067,63.157C67.067,62.293 66.491,61.717 65.699,61.717C65.411,61.717 65.123,61.717 65.123,62.005L18.611,94.477C18.035,94.765 17.747,95.341 17.747,95.917C17.747,96.493 18.035,97.069 18.611,97.357L65.123,129.829C65.123,130.116 65.411,130.116 65.699,130.116C66.491,130.116 67.067,129.54 67.067,128.676L67.067,128.389L63.395,107.292L83.915,107.292C94.139,107.292 102.419,115.572 102.419,125.868L102.419,204.492L125.244,204.492L125.244,125.868C125.244,115.572 133.523,107.292 143.748,107.292L164.268,107.292L160.596,128.389L160.596,128.676C160.596,129.54 161.171,130.116 162.036,130.116C162.251,130.116 162.54,130.116 162.54,129.829L209.051,97.357C209.627,97.069 209.916,96.493 209.916,95.917C209.916,95.341 209.627,94.765 209.051,94.477L162.54,62.005C162.54,61.717 162.251,61.717 162.036,61.717C161.171,61.717 160.596,62.293 160.596,63.157L160.596,63.445L164.268,84.541L143.748,84.541C132.372,84.541 121.788,89.077 113.868,97.357C106.164,89.077 95.291,84.541 83.915,84.541Z" style="fill:white;fill-rule:nonzero;"/>
        <path d="M83.915,84.541L63.395,84.541L67.067,63.445L67.067,63.157C67.067,62.293 66.491,61.717 65.699,61.717C65.411,61.717 65.123,61.717 65.123,62.005L18.611,94.477C18.035,94.765 17.747,95.341 17.747,95.917C17.747,96.493 18.035,97.069 18.611,97.357L65.123,129.829C65.123,130.116 65.411,130.116 65.699,130.116C66.491,130.116 67.067,129.54 67.067,128.676L67.067,128.389L63.395,107.292L83.915,107.292C94.139,107.292 102.419,115.572 102.419,125.868L102.419,204.492L125.244,204.492L125.244,125.868C125.244,115.572 133.523,107.292 143.748,107.292L164.268,107.292L160.596,128.389L160.596,128.676C160.596,129.54 161.171,130.116 162.036,130.116C162.251,130.116 162.54,130.116 162.54,129.829L209.051,97.357C209.627,97.069 209.916,96.493 209.916,95.917C209.916,95.341 209.627,94.765 209.051,94.477L162.54,62.005C162.54,61.717 162.251,61.717 162.036,61.717C161.171,61.717 160.596,62.293 160.596,63.157L160.596,63.445L164.268,84.541L143.748,84.541C132.372,84.541 121.788,89.077 113.868,97.357C106.164,89.077 95.291,84.541 83.915,84.541Z" style="fill:none;stroke:white;stroke-width:0.22px;"/>
    </g>
</svg>
