<?xml version="1.0" encoding="UTF-8" standalone="no"?>
<!DOCTYPE svg PUBLIC "-//W3C//DTD SVG 1.1//EN" "http://www.w3.org/Graphics/SVG/1.1/DTD/svg11.dtd">
<svg width="100%" height="100%" viewBox="0 0 171 171" version="1.1" xmlns="http://www.w3.org/2000/svg" xmlns:xlink="http://www.w3.org/1999/xlink" xml:space="preserve" xmlns:serif="http://www.serif.com/" style="fill-rule:evenodd;clip-rule:evenodd;stroke-linecap:round;stroke-linejoin:round;stroke-miterlimit:2;">
    <g>
        <rect x="0" y="0.936" width="170.064" height="170.064" style="fill:none;"/>
        <path d="M157.045,171L158.491,170.91L159.938,170.639L161.294,170.277L162.741,169.644L163.916,169.012L165.182,168.107L166.267,167.113L167.171,166.027L168.075,164.852L168.799,163.586L169.341,162.23L169.793,160.783L169.974,159.338L170.064,157.891L170.064,13.955L169.974,12.51L169.793,11.063L169.341,9.707L168.799,8.26L168.075,6.995L167.171,5.819L166.267,4.735L165.182,3.741L163.916,2.926L162.741,2.203L161.294,1.66L159.938,1.208L158.491,1.027L157.045,0.936L13.109,0.936L11.663,1.027L10.216,1.208L8.77,1.66L7.413,2.203L6.147,2.926L4.972,3.741L3.887,4.735L2.893,5.819L2.079,6.995L1.265,8.26L0.723,9.707L0.361,11.063L0.09,12.51L0,13.955L0,157.891L0.09,159.338L0.361,160.783L0.723,162.23L1.265,163.586L2.079,164.852L2.893,166.027L3.887,167.113L4.972,168.107L6.147,169.012L7.413,169.644L8.77,170.277L10.216,170.639L11.663,170.91L13.109,171L157.045,171Z" style="fill:white;fill-rule:nonzero;"/>
        <path d="M157.045,171L158.491,170.91L159.938,170.639L161.294,170.277L162.741,169.644L163.916,169.012L165.182,168.107L166.267,167.113L167.171,166.027L168.075,164.852L168.799,163.586L169.341,162.23L169.793,160.783L169.974,159.338L170.064,157.891L170.064,13.955L169.974,12.51L169.793,11.063L169.341,9.707L168.799,8.26L168.075,6.995L167.171,5.819L166.267,4.735L165.182,3.741L163.916,2.926L162.741,2.203L161.294,1.66L159.938,1.208L158.491,1.027L157.045,0.936L13.109,0.936L11.663,1.027L10.216,1.208L8.77,1.66L7.413,2.203L6.147,2.926L4.972,3.741L3.887,4.735L2.893,5.819L2.079,6.995L1.265,8.26L0.723,9.707L0.361,11.063L0.09,12.51L0,13.955L0,157.891L0.09,159.338L0.361,160.783L0.723,162.23L1.265,163.586L2.079,164.852L2.893,166.027L3.887,167.113L4.972,168.107L6.147,169.012L7.413,169.644L8.77,170.277L10.216,170.639L11.663,170.91L13.109,171L157.045,171Z" style="fill:none;"/>
        <path d="M157,164.445L157.994,164.355L158.989,164.174L159.893,163.812L160.796,163.18L161.611,162.547L162.244,161.732L162.786,160.92L163.147,159.924L163.418,158.93L163.509,157.936L163.509,14L163.418,13.006L163.147,12.012L162.786,11.018L162.244,10.204L161.611,9.391L160.796,8.666L159.893,8.215L158.989,7.762L157.994,7.582L157,7.491L13.064,7.491L11.979,7.582L10.984,7.762L10.08,8.215L9.176,8.666L8.453,9.391L7.729,10.204L7.277,11.018L6.825,12.012L6.554,13.006L6.554,158.93L6.825,159.924L7.277,160.92L7.729,161.732L8.453,162.547L9.176,163.18L10.08,163.812L10.984,164.174L11.979,164.355L13.064,164.445L157,164.445Z" style="fill:rgb(150,79,34);fill-rule:nonzero;"/>
        <path d="M157,164.445L157.994,164.355L158.989,164.174L159.893,163.812L160.796,163.18L161.611,162.547L162.244,161.732L162.786,160.92L163.147,159.924L163.418,158.93L163.509,157.936L163.509,14L163.418,13.006L163.147,12.012L162.786,11.018L162.244,10.204L161.611,9.391L160.796,8.666L159.893,8.215L158.989,7.762L157.994,7.582L157,7.491L13.064,7.491L11.979,7.582L10.984,7.762L10.08,8.215L9.176,8.666L8.453,9.391L7.729,10.204L7.277,11.018L6.825,12.012L6.554,13.006L6.554,158.93L6.825,159.924L7.277,160.92L7.729,161.732L8.453,162.547L9.176,163.18L10.08,163.812L10.984,164.174L11.979,164.355L13.064,164.445L157,164.445Z" style="fill:none;"/>
        <path d="M132.182,144.826L133.538,144.736L134.984,144.465L136.341,144.103L137.606,143.471L138.872,142.746L139.957,141.934L140.951,140.848L141.855,139.764L142.579,138.588L143.212,137.232L143.573,135.875L143.845,134.519L143.936,133.072L143.936,38.864L143.845,37.418L143.573,36.061L143.212,34.705L142.579,33.44L141.855,32.174L140.951,31.088L139.957,30.094L138.872,29.19L137.606,28.467L136.341,27.834L134.984,27.473L133.538,27.202L132.182,27.112L37.972,27.112L36.526,27.202L35.169,27.473L33.723,27.834L32.547,28.467L31.282,29.19L30.197,30.094L29.202,31.088L28.298,32.174L27.484,33.44L26.942,34.705L26.49,36.061L26.219,37.418L26.128,38.864L26.128,133.072L26.219,134.519L26.49,135.875L26.942,137.232L27.484,138.588L28.298,139.764L29.202,140.848L30.197,141.934L31.282,142.746L32.547,143.471L33.723,144.103L35.169,144.465L36.526,144.736L37.972,144.826L132.182,144.826Z" style="fill:white;fill-rule:nonzero;"/>
        <path d="M132.182,144.826L133.538,144.736L134.984,144.465L136.341,144.103L137.606,143.471L138.872,142.746L139.957,141.934L140.951,140.848L141.855,139.764L142.579,138.588L143.212,137.232L143.573,135.875L143.845,134.519L143.936,133.072L143.936,38.864L143.845,37.418L143.573,36.061L143.212,34.705L142.579,33.44L141.855,32.174L140.951,31.088L139.957,30.094L138.872,29.19L137.606,28.467L136.341,27.834L134.984,27.473L133.538,27.202L132.182,27.112L37.972,27.112L36.526,27.202L35.169,27.473L33.723,27.834L32.547,28.467L31.282,29.19L30.197,30.094L29.202,31.088L28.298,32.174L27.484,33.44L26.942,34.705L26.49,36.061L26.219,37.418L26.128,38.864L26.128,133.072L26.219,134.519L26.49,135.875L26.942,137.232L27.484,138.588L28.298,139.764L29.202,140.848L30.197,141.934L31.282,142.746L32.547,143.471L33.723,144.103L35.169,144.465L36.526,144.736L37.972,144.826L132.182,144.826Z" style="fill:none;"/>
        <path d="M96.102,60.923C98.978,65.5 100.86,70.627 101.627,75.979C102.238,80.243 99.94,84.398 96.002,86.148C92.064,87.899 87.445,86.823 84.686,83.51C87.893,77.097 88.196,69.612 85.521,62.957C82.843,56.304 77.44,51.116 70.685,48.708C64.25,46.418 57.087,48.943 53.516,54.763C51.87,57.447 49.59,59.688 46.879,61.286L47.003,61.474C54.606,56.392 64.731,57.355 71.241,63.775C66.375,61.552 60.803,61.453 55.861,63.497C50.918,65.542 47.049,69.551 45.178,74.562C44.567,76.195 43.738,77.744 42.714,79.15C41.878,80.303 40.646,81.106 39.254,81.404L39.257,81.436C42.611,81.006 45.791,79.704 48.482,77.658C54.764,72.878 63.717,74.022 68.594,80.229C63.003,76.422 55.52,77.004 50.585,81.627C45.647,86.251 44.576,93.679 48.008,99.506C49.091,96.474 50.918,93.761 53.322,91.617C55.119,90.011 57.562,89.34 59.926,89.802C62.29,90.26 64.303,91.797 65.368,93.956C63.932,92.514 61.842,91.932 59.868,92.429C57.894,92.923 56.324,94.417 55.736,96.368C54.71,99.772 56.145,103.433 59.209,105.236C61.114,106.355 62.813,107.797 64.23,109.49C63.173,106.334 63.823,102.853 65.949,100.29C66.211,99.971 66.65,99.858 67.035,100.006C67.42,100.153 67.669,100.533 67.653,100.943C67.554,103.458 68.441,105.907 70.124,107.775C72.287,110.172 75.016,111.99 78.06,113.056C83.918,115.111 87.605,120.906 86.981,127.081C86.966,127.241 86.861,127.376 86.713,127.429C86.564,127.482 86.397,127.446 86.284,127.337C85.063,126.158 83.358,125.618 81.68,125.877C80.001,126.14 78.543,127.173 77.737,128.668C79.173,127.593 81.102,127.439 82.689,128.277C84.278,129.115 85.242,130.789 85.169,132.581C85.151,133.011 84.869,133.384 84.46,133.522L77.925,135.691C77.489,135.837 77.112,136.121 76.856,136.505L76.508,137.026L76.508,137.232L76.974,137.232L91.184,136.509L109.339,137.232L109.783,137.232L109.783,136.725C107.014,135.06 103.967,133.905 100.789,133.319C98.538,132.904 96.698,131.285 96.002,129.108C93.801,122.213 97.032,114.749 103.569,111.639C109.627,108.759 115.173,104.913 119.999,100.251C127.732,92.785 128.99,80.847 122.985,71.927C119.598,66.903 115.667,62.262 111.268,58.097C109.865,56.772 109.663,54.614 110.788,53.044C111.996,51.372 113.565,49.997 115.387,49.028C113.458,48.162 111.296,47.953 109.24,48.435C110.192,46.546 111.878,45.129 113.906,44.522C110.558,44.316 107.198,44.7 103.981,45.648C102.149,40.602 98.296,36.547 93.35,34.459C90.456,33.242 87.106,34.247 85.359,36.853C83.614,39.462 83.963,42.946 86.193,45.154C86.587,45.544 86.795,46.084 86.761,46.642C86.726,47.196 86.454,47.71 86.014,48.048C84.771,49.007 84.233,50.622 84.654,52.135C85.073,53.644 86.367,54.748 87.926,54.929C88.231,54.965 88.502,55.143 88.652,55.409C88.805,55.675 88.821,55.998 88.697,56.279C88.38,56.993 88.524,57.824 89.061,58.388C89.597,58.953 90.42,59.137 91.148,58.86C92.927,58.178 94.94,58.896 95.882,60.554C95.953,60.678 96.023,60.802 96.102,60.923Z" style="fill:rgb(150,79,34);fill-rule:nonzero;"/>
        <path d="M96.102,60.923C98.978,65.5 100.86,70.627 101.627,75.979C102.238,80.243 99.94,84.398 96.002,86.148C92.064,87.899 87.445,86.823 84.686,83.51C87.893,77.097 88.196,69.612 85.521,62.957C82.843,56.304 77.44,51.116 70.685,48.708C64.25,46.418 57.087,48.943 53.516,54.763C51.87,57.447 49.59,59.688 46.879,61.286L47.003,61.474C54.606,56.392 64.731,57.355 71.241,63.775C66.375,61.552 60.803,61.453 55.861,63.497C50.918,65.542 47.049,69.551 45.178,74.562C44.567,76.195 43.738,77.744 42.714,79.15C41.878,80.303 40.646,81.106 39.254,81.404L39.257,81.436C42.611,81.006 45.791,79.704 48.482,77.658C54.764,72.878 63.717,74.022 68.594,80.229C63.003,76.422 55.52,77.004 50.585,81.627C45.647,86.251 44.576,93.679 48.008,99.506C49.091,96.474 50.918,93.761 53.322,91.617C55.119,90.011 57.562,89.34 59.926,89.802C62.29,90.26 64.303,91.797 65.368,93.956C63.932,92.514 61.842,91.932 59.868,92.429C57.894,92.923 56.324,94.417 55.736,96.368C54.71,99.772 56.145,103.433 59.209,105.236C61.114,106.355 62.813,107.797 64.23,109.49C63.173,106.334 63.823,102.853 65.949,100.29C66.211,99.971 66.65,99.858 67.035,100.006C67.42,100.153 67.669,100.533 67.653,100.943C67.554,103.458 68.441,105.907 70.124,107.775C72.287,110.172 75.016,111.99 78.06,113.056C83.918,115.111 87.605,120.906 86.981,127.081C86.966,127.241 86.861,127.376 86.713,127.429C86.564,127.482 86.397,127.446 86.284,127.337C85.063,126.158 83.358,125.618 81.68,125.877C80.001,126.14 78.543,127.173 77.737,128.668C79.173,127.593 81.102,127.439 82.689,128.277C84.278,129.115 85.242,130.789 85.169,132.581C85.151,133.011 84.869,133.384 84.46,133.522L77.925,135.691C77.489,135.837 77.112,136.121 76.856,136.505L76.508,137.026L76.508,137.232L76.974,137.232L91.184,136.509L109.339,137.232L109.783,137.232L109.783,136.725C107.014,135.06 103.967,133.905 100.789,133.319C98.538,132.904 96.698,131.285 96.002,129.108C93.801,122.213 97.032,114.749 103.569,111.639C109.627,108.759 115.173,104.913 119.999,100.251C127.732,92.785 128.99,80.847 122.985,71.927C119.598,66.903 115.667,62.262 111.268,58.097C109.865,56.772 109.663,54.614 110.788,53.044C111.996,51.372 113.565,49.997 115.387,49.028C113.458,48.162 111.296,47.953 109.24,48.435C110.192,46.546 111.878,45.129 113.906,44.522C110.558,44.316 107.198,44.7 103.981,45.648C102.149,40.602 98.296,36.547 93.35,34.459C90.456,33.242 87.106,34.247 85.359,36.853C83.614,39.462 83.963,42.946 86.193,45.154C86.587,45.544 86.795,46.084 86.761,46.642C86.726,47.196 86.454,47.71 86.014,48.048C84.771,49.007 84.233,50.622 84.654,52.135C85.073,53.644 86.367,54.748 87.926,54.929C88.231,54.965 88.502,55.143 88.652,55.409C88.805,55.675 88.821,55.998 88.697,56.279C88.38,56.993 88.524,57.824 89.061,58.388C89.597,58.953 90.42,59.137 91.148,58.86C92.927,58.178 94.94,58.896 95.882,60.554C95.953,60.678 96.023,60.802 96.102,60.923Z" style="fill:none;stroke:rgb(150,79,34);stroke-width:0.5px;"/>
    </g>
</svg>
