<?xml version="1.0" encoding="UTF-8" standalone="no"?>
<!DOCTYPE svg PUBLIC "-//W3C//DTD SVG 1.1//EN" "http://www.w3.org/Graphics/SVG/1.1/DTD/svg11.dtd">
<svg width="100%" height="100%" viewBox="0 0 596 596" version="1.1" xmlns="http://www.w3.org/2000/svg" xmlns:xlink="http://www.w3.org/1999/xlink" xml:space="preserve" xmlns:serif="http://www.serif.com/" style="fill-rule:evenodd;clip-rule:evenodd;stroke-linecap:round;stroke-linejoin:round;stroke-miterlimit:2;">
    <g>
        <path d="M594.922,23.376C594.922,17.462 592.572,11.791 588.392,7.61C584.21,3.429 578.539,1.079 572.626,1.079L22.65,1.079C10.336,1.079 0.354,11.062 0.354,23.376L0.354,573.35C0.354,579.264 2.703,584.935 6.884,589.116C11.065,593.298 16.736,595.646 22.65,595.646L572.626,595.646C578.539,595.646 584.21,593.298 588.392,589.116C592.572,584.935 594.922,579.264 594.922,573.35L594.922,23.376Z" style="fill:white;fill-rule:nonzero;"/>
        <path d="M594.922,23.376C594.922,17.462 592.572,11.791 588.392,7.61C584.21,3.429 578.539,1.079 572.626,1.079L22.65,1.079C10.336,1.079 0.354,11.062 0.354,23.376L0.354,573.35C0.354,579.264 2.703,584.935 6.884,589.116C11.065,593.298 16.736,595.646 22.65,595.646L572.626,595.646C578.539,595.646 584.21,593.298 588.392,589.116C592.572,584.935 594.922,579.264 594.922,573.35L594.922,23.376Z" style="fill:none;stroke:rgb(35,31,32);stroke-width:0.71px;"/>
        <path d="M583.03,23.376C583.03,17.629 578.372,12.971 572.626,12.971L22.65,12.971C19.89,12.971 17.244,14.067 15.293,16.018C13.341,17.97 12.245,20.617 12.245,23.376L12.245,573.35C12.245,579.097 16.903,583.755 22.65,583.755L572.626,583.755C575.385,583.755 578.031,582.659 579.983,580.708C581.934,578.756 583.03,576.11 583.03,573.35L583.03,23.376Z" style="fill:rgb(0,64,128);fill-rule:nonzero;"/>
        <path d="M583.03,23.376C583.03,17.629 578.372,12.971 572.626,12.971L22.65,12.971C19.89,12.971 17.244,14.067 15.293,16.018C13.341,17.97 12.245,20.617 12.245,23.376L12.245,573.35C12.245,579.097 16.903,583.755 22.65,583.755L572.626,583.755C575.385,583.755 578.031,582.659 579.983,580.708C581.934,578.756 583.03,576.11 583.03,573.35L583.03,23.376Z" style="fill:none;stroke:rgb(0,64,128);stroke-width:0.71px;"/>
        <path d="M563.335,526.462L297.638,66.26L31.94,526.462L563.335,526.462Z" style="fill:white;fill-rule:nonzero;"/>
        <path d="M563.335,526.462L297.638,66.26L31.94,526.462L563.335,526.462Z" style="fill:none;stroke:white;stroke-width:0.71px;"/>
        <path d="M64.786,509.602L122.274,405.551L170.703,405.551L132.275,509.6L64.786,509.602Z" style="fill:rgb(35,31,32);fill-rule:nonzero;"/>
        <path d="M64.786,509.602L122.274,405.551L170.703,405.551L132.275,509.6L64.786,509.602Z" style="fill:none;stroke:rgb(35,31,32);stroke-width:0.71px;"/>
        <path d="M268.61,469.373L265.86,509.6L196.742,509.6L220.321,405.549L246.464,405.551L212.499,463.011L256.867,489.237L268.61,469.373Z" style="fill:rgb(35,31,32);fill-rule:nonzero;"/>
        <path d="M268.61,469.373L265.86,509.6L196.742,509.6L220.321,405.549L246.464,405.551L212.499,463.011L256.867,489.237L268.61,469.373Z" style="fill:none;stroke:rgb(35,31,32);stroke-width:0.71px;"/>
        <path d="M374.955,405.549L398.534,509.6L329.415,509.6L327.916,487.664L372.393,475.706L353.53,405.551L374.955,405.549Z" style="fill:rgb(35,31,32);fill-rule:nonzero;"/>
        <path d="M374.955,405.549L398.534,509.6L329.415,509.6L327.916,487.664L372.393,475.706L353.53,405.551L374.955,405.549Z" style="fill:none;stroke:rgb(35,31,32);stroke-width:0.71px;"/>
        <path d="M463,509.6L530.488,509.6L473.001,405.551L424.572,405.551L463,509.6Z" style="fill:rgb(35,31,32);fill-rule:nonzero;"/>
        <path d="M463,509.6L530.488,509.6L473.001,405.551L424.572,405.551L463,509.6Z" style="fill:none;stroke:rgb(35,31,32);stroke-width:0.71px;"/>
        <path d="M325.712,307.668L325.712,335.167L361.867,469.641L328.686,478.561L296.899,360.338L296.899,404.635L253.843,477.472L224.265,459.987L263.455,393.689L263.455,272.473L253.949,287.91L253.949,346.705L232.474,346.705L232.474,281.829L266.962,225.816C270.304,220.39 274.984,215.914 280.554,212.819C290.326,207.388 302.548,209.372 310.1,217.617C320.142,228.58 325.712,242.909 325.712,257.776L325.712,274.93L369.733,327.402L353.259,341.013L325.712,307.668Z" style="fill:rgb(35,31,32);fill-rule:nonzero;"/>
        <path d="M325.712,307.668L325.712,335.167L361.867,469.641L328.686,478.561L296.899,360.338L296.899,404.635L253.843,477.472L224.265,459.987L263.455,393.689L263.455,272.473L253.949,287.91L253.949,346.705L232.474,346.705L232.474,281.829L266.962,225.816C270.304,220.39 274.984,215.914 280.554,212.819C290.326,207.388 302.548,209.372 310.1,217.617C320.142,228.58 325.712,242.909 325.712,257.776L325.712,274.93L369.733,327.402L353.259,341.013L325.712,307.668Z" style="fill:none;stroke:rgb(35,31,32);stroke-width:0.71px;"/>
        <path d="M323.408,176.575C323.408,162.343 311.87,150.805 297.638,150.805C283.406,150.805 271.868,162.343 271.868,176.575C271.868,190.808 283.406,202.345 297.638,202.345C311.87,202.345 323.408,190.808 323.408,176.575Z" style="fill:rgb(35,31,32);fill-rule:nonzero;"/>
        <path d="M323.408,176.575C323.408,162.343 311.87,150.805 297.638,150.805C283.406,150.805 271.868,162.343 271.868,176.575C271.868,190.808 283.406,202.345 297.638,202.345C311.87,202.345 323.408,190.808 323.408,176.575Z" style="fill:none;stroke:rgb(35,31,32);stroke-width:0.71px;"/>
    </g>
</svg>
