<?xml version="1.0" encoding="UTF-8" standalone="no"?>
<!DOCTYPE svg PUBLIC "-//W3C//DTD SVG 1.1//EN" "http://www.w3.org/Graphics/SVG/1.1/DTD/svg11.dtd">
<svg width="100%" height="100%" viewBox="0 0 596 596" version="1.1" xmlns="http://www.w3.org/2000/svg" xmlns:xlink="http://www.w3.org/1999/xlink" xml:space="preserve" xmlns:serif="http://www.serif.com/" style="fill-rule:evenodd;clip-rule:evenodd;stroke-linecap:round;stroke-linejoin:round;stroke-miterlimit:2;">
    <g>
        <path d="M59.81,595.647L535.465,595.647C551.234,595.647 566.356,589.382 577.507,578.232C588.657,567.081 594.922,551.958 594.922,536.19L594.922,60.536C594.922,44.767 588.657,29.644 577.507,18.494C566.356,7.344 551.234,1.079 535.465,1.079L59.81,1.079C44.042,1.079 28.918,7.344 17.768,18.494C6.618,29.644 0.354,44.767 0.354,60.536L0.354,536.19C0.354,551.958 6.618,567.081 17.768,578.232C28.918,589.382 44.042,595.647 59.81,595.647Z" style="fill:white;fill-rule:nonzero;"/>
        <path d="M59.81,595.647L535.465,595.647C551.234,595.647 566.356,589.382 577.507,578.232C588.657,567.081 594.922,551.958 594.922,536.19L594.922,60.536C594.922,44.767 588.657,29.644 577.507,18.494C566.356,7.344 551.234,1.079 535.465,1.079L59.81,1.079C44.042,1.079 28.918,7.344 17.768,18.494C6.618,29.644 0.354,44.767 0.354,60.536L0.354,536.19C0.354,551.958 6.618,567.081 17.768,578.232C28.918,589.382 44.042,595.647 59.81,595.647Z" style="fill:none;stroke:rgb(35,31,32);stroke-width:1px;"/>
        <path d="M506.91,402.02C506.91,321.008 441.236,255.334 360.224,255.334C279.21,255.334 213.537,321.008 213.537,402.02C213.537,483.034 279.21,548.706 360.224,548.706C441.236,548.706 506.91,483.034 506.91,402.02Z" style="fill:rgb(35,31,32);fill-rule:nonzero;"/>
        <path d="M506.91,402.02C506.91,321.008 441.236,255.334 360.224,255.334C279.21,255.334 213.537,321.008 213.537,402.02C213.537,483.034 279.21,548.706 360.224,548.706C441.236,548.706 506.91,483.034 506.91,402.02Z" style="fill:none;stroke:rgb(35,31,32);stroke-width:0.71px;"/>
        <path d="M275.041,261.54C247.85,278.028 226.029,302.052 212.224,330.698L212.224,284.003C212.224,277.716 215.475,271.874 220.818,268.56C226.161,265.246 232.838,264.93 238.471,267.724L245.173,251.294C234.123,246.786 221.495,248.655 212.224,256.168L212.224,251.294L194.052,251.294L194.052,337.827L208.995,337.827C202.458,353.227 198.312,369.536 196.699,386.188C150.919,400.893 100.829,385.405 71.338,347.425C41.848,309.446 39.25,257.081 64.837,216.37C90.424,175.659 138.736,155.289 185.747,165.392C232.758,175.494 268.437,213.912 275.041,261.54Z" style="fill:rgb(35,31,32);fill-rule:nonzero;"/>
        <path d="M275.041,261.54C247.85,278.028 226.029,302.052 212.224,330.698L212.224,284.003C212.224,277.716 215.475,271.874 220.818,268.56C226.161,265.246 232.838,264.93 238.471,267.724L245.173,251.294C234.123,246.786 221.495,248.655 212.224,256.168L212.224,251.294L194.052,251.294L194.052,337.827L208.995,337.827C202.458,353.227 198.312,369.536 196.699,386.188C150.919,400.893 100.829,385.405 71.338,347.425C41.848,309.446 39.25,257.081 64.837,216.37C90.424,175.659 138.736,155.289 185.747,165.392C232.758,175.494 268.437,213.912 275.041,261.54Z" style="fill:none;stroke:rgb(35,31,32);stroke-width:0.71px;"/>
        <path d="M532.394,141.898C532.394,90.05 490.362,48.019 438.514,48.019C386.667,48.019 344.635,90.05 344.635,141.898C344.635,193.746 386.667,235.777 438.514,235.777C490.362,235.777 532.394,193.746 532.394,141.898Z" style="fill:rgb(35,31,32);fill-rule:nonzero;"/>
        <path d="M532.394,141.898C532.394,90.05 490.362,48.019 438.514,48.019C386.667,48.019 344.635,90.05 344.635,141.898C344.635,193.746 386.667,235.777 438.514,235.777C490.362,235.777 532.394,193.746 532.394,141.898Z" style="fill:none;stroke:rgb(35,31,32);stroke-width:0.71px;"/>
        <path d="M158.171,337.827L126.99,285.646L114.321,301.483L114.321,337.827L93.726,337.827L93.726,216.681L114.321,216.681L114.321,268.515L155.788,216.681L182.163,216.681L140.724,268.479L182.163,337.827L158.171,337.827Z" style="fill:white;fill-rule:nonzero;"/>
        <path d="M158.171,337.827L126.99,285.646L114.321,301.483L114.321,337.827L93.726,337.827L93.726,216.681L114.321,216.681L114.321,268.515L155.788,216.681L182.163,216.681L140.724,268.479L182.163,337.827L158.171,337.827Z" style="fill:none;stroke:white;stroke-width:0.71px;"/>
        <path d="M435.611,191.599L410.027,148.784L399.632,161.779L399.632,191.599L382.733,191.599L382.733,92.198L399.632,92.198L399.632,134.728L433.656,92.198L455.297,92.198L421.295,134.699L455.297,191.599L435.611,191.599Z" style="fill:white;fill-rule:nonzero;"/>
        <path d="M435.611,191.599L410.027,148.784L399.632,161.779L399.632,191.599L382.733,191.599L382.733,92.198L399.632,92.198L399.632,134.728L433.656,92.198L455.297,92.198L421.295,134.699L455.297,191.599L435.611,191.599Z" style="fill:none;stroke:white;stroke-width:0.71px;"/>
        <path d="M506.998,120.598L501.499,134.079C496.876,131.787 491.398,132.046 487.014,134.765C482.63,137.485 479.963,142.277 479.963,147.436L479.963,191.599L465.052,191.599L465.052,120.598L479.963,120.598L479.963,124.598C487.57,118.432 497.931,116.899 506.998,120.598Z" style="fill:white;fill-rule:nonzero;"/>
        <path d="M506.998,120.598L501.499,134.079C496.876,131.787 491.398,132.046 487.014,134.765C482.63,137.485 479.963,142.277 479.963,147.436L479.963,191.599L465.052,191.599L465.052,120.598L479.963,120.598L479.963,124.598C487.57,118.432 497.931,116.899 506.998,120.598Z" style="fill:none;stroke:white;stroke-width:0.71px;"/>
        <path d="M355.687,479.678L315.712,412.78L299.469,433.083L299.469,479.678L273.065,479.678L273.065,324.363L299.469,324.363L299.469,390.817L352.633,324.363L386.445,324.363L333.319,390.771L386.445,479.678L355.687,479.678Z" style="fill:white;fill-rule:nonzero;"/>
        <path d="M355.687,479.678L315.712,412.78L299.469,433.083L299.469,479.678L273.065,479.678L273.065,324.363L299.469,324.363L299.469,390.817L352.633,324.363L386.445,324.363L333.319,390.771L386.445,479.678L355.687,479.678Z" style="fill:none;stroke:white;stroke-width:0.71px;"/>
        <path d="M467.228,368.739L458.636,389.803C451.414,386.221 442.854,386.626 436.003,390.875C429.153,395.124 424.985,402.613 424.985,410.674L424.985,479.678L401.688,479.678L401.688,368.739L424.985,368.739L424.985,374.988C436.872,365.355 453.062,362.96 467.228,368.739Z" style="fill:white;fill-rule:nonzero;"/>
        <path d="M467.228,368.739L458.636,389.803C451.414,386.221 442.854,386.626 436.003,390.875C429.153,395.124 424.985,402.613 424.985,410.674L424.985,479.678L401.688,479.678L401.688,368.739L424.985,368.739L424.985,374.988C436.872,365.355 453.062,362.96 467.228,368.739Z" style="fill:none;stroke:white;stroke-width:0.71px;"/>
    </g>
</svg>
