<?xml version="1.0" encoding="UTF-8" standalone="no"?>
<!DOCTYPE svg PUBLIC "-//W3C//DTD SVG 1.1//EN" "http://www.w3.org/Graphics/SVG/1.1/DTD/svg11.dtd">
<svg width="100%" height="100%" viewBox="0 0 256 256" version="1.1" xmlns="http://www.w3.org/2000/svg" xmlns:xlink="http://www.w3.org/1999/xlink" xml:space="preserve" xmlns:serif="http://www.serif.com/" style="fill-rule:evenodd;clip-rule:evenodd;stroke-miterlimit:2;">
    <g>
        <path d="M74.987,255.893L0.107,181.013L0.107,75.676L74.987,0.797L180.323,0.797L255.203,75.676L255.203,181.013L180.323,255.893L74.987,255.893Z" style="fill:white;fill-rule:nonzero;"/>
        <path d="M74.987,255.893L0.107,181.013L0.107,75.676L74.987,0.797L180.323,0.797L255.203,75.676L255.203,181.013L180.323,255.893L74.987,255.893Z" style="fill:none;stroke:rgb(211,63,39);stroke-width:0.22px;"/>
        <path d="M79.451,244.517L11.483,176.548L11.483,80.141L79.451,12.173L175.859,12.173L243.827,80.141L243.827,176.548L175.859,244.517L79.451,244.517Z" style="fill:rgb(211,63,39);fill-rule:nonzero;"/>
        <path d="M79.451,244.517L11.483,176.548L11.483,80.141L79.451,12.173L175.859,12.173L243.827,80.141L243.827,176.548L175.859,244.517L79.451,244.517Z" style="fill:none;stroke:rgb(211,63,39);stroke-width:0.22px;"/>
        <path d="M188.315,86.693L207.611,86.693C209.557,86.981 211.859,87.556 213.803,88.349C217.26,89.789 220.355,92.597 222.371,96.053C223.739,99.149 224.315,102.245 224.315,105.7L224.315,116.141C224.315,119.597 223.739,122.692 222.371,125.789C220.355,129.172 217.26,132.053 213.803,133.493C211.859,134.285 209.557,134.86 207.611,135.148L200.195,135.148L200.195,171.436L188.315,171.436L188.315,86.693Z" style="fill:white;fill-rule:nonzero;"/>
        <path d="M188.315,86.693L207.611,86.693C209.557,86.981 211.859,87.556 213.803,88.349C217.26,89.789 220.355,92.597 222.371,96.053C223.739,99.149 224.315,102.245 224.315,105.7L224.315,116.141C224.315,119.597 223.739,122.692 222.371,125.789C220.355,129.172 217.26,132.053 213.803,133.493C211.859,134.285 209.557,134.86 207.611,135.148L200.195,135.148L200.195,171.436L188.315,171.436L188.315,86.693Z" style="fill:none;stroke:white;stroke-width:0.22px;"/>
        <path d="M200.195,123.197L200.195,98.573L207.323,98.573C210.132,99.149 212.436,101.38 212.436,104.548L212.436,117.293C212.436,120.389 210.132,122.692 207.323,123.197L200.195,123.197Z" style="fill:rgb(211,63,39);fill-rule:nonzero;"/>
        <path d="M200.195,123.197L200.195,98.573L207.323,98.573C210.132,99.149 212.436,101.38 212.436,104.548L212.436,117.293C212.436,120.389 210.132,122.692 207.323,123.197L200.195,123.197Z" style="fill:none;stroke:rgb(211,63,39);stroke-width:0.22px;"/>
        <path d="M68.147,160.637C69.011,158.692 69.587,156.675 69.587,154.661L69.587,141.7C69.587,138.532 69.011,135.724 67.571,133.132C65.843,129.172 62.459,126.077 58.499,124.349C56.195,123.556 53.675,122.909 51.155,122.692C47.699,122.692 44.891,120.101 44.891,116.716L44.891,103.397C45.179,100.805 47.195,98.573 49.715,97.997C52.235,97.133 54.755,97.997 56.484,100.013C57.347,100.805 57.923,102.245 57.923,103.397L57.923,111.028L69.803,111.028L69.803,102.245C69.587,100.589 69.011,98.861 68.147,97.421C66.419,93.748 63.611,90.652 60.443,88.349C58.211,87.197 55.691,86.405 53.099,86.117L51.731,86.117C49.139,86.117 46.547,86.693 44.315,87.197C40.355,88.925 37.259,92.093 35.243,96.053C34.091,97.781 33.587,100.013 33.3,102.245L33.3,118.444C33.587,123.197 36.107,127.517 39.779,130.325C43.235,132.845 47.484,134.573 51.731,134.573C52.523,134.86 53.099,134.86 53.675,135.148C55.691,136.013 57.131,137.741 57.635,139.973L57.635,154.444C57.347,155.884 56.771,157.252 55.403,158.405C53.675,159.845 51.155,160.061 48.851,159.556C46.331,158.405 44.603,155.884 44.603,153.004L44.603,146.453L32.939,146.453L32.939,153.293C33.3,156.388 34.091,159.269 35.532,162.077C38.051,166.325 42.083,169.493 46.547,170.86C48.276,171.148 49.715,171.436 51.443,171.436L53.099,171.436C55.979,171.436 58.787,170.285 61.379,168.556C64.403,166.9 66.707,164.092 68.147,160.637Z" style="fill:white;fill-rule:nonzero;"/>
        <path d="M68.147,160.637C69.011,158.692 69.587,156.675 69.587,154.661L69.587,141.7C69.587,138.532 69.011,135.724 67.571,133.132C65.843,129.172 62.459,126.077 58.499,124.349C56.195,123.556 53.675,122.909 51.155,122.692C47.699,122.692 44.891,120.101 44.891,116.716L44.891,103.397C45.179,100.805 47.195,98.573 49.715,97.997C52.235,97.133 54.755,97.997 56.484,100.013C57.347,100.805 57.923,102.245 57.923,103.397L57.923,111.028L69.803,111.028L69.803,102.245C69.587,100.589 69.011,98.861 68.147,97.421C66.419,93.748 63.611,90.652 60.443,88.349C58.211,87.197 55.691,86.405 53.099,86.117L51.731,86.117C49.139,86.117 46.547,86.693 44.315,87.197C40.355,88.925 37.259,92.093 35.243,96.053C34.091,97.781 33.587,100.013 33.3,102.245L33.3,118.444C33.587,123.197 36.107,127.517 39.779,130.325C43.235,132.845 47.484,134.573 51.731,134.573C52.523,134.86 53.099,134.86 53.675,135.148C55.691,136.013 57.131,137.741 57.635,139.973L57.635,154.444C57.347,155.884 56.771,157.252 55.403,158.405C53.675,159.845 51.155,160.061 48.851,159.556C46.331,158.405 44.603,155.884 44.603,153.004L44.603,146.453L32.939,146.453L32.939,153.293C33.3,156.388 34.091,159.269 35.532,162.077C38.051,166.325 42.083,169.493 46.547,170.86C48.276,171.148 49.715,171.436 51.443,171.436L53.099,171.436C55.979,171.436 58.787,170.285 61.379,168.556C64.403,166.9 66.707,164.092 68.147,160.637Z" style="fill:none;stroke:white;stroke-width:0.22px;"/>
        <path d="M95.075,97.997L82.907,97.997L82.907,86.117L119.699,86.117L119.699,97.997L107.531,97.997L107.531,171.436L95.075,171.436L95.075,97.997Z" style="fill:white;fill-rule:nonzero;"/>
        <path d="M95.075,97.997L82.907,97.997L82.907,86.117L119.699,86.117L119.699,97.997L107.531,97.997L107.531,171.436L95.075,171.436L95.075,97.997Z" style="fill:none;stroke:white;stroke-width:0.22px;"/>
        <path d="M169.308,152.429L169.308,106.493C169.308,100.589 166.788,94.901 162.827,90.941C160.523,88.925 158.003,87.845 155.124,87.269C153.755,86.981 152.604,86.693 151.451,86.693L150.299,86.693C149.219,86.693 147.779,86.981 146.628,87.269C143.819,87.845 141.228,88.925 138.996,90.941C134.748,94.901 132.443,100.589 132.443,106.493L132.443,152.429C132.443,158.117 134.748,163.805 138.996,167.765C141.228,169.709 143.819,171.148 146.628,171.724C147.779,171.724 149.219,172.013 150.299,172.013L151.451,172.013C152.604,172.013 153.755,171.724 155.124,171.724C158.003,171.148 160.523,169.709 162.827,167.765C166.788,163.805 169.308,158.117 169.308,152.429Z" style="fill:white;fill-rule:nonzero;"/>
        <path d="M169.308,152.429L169.308,106.493C169.308,100.589 166.788,94.901 162.827,90.941C160.523,88.925 158.003,87.845 155.124,87.269C153.755,86.981 152.604,86.693 151.451,86.693L150.299,86.693C149.219,86.693 147.779,86.981 146.628,87.269C143.819,87.845 141.228,88.925 138.996,90.941C134.748,94.901 132.443,100.589 132.443,106.493L132.443,152.429C132.443,158.117 134.748,163.805 138.996,167.765C141.228,169.709 143.819,171.148 146.628,171.724C147.779,171.724 149.219,172.013 150.299,172.013L151.451,172.013C152.604,172.013 153.755,171.724 155.124,171.724C158.003,171.148 160.523,169.709 162.827,167.765C166.788,163.805 169.308,158.117 169.308,152.429Z" style="fill:none;stroke:white;stroke-width:0.22px;"/>
        <path d="M157.141,154.949L157.141,103.685C156.563,100.805 153.971,98.573 150.947,98.573C147.779,98.573 145.259,100.805 144.684,103.973L144.684,154.661C145.259,157.829 147.779,160.061 150.947,160.061C153.971,160.061 156.563,158.117 157.141,154.949Z" style="fill:rgb(211,63,39);fill-rule:nonzero;"/>
        <path d="M157.141,154.949L157.141,103.685C156.563,100.805 153.971,98.573 150.947,98.573C147.779,98.573 145.259,100.805 144.684,103.973L144.684,154.661C145.259,157.829 147.779,160.061 150.947,160.061C153.971,160.061 156.563,158.117 157.141,154.949Z" style="fill:none;stroke:rgb(211,63,39);stroke-width:0.22px;"/>
    </g>
</svg>
