<?xml version="1.0" encoding="UTF-8" standalone="no"?>
<!DOCTYPE svg PUBLIC "-//W3C//DTD SVG 1.1//EN" "http://www.w3.org/Graphics/SVG/1.1/DTD/svg11.dtd">
<svg width="100%" height="100%" viewBox="0 0 596 596" version="1.1" xmlns="http://www.w3.org/2000/svg" xmlns:xlink="http://www.w3.org/1999/xlink" xml:space="preserve" xmlns:serif="http://www.serif.com/" style="fill-rule:evenodd;clip-rule:evenodd;stroke-linecap:round;stroke-linejoin:round;stroke-miterlimit:2;">
    <g>
        <path d="M59.81,595.647L535.465,595.647C551.234,595.647 566.356,589.382 577.507,578.232C588.657,567.081 594.922,551.958 594.922,536.19L594.922,60.536C594.922,44.767 588.657,29.644 577.507,18.494C566.356,7.344 551.234,1.079 535.465,1.079L59.81,1.079C44.042,1.079 28.918,7.344 17.768,18.494C6.618,29.644 0.354,44.767 0.354,60.536L0.354,536.19C0.354,551.958 6.618,567.081 17.768,578.232C28.918,589.382 44.042,595.647 59.81,595.647Z" style="fill:white;fill-rule:nonzero;"/>
        <path d="M59.81,595.647L535.465,595.647C551.234,595.647 566.356,589.382 577.507,578.232C588.657,567.081 594.922,551.958 594.922,536.19L594.922,60.536C594.922,44.767 588.657,29.644 577.507,18.494C566.356,7.344 551.234,1.079 535.465,1.079L59.81,1.079C44.042,1.079 28.918,7.344 17.768,18.494C6.618,29.644 0.354,44.767 0.354,60.536L0.354,536.19C0.354,551.958 6.618,567.081 17.768,578.232C28.918,589.382 44.042,595.647 59.81,595.647Z" style="fill:none;stroke:rgb(35,31,32);stroke-width:1px;"/>
        <path d="M366.091,48.019L424.766,48.019C424.766,80.698 437.747,112.038 460.854,135.146C483.962,158.254 515.304,171.235 547.982,171.235L547.982,229.91C499.742,229.91 453.477,210.746 419.366,176.635C385.254,142.524 366.091,96.26 366.091,48.019Z" style="fill:rgb(35,31,32);fill-rule:nonzero;"/>
        <path d="M366.091,48.019L424.766,48.019C424.766,80.698 437.747,112.038 460.854,135.146C483.962,158.254 515.304,171.235 547.982,171.235L547.982,229.91C499.742,229.91 453.477,210.746 419.366,176.635C385.254,142.524 366.091,96.26 366.091,48.019Z" style="fill:none;stroke:rgb(35,31,32);stroke-width:0.71px;"/>
        <path d="M263.411,48.019L322.085,48.019C322.085,107.931 345.885,165.388 388.249,207.752C430.612,250.116 488.07,273.916 547.982,273.916L547.982,332.59C472.509,332.59 400.127,302.61 346.759,249.241C293.392,195.873 263.411,123.492 263.411,48.019Z" style="fill:rgb(35,31,32);fill-rule:nonzero;"/>
        <path d="M263.411,48.019L322.085,48.019C322.085,107.931 345.885,165.388 388.249,207.752C430.612,250.116 488.07,273.916 547.982,273.916L547.982,332.59C472.509,332.59 400.127,302.61 346.759,249.241C293.392,195.873 263.411,123.492 263.411,48.019Z" style="fill:none;stroke:rgb(35,31,32);stroke-width:0.71px;"/>
        <path d="M160.73,48.019L219.404,48.019C219.404,135.163 254.022,218.738 315.643,280.358C377.263,341.979 460.838,376.596 547.982,376.596L547.982,435.271C445.276,435.271 346.777,394.471 274.153,321.847C201.53,249.224 160.73,150.724 160.73,48.019Z" style="fill:rgb(35,31,32);fill-rule:nonzero;"/>
        <path d="M160.73,48.019L219.404,48.019C219.404,135.163 254.022,218.738 315.643,280.358C377.263,341.979 460.838,376.596 547.982,376.596L547.982,435.271C445.276,435.271 346.777,394.471 274.153,321.847C201.53,249.224 160.73,150.724 160.73,48.019Z" style="fill:none;stroke:rgb(35,31,32);stroke-width:0.71px;"/>
    </g>
</svg>
