<?xml version="1.0" encoding="UTF-8" standalone="no"?>
<!DOCTYPE svg PUBLIC "-//W3C//DTD SVG 1.1//EN" "http://www.w3.org/Graphics/SVG/1.1/DTD/svg11.dtd">
<svg width="100%" height="100%" viewBox="0 0 285 287" version="1.1" xmlns="http://www.w3.org/2000/svg" xmlns:xlink="http://www.w3.org/1999/xlink" xml:space="preserve" xmlns:serif="http://www.serif.com/" style="fill-rule:evenodd;clip-rule:evenodd;stroke-miterlimit:2;">
    <g>
        <path d="M14.507,3.789L269.819,3.789C276.227,3.789 281.267,8.901 281.267,15.237L281.267,272.565C281.267,278.972 276.227,284.012 269.891,284.012L14.507,284.012C8.027,284.085 2.987,278.972 2.987,272.565L2.987,15.237C2.987,8.829 8.027,3.717 14.507,3.789Z" style="fill:rgb(35,31,32);fill-rule:nonzero;"/>
        <path d="M14.507,3.789L269.819,3.789C276.227,3.789 281.267,8.901 281.267,15.237L281.267,272.565C281.267,278.972 276.227,284.012 269.891,284.012L14.507,284.012C8.027,284.085 2.987,278.972 2.987,272.565L2.987,15.237C2.987,8.829 8.027,3.717 14.507,3.789Z" style="fill:none;stroke:rgb(35,31,32);stroke-width:0.22px;"/>
        <path d="M14.507,9.477L269.819,9.477C273.059,9.477 275.579,11.997 275.579,15.237L275.579,272.565C275.579,275.804 273.059,278.323 269.891,278.323L14.507,278.323C11.195,278.323 8.675,275.804 8.675,272.565L8.675,15.237C8.675,11.997 11.195,9.477 14.507,9.477Z" style="fill:white;fill-rule:nonzero;"/>
        <path d="M14.507,9.477L269.819,9.477C273.059,9.477 275.579,11.997 275.579,15.237L275.579,272.565C275.579,275.804 273.059,278.323 269.891,278.323L14.507,278.323C11.195,278.323 8.675,275.804 8.675,272.565L8.675,15.237C8.675,11.997 11.195,9.477 14.507,9.477Z" style="fill:none;stroke:rgb(35,31,32);stroke-width:0.22px;"/>
        <path d="M43.019,263.133L43.019,63.909L24.011,82.845L24.011,58.149L52.595,29.565L81.107,58.149L81.107,82.845L62.099,63.909L62.099,263.133L43.019,263.133Z" style="fill:rgb(35,31,32);fill-rule:nonzero;"/>
        <path d="M43.019,263.133L43.019,63.909L24.011,82.845L24.011,58.149L52.595,29.565L81.107,58.149L81.107,82.845L62.099,63.909L62.099,263.133L43.019,263.133Z" style="fill:none;stroke:rgb(35,31,32);stroke-width:0.22px;"/>
        <path d="M113.579,263.133L113.579,63.909L94.499,82.845L94.499,58.149L123.155,29.565L151.667,58.149L151.667,82.845L132.588,63.909L132.588,263.133L113.579,263.133Z" style="fill:rgb(35,31,32);fill-rule:nonzero;"/>
        <path d="M113.579,263.133L113.579,63.909L94.499,82.845L94.499,58.149L123.155,29.565L151.667,58.149L151.667,82.845L132.588,63.909L132.588,263.133L113.579,263.133Z" style="fill:none;stroke:rgb(35,31,32);stroke-width:0.22px;"/>
        <path d="M193.715,29.565L222.227,58.149L222.227,82.845L203.147,63.909L203.147,117.981C203.147,130.149 207.971,141.813 216.539,150.381L261.323,195.093L247.787,208.629L203.075,163.844C190.835,151.676 184.139,135.116 184.139,117.908L184.139,63.909L165.059,82.845L165.059,58.149L193.715,29.565Z" style="fill:rgb(35,31,32);fill-rule:nonzero;"/>
        <path d="M193.715,29.565L222.227,58.149L222.227,82.845L203.147,63.909L203.147,117.981C203.147,130.149 207.971,141.813 216.539,150.381L261.323,195.093L247.787,208.629L203.075,163.844C190.835,151.676 184.139,135.116 184.139,117.908L184.139,63.909L165.059,82.845L165.059,58.149L193.715,29.565Z" style="fill:none;stroke:rgb(35,31,32);stroke-width:0.22px;"/>
    </g>
</svg>
