<?xml version="1.0" encoding="UTF-8" standalone="no"?>
<!DOCTYPE svg PUBLIC "-//W3C//DTD SVG 1.1//EN" "http://www.w3.org/Graphics/SVG/1.1/DTD/svg11.dtd">
<svg width="100%" height="100%" viewBox="0 0 596 596" version="1.1" xmlns="http://www.w3.org/2000/svg" xmlns:xlink="http://www.w3.org/1999/xlink" xml:space="preserve" xmlns:serif="http://www.serif.com/" style="fill-rule:evenodd;clip-rule:evenodd;stroke-linecap:round;stroke-linejoin:round;stroke-miterlimit:2;">
    <g>
        <path d="M59.81,595.647L535.465,595.647C551.234,595.647 566.356,589.382 577.507,578.232C588.657,567.081 594.922,551.958 594.922,536.19L594.922,60.536C594.922,44.767 588.657,29.644 577.507,18.494C566.356,7.344 551.234,1.079 535.465,1.079L59.81,1.079C44.042,1.079 28.918,7.344 17.768,18.494C6.618,29.644 0.354,44.767 0.354,60.536L0.354,536.19C0.354,551.958 6.618,567.081 17.768,578.232C28.918,589.382 44.042,595.647 59.81,595.647Z" style="fill:white;fill-rule:nonzero;"/>
        <path d="M59.81,595.647L535.465,595.647C551.234,595.647 566.356,589.382 577.507,578.232C588.657,567.081 594.922,551.958 594.922,536.19L594.922,60.536C594.922,44.767 588.657,29.644 577.507,18.494C566.356,7.344 551.234,1.079 535.465,1.079L59.81,1.079C44.042,1.079 28.918,7.344 17.768,18.494C6.618,29.644 0.354,44.767 0.354,60.536L0.354,536.19C0.354,551.958 6.618,567.081 17.768,578.232C28.918,589.382 44.042,595.647 59.81,595.647Z" style="fill:none;stroke:rgb(35,31,32);stroke-width:1px;"/>
        <path d="M53.161,445.049L542.114,445.049C544.448,445.049 546.687,444.122 548.338,442.471C549.988,440.821 550.915,438.582 550.915,436.248L550.915,160.478C550.915,158.143 549.988,155.905 548.338,154.254C546.687,152.604 544.448,151.676 542.114,151.676L53.161,151.676C50.827,151.676 48.588,152.604 46.938,154.254C45.287,155.905 44.359,158.143 44.359,160.478L44.359,436.248C44.359,438.582 45.287,440.821 46.938,442.471C48.588,444.122 50.827,445.049 53.161,445.049Z" style="fill:rgb(35,31,32);fill-rule:nonzero;"/>
        <path d="M53.161,445.049L542.114,445.049C544.448,445.049 546.687,444.122 548.338,442.471C549.988,440.821 550.915,438.582 550.915,436.248L550.915,160.478C550.915,158.143 549.988,155.905 548.338,154.254C546.687,152.604 544.448,151.676 542.114,151.676L53.161,151.676C50.827,151.676 48.588,152.604 46.938,154.254C45.287,155.905 44.359,158.143 44.359,160.478L44.359,436.248C44.359,438.582 45.287,440.821 46.938,442.471C48.588,444.122 50.827,445.049 53.161,445.049Z" style="fill:none;stroke:rgb(35,31,32);stroke-width:0.71px;"/>
        <path d="M219.544,424.513C201.845,421.16 184.38,416.669 167.259,411.072C131.56,399.399 99.881,377.887 75.867,349.008C71.473,343.723 67.785,337.889 64.896,331.651L64.896,424.513L219.544,424.513Z" style="fill:white;fill-rule:nonzero;"/>
        <path d="M219.544,424.513C201.845,421.16 184.38,416.669 167.259,411.072C131.56,399.399 99.881,377.887 75.867,349.008C71.473,343.723 67.785,337.889 64.896,331.651L64.896,424.513L219.544,424.513Z" style="fill:none;stroke:white;stroke-width:0.71px;"/>
        <path d="M530.379,331.678C527.492,337.907 523.807,343.733 519.418,349.012C495.408,377.882 463.738,399.389 428.05,411.061C410.917,416.664 393.441,421.158 375.731,424.513L530.379,424.513L530.379,331.678Z" style="fill:white;fill-rule:nonzero;"/>
        <path d="M530.379,331.678C527.492,337.907 523.807,343.733 519.418,349.012C495.408,377.882 463.738,399.389 428.05,411.061C410.917,416.664 393.441,421.158 375.731,424.513L530.379,424.513L530.379,331.678Z" style="fill:none;stroke:white;stroke-width:0.71px;"/>
        <path d="M375.694,172.212C393.422,175.57 410.916,180.067 428.065,185.677C463.744,197.348 495.405,218.848 519.412,247.707C523.804,252.987 527.491,258.816 530.379,265.048L530.379,172.212L375.694,172.212Z" style="fill:white;fill-rule:nonzero;"/>
        <path d="M375.694,172.212C393.422,175.57 410.916,180.067 428.065,185.677C463.744,197.348 495.405,218.848 519.412,247.707C523.804,252.987 527.491,258.816 530.379,265.048L530.379,172.212L375.694,172.212Z" style="fill:none;stroke:white;stroke-width:0.71px;"/>
        <path d="M423.505,199.619C341.736,172.871 253.573,172.868 171.803,199.608C138.738,210.421 109.396,230.345 87.15,257.091C67.258,281.008 67.256,315.711 87.146,339.629C109.395,366.385 138.744,386.315 171.817,397.129C253.579,423.864 341.73,423.86 423.49,397.119C456.554,386.305 485.896,366.379 508.139,339.632C528.032,315.713 528.03,281.006 508.135,257.088C485.895,230.35 456.56,210.431 423.505,199.619Z" style="fill:white;fill-rule:nonzero;"/>
        <path d="M423.505,199.619C341.736,172.871 253.573,172.868 171.803,199.608C138.738,210.421 109.396,230.345 87.15,257.091C67.258,281.008 67.256,315.711 87.146,339.629C109.395,366.385 138.744,386.315 171.817,397.129C253.579,423.864 341.73,423.86 423.49,397.119C456.554,386.305 485.896,366.379 508.139,339.632C528.032,315.713 528.03,281.006 508.135,257.088C485.895,230.35 456.56,210.431 423.505,199.619Z" style="fill:none;stroke:white;stroke-width:0.71px;"/>
        <path d="M64.896,265.075L64.896,172.212L219.582,172.212C201.865,175.568 184.382,180.061 167.243,185.666C131.554,197.337 99.883,218.843 75.873,247.711C71.476,252.998 67.786,258.835 64.896,265.075Z" style="fill:white;fill-rule:nonzero;"/>
        <path d="M64.896,265.075L64.896,172.212L219.582,172.212C201.865,175.568 184.382,180.061 167.243,185.666C131.554,197.337 99.883,218.843 75.873,247.711C71.476,252.998 67.786,258.835 64.896,265.075Z" style="fill:none;stroke:white;stroke-width:0.71px;"/>
        <path d="M283.787,376.103L243.768,309.131L227.507,329.457L227.507,376.103L201.074,376.103L201.074,220.616L227.507,220.616L227.507,287.144L280.729,220.616L314.579,220.616L261.394,287.098L314.579,376.103L283.787,376.103Z" style="fill:rgb(35,31,32);fill-rule:nonzero;"/>
        <path d="M283.787,376.103L243.768,309.131L227.507,329.457L227.507,376.103L201.074,376.103L201.074,220.616L227.507,220.616L227.507,287.144L280.729,220.616L314.579,220.616L261.394,287.098L314.579,376.103L283.787,376.103Z" style="fill:none;stroke:rgb(35,31,32);stroke-width:0.71px;"/>
        <path d="M395.452,265.041L386.85,286.128C379.62,282.542 371.052,282.948 364.192,287.202C357.334,291.455 353.162,298.952 353.162,307.022L353.162,376.103L329.84,376.103L329.84,265.041L353.162,265.041L353.162,271.297C365.063,261.653 381.27,259.255 395.452,265.041Z" style="fill:rgb(35,31,32);fill-rule:nonzero;"/>
        <path d="M395.452,265.041L386.85,286.128C379.62,282.542 371.052,282.948 364.192,287.202C357.334,291.455 353.162,298.952 353.162,307.022L353.162,376.103L329.84,376.103L329.84,265.041L353.162,265.041L353.162,271.297C365.063,261.653 381.27,259.255 395.452,265.041Z" style="fill:none;stroke:rgb(35,31,32);stroke-width:0.71px;"/>
    </g>
</svg>
