<?xml version="1.0" encoding="UTF-8" standalone="no"?>
<!DOCTYPE svg PUBLIC "-//W3C//DTD SVG 1.1//EN" "http://www.w3.org/Graphics/SVG/1.1/DTD/svg11.dtd">
<svg width="100%" height="100%" viewBox="0 0 455 133" version="1.1" xmlns="http://www.w3.org/2000/svg" xmlns:xlink="http://www.w3.org/1999/xlink" xml:space="preserve" xmlns:serif="http://www.serif.com/" style="fill-rule:evenodd;clip-rule:evenodd;stroke-linecap:round;stroke-linejoin:round;stroke-miterlimit:2;">
    <g>
        <path d="M16.857,132.662L438.122,132.662C442.503,132.662 446.705,130.921 449.803,127.824C452.901,124.724 454.642,120.523 454.642,116.142L454.642,17.021C454.642,7.897 447.245,0.501 438.122,0.501L16.857,0.501C12.476,0.501 8.274,2.242 5.177,5.34C2.078,8.438 0.338,12.64 0.338,17.021L0.338,116.142C0.338,125.266 7.734,132.662 16.857,132.662Z" style="fill:white;fill-rule:nonzero;"/>
        <path d="M16.857,132.662L438.122,132.662C442.503,132.662 446.705,130.921 449.803,127.824C452.901,124.724 454.642,120.523 454.642,116.142L454.642,17.021C454.642,7.897 447.245,0.501 438.122,0.501L16.857,0.501C12.476,0.501 8.274,2.242 5.177,5.34C2.078,8.438 0.338,12.64 0.338,17.021L0.338,116.142C0.338,125.266 7.734,132.662 16.857,132.662Z" style="fill:none;stroke:rgb(0,154,111);stroke-width:0.68px;"/>
        <path d="M444.558,59.831L374.286,10.27C372.893,9.289 371.23,8.761 369.525,8.761L16.857,8.761C12.296,8.761 8.598,12.46 8.598,17.021L8.598,116.142C8.598,120.704 12.296,124.402 16.857,124.402L369.525,124.402C371.23,124.402 372.893,123.874 374.286,122.892L444.558,73.332C446.752,71.784 448.058,69.266 448.058,66.581C448.058,63.896 446.752,61.379 444.558,59.831Z" style="fill:rgb(0,154,111);fill-rule:nonzero;"/>
        <path d="M444.558,59.831L374.286,10.27C372.893,9.289 371.23,8.761 369.525,8.761L16.857,8.761C12.296,8.761 8.598,12.46 8.598,17.021L8.598,116.142C8.598,120.704 12.296,124.402 16.857,124.402L369.525,124.402C371.23,124.402 372.893,123.874 374.286,122.892L444.558,73.332C446.752,71.784 448.058,69.266 448.058,66.581C448.058,63.896 446.752,61.379 444.558,59.831Z" style="fill:none;stroke:rgb(0,154,111);stroke-width:0.68px;"/>
        <path d="M87.834,55.562L94.9,55.556C96.857,55.887 98.377,57.444 98.66,59.408C98.944,61.372 97.928,63.295 96.145,64.168L95.699,64.249L94.811,64.288L86.081,64.288C84.49,64.156 83.023,63.375 82.026,62.127L73.933,54.084L67.474,64.682L67.073,66.257L77.764,87.227L83.296,110.166C83.913,112.175 83.189,114.354 81.493,115.594L80.09,116.041C78.877,116.245 77.632,115.956 76.631,115.24C75.631,114.524 74.956,113.44 74.756,112.225L69.12,91.349L59.701,76.18L59.154,77.711L56.198,90.728C55.868,92.854 54.254,94.555 52.147,94.994L30.557,95.525C28.847,95.986 27.029,95.355 25.972,93.935C24.914,92.515 24.832,90.593 25.765,89.087C26.658,87.978 27.859,87.156 29.216,86.723L46.461,86.397L48.535,67.636C48.55,65.723 49.039,63.845 49.958,62.167L56.527,48.625L46.617,48.625L40.669,59.157C39.392,60.952 36.995,61.545 35.027,60.553C33.06,59.56 32.111,57.281 32.795,55.186L40.324,41.651C41.36,39.963 43.306,39.056 45.265,39.352L71.633,39.354C73.314,39.203 74.925,40.056 75.745,41.531L87.834,55.562Z" style="fill:white;fill-rule:nonzero;"/>
        <path d="M87.834,55.562L94.9,55.556C96.857,55.887 98.377,57.444 98.66,59.408C98.944,61.372 97.928,63.295 96.145,64.168L95.699,64.249L94.811,64.288L86.081,64.288C84.49,64.156 83.023,63.375 82.026,62.127L73.933,54.084L67.474,64.682L67.073,66.257L77.764,87.227L83.296,110.166C83.913,112.175 83.189,114.354 81.493,115.594L80.09,116.041C78.877,116.245 77.632,115.956 76.631,115.24C75.631,114.524 74.956,113.44 74.756,112.225L69.12,91.349L59.701,76.18L59.154,77.711L56.198,90.728C55.868,92.854 54.254,94.555 52.147,94.994L30.557,95.525C28.847,95.986 27.029,95.355 25.972,93.935C24.914,92.515 24.832,90.593 25.765,89.087C26.658,87.978 27.859,87.156 29.216,86.723L46.461,86.397L48.535,67.636C48.55,65.723 49.039,63.845 49.958,62.167L56.527,48.625L46.617,48.625L40.669,59.157C39.392,60.952 36.995,61.545 35.027,60.553C33.06,59.56 32.111,57.281 32.795,55.186L40.324,41.651C41.36,39.963 43.306,39.056 45.265,39.352L71.633,39.354C73.314,39.203 74.925,40.056 75.745,41.531L87.834,55.562Z" style="fill:none;stroke:white;stroke-width:0.68px;"/>
        <path d="M81.884,29.595C81.884,25.143 78.275,21.534 73.823,21.534C69.371,21.534 65.762,25.143 65.762,29.595C65.762,34.047 69.371,37.656 73.823,37.656C78.275,37.656 81.884,34.047 81.884,29.595Z" style="fill:white;fill-rule:nonzero;"/>
        <path d="M81.884,29.595C81.884,25.143 78.275,21.534 73.823,21.534C69.371,21.534 65.762,25.143 65.762,29.595C65.762,34.047 69.371,37.656 73.823,37.656C78.275,37.656 81.884,34.047 81.884,29.595Z" style="fill:none;stroke:white;stroke-width:0.68px;"/>
        <rect x="264.661" y="17.021" width="49.559" height="99.121" style="fill:white;"/>
        <rect x="264.661" y="17.021" width="49.559" height="99.121" style="fill:none;stroke:white;stroke-width:0.68px;"/>
        <path d="M220.505,34.751L119.357,34.751L119.357,47.966L220.505,47.966L207.29,61.182L228.316,61.182L248.14,41.357L228.316,21.534L207.29,21.534L220.505,34.751Z" style="fill:white;fill-rule:nonzero;"/>
        <path d="M220.505,34.751L119.357,34.751L119.357,47.966L220.505,47.966L207.29,61.182L228.316,61.182L248.14,41.357L228.316,21.534L207.29,21.534L220.505,34.751Z" style="fill:none;stroke:white;stroke-width:0.68px;"/>
        <path d="M123.32,83.101L119.357,87.064L119.357,92.738L122.934,90.673L122.934,116.142L128.716,116.142L128.716,83.101L123.32,83.101Z" style="fill:white;fill-rule:nonzero;"/>
        <path d="M123.32,83.101L119.357,87.064L119.357,92.738L122.934,90.673L122.934,116.142L128.716,116.142L128.716,83.101L123.32,83.101Z" style="fill:none;stroke:white;stroke-width:0.68px;"/>
        <path d="M148.025,102.644C148.346,104.368 148.346,106.135 148.025,107.859C147.422,110.001 145.48,111.49 143.254,111.515C140.812,111.515 138.487,110.462 136.877,108.624L132.847,112.402C135.542,115.28 139.311,116.912 143.254,116.912C148.213,116.909 152.535,113.537 153.744,108.728C154.149,106.428 154.149,104.075 153.744,101.775C152.533,96.967 148.212,93.597 143.254,93.591C142.046,93.591 140.857,93.882 139.785,94.439L139.785,88.497L153.277,88.497L153.277,83.1L134.002,83.1L134.002,99L139.014,100.342C140.252,99.461 141.734,98.988 143.254,98.988C145.48,99.014 147.422,100.502 148.025,102.644Z" style="fill:white;fill-rule:nonzero;"/>
        <path d="M148.025,102.644C148.346,104.368 148.346,106.135 148.025,107.859C147.422,110.001 145.48,111.49 143.254,111.515C140.812,111.515 138.487,110.462 136.877,108.624L132.847,112.402C135.542,115.28 139.311,116.912 143.254,116.912C148.213,116.909 152.535,113.537 153.744,108.728C154.149,106.428 154.149,104.075 153.744,101.775C152.533,96.967 148.212,93.597 143.254,93.591C142.046,93.591 140.857,93.882 139.785,94.439L139.785,88.497L153.277,88.497L153.277,83.1L134.002,83.1L134.002,99L139.014,100.342C140.252,99.461 141.734,98.988 143.254,98.988C145.48,99.014 147.422,100.502 148.025,102.644Z" style="fill:none;stroke:white;stroke-width:0.68px;"/>
        <path d="M165.191,87.754C164.337,89.217 163.695,90.794 163.284,92.437C162.097,97.183 162.097,102.147 163.284,106.893C163.695,108.536 164.337,110.113 165.191,111.576C167.106,114.859 170.61,116.887 174.411,116.915C178.21,116.887 181.714,114.859 183.629,111.576C184.484,110.113 185.126,108.536 185.537,106.893C186.723,102.147 186.723,97.183 185.537,92.437C185.126,90.794 184.484,89.217 183.629,87.754C181.714,84.472 178.21,82.442 174.411,82.414C170.61,82.442 167.106,84.472 165.191,87.754Z" style="fill:white;fill-rule:nonzero;"/>
        <path d="M165.191,87.754C164.337,89.217 163.695,90.794 163.284,92.437C162.097,97.183 162.097,102.147 163.284,106.893C163.695,108.536 164.337,110.113 165.191,111.576C167.106,114.859 170.61,116.887 174.411,116.915C178.21,116.887 181.714,114.859 183.629,111.576C184.484,110.113 185.126,108.536 185.537,106.893C186.723,102.147 186.723,97.183 185.537,92.437C185.126,90.794 184.484,89.217 183.629,87.754C181.714,84.472 178.21,82.442 174.411,82.414C170.61,82.442 167.106,84.472 165.191,87.754Z" style="fill:none;stroke:white;stroke-width:0.68px;"/>
        <path d="M230.889,100.411L230.889,116.142L235.838,116.142L235.838,99.421C235.838,97.431 235.048,95.52 233.64,94.113C232.233,92.705 230.324,91.915 228.333,91.915C225.774,91.915 223.344,93.039 221.688,94.989C220.41,93.242 218.44,92.132 216.284,91.943C214.128,91.755 211.996,92.507 210.434,94.005L210.434,92.575L205.485,92.575L205.485,116.142L210.434,116.142L210.434,100.411C210.434,99.025 211.173,97.746 212.372,97.054C213.572,96.361 215.049,96.361 216.249,97.054C217.448,97.746 218.187,99.025 218.187,100.411L218.187,116.142L223.136,116.142L223.136,100.411C223.136,99.025 223.875,97.746 225.075,97.054C226.274,96.361 227.752,96.361 228.952,97.054C230.151,97.746 230.889,99.025 230.889,100.411Z" style="fill:white;fill-rule:nonzero;"/>
        <path d="M230.889,100.411L230.889,116.142L235.838,116.142L235.838,99.421C235.838,97.431 235.048,95.52 233.64,94.113C232.233,92.705 230.324,91.915 228.333,91.915C225.774,91.915 223.344,93.039 221.688,94.989C220.41,93.242 218.44,92.132 216.284,91.943C214.128,91.755 211.996,92.507 210.434,94.005L210.434,92.575L205.485,92.575L205.485,116.142L210.434,116.142L210.434,100.411C210.434,99.025 211.173,97.746 212.372,97.054C213.572,96.361 215.049,96.361 216.249,97.054C217.448,97.746 218.187,99.025 218.187,100.411L218.187,116.142L223.136,116.142L223.136,100.411C223.136,99.025 223.875,97.746 225.075,97.054C226.274,96.361 227.752,96.361 228.952,97.054C230.151,97.746 230.889,99.025 230.889,100.411Z" style="fill:none;stroke:white;stroke-width:0.68px;"/>
        <path d="M170.244,90.319C169.644,91.431 169.186,92.612 168.879,93.837C167.923,97.663 167.923,101.666 168.879,105.494C169.185,106.715 169.642,107.894 170.24,109.002C171.068,110.538 172.665,111.505 174.411,111.527C176.156,111.505 177.752,110.538 178.581,109.002C179.179,107.894 179.636,106.715 179.941,105.494C180.898,101.666 180.898,97.663 179.941,93.837C179.635,92.612 179.177,91.431 178.577,90.319C177.749,88.785 176.154,87.82 174.411,87.799C172.667,87.82 171.072,88.785 170.244,90.319Z" style="fill:rgb(0,154,111);fill-rule:nonzero;"/>
        <path d="M170.244,90.319C169.644,91.431 169.186,92.612 168.879,93.837C167.923,97.663 167.923,101.666 168.879,105.494C169.185,106.715 169.642,107.894 170.24,109.002C171.068,110.538 172.665,111.505 174.411,111.527C176.156,111.505 177.752,110.538 178.581,109.002C179.179,107.894 179.636,106.715 179.941,105.494C180.898,101.666 180.898,97.663 179.941,93.837C179.635,92.612 179.177,91.431 178.577,90.319C177.749,88.785 176.154,87.82 174.411,87.799C172.667,87.82 171.072,88.785 170.244,90.319Z" style="fill:none;stroke:rgb(0,154,111);stroke-width:0.68px;"/>
    </g>
</svg>
