<?xml version="1.0" encoding="UTF-8" standalone="no"?>
<!DOCTYPE svg PUBLIC "-//W3C//DTD SVG 1.1//EN" "http://www.w3.org/Graphics/SVG/1.1/DTD/svg11.dtd">
<svg width="100%" height="100%" viewBox="0 0 227 227" version="1.1" xmlns="http://www.w3.org/2000/svg" xmlns:xlink="http://www.w3.org/1999/xlink" xml:space="preserve" xmlns:serif="http://www.serif.com/" style="fill-rule:evenodd;clip-rule:evenodd;stroke-miterlimit:2;">
    <g>
        <path d="M226.691,113.708C226.691,51.357 175.643,0.309 113.291,0.309C51.155,0.309 0.107,51.357 0.107,113.708C0.107,175.845 51.155,226.892 113.291,226.892C175.643,226.892 226.691,175.845 226.691,113.708Z" style="fill:rgb(211,63,39);fill-rule:nonzero;"/>
        <path d="M226.691,113.708C226.691,51.357 175.643,0.309 113.291,0.309C51.155,0.309 0.107,51.357 0.107,113.708C0.107,175.845 51.155,226.892 113.291,226.892C175.643,226.892 226.691,175.845 226.691,113.708Z" style="fill:none;stroke:rgb(211,63,39);stroke-width:0.22px;"/>
        <path d="M198.323,113.708C198.323,66.981 160.019,28.676 113.291,28.676C66.779,28.676 28.475,66.981 28.475,113.708C28.475,160.221 66.779,198.524 113.291,198.524C160.019,198.524 198.323,160.221 198.323,113.708Z" style="fill:white;fill-rule:nonzero;"/>
        <path d="M198.323,113.708C198.323,66.981 160.019,28.676 113.291,28.676C66.779,28.676 28.475,66.981 28.475,113.708C28.475,160.221 66.779,198.524 113.291,198.524C160.019,198.524 198.323,160.221 198.323,113.708Z" style="fill:none;stroke:rgb(241,93,42);stroke-width:0.22px;"/>
        <path d="M158.939,139.556L163.475,139.556L163.475,143.228L158.939,143.228L158.939,153.741C158.939,154.604 159.515,155.18 160.307,155.18C161.171,155.18 161.747,155.18 162.323,154.892L163.475,158.564C162.611,158.852 161.459,158.852 160.307,158.852C157.499,159.14 154.98,156.549 154.98,153.452L154.98,143.228L152.099,143.228L152.099,139.556L154.98,139.556L154.98,135.308L158.939,131.925L158.939,139.556Z" style="fill:rgb(35,31,32);fill-rule:nonzero;"/>
        <path d="M158.939,139.556L163.475,139.556L163.475,143.228L158.939,143.228L158.939,153.741C158.939,154.604 159.515,155.18 160.307,155.18C161.171,155.18 161.747,155.18 162.323,154.892L163.475,158.564C162.611,158.852 161.459,158.852 160.307,158.852C157.499,159.14 154.98,156.549 154.98,153.452L154.98,143.228L152.099,143.228L152.099,139.556L154.98,139.556L154.98,135.308L158.939,131.925L158.939,139.556Z" style="fill:none;stroke:rgb(35,31,32);stroke-width:0.22px;"/>
        <path d="M147.275,135.02C146.411,135.308 145.619,135.885 145.619,136.748L145.619,139.556L148.427,139.556L148.427,143.228L145.619,143.228L145.619,158.564L141.587,158.564L141.587,143.228L139.067,143.228L139.067,139.556L141.587,139.556L141.587,136.964C141.587,133.868 144.179,131.348 147.275,131.348C148.427,131.348 149.579,131.637 150.371,131.925L149.291,135.597C148.715,135.308 148.139,135.02 147.275,135.02Z" style="fill:rgb(35,31,32);fill-rule:nonzero;"/>
        <path d="M147.275,135.02C146.411,135.308 145.619,135.885 145.619,136.748L145.619,139.556L148.427,139.556L148.427,143.228L145.619,143.228L145.619,158.564L141.587,158.564L141.587,143.228L139.067,143.228L139.067,139.556L141.587,139.556L141.587,136.964C141.587,133.868 144.179,131.348 147.275,131.348C148.427,131.348 149.579,131.637 150.371,131.925L149.291,135.597C148.715,135.308 148.139,135.02 147.275,135.02Z" style="fill:none;stroke:rgb(35,31,32);stroke-width:0.22px;"/>
        <path d="M134.243,133.292C134.243,132.14 133.091,131.06 131.939,131.06C130.858,131.06 129.707,132.14 129.707,133.292C129.707,134.444 130.858,135.597 131.939,135.597C133.091,135.597 134.243,134.444 134.243,133.292Z" style="fill:rgb(35,31,32);fill-rule:nonzero;"/>
        <path d="M134.243,133.292C134.243,132.14 133.091,131.06 131.939,131.06C130.858,131.06 129.707,132.14 129.707,133.292C129.707,134.444 130.858,135.597 131.939,135.597C133.091,135.597 134.243,134.444 134.243,133.292Z" style="fill:none;stroke:rgb(35,31,32);stroke-width:0.22px;"/>
        <rect x="129.994" y="139.556" width="3.962" height="19.008" style="fill:rgb(35,31,32);fill-rule:nonzero;"/>
        <rect x="129.994" y="139.556" width="3.962" height="19.008" style="fill:none;stroke:rgb(35,31,32);stroke-width:0.22px;"/>
        <path d="M123.155,158.852L123.155,139.556L119.195,139.556L119.195,140.133C118.043,139.556 116.963,138.98 115.523,138.98L115.235,138.98C111.564,138.98 108.179,141.5 107.315,145.533C107.028,146.613 107.028,147.764 107.028,148.916C107.028,150.068 107.028,151.436 107.315,152.588C108.179,156.261 111.564,159.14 115.235,159.14C115.523,159.14 115.523,158.852 115.523,158.852C116.963,158.852 118.043,158.564 119.195,157.701L119.195,159.14C119.195,161.084 117.54,162.812 115.235,162.812C113.291,162.812 110.987,162.236 108.971,161.372L107.603,164.757C109.835,165.909 112.715,166.484 115.235,166.484C119.483,166.484 123.155,163.1 123.155,158.852Z" style="fill:rgb(35,31,32);fill-rule:nonzero;"/>
        <path d="M123.155,158.852L123.155,139.556L119.195,139.556L119.195,140.133C118.043,139.556 116.963,138.98 115.523,138.98L115.235,138.98C111.564,138.98 108.179,141.5 107.315,145.533C107.028,146.613 107.028,147.764 107.028,148.916C107.028,150.068 107.028,151.436 107.315,152.588C108.179,156.261 111.564,159.14 115.235,159.14C115.523,159.14 115.523,158.852 115.523,158.852C116.963,158.852 118.043,158.564 119.195,157.701L119.195,159.14C119.195,161.084 117.54,162.812 115.235,162.812C113.291,162.812 110.987,162.236 108.971,161.372L107.603,164.757C109.835,165.909 112.715,166.484 115.235,166.484C119.483,166.484 123.155,163.1 123.155,158.852Z" style="fill:none;stroke:rgb(35,31,32);stroke-width:0.22px;"/>
        <path d="M91.403,139.556L87.155,139.556L93.42,158.564L98.243,158.564L104.147,139.556L100.187,139.556L95.651,153.164L91.403,139.556Z" style="fill:rgb(35,31,32);fill-rule:nonzero;"/>
        <path d="M91.403,139.556L87.155,139.556L93.42,158.564L98.243,158.564L104.147,139.556L100.187,139.556L95.651,153.164L91.403,139.556Z" style="fill:none;stroke:rgb(35,31,32);stroke-width:0.22px;"/>
        <path d="M82.907,158.564L75.275,131.925L69.011,131.925L61.379,158.564L66.203,158.564L67.283,154.604L76.931,154.604L78.083,158.564L82.907,158.564Z" style="fill:rgb(35,31,32);fill-rule:nonzero;"/>
        <path d="M82.907,158.564L75.275,131.925L69.011,131.925L61.379,158.564L66.203,158.564L67.283,154.604L76.931,154.604L78.083,158.564L82.907,158.564Z" style="fill:none;stroke:rgb(35,31,32);stroke-width:0.22px;"/>
        <path d="M71.027,93.045C66.203,94.484 61.091,93.333 57.131,90.237L59.939,86.781C61.955,88.508 64.186,89.373 66.779,89.373C67.571,89.373 68.435,89.373 69.299,89.085C71.027,88.796 71.819,87.357 71.819,85.7C71.819,84.261 71.315,83.109 69.875,82.532C69.299,82.245 68.435,81.957 67.571,81.957L65.051,81.165C63.899,80.877 62.747,80.589 61.667,79.724C56.843,76.844 57.131,69.789 62.243,67.269C62.747,66.981 63.323,66.693 63.899,66.693C67.283,65.541 71.027,65.829 74.123,67.485C74.699,67.772 75.275,68.349 76.139,68.637L73.259,72.021C72.395,71.517 71.603,70.941 70.739,70.652C69.875,70.365 68.723,70.365 67.859,70.365C66.779,70.365 65.915,70.365 64.763,70.941C63.611,71.229 62.747,72.309 62.747,73.748C62.747,74.901 63.323,75.765 64.186,76.341C64.763,76.628 65.339,76.844 66.203,77.133L68.723,77.709C69.875,77.997 71.027,78.285 72.107,78.861C74.699,80.013 76.427,82.82 76.427,85.7C76.427,89.085 74.411,92.181 71.027,93.045Z" style="fill:rgb(35,31,32);fill-rule:nonzero;"/>
        <path d="M71.027,93.045C66.203,94.484 61.091,93.333 57.131,90.237L59.939,86.781C61.955,88.508 64.186,89.373 66.779,89.373C67.571,89.373 68.435,89.373 69.299,89.085C71.027,88.796 71.819,87.357 71.819,85.7C71.819,84.261 71.315,83.109 69.875,82.532C69.299,82.245 68.435,81.957 67.571,81.957L65.051,81.165C63.899,80.877 62.747,80.589 61.667,79.724C56.843,76.844 57.131,69.789 62.243,67.269C62.747,66.981 63.323,66.693 63.899,66.693C67.283,65.541 71.027,65.829 74.123,67.485C74.699,67.772 75.275,68.349 76.139,68.637L73.259,72.021C72.395,71.517 71.603,70.941 70.739,70.652C69.875,70.365 68.723,70.365 67.859,70.365C66.779,70.365 65.915,70.365 64.763,70.941C63.611,71.229 62.747,72.309 62.747,73.748C62.747,74.901 63.323,75.765 64.186,76.341C64.763,76.628 65.339,76.844 66.203,77.133L68.723,77.709C69.875,77.997 71.027,78.285 72.107,78.861C74.699,80.013 76.427,82.82 76.427,85.7C76.427,89.085 74.411,92.181 71.027,93.045Z" style="fill:none;stroke:rgb(35,31,32);stroke-width:0.22px;"/>
        <path d="M97.091,66.693L97.091,70.941L90.251,70.941L90.251,93.045L85.715,93.045L85.715,70.941L79.235,70.941L79.235,66.693L97.091,66.693Z" style="fill:rgb(35,31,32);fill-rule:nonzero;"/>
        <path d="M97.091,66.693L97.091,70.941L90.251,70.941L90.251,93.045L85.715,93.045L85.715,70.941L79.235,70.941L79.235,66.693L97.091,66.693Z" style="fill:none;stroke:rgb(35,31,32);stroke-width:0.22px;"/>
        <path d="M100.763,86.493C102.203,90.741 106.163,93.621 110.411,93.621C114.947,93.621 118.619,90.741 120.059,86.493C120.923,84.549 121.211,81.957 121.211,79.724C121.211,77.421 120.923,75.189 120.059,72.885C118.619,68.925 114.947,66.117 110.411,66.117C106.163,66.117 102.203,68.925 100.763,72.885C100.187,75.189 99.612,77.421 99.612,79.724C99.612,81.957 100.187,84.549 100.763,86.493Z" style="fill:rgb(35,31,32);fill-rule:nonzero;"/>
        <path d="M100.763,86.493C102.203,90.741 106.163,93.621 110.411,93.621C114.947,93.621 118.619,90.741 120.059,86.493C120.923,84.549 121.211,81.957 121.211,79.724C121.211,77.421 120.923,75.189 120.059,72.885C118.619,68.925 114.947,66.117 110.411,66.117C106.163,66.117 102.203,68.925 100.763,72.885C100.187,75.189 99.612,77.421 99.612,79.724C99.612,81.957 100.187,84.549 100.763,86.493Z" style="fill:none;stroke:rgb(35,31,32);stroke-width:0.22px;"/>
        <path d="M115.811,85.413C116.387,83.685 116.675,81.669 116.675,79.724C116.675,77.709 116.387,76.053 115.811,74.037C114.947,71.805 112.715,70.365 110.411,70.365C108.179,70.365 105.875,71.805 105.299,74.037C104.435,76.053 104.147,77.709 104.147,79.724C104.147,81.669 104.435,83.685 105.299,85.7C105.875,87.645 108.179,89.373 110.411,89.373C112.715,89.373 114.947,87.645 115.811,85.413Z" style="fill:white;fill-rule:nonzero;"/>
        <path d="M115.811,85.413C116.387,83.685 116.675,81.669 116.675,79.724C116.675,77.709 116.387,76.053 115.811,74.037C114.947,71.805 112.715,70.365 110.411,70.365C108.179,70.365 105.875,71.805 105.299,74.037C104.435,76.053 104.147,77.709 104.147,79.724C104.147,81.669 104.435,83.685 105.299,85.7C105.875,87.645 108.179,89.373 110.411,89.373C112.715,89.373 114.947,87.645 115.811,85.413Z" style="fill:none;stroke:rgb(35,31,32);stroke-width:0.22px;"/>
        <path d="M127.98,93.045L127.98,66.693L137.627,66.693C142.163,66.693 145.835,70.077 145.835,74.613C145.835,78.861 142.163,82.532 137.915,82.532L132.516,82.532L132.516,93.045L127.98,93.045Z" style="fill:rgb(35,31,32);fill-rule:nonzero;"/>
        <path d="M127.98,93.045L127.98,66.693L137.627,66.693C142.163,66.693 145.835,70.077 145.835,74.613C145.835,78.861 142.163,82.532 137.915,82.532L132.516,82.532L132.516,93.045L127.98,93.045Z" style="fill:none;stroke:rgb(35,31,32);stroke-width:0.22px;"/>
        <path d="M151.235,93.045L151.235,66.693L160.883,66.693C165.42,66.693 168.875,70.077 168.875,74.613C168.875,78.861 165.42,82.532 160.883,82.532L155.771,82.532L155.771,93.045L151.235,93.045Z" style="fill:rgb(35,31,32);fill-rule:nonzero;"/>
        <path d="M151.235,93.045L151.235,66.693L160.883,66.693C165.42,66.693 168.875,70.077 168.875,74.613C168.875,78.861 165.42,82.532 160.883,82.532L155.771,82.532L155.771,93.045L151.235,93.045Z" style="fill:none;stroke:rgb(35,31,32);stroke-width:0.22px;"/>
        <path d="M52.595,122.852C42.083,121.412 42.083,106.076 52.595,104.637L172.835,104.637C177.371,105.212 180.755,109.173 180.755,113.708C180.755,118.244 177.371,122.276 172.835,122.852L52.595,122.852Z" style="fill:rgb(35,31,32);fill-rule:nonzero;"/>
        <path d="M52.595,122.852C42.083,121.412 42.083,106.076 52.595,104.637L172.835,104.637C177.371,105.212 180.755,109.173 180.755,113.708C180.755,118.244 177.371,122.276 172.835,122.852L52.595,122.852Z" style="fill:none;stroke:rgb(35,31,32);stroke-width:0.22px;"/>
        <path d="M72.107,137.252L68.435,150.356L75.851,150.356L72.107,137.252Z" style="fill:white;fill-rule:nonzero;"/>
        <path d="M72.107,137.252L68.435,150.356L75.851,150.356L72.107,137.252Z" style="fill:none;stroke:rgb(35,31,32);stroke-width:0.22px;"/>
        <path d="M119.195,151.436C119.195,153.452 117.251,155.18 115.235,155.18C113.507,155.18 111.851,154.028 111.564,152.301C110.987,150.068 110.987,147.764 111.564,145.533C111.851,143.805 113.507,142.652 115.235,142.652C117.251,142.652 119.195,144.38 119.195,146.613L119.195,151.436Z" style="fill:white;fill-rule:nonzero;"/>
        <path d="M119.195,151.436C119.195,153.452 117.251,155.18 115.235,155.18C113.507,155.18 111.851,154.028 111.564,152.301C110.987,150.068 110.987,147.764 111.564,145.533C111.851,143.805 113.507,142.652 115.235,142.652C117.251,142.652 119.195,144.38 119.195,146.613L119.195,151.436Z" style="fill:none;stroke:rgb(35,31,32);stroke-width:0.22px;"/>
        <path d="M137.627,78.285L132.516,78.285L132.516,70.941L137.627,70.941C139.643,70.941 141.299,72.309 141.299,74.613C141.299,76.628 139.643,78.285 137.627,78.285Z" style="fill:white;fill-rule:nonzero;"/>
        <path d="M137.627,78.285L132.516,78.285L132.516,70.941L137.627,70.941C139.643,70.941 141.299,72.309 141.299,74.613C141.299,76.628 139.643,78.285 137.627,78.285Z" style="fill:none;stroke:rgb(35,31,32);stroke-width:0.22px;"/>
        <path d="M160.595,78.285L155.771,78.285L155.771,70.941L160.595,70.941C162.611,70.941 164.267,72.309 164.267,74.613C164.267,76.628 162.611,78.285 160.595,78.285Z" style="fill:white;fill-rule:nonzero;"/>
        <path d="M160.595,78.285L155.771,78.285L155.771,70.941L160.595,70.941C162.611,70.941 164.267,72.309 164.267,74.613C164.267,76.628 162.611,78.285 160.595,78.285Z" style="fill:none;stroke:rgb(35,31,32);stroke-width:0.22px;"/>
    </g>
</svg>
