<?xml version="1.0" encoding="UTF-8" standalone="no"?>
<!DOCTYPE svg PUBLIC "-//W3C//DTD SVG 1.1//EN" "http://www.w3.org/Graphics/SVG/1.1/DTD/svg11.dtd">
<svg width="100%" height="100%" viewBox="0 0 652 571" version="1.1" xmlns="http://www.w3.org/2000/svg" xmlns:xlink="http://www.w3.org/1999/xlink" xml:space="preserve" xmlns:serif="http://www.serif.com/" style="fill-rule:evenodd;clip-rule:evenodd;stroke-miterlimit:2;">
    <g>
        <path d="M345.391,12.451L648.04,536.714C650.245,540.206 651.165,544.063 651.165,547.923C651.165,560.601 640.874,570.892 628.194,570.892L23.076,570.892C10.397,570.892 0.107,560.601 0.107,547.923C0.107,544.063 1.209,540.02 3.231,536.531L305.882,12.451C314.702,-2.985 336.753,-2.985 345.391,12.451Z" style="fill:rgb(211,63,39);fill-rule:nonzero;"/>
        <path d="M345.391,12.451L648.04,536.714C650.245,540.206 651.165,544.063 651.165,547.923C651.165,560.601 640.874,570.892 628.194,570.892L23.076,570.892C10.397,570.892 0.107,560.601 0.107,547.923C0.107,544.063 1.209,540.02 3.231,536.531L305.882,12.451C314.702,-2.985 336.753,-2.985 345.391,12.451Z" style="fill:none;stroke:rgb(211,63,39);stroke-width:0.22px;"/>
        <path d="M101.913,502.35L325.543,114.987L549.362,502.35L101.913,502.35Z" style="fill:white;fill-rule:nonzero;"/>
        <path d="M101.913,502.35L325.543,114.987L549.362,502.35L101.913,502.35Z" style="fill:none;stroke:white;stroke-width:0.22px;"/>
        <path d="M205.644,478.957C214.171,477.975 220.813,470.801 220.938,462.039C220.938,461.956 224.689,462.083 224.689,462.083L224.689,470.473C224.689,471.569 225.577,472.457 226.673,472.457L246.705,472.457C247.801,472.457 248.689,471.569 248.689,470.473L248.689,460.766L256.232,460.766C258.14,471.115 267.204,478.957 278.106,478.957C289.008,478.957 298.071,471.115 299.98,460.766L310.065,460.766C311.974,471.115 321.037,478.957 331.938,478.957C342.841,478.957 351.904,471.115 353.813,460.766L363.898,460.766C365.808,471.115 374.87,478.957 385.772,478.957C396.675,478.957 405.737,471.115 407.646,460.766L483.739,460.766L483.739,446.05L465.356,446.05L465.356,383.456L427.522,383.456L427.522,359.956L444.522,359.956L444.522,349.29L355.522,349.29L355.522,376.79L331.265,376.79C331.265,376.762 331.272,376.734 331.272,376.705L331.272,362.375C331.272,360.808 330.004,359.54 328.438,359.54L317.357,359.54C315.792,359.54 314.522,360.808 314.522,362.375L314.522,376.705C314.522,376.734 314.53,376.762 314.531,376.79L297.355,376.79L297.147,357.54C293.397,346.29 274.022,346.54 269.772,357.54L269.98,376.79L238.689,376.79L238.689,335.456L218.189,335.456L218.189,376.624L204.589,376.603L203.958,377.645L203.947,382.901C200.35,388.854 198.272,395.828 198.272,403.29C198.272,410.697 200.316,417.626 203.864,423.551L203.856,427.456L176.189,427.456L176.189,446.05L157.896,446.05L157.896,460.766L186.408,460.766C186.388,461.106 186.356,461.444 186.356,461.79C186.356,470.663 193.042,477.965 201.648,478.957L154.022,478.957L154.022,489.457L497.022,489.457L497.022,478.957L205.644,478.957Z" style="fill:rgb(35,31,32);fill-rule:nonzero;"/>
        <path d="M221.738,331.79L235.684,331.79L238.435,323.717C239.72,324.266 241.187,324.634 242.471,324.634C244.489,324.634 246.508,323.9 248.161,322.798C250.912,320.779 253.297,318.395 255.316,315.459C257.334,312.706 258.62,309.404 258.803,305.917C261.371,305.367 263.756,303.716 265.225,301.33C268.711,301.33 272.197,302.612 274.949,304.634C277.334,307.018 280.087,309.037 283.023,310.687C285.042,311.789 287.427,312.523 289.812,312.523C293.849,312.523 297.519,310.872 300.271,308.12C306.511,316.192 316.418,320.963 326.877,320.963C329.813,320.963 332.749,320.597 335.868,319.68C347.245,317.659 356.785,309.952 361.189,298.945C361.739,296.926 362.11,294.724 362.11,292.522C362.11,287.383 360.456,282.615 357.52,278.577C363.574,274.542 369.08,269.77 373.67,264.079C378.07,258.944 380.64,252.339 380.64,245.733C380.64,245 380.64,244.449 380.456,243.715C379.905,235.457 374.585,228.118 366.695,224.815C365.593,213.807 361.189,203.528 354.034,195.09C346.878,186.649 336.419,181.878 325.408,181.878C322.657,181.878 319.72,182.245 316.786,182.797C301.372,186.282 289.812,199.126 287.977,214.906L287.977,216.374C287.977,224.081 292.015,231.421 298.436,235.457C301.555,237.292 304.857,238.21 308.344,238.21C309.079,238.21 309.813,238.027 310.547,238.027C308.712,241.142 307.61,244.817 307.61,248.485L307.61,249.77C308.162,256.19 311.464,262.062 316.602,265.733C319.72,268.118 323.575,269.954 327.428,270.687C321.556,271.787 316.051,275.274 312.198,280.045C308.712,276.192 304.492,272.89 299.721,270.321C295.134,267.935 290.18,266.651 285.042,266.651C283.94,266.651 282.656,266.651 281.556,266.834C276.968,267.753 272.748,269.954 269.444,273.256C266.326,273.624 263.207,274.542 260.454,276.192C257.885,277.476 255.868,279.492 254.582,282.247C254.032,283.714 253.481,285.367 253.481,287.015C253.481,287.383 253.665,287.752 253.665,288.118C252.197,287.935 250.729,287.752 249.261,287.752L248.527,287.752C245.775,287.752 243.206,288.67 241.004,290.505C239.354,291.974 238.435,293.991 238.435,296.377L238.435,297.294C234.215,300.046 231.646,304.817 231.646,309.952C231.646,310.136 231.646,310.318 231.829,310.502C225.408,314.724 221.554,321.882 221.554,329.404C221.554,330.321 221.554,331.056 221.738,331.79Z" style="fill:rgb(35,31,32);fill-rule:nonzero;"/>
        <path d="M221.738,331.79L235.684,331.79L238.435,323.717C239.72,324.266 241.187,324.634 242.471,324.634C244.489,324.634 246.508,323.9 248.161,322.798C250.912,320.779 253.297,318.395 255.316,315.459C257.334,312.706 258.62,309.404 258.803,305.917C261.371,305.367 263.756,303.716 265.225,301.33C268.711,301.33 272.197,302.612 274.949,304.634C277.334,307.018 280.087,309.037 283.023,310.687C285.042,311.789 287.427,312.523 289.812,312.523C293.849,312.523 297.519,310.872 300.271,308.12C306.511,316.192 316.418,320.963 326.877,320.963C329.813,320.963 332.749,320.597 335.868,319.68C347.245,317.659 356.785,309.952 361.189,298.945C361.739,296.926 362.11,294.724 362.11,292.522C362.11,287.383 360.456,282.615 357.52,278.577C363.574,274.542 369.08,269.77 373.67,264.079C378.07,258.944 380.64,252.339 380.64,245.733C380.64,245 380.64,244.449 380.456,243.715C379.905,235.457 374.585,228.118 366.695,224.815C365.593,213.807 361.189,203.528 354.034,195.09C346.878,186.649 336.419,181.878 325.408,181.878C322.657,181.878 319.72,182.245 316.786,182.797C301.372,186.282 289.812,199.126 287.977,214.906L287.977,216.374C287.977,224.081 292.015,231.421 298.436,235.457C301.555,237.292 304.857,238.21 308.344,238.21C309.079,238.21 309.813,238.027 310.547,238.027C308.712,241.142 307.61,244.817 307.61,248.485L307.61,249.77C308.162,256.19 311.464,262.062 316.602,265.733C319.72,268.118 323.575,269.954 327.428,270.687C321.556,271.787 316.051,275.274 312.198,280.045C308.712,276.192 304.492,272.89 299.721,270.321C295.134,267.935 290.18,266.651 285.042,266.651C283.94,266.651 282.656,266.651 281.556,266.834C276.968,267.753 272.748,269.954 269.444,273.256C266.326,273.624 263.207,274.542 260.454,276.192C257.885,277.476 255.868,279.492 254.582,282.247C254.032,283.714 253.481,285.367 253.481,287.015C253.481,287.383 253.665,287.752 253.665,288.118C252.197,287.935 250.729,287.752 249.261,287.752L248.527,287.752C245.775,287.752 243.206,288.67 241.004,290.505C239.354,291.974 238.435,293.991 238.435,296.377L238.435,297.294C234.215,300.046 231.646,304.817 231.646,309.952C231.646,310.136 231.646,310.318 231.829,310.502C225.408,314.724 221.554,321.882 221.554,329.404C221.554,330.321 221.554,331.056 221.738,331.79Z" style="fill:none;stroke:rgb(35,31,32);stroke-width:0.22px;"/>
        <path d="M223.301,454.988C220.484,446.846 212.749,440.999 203.647,440.999C193.756,440.999 185.478,447.905 183.374,457.159L186.925,457.371C188.878,449.962 195.625,444.499 203.647,444.499C210.833,444.499 216.995,448.882 219.605,455.12L223.301,454.988Z" style="fill:white;fill-rule:nonzero;"/>
        <path d="M223.301,454.988C220.484,446.846 212.749,440.999 203.647,440.999C193.756,440.999 185.478,447.905 183.374,457.159L186.925,457.371C188.878,449.962 195.625,444.499 203.647,444.499C210.833,444.499 216.995,448.882 219.605,455.12L223.301,454.988Z" style="fill:none;stroke:white;stroke-width:0.2px;"/>
        <path d="M258.176,446.804C261.82,439.484 269.375,434.457 278.106,434.457C286.85,434.457 294.416,439.5 298.053,446.838L301.942,446.948C298.098,437.566 288.874,430.957 278.106,430.957C268.78,430.957 260.613,435.914 256.094,443.337L252.397,443.337L252.397,431.29L238.46,431.29L238.46,434.852L248.897,434.852L248.897,446.915L258.176,446.804Z" style="fill:white;fill-rule:nonzero;"/>
        <path d="M258.176,446.804C261.82,439.484 269.375,434.457 278.106,434.457C286.85,434.457 294.416,439.5 298.053,446.838L301.942,446.948C298.098,437.566 288.874,430.957 278.106,430.957C268.78,430.957 260.613,435.914 256.094,443.337L252.397,443.337L252.397,431.29L238.46,431.29L238.46,434.852L248.897,434.852L248.897,446.915L258.176,446.804Z" style="fill:none;stroke:white;stroke-width:0.2px;"/>
        <path d="M311.942,446.938C315.56,439.547 323.155,434.457 331.938,434.457C340.688,434.457 348.257,439.506 351.892,446.849L355.72,446.811C351.841,437.501 342.654,430.957 331.939,430.957C321.273,430.957 312.122,437.442 308.213,446.683L311.942,446.938Z" style="fill:white;fill-rule:nonzero;"/>
        <path d="M311.942,446.938C315.56,439.547 323.155,434.457 331.938,434.457C340.688,434.457 348.257,439.506 351.892,446.849L355.72,446.811C351.841,437.501 342.654,430.957 331.939,430.957C321.273,430.957 312.122,437.442 308.213,446.683L311.942,446.938Z" style="fill:none;stroke:white;stroke-width:0.2px;"/>
        <path d="M407.979,455.294C407.25,443.663 397.587,434.457 385.772,434.457C377.034,434.457 369.474,439.493 365.833,446.821L362.047,446.683C365.956,437.442 375.106,430.957 385.772,430.957C399.519,430.957 410.749,441.726 411.485,455.29L407.979,455.294Z" style="fill:white;fill-rule:nonzero;"/>
        <path d="M407.979,455.294C407.25,443.663 397.587,434.457 385.772,434.457C377.034,434.457 369.474,439.493 365.833,446.821L362.047,446.683C365.956,437.442 375.106,430.957 385.772,430.957C399.519,430.957 410.749,441.726 411.485,455.29L407.979,455.294Z" style="fill:none;stroke:white;stroke-width:1px;"/>
        <rect x="384.189" y="360.124" width="29" height="36.166" style="fill:white;fill-rule:nonzero;"/>
        <rect x="384.189" y="360.124" width="29" height="36.166" style="fill:none;stroke:white;stroke-width:0.2px;"/>
    </g>
</svg>
