<?xml version="1.0" encoding="UTF-8" standalone="no"?>
<!DOCTYPE svg PUBLIC "-//W3C//DTD SVG 1.1//EN" "http://www.w3.org/Graphics/SVG/1.1/DTD/svg11.dtd">
<svg width="100%" height="100%" viewBox="0 0 228 228" version="1.1" xmlns="http://www.w3.org/2000/svg" xmlns:xlink="http://www.w3.org/1999/xlink" xml:space="preserve" xmlns:serif="http://www.serif.com/" style="fill-rule:evenodd;clip-rule:evenodd;stroke-miterlimit:2;">
    <g>
        <path d="M227.123,114.493C227.123,51.997 176.003,0.877 113.507,0.877C51.227,0.877 0.107,51.997 0.107,114.493C0.107,176.772 51.227,227.893 113.507,227.893C176.003,227.893 227.123,176.772 227.123,114.493Z" style="fill:rgb(211,63,39);fill-rule:nonzero;"/>
        <path d="M227.123,114.493C227.123,51.997 176.003,0.877 113.507,0.877C51.227,0.877 0.107,51.997 0.107,114.493C0.107,176.772 51.227,227.893 113.507,227.893C176.003,227.893 227.123,176.772 227.123,114.493Z" style="fill:none;stroke:rgb(211,63,39);stroke-width:0.22px;"/>
        <path d="M198.683,114.493C198.683,67.621 160.379,29.317 113.507,29.317C66.851,29.317 28.547,67.621 28.547,114.493C28.547,161.148 66.851,199.453 113.507,199.453C160.379,199.453 198.683,161.148 198.683,114.493Z" style="fill:white;fill-rule:nonzero;"/>
        <path d="M198.683,114.493C198.683,67.621 160.379,29.317 113.507,29.317C66.851,29.317 28.547,67.621 28.547,114.493C28.547,161.148 66.851,199.453 113.507,199.453C160.379,199.453 198.683,161.148 198.683,114.493Z" style="fill:none;stroke:rgb(241,93,42);stroke-width:0.22px;"/>
        <path d="M73.979,111.685C76.571,110.819 79.379,110.819 82.187,111.396C84.491,111.973 86.507,113.124 88.163,114.781C89.891,116.796 91.331,119.101 92.483,121.621C93.275,124.212 93.564,126.444 93.564,129.038C93.564,133.285 92.483,137.533 90.179,140.916C87.083,147.469 79.667,150.637 72.827,148.909C67.715,146.893 64.043,142.644 62.315,137.245L43.019,139.836C44.459,146.316 48.131,152.292 53.243,156.829C59.507,163.093 68.003,166.836 77.075,166.836C78.803,166.836 80.819,166.549 82.475,166.261C97.019,163.957 108.611,153.732 112.643,139.549C113.507,136.38 114.011,132.997 114.011,129.613C114.011,117.949 108.323,106.86 98.675,99.733C94.139,96.349 88.163,94.621 82.475,94.621C76.283,94.621 70.595,96.349 65.771,100.021L68.003,84.109L110.052,84.973L110.339,65.101L53.243,63.949L45.827,114.276L64.619,119.893C65.483,118.524 66.563,117.084 67.715,115.933C69.443,113.989 71.387,112.549 73.979,111.685Z" style="fill:rgb(35,31,32);fill-rule:nonzero;"/>
        <path d="M73.979,111.685C76.571,110.819 79.379,110.819 82.187,111.396C84.491,111.973 86.507,113.124 88.163,114.781C89.891,116.796 91.331,119.101 92.483,121.621C93.275,124.212 93.564,126.444 93.564,129.038C93.564,133.285 92.483,137.533 90.179,140.916C87.083,147.469 79.667,150.637 72.827,148.909C67.715,146.893 64.043,142.644 62.315,137.245L43.019,139.836C44.459,146.316 48.131,152.292 53.243,156.829C59.507,163.093 68.003,166.836 77.075,166.836C78.803,166.836 80.819,166.549 82.475,166.261C97.019,163.957 108.611,153.732 112.643,139.549C113.507,136.38 114.011,132.997 114.011,129.613C114.011,117.949 108.323,106.86 98.675,99.733C94.139,96.349 88.163,94.621 82.475,94.621C76.283,94.621 70.595,96.349 65.771,100.021L68.003,84.109L110.052,84.973L110.339,65.101L53.243,63.949L45.827,114.276L64.619,119.893C65.483,118.524 66.563,117.084 67.715,115.933C69.443,113.989 71.387,112.549 73.979,111.685Z" style="fill:none;stroke:rgb(35,31,32);stroke-width:0.22px;"/>
        <path d="M153.251,167.341C157.787,167.341 162.035,166.261 165.779,164.245C170.027,161.725 173.699,158.557 176.867,154.885C179.099,151.717 181.115,148.332 182.483,144.661C183.635,142.356 184.499,139.836 185.075,136.957C186.227,130.189 187.091,123.349 187.091,116.509C187.091,111.973 186.803,107.436 186.227,103.188C185.651,97.501 184.211,92.101 182.483,86.989C181.115,82.957 179.099,79.285 176.579,75.901C173.699,71.652 169.739,67.909 165.203,65.389C161.459,63.373 157.499,62.221 153.251,62.221C149.291,62.221 145.259,63.373 141.587,65.389C137.051,67.909 133.091,71.652 130.211,75.901C127.691,79.285 125.675,82.957 124.235,86.7C122.291,92.101 121.139,97.501 120.564,102.9C119.987,107.436 119.699,111.973 119.699,116.509C119.699,123.637 120.275,130.405 121.715,137.245C122.291,139.836 123.155,142.356 124.235,144.661C125.675,148.332 127.691,151.717 129.923,154.885C133.091,158.557 136.763,161.725 140.723,164.245C144.755,166.261 149.004,167.341 153.251,167.341Z" style="fill:rgb(35,31,32);fill-rule:nonzero;"/>
        <path d="M153.251,167.341C157.787,167.341 162.035,166.261 165.779,164.245C170.027,161.725 173.699,158.557 176.867,154.885C179.099,151.717 181.115,148.332 182.483,144.661C183.635,142.356 184.499,139.836 185.075,136.957C186.227,130.189 187.091,123.349 187.091,116.509C187.091,111.973 186.803,107.436 186.227,103.188C185.651,97.501 184.211,92.101 182.483,86.989C181.115,82.957 179.099,79.285 176.579,75.901C173.699,71.652 169.739,67.909 165.203,65.389C161.459,63.373 157.499,62.221 153.251,62.221C149.291,62.221 145.259,63.373 141.587,65.389C137.051,67.909 133.091,71.652 130.211,75.901C127.691,79.285 125.675,82.957 124.235,86.7C122.291,92.101 121.139,97.501 120.564,102.9C119.987,107.436 119.699,111.973 119.699,116.509C119.699,123.637 120.275,130.405 121.715,137.245C122.291,139.836 123.155,142.356 124.235,144.661C125.675,148.332 127.691,151.717 129.923,154.885C133.091,158.557 136.763,161.725 140.723,164.245C144.755,166.261 149.004,167.341 153.251,167.341Z" style="fill:none;stroke:rgb(35,31,32);stroke-width:0.22px;"/>
        <path d="M159.515,84.109L160.091,84.973L160.956,86.125L161.459,87.277L162.035,88.357L162.611,89.796L163.187,90.949L163.763,92.389L164.339,93.757L164.627,95.197L165.203,96.637L165.491,97.789L165.779,99.157L166.067,100.597L166.355,101.748L166.355,103.188L166.571,104.269L166.571,105.42L166.859,106.573L166.859,108.588L167.147,109.668L167.147,115.933L167.435,116.509L167.435,117.373L167.147,117.949L167.147,122.772L166.859,123.349L166.859,126.157L166.571,126.732L166.571,129.038L166.355,129.613L166.355,130.405L166.067,130.98L166.067,131.557L165.779,132.42L165.779,132.997L165.491,133.573L165.491,134.148L165.203,134.725L165.203,135.517L164.915,136.093L164.627,136.668L164.627,137.533L164.339,138.108L164.051,138.685L163.763,139.261L163.763,139.836L163.475,140.413L163.187,140.916L162.899,141.205L162.611,141.781L162.611,142.356L162.323,142.644L162.035,143.221L161.747,143.509L161.459,144.084L160.956,144.661L160.667,144.949L160.379,145.524L159.803,146.028L159.515,146.316L158.939,146.893L158.363,147.181L158.075,147.469L157.499,147.757L157.211,148.044L156.635,148.332L156.347,148.621L155.843,148.621L155.555,148.909L155.267,148.909L154.98,149.197L153.539,149.197L153.539,149.484L153.251,149.484L152.963,149.197L151.811,149.197L151.523,148.909L150.947,148.909L150.659,148.621L150.444,148.621L149.867,148.332L149.579,148.044L149.004,147.757L148.427,147.469L148.139,147.181L147.563,146.893L147.275,146.316L146.699,146.028L146.411,145.524L145.835,144.949L145.547,144.661L145.259,144.084L145.043,143.509L144.468,143.221L144.179,142.644L144.179,142.356L143.891,141.781L143.603,141.205L143.315,140.916L143.028,140.413L143.028,139.836L142.739,139.261L142.451,138.685L142.163,138.108L142.163,137.533L141.875,136.668L141.587,136.093L141.587,135.517L141.299,134.725L141.011,134.148L141.011,133.573L140.723,132.997L140.723,132.42L140.435,131.557L140.435,130.405L140.147,129.9L140.147,129.038L139.932,128.46L139.932,126.157L139.643,125.581L139.643,122.772L139.355,122.197L139.355,110.532L139.643,109.668L139.643,106.573L139.932,105.42L139.932,104.269L140.147,103.188L140.435,101.748L140.435,100.597L140.723,99.157L141.011,97.789L141.587,96.637L141.875,95.197L142.163,93.757L142.739,92.389L143.315,90.949L143.891,89.796L144.468,88.357L145.043,87.277L145.835,86.125L146.411,84.973L147.275,84.109L147.851,83.245L148.715,82.453L149.291,81.877L150.155,81.589L150.947,81.013L151.811,80.724L152.387,80.724L153.251,80.437L154.115,80.724L154.98,80.724L155.555,81.013L156.347,81.589L157.211,81.877L157.787,82.453L158.651,83.245L159.515,84.109Z" style="fill:white;fill-rule:nonzero;"/>
        <path d="M159.515,84.109L160.091,84.973L160.956,86.125L161.459,87.277L162.035,88.357L162.611,89.796L163.187,90.949L163.763,92.389L164.339,93.757L164.627,95.197L165.203,96.637L165.491,97.789L165.779,99.157L166.067,100.597L166.355,101.748L166.355,103.188L166.571,104.269L166.571,105.42L166.859,106.573L166.859,108.588L167.147,109.668L167.147,115.933L167.435,116.509L167.435,117.373L167.147,117.949L167.147,122.772L166.859,123.349L166.859,126.157L166.571,126.732L166.571,129.038L166.355,129.613L166.355,130.405L166.067,130.98L166.067,131.557L165.779,132.42L165.779,132.997L165.491,133.573L165.491,134.148L165.203,134.725L165.203,135.517L164.915,136.093L164.627,136.668L164.627,137.533L164.339,138.108L164.051,138.685L163.763,139.261L163.763,139.836L163.475,140.413L163.187,140.916L162.899,141.205L162.611,141.781L162.611,142.356L162.323,142.644L162.035,143.221L161.747,143.509L161.459,144.084L160.956,144.661L160.667,144.949L160.379,145.524L159.803,146.028L159.515,146.316L158.939,146.893L158.363,147.181L158.075,147.469L157.499,147.757L157.211,148.044L156.635,148.332L156.347,148.621L155.843,148.621L155.555,148.909L155.267,148.909L154.98,149.197L153.539,149.197L153.539,149.484L153.251,149.484L152.963,149.197L151.811,149.197L151.523,148.909L150.947,148.909L150.659,148.621L150.444,148.621L149.867,148.332L149.579,148.044L149.004,147.757L148.427,147.469L148.139,147.181L147.563,146.893L147.275,146.316L146.699,146.028L146.411,145.524L145.835,144.949L145.547,144.661L145.259,144.084L145.043,143.509L144.468,143.221L144.179,142.644L144.179,142.356L143.891,141.781L143.603,141.205L143.315,140.916L143.028,140.413L143.028,139.836L142.739,139.261L142.451,138.685L142.163,138.108L142.163,137.533L141.875,136.668L141.587,136.093L141.587,135.517L141.299,134.725L141.011,134.148L141.011,133.573L140.723,132.997L140.723,132.42L140.435,131.557L140.435,130.405L140.147,129.9L140.147,129.038L139.932,128.46L139.932,126.157L139.643,125.581L139.643,122.772L139.355,122.197L139.355,110.532L139.643,109.668L139.643,106.573L139.932,105.42L139.932,104.269L140.147,103.188L140.435,101.748L140.435,100.597L140.723,99.157L141.011,97.789L141.587,96.637L141.875,95.197L142.163,93.757L142.739,92.389L143.315,90.949L143.891,89.796L144.468,88.357L145.043,87.277L145.835,86.125L146.411,84.973L147.275,84.109L147.851,83.245L148.715,82.453L149.291,81.877L150.155,81.589L150.947,81.013L151.811,80.724L152.387,80.724L153.251,80.437L154.115,80.724L154.98,80.724L155.555,81.013L156.347,81.589L157.211,81.877L157.787,82.453L158.651,83.245L159.515,84.109Z" style="fill:none;stroke:rgb(35,31,32);stroke-width:0.22px;"/>
    </g>
</svg>
