<?xml version="1.0" encoding="UTF-8" standalone="no"?>
<!DOCTYPE svg PUBLIC "-//W3C//DTD SVG 1.1//EN" "http://www.w3.org/Graphics/SVG/1.1/DTD/svg11.dtd">
<svg width="100%" height="100%" viewBox="0 0 256 224" version="1.1" xmlns="http://www.w3.org/2000/svg" xmlns:xlink="http://www.w3.org/1999/xlink" xml:space="preserve" xmlns:serif="http://www.serif.com/" style="fill-rule:evenodd;clip-rule:evenodd;stroke-miterlimit:2;">
    <g>
        <path d="M119.916,5.013L1.331,210.501C0.539,211.796 0.107,213.38 0.107,214.964C0.107,219.86 4.139,223.893 9.035,223.893L246.275,223.893C251.172,223.893 255.203,219.86 255.203,214.964C255.203,213.38 254.771,211.796 253.979,210.501L135.396,5.013C133.812,2.277 130.858,0.549 127.619,0.549C124.451,0.549 121.5,2.277 119.916,5.013Z" style="fill:rgb(211,63,39);fill-rule:nonzero;"/>
        <path d="M119.916,5.013L1.331,210.501C0.539,211.796 0.107,213.38 0.107,214.964C0.107,219.86 4.139,223.893 9.035,223.893L246.275,223.893C251.172,223.893 255.203,219.86 255.203,214.964C255.203,213.38 254.771,211.796 253.979,210.501L135.396,5.013C133.812,2.277 130.858,0.549 127.619,0.549C124.451,0.549 121.5,2.277 119.916,5.013Z" style="fill:none;stroke:rgb(211,63,39);stroke-width:0.22px;"/>
        <path d="M127.619,45.261L39.996,197.037L215.315,197.037L127.619,45.261Z" style="fill:white;fill-rule:nonzero;"/>
        <path d="M127.619,45.261L39.996,197.037L215.315,197.037L127.619,45.261Z" style="fill:none;stroke:white;stroke-width:0.22px;"/>
        <path d="M101.124,103.221L126.54,96.381C126.971,96.237 127.332,96.525 127.332,96.957C127.332,97.101 127.332,97.173 127.259,97.317L123.587,103.651L142.667,110.709C157.283,116.181 167.003,130.077 167.003,145.628L167.003,189.045L150.947,189.045L150.947,145.483C150.947,136.7 145.476,128.924 137.339,125.9L117.971,118.773L116.675,126.045C116.531,126.621 115.883,126.765 115.523,126.333L100.619,104.588C100.188,104.085 100.476,103.365 101.124,103.221Z" style="fill:rgb(35,31,32);fill-rule:nonzero;"/>
        <path d="M101.124,103.221L126.54,96.381C126.971,96.237 127.332,96.525 127.332,96.957C127.332,97.101 127.332,97.173 127.259,97.317L123.587,103.651L142.667,110.709C157.283,116.181 167.003,130.077 167.003,145.628L167.003,189.045L150.947,189.045L150.947,145.483C150.947,136.7 145.476,128.924 137.339,125.9L117.971,118.773L116.675,126.045C116.531,126.621 115.883,126.765 115.523,126.333L100.619,104.588C100.188,104.085 100.476,103.365 101.124,103.221Z" style="fill:none;stroke:rgb(35,31,32);stroke-width:0.22px;"/>
    </g>
</svg>
