<?xml version="1.0" encoding="UTF-8" standalone="no"?>
<!DOCTYPE svg PUBLIC "-//W3C//DTD SVG 1.1//EN" "http://www.w3.org/Graphics/SVG/1.1/DTD/svg11.dtd">
<svg width="100%" height="100%" viewBox="0 0 226 226" version="1.1" xmlns="http://www.w3.org/2000/svg" xmlns:xlink="http://www.w3.org/1999/xlink" xml:space="preserve" xmlns:serif="http://www.serif.com/" style="fill-rule:evenodd;clip-rule:evenodd;stroke-miterlimit:2;">
    <g>
        <path d="M225.395,113.356C225.395,51.365 174.635,0.605 112.643,0.605C50.867,0.605 0.107,51.365 0.107,113.356C0.107,175.133 50.867,225.893 112.643,225.893C174.635,225.893 225.395,175.133 225.395,113.356Z" style="fill:rgb(211,63,39);fill-rule:nonzero;"/>
        <path d="M225.395,113.356C225.395,51.365 174.635,0.605 112.643,0.605C50.867,0.605 0.107,51.365 0.107,113.356C0.107,175.133 50.867,225.893 112.643,225.893C174.635,225.893 225.395,175.133 225.395,113.356Z" style="fill:none;stroke:rgb(211,63,39);stroke-width:0.22px;"/>
        <path d="M197.171,113.356C197.171,66.844 159.155,28.829 112.643,28.829C66.347,28.829 28.331,66.844 28.331,113.356C28.331,159.652 66.347,197.668 112.643,197.668C159.155,197.668 197.171,159.652 197.171,113.356Z" style="fill:white;fill-rule:nonzero;"/>
        <path d="M197.171,113.356C197.171,66.844 159.155,28.829 112.643,28.829C66.347,28.829 28.331,66.844 28.331,113.356C28.331,159.652 66.347,197.668 112.643,197.668C159.155,197.668 197.171,159.652 197.171,113.356Z" style="fill:none;stroke:rgb(241,93,42);stroke-width:0.22px;"/>
        <path d="M124.739,156.557L124.739,175.42L130.643,175.42L130.643,155.405C130.643,150.292 126.683,146.405 121.932,146.405C118.835,146.405 115.739,147.772 113.723,150.077C112.067,147.772 109.475,146.405 106.667,146.405C104.147,146.405 102.203,147.197 100.475,148.925L100.475,147.197L94.571,147.197L94.571,175.42L100.475,175.42L100.475,156.557C100.475,150.292 109.763,150.292 109.763,156.557L109.763,175.42L115.739,175.42L115.739,156.557C115.739,150.292 124.739,150.292 124.739,156.557Z" style="fill:rgb(35,31,32);fill-rule:nonzero;"/>
        <path d="M124.739,156.557L124.739,175.42L130.643,175.42L130.643,155.405C130.643,150.292 126.683,146.405 121.932,146.405C118.835,146.405 115.739,147.772 113.723,150.077C112.067,147.772 109.475,146.405 106.667,146.405C104.147,146.405 102.203,147.197 100.475,148.925L100.475,147.197L94.571,147.197L94.571,175.42L100.475,175.42L100.475,156.557C100.475,150.292 109.763,150.292 109.763,156.557L109.763,175.42L115.739,175.42L115.739,156.557C115.739,150.292 124.739,150.292 124.739,156.557Z" style="fill:none;stroke:rgb(35,31,32);stroke-width:0.22px;"/>
        <path d="M194.075,136.54L170.387,113.356L194.075,90.245C196.091,97.877 197.171,105.508 197.171,113.356C197.171,121.276 196.091,128.909 194.075,136.54Z" style="fill:rgb(35,31,32);fill-rule:nonzero;"/>
        <path d="M194.075,136.54L170.387,113.356L194.075,90.245C196.091,97.877 197.171,105.508 197.171,113.356C197.171,121.276 196.091,128.909 194.075,136.54Z" style="fill:none;stroke:rgb(35,31,32);stroke-width:0.22px;"/>
        <path d="M31.139,90.245L54.827,113.356L31.139,136.54C26.891,121.276 26.891,105.508 31.139,90.245Z" style="fill:rgb(35,31,32);fill-rule:nonzero;"/>
        <path d="M31.139,90.245L54.827,113.356L31.139,136.54C26.891,121.276 26.891,105.508 31.139,90.245Z" style="fill:none;stroke:rgb(35,31,32);stroke-width:0.22px;"/>
        <path d="M147.275,121.852C155.771,121.564 161.963,115.372 161.963,107.164C161.963,102.7 159.731,98.741 155.771,96.221C158.867,93.917 160.811,90.532 160.811,86.573C160.811,79.301 154.619,73.037 147.275,73.037L145.908,73.037C139.932,73.037 134.891,76.709 132.947,82.397L140.795,84.917C141.371,82.685 143.603,80.957 146.195,80.669L146.699,80.669C150.083,80.669 152.675,83.477 152.675,86.573C152.675,89.957 150.083,92.549 146.699,92.549L144.468,92.549L144.468,100.109L146.699,100.109C150.659,100.109 153.755,103.205 153.755,107.164C153.755,111.124 150.659,114.221 146.699,114.221C143.603,114.509 140.507,112.276 139.643,109.469L131.795,111.989C134.028,117.893 139.643,121.852 145.908,121.852L147.275,121.852Z" style="fill:rgb(35,31,32);fill-rule:nonzero;"/>
        <path d="M147.275,121.852C155.771,121.564 161.963,115.372 161.963,107.164C161.963,102.7 159.731,98.741 155.771,96.221C158.867,93.917 160.811,90.532 160.811,86.573C160.811,79.301 154.619,73.037 147.275,73.037L145.908,73.037C139.932,73.037 134.891,76.709 132.947,82.397L140.795,84.917C141.371,82.685 143.603,80.957 146.195,80.669L146.699,80.669C150.083,80.669 152.675,83.477 152.675,86.573C152.675,89.957 150.083,92.549 146.699,92.549L144.468,92.549L144.468,100.109L146.699,100.109C150.659,100.109 153.755,103.205 153.755,107.164C153.755,111.124 150.659,114.221 146.699,114.221C143.603,114.509 140.507,112.276 139.643,109.469L131.795,111.989C134.028,117.893 139.643,121.852 145.908,121.852L147.275,121.852Z" style="fill:none;stroke:rgb(35,31,32);stroke-width:0.22px;"/>
        <path d="M109.763,116.236C109.763,118.469 111.492,120.124 113.723,120.124C114.588,120.124 115.451,119.909 116.028,119.332C116.243,119.909 116.531,120.413 116.531,121.276C116.531,123.292 114.875,124.949 112.859,124.949L112.643,124.949L112.643,128.332C118.547,128.332 123.011,123.796 123.011,117.893C123.011,115.949 122.507,113.933 121.643,112.564C120.492,110.836 118.547,109.757 116.243,109.757C112.643,109.757 109.763,112.852 109.763,116.236Z" style="fill:rgb(35,31,32);fill-rule:nonzero;"/>
        <path d="M109.763,116.236C109.763,118.469 111.492,120.124 113.723,120.124C114.588,120.124 115.451,119.909 116.028,119.332C116.243,119.909 116.531,120.413 116.531,121.276C116.531,123.292 114.875,124.949 112.859,124.949L112.643,124.949L112.643,128.332C118.547,128.332 123.011,123.796 123.011,117.893C123.011,115.949 122.507,113.933 121.643,112.564C120.492,110.836 118.547,109.757 116.243,109.757C112.643,109.757 109.763,112.852 109.763,116.236Z" style="fill:none;stroke:rgb(35,31,32);stroke-width:0.22px;"/>
        <path d="M73.115,77.573C74.555,66.844 90.323,67.709 90.323,78.724L90.323,79.013C90.035,82.685 88.667,86.069 86.075,88.877L64.115,111.413L64.115,120.413L100.763,120.413L100.763,110.836L79.307,110.836L93.42,96.221C96.516,93.053 98.531,89.165 99.899,84.917C100.475,83.189 100.763,80.957 100.763,79.013C100.763,68.285 92.339,59.789 81.611,59.789C72.323,59.789 64.403,66.269 62.675,75.628L73.115,77.573Z" style="fill:rgb(35,31,32);fill-rule:nonzero;"/>
        <path d="M73.115,77.573C74.555,66.844 90.323,67.709 90.323,78.724L90.323,79.013C90.035,82.685 88.667,86.069 86.075,88.877L64.115,111.413L64.115,120.413L100.763,120.413L100.763,110.836L79.307,110.836L93.42,96.221C96.516,93.053 98.531,89.165 99.899,84.917C100.475,83.189 100.763,80.957 100.763,79.013C100.763,68.285 92.339,59.789 81.611,59.789C72.323,59.789 64.403,66.269 62.675,75.628L73.115,77.573Z" style="fill:none;stroke:rgb(35,31,32);stroke-width:0.22px;"/>
    </g>
</svg>
