<?xml version="1.0" encoding="UTF-8" standalone="no"?>
<!DOCTYPE svg PUBLIC "-//W3C//DTD SVG 1.1//EN" "http://www.w3.org/Graphics/SVG/1.1/DTD/svg11.dtd">
<svg width="100%" height="100%" viewBox="0 0 596 596" version="1.1" xmlns="http://www.w3.org/2000/svg" xmlns:xlink="http://www.w3.org/1999/xlink" xml:space="preserve" xmlns:serif="http://www.serif.com/" style="fill-rule:evenodd;clip-rule:evenodd;stroke-linecap:round;stroke-linejoin:round;stroke-miterlimit:2;">
    <g>
        <rect x="0.354" y="1.079" width="594.568" height="594.568" style="fill-rule:nonzero;"/>
        <rect x="0.354" y="1.079" width="594.568" height="594.568" style="fill:none;stroke:black;stroke-width:0.71px;"/>
        <rect x="18.648" y="19.374" width="557.979" height="557.979" style="fill:white;fill-rule:nonzero;"/>
        <rect x="18.648" y="19.374" width="557.979" height="557.979" style="fill:none;stroke:black;stroke-width:0.71px;"/>
        <path d="M87.125,186.493C85.408,185.291 84.386,183.328 84.386,181.233C84.386,179.138 85.408,177.175 87.125,175.973L231.308,75.015C232.726,74.022 234.603,73.981 236.063,74.911C237.524,75.842 238.28,77.56 237.979,79.265L226.29,145.559L321.421,145.559C359.266,145.559 395.562,160.593 422.322,187.354C449.082,214.115 464.116,250.41 464.116,288.255L464.116,502.894L392.769,502.894L392.769,288.255C392.769,269.332 385.251,251.184 371.872,237.805C358.491,224.424 340.344,216.907 321.421,216.907L226.29,216.907L237.979,283.201C238.28,284.906 237.524,286.625 236.063,287.555C234.603,288.485 232.726,288.445 231.308,287.451L87.125,186.493Z" style="fill-rule:nonzero;"/>
        <path d="M87.125,186.493C85.408,185.291 84.386,183.328 84.386,181.233C84.386,179.138 85.408,177.175 87.125,175.973L231.308,75.015C232.726,74.022 234.603,73.981 236.063,74.911C237.524,75.842 238.28,77.56 237.979,79.265L226.29,145.559L321.421,145.559C359.266,145.559 395.562,160.593 422.322,187.354C449.082,214.115 464.116,250.41 464.116,288.255L464.116,502.894L392.769,502.894L392.769,288.255C392.769,269.332 385.251,251.184 371.872,237.805C358.491,224.424 340.344,216.907 321.421,216.907L226.29,216.907L237.979,283.201C238.28,284.906 237.524,286.625 236.063,287.555C234.603,288.485 232.726,288.445 231.308,287.451L87.125,186.493Z" style="fill:none;stroke:black;stroke-width:0.71px;"/>
    </g>
</svg>
