<?xml version="1.0" encoding="UTF-8" standalone="no"?>
<!DOCTYPE svg PUBLIC "-//W3C//DTD SVG 1.1//EN" "http://www.w3.org/Graphics/SVG/1.1/DTD/svg11.dtd">
<svg width="100%" height="100%" viewBox="0 0 228 228" version="1.1" xmlns="http://www.w3.org/2000/svg" xmlns:xlink="http://www.w3.org/1999/xlink" xml:space="preserve" xmlns:serif="http://www.serif.com/" style="fill-rule:evenodd;clip-rule:evenodd;stroke-miterlimit:2;">
    <g>
        <path d="M227.268,114.42C227.268,51.925 176.076,0.732 113.58,0.732C51.299,0.732 0.107,51.925 0.107,114.42C0.107,176.701 51.299,227.893 113.58,227.893C176.076,227.893 227.268,176.701 227.268,114.42Z" style="fill:rgb(0,64,128);fill-rule:nonzero;"/>
        <path d="M227.268,114.42C227.268,51.925 176.076,0.732 113.58,0.732C51.299,0.732 0.107,51.925 0.107,114.42C0.107,176.701 51.299,227.893 113.58,227.893C176.076,227.893 227.268,176.701 227.268,114.42Z" style="fill:none;stroke:rgb(0,64,128);stroke-width:0.22px;"/>
        <path d="M18.611,122.701C17.459,122.124 17.459,120.685 18.611,119.821L64.907,87.421C65.771,86.845 66.923,87.421 66.923,88.573L66.923,88.861L63.251,109.885L107.027,109.885C116.1,109.885 124.883,112.477 132.587,117.301L132.587,67.837L111.275,71.797C110.413,71.797 109.835,71.221 109.835,70.357L109.835,69.565L142.523,23.197C143.1,22.333 144.54,22.333 145.116,23.197L177.803,69.565C177.803,69.853 178.091,70.069 178.091,70.357C178.091,71.221 177.228,71.797 176.651,71.797L176.363,71.797L155.339,67.837L155.339,204.853L132.587,204.853L132.587,158.269C132.587,144.301 120.924,132.637 107.027,132.637L63.251,132.637L66.923,153.949C66.923,154.812 66.347,155.389 65.483,155.389C65.195,155.389 64.907,155.389 64.907,155.101L18.611,122.701Z" style="fill:white;fill-rule:nonzero;"/>
        <path d="M18.611,122.701C17.459,122.124 17.459,120.685 18.611,119.821L64.907,87.421C65.771,86.845 66.923,87.421 66.923,88.573L66.923,88.861L63.251,109.885L107.027,109.885C116.1,109.885 124.883,112.477 132.587,117.301L132.587,67.837L111.275,71.797C110.413,71.797 109.835,71.221 109.835,70.357L109.835,69.565L142.523,23.197C143.1,22.333 144.54,22.333 145.116,23.197L177.803,69.565C177.803,69.853 178.091,70.069 178.091,70.357C178.091,71.221 177.228,71.797 176.651,71.797L176.363,71.797L155.339,67.837L155.339,204.853L132.587,204.853L132.587,158.269C132.587,144.301 120.924,132.637 107.027,132.637L63.251,132.637L66.923,153.949C66.923,154.812 66.347,155.389 65.483,155.389C65.195,155.389 64.907,155.389 64.907,155.101L18.611,122.701Z" style="fill:none;stroke:white;stroke-width:0.22px;"/>
        <path d="M223.308,114.42C223.308,53.869 174.131,4.693 113.58,4.693C53.243,4.693 4.067,53.869 4.067,114.42C4.067,174.757 53.243,223.933 113.58,223.933C174.131,223.933 223.308,174.757 223.308,114.42Z" style="fill:none;stroke:white;stroke-width:3.96px;"/>
    </g>
</svg>
