<?xml version="1.0" encoding="UTF-8" standalone="no"?>
<!DOCTYPE svg PUBLIC "-//W3C//DTD SVG 1.1//EN" "http://www.w3.org/Graphics/SVG/1.1/DTD/svg11.dtd">
<svg width="100%" height="100%" viewBox="0 0 596 596" version="1.1" xmlns="http://www.w3.org/2000/svg" xmlns:xlink="http://www.w3.org/1999/xlink" xml:space="preserve" xmlns:serif="http://www.serif.com/" style="fill-rule:evenodd;clip-rule:evenodd;stroke-linecap:round;stroke-linejoin:round;stroke-miterlimit:2;">
    <g>
        <rect x="0.354" y="1.079" width="594.568" height="594.568" style="fill-rule:nonzero;"/>
        <rect x="0.354" y="1.079" width="594.568" height="594.568" style="fill:none;stroke:black;stroke-width:0.71px;"/>
        <rect x="18.648" y="19.374" width="557.979" height="557.979" style="fill:white;fill-rule:nonzero;"/>
        <rect x="18.648" y="19.374" width="557.979" height="557.979" style="fill:none;stroke:black;stroke-width:0.71px;"/>
        <path d="M128.675,76.023L159.24,249.364C159.541,251.069 160.839,252.425 162.529,252.799C164.22,253.175 165.969,252.494 166.962,251.076L205.574,195.933L310.375,300.734C332.675,323.035 345.203,353.281 345.203,384.818L345.203,520.733L416.552,520.733L416.552,384.818C416.552,334.358 396.507,285.964 360.825,250.283L256.023,145.482L311.167,106.871C312.585,105.878 313.266,104.128 312.891,102.437C312.517,100.747 311.16,99.449 309.455,99.149L136.114,68.584C134.05,68.221 131.939,68.886 130.457,70.367C128.977,71.849 128.311,73.96 128.675,76.023Z" style="fill-rule:nonzero;"/>
        <path d="M128.675,76.023L159.24,249.364C159.541,251.069 160.839,252.425 162.529,252.799C164.22,253.175 165.969,252.494 166.962,251.076L205.574,195.933L310.375,300.734C332.675,323.035 345.203,353.281 345.203,384.818L345.203,520.733L416.552,520.733L416.552,384.818C416.552,334.358 396.507,285.964 360.825,250.283L256.023,145.482L311.167,106.871C312.585,105.878 313.266,104.128 312.891,102.437C312.517,100.747 311.16,99.449 309.455,99.149L136.114,68.584C134.05,68.221 131.939,68.886 130.457,70.367C128.977,71.849 128.311,73.96 128.675,76.023Z" style="fill:none;stroke:black;stroke-width:0.71px;"/>
    </g>
</svg>
