<?xml version="1.0" encoding="UTF-8" standalone="no"?>
<!DOCTYPE svg PUBLIC "-//W3C//DTD SVG 1.1//EN" "http://www.w3.org/Graphics/SVG/1.1/DTD/svg11.dtd">
<svg width="100%" height="100%" viewBox="0 0 596 522" version="1.1" xmlns="http://www.w3.org/2000/svg" xmlns:xlink="http://www.w3.org/1999/xlink" xml:space="preserve" xmlns:serif="http://www.serif.com/" style="fill-rule:evenodd;clip-rule:evenodd;stroke-linecap:round;stroke-linejoin:round;stroke-miterlimit:2;">
    <g>
        <path d="M315.683,11.571L592.129,490.391C595.851,496.838 595.851,504.78 592.129,511.228C588.407,517.673 581.528,521.645 574.085,521.645L21.19,521.645C13.746,521.645 6.868,517.673 3.146,511.228C-0.575,504.78 -0.575,496.838 3.146,490.391L279.594,11.571C283.316,5.125 290.194,1.153 297.638,1.153C305.082,1.153 311.96,5.125 315.683,11.571Z" style="fill:rgb(211,63,39);fill-rule:nonzero;"/>
        <path d="M315.683,11.571L592.129,490.391C595.851,496.838 595.851,504.78 592.129,511.228C588.407,517.673 581.528,521.645 574.085,521.645L21.19,521.645C13.746,521.645 6.868,517.673 3.146,511.228C-0.575,504.78 -0.575,496.838 3.146,490.391L279.594,11.571C283.316,5.125 290.194,1.153 297.638,1.153C305.082,1.153 311.96,5.125 315.683,11.571Z" style="fill:none;stroke:rgb(211,63,39);stroke-width:0.71px;"/>
        <path d="M93.367,459.138L297.638,105.332L501.908,459.138L93.367,459.138Z" style="fill:white;fill-rule:nonzero;"/>
        <path d="M93.367,459.138L297.638,105.332L501.908,459.138L93.367,459.138Z" style="fill:none;stroke:white;stroke-width:0.71px;"/>
        <path d="M312.262,327.185L341.888,327.185C346.342,327.361 350.777,327.878 355.154,328.731L378.146,300.716L393.924,300.716L378.339,342.384L393.924,384.051L378.146,384.051L355.154,356.036C350.786,356.944 346.346,357.46 341.888,357.582L312.262,357.582L346.138,446.586L326.108,446.586L253.398,357.582L206.515,357.582C202.259,357.558 198.029,356.92 193.954,355.689C189.427,354.414 185.313,351.972 182.025,348.608C180.286,347.005 179.297,344.748 179.297,342.384C179.297,340.019 180.286,337.762 182.025,336.159C185.313,332.795 189.427,330.353 193.954,329.078C198.029,327.847 202.259,327.209 206.515,327.185L253.398,327.185L326.108,238.052L346.138,238.052L312.262,327.185Z" style="fill:rgb(3,4,4);fill-rule:nonzero;"/>
        <path d="M312.262,327.185L341.888,327.185C346.342,327.361 350.777,327.878 355.154,328.731L378.146,300.716L393.924,300.716L378.339,342.384L393.924,384.051L378.146,384.051L355.154,356.036C350.786,356.944 346.346,357.46 341.888,357.582L312.262,357.582L346.138,446.586L326.108,446.586L253.398,357.582L206.515,357.582C202.259,357.558 198.029,356.92 193.954,355.689C189.427,354.414 185.313,351.972 182.025,348.608C180.286,347.005 179.297,344.748 179.297,342.384C179.297,340.019 180.286,337.762 182.025,336.159C185.313,332.795 189.427,330.353 193.954,329.078C198.029,327.847 202.259,327.209 206.515,327.185L253.398,327.185L326.108,238.052L346.138,238.052L312.262,327.185Z" style="fill:none;stroke:rgb(3,4,4);stroke-width:0.71px;"/>
    </g>
</svg>
