<?xml version="1.0" encoding="UTF-8" standalone="no"?>
<!DOCTYPE svg PUBLIC "-//W3C//DTD SVG 1.1//EN" "http://www.w3.org/Graphics/SVG/1.1/DTD/svg11.dtd">
<svg width="100%" height="100%" viewBox="0 0 285 289" version="1.1" xmlns="http://www.w3.org/2000/svg" xmlns:xlink="http://www.w3.org/1999/xlink" xml:space="preserve" xmlns:serif="http://www.serif.com/" style="fill-rule:evenodd;clip-rule:evenodd;stroke-miterlimit:2;">
    <g>
        <path d="M14.507,3.917L269.747,3.917C276.155,3.917 281.267,9.101 281.267,15.437L281.267,274.492C281.267,280.9 276.155,286.012 269.747,286.012L14.507,286.012C8.171,286.084 2.987,280.9 2.987,274.492L2.987,15.437C2.987,9.101 8.171,3.917 14.507,3.917Z" style="fill:rgb(35,31,32);fill-rule:nonzero;"/>
        <path d="M14.507,3.917L269.747,3.917C276.155,3.917 281.267,9.101 281.267,15.437L281.267,274.492C281.267,280.9 276.155,286.012 269.747,286.012L14.507,286.012C8.171,286.084 2.987,280.9 2.987,274.492L2.987,15.437C2.987,9.101 8.171,3.917 14.507,3.917Z" style="fill:none;stroke:rgb(35,31,32);stroke-width:0.22px;"/>
        <path d="M14.507,9.677L269.747,9.677C272.987,9.677 275.507,12.269 275.507,15.437L275.507,274.492C275.507,277.732 272.987,280.251 269.747,280.323L14.507,280.323C11.339,280.323 8.747,277.732 8.747,274.492L8.747,15.437C8.747,12.269 11.339,9.677 14.507,9.677Z" style="fill:white;fill-rule:nonzero;"/>
        <path d="M14.507,9.677L269.747,9.677C272.987,9.677 275.507,12.269 275.507,15.437L275.507,274.492C275.507,277.732 272.987,280.251 269.747,280.323L14.507,280.323C11.339,280.323 8.747,277.732 8.747,274.492L8.747,15.437C8.747,12.269 11.339,9.677 14.507,9.677Z" style="fill:none;stroke:rgb(35,31,32);stroke-width:0.22px;"/>
        <path d="M46.187,76.349L46.187,179.02L27.035,159.868L27.035,184.78L55.763,213.58L84.563,184.78L84.563,159.868L65.411,179.02L65.411,76.349L46.187,76.349Z" style="fill:rgb(35,31,32);fill-rule:nonzero;"/>
        <path d="M46.187,76.349L46.187,179.02L27.035,159.868L27.035,184.78L55.763,213.58L84.563,184.78L84.563,159.868L65.411,179.02L65.411,76.349L46.187,76.349Z" style="fill:none;stroke:rgb(35,31,32);stroke-width:0.22px;"/>
        <path d="M124.883,264.916L124.883,64.324L105.66,83.549L105.66,58.636L134.459,29.837L163.259,58.636L163.259,83.549L144.035,64.324L144.035,264.916L124.883,264.916Z" style="fill:rgb(35,31,32);fill-rule:nonzero;"/>
        <path d="M124.883,264.916L124.883,64.324L105.66,83.549L105.66,58.636L134.459,29.837L163.259,58.636L163.259,83.549L144.035,64.324L144.035,264.916L124.883,264.916Z" style="fill:none;stroke:rgb(35,31,32);stroke-width:0.22px;"/>
        <path d="M163.259,103.204L163.259,143.884L180.827,161.524L180.827,134.38L215.027,168.508C223.955,177.508 229.067,189.676 229.067,202.419L229.067,264.916L248.219,264.916L248.219,202.419C248.219,184.636 241.163,167.5 228.563,154.972L194.435,120.844L221.579,120.844L203.939,103.204L163.259,103.204Z" style="fill:rgb(211,63,39);fill-rule:nonzero;"/>
        <path d="M163.259,103.204L163.259,143.884L180.827,161.524L180.827,134.38L215.027,168.508C223.955,177.508 229.067,189.676 229.067,202.419L229.067,264.916L248.219,264.916L248.219,202.419C248.219,184.636 241.163,167.5 228.563,154.972L194.435,120.844L221.579,120.844L203.939,103.204L163.259,103.204Z" style="fill:none;stroke:rgb(211,63,39);stroke-width:0.22px;"/>
    </g>
</svg>
