<?xml version="1.0" encoding="UTF-8" standalone="no"?>
<!DOCTYPE svg PUBLIC "-//W3C//DTD SVG 1.1//EN" "http://www.w3.org/Graphics/SVG/1.1/DTD/svg11.dtd">
<svg width="100%" height="100%" viewBox="0 0 596 596" version="1.1" xmlns="http://www.w3.org/2000/svg" xmlns:xlink="http://www.w3.org/1999/xlink" xml:space="preserve" xmlns:serif="http://www.serif.com/" style="fill-rule:evenodd;clip-rule:evenodd;stroke-linecap:round;stroke-linejoin:round;stroke-miterlimit:2;">
    <g>
        <path d="M59.81,595.647L535.465,595.647C551.234,595.647 566.356,589.382 577.507,578.232C588.657,567.081 594.922,551.958 594.922,536.19L594.922,60.536C594.922,44.767 588.657,29.644 577.507,18.494C566.356,7.344 551.234,1.079 535.465,1.079L59.81,1.079C44.042,1.079 28.918,7.344 17.768,18.494C6.618,29.644 0.354,44.767 0.354,60.536L0.354,536.19C0.354,551.958 6.618,567.081 17.768,578.232C28.918,589.382 44.042,595.647 59.81,595.647Z" style="fill:rgb(0,64,128);fill-rule:nonzero;"/>
        <path d="M59.81,595.647L535.465,595.647C551.234,595.647 566.356,589.382 577.507,578.232C588.657,567.081 594.922,551.958 594.922,536.19L594.922,60.536C594.922,44.767 588.657,29.644 577.507,18.494C566.356,7.344 551.234,1.079 535.465,1.079L59.81,1.079C44.042,1.079 28.918,7.344 17.768,18.494C6.618,29.644 0.354,44.767 0.354,60.536L0.354,536.19C0.354,551.958 6.618,567.081 17.768,578.232C28.918,589.382 44.042,595.647 59.81,595.647Z" style="fill:none;stroke:rgb(0,104,178);stroke-width:0.71px;"/>
        <path d="M280.82,199.268L287.207,42.804L235.052,42.804L193.541,199.268L280.82,199.268Z" style="fill:white;fill-rule:nonzero;"/>
        <path d="M280.82,199.268L287.207,42.804L235.052,42.804L193.541,199.268L280.82,199.268Z" style="fill:none;stroke:white;stroke-width:0.71px;"/>
        <path d="M314.456,199.268L401.735,199.268L360.225,42.804L308.068,42.804L314.456,199.268Z" style="fill:white;fill-rule:nonzero;"/>
        <path d="M314.456,199.268L401.735,199.268L360.225,42.804L308.068,42.804L314.456,199.268Z" style="fill:none;stroke:white;stroke-width:0.71px;"/>
        <path d="M42.078,256.639L42.078,230.561L553.197,230.561L553.197,256.639L495.826,256.639L495.826,298.363L460.401,298.363L449.331,256.639L145.944,256.639L134.875,298.363L99.448,298.363L99.448,256.639L42.078,256.639Z" style="fill:white;fill-rule:nonzero;"/>
        <path d="M42.078,256.639L42.078,230.561L553.197,230.561L553.197,256.639L495.826,256.639L495.826,298.363L460.401,298.363L449.331,256.639L145.944,256.639L134.875,298.363L99.448,298.363L99.448,256.639L42.078,256.639Z" style="fill:none;stroke:white;stroke-width:0.71px;"/>
        <path d="M167.25,298.363L99.448,553.922L266.345,553.922L276.776,298.363L167.25,298.363Z" style="fill:white;fill-rule:nonzero;"/>
        <path d="M167.25,298.363L99.448,553.922L266.345,553.922L276.776,298.363L167.25,298.363Z" style="fill:none;stroke:white;stroke-width:0.71px;"/>
        <path d="M495.826,553.922L428.025,298.363L318.5,298.363L328.931,553.922L495.826,553.922Z" style="fill:white;fill-rule:nonzero;"/>
        <path d="M495.826,553.922L428.025,298.363L318.5,298.363L328.931,553.922L495.826,553.922Z" style="fill:none;stroke:white;stroke-width:0.71px;"/>
    </g>
</svg>
