<?xml version="1.0" encoding="UTF-8" standalone="no"?>
<!DOCTYPE svg PUBLIC "-//W3C//DTD SVG 1.1//EN" "http://www.w3.org/Graphics/SVG/1.1/DTD/svg11.dtd">
<svg width="100%" height="100%" viewBox="0 0 256 224" version="1.1" xmlns="http://www.w3.org/2000/svg" xmlns:xlink="http://www.w3.org/1999/xlink" xml:space="preserve" xmlns:serif="http://www.serif.com/" style="fill-rule:evenodd;clip-rule:evenodd;stroke-miterlimit:2;">
    <g>
        <path d="M135.396,5.085L254.051,210.501C254.771,211.869 255.203,213.38 255.203,214.964C255.203,219.86 251.172,223.893 246.275,223.893L9.035,223.893C4.139,223.893 0.107,219.86 0.107,214.964C0.107,213.38 0.539,211.796 1.259,210.429L119.916,5.085C123.443,-0.963 132.011,-0.963 135.396,5.085Z" style="fill:rgb(211,63,39);fill-rule:nonzero;"/>
        <path d="M135.396,5.085L254.051,210.501C254.771,211.869 255.203,213.38 255.203,214.964C255.203,219.86 251.172,223.893 246.275,223.893L9.035,223.893C4.139,223.893 0.107,219.86 0.107,214.964C0.107,213.38 0.539,211.796 1.259,210.429L119.916,5.085C123.443,-0.963 132.011,-0.963 135.396,5.085Z" style="fill:none;stroke:rgb(211,63,39);stroke-width:0.22px;"/>
        <path d="M215.315,197.037L39.996,197.037L127.619,45.333L215.315,197.037Z" style="fill:white;fill-rule:nonzero;"/>
        <path d="M215.315,197.037L39.996,197.037L127.619,45.333L215.315,197.037Z" style="fill:none;stroke:white;stroke-width:0.22px;"/>
        <path d="M130.931,131.877C130.5,132.021 129.996,131.661 129.996,131.157C129.996,130.941 130.067,130.796 130.211,130.652L149.219,103.581C149.652,102.933 150.659,102.933 151.092,103.581L170.1,130.652C170.171,130.796 170.171,130.941 170.171,131.157C170.171,131.588 169.883,132.021 169.451,132.021C169.379,132.021 169.379,131.877 169.379,131.877L156.852,129.79L156.852,188.756L143.459,188.756L143.459,129.79L130.931,131.877Z" style="fill:rgb(35,31,32);fill-rule:nonzero;"/>
        <path d="M130.931,131.877C130.5,132.021 129.996,131.661 129.996,131.157C129.996,130.941 130.067,130.796 130.211,130.652L149.219,103.581C149.652,102.933 150.659,102.933 151.092,103.581L170.1,130.652C170.171,130.796 170.171,130.941 170.171,131.157C170.171,131.588 169.883,132.021 169.451,132.021C169.379,132.021 169.379,131.877 169.379,131.877L156.852,129.79L156.852,188.756L143.459,188.756L143.459,129.79L130.931,131.877Z" style="fill:none;stroke:rgb(35,31,32);stroke-width:0.22px;"/>
        <path d="M104.219,190.484L85.211,163.269C84.779,162.765 85.211,162.045 85.859,162.045C85.931,162.045 85.931,162.045 85.931,162.117L98.459,164.276L98.459,105.236L111.852,105.236L111.852,164.276L124.379,162.117C124.812,162.045 125.315,162.333 125.315,162.909C125.315,163.125 125.243,163.197 125.1,163.269L106.091,190.484C105.659,191.133 104.651,191.133 104.219,190.484Z" style="fill:rgb(35,31,32);fill-rule:nonzero;"/>
        <path d="M104.219,190.484L85.211,163.269C84.779,162.765 85.211,162.045 85.859,162.045C85.931,162.045 85.931,162.045 85.931,162.117L98.459,164.276L98.459,105.236L111.852,105.236L111.852,164.276L124.379,162.117C124.812,162.045 125.315,162.333 125.315,162.909C125.315,163.125 125.243,163.197 125.1,163.269L106.091,190.484C105.659,191.133 104.651,191.133 104.219,190.484Z" style="fill:none;stroke:rgb(35,31,32);stroke-width:0.22px;"/>
    </g>
</svg>
