<?xml version="1.0" encoding="UTF-8" standalone="no"?>
<!DOCTYPE svg PUBLIC "-//W3C//DTD SVG 1.1//EN" "http://www.w3.org/Graphics/SVG/1.1/DTD/svg11.dtd">
<svg width="100%" height="100%" viewBox="0 0 317 842" version="1.1" xmlns="http://www.w3.org/2000/svg" xmlns:xlink="http://www.w3.org/1999/xlink" xml:space="preserve" xmlns:serif="http://www.serif.com/" style="fill-rule:evenodd;clip-rule:evenodd;stroke-linecap:round;stroke-linejoin:round;stroke-miterlimit:2;">
    <g>
        <rect x="0.354" y="0.464" width="315.443" height="841.181" style="fill-rule:nonzero;"/>
        <rect x="0.354" y="0.464" width="315.443" height="841.181" style="fill:none;stroke:black;stroke-width:0.71px;"/>
        <rect x="21.383" y="21.494" width="273.385" height="799.122" style="fill:white;fill-rule:nonzero;"/>
        <rect x="21.383" y="21.494" width="273.385" height="799.122" style="fill:none;stroke:black;stroke-width:0.71px;"/>
        <path d="M162.727,46.178L251.998,173.67C252.875,174.924 252.912,176.584 252.089,177.875C251.267,179.166 249.748,179.835 248.24,179.569L189.621,169.233L189.621,399.506L126.532,399.506L126.532,169.233L67.912,179.569C66.403,179.835 64.884,179.166 64.061,177.875C63.239,176.584 63.275,174.924 64.153,173.67L153.425,46.178C154.487,44.661 156.223,43.757 158.076,43.757C159.928,43.757 161.665,44.661 162.727,46.178Z" style="fill-rule:nonzero;"/>
        <path d="M162.727,46.178L251.998,173.67C252.875,174.924 252.912,176.584 252.089,177.875C251.267,179.166 249.748,179.835 248.24,179.569L189.621,169.233L189.621,399.506L126.532,399.506L126.532,169.233L67.912,179.569C66.403,179.835 64.884,179.166 64.061,177.875C63.239,176.584 63.275,174.924 64.153,173.67L153.425,46.178C154.487,44.661 156.223,43.757 158.076,43.757C159.928,43.757 161.665,44.661 162.727,46.178Z" style="fill:none;stroke:black;stroke-width:0.71px;"/>
        <path d="M162.727,795.932L251.998,668.44C252.875,667.185 252.912,665.526 252.089,664.234C251.267,662.943 249.748,662.275 248.24,662.541L189.621,672.877L189.621,442.603L126.532,442.603L126.532,672.877L67.912,662.541C66.403,662.275 64.884,662.943 64.061,664.234C63.239,665.526 63.275,667.185 64.153,668.44L153.425,795.932C154.487,797.449 156.223,798.353 158.076,798.353C159.928,798.353 161.665,797.449 162.727,795.932Z" style="fill-rule:nonzero;"/>
        <path d="M162.727,795.932L251.998,668.44C252.875,667.185 252.912,665.526 252.089,664.234C251.267,662.943 249.748,662.275 248.24,662.541L189.621,672.877L189.621,442.603L126.532,442.603L126.532,672.877L67.912,662.541C66.403,662.275 64.884,662.943 64.061,664.234C63.239,665.526 63.275,667.185 64.153,668.44L153.425,795.932C154.487,797.449 156.223,798.353 158.076,798.353C159.928,798.353 161.665,797.449 162.727,795.932Z" style="fill:none;stroke:black;stroke-width:0.71px;"/>
    </g>
</svg>
