<?xml version="1.0" encoding="UTF-8" standalone="no"?>
<!DOCTYPE svg PUBLIC "-//W3C//DTD SVG 1.1//EN" "http://www.w3.org/Graphics/SVG/1.1/DTD/svg11.dtd">
<svg width="100%" height="100%" viewBox="0 0 315 315" version="1.1" xmlns="http://www.w3.org/2000/svg" xmlns:xlink="http://www.w3.org/1999/xlink" xml:space="preserve" xmlns:serif="http://www.serif.com/" style="fill-rule:evenodd;clip-rule:evenodd;stroke-linejoin:round;stroke-miterlimit:2;">
    <g>
        <path d="M314,24.5L311.75,18L308,12L303,7L297,3.25L290.25,1L283.5,0L31.5,0L24.5,1L17.75,3.25L11.75,7L7,12L3.25,18L0.75,24.5L0,31.75L0,283.5L0.75,290.5L3.25,297.25L7,303.25L11.75,308.25L17.75,312L24.5,314.25L31.5,315L283.5,315L290.25,314.25L297,312L303,308.25L308,303.25L311.75,297.25L314,290.5L314.75,283.5L314.75,31.75L314,24.5Z" style="fill:rgb(248,152,40);"/>
        <rect x="37.75" y="38" width="239.5" height="239.25" style="fill:rgb(35,31,32);"/>
        <rect x="69.25" y="69.5" width="176.25" height="176.25" style="fill:rgb(248,152,40);"/>
    </g>
</svg>
