<?xml version="1.0" encoding="UTF-8" standalone="no"?>
<!DOCTYPE svg PUBLIC "-//W3C//DTD SVG 1.1//EN" "http://www.w3.org/Graphics/SVG/1.1/DTD/svg11.dtd">
<svg width="100%" height="100%" viewBox="0 0 228 228" version="1.1" xmlns="http://www.w3.org/2000/svg" xmlns:xlink="http://www.w3.org/1999/xlink" xml:space="preserve" xmlns:serif="http://www.serif.com/" style="fill-rule:evenodd;clip-rule:evenodd;stroke-miterlimit:2;">
    <g>
        <path d="M227.123,114.493C227.123,51.997 176.003,0.877 113.507,0.877C51.227,0.877 0.107,51.997 0.107,114.493C0.107,176.772 51.227,227.893 113.507,227.893C176.003,227.893 227.123,176.772 227.123,114.493Z" style="fill:rgb(211,63,39);fill-rule:nonzero;"/>
        <path d="M227.123,114.493C227.123,51.997 176.003,0.877 113.507,0.877C51.227,0.877 0.107,51.997 0.107,114.493C0.107,176.772 51.227,227.893 113.507,227.893C176.003,227.893 227.123,176.772 227.123,114.493Z" style="fill:none;stroke:rgb(211,63,39);stroke-width:0.22px;"/>
        <path d="M178.523,169.644C191.627,154.02 198.683,134.725 198.683,114.493C198.683,67.333 160.667,29.317 113.507,29.317C93.275,29.317 73.979,36.373 58.355,49.477L178.523,169.644Z" style="fill:white;fill-rule:nonzero;"/>
        <path d="M178.523,169.644C191.627,154.02 198.683,134.725 198.683,114.493C198.683,67.333 160.667,29.317 113.507,29.317C93.275,29.317 73.979,36.373 58.355,49.477L178.523,169.644Z" style="fill:none;stroke:rgb(241,93,42);stroke-width:0.22px;"/>
        <path d="M168.587,179.581L48.419,59.413C35.315,74.748 28.259,94.333 28.259,114.493C28.259,161.725 66.275,199.741 113.507,199.741C133.667,199.741 153.251,192.685 168.587,179.581Z" style="fill:white;fill-rule:nonzero;"/>
        <path d="M168.587,179.581L48.419,59.413C35.315,74.748 28.259,94.333 28.259,114.493C28.259,161.725 66.275,199.741 113.507,199.741C133.667,199.741 153.251,192.685 168.587,179.581Z" style="fill:none;stroke:rgb(241,93,42);stroke-width:0.22px;"/>
        <path d="M87.875,98.868C83.051,105.708 80.531,113.701 80.531,121.909L80.531,185.557L100.98,185.557L100.98,122.197C100.98,119.389 101.555,116.509 102.707,113.989L87.875,98.868Z" style="fill:rgb(35,31,32);fill-rule:nonzero;"/>
        <path d="M87.875,98.868C83.051,105.708 80.531,113.701 80.531,121.909L80.531,185.557L100.98,185.557L100.98,122.197C100.98,119.389 101.555,116.509 102.707,113.989L87.875,98.868Z" style="fill:none;stroke:rgb(35,31,32);stroke-width:0.22px;"/>
        <path d="M112.643,103.477C115.451,102.037 118.619,101.459 121.715,101.459L161.459,101.459L159.803,111.108C159.803,111.685 160.091,111.973 160.379,111.973C160.667,111.973 160.667,111.973 160.956,111.685L188.747,92.101C189.035,92.101 189.323,91.525 189.323,91.237C189.323,90.949 189.035,90.661 188.747,90.373L160.956,70.789C160.667,70.789 160.667,70.501 160.379,70.501C160.091,70.501 159.803,71.077 159.803,71.365L159.803,71.652L161.171,81.013L121.715,81.013C113.219,81.013 104.651,83.532 97.811,88.645L112.643,103.477Z" style="fill:rgb(35,31,32);fill-rule:nonzero;"/>
        <path d="M112.643,103.477C115.451,102.037 118.619,101.459 121.715,101.459L161.459,101.459L159.803,111.108C159.803,111.685 160.091,111.973 160.379,111.973C160.667,111.973 160.667,111.973 160.956,111.685L188.747,92.101C189.035,92.101 189.323,91.525 189.323,91.237C189.323,90.949 189.035,90.661 188.747,90.373L160.956,70.789C160.667,70.789 160.667,70.501 160.379,70.501C160.091,70.501 159.803,71.077 159.803,71.365L159.803,71.652L161.171,81.013L121.715,81.013C113.219,81.013 104.651,83.532 97.811,88.645L112.643,103.477Z" style="fill:none;stroke:rgb(35,31,32);stroke-width:0.22px;"/>
    </g>
</svg>
