<?xml version="1.0" encoding="UTF-8" standalone="no"?>
<!DOCTYPE svg PUBLIC "-//W3C//DTD SVG 1.1//EN" "http://www.w3.org/Graphics/SVG/1.1/DTD/svg11.dtd">
<svg width="100%" height="100%" viewBox="0 0 605 615" version="1.1" xmlns="http://www.w3.org/2000/svg" xmlns:xlink="http://www.w3.org/1999/xlink" xml:space="preserve" xmlns:serif="http://www.serif.com/" style="fill-rule:evenodd;clip-rule:evenodd;stroke-linecap:square;stroke-miterlimit:2;">
    <g>
        <path d="M585.375,614.625L588.375,614.375L591.125,613.625L593.875,612.375L596.375,610.875L598.625,609.125L600.625,606.875L602.125,604.375L603.375,601.625L604.125,598.625L604.125,16.375L603.375,13.375L602.125,10.625L600.625,8.125L598.625,6.125L596.375,4.125L593.875,2.625L591.125,1.375L588.375,0.625L585.375,0.375L19.125,0.375L16.125,0.625L13.375,1.375L10.375,2.625L7.875,4.125L3.875,8.125L2.375,10.625L1.125,13.375L0.375,16.375L0.375,598.625L1.125,601.625L2.375,604.375L3.875,606.875L5.875,609.125L7.875,610.875L10.375,612.375L13.375,613.625L16.125,614.375L19.125,614.625L585.375,614.625Z" style="fill:white;fill-rule:nonzero;"/>
        <path d="M585.375,614.625L588.375,614.375L591.125,613.625L593.875,612.375L596.375,610.875L598.625,609.125L600.625,606.875L602.125,604.375L603.375,601.625L604.125,598.625L604.125,16.375L603.375,13.375L602.125,10.625L600.625,8.125L598.625,6.125L596.375,4.125L593.875,2.625L591.125,1.375L588.375,0.625L585.375,0.375L19.125,0.375L16.125,0.625L13.375,1.375L10.375,2.625L7.875,4.125L3.875,8.125L2.375,10.625L1.125,13.375L0.375,16.375L0.375,598.625L1.125,601.625L2.375,604.375L3.875,606.875L5.875,609.125L7.875,610.875L10.375,612.375L13.375,613.625L16.125,614.375L19.125,614.625L585.375,614.625Z" style="fill:none;stroke:rgb(0,64,128);stroke-width:0.75px;"/>
        <path d="M585.375,605.125L587.375,604.875L589.375,604.125L591.125,603.125L592.625,601.625L593.875,599.875L594.625,597.875L594.875,595.625L594.875,19.375L594.625,17.125L593.875,15.125L592.625,13.375L591.125,11.875L589.375,10.875L587.375,10.125L585.375,9.875L19.125,9.875L16.875,10.125L15.125,10.875L13.375,11.875L11.625,13.375L10.625,15.125L9.875,17.125L9.625,19.375L9.625,595.625L9.875,597.875L10.625,599.875L11.625,601.625L13.375,603.125L15.125,604.125L16.875,604.875L19.125,605.125L585.375,605.125Z" style="fill:rgb(0,64,128);fill-rule:nonzero;"/>
        <path d="M585.375,605.125L587.375,604.875L589.375,604.125L591.125,603.125L592.625,601.625L593.875,599.875L594.625,597.875L594.875,595.625L594.875,19.375L594.625,17.125L593.875,15.125L592.625,13.375L591.125,11.875L589.375,10.875L587.375,10.125L585.375,9.875L19.125,9.875L16.875,10.125L15.125,10.875L13.375,11.875L11.625,13.375L10.625,15.125L9.875,17.125L9.625,19.375L9.625,595.625L9.875,597.875L10.625,599.875L11.625,601.625L13.375,603.125L15.125,604.125L16.875,604.875L19.125,605.125L585.375,605.125Z" style="fill:none;stroke:rgb(0,64,128);stroke-width:0.75px;"/>
        <path d="M215.875,557.375L216.375,558.375L216.625,559.875L216.125,561.125L215.625,562.125L214.625,563.125L213.375,563.625L212.125,563.875L212.125,567.625L214.375,567.375L216.625,566.875L218.375,565.625L220.375,564.125L221.625,562.625L222.875,560.625L223.875,556.125L223.625,553.875L223.125,551.875L222.125,549.625L220.875,548.375L219.375,547.375L217.625,546.875L215.625,546.625L213.875,547.125L212.375,547.875L210.875,549.125L209.875,550.625L209.125,552.125L208.875,554.125L209.125,555.375L209.875,556.625L210.875,557.625L212.125,558.125L214.625,558.125L215.875,557.375ZM319.625,527.375L319.625,491.875L309.875,491.875L309.875,557.875L319.625,557.875L319.625,541.375L323.125,537.875L337.875,557.875L350.125,557.875L330.375,530.625L350.125,510.625L336.125,510.625L319.625,527.125L319.625,527.375ZM242.125,525.125L244.375,524.375L246.375,523.625L248.625,523.625L250.875,523.875L252.875,524.625L254.625,525.625L256.375,527.125L257.375,528.875L258.375,530.875L258.625,534.375L258.625,537.875L258.375,541.375L257.375,543.375L256.375,545.125L254.625,546.625L252.875,547.625L250.875,548.375L248.625,548.625L245.875,548.375L243.125,547.625L240.375,546.375L238.125,544.875L235.875,542.875L227.875,550.375L230.625,553.125L233.875,555.125L237.375,557.125L241.125,558.375L244.875,559.125L248.625,559.375L251.875,559.125L254.875,558.375L257.875,557.375L260.625,555.875L263.125,553.875L265.375,551.625L267.375,548.875L268.625,546.125L269.625,543.125L270.125,538.375L270.125,533.875L269.625,529.125L268.625,526.125L267.375,523.375L265.375,520.625L263.125,518.375L260.625,516.375L257.875,514.875L254.875,513.625L251.875,513.125L248.625,512.875L246.375,512.875L244.125,513.375L241.625,514.375L241.625,502.625L268.625,502.625L268.625,491.875L230.125,491.875L230.125,523.625L240.125,526.375L242.125,525.125ZM192.625,491.875L184.625,499.625L184.625,511.125L191.875,506.875L191.875,557.875L203.375,557.875L203.375,491.875L192.625,491.875ZM152.625,411.375L153.625,414.375L155.125,417.125L156.875,419.875L159.125,422.125L161.625,423.875L164.375,425.375L167.375,426.125L170.625,426.625L173.625,426.625L176.875,426.125L179.625,425.375L182.625,423.875L185.125,422.125L187.375,419.875L189.125,417.125L190.625,414.375L191.625,411.375L192.375,407.625L192.625,403.875L192.625,399.875L192.375,396.125L191.625,392.125L190.625,389.125L189.125,386.375L187.375,383.875L185.125,381.625L182.625,379.875L179.625,378.375L176.875,377.375L173.625,376.875L170.625,376.875L167.375,377.375L164.375,378.375L161.625,379.875L159.125,381.625L156.875,383.875L155.125,386.375L153.625,389.125L152.625,392.125L151.875,396.125L151.625,399.875L151.625,403.875L151.875,407.625L152.625,411.375ZM104.625,359.375L104.625,370.125L121.125,370.125L121.125,425.625L132.375,425.625L132.375,370.125L148.875,370.125L148.875,359.375L104.625,359.375ZM328.375,411.625L329.125,407.875L329.625,403.875L329.625,400.125L329.125,396.125L328.375,392.375L327.625,389.375L326.125,386.625L324.375,384.125L322.375,381.875L319.625,380.125L316.875,378.625L314.125,377.625L311.125,377.125L307.875,377.125L304.875,377.625L301.875,378.375L299.125,379.625L299.125,378.375L289.375,378.375L289.375,444.375L299.125,444.375L299.125,424.375L301.875,425.625L304.875,426.375L307.875,426.875L311.125,426.875L314.125,426.125L316.875,425.375L319.625,423.875L322.375,422.125L324.375,419.875L326.125,417.375L327.625,414.625L328.375,411.625ZM215.625,359.375L205.625,359.375L205.625,425.625L215.625,425.625L215.625,359.375ZM242.125,359.375L232.125,359.375L232.125,425.625L242.125,425.625L242.125,359.375ZM352.375,425.625L352.375,359.375L342.625,359.375L342.625,425.625L352.375,425.625ZM414.125,387.625L437.875,387.625L414.125,417.125L414.125,425.625L452.625,425.625L452.625,416.375L427.375,416.375L451.375,387.125L451.375,378.375L414.125,378.375L414.125,387.625ZM259.958,264.125L256.958,264.875L253.958,266.125L251.458,267.875L249.458,269.625L248.208,271.375L247.208,273.625L246.458,276.125L246.208,278.625L246.708,280.875L247.458,283.375L248.708,285.375L250.208,287.375L251.958,288.875L254.458,290.125L257.208,291.125L266.458,294.125L269.458,295.125L270.458,295.875L271.208,296.875L271.708,298.125L271.958,299.375L271.708,300.625L270.958,301.625L269.958,302.625L268.958,303.125L266.208,303.875L263.208,304.125L260.458,303.875L257.458,303.375L254.708,302.375L252.208,301.125L249.708,299.375L243.708,306.125L246.708,308.624L250.208,310.624L253.708,312.124L257.458,312.874L261.208,313.374L265.208,313.374L271.458,312.124L273.708,311.124L275.958,309.624L277.958,308.125L279.458,306.125L280.708,304.125L281.458,301.875L281.708,299.375L281.708,296.875L281.208,294.375L278.708,290.375L276.708,288.625L274.708,287.375L271.458,285.875L268.208,284.875L260.208,282.375L258.958,282.125L257.708,281.375L256.958,280.375L256.458,279.125L256.208,277.625L256.708,276.375L257.458,275.125L258.458,274.375L260.458,273.375L262.458,273.125L264.958,272.875L267.208,273.125L269.708,273.625L272.208,274.625L274.458,276.125L280.458,269.375L278.208,267.375L275.458,265.875L272.708,264.875L269.458,264.125L266.458,263.625L263.208,263.625L259.958,264.125ZM260.375,273.375L262.375,273.125L264.875,272.875L267.375,273.125L269.625,273.625L272.125,274.625L274.375,276.125L280.375,269.375L278.125,267.375L275.375,265.875L272.625,264.875L269.625,264.125L266.375,263.625L263.125,263.625L259.875,264.125L256.875,264.875L254.125,266.125L251.375,267.875L249.625,269.625L248.125,271.375L247.125,273.625L246.625,276.125L246.375,278.625L246.625,280.875L247.375,283.375L248.625,285.375L250.375,287.375L252.125,288.875L254.625,290.125L257.125,291.125L266.375,294.125L269.375,295.125L270.625,295.875L271.375,296.875L271.875,299.375L271.625,300.625L271.125,301.625L270.125,302.625L268.875,303.125L266.125,303.875L263.125,304.125L260.375,303.875L257.375,303.375L254.625,302.375L252.125,301.125L249.875,299.375L243.875,306.125L246.875,308.625L250.125,310.625L253.625,312.125L257.625,312.875L261.375,313.375L265.375,313.375L269.125,312.625L271.375,312.125L273.875,311.125L276.125,309.625L277.875,308.125L279.625,306.125L280.625,304.125L281.375,301.875L281.875,299.375L281.625,296.875L281.125,294.375L280.125,292.375L278.625,290.375L276.875,288.625L274.625,287.375L271.625,285.875L268.375,284.875L260.125,282.375L259.125,282.125L257.875,281.375L256.875,280.375L256.375,279.125L256.375,277.625L256.625,276.375L257.375,275.125L258.375,274.375L260.375,273.375ZM118.625,298.125L119.625,301.125L121.125,303.875L123.125,306.375L125.125,308.625L127.625,310.375L130.375,311.875L133.375,312.875L136.625,313.375L139.625,313.375L142.875,312.875L145.875,311.875L148.625,310.375L151.125,308.625L153.375,306.375L155.125,303.875L156.625,301.125L157.625,298.125L158.375,294.125L158.625,290.375L158.625,286.625L158.375,282.625L157.625,278.875L156.625,275.875L155.125,273.125L153.375,270.375L151.125,268.375L148.625,266.375L145.875,265.125L142.875,264.125L139.625,263.625L136.625,263.625L133.375,264.125L130.375,265.125L127.625,266.375L125.125,268.375L123.125,270.375L121.125,273.125L119.625,275.875L118.625,278.875L118.125,282.625L117.625,286.625L117.625,290.375L118.125,294.125L118.625,298.125ZM456.125,298.125L457.125,301.125L458.625,303.875L460.375,306.375L462.625,308.625L465.125,310.375L467.875,311.875L470.875,312.875L474.125,313.375L477.125,313.375L480.375,312.875L483.375,311.875L486.125,310.375L488.625,308.625L490.875,306.375L492.625,303.875L494.125,301.125L495.125,298.125L495.875,294.125L496.125,290.375L496.125,286.625L495.875,282.625L495.125,278.875L494.125,275.875L492.625,273.125L490.875,270.375L488.625,268.375L486.125,266.375L483.375,265.125L480.375,264.125L477.125,263.625L474.125,263.625L470.875,264.125L467.875,265.125L465.125,266.375L462.625,268.375L460.375,270.375L458.625,273.125L457.125,275.875L456.125,278.875L455.375,282.625L455.125,286.625L455.125,290.375L455.375,294.125L456.125,298.125ZM519.125,282.125L519.375,280.125L520.125,278.125L521.125,276.375L522.625,274.875L524.375,273.875L526.375,273.125L528.375,272.875L530.375,273.125L532.375,273.875L534.125,274.875L535.625,276.375L536.875,278.125L537.375,280.125L537.625,282.125L537.625,312.125L547.625,312.125L547.625,280.125L547.375,277.375L546.625,274.625L545.375,271.875L543.875,269.625L541.625,267.375L539.375,265.875L536.625,264.625L533.875,263.875L531.125,263.625L527.875,263.875L524.625,264.625L521.875,266.125L519.125,267.875L519.125,264.875L509.125,264.875L509.125,312.125L519.125,312.125L519.125,282.125ZM426.125,322.875L423.625,322.375L420.625,331.125L424.625,332.125L428.625,332.375L430.875,332.375L433.375,331.625L435.625,330.625L437.625,329.125L439.375,327.375L440.625,325.375L441.625,323.375L442.375,321.125L442.375,264.875L432.625,264.875L432.625,319.125L432.375,320.375L431.875,321.625L429.875,323.125L428.625,323.125L426.125,322.875ZM443.125,250.375L442.875,248.875L442.375,247.625L441.625,246.375L439.125,244.875L436.125,244.875L434.625,245.625L433.625,246.375L432.625,247.625L432.125,248.875L431.875,250.375L432.125,251.875L432.625,253.125L433.625,254.375L434.625,255.125L436.125,255.875L439.125,255.875L441.625,254.375L442.375,253.125L442.875,251.875L443.125,250.375ZM393.625,264.125L390.625,264.875L387.625,266.125L385.125,267.875L383.125,269.625L381.875,271.375L380.875,273.625L380.125,276.125L379.875,278.625L380.375,280.875L381.125,283.375L382.375,285.375L383.875,287.375L385.625,288.875L388.125,290.125L390.875,291.125L400.125,294.125L403.125,295.125L404.125,295.875L404.875,296.875L405.375,298.125L405.625,299.375L405.375,300.625L404.625,301.625L403.625,302.625L402.625,303.125L399.875,303.875L396.875,304.125L394.125,303.875L391.125,303.375L388.375,302.375L385.875,301.125L383.375,299.375L377.375,306.125L380.375,308.625L383.875,310.625L387.375,312.125L391.125,312.875L394.875,313.375L398.875,313.375L405.125,312.125L407.375,311.125L409.625,309.625L411.625,308.125L413.125,306.125L414.375,304.125L415.125,301.875L415.375,299.375L415.375,296.875L414.875,294.375L412.375,290.375L410.375,288.625L408.375,287.375L405.125,285.875L401.875,284.875L393.875,282.375L392.625,282.125L391.375,281.375L390.625,280.375L390.125,279.125L389.875,277.625L390.375,276.375L391.125,275.125L392.125,274.375L394.125,273.375L396.125,273.125L398.625,272.875L400.875,273.125L403.375,273.625L405.875,274.625L408.125,276.125L414.125,269.375L411.875,267.375L409.125,265.875L406.375,264.875L403.125,264.125L400.125,263.625L396.875,263.625L393.625,264.125ZM489.959,395.958L476.209,395.958L473.709,396.208L470.959,396.958L468.709,397.958L466.709,399.458L464.709,401.458L463.209,403.708L462.209,405.958L461.709,408.458L461.459,411.208L461.709,413.708L462.459,416.458L463.709,418.708L465.209,420.708L467.209,422.458L469.209,423.958L472.709,425.458L476.459,426.458L480.209,426.958L482.709,426.708L485.459,426.208L487.709,425.458L489.959,424.208L489.959,425.458L499.959,425.458L499.959,393.958L499.709,391.458L499.209,388.958L498.209,386.458L496.959,384.458L495.459,382.458L493.459,380.708L491.459,379.458L489.209,378.208L486.709,377.458L484.209,377.208L478.959,376.958L473.709,377.458L468.459,378.458L463.459,380.208L466.709,388.708L470.709,387.458L474.709,386.708L478.959,386.458L483.209,386.458L484.959,386.708L486.459,387.458L487.959,388.708L488.959,389.958L489.709,391.708L489.959,393.458L489.959,395.958ZM393.292,395.958L379.542,395.958L377.042,396.208L374.292,396.958L372.042,397.958L370.042,399.458L368.042,401.458L366.542,403.708L365.542,405.958L365.042,408.458L364.792,411.208L365.042,413.708L365.792,416.458L367.042,418.708L368.542,420.708L370.542,422.458L372.542,423.958L376.042,425.458L379.792,426.458L383.542,426.958L386.042,426.708L388.792,426.208L391.042,425.458L393.292,424.208L393.292,425.458L403.292,425.458L403.292,393.958L403.042,391.458L402.542,388.958L401.542,386.458L400.292,384.458L398.792,382.458L396.792,380.708L394.792,379.458L392.542,378.208L390.042,377.458L387.542,377.208L382.292,376.958L377.042,377.458L371.792,378.458L366.792,380.208L370.042,388.708L374.042,387.458L378.042,386.708L382.292,386.458L386.542,386.458L388.292,386.708L389.792,387.458L391.292,388.708L392.292,389.958L393.042,391.708L393.292,393.458L393.292,395.958ZM356.625,282.625L342.875,282.625L340.375,282.875L337.625,283.625L335.375,284.625L333.375,286.125L331.375,288.125L329.875,290.375L328.875,292.625L328.375,295.125L328.125,297.875L328.375,300.375L329.125,303.125L330.375,305.375L331.875,307.375L333.875,309.125L335.875,310.625L339.375,312.125L343.125,313.125L346.875,313.625L349.375,313.375L352.125,312.875L354.375,312.125L356.625,310.875L356.625,312.125L366.625,312.125L366.625,280.625L366.375,278.125L365.875,275.625L364.875,273.125L363.625,271.125L362.125,269.125L360.125,267.375L358.125,266.125L355.875,264.875L353.375,264.125L350.875,263.875L345.625,263.625L340.375,264.125L335.125,265.125L330.125,266.875L333.375,275.375L337.375,274.125L341.375,273.375L345.625,273.125L349.875,273.125L351.625,273.375L353.125,274.125L354.625,275.375L355.625,276.625L356.375,278.375L356.625,280.125L356.625,282.625ZM319.375,312.375L316.375,303.375L313.875,304.125L311.625,304.375L310.375,304.125L309.125,303.375L308.375,302.625L307.625,301.625L307.625,274.125L319.125,274.125L319.125,264.875L307.625,264.875L307.625,246.125L297.625,254.875L297.625,264.875L291.125,264.875L291.125,274.125L297.625,274.125L297.625,299.625L297.875,302.125L298.375,304.375L299.625,306.625L300.875,308.625L302.625,310.375L304.625,311.625L306.875,312.625L309.125,313.375L311.625,313.625L315.375,313.125L319.375,312.375ZM368.875,524.625L369.375,522.875L370.375,521.375L371.625,520.125L373.125,519.125L374.625,518.625L376.625,518.375L378.125,518.625L379.875,519.125L381.375,520.125L382.625,521.375L383.375,522.875L384.125,524.625L384.375,526.125L384.375,557.625L394.125,557.625L394.125,526.125L394.375,524.625L395.125,522.875L395.875,521.375L397.125,520.125L398.625,519.125L400.375,518.625L401.875,518.375L403.625,518.625L405.375,519.125L406.875,520.125L408.125,521.375L408.875,522.875L409.625,524.625L409.875,526.125L409.875,557.625L419.625,557.625L419.625,524.375L419.375,521.625L418.875,519.125L417.625,516.625L416.125,514.625L414.375,512.625L412.125,511.125L409.875,510.125L407.375,509.375L404.625,509.125L402.125,509.375L399.625,509.875L397.375,510.875L395.125,512.125L393.125,513.625L391.375,515.375L389.625,513.375L387.625,511.875L385.375,510.375L383.125,509.625L380.375,509.375L377.875,509.375L375.375,509.625L372.875,510.375L370.875,511.875L368.625,513.375L368.625,510.375L358.875,510.375L358.875,557.625L368.625,557.625L368.625,526.125L368.875,524.625ZM181.875,279.125L182.375,277.375L183.375,275.875L184.625,274.625L186.125,273.625L187.625,273.125L189.625,272.875L191.125,273.125L192.875,273.625L194.375,274.625L195.625,275.875L196.375,277.375L197.125,279.125L197.375,280.625L197.375,312.125L207.125,312.125L207.125,280.625L207.375,279.125L208.125,277.375L208.875,275.875L210.125,274.625L211.625,273.625L213.375,273.125L214.875,272.875L216.625,273.125L218.375,273.625L219.875,274.625L221.125,275.875L221.875,277.375L222.625,279.125L222.875,280.625L222.875,312.125L232.625,312.125L232.625,278.875L232.375,276.125L231.875,273.625L230.625,271.125L229.125,269.125L227.375,267.125L225.125,265.625L222.875,264.625L220.375,263.875L217.625,263.625L215.125,263.875L212.625,264.375L210.375,265.375L208.125,266.625L206.125,268.125L204.375,269.875L202.625,267.875L200.625,266.375L198.375,264.875L196.125,264.125L193.375,263.875L190.875,263.875L188.375,264.125L185.875,264.875L183.875,266.375L181.625,267.875L181.625,264.875L171.875,264.875L171.875,312.125L181.625,312.125L181.625,280.625L181.875,279.125ZM84.375,246.125L87.375,246.375L90.125,246.875L92.875,248.125L95.375,249.625L97.375,251.625L99.375,253.875L100.875,256.375L102.125,258.875L102.625,261.875L102.875,264.625L102.625,267.125L102.125,269.625L101.125,271.625L99.875,273.875L98.125,275.625L96.375,277.125L98.375,278.625L100.375,280.375L101.875,282.375L103.125,284.875L104.125,287.375L104.625,289.875L104.875,292.375L104.625,295.375L103.875,298.625L102.625,301.375L101.125,304.125L99.125,306.375L96.625,308.375L94.125,310.125L91.125,311.375L88.125,312.125L56.875,312.125L56.875,246.125L84.375,246.125Z" style="fill:white;fill-rule:nonzero;"/>
        <path d="M215.875,557.375L216.375,558.375L216.625,559.875L216.125,561.125L215.625,562.125L214.625,563.125L213.375,563.625L212.125,563.875L212.125,567.625L214.375,567.375L216.625,566.875L218.375,565.625L220.375,564.125L221.625,562.625L222.875,560.625L223.875,556.125L223.625,553.875L223.125,551.875L222.125,549.625L220.875,548.375L219.375,547.375L217.625,546.875L215.625,546.625L213.875,547.125L212.375,547.875L210.875,549.125L209.875,550.625L209.125,552.125L208.875,554.125L209.125,555.375L209.875,556.625L210.875,557.625L212.125,558.125L214.625,558.125L215.875,557.375ZM319.625,527.375L319.625,491.875L309.875,491.875L309.875,557.875L319.625,557.875L319.625,541.375L323.125,537.875L337.875,557.875L350.125,557.875L330.375,530.625L350.125,510.625L336.125,510.625L319.625,527.125L319.625,527.375ZM242.125,525.125L244.375,524.375L246.375,523.625L248.625,523.625L250.875,523.875L252.875,524.625L254.625,525.625L256.375,527.125L257.375,528.875L258.375,530.875L258.625,534.375L258.625,537.875L258.375,541.375L257.375,543.375L256.375,545.125L254.625,546.625L252.875,547.625L250.875,548.375L248.625,548.625L245.875,548.375L243.125,547.625L240.375,546.375L238.125,544.875L235.875,542.875L227.875,550.375L230.625,553.125L233.875,555.125L237.375,557.125L241.125,558.375L244.875,559.125L248.625,559.375L251.875,559.125L254.875,558.375L257.875,557.375L260.625,555.875L263.125,553.875L265.375,551.625L267.375,548.875L268.625,546.125L269.625,543.125L270.125,538.375L270.125,533.875L269.625,529.125L268.625,526.125L267.375,523.375L265.375,520.625L263.125,518.375L260.625,516.375L257.875,514.875L254.875,513.625L251.875,513.125L248.625,512.875L246.375,512.875L244.125,513.375L241.625,514.375L241.625,502.625L268.625,502.625L268.625,491.875L230.125,491.875L230.125,523.625L240.125,526.375L242.125,525.125ZM192.625,491.875L184.625,499.625L184.625,511.125L191.875,506.875L191.875,557.875L203.375,557.875L203.375,491.875L192.625,491.875ZM152.625,411.375L153.625,414.375L155.125,417.125L156.875,419.875L159.125,422.125L161.625,423.875L164.375,425.375L167.375,426.125L170.625,426.625L173.625,426.625L176.875,426.125L179.625,425.375L182.625,423.875L185.125,422.125L187.375,419.875L189.125,417.125L190.625,414.375L191.625,411.375L192.375,407.625L192.625,403.875L192.625,399.875L192.375,396.125L191.625,392.125L190.625,389.125L189.125,386.375L187.375,383.875L185.125,381.625L182.625,379.875L179.625,378.375L176.875,377.375L173.625,376.875L170.625,376.875L167.375,377.375L164.375,378.375L161.625,379.875L159.125,381.625L156.875,383.875L155.125,386.375L153.625,389.125L152.625,392.125L151.875,396.125L151.625,399.875L151.625,403.875L151.875,407.625L152.625,411.375ZM104.625,359.375L104.625,370.125L121.125,370.125L121.125,425.625L132.375,425.625L132.375,370.125L148.875,370.125L148.875,359.375L104.625,359.375ZM328.375,411.625L329.125,407.875L329.625,403.875L329.625,400.125L329.125,396.125L328.375,392.375L327.625,389.375L326.125,386.625L324.375,384.125L322.375,381.875L319.625,380.125L316.875,378.625L314.125,377.625L311.125,377.125L307.875,377.125L304.875,377.625L301.875,378.375L299.125,379.625L299.125,378.375L289.375,378.375L289.375,444.375L299.125,444.375L299.125,424.375L301.875,425.625L304.875,426.375L307.875,426.875L311.125,426.875L314.125,426.125L316.875,425.375L319.625,423.875L322.375,422.125L324.375,419.875L326.125,417.375L327.625,414.625L328.375,411.625ZM215.625,359.375L205.625,359.375L205.625,425.625L215.625,425.625L215.625,359.375ZM242.125,359.375L232.125,359.375L232.125,425.625L242.125,425.625L242.125,359.375ZM352.375,425.625L352.375,359.375L342.625,359.375L342.625,425.625L352.375,425.625ZM414.125,387.625L437.875,387.625L414.125,417.125L414.125,425.625L452.625,425.625L452.625,416.375L427.375,416.375L451.375,387.125L451.375,378.375L414.125,378.375L414.125,387.625ZM259.958,264.125L256.958,264.875L253.958,266.125L251.458,267.875L249.458,269.625L248.208,271.375L247.208,273.625L246.458,276.125L246.208,278.625L246.708,280.875L247.458,283.375L248.708,285.375L250.208,287.375L251.958,288.875L254.458,290.125L257.208,291.125L266.458,294.125L269.458,295.125L270.458,295.875L271.208,296.875L271.708,298.125L271.958,299.375L271.708,300.625L270.958,301.625L269.958,302.625L268.958,303.125L266.208,303.875L263.208,304.125L260.458,303.875L257.458,303.375L254.708,302.375L252.208,301.125L249.708,299.375L243.708,306.125L246.708,308.624L250.208,310.624L253.708,312.124L257.458,312.874L261.208,313.374L265.208,313.374L271.458,312.124L273.708,311.124L275.958,309.624L277.958,308.125L279.458,306.125L280.708,304.125L281.458,301.875L281.708,299.375L281.708,296.875L281.208,294.375L278.708,290.375L276.708,288.625L274.708,287.375L271.458,285.875L268.208,284.875L260.208,282.375L258.958,282.125L257.708,281.375L256.958,280.375L256.458,279.125L256.208,277.625L256.708,276.375L257.458,275.125L258.458,274.375L260.458,273.375L262.458,273.125L264.958,272.875L267.208,273.125L269.708,273.625L272.208,274.625L274.458,276.125L280.458,269.375L278.208,267.375L275.458,265.875L272.708,264.875L269.458,264.125L266.458,263.625L263.208,263.625L259.958,264.125ZM260.375,273.375L262.375,273.125L264.875,272.875L267.375,273.125L269.625,273.625L272.125,274.625L274.375,276.125L280.375,269.375L278.125,267.375L275.375,265.875L272.625,264.875L269.625,264.125L266.375,263.625L263.125,263.625L259.875,264.125L256.875,264.875L254.125,266.125L251.375,267.875L249.625,269.625L248.125,271.375L247.125,273.625L246.625,276.125L246.375,278.625L246.625,280.875L247.375,283.375L248.625,285.375L250.375,287.375L252.125,288.875L254.625,290.125L257.125,291.125L266.375,294.125L269.375,295.125L270.625,295.875L271.375,296.875L271.875,299.375L271.625,300.625L271.125,301.625L270.125,302.625L268.875,303.125L266.125,303.875L263.125,304.125L260.375,303.875L257.375,303.375L254.625,302.375L252.125,301.125L249.875,299.375L243.875,306.125L246.875,308.625L250.125,310.625L253.625,312.125L257.625,312.875L261.375,313.375L265.375,313.375L269.125,312.625L271.375,312.125L273.875,311.125L276.125,309.625L277.875,308.125L279.625,306.125L280.625,304.125L281.375,301.875L281.875,299.375L281.625,296.875L281.125,294.375L280.125,292.375L278.625,290.375L276.875,288.625L274.625,287.375L271.625,285.875L268.375,284.875L260.125,282.375L259.125,282.125L257.875,281.375L256.875,280.375L256.375,279.125L256.375,277.625L256.625,276.375L257.375,275.125L258.375,274.375L260.375,273.375ZM118.625,298.125L119.625,301.125L121.125,303.875L123.125,306.375L125.125,308.625L127.625,310.375L130.375,311.875L133.375,312.875L136.625,313.375L139.625,313.375L142.875,312.875L145.875,311.875L148.625,310.375L151.125,308.625L153.375,306.375L155.125,303.875L156.625,301.125L157.625,298.125L158.375,294.125L158.625,290.375L158.625,286.625L158.375,282.625L157.625,278.875L156.625,275.875L155.125,273.125L153.375,270.375L151.125,268.375L148.625,266.375L145.875,265.125L142.875,264.125L139.625,263.625L136.625,263.625L133.375,264.125L130.375,265.125L127.625,266.375L125.125,268.375L123.125,270.375L121.125,273.125L119.625,275.875L118.625,278.875L118.125,282.625L117.625,286.625L117.625,290.375L118.125,294.125L118.625,298.125ZM456.125,298.125L457.125,301.125L458.625,303.875L460.375,306.375L462.625,308.625L465.125,310.375L467.875,311.875L470.875,312.875L474.125,313.375L477.125,313.375L480.375,312.875L483.375,311.875L486.125,310.375L488.625,308.625L490.875,306.375L492.625,303.875L494.125,301.125L495.125,298.125L495.875,294.125L496.125,290.375L496.125,286.625L495.875,282.625L495.125,278.875L494.125,275.875L492.625,273.125L490.875,270.375L488.625,268.375L486.125,266.375L483.375,265.125L480.375,264.125L477.125,263.625L474.125,263.625L470.875,264.125L467.875,265.125L465.125,266.375L462.625,268.375L460.375,270.375L458.625,273.125L457.125,275.875L456.125,278.875L455.375,282.625L455.125,286.625L455.125,290.375L455.375,294.125L456.125,298.125ZM519.125,282.125L519.375,280.125L520.125,278.125L521.125,276.375L522.625,274.875L524.375,273.875L526.375,273.125L528.375,272.875L530.375,273.125L532.375,273.875L534.125,274.875L535.625,276.375L536.875,278.125L537.375,280.125L537.625,282.125L537.625,312.125L547.625,312.125L547.625,280.125L547.375,277.375L546.625,274.625L545.375,271.875L543.875,269.625L541.625,267.375L539.375,265.875L536.625,264.625L533.875,263.875L531.125,263.625L527.875,263.875L524.625,264.625L521.875,266.125L519.125,267.875L519.125,264.875L509.125,264.875L509.125,312.125L519.125,312.125L519.125,282.125ZM426.125,322.875L423.625,322.375L420.625,331.125L424.625,332.125L428.625,332.375L430.875,332.375L433.375,331.625L435.625,330.625L437.625,329.125L439.375,327.375L440.625,325.375L441.625,323.375L442.375,321.125L442.375,264.875L432.625,264.875L432.625,319.125L432.375,320.375L431.875,321.625L429.875,323.125L428.625,323.125L426.125,322.875ZM443.125,250.375L442.875,248.875L442.375,247.625L441.625,246.375L439.125,244.875L436.125,244.875L434.625,245.625L433.625,246.375L432.625,247.625L432.125,248.875L431.875,250.375L432.125,251.875L432.625,253.125L433.625,254.375L434.625,255.125L436.125,255.875L439.125,255.875L441.625,254.375L442.375,253.125L442.875,251.875L443.125,250.375ZM393.625,264.125L390.625,264.875L387.625,266.125L385.125,267.875L383.125,269.625L381.875,271.375L380.875,273.625L380.125,276.125L379.875,278.625L380.375,280.875L381.125,283.375L382.375,285.375L383.875,287.375L385.625,288.875L388.125,290.125L390.875,291.125L400.125,294.125L403.125,295.125L404.125,295.875L404.875,296.875L405.375,298.125L405.625,299.375L405.375,300.625L404.625,301.625L403.625,302.625L402.625,303.125L399.875,303.875L396.875,304.125L394.125,303.875L391.125,303.375L388.375,302.375L385.875,301.125L383.375,299.375L377.375,306.125L380.375,308.625L383.875,310.625L387.375,312.125L391.125,312.875L394.875,313.375L398.875,313.375L405.125,312.125L407.375,311.125L409.625,309.625L411.625,308.125L413.125,306.125L414.375,304.125L415.125,301.875L415.375,299.375L415.375,296.875L414.875,294.375L412.375,290.375L410.375,288.625L408.375,287.375L405.125,285.875L401.875,284.875L393.875,282.375L392.625,282.125L391.375,281.375L390.625,280.375L390.125,279.125L389.875,277.625L390.375,276.375L391.125,275.125L392.125,274.375L394.125,273.375L396.125,273.125L398.625,272.875L400.875,273.125L403.375,273.625L405.875,274.625L408.125,276.125L414.125,269.375L411.875,267.375L409.125,265.875L406.375,264.875L403.125,264.125L400.125,263.625L396.875,263.625L393.625,264.125ZM489.959,395.958L476.209,395.958L473.709,396.208L470.959,396.958L468.709,397.958L466.709,399.458L464.709,401.458L463.209,403.708L462.209,405.958L461.709,408.458L461.459,411.208L461.709,413.708L462.459,416.458L463.709,418.708L465.209,420.708L467.209,422.458L469.209,423.958L472.709,425.458L476.459,426.458L480.209,426.958L482.709,426.708L485.459,426.208L487.709,425.458L489.959,424.208L489.959,425.458L499.959,425.458L499.959,393.958L499.709,391.458L499.209,388.958L498.209,386.458L496.959,384.458L495.459,382.458L493.459,380.708L491.459,379.458L489.209,378.208L486.709,377.458L484.209,377.208L478.959,376.958L473.709,377.458L468.459,378.458L463.459,380.208L466.709,388.708L470.709,387.458L474.709,386.708L478.959,386.458L483.209,386.458L484.959,386.708L486.459,387.458L487.959,388.708L488.959,389.958L489.709,391.708L489.959,393.458L489.959,395.958ZM393.292,395.958L379.542,395.958L377.042,396.208L374.292,396.958L372.042,397.958L370.042,399.458L368.042,401.458L366.542,403.708L365.542,405.958L365.042,408.458L364.792,411.208L365.042,413.708L365.792,416.458L367.042,418.708L368.542,420.708L370.542,422.458L372.542,423.958L376.042,425.458L379.792,426.458L383.542,426.958L386.042,426.708L388.792,426.208L391.042,425.458L393.292,424.208L393.292,425.458L403.292,425.458L403.292,393.958L403.042,391.458L402.542,388.958L401.542,386.458L400.292,384.458L398.792,382.458L396.792,380.708L394.792,379.458L392.542,378.208L390.042,377.458L387.542,377.208L382.292,376.958L377.042,377.458L371.792,378.458L366.792,380.208L370.042,388.708L374.042,387.458L378.042,386.708L382.292,386.458L386.542,386.458L388.292,386.708L389.792,387.458L391.292,388.708L392.292,389.958L393.042,391.708L393.292,393.458L393.292,395.958ZM356.625,282.625L342.875,282.625L340.375,282.875L337.625,283.625L335.375,284.625L333.375,286.125L331.375,288.125L329.875,290.375L328.875,292.625L328.375,295.125L328.125,297.875L328.375,300.375L329.125,303.125L330.375,305.375L331.875,307.375L333.875,309.125L335.875,310.625L339.375,312.125L343.125,313.125L346.875,313.625L349.375,313.375L352.125,312.875L354.375,312.125L356.625,310.875L356.625,312.125L366.625,312.125L366.625,280.625L366.375,278.125L365.875,275.625L364.875,273.125L363.625,271.125L362.125,269.125L360.125,267.375L358.125,266.125L355.875,264.875L353.375,264.125L350.875,263.875L345.625,263.625L340.375,264.125L335.125,265.125L330.125,266.875L333.375,275.375L337.375,274.125L341.375,273.375L345.625,273.125L349.875,273.125L351.625,273.375L353.125,274.125L354.625,275.375L355.625,276.625L356.375,278.375L356.625,280.125L356.625,282.625ZM319.375,312.375L316.375,303.375L313.875,304.125L311.625,304.375L310.375,304.125L309.125,303.375L308.375,302.625L307.625,301.625L307.625,274.125L319.125,274.125L319.125,264.875L307.625,264.875L307.625,246.125L297.625,254.875L297.625,264.875L291.125,264.875L291.125,274.125L297.625,274.125L297.625,299.625L297.875,302.125L298.375,304.375L299.625,306.625L300.875,308.625L302.625,310.375L304.625,311.625L306.875,312.625L309.125,313.375L311.625,313.625L315.375,313.125L319.375,312.375ZM368.875,524.625L369.375,522.875L370.375,521.375L371.625,520.125L373.125,519.125L374.625,518.625L376.625,518.375L378.125,518.625L379.875,519.125L381.375,520.125L382.625,521.375L383.375,522.875L384.125,524.625L384.375,526.125L384.375,557.625L394.125,557.625L394.125,526.125L394.375,524.625L395.125,522.875L395.875,521.375L397.125,520.125L398.625,519.125L400.375,518.625L401.875,518.375L403.625,518.625L405.375,519.125L406.875,520.125L408.125,521.375L408.875,522.875L409.625,524.625L409.875,526.125L409.875,557.625L419.625,557.625L419.625,524.375L419.375,521.625L418.875,519.125L417.625,516.625L416.125,514.625L414.375,512.625L412.125,511.125L409.875,510.125L407.375,509.375L404.625,509.125L402.125,509.375L399.625,509.875L397.375,510.875L395.125,512.125L393.125,513.625L391.375,515.375L389.625,513.375L387.625,511.875L385.375,510.375L383.125,509.625L380.375,509.375L377.875,509.375L375.375,509.625L372.875,510.375L370.875,511.875L368.625,513.375L368.625,510.375L358.875,510.375L358.875,557.625L368.625,557.625L368.625,526.125L368.875,524.625ZM181.875,279.125L182.375,277.375L183.375,275.875L184.625,274.625L186.125,273.625L187.625,273.125L189.625,272.875L191.125,273.125L192.875,273.625L194.375,274.625L195.625,275.875L196.375,277.375L197.125,279.125L197.375,280.625L197.375,312.125L207.125,312.125L207.125,280.625L207.375,279.125L208.125,277.375L208.875,275.875L210.125,274.625L211.625,273.625L213.375,273.125L214.875,272.875L216.625,273.125L218.375,273.625L219.875,274.625L221.125,275.875L221.875,277.375L222.625,279.125L222.875,280.625L222.875,312.125L232.625,312.125L232.625,278.875L232.375,276.125L231.875,273.625L230.625,271.125L229.125,269.125L227.375,267.125L225.125,265.625L222.875,264.625L220.375,263.875L217.625,263.625L215.125,263.875L212.625,264.375L210.375,265.375L208.125,266.625L206.125,268.125L204.375,269.875L202.625,267.875L200.625,266.375L198.375,264.875L196.125,264.125L193.375,263.875L190.875,263.875L188.375,264.125L185.875,264.875L183.875,266.375L181.625,267.875L181.625,264.875L171.875,264.875L171.875,312.125L181.625,312.125L181.625,280.625L181.875,279.125ZM84.375,246.125L87.375,246.375L90.125,246.875L92.875,248.125L95.375,249.625L97.375,251.625L99.375,253.875L100.875,256.375L102.125,258.875L102.625,261.875L102.875,264.625L102.625,267.125L102.125,269.625L101.125,271.625L99.875,273.875L98.125,275.625L96.375,277.125L98.375,278.625L100.375,280.375L101.875,282.375L103.125,284.875L104.125,287.375L104.625,289.875L104.875,292.375L104.625,295.375L103.875,298.625L102.625,301.375L101.125,304.125L99.125,306.375L96.625,308.375L94.125,310.125L91.125,311.375L88.125,312.125L56.875,312.125L56.875,246.125L84.375,246.125Z" style="fill:none;stroke:white;stroke-width:0.75px;"/>
        <path d="M378.125,416.125L380.625,417.125L383.375,417.625L386.125,417.625L388.625,417.125L391.375,416.125L393.625,414.625L393.625,403.875L381.125,403.875L379.375,404.125L377.875,404.875L376.375,405.875L375.375,407.375L374.875,408.875L374.625,410.625L374.875,412.375L375.625,413.875L376.625,415.125L378.125,416.125Z" style="fill:rgb(0,64,128);fill-rule:nonzero;"/>
        <path d="M378.125,416.125L380.625,417.125L383.375,417.625L386.125,417.625L388.625,417.125L391.375,416.125L393.625,414.625L393.625,403.875L381.125,403.875L379.375,404.125L377.875,404.875L376.375,405.875L375.375,407.375L374.875,408.875L374.625,410.625L374.875,412.375L375.625,413.875L376.625,415.125L378.125,416.125Z" style="fill:none;stroke:rgb(0,64,128);stroke-width:0.75px;"/>
        <path d="M299.625,411.125L300.375,412.875L301.625,414.625L303.125,416.125L304.875,417.125L307.125,417.875L309.125,418.125L311.125,417.875L313.125,417.125L315.125,416.125L316.375,414.625L317.625,412.875L318.625,411.125L319.375,407.625L319.625,404.125L319.625,400.625L319.375,397.125L318.625,393.875L317.625,391.875L316.375,390.125L315.125,388.625L313.125,387.625L311.125,387.125L309.125,386.875L307.125,387.125L304.875,387.625L303.125,388.625L301.625,390.125L300.375,391.875L299.625,393.875L299.125,395.375L299.125,409.375L299.625,411.125Z" style="fill:rgb(0,64,128);fill-rule:nonzero;"/>
        <path d="M299.625,411.125L300.375,412.875L301.625,414.625L303.125,416.125L304.875,417.125L307.125,417.875L309.125,418.125L311.125,417.875L313.125,417.125L315.125,416.125L316.375,414.625L317.625,412.875L318.625,411.125L319.375,407.625L319.625,404.125L319.625,400.625L319.375,397.125L318.625,393.875L317.625,391.875L316.375,390.125L315.125,388.625L313.125,387.625L311.125,387.125L309.125,386.875L307.125,387.125L304.875,387.625L303.125,388.625L301.625,390.125L300.375,391.875L299.625,393.875L299.125,395.375L299.125,409.375L299.625,411.125Z" style="fill:none;stroke:rgb(0,64,128);stroke-width:0.75px;"/>
        <path d="M474.875,416.125L477.375,417.125L479.875,417.625L482.625,417.625L485.375,417.125L487.875,416.125L490.125,414.625L490.125,403.875L477.625,403.875L475.875,404.125L474.375,404.875L473.125,405.875L472.125,407.375L471.375,408.875L471.375,410.625L471.625,412.375L472.375,413.875L473.375,415.125L474.875,416.125Z" style="fill:rgb(0,64,128);fill-rule:nonzero;"/>
        <path d="M474.875,416.125L477.375,417.125L479.875,417.625L482.625,417.625L485.375,417.125L487.875,416.125L490.125,414.625L490.125,403.875L477.625,403.875L475.875,404.125L474.375,404.875L473.125,405.875L472.125,407.375L471.375,408.875L471.375,410.625L471.625,412.375L472.375,413.875L473.375,415.125L474.875,416.125Z" style="fill:none;stroke:rgb(0,64,128);stroke-width:0.75px;"/>
        <path d="M341.125,302.875L343.625,303.625L346.375,304.125L349.125,304.125L351.875,303.625L354.375,302.875L356.625,301.375L356.625,290.625L344.125,290.625L342.375,290.875L340.875,291.375L339.625,292.625L338.625,293.875L337.875,295.625L337.625,297.125L337.875,298.875L338.625,300.375L339.875,301.875L341.125,302.875Z" style="fill:rgb(0,64,128);fill-rule:nonzero;"/>
        <path d="M341.125,302.875L343.625,303.625L346.375,304.125L349.125,304.125L351.875,303.625L354.375,302.875L356.625,301.375L356.625,290.625L344.125,290.625L342.375,290.875L340.875,291.375L339.625,292.625L338.625,293.875L337.875,295.625L337.625,297.125L337.875,298.875L338.625,300.375L339.875,301.875L341.125,302.875Z" style="fill:none;stroke:rgb(0,64,128);stroke-width:0.75px;"/>
        <path d="M466.125,297.125L466.875,298.875L468.125,300.625L469.625,302.125L471.625,303.125L473.625,303.875L475.625,304.125L477.875,303.875L479.625,303.125L481.375,302.125L483.125,300.625L484.375,298.875L485.125,297.125L485.875,293.625L486.125,290.125L486.125,286.625L485.875,283.375L485.125,279.875L484.375,277.875L483.125,276.125L479.625,273.625L477.875,273.125L475.625,272.875L473.625,273.125L471.625,273.625L469.625,274.875L468.125,276.125L466.875,277.875L466.125,279.875L465.375,283.375L465.125,286.625L465.125,290.125L465.375,293.625L466.125,297.125Z" style="fill:rgb(0,64,128);fill-rule:nonzero;"/>
        <path d="M466.125,297.125L466.875,298.875L468.125,300.625L469.625,302.125L471.625,303.125L473.625,303.875L475.625,304.125L477.875,303.875L479.625,303.125L481.375,302.125L483.125,300.625L484.375,298.875L485.125,297.125L485.875,293.625L486.125,290.125L486.125,286.625L485.875,283.375L485.125,279.875L484.375,277.875L483.125,276.125L479.625,273.625L477.875,273.125L475.625,272.875L473.625,273.125L471.625,273.625L469.625,274.875L468.125,276.125L466.875,277.875L466.125,279.875L465.375,283.375L465.125,286.625L465.125,290.125L465.375,293.625L466.125,297.125Z" style="fill:none;stroke:rgb(0,64,128);stroke-width:0.75px;"/>
        <path d="M128.625,297.125L130.625,300.625L132.375,302.125L134.125,303.125L136.125,303.875L138.125,304.125L140.375,303.875L142.375,303.125L144.125,302.125L145.625,300.625L146.875,298.875L147.625,297.125L148.375,293.625L148.625,290.125L148.625,286.625L148.375,283.375L147.625,279.875L146.875,277.875L145.625,276.125L144.125,274.875L142.375,273.625L140.375,273.125L138.125,272.875L136.125,273.125L134.125,273.625L130.625,276.125L129.625,277.875L128.625,279.875L127.875,283.375L127.625,286.625L127.625,290.125L127.875,293.625L128.625,297.125Z" style="fill:rgb(0,64,128);fill-rule:nonzero;"/>
        <path d="M128.625,297.125L130.625,300.625L132.375,302.125L134.125,303.125L136.125,303.875L138.125,304.125L140.375,303.875L142.375,303.125L144.125,302.125L145.625,300.625L146.875,298.875L147.625,297.125L148.375,293.625L148.625,290.125L148.625,286.625L148.375,283.375L147.625,279.875L146.875,277.875L145.625,276.125L144.125,274.875L142.375,273.625L140.375,273.125L138.125,272.875L136.125,273.125L134.125,273.625L130.625,276.125L129.625,277.875L128.625,279.875L127.875,283.375L127.625,286.625L127.625,290.125L127.875,293.625L128.625,297.125Z" style="fill:none;stroke:rgb(0,64,128);stroke-width:0.75px;"/>
        <path d="M162.625,410.375L163.375,412.375L164.625,414.125L166.125,415.625L168.125,416.625L169.875,417.125L172.125,417.375L174.125,417.125L176.125,416.625L178.125,415.625L179.625,414.125L180.875,412.375L181.625,410.375L182.375,407.125L182.625,403.625L182.625,400.125L182.375,396.625L181.625,393.125L180.875,391.375L179.625,389.625L178.125,388.125L176.125,387.125L174.125,386.375L172.125,386.125L169.875,386.375L168.125,387.125L166.125,388.125L164.625,389.625L163.375,391.375L162.625,393.125L161.875,396.625L161.375,400.125L161.375,403.625L161.875,407.125L162.625,410.375Z" style="fill:rgb(0,64,128);fill-rule:nonzero;"/>
        <path d="M162.625,410.375L163.375,412.375L164.625,414.125L166.125,415.625L168.125,416.625L169.875,417.125L172.125,417.375L174.125,417.125L176.125,416.625L178.125,415.625L179.625,414.125L180.875,412.375L181.625,410.375L182.375,407.125L182.625,403.625L182.625,400.125L182.375,396.625L181.625,393.125L180.875,391.375L179.625,389.625L178.125,388.125L176.125,387.125L174.125,386.375L172.125,386.125L169.875,386.375L168.125,387.125L166.125,388.125L164.625,389.625L163.375,391.375L162.625,393.125L161.875,396.625L161.375,400.125L161.375,403.625L161.875,407.125L162.625,410.375Z" style="fill:none;stroke:rgb(0,64,128);stroke-width:0.75px;"/>
        <path d="M68.125,256.625L68.125,272.625L83.625,272.625L85.375,272.375L87.125,271.875L88.625,270.875L89.875,269.625L90.875,268.125L91.375,266.375L91.625,264.625L91.375,262.875L90.875,261.125L89.875,259.625L88.625,258.375L87.125,257.625L85.375,256.875L83.625,256.625L68.125,256.625Z" style="fill:rgb(0,64,128);fill-rule:nonzero;"/>
        <path d="M68.125,256.625L68.125,272.625L83.625,272.625L85.375,272.375L87.125,271.875L88.625,270.875L89.875,269.625L90.875,268.125L91.375,266.375L91.625,264.625L91.375,262.875L90.875,261.125L89.875,259.625L88.625,258.375L87.125,257.625L85.375,256.875L83.625,256.625L68.125,256.625Z" style="fill:none;stroke:rgb(0,64,128);stroke-width:0.75px;"/>
        <path d="M84.375,283.125L68.125,283.125L68.125,301.625L84.375,301.625L86.375,301.375L88.375,300.625L90.125,299.625L91.625,298.125L92.625,296.375L93.375,294.375L93.625,292.375L93.375,290.375L92.625,288.375L91.625,286.625L90.125,285.125L88.375,284.125L86.375,283.375L84.375,283.125Z" style="fill:rgb(0,64,128);fill-rule:nonzero;"/>
        <path d="M84.375,283.125L68.125,283.125L68.125,301.625L84.375,301.625L86.375,301.375L88.375,300.625L90.125,299.625L91.625,298.125L92.625,296.375L93.375,294.375L93.625,292.375L93.375,290.375L92.625,288.375L91.625,286.625L90.125,285.125L88.375,284.125L86.375,283.375L84.375,283.125Z" style="fill:none;stroke:rgb(0,64,128);stroke-width:0.75px;"/>
        <path d="M362.875,198.875L365.625,198.625L368.125,197.875L370.375,196.875L372.625,195.375L376.125,191.375L377.125,188.875L377.875,186.375L378.125,183.625L378.125,62.875L377.875,60.125L377.125,57.625L376.125,55.125L372.625,51.125L370.375,49.625L368.125,48.625L365.625,47.875L362.875,47.625L241.875,47.625L239.375,47.875L236.875,48.625L234.375,49.625L232.375,51.125L230.375,53.125L228.875,55.125L227.875,57.625L227.125,60.125L226.875,62.875L226.875,183.625L227.125,186.375L227.875,188.875L228.875,191.375L230.375,193.375L232.375,195.375L234.375,196.875L236.875,197.875L239.375,198.625L241.875,198.875L362.875,198.875Z" style="fill:white;fill-rule:nonzero;"/>
        <path d="M362.875,198.875L365.625,198.625L368.125,197.875L370.375,196.875L372.625,195.375L376.125,191.375L377.125,188.875L377.875,186.375L378.125,183.625L378.125,62.875L377.875,60.125L377.125,57.625L376.125,55.125L372.625,51.125L370.375,49.625L368.125,48.625L365.625,47.875L362.875,47.625L241.875,47.625L239.375,47.875L236.875,48.625L234.375,49.625L232.375,51.125L230.375,53.125L228.875,55.125L227.875,57.625L227.125,60.125L226.875,62.875L226.875,183.625L227.125,186.375L227.875,188.875L228.875,191.375L230.375,193.375L232.375,195.375L234.375,196.875L236.875,197.875L239.375,198.625L241.875,198.875L362.875,198.875Z" style="fill:none;stroke:white;stroke-width:0.75px;"/>
        <path d="M362.875,192.625L364.875,192.375L366.875,191.625L368.375,190.625L369.875,189.125L370.875,187.625L371.625,185.625L371.625,60.875L370.875,58.875L369.875,57.125L368.375,55.875L366.875,54.875L364.875,54.125L240.125,54.125L238.125,54.875L236.375,55.875L235.125,57.125L234.125,58.875L233.375,60.875L233.125,62.875L233.125,183.625L233.375,185.625L234.125,187.625L235.125,189.125L236.375,190.625L238.125,191.625L240.125,192.375L241.875,192.625L362.875,192.625Z" style="fill:rgb(0,64,128);fill-rule:nonzero;"/>
        <path d="M362.875,192.625L364.875,192.375L366.875,191.625L368.375,190.625L369.875,189.125L370.875,187.625L371.625,185.625L371.625,60.875L370.875,58.875L369.875,57.125L368.375,55.875L366.875,54.875L364.875,54.125L240.125,54.125L238.125,54.875L236.375,55.875L235.125,57.125L234.125,58.875L233.375,60.875L233.125,62.875L233.125,183.625L233.375,185.625L234.125,187.625L235.125,189.125L236.375,190.625L238.125,191.625L240.125,192.375L241.875,192.625L362.875,192.625Z" style="fill:none;stroke:rgb(0,64,128);stroke-width:0.75px;"/>
        <path d="M359.375,123.125L359.125,117.875L358.375,112.875L357.375,107.625L355.625,102.625L353.625,97.875L350.875,93.125L347.875,88.875L344.625,84.875L340.875,81.125L336.875,77.875L332.375,74.875L327.875,72.125L323.125,70.125L318.125,68.375L312.875,67.125L307.625,66.375L302.375,66.125L297.125,66.375L292.125,67.125L286.875,68.375L281.875,70.125L277.125,72.125L272.375,74.875L268.125,77.875L264.125,81.125L260.375,84.875L256.875,88.875L253.875,93.125L251.375,97.875L249.375,102.625L247.625,107.625L246.375,112.875L245.625,117.875L245.375,123.125L245.625,128.625L246.375,133.625L247.625,138.875L249.375,143.875L251.375,148.625L253.875,153.125L256.875,157.625L260.375,161.625L264.125,165.375L268.125,168.875L272.375,171.625L277.125,174.375L281.875,176.625L286.875,178.125L292.125,179.375L297.125,180.125L302.375,180.375L307.625,180.125L312.875,179.375L318.125,178.125L323.125,176.625L327.875,174.375L336.875,168.875L340.875,165.375L344.625,161.625L347.875,157.625L350.875,153.125L353.625,148.625L355.625,143.875L357.375,138.875L358.375,133.625L359.125,128.625L359.375,123.125Z" style="fill:white;fill-rule:nonzero;"/>
        <path d="M359.375,123.125L359.125,117.875L358.375,112.875L357.375,107.625L355.625,102.625L353.625,97.875L350.875,93.125L347.875,88.875L344.625,84.875L340.875,81.125L336.875,77.875L332.375,74.875L327.875,72.125L323.125,70.125L318.125,68.375L312.875,67.125L307.625,66.375L302.375,66.125L297.125,66.375L292.125,67.125L286.875,68.375L281.875,70.125L277.125,72.125L272.375,74.875L268.125,77.875L264.125,81.125L260.375,84.875L256.875,88.875L253.875,93.125L251.375,97.875L249.375,102.625L247.625,107.625L246.375,112.875L245.625,117.875L245.375,123.125L245.625,128.625L246.375,133.625L247.625,138.875L249.375,143.875L251.375,148.625L253.875,153.125L256.875,157.625L260.375,161.625L264.125,165.375L268.125,168.875L272.375,171.625L277.125,174.375L281.875,176.625L286.875,178.125L292.125,179.375L297.125,180.125L302.375,180.375L307.625,180.125L312.875,179.375L318.125,178.125L323.125,176.625L327.875,174.375L336.875,168.875L340.875,165.375L344.625,161.625L347.875,157.625L350.875,153.125L353.625,148.625L355.625,143.875L357.375,138.875L358.375,133.625L359.125,128.625L359.375,123.125Z" style="fill:none;stroke:white;stroke-width:0.75px;"/>
        <path d="M340.625,118.375L338.875,117.875L336.875,117.625L334.625,117.625L332.875,118.375L331.125,119.625L329.625,120.875L328.375,122.625L327.875,124.625L327.625,126.625L327.625,153.375L318.625,153.375L318.625,110.375L327.625,110.375L327.625,112.625L330.125,111.125L332.625,109.875L335.625,109.375L338.375,109.125L341.375,109.375L344.125,110.375L340.625,118.375Z" style="fill:rgb(35,31,32);fill-rule:nonzero;"/>
        <path d="M340.625,118.375L338.875,117.875L336.875,117.625L334.625,117.625L332.875,118.375L331.125,119.625L329.625,120.875L328.375,122.625L327.875,124.625L327.625,126.625L327.625,153.375L318.625,153.375L318.625,110.375L327.625,110.375L327.625,112.625L330.125,111.125L332.625,109.875L335.625,109.375L338.375,109.125L341.375,109.375L344.125,110.375L340.625,118.375Z" style="fill:none;stroke:rgb(35,31,32);stroke-width:0.75px;"/>
        <path d="M300.625,153.375L285.125,127.375L278.875,135.375L278.875,153.375L268.375,153.375L268.375,93.125L278.875,93.125L278.875,118.875L299.375,93.125L312.625,93.125L292.125,118.875L312.625,153.375L300.625,153.375Z" style="fill:rgb(35,31,32);fill-rule:nonzero;"/>
        <path d="M300.625,153.375L285.125,127.375L278.875,135.375L278.875,153.375L268.375,153.375L268.375,93.125L278.875,93.125L278.875,118.875L299.375,93.125L312.625,93.125L292.125,118.875L312.625,153.375L300.625,153.375Z" style="fill:none;stroke:rgb(35,31,32);stroke-width:0.75px;"/>
    </g>
</svg>
