<?xml version="1.0" encoding="UTF-8" standalone="no"?>
<!DOCTYPE svg PUBLIC "-//W3C//DTD SVG 1.1//EN" "http://www.w3.org/Graphics/SVG/1.1/DTD/svg11.dtd">
<svg width="100%" height="100%" viewBox="0 0 171 171" version="1.1" xmlns="http://www.w3.org/2000/svg" xmlns:xlink="http://www.w3.org/1999/xlink" xml:space="preserve" xmlns:serif="http://www.serif.com/" style="fill-rule:evenodd;clip-rule:evenodd;stroke-linecap:round;stroke-linejoin:round;stroke-miterlimit:2;">
    <g>
        <rect x="0" y="0.936" width="170.064" height="170.064" style="fill:none;"/>
        <path d="M157.045,171L158.491,170.91L159.938,170.639L161.294,170.277L162.741,169.644L163.916,169.012L165.182,168.107L166.267,167.113L167.171,166.027L168.075,164.852L168.799,163.586L169.341,162.23L169.793,160.783L169.974,159.338L170.064,157.891L170.064,13.955L169.974,12.51L169.793,11.063L169.341,9.707L168.799,8.26L168.075,6.995L167.171,5.819L166.267,4.735L165.182,3.741L163.916,2.926L162.741,2.203L161.294,1.66L159.938,1.208L158.491,1.027L157.045,0.936L13.109,0.936L11.663,1.027L10.216,1.208L8.77,1.66L7.413,2.203L6.147,2.926L4.972,3.741L3.887,4.735L2.893,5.819L2.079,6.995L1.265,8.26L0.723,9.707L0.361,11.063L0.09,12.51L0,13.955L0,157.891L0.09,159.338L0.361,160.783L0.723,162.23L1.265,163.586L2.079,164.852L2.893,166.027L3.887,167.113L4.972,168.107L6.147,169.012L7.413,169.644L8.77,170.277L10.216,170.639L11.663,170.91L13.109,171L157.045,171Z" style="fill:white;fill-rule:nonzero;"/>
        <path d="M157.045,171L158.491,170.91L159.938,170.639L161.294,170.277L162.741,169.644L163.916,169.012L165.182,168.107L166.267,167.113L167.171,166.027L168.075,164.852L168.799,163.586L169.341,162.23L169.793,160.783L169.974,159.338L170.064,157.891L170.064,13.955L169.974,12.51L169.793,11.063L169.341,9.707L168.799,8.26L168.075,6.995L167.171,5.819L166.267,4.735L165.182,3.741L163.916,2.926L162.741,2.203L161.294,1.66L159.938,1.208L158.491,1.027L157.045,0.936L13.109,0.936L11.663,1.027L10.216,1.208L8.77,1.66L7.413,2.203L6.147,2.926L4.972,3.741L3.887,4.735L2.893,5.819L2.079,6.995L1.265,8.26L0.723,9.707L0.361,11.063L0.09,12.51L0,13.955L0,157.891L0.09,159.338L0.361,160.783L0.723,162.23L1.265,163.586L2.079,164.852L2.893,166.027L3.887,167.113L4.972,168.107L6.147,169.012L7.413,169.644L8.77,170.277L10.216,170.639L11.663,170.91L13.109,171L157.045,171Z" style="fill:none;"/>
        <path d="M157,164.445L157.994,164.355L158.989,164.174L159.893,163.812L160.796,163.18L161.611,162.547L162.244,161.732L162.786,160.92L163.147,159.924L163.418,158.93L163.509,157.936L163.509,14L163.418,13.006L163.147,12.012L162.786,11.018L162.244,10.204L161.611,9.391L160.796,8.666L159.893,8.215L158.989,7.762L157.994,7.582L157,7.491L13.064,7.491L11.979,7.582L10.984,7.762L10.08,8.215L9.176,8.666L8.453,9.391L7.729,10.204L7.277,11.018L6.825,12.012L6.554,13.006L6.554,158.93L6.825,159.924L7.277,160.92L7.729,161.732L8.453,162.547L9.176,163.18L10.08,163.812L10.984,164.174L11.979,164.355L13.064,164.445L157,164.445Z" style="fill:rgb(150,79,34);fill-rule:nonzero;"/>
        <path d="M157,164.445L157.994,164.355L158.989,164.174L159.893,163.812L160.796,163.18L161.611,162.547L162.244,161.732L162.786,160.92L163.147,159.924L163.418,158.93L163.509,157.936L163.509,14L163.418,13.006L163.147,12.012L162.786,11.018L162.244,10.204L161.611,9.391L160.796,8.666L159.893,8.215L158.989,7.762L157.994,7.582L157,7.491L13.064,7.491L11.979,7.582L10.984,7.762L10.08,8.215L9.176,8.666L8.453,9.391L7.729,10.204L7.277,11.018L6.825,12.012L6.554,13.006L6.554,158.93L6.825,159.924L7.277,160.92L7.729,161.732L8.453,162.547L9.176,163.18L10.08,163.812L10.984,164.174L11.979,164.355L13.064,164.445L157,164.445Z" style="fill:none;"/>
        <path d="M132.182,144.826L133.538,144.736L134.984,144.465L136.341,144.103L137.606,143.471L138.872,142.746L139.957,141.934L140.951,140.848L141.855,139.764L142.579,138.588L143.212,137.232L143.573,135.875L143.845,134.519L143.936,133.072L143.936,38.864L143.845,37.418L143.573,36.061L143.212,34.705L142.579,33.44L141.855,32.174L140.951,31.088L139.957,30.094L138.872,29.19L137.606,28.467L136.341,27.834L134.984,27.473L133.538,27.202L132.182,27.112L37.972,27.112L36.526,27.202L35.169,27.473L33.723,27.834L32.547,28.467L31.282,29.19L30.197,30.094L29.202,31.088L28.298,32.174L27.484,33.44L26.942,34.705L26.49,36.061L26.219,37.418L26.128,38.864L26.128,133.072L26.219,134.519L26.49,135.875L26.942,137.232L27.484,138.588L28.298,139.764L29.202,140.848L30.197,141.934L31.282,142.746L32.547,143.471L33.723,144.103L35.169,144.465L36.526,144.736L37.972,144.826L132.182,144.826Z" style="fill:white;fill-rule:nonzero;"/>
        <path d="M132.182,144.826L133.538,144.736L134.984,144.465L136.341,144.103L137.606,143.471L138.872,142.746L139.957,141.934L140.951,140.848L141.855,139.764L142.579,138.588L143.212,137.232L143.573,135.875L143.845,134.519L143.936,133.072L143.936,38.864L143.845,37.418L143.573,36.061L143.212,34.705L142.579,33.44L141.855,32.174L140.951,31.088L139.957,30.094L138.872,29.19L137.606,28.467L136.341,27.834L134.984,27.473L133.538,27.202L132.182,27.112L37.972,27.112L36.526,27.202L35.169,27.473L33.723,27.834L32.547,28.467L31.282,29.19L30.197,30.094L29.202,31.088L28.298,32.174L27.484,33.44L26.942,34.705L26.49,36.061L26.219,37.418L26.128,38.864L26.128,133.072L26.219,134.519L26.49,135.875L26.942,137.232L27.484,138.588L28.298,139.764L29.202,140.848L30.197,141.934L31.282,142.746L32.547,143.471L33.723,144.103L35.169,144.465L36.526,144.736L37.972,144.826L132.182,144.826Z" style="fill:none;"/>
        <path d="M136.702,124.205L135.899,124.408C135.068,124.617 134.199,124.617 133.368,124.408L123.919,122.021C120.099,121.055 116.1,121.055 112.28,122.021L103.843,124.152C102.348,124.527 100.782,124.527 99.287,124.152L90.85,122.021C87.031,121.055 83.031,121.055 79.211,122.021L70.774,124.152C69.279,124.527 67.713,124.527 66.218,124.152L57.782,122.021C53.963,121.055 49.963,121.055 46.142,122.021L36.694,124.408C35.863,124.617 34.993,124.617 34.162,124.408L33.361,124.205L33.361,131.438C35.059,131.725 36.796,131.654 38.465,131.233L47.914,128.846C50.57,128.174 53.354,128.174 56.012,128.846L64.448,130.977C67.106,131.647 69.888,131.647 72.546,130.977L80.982,128.846C83.639,128.174 86.422,128.174 89.08,128.846L97.515,130.977C100.175,131.647 102.955,131.647 105.615,130.977L114.051,128.846C116.708,128.174 119.491,128.174 122.147,128.846L131.596,131.233C133.265,131.654 135.004,131.725 136.702,131.438L136.702,124.205Z" style="fill:rgb(150,79,34);fill-rule:nonzero;"/>
        <path d="M136.702,124.205L135.899,124.408C135.068,124.617 134.199,124.617 133.368,124.408L123.919,122.021C120.099,121.055 116.1,121.055 112.28,122.021L103.843,124.152C102.348,124.527 100.782,124.527 99.287,124.152L90.85,122.021C87.031,121.055 83.031,121.055 79.211,122.021L70.774,124.152C69.279,124.527 67.713,124.527 66.218,124.152L57.782,122.021C53.963,121.055 49.963,121.055 46.142,122.021L36.694,124.408C35.863,124.617 34.993,124.617 34.162,124.408L33.361,124.205L33.361,131.438C35.059,131.725 36.796,131.654 38.465,131.233L47.914,128.846C50.57,128.174 53.354,128.174 56.012,128.846L64.448,130.977C67.106,131.647 69.888,131.647 72.546,130.977L80.982,128.846C83.639,128.174 86.422,128.174 89.08,128.846L97.515,130.977C100.175,131.647 102.955,131.647 105.615,130.977L114.051,128.846C116.708,128.174 119.491,128.174 122.147,128.846L131.596,131.233C133.265,131.654 135.004,131.725 136.702,131.438L136.702,124.205Z" style="fill:none;stroke:rgb(150,79,34);stroke-width:0.5px;"/>
        <path d="M136.702,120.068C135.004,120.355 133.265,120.289 131.596,119.865L122.147,117.48C119.491,116.809 116.708,116.809 114.051,117.48L105.615,119.609C102.955,120.281 100.175,120.281 97.515,119.609L89.08,117.48C86.422,116.809 83.639,116.809 80.982,117.48L72.546,119.609C69.888,120.281 67.106,120.281 64.448,119.609L56.012,117.48C53.354,116.809 50.57,116.809 47.914,117.48L38.465,119.865C36.796,120.289 35.059,120.355 33.361,120.068L33.361,112.836L34.162,113.037C34.993,113.248 35.863,113.248 36.694,113.037L46.142,110.652C48.798,109.98 51.55,109.775 54.277,110.041L61.558,81.838C62.501,78.188 65.794,75.633 69.564,75.633L100.498,75.633C104.269,75.633 107.561,78.188 108.505,81.838L115.784,110.041C118.511,109.775 121.263,109.98 123.919,110.652L133.368,113.037C134.199,113.248 135.068,113.248 135.899,113.037L136.702,112.836L136.702,120.068Z" style="fill:rgb(150,79,34);fill-rule:nonzero;"/>
        <path d="M136.702,120.068C135.004,120.355 133.265,120.289 131.596,119.865L122.147,117.48C119.491,116.809 116.708,116.809 114.051,117.48L105.615,119.609C102.955,120.281 100.175,120.281 97.515,119.609L89.08,117.48C86.422,116.809 83.639,116.809 80.982,117.48L72.546,119.609C69.888,120.281 67.106,120.281 64.448,119.609L56.012,117.48C53.354,116.809 50.57,116.809 47.914,117.48L38.465,119.865C36.796,120.289 35.059,120.355 33.361,120.068L33.361,112.836L34.162,113.037C34.993,113.248 35.863,113.248 36.694,113.037L46.142,110.652C48.798,109.98 51.55,109.775 54.277,110.041L61.558,81.838C62.501,78.188 65.794,75.633 69.564,75.633L100.498,75.633C104.269,75.633 107.561,78.188 108.505,81.838L115.784,110.041C118.511,109.775 121.263,109.98 123.919,110.652L133.368,113.037C134.199,113.248 135.068,113.248 135.899,113.037L136.702,112.836L136.702,120.068Z" style="fill:none;stroke:rgb(150,79,34);stroke-width:0.5px;"/>
        <path d="M98.463,56.397C98.463,48.975 92.452,42.959 85.03,42.959C77.611,42.959 71.596,48.975 71.596,56.397C71.596,63.813 77.611,69.825 85.03,69.825C92.452,69.825 98.463,63.813 98.463,56.397Z" style="fill:rgb(150,79,34);fill-rule:nonzero;"/>
        <path d="M98.463,56.397C98.463,48.975 92.452,42.959 85.03,42.959C77.611,42.959 71.596,48.975 71.596,56.397C71.596,63.813 77.611,69.825 85.03,69.825C92.452,69.825 98.463,63.813 98.463,56.397Z" style="fill:none;stroke:rgb(150,79,34);stroke-width:0.5px;"/>
        <path d="M68.496,96.303L72.629,112.312L70.774,112.781C69.279,113.162 67.713,113.162 66.218,112.781L64.363,112.312L68.496,96.303Z" style="fill:white;fill-rule:nonzero;"/>
        <path d="M68.496,96.303L72.629,112.312L70.774,112.781C69.279,113.162 67.713,113.162 66.218,112.781L64.363,112.312L68.496,96.303Z" style="fill:none;stroke:white;stroke-width:0.11px;"/>
        <path d="M97.43,112.312L101.567,96.303L105.7,112.312L103.843,112.781C102.348,113.162 100.782,113.162 99.287,112.781L97.43,112.312Z" style="fill:white;fill-rule:nonzero;"/>
        <path d="M97.43,112.312L101.567,96.303L105.7,112.312L103.843,112.781C102.348,113.162 100.782,113.162 99.287,112.781L97.43,112.312Z" style="fill:none;stroke:white;stroke-width:0.11px;"/>
    </g>
</svg>
