<?xml version="1.0" encoding="UTF-8" standalone="no"?>
<!DOCTYPE svg PUBLIC "-//W3C//DTD SVG 1.1//EN" "http://www.w3.org/Graphics/SVG/1.1/DTD/svg11.dtd">
<svg width="100%" height="100%" viewBox="0 0 596 596" version="1.1" xmlns="http://www.w3.org/2000/svg" xmlns:xlink="http://www.w3.org/1999/xlink" xml:space="preserve" xmlns:serif="http://www.serif.com/" style="fill-rule:evenodd;clip-rule:evenodd;stroke-linecap:round;stroke-linejoin:round;stroke-miterlimit:2;">
    <g>
        <path d="M0.354,60.536L0.354,536.19C0.354,551.958 6.618,567.081 17.768,578.232C28.918,589.382 44.042,595.647 59.81,595.647L535.465,595.647C551.234,595.647 566.356,589.382 577.507,578.232C588.657,567.081 594.922,551.958 594.922,536.19L594.922,60.536C594.922,27.699 568.302,1.079 535.465,1.079L59.81,1.079C26.973,1.079 0.354,27.699 0.354,60.536Z" style="fill:white;fill-rule:nonzero;"/>
        <path d="M0.354,60.536L0.354,536.19C0.354,551.958 6.618,567.081 17.768,578.232C28.918,589.382 44.042,595.647 59.81,595.647L535.465,595.647C551.234,595.647 566.356,589.382 577.507,578.232C588.657,567.081 594.922,551.958 594.922,536.19L594.922,60.536C594.922,27.699 568.302,1.079 535.465,1.079L59.81,1.079C26.973,1.079 0.354,27.699 0.354,60.536Z" style="fill:none;stroke:black;stroke-width:1px;"/>
        <path d="M153.569,514.554C153.569,495.693 138.279,480.403 119.417,480.403C100.555,480.403 85.264,495.693 85.264,514.554C85.264,533.416 100.555,548.706 119.417,548.706C138.279,548.706 153.569,533.416 153.569,514.554Z" style="fill:rgb(35,31,32);fill-rule:nonzero;"/>
        <path d="M153.569,514.554C153.569,495.693 138.279,480.403 119.417,480.403C100.555,480.403 85.264,495.693 85.264,514.554C85.264,533.416 100.555,548.706 119.417,548.706C138.279,548.706 153.569,533.416 153.569,514.554Z" style="fill:none;stroke:rgb(35,31,32);stroke-width:0.71px;"/>
        <path d="M378.701,514.554L162.333,514.554C162.472,499.13 154.322,484.817 140.987,477.065C127.652,469.312 111.182,469.312 97.846,477.065C84.511,484.817 76.361,499.13 76.5,514.554L68.155,514.554C62.622,514.554 57.316,512.357 53.404,508.445C49.491,504.532 47.293,499.226 47.293,493.693L47.293,419.694L67.397,344.95C68.623,340.393 72.753,337.227 77.47,337.227L540.249,337.227C542.301,337.227 544.267,338.041 545.718,339.493C547.168,340.943 547.982,342.909 547.982,344.96L547.982,510.689C547.982,511.714 547.574,512.697 546.85,513.421C546.124,514.148 545.141,514.554 544.116,514.554L464.534,514.554C464.534,490.853 445.319,471.638 421.618,471.638C397.916,471.638 378.701,490.853 378.701,514.554Z" style="fill:rgb(35,31,32);fill-rule:nonzero;"/>
        <path d="M378.701,514.554L162.333,514.554C162.472,499.13 154.322,484.817 140.987,477.065C127.652,469.312 111.182,469.312 97.846,477.065C84.511,484.817 76.361,499.13 76.5,514.554L68.155,514.554C62.622,514.554 57.316,512.357 53.404,508.445C49.491,504.532 47.293,499.226 47.293,493.693L47.293,419.694L67.397,344.95C68.623,340.393 72.753,337.227 77.47,337.227L540.249,337.227C542.301,337.227 544.267,338.041 545.718,339.493C547.168,340.943 547.982,342.909 547.982,344.96L547.982,510.689C547.982,511.714 547.574,512.697 546.85,513.421C546.124,514.148 545.141,514.554 544.116,514.554L464.534,514.554C464.534,490.853 445.319,471.638 421.618,471.638C397.916,471.638 378.701,490.853 378.701,514.554Z" style="fill:none;stroke:rgb(35,31,32);stroke-width:0.71px;"/>
        <path d="M455.771,514.554C455.771,495.693 440.479,480.403 421.618,480.403C402.756,480.403 387.466,495.693 387.466,514.554C387.466,533.416 402.756,548.706 421.618,548.706C440.479,548.706 455.771,533.416 455.771,514.554Z" style="fill:rgb(35,31,32);fill-rule:nonzero;"/>
        <path d="M455.771,514.554C455.771,495.693 440.479,480.403 421.618,480.403C402.756,480.403 387.466,495.693 387.466,514.554C387.466,533.416 402.756,548.706 421.618,548.706C440.479,548.706 455.771,533.416 455.771,514.554Z" style="fill:none;stroke:rgb(35,31,32);stroke-width:0.71px;"/>
        <path d="M167.25,186.3C167.25,151.734 139.229,123.713 104.664,123.713C70.098,123.713 42.078,151.734 42.078,186.3C42.078,220.865 70.098,248.886 104.664,248.886C139.229,248.886 167.25,220.865 167.25,186.3Z" style="fill:rgb(35,31,32);fill-rule:nonzero;"/>
        <path d="M167.25,186.3C167.25,151.734 139.229,123.713 104.664,123.713C70.098,123.713 42.078,151.734 42.078,186.3C42.078,220.865 70.098,248.886 104.664,248.886C139.229,248.886 167.25,220.865 167.25,186.3Z" style="fill:none;stroke:rgb(35,31,32);stroke-width:0.71px;"/>
        <path d="M547.982,74.097L547.982,140.648C547.982,143.619 546.715,146.449 544.499,148.428C542.283,150.407 539.327,151.347 536.376,151.013L55.869,96.523C47.184,95.537 40.779,87.943 41.272,79.217C41.765,70.49 48.986,63.666 57.726,63.666L537.552,63.666C540.317,63.666 542.971,64.765 544.928,66.721C546.883,68.677 547.982,71.33 547.982,74.097Z" style="fill:rgb(35,31,32);fill-rule:nonzero;"/>
        <path d="M547.982,74.097L547.982,140.648C547.982,143.619 546.715,146.449 544.499,148.428C542.283,150.407 539.327,151.347 536.376,151.013L55.869,96.523C47.184,95.537 40.779,87.943 41.272,79.217C41.765,70.49 48.986,63.666 57.726,63.666L537.552,63.666C540.317,63.666 542.971,64.765 544.928,66.721C546.883,68.677 547.982,71.33 547.982,74.097Z" style="fill:none;stroke:rgb(35,31,32);stroke-width:0.71px;"/>
        <path d="M440.671,415.46L532.093,415.46C533.803,415.46 535.441,414.782 536.65,413.573C537.858,412.365 538.537,410.725 538.537,409.016L538.537,364.291C538.537,362.582 537.858,360.943 536.65,359.736C535.441,358.527 533.803,357.848 532.093,357.848L440.671,357.848C438.962,357.848 437.323,358.527 436.114,359.736C434.906,360.943 434.228,362.582 434.228,364.291L434.228,409.016C434.228,410.725 434.906,412.365 436.114,413.573C437.323,414.782 438.962,415.46 440.671,415.46Z" style="fill:white;fill-rule:nonzero;"/>
        <path d="M440.671,415.46L532.093,415.46C533.803,415.46 535.441,414.782 536.65,413.573C537.858,412.365 538.537,410.725 538.537,409.016L538.537,364.291C538.537,362.582 537.858,360.943 536.65,359.736C535.441,358.527 533.803,357.848 532.093,357.848L440.671,357.848C438.962,357.848 437.323,358.527 436.114,359.736C434.906,360.943 434.228,362.582 434.228,364.291L434.228,409.016C434.228,410.725 434.906,412.365 436.114,413.573C437.323,414.782 438.962,415.46 440.671,415.46Z" style="fill:none;stroke:white;stroke-width:0.71px;"/>
        <path d="M320.715,415.46L412.137,415.46C413.846,415.46 415.484,414.782 416.693,413.573C417.901,412.365 418.581,410.725 418.581,409.016L418.581,364.291C418.581,362.582 417.901,360.943 416.693,359.736C415.484,358.527 413.846,357.848 412.137,357.848L320.715,357.848C319.006,357.848 317.366,358.527 316.158,359.736C314.949,360.943 314.271,362.582 314.271,364.291L314.271,409.016C314.271,410.725 314.949,412.365 316.158,413.573C317.366,414.782 319.006,415.46 320.715,415.46Z" style="fill:white;fill-rule:nonzero;"/>
        <path d="M320.715,415.46L412.137,415.46C413.846,415.46 415.484,414.782 416.693,413.573C417.901,412.365 418.581,410.725 418.581,409.016L418.581,364.291C418.581,362.582 417.901,360.943 416.693,359.736C415.484,358.527 413.846,357.848 412.137,357.848L320.715,357.848C319.006,357.848 317.366,358.527 316.158,359.736C314.949,360.943 314.271,362.582 314.271,364.291L314.271,409.016C314.271,410.725 314.949,412.365 316.158,413.573C317.366,414.782 319.006,415.46 320.715,415.46Z" style="fill:none;stroke:white;stroke-width:0.71px;"/>
        <path d="M200.758,415.46L292.181,415.46C293.889,415.46 295.528,414.782 296.736,413.573C297.945,412.365 298.624,410.725 298.624,409.016L298.624,364.291C298.624,362.582 297.945,360.943 296.736,359.736C295.528,358.527 293.889,357.848 292.181,357.848L200.758,357.848C199.049,357.848 197.41,358.527 196.202,359.736C194.993,360.943 194.314,362.582 194.314,364.291L194.314,409.016C194.314,410.725 194.993,412.365 196.202,413.573C197.41,414.782 199.049,415.46 200.758,415.46Z" style="fill:white;fill-rule:nonzero;"/>
        <path d="M200.758,415.46L292.181,415.46C293.889,415.46 295.528,414.782 296.736,413.573C297.945,412.365 298.624,410.725 298.624,409.016L298.624,364.291C298.624,362.582 297.945,360.943 296.736,359.736C295.528,358.527 293.889,357.848 292.181,357.848L200.758,357.848C199.049,357.848 197.41,358.527 196.202,359.736C194.993,360.943 194.314,362.582 194.314,364.291L194.314,409.016C194.314,410.725 194.993,412.365 196.202,413.573C197.41,414.782 199.049,415.46 200.758,415.46Z" style="fill:none;stroke:white;stroke-width:0.71px;"/>
        <path d="M178.667,364.291C178.667,362.582 177.989,360.943 176.78,359.736C175.572,358.527 173.933,357.848 172.224,357.848L85.088,357.848C82.164,357.848 79.603,359.811 78.843,362.635L67.44,405.03L74.357,415.46L172.224,415.46C173.933,415.46 175.572,414.782 176.78,413.573C177.989,412.365 178.667,410.725 178.667,409.016L178.667,364.291Z" style="fill:white;fill-rule:nonzero;"/>
        <path d="M178.667,364.291C178.667,362.582 177.989,360.943 176.78,359.736C175.572,358.527 173.933,357.848 172.224,357.848L85.088,357.848C82.164,357.848 79.603,359.811 78.843,362.635L67.44,405.03L74.357,415.46L172.224,415.46C173.933,415.46 175.572,414.782 176.78,413.573C177.989,412.365 178.667,410.725 178.667,409.016L178.667,364.291Z" style="fill:none;stroke:white;stroke-width:0.71px;"/>
        <path d="M151.604,186.3C151.604,160.375 130.588,139.36 104.664,139.36C78.74,139.36 57.724,160.375 57.724,186.3C57.724,212.223 78.74,233.239 104.664,233.239C130.588,233.239 151.604,212.223 151.604,186.3Z" style="fill:white;fill-rule:nonzero;"/>
        <path d="M151.604,186.3C151.604,160.375 130.588,139.36 104.664,139.36C78.74,139.36 57.724,160.375 57.724,186.3C57.724,212.223 78.74,233.239 104.664,233.239C130.588,233.239 151.604,212.223 151.604,186.3Z" style="fill:none;stroke:white;stroke-width:0.71px;"/>
        <path d="M99.448,150.188C99.448,147.308 101.784,144.973 104.664,144.973C107.545,144.973 109.88,147.308 109.88,150.188L109.88,186.3C109.88,188.245 108.798,190.028 107.072,190.925C105.347,191.824 103.266,191.687 101.673,190.572L79.603,175.119C77.244,173.466 76.67,170.214 78.322,167.855C79.974,165.495 83.227,164.922 85.586,166.574L99.448,176.28L99.448,150.188Z" style="fill:rgb(35,31,32);fill-rule:nonzero;"/>
        <path d="M99.448,150.188C99.448,147.308 101.784,144.973 104.664,144.973C107.545,144.973 109.88,147.308 109.88,150.188L109.88,186.3C109.88,188.245 108.798,190.028 107.072,190.925C105.347,191.824 103.266,191.687 101.673,190.572L79.603,175.119C77.244,173.466 76.67,170.214 78.322,167.855C79.974,165.495 83.227,164.922 85.586,166.574L99.448,176.28L99.448,150.188Z" style="fill:none;stroke:rgb(35,31,32);stroke-width:0.46px;"/>
    </g>
</svg>
