<?xml version="1.0" encoding="UTF-8" standalone="no"?>
<!DOCTYPE svg PUBLIC "-//W3C//DTD SVG 1.1//EN" "http://www.w3.org/Graphics/SVG/1.1/DTD/svg11.dtd">
<svg width="100%" height="100%" viewBox="0 0 596 522" version="1.1" xmlns="http://www.w3.org/2000/svg" xmlns:xlink="http://www.w3.org/1999/xlink" xml:space="preserve" xmlns:serif="http://www.serif.com/" style="fill-rule:evenodd;clip-rule:evenodd;stroke-linecap:round;stroke-linejoin:round;stroke-miterlimit:2;">
    <g>
        <path d="M279.594,11.571L3.146,490.391C-0.575,496.838 -0.575,504.78 3.146,511.228C6.868,517.673 13.746,521.645 21.19,521.645L574.085,521.645C581.528,521.645 588.407,517.673 592.129,511.228C595.851,504.78 595.851,496.838 592.129,490.391L315.683,11.571C311.96,5.125 305.082,1.153 297.638,1.153C290.194,1.153 283.316,5.125 279.594,11.571Z" style="fill:rgb(211,63,39);fill-rule:nonzero;"/>
        <path d="M279.594,11.571L3.146,490.391C-0.575,496.838 -0.575,504.78 3.146,511.228C6.868,517.673 13.746,521.645 21.19,521.645L574.085,521.645C581.528,521.645 588.407,517.673 592.129,511.228C595.851,504.78 595.851,496.838 592.129,490.391L315.683,11.571C311.96,5.125 305.082,1.153 297.638,1.153C290.194,1.153 283.316,5.125 279.594,11.571Z" style="fill:none;stroke:rgb(211,63,39);stroke-width:0.71px;"/>
        <path d="M93.367,459.138L501.908,459.138L297.638,105.332L93.367,459.138Z" style="fill:white;fill-rule:nonzero;"/>
        <path d="M93.367,459.138L501.908,459.138L297.638,105.332L93.367,459.138Z" style="fill:none;stroke:white;stroke-width:0.71px;"/>
        <path d="M367.237,437.229C365.353,436.73 363.38,437.64 362.538,439.398C361.696,441.155 362.223,443.263 363.792,444.419C372.969,449.138 384.15,447.324 391.366,439.946L445.547,384.545L440.324,375.499L384.175,432.913C379.78,437.406 373.246,439.071 367.237,437.229Z" style="fill:rgb(3,4,4);fill-rule:nonzero;"/>
        <path d="M367.237,437.229C365.353,436.73 363.38,437.64 362.538,439.398C361.696,441.155 362.223,443.263 363.792,444.419C372.969,449.138 384.15,447.324 391.366,439.946L445.547,384.545L440.324,375.499L384.175,432.913C379.78,437.406 373.246,439.071 367.237,437.229Z" style="fill:none;stroke:rgb(3,4,4);stroke-width:0.71px;"/>
        <path d="M224.667,445.932L336.238,445.932L336.238,434.364L223.499,434.364C216.295,434.364 210.096,429.272 208.698,422.205C208.364,420.523 206.819,419.361 205.111,419.509C203.403,419.657 202.081,421.067 202.041,422.78C201.902,428.871 204.224,434.761 208.482,439.118C212.741,443.476 218.576,445.932 224.669,445.932L224.667,445.932Z" style="fill:rgb(3,4,4);fill-rule:nonzero;"/>
        <path d="M224.667,445.932L336.238,445.932L336.238,434.364L223.499,434.364C216.295,434.364 210.096,429.272 208.698,422.205C208.364,420.523 206.819,419.361 205.111,419.509C203.403,419.657 202.081,421.067 202.041,422.78C201.902,428.871 204.224,434.761 208.482,439.118C212.741,443.476 218.576,445.932 224.669,445.932L224.667,445.932Z" style="fill:none;stroke:rgb(3,4,4);stroke-width:0.71px;"/>
        <path d="M380.155,325.558C379.438,328.881 376.809,331.455 373.47,332.102C370.132,332.747 366.731,331.338 364.827,328.522L342.973,296.194L322.482,296.194L373.841,372.165L412.815,372.165C418.44,372.165 423,376.725 423,382.35C423,387.975 418.44,392.534 412.815,392.534L362.665,392.534C359.282,392.534 356.121,390.856 354.227,388.054L326.688,347.318L279.906,379.743L279.906,417.892C279.906,423.517 275.346,428.076 269.722,428.076C264.097,428.076 259.536,423.517 259.536,417.892L259.536,368.597C259.536,365.256 261.174,362.129 263.919,360.226L301.44,334.219L275.735,296.194L224.163,296.194L264.686,356.136L259.799,359.524L216.986,296.194L215.632,296.194C210.945,296.194 207.145,292.394 207.145,287.706C207.145,283.02 210.945,279.219 215.632,279.219L346.578,279.219C349.961,279.219 353.122,280.898 355.016,283.699L379.293,319.611L408.058,319.611L411.49,325.558L380.155,325.558Z" style="fill:rgb(3,4,4);fill-rule:nonzero;"/>
        <path d="M380.155,325.558C379.438,328.881 376.809,331.455 373.47,332.102C370.132,332.747 366.731,331.338 364.827,328.522L342.973,296.194L322.482,296.194L373.841,372.165L412.815,372.165C418.44,372.165 423,376.725 423,382.35C423,387.975 418.44,392.534 412.815,392.534L362.665,392.534C359.282,392.534 356.121,390.856 354.227,388.054L326.688,347.318L279.906,379.743L279.906,417.892C279.906,423.517 275.346,428.076 269.722,428.076C264.097,428.076 259.536,423.517 259.536,417.892L259.536,368.597C259.536,365.256 261.174,362.129 263.919,360.226L301.44,334.219L275.735,296.194L224.163,296.194L264.686,356.136L259.799,359.524L216.986,296.194L215.632,296.194C210.945,296.194 207.145,292.394 207.145,287.706C207.145,283.02 210.945,279.219 215.632,279.219L346.578,279.219C349.961,279.219 353.122,280.898 355.016,283.699L379.293,319.611L408.058,319.611L411.49,325.558L380.155,325.558Z" style="fill:none;stroke:rgb(3,4,4);stroke-width:0.71px;"/>
        <path d="M282.221,231.351C276.453,227.552 268.965,227.598 263.243,231.466C257.521,235.335 254.688,242.266 256.062,249.035C258.305,260.071 265.837,269.296 276.201,273.699C281.005,275.739 286.514,275.207 290.837,272.284C295.16,269.362 297.708,264.448 297.604,259.231C297.38,247.972 291.627,237.545 282.221,231.351Z" style="fill:rgb(3,4,4);fill-rule:nonzero;"/>
        <path d="M282.221,231.351C276.453,227.552 268.965,227.598 263.243,231.466C257.521,235.335 254.688,242.266 256.062,249.035C258.305,260.071 265.837,269.296 276.201,273.699C281.005,275.739 286.514,275.207 290.837,272.284C295.16,269.362 297.708,264.448 297.604,259.231C297.38,247.972 291.627,237.545 282.221,231.351Z" style="fill:none;stroke:rgb(3,4,4);stroke-width:0.6px;"/>
    </g>
</svg>
