<?xml version="1.0" encoding="UTF-8" standalone="no"?>
<!DOCTYPE svg PUBLIC "-//W3C//DTD SVG 1.1//EN" "http://www.w3.org/Graphics/SVG/1.1/DTD/svg11.dtd">
<svg width="100%" height="100%" viewBox="0 0 596 596" version="1.1" xmlns="http://www.w3.org/2000/svg" xmlns:xlink="http://www.w3.org/1999/xlink" xml:space="preserve" xmlns:serif="http://www.serif.com/" style="fill-rule:evenodd;clip-rule:evenodd;stroke-linecap:round;stroke-linejoin:round;stroke-miterlimit:2;">
    <g>
        <path d="M594.922,298.363C594.922,134.178 461.823,1.079 297.638,1.079C133.453,1.079 0.354,134.178 0.354,298.363C0.354,462.547 133.453,595.647 297.638,595.647C461.823,595.647 594.922,462.547 594.922,298.363Z" style="fill:rgb(211,63,39);fill-rule:nonzero;"/>
        <path d="M594.922,298.363C594.922,134.178 461.823,1.079 297.638,1.079C133.453,1.079 0.354,134.178 0.354,298.363C0.354,462.547 133.453,595.647 297.638,595.647C461.823,595.647 594.922,462.547 594.922,298.363Z" style="fill:none;stroke:rgb(211,63,39);stroke-width:0.71px;"/>
        <path d="M441.61,468.611L127.389,154.391C52.527,242.916 58,374.042 139.979,456.021C221.958,538 353.084,543.474 441.61,468.611Z" style="fill:white;fill-rule:nonzero;"/>
        <path d="M441.61,468.611L127.389,154.391C52.527,242.916 58,374.042 139.979,456.021C221.958,538 353.084,543.474 441.61,468.611Z" style="fill:none;stroke:white;stroke-width:0.71px;"/>
        <path d="M467.887,442.334C542.748,353.809 537.275,222.683 455.297,140.704C373.317,58.726 242.191,53.253 153.666,128.115L467.887,442.334Z" style="fill:white;fill-rule:nonzero;"/>
        <path d="M467.887,442.334C542.748,353.809 537.275,222.683 455.297,140.704C373.317,58.726 242.191,53.253 153.666,128.115L467.887,442.334Z" style="fill:none;stroke:white;stroke-width:0.71px;"/>
        <path d="M221.153,374.502C221.153,348.842 200.352,328.041 174.693,328.041C149.034,328.041 128.231,348.842 128.231,374.502C128.231,400.162 149.034,420.961 174.693,420.961C200.352,420.961 221.153,400.162 221.153,374.502Z" style="fill:rgb(17,10,20);fill-rule:nonzero;"/>
        <path d="M221.153,374.502C221.153,348.842 200.352,328.041 174.693,328.041C149.034,328.041 128.231,348.842 128.231,374.502C128.231,400.162 149.034,420.961 174.693,420.961C200.352,420.961 221.153,400.162 221.153,374.502Z" style="fill:none;stroke:rgb(17,10,20);stroke-width:0.71px;"/>
        <path d="M307.677,334.678C306.894,341.811 307.021,349.014 308.056,356.115L225.707,356.115C216.097,329.592 187.782,314.839 160.539,322.163L149.313,276.709C148.823,272.567 150.214,268.423 153.104,265.415C155.993,262.406 160.077,260.849 164.235,261.17L234.169,261.17L307.677,334.678Z" style="fill:rgb(17,10,20);fill-rule:nonzero;"/>
        <path d="M307.677,334.678C306.894,341.811 307.021,349.014 308.056,356.115L225.707,356.115C216.097,329.592 187.782,314.839 160.539,322.163L149.313,276.709C148.823,272.567 150.214,268.423 153.104,265.415C155.993,262.406 160.077,260.849 164.235,261.17L234.169,261.17L307.677,334.678Z" style="fill:none;stroke:black;stroke-width:0.71px;"/>
        <path d="M393.936,420.937L314.906,341.908C314.303,363.046 322.436,383.5 337.39,398.454C352.342,413.408 372.796,421.539 393.936,420.937Z" style="fill:rgb(17,10,20);fill-rule:nonzero;"/>
        <path d="M393.936,420.937L314.906,341.908C314.303,363.046 322.436,383.5 337.39,398.454C352.342,413.408 372.796,421.539 393.936,420.937Z" style="fill:none;stroke:rgb(17,10,20);stroke-width:0.71px;"/>
        <path d="M406.029,380.478L433.917,408.366C460.039,391.222 473.186,359.974 467.174,329.313C461.164,298.652 437.191,274.679 406.53,268.668C375.869,262.657 344.62,275.804 327.478,301.926L355.392,329.84C361.92,313.217 378.89,303.138 396.61,305.359C414.331,307.58 428.288,321.538 430.51,339.259C432.731,356.979 422.652,373.95 406.029,380.478Z" style="fill:rgb(17,10,20);fill-rule:nonzero;"/>
        <path d="M406.029,380.478L433.917,408.366C460.039,391.222 473.186,359.974 467.174,329.313C461.164,298.652 437.191,274.679 406.53,268.668C375.869,262.657 344.62,275.804 327.478,301.926L355.392,329.84C361.92,313.217 378.89,303.138 396.61,305.359C414.331,307.58 428.288,321.538 430.51,339.259C432.731,356.979 422.652,373.95 406.029,380.478Z" style="fill:none;stroke:rgb(17,10,20);stroke-width:0.71px;"/>
        <path d="M277.114,251.563L321.845,296.293C335.433,276.337 356.9,263.136 380.841,260.015C404.781,256.894 428.915,264.149 447.166,279.954C448.48,281.82 450.716,282.809 452.981,282.528C454.449,282.345 455.879,281.929 457.217,281.295C459.189,280.36 460.536,278.469 460.775,276.298C461.149,272.899 459.739,269.548 457.049,267.437L451.057,262.739L445.062,258.789L436.544,253.914C435.555,253.289 434.844,252.309 434.558,251.176L414.98,173.55L422.168,173.55C426.433,173.475 429.84,169.977 429.802,165.712C429.765,161.447 426.296,158.01 422.03,158.011L306.481,158.011C303.063,157.89 300.008,160.125 299.088,163.418L277.114,251.563Z" style="fill:rgb(17,10,20);fill-rule:nonzero;"/>
        <path d="M277.114,251.563L321.845,296.293C335.433,276.337 356.9,263.136 380.841,260.015C404.781,256.894 428.915,264.149 447.166,279.954C448.48,281.82 450.716,282.809 452.981,282.528C454.449,282.345 455.879,281.929 457.217,281.295C459.189,280.36 460.536,278.469 460.775,276.298C461.149,272.899 459.739,269.548 457.049,267.437L451.057,262.739L445.062,258.789L436.544,253.914C435.555,253.289 434.844,252.309 434.558,251.176L414.98,173.55L422.168,173.55C426.433,173.475 429.84,169.977 429.802,165.712C429.765,161.447 426.296,158.01 422.03,158.011L306.481,158.011C303.063,157.89 300.008,160.125 299.088,163.418L277.114,251.563Z" style="fill:none;stroke:black;stroke-width:0.71px;"/>
        <path d="M364.051,244.125L364.051,176.014C364.299,174.622 365.512,173.611 366.927,173.618L395.334,173.618C396.586,173.618 397.683,174.461 398.004,175.672L414.706,241.934C414.945,242.883 414.674,243.888 413.989,244.586C413.305,245.285 412.306,245.577 411.352,245.357C396.637,242.519 381.483,242.892 366.927,246.453C365.668,246.489 364.545,245.674 364.188,244.468C364.153,244.35 364.107,244.235 364.051,244.125Z" style="fill:white;fill-rule:nonzero;"/>
        <path d="M364.051,244.125L364.051,176.014C364.299,174.622 365.512,173.611 366.927,173.618L395.334,173.618C396.586,173.618 397.683,174.461 398.004,175.672L414.706,241.934C414.945,242.883 414.674,243.888 413.989,244.586C413.305,245.285 412.306,245.577 411.352,245.357C396.637,242.519 381.483,242.892 366.927,246.453C365.668,246.489 364.545,245.674 364.188,244.468C364.153,244.35 364.107,244.235 364.051,244.125Z" style="fill:none;stroke:white;stroke-width:0.71px;"/>
        <path d="M311.342,175.672L289.276,263.724L310.385,284.833C319.491,272.351 331.341,262.124 345.021,254.941C345.299,254.828 345.554,254.665 345.773,254.461C347.302,253.05 348.169,251.065 348.169,248.985L348.169,176.493C348.298,175.801 348.113,175.087 347.663,174.544C347.214,174.003 346.546,173.688 345.842,173.686L314.148,173.618C312.856,173.59 311.706,174.432 311.342,175.672Z" style="fill:white;fill-rule:nonzero;"/>
        <path d="M311.342,175.672L289.276,263.724L310.385,284.833C319.491,272.351 331.341,262.124 345.021,254.941C345.299,254.828 345.554,254.665 345.773,254.461C347.302,253.05 348.169,251.065 348.169,248.985L348.169,176.493C348.298,175.801 348.113,175.087 347.663,174.544C347.214,174.003 346.546,173.688 345.842,173.686L314.148,173.618C312.856,173.59 311.706,174.432 311.342,175.672Z" style="fill:none;stroke:white;stroke-width:0.71px;"/>
        <path d="M198.08,374.477C198.08,361.547 187.599,351.065 174.668,351.065C161.739,351.065 151.257,361.547 151.257,374.477C151.257,387.406 161.739,397.887 174.668,397.887C187.599,397.887 198.08,387.406 198.08,374.477Z" style="fill:white;fill-rule:nonzero;"/>
        <path d="M198.08,374.477C198.08,361.547 187.599,351.065 174.668,351.065C161.739,351.065 151.257,361.547 151.257,374.477C151.257,387.406 161.739,397.887 174.668,397.887C187.599,397.887 198.08,387.406 198.08,374.477Z" style="fill:none;stroke:white;stroke-width:0.71px;"/>
    </g>
</svg>
