<?xml version="1.0" encoding="UTF-8" standalone="no"?>
<!DOCTYPE svg PUBLIC "-//W3C//DTD SVG 1.1//EN" "http://www.w3.org/Graphics/SVG/1.1/DTD/svg11.dtd">
<svg width="100%" height="100%" viewBox="0 0 596 794" version="1.1" xmlns="http://www.w3.org/2000/svg" xmlns:xlink="http://www.w3.org/1999/xlink" xml:space="preserve" xmlns:serif="http://www.serif.com/" style="fill-rule:evenodd;clip-rule:evenodd;stroke-linecap:round;stroke-linejoin:round;stroke-miterlimit:2;">
    <g>
        <path d="M7.29,758.963L7.29,35.574C7.29,28.215 10.213,21.157 15.417,15.954C20.621,10.75 27.678,7.827 35.037,7.827L560.238,7.827C575.563,7.827 587.985,20.25 587.985,35.574L587.985,758.963C587.985,766.323 585.063,773.38 579.858,778.583C574.654,783.787 567.598,786.71 560.238,786.71L35.037,786.71C19.713,786.71 7.29,774.287 7.29,758.963Z" style="fill:rgb(35,31,32);fill-rule:nonzero;"/>
        <path d="M7.29,758.963L7.29,35.574C7.29,28.215 10.213,21.157 15.417,15.954C20.621,10.75 27.678,7.827 35.037,7.827L560.238,7.827C575.563,7.827 587.985,20.25 587.985,35.574L587.985,758.963C587.985,766.323 585.063,773.38 579.858,778.583C574.654,783.787 567.598,786.71 560.238,786.71L35.037,786.71C19.713,786.71 7.29,774.287 7.29,758.963Z" style="fill:none;stroke:rgb(35,31,32);stroke-width:0.71px;"/>
        <path d="M21.163,758.963L21.163,35.574C21.163,31.894 22.625,28.366 25.227,25.764C27.829,23.162 31.357,21.701 35.037,21.701L560.238,21.701C563.918,21.701 567.446,23.162 570.049,25.764C572.65,28.366 574.112,31.894 574.112,35.574L574.112,758.963C574.112,766.626 567.901,772.837 560.238,772.837L35.037,772.837C31.357,772.837 27.829,771.375 25.227,768.774C22.625,766.171 21.163,762.644 21.163,758.963Z" style="fill:white;fill-rule:nonzero;"/>
        <path d="M21.163,758.963L21.163,35.574C21.163,31.894 22.625,28.366 25.227,25.764C27.829,23.162 31.357,21.701 35.037,21.701L560.238,21.701C563.918,21.701 567.446,23.162 570.049,25.764C572.65,28.366 574.112,31.894 574.112,35.574L574.112,758.963C574.112,766.626 567.901,772.837 560.238,772.837L35.037,772.837C31.357,772.837 27.829,771.375 25.227,768.774C22.625,766.171 21.163,762.644 21.163,758.963Z" style="fill:none;stroke:rgb(35,31,32);stroke-width:0.71px;"/>
        <path d="M99.448,721.308L495.827,721.308C502.397,721.308 508.699,718.698 513.344,714.052C517.99,709.407 520.601,703.104 520.601,696.534L520.601,300.156C520.601,293.585 517.99,287.285 513.344,282.638C508.699,277.992 502.397,275.382 495.827,275.382L99.448,275.382C85.766,275.382 74.675,286.474 74.675,300.156L74.675,696.534C74.675,703.104 77.285,709.407 81.931,714.052C86.577,718.698 92.878,721.308 99.448,721.308Z" style="fill:rgb(187,177,163);fill-rule:nonzero;"/>
        <path d="M99.448,721.308L495.827,721.308C502.397,721.308 508.699,718.698 513.344,714.052C517.99,709.407 520.601,703.104 520.601,696.534L520.601,300.156C520.601,293.585 517.99,287.285 513.344,282.638C508.699,277.992 502.397,275.382 495.827,275.382L99.448,275.382C85.766,275.382 74.675,286.474 74.675,300.156L74.675,696.534C74.675,703.104 77.285,709.407 81.931,714.052C86.577,718.698 92.878,721.308 99.448,721.308Z" style="fill:none;stroke:rgb(187,177,163);stroke-width:0.71px;"/>
        <path d="M192.631,564.547L222.813,477.356C227.108,464.949 238.147,456.11 251.193,454.633C264.24,453.158 276.975,459.306 283.934,470.439L316.384,522.36L316.384,565.681C316.384,571.564 311.614,576.333 305.73,576.333C299.848,576.333 295.078,571.564 295.078,565.681L295.078,533.723L287.977,522.36L287.977,626.924L310.207,675.225C313.486,682.352 310.369,690.786 303.242,694.067C296.117,697.346 287.681,694.228 284.401,687.103L255.308,623.889L255.308,587.427L220.574,684.682C217.672,692.808 208.732,697.043 200.606,694.141C192.48,691.239 188.245,682.298 191.147,674.172L231.162,562.129L231.162,518.368L212.764,571.517C211.573,575.183 208.495,577.919 204.714,578.673C200.933,579.426 197.041,578.079 194.535,575.15C192.029,572.22 191.301,568.166 192.631,564.547Z" style="fill:white;fill-rule:nonzero;"/>
        <path d="M192.631,564.547L222.813,477.356C227.108,464.949 238.147,456.11 251.193,454.633C264.24,453.158 276.975,459.306 283.934,470.439L316.384,522.36L316.384,565.681C316.384,571.564 311.614,576.333 305.73,576.333C299.848,576.333 295.078,571.564 295.078,565.681L295.078,533.723L287.977,522.36L287.977,626.924L310.207,675.225C313.486,682.352 310.369,690.786 303.242,694.067C296.117,697.346 287.681,694.228 284.401,687.103L255.308,623.889L255.308,587.427L220.574,684.682C217.672,692.808 208.732,697.043 200.606,694.141C192.48,691.239 188.245,682.298 191.147,674.172L231.162,562.129L231.162,518.368L212.764,571.517C211.573,575.183 208.495,577.919 204.714,578.673C200.933,579.426 197.041,578.079 194.535,575.15C192.029,572.22 191.301,568.166 192.631,564.547Z" style="fill:none;stroke:white;stroke-width:0.71px;"/>
        <path d="M344.63,550.298C347.751,541.282 355.773,534.858 365.255,533.786C374.736,532.712 383.991,537.181 389.049,545.272L412.456,582.724L412.456,615.428C412.456,619.91 408.823,623.542 404.341,623.542C399.859,623.542 396.227,619.91 396.227,615.428L396.227,588.161L390.068,578.307L390.068,649.509L403.752,679.24C406.131,684.41 403.869,690.53 398.699,692.91C393.529,695.288 387.41,693.027 385.031,687.857L367.497,649.759L367.497,618.577L343.498,685.774C341.493,691.389 335.315,694.315 329.7,692.309C324.086,690.304 321.159,684.126 323.165,678.512L348.832,606.647L348.832,585.412L336.248,621.763C335.384,624.423 333.15,626.409 330.407,626.954C327.664,627.501 324.841,626.525 323.022,624.399C321.205,622.274 320.677,619.331 321.642,616.707L344.63,550.298Z" style="fill:white;fill-rule:nonzero;"/>
        <path d="M344.63,550.298C347.751,541.282 355.773,534.858 365.255,533.786C374.736,532.712 383.991,537.181 389.049,545.272L412.456,582.724L412.456,615.428C412.456,619.91 408.823,623.542 404.341,623.542C399.859,623.542 396.227,619.91 396.227,615.428L396.227,588.161L390.068,578.307L390.068,649.509L403.752,679.24C406.131,684.41 403.869,690.53 398.699,692.91C393.529,695.288 387.41,693.027 385.031,687.857L367.497,649.759L367.497,618.577L343.498,685.774C341.493,691.389 335.315,694.315 329.7,692.309C324.086,690.304 321.159,684.126 323.165,678.512L348.832,606.647L348.832,585.412L336.248,621.763C335.384,624.423 333.15,626.409 330.407,626.954C327.664,627.501 324.841,626.525 323.022,624.399C321.205,622.274 320.677,619.331 321.642,616.707L344.63,550.298Z" style="fill:none;stroke:white;stroke-width:0.71px;"/>
        <path d="M388.31,506.108C388.31,493.53 378.112,483.332 365.533,483.332C352.956,483.332 342.759,493.53 342.759,506.108C342.759,518.687 352.956,528.883 365.533,528.883C378.112,528.883 388.31,518.687 388.31,506.108Z" style="fill:white;fill-rule:nonzero;"/>
        <path d="M388.31,506.108C388.31,493.53 378.112,483.332 365.533,483.332C352.956,483.332 342.759,493.53 342.759,506.108C342.759,518.687 352.956,528.883 365.533,528.883C378.112,528.883 388.31,518.687 388.31,506.108Z" style="fill:none;stroke:white;stroke-width:0.71px;"/>
        <path d="M280.875,420.094C280.875,404.405 268.156,391.687 252.467,391.687C236.779,391.687 224.061,404.405 224.061,420.094C224.061,435.783 236.779,448.501 252.467,448.501C268.156,448.501 280.875,435.783 280.875,420.094Z" style="fill:white;fill-rule:nonzero;"/>
        <path d="M280.875,420.094C280.875,404.405 268.156,391.687 252.467,391.687C236.779,391.687 224.061,404.405 224.061,420.094C224.061,435.783 236.779,448.501 252.467,448.501C268.156,448.501 280.875,435.783 280.875,420.094Z" style="fill:none;stroke:white;stroke-width:0.71px;"/>
        <path d="M180.039,317.425L203.325,317.425L203.325,335.012C202.949,347.605 192.637,357.621 180.039,357.631C169.062,357.631 159.344,350.531 156.008,340.073C152.66,329.577 152.66,318.3 156.008,307.805C158.923,298.664 166.772,291.969 176.259,290.531C185.745,289.093 195.226,293.161 200.72,301.028L191.636,306.942C188.765,302.532 183.64,300.133 178.415,300.75C173.188,301.368 168.764,304.897 167,309.855C163.759,318.964 163.759,328.913 167,338.023C168.963,343.538 174.184,347.222 180.039,347.222C183.277,347.222 186.384,345.936 188.673,343.646C190.963,341.356 192.25,338.25 192.25,335.012L192.25,327.847L180.039,327.847L180.039,317.425Z" style="fill:white;fill-rule:nonzero;"/>
        <path d="M180.039,317.425L203.325,317.425L203.325,335.012C202.949,347.605 192.637,357.621 180.039,357.631C169.062,357.631 159.344,350.531 156.008,340.073C152.66,329.577 152.66,318.3 156.008,307.805C158.923,298.664 166.772,291.969 176.259,290.531C185.745,289.093 195.226,293.161 200.72,301.028L191.636,306.942C188.765,302.532 183.64,300.133 178.415,300.75C173.188,301.368 168.764,304.897 167,309.855C163.759,318.964 163.759,328.913 167,338.023C168.963,343.538 174.184,347.222 180.039,347.222C183.277,347.222 186.384,345.936 188.673,343.646C190.963,341.356 192.25,338.25 192.25,335.012L192.25,327.847L180.039,327.847L180.039,317.425Z" style="fill:none;stroke:white;stroke-width:0.7px;"/>
        <path d="M252.042,356.506L252.042,325.312C252.042,316.649 245.361,309.453 236.722,308.812C229.716,308.293 222.68,309.282 216.088,311.713L219.243,320.268C224.453,318.347 230.005,317.53 235.548,317.872C239.327,318.113 242.27,321.247 242.272,325.035L242.272,327.382L228.79,327.382C222.068,327.382 216.209,331.953 214.575,338.472C212.939,344.99 215.947,351.785 221.872,354.957C225.212,356.745 228.926,357.721 232.713,357.805C236.098,357.879 239.428,356.938 242.272,355.102L242.272,356.506L252.042,356.506Z" style="fill:white;fill-rule:nonzero;"/>
        <path d="M252.042,356.506L252.042,325.312C252.042,316.649 245.361,309.453 236.722,308.812C229.716,308.293 222.68,309.282 216.088,311.713L219.243,320.268C224.453,318.347 230.005,317.53 235.548,317.872C239.327,318.113 242.27,321.247 242.272,325.035L242.272,327.382L228.79,327.382C222.068,327.382 216.209,331.953 214.575,338.472C212.939,344.99 215.947,351.785 221.872,354.957C225.212,356.745 228.926,357.721 232.713,357.805C236.098,357.879 239.428,356.938 242.272,355.102L242.272,356.506L252.042,356.506Z" style="fill:none;stroke:white;stroke-width:0.54px;"/>
        <path d="M285.736,357.805C288.874,357.73 291.9,356.626 294.35,354.665L294.35,358.181C294.35,360.608 293.382,362.935 291.661,364.646C289.939,366.358 287.607,367.312 285.18,367.299C279.864,367.269 274.614,366.123 269.769,363.935L266.016,372.246C272.022,374.958 278.532,376.38 285.122,376.418C290.15,376.447 294.983,374.47 298.549,370.924C302.115,367.378 304.12,362.557 304.12,357.529L304.12,309.981L294.35,309.981L294.35,311.823C291.9,309.861 288.874,308.758 285.736,308.682C276.114,308.453 267.685,315.089 265.649,324.495C264.401,330.261 264.401,336.226 265.649,341.992C267.685,351.399 276.114,358.035 285.736,357.805Z" style="fill:white;fill-rule:nonzero;"/>
        <path d="M285.736,357.805C288.874,357.73 291.9,356.626 294.35,354.665L294.35,358.181C294.35,360.608 293.382,362.935 291.661,364.646C289.939,366.358 287.607,367.312 285.18,367.299C279.864,367.269 274.614,366.123 269.769,363.935L266.016,372.246C272.022,374.958 278.532,376.38 285.122,376.418C290.15,376.447 294.983,374.47 298.549,370.924C302.115,367.378 304.12,362.557 304.12,357.529L304.12,309.981L294.35,309.981L294.35,311.823C291.9,309.861 288.874,308.758 285.736,308.682C276.114,308.453 267.685,315.089 265.649,324.495C264.401,330.261 264.401,336.226 265.649,341.992C267.685,351.399 276.114,358.035 285.736,357.805Z" style="fill:none;stroke:white;stroke-width:0.55px;"/>
        <path d="M355.018,356.506L355.018,325.312C355.018,316.649 348.336,309.453 339.697,308.812C332.69,308.293 325.655,309.282 319.063,311.713L322.219,320.268C327.429,318.347 332.981,317.53 338.523,317.872C342.303,318.113 345.245,321.247 345.248,325.035L345.248,327.382L331.765,327.382C325.045,327.382 319.186,331.953 317.55,338.472C315.915,344.99 318.923,351.785 324.848,354.957C328.188,356.745 331.901,357.721 335.688,357.805C339.074,357.879 342.402,356.938 345.248,355.102L345.248,356.506L355.018,356.506Z" style="fill:white;fill-rule:nonzero;"/>
        <path d="M355.018,356.506L355.018,325.312C355.018,316.649 348.336,309.453 339.697,308.812C332.69,308.293 325.655,309.282 319.063,311.713L322.219,320.268C327.429,318.347 332.981,317.53 338.523,317.872C342.303,318.113 345.245,321.247 345.248,325.035L345.248,327.382L331.765,327.382C325.045,327.382 319.186,331.953 317.55,338.472C315.915,344.99 318.923,351.785 324.848,354.957C328.188,356.745 331.901,357.721 335.688,357.805C339.074,357.879 342.402,356.938 345.248,355.102L345.248,356.506L355.018,356.506Z" style="fill:none;stroke:white;stroke-width:0.54px;"/>
        <path d="M381.934,309.981L393.333,309.981L393.333,319.1L381.934,319.1L381.934,344.782C381.934,345.818 382.347,346.812 383.079,347.545C383.812,348.278 384.806,348.69 385.843,348.69C387.45,348.69 389.047,348.439 390.577,347.947L393.371,356.626C390.938,357.41 388.398,357.809 385.843,357.809C382.215,357.809 378.735,356.368 376.17,353.802C373.604,351.238 372.164,347.758 372.164,344.13L372.164,319.1L365.65,319.1L365.65,309.981L372.164,309.981L372.164,299.885L381.934,291.371L381.934,309.981Z" style="fill:white;fill-rule:nonzero;"/>
        <path d="M381.934,309.981L393.333,309.981L393.333,319.1L381.934,319.1L381.934,344.782C381.934,345.818 382.347,346.812 383.079,347.545C383.812,348.278 384.806,348.69 385.843,348.69C387.45,348.69 389.047,348.439 390.577,347.947L393.371,356.626C390.938,357.41 388.398,357.809 385.843,357.809C382.215,357.809 378.735,356.368 376.17,353.802C373.604,351.238 372.164,347.758 372.164,344.13L372.164,319.1L365.65,319.1L365.65,309.981L372.164,309.981L372.164,299.885L381.934,291.371L381.934,309.981Z" style="fill:none;stroke:white;stroke-width:0.39px;"/>
        <path d="M421.961,357.809C413.334,357.809 405.773,352.037 403.5,343.715C401.627,336.86 401.627,329.627 403.5,322.772C405.773,314.45 413.334,308.678 421.961,308.678C430.589,308.678 438.149,314.45 440.423,322.772C441.528,326.817 441.985,331.01 441.779,335.198L411.93,335.198C412.088,337.614 412.537,340.002 413.27,342.309C414.479,346.094 417.987,348.67 421.961,348.69C426.371,348.69 430.396,346.176 432.33,342.213L440.525,346.213C437.062,353.308 429.856,357.809 421.961,357.809Z" style="fill:white;fill-rule:nonzero;"/>
        <path d="M421.961,357.809C413.334,357.809 405.773,352.037 403.5,343.715C401.627,336.86 401.627,329.627 403.5,322.772C405.773,314.45 413.334,308.678 421.961,308.678C430.589,308.678 438.149,314.45 440.423,322.772C441.528,326.817 441.985,331.01 441.779,335.198L411.93,335.198C412.088,337.614 412.537,340.002 413.27,342.309C414.479,346.094 417.987,348.67 421.961,348.69C426.371,348.69 430.396,346.176 432.33,342.213L440.525,346.213C437.062,353.308 429.856,357.809 421.961,357.809Z" style="fill:none;stroke:white;stroke-width:0.56px;"/>
        <path d="M413.27,324.178C412.936,325.23 412.66,326.299 412.444,327.382L431.479,327.382C431.262,326.299 430.986,325.23 430.653,324.178C429.45,320.391 425.935,317.818 421.961,317.818C417.987,317.818 414.473,320.391 413.27,324.178Z" style="fill:rgb(187,177,163);fill-rule:nonzero;"/>
        <path d="M413.27,324.178C412.936,325.23 412.66,326.299 412.444,327.382L431.479,327.382C431.262,326.299 430.986,325.23 430.653,324.178C429.45,320.391 425.935,317.818 421.961,317.818C417.987,317.818 414.473,320.391 413.27,324.178Z" style="fill:none;stroke:rgb(187,177,163);stroke-width:0.26px;"/>
        <path d="M332.961,335.198C330.034,335.198 327.49,337.208 326.814,340.056C326.137,342.903 327.506,345.843 330.119,347.159C335.016,349.624 340.888,349.08 345.248,345.759L345.248,335.198L332.961,335.198Z" style="fill:rgb(187,177,163);fill-rule:nonzero;"/>
        <path d="M332.961,335.198C330.034,335.198 327.49,337.208 326.814,340.056C326.137,342.903 327.506,345.843 330.119,347.159C335.016,349.624 340.888,349.08 345.248,345.759L345.248,335.198L332.961,335.198Z" style="fill:none;stroke:rgb(187,177,163);stroke-width:0.27px;"/>
        <path d="M294.35,339.245C294.356,341.744 293.371,344.142 291.608,345.913C289.846,347.684 287.453,348.683 284.955,348.69C280.545,348.701 276.685,345.728 275.571,341.461C274.164,336.074 274.164,330.414 275.571,325.027C276.681,320.777 280.514,317.809 284.905,317.798C287.412,317.791 289.818,318.785 291.591,320.557C293.363,322.329 294.356,324.735 294.35,327.242L294.35,339.245Z" style="fill:rgb(187,177,163);fill-rule:nonzero;"/>
        <path d="M294.35,339.245C294.356,341.744 293.371,344.142 291.608,345.913C289.846,347.684 287.453,348.683 284.955,348.69C280.545,348.701 276.685,345.728 275.571,341.461C274.164,336.074 274.164,330.414 275.571,325.027C276.681,320.777 280.514,317.809 284.905,317.798C287.412,317.791 289.818,318.785 291.591,320.557C293.363,322.329 294.356,324.735 294.35,327.242L294.35,339.245Z" style="fill:none;stroke:rgb(187,177,163);stroke-width:0.28px;"/>
        <path d="M229.985,335.198C227.058,335.198 224.515,337.208 223.838,340.056C223.162,342.903 224.529,345.843 227.144,347.159C232.04,349.624 237.913,349.08 242.272,345.759L242.272,335.198L229.985,335.198Z" style="fill:rgb(187,177,163);fill-rule:nonzero;"/>
        <path d="M229.985,335.198C227.058,335.198 224.515,337.208 223.838,340.056C223.162,342.903 224.529,345.843 227.144,347.159C232.04,349.624 237.913,349.08 242.272,345.759L242.272,335.198L229.985,335.198Z" style="fill:none;stroke:rgb(187,177,163);stroke-width:0.27px;"/>
        <path d="M242.211,297.233C242.211,293.276 239.004,290.068 235.047,290.068C231.089,290.068 227.882,293.276 227.882,297.233C227.882,301.19 231.089,304.398 235.047,304.398C239.004,304.398 242.211,301.19 242.211,297.233Z" style="fill:white;fill-rule:nonzero;"/>
        <path d="M242.211,297.233C242.211,293.276 239.004,290.068 235.047,290.068C231.089,290.068 227.882,293.276 227.882,297.233C227.882,301.19 231.089,304.398 235.047,304.398C239.004,304.398 242.211,301.19 242.211,297.233Z" style="fill:none;stroke:white;stroke-width:0.71px;"/>
        <path d="M238.304,297.233C238.304,295.434 236.845,293.976 235.047,293.976C233.248,293.976 231.79,295.434 231.79,297.233C231.79,299.032 233.248,300.49 235.047,300.49C236.845,300.49 238.304,299.032 238.304,297.233Z" style="fill:rgb(187,177,163);fill-rule:nonzero;"/>
        <path d="M238.304,297.233C238.304,295.434 236.845,293.976 235.047,293.976C233.248,293.976 231.79,295.434 231.79,297.233C231.79,299.032 233.248,300.49 235.047,300.49C236.845,300.49 238.304,299.032 238.304,297.233Z" style="fill:none;stroke:rgb(187,177,163);stroke-width:0.71px;"/>
        <path d="M175.97,186.029C153.202,192.652 128.631,187.546 110.388,172.399L123.071,157.123C135.529,167.467 152.123,171.359 167.881,167.634C174.734,166.015 179.765,160.165 180.34,153.147C180.916,146.128 176.905,139.537 170.407,136.823C167.047,135.42 163.583,134.282 160.045,133.419L147.79,130.43C141.894,128.992 136.271,126.602 131.144,123.355C120.895,116.864 114.936,105.358 115.547,93.243C116.16,81.126 123.248,70.279 134.099,64.853C136.76,63.523 139.531,62.424 142.381,61.569C158.206,56.822 175.246,58.292 190.023,65.681C193.25,67.294 196.307,69.229 199.146,71.457L186.08,87.222C182.636,84.367 178.667,82.212 174.397,80.877C165.219,78.009 155.363,78.166 146.281,81.325C140.872,83.206 137.09,88.112 136.646,93.821C136.202,99.531 139.181,104.961 144.233,107.657C146.835,109.044 149.598,110.103 152.459,110.81L165.085,113.931C170.479,115.264 175.736,117.095 180.792,119.398C194.347,125.575 202.628,139.533 201.554,154.39C200.478,169.247 190.273,181.868 175.97,186.029Z" style="fill:rgb(35,31,32);fill-rule:nonzero;"/>
        <path d="M175.97,186.029C153.202,192.652 128.631,187.546 110.388,172.399L123.071,157.123C135.529,167.467 152.123,171.359 167.881,167.634C174.734,166.015 179.765,160.165 180.34,153.147C180.916,146.128 176.905,139.537 170.407,136.823C167.047,135.42 163.583,134.282 160.045,133.419L147.79,130.43C141.894,128.992 136.271,126.602 131.144,123.355C120.895,116.864 114.936,105.358 115.547,93.243C116.16,81.126 123.248,70.279 134.099,64.853C136.76,63.523 139.531,62.424 142.381,61.569C158.206,56.822 175.246,58.292 190.023,65.681C193.25,67.294 196.307,69.229 199.146,71.457L186.08,87.222C182.636,84.367 178.667,82.212 174.397,80.877C165.219,78.009 155.363,78.166 146.281,81.325C140.872,83.206 137.09,88.112 136.646,93.821C136.202,99.531 139.181,104.961 144.233,107.657C146.835,109.044 149.598,110.103 152.459,110.81L165.085,113.931C170.479,115.264 175.736,117.095 180.792,119.398C194.347,125.575 202.628,139.533 201.554,154.39C200.478,169.247 190.273,181.868 175.97,186.029Z" style="fill:none;stroke:rgb(35,31,32);stroke-width:0.71px;"/>
        <path d="M224.161,123.301C221.265,135.295 221.265,147.806 224.161,159.799C228.254,176.753 243.426,188.699 260.868,188.699C278.309,188.699 293.481,176.753 297.574,159.799C300.471,147.806 300.471,135.295 297.574,123.301C293.481,106.347 278.309,94.403 260.868,94.403C243.426,94.403 228.254,106.347 224.161,123.301Z" style="fill:rgb(35,31,32);fill-rule:nonzero;"/>
        <path d="M224.161,123.301C221.265,135.295 221.265,147.806 224.161,159.799C228.254,176.753 243.426,188.699 260.868,188.699C278.309,188.699 293.481,176.753 297.574,159.799C300.471,147.806 300.471,135.295 297.574,123.301C293.481,106.347 278.309,94.403 260.868,94.403C243.426,94.403 228.254,106.347 224.161,123.301Z" style="fill:none;stroke:rgb(35,31,32);stroke-width:0.71px;"/>
        <path d="M242.993,125.401C239.99,135.958 239.99,147.143 242.993,157.7C245.267,165.687 252.563,171.197 260.868,171.197C269.172,171.197 276.469,165.687 278.741,157.7C281.746,147.143 281.746,135.958 278.741,125.401C276.469,117.414 269.172,111.904 260.868,111.904C252.563,111.904 245.267,117.414 242.993,125.401Z" style="fill:white;fill-rule:nonzero;"/>
        <path d="M242.993,125.401C239.99,135.958 239.99,147.143 242.993,157.7C245.267,165.687 252.563,171.197 260.868,171.197C269.172,171.197 276.469,165.687 278.741,157.7C281.746,147.143 281.746,135.958 278.741,125.401C276.469,117.414 269.172,111.904 260.868,111.904C252.563,111.904 245.267,117.414 242.993,125.401Z" style="fill:none;stroke:white;stroke-width:0.58px;"/>
        <path d="M390.661,186.197L390.661,125.655C390.661,117.366 387.368,109.417 381.507,103.556C375.646,97.695 367.696,94.403 359.408,94.403C351.178,94.403 343.21,97.303 336.905,102.594L336.905,96.904L318.153,96.904L318.153,186.197L336.905,186.197L336.905,129.406C336.905,123.153 340.241,117.375 345.656,114.248C351.071,111.122 357.743,111.122 363.158,114.248C368.573,117.375 371.909,123.153 371.909,129.406L371.909,186.197L390.661,186.197Z" style="fill:rgb(35,31,32);fill-rule:nonzero;"/>
        <path d="M390.661,186.197L390.661,125.655C390.661,117.366 387.368,109.417 381.507,103.556C375.646,97.695 367.696,94.403 359.408,94.403C351.178,94.403 343.21,97.303 336.905,102.594L336.905,96.904L318.153,96.904L318.153,186.197L336.905,186.197L336.905,129.406C336.905,123.153 340.241,117.375 345.656,114.248C351.071,111.122 357.743,111.122 363.158,114.248C368.573,117.375 371.909,123.153 371.909,129.406L371.909,186.197L390.661,186.197Z" style="fill:none;stroke:rgb(35,31,32);stroke-width:0.71px;"/>
        <path d="M446.852,188.699C430.294,188.699 415.783,177.62 411.419,161.648C407.825,148.491 407.825,134.61 411.419,121.453C415.783,105.48 430.294,94.403 446.852,94.403C463.41,94.403 477.92,105.48 482.284,121.453C484.404,129.215 485.283,137.264 484.889,145.301L427.598,145.301C427.9,149.938 428.765,154.521 430.17,158.951C432.492,166.214 439.226,171.158 446.852,171.196C455.315,171.196 463.039,166.371 466.752,158.765L482.48,166.442C475.833,180.059 462.006,188.697 446.852,188.699Z" style="fill:rgb(35,31,32);fill-rule:nonzero;"/>
        <path d="M446.852,188.699C430.294,188.699 415.783,177.62 411.419,161.648C407.825,148.491 407.825,134.61 411.419,121.453C415.783,105.48 430.294,94.403 446.852,94.403C463.41,94.403 477.92,105.48 482.284,121.453C484.404,129.215 485.283,137.264 484.889,145.301L427.598,145.301C427.9,149.938 428.765,154.521 430.17,158.951C432.492,166.214 439.226,171.158 446.852,171.196C455.315,171.196 463.039,166.371 466.752,158.765L482.48,166.442C475.833,180.059 462.006,188.697 446.852,188.699Z" style="fill:none;stroke:rgb(35,31,32);stroke-width:0.71px;"/>
        <path d="M430.17,124.15C429.529,126.169 429.001,128.222 428.586,130.299L465.117,130.299C464.702,128.222 464.174,126.169 463.533,124.15C461.226,116.882 454.478,111.944 446.852,111.944C439.226,111.944 432.479,116.882 430.17,124.15Z" style="fill:white;fill-rule:nonzero;"/>
        <path d="M430.17,124.15C429.529,126.169 429.001,128.222 428.586,130.299L465.117,130.299C464.702,128.222 464.174,126.169 463.533,124.15C461.226,116.882 454.478,111.944 446.852,111.944C439.226,111.944 432.479,116.882 430.17,124.15Z" style="fill:none;stroke:white;stroke-width:0.51px;"/>
        <path d="M496.836,21.701L478.468,21.701L21.163,651.571L21.163,676.871L496.836,21.701Z" style="fill:rgb(35,31,32);fill-rule:nonzero;"/>
        <path d="M496.836,21.701L478.468,21.701L21.163,651.571L21.163,676.871L496.836,21.701Z" style="fill:none;stroke:rgb(35,31,32);stroke-width:0.71px;"/>
        <path d="M551.942,21.701L533.573,21.701L21.163,727.472L21.163,752.772L551.942,21.701Z" style="fill:rgb(35,31,32);fill-rule:nonzero;"/>
        <path d="M551.942,21.701L533.573,21.701L21.163,727.472L21.163,752.772L551.942,21.701Z" style="fill:none;stroke:rgb(35,31,32);stroke-width:0.71px;"/>
        <path d="M574.112,67.066L574.112,41.765L43.333,772.837L61.702,772.837L574.112,67.066Z" style="fill:rgb(35,31,32);fill-rule:nonzero;"/>
        <path d="M574.112,67.066L574.112,41.765L43.333,772.837L61.702,772.837L574.112,67.066Z" style="fill:none;stroke:rgb(35,31,32);stroke-width:0.71px;"/>
        <path d="M574.112,142.966L574.112,117.665L98.439,772.837L116.808,772.837L574.112,142.966Z" style="fill:rgb(35,31,32);fill-rule:nonzero;"/>
        <path d="M574.112,142.966L574.112,117.665L98.439,772.837L116.808,772.837L574.112,142.966Z" style="fill:none;stroke:rgb(35,31,32);stroke-width:0.71px;"/>
    </g>
</svg>
