<?xml version="1.0" encoding="UTF-8" standalone="no"?>
<!DOCTYPE svg PUBLIC "-//W3C//DTD SVG 1.1//EN" "http://www.w3.org/Graphics/SVG/1.1/DTD/svg11.dtd">
<svg width="100%" height="100%" viewBox="0 0 171 143" version="1.1" xmlns="http://www.w3.org/2000/svg" xmlns:xlink="http://www.w3.org/1999/xlink" xml:space="preserve" xmlns:serif="http://www.serif.com/" style="fill-rule:evenodd;clip-rule:evenodd;stroke-miterlimit:2;">
    <g>
        <path d="M164.052,0.549L6.947,0.549C3.131,0.549 0.107,3.573 0.107,7.389L0.107,136.052C0.107,139.868 3.131,142.892 6.947,142.892L164.052,142.892C167.867,142.892 170.891,139.868 170.891,136.052L170.891,7.389C170.891,3.645 167.867,0.549 164.052,0.549Z" style="fill:white;fill-rule:nonzero;"/>
        <path d="M164.052,0.549L6.947,0.549C3.131,0.549 0.107,3.573 0.107,7.389L0.107,136.052C0.107,139.868 3.131,142.892 6.947,142.892L164.052,142.892C167.867,142.892 170.891,139.868 170.891,136.052L170.891,7.389C170.891,3.645 167.867,0.549 164.052,0.549Z" style="fill:none;stroke:rgb(0,64,128);stroke-width:0.22px;"/>
        <path d="M164.052,4.004L6.947,4.004C5.076,4.004 3.491,5.517 3.491,7.389L3.491,136.052C3.491,137.924 5.003,139.508 6.947,139.508L164.052,139.508C165.923,139.508 167.507,137.924 167.507,136.052L167.507,7.389C167.507,5.517 165.923,4.004 164.052,4.004Z" style="fill:rgb(0,64,128);fill-rule:nonzero;"/>
        <path d="M164.052,4.004L6.947,4.004C5.076,4.004 3.491,5.517 3.491,7.389L3.491,136.052C3.491,137.924 5.003,139.508 6.947,139.508L164.052,139.508C165.923,139.508 167.507,137.924 167.507,136.052L167.507,7.389C167.507,5.517 165.923,4.004 164.052,4.004Z" style="fill:none;stroke:white;stroke-width:0.22px;"/>
        <path d="M61.955,40.652L70.163,29.061L61.955,40.652Z" style="fill:white;fill-rule:nonzero;"/>
        <path d="M18.035,113.588L18.035,79.893C18.035,79.389 18.395,79.029 18.899,79.029C19.115,79.029 19.259,79.101 19.403,79.245L28.547,88.389L70.163,29.061L81.323,36.836L39.707,96.236L51.443,101.708C51.731,101.78 51.947,102.068 51.947,102.428C51.947,102.788 51.659,103.076 51.371,103.148L19.691,114.74C18.899,114.956 18.035,114.38 18.035,113.588Z" style="fill:white;fill-rule:nonzero;"/>
        <path d="M18.035,113.588L18.035,79.893C18.035,79.389 18.395,79.029 18.899,79.029C19.115,79.029 19.259,79.101 19.403,79.245L28.547,88.389L70.163,29.061L81.323,36.836L39.707,96.236L51.443,101.708C51.731,101.78 51.947,102.068 51.947,102.428C51.947,102.788 51.659,103.076 51.371,103.148L19.691,114.74C18.899,114.956 18.035,114.38 18.035,113.588Z" style="fill:none;stroke:white;stroke-width:0.22px;"/>
        <path d="M152.963,113.588L152.963,79.893C152.963,79.389 152.603,79.029 152.1,79.029C151.883,79.029 151.667,79.101 151.523,79.245L142.379,88.389L100.835,29.061L89.675,36.836L131.219,96.236L119.555,101.708C119.267,101.78 119.052,102.068 119.052,102.428C119.052,102.788 119.267,103.076 119.627,103.148L151.307,114.74C151.379,114.74 151.595,114.812 151.739,114.812C152.387,114.812 152.963,114.236 152.963,113.588Z" style="fill:white;fill-rule:nonzero;"/>
        <path d="M152.963,113.588L152.963,79.893C152.963,79.389 152.603,79.029 152.1,79.029C151.883,79.029 151.667,79.101 151.523,79.245L142.379,88.389L100.835,29.061L89.675,36.836L131.219,96.236L119.555,101.708C119.267,101.78 119.052,102.068 119.052,102.428C119.052,102.788 119.267,103.076 119.627,103.148L151.307,114.74C151.379,114.74 151.595,114.812 151.739,114.812C152.387,114.812 152.963,114.236 152.963,113.588Z" style="fill:none;stroke:white;stroke-width:0.22px;"/>
    </g>
</svg>
