<?xml version="1.0" encoding="UTF-8" standalone="no"?>
<!DOCTYPE svg PUBLIC "-//W3C//DTD SVG 1.1//EN" "http://www.w3.org/Graphics/SVG/1.1/DTD/svg11.dtd">
<svg width="100%" height="100%" viewBox="0 0 596 596" version="1.1" xmlns="http://www.w3.org/2000/svg" xmlns:xlink="http://www.w3.org/1999/xlink" xml:space="preserve" xmlns:serif="http://www.serif.com/" style="fill-rule:evenodd;clip-rule:evenodd;stroke-linecap:round;stroke-linejoin:round;stroke-miterlimit:2;">
    <g>
        <path d="M594.922,298.363C594.922,134.178 461.823,1.079 297.638,1.079C133.453,1.079 0.354,134.178 0.354,298.363C0.354,462.547 133.453,595.647 297.638,595.647C461.823,595.647 594.922,462.547 594.922,298.363Z" style="fill:rgb(211,63,39);fill-rule:nonzero;"/>
        <path d="M594.922,298.363C594.922,134.178 461.823,1.079 297.638,1.079C133.453,1.079 0.354,134.178 0.354,298.363C0.354,462.547 133.453,595.647 297.638,595.647C461.823,595.647 594.922,462.547 594.922,298.363Z" style="fill:none;stroke:rgb(211,63,39);stroke-width:0.71px;"/>
        <path d="M441.61,468.611L127.389,154.391C52.527,242.916 58,374.042 139.979,456.021C221.958,538 353.084,543.474 441.61,468.611Z" style="fill:white;fill-rule:nonzero;"/>
        <path d="M441.61,468.611L127.389,154.391C52.527,242.916 58,374.042 139.979,456.021C221.958,538 353.084,543.474 441.61,468.611Z" style="fill:none;stroke:white;stroke-width:0.71px;"/>
        <path d="M467.887,442.334C542.748,353.809 537.275,222.683 455.297,140.704C373.317,58.726 242.191,53.253 153.666,128.115L467.887,442.334Z" style="fill:white;fill-rule:nonzero;"/>
        <path d="M467.887,442.334C542.748,353.809 537.275,222.683 455.297,140.704C373.317,58.726 242.191,53.253 153.666,128.115L467.887,442.334Z" style="fill:none;stroke:white;stroke-width:0.71px;"/>
        <path d="M196.777,319.163L181.506,369.497C159.781,364.919 138.246,378.046 132.363,399.455C126.481,420.865 138.285,443.154 159.3,450.318C180.315,457.483 203.275,447.045 211.695,426.501C220.115,405.957 211.084,382.409 191.085,372.763L194.039,362.905L234.923,409.696C234.505,414.046 237.105,418.121 241.226,419.575C245.347,421.029 249.929,419.488 252.333,415.838L258.584,415.834C260.759,433.381 273.692,447.688 290.932,451.614C308.171,455.539 326.023,448.246 335.581,433.37C345.138,418.494 344.352,399.225 333.614,385.177C322.878,371.129 304.491,365.313 287.628,370.63L273.851,340.682L276.785,331.058L282.927,330.98C285.461,330.475 287.247,328.195 287.13,325.613C287.013,323.033 285.027,320.923 282.458,320.651L261.174,320.612C258.506,320.623 256.269,322.635 255.979,325.289C255.689,327.943 257.437,330.392 260.04,330.98L266.222,331.058L258.228,357.251L201.315,338.999L204.602,328.083C204.739,326.78 205.833,325.786 207.145,325.776L217.513,325.698C220.037,325.174 221.803,322.891 221.676,320.316C221.55,317.742 219.567,315.643 217.004,315.37L201.565,315.37C199.305,315.435 197.357,316.979 196.777,319.163Z" style="fill:rgb(35,31,32);fill-rule:nonzero;"/>
        <path d="M196.777,319.163L181.506,369.497C159.781,364.919 138.246,378.046 132.363,399.455C126.481,420.865 138.285,443.154 159.3,450.318C180.315,457.483 203.275,447.045 211.695,426.501C220.115,405.957 211.084,382.409 191.085,372.763L194.039,362.905L234.923,409.696C234.505,414.046 237.105,418.121 241.226,419.575C245.347,421.029 249.929,419.488 252.333,415.838L258.584,415.834C260.759,433.381 273.692,447.688 290.932,451.614C308.171,455.539 326.023,448.246 335.581,433.37C345.138,418.494 344.352,399.225 333.614,385.177C322.878,371.129 304.491,365.313 287.628,370.63L273.851,340.682L276.785,331.058L282.927,330.98C285.461,330.475 287.247,328.195 287.13,325.613C287.013,323.033 285.027,320.923 282.458,320.651L261.174,320.612C258.506,320.623 256.269,322.635 255.979,325.289C255.689,327.943 257.437,330.392 260.04,330.98L266.222,331.058L258.228,357.251L201.315,338.999L204.602,328.083C204.739,326.78 205.833,325.786 207.145,325.776L217.513,325.698C220.037,325.174 221.803,322.891 221.676,320.316C221.55,317.742 219.567,315.643 217.004,315.37L201.565,315.37C199.305,315.435 197.357,316.979 196.777,319.163Z" style="fill:none;stroke:rgb(35,31,32);stroke-width:0.71px;"/>
        <path d="M183.61,397.008C182.243,401.671 180.564,406.237 178.585,410.674C178.013,411.915 177.276,413.074 176.394,414.118C174.68,415.855 171.964,416.11 169.958,414.72C167.95,413.33 167.232,410.7 168.256,408.483C170.269,404.559 171.957,400.476 173.303,396.277L178.735,378.586C162.031,375.503 145.765,385.787 141.384,402.199C137.003,418.611 145.982,435.631 162.001,441.283C178.021,446.935 195.692,439.316 202.579,423.788C209.466,408.26 203.253,390.046 188.312,381.965L183.61,397.008Z" style="fill:white;fill-rule:nonzero;"/>
        <path d="M183.61,397.008C182.243,401.671 180.564,406.237 178.585,410.674C178.013,411.915 177.276,413.074 176.394,414.118C174.68,415.855 171.964,416.11 169.958,414.72C167.95,413.33 167.232,410.7 168.256,408.483C170.269,404.559 171.957,400.476 173.303,396.277L178.735,378.586C162.031,375.503 145.765,385.787 141.384,402.199C137.003,418.611 145.982,435.631 162.001,441.283C178.021,446.935 195.692,439.316 202.579,423.788C209.466,408.26 203.253,390.046 188.312,381.965L183.61,397.008Z" style="fill:none;stroke:white;stroke-width:0.71px;"/>
        <path d="M255.138,367.384L244.782,401.049C243.628,401.052 242.482,401.224 241.378,401.558L197.599,351.324L198.264,349.133L255.138,367.384Z" style="fill:white;fill-rule:nonzero;"/>
        <path d="M255.138,367.384L244.782,401.049C243.628,401.052 242.482,401.224 241.378,401.558L197.599,351.324L198.264,349.133L255.138,367.384Z" style="fill:none;stroke:white;stroke-width:0.71px;"/>
        <path d="M278.403,374.821C267.496,381.468 260.207,392.721 258.601,405.393L254.054,405.392L269.391,355.158L278.403,374.821Z" style="fill:white;fill-rule:nonzero;"/>
        <path d="M278.403,374.821C267.496,381.468 260.207,392.721 258.601,405.393L254.054,405.392L269.391,355.158L278.403,374.821Z" style="fill:none;stroke:white;stroke-width:0.34px;"/>
        <path d="M282.395,383.478C274.784,388.464 269.613,396.413 268.139,405.392L292.474,405.392L282.395,383.478Z" style="fill:white;fill-rule:nonzero;"/>
        <path d="M282.395,383.478C274.784,388.464 269.613,396.413 268.139,405.392L292.474,405.392L282.395,383.478Z" style="fill:none;stroke:white;stroke-width:0.34px;"/>
        <path d="M305.032,408.561C305.768,410.168 305.626,412.041 304.657,413.519C303.688,414.996 302.026,415.872 300.259,415.838C289.557,415.628 278.851,415.644 268.148,415.887C270.32,429.161 280.445,439.723 293.615,442.454C306.785,445.183 320.275,439.514 327.543,428.197C334.81,416.879 334.351,402.254 326.39,391.414C318.429,380.574 304.61,375.761 291.637,379.31L305.032,408.561Z" style="fill:white;fill-rule:nonzero;"/>
        <path d="M305.032,408.561C305.768,410.168 305.626,412.041 304.657,413.519C303.688,414.996 302.026,415.872 300.259,415.838C289.557,415.628 278.851,415.644 268.148,415.887C270.32,429.161 280.445,439.723 293.615,442.454C306.785,445.183 320.275,439.514 327.543,428.197C334.81,416.879 334.351,402.254 326.39,391.414C318.429,380.574 304.61,375.761 291.637,379.31L305.032,408.561Z" style="fill:none;stroke:white;stroke-width:0.71px;"/>
        <path d="M361,203.331L361,220.458L338.48,304.216L359.147,309.773L378.946,236.136L378.946,263.726L405.763,309.093L424.187,298.203L399.777,256.909L399.777,181.41L405.697,191.025L405.697,227.645L419.073,227.645L419.073,187.237L397.592,152.35C395.511,148.97 392.596,146.182 389.127,144.254C383.04,140.871 375.427,142.107 370.724,147.243C364.47,154.071 361,162.996 361,172.256L361,182.94L333.58,215.622L343.842,224.1L361,203.331Z" style="fill:rgb(35,31,32);fill-rule:nonzero;"/>
        <path d="M361,203.331L361,220.458L338.48,304.216L359.147,309.773L378.946,236.136L378.946,263.726L405.763,309.093L424.187,298.203L399.777,256.909L399.777,181.41L405.697,191.025L405.697,227.645L419.073,227.645L419.073,187.237L397.592,152.35C395.511,148.97 392.596,146.182 389.127,144.254C383.04,140.871 375.427,142.107 370.724,147.243C364.47,154.071 361,162.996 361,172.256L361,182.94L333.58,215.622L343.842,224.1L361,203.331Z" style="fill:none;stroke:rgb(35,31,32);stroke-width:0.71px;"/>
        <path d="M394.536,121.68C394.536,112.815 387.351,105.629 378.486,105.629C369.621,105.629 362.435,112.815 362.435,121.68C362.435,130.545 369.621,137.73 378.486,137.73C387.351,137.73 394.536,130.545 394.536,121.68Z" style="fill:rgb(35,31,32);fill-rule:nonzero;"/>
        <path d="M394.536,121.68C394.536,112.815 387.351,105.629 378.486,105.629C369.621,105.629 362.435,112.815 362.435,121.68C362.435,130.545 369.621,137.73 378.486,137.73C387.351,137.73 394.536,130.545 394.536,121.68Z" style="fill:none;stroke:rgb(35,31,32);stroke-width:0.71px;"/>
    </g>
</svg>
