<?xml version="1.0" encoding="UTF-8" standalone="no"?>
<!DOCTYPE svg PUBLIC "-//W3C//DTD SVG 1.1//EN" "http://www.w3.org/Graphics/SVG/1.1/DTD/svg11.dtd">
<svg width="100%" height="100%" viewBox="0 0 550 573" version="1.1" xmlns="http://www.w3.org/2000/svg" xmlns:xlink="http://www.w3.org/1999/xlink" xml:space="preserve" xmlns:serif="http://www.serif.com/" style="fill-rule:evenodd;clip-rule:evenodd;stroke-linecap:square;stroke-miterlimit:2;">
    <g>
        <path d="M6.125,546.375L6.125,27.125L7.125,22.625L7.875,20.375L8.875,18.375L11.375,14.875L12.875,13.125L14.375,11.625L16.125,10.375L20.125,8.375L22.125,7.625L24.375,6.875L26.625,6.625L29.125,6.375L520.875,6.375L525.375,6.875L527.625,7.625L529.625,8.375L533.625,10.375L535.375,11.625L536.875,13.125L539.875,16.625L540.875,18.375L541.875,20.375L542.625,22.625L543.625,27.125L543.625,546.375L542.625,550.875L541.875,552.875L540.875,554.875L539.625,556.875L538.375,558.625L535.375,561.625L533.625,563.125L529.625,565.125L527.625,565.875L523.125,566.875L26.625,566.875L22.125,565.875L20.125,565.125L16.125,563.125L14.375,561.625L11.375,558.625L10.125,556.875L8.875,554.875L7.875,552.875L7.125,550.875L6.125,546.375Z" style="fill:rgb(35,31,32);fill-rule:nonzero;"/>
        <path d="M6.125,546.375L6.125,27.125L7.125,22.625L7.875,20.375L8.875,18.375L11.375,14.875L12.875,13.125L14.375,11.625L16.125,10.375L20.125,8.375L22.125,7.625L24.375,6.875L26.625,6.625L29.125,6.375L520.875,6.375L525.375,6.875L527.625,7.625L529.625,8.375L533.625,10.375L535.375,11.625L536.875,13.125L539.875,16.625L540.875,18.375L541.875,20.375L542.625,22.625L543.625,27.125L543.625,546.375L542.625,550.875L541.875,552.875L540.875,554.875L539.625,556.875L538.375,558.625L535.375,561.625L533.625,563.125L529.625,565.125L527.625,565.875L523.125,566.875L26.625,566.875L22.125,565.875L20.125,565.125L16.125,563.125L14.375,561.625L11.375,558.625L10.125,556.875L8.875,554.875L7.875,552.875L7.125,550.875L6.125,546.375Z" style="fill:none;stroke:rgb(35,31,32);stroke-width:0.75px;"/>
        <path d="M17.625,544.125L17.625,29.375L17.875,27.125L18.375,25.125L19.375,23.125L20.875,21.375L22.625,19.875L24.625,18.625L26.875,18.125L29.125,17.875L520.875,17.875L523.125,18.125L525.125,18.875L527.125,19.875L528.875,21.375L531.375,24.875L531.875,27.125L532.125,29.375L532.125,544.125L531.875,546.375L531.375,548.625L528.875,552.125L527.125,553.625L525.125,554.625L523.125,555.375L26.625,555.375L24.625,554.625L22.625,553.625L20.875,552.125L19.375,550.375L18.375,548.375L17.875,546.375L17.625,544.125Z" style="fill:rgb(242,235,69);fill-rule:nonzero;"/>
        <path d="M17.625,544.125L17.625,29.375L17.875,27.125L18.375,25.125L19.375,23.125L20.875,21.375L22.625,19.875L24.625,18.625L26.875,18.125L29.125,17.875L520.875,17.875L523.125,18.125L525.125,18.875L527.125,19.875L528.875,21.375L531.375,24.875L531.875,27.125L532.125,29.375L532.125,544.125L531.875,546.375L531.375,548.625L528.875,552.125L527.125,553.625L525.125,554.625L523.125,555.375L26.625,555.375L24.625,554.625L22.625,553.625L20.875,552.125L19.375,550.375L18.375,548.375L17.875,546.375L17.625,544.125Z" style="fill:none;stroke:rgb(35,31,32);stroke-width:0.75px;"/>
        <path d="M381.125,17.875L312.625,17.875L312.625,81.875L312.875,85.875L313.625,89.625L314.625,93.375L316.125,96.875L317.875,100.125L320.125,103.375L322.625,106.375L325.625,108.875L328.625,111.125L332.125,112.875L335.625,114.375L339.125,115.375L343.125,116.125L346.875,116.375L350.375,116.125L353.625,115.625L356.875,114.875L360.125,113.625L363.125,112.375L366.125,110.625L368.875,108.625L371.125,106.125L373.875,103.375L377.875,96.875L379.375,93.375L380.375,89.625L381.125,85.875L381.125,17.875Z" style="fill:rgb(35,31,32);fill-rule:nonzero;"/>
        <path d="M381.125,17.875L312.625,17.875L312.625,81.875L312.875,85.875L313.625,89.625L314.625,93.375L316.125,96.875L317.875,100.125L320.125,103.375L322.625,106.375L325.625,108.875L328.625,111.125L332.125,112.875L335.625,114.375L339.125,115.375L343.125,116.125L346.875,116.375L350.375,116.125L353.625,115.625L356.875,114.875L360.125,113.625L363.125,112.375L366.125,110.625L368.875,108.625L371.125,106.125L373.875,103.375L377.875,96.875L379.375,93.375L380.375,89.625L381.125,85.875L381.125,17.875Z" style="fill:none;stroke:rgb(35,31,32);stroke-width:0.75px;"/>
        <path d="M212.125,168.375L212.125,133.625L173.125,172.625L173.125,122.125L231.375,63.625L289.875,122.125L289.875,172.625L250.875,133.625L250.875,163.125L251.375,170.125L251.875,173.625L252.375,176.875L253.125,180.375L254.125,184.125L255.125,187.625L256.625,191.125L259.125,196.625L262.125,201.625L265.375,206.625L269.125,211.375L273.125,215.875L277.375,219.625L427.875,347.625L432.625,351.875L436.875,356.125L441.125,360.875L444.875,365.625L448.625,370.625L451.875,375.875L454.875,381.375L457.625,386.875L460.125,392.375L462.125,398.125L463.875,404.125L465.375,410.125L466.625,416.125L468.125,428.625L468.125,530.375L429.375,530.375L429.375,434.875L429.125,428.875L428.375,422.875L427.125,417.125L425.625,411.375L423.375,405.625L421.125,400.375L418.125,395.125L414.875,390.375L411.125,385.625L407.125,381.375L402.625,377.375L252.375,249.375L247.625,245.125L243.375,240.875L239.125,236.125L235.375,231.375L231.625,226.375L228.375,221.125L225.375,215.875L222.625,210.375L220.125,204.625L217.875,198.875L216.125,192.875L214.625,186.875L213.375,180.875L212.625,174.625L212.125,168.375Z" style="fill:rgb(35,31,32);fill-rule:nonzero;"/>
        <path d="M212.125,168.375L212.125,133.625L173.125,172.625L173.125,122.125L231.375,63.625L289.875,122.125L289.875,172.625L250.875,133.625L250.875,163.125L251.375,170.125L251.875,173.625L252.375,176.875L253.125,180.375L254.125,184.125L255.125,187.625L256.625,191.125L259.125,196.625L262.125,201.625L265.375,206.625L269.125,211.375L273.125,215.875L277.375,219.625L427.875,347.625L432.625,351.875L436.875,356.125L441.125,360.875L444.875,365.625L448.625,370.625L451.875,375.875L454.875,381.375L457.625,386.875L460.125,392.375L462.125,398.125L463.875,404.125L465.375,410.125L466.625,416.125L468.125,428.625L468.125,530.375L429.375,530.375L429.375,434.875L429.125,428.875L428.375,422.875L427.125,417.125L425.625,411.375L423.375,405.625L421.125,400.375L418.125,395.125L414.875,390.375L411.125,385.625L407.125,381.375L402.625,377.375L252.375,249.375L247.625,245.125L243.375,240.875L239.125,236.125L235.375,231.375L231.625,226.375L228.375,221.125L225.375,215.875L222.625,210.375L220.125,204.625L217.875,198.875L216.125,192.875L214.625,186.875L213.375,180.875L212.625,174.625L212.125,168.375Z" style="fill:none;stroke:rgb(35,31,32);stroke-width:0.75px;"/>
        <path d="M381.125,555.375L312.625,555.375L312.625,491.375L312.875,487.875L313.375,484.375L314.125,481.125L315.375,477.875L316.875,475.125L318.625,472.125L320.375,469.625L322.625,467.125L325.125,464.875L327.625,463.125L330.375,461.375L333.375,459.875L336.625,458.625L339.875,457.875L343.375,457.375L346.875,457.125L350.375,457.375L353.875,457.875L357.125,458.625L360.125,459.875L366.125,462.875L368.625,464.875L371.125,467.125L373.375,469.625L375.375,472.125L377.125,475.125L378.625,478.125L379.625,481.125L380.625,484.625L381.125,487.875L381.125,555.375Z" style="fill:rgb(35,31,32);fill-rule:nonzero;"/>
        <path d="M381.125,555.375L312.625,555.375L312.625,491.375L312.875,487.875L313.375,484.375L314.125,481.125L315.375,477.875L316.875,475.125L318.625,472.125L320.375,469.625L322.625,467.125L325.125,464.875L327.625,463.125L330.375,461.375L333.375,459.875L336.625,458.625L339.875,457.875L343.375,457.375L346.875,457.125L350.375,457.375L353.875,457.875L357.125,458.625L360.125,459.875L366.125,462.875L368.625,464.875L371.125,467.125L373.375,469.625L375.375,472.125L377.125,475.125L378.625,478.125L379.625,481.125L380.625,484.625L381.125,487.875L381.125,555.375Z" style="fill:none;stroke:rgb(35,31,32);stroke-width:0.75px;"/>
        <path d="M81.625,122.125L81.625,303.625L42.625,264.625L42.625,315.375L101.125,373.625L159.375,315.375L159.375,264.625L120.375,303.625L120.375,122.125L81.625,122.125Z" style="fill:rgb(35,31,32);fill-rule:nonzero;"/>
        <path d="M81.625,122.125L81.625,303.625L42.625,264.625L42.625,315.375L101.125,373.625L159.375,315.375L159.375,264.625L120.375,303.625L120.375,122.125L81.625,122.125Z" style="fill:none;stroke:rgb(35,31,32);stroke-width:0.75px;"/>
    </g>
</svg>
