<?xml version="1.0" encoding="UTF-8" standalone="no"?>
<!DOCTYPE svg PUBLIC "-//W3C//DTD SVG 1.1//EN" "http://www.w3.org/Graphics/SVG/1.1/DTD/svg11.dtd">
<svg width="100%" height="100%" viewBox="0 0 538 730" version="1.1" xmlns="http://www.w3.org/2000/svg" xmlns:xlink="http://www.w3.org/1999/xlink" xml:space="preserve" xmlns:serif="http://www.serif.com/" style="fill-rule:evenodd;clip-rule:evenodd;stroke-linecap:square;stroke-miterlimit:2;">
    <g>
        <path d="M518.375,725.875L521.375,725.375L523.125,724.875L524.625,724.375L526.125,723.625L527.625,722.625L528.875,721.625L529.875,720.375L531.375,718.375L532.375,715.875L533.125,713.375L533.375,710.875L533.125,19.375L533.125,17.875L532.875,16.125L531.875,13.125L531.125,11.875L530.125,10.375L527.875,8.125L525.625,6.625L523.375,5.625L520.875,4.875L518.375,4.625L17.375,4.625L15.875,4.875L14.375,5.375L12.625,6.125L11.125,6.875L8.625,8.875L7.625,9.875L6.125,12.125L4.875,14.375L4.125,16.875L4.125,710.875L4.625,714.375L4.875,715.875L5.375,717.125L6.875,719.625L9.375,722.375L11.625,723.875L13.875,724.875L16.375,725.625L18.875,725.875L518.375,725.875Z" style="fill:rgb(35,31,32);fill-rule:nonzero;"/>
        <path d="M518.375,725.875L521.375,725.375L523.125,724.875L524.625,724.375L526.125,723.625L527.625,722.625L528.875,721.625L529.875,720.375L531.375,718.375L532.375,715.875L533.125,713.375L533.375,710.875L533.125,19.375L533.125,17.875L532.875,16.125L531.875,13.125L531.125,11.875L530.125,10.375L527.875,8.125L525.625,6.625L523.375,5.625L520.875,4.875L518.375,4.625L17.375,4.625L15.875,4.875L14.375,5.375L12.625,6.125L11.125,6.875L8.625,8.875L7.625,9.875L6.125,12.125L4.875,14.375L4.125,16.875L4.125,710.875L4.625,714.375L4.875,715.875L5.375,717.125L6.875,719.625L9.375,722.375L11.625,723.875L13.875,724.875L16.375,725.625L18.875,725.875L518.375,725.875Z" style="fill:none;stroke:rgb(35,31,32);stroke-width:0.75px;"/>
        <path d="M518.375,718.375L520.125,718.125L522.125,717.375L523.625,716.125L524.875,714.625L525.625,712.875L525.625,17.625L524.875,15.875L523.625,14.375L522.125,13.125L520.125,12.375L518.375,12.125L18.875,12.125L17.125,12.375L15.375,13.125L13.625,14.375L12.625,15.875L11.875,17.625L11.625,19.375L11.625,710.875L11.875,712.875L12.625,714.625L13.625,716.125L15.375,717.375L17.125,718.125L18.875,718.375L518.375,718.375Z" style="fill:rgb(254,190,15);fill-rule:nonzero;"/>
        <path d="M518.375,718.375L520.125,718.125L522.125,717.375L523.625,716.125L524.875,714.625L525.625,712.875L525.625,17.625L524.875,15.875L523.625,14.375L522.125,13.125L520.125,12.375L518.375,12.125L18.875,12.125L17.125,12.375L15.375,13.125L13.625,14.375L12.625,15.875L11.875,17.625L11.625,19.375L11.625,710.875L11.875,712.875L12.625,714.625L13.625,716.125L15.375,717.375L17.125,718.125L18.875,718.375L518.375,718.375Z" style="fill:none;stroke:rgb(254,190,15);stroke-width:0.75px;"/>
        <path d="M209.125,511.375L268.625,571.125L328.125,511.375L466.125,511.375L468.625,511.125L471.375,510.625L473.625,509.375L475.625,507.875L476.875,507.125L477.875,505.875L478.875,504.375L480.375,501.375L480.625,499.625L481.125,498.125L481.125,71.625L480.875,69.125L480.125,66.625L479.125,64.125L477.625,62.125L476.375,60.875L473.875,58.875L472.375,58.125L469.375,57.125L467.625,56.875L71.125,56.875L68.625,57.125L66.125,57.875L63.625,58.875L61.625,60.375L60.375,61.125L59.375,62.375L58.375,63.875L57.625,65.375L57.125,66.875L56.625,68.625L56.125,71.625L56.125,496.625L56.375,499.125L57.125,501.625L58.125,504.125L59.625,506.125L61.625,507.875L63.625,509.375L66.125,510.625L68.625,511.125L71.125,511.375L209.125,511.375Z" style="fill:rgb(35,31,32);fill-rule:nonzero;"/>
        <path d="M209.125,511.375L268.625,571.125L328.125,511.375L466.125,511.375L468.625,511.125L471.375,510.625L473.625,509.375L475.625,507.875L476.875,507.125L477.875,505.875L478.875,504.375L480.375,501.375L480.625,499.625L481.125,498.125L481.125,71.625L480.875,69.125L480.125,66.625L479.125,64.125L477.625,62.125L476.375,60.875L473.875,58.875L472.375,58.125L469.375,57.125L467.625,56.875L71.125,56.875L68.625,57.125L66.125,57.875L63.625,58.875L61.625,60.375L60.375,61.125L59.375,62.375L58.375,63.875L57.625,65.375L57.125,66.875L56.625,68.625L56.125,71.625L56.125,496.625L56.375,499.125L57.125,501.625L58.125,504.125L59.625,506.125L61.625,507.875L63.625,509.375L66.125,510.625L68.625,511.125L71.125,511.375L209.125,511.375Z" style="fill:none;stroke:rgb(35,31,32);stroke-width:0.75px;"/>
        <path d="M212.125,504.125L268.625,560.375L325.125,504.125L466.125,504.125L468.125,503.875L469.875,503.125L471.375,501.875L472.625,500.375L473.375,498.625L473.625,496.625L473.625,71.625L473.375,69.875L472.625,67.875L471.375,66.375L469.875,65.125L468.125,64.375L466.125,64.125L71.125,64.125L69.375,64.375L67.375,65.125L65.875,66.375L64.625,67.875L63.875,69.875L63.625,71.625L63.625,496.625L63.875,498.625L64.625,500.375L65.875,501.875L67.375,503.125L69.375,503.875L71.125,504.125L212.125,504.125Z" style="fill:white;fill-rule:nonzero;"/>
        <path d="M212.125,504.125L268.625,560.375L325.125,504.125L466.125,504.125L468.125,503.875L469.875,503.125L471.375,501.875L472.625,500.375L473.375,498.625L473.625,496.625L473.625,71.625L473.375,69.875L472.625,67.875L471.375,66.375L469.875,65.125L468.125,64.375L466.125,64.125L71.125,64.125L69.375,64.375L67.375,65.125L65.875,66.375L64.625,67.875L63.875,69.875L63.625,71.625L63.625,496.625L63.875,498.625L64.625,500.375L65.875,501.875L67.375,503.125L69.375,503.875L71.125,504.125L212.125,504.125Z" style="fill:none;stroke:white;stroke-width:0.75px;"/>
        <path d="M354.375,257.125L344.125,257.125L341.625,257.375L339.375,257.875L337.125,258.875L336.125,259.625L335.125,260.625L334.125,261.875L333.375,263.125L332.625,264.625L332.125,265.875L332.125,267.375L331.875,268.875L332.375,271.875L332.875,273.375L333.625,274.875L335.625,277.375L336.875,278.375L339.875,279.875L341.625,280.625L343.375,280.875L345.125,281.375L348.375,281.375L350.125,281.125L351.625,280.625L353.125,279.875L354.375,279.125L354.375,280.375L362.125,280.375L362.125,255.375L361.875,252.875L361.375,250.375L360.125,248.375L358.625,246.375L356.875,244.625L355.625,243.875L354.625,243.375L353.125,242.875L351.875,242.375L348.625,242.125L345.375,242.125L342.125,242.375L338.875,242.875L335.875,243.625L333.625,244.375L336.125,251.375L340.125,250.125L344.625,249.375L348.875,249.375L350.375,249.625L351.625,250.125L352.875,251.125L354.375,253.625L354.375,257.125Z" style="fill-rule:nonzero;"/>
        <path d="M354.375,257.125L344.125,257.125L341.625,257.375L339.375,257.875L337.125,258.875L336.125,259.625L335.125,260.625L334.125,261.875L333.375,263.125L332.625,264.625L332.125,265.875L332.125,267.375L331.875,268.875L332.375,271.875L332.875,273.375L333.625,274.875L335.625,277.375L336.875,278.375L339.875,279.875L341.625,280.625L343.375,280.875L345.125,281.375L348.375,281.375L350.125,281.125L351.625,280.625L353.125,279.875L354.375,279.125L354.375,280.375L362.125,280.375L362.125,255.375L361.875,252.875L361.375,250.375L360.125,248.375L358.625,246.375L356.875,244.625L355.625,243.875L354.625,243.375L353.125,242.875L351.875,242.375L348.625,242.125L345.375,242.125L342.125,242.375L338.875,242.875L335.875,243.625L333.625,244.375L336.125,251.375L340.125,250.125L344.625,249.375L348.875,249.375L350.375,249.625L351.625,250.125L352.875,251.125L354.375,253.625L354.375,257.125Z" style="fill:none;stroke:black;stroke-width:0.75px;"/>
        <path d="M148.875,346.625L138.625,346.625L136.125,346.875L133.875,347.375L131.625,348.375L130.625,349.125L129.625,350.125L128.625,351.375L127.875,352.625L127.125,354.125L126.625,355.375L126.625,356.875L126.375,358.375L126.875,361.375L127.375,362.875L128.125,364.375L130.125,366.875L131.375,367.875L134.375,369.375L136.125,370.125L137.875,370.375L139.625,370.875L142.875,370.875L144.625,370.625L146.125,370.125L147.625,369.375L148.875,368.625L148.875,369.875L156.625,369.875L156.625,344.875L156.375,342.375L155.875,339.875L154.625,337.875L153.125,335.875L151.375,334.125L150.125,333.375L149.125,332.875L147.625,332.375L146.375,331.875L143.125,331.625L139.875,331.625L136.625,331.875L133.375,332.375L130.375,333.125L128.125,333.875L130.625,340.875L134.625,339.625L139.125,338.875L143.375,338.875L144.875,339.125L146.125,339.625L147.375,340.625L148.875,343.125L148.875,346.625Z" style="fill-rule:nonzero;"/>
        <path d="M148.875,346.625L138.625,346.625L136.125,346.875L133.875,347.375L131.625,348.375L130.625,349.125L129.625,350.125L128.625,351.375L127.875,352.625L127.125,354.125L126.625,355.375L126.625,356.875L126.375,358.375L126.875,361.375L127.375,362.875L128.125,364.375L130.125,366.875L131.375,367.875L134.375,369.375L136.125,370.125L137.875,370.375L139.625,370.875L142.875,370.875L144.625,370.625L146.125,370.125L147.625,369.375L148.875,368.625L148.875,369.875L156.625,369.875L156.625,344.875L156.375,342.375L155.875,339.875L154.625,337.875L153.125,335.875L151.375,334.125L150.125,333.375L149.125,332.875L147.625,332.375L146.375,331.875L143.125,331.625L139.875,331.625L136.625,331.875L133.375,332.375L130.375,333.125L128.125,333.875L130.625,340.875L134.625,339.625L139.125,338.875L143.375,338.875L144.875,339.125L146.125,339.625L147.375,340.625L148.875,343.125L148.875,346.625Z" style="fill:none;stroke:black;stroke-width:0.75px;"/>
        <path d="M216.375,436.125L206.125,436.125L203.625,436.375L201.375,436.875L199.125,437.875L198.125,438.625L197.125,439.625L196.125,440.875L195.375,442.125L194.625,443.625L194.125,444.875L194.125,446.375L193.875,447.875L194.375,450.875L194.875,452.375L195.625,453.875L197.625,456.375L198.875,457.375L201.875,458.875L203.625,459.625L205.375,459.875L207.125,460.375L210.375,460.375L212.125,460.125L213.625,459.625L215.125,458.875L216.375,458.125L216.375,459.375L224.125,459.375L224.125,434.375L223.875,431.875L223.375,429.375L222.125,427.375L220.625,425.375L218.875,423.625L217.625,422.875L216.625,422.375L215.125,421.875L213.875,421.375L210.625,421.125L207.375,421.125L204.125,421.375L200.875,421.875L197.875,422.625L195.625,423.375L198.125,430.375L202.125,429.125L206.625,428.375L210.875,428.375L212.375,428.625L213.625,429.125L214.875,430.125L216.375,432.625L216.375,436.125Z" style="fill-rule:nonzero;"/>
        <path d="M216.375,436.125L206.125,436.125L203.625,436.375L201.375,436.875L199.125,437.875L198.125,438.625L197.125,439.625L196.125,440.875L195.375,442.125L194.625,443.625L194.125,444.875L194.125,446.375L193.875,447.875L194.375,450.875L194.875,452.375L195.625,453.875L197.625,456.375L198.875,457.375L201.875,458.875L203.625,459.625L205.375,459.875L207.125,460.375L210.375,460.375L212.125,460.125L213.625,459.625L215.125,458.875L216.375,458.125L216.375,459.375L224.125,459.375L224.125,434.375L223.875,431.875L223.375,429.375L222.125,427.375L220.625,425.375L218.875,423.625L217.625,422.875L216.625,422.375L215.125,421.875L213.875,421.375L210.625,421.125L207.375,421.125L204.125,421.375L200.875,421.875L197.875,422.625L195.625,423.375L198.125,430.375L202.125,429.125L206.625,428.375L210.875,428.375L212.375,428.625L213.625,429.125L214.875,430.125L216.375,432.625L216.375,436.125Z" style="fill:none;stroke:black;stroke-width:0.75px;"/>
        <path d="M306.625,242.125L304.375,242.125L302.125,242.625L300.125,243.125L296.625,245.125L294.125,247.625L292.875,249.375L292.125,250.875L291.375,252.875L290.625,254.625L290.375,256.625L289.875,258.625L289.875,260.875L290.125,265.125L290.375,267.375L290.875,269.625L291.625,271.625L293.625,275.125L295.125,276.875L298.625,279.375L301.125,280.625L303.875,281.125L306.625,281.375L309.125,281.125L311.625,280.125L313.625,278.875L313.625,280.375L321.625,280.375L321.625,228.125L313.625,228.125L313.625,244.375L311.625,243.125L309.125,242.375L306.625,242.125Z" style="fill-rule:nonzero;"/>
        <path d="M306.625,242.125L304.375,242.125L302.125,242.625L300.125,243.125L296.625,245.125L294.125,247.625L292.875,249.375L292.125,250.875L291.375,252.875L290.625,254.625L290.375,256.625L289.875,258.625L289.875,260.875L290.125,265.125L290.375,267.375L290.875,269.625L291.625,271.625L293.625,275.125L295.125,276.875L298.625,279.375L301.125,280.625L303.875,281.125L306.625,281.375L309.125,281.125L311.625,280.125L313.625,278.875L313.625,280.375L321.625,280.375L321.625,228.125L313.625,228.125L313.625,244.375L311.625,243.125L309.125,242.375L306.625,242.125Z" style="fill:none;stroke:black;stroke-width:0.75px;"/>
        <path d="M305.375,331.625L303.125,331.625L300.875,332.125L298.875,332.625L295.375,334.625L292.875,337.125L291.625,338.875L290.875,340.375L290.125,342.375L289.375,344.125L289.125,346.125L288.625,348.125L288.625,350.375L288.875,354.625L289.125,356.875L289.625,359.125L290.375,361.125L292.375,364.625L293.875,366.375L297.375,368.875L299.875,370.125L302.625,370.625L305.375,370.875L307.875,370.625L310.375,369.625L312.375,368.375L312.375,369.875L320.375,369.875L320.375,317.625L312.375,317.625L312.375,333.875L310.375,332.625L307.875,331.875L305.375,331.625Z" style="fill-rule:nonzero;"/>
        <path d="M305.375,331.625L303.125,331.625L300.875,332.125L298.875,332.625L295.375,334.625L292.875,337.125L291.625,338.875L290.875,340.375L290.125,342.375L289.375,344.125L289.125,346.125L288.625,348.125L288.625,350.375L288.875,354.625L289.125,356.875L289.625,359.125L290.375,361.125L292.375,364.625L293.875,366.375L297.375,368.875L299.875,370.125L302.625,370.625L305.375,370.875L307.875,370.625L310.375,369.625L312.375,368.375L312.375,369.875L320.375,369.875L320.375,317.625L312.375,317.625L312.375,333.875L310.375,332.625L307.875,331.875L305.375,331.625Z" style="fill:none;stroke:black;stroke-width:0.75px;"/>
        <path d="M347.125,331.625L344.875,331.625L342.625,332.125L340.625,332.625L337.125,334.625L334.625,337.125L333.375,338.875L332.625,340.375L331.875,342.375L331.125,344.125L330.875,346.125L330.375,348.125L330.375,350.375L330.625,354.625L330.875,356.875L331.375,359.125L332.125,361.125L334.125,364.625L335.625,366.375L339.125,368.875L341.625,370.125L344.375,370.625L347.125,370.875L349.625,370.625L352.125,369.625L354.125,368.375L354.125,369.875L362.125,369.875L362.125,317.625L354.125,317.625L354.125,333.875L352.125,332.625L349.625,331.875L347.125,331.625Z" style="fill-rule:nonzero;"/>
        <path d="M347.125,331.625L344.875,331.625L342.625,332.125L340.625,332.625L337.125,334.625L334.625,337.125L333.375,338.875L332.625,340.375L331.875,342.375L331.125,344.125L330.875,346.125L330.375,348.125L330.375,350.375L330.625,354.625L330.875,356.875L331.375,359.125L332.125,361.125L334.125,364.625L335.625,366.375L339.125,368.875L341.625,370.125L344.375,370.625L347.125,370.875L349.625,370.625L352.125,369.625L354.125,368.375L354.125,369.875L362.125,369.875L362.125,317.625L354.125,317.625L354.125,333.875L352.125,332.625L349.625,331.875L347.125,331.625Z" style="fill:none;stroke:black;stroke-width:0.75px;"/>
        <path d="M282.625,263.125L282.625,259.875L282.375,256.625L281.625,253.375L280.625,250.625L279.375,248.375L277.625,246.375L275.875,244.875L273.875,243.625L271.625,242.625L269.375,242.125L264.625,242.125L262.375,242.625L260.125,243.625L257.875,244.875L256.125,246.375L254.375,248.375L253.125,250.625L252.125,253.375L251.375,257.375L251.125,261.625L251.375,265.875L252.125,270.125L252.875,272.375L254.125,274.625L255.625,276.625L259.625,279.625L261.875,280.625L264.375,281.125L266.875,281.375L269.125,281.125L271.375,280.625L273.625,279.875L275.625,278.875L277.625,277.375L279.375,275.875L280.625,274.125L281.875,272.125L275.125,268.875L273.625,271.375L272.375,272.375L271.125,273.125L268.125,274.125L266.625,274.125L265.125,273.875L263.375,273.125L262.125,272.125L261.125,271.125L259.625,268.125L259.375,266.625L258.875,263.125L282.625,263.125Z" style="fill-rule:nonzero;"/>
        <path d="M282.625,263.125L282.625,259.875L282.375,256.625L281.625,253.375L280.625,250.625L279.375,248.375L277.625,246.375L275.875,244.875L273.875,243.625L271.625,242.625L269.375,242.125L264.625,242.125L262.375,242.625L260.125,243.625L257.875,244.875L256.125,246.375L254.375,248.375L253.125,250.625L252.125,253.375L251.375,257.375L251.125,261.625L251.375,265.875L252.125,270.125L252.875,272.375L254.125,274.625L255.625,276.625L259.625,279.625L261.875,280.625L264.375,281.125L266.875,281.375L269.125,281.125L271.375,280.625L273.625,279.875L275.625,278.875L277.625,277.375L279.375,275.875L280.625,274.125L281.875,272.125L275.125,268.875L273.625,271.375L272.375,272.375L271.125,273.125L268.125,274.125L266.625,274.125L265.125,273.875L263.375,273.125L262.125,272.125L261.125,271.125L259.625,268.125L259.375,266.625L258.875,263.125L282.625,263.125Z" style="fill:none;stroke:black;stroke-width:0.75px;"/>
        <path d="M404.625,352.458L404.625,349.208L404.375,345.958L403.625,342.708L402.625,339.958L401.375,337.708L399.625,335.708L397.875,334.208L395.875,332.958L393.625,331.958L391.375,331.458L386.625,331.458L384.375,331.958L382.125,332.958L379.875,334.208L378.125,335.708L376.375,337.708L375.125,339.958L374.125,342.708L373.375,346.708L373.125,350.958L373.375,355.208L374.125,359.458L374.875,361.708L376.125,363.958L377.625,365.958L381.625,368.958L383.875,369.958L386.375,370.458L388.875,370.708L391.125,370.458L393.375,369.958L395.625,369.208L397.625,368.208L399.625,366.708L401.375,365.208L402.625,363.458L403.875,361.458L397.125,358.208L395.625,360.708L394.375,361.708L393.125,362.458L390.125,363.458L388.625,363.458L387.125,363.208L385.375,362.458L384.125,361.458L383.125,360.458L381.625,357.458L381.375,355.958L380.875,352.458L404.625,352.458Z" style="fill-rule:nonzero;"/>
        <path d="M404.625,352.458L404.625,349.208L404.375,345.958L403.625,342.708L402.625,339.958L401.375,337.708L399.625,335.708L397.875,334.208L395.875,332.958L393.625,331.958L391.375,331.458L386.625,331.458L384.375,331.958L382.125,332.958L379.875,334.208L378.125,335.708L376.375,337.708L375.125,339.958L374.125,342.708L373.375,346.708L373.125,350.958L373.375,355.208L374.125,359.458L374.875,361.708L376.125,363.958L377.625,365.958L381.625,368.958L383.875,369.958L386.375,370.458L388.875,370.708L391.125,370.458L393.375,369.958L395.625,369.208L397.625,368.208L399.625,366.708L401.375,365.208L402.625,363.458L403.875,361.458L397.125,358.208L395.625,360.708L394.375,361.708L393.125,362.458L390.125,363.458L388.625,363.458L387.125,363.208L385.375,362.458L384.125,361.458L383.125,360.458L381.625,357.458L381.375,355.958L380.875,352.458L404.625,352.458Z" style="fill:none;stroke:black;stroke-width:0.75px;"/>
        <path d="M350.125,442.125L350.125,438.875L349.875,435.625L349.125,432.375L348.125,429.625L346.875,427.375L345.125,425.375L343.375,423.875L341.375,422.625L339.125,421.625L336.875,421.125L332.125,421.125L329.875,421.625L327.625,422.625L325.375,423.875L323.625,425.375L321.875,427.375L320.625,429.625L319.625,432.375L318.875,436.375L318.625,440.625L318.875,444.875L319.625,449.125L320.375,451.375L321.625,453.625L323.125,455.625L327.125,458.625L329.375,459.625L331.875,460.125L334.375,460.375L336.625,460.125L338.875,459.625L341.125,458.875L343.125,457.875L345.125,456.375L346.875,454.875L348.125,453.125L349.375,451.125L342.625,447.875L341.125,450.375L339.875,451.375L338.625,452.125L335.625,453.125L334.125,453.125L332.625,452.875L330.875,452.125L329.625,451.125L328.625,450.125L327.125,447.125L326.875,445.625L326.375,442.125L350.125,442.125Z" style="fill-rule:nonzero;"/>
        <path d="M350.125,442.125L350.125,438.875L349.875,435.625L349.125,432.375L348.125,429.625L346.875,427.375L345.125,425.375L343.375,423.875L341.375,422.625L339.125,421.625L336.875,421.125L332.125,421.125L329.875,421.625L327.625,422.625L325.375,423.875L323.625,425.375L321.875,427.375L320.625,429.625L319.625,432.375L318.875,436.375L318.625,440.625L318.875,444.875L319.625,449.125L320.375,451.375L321.625,453.625L323.125,455.625L327.125,458.625L329.375,459.625L331.875,460.125L334.375,460.375L336.625,460.125L338.875,459.625L341.125,458.875L343.125,457.875L345.125,456.375L346.875,454.875L348.125,453.125L349.375,451.125L342.625,447.875L341.125,450.375L339.875,451.375L338.625,452.125L335.625,453.125L334.125,453.125L332.625,452.875L330.875,452.125L329.625,451.125L328.625,450.125L327.125,447.125L326.875,445.625L326.375,442.125L350.125,442.125Z" style="fill:none;stroke:black;stroke-width:0.75px;"/>
        <path d="M220.375,243.125L212.375,243.125L224.125,280.375L233.875,280.375L245.625,243.125L237.625,243.125L228.875,269.875L220.375,243.125Z" style="fill-rule:nonzero;"/>
        <path d="M220.375,243.125L212.375,243.125L224.125,280.375L233.875,280.375L245.625,243.125L237.625,243.125L228.875,269.875L220.375,243.125Z" style="fill:none;stroke:black;stroke-width:0.75px;"/>
        <rect x="194.625" y="228.125" width="7.75" height="52.25"/>
        <rect x="194.625" y="228.125" width="7.75" height="52.25" style="fill:none;stroke:black;stroke-width:0.75px;"/>
        <path d="M155.625,228.375L155.625,280.375L187.625,280.375L187.625,271.875L164.375,271.875L164.375,257.375L181.375,257.375L181.375,249.125L164.375,249.125L164.375,236.625L187.625,236.625L187.625,228.375L155.625,228.375Z" style="fill-rule:nonzero;"/>
        <path d="M155.625,228.375L155.625,280.375L187.625,280.375L187.625,271.875L164.375,271.875L164.375,257.375L181.375,257.375L181.375,249.125L164.375,249.125L164.375,236.625L187.625,236.625L187.625,228.375L155.625,228.375Z" style="fill:none;stroke:black;stroke-width:0.75px;"/>
        <path d="M249.875,358.625L250.375,360.375L251.875,363.375L252.875,364.625L253.625,365.875L256.125,367.875L258.625,369.375L260.125,369.875L261.375,370.375L262.875,370.625L264.625,370.875L266.125,370.625L267.875,370.625L271.625,369.375L273.375,368.625L275.125,367.375L276.625,366.125L277.875,364.625L278.875,363.125L279.625,361.375L280.375,359.375L280.875,357.625L281.375,355.625L281.625,351.625L281.375,347.375L280.625,343.375L279.625,340.375L278.875,339.125L275.875,335.375L273.375,333.625L270.625,332.375L269.125,331.875L267.375,331.625L262.625,331.625L261.125,332.125L257.125,333.625L254.125,336.125L252.875,337.625L251.875,339.125L250.875,340.875L250.125,342.875L249.625,344.625L249.375,346.625L249.125,350.625L249.375,354.875L249.875,358.625Z" style="fill-rule:nonzero;"/>
        <path d="M249.875,358.625L250.375,360.375L251.875,363.375L252.875,364.625L253.625,365.875L256.125,367.875L258.625,369.375L260.125,369.875L261.375,370.375L262.875,370.625L264.625,370.875L266.125,370.625L267.875,370.625L271.625,369.375L273.375,368.625L275.125,367.375L276.625,366.125L277.875,364.625L278.875,363.125L279.625,361.375L280.375,359.375L280.875,357.625L281.375,355.625L281.625,351.625L281.375,347.375L280.625,343.375L279.625,340.375L278.875,339.125L275.875,335.375L273.375,333.625L270.625,332.375L269.125,331.875L267.375,331.625L262.625,331.625L261.125,332.125L257.125,333.625L254.125,336.125L252.875,337.625L251.875,339.125L250.875,340.875L250.125,342.875L249.625,344.625L249.375,346.625L249.125,350.625L249.375,354.875L249.875,358.625Z" style="fill:none;stroke:black;stroke-width:0.75px;"/>
        <path d="M230.875,371.125L230.875,368.375L228.875,369.625L226.875,370.375L224.375,370.875L219.875,370.375L217.625,369.625L215.375,368.625L213.625,367.375L211.875,365.875L210.375,364.125L208.375,360.125L207.375,355.625L207.125,353.375L207.125,348.375L207.625,345.625L208.125,343.125L208.875,340.875L210.125,338.625L211.625,336.875L213.625,334.875L215.875,333.375L217.875,332.625L219.625,331.875L223.625,331.375L225.375,331.625L227.375,332.125L229.125,332.875L230.875,333.875L230.875,332.625L238.625,332.625L238.625,370.625L238.375,373.125L237.625,375.875L236.625,378.125L235.125,380.375L233.125,382.125L231.125,383.625L229.875,384.375L228.625,384.875L225.875,385.625L219.625,385.625L216.375,384.875L213.375,384.375L210.625,383.375L208.125,382.375L211.125,375.875L215.125,377.125L219.375,378.125L223.375,378.375L225.125,378.125L226.375,377.875L227.625,377.125L228.625,376.375L229.625,375.125L230.125,374.125L230.625,372.625L230.875,371.125Z" style="fill-rule:nonzero;"/>
        <path d="M230.875,371.125L230.875,368.375L228.875,369.625L226.875,370.375L224.375,370.875L219.875,370.375L217.625,369.625L215.375,368.625L213.625,367.375L211.875,365.875L210.375,364.125L208.375,360.125L207.375,355.625L207.125,353.375L207.125,348.375L207.625,345.625L208.125,343.125L208.875,340.875L210.125,338.625L211.625,336.875L213.625,334.875L215.875,333.375L217.875,332.625L219.625,331.875L223.625,331.375L225.375,331.625L227.375,332.125L229.125,332.875L230.875,333.875L230.875,332.625L238.625,332.625L238.625,370.625L238.375,373.125L237.625,375.875L236.625,378.125L235.125,380.375L233.125,382.125L231.125,383.625L229.875,384.375L228.625,384.875L225.875,385.625L219.625,385.625L216.375,384.875L213.375,384.375L210.625,383.375L208.125,382.375L211.125,375.875L215.125,377.125L219.375,378.125L223.375,378.375L225.125,378.125L226.375,377.875L227.625,377.125L228.625,376.375L229.625,375.125L230.125,374.125L230.625,372.625L230.875,371.125Z" style="fill:none;stroke:black;stroke-width:0.75px;"/>
        <path d="M300.375,460.625L300.375,457.875L298.375,459.125L296.375,459.875L293.875,460.375L289.375,459.875L287.125,459.125L284.875,458.125L283.125,456.875L281.375,455.375L279.875,453.625L277.875,449.625L276.875,445.125L276.625,442.875L276.625,437.875L277.125,435.125L277.625,432.625L278.375,430.375L279.625,428.125L281.125,426.375L283.125,424.375L285.375,422.875L287.375,422.125L289.125,421.375L293.125,420.875L294.875,421.125L296.875,421.625L298.625,422.375L300.375,423.375L300.375,422.125L308.125,422.125L308.125,460.125L307.875,462.625L307.125,465.375L306.125,467.625L304.625,469.875L302.625,471.625L300.625,473.125L299.375,473.875L298.125,474.375L295.375,475.125L289.125,475.125L285.875,474.375L282.875,473.875L280.125,472.875L277.625,471.875L280.625,465.375L284.625,466.625L288.875,467.625L292.875,467.875L294.625,467.625L295.875,467.375L297.125,466.625L298.125,465.875L299.125,464.625L299.625,463.625L300.125,462.125L300.375,460.625Z" style="fill-rule:nonzero;"/>
        <path d="M300.375,460.625L300.375,457.875L298.375,459.125L296.375,459.875L293.875,460.375L289.375,459.875L287.125,459.125L284.875,458.125L283.125,456.875L281.375,455.375L279.875,453.625L277.875,449.625L276.875,445.125L276.625,442.875L276.625,437.875L277.125,435.125L277.625,432.625L278.375,430.375L279.625,428.125L281.125,426.375L283.125,424.375L285.375,422.875L287.375,422.125L289.125,421.375L293.125,420.875L294.875,421.125L296.875,421.625L298.625,422.375L300.375,423.375L300.375,422.125L308.125,422.125L308.125,460.125L307.875,462.625L307.125,465.375L306.125,467.625L304.625,469.875L302.625,471.625L300.625,473.125L299.375,473.875L298.125,474.375L295.375,475.125L289.125,475.125L285.875,474.375L282.875,473.875L280.125,472.875L277.625,471.875L280.625,465.375L284.625,466.625L288.875,467.625L292.875,467.875L294.625,467.625L295.875,467.375L297.125,466.625L298.125,465.875L299.125,464.625L299.625,463.625L300.125,462.125L300.375,460.625Z" style="fill:none;stroke:black;stroke-width:0.75px;"/>
        <path d="M190.625,345.875L190.625,369.875L198.625,369.875L198.625,344.375L198.375,342.375L197.875,340.375L197.125,338.625L196.125,336.875L195.125,335.625L192.125,333.125L190.625,332.375L187.125,331.375L185.375,331.375L183.375,331.625L181.625,331.875L179.625,332.625L177.875,333.625L176.125,334.875L176.125,332.375L168.375,332.375L168.375,369.875L176.125,369.875L176.125,345.875L176.375,344.375L176.875,342.875L177.625,341.625L178.375,340.625L179.625,339.625L180.875,339.125L183.375,338.625L185.875,339.125L187.125,339.625L188.375,340.625L189.125,341.625L189.875,342.875L190.375,344.375L190.625,345.875Z" style="fill-rule:nonzero;"/>
        <path d="M190.625,345.875L190.625,369.875L198.625,369.875L198.625,344.375L198.375,342.375L197.875,340.375L197.125,338.625L196.125,336.875L195.125,335.625L192.125,333.125L190.625,332.375L187.125,331.375L185.375,331.375L183.375,331.625L181.625,331.875L179.625,332.625L177.875,333.625L176.125,334.875L176.125,332.375L168.375,332.375L168.375,369.875L176.125,369.875L176.125,345.875L176.375,344.375L176.875,342.875L177.625,341.625L178.375,340.625L179.625,339.625L180.875,339.125L183.375,338.625L185.875,339.125L187.125,339.625L188.375,340.625L189.125,341.625L189.875,342.875L190.375,344.375L190.625,345.875Z" style="fill:none;stroke:black;stroke-width:0.75px;"/>
        <path d="M382.625,435.375L382.625,459.375L390.625,459.375L390.625,433.875L390.375,431.875L389.875,429.875L389.125,428.125L388.125,426.375L387.125,425.125L384.125,422.625L382.625,421.875L379.125,420.875L377.375,420.875L375.375,421.125L373.625,421.375L371.625,422.125L369.875,423.125L368.125,424.375L368.125,421.875L360.375,421.875L360.375,459.375L368.125,459.375L368.125,435.375L368.375,433.875L368.875,432.375L369.625,431.125L370.375,430.125L371.625,429.125L372.875,428.625L375.375,428.125L377.875,428.625L379.125,429.125L380.375,430.125L381.125,431.125L381.875,432.375L382.375,433.875L382.625,435.375Z" style="fill-rule:nonzero;"/>
        <path d="M382.625,435.375L382.625,459.375L390.625,459.375L390.625,433.875L390.375,431.875L389.875,429.875L389.125,428.125L388.125,426.375L387.125,425.125L384.125,422.625L382.625,421.875L379.125,420.875L377.375,420.875L375.375,421.125L373.625,421.375L371.625,422.125L369.875,423.125L368.125,424.375L368.125,421.875L360.375,421.875L360.375,459.375L368.125,459.375L368.125,435.375L368.375,433.875L368.875,432.375L369.625,431.125L370.375,430.125L371.625,429.125L372.875,428.625L375.375,428.125L377.875,428.625L379.125,429.125L380.375,430.125L381.125,431.125L381.875,432.375L382.375,433.875L382.625,435.375Z" style="fill:none;stroke:black;stroke-width:0.75px;"/>
        <path d="M437.291,345.375L437.291,369.374L445.291,369.374L445.291,343.875L445.041,341.875L444.541,339.875L443.791,338.125L442.791,336.375L441.791,335.125L438.791,332.625L437.291,331.875L433.791,330.875L432.041,330.875L430.041,331.125L428.291,331.375L426.291,332.125L424.541,333.125L422.791,334.375L422.791,331.875L415.041,331.875L415.041,369.374L422.791,369.374L422.791,345.375L423.041,343.875L423.541,342.375L424.291,341.125L425.041,340.125L426.291,339.125L427.541,338.625L430.041,338.125L432.541,338.625L433.791,339.125L435.041,340.125L435.791,341.125L436.541,342.375L437.041,343.875L437.291,345.375Z" style="fill-rule:nonzero;"/>
        <path d="M437.291,345.375L437.291,369.374L445.291,369.374L445.291,343.875L445.041,341.875L444.541,339.875L443.791,338.125L442.791,336.375L441.791,335.125L438.791,332.625L437.291,331.875L433.791,330.875L432.041,330.875L430.041,331.125L428.291,331.375L426.291,332.125L424.541,333.125L422.791,334.375L422.791,331.875L415.041,331.875L415.041,369.374L422.791,369.374L422.791,345.375L423.041,343.875L423.541,342.375L424.291,341.125L425.041,340.125L426.291,339.125L427.541,338.625L430.041,338.125L432.541,338.625L433.791,339.125L435.041,340.125L435.791,341.125L436.541,342.375L437.041,343.875L437.291,345.375Z" style="fill:none;stroke:black;stroke-width:0.75px;"/>
        <path d="M100.875,361.375L124.375,361.375L124.375,369.875L92.125,369.875L92.125,317.625L100.875,317.625L100.875,361.375Z" style="fill-rule:nonzero;"/>
        <path d="M100.875,361.375L124.375,361.375L124.375,369.875L92.125,369.875L92.125,317.625L100.875,317.625L100.875,361.375Z" style="fill:none;stroke:black;stroke-width:0.75px;"/>
        <path d="M243.875,445.625L243.875,421.875L236.125,421.875L236.125,447.125L236.375,449.375L236.875,451.375L237.625,453.125L238.375,454.625L239.625,456.125L240.875,457.375L242.375,458.375L245.875,459.875L247.625,460.125L251.375,460.125L253.375,459.625L255.125,459.125L256.875,458.125L258.625,456.875L258.625,459.125L266.375,459.125L266.375,421.875L258.625,421.875L258.625,445.625L258.375,447.375L257.875,448.875L257.125,450.125L256.125,451.125L255.125,451.875L252.625,452.875L249.875,452.875L247.375,451.875L246.375,451.125L245.375,450.125L244.625,448.875L244.125,447.375L243.875,445.625Z" style="fill-rule:nonzero;"/>
        <path d="M243.875,445.625L243.875,421.875L236.125,421.875L236.125,447.125L236.375,449.375L236.875,451.375L237.625,453.125L238.375,454.625L239.625,456.125L240.875,457.375L242.375,458.375L245.875,459.875L247.625,460.125L251.375,460.125L253.375,459.625L255.125,459.125L256.875,458.125L258.625,456.875L258.625,459.125L266.375,459.125L266.375,421.875L258.625,421.875L258.625,445.625L258.375,447.375L257.875,448.875L257.125,450.125L256.125,451.125L255.125,451.875L252.625,452.875L249.875,452.875L247.375,451.875L246.375,451.125L245.375,450.125L244.625,448.875L244.125,447.375L243.875,445.625Z" style="fill:none;stroke:black;stroke-width:0.75px;"/>
        <path d="M175.375,427.875L155.125,427.875L155.125,406.875L146.125,406.875L146.125,459.125L155.125,459.125L155.125,436.125L175.375,436.125L175.375,459.125L184.375,459.125L184.375,406.875L175.375,406.875L175.375,427.875Z" style="fill-rule:nonzero;"/>
        <path d="M175.375,427.875L155.125,427.875L155.125,406.875L146.125,406.875L146.125,459.125L155.125,459.125L155.125,436.125L175.375,436.125L175.375,459.125L184.375,459.125L184.375,406.875L175.375,406.875L175.375,427.875Z" style="fill:none;stroke:black;stroke-width:0.75px;"/>
        <rect x="373.875" y="228.125" width="7.75" height="52.25"/>
        <rect x="373.875" y="228.125" width="7.75" height="52.25" style="fill:none;stroke:black;stroke-width:0.75px;"/>
        <path d="M380.125,644.625L395.875,628.875L409.125,628.875L390.125,647.875L409.125,673.625L397.375,673.625L383.625,654.625L380.125,657.875L380.125,673.625L370.875,673.625L370.875,610.875L380.125,610.875L380.125,644.625Z" style="fill-rule:nonzero;"/>
        <path d="M380.125,644.625L395.875,628.875L409.125,628.875L390.125,647.875L409.125,673.625L397.375,673.625L383.625,654.625L380.125,657.875L380.125,673.625L370.875,673.625L370.875,610.875L380.125,610.875L380.125,644.625Z" style="fill:none;stroke:black;stroke-width:0.75px;"/>
        <path d="M355.875,615.375L355.625,614.125L355.125,612.875L354.625,612.125L353.125,610.625L352.375,610.375L350.375,609.875L349.375,610.125L348.625,610.375L347.625,610.625L346.125,612.125L345.625,612.875L345.125,615.375L345.375,616.625L345.625,617.625L346.125,618.375L347.625,619.875L348.625,620.125L349.375,620.375L350.375,620.625L352.375,620.125L353.125,619.875L354.625,618.375L355.125,617.625L355.625,616.625L355.875,615.375Z" style="fill-rule:nonzero;"/>
        <path d="M355.875,615.375L355.625,614.125L355.125,612.875L354.625,612.125L353.125,610.625L352.375,610.375L350.375,609.875L349.375,610.125L348.625,610.375L347.625,610.625L346.125,612.125L345.625,612.875L345.125,615.375L345.375,616.625L345.625,617.625L346.125,618.375L347.625,619.875L348.625,620.125L349.375,620.375L350.375,620.625L352.375,620.125L353.125,619.875L354.625,618.375L355.125,617.625L355.625,616.625L355.875,615.375Z" style="fill:none;stroke:black;stroke-width:0.75px;"/>
        <rect x="345.625" y="629.125" width="9.5" height="44.5"/>
        <rect x="345.625" y="629.125" width="9.5" height="44.5" style="fill:none;stroke:black;stroke-width:0.75px;"/>
        <path d="M305.375,628.875L295.625,628.875L309.625,673.625L321.625,673.625L335.625,628.875L325.875,628.875L315.625,661.125L305.375,628.875Z" style="fill-rule:nonzero;"/>
        <path d="M305.375,628.875L295.625,628.875L309.625,673.625L321.625,673.625L335.625,628.875L325.875,628.875L315.625,661.125L305.375,628.875Z" style="fill:none;stroke:black;stroke-width:0.75px;"/>
        <path d="M292.625,628.875L289.125,637.375L287.875,636.875L285.375,636.375L283.875,636.375L282.625,636.625L281.375,637.125L280.375,637.625L279.125,638.375L277.625,639.875L276.625,641.625L275.875,643.625L275.625,645.875L275.625,673.625L266.125,673.625L266.125,628.875L275.625,628.875L275.625,631.375L277.375,630.125L279.125,629.125L281.375,628.375L283.625,627.875L286.125,627.625L290.625,628.125L292.625,628.875Z" style="fill-rule:nonzero;"/>
        <path d="M292.625,628.875L289.125,637.375L287.875,636.875L285.375,636.375L283.875,636.375L282.625,636.625L281.375,637.125L280.375,637.625L279.125,638.375L277.625,639.875L276.625,641.625L275.875,643.625L275.625,645.875L275.625,673.625L266.125,673.625L266.125,628.875L275.625,628.875L275.625,631.375L277.375,630.125L279.125,629.125L281.375,628.375L283.625,627.875L286.125,627.625L290.625,628.125L292.625,628.875Z" style="fill:none;stroke:black;stroke-width:0.75px;"/>
        <path d="M216.125,660.375L216.625,662.125L218.125,665.625L219.125,667.125L220.375,668.625L221.625,669.875L223.125,671.125L224.625,672.125L226.125,672.875L227.875,673.625L231.375,674.625L233.125,674.875L235.125,674.875L236.875,674.625L238.875,674.375L241.375,673.375L243.625,672.375L245.875,671.125L247.625,669.375L249.125,667.625L250.375,665.875L251.375,663.875L252.375,661.625L253.125,659.375L253.375,656.875L253.875,654.375L253.875,649.625L253.625,647.125L252.625,642.125L252.125,640.375L250.625,636.875L249.625,635.375L248.375,633.875L245.875,631.375L244.375,630.375L242.625,629.625L241.125,628.875L239.375,628.375L237.375,627.875L235.625,627.625L233.875,627.625L229.875,628.125L224.875,630.125L222.875,631.625L221.125,633.125L219.625,634.875L218.375,636.625L217.125,638.625L215.625,643.125L215.375,645.375L214.875,650.375L215.125,655.375L216.125,660.375Z" style="fill-rule:nonzero;"/>
        <path d="M216.125,660.375L216.625,662.125L218.125,665.625L219.125,667.125L220.375,668.625L221.625,669.875L223.125,671.125L224.625,672.125L226.125,672.875L227.875,673.625L231.375,674.625L233.125,674.875L235.125,674.875L236.875,674.625L238.875,674.375L241.375,673.375L243.625,672.375L245.875,671.125L247.625,669.375L249.125,667.625L250.375,665.875L251.375,663.875L252.375,661.625L253.125,659.375L253.375,656.875L253.875,654.375L253.875,649.625L253.625,647.125L252.625,642.125L252.125,640.375L250.625,636.875L249.625,635.375L248.375,633.875L245.875,631.375L244.375,630.375L242.625,629.625L241.125,628.875L239.375,628.375L237.375,627.875L235.625,627.625L233.875,627.625L229.875,628.125L224.875,630.125L222.875,631.625L221.125,633.125L219.625,634.875L218.375,636.625L217.125,638.625L215.625,643.125L215.375,645.375L214.875,650.375L215.125,655.375L216.125,660.375Z" style="fill:none;stroke:black;stroke-width:0.75px;"/>
        <path d="M206.625,628.875L206.625,637.625L195.625,637.625L195.625,663.625L196.125,664.375L197.125,665.375L198.125,665.875L199.375,666.125L201.625,665.875L203.875,665.375L206.625,673.625L202.875,674.625L199.375,674.875L196.625,674.625L194.125,673.875L191.875,672.625L190.125,671.125L188.375,669.125L187.125,666.875L186.375,664.375L186.125,661.625L186.125,637.625L179.875,637.625L179.875,628.875L186.125,628.875L186.125,619.125L195.625,610.875L195.625,628.875L206.625,628.875Z" style="fill-rule:nonzero;"/>
        <path d="M206.625,628.875L206.625,637.625L195.625,637.625L195.625,663.625L196.125,664.375L197.125,665.375L198.125,665.875L199.375,666.125L201.625,665.875L203.875,665.375L206.625,673.625L202.875,674.625L199.375,674.875L196.625,674.625L194.125,673.875L191.875,672.625L190.125,671.125L188.375,669.125L187.125,666.875L186.375,664.375L186.125,661.625L186.125,637.625L179.875,637.625L179.875,628.875L186.125,628.875L186.125,619.125L195.625,610.875L195.625,628.875L206.625,628.875Z" style="fill:none;stroke:black;stroke-width:0.75px;"/>
        <path d="M144.125,611.375L146.875,610.625L149.875,610.125L152.875,609.875L156.125,610.125L162.125,611.125L165.125,612.125L167.875,613.375L170.125,614.625L172.375,616.125L165.875,624.125L163.125,622.125L160.875,621.125L158.125,620.625L154.875,620.125L151.625,620.125L148.625,620.375L145.625,621.375L144.375,621.875L143.375,622.625L142.625,623.625L141.875,624.875L141.375,626.375L141.125,628.125L141.125,629.375L141.625,630.625L142.125,631.625L142.875,632.625L143.625,633.375L144.625,634.125L147.125,635.375L149.875,636.125L155.375,637.375L159.375,638.625L163.125,640.125L165.875,641.625L168.125,643.625L169.875,645.625L171.375,647.875L172.375,650.125L173.125,652.625L173.625,655.125L173.625,657.875L173.125,660.375L172.375,662.875L171.375,665.125L169.875,667.375L168.125,669.125L166.125,670.875L163.625,672.375L160.875,673.375L158.625,674.125L156.625,674.625L152.375,674.875L147.875,674.875L143.625,674.125L139.375,673.125L135.375,671.375L131.375,669.375L127.875,666.875L134.375,659.125L135.875,660.375L137.625,661.375L141.625,663.375L143.875,664.125L146.125,664.625L148.125,664.875L153.125,664.875L157.625,664.125L160.125,662.625L161.375,661.375L162.375,659.375L162.875,658.125L162.875,654.625L162.625,653.625L162.125,652.625L161.375,651.625L160.875,650.875L159.125,649.625L157.125,648.625L155.125,647.875L150.625,646.625L146.625,645.875L142.375,644.375L138.375,642.125L136.375,640.625L134.875,639.125L133.375,637.375L131.375,633.375L130.875,631.375L130.625,629.375L130.625,627.125L130.875,625.125L131.375,622.875L132.125,620.875L133.125,619.125L134.375,617.375L135.875,615.625L137.875,614.125L139.875,612.875L144.125,611.375Z" style="fill-rule:nonzero;"/>
        <path d="M144.125,611.375L146.875,610.625L149.875,610.125L152.875,609.875L156.125,610.125L162.125,611.125L165.125,612.125L167.875,613.375L170.125,614.625L172.375,616.125L165.875,624.125L163.125,622.125L160.875,621.125L158.125,620.625L154.875,620.125L151.625,620.125L148.625,620.375L145.625,621.375L144.375,621.875L143.375,622.625L142.625,623.625L141.875,624.875L141.375,626.375L141.125,628.125L141.125,629.375L141.625,630.625L142.125,631.625L142.875,632.625L143.625,633.375L144.625,634.125L147.125,635.375L149.875,636.125L155.375,637.375L159.375,638.625L163.125,640.125L165.875,641.625L168.125,643.625L169.875,645.625L171.375,647.875L172.375,650.125L173.125,652.625L173.625,655.125L173.625,657.875L173.125,660.375L172.375,662.875L171.375,665.125L169.875,667.375L168.125,669.125L166.125,670.875L163.625,672.375L160.875,673.375L158.625,674.125L156.625,674.625L152.375,674.875L147.875,674.875L143.625,674.125L139.375,673.125L135.375,671.375L131.375,669.375L127.875,666.875L134.375,659.125L135.875,660.375L137.625,661.375L141.625,663.375L143.875,664.125L146.125,664.625L148.125,664.875L153.125,664.875L157.625,664.125L160.125,662.625L161.375,661.375L162.375,659.375L162.875,658.125L162.875,654.625L162.625,653.625L162.125,652.625L161.375,651.625L160.875,650.875L159.125,649.625L157.125,648.625L155.125,647.875L150.625,646.625L146.625,645.875L142.375,644.375L138.375,642.125L136.375,640.625L134.875,639.125L133.375,637.375L131.375,633.375L130.875,631.375L130.625,629.375L130.625,627.125L130.875,625.125L131.375,622.875L132.125,620.875L133.125,619.125L134.375,617.375L135.875,615.625L137.875,614.125L139.875,612.875L144.125,611.375Z" style="fill:none;stroke:black;stroke-width:0.75px;"/>
        <path d="M342.375,272.875L345.375,273.875L346.875,274.125L348.375,274.125L350.125,273.625L351.625,273.375L353.125,272.625L354.375,271.625L354.375,263.375L343.125,263.375L341.875,264.125L340.625,265.125L339.875,266.375L339.375,268.375L339.625,269.125L339.875,270.125L340.125,270.875L340.875,271.625L341.375,272.375L342.375,272.875Z" style="fill:white;fill-rule:nonzero;"/>
        <path d="M342.375,272.875L345.375,273.875L346.875,274.125L348.375,274.125L350.125,273.625L351.625,273.375L353.125,272.625L354.375,271.625L354.375,263.375L343.125,263.375L341.875,264.125L340.625,265.125L339.875,266.375L339.375,268.375L339.625,269.125L339.875,270.125L340.125,270.875L340.875,271.625L341.375,272.375L342.375,272.875Z" style="fill:none;stroke:white;stroke-width:0.75px;"/>
        <path d="M298.625,268.125L299.125,269.625L299.625,270.625L300.375,271.625L302.375,273.125L303.625,273.625L306.125,274.125L307.625,273.875L309.125,273.375L310.375,272.625L311.375,271.875L312.375,270.625L313.125,269.375L313.375,268.125L313.625,266.375L313.625,256.875L313.125,253.875L312.375,252.625L311.375,251.375L308.875,249.875L307.625,249.375L304.875,249.375L303.625,249.625L302.375,250.375L301.375,250.875L300.375,251.875L298.875,253.875L298.625,255.125L297.875,258.375L297.625,261.625L297.875,264.875L298.625,268.125Z" style="fill:white;fill-rule:nonzero;"/>
        <path d="M298.625,268.125L299.125,269.625L299.625,270.625L300.375,271.625L302.375,273.125L303.625,273.625L306.125,274.125L307.625,273.875L309.125,273.375L310.375,272.625L311.375,271.875L312.375,270.625L313.125,269.375L313.375,268.125L313.625,266.375L313.625,256.875L313.125,253.875L312.375,252.625L311.375,251.375L308.875,249.875L307.625,249.375L304.875,249.375L303.625,249.625L302.375,250.375L301.375,250.875L300.375,251.875L298.875,253.875L298.625,255.125L297.875,258.375L297.625,261.625L297.875,264.875L298.625,268.125Z" style="fill:none;stroke:white;stroke-width:0.75px;"/>
        <path d="M259.375,256.875L274.625,256.875L274.125,255.125L273.625,253.625L272.875,252.375L271.875,251.125L270.625,250.375L268.125,249.375L265.625,249.375L263.125,250.375L261.875,251.375L261.125,252.375L260.375,253.625L259.625,255.125L259.375,256.875Z" style="fill:white;fill-rule:nonzero;"/>
        <path d="M259.375,256.875L274.625,256.875L274.125,255.125L273.625,253.625L272.875,252.375L271.875,251.125L270.625,250.375L268.125,249.375L265.625,249.375L263.125,250.375L261.875,251.375L261.125,252.375L260.375,253.625L259.625,255.125L259.375,256.875Z" style="fill:none;stroke:white;stroke-width:0.75px;"/>
        <path d="M381.125,346.375L396.375,346.375L395.875,344.625L395.375,343.125L393.375,340.625L392.375,339.875L389.875,338.875L387.125,338.875L384.625,339.875L382.625,341.875L381.875,343.125L381.375,344.625L381.125,346.375Z" style="fill:white;fill-rule:nonzero;"/>
        <path d="M381.125,346.375L396.375,346.375L395.875,344.625L395.375,343.125L393.375,340.625L392.375,339.875L389.875,338.875L387.125,338.875L384.625,339.875L382.625,341.875L381.875,343.125L381.375,344.625L381.125,346.375Z" style="fill:none;stroke:white;stroke-width:0.75px;"/>
        <path d="M346.875,363.625L344.375,363.125L343.125,362.625L342.125,361.875L341.375,361.125L339.875,359.125L339.375,357.875L338.875,354.375L338.625,351.125L338.875,347.875L339.375,344.625L339.875,343.375L340.375,342.375L341.125,341.375L342.125,340.375L343.125,339.625L344.375,339.125L345.625,338.875L348.375,338.875L349.875,339.375L351.125,340.125L352.125,340.875L353.125,342.125L353.875,343.375L354.375,344.875L354.375,357.375L353.875,358.875L353.125,360.125L351.125,362.125L349.875,362.875L348.375,363.375L346.875,363.625Z" style="fill:white;fill-rule:nonzero;"/>
        <path d="M346.875,363.625L344.375,363.125L343.125,362.625L342.125,361.875L341.375,361.125L339.875,359.125L339.375,357.875L338.875,354.375L338.625,351.125L338.875,347.875L339.375,344.625L339.875,343.375L340.375,342.375L341.125,341.375L342.125,340.375L343.125,339.625L344.375,339.125L345.625,338.875L348.375,338.875L349.875,339.375L351.125,340.125L352.125,340.875L353.125,342.125L353.875,343.375L354.375,344.875L354.375,357.375L353.875,358.875L353.125,360.125L351.125,362.125L349.875,362.875L348.375,363.375L346.875,363.625Z" style="fill:none;stroke:white;stroke-width:0.75px;"/>
        <path d="M312.625,346.375L312.375,344.875L311.875,343.375L311.125,342.125L310.125,340.875L309.125,340.125L307.875,339.375L306.375,338.875L303.625,338.875L302.375,339.125L301.125,339.625L300.125,340.375L299.125,341.375L298.375,342.375L297.875,343.375L297.375,344.625L296.875,347.875L296.625,351.125L296.875,354.375L297.375,357.875L297.875,359.125L299.375,361.125L300.125,361.875L301.125,362.625L302.375,363.125L304.875,363.625L306.375,363.375L307.875,362.875L309.125,362.125L311.125,360.125L311.875,358.875L312.375,357.375L312.625,355.875L312.625,346.375Z" style="fill:white;fill-rule:nonzero;"/>
        <path d="M312.625,346.375L312.375,344.875L311.875,343.375L311.125,342.125L310.125,340.875L309.125,340.125L307.875,339.375L306.375,338.875L303.625,338.875L302.375,339.125L301.125,339.625L300.125,340.375L299.125,341.375L298.375,342.375L297.875,343.375L297.375,344.625L296.875,347.875L296.625,351.125L296.875,354.375L297.375,357.875L297.875,359.125L299.375,361.125L300.125,361.875L301.125,362.625L302.375,363.125L304.875,363.625L306.375,363.375L307.875,362.875L309.125,362.125L311.125,360.125L311.875,358.875L312.375,357.375L312.625,355.875L312.625,346.375Z" style="fill:none;stroke:white;stroke-width:0.75px;"/>
        <path d="M257.875,357.875L258.625,359.375L259.625,360.875L260.625,361.875L262.125,362.875L263.625,363.375L266.875,363.375L268.625,362.875L270.625,361.375L271.375,360.625L272.125,359.625L273.125,357.125L273.625,354.625L273.625,349.125L273.375,346.625L272.875,344.375L271.375,341.375L270.125,340.375L268.625,339.625L266.875,338.875L263.625,338.875L261.125,340.125L260.125,340.875L259.375,341.625L258.625,342.625L257.625,345.125L257.125,347.625L256.875,350.625L257.125,353.375L257.375,355.875L257.875,357.875Z" style="fill:white;fill-rule:nonzero;"/>
        <path d="M257.875,357.875L258.625,359.375L259.625,360.875L260.625,361.875L262.125,362.875L263.625,363.375L266.875,363.375L268.625,362.875L270.625,361.375L271.375,360.625L272.125,359.625L273.125,357.125L273.625,354.625L273.625,349.125L273.375,346.625L272.875,344.375L271.375,341.375L270.125,340.375L268.625,339.625L266.875,338.875L263.625,338.875L261.125,340.125L260.125,340.875L259.375,341.625L258.625,342.625L257.625,345.125L257.125,347.625L256.875,350.625L257.125,353.375L257.375,355.875L257.875,357.875Z" style="fill:none;stroke:white;stroke-width:0.75px;"/>
        <path d="M224.875,338.875L222.125,338.875L220.875,339.125L219.625,339.625L217.625,341.125L216.875,342.125L216.125,343.375L215.875,344.625L215.125,347.875L214.875,351.125L215.125,354.375L215.875,357.875L216.375,359.125L216.875,360.125L217.625,361.125L219.625,362.625L220.625,363.125L221.875,363.375L223.375,363.625L224.875,363.375L226.125,362.875L227.375,362.125L228.625,361.125L229.625,360.125L230.125,358.875L230.625,357.375L230.875,355.875L230.875,346.375L230.625,344.875L230.125,343.375L229.625,342.125L228.625,340.875L227.625,340.125L226.375,339.375L224.875,338.875Z" style="fill:white;fill-rule:nonzero;"/>
        <path d="M224.875,338.875L222.125,338.875L220.875,339.125L219.625,339.625L217.625,341.125L216.875,342.125L216.125,343.375L215.875,344.625L215.125,347.875L214.875,351.125L215.125,354.375L215.875,357.875L216.375,359.125L216.875,360.125L217.625,361.125L219.625,362.625L220.625,363.125L221.875,363.375L223.375,363.625L224.875,363.375L226.125,362.875L227.375,362.125L228.625,361.125L229.625,360.125L230.125,358.875L230.625,357.375L230.875,355.875L230.875,346.375L230.625,344.875L230.125,343.375L229.625,342.125L228.625,340.875L227.625,340.125L226.375,339.375L224.875,338.875Z" style="fill:none;stroke:white;stroke-width:0.75px;"/>
        <path d="M136.625,362.375L139.625,363.375L141.375,363.625L145.875,362.875L147.375,362.125L148.625,361.125L148.625,352.625L138.875,352.625L137.375,352.875L136.125,353.625L135.125,354.625L134.125,355.875L133.875,357.375L133.875,358.875L134.625,360.375L135.375,361.375L136.625,362.375Z" style="fill:white;fill-rule:nonzero;"/>
        <path d="M136.625,362.375L139.625,363.375L141.375,363.625L145.875,362.875L147.375,362.125L148.625,361.125L148.625,352.625L138.875,352.625L137.375,352.875L136.125,353.625L135.125,354.625L134.125,355.875L133.875,357.375L133.875,358.875L134.625,360.375L135.375,361.375L136.625,362.375Z" style="fill:none;stroke:white;stroke-width:0.75px;"/>
        <path d="M326.875,435.875L342.125,435.875L341.125,432.375L340.375,431.125L339.375,430.125L338.125,429.125L336.875,428.625L334.375,428.125L331.875,428.625L330.625,429.375L329.625,430.125L328.625,431.125L327.875,432.625L327.375,434.125L326.875,435.875Z" style="fill:white;fill-rule:nonzero;"/>
        <path d="M326.875,435.875L342.125,435.875L341.125,432.375L340.375,431.125L339.375,430.125L338.125,429.125L336.875,428.625L334.375,428.125L331.875,428.625L330.625,429.375L329.625,430.125L328.625,431.125L327.875,432.625L327.375,434.125L326.875,435.875Z" style="fill:none;stroke:white;stroke-width:0.75px;"/>
        <path d="M292.875,428.125L290.375,428.625L289.125,429.125L287.125,430.625L285.625,432.625L285.375,433.875L284.625,437.375L284.375,440.625L284.625,443.875L285.375,447.125L285.625,448.375L287.125,450.375L288.125,451.375L289.125,452.125L290.375,452.625L291.625,452.875L294.375,452.875L295.625,452.375L297.125,451.625L299.125,449.625L299.875,448.125L300.375,446.875L300.375,434.375L299.875,432.875L299.125,431.625L298.125,430.375L295.625,428.875L294.375,428.375L292.875,428.125Z" style="fill:white;fill-rule:nonzero;"/>
        <path d="M292.875,428.125L290.375,428.625L289.125,429.125L287.125,430.625L285.625,432.625L285.375,433.875L284.625,437.375L284.375,440.625L284.625,443.875L285.375,447.125L285.625,448.375L287.125,450.375L288.125,451.375L289.125,452.125L290.375,452.625L291.625,452.875L294.375,452.875L295.625,452.375L297.125,451.625L299.125,449.625L299.875,448.125L300.375,446.875L300.375,434.375L299.875,432.875L299.125,431.625L298.125,430.375L295.625,428.875L294.375,428.375L292.875,428.125Z" style="fill:none;stroke:white;stroke-width:0.75px;"/>
        <path d="M203.625,451.125L206.125,452.375L207.625,452.875L210.625,452.875L212.375,452.625L213.875,452.125L215.125,451.625L216.625,450.625L216.625,442.125L206.875,442.125L205.375,442.375L203.875,443.125L202.875,444.125L202.125,445.375L201.875,446.375L201.625,447.125L202.125,449.125L202.375,449.875L203.625,451.125Z" style="fill:white;fill-rule:nonzero;"/>
        <path d="M203.625,451.125L206.125,452.375L207.625,452.875L210.625,452.875L212.375,452.625L213.875,452.125L215.125,451.625L216.625,450.625L216.625,442.125L206.875,442.125L205.375,442.375L203.875,443.125L202.875,444.125L202.125,445.375L201.875,446.375L201.625,447.125L202.125,449.125L202.375,449.875L203.625,451.125Z" style="fill:none;stroke:white;stroke-width:0.75px;"/>
        <path d="M225.375,659.375L226.125,661.125L227.375,662.875L228.875,664.125L230.375,665.125L232.375,665.875L234.375,666.125L236.375,665.875L238.125,665.125L239.375,664.625L240.625,663.875L241.625,662.625L242.375,661.625L243.375,658.625L244.125,655.375L244.375,651.875L244.375,648.625L243.875,645.625L243.375,643.125L242.375,641.125L241.375,639.625L239.875,638.125L238.125,637.125L236.375,636.625L234.375,636.375L232.375,636.625L230.375,637.125L229.125,637.875L227.125,639.875L226.375,641.125L225.625,642.625L225.125,643.875L224.375,647.125L224.375,653.625L224.875,656.625L225.375,659.375Z" style="fill:rgb(254,190,15);fill-rule:nonzero;"/>
        <path d="M225.375,659.375L226.125,661.125L227.375,662.875L228.875,664.125L230.375,665.125L232.375,665.875L234.375,666.125L236.375,665.875L238.125,665.125L239.375,664.625L240.625,663.875L241.625,662.625L242.375,661.625L243.375,658.625L244.125,655.375L244.375,651.875L244.375,648.625L243.875,645.625L243.375,643.125L242.375,641.125L241.375,639.625L239.875,638.125L238.125,637.125L236.375,636.625L234.375,636.375L232.375,636.625L230.375,637.125L229.125,637.875L227.125,639.875L226.375,641.125L225.625,642.625L225.125,643.875L224.375,647.125L224.375,653.625L224.875,656.625L225.375,659.375Z" style="fill:none;stroke:rgb(254,190,15);stroke-width:0.75px;"/>
        <path d="M310.375,190.875L312.375,190.625L314.375,190.125L316.125,189.125L317.875,187.875L319.125,186.375L320.125,184.375L320.625,182.625L320.875,180.625L320.875,96.875L320.625,94.875L320.125,93.125L319.125,91.125L317.875,89.625L316.125,88.375L314.375,87.375L312.375,86.875L310.375,86.625L226.875,86.625L224.875,86.875L222.875,87.375L221.125,88.375L219.625,89.625L218.125,91.125L217.125,93.125L216.625,94.875L216.625,182.625L217.125,184.375L218.125,186.375L219.625,187.875L221.125,189.125L222.875,190.125L224.875,190.625L226.875,190.875L310.375,190.875Z" style="fill:rgb(35,31,32);fill-rule:nonzero;"/>
        <path d="M310.375,190.875L312.375,190.625L314.375,190.125L316.125,189.125L317.875,187.875L319.125,186.375L320.125,184.375L320.625,182.625L320.875,180.625L320.875,96.875L320.625,94.875L320.125,93.125L319.125,91.125L317.875,89.625L316.125,88.375L314.375,87.375L312.375,86.875L310.375,86.625L226.875,86.625L224.875,86.875L222.875,87.375L221.125,88.375L219.625,89.625L218.125,91.125L217.125,93.125L216.625,94.875L216.625,182.625L217.125,184.375L218.125,186.375L219.625,187.875L221.125,189.125L222.875,190.125L224.875,190.625L226.875,190.875L310.375,190.875Z" style="fill:none;stroke:rgb(35,31,32);stroke-width:0.75px;"/>
        <path d="M310.375,186.625L311.875,186.375L313.375,185.875L314.625,184.875L315.625,183.625L316.125,182.125L316.375,180.625L316.375,96.875L316.125,95.375L315.625,93.875L314.625,92.875L313.375,91.875L311.875,91.125L310.375,90.875L226.875,90.875L225.375,91.125L223.875,91.875L222.625,92.875L221.625,93.875L221.125,95.375L220.875,96.875L220.875,180.625L221.125,182.125L221.625,183.625L222.625,184.875L223.875,185.875L225.375,186.375L226.875,186.625L310.375,186.625Z" style="fill:white;fill-rule:nonzero;"/>
        <path d="M310.375,186.625L311.875,186.375L313.375,185.875L314.625,184.875L315.625,183.625L316.125,182.125L316.375,180.625L316.375,96.875L316.125,95.375L315.625,93.875L314.625,92.875L313.375,91.875L311.875,91.125L310.375,90.875L226.875,90.875L225.375,91.125L223.875,91.875L222.625,92.875L221.625,93.875L221.125,95.375L220.875,96.875L220.875,180.625L221.125,182.125L221.625,183.625L222.625,184.875L223.875,185.875L225.375,186.375L226.875,186.625L310.375,186.625Z" style="fill:none;stroke:white;stroke-width:0.75px;"/>
        <path d="M305.875,153.875L305.685,153.875L304.625,115.125L297.875,115.125L297.125,153.375L274.625,140.375L274.625,153.875L251.375,140.375L251.375,153.875L230.125,141.625L230.125,179.125L306.375,179.125L305.875,153.875Z" style="fill:rgb(35,31,32);fill-rule:nonzero;"/>
        <path d="M305.875,153.875L305.685,153.875L304.625,115.125L297.875,115.125L297.125,153.375L274.625,140.375L274.625,153.875L251.375,140.375L251.375,153.875L230.125,141.625L230.125,179.125L306.375,179.125L305.875,153.875Z" style="fill:none;stroke:rgb(35,31,32);stroke-width:0.75px;"/>
    </g>
</svg>
