<?xml version="1.0" encoding="UTF-8" standalone="no"?>
<!DOCTYPE svg PUBLIC "-//W3C//DTD SVG 1.1//EN" "http://www.w3.org/Graphics/SVG/1.1/DTD/svg11.dtd">
<svg width="100%" height="100%" viewBox="0 0 4252 1134" version="1.1" xmlns="http://www.w3.org/2000/svg" xmlns:xlink="http://www.w3.org/1999/xlink" xml:space="preserve" xmlns:serif="http://www.serif.com/" style="fill-rule:evenodd;clip-rule:evenodd;stroke-linejoin:round;stroke-miterlimit:2;">
    <g>
        <rect x="0" y="0.14" width="4251.97" height="1133.86" style="fill:white;"/>
        <rect x="0" y="31.322" width="4251.97" height="1071.5" style="fill:rgb(0,64,128);"/>
        <path d="M2951.57,474.382L3854.63,474.382L3823.64,299.013L3823.62,298.917L3823.6,298.821L3823.59,298.724L3823.57,298.628L3823.56,298.532L3823.49,297.853L3823.49,297.756L3823.48,297.659L3823.48,297.561L3823.47,297.464L3823.47,296.684L3823.48,296.587L3823.48,296.49L3823.49,296.392L3823.49,296.295L3823.55,295.713L3823.56,295.617L3823.58,295.52L3823.6,295.328L3823.62,295.231L3823.64,295.135L3823.65,295.039L3823.67,294.944L3823.69,294.848L3823.75,294.563L3823.78,294.468L3823.8,294.373L3823.82,294.279L3823.85,294.184L3823.88,294.091L3823.9,293.997L3823.93,293.903L3823.99,293.717L3824.02,293.624L3824.11,293.348L3824.14,293.256L3824.18,293.164L3824.21,293.074L3824.25,292.983L3824.28,292.892L3824.36,292.712L3824.4,292.623L3824.48,292.445L3824.56,292.269L3824.6,292.181L3824.65,292.094L3824.69,292.007L3824.73,291.92L3824.83,291.748L3824.87,291.663L3824.92,291.578L3824.97,291.494L3825.02,291.41L3825.07,291.326L3825.12,291.243L3825.17,291.16L3825.22,291.078L3825.28,290.996L3825.33,290.914L3825.38,290.834L3825.44,290.753L3825.49,290.673L3825.61,290.515L3825.67,290.437L3825.72,290.359L3825.78,290.282L3825.84,290.204L3825.9,290.128L3825.96,290.052L3826.03,289.977L3826.09,289.902L3826.15,289.828L3826.22,289.754L3826.28,289.682L3826.35,289.609L3826.41,289.537L3826.48,289.466L3826.54,289.395L3826.61,289.325L3826.68,289.255L3826.75,289.186L3826.82,289.118L3826.89,289.05L3826.96,288.983L3827.03,288.916L3827.1,288.85L3827.18,288.786L3827.25,288.721L3827.32,288.657L3827.4,288.593L3827.47,288.531L3827.55,288.469L3827.62,288.407L3827.7,288.347L3827.77,288.286L3827.85,288.227L3827.93,288.168L3828.01,288.111L3828.09,288.053L3828.17,287.996L3828.33,287.886L3828.41,287.831L3828.49,287.777L3828.57,287.724L3828.65,287.672L3828.73,287.62L3828.82,287.569L3828.9,287.519L3828.99,287.47L3829.07,287.421L3829.15,287.373L3829.33,287.279L3829.41,287.233L3829.5,287.188L3829.58,287.144L3829.67,287.1L3829.85,287.016L3829.94,286.975L3830.02,286.934L3830.11,286.895L3830.2,286.856L3830.29,286.818L3830.38,286.781L3830.47,286.744L3830.56,286.709L3830.65,286.674L3830.75,286.64L3830.84,286.606L3830.93,286.574L3831.02,286.542L3831.11,286.512L3831.21,286.481L3831.3,286.452L3831.39,286.424L3831.49,286.396L3831.58,286.369L3831.67,286.344L3831.77,286.318L3831.86,286.294L3831.96,286.271L3832.05,286.248L3832.15,286.226L3832.24,286.205L3832.34,286.185L3832.43,286.166L3832.53,286.147L3832.62,286.13L3832.72,286.113L3832.82,286.097L3832.91,286.082L3833.11,286.054L3833.2,286.041L3833.3,286.03L3833.39,286.019L3833.49,286.009L3833.59,286L3833.69,285.992L3833.78,285.984L3833.88,285.977L3834.08,285.967L3834.17,285.962L3834.27,285.959L3834.37,285.957L3834.46,285.955L3834.56,285.954L3834.66,285.955L3834.76,285.956L3834.85,285.958L3835.05,285.964L3835.15,285.969L3835.24,285.974L3835.34,285.98L3835.44,285.987L3835.54,285.995L3835.63,286.004L3835.73,286.013L3835.83,286.024L3835.92,286.035L3836.02,286.047L3836.12,286.06L3836.21,286.074L3836.31,286.089L3836.41,286.104L3836.5,286.12L3836.6,286.138L3836.69,286.156L3836.79,286.174L3836.88,286.194L3836.98,286.215L3837.07,286.236L3837.17,286.258L3837.26,286.281L3837.36,286.305L3837.45,286.33L3837.55,286.355L3837.64,286.382L3837.73,286.409L3837.83,286.437L3837.92,286.465L3838.01,286.495L3838.11,286.526L3838.2,286.557L3838.29,286.589L3838.38,286.621L3838.47,286.655L3838.56,286.69L3838.66,286.725L3838.75,286.761L3838.84,286.798L3838.93,286.835L3839.11,286.913L3839.19,286.953L3839.28,286.994L3839.37,287.035L3839.46,287.078L3839.55,287.12L3839.63,287.164L3839.72,287.209L3839.81,287.254L3839.89,287.3L3839.98,287.347L3840.06,287.394L3840.15,287.443L3840.23,287.492L3840.31,287.542L3840.4,287.592L3840.48,287.643L3840.56,287.696L3840.64,287.748L3840.73,287.802L3840.81,287.856L3840.89,287.911L3840.97,287.966L4220.05,553.403L4220.17,553.488L4220.29,553.574L4220.41,553.661L4220.53,553.748L4220.64,553.837L4220.76,553.927L4220.88,554.018L4220.99,554.11L4221.1,554.203L4221.22,554.297L4221.33,554.392L4221.44,554.489L4221.55,554.585L4221.66,554.683L4221.77,554.782L4221.88,554.882L4221.98,554.983L4222.09,555.085L4222.19,555.187L4222.3,555.291L4222.4,555.395L4222.5,555.501L4222.6,555.607L4222.71,555.714L4222.8,555.823L4223,556.041L4223.1,556.152L4223.19,556.264L4223.29,556.376L4223.38,556.489L4223.47,556.603L4223.57,556.718L4223.66,556.833L4223.75,556.95L4223.83,557.067L4223.92,557.185L4224.01,557.304L4224.09,557.423L4224.18,557.544L4224.26,557.664L4224.34,557.786L4224.43,557.909L4224.51,558.032L4224.58,558.156L4224.66,558.28L4224.74,558.406L4224.82,558.532L4224.89,558.658L4224.96,558.786L4225.04,558.913L4225.11,559.041L4225.18,559.171L4225.25,559.3L4225.31,559.431L4225.38,559.562L4225.45,559.693L4225.51,559.825L4225.57,559.958L4225.64,560.091L4225.7,560.225L4225.76,560.359L4225.82,560.494L4225.87,560.629L4225.93,560.765L4225.98,560.901L4226.04,561.038L4226.09,561.175L4226.14,561.313L4226.19,561.451L4226.24,561.59L4226.29,561.728L4226.33,561.868L4226.38,562.008L4226.42,562.148L4226.47,562.288L4226.51,562.43L4226.59,562.712L4226.62,562.854L4226.7,563.14L4226.76,563.426L4226.79,563.569L4226.82,563.713L4226.85,563.857L4226.88,564.001L4226.91,564.146L4226.93,564.29L4226.96,564.435L4226.98,564.58L4227,564.726L4227.02,564.871L4227.06,565.163L4227.07,565.309L4227.09,565.455L4227.1,565.602L4227.11,565.748L4227.12,565.895L4227.13,566.041L4227.14,566.188L4227.15,566.335L4227.15,566.482L4227.16,566.628L4227.16,566.922L4227.17,567.069L4227.16,567.216L4227.16,567.51L4227.15,567.657L4227.15,567.803L4227.14,567.951L4227.13,568.097L4227.12,568.244L4227.11,568.39L4227.1,568.536L4227.09,568.683L4227.07,568.829L4227.06,568.975L4227.04,569.12L4227.02,569.267L4227,569.412L4226.98,569.558L4226.96,569.703L4226.93,569.848L4226.91,569.993L4226.88,570.137L4226.85,570.282L4226.82,570.425L4226.79,570.57L4226.76,570.712L4226.73,570.856L4226.7,570.999L4226.66,571.142L4226.62,571.284L4226.59,571.426L4226.55,571.568L4226.51,571.708L4226.47,571.85L4226.42,571.991L4226.38,572.13L4226.33,572.271L4226.29,572.41L4226.24,572.549L4226.19,572.687L4226.14,572.826L4226.09,572.963L4226.04,573.1L4225.98,573.237L4225.93,573.373L4225.87,573.509L4225.82,573.645L4225.76,573.78L4225.7,573.913L4225.64,574.047L4225.57,574.18L4225.51,574.313L4225.45,574.445L4225.38,574.577L4225.31,574.707L4225.25,574.838L4225.18,574.967L4225.11,575.097L4225.04,575.225L4224.96,575.353L4224.89,575.48L4224.82,575.607L4224.74,575.733L4224.58,575.983L4224.51,576.107L4224.43,576.23L4224.34,576.352L4224.26,576.474L4224.18,576.595L4224.09,576.715L4224.01,576.834L4223.83,577.072L4223.75,577.189L4223.66,577.305L4223.57,577.42L4223.47,577.536L4223.38,577.649L4223.29,577.762L4223.19,577.874L4223.1,577.987L4223,578.097L4222.9,578.206L4222.8,578.316L4222.71,578.424L4222.6,578.531L4222.5,578.637L4222.4,578.743L4222.3,578.847L4222.19,578.951L4222.09,579.054L4221.98,579.156L4221.88,579.256L4221.77,579.356L4221.66,579.454L4221.55,579.553L4221.44,579.65L4221.33,579.745L4221.22,579.841L4221.1,579.935L4220.99,580.028L4220.88,580.12L4220.76,580.211L4220.64,580.301L4220.53,580.39L4220.41,580.478L4220.29,580.565L4220.17,580.651L4220.05,580.736L3840.97,846.172L3840.89,846.228L3840.81,846.283L3840.73,846.336L3840.64,846.39L3840.56,846.443L3840.48,846.494L3840.4,846.546L3840.31,846.597L3840.23,846.646L3840.15,846.696L3840.06,846.744L3839.98,846.791L3839.89,846.838L3839.81,846.884L3839.72,846.929L3839.63,846.974L3839.55,847.018L3839.46,847.061L3839.37,847.103L3839.28,847.145L3839.19,847.186L3839.11,847.225L3839.02,847.265L3838.93,847.303L3838.84,847.34L3838.75,847.377L3838.66,847.413L3838.56,847.449L3838.38,847.517L3838.29,847.549L3838.2,847.581L3838.11,847.613L3838.01,847.643L3837.92,847.673L3837.83,847.702L3837.73,847.73L3837.64,847.757L3837.55,847.783L3837.45,847.809L3837.36,847.833L3837.26,847.857L3837.17,847.88L3837.07,847.903L3836.98,847.923L3836.88,847.944L3836.79,847.964L3836.69,847.983L3836.6,848L3836.5,848.018L3836.41,848.035L3836.21,848.065L3836.12,848.078L3836.02,848.091L3835.92,848.103L3835.83,848.115L3835.73,848.125L3835.63,848.134L3835.54,848.143L3835.34,848.159L3835.24,848.164L3835.15,848.169L3835.05,848.174L3834.95,848.178L3834.85,848.18L3834.76,848.182L3834.66,848.183L3834.56,848.184L3834.46,848.183L3834.37,848.181L3834.27,848.179L3834.17,848.176L3834.08,848.172L3833.98,848.167L3833.88,848.161L3833.78,848.155L3833.69,848.147L3833.59,848.139L3833.39,848.119L3833.3,848.109L3833.2,848.097L3833.11,848.084L3833.01,848.071L3832.91,848.057L3832.82,848.041L3832.72,848.026L3832.62,848.009L3832.53,847.992L3832.43,847.973L3832.34,847.953L3832.24,847.933L3832.15,847.912L3832.05,847.89L3831.96,847.868L3831.86,847.844L3831.77,847.82L3831.67,847.794L3831.58,847.769L3831.49,847.743L3831.39,847.714L3831.3,847.686L3831.21,847.657L3831.11,847.626L3831.02,847.596L3830.93,847.564L3830.84,847.532L3830.75,847.498L3830.65,847.464L3830.56,847.43L3830.47,847.394L3830.38,847.358L3830.29,847.321L3830.2,847.283L3830.11,847.244L3830.02,847.203L3829.94,847.163L3829.85,847.122L3829.76,847.08L3829.67,847.037L3829.58,846.994L3829.5,846.95L3829.41,846.905L3829.33,846.86L3829.15,846.766L3829.07,846.717L3828.99,846.669L3828.9,846.619L3828.82,846.57L3828.73,846.518L3828.65,846.466L3828.57,846.414L3828.49,846.361L3828.41,846.307L3828.33,846.253L3828.25,846.198L3828.17,846.142L3828.09,846.085L3828.01,846.028L3827.93,845.97L3827.85,845.911L3827.77,845.852L3827.7,845.791L3827.62,845.731L3827.55,845.669L3827.47,845.608L3827.4,845.545L3827.32,845.482L3827.25,845.417L3827.18,845.353L3827.1,845.287L3827.03,845.222L3826.96,845.156L3826.89,845.088L3826.82,845.021L3826.75,844.953L3826.68,844.883L3826.61,844.814L3826.54,844.744L3826.48,844.672L3826.41,844.601L3826.35,844.53L3826.28,844.456L3826.22,844.384L3826.15,844.31L3826.09,844.236L3826.03,844.161L3825.96,844.086L3825.9,844.01L3825.84,843.934L3825.72,843.78L3825.67,843.702L3825.61,843.623L3825.49,843.465L3825.44,843.385L3825.38,843.304L3825.33,843.224L3825.28,843.142L3825.22,843.061L3825.17,842.978L3825.12,842.896L3825.07,842.812L3825.02,842.729L3824.97,842.645L3824.92,842.56L3824.87,842.475L3824.83,842.39L3824.73,842.218L3824.65,842.044L3824.6,841.957L3824.56,841.869L3824.52,841.782L3824.48,841.693L3824.44,841.605L3824.4,841.515L3824.36,841.426L3824.32,841.336L3824.28,841.245L3824.25,841.156L3824.21,841.065L3824.18,840.974L3824.14,840.882L3824.11,840.79L3824.08,840.699L3824.05,840.607L3823.9,840.142L3823.88,840.048L3823.85,839.953L3823.82,839.86L3823.78,839.67L3823.75,839.576L3823.73,839.481L3823.71,839.385L3823.67,839.195L3823.65,839.099L3823.64,839.003L3823.62,838.907L3823.6,838.811L3823.59,838.714L3823.58,838.619L3823.56,838.522L3823.54,838.328L3823.53,838.232L3823.52,838.134L3823.49,837.843L3823.49,837.745L3823.48,837.649L3823.48,837.551L3823.47,837.453L3823.47,836.674L3823.48,836.578L3823.48,836.48L3823.49,836.382L3823.49,836.286L3823.5,836.188L3823.55,835.703L3823.56,835.607L3823.57,835.51L3823.59,835.413L3823.6,835.318L3823.62,835.221L3823.64,835.125L3854.63,659.756L2951.57,659.756L2951.57,474.382Z" style="fill:white;"/>
        <path d="M1281.97,474.382L2185.03,474.382L2154.03,299.013L2154.01,298.917L2154,298.821L2153.98,298.724L2153.96,298.532L2153.94,298.435L2153.89,297.95L2153.89,297.853L2153.88,297.756L2153.88,297.659L2153.87,297.561L2153.87,297.464L2153.86,297.367L2153.86,296.782L2153.87,296.684L2153.87,296.587L2153.88,296.49L2153.88,296.392L2153.89,296.295L2153.89,296.198L2153.94,295.713L2153.96,295.617L2153.97,295.52L2153.98,295.424L2154,295.328L2154.01,295.231L2154.05,295.039L2154.07,294.944L2154.09,294.848L2154.11,294.753L2154.13,294.658L2154.19,294.373L2154.22,294.279L2154.24,294.184L2154.27,294.091L2154.29,293.997L2154.32,293.903L2154.35,293.81L2154.38,293.717L2154.41,293.624L2154.5,293.348L2154.54,293.256L2154.57,293.164L2154.61,293.074L2154.64,292.983L2154.68,292.892L2154.71,292.802L2154.75,292.712L2154.87,292.445L2154.91,292.357L2154.95,292.269L2155,292.181L2155.04,292.094L2155.08,292.007L2155.13,291.92L2155.17,291.834L2155.22,291.748L2155.27,291.663L2155.31,291.578L2155.36,291.494L2155.41,291.41L2155.46,291.326L2155.56,291.16L2155.62,291.078L2155.67,290.996L2155.72,290.914L2155.78,290.834L2155.83,290.753L2155.89,290.673L2155.95,290.594L2156,290.515L2156.12,290.359L2156.18,290.282L2156.24,290.204L2156.36,290.052L2156.42,289.977L2156.48,289.902L2156.55,289.828L2156.61,289.754L2156.67,289.682L2156.74,289.609L2156.81,289.537L2156.87,289.466L2156.94,289.395L2157.08,289.255L2157.14,289.186L2157.28,289.05L2157.35,288.983L2157.42,288.916L2157.5,288.85L2157.57,288.786L2157.64,288.721L2157.72,288.657L2157.79,288.593L2157.86,288.531L2157.94,288.469L2158.02,288.407L2158.09,288.347L2158.17,288.286L2158.25,288.227L2158.32,288.168L2158.4,288.111L2158.48,288.053L2158.56,287.996L2158.64,287.941L2158.8,287.831L2158.88,287.777L2158.96,287.724L2159.05,287.672L2159.13,287.62L2159.21,287.569L2159.29,287.519L2159.38,287.47L2159.46,287.421L2159.55,287.373L2159.63,287.326L2159.72,287.279L2159.8,287.233L2159.89,287.188L2160.07,287.1L2160.15,287.058L2160.24,287.016L2160.33,286.975L2160.42,286.934L2160.6,286.856L2160.69,286.818L2160.87,286.744L2160.96,286.709L2161.05,286.674L2161.14,286.64L2161.23,286.606L2161.32,286.574L2161.42,286.542L2161.51,286.512L2161.6,286.481L2161.69,286.452L2161.79,286.424L2161.88,286.396L2161.97,286.369L2162.07,286.344L2162.16,286.318L2162.26,286.294L2162.35,286.271L2162.45,286.248L2162.54,286.226L2162.63,286.205L2162.73,286.185L2162.83,286.166L2162.92,286.147L2163.02,286.13L2163.11,286.113L2163.21,286.097L2163.31,286.082L2163.4,286.068L2163.5,286.054L2163.6,286.041L2163.69,286.03L2163.79,286.019L2163.89,286.009L2163.98,286L2164.18,285.984L2164.27,285.977L2164.57,285.962L2164.66,285.959L2164.76,285.957L2164.86,285.955L2164.96,285.954L2165.05,285.955L2165.15,285.956L2165.25,285.958L2165.35,285.961L2165.44,285.964L2165.64,285.974L2165.73,285.98L2165.83,285.987L2165.93,285.995L2166.03,286.004L2166.12,286.013L2166.22,286.024L2166.32,286.035L2166.41,286.047L2166.51,286.06L2166.61,286.074L2166.7,286.089L2166.8,286.104L2166.89,286.12L2167.09,286.156L2167.18,286.174L2167.28,286.194L2167.37,286.215L2167.47,286.236L2167.56,286.258L2167.66,286.281L2167.75,286.305L2167.85,286.33L2167.94,286.355L2168.03,286.382L2168.13,286.409L2168.31,286.465L2168.41,286.495L2168.59,286.557L2168.68,286.589L2168.78,286.621L2168.87,286.655L2168.96,286.69L2169.05,286.725L2169.14,286.761L2169.23,286.798L2169.32,286.835L2169.41,286.874L2169.5,286.913L2169.59,286.953L2169.68,286.994L2169.76,287.035L2169.85,287.078L2169.94,287.12L2170.03,287.164L2170.11,287.209L2170.2,287.254L2170.29,287.3L2170.37,287.347L2170.46,287.394L2170.54,287.443L2170.63,287.492L2170.79,287.592L2170.88,287.643L2170.96,287.696L2171.04,287.748L2171.12,287.802L2171.2,287.856L2171.36,287.966L2550.45,553.403L2550.56,553.488L2550.68,553.574L2550.8,553.661L2550.92,553.748L2551.04,553.837L2551.15,553.927L2551.27,554.018L2551.38,554.11L2551.5,554.203L2551.61,554.297L2551.72,554.392L2551.83,554.489L2551.94,554.585L2552.05,554.683L2552.16,554.782L2552.27,554.882L2552.38,554.983L2552.48,555.085L2552.59,555.187L2552.69,555.291L2552.79,555.395L2552.9,555.501L2553,555.607L2553.1,555.714L2553.2,555.823L2553.3,555.932L2553.39,556.041L2553.49,556.152L2553.59,556.264L2553.68,556.376L2553.78,556.489L2553.87,556.603L2553.96,556.718L2554.05,556.833L2554.14,556.95L2554.23,557.067L2554.32,557.185L2554.4,557.304L2554.49,557.423L2554.57,557.544L2554.66,557.664L2554.74,557.786L2554.82,557.909L2554.9,558.032L2555.06,558.28L2555.13,558.406L2555.21,558.532L2555.28,558.658L2555.36,558.786L2555.43,558.913L2555.5,559.041L2555.57,559.171L2555.64,559.3L2555.71,559.431L2555.77,559.562L2555.84,559.693L2555.9,559.825L2555.97,559.958L2556.03,560.091L2556.09,560.225L2556.15,560.359L2556.27,560.629L2556.32,560.765L2556.38,560.901L2556.43,561.038L2556.48,561.175L2556.54,561.313L2556.58,561.451L2556.63,561.59L2556.68,561.728L2556.73,561.868L2556.77,562.008L2556.82,562.148L2556.86,562.288L2556.9,562.43L2556.98,562.712L2557.02,562.854L2557.05,562.997L2557.09,563.14L2557.12,563.283L2557.16,563.426L2557.19,563.569L2557.25,563.857L2557.27,564.001L2557.3,564.146L2557.33,564.29L2557.37,564.58L2557.39,564.726L2557.41,564.871L2557.47,565.309L2557.48,565.455L2557.49,565.602L2557.51,565.748L2557.52,565.895L2557.53,566.041L2557.54,566.188L2557.54,566.335L2557.55,566.482L2557.55,566.628L2557.56,566.775L2557.56,567.363L2557.55,567.51L2557.55,567.657L2557.54,567.803L2557.54,567.951L2557.53,568.097L2557.52,568.244L2557.51,568.39L2557.49,568.536L2557.48,568.683L2557.47,568.829L2557.45,568.975L2557.43,569.12L2557.41,569.267L2557.39,569.412L2557.37,569.558L2557.33,569.848L2557.3,569.993L2557.27,570.137L2557.25,570.282L2557.22,570.425L2557.19,570.57L2557.16,570.712L2557.12,570.856L2557.09,570.999L2557.05,571.142L2557.02,571.284L2556.98,571.426L2556.94,571.568L2556.9,571.708L2556.86,571.85L2556.82,571.991L2556.77,572.13L2556.73,572.271L2556.68,572.41L2556.63,572.549L2556.58,572.687L2556.54,572.826L2556.48,572.963L2556.43,573.1L2556.38,573.237L2556.32,573.373L2556.27,573.509L2556.21,573.645L2556.15,573.78L2556.09,573.913L2556.03,574.047L2555.97,574.18L2555.9,574.313L2555.84,574.445L2555.77,574.577L2555.71,574.707L2555.64,574.838L2555.57,574.967L2555.5,575.097L2555.43,575.225L2555.36,575.353L2555.28,575.48L2555.21,575.607L2555.13,575.733L2555.06,575.858L2554.98,575.983L2554.9,576.107L2554.82,576.23L2554.66,576.474L2554.57,576.595L2554.49,576.715L2554.4,576.834L2554.32,576.953L2554.23,577.072L2554.14,577.189L2554.05,577.305L2553.96,577.42L2553.87,577.536L2553.78,577.649L2553.68,577.762L2553.59,577.874L2553.49,577.987L2553.39,578.097L2553.3,578.206L2553.2,578.316L2553.1,578.424L2553,578.531L2552.9,578.637L2552.79,578.743L2552.69,578.847L2552.59,578.951L2552.48,579.054L2552.38,579.156L2552.27,579.256L2552.16,579.356L2552.05,579.454L2551.94,579.553L2551.83,579.65L2551.72,579.745L2551.61,579.841L2551.5,579.935L2551.38,580.028L2551.27,580.12L2551.15,580.211L2551.04,580.301L2550.92,580.39L2550.8,580.478L2550.68,580.565L2550.56,580.651L2550.45,580.736L2171.36,846.172L2171.28,846.228L2171.2,846.283L2171.12,846.336L2171.04,846.39L2170.96,846.443L2170.88,846.494L2170.79,846.546L2170.71,846.597L2170.63,846.646L2170.54,846.696L2170.46,846.744L2170.37,846.791L2170.29,846.838L2170.2,846.884L2170.11,846.929L2170.03,846.974L2169.94,847.018L2169.85,847.061L2169.76,847.103L2169.68,847.145L2169.59,847.186L2169.5,847.225L2169.41,847.265L2169.32,847.303L2169.23,847.34L2169.14,847.377L2169.05,847.413L2168.96,847.449L2168.87,847.483L2168.78,847.517L2168.68,847.549L2168.59,847.581L2168.5,847.613L2168.41,847.643L2168.31,847.673L2168.22,847.702L2168.13,847.73L2168.03,847.757L2167.94,847.783L2167.85,847.809L2167.75,847.833L2167.66,847.857L2167.56,847.88L2167.47,847.903L2167.37,847.923L2167.28,847.944L2167.18,847.964L2167.09,847.983L2166.99,848L2166.89,848.018L2166.8,848.035L2166.7,848.05L2166.61,848.065L2166.41,848.091L2166.32,848.103L2166.22,848.115L2166.12,848.125L2166.03,848.134L2165.93,848.143L2165.73,848.159L2165.64,848.164L2165.44,848.174L2165.35,848.178L2165.25,848.18L2165.15,848.182L2165.05,848.183L2164.96,848.184L2164.86,848.183L2164.66,848.179L2164.57,848.176L2164.47,848.172L2164.37,848.167L2164.27,848.161L2164.18,848.155L2163.98,848.139L2163.89,848.129L2163.79,848.119L2163.69,848.109L2163.6,848.097L2163.5,848.084L2163.4,848.071L2163.31,848.057L2163.21,848.041L2163.11,848.026L2163.02,848.009L2162.92,847.992L2162.83,847.973L2162.63,847.933L2162.54,847.912L2162.45,847.89L2162.35,847.868L2162.26,847.844L2162.16,847.82L2162.07,847.794L2161.97,847.769L2161.88,847.743L2161.79,847.714L2161.69,847.686L2161.6,847.657L2161.51,847.626L2161.42,847.596L2161.32,847.564L2161.23,847.532L2161.14,847.498L2161.05,847.464L2160.96,847.43L2160.87,847.394L2160.78,847.358L2160.69,847.321L2160.6,847.283L2160.51,847.244L2160.42,847.203L2160.33,847.163L2160.24,847.122L2160.15,847.08L2160.07,847.037L2159.98,846.994L2159.89,846.95L2159.8,846.905L2159.72,846.86L2159.63,846.813L2159.55,846.766L2159.46,846.717L2159.38,846.669L2159.29,846.619L2159.21,846.57L2159.13,846.518L2159.05,846.466L2158.96,846.414L2158.88,846.361L2158.8,846.307L2158.72,846.253L2158.64,846.198L2158.56,846.142L2158.48,846.085L2158.4,846.028L2158.32,845.97L2158.25,845.911L2158.17,845.852L2158.09,845.791L2158.02,845.731L2157.94,845.669L2157.86,845.608L2157.79,845.545L2157.72,845.482L2157.64,845.417L2157.57,845.353L2157.5,845.287L2157.42,845.222L2157.35,845.156L2157.28,845.088L2157.21,845.021L2157.14,844.953L2157.08,844.883L2157.01,844.814L2156.94,844.744L2156.87,844.672L2156.81,844.601L2156.74,844.53L2156.67,844.456L2156.61,844.384L2156.55,844.31L2156.48,844.236L2156.42,844.161L2156.36,844.086L2156.24,843.934L2156.18,843.857L2156.12,843.78L2156.06,843.702L2156,843.623L2155.95,843.544L2155.89,843.465L2155.83,843.385L2155.78,843.304L2155.72,843.224L2155.67,843.142L2155.62,843.061L2155.56,842.978L2155.51,842.896L2155.46,842.812L2155.41,842.729L2155.36,842.645L2155.31,842.56L2155.27,842.475L2155.22,842.39L2155.17,842.304L2155.13,842.218L2155.08,842.131L2155,841.957L2154.95,841.869L2154.91,841.782L2154.87,841.693L2154.83,841.605L2154.79,841.515L2154.75,841.426L2154.71,841.336L2154.68,841.245L2154.64,841.156L2154.61,841.065L2154.57,840.974L2154.54,840.882L2154.5,840.79L2154.47,840.699L2154.44,840.607L2154.38,840.421L2154.35,840.328L2154.29,840.142L2154.27,840.048L2154.24,839.953L2154.22,839.86L2154.19,839.765L2154.17,839.67L2154.15,839.576L2154.13,839.481L2154.11,839.385L2154.07,839.195L2154.01,838.907L2154,838.811L2153.98,838.714L2153.97,838.619L2153.96,838.522L2153.94,838.425L2153.93,838.328L2153.92,838.232L2153.91,838.134L2153.89,837.94L2153.89,837.843L2153.88,837.745L2153.88,837.649L2153.87,837.551L2153.87,837.453L2153.86,837.357L2153.86,836.772L2153.87,836.674L2153.87,836.578L2153.88,836.48L2153.88,836.382L2153.89,836.286L2153.89,836.188L2153.94,835.703L2153.96,835.607L2153.98,835.413L2154,835.318L2154.01,835.221L2154.03,835.125L2185.03,659.756L1281.97,659.756L1281.97,474.382Z" style="fill:white;"/>
        <path d="M0,474.382L515.419,474.382L484.423,299.013L484.407,298.917L484.391,298.821L484.376,298.724L484.362,298.628L484.349,298.532L484.325,298.338L484.305,298.144L484.296,298.047L484.288,297.95L484.281,297.853L484.274,297.756L484.269,297.659L484.264,297.561L484.26,297.464L484.257,297.367L484.255,297.269L484.254,297.171L484.254,296.977L484.255,296.879L484.258,296.782L484.261,296.684L484.265,296.587L484.269,296.49L484.274,296.392L484.281,296.295L484.297,296.101L484.315,295.907L484.326,295.81L484.338,295.713L484.35,295.617L484.363,295.52L484.377,295.424L484.392,295.328L484.408,295.231L484.424,295.135L484.442,295.039L484.46,294.944L484.479,294.848L484.499,294.753L484.52,294.658L484.564,294.468L484.587,294.373L484.611,294.279L484.636,294.184L484.662,294.091L484.688,293.997L484.716,293.903L484.744,293.81L484.773,293.717L484.803,293.624L484.865,293.44L484.897,293.348L484.931,293.256L484.964,293.164L484.999,293.074L485.035,292.983L485.071,292.892L485.108,292.802L485.146,292.712L485.224,292.534L485.264,292.445L485.305,292.357L485.347,292.269L485.389,292.181L485.521,291.92L485.567,291.834L485.613,291.748L485.66,291.663L485.708,291.578L485.806,291.41L485.856,291.326L485.907,291.243L485.958,291.16L486.01,291.078L486.063,290.996L486.117,290.914L486.171,290.834L486.227,290.753L486.282,290.673L486.338,290.594L486.396,290.515L486.454,290.437L486.512,290.359L486.571,290.282L486.631,290.204L486.691,290.128L486.753,290.052L486.814,289.977L486.877,289.902L486.94,289.828L487.004,289.754L487.069,289.682L487.134,289.609L487.199,289.537L487.266,289.466L487.333,289.395L487.4,289.325L487.469,289.255L487.538,289.186L487.607,289.118L487.677,289.05L487.748,288.983L487.819,288.916L487.891,288.85L487.963,288.786L488.036,288.721L488.109,288.657L488.184,288.593L488.258,288.531L488.333,288.469L488.409,288.407L488.485,288.347L488.562,288.286L488.639,288.227L488.717,288.168L488.795,288.111L488.874,288.053L488.953,287.996L489.113,287.886L489.194,287.831L489.275,287.777L489.357,287.724L489.439,287.672L489.522,287.62L489.605,287.569L489.688,287.519L489.772,287.47L489.857,287.421L489.941,287.373L490.027,287.326L490.112,287.279L490.198,287.233L490.285,287.188L490.459,287.1L490.635,287.016L490.723,286.975L490.812,286.934L490.9,286.895L490.99,286.856L491.08,286.818L491.26,286.744L491.351,286.709L491.441,286.674L491.625,286.606L491.716,286.574L491.809,286.542L491.901,286.512L491.994,286.481L492.087,286.452L492.273,286.396L492.367,286.369L492.461,286.344L492.555,286.318L492.649,286.294L492.839,286.248L492.934,286.226L493.029,286.205L493.124,286.185L493.22,286.166L493.315,286.147L493.411,286.13L493.507,286.113L493.604,286.097L493.7,286.082L493.796,286.068L493.893,286.054L493.989,286.041L494.086,286.03L494.183,286.019L494.279,286.009L494.376,286L494.474,285.992L494.571,285.984L494.668,285.977L494.766,285.972L494.862,285.967L494.96,285.962L495.058,285.959L495.155,285.957L495.252,285.955L495.35,285.954L495.447,285.955L495.544,285.956L495.642,285.958L495.739,285.961L495.837,285.964L496.031,285.974L496.128,285.98L496.226,285.987L496.323,285.995L496.42,286.004L496.517,286.013L496.614,286.024L496.71,286.035L496.807,286.047L496.904,286.06L497,286.074L497.097,286.089L497.193,286.104L497.289,286.12L497.385,286.138L497.48,286.156L497.576,286.174L497.672,286.194L497.767,286.215L497.862,286.236L497.957,286.258L498.052,286.281L498.146,286.305L498.24,286.33L498.334,286.355L498.428,286.382L498.521,286.409L498.615,286.437L498.708,286.465L498.801,286.495L498.894,286.526L498.986,286.557L499.078,286.589L499.169,286.621L499.261,286.655L499.443,286.725L499.533,286.761L499.624,286.798L499.714,286.835L499.803,286.874L499.893,286.913L499.981,286.953L500.07,286.994L500.158,287.035L500.246,287.078L500.333,287.12L500.42,287.164L500.507,287.209L500.593,287.254L500.679,287.3L500.765,287.347L500.85,287.394L501.018,287.492L501.186,287.592L501.268,287.643L501.351,287.696L501.433,287.748L501.595,287.856L501.676,287.911L501.756,287.966L880.838,553.403L880.958,553.488L881.078,553.574L881.196,553.661L881.313,553.748L881.431,553.837L881.547,553.927L881.662,554.018L881.777,554.11L881.891,554.203L882.003,554.297L882.115,554.392L882.227,554.489L882.337,554.585L882.446,554.683L882.555,554.782L882.663,554.882L882.77,554.983L882.876,555.085L882.981,555.187L883.085,555.291L883.188,555.395L883.291,555.501L883.392,555.607L883.492,555.714L883.592,555.823L883.788,556.041L883.885,556.152L883.98,556.264L884.075,556.376L884.169,556.489L884.262,556.603L884.353,556.718L884.444,556.833L884.534,556.95L884.622,557.067L884.709,557.185L884.796,557.304L884.882,557.423L884.966,557.544L885.049,557.664L885.132,557.786L885.213,557.909L885.293,558.032L885.372,558.156L885.45,558.28L885.527,558.406L885.603,558.532L885.677,558.658L885.751,558.786L885.823,558.913L885.895,559.041L885.965,559.171L886.034,559.3L886.102,559.431L886.168,559.562L886.233,559.693L886.298,559.825L886.361,559.958L886.423,560.091L886.484,560.225L886.544,560.359L886.603,560.494L886.66,560.629L886.716,560.765L886.771,560.901L886.824,561.038L886.877,561.175L886.928,561.313L886.979,561.451L887.027,561.59L887.075,561.728L887.121,561.868L887.166,562.008L887.21,562.148L887.253,562.288L887.294,562.43L887.335,562.571L887.374,562.712L887.412,562.854L887.448,562.997L887.483,563.14L887.517,563.283L887.55,563.426L887.581,563.569L887.611,563.713L887.641,563.857L887.668,564.001L887.694,564.146L887.72,564.29L887.744,564.435L887.766,564.58L887.787,564.726L887.807,564.871L887.826,565.017L887.844,565.163L887.859,565.309L887.875,565.455L887.888,565.602L887.9,565.748L887.911,565.895L887.921,566.041L887.93,566.188L887.937,566.335L887.942,566.482L887.947,566.628L887.95,566.775L887.952,566.922L887.953,567.069L887.952,567.216L887.95,567.363L887.947,567.51L887.942,567.657L887.937,567.803L887.93,567.951L887.921,568.097L887.911,568.244L887.9,568.39L887.888,568.536L887.875,568.683L887.859,568.829L887.844,568.975L887.826,569.12L887.807,569.267L887.787,569.412L887.766,569.558L887.744,569.703L887.72,569.848L887.694,569.993L887.668,570.137L887.641,570.282L887.611,570.425L887.581,570.57L887.55,570.712L887.517,570.856L887.483,570.999L887.448,571.142L887.412,571.284L887.374,571.426L887.335,571.568L887.294,571.708L887.253,571.85L887.21,571.991L887.166,572.13L887.121,572.271L887.075,572.41L887.027,572.549L886.979,572.687L886.928,572.826L886.877,572.963L886.824,573.1L886.771,573.237L886.716,573.373L886.66,573.509L886.603,573.645L886.544,573.78L886.484,573.913L886.423,574.047L886.361,574.18L886.298,574.313L886.233,574.445L886.168,574.577L886.102,574.707L886.034,574.838L885.965,574.967L885.895,575.097L885.823,575.225L885.751,575.353L885.677,575.48L885.603,575.607L885.527,575.733L885.45,575.858L885.372,575.983L885.293,576.107L885.213,576.23L885.132,576.352L885.049,576.474L884.966,576.595L884.882,576.715L884.796,576.834L884.709,576.953L884.622,577.072L884.534,577.189L884.444,577.305L884.353,577.42L884.262,577.536L884.169,577.649L884.075,577.762L883.98,577.874L883.885,577.987L883.788,578.097L883.69,578.206L883.592,578.316L883.492,578.424L883.392,578.531L883.291,578.637L883.188,578.743L883.085,578.847L882.981,578.951L882.876,579.054L882.77,579.156L882.663,579.256L882.555,579.356L882.446,579.454L882.337,579.553L882.227,579.65L882.115,579.745L882.003,579.841L881.891,579.935L881.777,580.028L881.662,580.12L881.547,580.211L881.431,580.301L881.313,580.39L881.196,580.478L881.078,580.565L880.958,580.651L880.838,580.736L501.756,846.172L501.676,846.228L501.595,846.283L501.514,846.336L501.433,846.39L501.351,846.443L501.268,846.494L501.186,846.546L501.102,846.597L501.018,846.646L500.934,846.696L500.85,846.744L500.765,846.791L500.679,846.838L500.593,846.884L500.507,846.929L500.42,846.974L500.333,847.018L500.246,847.061L500.07,847.145L499.981,847.186L499.893,847.225L499.803,847.265L499.714,847.303L499.624,847.34L499.533,847.377L499.443,847.413L499.352,847.449L499.261,847.483L499.169,847.517L499.078,847.549L498.986,847.581L498.894,847.613L498.708,847.673L498.615,847.702L498.521,847.73L498.428,847.757L498.24,847.809L498.146,847.833L498.052,847.857L497.862,847.903L497.767,847.923L497.672,847.944L497.576,847.964L497.48,847.983L497.385,848L497.289,848.018L497.193,848.035L497.097,848.05L497,848.065L496.904,848.078L496.807,848.091L496.71,848.103L496.614,848.115L496.517,848.125L496.323,848.143L496.226,848.151L496.128,848.159L495.837,848.174L495.739,848.178L495.544,848.182L495.447,848.183L495.35,848.184L495.252,848.183L495.058,848.179L494.96,848.176L494.862,848.172L494.766,848.167L494.668,848.161L494.571,848.155L494.474,848.147L494.376,848.139L494.279,848.129L494.183,848.119L494.086,848.109L493.989,848.097L493.893,848.084L493.796,848.071L493.7,848.057L493.604,848.041L493.507,848.026L493.315,847.992L493.22,847.973L493.124,847.953L493.029,847.933L492.934,847.912L492.839,847.89L492.744,847.868L492.649,847.844L492.555,847.82L492.461,847.794L492.367,847.769L492.273,847.743L492.18,847.714L492.087,847.686L491.994,847.657L491.901,847.626L491.809,847.596L491.716,847.564L491.625,847.532L491.441,847.464L491.351,847.43L491.26,847.394L491.17,847.358L491.08,847.321L490.99,847.283L490.9,847.244L490.812,847.203L490.723,847.163L490.635,847.122L490.547,847.08L490.459,847.037L490.372,846.994L490.285,846.95L490.198,846.905L490.112,846.86L490.027,846.813L489.941,846.766L489.857,846.717L489.772,846.669L489.688,846.619L489.605,846.57L489.439,846.466L489.357,846.414L489.275,846.361L489.194,846.307L489.113,846.253L489.033,846.198L488.953,846.142L488.795,846.028L488.717,845.97L488.639,845.911L488.562,845.852L488.485,845.791L488.409,845.731L488.333,845.669L488.258,845.608L488.184,845.545L488.109,845.482L488.036,845.417L487.963,845.353L487.891,845.287L487.819,845.222L487.748,845.156L487.677,845.088L487.607,845.021L487.538,844.953L487.469,844.883L487.4,844.814L487.333,844.744L487.266,844.672L487.199,844.601L487.134,844.53L487.069,844.456L487.004,844.384L486.94,844.31L486.877,844.236L486.814,844.161L486.753,844.086L486.691,844.01L486.631,843.934L486.571,843.857L486.512,843.78L486.454,843.702L486.338,843.544L486.282,843.465L486.227,843.385L486.171,843.304L486.117,843.224L486.063,843.142L486.01,843.061L485.958,842.978L485.907,842.896L485.856,842.812L485.806,842.729L485.757,842.645L485.708,842.56L485.66,842.475L485.613,842.39L485.521,842.218L485.477,842.131L485.433,842.044L485.389,841.957L485.347,841.869L485.305,841.782L485.264,841.693L485.224,841.605L485.185,841.515L485.146,841.426L485.108,841.336L485.071,841.245L485.035,841.156L484.999,841.065L484.964,840.974L484.931,840.882L484.897,840.79L484.865,840.699L484.834,840.607L484.803,840.514L484.773,840.421L484.744,840.328L484.716,840.235L484.688,840.142L484.662,840.048L484.636,839.953L484.611,839.86L484.587,839.765L484.564,839.67L484.542,839.576L484.52,839.481L484.499,839.385L484.479,839.29L484.46,839.195L484.442,839.099L484.424,839.003L484.408,838.907L484.392,838.811L484.377,838.714L484.363,838.619L484.35,838.522L484.338,838.425L484.326,838.328L484.315,838.232L484.306,838.134L484.297,838.037L484.281,837.843L484.274,837.745L484.269,837.649L484.265,837.551L484.261,837.453L484.258,837.357L484.255,837.259L484.254,837.161L484.254,836.967L484.255,836.869L484.257,836.772L484.26,836.674L484.264,836.578L484.269,836.48L484.274,836.382L484.281,836.286L484.288,836.188L484.296,836.091L484.305,835.994L484.325,835.8L484.337,835.703L484.349,835.607L484.362,835.51L484.376,835.413L484.391,835.318L484.407,835.221L484.423,835.125L515.419,659.756L0,659.756L0,474.382Z" style="fill:white;"/>
    </g>
</svg>
