<?xml version="1.0" encoding="UTF-8" standalone="no"?>
<!DOCTYPE svg PUBLIC "-//W3C//DTD SVG 1.1//EN" "http://www.w3.org/Graphics/SVG/1.1/DTD/svg11.dtd">
<svg width="100%" height="100%" viewBox="0 0 227 227" version="1.1" xmlns="http://www.w3.org/2000/svg" xmlns:xlink="http://www.w3.org/1999/xlink" xml:space="preserve" xmlns:serif="http://www.serif.com/" style="fill-rule:evenodd;clip-rule:evenodd;stroke-miterlimit:2;">
    <g>
        <path d="M226.691,113.708C226.691,51.357 175.643,0.309 113.291,0.309C51.155,0.309 0.107,51.357 0.107,113.708C0.107,175.845 51.155,226.892 113.291,226.892C175.643,226.892 226.691,175.845 226.691,113.708Z" style="fill:white;fill-rule:nonzero;"/>
        <path d="M226.691,113.708C226.691,51.357 175.643,0.309 113.291,0.309C51.155,0.309 0.107,51.357 0.107,113.708C0.107,175.845 51.155,226.892 113.291,226.892C175.643,226.892 226.691,175.845 226.691,113.708Z" style="fill:none;stroke:rgb(35,31,32);stroke-width:0.22px;"/>
        <path d="M151.235,165.909C155.483,165.909 159.731,164.757 163.763,162.812C168.011,160.221 171.683,157.124 174.491,153.452C176.795,150.356 178.739,146.9 180.179,143.228C181.619,140.996 182.195,138.117 182.771,135.597C184.139,128.757 184.715,121.989 184.715,115.148C184.715,110.612 184.427,106.076 183.851,101.828C183.275,96.141 182.195,90.741 180.467,85.7C178.739,81.669 176.795,77.997 174.491,74.613C171.395,70.365 167.435,66.693 162.899,64.101C159.227,62.157 155.195,61.005 151.235,61.005C146.987,61.005 143.028,62.157 139.355,64.101C134.819,66.693 131.147,70.365 127.98,74.613C125.747,77.709 123.444,81.381 122.076,85.413C120.347,90.741 118.908,96.141 118.331,101.54C117.827,106.076 117.54,110.612 117.54,115.148C117.54,122.276 118.331,129.044 119.771,135.885C120.059,138.405 120.923,140.996 122.076,143.228C123.731,146.9 125.459,150.356 127.691,153.452C130.858,157.124 134.531,160.221 138.779,162.812C142.451,164.757 146.699,165.909 151.235,165.909Z" style="fill:rgb(187,177,163);fill-rule:nonzero;"/>
        <path d="M151.235,165.909C155.483,165.909 159.731,164.757 163.763,162.812C168.011,160.221 171.683,157.124 174.491,153.452C176.795,150.356 178.739,146.9 180.179,143.228C181.619,140.996 182.195,138.117 182.771,135.597C184.139,128.757 184.715,121.989 184.715,115.148C184.715,110.612 184.427,106.076 183.851,101.828C183.275,96.141 182.195,90.741 180.467,85.7C178.739,81.669 176.795,77.997 174.491,74.613C171.395,70.365 167.435,66.693 162.899,64.101C159.227,62.157 155.195,61.005 151.235,61.005C146.987,61.005 143.028,62.157 139.355,64.101C134.819,66.693 131.147,70.365 127.98,74.613C125.747,77.709 123.444,81.381 122.076,85.413C120.347,90.741 118.908,96.141 118.331,101.54C117.827,106.076 117.54,110.612 117.54,115.148C117.54,122.276 118.331,129.044 119.771,135.885C120.059,138.405 120.923,140.996 122.076,143.228C123.731,146.9 125.459,150.356 127.691,153.452C130.858,157.124 134.531,160.221 138.779,162.812C142.451,164.757 146.699,165.909 151.235,165.909Z" style="fill:none;stroke:rgb(187,177,163);stroke-width:0.22px;"/>
        <path d="M91.98,82.82L55.691,82.245L56.267,62.445L114.371,62.949L114.371,81.381L78.083,162.236L55.691,162.524L91.98,82.82Z" style="fill:rgb(187,177,163);fill-rule:nonzero;"/>
        <path d="M91.98,82.82L55.691,82.245L56.267,62.445L114.371,62.949L114.371,81.381L78.083,162.236L55.691,162.524L91.98,82.82Z" style="fill:none;stroke:rgb(187,177,163);stroke-width:0.22px;"/>
        <path d="M157.211,82.82L158.075,83.685L158.651,84.837L159.227,85.917L160.019,87.069L160.595,88.508L161.171,89.661L161.747,91.029L162.035,92.469L162.611,93.909L162.899,95.061L163.187,96.429L163.475,97.868L163.763,99.309L164.051,100.389L164.267,101.828L164.267,102.98L164.555,104.133L164.555,105.212L164.843,106.365L164.843,110.036L165.131,110.9L165.131,118.821L164.843,119.396L164.843,123.356L164.555,123.932L164.555,126.524L164.267,127.1L164.267,127.892L164.051,128.47L164.051,129.621L163.763,130.197L163.763,130.772L163.475,131.637L163.475,132.14L163.187,132.717L163.187,133.292L162.899,134.157L162.611,134.732L162.611,135.308L162.323,135.885L162.035,136.748L162.035,137.252L161.747,137.828L161.459,138.405L161.171,138.98L161.171,139.556L160.883,139.845L160.595,140.42L160.307,140.996L160.019,141.284L159.731,141.788L159.515,142.076L159.227,142.652L158.939,143.228L158.363,143.516L158.075,144.093L157.787,144.38L157.211,144.956L156.635,145.244L156.347,145.821L155.771,146.036L155.483,146.325L154.98,146.613L154.691,146.9L154.115,147.188L153.827,147.188L153.251,147.476L152.963,147.476L152.675,147.764L149.579,147.764L149.291,147.476L149.004,147.476L148.427,147.188L148.139,147.188L147.851,146.9L147.275,146.613L146.699,146.325L146.411,146.036L145.835,145.821L145.619,145.244L145.043,144.956L144.755,144.38L144.179,144.093L143.891,143.516L143.315,143.228L143.028,142.652L142.739,142.076L142.451,141.788L142.163,141.284L141.875,140.996L141.587,140.42L141.299,139.845L141.299,139.556L141.083,138.98L140.795,138.405L140.507,137.828L140.507,137.252L140.219,136.748L139.932,135.885L139.643,135.308L139.643,134.732L139.355,134.157L139.067,133.292L139.067,132.717L138.779,132.14L138.779,131.637L138.492,130.772L138.492,130.197L138.203,129.621L138.203,128.47L137.915,127.892L137.915,126.524L137.627,125.949L137.627,123.356L137.339,122.852L137.339,118.821L137.051,118.244L137.051,111.476L137.339,110.9L137.339,107.228L137.627,106.365L137.627,104.133L137.915,102.98L137.915,101.828L138.203,100.389L138.492,99.309L138.779,97.868L139.067,96.429L139.355,95.061L139.643,93.909L140.219,92.469L140.795,91.029L141.083,89.661L141.587,88.508L142.451,87.069L143.028,85.917L143.603,84.837L144.468,83.685L145.043,82.82L145.835,81.957L146.411,81.165L147.275,80.589L148.139,80.013L148.715,79.724L149.579,79.437L150.371,79.149L151.811,79.149L152.675,79.437L153.539,79.724L154.403,80.013L154.98,80.589L155.771,81.165L156.635,81.957L157.211,82.82Z" style="fill:white;fill-rule:nonzero;"/>
        <path d="M157.211,82.82L158.075,83.685L158.651,84.837L159.227,85.917L160.019,87.069L160.595,88.508L161.171,89.661L161.747,91.029L162.035,92.469L162.611,93.909L162.899,95.061L163.187,96.429L163.475,97.868L163.763,99.309L164.051,100.389L164.267,101.828L164.267,102.98L164.555,104.133L164.555,105.212L164.843,106.365L164.843,110.036L165.131,110.9L165.131,118.821L164.843,119.396L164.843,123.356L164.555,123.932L164.555,126.524L164.267,127.1L164.267,127.892L164.051,128.47L164.051,129.621L163.763,130.197L163.763,130.772L163.475,131.637L163.475,132.14L163.187,132.717L163.187,133.292L162.899,134.157L162.611,134.732L162.611,135.308L162.323,135.885L162.035,136.748L162.035,137.252L161.747,137.828L161.459,138.405L161.171,138.98L161.171,139.556L160.883,139.845L160.595,140.42L160.307,140.996L160.019,141.284L159.731,141.788L159.515,142.076L159.227,142.652L158.939,143.228L158.363,143.516L158.075,144.093L157.787,144.38L157.211,144.956L156.635,145.244L156.347,145.821L155.771,146.036L155.483,146.325L154.98,146.613L154.691,146.9L154.115,147.188L153.827,147.188L153.251,147.476L152.963,147.476L152.675,147.764L149.579,147.764L149.291,147.476L149.004,147.476L148.427,147.188L148.139,147.188L147.851,146.9L147.275,146.613L146.699,146.325L146.411,146.036L145.835,145.821L145.619,145.244L145.043,144.956L144.755,144.38L144.179,144.093L143.891,143.516L143.315,143.228L143.028,142.652L142.739,142.076L142.451,141.788L142.163,141.284L141.875,140.996L141.587,140.42L141.299,139.845L141.299,139.556L141.083,138.98L140.795,138.405L140.507,137.828L140.507,137.252L140.219,136.748L139.932,135.885L139.643,135.308L139.643,134.732L139.355,134.157L139.067,133.292L139.067,132.717L138.779,132.14L138.779,131.637L138.492,130.772L138.492,130.197L138.203,129.621L138.203,128.47L137.915,127.892L137.915,126.524L137.627,125.949L137.627,123.356L137.339,122.852L137.339,118.821L137.051,118.244L137.051,111.476L137.339,110.9L137.339,107.228L137.627,106.365L137.627,104.133L137.915,102.98L137.915,101.828L138.203,100.389L138.492,99.309L138.779,97.868L139.067,96.429L139.355,95.061L139.643,93.909L140.219,92.469L140.795,91.029L141.083,89.661L141.587,88.508L142.451,87.069L143.028,85.917L143.603,84.837L144.468,83.685L145.043,82.82L145.835,81.957L146.411,81.165L147.275,80.589L148.139,80.013L148.715,79.724L149.579,79.437L150.371,79.149L151.811,79.149L152.675,79.437L153.539,79.724L154.403,80.013L154.98,80.589L155.771,81.165L156.635,81.957L157.211,82.82Z" style="fill:none;stroke:rgb(187,177,163);stroke-width:0.22px;"/>
        <path d="M50.579,208.46C52.307,209.613 53.963,210.476 55.691,211.556L211.067,56.181C209.987,54.453 209.123,52.796 207.971,51.357L50.579,208.46Z" style="fill:rgb(35,31,32);fill-rule:nonzero;"/>
        <path d="M50.579,208.46C52.307,209.613 53.963,210.476 55.691,211.556L211.067,56.181C209.987,54.453 209.123,52.796 207.971,51.357L50.579,208.46Z" style="fill:none;stroke:rgb(35,31,32);stroke-width:0.22px;"/>
        <path d="M37.259,197.949C38.699,199.1 40.067,200.54 41.507,201.62L201.203,41.997C200.051,40.556 198.611,39.189 197.459,37.748L37.259,197.949Z" style="fill:rgb(35,31,32);fill-rule:nonzero;"/>
        <path d="M37.259,197.949C38.699,199.1 40.067,200.54 41.507,201.62L201.203,41.997C200.051,40.556 198.611,39.189 197.459,37.748L37.259,197.949Z" style="fill:none;stroke:rgb(35,31,32);stroke-width:0.22px;"/>
        <path d="M25.379,185.493C26.747,187.221 27.899,188.588 29.339,190.029L189.251,29.541C188.099,28.389 186.731,27.237 185.003,25.796L25.379,185.493Z" style="fill:rgb(35,31,32);fill-rule:nonzero;"/>
        <path d="M25.379,185.493C26.747,187.221 27.899,188.588 29.339,190.029L189.251,29.541C188.099,28.389 186.731,27.237 185.003,25.796L25.379,185.493Z" style="fill:none;stroke:rgb(35,31,32);stroke-width:0.22px;"/>
        <path d="M18.539,176.42C17.675,174.692 16.523,173.036 15.731,171.597L170.819,15.933C172.547,17.013 174.203,18.165 175.932,19.029L18.539,176.42Z" style="fill:rgb(35,31,32);fill-rule:nonzero;"/>
        <path d="M18.539,176.42C17.675,174.692 16.523,173.036 15.731,171.597L170.819,15.933C172.547,17.013 174.203,18.165 175.932,19.029L18.539,176.42Z" style="fill:none;stroke:rgb(35,31,32);stroke-width:0.22px;"/>
    </g>
</svg>
