<?xml version="1.0" encoding="UTF-8" standalone="no"?>
<!DOCTYPE svg PUBLIC "-//W3C//DTD SVG 1.1//EN" "http://www.w3.org/Graphics/SVG/1.1/DTD/svg11.dtd">
<svg width="100%" height="100%" viewBox="0 0 421 292" version="1.1" xmlns="http://www.w3.org/2000/svg" xmlns:xlink="http://www.w3.org/1999/xlink" xml:space="preserve" xmlns:serif="http://www.serif.com/" style="fill-rule:evenodd;clip-rule:evenodd;stroke-linejoin:round;stroke-miterlimit:2;">
    <g>
        <g transform="matrix(0.909879,0,0,0.893321,17.4449,14.3165)">
            <rect x="0" y="0.5" width="421" height="291.5" style="fill:white;"/>
        </g>
        <path d="M399,257.25L398.5,259.25L398,261L396,264.5L394.75,265.75L391.75,268.25L390,269L386.5,270L34.5,270L32.5,269.5L30.75,269L29,268.25L27.25,267L24.75,264.5L22.75,261L22.25,259.25L21.75,257.25L21.75,35L22.25,33L22.75,31.25L23.75,29.5L24.75,28L26,26.5L27.25,25.25L30.75,23.25L32.5,22.75L34.5,22.5L36.25,22.25L384.5,22.25L386.5,22.5L388.25,22.75L390,23.25L391.75,24.25L393.25,25.25L394.75,26.5L396,28L397,29.5L398,31.25L398.5,33L399,35L399,257.25ZM413.5,33L412.75,29.25L409.75,22.25L407.75,19.25L405.25,16.25L402.25,13.75L399,11.5L395.75,10L392,8.75L388.25,8L384.5,7.75L36.25,7.75L32.5,8L28.75,8.75L25,10L21.75,11.5L18.5,13.75L15.75,16.25L13.25,19.25L11,22.25L9.25,25.75L8.25,29.25L7.5,33L7,37L7,255.5L7.5,259.25L8.25,263L9.25,266.75L11,270L13.25,273.25L15.75,276L18.5,278.5L21.75,280.75L25,282.5L28.75,283.75L36.25,284.75L384.5,284.75L392,283.75L395.75,282.5L399,280.75L402.25,278.5L405.25,276L407.75,273.25L409.75,270L411.25,266.75L412.75,263L413.5,259.25L413.75,255.5L413.75,37L413.5,33Z" style="fill:rgb(35,31,32);"/>
        <path d="M104.5,73.25L87,90.75L87,115.75L102.75,107L102.75,219L128.25,219L128.25,73.25L104.5,73.25Z" style="fill:rgb(35,31,32);"/>
        <path d="M179.75,73.25L162.25,90.75L162.25,115.75L178,107L178,219L203.5,219L203.5,73.25L179.75,73.25Z" style="fill:rgb(35,31,32);"/>
        <path d="M313.25,177L312.75,181.25L311.5,185.25L309.25,188.5L306.75,191.75L305.5,193L302,195.5L298.5,197.25L294.5,198.25L290.25,198.5L288.5,198.5L284.25,197.75L280.5,196.5L277,194.5L273.75,191.75L272.75,190.5L270.25,187.25L268.5,183.5L267.5,179.5L267.25,175.25L267.25,165.5L268,161.25L269.25,157.75L271.25,154L274,151L275.25,149.75L278.5,147.25L282.25,145.5L286,144.5L290.25,144L292,144.25L296,144.75L300,146.25L303.25,148.25L306.5,151L307.75,152.25L310.25,155.5L312,159L313,163L313.25,167.25L313.25,177ZM338.25,163.75L337.75,159.5L336.75,155.5L335.5,151.75L334,148L332.25,144.5L330,141L324.5,134.5L324,134L320.75,131.25L317.5,128.75L314,126.5L310.25,124.75L306.5,123.25L302.75,122.25L298.75,121.25L294.5,120.75L286.75,120.75L282.5,121.5L278.75,122.5L275,124.25L271.25,126.25L268,128.75L268.75,126.5L269.75,122.5L271,118.5L272.75,114.75L274.25,110.75L276.25,106.75L277,105L279.5,101.5L282.25,98.75L285.25,96.5L288.75,95L292.5,94L296.75,93.75L298.5,93.75L302.5,94.5L306.25,95.75L309.75,97.75L313,100.5L328.5,80.5L328,80.25L324.5,78L321,76L317.25,74.25L313.5,72.75L309.5,71.5L305.5,70.75L301.25,70.25L297.25,70L293.5,70.25L289.25,70.75L285.25,71.5L281.25,72.5L277.5,74.25L273.5,76L270,78L267,80.25L263.5,83L260.75,85.75L258,89L255.5,92.25L253.25,95.75L251.5,99.5L250.75,101.25L249,105.25L246,113.25L243.5,121.25L241.75,129.5L240.25,137.5L240,141.75L239.5,146L239.5,150L239.25,154.25L239.25,156L239.5,160.5L239.75,164.75L240.5,173.25L242,181.25L243,185.25L243.75,188.5L245.25,192.5L247,196.25L249,200L251.5,203.25L254,206.25L257,209.25L260.25,212L262.75,214L266.5,216.25L270,218L273.75,219.5L277.75,220.75L281.75,221.5L286,222L290.25,222.25L291.25,222.25L295.75,222L303.75,220.5L307.75,219.25L311.25,217.75L315,215.75L318.25,213.5L321.5,211L324.5,208.25L325.25,207.25L328,204.25L330.5,200.75L332.75,197.5L334.5,194L336,190L337,186.25L337.75,182.25L338.25,178L338.5,173.5L338.5,168L338.25,163.75Z" style="fill:rgb(35,31,32);"/>
        <rect x="0" y="0.5" width="421" height="291.5" style="fill:none;"/>
    </g>
</svg>
