<?xml version="1.0" encoding="UTF-8" standalone="no"?>
<!DOCTYPE svg PUBLIC "-//W3C//DTD SVG 1.1//EN" "http://www.w3.org/Graphics/SVG/1.1/DTD/svg11.dtd">
<svg width="100%" height="100%" viewBox="0 0 596 596" version="1.1" xmlns="http://www.w3.org/2000/svg" xmlns:xlink="http://www.w3.org/1999/xlink" xml:space="preserve" xmlns:serif="http://www.serif.com/" style="fill-rule:evenodd;clip-rule:evenodd;stroke-linecap:round;stroke-linejoin:round;stroke-miterlimit:2;">
    <g>
        <rect x="0.354" y="1.079" width="594.568" height="594.568" style="fill-rule:nonzero;"/>
        <rect x="0.354" y="1.079" width="594.568" height="594.568" style="fill:none;stroke:black;stroke-width:0.71px;"/>
        <rect x="18.191" y="18.916" width="558.893" height="558.894" style="fill:white;fill-rule:nonzero;"/>
        <rect x="18.191" y="18.916" width="558.893" height="558.894" style="fill:none;stroke:black;stroke-width:0.71px;"/>
        <path d="M378.498,498.862C378.498,440.558 368.425,382.692 348.724,327.818L502.629,69.892L482.205,57.706L337.728,299.832C295.585,201.282 223.248,118.653 131.137,63.847L94.654,125.162C226.412,203.558 307.15,345.545 307.15,498.862L307.15,543.622L378.498,543.622L378.498,498.862Z" style="fill-rule:nonzero;"/>
        <path d="M378.498,498.862C378.498,440.558 368.425,382.692 348.724,327.818L502.629,69.892L482.205,57.706L337.728,299.832C295.585,201.282 223.248,118.653 131.137,63.847L94.654,125.162C226.412,203.558 307.15,345.545 307.15,498.862L307.15,543.622L378.498,543.622L378.498,498.862Z" style="fill:none;stroke:black;stroke-width:0.71px;"/>
    </g>
</svg>
