<?xml version="1.0" encoding="UTF-8" standalone="no"?>
<!DOCTYPE svg PUBLIC "-//W3C//DTD SVG 1.1//EN" "http://www.w3.org/Graphics/SVG/1.1/DTD/svg11.dtd">
<svg width="100%" height="100%" viewBox="0 0 285 312" version="1.1" xmlns="http://www.w3.org/2000/svg" xmlns:xlink="http://www.w3.org/1999/xlink" xml:space="preserve" xmlns:serif="http://www.serif.com/" style="fill-rule:evenodd;clip-rule:evenodd;stroke-miterlimit:2;">
    <g>
        <path d="M15.659,4.093L268.595,4.093C275.435,4.093 280.979,9.637 280.979,16.477L280.979,296.34C280.979,303.18 275.435,308.796 268.595,308.796L15.659,308.796C8.82,308.796 3.275,303.252 3.275,296.34L3.275,16.477C3.203,9.637 8.82,4.093 15.659,4.093Z" style="fill:rgb(35,31,32);fill-rule:nonzero;"/>
        <path d="M15.659,4.093L268.595,4.093C275.435,4.093 280.979,9.637 280.979,16.477L280.979,296.34C280.979,303.18 275.435,308.796 268.595,308.796L15.659,308.796C8.82,308.796 3.275,303.252 3.275,296.34L3.275,16.477C3.203,9.637 8.82,4.093 15.659,4.093Z" style="fill:none;stroke:rgb(35,31,32);stroke-width:0.22px;"/>
        <path d="M15.659,10.285L268.595,10.285C272.051,10.285 274.787,13.093 274.787,16.477L274.787,296.34C274.787,299.796 272.051,302.605 268.595,302.605L15.659,302.605C12.203,302.605 9.395,299.796 9.395,296.34L9.395,16.477C9.395,13.093 12.203,10.285 15.659,10.285Z" style="fill:white;fill-rule:nonzero;"/>
        <path d="M15.659,10.285L268.595,10.285C272.051,10.285 274.787,13.093 274.787,16.477L274.787,296.34C274.787,299.796 272.051,302.605 268.595,302.605L15.659,302.605C12.203,302.605 9.395,299.796 9.395,296.34L9.395,16.477C9.395,13.093 12.203,10.285 15.659,10.285Z" style="fill:none;stroke:rgb(35,31,32);stroke-width:0.22px;"/>
        <path d="M46.763,285.972L46.763,69.324L26.027,90.061L26.027,63.132L57.131,32.029L88.163,63.132L88.163,90.061L67.499,69.324L67.499,285.972L46.763,285.972Z" style="fill:rgb(35,31,32);fill-rule:nonzero;"/>
        <path d="M46.763,285.972L46.763,69.324L26.027,90.061L26.027,63.132L57.131,32.029L88.163,63.132L88.163,90.061L67.499,69.324L67.499,285.972L46.763,285.972Z" style="fill:none;stroke:rgb(35,31,32);stroke-width:0.22px;"/>
        <path d="M131.795,285.972L131.795,69.324L111.059,90.061L111.059,63.132L142.163,32.029L173.195,63.132L173.195,90.061L152.459,69.324L152.459,285.972L131.795,285.972Z" style="fill:rgb(35,31,32);fill-rule:nonzero;"/>
        <path d="M131.795,285.972L131.795,69.324L111.059,90.061L111.059,63.132L142.163,32.029L173.195,63.132L173.195,90.061L152.459,69.324L152.459,285.972L131.795,285.972Z" style="fill:none;stroke:rgb(35,31,32);stroke-width:0.22px;"/>
        <rect x="216.755" y="213.972" width="20.736" height="72" style="fill:rgb(35,31,32);"/>
        <rect x="216.755" y="213.972" width="20.736" height="72" style="fill:none;stroke:rgb(35,31,32);stroke-width:0.22px;"/>
        <path d="M216.755,141.397L216.755,69.324L196.019,90.061L196.019,63.132L227.123,32.029L258.226,63.132L258.226,90.061L237.491,69.324L237.491,141.397L216.755,141.397Z" style="fill:rgb(35,31,32);fill-rule:nonzero;"/>
        <path d="M216.755,141.397L216.755,69.324L196.019,90.061L196.019,63.132L227.123,32.029L258.226,63.132L258.226,90.061L237.491,69.324L237.491,141.397L216.755,141.397Z" style="fill:none;stroke:rgb(35,31,32);stroke-width:0.22px;"/>
        <path d="M193.355,141.397C191.987,141.397 190.835,142.477 190.835,143.917L190.835,211.453C190.835,212.82 191.987,213.972 193.355,213.972L260.819,213.972C262.259,213.972 263.411,212.82 263.411,211.453L263.411,143.917C263.411,142.477 262.259,141.397 260.819,141.397L193.355,141.397Z" style="fill:rgb(0,64,128);fill-rule:nonzero;"/>
        <path d="M193.355,141.397C191.987,141.397 190.835,142.477 190.835,143.917L190.835,211.453C190.835,212.82 191.987,213.972 193.355,213.972L260.819,213.972C262.259,213.972 263.411,212.82 263.411,211.453L263.411,143.917C263.411,142.477 262.259,141.397 260.819,141.397L193.355,141.397Z" style="fill:none;stroke:rgb(0,64,128);stroke-width:0.22px;"/>
        <path d="M193.355,142.692C192.635,142.692 192.131,143.196 192.131,143.917L192.131,211.453C192.131,212.101 192.635,212.676 193.355,212.676L260.819,212.676C261.539,212.676 262.187,212.101 262.187,211.453L262.187,143.917C262.187,143.196 261.539,142.692 260.819,142.692L193.355,142.692Z" style="fill:none;stroke:white;stroke-width:1.15px;"/>
        <path d="M245.555,168.18C245.555,165.948 243.755,164.149 241.451,164.149C239.219,164.149 237.347,165.948 237.347,168.18C237.347,170.413 239.219,172.285 241.451,172.285C243.755,172.285 245.555,170.413 245.555,168.18Z" style="fill:white;fill-rule:nonzero;"/>
        <path d="M245.555,168.18C245.555,165.948 243.755,164.149 241.451,164.149C239.219,164.149 237.347,165.948 237.347,168.18C237.347,170.413 239.219,172.285 241.451,172.285C243.755,172.285 245.555,170.413 245.555,168.18Z" style="fill:none;stroke:white;stroke-width:0.22px;"/>
        <path d="M213.803,168.18C213.803,165.948 211.931,164.149 209.771,164.149C207.467,164.149 205.667,165.948 205.667,168.18C205.667,170.413 207.467,172.285 209.771,172.285C211.931,172.285 213.803,170.413 213.803,168.18Z" style="fill:white;fill-rule:nonzero;"/>
        <path d="M213.803,168.18C213.803,165.948 211.931,164.149 209.771,164.149C207.467,164.149 205.667,165.948 205.667,168.18C205.667,170.413 207.467,172.285 209.771,172.285C211.931,172.285 213.803,170.413 213.803,168.18Z" style="fill:none;stroke:white;stroke-width:0.22px;"/>
        <path d="M201.419,150.612C201.275,150.612 201.059,150.756 200.987,150.972L197.891,160.548L197.891,167.461C197.891,167.893 198.251,168.18 198.611,168.18L204.587,168.18C204.587,161.34 214.883,161.34 214.883,168.18L236.339,168.18C236.339,161.34 246.635,161.34 246.635,168.18L257.363,168.18C257.579,168.18 257.795,168.037 257.795,167.749L257.795,151.548C257.795,151.045 257.363,150.612 256.859,150.612L201.419,150.612Z" style="fill:white;fill-rule:nonzero;"/>
        <path d="M201.419,150.612C201.275,150.612 201.059,150.756 200.987,150.972L197.891,160.548L197.891,167.461C197.891,167.893 198.251,168.18 198.611,168.18L204.587,168.18C204.587,161.34 214.883,161.34 214.883,168.18L236.339,168.18C236.339,161.34 246.635,161.34 246.635,168.18L257.363,168.18C257.579,168.18 257.795,168.037 257.795,167.749L257.795,151.548C257.795,151.045 257.363,150.612 256.859,150.612L201.419,150.612Z" style="fill:none;stroke:white;stroke-width:0.22px;"/>
        <path d="M212.579,182.149L212.579,185.964L206.891,185.964L206.891,204.468L203.147,204.468L203.147,185.964L197.531,185.964L197.531,182.149L212.579,182.149Z" style="fill:white;fill-rule:nonzero;"/>
        <path d="M212.579,182.149L212.579,185.964L206.891,185.964L206.891,204.468L203.147,204.468L203.147,185.964L197.531,185.964L197.531,182.149L212.579,182.149Z" style="fill:none;stroke:white;stroke-width:0.22px;"/>
        <path d="M224.459,193.669L224.459,194.532L219.779,194.532C216.971,194.532 214.739,196.764 214.739,199.572C214.739,201.444 215.747,203.101 217.403,203.964C218.627,204.612 219.995,204.972 221.363,204.972C222.443,204.972 223.523,204.756 224.459,204.324L224.459,204.541L227.843,204.541L227.843,193.669C227.843,190.645 225.395,188.125 222.299,188.125L221.292,188.125C219.203,188.125 217.115,188.484 215.099,189.276L216.251,192.229C218.123,191.437 220.139,191.149 222.083,191.293C223.379,191.22 224.459,192.373 224.459,193.669Z" style="fill:white;fill-rule:nonzero;"/>
        <path d="M224.459,193.669L224.459,194.532L219.779,194.532C216.971,194.532 214.739,196.764 214.739,199.572C214.739,201.444 215.747,203.101 217.403,203.964C218.627,204.612 219.995,204.972 221.363,204.972C222.443,204.972 223.523,204.756 224.459,204.324L224.459,204.541L227.843,204.541L227.843,193.669C227.843,190.645 225.395,188.125 222.299,188.125L221.292,188.125C219.203,188.125 217.115,188.484 215.099,189.276L216.251,192.229C218.123,191.437 220.139,191.149 222.083,191.293C223.379,191.22 224.459,192.373 224.459,193.669Z" style="fill:none;stroke:white;stroke-width:0.22px;"/>
        <path d="M219.563,201.517C220.139,201.733 220.715,201.804 221.292,201.804C222.515,201.804 223.595,201.444 224.531,200.796L224.531,197.196L220.283,197.196C219.131,197.196 218.123,198.205 218.123,199.428C218.123,200.364 218.699,201.229 219.563,201.517Z" style="fill:rgb(0,64,128);fill-rule:nonzero;"/>
        <path d="M219.563,201.517C220.139,201.733 220.715,201.804 221.292,201.804C222.515,201.804 223.595,201.444 224.531,200.796L224.531,197.196L220.283,197.196C219.131,197.196 218.123,198.205 218.123,199.428C218.123,200.364 218.699,201.229 219.563,201.517Z" style="fill:none;stroke:white;stroke-width:0.22px;"/>
        <path d="M255.708,183.804C255.708,182.725 254.915,181.933 253.835,181.933C252.827,181.933 252.035,182.725 252.035,183.804C252.035,184.884 252.827,185.676 253.835,185.676C254.915,185.676 255.708,184.884 255.708,183.804Z" style="fill:white;fill-rule:nonzero;"/>
        <path d="M255.708,183.804C255.708,182.725 254.915,181.933 253.835,181.933C252.827,181.933 252.035,182.725 252.035,183.804C252.035,184.884 252.827,185.676 253.835,185.676C254.915,185.676 255.708,184.884 255.708,183.804Z" style="fill:none;stroke:white;stroke-width:0.22px;"/>
        <rect x="252.179" y="188.557" width="3.312" height="15.911" style="fill:white;"/>
        <rect x="252.179" y="188.557" width="3.312" height="15.911" style="fill:none;stroke:white;stroke-width:0.22px;"/>
        <path d="M238.427,196.26L233.171,188.557L237.491,188.557L240.443,193.092L243.251,188.557L247.571,188.557L242.459,196.26L247.571,204.468L243.971,204.468L240.443,199.285L236.843,204.468L233.171,204.468L238.427,196.26Z" style="fill:white;fill-rule:nonzero;"/>
        <path d="M238.427,196.26L233.171,188.557L237.491,188.557L240.443,193.092L243.251,188.557L247.571,188.557L242.459,196.26L247.571,204.468L243.971,204.468L240.443,199.285L236.843,204.468L233.171,204.468L238.427,196.26Z" style="fill:none;stroke:white;stroke-width:0.22px;"/>
        <path d="M228.275,153.853L228.275,158.605C228.275,159.037 228.635,159.324 229.067,159.324L241.091,159.324C241.523,159.324 241.811,159.037 241.811,158.605L241.811,153.853C241.811,153.492 241.523,153.132 241.091,153.132L229.067,153.132C228.635,153.132 228.275,153.492 228.275,153.853Z" style="fill:rgb(0,64,128);fill-rule:nonzero;"/>
        <path d="M228.275,153.853L228.275,158.605C228.275,159.037 228.635,159.324 229.067,159.324L241.091,159.324C241.523,159.324 241.811,159.037 241.811,158.605L241.811,153.853C241.811,153.492 241.523,153.132 241.091,153.132L229.067,153.132C228.635,153.132 228.275,153.492 228.275,153.853Z" style="fill:none;stroke:white;stroke-width:0.22px;"/>
        <path d="M211.355,153.132L202.067,153.132C201.923,153.132 201.708,153.276 201.635,153.421L200.052,158.388C199.979,158.388 199.979,158.532 199.979,158.605C199.979,159.037 200.411,159.324 200.771,159.324L211.355,159.324C211.787,159.324 212.075,159.037 212.075,158.605L212.075,153.853C212.075,153.492 211.787,153.132 211.355,153.132Z" style="fill:rgb(0,64,128);fill-rule:nonzero;"/>
        <path d="M211.355,153.132L202.067,153.132C201.923,153.132 201.708,153.276 201.635,153.421L200.052,158.388C199.979,158.388 199.979,158.532 199.979,158.605C199.979,159.037 200.411,159.324 200.771,159.324L211.355,159.324C211.787,159.324 212.075,159.037 212.075,158.605L212.075,153.853C212.075,153.492 211.787,153.132 211.355,153.132Z" style="fill:none;stroke:white;stroke-width:0.22px;"/>
        <path d="M213.299,153.853L213.299,158.605C213.299,159.037 213.659,159.324 214.091,159.324L226.259,159.324C226.691,159.324 227.051,159.037 227.051,158.605L227.051,153.853C227.051,153.492 226.691,153.132 226.259,153.132L214.091,153.132C213.659,153.132 213.299,153.492 213.299,153.853Z" style="fill:rgb(0,64,128);fill-rule:nonzero;"/>
        <path d="M213.299,153.853L213.299,158.605C213.299,159.037 213.659,159.324 214.091,159.324L226.259,159.324C226.691,159.324 227.051,159.037 227.051,158.605L227.051,153.853C227.051,153.492 226.691,153.132 226.259,153.132L214.091,153.132C213.659,153.132 213.299,153.492 213.299,153.853Z" style="fill:none;stroke:white;stroke-width:0.22px;"/>
        <path d="M243.035,153.853L243.035,158.605C243.035,159.037 243.467,159.324 243.827,159.324L255.851,159.324C256.282,159.324 256.643,159.037 256.643,158.605L256.643,153.853C256.643,153.492 256.282,153.132 255.851,153.132L243.827,153.132C243.467,153.132 243.035,153.492 243.035,153.853Z" style="fill:rgb(0,64,128);fill-rule:nonzero;"/>
        <path d="M243.035,153.853L243.035,158.605C243.035,159.037 243.467,159.324 243.827,159.324L255.851,159.324C256.282,159.324 256.643,159.037 256.643,158.605L256.643,153.853C256.643,153.492 256.282,153.132 255.851,153.132L243.827,153.132C243.467,153.132 243.035,153.492 243.035,153.853Z" style="fill:none;stroke:white;stroke-width:0.22px;"/>
    </g>
</svg>
