<?xml version="1.0" encoding="UTF-8" standalone="no"?>
<!DOCTYPE svg PUBLIC "-//W3C//DTD SVG 1.1//EN" "http://www.w3.org/Graphics/SVG/1.1/DTD/svg11.dtd">
<svg width="100%" height="100%" viewBox="0 0 256 225" version="1.1" xmlns="http://www.w3.org/2000/svg" xmlns:xlink="http://www.w3.org/1999/xlink" xml:space="preserve" xmlns:serif="http://www.serif.com/" style="fill-rule:evenodd;clip-rule:evenodd;stroke-miterlimit:2;">
    <g>
        <path d="M135.911,5.337L254.495,210.682C255.359,212.122 255.718,213.633 255.718,215.217C255.718,220.041 251.758,224.145 246.791,224.145L9.55,224.145C4.727,224.145 0.623,220.186 0.623,215.217C0.623,213.633 1.127,212.049 1.847,210.682L120.431,5.337C123.887,-0.639 132.455,-0.639 135.982,5.337L135.911,5.337Z" style="fill:rgb(211,63,39);fill-rule:nonzero;"/>
        <path d="M135.911,5.337L254.495,210.682C255.359,212.122 255.718,213.633 255.718,215.217C255.718,220.041 251.758,224.145 246.791,224.145L9.55,224.145C4.727,224.145 0.623,220.186 0.623,215.217C0.623,213.633 1.127,212.049 1.847,210.682L120.431,5.337C123.887,-0.639 132.455,-0.639 135.982,5.337L135.911,5.337Z" style="fill:none;stroke:rgb(211,63,39);stroke-width:0.22px;"/>
        <path d="M215.758,197.361L40.583,197.361L128.134,45.513L215.758,197.361Z" style="fill:white;fill-rule:nonzero;"/>
        <path d="M215.758,197.361L40.583,197.361L128.134,45.513L215.758,197.361Z" style="fill:none;stroke:white;stroke-width:0.22px;"/>
        <path d="M105.095,140.122L95.878,140.122L95.878,134.793L91.991,128.098C91.847,127.809 91.486,127.592 91.199,127.592C90.911,127.592 90.623,127.809 90.479,128.098L86.663,134.793L86.663,140.122L81.263,140.122L81.263,149.625L86.663,149.625L86.663,172.81L81.263,172.81L81.263,182.385L86.663,182.385L86.663,191.961L95.878,191.961L95.878,182.385L105.095,182.385L105.095,191.961L114.311,191.961L114.311,182.385L123.599,182.385L123.599,191.961L132.743,191.961L132.743,182.385L142.031,182.385L142.031,191.961L151.247,191.961L151.247,182.385L160.462,182.385L160.462,191.961L169.68,191.961L169.68,182.385L175.079,182.385L175.079,172.81L169.68,172.81L169.68,149.625L175.079,149.625L175.079,140.122L169.68,140.122L169.68,134.793L165.862,128.098C165.719,127.809 165.431,127.592 165.144,127.592C164.855,127.592 164.495,127.809 164.351,128.098L160.462,134.793L160.462,140.122L151.247,140.122L151.247,134.793L147.431,128.098C147.215,127.809 146.926,127.592 146.71,127.592C146.278,127.592 145.991,127.809 145.847,128.098L142.031,134.793L142.031,140.122L132.743,140.122L132.743,134.793L128.999,128.098C128.783,127.809 128.495,127.592 128.134,127.592C127.847,127.592 127.559,127.809 127.342,128.098L123.599,134.793L123.599,140.122L114.311,140.122L114.311,134.793L110.495,128.098C110.351,127.809 110.063,127.592 109.63,127.592C109.415,127.592 109.127,127.809 108.911,128.098L105.095,134.793L105.095,140.122Z" style="fill:rgb(35,31,32);fill-rule:nonzero;"/>
        <path d="M105.095,140.122L95.878,140.122L95.878,134.793L91.991,128.098C91.847,127.809 91.486,127.592 91.199,127.592C90.911,127.592 90.623,127.809 90.479,128.098L86.663,134.793L86.663,140.122L81.263,140.122L81.263,149.625L86.663,149.625L86.663,172.81L81.263,172.81L81.263,182.385L86.663,182.385L86.663,191.961L95.878,191.961L95.878,182.385L105.095,182.385L105.095,191.961L114.311,191.961L114.311,182.385L123.599,182.385L123.599,191.961L132.743,191.961L132.743,182.385L142.031,182.385L142.031,191.961L151.247,191.961L151.247,182.385L160.462,182.385L160.462,191.961L169.68,191.961L169.68,182.385L175.079,182.385L175.079,172.81L169.68,172.81L169.68,149.625L175.079,149.625L175.079,140.122L169.68,140.122L169.68,134.793L165.862,128.098C165.719,127.809 165.431,127.592 165.144,127.592C164.855,127.592 164.495,127.809 164.351,128.098L160.462,134.793L160.462,140.122L151.247,140.122L151.247,134.793L147.431,128.098C147.215,127.809 146.926,127.592 146.71,127.592C146.278,127.592 145.991,127.809 145.847,128.098L142.031,134.793L142.031,140.122L132.743,140.122L132.743,134.793L128.999,128.098C128.783,127.809 128.495,127.592 128.134,127.592C127.847,127.592 127.559,127.809 127.342,128.098L123.599,134.793L123.599,140.122L114.311,140.122L114.311,134.793L110.495,128.098C110.351,127.809 110.063,127.592 109.63,127.592C109.415,127.592 109.127,127.809 108.911,128.098L105.095,134.793L105.095,140.122Z" style="fill:none;stroke:rgb(35,31,32);stroke-width:0.22px;"/>
        <rect x="132.743" y="149.625" width="9.288" height="23.185" style="fill:white;fill-rule:nonzero;"/>
        <rect x="132.743" y="149.625" width="9.288" height="23.185" style="fill:none;stroke:rgb(35,31,32);stroke-width:0.22px;"/>
        <rect x="114.311" y="149.625" width="9.288" height="23.185" style="fill:white;fill-rule:nonzero;"/>
        <rect x="114.311" y="149.625" width="9.288" height="23.185" style="fill:none;stroke:rgb(35,31,32);stroke-width:0.22px;"/>
        <rect x="151.247" y="149.625" width="9.215" height="23.185" style="fill:white;fill-rule:nonzero;"/>
        <rect x="151.247" y="149.625" width="9.215" height="23.185" style="fill:none;stroke:rgb(35,31,32);stroke-width:0.22px;"/>
        <rect x="95.878" y="149.625" width="9.217" height="23.185" style="fill:white;fill-rule:nonzero;"/>
        <rect x="95.878" y="149.625" width="9.217" height="23.185" style="fill:none;stroke:rgb(35,31,32);stroke-width:0.22px;"/>
    </g>
</svg>
