<?xml version="1.0" encoding="UTF-8" standalone="no"?>
<!DOCTYPE svg PUBLIC "-//W3C//DTD SVG 1.1//EN" "http://www.w3.org/Graphics/SVG/1.1/DTD/svg11.dtd">
<svg width="100%" height="100%" viewBox="0 0 596 596" version="1.1" xmlns="http://www.w3.org/2000/svg" xmlns:xlink="http://www.w3.org/1999/xlink" xml:space="preserve" xmlns:serif="http://www.serif.com/" style="fill-rule:evenodd;clip-rule:evenodd;stroke-linecap:round;stroke-linejoin:round;stroke-miterlimit:2;">
    <g>
        <path d="M594.922,565.156C594.922,573.244 591.71,580.997 585.99,586.716C580.273,592.434 572.518,595.647 564.432,595.647L30.844,595.647C22.758,595.647 15.002,592.434 9.284,586.716C3.566,580.997 0.354,573.244 0.354,565.156L0.354,31.57C0.354,23.484 3.566,15.728 9.284,10.01C15.002,4.292 22.758,1.079 30.844,1.079L564.432,1.079C572.518,1.079 580.273,4.292 585.99,10.01C591.71,15.728 594.922,23.484 594.922,31.57L594.922,565.156Z" style="fill:white;fill-rule:nonzero;"/>
        <path d="M594.922,565.156C594.922,573.244 591.71,580.997 585.99,586.716C580.273,592.434 572.518,595.647 564.432,595.647L30.844,595.647C22.758,595.647 15.002,592.434 9.284,586.716C3.566,580.997 0.354,573.244 0.354,565.156L0.354,31.57C0.354,23.484 3.566,15.728 9.284,10.01C15.002,4.292 22.758,1.079 30.844,1.079L564.432,1.079C572.518,1.079 580.273,4.292 585.99,10.01C591.71,15.728 594.922,23.484 594.922,31.57L594.922,565.156Z" style="fill:none;stroke:white;stroke-width:0.71px;"/>
        <path d="M579.676,565.156C579.676,569.199 578.07,573.078 575.211,575.936C572.352,578.795 568.475,580.402 564.432,580.402L30.844,580.402C26.801,580.402 22.923,578.795 20.064,575.936C17.205,573.078 15.599,569.199 15.599,565.156L15.599,31.57C15.599,23.15 22.424,16.325 30.844,16.325L564.432,16.325C568.475,16.325 572.352,17.931 575.211,20.79C578.07,23.649 579.676,27.527 579.676,31.57L579.676,565.156Z" style="fill:rgb(0,64,128);fill-rule:nonzero;"/>
        <path d="M579.676,565.156C579.676,569.199 578.07,573.078 575.211,575.936C572.352,578.795 568.475,580.402 564.432,580.402L30.844,580.402C26.801,580.402 22.923,578.795 20.064,575.936C17.205,573.078 15.599,569.199 15.599,565.156L15.599,31.57C15.599,23.15 22.424,16.325 30.844,16.325L564.432,16.325C568.475,16.325 572.352,17.931 575.211,20.79C578.07,23.649 579.676,27.527 579.676,31.57L579.676,565.156Z" style="fill:none;stroke:rgb(0,104,178);stroke-width:0.71px;"/>
        <rect x="152.807" y="488.929" width="22.868" height="76.227" style="fill:white;"/>
        <rect x="152.807" y="488.929" width="22.868" height="76.227" style="fill:none;stroke:white;stroke-width:0.32px;"/>
        <rect x="152.807" y="336.476" width="22.868" height="76.227" style="fill:white;"/>
        <rect x="152.807" y="336.476" width="22.868" height="76.227" style="fill:none;stroke:white;stroke-width:0.32px;"/>
        <rect x="152.807" y="184.023" width="22.868" height="76.226" style="fill:white;"/>
        <rect x="152.807" y="184.023" width="22.868" height="76.226" style="fill:none;stroke:white;stroke-width:0.32px;"/>
        <rect x="152.807" y="31.57" width="22.868" height="76.226" style="fill:white;"/>
        <rect x="152.807" y="31.57" width="22.868" height="76.226" style="fill:none;stroke:white;stroke-width:0.32px;"/>
        <path d="M322.811,197.651L299.07,275.899C265.296,268.781 231.818,289.189 222.673,322.472C213.528,355.755 231.878,390.404 264.548,401.542C297.219,412.68 332.912,396.455 346.002,364.517C359.092,332.579 345.052,295.97 313.962,280.976L318.554,265.649L382.111,338.392C381.462,345.154 385.504,351.489 391.91,353.748C398.316,356.008 405.439,353.613 409.177,347.94L418.897,347.934C422.275,375.213 442.382,397.453 469.183,403.556C495.982,409.66 523.735,398.321 538.594,375.195C553.451,352.069 552.229,322.114 535.537,300.274C518.846,278.435 490.262,269.393 464.047,277.66L442.629,231.102L447.19,216.141L456.739,216.019C460.679,215.234 463.455,211.69 463.272,207.677C463.09,203.664 460.004,200.386 456.01,199.962L422.922,199.902C418.772,199.919 415.298,203.048 414.846,207.173C414.396,211.298 417.111,215.104 421.158,216.019L430.769,216.141L418.342,256.861L329.866,228.488L334.976,211.518C335.188,209.49 336.889,207.945 338.929,207.93L355.046,207.808C358.97,206.994 361.717,203.444 361.52,199.442C361.321,195.439 358.24,192.176 354.256,191.751L330.254,191.751C326.741,191.853 323.712,194.253 322.811,197.651Z" style="fill:white;fill-rule:nonzero;"/>
        <path d="M322.811,197.651L299.07,275.899C265.296,268.781 231.818,289.189 222.673,322.472C213.528,355.755 231.878,390.404 264.548,401.542C297.219,412.68 332.912,396.455 346.002,364.517C359.092,332.579 345.052,295.97 313.962,280.976L318.554,265.649L382.111,338.392C381.462,345.154 385.504,351.489 391.91,353.748C398.316,356.008 405.439,353.613 409.177,347.94L418.897,347.934C422.275,375.213 442.382,397.453 469.183,403.556C495.982,409.66 523.735,398.321 538.594,375.195C553.451,352.069 552.229,322.114 535.537,300.274C518.846,278.435 490.262,269.393 464.047,277.66L442.629,231.102L447.19,216.141L456.739,216.019C460.679,215.234 463.455,211.69 463.272,207.677C463.09,203.664 460.004,200.386 456.01,199.962L422.922,199.902C418.772,199.919 415.298,203.048 414.846,207.173C414.396,211.298 417.111,215.104 421.158,216.019L430.769,216.141L418.342,256.861L329.866,228.488L334.976,211.518C335.188,209.49 336.889,207.945 338.929,207.93L355.046,207.808C358.97,206.994 361.717,203.444 361.52,199.442C361.321,195.439 358.24,192.176 354.256,191.751L330.254,191.751C326.741,191.853 323.712,194.253 322.811,197.651Z" style="fill:none;stroke:white;stroke-width:0.71px;"/>
        <path d="M302.342,318.667C300.216,325.915 297.605,333.013 294.529,339.912C293.64,341.842 292.495,343.641 291.123,345.264C288.458,347.966 284.237,348.362 281.117,346.202C277.997,344.041 276.881,339.952 278.472,336.505C281.601,330.406 284.225,324.058 286.318,317.53L294.763,290.029C268.794,285.236 243.506,301.221 236.697,326.736C229.887,352.25 243.845,378.711 268.749,387.496C293.652,396.282 321.123,384.438 331.83,360.297C342.537,336.159 332.879,307.843 309.65,295.281L302.342,318.667Z" style="fill:rgb(0,64,128);fill-rule:nonzero;"/>
        <path d="M302.342,318.667C300.216,325.915 297.605,333.013 294.529,339.912C293.64,341.842 292.495,343.641 291.123,345.264C288.458,347.966 284.237,348.362 281.117,346.202C277.997,344.041 276.881,339.952 278.472,336.505C281.601,330.406 284.225,324.058 286.318,317.53L294.763,290.029C268.794,285.236 243.506,301.221 236.697,326.736C229.887,352.25 243.845,378.711 268.749,387.496C293.652,396.282 321.123,384.438 331.83,360.297C342.537,336.159 332.879,307.843 309.65,295.281L302.342,318.667Z" style="fill:none;stroke:rgb(0,64,128);stroke-width:0.71px;"/>
        <path d="M413.537,272.613L397.438,324.95C395.646,324.954 393.863,325.221 392.147,325.741L324.088,247.646L325.122,244.24L413.537,272.613Z" style="fill:rgb(0,64,128);fill-rule:nonzero;"/>
        <path d="M413.537,272.613L397.438,324.95C395.646,324.954 393.863,325.221 392.147,325.741L324.088,247.646L325.122,244.24L413.537,272.613Z" style="fill:none;stroke:rgb(0,64,128);stroke-width:0.71px;"/>
        <path d="M449.706,284.175C432.749,294.51 421.419,312.002 418.921,331.703L411.854,331.701L435.695,253.607L449.706,284.175Z" style="fill:rgb(0,64,128);fill-rule:nonzero;"/>
        <path d="M449.706,284.175C432.749,294.51 421.419,312.002 418.921,331.703L411.854,331.701L435.695,253.607L449.706,284.175Z" style="fill:none;stroke:rgb(0,64,128);stroke-width:0.53px;"/>
        <path d="M455.912,297.633C444.081,305.385 436.04,317.743 433.749,331.701L471.58,331.701L455.912,297.633Z" style="fill:rgb(0,64,128);fill-rule:nonzero;"/>
        <path d="M455.912,297.633C444.081,305.385 436.04,317.743 433.749,331.701L471.58,331.701L455.912,297.633Z" style="fill:none;stroke:rgb(0,64,128);stroke-width:0.53px;"/>
        <path d="M491.104,336.627C492.248,339.126 492.027,342.037 490.521,344.335C489.013,346.633 486.431,347.995 483.683,347.94C467.045,347.613 450.401,347.638 433.765,348.016C437.14,368.651 452.881,385.072 473.354,389.316C493.828,393.559 514.799,384.746 526.098,367.153C537.396,349.559 536.683,326.823 524.306,309.971C511.929,293.119 490.446,285.637 470.279,291.154L491.104,336.627Z" style="fill:rgb(0,64,128);fill-rule:nonzero;"/>
        <path d="M491.104,336.627C492.248,339.126 492.027,342.037 490.521,344.335C489.013,346.633 486.431,347.995 483.683,347.94C467.045,347.613 450.401,347.638 433.765,348.016C437.14,368.651 452.881,385.072 473.354,389.316C493.828,393.559 514.799,384.746 526.098,367.153C537.396,349.559 536.683,326.823 524.306,309.971C511.929,293.119 490.446,285.637 470.279,291.154L491.104,336.627Z" style="fill:none;stroke:rgb(0,64,128);stroke-width:0.71px;"/>
    </g>
</svg>
