<?xml version="1.0" encoding="UTF-8" standalone="no"?>
<!DOCTYPE svg PUBLIC "-//W3C//DTD SVG 1.1//EN" "http://www.w3.org/Graphics/SVG/1.1/DTD/svg11.dtd">
<svg width="100%" height="100%" viewBox="0 0 596 596" version="1.1" xmlns="http://www.w3.org/2000/svg" xmlns:xlink="http://www.w3.org/1999/xlink" xml:space="preserve" xmlns:serif="http://www.serif.com/" style="fill-rule:evenodd;clip-rule:evenodd;stroke-linecap:round;stroke-linejoin:round;stroke-miterlimit:2;">
    <g>
        <rect x="0.354" y="1.079" width="594.568" height="594.568" style="fill-rule:nonzero;"/>
        <rect x="0.354" y="1.079" width="594.568" height="594.568" style="fill:none;stroke:black;stroke-width:0.71px;"/>
        <rect x="9.272" y="9.998" width="576.732" height="576.73" style="fill:white;fill-rule:nonzero;"/>
        <rect x="9.272" y="9.998" width="576.732" height="576.73" style="fill:none;stroke:black;stroke-width:0.71px;"/>
        <path d="M278.365,126.33L355.993,98.184L304.786,155.554L348.679,190.426L244.899,208.731L204.622,256.233L212.5,198.3L144.411,180.865L231.632,141.493L226.005,86.935L278.365,126.33Z" style="fill-rule:nonzero;"/>
        <path d="M278.365,126.33L355.993,98.184L304.786,155.554L348.679,190.426L244.899,208.731L204.622,256.233L212.5,198.3L144.411,180.865L231.632,141.493L226.005,86.935L278.365,126.33Z" style="fill:none;stroke:black;stroke-width:0.71px;"/>
        <path d="M327.961,577.81L339.881,577.81C348.772,450.67 449.945,349.497 577.084,340.605L577.084,328.687C443.373,337.621 336.896,444.098 327.961,577.81Z" style="fill-rule:nonzero;"/>
        <path d="M327.961,577.81L339.881,577.81C348.772,450.67 449.945,349.497 577.084,340.605L577.084,328.687C443.373,337.621 336.896,444.098 327.961,577.81Z" style="fill:none;stroke:black;stroke-width:0.71px;"/>
        <path d="M483.906,234.787L480.41,223.421C503.977,216.171 528.181,211.175 552.692,208.501L553.439,220.382C529.861,222.988 506.58,227.811 483.906,234.787Z" style="fill-rule:nonzero;"/>
        <path d="M483.906,234.787L480.41,223.421C503.977,216.171 528.181,211.175 552.692,208.501L553.439,220.382C529.861,222.988 506.58,227.811 483.906,234.787Z" style="fill:none;stroke:black;stroke-width:0.71px;"/>
        <path d="M396.68,260.438L402.732,270.673C419.757,260.605 437.547,251.89 455.937,244.609L451.559,233.553C432.59,241.063 414.24,250.052 396.68,260.438Z" style="fill-rule:nonzero;"/>
        <path d="M396.68,260.438L402.732,270.673C419.757,260.605 437.547,251.89 455.937,244.609L451.559,233.553C432.59,241.063 414.24,250.052 396.68,260.438Z" style="fill:none;stroke:black;stroke-width:0.71px;"/>
        <path d="M332.18,324.518L323.904,315.978C338.555,301.781 354.299,288.756 370.991,277.025L377.828,286.754C361.646,298.127 346.384,310.754 332.18,324.518Z" style="fill-rule:nonzero;"/>
        <path d="M332.18,324.518L323.904,315.978C338.555,301.781 354.299,288.756 370.991,277.025L377.828,286.754C361.646,298.127 346.384,310.754 332.18,324.518Z" style="fill:none;stroke:black;stroke-width:0.71px;"/>
        <path d="M276.146,393.345L266.105,386.974C277.037,369.748 289.306,353.408 302.797,338.104L311.717,345.968C298.637,360.805 286.743,376.645 276.146,393.345Z" style="fill-rule:nonzero;"/>
        <path d="M276.146,393.345L266.105,386.974C277.037,369.748 289.306,353.408 302.797,338.104L311.717,345.968C298.637,360.805 286.743,376.645 276.146,393.345Z" style="fill:none;stroke:black;stroke-width:0.63px;"/>
        <path d="M237.727,473.351L226.477,469.499C233.085,450.199 241.2,431.445 250.747,413.414L261.256,418.98C252,436.459 244.134,454.639 237.727,473.351Z" style="fill-rule:nonzero;"/>
        <path d="M237.727,473.351L226.477,469.499C233.085,450.199 241.2,431.445 250.747,413.414L261.256,418.98C252,436.459 244.134,454.639 237.727,473.351Z" style="fill:none;stroke:black;stroke-width:0.48px;"/>
        <path d="M207.208,558.997C209.128,538.686 212.641,518.557 217.715,498.796L229.233,501.754C224.314,520.911 220.908,540.425 219.047,560.117L207.208,558.997Z" style="fill-rule:nonzero;"/>
        <path d="M207.208,558.997C209.128,538.686 212.641,518.557 217.715,498.796L229.233,501.754C224.314,520.911 220.908,540.425 219.047,560.117L207.208,558.997Z" style="fill:none;stroke:black;stroke-width:0.31px;"/>
        <path d="M329.546,158.574C404.369,113.144 489.603,87.683 577.084,84.63L577.084,96.529C491.78,99.578 408.681,124.438 335.718,168.739L329.546,158.574Z" style="fill-rule:nonzero;"/>
        <path d="M329.546,158.574C404.369,113.144 489.603,87.683 577.084,84.63L577.084,96.529C491.78,99.578 408.681,124.438 335.718,168.739L329.546,158.574Z" style="fill:none;stroke:black;stroke-width:0.71px;"/>
        <path d="M203.288,266.892L212.396,274.538C140.816,359.808 99.779,466.55 95.803,577.81L83.904,577.81C87.886,463.751 129.91,354.303 203.288,266.892Z" style="fill-rule:nonzero;"/>
        <path d="M203.288,266.892L212.396,274.538C140.816,359.808 99.779,466.55 95.803,577.81L83.904,577.81C87.886,463.751 129.91,354.303 203.288,266.892Z" style="fill:none;stroke:black;stroke-width:0.71px;"/>
        <path d="M230.786,225.375L244.899,208.731L305.478,198.046C304.468,225.342 303.497,252.639 302.564,279.937C302.823,289.985 301.908,300.03 299.838,309.866C299.037,318.954 297.307,327.936 294.676,336.671C294.094,338.605 292.275,339.898 290.258,339.814L235.595,337.539C233.578,337.455 231.874,336.016 231.454,334.04C229.557,325.117 228.58,316.022 228.537,306.898C227.292,296.924 227.214,286.839 228.306,276.847C229.148,259.691 229.975,242.534 230.786,225.375Z" style="fill-rule:nonzero;"/>
        <path d="M230.786,225.375L244.899,208.731L305.478,198.046C304.468,225.342 303.497,252.639 302.564,279.937C302.823,289.985 301.908,300.03 299.838,309.866C299.037,318.954 297.307,327.936 294.676,336.671C294.094,338.605 292.275,339.898 290.258,339.814L235.595,337.539C233.578,337.455 231.874,336.016 231.454,334.04C229.557,325.117 228.58,316.022 228.537,306.898C227.292,296.924 227.214,286.839 228.306,276.847C229.148,259.691 229.975,242.534 230.786,225.375Z" style="fill:none;stroke:black;stroke-width:0.71px;"/>
        <path d="M497.794,199.923C483.899,204.773 469.772,208.928 455.465,212.373C441.96,217.734 427.689,220.915 413.187,221.798C411.594,221.894 410.073,221.126 409.206,219.788C397.911,202.345 391.868,182.022 391.798,161.242C391.792,159.646 392.647,158.171 394.035,157.383C406.67,150.2 420.366,145.071 434.613,142.187C448.435,137.133 462.45,132.626 476.628,128.679C486.048,125.175 495.846,122.782 505.821,121.549C514.677,119.358 523.735,118.08 532.853,117.736C534.871,117.66 536.685,118.96 537.259,120.895L552.84,173.339C553.415,175.275 552.605,177.354 550.873,178.392C543.048,183.081 534.762,186.956 526.146,189.957C517.115,194.371 507.6,197.715 497.794,199.923Z" style="fill-rule:nonzero;"/>
        <path d="M497.794,199.923C483.899,204.773 469.772,208.928 455.465,212.373C441.96,217.734 427.689,220.915 413.187,221.798C411.594,221.894 410.073,221.126 409.206,219.788C397.911,202.345 391.868,182.022 391.798,161.242C391.792,159.646 392.647,158.171 394.035,157.383C406.67,150.2 420.366,145.071 434.613,142.187C448.435,137.133 462.45,132.626 476.628,128.679C486.048,125.175 495.846,122.782 505.821,121.549C514.677,119.358 523.735,118.08 532.853,117.736C534.871,117.66 536.685,118.96 537.259,120.895L552.84,173.339C553.415,175.275 552.605,177.354 550.873,178.392C543.048,183.081 534.762,186.956 526.146,189.957C517.115,194.371 507.6,197.715 497.794,199.923Z" style="fill:none;stroke:black;stroke-width:0.71px;"/>
        <path d="M277.364,133.017L335.865,111.807L296.157,156.292L334.638,186.865L241.752,203.249L213.257,236.855L219.105,193.854L162.307,179.31L237.987,145.148L233.317,99.877L277.364,133.017Z" style="fill:rgb(240,94,36);fill-rule:nonzero;"/>
        <path d="M277.364,133.017L335.865,111.807L296.157,156.292L334.638,186.865L241.752,203.249L213.257,236.855L219.105,193.854L162.307,179.31L237.987,145.148L233.317,99.877L277.364,133.017Z" style="fill:none;stroke:black;stroke-width:0.71px;"/>
        <path d="M242.928,257.282C242.635,257.377 242.316,257.347 242.047,257.198C241.777,257.048 241.583,256.793 241.51,256.494L236.966,237.877C236.729,236.904 237.175,235.893 238.054,235.413C256.04,225.579 278,226.549 295.05,237.931C295.904,238.5 296.253,239.584 295.892,240.545L289.024,258.861C288.917,259.145 288.699,259.373 288.418,259.491C288.138,259.609 287.822,259.607 287.544,259.484C273.452,253.276 257.562,252.492 242.928,257.282Z" style="fill:white;fill-rule:nonzero;"/>
        <path d="M242.928,257.282C242.635,257.377 242.316,257.347 242.047,257.198C241.777,257.048 241.583,256.793 241.51,256.494L236.966,237.877C236.729,236.904 237.175,235.893 238.054,235.413C256.04,225.579 278,226.549 295.05,237.931C295.904,238.5 296.253,239.584 295.892,240.545L289.024,258.861C288.917,259.145 288.699,259.373 288.418,259.491C288.138,259.609 287.822,259.607 287.544,259.484C273.452,253.276 257.562,252.492 242.928,257.282Z" style="fill:none;stroke:black;stroke-width:0.71px;"/>
        <path d="M285.099,324.704C285.923,324.625 286.677,324.207 287.182,323.552C287.686,322.897 287.896,322.061 287.76,321.245L284.412,301.039C284.335,300.576 283.943,300.228 283.472,300.208L244.333,298.58C243.871,298.561 243.457,298.862 243.333,299.307L237.748,319.36C237.521,320.175 237.65,321.048 238.104,321.762C238.559,322.476 239.294,322.964 240.129,323.105C254.985,325.596 270.104,326.135 285.099,324.704Z" style="fill:white;fill-rule:nonzero;"/>
        <path d="M285.099,324.704C285.923,324.625 286.677,324.207 287.182,323.552C287.686,322.897 287.896,322.061 287.76,321.245L284.412,301.039C284.335,300.576 283.943,300.228 283.472,300.208L244.333,298.58C243.871,298.561 243.457,298.862 243.333,299.307L237.748,319.36C237.521,320.175 237.65,321.048 238.104,321.762C238.559,322.476 239.294,322.964 240.129,323.105C254.985,325.596 270.104,326.135 285.099,324.704Z" style="fill:none;stroke:black;stroke-width:0.7px;"/>
        <path d="M461.235,147.643C461.257,147.336 461.148,147.034 460.938,146.809C460.727,146.585 460.432,146.459 460.123,146.461L440.961,146.611C439.96,146.619 439.089,147.299 438.838,148.268C433.704,168.115 440.018,189.17 455.226,202.916C455.987,203.605 457.124,203.678 457.968,203.093L474.045,191.953C474.296,191.779 474.463,191.511 474.508,191.21C474.554,190.91 474.474,190.603 474.288,190.364C464.819,178.219 460.172,163.005 461.235,147.643Z" style="fill:white;fill-rule:nonzero;"/>
        <path d="M461.235,147.643C461.257,147.336 461.148,147.034 460.938,146.809C460.727,146.585 460.432,146.459 460.123,146.461L440.961,146.611C439.96,146.619 439.089,147.299 438.838,148.268C433.704,168.115 440.018,189.17 455.226,202.916C455.987,203.605 457.124,203.678 457.968,203.093L474.045,191.953C474.296,191.779 474.463,191.511 474.508,191.21C474.554,190.91 474.474,190.603 474.288,190.364C464.819,178.219 460.172,163.005 461.235,147.643Z" style="fill:none;stroke:black;stroke-width:0.57px;"/>
        <path d="M536.926,172.035C537.051,172.853 536.831,173.685 536.319,174.335C535.807,174.985 535.048,175.392 534.224,175.461L513.814,177.159C513.344,177.198 512.912,176.903 512.778,176.451L501.621,138.9C501.49,138.457 501.681,137.982 502.082,137.753L520.158,127.431C520.893,127.011 521.771,126.923 522.575,127.189C523.379,127.454 524.031,128.049 524.372,128.824C530.424,142.618 534.645,157.145 536.926,172.035Z" style="fill:white;fill-rule:nonzero;"/>
        <path d="M536.926,172.035C537.051,172.853 536.831,173.685 536.319,174.335C535.807,174.985 535.048,175.392 534.224,175.461L513.814,177.159C513.344,177.198 512.912,176.903 512.778,176.451L501.621,138.9C501.49,138.457 501.681,137.982 502.082,137.753L520.158,127.431C520.893,127.011 521.771,126.923 522.575,127.189C523.379,127.454 524.031,128.049 524.372,128.824C530.424,142.618 534.645,157.145 536.926,172.035Z" style="fill:none;stroke:black;stroke-width:0.49px;"/>
    </g>
</svg>
