<?xml version="1.0" encoding="UTF-8" standalone="no"?>
<!DOCTYPE svg PUBLIC "-//W3C//DTD SVG 1.1//EN" "http://www.w3.org/Graphics/SVG/1.1/DTD/svg11.dtd">
<svg width="100%" height="100%" viewBox="0 0 596 310" version="1.1" xmlns="http://www.w3.org/2000/svg" xmlns:xlink="http://www.w3.org/1999/xlink" xml:space="preserve" xmlns:serif="http://www.serif.com/" style="fill-rule:evenodd;clip-rule:evenodd;stroke-linecap:round;stroke-linejoin:round;stroke-miterlimit:2;">
    <g>
        <rect x="0.354" y="0.471" width="594.568" height="309.175" style="fill-rule:nonzero;"/>
        <rect x="0.354" y="0.471" width="594.568" height="309.175" style="fill:none;stroke:black;stroke-width:0.71px;"/>
        <rect x="12.245" y="12.363" width="570.785" height="285.392" style="fill:white;fill-rule:nonzero;"/>
        <rect x="12.245" y="12.363" width="570.785" height="285.392" style="fill:none;stroke:black;stroke-width:0.71px;"/>
        <path d="M211.928,215.62C211.928,198.975 198.435,185.482 181.791,185.482C165.146,185.482 151.653,198.975 151.653,215.62C151.653,232.264 165.146,245.758 181.791,245.758C198.435,245.758 211.928,232.264 211.928,215.62Z" style="fill-rule:nonzero;"/>
        <path d="M211.928,215.62C211.928,198.975 198.435,185.482 181.791,185.482C165.146,185.482 151.653,198.975 151.653,215.62C151.653,232.264 165.146,245.758 181.791,245.758C198.435,245.758 211.928,232.264 211.928,215.62Z" style="fill:none;stroke:black;stroke-width:0.71px;"/>
        <path d="M430.135,215.62C430.135,198.975 416.642,185.482 399.997,185.482C383.353,185.482 369.859,198.975 369.859,215.62C369.859,232.264 383.353,245.758 399.997,245.758C416.642,245.758 430.135,232.264 430.135,215.62Z" style="fill-rule:nonzero;"/>
        <path d="M430.135,215.62C430.135,198.975 416.642,185.482 399.997,185.482C383.353,185.482 369.859,198.975 369.859,215.62C369.859,232.264 383.353,245.758 399.997,245.758C416.642,245.758 430.135,232.264 430.135,215.62Z" style="fill:none;stroke:black;stroke-width:0.71px;"/>
        <path d="M400.215,68.762L248.161,68.762C241.684,68.762 235.715,72.274 232.569,77.935L204.089,129.187C201.362,134.094 196.19,137.138 190.576,137.138L128.927,137.138C124.828,137.138 120.896,138.766 117.997,141.665C115.098,144.564 113.469,148.496 113.469,152.596L113.469,197.783C113.469,202.513 115.349,207.051 118.694,210.395C122.038,213.74 126.575,215.62 131.306,215.62L144.756,215.62C144.756,202.388 151.815,190.163 163.273,183.547C174.732,176.931 188.849,176.931 200.308,183.547C211.767,190.163 218.825,202.388 218.825,215.62L362.962,215.62C362.962,202.388 370.021,190.163 381.48,183.547C392.938,176.931 407.057,176.931 418.515,183.547C429.974,190.163 437.031,202.388 437.031,215.62L464.264,215.62C468.994,215.62 473.532,213.74 476.877,210.395C480.222,207.051 482.101,202.513 482.101,197.783L482.101,152.596C482.101,148.496 480.472,144.564 477.573,141.665C474.674,138.766 470.742,137.138 466.643,137.138L458.492,137.138C454.339,137.138 450.487,134.971 448.33,131.422L415.457,77.335C412.222,72.012 406.444,68.762 400.215,68.762Z" style="fill-rule:nonzero;"/>
        <path d="M400.215,68.762L248.161,68.762C241.684,68.762 235.715,72.274 232.569,77.935L204.089,129.187C201.362,134.094 196.19,137.138 190.576,137.138L128.927,137.138C124.828,137.138 120.896,138.766 117.997,141.665C115.098,144.564 113.469,148.496 113.469,152.596L113.469,197.783C113.469,202.513 115.349,207.051 118.694,210.395C122.038,213.74 126.575,215.62 131.306,215.62L144.756,215.62C144.756,202.388 151.815,190.163 163.273,183.547C174.732,176.931 188.849,176.931 200.308,183.547C211.767,190.163 218.825,202.388 218.825,215.62L362.962,215.62C362.962,202.388 370.021,190.163 381.48,183.547C392.938,176.931 407.057,176.931 418.515,183.547C429.974,190.163 437.031,202.388 437.031,215.62L464.264,215.62C468.994,215.62 473.532,213.74 476.877,210.395C480.222,207.051 482.101,202.513 482.101,197.783L482.101,152.596C482.101,148.496 480.472,144.564 477.573,141.665C474.674,138.766 470.742,137.138 466.643,137.138L458.492,137.138C454.339,137.138 450.487,134.971 448.33,131.422L415.457,77.335C412.222,72.012 406.444,68.762 400.215,68.762Z" style="fill:none;stroke:black;stroke-width:0.71px;"/>
        <path d="M321.215,88.383L321.215,137.138L405.883,137.138L379.03,92.955C377.305,90.116 374.224,88.383 370.901,88.383L321.215,88.383Z" style="fill:white;fill-rule:nonzero;"/>
        <path d="M321.215,88.383L321.215,137.138L405.883,137.138L379.03,92.955C377.305,90.116 374.224,88.383 370.901,88.383L321.215,88.383Z" style="fill:none;stroke:black;stroke-width:0.71px;"/>
        <path d="M243.77,92.052L220.189,134.487C219.882,135.04 219.891,135.713 220.211,136.258C220.532,136.803 221.117,137.138 221.749,137.138L306.351,137.138L306.351,88.383L250.006,88.383C247.416,88.383 245.028,89.787 243.77,92.052Z" style="fill:white;fill-rule:nonzero;"/>
        <path d="M243.77,92.052L220.189,134.487C219.882,135.04 219.891,135.713 220.211,136.258C220.532,136.803 221.117,137.138 221.749,137.138L306.351,137.138L306.351,88.383L250.006,88.383C247.416,88.383 245.028,89.787 243.77,92.052Z" style="fill:none;stroke:black;stroke-width:0.71px;"/>
    </g>
</svg>
