<?xml version="1.0" encoding="UTF-8" standalone="no"?>
<!DOCTYPE svg PUBLIC "-//W3C//DTD SVG 1.1//EN" "http://www.w3.org/Graphics/SVG/1.1/DTD/svg11.dtd">
<svg width="100%" height="100%" viewBox="0 0 596 596" version="1.1" xmlns="http://www.w3.org/2000/svg" xmlns:xlink="http://www.w3.org/1999/xlink" xml:space="preserve" xmlns:serif="http://www.serif.com/" style="fill-rule:evenodd;clip-rule:evenodd;stroke-linecap:round;stroke-linejoin:round;stroke-miterlimit:2;">
    <g>
        <rect x="0.354" y="1.079" width="594.568" height="594.568" style="fill-rule:nonzero;"/>
        <rect x="0.354" y="1.079" width="594.568" height="594.568" style="fill:none;stroke:black;stroke-width:0.71px;"/>
        <rect x="18.191" y="18.916" width="558.893" height="558.894" style="fill:white;fill-rule:nonzero;"/>
        <rect x="18.191" y="18.916" width="558.893" height="558.894" style="fill:none;stroke:black;stroke-width:0.71px;"/>
        <path d="M285.747,286.471L285.747,67.968L309.529,67.968L309.529,282.122C327.888,269.466 349.66,262.688 371.958,262.688L542.897,262.688L542.897,334.037L371.958,334.037C350.615,334.037 333.313,351.339 333.313,372.684L333.313,543.622L261.963,543.622L261.963,372.684C261.963,350.385 268.741,328.614 281.397,310.254L67.243,310.254L67.243,286.471L285.747,286.471Z" style="fill-rule:nonzero;"/>
        <path d="M285.747,286.471L285.747,67.968L309.529,67.968L309.529,282.122C327.888,269.466 349.66,262.688 371.958,262.688L542.897,262.688L542.897,334.037L371.958,334.037C350.615,334.037 333.313,351.339 333.313,372.684L333.313,543.622L261.963,543.622L261.963,372.684C261.963,350.385 268.741,328.614 281.397,310.254L67.243,310.254L67.243,286.471L285.747,286.471Z" style="fill:none;stroke:black;stroke-width:0.71px;"/>
    </g>
</svg>
