<?xml version="1.0" encoding="UTF-8" standalone="no"?>
<!DOCTYPE svg PUBLIC "-//W3C//DTD SVG 1.1//EN" "http://www.w3.org/Graphics/SVG/1.1/DTD/svg11.dtd">
<svg width="100%" height="100%" viewBox="0 0 596 596" version="1.1" xmlns="http://www.w3.org/2000/svg" xmlns:xlink="http://www.w3.org/1999/xlink" xml:space="preserve" xmlns:serif="http://www.serif.com/" style="fill-rule:evenodd;clip-rule:evenodd;stroke-linecap:round;stroke-linejoin:round;stroke-miterlimit:2;">
    <g>
        <path d="M555.274,0.93L40.001,0.93C18.105,0.93 0.354,18.681 0.354,40.578L0.354,555.999C0.354,577.895 18.105,595.646 40.001,595.646L555.274,595.646C577.171,595.646 594.922,577.895 594.922,555.999L594.922,40.578C594.922,18.681 577.171,0.93 555.274,0.93Z" style="fill:white;fill-rule:nonzero;"/>
        <path d="M555.274,0.93L40.001,0.93C18.105,0.93 0.354,18.681 0.354,40.578L0.354,555.999C0.354,577.895 18.105,595.646 40.001,595.646L555.274,595.646C577.171,595.646 594.922,577.895 594.922,555.999L594.922,40.578C594.922,18.681 577.171,0.93 555.274,0.93Z" style="fill:none;stroke:rgb(0,154,111);stroke-width:0.71px;"/>
        <path d="M555.274,20.755L40.001,20.755C34.744,20.755 29.702,22.843 25.984,26.561C22.266,30.278 20.178,35.321 20.178,40.578L20.178,555.999C20.178,566.947 29.053,575.823 40.001,575.823L555.274,575.823C566.223,575.823 575.098,566.947 575.098,555.999L575.098,40.578C575.098,35.321 573.009,30.278 569.292,26.561C565.573,22.843 560.532,20.755 555.274,20.755Z" style="fill:rgb(0,154,111);fill-rule:nonzero;"/>
        <path d="M555.274,20.755L40.001,20.755C34.744,20.755 29.702,22.843 25.984,26.561C22.266,30.278 20.178,35.321 20.178,40.578L20.178,555.999C20.178,566.947 29.053,575.823 40.001,575.823L555.274,575.823C566.223,575.823 575.098,566.947 575.098,555.999L575.098,40.578C575.098,35.321 573.009,30.278 569.292,26.561C565.573,22.843 560.532,20.755 555.274,20.755Z" style="fill:none;stroke:rgb(0,154,111);stroke-width:0.71px;"/>
        <path d="M320.26,265.281L350.633,265.253C359.042,266.679 365.57,273.369 366.791,281.81C368.011,290.252 363.645,298.516 355.982,302.264L354.063,302.614L350.246,302.781L312.729,302.781C305.889,302.218 299.585,298.858 295.302,293.496L260.515,258.924L232.755,304.48L231.036,311.244L276.983,401.375L300.758,499.965C303.41,508.598 300.3,517.964 293.009,523.295L286.978,525.217C281.762,526.088 276.415,524.848 272.114,521.771C267.813,518.694 264.914,514.034 264.053,508.816L239.832,419.094L199.349,353.891L196.997,360.473L184.293,416.42C182.876,425.561 175.94,432.867 166.884,434.756L74.088,437.037C66.74,439.019 58.927,436.31 54.382,430.205C49.837,424.1 49.484,415.839 53.492,409.367C57.335,404.601 62.493,401.069 68.326,399.208L142.444,397.81L151.358,317.174C151.423,308.953 153.525,300.877 157.474,293.667L185.71,235.462L143.112,235.462L117.554,280.729C112.062,288.444 101.76,290.993 93.303,286.73C84.848,282.466 80.772,272.667 83.709,263.664L116.07,205.493C120.521,198.234 128.884,194.343 137.303,195.612L250.634,195.62C257.855,194.97 264.783,198.638 268.305,204.976L320.26,265.281Z" style="fill:white;fill-rule:nonzero;"/>
        <path d="M320.26,265.281L350.633,265.253C359.042,266.679 365.57,273.369 366.791,281.81C368.011,290.252 363.645,298.516 355.982,302.264L354.063,302.614L350.246,302.781L312.729,302.781C305.889,302.218 299.585,298.858 295.302,293.496L260.515,258.924L232.755,304.48L231.036,311.244L276.983,401.375L300.758,499.965C303.41,508.598 300.3,517.964 293.009,523.295L286.978,525.217C281.762,526.088 276.415,524.848 272.114,521.771C267.813,518.694 264.914,514.034 264.053,508.816L239.832,419.094L199.349,353.891L196.997,360.473L184.293,416.42C182.876,425.561 175.94,432.867 166.884,434.756L74.088,437.037C66.74,439.019 58.927,436.31 54.382,430.205C49.837,424.1 49.484,415.839 53.492,409.367C57.335,404.601 62.493,401.069 68.326,399.208L142.444,397.81L151.358,317.174C151.423,308.953 153.525,300.877 157.474,293.667L185.71,235.462L143.112,235.462L117.554,280.729C112.062,288.444 101.76,290.993 93.303,286.73C84.848,282.466 80.772,272.667 83.709,263.664L116.07,205.493C120.521,198.234 128.884,194.343 137.303,195.612L250.634,195.62C257.855,194.97 264.783,198.638 268.305,204.976L320.26,265.281Z" style="fill:none;stroke:white;stroke-width:0.71px;"/>
        <path d="M294.69,153.677C294.69,134.542 279.179,119.031 260.044,119.031C240.91,119.031 225.398,134.542 225.398,153.677C225.398,172.811 240.91,188.323 260.044,188.323C279.179,188.323 294.69,172.811 294.69,153.677Z" style="fill:white;fill-rule:nonzero;"/>
        <path d="M294.69,153.677C294.69,134.542 279.179,119.031 260.044,119.031C240.91,119.031 225.398,134.542 225.398,153.677C225.398,172.811 240.91,188.323 260.044,188.323C279.179,188.323 294.69,172.811 294.69,153.677Z" style="fill:none;stroke:white;stroke-width:0.71px;"/>
        <rect x="407.334" y="99.635" width="128.136" height="426.011" style="fill:white;"/>
        <rect x="407.334" y="99.635" width="128.136" height="426.011" style="fill:none;stroke:white;stroke-width:0.71px;"/>
    </g>
</svg>
