<?xml version="1.0" encoding="UTF-8" standalone="no"?>
<!DOCTYPE svg PUBLIC "-//W3C//DTD SVG 1.1//EN" "http://www.w3.org/Graphics/SVG/1.1/DTD/svg11.dtd">
<svg width="100%" height="100%" viewBox="0 0 171 109" version="1.1" xmlns="http://www.w3.org/2000/svg" xmlns:xlink="http://www.w3.org/1999/xlink" xml:space="preserve" xmlns:serif="http://www.serif.com/" style="fill-rule:evenodd;clip-rule:evenodd;stroke-miterlimit:2;">
    <g>
        <path d="M165.059,0.821C168.227,0.821 170.747,3.341 170.747,6.509L170.747,103.204C170.747,106.372 168.227,108.892 165.059,108.892L5.795,108.892C2.627,108.892 0.107,106.372 0.107,103.204L0.107,6.509C0.107,3.341 2.627,0.821 5.795,0.821L165.059,0.821Z" style="fill:white;fill-rule:nonzero;"/>
        <path d="M165.059,0.821C168.227,0.821 170.747,3.341 170.747,6.509L170.747,103.204C170.747,106.372 168.227,108.892 165.059,108.892L5.795,108.892C2.627,108.892 0.107,106.372 0.107,103.204L0.107,6.509C0.107,3.341 2.627,0.821 5.795,0.821L165.059,0.821Z" style="fill:none;stroke:rgb(0,64,128);stroke-width:0.22px;"/>
        <path d="M165.059,3.629C166.643,3.629 167.939,4.925 167.939,6.509L167.939,103.204C167.939,104.788 166.643,106.084 165.059,106.084L5.795,106.084C4.211,106.084 2.915,104.788 2.915,103.204L2.915,6.509C2.915,4.925 4.211,3.629 5.795,3.629L165.059,3.629Z" style="fill:rgb(0,64,128);fill-rule:nonzero;"/>
        <path d="M165.059,3.629C166.643,3.629 167.939,4.925 167.939,6.509L167.939,103.204C167.939,104.788 166.643,106.084 165.059,106.084L5.795,106.084C4.211,106.084 2.915,104.788 2.915,103.204L2.915,6.509C2.915,4.925 4.211,3.629 5.795,3.629L165.059,3.629Z" style="fill:none;stroke:white;stroke-width:0.22px;"/>
        <path d="M21.419,53.236L66.275,21.845C67.139,21.197 68.363,21.845 68.363,22.925L68.363,23.141L64.691,43.732L151.379,43.732L151.379,65.981L64.691,65.981L68.363,86.573L68.363,86.789C68.363,87.509 67.787,88.085 67.067,88.085C66.779,88.085 66.491,88.085 66.275,87.869L21.419,56.477C20.267,55.685 20.267,54.029 21.419,53.236Z" style="fill:white;fill-rule:nonzero;"/>
        <path d="M21.419,53.236L66.275,21.845C67.139,21.197 68.363,21.845 68.363,22.925L68.363,23.141L64.691,43.732L151.379,43.732L151.379,65.981L64.691,65.981L68.363,86.573L68.363,86.789C68.363,87.509 67.787,88.085 67.067,88.085C66.779,88.085 66.491,88.085 66.275,87.869L21.419,56.477C20.267,55.685 20.267,54.029 21.419,53.236Z" style="fill:none;stroke:white;stroke-width:0.22px;"/>
    </g>
</svg>
