<?xml version="1.0" encoding="UTF-8" standalone="no"?>
<!DOCTYPE svg PUBLIC "-//W3C//DTD SVG 1.1//EN" "http://www.w3.org/Graphics/SVG/1.1/DTD/svg11.dtd">
<svg width="100%" height="100%" viewBox="0 0 114 75" version="1.1" xmlns="http://www.w3.org/2000/svg" xmlns:xlink="http://www.w3.org/1999/xlink" xml:space="preserve" xmlns:serif="http://www.serif.com/" style="fill-rule:evenodd;clip-rule:evenodd;stroke-miterlimit:2;">
    <g>
        <path d="M113.651,6.781C113.651,3.613 111.131,1.093 107.963,1.093L5.795,1.093C2.627,1.093 0.107,3.613 0.107,6.781L0.107,69.205C0.107,72.373 2.627,74.893 5.795,74.893L107.963,74.893C111.131,74.893 113.651,72.373 113.651,69.205L113.651,6.781Z" style="fill:white;fill-rule:nonzero;"/>
        <path d="M113.651,6.781C113.651,3.613 111.131,1.093 107.963,1.093L5.795,1.093C2.627,1.093 0.107,3.613 0.107,6.781L0.107,69.205C0.107,72.373 2.627,74.893 5.795,74.893L107.963,74.893C111.131,74.893 113.651,72.373 113.651,69.205L113.651,6.781Z" style="fill:none;stroke:rgb(0,64,128);stroke-width:0.22px;"/>
        <path d="M110.771,6.781C110.771,5.197 109.475,3.973 107.963,3.973L5.795,3.973C4.211,3.973 2.987,5.197 2.987,6.781L2.987,69.205C2.987,70.789 4.211,72.013 5.795,72.013L107.963,72.013C109.475,72.013 110.771,70.789 110.771,69.205L110.771,6.781Z" style="fill:rgb(0,64,128);fill-rule:nonzero;"/>
        <path d="M110.771,6.781C110.771,5.197 109.475,3.973 107.963,3.973L5.795,3.973C4.211,3.973 2.987,5.197 2.987,6.781L2.987,69.205C2.987,70.789 4.211,72.013 5.795,72.013L107.963,72.013C109.475,72.013 110.771,70.789 110.771,69.205L110.771,6.781Z" style="fill:none;stroke:rgb(0,64,128);stroke-width:0.22px;"/>
        <path d="M14.723,20.677C14.435,20.677 14.075,20.893 13.931,21.253L9.035,36.373L9.035,47.461C9.035,48.109 9.611,48.613 10.259,48.613L19.619,48.613C19.691,37.741 36.035,37.741 36.035,48.613L70.235,48.613C70.235,37.741 86.579,37.741 86.579,48.613L103.643,48.613C104.076,48.613 104.363,48.325 104.363,47.893L104.363,22.189C104.363,21.397 103.715,20.677 102.923,20.677L14.723,20.677Z" style="fill:white;fill-rule:nonzero;"/>
        <path d="M14.723,20.677C14.435,20.677 14.075,20.893 13.931,21.253L9.035,36.373L9.035,47.461C9.035,48.109 9.611,48.613 10.259,48.613L19.619,48.613C19.691,37.741 36.035,37.741 36.035,48.613L70.235,48.613C70.235,37.741 86.579,37.741 86.579,48.613L103.643,48.613C104.076,48.613 104.363,48.325 104.363,47.893L104.363,22.189C104.363,21.397 103.715,20.677 102.923,20.677L14.723,20.677Z" style="fill:none;stroke:white;stroke-width:0.22px;"/>
        <path d="M57.419,25.789L57.419,33.349C57.419,33.997 57.923,34.573 58.643,34.573L77.795,34.573C78.515,34.573 79.019,33.997 79.019,33.349L79.019,25.789C79.019,25.141 78.515,24.637 77.795,24.565L58.643,24.565C57.923,24.565 57.419,25.141 57.419,25.789Z" style="fill:rgb(0,64,128);fill-rule:nonzero;"/>
        <path d="M57.419,25.789L57.419,33.349C57.419,33.997 57.923,34.573 58.643,34.573L77.795,34.573C78.515,34.573 79.019,33.997 79.019,33.349L79.019,25.789C79.019,25.141 78.515,24.637 77.795,24.565L58.643,24.565C57.923,24.565 57.419,25.141 57.419,25.789Z" style="fill:none;stroke:white;stroke-width:0.22px;"/>
        <path d="M84.923,48.613C84.923,45.085 81.971,42.133 78.443,42.133C74.843,42.133 71.963,45.085 71.963,48.613C71.963,52.213 74.843,55.165 78.443,55.165C81.971,55.165 84.923,52.213 84.923,48.613Z" style="fill:white;fill-rule:nonzero;"/>
        <path d="M84.923,48.613C84.923,45.085 81.971,42.133 78.443,42.133C74.843,42.133 71.963,45.085 71.963,48.613C71.963,52.213 74.843,55.165 78.443,55.165C81.971,55.165 84.923,52.213 84.923,48.613Z" style="fill:none;stroke:white;stroke-width:0.22px;"/>
        <path d="M30.419,24.565L15.731,24.565C15.443,24.565 15.155,24.781 15.083,25.141L12.491,32.989C12.42,33.061 12.42,33.205 12.42,33.349C12.42,33.997 12.923,34.573 13.643,34.573L30.419,34.573C31.067,34.573 31.643,33.997 31.643,33.349L31.643,25.789C31.643,25.141 31.067,24.637 30.419,24.565Z" style="fill:rgb(0,64,128);fill-rule:nonzero;"/>
        <path d="M30.419,24.565L15.731,24.565C15.443,24.565 15.155,24.781 15.083,25.141L12.491,32.989C12.42,33.061 12.42,33.205 12.42,33.349C12.42,33.997 12.923,34.573 13.643,34.573L30.419,34.573C31.067,34.573 31.643,33.997 31.643,33.349L31.643,25.789C31.643,25.141 31.067,24.637 30.419,24.565Z" style="fill:none;stroke:white;stroke-width:0.22px;"/>
        <path d="M34.379,48.613C34.379,45.085 31.499,42.133 27.899,42.133C24.299,42.133 21.419,45.085 21.419,48.613C21.419,52.213 24.299,55.165 27.899,55.165C31.499,55.165 34.379,52.213 34.379,48.613Z" style="fill:white;fill-rule:nonzero;"/>
        <path d="M34.379,48.613C34.379,45.085 31.499,42.133 27.899,42.133C24.299,42.133 21.419,45.085 21.419,48.613C21.419,52.213 24.299,55.165 27.899,55.165C31.499,55.165 34.379,52.213 34.379,48.613Z" style="fill:none;stroke:white;stroke-width:0.22px;"/>
        <path d="M33.587,25.789L33.587,33.349C33.587,33.997 34.163,34.573 34.811,34.573L54.251,34.573C54.899,34.573 55.475,33.997 55.475,33.349L55.475,25.789C55.475,25.141 54.899,24.565 54.251,24.565L34.811,24.565C34.163,24.565 33.587,25.141 33.587,25.789Z" style="fill:rgb(0,64,128);fill-rule:nonzero;"/>
        <path d="M33.587,25.789L33.587,33.349C33.587,33.997 34.163,34.573 34.811,34.573L54.251,34.573C54.899,34.573 55.475,33.997 55.475,33.349L55.475,25.789C55.475,25.141 54.899,24.565 54.251,24.565L34.811,24.565C34.163,24.565 33.587,25.141 33.587,25.789Z" style="fill:none;stroke:white;stroke-width:0.22px;"/>
        <path d="M80.963,25.789L80.963,33.349C80.963,33.997 81.539,34.573 82.187,34.573L101.411,34.573C102.059,34.573 102.635,33.997 102.635,33.349L102.635,25.789C102.635,25.141 102.059,24.637 101.411,24.565L82.187,24.565C81.539,24.565 80.963,25.141 80.963,25.789Z" style="fill:rgb(0,64,128);fill-rule:nonzero;"/>
        <path d="M80.963,25.789L80.963,33.349C80.963,33.997 81.539,34.573 82.187,34.573L101.411,34.573C102.059,34.573 102.635,33.997 102.635,33.349L102.635,25.789C102.635,25.141 102.059,24.637 101.411,24.565L82.187,24.565C81.539,24.565 80.963,25.141 80.963,25.789Z" style="fill:none;stroke:white;stroke-width:0.22px;"/>
    </g>
</svg>
