<?xml version="1.0" encoding="UTF-8" standalone="no"?>
<!DOCTYPE svg PUBLIC "-//W3C//DTD SVG 1.1//EN" "http://www.w3.org/Graphics/SVG/1.1/DTD/svg11.dtd">
<svg width="100%" height="100%" viewBox="0 0 256 224" version="1.1" xmlns="http://www.w3.org/2000/svg" xmlns:xlink="http://www.w3.org/1999/xlink" xml:space="preserve" xmlns:serif="http://www.serif.com/" style="fill-rule:evenodd;clip-rule:evenodd;stroke-miterlimit:2;">
    <g>
        <path d="M135.396,5.013L253.979,210.5C254.771,211.869 255.203,213.38 255.203,214.964C255.203,219.86 251.172,223.892 246.275,223.892L9.035,223.892C4.139,223.892 0.107,219.86 0.107,214.964C0.107,213.38 0.539,211.869 1.331,210.429L119.916,5.013C123.443,-0.963 132.011,-0.963 135.467,5.085L135.396,5.013Z" style="fill:rgb(211,63,39);fill-rule:nonzero;"/>
        <path d="M135.396,5.013L253.979,210.5C254.771,211.869 255.203,213.38 255.203,214.964C255.203,219.86 251.172,223.892 246.275,223.892L9.035,223.892C4.139,223.892 0.107,219.86 0.107,214.964C0.107,213.38 0.539,211.869 1.331,210.429L119.916,5.013C123.443,-0.963 132.011,-0.963 135.467,5.085L135.396,5.013Z" style="fill:none;stroke:rgb(211,63,39);stroke-width:0.22px;"/>
        <path d="M39.996,197.036L127.691,45.261L215.315,197.036L39.996,197.036Z" style="fill:white;fill-rule:nonzero;"/>
        <path d="M39.996,197.036L127.691,45.261L215.315,197.036L39.996,197.036Z" style="fill:none;stroke:white;stroke-width:0.22px;"/>
        <path d="M103.067,140.588C102.779,140.805 102.419,141.02 102.204,141.236C101.627,141.597 101.051,141.956 100.476,142.245C100.043,142.533 99.539,142.82 98.963,143.036C98.675,143.252 98.459,143.396 98.171,143.469C97.595,143.684 97.091,143.973 96.587,144.332C96.371,144.405 96.299,144.476 96.011,144.476C95.651,144.692 95.219,144.909 94.787,145.124C94.355,145.268 93.779,145.557 93.275,145.701C92.987,145.845 92.843,145.989 92.627,146.06C92.483,146.204 92.267,146.204 92.123,146.276C91.907,146.349 91.763,146.42 91.619,146.42C91.475,146.564 91.403,146.564 91.187,146.564C91.187,146.204 91.187,145.916 91.115,145.628C90.971,145.124 90.755,144.476 90.611,143.828C90.467,143.684 90.395,143.469 90.323,143.469C90.251,143.469 90.107,143.396 90.035,143.396C89.891,143.396 89.747,143.469 89.603,143.469C89.387,143.469 89.243,143.613 89.099,143.613C88.811,143.684 88.523,143.756 88.235,143.973C88.019,144.117 87.731,144.332 87.515,144.549C87.227,145.124 86.939,145.628 86.651,146.276C86.579,146.204 86.363,145.989 86.291,145.845L86.219,145.701C86.003,145.557 85.859,145.484 85.643,145.484L85.427,145.484L85.067,145.557C84.419,145.124 83.915,144.549 83.267,144.044C82.835,143.613 82.475,143.036 82.187,142.533C82.115,142.1 82.115,141.524 82.259,141.02C82.619,140.013 83.195,139.148 83.915,138.356C84.059,138.5 84.275,138.717 84.491,138.788L84.707,138.788C84.995,138.788 85.139,138.717 85.427,138.573C85.571,138.5 85.787,138.356 85.931,138.068C85.931,137.852 86.003,137.708 86.003,137.493C86.003,137.276 85.931,136.989 85.859,136.772C85.571,136.197 85.211,135.62 84.707,135.261C84.419,135.117 84.059,134.9 83.699,134.9C83.411,134.9 83.195,135.117 82.907,135.405C82.835,135.476 82.763,135.62 82.763,135.765C82.619,135.909 82.619,135.98 82.619,136.197C82.619,136.484 82.763,136.701 82.907,136.989C82.547,137.133 82.187,137.349 81.827,137.493C81.323,137.781 80.891,138.068 80.387,138.429C80.027,138.788 79.667,139.148 79.523,139.509C78.803,140.444 78.443,141.524 78.443,142.677L78.443,142.964C78.443,144.044 78.803,145.053 79.451,145.916C80.171,146.996 81.107,147.932 82.187,148.652L81.107,151.028C79.235,151.245 77.939,152.756 77.939,154.628C77.939,154.845 78.011,154.989 78.011,155.204C75.851,157.652 74.051,160.389 72.683,163.341L71.747,164.204C71.459,164.564 71.243,165.068 71.099,165.573L71.099,166.077C71.099,166.724 71.243,167.301 71.459,167.876C72.323,168.453 73.115,168.956 73.979,169.389L74.339,169.389C74.699,169.389 75.131,169.316 75.491,169.172C75.563,169.46 75.707,169.748 75.851,169.964C75.923,170.181 76.211,170.252 76.427,170.252L76.499,170.252C76.931,170.181 77.291,170.108 77.723,169.964L77.939,169.964C78.371,169.964 78.731,169.964 79.091,169.892C79.307,169.748 79.523,169.533 79.595,169.316C79.811,168.956 79.955,168.597 80.027,168.236C80.171,168.02 80.243,167.876 80.387,167.805C80.603,167.805 80.675,167.805 80.891,167.876L81.539,167.876C81.827,167.949 82.115,168.02 82.259,168.02C82.547,168.093 82.907,168.093 83.195,168.093L83.267,168.093C83.339,168.093 83.411,168.093 83.627,168.02C83.771,167.949 83.987,167.949 84.131,167.805C84.995,167.516 85.787,167.157 86.579,166.796C87.083,166.58 87.515,166.436 88.019,166.148C88.091,166.077 88.235,166.077 88.379,165.86C88.811,165.717 89.171,165.429 89.603,165.212C89.963,164.852 90.323,164.564 90.683,164.133C90.827,163.989 90.971,163.845 91.115,163.772L91.835,163.772C91.979,163.845 92.267,163.916 92.555,163.916C93.275,164.133 93.995,164.133 94.787,164.133L94.931,164.133C95.939,164.204 96.803,164.276 97.595,164.276C97.307,164.276 97.523,164.276 97.883,164.349C98.099,164.349 98.315,164.493 98.603,164.564C98.675,164.564 98.891,164.637 98.963,164.708C99.251,164.925 99.395,164.996 99.611,165.212C99.755,165.356 99.971,165.573 100.115,165.788C100.403,166.004 100.547,166.148 100.763,166.365C101.124,166.58 101.483,166.796 101.843,166.869C101.987,166.94 102.204,166.94 102.275,167.084C102.347,167.084 102.419,167.157 102.419,167.157C102.708,167.301 102.779,167.444 103.067,167.588C103.283,167.949 103.5,168.38 103.788,168.741C103.931,169.028 104.219,169.316 104.58,169.46C105.011,169.677 105.516,169.748 105.947,169.892C106.308,170.108 106.523,170.252 106.812,170.54C107.171,170.9 107.531,171.188 107.892,171.549C108.179,171.692 108.396,171.765 108.684,171.765L108.755,171.765C109.476,171.765 110.051,171.62 110.627,171.405C110.771,171.765 110.843,172.197 110.916,172.557C110.843,173.06 110.771,173.564 110.771,173.996C110.627,174.356 110.627,174.573 110.627,174.788C110.627,175.077 110.627,175.292 110.771,175.436C110.771,175.796 110.843,176.084 110.843,176.444C110.916,176.661 111.131,177.164 111.275,177.38C111.563,177.741 111.708,178.245 111.852,178.677L111.852,179.036C111.852,179.469 111.852,179.828 111.708,180.261C111.708,180.549 111.708,180.765 111.635,181.053C111.563,181.701 111.347,182.204 110.987,182.637C110.916,182.996 110.771,183.5 110.627,183.86C110.483,184.436 110.051,184.869 109.476,185.157C109.259,185.372 108.971,185.516 108.684,185.732C108.396,185.805 108.251,186.164 108.251,186.453C107.459,187.245 106.667,188.036 105.875,188.828C105.731,188.9 105.659,188.973 105.659,189.117C105.659,189.188 105.731,189.261 105.875,189.261L114.228,189.261C114.659,188.973 115.02,188.54 115.235,188.036L115.235,187.964C115.235,187.748 115.235,187.677 115.091,187.46C115.02,187.46 115.02,187.316 115.02,187.245C115.02,187.245 115.091,187.1 115.091,187.028L115.308,187.028C115.379,187.1 115.451,187.245 115.595,187.245C115.739,187.389 115.956,187.604 116.1,187.677C116.1,187.748 116.1,187.748 116.171,187.748C116.243,187.748 116.387,187.677 116.387,187.677C116.531,187.604 116.604,187.389 116.604,187.245L116.604,187.028C116.604,186.741 116.604,186.524 116.459,186.236C116.459,185.949 116.531,185.732 116.604,185.444C116.604,184.724 116.531,183.932 116.459,183.14C116.387,182.204 116.243,181.341 116.171,180.405C116.171,180.117 116.171,179.756 116.243,179.469C116.171,178.892 116.243,178.389 116.459,177.885C116.963,176.949 117.251,176.013 117.251,174.932C117.251,174.788 117.251,174.644 117.179,174.573C117.251,173.781 117.251,173.133 117.251,172.412C117.251,171.405 117.467,170.325 117.611,169.389C117.684,169.172 117.684,168.956 117.827,168.741C118.259,168.597 118.691,168.38 119.124,168.308C119.195,168.236 119.339,168.236 119.412,168.093C119.843,168.02 120.275,167.949 120.708,167.876C121.355,167.805 122.075,167.661 122.795,167.661C122.939,167.805 123.155,167.805 123.299,167.876C123.587,167.949 123.875,168.02 124.164,168.093C124.308,168.236 124.595,168.308 124.739,168.38C127.619,169.748 130.354,170.828 133.308,171.62C134.892,171.98 136.476,172.197 137.843,172.484L138.131,172.484C138.347,172.484 138.491,172.484 138.708,172.412C138.923,172.341 139.211,172.197 139.571,172.197C139.931,172.124 140.292,172.053 140.651,171.98C143.027,171.332 145.476,170.252 147.563,168.812C148.141,169.892 148.427,170.54 148.644,171.044C149.147,171.405 149.724,171.98 150.372,172.484C150.299,173.276 150.155,174.212 150.083,175.077C150.155,175.724 150.443,176.228 150.875,176.661C151.092,176.876 151.235,176.949 151.451,176.949C151.667,176.949 151.883,176.876 152.027,176.661C152.532,176.444 152.748,176.013 152.892,175.509C152.963,175.148 153.035,174.932 153.035,174.644L153.035,173.204C153.035,173.133 153.035,173.06 153.107,172.916C153.467,172.845 153.827,172.701 154.116,172.412C154.188,172.557 154.403,172.701 154.476,172.845C154.547,173.06 154.763,173.204 154.907,173.276C155.124,173.42 155.268,173.564 155.339,173.637L155.339,173.996C155.268,174.429 155.195,174.932 155.195,175.436L155.195,175.724C155.195,176.157 155.268,176.661 155.557,177.02C155.699,177.308 155.916,177.524 156.131,177.597C156.275,177.597 156.347,177.668 156.419,177.668C156.708,177.668 156.997,177.524 157.211,177.38C157.5,177.164 157.788,176.876 157.859,176.516C157.932,176.228 157.932,175.869 157.932,175.509L157.932,173.493C158.508,173.925 158.939,173.852 159.372,173.781C160.235,173.493 160.956,172.916 161.459,172.124C161.532,172.412 161.676,172.557 161.892,172.772C162.035,173.06 162.251,173.42 162.323,173.637C162.611,174.212 162.755,174.717 163.044,175.148C163.332,175.724 163.547,176.157 163.763,176.661C163.835,176.949 163.907,177.236 163.907,177.524C163.835,178.821 163.691,180.188 163.332,181.412C163.332,181.845 163.116,182.204 163.044,182.637C162.611,183.14 162.251,183.717 161.963,184.365C161.676,184.652 161.315,184.869 161.1,185.157C160.812,185.157 160.595,185.228 160.379,185.372C160.165,185.516 160.021,185.732 159.875,185.949C159.803,186.093 159.803,186.164 159.803,186.236C158.939,187.028 157.932,187.821 157.141,188.828C157.141,188.9 157.068,188.973 157.068,189.117C157.068,189.261 157.141,189.332 157.211,189.332L165.923,189.332C166.355,188.973 166.715,188.469 166.932,187.964L166.932,187.677L166.859,187.46C166.788,187.316 166.788,187.245 166.788,187.1L166.859,187.028C166.932,187.1 167.147,187.245 167.219,187.316C167.292,187.389 167.436,187.46 167.581,187.604L167.939,187.604C167.939,187.604 168.011,187.46 168.083,187.389L168.083,187.028C168.011,186.741 168.011,186.524 167.939,186.164C168.011,185.876 168.011,185.588 168.083,185.372C168.083,185.084 168.228,184.796 168.228,184.436C168.228,184.365 168.228,184.077 168.083,183.932L168.083,183.356C168.228,182.349 168.228,181.124 168.372,180.188C168.443,179.108 168.587,178.028 168.803,177.02L168.803,176.516C168.947,176.228 169.021,176.013 169.092,175.652C169.092,175.148 169.165,174.644 169.165,174.212L169.165,173.133C169.379,172.772 169.451,172.412 169.667,172.053C169.667,172.341 169.667,172.557 169.739,172.845L169.739,173.06C169.812,173.133 169.812,173.133 169.812,173.276C169.812,173.493 169.739,173.781 169.667,173.996C169.667,173.996 169.739,174.14 169.812,174.14L169.883,174.14C170.1,173.996 170.243,173.925 170.315,173.852L170.315,175.148C170.532,175.436 170.604,175.724 170.675,176.013L170.675,176.157L170.819,176.157C170.892,176.516 171.035,176.805 171.323,177.02C171.54,177.164 171.611,177.236 171.755,177.38C171.899,177.308 171.971,177.164 171.971,177.02C172.116,176.949 172.259,176.876 172.403,176.805L172.403,176.588C172.403,176.444 172.476,176.157 172.547,176.013C172.547,175.869 172.691,175.796 172.691,175.724C172.763,176.013 172.835,176.228 173.051,176.444L173.124,176.444L173.124,176.157C173.124,176.013 173.124,175.869 173.195,175.724C173.268,175.509 173.411,175.365 173.484,175.148L173.484,173.852C173.628,173.925 173.628,174.14 173.628,174.212L173.916,174.356C173.987,174.356 174.204,174.429 174.275,174.429L174.275,174.573L174.275,174.429C174.275,174.356 174.204,174.212 174.204,174.14L174.204,171.98C174.275,172.053 174.419,172.053 174.419,172.197L174.563,172.124C174.563,171.765 174.563,171.549 174.635,171.188L174.635,169.964C174.635,169.46 174.419,169.028 174.275,168.597C173.987,168.02 173.916,167.516 173.771,166.94L173.771,165.068L173.843,163.989C173.916,163.053 173.987,162.261 174.131,161.469C174.419,158.732 174.708,156.285 174.997,153.836C175.068,152.9 175.141,151.604 175.141,150.308L175.141,149.949C175.141,149.661 175.068,149.372 175.068,149.013L175.068,148.796C175.068,148.509 175.068,148.148 174.997,147.86C174.779,147.5 174.779,147.14 174.779,146.781C174.779,146.564 174.708,146.204 174.708,145.845C174.635,145.557 174.635,145.197 174.635,144.909C174.563,144.549 174.419,143.973 174.275,143.325C174.131,142.677 173.843,142.1 173.484,141.38C173.195,141.093 173.051,140.732 172.835,140.372C172.691,140.228 172.403,140.013 172.259,139.724C172.044,139.509 171.755,139.292 171.54,139.004C171.323,138.788 171.035,138.5 170.819,138.212C170.532,138.068 170.315,137.852 170.1,137.781L169.379,137.42C169.092,137.349 168.731,137.276 168.443,137.133L168.011,137.133C167.795,137.06 167.508,136.989 167.292,136.916C167.147,136.916 166.932,136.916 166.788,136.772C166.571,136.701 166.427,136.701 166.355,136.628C166.141,136.557 165.997,136.484 165.923,136.268C165.635,136.197 165.347,136.197 165.06,136.124C164.916,135.98 164.628,135.909 164.484,135.836L162.827,135.836C162.467,135.909 162.251,135.98 161.892,135.98L160.956,135.98C160.523,135.909 160.165,135.836 159.731,135.765C159.443,135.62 159.228,135.62 158.867,135.549C158.508,135.476 158.147,135.476 157.715,135.476L157.211,135.476C156.997,135.549 156.708,135.549 156.419,135.62C156.06,135.765 155.699,135.909 155.484,136.124C154.763,136.557 154.044,136.916 153.251,137.06C152.748,137.133 152.243,137.133 151.812,137.133L147.852,137.133C146.339,137.276 144.827,137.133 143.387,137.06C142.165,137.06 141.011,136.916 139.859,136.557C139.211,136.484 138.563,136.341 137.843,136.341L135.107,136.341C134.748,136.484 134.604,136.484 134.315,136.484C133.956,136.484 133.523,136.557 133.164,136.484L128.05,136.484C127.547,136.484 127.043,136.484 126.54,136.557C126.396,136.557 126.179,136.484 126.035,136.484C125.748,136.484 125.459,136.557 125.171,136.557L124.164,136.557C123.155,136.484 122.292,136.484 121.283,136.268C120.708,136.197 120.204,135.98 119.699,135.909C118.763,135.62 117.899,135.476 116.963,135.476C116.459,135.405 115.956,135.405 115.308,135.405C114.947,135.405 114.587,135.405 114.228,135.476L114.155,135.476C113.436,135.476 112.788,135.476 112.139,135.62C111.635,135.909 111.131,136.124 110.555,136.268C110.268,136.484 110.051,136.557 109.763,136.628C109.403,136.916 108.971,137.06 108.396,137.133C107.963,137.42 107.459,137.637 107.027,137.781C105.947,138.356 105.228,138.86 104.507,139.509C104.292,139.652 104.075,139.869 103.788,140.013C103.5,140.301 103.355,140.444 103.067,140.588Z" style="fill:rgb(35,31,32);fill-rule:nonzero;"/>
        <path d="M103.067,140.588C102.779,140.805 102.419,141.02 102.204,141.236C101.627,141.597 101.051,141.956 100.476,142.245C100.043,142.533 99.539,142.82 98.963,143.036C98.675,143.252 98.459,143.396 98.171,143.469C97.595,143.684 97.091,143.973 96.587,144.332C96.371,144.405 96.299,144.476 96.011,144.476C95.651,144.692 95.219,144.909 94.787,145.124C94.355,145.268 93.779,145.557 93.275,145.701C92.987,145.845 92.843,145.989 92.627,146.06C92.483,146.204 92.267,146.204 92.123,146.276C91.907,146.349 91.763,146.42 91.619,146.42C91.475,146.564 91.403,146.564 91.187,146.564C91.187,146.204 91.187,145.916 91.115,145.628C90.971,145.124 90.755,144.476 90.611,143.828C90.467,143.684 90.395,143.469 90.323,143.469C90.251,143.469 90.107,143.396 90.035,143.396C89.891,143.396 89.747,143.469 89.603,143.469C89.387,143.469 89.243,143.613 89.099,143.613C88.811,143.684 88.523,143.756 88.235,143.973C88.019,144.117 87.731,144.332 87.515,144.549C87.227,145.124 86.939,145.628 86.651,146.276C86.579,146.204 86.363,145.989 86.291,145.845L86.219,145.701C86.003,145.557 85.859,145.484 85.643,145.484L85.427,145.484L85.067,145.557C84.419,145.124 83.915,144.549 83.267,144.044C82.835,143.613 82.475,143.036 82.187,142.533C82.115,142.1 82.115,141.524 82.259,141.02C82.619,140.013 83.195,139.148 83.915,138.356C84.059,138.5 84.275,138.717 84.491,138.788L84.707,138.788C84.995,138.788 85.139,138.717 85.427,138.573C85.571,138.5 85.787,138.356 85.931,138.068C85.931,137.852 86.003,137.708 86.003,137.493C86.003,137.276 85.931,136.989 85.859,136.772C85.571,136.197 85.211,135.62 84.707,135.261C84.419,135.117 84.059,134.9 83.699,134.9C83.411,134.9 83.195,135.117 82.907,135.405C82.835,135.476 82.763,135.62 82.763,135.765C82.619,135.909 82.619,135.98 82.619,136.197C82.619,136.484 82.763,136.701 82.907,136.989C82.547,137.133 82.187,137.349 81.827,137.493C81.323,137.781 80.891,138.068 80.387,138.429C80.027,138.788 79.667,139.148 79.523,139.509C78.803,140.444 78.443,141.524 78.443,142.677L78.443,142.964C78.443,144.044 78.803,145.053 79.451,145.916C80.171,146.996 81.107,147.932 82.187,148.652L81.107,151.028C79.235,151.245 77.939,152.756 77.939,154.628C77.939,154.845 78.011,154.989 78.011,155.204C75.851,157.652 74.051,160.389 72.683,163.341L71.747,164.204C71.459,164.564 71.243,165.068 71.099,165.573L71.099,166.077C71.099,166.724 71.243,167.301 71.459,167.876C72.323,168.453 73.115,168.956 73.979,169.389L74.339,169.389C74.699,169.389 75.131,169.316 75.491,169.172C75.563,169.46 75.707,169.748 75.851,169.964C75.923,170.181 76.211,170.252 76.427,170.252L76.499,170.252C76.931,170.181 77.291,170.108 77.723,169.964L77.939,169.964C78.371,169.964 78.731,169.964 79.091,169.892C79.307,169.748 79.523,169.533 79.595,169.316C79.811,168.956 79.955,168.597 80.027,168.236C80.171,168.02 80.243,167.876 80.387,167.805C80.603,167.805 80.675,167.805 80.891,167.876L81.539,167.876C81.827,167.949 82.115,168.02 82.259,168.02C82.547,168.093 82.907,168.093 83.195,168.093L83.267,168.093C83.339,168.093 83.411,168.093 83.627,168.02C83.771,167.949 83.987,167.949 84.131,167.805C84.995,167.516 85.787,167.157 86.579,166.796C87.083,166.58 87.515,166.436 88.019,166.148C88.091,166.077 88.235,166.077 88.379,165.86C88.811,165.717 89.171,165.429 89.603,165.212C89.963,164.852 90.323,164.564 90.683,164.133C90.827,163.989 90.971,163.845 91.115,163.772L91.835,163.772C91.979,163.845 92.267,163.916 92.555,163.916C93.275,164.133 93.995,164.133 94.787,164.133L94.931,164.133C95.939,164.204 96.803,164.276 97.595,164.276C97.307,164.276 97.523,164.276 97.883,164.349C98.099,164.349 98.315,164.493 98.603,164.564C98.675,164.564 98.891,164.637 98.963,164.708C99.251,164.925 99.395,164.996 99.611,165.212C99.755,165.356 99.971,165.573 100.115,165.788C100.403,166.004 100.547,166.148 100.763,166.365C101.124,166.58 101.483,166.796 101.843,166.869C101.987,166.94 102.204,166.94 102.275,167.084C102.347,167.084 102.419,167.157 102.419,167.157C102.708,167.301 102.779,167.444 103.067,167.588C103.283,167.949 103.5,168.38 103.788,168.741C103.931,169.028 104.219,169.316 104.58,169.46C105.011,169.677 105.516,169.748 105.947,169.892C106.308,170.108 106.523,170.252 106.812,170.54C107.171,170.9 107.531,171.188 107.892,171.549C108.179,171.692 108.396,171.765 108.684,171.765L108.755,171.765C109.476,171.765 110.051,171.62 110.627,171.405C110.771,171.765 110.843,172.197 110.916,172.557C110.843,173.06 110.771,173.564 110.771,173.996C110.627,174.356 110.627,174.573 110.627,174.788C110.627,175.077 110.627,175.292 110.771,175.436C110.771,175.796 110.843,176.084 110.843,176.444C110.916,176.661 111.131,177.164 111.275,177.38C111.563,177.741 111.708,178.245 111.852,178.677L111.852,179.036C111.852,179.469 111.852,179.828 111.708,180.261C111.708,180.549 111.708,180.765 111.635,181.053C111.563,181.701 111.347,182.204 110.987,182.637C110.916,182.996 110.771,183.5 110.627,183.86C110.483,184.436 110.051,184.869 109.476,185.157C109.259,185.372 108.971,185.516 108.684,185.732C108.396,185.805 108.251,186.164 108.251,186.453C107.459,187.245 106.667,188.036 105.875,188.828C105.731,188.9 105.659,188.973 105.659,189.117C105.659,189.188 105.731,189.261 105.875,189.261L114.228,189.261C114.659,188.973 115.02,188.54 115.235,188.036L115.235,187.964C115.235,187.748 115.235,187.677 115.091,187.46C115.02,187.46 115.02,187.316 115.02,187.245C115.02,187.245 115.091,187.1 115.091,187.028L115.308,187.028C115.379,187.1 115.451,187.245 115.595,187.245C115.739,187.389 115.956,187.604 116.1,187.677C116.1,187.748 116.1,187.748 116.171,187.748C116.243,187.748 116.387,187.677 116.387,187.677C116.531,187.604 116.604,187.389 116.604,187.245L116.604,187.028C116.604,186.741 116.604,186.524 116.459,186.236C116.459,185.949 116.531,185.732 116.604,185.444C116.604,184.724 116.531,183.932 116.459,183.14C116.387,182.204 116.243,181.341 116.171,180.405C116.171,180.117 116.171,179.756 116.243,179.469C116.171,178.892 116.243,178.389 116.459,177.885C116.963,176.949 117.251,176.013 117.251,174.932C117.251,174.788 117.251,174.644 117.179,174.573C117.251,173.781 117.251,173.133 117.251,172.412C117.251,171.405 117.467,170.325 117.611,169.389C117.684,169.172 117.684,168.956 117.827,168.741C118.259,168.597 118.691,168.38 119.124,168.308C119.195,168.236 119.339,168.236 119.412,168.093C119.843,168.02 120.275,167.949 120.708,167.876C121.355,167.805 122.075,167.661 122.795,167.661C122.939,167.805 123.155,167.805 123.299,167.876C123.587,167.949 123.875,168.02 124.164,168.093C124.308,168.236 124.595,168.308 124.739,168.38C127.619,169.748 130.354,170.828 133.308,171.62C134.892,171.98 136.476,172.197 137.843,172.484L138.131,172.484C138.347,172.484 138.491,172.484 138.708,172.412C138.923,172.341 139.211,172.197 139.571,172.197C139.931,172.124 140.292,172.053 140.651,171.98C143.027,171.332 145.476,170.252 147.563,168.812C148.141,169.892 148.427,170.54 148.644,171.044C149.147,171.405 149.724,171.98 150.372,172.484C150.299,173.276 150.155,174.212 150.083,175.077C150.155,175.724 150.443,176.228 150.875,176.661C151.092,176.876 151.235,176.949 151.451,176.949C151.667,176.949 151.883,176.876 152.027,176.661C152.532,176.444 152.748,176.013 152.892,175.509C152.963,175.148 153.035,174.932 153.035,174.644L153.035,173.204C153.035,173.133 153.035,173.06 153.107,172.916C153.467,172.845 153.827,172.701 154.116,172.412C154.188,172.557 154.403,172.701 154.476,172.845C154.547,173.06 154.763,173.204 154.907,173.276C155.124,173.42 155.268,173.564 155.339,173.637L155.339,173.996C155.268,174.429 155.195,174.932 155.195,175.436L155.195,175.724C155.195,176.157 155.268,176.661 155.557,177.02C155.699,177.308 155.916,177.524 156.131,177.597C156.275,177.597 156.347,177.668 156.419,177.668C156.708,177.668 156.997,177.524 157.211,177.38C157.5,177.164 157.788,176.876 157.859,176.516C157.932,176.228 157.932,175.869 157.932,175.509L157.932,173.493C158.508,173.925 158.939,173.852 159.372,173.781C160.235,173.493 160.956,172.916 161.459,172.124C161.532,172.412 161.676,172.557 161.892,172.772C162.035,173.06 162.251,173.42 162.323,173.637C162.611,174.212 162.755,174.717 163.044,175.148C163.332,175.724 163.547,176.157 163.763,176.661C163.835,176.949 163.907,177.236 163.907,177.524C163.835,178.821 163.691,180.188 163.332,181.412C163.332,181.845 163.116,182.204 163.044,182.637C162.611,183.14 162.251,183.717 161.963,184.365C161.676,184.652 161.315,184.869 161.1,185.157C160.812,185.157 160.595,185.228 160.379,185.372C160.165,185.516 160.021,185.732 159.875,185.949C159.803,186.093 159.803,186.164 159.803,186.236C158.939,187.028 157.932,187.821 157.141,188.828C157.141,188.9 157.068,188.973 157.068,189.117C157.068,189.261 157.141,189.332 157.211,189.332L165.923,189.332C166.355,188.973 166.715,188.469 166.932,187.964L166.932,187.677L166.859,187.46C166.788,187.316 166.788,187.245 166.788,187.1L166.859,187.028C166.932,187.1 167.147,187.245 167.219,187.316C167.292,187.389 167.436,187.46 167.581,187.604L167.939,187.604C167.939,187.604 168.011,187.46 168.083,187.389L168.083,187.028C168.011,186.741 168.011,186.524 167.939,186.164C168.011,185.876 168.011,185.588 168.083,185.372C168.083,185.084 168.228,184.796 168.228,184.436C168.228,184.365 168.228,184.077 168.083,183.932L168.083,183.356C168.228,182.349 168.228,181.124 168.372,180.188C168.443,179.108 168.587,178.028 168.803,177.02L168.803,176.516C168.947,176.228 169.021,176.013 169.092,175.652C169.092,175.148 169.165,174.644 169.165,174.212L169.165,173.133C169.379,172.772 169.451,172.412 169.667,172.053C169.667,172.341 169.667,172.557 169.739,172.845L169.739,173.06C169.812,173.133 169.812,173.133 169.812,173.276C169.812,173.493 169.739,173.781 169.667,173.996C169.667,173.996 169.739,174.14 169.812,174.14L169.883,174.14C170.1,173.996 170.243,173.925 170.315,173.852L170.315,175.148C170.532,175.436 170.604,175.724 170.675,176.013L170.675,176.157L170.819,176.157C170.892,176.516 171.035,176.805 171.323,177.02C171.54,177.164 171.611,177.236 171.755,177.38C171.899,177.308 171.971,177.164 171.971,177.02C172.116,176.949 172.259,176.876 172.403,176.805L172.403,176.588C172.403,176.444 172.476,176.157 172.547,176.013C172.547,175.869 172.691,175.796 172.691,175.724C172.763,176.013 172.835,176.228 173.051,176.444L173.124,176.444L173.124,176.157C173.124,176.013 173.124,175.869 173.195,175.724C173.268,175.509 173.411,175.365 173.484,175.148L173.484,173.852C173.628,173.925 173.628,174.14 173.628,174.212L173.916,174.356C173.987,174.356 174.204,174.429 174.275,174.429L174.275,174.573L174.275,174.429C174.275,174.356 174.204,174.212 174.204,174.14L174.204,171.98C174.275,172.053 174.419,172.053 174.419,172.197L174.563,172.124C174.563,171.765 174.563,171.549 174.635,171.188L174.635,169.964C174.635,169.46 174.419,169.028 174.275,168.597C173.987,168.02 173.916,167.516 173.771,166.94L173.771,165.068L173.843,163.989C173.916,163.053 173.987,162.261 174.131,161.469C174.419,158.732 174.708,156.285 174.997,153.836C175.068,152.9 175.141,151.604 175.141,150.308L175.141,149.949C175.141,149.661 175.068,149.372 175.068,149.013L175.068,148.796C175.068,148.509 175.068,148.148 174.997,147.86C174.779,147.5 174.779,147.14 174.779,146.781C174.779,146.564 174.708,146.204 174.708,145.845C174.635,145.557 174.635,145.197 174.635,144.909C174.563,144.549 174.419,143.973 174.275,143.325C174.131,142.677 173.843,142.1 173.484,141.38C173.195,141.093 173.051,140.732 172.835,140.372C172.691,140.228 172.403,140.013 172.259,139.724C172.044,139.509 171.755,139.292 171.54,139.004C171.323,138.788 171.035,138.5 170.819,138.212C170.532,138.068 170.315,137.852 170.1,137.781L169.379,137.42C169.092,137.349 168.731,137.276 168.443,137.133L168.011,137.133C167.795,137.06 167.508,136.989 167.292,136.916C167.147,136.916 166.932,136.916 166.788,136.772C166.571,136.701 166.427,136.701 166.355,136.628C166.141,136.557 165.997,136.484 165.923,136.268C165.635,136.197 165.347,136.197 165.06,136.124C164.916,135.98 164.628,135.909 164.484,135.836L162.827,135.836C162.467,135.909 162.251,135.98 161.892,135.98L160.956,135.98C160.523,135.909 160.165,135.836 159.731,135.765C159.443,135.62 159.228,135.62 158.867,135.549C158.508,135.476 158.147,135.476 157.715,135.476L157.211,135.476C156.997,135.549 156.708,135.549 156.419,135.62C156.06,135.765 155.699,135.909 155.484,136.124C154.763,136.557 154.044,136.916 153.251,137.06C152.748,137.133 152.243,137.133 151.812,137.133L147.852,137.133C146.339,137.276 144.827,137.133 143.387,137.06C142.165,137.06 141.011,136.916 139.859,136.557C139.211,136.484 138.563,136.341 137.843,136.341L135.107,136.341C134.748,136.484 134.604,136.484 134.315,136.484C133.956,136.484 133.523,136.557 133.164,136.484L128.05,136.484C127.547,136.484 127.043,136.484 126.54,136.557C126.396,136.557 126.179,136.484 126.035,136.484C125.748,136.484 125.459,136.557 125.171,136.557L124.164,136.557C123.155,136.484 122.292,136.484 121.283,136.268C120.708,136.197 120.204,135.98 119.699,135.909C118.763,135.62 117.899,135.476 116.963,135.476C116.459,135.405 115.956,135.405 115.308,135.405C114.947,135.405 114.587,135.405 114.228,135.476L114.155,135.476C113.436,135.476 112.788,135.476 112.139,135.62C111.635,135.909 111.131,136.124 110.555,136.268C110.268,136.484 110.051,136.557 109.763,136.628C109.403,136.916 108.971,137.06 108.396,137.133C107.963,137.42 107.459,137.637 107.027,137.781C105.947,138.356 105.228,138.86 104.507,139.509C104.292,139.652 104.075,139.869 103.788,140.013C103.5,140.301 103.355,140.444 103.067,140.588Z" style="fill:none;stroke:rgb(35,31,32);stroke-width:0.22px;"/>
        <path d="M169.308,154.628C170.027,152.756 170.604,151.028 171.179,149.228L171.179,149.301L171.251,149.588C171.323,150.308 171.323,151.028 171.323,151.677L171.323,152.9C171.251,155.204 171.179,158.876 170.963,162.476L170.963,163.484C170.963,164.564 170.892,165.573 170.892,166.58C170.819,167.157 170.604,167.661 170.459,168.236C170.027,169.1 169.739,170.108 169.667,171.044C169.379,170.684 169.165,170.469 168.947,170.181C168.587,169.892 168.372,169.533 168.228,169.172C168.011,168.668 167.795,168.093 167.508,167.661C167.436,167.301 167.219,166.94 167.075,166.58C166.859,166.148 166.788,165.788 166.715,165.285C166.715,164.349 166.788,163.484 166.932,162.476C167.075,161.325 167.292,160.172 167.581,159.02C168.228,157.436 168.731,155.996 169.308,154.557L169.308,154.628Z" style="fill:white;fill-rule:nonzero;"/>
        <path d="M169.308,154.628C170.027,152.756 170.604,151.028 171.179,149.228L171.179,149.301L171.251,149.588C171.323,150.308 171.323,151.028 171.323,151.677L171.323,152.9C171.251,155.204 171.179,158.876 170.963,162.476L170.963,163.484C170.963,164.564 170.892,165.573 170.892,166.58C170.819,167.157 170.604,167.661 170.459,168.236C170.027,169.1 169.739,170.108 169.667,171.044C169.379,170.684 169.165,170.469 168.947,170.181C168.587,169.892 168.372,169.533 168.228,169.172C168.011,168.668 167.795,168.093 167.508,167.661C167.436,167.301 167.219,166.94 167.075,166.58C166.859,166.148 166.788,165.788 166.715,165.285C166.715,164.349 166.788,163.484 166.932,162.476C167.075,161.325 167.292,160.172 167.581,159.02C168.228,157.436 168.731,155.996 169.308,154.557L169.308,154.628Z" style="fill:none;stroke:white;stroke-width:0.22px;"/>
    </g>
</svg>
