<?xml version="1.0" encoding="UTF-8" standalone="no"?>
<!DOCTYPE svg PUBLIC "-//W3C//DTD SVG 1.1//EN" "http://www.w3.org/Graphics/SVG/1.1/DTD/svg11.dtd">
<svg width="100%" height="100%" viewBox="0 0 227 340" version="1.1" xmlns="http://www.w3.org/2000/svg" xmlns:xlink="http://www.w3.org/1999/xlink" xml:space="preserve" xmlns:serif="http://www.serif.com/" style="fill-rule:evenodd;clip-rule:evenodd;stroke-miterlimit:2;">
    <g>
        <path d="M209.555,3.581L17.099,3.581C9.611,3.581 3.491,9.701 3.491,17.261L3.491,322.901C3.491,330.461 9.611,336.508 17.099,336.508L209.555,336.508C217.043,336.508 223.163,330.461 223.163,322.901L223.163,17.261C223.163,9.701 217.043,3.581 209.555,3.581Z" style="fill:rgb(35,31,32);fill-rule:nonzero;"/>
        <path d="M209.555,3.581L17.099,3.581C9.611,3.581 3.491,9.701 3.491,17.261L3.491,322.901C3.491,330.461 9.611,336.508 17.099,336.508L209.555,336.508C217.043,336.508 223.163,330.461 223.163,322.901L223.163,17.261C223.163,9.701 217.043,3.581 209.555,3.581Z" style="fill:none;stroke:rgb(35,31,32);stroke-width:0.22px;"/>
        <path d="M209.555,10.493L17.099,10.493C13.355,10.493 10.259,13.517 10.259,17.261L10.259,322.901C10.259,326.716 13.355,329.74 17.099,329.74L209.555,329.74C213.299,329.74 216.395,326.645 216.395,322.901L216.395,17.261C216.395,13.517 213.299,10.493 209.555,10.493Z" style="fill:white;fill-rule:nonzero;"/>
        <path d="M209.555,10.493L17.099,10.493C13.355,10.493 10.259,13.517 10.259,17.261L10.259,322.901C10.259,326.716 13.355,329.74 17.099,329.74L209.555,329.74C213.299,329.74 216.395,326.645 216.395,322.901L216.395,17.261C216.395,13.517 213.299,10.493 209.555,10.493Z" style="fill:none;stroke:rgb(35,31,32);stroke-width:0.22px;"/>
        <path d="M55.619,75.005L55.619,127.565C55.619,149.381 64.259,170.045 79.595,185.309L131.292,236.933C142.235,248.021 148.427,262.997 148.427,278.621L148.427,311.596L171.107,311.596L171.107,75.005L193.715,97.685L193.715,68.237L159.731,34.252L125.819,68.237L125.819,97.685L148.427,75.005L148.427,222.101L95.435,169.253C84.419,158.165 78.227,143.116 78.227,127.492L78.227,75.005L100.835,97.685L100.835,68.237L66.923,34.252L32.939,68.237L32.939,97.685L55.619,75.005Z" style="fill:rgb(35,31,32);fill-rule:nonzero;"/>
        <path d="M55.619,75.005L55.619,127.565C55.619,149.381 64.259,170.045 79.595,185.309L131.292,236.933C142.235,248.021 148.427,262.997 148.427,278.621L148.427,311.596L171.107,311.596L171.107,75.005L193.715,97.685L193.715,68.237L159.731,34.252L125.819,68.237L125.819,97.685L148.427,75.005L148.427,222.101L95.435,169.253C84.419,158.165 78.227,143.116 78.227,127.492L78.227,75.005L100.835,97.685L100.835,68.237L66.923,34.252L32.939,68.237L32.939,97.685L55.619,75.005Z" style="fill:none;stroke:rgb(35,31,32);stroke-width:0.22px;"/>
    </g>
</svg>
