<?xml version="1.0" encoding="UTF-8" standalone="no"?>
<!DOCTYPE svg PUBLIC "-//W3C//DTD SVG 1.1//EN" "http://www.w3.org/Graphics/SVG/1.1/DTD/svg11.dtd">
<svg width="100%" height="100%" viewBox="0 0 228 228" version="1.1" xmlns="http://www.w3.org/2000/svg" xmlns:xlink="http://www.w3.org/1999/xlink" xml:space="preserve" xmlns:serif="http://www.serif.com/" style="fill-rule:evenodd;clip-rule:evenodd;stroke-miterlimit:2;">
    <g>
        <path d="M227.123,114.493C227.123,51.997 176.003,0.877 113.507,0.877C51.227,0.877 0.107,51.997 0.107,114.493C0.107,176.772 51.227,227.893 113.507,227.893C176.003,227.893 227.123,176.772 227.123,114.493Z" style="fill:white;fill-rule:nonzero;"/>
        <path d="M227.123,114.493C227.123,51.997 176.003,0.877 113.507,0.877C51.227,0.877 0.107,51.997 0.107,114.493C0.107,176.772 51.227,227.893 113.507,227.893C176.003,227.893 227.123,176.772 227.123,114.493Z" style="fill:none;stroke:rgb(35,31,32);stroke-width:0.22px;"/>
        <path d="M101.267,138.396L101.267,132.133L91.908,132.133L91.908,138.396L92.699,141.205C93.851,141.781 95.291,142.068 96.731,142.068C97.811,142.068 99.251,141.781 100.403,141.205L101.267,138.396Z" style="fill:rgb(187,177,163);fill-rule:nonzero;"/>
        <path d="M101.267,138.396L101.267,132.133L91.908,132.133L91.908,138.396L92.699,141.205C93.851,141.781 95.291,142.068 96.731,142.068C97.811,142.068 99.251,141.781 100.403,141.205L101.267,138.396Z" style="fill:none;stroke:rgb(187,177,163);stroke-width:0.22px;"/>
        <path d="M127.403,132.133L127.403,138.396L128.267,141.205C129.42,141.781 130.787,142.068 132.227,142.068C133.379,142.068 134.747,141.781 135.899,141.205L136.763,138.396L136.763,132.133L127.403,132.133Z" style="fill:rgb(187,177,163);fill-rule:nonzero;"/>
        <path d="M127.403,132.133L127.403,138.396L128.267,141.205C129.42,141.781 130.787,142.068 132.227,142.068C133.379,142.068 134.747,141.781 135.899,141.205L136.763,138.396L136.763,132.133L127.403,132.133Z" style="fill:none;stroke:rgb(187,177,163);stroke-width:0.22px;"/>
        <path d="M39.851,132.133L39.851,138.396L40.715,141.205C41.867,141.781 43.307,142.068 44.747,142.068C45.827,142.068 47.267,141.781 48.419,141.205L49.283,138.396L49.283,132.133L39.851,132.133Z" style="fill:rgb(187,177,163);fill-rule:nonzero;"/>
        <path d="M39.851,132.133L39.851,138.396L40.715,141.205C41.867,141.781 43.307,142.068 44.747,142.068C45.827,142.068 47.267,141.781 48.419,141.205L49.283,138.396L49.283,132.133L39.851,132.133Z" style="fill:none;stroke:rgb(187,177,163);stroke-width:0.22px;"/>
        <path d="M36.179,126.444L35.891,126.732L35.891,131.845L36.179,132.133L105.227,132.133L105.516,131.845L105.516,126.732L105.227,126.444L36.179,126.444Z" style="fill:rgb(187,177,163);fill-rule:nonzero;"/>
        <path d="M36.179,126.444L35.891,126.732L35.891,131.845L36.179,132.133L105.227,132.133L105.516,131.845L105.516,126.732L105.227,126.444L36.179,126.444Z" style="fill:none;stroke:rgb(187,177,163);stroke-width:0.22px;"/>
        <path d="M100.691,107.148L93.275,83.82C86.219,82.453 78.515,81.877 70.883,81.589C62.891,81.877 55.547,82.453 47.843,83.82L40.427,107.148C38.195,108.588 36.467,110.819 35.891,113.413L35.891,124.212L36.179,124.5L105.227,124.5L105.516,124.212L105.516,113.413C104.939,110.819 103.211,108.588 100.691,107.148Z" style="fill:rgb(187,177,163);fill-rule:nonzero;"/>
        <path d="M100.691,107.148L93.275,83.82C86.219,82.453 78.515,81.877 70.883,81.589C62.891,81.877 55.547,82.453 47.843,83.82L40.427,107.148C38.195,108.588 36.467,110.819 35.891,113.413L35.891,124.212L36.179,124.5L105.227,124.5L105.516,124.212L105.516,113.413C104.939,110.819 103.211,108.588 100.691,107.148Z" style="fill:none;stroke:rgb(187,177,163);stroke-width:0.22px;"/>
        <path d="M123.444,126.444L123.155,126.732L123.155,131.845L123.444,132.133L192.491,132.133L192.779,131.845L192.779,126.732L192.491,126.444L123.444,126.444Z" style="fill:rgb(187,177,163);fill-rule:nonzero;"/>
        <path d="M123.444,126.444L123.155,126.732L123.155,131.845L123.444,132.133L192.491,132.133L192.779,131.845L192.779,126.732L192.491,126.444L123.444,126.444Z" style="fill:none;stroke:rgb(187,177,163);stroke-width:0.22px;"/>
        <path d="M180.827,83.82C173.411,82.453 165.779,81.877 158.075,81.589C150.444,81.877 142.739,82.453 135.323,83.82L127.98,107.148C125.387,108.588 124.019,110.819 123.155,113.413L123.155,124.212L123.444,124.5L192.491,124.5L192.779,124.212L192.779,113.413C192.203,110.819 190.475,108.588 188.171,107.148L180.827,83.82Z" style="fill:rgb(187,177,163);fill-rule:nonzero;"/>
        <path d="M180.827,83.82C173.411,82.453 165.779,81.877 158.075,81.589C150.444,81.877 142.739,82.453 135.323,83.82L127.98,107.148C125.387,108.588 124.019,110.819 123.155,113.413L123.155,124.212L123.444,124.5L192.491,124.5L192.779,124.212L192.779,113.413C192.203,110.819 190.475,108.588 188.171,107.148L180.827,83.82Z" style="fill:none;stroke:rgb(187,177,163);stroke-width:0.22px;"/>
        <path d="M188.747,138.396L188.747,132.133L179.387,132.133L179.387,138.396L180.251,141.205C181.403,141.781 182.771,142.068 183.923,142.068C185.363,142.068 186.803,141.781 187.883,141.205L188.747,138.396Z" style="fill:rgb(187,177,163);fill-rule:nonzero;"/>
        <path d="M188.747,138.396L188.747,132.133L179.387,132.133L179.387,138.396L180.251,141.205C181.403,141.781 182.771,142.068 183.923,142.068C185.363,142.068 186.803,141.781 187.883,141.205L188.747,138.396Z" style="fill:none;stroke:rgb(187,177,163);stroke-width:0.22px;"/>
        <path d="M94.715,119.389C95.291,119.677 96.155,119.893 96.731,119.893C97.595,119.893 98.387,119.677 98.963,119.389L98.963,111.108C98.387,110.532 97.595,110.532 96.731,110.532C96.155,110.532 95.291,110.532 94.715,111.108L94.715,119.389Z" style="fill:white;fill-rule:nonzero;"/>
        <path d="M94.715,119.389C95.291,119.677 96.155,119.893 96.731,119.893C97.595,119.893 98.387,119.677 98.963,119.389L98.963,111.108C98.387,110.532 97.595,110.532 96.731,110.532C96.155,110.532 95.291,110.532 94.715,111.108L94.715,119.389Z" style="fill:none;stroke:white;stroke-width:0.22px;"/>
        <path d="M46.691,119.389L46.691,111.108C45.827,110.532 45.251,110.532 44.459,110.532C43.595,110.532 42.731,110.532 42.155,111.108L42.155,119.389C42.731,119.677 43.595,119.893 44.459,119.893C45.251,119.893 45.827,119.677 46.691,119.389Z" style="fill:white;fill-rule:nonzero;"/>
        <path d="M46.691,119.389L46.691,111.108C45.827,110.532 45.251,110.532 44.459,110.532C43.595,110.532 42.731,110.532 42.155,111.108L42.155,119.389C42.731,119.677 43.595,119.893 44.459,119.893C45.251,119.893 45.827,119.677 46.691,119.389Z" style="fill:none;stroke:white;stroke-width:0.22px;"/>
        <path d="M94.139,105.708C86.507,102.612 78.227,101.172 70.019,101.172C62.315,101.172 54.683,102.612 47.267,105.133L51.803,90.373C58.067,89.508 64.619,88.933 70.883,88.933C77.075,88.933 83.339,89.508 89.891,90.373L94.139,105.708Z" style="fill:white;fill-rule:nonzero;"/>
        <path d="M94.139,105.708C86.507,102.612 78.227,101.172 70.019,101.172C62.315,101.172 54.683,102.612 47.267,105.133L51.803,90.373C58.067,89.508 64.619,88.933 70.883,88.933C77.075,88.933 83.339,89.508 89.891,90.373L94.139,105.708Z" style="fill:none;stroke:white;stroke-width:0.22px;"/>
        <path d="M18.611,177.349C17.747,175.621 16.595,173.893 15.731,172.453L171.179,16.501C172.835,17.652 174.563,18.805 176.291,19.597L18.611,177.349Z" style="fill:rgb(35,31,32);fill-rule:nonzero;"/>
        <path d="M18.611,177.349C17.747,175.621 16.595,173.893 15.731,172.453L171.179,16.501C172.835,17.652 174.563,18.805 176.291,19.597L18.611,177.349Z" style="fill:none;stroke:rgb(35,31,32);stroke-width:0.22px;"/>
        <path d="M134.243,119.389L134.243,111.108C133.379,110.532 132.516,110.532 131.939,110.532C131.075,110.532 130.211,110.532 129.634,111.108L129.634,119.389C130.211,119.677 131.075,119.893 131.939,119.893C132.516,119.893 133.379,119.677 134.243,119.389Z" style="fill:white;fill-rule:nonzero;"/>
        <path d="M134.243,119.389L134.243,111.108C133.379,110.532 132.516,110.532 131.939,110.532C131.075,110.532 130.211,110.532 129.634,111.108L129.634,119.389C130.211,119.677 131.075,119.893 131.939,119.893C132.516,119.893 133.379,119.677 134.243,119.389Z" style="fill:none;stroke:white;stroke-width:0.22px;"/>
        <path d="M181.691,105.708C173.987,102.612 165.779,101.172 157.499,101.172C149.579,101.172 141.875,102.612 134.747,105.133L139.067,90.373C145.547,89.508 151.811,88.933 158.363,88.933C164.339,88.933 170.891,89.508 177.083,90.373L181.691,105.708Z" style="fill:white;fill-rule:nonzero;"/>
        <path d="M181.691,105.708C173.987,102.612 165.779,101.172 157.499,101.172C149.579,101.172 141.875,102.612 134.747,105.133L139.067,90.373C145.547,89.508 151.811,88.933 158.363,88.933C164.339,88.933 170.891,89.508 177.083,90.373L181.691,105.708Z" style="fill:none;stroke:white;stroke-width:0.22px;"/>
        <path d="M181.979,119.389C182.771,119.677 183.347,119.893 184.211,119.893C185.075,119.893 185.939,119.677 186.515,119.389L186.515,111.108C185.939,110.532 185.075,110.532 184.211,110.532C183.347,110.532 182.771,110.532 181.979,111.108L181.979,119.389Z" style="fill:white;fill-rule:nonzero;"/>
        <path d="M181.979,119.389C182.771,119.677 183.347,119.893 184.211,119.893C185.075,119.893 185.939,119.677 186.515,119.389L186.515,111.108C185.939,110.532 185.075,110.532 184.211,110.532C183.347,110.532 182.771,110.532 181.979,111.108L181.979,119.389Z" style="fill:none;stroke:white;stroke-width:0.22px;"/>
        <path d="M37.331,198.876C38.771,200.029 40.139,201.469 41.579,202.621L201.563,42.637C200.411,41.197 198.971,39.829 197.891,38.389L37.331,198.876Z" style="fill:rgb(35,31,32);fill-rule:nonzero;"/>
        <path d="M37.331,198.876C38.771,200.029 40.139,201.469 41.579,202.621L201.563,42.637C200.411,41.197 198.971,39.829 197.891,38.389L37.331,198.876Z" style="fill:none;stroke:rgb(35,31,32);stroke-width:0.22px;"/>
        <path d="M50.651,209.389C52.379,210.54 54.107,211.405 55.763,212.557L211.499,56.82C210.347,55.165 209.483,53.437 208.403,51.997L50.651,209.389Z" style="fill:rgb(35,31,32);fill-rule:nonzero;"/>
        <path d="M50.651,209.389C52.379,210.54 54.107,211.405 55.763,212.557L211.499,56.82C210.347,55.165 209.483,53.437 208.403,51.997L50.651,209.389Z" style="fill:none;stroke:rgb(35,31,32);stroke-width:0.22px;"/>
        <path d="M25.379,186.42C26.819,188.148 27.971,189.517 29.339,190.957L189.611,30.109C188.459,29.029 187.091,27.877 185.363,26.437L25.379,186.42Z" style="fill:rgb(35,31,32);fill-rule:nonzero;"/>
        <path d="M25.379,186.42C26.819,188.148 27.971,189.517 29.339,190.957L189.611,30.109C188.459,29.029 187.091,27.877 185.363,26.437L25.379,186.42Z" style="fill:none;stroke:rgb(35,31,32);stroke-width:0.22px;"/>
    </g>
</svg>
