<?xml version="1.0" encoding="UTF-8" standalone="no"?>
<!DOCTYPE svg PUBLIC "-//W3C//DTD SVG 1.1//EN" "http://www.w3.org/Graphics/SVG/1.1/DTD/svg11.dtd">
<svg width="100%" height="100%" viewBox="0 0 228 228" version="1.1" xmlns="http://www.w3.org/2000/svg" xmlns:xlink="http://www.w3.org/1999/xlink" xml:space="preserve" xmlns:serif="http://www.serif.com/" style="fill-rule:evenodd;clip-rule:evenodd;stroke-miterlimit:2;">
    <g>
        <path d="M227.123,114.493C227.123,51.997 176.003,0.877 113.507,0.877C51.227,0.877 0.107,51.997 0.107,114.493C0.107,176.772 51.227,227.893 113.507,227.893C176.003,227.893 227.123,176.772 227.123,114.493Z" style="fill:rgb(211,63,39);fill-rule:nonzero;"/>
        <path d="M227.123,114.493C227.123,51.997 176.003,0.877 113.507,0.877C51.227,0.877 0.107,51.997 0.107,114.493C0.107,176.772 51.227,227.893 113.507,227.893C176.003,227.893 227.123,176.772 227.123,114.493Z" style="fill:none;stroke:rgb(211,63,39);stroke-width:0.22px;"/>
        <path d="M58.355,179.581L178.523,59.413C191.627,75.037 198.683,94.333 198.683,114.493C198.683,161.725 160.667,199.741 113.507,199.741C93.275,199.741 73.979,192.685 58.355,179.581Z" style="fill:white;fill-rule:nonzero;"/>
        <path d="M58.355,179.581L178.523,59.413C191.627,75.037 198.683,94.333 198.683,114.493C198.683,161.725 160.667,199.741 113.507,199.741C93.275,199.741 73.979,192.685 58.355,179.581Z" style="fill:none;stroke:rgb(241,93,42);stroke-width:0.22px;"/>
        <path d="M168.587,49.477C153.251,36.373 133.667,29.317 113.507,29.317C66.275,29.317 28.259,67.333 28.259,114.493C28.259,134.725 35.315,154.309 48.419,169.644L168.587,49.477Z" style="fill:white;fill-rule:nonzero;"/>
        <path d="M168.587,49.477C153.251,36.373 133.667,29.317 113.507,29.317C66.275,29.317 28.259,67.333 28.259,114.493C28.259,134.725 35.315,154.309 48.419,169.644L168.587,49.477Z" style="fill:none;stroke:rgb(241,93,42);stroke-width:0.22px;"/>
        <path d="M139.067,98.868C143.891,105.708 146.411,113.701 146.411,122.197L146.411,185.557L125.963,185.557L125.963,122.197C125.963,119.389 125.387,116.509 124.235,113.989L139.067,98.868Z" style="fill:rgb(35,31,32);fill-rule:nonzero;"/>
        <path d="M139.067,98.868C143.891,105.708 146.411,113.701 146.411,122.197L146.411,185.557L125.963,185.557L125.963,122.197C125.963,119.389 125.387,116.509 124.235,113.989L139.067,98.868Z" style="fill:none;stroke:rgb(35,31,32);stroke-width:0.22px;"/>
        <path d="M114.299,103.477C111.492,102.037 108.323,101.459 105.227,101.459L65.483,101.459L67.139,111.108C67.139,111.685 66.851,111.973 66.563,111.973C66.275,111.973 66.275,111.973 66.059,111.685L38.195,92.101C37.331,91.813 37.331,90.661 38.195,90.373L66.059,70.789C66.563,70.501 67.139,70.789 67.139,71.365L67.139,71.652L65.771,81.013L105.227,81.013C113.723,81.013 122.291,83.532 129.42,88.645L114.299,103.477Z" style="fill:rgb(35,31,32);fill-rule:nonzero;"/>
        <path d="M114.299,103.477C111.492,102.037 108.323,101.459 105.227,101.459L65.483,101.459L67.139,111.108C67.139,111.685 66.851,111.973 66.563,111.973C66.275,111.973 66.275,111.973 66.059,111.685L38.195,92.101C37.331,91.813 37.331,90.661 38.195,90.373L66.059,70.789C66.563,70.501 67.139,70.789 67.139,71.365L67.139,71.652L65.771,81.013L105.227,81.013C113.723,81.013 122.291,83.532 129.42,88.645L114.299,103.477Z" style="fill:none;stroke:rgb(35,31,32);stroke-width:0.22px;"/>
    </g>
</svg>
