<?xml version="1.0" encoding="UTF-8" standalone="no"?>
<!DOCTYPE svg PUBLIC "-//W3C//DTD SVG 1.1//EN" "http://www.w3.org/Graphics/SVG/1.1/DTD/svg11.dtd">
<svg width="100%" height="100%" viewBox="0 0 596 310" version="1.1" xmlns="http://www.w3.org/2000/svg" xmlns:xlink="http://www.w3.org/1999/xlink" xml:space="preserve" xmlns:serif="http://www.serif.com/" style="fill-rule:evenodd;clip-rule:evenodd;stroke-linecap:round;stroke-linejoin:round;stroke-miterlimit:2;">
    <g>
        <rect x="0.354" y="0.471" width="594.568" height="309.175" style="fill-rule:nonzero;"/>
        <rect x="0.354" y="0.471" width="594.568" height="309.175" style="fill:none;stroke:black;stroke-width:0.71px;"/>
        <rect x="12.245" y="12.363" width="570.785" height="285.392" style="fill:white;fill-rule:nonzero;"/>
        <rect x="12.245" y="12.363" width="570.785" height="285.392" style="fill:none;stroke:black;stroke-width:0.71px;"/>
        <path d="M540.353,216.231C540.353,203.778 530.256,193.682 517.802,193.682C505.349,193.682 495.252,203.778 495.252,216.231C495.252,228.686 505.349,238.782 517.802,238.782C530.256,238.782 540.353,228.686 540.353,216.231Z" style="fill-rule:nonzero;"/>
        <path d="M540.353,216.231C540.353,203.778 530.256,193.682 517.802,193.682C505.349,193.682 495.252,203.778 495.252,216.231C495.252,228.686 505.349,238.782 517.802,238.782C530.256,238.782 540.353,228.686 540.353,216.231Z" style="fill:none;stroke:black;stroke-width:0.71px;"/>
        <path d="M421.381,216.231C421.381,203.778 411.286,193.682 398.832,193.682C386.377,193.682 376.281,203.778 376.281,216.231C376.281,228.686 386.377,238.782 398.832,238.782C411.286,238.782 421.381,228.686 421.381,216.231Z" style="fill-rule:nonzero;"/>
        <path d="M421.381,216.231C421.381,203.778 411.286,193.682 398.832,193.682C386.377,193.682 376.281,203.778 376.281,216.231C376.281,228.686 386.377,238.782 398.832,238.782C411.286,238.782 421.381,228.686 421.381,216.231Z" style="fill:none;stroke:black;stroke-width:0.71px;"/>
        <path d="M288.414,216.231C288.414,203.778 278.317,193.682 265.864,193.682C253.41,193.682 243.314,203.778 243.314,216.231C243.314,228.686 253.41,238.782 265.864,238.782C278.317,238.782 288.414,228.686 288.414,216.231Z" style="fill-rule:nonzero;"/>
        <path d="M288.414,216.231C288.414,203.778 278.317,193.682 265.864,193.682C253.41,193.682 243.314,203.778 243.314,216.231C243.314,228.686 253.41,238.782 265.864,238.782C278.317,238.782 288.414,228.686 288.414,216.231Z" style="fill:none;stroke:black;stroke-width:0.71px;"/>
        <path d="M114.233,216.231C114.233,203.778 104.138,193.682 91.683,193.682C79.229,193.682 69.133,203.778 69.133,216.231C69.133,228.686 79.229,238.782 91.683,238.782C104.138,238.782 114.233,228.686 114.233,216.231Z" style="fill-rule:nonzero;"/>
        <path d="M114.233,216.231C114.233,203.778 104.138,193.682 91.683,193.682C79.229,193.682 69.133,203.778 69.133,216.231C69.133,228.686 79.229,238.782 91.683,238.782C104.138,238.782 114.233,228.686 114.233,216.231Z" style="fill:none;stroke:black;stroke-width:0.71px;"/>
        <path d="M296.166,215.031C295.779,205.276 290.72,196.305 282.574,190.926L329.533,190.926L329.533,215.031L296.166,215.031Z" style="fill-rule:nonzero;"/>
        <path d="M296.166,215.031C295.779,205.276 290.72,196.305 282.574,190.926L329.533,190.926L329.533,215.031L296.166,215.031Z" style="fill:none;stroke:black;stroke-width:0.65px;"/>
        <path d="M363.748,215.031L363.748,190.926L382.121,190.926C373.975,196.305 368.916,205.276 368.529,215.031C368.479,216.314 367.423,217.329 366.139,217.329C364.854,217.329 363.798,216.314 363.748,215.031Z" style="fill-rule:nonzero;"/>
        <path d="M363.748,215.031L363.748,190.926L382.121,190.926C373.975,196.305 368.916,205.276 368.529,215.031C368.479,216.314 367.423,217.329 366.139,217.329C364.854,217.329 363.798,216.314 363.748,215.031Z" style="fill:none;stroke:black;stroke-width:0.26px;"/>
        <path d="M548.105,215.031C547.718,205.276 542.659,196.305 534.513,190.926L555.034,190.926L555.034,215.031L548.105,215.031Z" style="fill-rule:nonzero;"/>
        <path d="M548.105,215.031C547.718,205.276 542.659,196.305 534.513,190.926L555.034,190.926L555.034,215.031L548.105,215.031Z" style="fill:none;stroke:black;stroke-width:0.29px;"/>
        <path d="M487.501,215.031L429.134,215.031C428.747,205.276 423.688,196.305 415.542,190.926L501.092,190.926C492.946,196.305 487.887,205.276 487.501,215.031Z" style="fill-rule:nonzero;"/>
        <path d="M487.501,215.031L429.134,215.031C428.747,205.276 423.688,196.305 415.542,190.926L501.092,190.926C492.946,196.305 487.887,205.276 487.501,215.031Z" style="fill:none;stroke:black;stroke-width:0.71px;"/>
        <path d="M235.562,215.031L142.912,215.031L142.912,190.926L249.153,190.926C241.007,196.305 235.948,205.276 235.562,215.031Z" style="fill-rule:nonzero;"/>
        <path d="M235.562,215.031L142.912,215.031L142.912,190.926L249.153,190.926C241.007,196.305 235.948,205.276 235.562,215.031Z" style="fill:none;stroke:black;stroke-width:0.71px;"/>
        <path d="M329.533,179.262L142.912,179.262L142.912,82.841C142.912,78.716 144.551,74.761 147.467,71.844C150.383,68.928 154.339,67.289 158.464,67.289L313.981,67.289C318.106,67.289 322.062,68.928 324.979,71.844C327.895,74.761 329.533,78.716 329.533,82.841L329.533,179.262Z" style="fill-rule:nonzero;"/>
        <path d="M329.533,179.262L142.912,179.262L142.912,82.841C142.912,78.716 144.551,74.761 147.467,71.844C150.383,68.928 154.339,67.289 158.464,67.289L313.981,67.289C318.106,67.289 322.062,68.928 324.979,71.844C327.895,74.761 329.533,78.716 329.533,82.841L329.533,179.262Z" style="fill:none;stroke:black;stroke-width:0.71px;"/>
        <path d="M363.748,179.262L363.748,82.841C363.748,78.716 365.387,74.761 368.303,71.844C371.219,68.928 375.175,67.289 379.3,67.289L539.482,67.289C543.607,67.289 547.563,68.928 550.479,71.844C553.396,74.761 555.034,78.716 555.034,82.841L555.034,179.262L363.748,179.262Z" style="fill-rule:nonzero;"/>
        <path d="M363.748,179.262L363.748,82.841C363.748,78.716 365.387,74.761 368.303,71.844C371.219,68.928 375.175,67.289 379.3,67.289L539.482,67.289C543.607,67.289 547.563,68.928 550.479,71.844C553.396,74.761 555.034,78.716 555.034,82.841L555.034,179.262L363.748,179.262Z" style="fill:none;stroke:black;stroke-width:0.71px;"/>
        <path d="M130.16,210.366C130.16,211.602 129.668,212.79 128.793,213.664C127.918,214.539 126.731,215.031 125.494,215.031L121.986,215.031C121.341,198.763 107.965,185.906 91.683,185.906C75.402,185.906 62.026,198.763 61.381,215.031L53.01,215.031C48.885,215.031 44.929,213.392 42.013,210.475C39.097,207.559 37.458,203.603 37.458,199.479L37.458,161.038L50.956,118.346C53.001,111.878 59.002,107.482 65.785,107.482L114.608,107.482C123.197,107.482 130.16,114.445 130.16,123.034L130.16,210.366Z" style="fill-rule:nonzero;"/>
        <path d="M130.16,210.366C130.16,211.602 129.668,212.79 128.793,213.664C127.918,214.539 126.731,215.031 125.494,215.031L121.986,215.031C121.341,198.763 107.965,185.906 91.683,185.906C75.402,185.906 62.026,198.763 61.381,215.031L53.01,215.031C48.885,215.031 44.929,213.392 42.013,210.475C39.097,207.559 37.458,203.603 37.458,199.479L37.458,161.038L50.956,118.346C53.001,111.878 59.002,107.482 65.785,107.482L114.608,107.482C123.197,107.482 130.16,114.445 130.16,123.034L130.16,210.366Z" style="fill:none;stroke:black;stroke-width:0.71px;"/>
        <path d="M55.595,156.301L66.999,123.253L116.163,123.253L116.163,156.301L55.595,156.301Z" style="fill:white;fill-rule:nonzero;"/>
        <path d="M55.595,156.301L66.999,123.253L116.163,123.253L116.163,156.301L55.595,156.301Z" style="fill:none;stroke:black;stroke-width:0.71px;"/>
    </g>
</svg>
