<?xml version="1.0" encoding="UTF-8" standalone="no"?>
<!DOCTYPE svg PUBLIC "-//W3C//DTD SVG 1.1//EN" "http://www.w3.org/Graphics/SVG/1.1/DTD/svg11.dtd">
<svg width="100%" height="100%" viewBox="0 0 322 246" version="1.1" xmlns="http://www.w3.org/2000/svg" xmlns:xlink="http://www.w3.org/1999/xlink" xml:space="preserve" xmlns:serif="http://www.serif.com/" style="fill-rule:evenodd;clip-rule:evenodd;stroke-linejoin:round;stroke-miterlimit:2;">
    <g>
        <path d="M315.5,240.5L5.5,240.5L5.5,6L315.5,6L315.5,240.5ZM0,0.5L0,246L321.25,246L321.25,0.5L0,0.5Z"/>
        <rect x="5.5" y="6" width="310" height="234.5" style="fill:white;"/>
        <path d="M51.5,196L51.5,163L44.75,163L44.75,202.5L69.25,202.5L69.25,196L51.5,196Z"/>
        <path d="M82.5,197.75L81.5,197.5L80.25,197L79.25,196.5L78.75,196L78.25,195.25L77.25,193.25L77,192.25L76.5,189.75L76.5,187.75L76.75,186.5L76.75,185.25L77,184.25L77.5,182.75L78,181.75L78.5,181L79.25,180.25L79.75,180L80.75,179.25L82,179L83.5,179L85.5,179.5L86.5,180.25L87.75,181.25L88.25,182.25L88.5,183.25L88.75,184L89,185L89.25,186.25L89.25,191.25L89,192.25L88.5,193.5L88.5,193.75L88,195L87.5,195.75L86.5,196.5L86,196.75L85.25,197.25L84,197.5L83,197.75L82.5,197.75ZM95,185L94.25,181.25L92.75,178.25L90.25,175.75L88.25,174.75L87.5,174.25L86.25,174L85.25,173.5L81.75,173.5L79.5,174L78.5,174.25L76.5,175.25L75.75,176L75.5,176L74.5,176.75L73.25,178.5L72.75,179.5L72,180.5L71.25,182.5L71.25,182.75L71,183.75L71,184.75L70.75,186L70.75,190.75L71,192L71,193L71.25,194L71.5,194.25L71.75,195.5L72.25,196.25L72.75,197.5L73.25,198.25L74.75,200L75.5,200.75L75.75,200.75L77.5,202L78.5,202.5L79.5,202.75L80.75,203L81.75,203.25L84.25,203.25L85.25,203L87.5,202.25L88.5,202L89.5,201.5L90.5,200.75L92,199L92.75,198.25L93.25,197.25L94,196.25L94.25,195.25L95,191.5L95.25,189.5L95.25,187L95,185Z"/>
        <path d="M131.5,174.25L126.75,193L122.25,174.25L116,174.25L111.5,193L107,174.25L100.75,174.25L107.75,202.5L115.25,202.5L119.25,186.75L123,202.5L130.5,202.5L137.5,174.25L131.5,174.25Z"/>
        <path d="M183.75,194.5L183,195.5L181.5,197L179.5,198L177.75,198L176.5,197.75L175.5,197.25L174.75,196.75L173.5,195.5L173,194.5L172.5,193L172.25,192L172.25,190.75L172,189.75L172,187L172.25,185.75L172.25,184.5L172.5,183.5L173.75,181L174.75,180.5L175.25,180L176,179.5L177.25,179.25L179.5,179.25L180.5,179.5L181.5,180L182.25,180.75L182.25,181L183,181.75L183.75,182.75L184,183.75L184,193.5L183.75,194.5ZM184,174.5L184,175.5L183,174.75L182,174.25L181,174L179.75,173.75L178.75,173.5L178.5,173.5L178,173.75L177,173.75L174.75,174.25L173.75,174.5L171.75,175.5L170.75,176.25L169.5,177.5L169,178.25L168.25,179L166.75,182L166.5,183.25L166.25,184L166.25,186.25L166,187.25L166,189.5L166.25,190.5L166.25,193L166.5,194L166.5,194.25L167,195.5L168,197.5L168.5,198.25L169.25,199.25L170.75,200.75L171.25,201L173,202.25L174,202.5L175.25,203L177.25,203.5L178.75,203.5L181.25,203L182,202.75L183,202.25L184,201.5L184,204.75L183.75,205.75L183.25,206.75L182.5,207.75L181.5,208.25L180.75,208.75L179.5,209.25L176.75,209.25L175.5,209L174.5,209L173.5,208.75L172.25,208.25L170.25,207.75L169.25,207.25L166.75,212.25L167.5,212.5L169.5,213.5L170.75,213.75L172.75,214.25L174,214.5L176.25,214.75L178.75,214.75L181,214.5L183,214L185,213L186.75,211.5L186.75,211.25L187.5,210.5L188.25,209.5L188.75,208.5L189.25,207.75L189.5,206.5L190,204.5L190,174.5L184,174.5Z"/>
        <path d="M204.25,184.75L204.5,184L204.75,182.75L205.75,181L206.5,180.25L208,179.25L209,179L211.25,179L213.25,180L215,181.75L215.25,182.75L215.5,184L215.75,184.75L204.25,184.75ZM222,185.5L221.75,184.5L221.25,182L220.75,181L220.5,180L219.5,178L217.25,175.75L216.5,175.25L214.5,174.25L213.5,174L212.25,173.5L208,173.5L206.75,173.75L205.75,174.25L204.75,174.5L202.75,175.75L201.5,177L200.75,178L200,178.75L199.5,179.75L199.25,181L198.75,182L198.75,182.75L198.5,184L198,186L198,190L198.25,191.25L198.25,192.5L198.5,193.5L198.75,194.75L199.25,195.5L199.5,196.5L200.5,198.5L202,200.25L203,201L203.75,201.5L204.75,202L205.5,202.5L206.75,202.75L208.75,203.25L211.25,203.25L212.5,203L214.5,202.25L215.75,202L216.75,201.5L216.75,201.25L217.75,200.5L219.5,199L220.25,198.25L221.25,196.25L216.25,193.75L216.25,194L214.75,196L214.25,196.5L212.25,197.5L211.25,197.75L210,197.75L208.75,197.5L207.75,197.25L206.75,196.75L206.75,196.5L206,196L205,194.5L204.75,193.5L204.25,192.25L204,191L203.75,189.5L222,189.5L222.25,188.25L222.25,187.75L222,185.5Z"/>
        <path d="M244.5,196L243.75,196.5L242.5,197L241.5,197.5L240.5,197.75L238.5,197.75L237.25,197.5L236.25,197.25L235.25,196.75L234.5,196.25L233.75,195.5L233.5,194.5L233.25,193.25L233.25,192.5L233.75,191.5L234.5,190.5L235,190L236,189.75L237.25,189.5L244.5,189.5L244.75,196L244.5,196ZM250.25,181.5L250.25,180.5L249.75,179.5L249.25,178.25L248.75,177.5L246.5,175.25L243.5,173.75L242.5,173.5L241.25,173.5L240,173.25L237.5,173.25L235.25,173.5L234.25,173.75L232,174.25L228.75,175.25L230.75,180.5L232.25,179.75L234.5,179.25L235.75,179L238,178.75L240.5,178.75L241.5,179L242.5,179.5L243.5,180.25L244.25,181.25L244.5,182.25L244.5,184.75L235,184.75L233.75,185L232.75,185.5L232,186L231,186.5L229.75,187.5L229.25,188.5L228.5,189.5L228,190.25L227.75,191.25L227.5,192.5L227.5,194.75L227.75,196L228,197L228.5,198L229.5,199.5L230.25,200.25L232.25,201.5L232.5,201.75L233.5,202L234.5,202.5L235.5,202.75L238,203.25L240.5,203.25L241.5,203L242.5,202.5L243.75,202L244.5,201.5L244.5,202.5L250.5,202.5L250.5,182.5L250.25,181.5Z"/>
        <path d="M275.5,174L274.25,173.75L273.25,173.5L270.5,173.5L269.25,173.75L268.25,174.25L267.25,174.5L265.25,175.75L265.25,174.25L259.5,174.25L259.5,202.5L265.25,202.5L265.25,184.5L265.75,182.5L266.5,181.5L267.25,180.75L267.25,180.5L268.25,179.75L269.25,179.25L270.25,179L271.75,179L273,179.25L274,179.5L276,174.25L275.5,174Z"/>
        <path d="M148.5,72L147.25,74L145.75,75.75L145.75,76L143.75,77.5L141.75,78.5L139.5,79.25L137,79.5L136.75,79.5L134.25,79.25L132,78.5L130,77.5L128,76L128,75.75L126.5,73.75L125.25,71.75L124.75,69.5L124.5,67L124.5,62.5L124.75,60L125.5,57.75L126.5,55.75L128,53.75L128.25,53.75L130.25,52L132.25,51L134.5,50.5L137,50.25L139.5,50.5L142,51.25L144,52.25L147.5,55.75L148.5,58L149.25,60.25L149.5,62.75L149.5,67L149,69.75L148.5,72ZM164,72L163.75,67L163.5,64.5L163.25,62.25L162.75,59.75L162.25,57.5L162.25,57.25L162,57L161.25,54.75L160.5,52.25L159.5,50.25L156.5,46.25L154.75,44.5L153,43L152.75,43L150.75,41.5L148.75,40.25L146.5,39.25L144.25,38.5L142,38L139.5,37.5L135.75,37.5L133.25,37.75L130.75,38.25L128.5,38.75L126.25,39.75L124.25,40.5L122.25,42L120.25,43.25L117.5,46L116,48L114.75,49.75L113.5,52L112.5,54L112,56.25L111.25,58.5L111,61L111,67.25L111.25,70L111.5,72.25L112.25,74.5L114,79L115.25,80.75L116.75,82.75L118.5,84.5L119.5,85.25L121.25,87L125.25,89.5L127.5,90.5L132,91.5L134.5,92L138,92L140.25,91.75L142.5,91.25L145,90.25L147,89.25L149,87.75L148.75,88L148.25,90.25L147.5,92.5L146.5,94.75L145.5,97.25L144.5,99.5L143.25,101.75L141.75,103.25L140,104.75L138,105.75L135.75,106.25L133.25,106.5L130.75,106.25L128.5,105.5L126.5,104.25L124.5,102.75L116.25,113.25L117.25,114L119.25,115.25L121.5,116.5L123.75,117.5L126,118.25L128.25,118.75L130.5,119L133,119.25L134,119.25L136.5,119L139,118.5L141.25,118L143.5,117.25L145.75,116L148,115L148.75,114.25L150.75,112.75L152.5,111.25L154,109.5L155.5,107.5L156.75,105.5L157.75,103L158,102.75L159,100.25L160,98L160.75,95.75L161.5,93.25L162,91L162.75,88.5L163.25,86.25L163.5,83.75L163.75,81.5L164,79L164,76.5L164.25,74L164,72Z"/>
        <path d="M230.875,104L230.625,101.75L229.125,97.25L227.625,95.25L226.125,93.75L224.125,92.25L221.875,91.25L219.625,90.75L217.375,90.5L214.875,90.75L212.625,91.25L210.375,92.25L206.875,95.25L205.625,97.25L204.375,99.5L203.875,101.75L203.625,104L203.875,106.5L204.375,108.75L205.625,111L206.875,112.75L208.625,114.5L210.375,116L212.625,117L214.875,117.5L217.375,117.75L219.625,117.5L221.875,117L224.125,116L226.125,114.5L229.125,111L230.625,106.5L230.875,104Z" style="fill-rule:nonzero;"/>
        <path d="M230.875,104L230.625,101.75L229.125,97.25L227.625,95.25L226.125,93.75L224.125,92.25L221.875,91.25L219.625,90.75L217.375,90.5L214.875,90.75L212.625,91.25L210.375,92.25L206.875,95.25L205.625,97.25L204.375,99.5L203.875,101.75L203.625,104L203.875,106.5L204.375,108.75L205.625,111L206.875,112.75L208.625,114.5L210.375,116L212.625,117L214.875,117.5L217.375,117.75L219.625,117.5L221.875,117L224.125,116L226.125,114.5L229.125,111L230.625,106.5L230.875,104Z" style="fill:none;"/>
        <path d="M193.625,52L193.375,49.5L192.875,47.25L191.625,45L190.375,43.25L188.625,41.5L186.875,40.25L184.625,39L182.375,38.5L179.875,38.25L177.625,38.5L175.375,39L173.125,40.25L171.125,41.5L168.125,45L167.125,47.25L166.625,49.5L166.375,52L166.625,54.25L167.125,56.75L168.125,58.75L169.625,60.751L171.125,62.501L173.125,63.751L175.375,64.751L177.625,65.251L179.875,65.501L182.375,65.251L184.625,64.751L186.875,63.751L188.625,62.501L190.375,60.751L191.625,58.75L192.875,56.75L193.375,54.25L193.625,52Z" style="fill-rule:nonzero;"/>
        <path d="M193.625,52L193.375,49.5L192.875,47.25L191.625,45L190.375,43.25L188.625,41.5L186.875,40.25L184.625,39L182.375,38.5L179.875,38.25L177.625,38.5L175.375,39L173.125,40.25L171.125,41.5L168.125,45L167.125,47.25L166.625,49.5L166.375,52L166.625,54.25L167.125,56.75L168.125,58.75L169.625,60.751L171.125,62.501L173.125,63.751L175.375,64.751L177.625,65.251L179.875,65.501L182.375,65.251L184.625,64.751L186.875,63.751L188.625,62.501L190.375,60.751L191.625,58.75L192.875,56.75L193.375,54.25L193.625,52Z" style="fill:none;"/>
        <path d="M186.875,52L186.625,50.25L185.875,48.5L184.875,47.25L183.375,46L181.875,45.25L179.875,45L178.375,45.25L176.625,46L175.125,47.25L174.125,48.5L173.375,50.25L173.125,52L173.375,53.75L174.125,55.25L175.125,56.75L176.625,57.75L178.375,58.5L179.875,58.75L181.875,58.5L183.375,57.75L184.875,56.75L185.875,55.25L186.625,53.75L186.875,52Z" style="fill:white;fill-rule:nonzero;"/>
        <path d="M186.875,52L186.625,50.25L185.875,48.5L184.875,47.25L183.375,46L181.875,45.25L179.875,45L178.375,45.25L176.625,46L175.125,47.25L174.125,48.5L173.375,50.25L173.125,52L173.375,53.75L174.125,55.25L175.125,56.75L176.625,57.75L178.375,58.5L179.875,58.75L181.875,58.5L183.375,57.75L184.875,56.75L185.875,55.25L186.625,53.75L186.875,52Z" style="fill:none;"/>
        <path d="M220.125,38.25L219.375,39L218.875,40.25L217.875,41.5L216.875,43.25L215.375,45L215.125,45.25L214.875,46L214.125,47.25L213.125,48.5L212.375,49.5L211.875,50.25L210.875,52L209.625,53.75L209.125,54.25L208.625,55.25L207.625,56.75L206.875,57.75L206.375,58.5L206.125,58.75L204.875,60.751L203.875,62.501L202.875,63.751L202.125,64.751L201.875,65.251L201.625,65.501L184.875,90.5L184.625,90.75L184.375,91.25L183.625,92.25L181.625,95.25L180.125,97.25L180.125,97.5L179.625,98.25L178.875,99.25L178.875,99.5L177.875,100.75L177.125,101.75L176.625,102.25L175.625,104L174.375,105.75L173.875,106.5L173.125,107.5L171.625,110L171.125,110.75L170.875,111L169.625,112.75L168.625,114.5L167.625,116L166.875,117L166.625,117.5L166.375,117.75L177.125,117.75L177.875,117L178.375,116L179.375,114.5L180.375,112.75L181.875,111L181.875,110.75L182.375,110L183.125,108.75L184.125,107.5L184.875,106.5L185.125,105.75L187.625,102.25L187.875,101.75L188.625,100.75L189.625,99.5L189.625,99.25L190.375,98.25L190.875,97.5L190.875,97.25L192.375,95.25L194.375,92.25L195.125,91.25L195.375,90.75L195.625,90.5L212.375,65.501L213.125,64.751L213.625,63.751L214.625,62.501L215.625,60.751L217.125,58.75L217.375,58.5L217.625,57.75L218.375,56.75L219.375,55.25L220.125,54.25L220.625,53.75L221.625,52L222.875,50.25L223.375,49.5L223.875,48.5L224.875,47.25L225.625,46L226.125,45.25L226.375,45L227.625,43.25L228.625,41.5L229.625,40.25L230.375,39L230.625,38.5L230.875,38.25L220.125,38.25Z"/>
        <path d="M224.125,104L223.875,102.25L223.125,100.75L222.125,99.25L220.625,98.25L219.125,97.5L217.375,97.25L215.375,97.5L213.875,98.25L212.375,99.25L211.375,100.75L210.625,102.25L210.375,104L210.625,105.75L211.375,107.5L212.375,108.75L213.875,110L215.375,110.75L217.375,111L219.125,110.75L220.625,110L222.125,108.75L223.125,107.5L223.875,105.75L224.125,104Z" style="fill:white;fill-rule:nonzero;"/>
        <path d="M224.125,104L223.875,102.25L223.125,100.75L222.125,99.25L220.625,98.25L219.125,97.5L217.375,97.25L215.375,97.5L213.875,98.25L212.375,99.25L211.375,100.75L210.625,102.25L210.375,104L210.625,105.75L211.375,107.5L212.375,108.75L213.875,110L215.375,110.75L217.375,111L219.125,110.75L220.625,110L222.125,108.75L223.125,107.5L223.875,105.75L224.125,104Z" style="fill:none;"/>
    </g>
</svg>
