<?xml version="1.0" encoding="UTF-8" standalone="no"?>
<!DOCTYPE svg PUBLIC "-//W3C//DTD SVG 1.1//EN" "http://www.w3.org/Graphics/SVG/1.1/DTD/svg11.dtd">
<svg width="100%" height="100%" viewBox="0 0 497 216" version="1.1" xmlns="http://www.w3.org/2000/svg" xmlns:xlink="http://www.w3.org/1999/xlink" xml:space="preserve" xmlns:serif="http://www.serif.com/" style="fill-rule:evenodd;clip-rule:evenodd;stroke-linejoin:round;stroke-miterlimit:2;">
    <g>
        <path d="M0,215.875L496.875,215.875" style="fill:none;"/>
        <rect x="0" y="1" width="496.875" height="214.875" style="fill:white;"/>
        <path d="M103,198.25L98.5,198L94.125,197.375L89.625,196.625L85.25,195.625L81,194.375L76.625,193L73,203L77.75,204.625L82.625,206L87.5,207.125L92.5,208L97.5,208.625L102.375,209L107.5,209.125L107.5,198.375L103,198.25Z" style="fill:rgb(35,31,32);"/>
        <path d="M46.25,174.375L43.125,171.25L40,168L37.125,164.5L31.875,157.25L29.625,153.375L20.25,158.875L22.875,163.125L25.75,167.25L28.75,171.25L32,175.125L35.375,178.75L39,182.25L42.75,185.625L49.625,177.375L46.25,174.375Z" style="fill:rgb(35,31,32);"/>
        <path d="M17.75,115.125L17.5,110.75L17.5,106.25L17.75,101.75L18.25,97.25L18.875,92.875L8.25,91L7.5,96L7.125,100.875L6.75,105.875L6.75,111L7.5,121L8.25,126L18.875,124.125L18.25,119.625L17.75,115.125Z" style="fill:rgb(35,31,32);"/>
        <path d="M42.75,31.375L39,34.625L35.375,38.125L32,41.875L28.75,45.625L25.75,49.75L22.875,53.875L20.25,58.125L29.625,63.5L31.875,59.625L34.5,55.875L37.125,52.375L40,48.875L43.125,45.625L46.25,42.5L49.625,39.5L42.75,31.375Z" style="fill:rgb(35,31,32);"/>
        <rect x="138.75" y="198.375" width="31.375" height="10.75" style="fill:rgb(35,31,32);"/>
        <rect x="201.5" y="198.375" width="31.25" height="10.75" style="fill:rgb(35,31,32);"/>
        <rect x="264.125" y="198.375" width="31.375" height="10.75" style="fill:rgb(35,31,32);"/>
        <rect x="326.75" y="198.375" width="31.375" height="10.75" style="fill:rgb(35,31,32);"/>
        <path d="M420.125,193L415.875,194.375L411.625,195.625L407.25,196.625L402.875,197.375L398.375,198L393.875,198.25L389.375,198.375L389.5,209.125L394.5,209L399.5,208.625L404.5,208L409.375,207.125L414.25,206L419.125,204.625L423.875,203L420.125,193Z" style="fill:rgb(35,31,32);"/>
        <path d="M465,157.25L462.5,160.875L459.75,164.5L456.875,168L453.875,171.25L450.625,174.375L447.25,177.375L454.125,185.625L457.875,182.25L461.5,178.75L465,175.125L468.125,171.25L471.125,167.25L474,163.125L476.625,158.875L467.375,153.375L465,157.25Z" style="fill:rgb(35,31,32);"/>
        <path d="M489.875,100.875L489.375,96L488.625,91L478,92.875L478.625,97.25L479.125,101.75L479.375,106.25L479.375,110.75L479.125,115.125L478.625,119.625L478,124.125L488.625,126L489.375,121L489.875,116L490.125,111L490.125,105.875L489.875,100.875Z" style="fill:rgb(35,31,32);"/>
        <path d="M471.125,49.75L468.125,45.625L465,41.875L461.5,38.125L457.875,34.625L454.125,31.375L447.25,39.5L450.625,42.5L453.875,45.625L456.875,48.875L459.75,52.375L462.5,55.875L465,59.625L467.375,63.5L476.625,58.125L474,53.875L471.125,49.75Z" style="fill:rgb(35,31,32);"/>
        <path d="M97.5,8.25L92.5,8.875L87.5,9.75L82.625,10.875L77.75,12.25L73,13.75L76.625,23.875L81,22.5L85.25,21.25L89.625,20.25L94.125,19.5L98.5,18.875L103,18.625L107.5,18.5L107.5,7.75L102.375,7.875L97.5,8.25Z" style="fill:rgb(35,31,32);"/>
        <rect x="138.75" y="7.75" width="31.375" height="10.75" style="fill:rgb(35,31,32);"/>
        <rect x="201.5" y="7.75" width="31.25" height="10.75" style="fill:rgb(35,31,32);"/>
        <rect x="264.125" y="7.75" width="31.375" height="10.75" style="fill:rgb(35,31,32);"/>
        <rect x="326.75" y="7.75" width="31.375" height="10.75" style="fill:rgb(35,31,32);"/>
        <path d="M419.125,12.25L414.25,10.875L409.375,9.75L404.5,8.875L399.5,8.25L394.5,7.875L389.5,7.75L389.375,18.5L393.875,18.625L398.375,18.875L402.875,19.5L407.25,20.25L411.625,21.25L415.875,22.5L420.125,23.875L423.875,13.75L419.125,12.25Z" style="fill:rgb(35,31,32);"/>
        <path d="M92.625,72.75L108.125,72.75L110.25,73.125L112.125,73.75L113.875,74.875L115.5,76.25L116.25,77.125L117.375,78.75L118.25,80.625L118.625,82.625L118.875,84.75L118.75,85.75L118.5,87.875L117.75,89.75L116.75,91.5L115.5,93.125L114.625,93.875L112.875,95.125L111.125,96L109.25,96.5L107,96.625L92.625,96.625L92.625,72.75ZM117.125,108.375L117.875,108.125L119.875,107.25L121.625,106.25L124.875,103.75L126.375,102.25L127.75,100.75L129,99.125L129.375,98.5L130.5,96.75L131.375,94.875L132.125,93L132.75,91L133.125,88.875L133.375,86.875L133.5,84.75L133.375,83.125L133.25,81L132.875,79L132.375,77L131.75,75.125L130.875,73.25L129.875,71.5L128.75,69.75L127.5,68.125L124.875,65.5L123.25,64.125L121.5,63L119.875,62L118,61.125L116.125,60.375L114.125,59.875L112.125,59.5L110,59.25L107.875,59.125L78.125,59.125L78.125,144.25L92.625,144.25L92.625,110.25L101.875,110.25L118.875,144.25L135,144.25L117.125,108.375Z" style="fill:rgb(35,31,32);"/>
        <rect x="154.625" y="83.5" width="12.875" height="60.75" style="fill:rgb(35,31,32);fill-rule:nonzero;"/>
        <path d="M161.125,57.625L159,57.875L157.25,58.75L156,59.625L154.75,61.25L154.125,63.25L153.875,64.875L154.125,67L155,68.75L156,69.875L157.625,71.125L159.5,71.75L161.125,72L163.25,71.625L165,70.75L166.25,69.875L167.5,68.25L168.125,66.25L168.25,64.875L168,62.875L167.125,61L166.25,59.75L164.625,58.5L162.625,57.75L161.125,57.625Z" style="fill:rgb(35,31,32);"/>
        <path d="M237,101L236.75,98.875L236.25,96.875L235.625,95L234.875,93.125L233.875,91.375L232.625,89.75L231.25,88.25L231,88L229.5,86.625L227.875,85.375L226.125,84.25L224.375,83.5L222.375,82.75L220.5,82.375L218.375,82L216.125,81.875L215.875,81.875L213.75,82L211.625,82.25L209.625,82.75L207.75,83.25L205.875,84.125L204,85.125L202.375,86.25L200.75,87.5L200.75,83.5L187.875,83.5L187.875,144.25L200.75,144.25L200.75,105.625L200.875,103.375L201.25,101.25L202.125,99.5L203.25,97.875L204,97L205.5,95.75L207.25,94.75L209.125,94.125L211.375,93.875L212.625,93.75L214.875,94L216.875,94.5L218.75,95.25L220.375,96.25L221.125,97L222.375,98.625L223.375,100.375L224,102.25L224.375,104.375L224.375,144.25L237.125,144.25L237.125,103.125L237,101Z" style="fill:rgb(35,31,32);"/>
        <path d="M289.75,123.625L289.5,125.75L288.75,127.625L287.625,129.25L286.25,130.875L285.125,131.875L283.5,133L281.625,133.875L279.625,134.375L277.5,134.5L275.375,134.375L273.375,133.75L271.5,133L269.875,131.875L269.75,131.875L268.25,130.375L267,128.875L266,127L265.375,125L265.375,124.875L264.875,122.625L264.375,120.5L264.125,118.5L264,116.375L264,111.75L264.125,109.75L264.875,105.5L265.375,103.5L266,101.5L267,99.75L268.25,98.125L269.875,96.75L271.625,95.625L273.5,94.75L275.5,94.375L277.5,94.125L279,94.25L281.125,94.625L283,95.25L284.75,96.375L286.25,97.75L287.25,98.75L288.375,100.375L289.25,102.25L289.75,104.125L289.875,106.25L289.875,122.125L289.75,123.625ZM289.875,83.875L289.875,86.375L288.25,85.25L286.5,84.125L284.5,83.375L282.625,82.75L280.625,82.375L278.625,82.25L278,82.25L274.75,82.5L272.75,82.75L270.75,83.25L268.75,83.875L266.875,84.75L265.125,85.625L263.375,86.75L261.625,88L260.75,88.875L259.125,90.25L257.75,91.75L256.5,93.375L255.375,95.125L253.625,98.875L252.375,102.875L252.25,103.75L252,105.75L251.625,107.875L251.375,109.875L251.25,112L251.25,115.375L251.5,119.625L251.75,121.75L252,123.75L252.375,125.75L252.75,126.875L253.375,128.875L254,130.75L255,132.625L256,134.375L258.5,137.625L260,139.125L261.625,140.5L264.25,142.375L266,143.375L267.875,144.25L269.875,145L271.75,145.5L273.75,145.875L275.875,146.125L278,146.25L278.625,146.25L280.5,146.125L282.5,145.75L284.5,145.25L286.375,144.5L288.125,143.5L289.875,142.25L289.875,148L289.5,150L288.875,151.875L287.875,153.625L286.5,155.25L285.625,156L283.875,157.25L282,158L280.125,158.5L278.441,158.698L276.25,158.625L272,158.375L270,158L267.875,157.625L263.875,156.625L261.875,156L259.875,155.125L258,154.375L252.875,165.125L253.5,165.375L255.5,166.25L257.5,166.875L259.5,167.625L261.5,168.25L263.5,168.75L267.625,169.625L269.625,169.875L271.75,170.25L273.75,170.375L278,170.5L279,170.5L281,170.375L283.125,170L285.125,169.625L287,169L288.875,168.125L292.375,166.125L294,164.875L295.5,163.375L296.125,162.625L297.5,161.125L298.75,159.375L299.875,157.75L301.375,154L302,152.125L302.375,150.125L302.625,148L302.75,145.75L302.75,83.875L289.875,83.875Z" style="fill:rgb(35,31,32);"/>
        <path d="M418.625,114.625L418.125,112.375L417.375,110.25L416.5,108.25L415.375,106.375L414,104.625L412.5,103L410.75,101.375L408.875,100L408.125,99.5L410,98L411.75,96.375L413.25,94.625L414.375,92.75L415.5,90.75L416.25,88.625L416.75,86.5L417,84.125L417.125,82.125L417,79.75L416.75,77.375L416.25,75.125L415.5,72.875L414.5,70.75L413.375,68.875L412.125,67L410.5,65.125L409.875,64.5L408.125,62.875L406.375,61.5L404.375,60.25L402.25,59.25L400.125,58.5L397.875,57.875L395.625,57.5L393.125,57.25L389.5,57.25L387.125,57.375L384.75,57.75L382.5,58.375L380.375,59.125L378.25,60.125L376.25,61.25L375.125,62L373.25,63.5L371.625,65.125L370.125,67L368.875,68.875L367.625,70.875L366.75,73.125L366.375,74.375L380.25,79L381.125,76.75L382.375,74.75L383.875,73.25L385.5,72.125L387.625,71.5L389.875,71.25L391.375,71.25L393.75,71.5L396,72.125L397.875,73.375L399.125,74.375L400.625,76.25L401.625,78.25L402.125,80.5L402.25,82.125L402,84.5L401.25,86.75L400.125,88.625L399.125,89.625L397.375,91.125L395.25,92.125L393,92.625L391.375,92.75L387.375,92.75L387.375,106.75L391.375,106.75L393.75,106.875L396,107.5L398,108.5L399.875,109.875L400.375,110.375L402,112.25L403.125,114.25L403.75,116.375L404.125,118.75L404.125,119.375L403.875,121.75L403.375,124L402.25,126.125L400.875,127.875L400.5,128.375L398.625,129.875L396.625,131L394.5,131.75L392.125,132.125L391.375,132.25L388.875,132.125L386.75,131.625L384.625,130.875L382.875,129.875L381.25,128.375L380,126.75L378.875,124.75L378.375,123.375L364.25,128.375L365.125,130.625L366.125,132.75L367.5,134.75L368.875,136.625L372.125,139.875L373.875,141.25L375.875,142.625L378,143.625L380.125,144.5L382.375,145.25L384.625,145.75L387,146L389.25,146.125L392.375,146.125L394.75,146L397.25,145.75L399.5,145.25L401.75,144.5L403.75,143.75L405.75,142.75L407.75,141.375L409.5,140L411.375,138.375L413,136.625L414.375,134.75L415.625,132.75L416.75,130.75L417.5,128.75L418.25,126.5L418.625,124.25L419,121.75L419,117L418.625,114.625Z" style="fill:rgb(35,31,32);"/>
        <rect x="0" y="0.875" width="496.875" height="215.125" style="fill:none;"/>
    </g>
</svg>
