<?xml version="1.0" encoding="UTF-8" standalone="no"?>
<!DOCTYPE svg PUBLIC "-//W3C//DTD SVG 1.1//EN" "http://www.w3.org/Graphics/SVG/1.1/DTD/svg11.dtd">
<svg width="100%" height="100%" viewBox="0 0 315 315" version="1.1" xmlns="http://www.w3.org/2000/svg" xmlns:xlink="http://www.w3.org/1999/xlink" xml:space="preserve" xmlns:serif="http://www.serif.com/" style="fill-rule:evenodd;clip-rule:evenodd;stroke-linejoin:round;stroke-miterlimit:2;">
    <g>
        <path d="M296,315L299,314.75L302,314L304.75,312.75L307.25,311.25L309.5,309.5L311.5,307L313,304.5L314,301.75L314.75,299L315,296L315,18.75L314.75,15.75L314,13L313,10.25L311.5,7.75L309.5,5.5L307.25,3.5L304.75,2L302,0.75L299,0.25L296,0L19,0L16,0.25L13.25,0.75L10.5,2L7.75,3.5L5.5,5.5L3.75,7.75L2,10.25L1,13L0.25,15.75L0,18.75L0,296L0.25,299L1,301.75L2,304.5L5.5,309.5L7.75,311.25L10.5,312.75L13.25,314L16,314.75L19,315L296,315Z" style="fill:white;fill-rule:nonzero;"/>
        <path d="M296,315L299,314.75L302,314L304.75,312.75L307.25,311.25L309.5,309.5L311.5,307L313,304.5L314,301.75L314.75,299L315,296L315,18.75L314.75,15.75L314,13L313,10.25L311.5,7.75L309.5,5.5L307.25,3.5L304.75,2L302,0.75L299,0.25L296,0L19,0L16,0.25L13.25,0.75L10.5,2L7.75,3.5L5.5,5.5L3.75,7.75L2,10.25L1,13L0.25,15.75L0,18.75L0,296L0.25,299L1,301.75L2,304.5L5.5,309.5L7.75,311.25L10.5,312.75L13.25,314L16,314.75L19,315L296,315Z" style="fill:none;"/>
        <path d="M307,12.5L302.5,8L296,6.25L19,6.25L12.75,8L8,12.5L6.5,18.75L6.5,296L8,302.25L12.75,306.75L19,308.5L296,308.5L302.5,306.75L307,302.25L308.75,296L308.75,18.75L307,12.5Z" style="fill:rgb(179,7,56);"/>
        <path d="M246,120.5L245.75,120.5L245.75,124L245.5,124.5L245.5,125.5L245.25,126.5L245.25,126.75L245,128L244.75,128.5L244.75,129.25L244.5,129.5L244.5,130L244.25,130.25L243.75,132L243.5,132.5L243.25,133.25L243,133.25L243,133.75L242.75,133.75L242,135.25L241.75,135.5L241.5,136.5L241.25,136.75L241,137.25L240.5,137.75L240.25,138.25L240,138.5L239.25,139.5L239,139.75L238,141L237.75,141L237.5,141.25L237.5,141.5L237.25,141.5L235,143.75L234,144.5L233.75,144.5L233.5,144.75L233.25,144.75L233.25,145L232.25,145.75L232,145.75L231,146.5L230.75,146.5L229,147.5L228.75,147.5L228.5,147.75L227.75,148L227.5,148L225.75,148.75L225.5,149L224.25,149.25L222,149.75L222,150L220.75,150.25L218,150.5L213.5,150.5L210,150L210,149.75L208.25,149.25L206.5,149L206.5,148.75L204.75,148L204.5,148L203.5,147.75L203.25,147.5L203,147.5L201.5,146.5L201.25,146.5L200,145.75L199.75,145.75L198.5,144.5L198.25,144.5L197.25,143.75L195.5,142L194.75,141.5L194.25,141L193.25,139.75L193,139.5L192.25,138.5L192,138.25L191.75,137.75L191.25,137.25L191,136.75L190.75,136.5L190.25,135.5L190,135.25L189.5,133.75L189.25,133.75L189.25,133.25L189,133.25L188.75,132.5L188.5,132L188,130.25L187.75,130L187.75,129.25L187.5,129.25L187.5,128.5L187.25,128L187,126.75L187,126.5L186.75,125.5L190.75,125.5L197,125.25L207,125.25L215.75,125.5L216.25,125.5L216.75,125.25L217.75,125.25L218.25,124.75L218.75,124.75L220.25,123.25L220.75,122.25L220.75,120.5L221,120.25L220.75,120L220.75,119.25L220.5,118.75L220,117.5L219.75,117L219.5,116.75L219.25,116.25L219.25,115.75L219,115.5L218.25,114L218,113.25L217.75,112.75L217.75,112.25L217.5,112L217.5,111.75L217.25,111.5L216.75,110.5L216.25,109.25L216,109L215.75,108.5L215.75,108.25L215.5,107.75L215.25,107.5L215.25,107.25L214.75,106L214.75,105.75L214.5,105.5L214,104.5L214,104.25L213.75,104L213.75,103.75L213.5,103.5L213,102.5L212.5,101.25L212.25,100.75L212.25,100.5L212,100.25L212,100L211.75,99.75L211.75,99.5L211.25,98.5L211,97.75L210.75,97.25L210.5,97L210.25,96.5L210.25,96.25L210,95.75L209.75,95L209.25,94.25L209.25,94L208.75,93.5L208.75,93L208.25,92L208.25,91.75L210,91.5L211.5,91.25L211.75,91L214,91L215.25,90.75L219,91L220.25,91L220.75,91.25L222.5,91.5L223.75,91.75L226,92.5L227.25,93L228,93.25L228,93.5L229,93.75L229.25,93.75L229.5,94L231.5,95L232.5,95.75L233,96.25L233.5,96.5L234.25,97L234.5,97.25L235.25,97.75L236,98.5L237.25,99.5L237.25,99.75L237.75,100L237.75,100.25L238.75,101.25L239.5,102.5L240,103L240.25,103L240.5,103.5L240.75,103.75L240.75,104L241.25,104.5L241.75,105.5L242,105.75L242,106L242.75,107.25L242.75,107.5L243,107.75L243,108.25L243.25,108.25L243.25,108.5L243.5,109L243.75,109.25L244.25,110.5L244.5,111.5L244.5,111.75L244.75,112L244.75,112.75L245,113.25L245,114L245.25,114.5L245.5,115.5L245.5,116.75L245.75,117L245.75,119.25L246,119.75L246,120.5ZM173.75,115.75L173.75,115.5L174,114.5L174.25,114L174.5,113.25L174.75,112.75L174.75,112.25L175,112L175,111.5L175.5,110.5L175.75,109.25L175.75,108.5L176,108.25L176,107.75L176.25,107.5L176.25,107.25L176.75,106L176.75,105.75L177,105.5L177.25,104.5L177.25,104L177.5,103.75L177.5,103.5L177.75,103L177.75,102.5L178.25,101.25L178.25,100.75L178.5,100.5L178.5,100L178.75,99.75L178.75,99.5L179,98.5L179.25,97.75L179.25,97.25L179.5,97L179.5,96.5L179.75,96.25L179.75,95.75L180.25,94.25L180.5,94L180.5,93.25L180.75,93L180.75,92.5L181,92L181,91.75L181.25,91.5L181.25,91L181.5,90.75L181.5,90.25L182,88.5L182,88.25L182.25,88L182.25,87.75L182.75,86.25L182.75,85.75L183.25,84.5L183.5,84L183.75,83.25L183.75,82.75L184,82.5L184,82L184.5,81L185.5,76.75L187.25,71.75L187.75,69.75L188.75,71.75L191,76.75L193,81L193.5,82L193.5,82.25L193.75,82.25L193.75,82.75L194,83.25L194.25,84L194.5,84.5L195.25,85.75L195.25,86L195.5,86.25L196,87.75L195.75,88L195.25,88.25L195,88.5L192.5,90.25L192.25,90.5L191.75,90.75L191.75,91L191.5,91L190,92.5L189.25,93L189,93.25L189,93.5L188.5,93.75L188,94.25L187,95.75L186.75,95.75L186,96.5L185.75,97L185.5,97.25L185.25,97.75L184.75,98.5L184,99.5L183.5,100L183.5,100.25L183.25,100.5L183.25,100.75L183,101.25L182.25,102.5L182,103L181.75,103L181.75,103.5L181.5,103.75L181.5,104L181.25,104.25L181.25,104.5L180.75,105.5L180.5,105.75L180.5,106L180,107.25L180,107.5L179.75,107.75L179.75,108.25L179.5,108.5L179.5,109L179.25,109.25L179,110.5L178.75,111.5L178.75,112L178.5,112.25L178.5,113.25L178.25,114L178.25,114.5L178,115.5L178,115.75L173.75,115.75ZM161.75,112L161.75,111.75L160.5,110.5L159.5,109.25L157.75,107.5L157.75,107.25L156.5,106L156.5,105.75L156,105.5L155.25,104.5L154.75,104L154.75,103.75L152.25,101.25L152,100.75L151.5,100.25L151.5,100L150,98.5L149.5,97.75L149.25,97.75L149,97.25L148.75,97.25L148.75,97L147.5,95.75L147,95L146,94L146,93.75L145.75,93.75L145.75,93.5L144.75,92.5L144.5,92L142.75,90.25L141.25,88.5L140.75,88L140.75,87.75L139.5,86.25L139,85.75L138,84.5L137.75,84.5L137.25,84L136.75,83.25L136.5,82.75L134.75,81L131,76.75L126.75,71.75L125,69.75L121.75,66.25L122.5,64.25L128.75,66.25L139.75,69.75L145.75,71.75L162,76.75L174.75,81L174.25,82L174.25,82.5L174,82.75L174,83.25L173.75,84L173.5,84.5L173.25,85.75L173,86L173,86.25L172.75,87.75L172.5,88L172.5,88.5L172,90.25L171.75,90.5L171.75,91L171.5,91L171.5,91.5L171.25,91.75L171.25,92.5L171,93L171,93.25L170.75,93.5L170.75,94L170.5,94.25L170.25,95L170.25,95.75L170,95.75L170,96.25L169.75,96.5L169.75,97.25L169.5,97.75L169.25,98.5L169,99.5L169,99.75L168.75,100L168.75,100.5L168.5,100.75L168.5,101.25L168,102.5L168,103L167.75,103.5L167.75,103.75L167.5,104L167.5,104.5L167.25,105.5L167,105.75L167,106L166.75,107.25L166.5,107.5L166.5,108.25L166.25,108.25L166.25,108.5L166,109L166,109.25L165.5,110.5L165.25,111.5L165.25,111.75L163.75,112L163.5,112L162,112.25L161.75,112ZM196.75,97.75L197,97.75L197.5,97.25L197.75,97.25L198,97L198.75,96.5L199,96.25L199.75,95.75L200,96.25L200,96.5L200.25,97L200.5,97.25L200.75,97.75L201,98.5L201.5,99.5L201.5,99.75L201.75,100L201.75,100.25L202,100.5L202,100.75L202.25,101.25L202.75,102.5L203.25,103.5L203.5,103.75L203.5,104L203.75,104.25L203.75,104.5L204.25,105.5L204.5,105.75L204.5,106L205,107.25L205.25,107.5L205.25,107.75L205.5,108.25L205.75,108.5L205.75,109L206,109.25L206.5,110.5L207,111.5L207.25,111.75L207.25,112L207.5,112.25L207.5,112.75L207.75,113.25L208.25,114L208.5,114.5L208.75,115.5L209,115.75L186.75,115.75L186.75,115.5L187,114.5L187,114L187.25,113.25L187.5,112.75L187.5,112L187.75,112L187.75,111.5L188,110.5L188.5,109.25L188.5,109L188.75,108.5L189,108.25L189.25,107.75L189.5,107.5L189.5,107.25L190.25,106L190.25,105.75L190.5,105.5L191,104.5L191.25,104.25L191.25,104L191.75,103.5L192,103L193.75,101.25L193.75,100.75L194.5,100L195,99.75L195,99.5L196.25,98.5L196.75,97.75ZM116.5,96.25L117.5,97.25L117.75,97.25L118.5,97.75L121.5,100.75L121.75,101.25L122.75,102.5L123.25,103L123.5,103.5L124.5,104.5L124.75,105.5L125,105.75L125,106L125.75,107.25L126,107.5L126,107.75L126.25,108.25L126.5,108.5L126.75,109L126.75,109.25L127.25,110.5L127.75,111.5L127.75,112.75L128,113.25L128.25,114L128.25,114.5L128.5,115.5L128.5,116.25L128.75,116.75L128.75,117.5L129,118.75L129,122.25L128.75,122.75L128.75,125.25L128.5,125.25L128.5,125.5L128.25,126.5L128.25,126.75L128,128L128,128.5L127.75,129L127.75,129.5L127.5,129.5L127.5,130.25L126.75,132L126.5,132.5L126.25,133.25L126,133.25L126,133.75L125.75,133.75L125.25,135.25L125,135.5L124.5,136.5L124.25,136.75L123.75,137.75L123.5,137.75L123.25,138.25L123,138.5L122.25,139.5L122,139.75L121,141L120.5,141.5L119.75,142L118,143.75L117,144.5L116.75,144.5L115.5,145.75L115.25,145.75L114,146.5L113.75,146.5L112.25,147.5L112,147.5L111.75,147.75L110.75,148L110.5,148L108.75,148.75L108.75,149L107,149.25L105.25,149.75L105.25,150L101.75,150.5L97.25,150.5L94.5,150.25L93.25,150L93.25,149.75L91,149.25L89.75,149L89.5,148.75L87.5,148L86.75,147.75L84.25,146.5L83.25,145.75L83,145.75L82,145L81.75,144.75L81.25,144.5L80.25,143.75L80,143.5L78.5,142.25L78.5,142L77.75,141.5L77.25,141L76.25,139.75L76,139.5L75.25,138.5L75,138.25L74.75,137.75L74.25,137.25L74,136.75L73.75,136.5L73.25,135.5L73.25,135.25L72.5,133.75L72.25,133.75L72.25,133.5L72,133.25L71.75,132.5L71.5,132L70.75,130.25L70.75,129.25L70.5,129.25L70.5,128.5L70.25,128L70,126.75L69.75,126.5L69.75,125.25L69.5,124.75L69.5,123.25L69.25,122.75L69.25,118.75L69.5,117.5L69.5,116.25L69.75,115.75L69.75,115.5L70,114.5L70,114L70.25,113.25L70.5,112.75L70.5,111.75L70.75,111.5L71,110.5L71.5,109.25L71.5,109L71.75,108.5L72,108.25L72.25,107.75L72.25,107.5L72.5,107.25L73,106L73.5,105.5L74,104.5L74,104.25L74.75,103.5L75,103L75.5,102.5L76.5,101.25L76.75,100.75L77.75,99.75L77.75,99.5L79,98.5L79.75,97.75L80.5,97.25L80.75,97L81.5,96.5L82,96.25L82.75,95.75L83.5,95L85,94.25L85.75,94L85.75,93.75L86.25,93.75L86.75,93.5L87,93.25L87.75,93L90.25,92L91,91.75L92.5,91.5L93.75,91.25L94.25,91L95.75,91L96.75,90.75L101.5,90.75L102.5,91L104,91L104.5,91.25L104.5,91.5L104.25,91.75L104.25,92L104,92.5L104,93L103.75,93.25L103.75,94.25L103.25,95.75L103,96.25L103,96.5L102.75,97L102.75,97.25L102.5,97.75L102.25,98.5L102,99.5L102,99.75L101.75,100L101.75,100.5L101.5,100.75L101.5,101.25L101,102.5L101,103L100.75,103.5L100.75,104L100.5,104.25L100.5,104.5L100.25,105.5L100,105.75L100,106L99.75,107.25L99.5,107.5L99.5,107.75L99.25,108.25L99.25,108.5L99,109L99,109.25L98.5,110.5L98,111.5L98,111.75L97.75,112L97.75,112.75L97.5,113.25L97,114L97,114.5L96.25,115.5L96.25,115.75L95.75,116.75L95.75,117L95.5,117.5L95,118.75L94.75,118.75L94.75,119.75L94.5,120L94.5,120.5L94.75,121L94.75,122.25L95,122.75L95.75,123.5L95.75,123.75L96,124L96.75,124.5L97,124.75L97.5,124.75L98.25,125.25L100,125.25L100.75,124.75L101.25,124.75L101.5,124.5L102.25,124L102.5,123.75L102.5,123.5L103.25,122.75L103.75,121.75L104,121.5L104,121.25L104.25,121L104.5,120.5L104.5,120.25L104.75,120L104.75,119.75L105.25,118.75L105.75,117.5L106,117L106,116.75L106.5,115.75L106.5,115.5L107,114.5L107,114L107.25,113.25L107.5,112.75L107.5,112.25L107.75,112.25L107.75,111.75L108,111.5L108.25,110.5L108.75,109.25L108.75,109L109,108.5L109,108.25L109.25,107.75L109.25,107.25L109.75,106L109.75,105.5L110,104.5L110.25,104.25L110.25,103.75L110.5,103.5L110.5,103L110.75,103L110.75,102.5L111.25,101.25L111.25,100.75L111.5,100.5L111.5,100L111.75,99.75L111.75,99.5L112,98.5L112.25,97.75L112.5,97.25L112.5,97L112.75,96.5L112.75,95.75L113,95.75L113,95L113.25,94.25L114.5,95L115.5,95.75L115.75,95.75L116.5,96.25ZM254.5,120L254.5,116.75L254.25,116.25L254.25,115.5L254,114.5L254,113.25L253.75,112.75L253.75,111.75L253.5,111.5L253.25,110.5L253,109.25L253,109L252.75,108.5L252.75,108.25L252.5,108.25L252.5,107.75L252.25,107.5L252.25,107.25L251.75,106L251.75,105.75L251.5,105.5L251.25,104.5L250.75,104L250.75,103.5L250.5,103L250.25,103L250,102.5L249.25,101.25L249.25,100.75L248.75,100.25L248.75,100L248.25,99.5L247.75,98.5L247.25,97.75L246.5,97L246.25,96.5L246,96.25L245.75,96.25L245.5,95.75L245.25,95.75L244.25,94.25L243.75,93.75L243.25,93.5L243.25,93.25L243,93L242.25,92.5L242,92L241.75,91.75L241.25,91.5L241,91.25L241,91L240.75,91L240.5,90.75L240,90.5L239.75,90.25L237.5,88.5L236,87.75L233.75,86.25L233,86L232.75,85.75L229.75,84.5L229.25,84.5L227.5,84L225.75,83.25L224.75,83.25L223.5,82.75L223.25,82.75L219.75,82.25L218,82.25L217.25,82L214.5,82.25L212.25,82.25L211.25,82.5L208.75,82.75L207.5,83.25L206.75,83.25L204.5,84L204.25,83.25L204,82.75L204,82.5L203.75,82.25L203.75,82L203.25,81L201.25,76.75L199,71.75L198,69.75L196.5,66.25L195.5,64.25L192,56.5L192.25,54.75L194.5,47.5L200.25,47.5L201.75,47L202.75,46L202.75,45.75L203.75,44.75L203.75,44L204,43.25L204,41.75L203.75,41.5L203.75,41.25L203.5,40.5L203.25,40L202.25,39L201.25,38.5L199.75,38L180,38L178.75,38.25L178.5,38.5L178.25,38.5L177.25,39L176.25,40L176,40.5L175.75,41.25L175.75,41.75L175.5,42.25L175.5,43.25L175.75,44L175.75,44.75L176,45L176.5,45.75L177.75,47L178,47L179.25,47.5L184.75,47.5L182.75,54.75L182.25,56.5L179.75,64.25L179.25,66.25L178.25,69.75L177.5,71.75L171.5,69.75L160.75,66.25L154.25,64.25L130.25,56.5L125.25,54.75L127.5,47.5L127.75,47L128,46L128,45.75L128.25,45L128.25,44.5L128.5,44L129,43.25L129.5,43L129.75,42.75L130.75,42.75L140,42.5L141.5,42.25L142.25,41.5L142.75,41.25L143.25,40.5L143.5,40L143.5,39.75L143.75,39.25L143.75,39L144,38.5L144,38L143.75,37L143.75,36.5L143.25,35.5L143,35.25L142.5,34.25L142.25,34.25L141.25,33.5L140.75,33.5L139.75,33.25L125.5,33.25L124,33.5L123.75,33.5L122.75,34.25L122.5,34.25L121.75,35.25L121.75,35.5L121,37L120.75,38L120.75,38.25L120.5,38.5L120.5,39L120.25,39.25L120.25,39.75L120,40L120,40.5L119.75,41.25L119.5,41.5L119.5,42.25L119.25,42.5L119.25,43L119,43.25L118.75,44L118.75,45L118.25,45.75L118.25,46L118,47L117.75,47.5L115.75,54.75L115.25,56.5L112.75,64.25L112.25,66.25L111,69.75L110.5,71.75L109,76.75L107.75,81L107.25,82L107.25,82.5L107,82.75L104.75,82.5L103.75,82.25L102.75,82.25L100.75,82L97.25,82L96.25,82.25L94.25,82.25L93.5,82.5L91.75,82.75L91.5,82.75L90,83.25L89.25,83.25L87.5,84L85.75,84.5L85.5,84.5L82.5,85.75L81.5,86.25L79,87.75L78.75,88L77.75,88.5L75.5,90.25L75.25,90.5L74.75,90.75L74.5,90.75L74.5,91L74.25,91L74.25,91.25L73.75,91.5L71.5,93.75L71.25,93.75L71.25,94L70.25,95L69.75,95.75L69,96.5L68.75,97L68,97.75L67.75,98.5L67,99.5L66.5,100L66.5,100.25L66,100.75L66,101.25L65.25,102.5L65,103L64.75,103L64.75,103.5L64.5,103.75L64.5,104L64,104.5L63.75,105.5L63.5,105.75L63.5,106L63,107.25L63,107.5L62.75,107.75L62.75,108.25L62.5,108.25L62.5,108.5L62.25,109L62.25,109.25L62,110.5L61.75,111.5L61.75,112L61.5,112.25L61.5,113.25L61.25,114L61.25,114.5L61,115.5L61,116.25L60.75,116.75L60.75,120.5L60.5,121L60.5,121.25L60.75,121.5L60.75,124.75L61,124.75L61,126.5L61.25,126.75L61.5,128L61.5,129L61.75,129.25L61.75,130.25L62.25,132L62.5,132.5L62.75,133.25L62.75,133.5L63,133.75L63.5,135.25L63.75,135.5L64.25,136.5L64.25,136.75L64.75,137.75L64.75,138.25L65,138.5L65.5,139.5L65.75,139.75L66.5,141L66.75,141.25L66.75,141.5L67.5,142.25L68.25,143.5L68.25,143.75L69.25,144.75L69.25,145L70.75,146.5L71.5,147.5L71.75,147.5L71.75,147.75L72,148L72.25,148L73,148.75L73,149L73.5,149.25L74,149.75L74,150L74.5,150.25L74.75,150.5L75,150.5L75.25,151L75.5,151L78.5,153.25L79,153.5L82.25,155.25L82.75,155.5L86.25,156.75L86.75,157L90.5,158L91,158.25L91.25,158.25L94.75,159L96.5,159L99.5,159.25L101.75,159L103.75,159L107,158.25L107.25,158.25L108,158L111.25,157L111.5,157L112.25,156.75L115.5,155.5L116,155.25L119.25,153.5L119.75,153.25L122.75,151L123,151L123.25,150.5L123.5,150.5L124,150.25L124.25,150L124.25,149.75L124.75,149.25L125.25,149L125.25,148.75L126,148L126.25,148L126.75,147.5L127.5,146.5L127.75,146.5L128.25,145.75L129,145L129,144.75L129.25,144.5L129.5,144.5L130,143.75L130,143.5L131,142.25L131,142L131.5,141.5L131.5,141.25L131.75,141L132.5,139.75L132.75,139.5L133.25,138.5L133.5,138.25L134,137.25L134,136.75L134.25,136.5L134.5,135.5L134.75,135.25L135.25,133.75L135.5,133.75L135.5,133.25L135.75,132.5L136,132L136.5,130.25L136.5,129.75L136.75,129.5L136.75,128L137,128L137,126.75L137.25,126.5L137.25,125.25L137.5,125.25L137.5,121.5L137.75,121.25L137.75,119.75L137.5,119.25L137.5,116.25L137.25,115.75L137.25,115.5L137,114.5L137,114L136.75,113.25L136.75,111.5L136.25,110.5L136,109.25L136,109L135.75,108.5L135.75,108.25L135.5,107.75L135.5,107.5L135.25,107.5L135.25,107.25L134.75,106L134.75,105.75L134.5,105.5L134.25,104.5L134,104.25L134,104L133.75,103.75L133.75,103.5L133.5,103L133,102.5L132.5,101.25L132.25,100.75L131.75,100.25L131.75,100L131.5,99.75L131.5,99.5L130.75,98.5L130.25,97.75L129.5,97L129.25,96.5L128.5,95.75L128,95L127,94L127,93.75L126.75,93.75L126.5,93.5L126.5,93.25L126,93L124.5,91.5L124,91.25L124,91L123.75,91L123.75,90.75L123.5,90.75L123.25,90.5L122.75,90.25L120.5,88.5L120,88.25L119.75,88L119.25,87.75L116.75,86.25L115.75,85.75L116.25,84.5L116.5,84L116.75,83.25L116.75,82.75L117,82.5L117,82L117.5,81L118.75,76.75L122.25,81L123.25,82L123.25,82.25L123.5,82.25L123.5,82.5L124,82.75L124.25,83.25L124.75,84L125.25,84.5L125.5,84.5L126.5,85.75L127,86.25L128,87.75L128.75,88.5L130.25,90.25L132,92L132.25,92.5L133.75,94L133.75,94.25L134.5,95L135,95.75L136.5,97.25L136.75,97.75L137,97.75L137.5,98.5L139,100L139,100.25L139.25,100.5L139.75,100.75L139.75,101.25L142.75,104.25L142.75,104.5L143.5,105.5L144,105.75L144,106L145.75,107.75L146,108.25L147,109.25L148,110.5L149.25,111.75L149.25,112L149.5,112.25L149.75,112.25L149.75,112.5L150,112.5L150,112.75L150.25,113.25L151.25,114L151.5,114.5L152.75,115.75L153,116.25L154.25,117.5L155.25,118.75L155.5,119.25L156,119.75L156.25,119.75L156.25,122.25L156.5,122.75L156.5,123.25L156.75,123.5L156.75,124L157,124.5L157.25,124.75L157.5,125.25L157.5,125.5L157.75,125.5L158.25,126.5L158.75,126.75L160.25,128L160.5,128L161,128.5L162,129L162.75,129L163.75,129.25L165.75,129.25L166.75,129L167.75,129L168.75,128.5L169.5,128L171,126.75L171.25,126.5L172,125.5L178,125.5L178,126.5L178.25,126.75L178.5,128L178.5,129L178.75,129.25L178.75,130.25L179.25,132L179.5,132.5L179.75,133.25L179.75,133.75L180,133.75L180.5,135.25L180.75,135.5L181,136.5L181.25,136.75L181.25,137.25L181.5,137.75L181.75,137.75L181.75,138.25L182,138.5L182.5,139.5L182.75,139.75L183.5,141L183.5,141.25L184.25,142L184.25,142.25L185,143.5L185.25,143.75L185.75,144.5L186,144.5L186.25,144.75L186.25,145L187.75,146.5L188.5,147.5L189,148L190,148.75L190,149L190.5,149.25L191,149.75L191,150L191.5,150.5L191.75,150.5L192.25,151L195.25,153.25L195.75,153.5L199,155.25L199.5,155.5L199.75,155.5L203,156.75L203.5,157L207,158L207.5,158.25L207.75,158.25L211.25,159L212,159L214.5,159.25L217.75,159.25L220.5,159L221,159L224.5,158.25L224.75,158.25L225.25,158L228.75,157L229.25,156.75L232.75,155.5L233.25,155.25L236.5,153.5L237,153.25L240,151L240.5,150.5L240.75,150.5L241.25,150L241.25,149.75L241.75,149.25L242.25,149L242.25,148.75L243.25,148L244.75,146.5L245.25,145.75L245.5,145.75L246,145L246,144.75L246.25,144.5L246.5,144.5L247,143.75L247.25,143.5L248,142.25L248,142L248.75,141.25L248.75,141L249,141L249.75,139.75L249.75,139.5L250.25,138.5L250.5,138.25L251,137.25L251,136.75L251.25,136.5L251.5,135.5L251.75,135.25L252.5,133.75L252.5,133.25L252.75,132.5L253,132L253.5,130.25L253.5,130L253.75,129.75L253.75,128L254,128L254,126.75L254.25,126.5L254.25,125.25L254.5,125.25L254.5,122.25L254.75,121.75L254.75,120.25L254.5,120Z" style="fill:rgb(249,249,249);"/>
        <path d="M134.75,215L128.75,221L128.75,229.75L134.25,226.5L134.25,265.25L143,265.25L143,215L134.75,215Z" style="fill:rgb(249,249,249);"/>
        <path d="M182.75,247.25L182.25,246L181.75,244.5L181,243.25L179,240.75L177.75,239.75L176.5,239L178,237.75L179,236.75L180,235.5L180.75,234L181.25,232.75L181.75,231.25L181.75,225.25L181.25,223.75L180.5,222.25L179.75,221L179,219.5L178,218.25L177.75,218L175.25,216L173.75,215.25L170.75,214.25L169.25,214L167.5,213.75L165.5,213.75L163.75,214L162.25,214.25L159.25,215.25L157.75,216L157,216.5L155.75,217.75L154.75,219L153.75,220L152.75,221.5L152,223L151.75,224L160,226.75L161.5,223.75L162.75,223L164,222.5L165.5,222.25L168.25,222.25L169.75,222.75L171,223.75L171.25,224L172.25,225.25L172.75,226.75L173,228.25L173,228.5L172.75,230.25L172.25,231.5L171.25,233L170,234L168.5,234.5L166.75,234.75L164.25,234.75L164.25,243.25L168.25,243.25L169.75,243.75L171.25,244.5L172,245.25L173,246.5L173.75,248L174.25,249.5L174.25,250.5L174,252.25L173.5,253.75L172.75,255.25L172,256L170.75,257L169.5,257.75L167.75,258.25L165,258.25L162,257.25L160,255.25L159.25,253.75L159,253L150.5,256L152,259L152.75,260.25L155,262.5L156.25,263.5L157.75,264.5L159,265.25L162.25,266.25L163.75,266.5L169,266.5L170.5,266.25L172.25,265.75L173.5,265.25L175,264.5L176.25,263.75L177.5,262.75L179.5,260.75L180.5,259.25L181.5,258L182.5,255L183,252L183,249L182.75,247.25Z" style="fill:rgb(249,249,249);"/>
        <path d="M208,277L207.5,278L207,278.75L206.25,279.25L205.5,279.5L204.5,279.75L110.75,279.75L109.75,279.5L109,279.25L108,278.75L107.5,278L107.25,277L107,276.25L107,204.25L107.25,203.25L107.5,202.5L108,201.5L109,201.25L109.75,200.75L205.5,200.75L206.25,201.25L207,201.5L207.5,202.5L208,203.25L208,277ZM211.5,202.25L210.75,200.75L209.5,199L208,198L206.25,197.25L204.5,197L110.75,197L108.75,197.25L107,198L105.5,199L104.5,200.75L103.75,202.25L103.5,204.25L103.5,276.25L103.75,278L104.5,279.75L105.5,281.25L107,282.5L108.75,283L110.75,283.5L204.5,283.5L208,282.5L209.5,281.25L210.75,279.75L211.5,278L211.75,276.25L211.75,204.25L211.5,202.25Z" style="fill:white;"/>
    </g>
</svg>
