<?xml version="1.0" encoding="UTF-8" standalone="no"?>
<!DOCTYPE svg PUBLIC "-//W3C//DTD SVG 1.1//EN" "http://www.w3.org/Graphics/SVG/1.1/DTD/svg11.dtd">
<svg width="100%" height="100%" viewBox="0 0 596 596" version="1.1" xmlns="http://www.w3.org/2000/svg" xmlns:xlink="http://www.w3.org/1999/xlink" xml:space="preserve" xmlns:serif="http://www.serif.com/" style="fill-rule:evenodd;clip-rule:evenodd;stroke-linecap:round;stroke-linejoin:round;stroke-miterlimit:2;">
    <g>
        <rect x="0.354" y="1.079" width="594.568" height="594.568" style="fill-rule:nonzero;"/>
        <rect x="0.354" y="1.079" width="594.568" height="594.568" style="fill:none;stroke:black;stroke-width:0.71px;"/>
        <rect x="18.648" y="19.374" width="557.979" height="557.979" style="fill:white;fill-rule:nonzero;"/>
        <rect x="18.648" y="19.374" width="557.979" height="557.979" style="fill:none;stroke:black;stroke-width:0.71px;"/>
        <path d="M195.67,204.219L195.367,204.262L195.062,204.282L194.756,204.281L194.452,204.258L194.15,204.213L193.851,204.147L193.559,204.059L193.272,203.952L192.995,203.824L192.728,203.676L192.471,203.51L192.227,203.326L191.997,203.125L191.781,202.908L191.583,202.677L191.4,202.431L191.236,202.173L191.091,201.905L190.965,201.626L190.859,201.339L190.774,201.046L190.71,200.746L190.668,200.444L190.647,200.139L190.649,199.834L190.672,199.529L190.717,199.226L190.783,198.928L190.87,198.636L190.978,198.35L191.106,198.072L191.253,197.805L191.419,197.548L292.378,53.365L292.601,53.065L292.841,52.779L293.097,52.508L293.369,52.252L293.655,52.011L293.955,51.788L294.267,51.583L294.59,51.396L294.924,51.228L295.267,51.08L295.618,50.953L295.976,50.846L296.339,50.76L296.707,50.695L297.079,50.651L297.451,50.63L297.825,50.63L298.198,50.651L298.568,50.695L298.937,50.76L299.3,50.846L299.658,50.953L300.009,51.08L300.352,51.228L300.686,51.396L301.009,51.583L301.321,51.788L301.62,52.011L301.907,52.252L302.179,52.508L302.435,52.779L302.675,53.065L302.898,53.365L403.856,197.548L404.021,197.805L404.17,198.072L404.298,198.35L404.406,198.636L404.493,198.928L404.56,199.226L404.604,199.529L404.627,199.834L404.629,200.139L404.607,200.444L404.565,200.746L404.502,201.046L404.417,201.339L404.311,201.626L404.185,201.905L404.039,202.173L403.876,202.431L403.693,202.677L403.494,202.908L403.278,203.125L403.049,203.326L402.805,203.51L402.548,203.676L402.281,203.824L402.004,203.952L401.717,204.059L401.425,204.147L401.126,204.213L400.823,204.258L400.52,204.281L400.214,204.282L399.908,204.262L399.606,204.219L333.313,192.53L333.313,538.569L261.963,538.569L261.963,192.53L195.67,204.219Z" style="fill-rule:nonzero;"/>
        <path d="M195.67,204.219L195.367,204.262L195.062,204.282L194.756,204.281L194.452,204.258L194.15,204.213L193.851,204.147L193.559,204.059L193.272,203.952L192.995,203.824L192.728,203.676L192.471,203.51L192.227,203.326L191.997,203.125L191.781,202.908L191.583,202.677L191.4,202.431L191.236,202.173L191.091,201.905L190.965,201.626L190.859,201.339L190.774,201.046L190.71,200.746L190.668,200.444L190.647,200.139L190.649,199.834L190.672,199.529L190.717,199.226L190.783,198.928L190.87,198.636L190.978,198.35L191.106,198.072L191.253,197.805L191.419,197.548L292.378,53.365L292.601,53.065L292.841,52.779L293.097,52.508L293.369,52.252L293.655,52.011L293.955,51.788L294.267,51.583L294.59,51.396L294.924,51.228L295.267,51.08L295.618,50.953L295.976,50.846L296.339,50.76L296.707,50.695L297.079,50.651L297.451,50.63L297.825,50.63L298.198,50.651L298.568,50.695L298.937,50.76L299.3,50.846L299.658,50.953L300.009,51.08L300.352,51.228L300.686,51.396L301.009,51.583L301.321,51.788L301.62,52.011L301.907,52.252L302.179,52.508L302.435,52.779L302.675,53.065L302.898,53.365L403.856,197.548L404.021,197.805L404.17,198.072L404.298,198.35L404.406,198.636L404.493,198.928L404.56,199.226L404.604,199.529L404.627,199.834L404.629,200.139L404.607,200.444L404.565,200.746L404.502,201.046L404.417,201.339L404.311,201.626L404.185,201.905L404.039,202.173L403.876,202.431L403.693,202.677L403.494,202.908L403.278,203.125L403.049,203.326L402.805,203.51L402.548,203.676L402.281,203.824L402.004,203.952L401.717,204.059L401.425,204.147L401.126,204.213L400.823,204.258L400.52,204.281L400.214,204.282L399.908,204.262L399.606,204.219L333.313,192.53L333.313,538.569L261.963,538.569L261.963,192.53L195.67,204.219Z" style="fill:none;stroke:black;stroke-width:0.71px;"/>
    </g>
</svg>
