<?xml version="1.0" encoding="UTF-8" standalone="no"?>
<!DOCTYPE svg PUBLIC "-//W3C//DTD SVG 1.1//EN" "http://www.w3.org/Graphics/SVG/1.1/DTD/svg11.dtd">
<svg width="100%" height="100%" viewBox="0 0 596 596" version="1.1" xmlns="http://www.w3.org/2000/svg" xmlns:xlink="http://www.w3.org/1999/xlink" xml:space="preserve" xmlns:serif="http://www.serif.com/" style="fill-rule:evenodd;clip-rule:evenodd;stroke-linecap:round;stroke-linejoin:round;stroke-miterlimit:2;">
    <g>
        <rect x="0.354" y="1.079" width="594.568" height="594.568" style="fill-rule:nonzero;"/>
        <rect x="0.354" y="1.079" width="594.568" height="594.568" style="fill:none;stroke:black;stroke-width:0.71px;"/>
        <rect x="18.648" y="19.374" width="557.979" height="557.979" style="fill:white;fill-rule:nonzero;"/>
        <rect x="18.648" y="19.374" width="557.979" height="557.979" style="fill:none;stroke:black;stroke-width:0.71px;"/>
        <path d="M508.15,186.493C509.867,185.291 510.889,183.328 510.889,181.233C510.889,179.138 509.867,177.175 508.15,175.973L363.968,75.015C362.55,74.022 360.673,73.981 359.212,74.911C357.752,75.842 356.996,77.56 357.296,79.265L368.986,145.559L273.855,145.559C236.01,145.559 199.714,160.593 172.954,187.354C146.193,214.115 131.159,250.41 131.159,288.255L131.159,502.894L202.507,502.894L202.507,288.255C202.507,269.332 210.024,251.184 223.404,237.805C236.785,224.424 254.932,216.907 273.855,216.907L368.986,216.907L357.296,283.201C356.996,284.906 357.752,286.625 359.212,287.555C360.673,288.485 362.55,288.445 363.968,287.451L508.15,186.493Z" style="fill-rule:nonzero;"/>
        <path d="M508.15,186.493C509.867,185.291 510.889,183.328 510.889,181.233C510.889,179.138 509.867,177.175 508.15,175.973L363.968,75.015C362.55,74.022 360.673,73.981 359.212,74.911C357.752,75.842 356.996,77.56 357.296,79.265L368.986,145.559L273.855,145.559C236.01,145.559 199.714,160.593 172.954,187.354C146.193,214.115 131.159,250.41 131.159,288.255L131.159,502.894L202.507,502.894L202.507,288.255C202.507,269.332 210.024,251.184 223.404,237.805C236.785,224.424 254.932,216.907 273.855,216.907L368.986,216.907L357.296,283.201C356.996,284.906 357.752,286.625 359.212,287.555C360.673,288.485 362.55,288.445 363.968,287.451L508.15,186.493Z" style="fill:none;stroke:black;stroke-width:0.71px;"/>
    </g>
</svg>
