<?xml version="1.0" encoding="UTF-8" standalone="no"?>
<!DOCTYPE svg PUBLIC "-//W3C//DTD SVG 1.1//EN" "http://www.w3.org/Graphics/SVG/1.1/DTD/svg11.dtd">
<svg width="100%" height="100%" viewBox="0 0 256 224" version="1.1" xmlns="http://www.w3.org/2000/svg" xmlns:xlink="http://www.w3.org/1999/xlink" xml:space="preserve" xmlns:serif="http://www.serif.com/" style="fill-rule:evenodd;clip-rule:evenodd;stroke-miterlimit:2;">
    <g>
        <path d="M119.916,5.013L1.259,210.5C0.539,211.868 0.107,213.38 0.107,214.964C0.107,219.932 4.067,223.892 9.035,223.892L246.275,223.892C251.243,223.82 255.203,219.86 255.203,214.964C255.203,213.38 254.771,211.868 254.051,210.5L135.396,5.013C133.812,2.277 130.858,0.621 127.691,0.621C124.451,0.621 121.5,2.277 119.916,5.013Z" style="fill:rgb(211,63,39);fill-rule:nonzero;"/>
        <path d="M119.916,5.013L1.259,210.5C0.539,211.868 0.107,213.38 0.107,214.964C0.107,219.932 4.067,223.892 9.035,223.892L246.275,223.892C251.243,223.82 255.203,219.86 255.203,214.964C255.203,213.38 254.771,211.868 254.051,210.5L135.396,5.013C133.812,2.277 130.858,0.621 127.691,0.621C124.451,0.621 121.5,2.277 119.916,5.013Z" style="fill:none;stroke:rgb(241,93,42);stroke-width:0.22px;"/>
        <path d="M39.996,197.108L215.315,197.108L127.691,45.333L39.996,197.108Z" style="fill:white;fill-rule:nonzero;"/>
        <path d="M39.996,197.108L215.315,197.108L127.691,45.333L39.996,197.108Z" style="fill:none;stroke:white;stroke-width:0.22px;"/>
        <path d="M114.155,87.093C114.011,86.805 113.724,86.733 113.436,86.733C113.147,86.733 112.931,86.805 112.715,87.093L97.523,108.62C97.451,108.692 97.379,108.836 97.379,108.98C97.379,109.268 97.667,109.627 98.027,109.627L98.099,109.627L105.372,108.261L105.372,138.212C105.443,148.579 113.867,156.932 124.164,156.932C127.476,156.932 130.787,156.068 133.595,154.411L145.979,147.284C148.141,145.989 150.875,147.573 150.875,150.092L150.875,189.044L166.932,189.044L166.932,149.013C166.932,138.716 158.508,130.293 148.141,130.293C144.899,130.293 141.587,131.157 138.779,132.812L126.467,139.94C124.235,141.236 121.5,139.651 121.5,137.132L121.5,108.261L128.843,109.627C129.274,109.627 129.491,109.268 129.491,108.98L129.491,108.62L114.155,87.093Z" style="fill:rgb(35,31,32);fill-rule:nonzero;"/>
        <path d="M114.155,87.093C114.011,86.805 113.724,86.733 113.436,86.733C113.147,86.733 112.931,86.805 112.715,87.093L97.523,108.62C97.451,108.692 97.379,108.836 97.379,108.98C97.379,109.268 97.667,109.627 98.027,109.627L98.099,109.627L105.372,108.261L105.372,138.212C105.443,148.579 113.867,156.932 124.164,156.932C127.476,156.932 130.787,156.068 133.595,154.411L145.979,147.284C148.141,145.989 150.875,147.573 150.875,150.092L150.875,189.044L166.932,189.044L166.932,149.013C166.932,138.716 158.508,130.293 148.141,130.293C144.899,130.293 141.587,131.157 138.779,132.812L126.467,139.94C124.235,141.236 121.5,139.651 121.5,137.132L121.5,108.261L128.843,109.627C129.274,109.627 129.491,109.268 129.491,108.98L129.491,108.62L114.155,87.093Z" style="fill:none;stroke:rgb(35,31,32);stroke-width:0.22px;"/>
    </g>
</svg>
