<?xml version="1.0" encoding="UTF-8" standalone="no"?>
<!DOCTYPE svg PUBLIC "-//W3C//DTD SVG 1.1//EN" "http://www.w3.org/Graphics/SVG/1.1/DTD/svg11.dtd">
<svg width="100%" height="100%" viewBox="0 0 227 227" version="1.1" xmlns="http://www.w3.org/2000/svg" xmlns:xlink="http://www.w3.org/1999/xlink" xml:space="preserve" xmlns:serif="http://www.serif.com/" style="fill-rule:evenodd;clip-rule:evenodd;stroke-miterlimit:2;">
    <g>
        <path d="M226.403,113.781C226.403,51.429 175.571,0.597 113.219,0.597C50.939,0.597 0.107,51.429 0.107,113.781C0.107,176.06 50.939,226.892 113.219,226.892C175.571,226.892 226.403,176.06 226.403,113.781Z" style="fill:rgb(211,63,39);fill-rule:nonzero;"/>
        <path d="M226.403,113.781C226.403,51.429 175.571,0.597 113.219,0.597C50.939,0.597 0.107,51.429 0.107,113.781C0.107,176.06 50.939,226.892 113.219,226.892C175.571,226.892 226.403,176.06 226.403,113.781Z" style="fill:none;stroke:rgb(211,63,39);stroke-width:0.22px;"/>
        <path d="M198.107,113.781C198.107,67.053 160.019,28.892 113.219,28.892C66.491,28.892 28.403,67.053 28.403,113.781C28.403,160.436 66.491,198.596 113.219,198.596C160.019,198.596 198.107,160.436 198.107,113.781Z" style="fill:white;fill-rule:nonzero;"/>
        <path d="M198.107,113.781C198.107,67.053 160.019,28.892 113.219,28.892C66.491,28.892 28.403,67.053 28.403,113.781C28.403,160.436 66.491,198.596 113.219,198.596C160.019,198.596 198.107,160.436 198.107,113.781Z" style="fill:none;stroke:rgb(241,93,42);stroke-width:0.22px;"/>
        <path d="M121.355,179.084L121.355,191.54L125.315,191.54L125.315,178.292C125.315,175.052 122.651,172.316 119.339,172.316C117.323,172.316 115.379,173.252 114.083,174.764C112.932,173.252 111.131,172.316 109.259,172.316C107.747,172.316 106.235,172.964 105.155,173.972L105.155,172.892L101.195,172.892L101.195,191.54L105.155,191.54L105.155,179.084C105.155,174.98 111.275,174.98 111.275,179.084L111.275,191.54L115.235,191.54L115.235,179.084C115.235,174.98 121.355,174.98 121.355,179.084Z" style="fill:rgb(35,31,32);fill-rule:nonzero;"/>
        <path d="M121.355,179.084L121.355,191.54L125.315,191.54L125.315,178.292C125.315,175.052 122.651,172.316 119.339,172.316C117.323,172.316 115.379,173.252 114.083,174.764C112.932,173.252 111.131,172.316 109.259,172.316C107.747,172.316 106.235,172.964 105.155,173.972L105.155,172.892L101.195,172.892L101.195,191.54L105.155,191.54L105.155,179.084C105.155,174.98 111.275,174.98 111.275,179.084L111.275,191.54L115.235,191.54L115.235,179.084C115.235,174.98 121.355,174.98 121.355,179.084Z" style="fill:none;stroke:rgb(35,31,32);stroke-width:0.22px;"/>
        <path d="M50.723,102.62C50.723,104.204 51.947,105.428 53.531,105.428L60.155,105.428C60.587,89.805 83.915,90.093 83.915,105.717L83.915,105.788L87.299,105.86L87.299,64.101C87.299,62.517 86.003,61.293 84.491,61.221L59.939,60.861L59.867,60.861C57.923,60.861 56.195,62.157 55.763,64.101L50.723,84.261L50.723,102.62Z" style="fill:rgb(35,31,32);fill-rule:nonzero;"/>
        <path d="M50.723,102.62C50.723,104.204 51.947,105.428 53.531,105.428L60.155,105.428C60.587,89.805 83.915,90.093 83.915,105.717L83.915,105.788L87.299,105.86L87.299,64.101C87.299,62.517 86.003,61.293 84.491,61.221L59.939,60.861L59.867,60.861C57.923,60.861 56.195,62.157 55.763,64.101L50.723,84.261L50.723,102.62Z" style="fill:none;stroke:rgb(35,31,32);stroke-width:0.22px;"/>
        <path d="M81.395,105.717C81.395,100.603 77.219,96.429 72.107,96.429C66.923,96.429 62.747,100.603 62.747,105.717C62.747,110.9 66.923,115.076 72.107,115.076C77.219,115.076 81.395,110.9 81.395,105.717Z" style="fill:rgb(35,31,32);fill-rule:nonzero;"/>
        <path d="M81.395,105.717C81.395,100.603 77.219,96.429 72.107,96.429C66.923,96.429 62.747,100.603 62.747,105.717C62.747,110.9 66.923,115.076 72.107,115.076C77.219,115.076 81.395,110.9 81.395,105.717Z" style="fill:none;stroke:rgb(35,31,32);stroke-width:0.22px;"/>
        <path d="M68.075,156.98L50.579,145.677C49.643,145.028 49.643,143.588 50.579,143.012L68.075,131.636C68.867,131.133 69.947,131.708 69.947,132.644C69.947,132.788 69.875,132.86 69.875,132.932L68.075,140.204L75.059,140.204L75.059,148.412L68.075,148.412L69.875,155.684C69.875,155.757 69.947,155.9 69.947,155.972C69.947,156.62 69.371,157.197 68.723,157.197C68.507,157.197 68.291,157.124 68.075,156.98Z" style="fill:rgb(35,31,32);fill-rule:nonzero;"/>
        <path d="M68.075,156.98L50.579,145.677C49.643,145.028 49.643,143.588 50.579,143.012L68.075,131.636C68.867,131.133 69.947,131.708 69.947,132.644C69.947,132.788 69.875,132.86 69.875,132.932L68.075,140.204L75.059,140.204L75.059,148.412L68.075,148.412L69.875,155.684C69.875,155.757 69.947,155.9 69.947,155.972C69.947,156.62 69.371,157.197 68.723,157.197C68.507,157.197 68.291,157.124 68.075,156.98Z" style="fill:none;stroke:rgb(35,31,32);stroke-width:0.22px;"/>
        <path d="M59.435,66.765C59.579,65.973 60.299,65.397 61.091,65.397L80.387,65.397C81.323,65.469 82.043,66.189 82.043,67.125L82.043,77.853C82.043,78.717 81.323,79.508 80.387,79.508L58.859,79.508C57.923,79.508 57.131,78.717 57.131,77.853C57.131,77.709 57.203,77.565 57.203,77.493L59.435,66.765Z" style="fill:white;fill-rule:nonzero;"/>
        <path d="M59.435,66.765C59.579,65.973 60.299,65.397 61.091,65.397L80.387,65.397C81.323,65.469 82.043,66.189 82.043,67.125L82.043,77.853C82.043,78.717 81.323,79.508 80.387,79.508L58.859,79.508C57.923,79.508 57.131,78.717 57.131,77.853C57.131,77.709 57.203,77.565 57.203,77.493L59.435,66.765Z" style="fill:none;stroke:rgb(35,31,32);stroke-width:0.22px;"/>
        <path d="M160.163,105.717C160.163,100.603 155.987,96.429 150.875,96.429C145.691,96.429 141.516,100.603 141.516,105.717C141.516,110.9 145.691,115.076 150.875,115.076C155.987,115.076 160.163,110.9 160.163,105.717Z" style="fill:rgb(35,31,32);fill-rule:nonzero;"/>
        <path d="M160.163,105.717C160.163,100.603 155.987,96.429 150.875,96.429C145.691,96.429 141.516,100.603 141.516,105.717C141.516,110.9 145.691,115.076 150.875,115.076C155.987,115.076 160.163,110.9 160.163,105.717Z" style="fill:none;stroke:rgb(35,31,32);stroke-width:0.22px;"/>
        <path d="M158.363,156.98L175.859,145.677C176.363,145.316 176.579,144.885 176.579,144.308C176.579,143.804 176.363,143.301 175.859,143.012L158.363,131.636C158.219,131.493 158.004,131.493 157.715,131.493C157.067,131.493 156.563,131.996 156.563,132.644L156.563,132.932L158.435,140.204L151.451,140.204L151.451,148.412L158.435,148.412L156.563,155.684L156.563,155.972C156.563,156.62 157.067,157.197 157.715,157.197C158.004,157.197 158.219,157.124 158.363,156.98Z" style="fill:rgb(35,31,32);fill-rule:nonzero;"/>
        <path d="M158.363,156.98L175.859,145.677C176.363,145.316 176.579,144.885 176.579,144.308C176.579,143.804 176.363,143.301 175.859,143.012L158.363,131.636C158.219,131.493 158.004,131.493 157.715,131.493C157.067,131.493 156.563,131.996 156.563,132.644L156.563,132.932L158.435,140.204L151.451,140.204L151.451,148.412L158.435,148.412L156.563,155.684L156.563,155.972C156.563,156.62 157.067,157.197 157.715,157.197C158.004,157.197 158.219,157.124 158.363,156.98Z" style="fill:none;stroke:rgb(35,31,32);stroke-width:0.22px;"/>
        <path d="M126.899,147.405C127.043,148.268 127.115,149.204 127.115,150.14C127.115,151.004 127.043,151.868 126.899,152.732C126.251,154.964 124.307,156.549 122.004,156.549C119.483,156.549 117.107,155.468 115.451,153.524L111.275,157.412C114.083,160.436 117.971,162.093 122.004,162.093C127.115,162.093 131.507,158.564 132.803,153.668C132.947,152.444 133.091,151.292 133.091,150.14C133.091,148.916 132.947,147.764 132.803,146.54C131.507,141.572 127.115,138.116 122.004,138.116C120.779,138.116 119.555,138.405 118.475,138.98L118.475,132.86L132.299,132.86L132.299,127.316L112.499,127.316L112.499,143.66L117.683,145.028C118.908,144.164 120.42,143.66 122.004,143.66C124.307,143.66 126.251,145.244 126.899,147.405Z" style="fill:rgb(35,31,32);fill-rule:nonzero;"/>
        <path d="M126.899,147.405C127.043,148.268 127.115,149.204 127.115,150.14C127.115,151.004 127.043,151.868 126.899,152.732C126.251,154.964 124.307,156.549 122.004,156.549C119.483,156.549 117.107,155.468 115.451,153.524L111.275,157.412C114.083,160.436 117.971,162.093 122.004,162.093C127.115,162.093 131.507,158.564 132.803,153.668C132.947,152.444 133.091,151.292 133.091,150.14C133.091,148.916 132.947,147.764 132.803,146.54C131.507,141.572 127.115,138.116 122.004,138.116C120.779,138.116 119.555,138.405 118.475,138.98L118.475,132.86L132.299,132.86L132.299,127.316L112.499,127.316L112.499,143.66L117.683,145.028C118.908,144.164 120.42,143.66 122.004,143.66C124.307,143.66 126.251,145.244 126.899,147.405Z" style="fill:none;stroke:rgb(35,31,32);stroke-width:0.22px;"/>
        <path d="M103.859,127.316L98.315,127.316L94.211,131.42L94.211,137.252L97.883,135.093L97.883,161.301L103.859,161.301L103.859,127.316Z" style="fill:rgb(35,31,32);fill-rule:nonzero;"/>
        <path d="M103.859,127.316L98.315,127.316L94.211,131.42L94.211,137.252L97.883,135.093L97.883,161.301L103.859,161.301L103.859,127.316Z" style="fill:none;stroke:rgb(35,31,32);stroke-width:0.22px;"/>
        <path d="M95.939,61.509C94.067,61.509 92.555,63.021 92.555,64.892L92.555,91.029L175.067,91.029L175.067,65.757C175.067,63.453 173.195,61.509 170.819,61.509L95.939,61.509Z" style="fill:rgb(35,31,32);fill-rule:nonzero;"/>
        <path d="M95.939,61.509C94.067,61.509 92.555,63.021 92.555,64.892L92.555,91.029L175.067,91.029L175.067,65.757C175.067,63.453 173.195,61.509 170.819,61.509L95.939,61.509Z" style="fill:none;stroke:rgb(35,31,32);stroke-width:0.22px;"/>
        <path d="M162.755,105.86L162.755,105.717C162.755,101.54 160.523,97.652 156.923,95.493L175.067,95.493L175.067,105.86L162.755,105.86Z" style="fill:rgb(35,31,32);fill-rule:nonzero;"/>
        <path d="M162.755,105.86L162.755,105.717C162.755,101.54 160.523,97.652 156.923,95.493L175.067,95.493L175.067,105.86L162.755,105.86Z" style="fill:none;stroke:rgb(35,31,32);stroke-width:0.22px;"/>
        <path d="M92.555,105.86L92.555,95.493L144.827,95.493C141.155,97.652 138.995,101.54 138.995,105.717L138.995,105.86L92.555,105.86Z" style="fill:rgb(35,31,32);fill-rule:nonzero;"/>
        <path d="M92.555,105.86L92.555,95.493L144.827,95.493C141.155,97.652 138.995,101.54 138.995,105.717L138.995,105.86L92.555,105.86Z" style="fill:none;stroke:rgb(35,31,32);stroke-width:0.22px;"/>
    </g>
</svg>
