<?xml version="1.0" encoding="UTF-8" standalone="no"?>
<!DOCTYPE svg PUBLIC "-//W3C//DTD SVG 1.1//EN" "http://www.w3.org/Graphics/SVG/1.1/DTD/svg11.dtd">
<svg width="100%" height="100%" viewBox="0 0 171 171" version="1.1" xmlns="http://www.w3.org/2000/svg" xmlns:xlink="http://www.w3.org/1999/xlink" xml:space="preserve" xmlns:serif="http://www.serif.com/" style="fill-rule:evenodd;clip-rule:evenodd;stroke-linecap:round;stroke-linejoin:round;stroke-miterlimit:2;">
    <g>
        <rect x="0" y="0.936" width="170.064" height="170.064" style="fill:none;"/>
        <path d="M157.045,171L158.491,170.91L159.938,170.639L161.294,170.277L162.741,169.644L163.916,169.012L165.182,168.107L166.267,167.113L167.171,166.027L168.075,164.852L168.799,163.586L169.341,162.23L169.793,160.783L169.974,159.338L170.064,157.891L170.064,13.955L169.974,12.51L169.793,11.063L169.341,9.707L168.799,8.26L168.075,6.995L167.171,5.819L166.267,4.735L165.182,3.741L163.916,2.926L162.741,2.203L161.294,1.66L159.938,1.208L158.491,1.027L157.045,0.936L13.109,0.936L11.663,1.027L10.216,1.208L8.77,1.66L7.413,2.203L6.147,2.926L4.972,3.741L3.887,4.735L2.893,5.819L2.079,6.995L1.265,8.26L0.723,9.707L0.361,11.063L0.09,12.51L0,13.955L0,157.891L0.09,159.338L0.361,160.783L0.723,162.23L1.265,163.586L2.079,164.852L2.893,166.027L3.887,167.113L4.972,168.107L6.147,169.012L7.413,169.644L8.77,170.277L10.216,170.639L11.663,170.91L13.109,171L157.045,171Z" style="fill:white;fill-rule:nonzero;"/>
        <path d="M157.045,171L158.491,170.91L159.938,170.639L161.294,170.277L162.741,169.644L163.916,169.012L165.182,168.107L166.267,167.113L167.171,166.027L168.075,164.852L168.799,163.586L169.341,162.23L169.793,160.783L169.974,159.338L170.064,157.891L170.064,13.955L169.974,12.51L169.793,11.063L169.341,9.707L168.799,8.26L168.075,6.995L167.171,5.819L166.267,4.735L165.182,3.741L163.916,2.926L162.741,2.203L161.294,1.66L159.938,1.208L158.491,1.027L157.045,0.936L13.109,0.936L11.663,1.027L10.216,1.208L8.77,1.66L7.413,2.203L6.147,2.926L4.972,3.741L3.887,4.735L2.893,5.819L2.079,6.995L1.265,8.26L0.723,9.707L0.361,11.063L0.09,12.51L0,13.955L0,157.891L0.09,159.338L0.361,160.783L0.723,162.23L1.265,163.586L2.079,164.852L2.893,166.027L3.887,167.113L4.972,168.107L6.147,169.012L7.413,169.644L8.77,170.277L10.216,170.639L11.663,170.91L13.109,171L157.045,171Z" style="fill:none;"/>
        <path d="M157.045,164.4L158.039,164.311L159.034,164.129L159.938,163.768L160.842,163.135L161.656,162.502L162.289,161.687L162.831,160.875L163.192,159.879L163.464,158.885L163.555,157.891L163.555,13.955L163.464,12.961L163.192,11.967L162.831,10.973L162.289,10.159L161.656,9.346L160.842,8.622L159.938,8.17L159.034,7.717L158.039,7.538L157.045,7.446L13.109,7.446L12.024,7.538L11.03,7.717L10.126,8.17L9.221,8.622L8.498,9.346L7.775,10.159L7.323,10.973L6.871,11.967L6.6,12.961L6.6,158.885L6.871,159.879L7.323,160.875L7.775,161.687L8.498,162.502L9.221,163.135L10.126,163.768L11.03,164.129L12.024,164.311L13.109,164.4L157.045,164.4Z" style="fill:rgb(0,64,128);fill-rule:nonzero;"/>
        <path d="M157.045,164.4L158.039,164.311L159.034,164.129L159.938,163.768L160.842,163.135L161.656,162.502L162.289,161.687L162.831,160.875L163.192,159.879L163.464,158.885L163.555,157.891L163.555,13.955L163.464,12.961L163.192,11.967L162.831,10.973L162.289,10.159L161.656,9.346L160.842,8.622L159.938,8.17L159.034,7.717L158.039,7.538L157.045,7.446L13.109,7.446L12.024,7.538L11.03,7.717L10.126,8.17L9.221,8.622L8.498,9.346L7.775,10.159L7.323,10.973L6.871,11.967L6.6,12.961L6.6,158.885L6.871,159.879L7.323,160.875L7.775,161.687L8.498,162.502L9.221,163.135L10.126,163.768L11.03,164.129L12.024,164.311L13.109,164.4L157.045,164.4Z" style="fill:none;"/>
        <path d="M132.182,144.781L133.538,144.691L134.984,144.42L136.341,144.059L137.606,143.426L138.872,142.701L139.957,141.889L140.951,140.803L141.855,139.719L142.579,138.543L143.212,137.187L143.573,135.83L143.845,134.475L143.936,133.027L143.936,38.819L143.845,37.373L143.573,36.016L143.212,34.661L142.579,33.395L141.855,32.129L140.951,31.043L139.957,30.049L138.872,29.145L137.606,28.422L136.341,27.789L134.984,27.428L133.538,27.157L132.182,27.067L37.972,27.067L36.526,27.157L35.169,27.428L33.723,27.789L32.547,28.422L31.282,29.145L30.197,30.049L29.202,31.043L28.298,32.129L27.484,33.395L26.942,34.661L26.49,36.016L26.219,37.373L26.128,38.819L26.128,133.027L26.219,134.475L26.49,135.83L26.942,137.187L27.484,138.543L28.298,139.719L29.202,140.803L30.197,141.889L31.282,142.701L32.547,143.426L33.723,144.059L35.169,144.42L36.526,144.691L37.972,144.781L132.182,144.781Z" style="fill:white;fill-rule:nonzero;"/>
        <path d="M132.182,144.781L133.538,144.691L134.984,144.42L136.341,144.059L137.606,143.426L138.872,142.701L139.957,141.889L140.951,140.803L141.855,139.719L142.579,138.543L143.212,137.187L143.573,135.83L143.845,134.475L143.936,133.027L143.936,38.819L143.845,37.373L143.573,36.016L143.212,34.661L142.579,33.395L141.855,32.129L140.951,31.043L139.957,30.049L138.872,29.145L137.606,28.422L136.341,27.789L134.984,27.428L133.538,27.157L132.182,27.067L37.972,27.067L36.526,27.157L35.169,27.428L33.723,27.789L32.547,28.422L31.282,29.145L30.197,30.049L29.202,31.043L28.298,32.129L27.484,33.395L26.942,34.661L26.49,36.016L26.219,37.373L26.128,38.819L26.128,133.027L26.219,134.475L26.49,135.83L26.942,137.187L27.484,138.543L28.298,139.719L29.202,140.803L30.197,141.889L31.282,142.701L32.547,143.426L33.723,144.059L35.169,144.42L36.526,144.691L37.972,144.781L132.182,144.781Z" style="fill:none;"/>
        <path d="M90.819,58.604C83.831,60.26 78.897,66.498 78.897,73.68L78.897,130.076C78.897,131.445 80.005,132.557 81.375,132.557L107.405,132.557C108.775,132.557 109.885,131.445 109.885,130.076L109.885,73.68C109.885,67.743 106.489,62.327 101.148,59.739L101.148,57.473C104.807,58.998 107.841,61.717 109.757,65.186C110.641,66.784 112.654,67.362 114.25,66.479C115.848,65.596 116.426,63.584 115.542,61.987C113.353,58.022 110.091,54.752 106.13,52.553C108.434,50.475 109.205,47.184 108.065,44.299C106.925,41.414 104.115,39.539 101.013,39.594C97.91,39.651 95.17,41.627 94.134,44.553L90.819,44.553L90.819,48.891L80.489,48.891L80.489,47.28C80.489,46.782 80.124,46.358 79.631,46.284L55.291,42.663C54.994,42.62 54.693,42.705 54.465,42.903C54.236,43.098 54.107,43.383 54.107,43.686L54.107,60.914C54.107,61.215 54.236,61.5 54.465,61.696C54.693,61.893 54.994,61.979 55.291,61.934L80.664,58.161C81.156,58.088 81.522,57.664 81.522,57.164L81.522,56.122L90.819,56.122L90.819,58.604Z" style="fill:rgb(211,63,39);fill-rule:nonzero;"/>
        <path d="M90.819,58.604C83.831,60.26 78.897,66.498 78.897,73.68L78.897,130.076C78.897,131.445 80.005,132.557 81.375,132.557L107.405,132.557C108.775,132.557 109.885,131.445 109.885,130.076L109.885,73.68C109.885,67.743 106.489,62.327 101.148,59.739L101.148,57.473C104.807,58.998 107.841,61.717 109.757,65.186C110.641,66.784 112.654,67.362 114.25,66.479C115.848,65.596 116.426,63.584 115.542,61.987C113.353,58.022 110.091,54.752 106.13,52.553C108.434,50.475 109.205,47.184 108.065,44.299C106.925,41.414 104.115,39.539 101.013,39.594C97.91,39.651 95.17,41.627 94.134,44.553L90.819,44.553L90.819,48.891L80.489,48.891L80.489,47.28C80.489,46.782 80.124,46.358 79.631,46.284L55.291,42.663C54.994,42.62 54.693,42.705 54.465,42.903C54.236,43.098 54.107,43.383 54.107,43.686L54.107,60.914C54.107,61.215 54.236,61.5 54.465,61.696C54.693,61.893 54.994,61.979 55.291,61.934L80.664,58.161C81.156,58.088 81.522,57.664 81.522,57.164L81.522,56.122L90.819,56.122L90.819,58.604Z" style="fill:none;stroke:rgb(211,63,39);stroke-width:0.87px;"/>
        <path d="M103.628,47.032C103.628,45.663 102.517,44.553 101.148,44.553C99.777,44.553 98.67,45.663 98.67,47.032C98.67,48.401 99.777,49.512 101.148,49.512C102.517,49.512 103.628,48.401 103.628,47.032Z" style="fill:white;fill-rule:nonzero;"/>
        <path d="M103.628,47.032C103.628,45.663 102.517,44.553 101.148,44.553C99.777,44.553 98.67,45.663 98.67,47.032C98.67,48.401 99.777,49.512 101.148,49.512C102.517,49.512 103.628,48.401 103.628,47.032Z" style="fill:none;stroke:white;stroke-width:0.87px;"/>
    </g>
</svg>
