<?xml version="1.0" encoding="UTF-8" standalone="no"?>
<!DOCTYPE svg PUBLIC "-//W3C//DTD SVG 1.1//EN" "http://www.w3.org/Graphics/SVG/1.1/DTD/svg11.dtd">
<svg width="100%" height="100%" viewBox="0 0 313 473" version="1.1" xmlns="http://www.w3.org/2000/svg" xmlns:xlink="http://www.w3.org/1999/xlink" xml:space="preserve" xmlns:serif="http://www.serif.com/" style="fill-rule:evenodd;clip-rule:evenodd;stroke-linecap:square;stroke-miterlimit:2;">
    <g>
        <path d="M302.125,470.375L304.125,470.125L305.875,469.625L307.375,468.625L308.875,467.125L309.875,465.625L310.375,463.875L310.625,461.875L310.625,11.375L310.375,9.375L309.875,7.625L308.875,6.125L307.375,4.625L305.875,3.625L304.125,3.125L302.125,2.875L10.875,2.875L9.125,3.125L7.375,3.625L5.625,4.625L4.375,6.125L3.375,7.625L2.625,9.375L2.625,463.875L3.375,465.625L4.375,467.125L5.625,468.625L7.375,469.625L9.125,470.125L10.875,470.375L302.125,470.375Z" style="fill:rgb(35,31,32);fill-rule:nonzero;"/>
        <path d="M302.125,470.375L304.125,470.125L305.875,469.625L307.375,468.625L308.875,467.125L309.875,465.625L310.375,463.875L310.625,461.875L310.625,11.375L310.375,9.375L309.875,7.625L308.875,6.125L307.375,4.625L305.875,3.625L304.125,3.125L302.125,2.875L10.875,2.875L9.125,3.125L7.375,3.625L5.625,4.625L4.375,6.125L3.375,7.625L2.625,9.375L2.625,463.875L3.375,465.625L4.375,467.125L5.625,468.625L7.375,469.625L9.125,470.125L10.875,470.375L302.125,470.375Z" style="fill:none;stroke:rgb(35,31,32);stroke-width:0.75px;"/>
        <path d="M302.125,466.375L303.375,466.125L304.625,465.375L305.625,464.375L306.125,463.375L306.375,461.875L306.375,11.375L306.125,10.125L305.625,8.875L304.625,7.875L303.375,7.375L302.125,7.125L10.875,7.125L9.625,7.375L8.625,7.875L7.625,8.875L6.875,10.125L6.625,11.375L6.625,461.875L6.875,463.375L7.625,464.375L8.625,465.375L9.625,466.125L10.875,466.375L302.125,466.375Z" style="fill:rgb(254,190,15);fill-rule:nonzero;"/>
        <path d="M302.125,466.375L303.375,466.125L304.625,465.375L305.625,464.375L306.125,463.375L306.375,461.875L306.375,11.375L306.125,10.125L305.625,8.875L304.625,7.875L303.375,7.375L302.125,7.125L10.875,7.125L9.625,7.375L8.625,7.875L7.625,8.875L6.875,10.125L6.625,11.375L6.625,461.875L6.875,463.375L7.625,464.375L8.625,465.375L9.625,466.125L10.875,466.375L302.125,466.375Z" style="fill:none;stroke:rgb(254,190,15);stroke-width:0.75px;"/>
        <path d="M204.375,323.625L204.375,188.625L93.875,141.125L93.875,104.875L80.875,92.125L68.375,104.875L68.375,189.875L93.875,189.875L93.875,164.375L183.125,202.625L183.125,308.875L93.875,342.875L93.875,317.375L68.375,317.375L68.375,402.375L93.875,402.375L93.875,365.625L204.375,323.625Z" style="fill:rgb(35,31,32);fill-rule:nonzero;"/>
        <path d="M204.375,323.625L204.375,188.625L93.875,141.125L93.875,104.875L80.875,92.125L68.375,104.875L68.375,189.875L93.875,189.875L93.875,164.375L183.125,202.625L183.125,308.875L93.875,342.875L93.875,317.375L68.375,317.375L68.375,402.375L93.875,402.375L93.875,365.625L204.375,323.625Z" style="fill:none;stroke:rgb(35,31,32);stroke-width:0.75px;"/>
        <rect x="44.375" y="24.125" width="73.25" height="51" style="fill:rgb(0,154,111);"/>
        <rect x="44.375" y="24.125" width="73.25" height="51" style="fill:none;stroke:rgb(0,154,111);stroke-width:0.75px;"/>
        <path d="M115.625,70.875L115.375,71.375L115.125,72.125L114.625,72.625L114.125,72.875L47.875,72.875L47.375,72.625L46.875,72.125L46.625,71.375L46.625,27.625L46.875,27.125L47.375,26.625L47.875,26.375L48.625,26.125L113.625,26.125L114.625,26.625L115.125,27.125L115.375,27.625L115.625,28.375L115.625,70.875ZM117.375,27.125L116.875,25.875L115.875,24.875L114.875,24.375L113.625,24.125L48.625,24.125L47.375,24.375L46.125,24.875L45.125,25.875L44.625,27.125L44.375,28.375L44.375,70.875L44.625,72.125L45.125,73.375L46.125,74.125L47.375,74.875L48.625,75.125L113.625,75.125L114.875,74.875L116.875,73.375L117.375,72.125L117.625,70.875L117.625,28.375L117.375,27.125Z" style="fill:white;"/>
        <path d="M73.875,40.875L73.875,36.875L58.125,36.875L58.125,62.375L73.875,62.375L73.875,58.375L62.625,58.375L62.625,51.125L70.875,51.125L70.875,46.875L62.625,46.875L62.625,40.875L73.875,40.875Z" style="fill:white;fill-rule:nonzero;"/>
        <path d="M73.875,40.875L73.875,36.875L58.125,36.875L58.125,62.375L73.875,62.375L73.875,58.375L62.625,58.375L62.625,51.125L70.875,51.125L70.875,46.875L62.625,46.875L62.625,40.875L73.875,40.875Z" style="fill:none;stroke:white;stroke-width:0.75px;"/>
        <path d="M104.125,54.375L104.125,53.125L103.875,51.875L103.625,50.875L103.125,49.625L101.875,47.875L100.125,46.375L98.125,45.375L96.875,45.125L95.875,44.875L94.875,45.125L93.625,45.375L91.625,46.375L92.875,42.625L93.625,41.625L94.875,40.875L95.875,40.375L97.375,40.375L98.625,40.625L99.375,41.375L102.125,38.125L100.875,37.125L99.625,36.625L98.125,36.125L96.625,36.125L93.625,36.625L91.125,38.125L89.625,39.875L88.375,41.875L87.625,44.125L86.875,46.625L86.625,49.125L86.625,51.875L87.125,56.375L87.875,58.125L88.625,59.375L89.625,60.625L90.875,61.625L92.125,62.125L93.625,62.625L95.125,62.875L96.625,62.625L97.875,62.375L99.375,61.875L100.625,61.125L102.625,59.125L103.375,57.625L103.875,56.125L104.125,54.375Z" style="fill:white;fill-rule:nonzero;"/>
        <path d="M104.125,54.375L104.125,53.125L103.875,51.875L103.625,50.875L103.125,49.625L101.875,47.875L100.125,46.375L98.125,45.375L96.875,45.125L95.875,44.875L94.875,45.125L93.625,45.375L91.625,46.375L92.875,42.625L93.625,41.625L94.875,40.875L95.875,40.375L97.375,40.375L98.625,40.625L99.375,41.375L102.125,38.125L100.875,37.125L99.625,36.625L98.125,36.125L96.625,36.125L93.625,36.625L91.125,38.125L89.625,39.875L88.375,41.875L87.625,44.125L86.875,46.625L86.625,49.125L86.625,51.875L87.125,56.375L87.875,58.125L88.625,59.375L89.625,60.625L90.875,61.625L92.125,62.125L93.625,62.625L95.125,62.875L96.625,62.625L97.875,62.375L99.375,61.875L100.625,61.125L102.625,59.125L103.375,57.625L103.875,56.125L104.125,54.375Z" style="fill:none;stroke:white;stroke-width:0.75px;"/>
        <path d="M99.625,53.125L99.375,52.125L98.875,51.125L98.375,50.375L97.875,49.875L97.125,49.375L96.375,49.125L94.875,49.125L94.125,49.375L93.375,49.875L92.875,50.375L92.125,50.875L91.875,51.625L91.375,52.625L91.375,54.625L91.625,55.625L92.125,56.625L92.625,57.375L93.125,57.875L93.875,58.375L94.625,58.625L96.125,58.625L97.625,58.125L98.625,57.125L99.125,56.375L99.625,54.375L99.625,53.125Z" style="fill:rgb(0,154,111);fill-rule:nonzero;"/>
        <path d="M99.625,53.125L99.375,52.125L98.875,51.125L98.375,50.375L97.875,49.875L97.125,49.375L96.375,49.125L94.875,49.125L94.125,49.375L93.375,49.875L92.875,50.375L92.125,50.875L91.875,51.625L91.375,52.625L91.375,54.625L91.625,55.625L92.125,56.625L92.625,57.375L93.125,57.875L93.875,58.375L94.625,58.625L96.125,58.625L97.625,58.125L98.625,57.125L99.125,56.375L99.625,54.375L99.625,53.125Z" style="fill:none;stroke:white;stroke-width:0.75px;"/>
        <path d="M138.375,253.625L138.125,247.625L137.125,242.125L135.875,236.625L133.875,231.375L131.375,226.375L128.625,221.625L125.375,217.125L121.625,213.125L117.375,209.375L113.125,206.125L108.375,203.375L103.375,200.875L98.125,198.875L92.625,197.625L86.875,196.625L80.875,196.375L75.125,196.625L69.375,197.625L63.875,198.875L58.625,200.875L53.625,203.375L48.875,206.125L44.625,209.375L40.375,213.125L36.875,217.125L33.625,221.625L30.625,226.375L28.375,231.375L26.375,236.625L24.875,242.125L24.125,247.625L23.875,253.625L23.875,256.625L24.125,259.375L24.875,265.125L26.375,270.625L28.125,275.875L30.625,280.875L33.375,285.625L36.875,290.125L40.625,294.125L44.625,297.875L49.125,301.125L53.625,304.125L58.625,306.375L64.125,308.375L69.375,309.875L75.125,310.625L78.125,310.875L83.875,310.875L86.875,310.625L92.625,309.875L97.875,308.375L103.375,306.375L108.375,304.125L113.125,301.125L117.375,297.875L121.625,294.125L125.375,290.125L128.625,285.625L131.375,280.875L133.875,275.875L135.875,270.625L137.125,265.125L138.125,259.375L138.375,256.625L138.375,253.625Z" style="fill:white;fill-rule:nonzero;"/>
        <path d="M138.375,253.625L138.125,247.625L137.125,242.125L135.875,236.625L133.875,231.375L131.375,226.375L128.625,221.625L125.375,217.125L121.625,213.125L117.375,209.375L113.125,206.125L108.375,203.375L103.375,200.875L98.125,198.875L92.625,197.625L86.875,196.625L80.875,196.375L75.125,196.625L69.375,197.625L63.875,198.875L58.625,200.875L53.625,203.375L48.875,206.125L44.625,209.375L40.375,213.125L36.875,217.125L33.625,221.625L30.625,226.375L28.375,231.375L26.375,236.625L24.875,242.125L24.125,247.625L23.875,253.625L23.875,256.625L24.125,259.375L24.875,265.125L26.375,270.625L28.125,275.875L30.625,280.875L33.375,285.625L36.875,290.125L40.625,294.125L44.625,297.875L49.125,301.125L53.625,304.125L58.625,306.375L64.125,308.375L69.375,309.875L75.125,310.625L78.125,310.875L83.875,310.875L86.875,310.625L92.625,309.875L97.875,308.375L103.375,306.375L108.375,304.125L113.125,301.125L117.375,297.875L121.625,294.125L125.375,290.125L128.625,285.625L131.375,280.875L133.875,275.875L135.875,270.625L137.125,265.125L138.125,259.375L138.375,256.625L138.375,253.625Z" style="fill:none;stroke:white;stroke-width:0.75px;"/>
        <path d="M136.375,253.625L136.125,247.875L135.125,242.625L133.875,237.125L131.875,232.125L129.625,227.375L126.875,222.625L123.625,218.375L120.125,214.625L116.125,210.875L111.875,207.875L107.375,205.125L102.375,202.625L97.375,200.875L92.125,199.375L86.625,198.625L80.875,198.375L75.375,198.625L69.875,199.625L64.625,200.875L59.625,202.625L54.625,205.125L50.125,207.875L45.875,211.125L41.875,214.625L38.375,218.625L35.125,222.875L32.375,227.375L30.125,232.125L28.375,237.125L26.875,242.625L26.125,247.875L25.875,253.625L26.125,259.375L26.875,264.875L28.375,270.125L30.125,275.125L32.375,279.875L35.125,284.625L38.375,288.875L41.875,292.625L45.875,296.375L50.125,299.375L54.625,302.125L59.375,304.625L64.625,306.375L69.875,307.875L75.375,308.625L80.875,308.875L86.625,308.625L92.125,307.875L97.625,306.375L102.625,304.625L107.375,302.125L111.875,299.375L116.125,296.375L120.125,292.875L123.625,288.875L126.875,284.625L129.625,280.125L131.875,275.125L133.875,270.125L135.125,264.875L136.125,259.375L136.375,253.625Z" style="fill:rgb(241,93,42);fill-rule:nonzero;"/>
        <path d="M136.375,253.625L136.125,247.875L135.125,242.625L133.875,237.125L131.875,232.125L129.625,227.375L126.875,222.625L123.625,218.375L120.125,214.625L116.125,210.875L111.875,207.875L107.375,205.125L102.375,202.625L97.375,200.875L92.125,199.375L86.625,198.625L80.875,198.375L75.375,198.625L69.875,199.625L64.625,200.875L59.625,202.625L54.625,205.125L50.125,207.875L45.875,211.125L41.875,214.625L38.375,218.625L35.125,222.875L32.375,227.375L30.125,232.125L28.375,237.125L26.875,242.625L26.125,247.875L25.875,253.625L26.125,259.375L26.875,264.875L28.375,270.125L30.125,275.125L32.375,279.875L35.125,284.625L38.375,288.875L41.875,292.625L45.875,296.375L50.125,299.375L54.625,302.125L59.375,304.625L64.625,306.375L69.875,307.875L75.375,308.625L80.875,308.875L86.625,308.625L92.125,307.875L97.625,306.375L102.625,304.625L107.375,302.125L111.875,299.375L116.125,296.375L120.125,292.875L123.625,288.875L126.875,284.625L129.625,280.125L131.875,275.125L133.875,270.125L135.125,264.875L136.125,259.375L136.375,253.625Z" style="fill:none;stroke:rgb(241,93,42);stroke-width:0.75px;"/>
        <path d="M122.125,247.125L120.375,240.875L117.875,234.875L114.625,229.375L110.375,224.375L105.375,220.125L99.875,216.625L93.875,214.375L87.375,212.625L80.875,212.125L74.625,212.625L68.375,214.375L62.125,216.625L56.625,220.125L51.625,224.375L47.625,229.375L44.125,234.875L41.625,240.875L40.125,247.125L39.625,253.625L40.125,260.125L41.625,266.375L44.125,272.375L47.625,277.875L51.625,283.125L56.625,287.125L62.125,290.625L68.375,293.125L74.625,294.625L80.875,295.125L87.375,294.625L93.875,293.125L99.875,290.625L105.375,287.125L110.375,283.125L114.625,277.875L117.875,272.375L120.375,266.375L122.125,260.125L122.625,253.625L122.125,247.125Z" style="fill:rgb(249,249,249);"/>
        <path d="M84.875,212.375L77.125,212.375L69.625,213.875L80.875,225.375L92.375,213.875L84.875,212.375Z"/>
        <path d="M80.875,281.875L69.625,293.625L77.125,294.875L84.875,294.875L92.375,293.625L80.875,281.875Z"/>
        <path d="M66.625,256.375L65.875,254.375L64.625,252.875L63.875,252.375L63.125,251.625L64.125,250.875L64.875,249.875L65.375,248.875L65.875,247.625L66.125,246.625L66.125,244.125L65.625,243.125L65.375,241.875L64.625,240.875L64.125,240.125L63.125,239.125L62.125,238.375L61.125,237.875L58.625,237.375L57.625,237.125L56.375,237.125L53.875,237.625L52.875,238.125L50.875,239.625L49.875,240.625L48.875,242.625L48.875,243.125L53.625,244.625L54.125,243.375L54.875,242.625L55.875,242.125L57.375,241.875L58.375,242.125L59.125,242.375L60.625,243.875L60.875,244.625L61.125,245.625L60.875,246.625L60.625,247.375L60.125,248.125L58.625,249.125L57.875,249.375L56.125,249.375L56.125,254.125L58.125,254.125L59.125,254.375L59.875,254.875L60.625,255.625L61.125,256.375L61.625,257.375L61.625,259.375L61.375,260.125L60.875,261.125L59.875,262.125L57.875,262.625L55.875,262.625L54.625,262.125L53.625,261.375L53.125,260.125L52.875,259.625L48.125,261.625L48.375,262.375L48.875,263.125L49.625,264.125L50.125,264.875L51.875,266.125L53.875,267.125L55.875,267.625L58.125,267.625L60.125,267.125L62.125,266.375L63.875,265.375L65.125,263.875L66.125,262.125L66.625,260.125L66.875,258.125L66.625,256.375Z"/>
        <path d="M72.875,265.125L72.375,264.125L71.625,263.375L71.125,263.125L70.375,262.875L68.875,263.375L68.625,263.625L68.125,264.375L67.875,265.125L67.875,265.375L68.125,266.125L68.625,266.625L69.125,266.875L70.125,266.875L70.375,266.625L70.625,267.375L70.375,268.125L70.125,268.375L69.375,268.875L68.875,268.875L68.875,270.125L69.875,270.125L70.625,269.875L71.125,269.625L71.875,269.125L71.875,268.875L72.375,268.375L72.625,267.875L73.125,266.375L72.875,265.125Z"/>
        <path d="M88.625,255.875L87.625,254.125L87.125,253.625L86.875,253.125L86.375,252.875L84.875,251.875L84.375,251.625L83.625,251.375L82.875,251.375L82.125,251.125L81.625,251.125L80.875,251.375L80.125,251.375L79.375,251.875L79.375,247.625L88.625,247.625L88.625,244.125L75.125,244.125L75.125,254.875L78.625,255.875L80.125,255.125L81.625,254.875L83.125,255.375L84.125,255.875L84.625,256.375L84.875,257.125L85.125,259.125L85.125,260.625L84.375,262.125L83.375,263.125L82.625,263.375L81.625,263.625L80.875,263.625L80.125,263.375L79.625,263.125L78.875,262.875L78.125,262.375L77.625,262.125L77.375,261.625L74.625,264.125L75.875,265.375L77.625,266.375L79.375,267.125L81.375,267.375L83.125,267.125L84.875,266.625L86.625,265.625L87.875,264.125L88.625,262.625L89.125,260.875L89.125,257.625L88.625,255.875Z"/>
        <path d="M113.125,254.375L112.625,254.125L112.625,253.875L111.375,253.125L109.625,252.625L108.125,252.875L107.375,253.125L106.625,253.625L105.625,254.375L105.125,254.125L104.875,253.625L103.375,252.875L102.875,252.875L102.375,252.625L102.125,252.625L100.875,252.875L100.375,253.125L99.375,253.375L99.125,253.875L98.875,253.875L98.875,253.125L96.125,253.125L96.125,266.875L98.875,266.875L98.875,257.625L99.125,257.125L99.125,256.625L99.625,256.125L101.125,255.375L101.875,255.375L102.375,255.625L102.875,256.125L103.375,256.875L103.625,257.625L103.625,266.875L106.375,266.875L106.375,257.625L106.625,257.125L106.625,256.625L107.125,256.125L107.625,255.875L107.875,255.625L108.625,255.375L109.375,255.375L109.875,255.625L110.375,256.125L110.875,256.375L110.875,266.875L113.875,266.875L113.875,255.875L113.125,254.375Z"/>
        <path d="M26.375,442.375L27.375,443.625L28.875,444.375L30.375,444.875L32.125,445.125L33.375,444.875L34.875,444.125L35.875,443.125L36.375,441.875L36.625,439.375L36.375,437.125L35.875,435.875L34.875,434.625L33.375,433.875L32.125,433.625L29.875,434.125L28.125,434.875L23.875,433.625L23.875,419.375L41.125,419.375L41.125,424.375L28.875,424.375L28.875,429.625L29.875,429.125L31.125,428.875L32.375,428.875L33.625,429.125L36.125,429.875L38.125,430.875L39.375,432.125L40.375,433.375L41.125,434.625L41.875,439.125L41.625,442.375L40.875,444.125L39.375,446.625L38.375,447.625L37.125,448.375L36.125,449.125L34.625,449.625L33.375,449.875L30.625,449.875L29.125,449.625L27.875,449.125L26.375,448.625L25.125,447.875L22.625,445.875L26.375,442.375Z" style="fill:rgb(35,31,32);fill-rule:nonzero;"/>
        <path d="M26.375,442.375L27.375,443.625L28.875,444.375L30.375,444.875L32.125,445.125L33.375,444.875L34.875,444.125L35.875,443.125L36.375,441.875L36.625,439.375L36.375,437.125L35.875,435.875L34.875,434.625L33.375,433.875L32.125,433.625L29.875,434.125L28.125,434.875L23.875,433.625L23.875,419.375L41.125,419.375L41.125,424.375L28.875,424.375L28.875,429.625L29.875,429.125L31.125,428.875L32.375,428.875L33.625,429.125L36.125,429.875L38.125,430.875L39.375,432.125L40.375,433.375L41.125,434.625L41.875,439.125L41.625,442.375L40.875,444.125L39.375,446.625L38.375,447.625L37.125,448.375L36.125,449.125L34.625,449.625L33.375,449.875L30.625,449.875L29.125,449.625L27.875,449.125L26.375,448.625L25.125,447.875L22.625,445.875L26.375,442.375Z" style="fill:none;stroke:rgb(35,31,32);stroke-width:0.75px;"/>
        <path d="M49.125,427.875L48.625,430.375L48.375,433.375L48.375,436.625L48.875,439.625L49.625,442.625L50.125,444.125L50.875,445.375L51.875,446.625L52.875,447.625L53.875,448.375L55.125,449.125L57.625,449.875L60.125,449.875L62.125,449.375L64.125,448.625L65.875,447.125L67.375,445.375L68.375,443.375L69.125,440.875L69.625,438.125L69.875,435.125L69.875,432.125L69.375,428.875L68.625,426.125L68.125,424.625L67.375,423.375L66.375,422.375L65.375,421.125L64.375,420.375L62.875,419.625L60.625,418.875L58.125,418.875L56.125,419.125L54.125,420.125L52.375,421.625L50.875,423.375L49.875,425.375L49.125,427.875Z" style="fill:rgb(35,31,32);fill-rule:nonzero;"/>
        <path d="M49.125,427.875L48.625,430.375L48.375,433.375L48.375,436.625L48.875,439.625L49.625,442.625L50.125,444.125L50.875,445.375L51.875,446.625L52.875,447.625L53.875,448.375L55.125,449.125L57.625,449.875L60.125,449.875L62.125,449.375L64.125,448.625L65.875,447.125L67.375,445.375L68.375,443.375L69.125,440.875L69.625,438.125L69.875,435.125L69.875,432.125L69.375,428.875L68.625,426.125L68.125,424.625L67.375,423.375L66.375,422.375L65.375,421.125L64.375,420.375L62.875,419.625L60.625,418.875L58.125,418.875L56.125,419.125L54.125,420.125L52.375,421.625L50.875,423.375L49.875,425.375L49.125,427.875Z" style="fill:none;stroke:rgb(35,31,32);stroke-width:0.75px;"/>
        <path d="M54.125,429.125L53.625,430.625L53.625,432.625L53.375,434.625L53.625,436.875L53.875,438.875L54.375,440.875L55.375,442.625L56.375,443.875L57.625,444.875L59.125,445.125L60.625,444.875L61.875,443.875L62.875,442.625L64.125,439.625L64.375,438.125L64.625,436.125L64.625,431.875L64.125,429.625L63.625,427.625L62.875,426.125L61.875,424.625L60.625,423.875L59.125,423.625L57.625,423.875L56.375,424.625L55.375,425.875L54.125,429.125Z" style="fill:rgb(254,190,15);fill-rule:nonzero;"/>
        <path d="M54.125,429.125L53.625,430.625L53.625,432.625L53.375,434.625L53.625,436.875L53.875,438.875L54.375,440.875L55.375,442.625L56.375,443.875L57.625,444.875L59.125,445.125L60.625,444.875L61.875,443.875L62.875,442.625L64.125,439.625L64.375,438.125L64.625,436.125L64.625,431.875L64.125,429.625L63.625,427.625L62.875,426.125L61.875,424.625L60.625,423.875L59.125,423.625L57.625,423.875L56.375,424.625L55.375,425.875L54.125,429.125Z" style="fill:none;stroke:rgb(35,31,32);stroke-width:0.75px;"/>
        <path d="M77.375,427.875L76.875,430.375L76.625,433.375L76.625,436.625L77.125,439.625L77.875,442.625L78.375,444.125L79.125,445.375L80.125,446.625L81.125,447.625L82.125,448.375L83.375,449.125L85.875,449.875L88.375,449.875L90.375,449.375L92.375,448.625L94.125,447.125L95.625,445.375L96.625,443.375L97.375,440.875L97.875,438.125L98.125,435.125L98.125,432.125L97.625,428.875L96.875,426.125L96.375,424.625L95.625,423.375L94.625,422.375L93.625,421.125L92.625,420.375L91.125,419.625L88.875,418.875L86.375,418.875L84.375,419.125L82.375,420.125L80.625,421.625L79.125,423.375L78.125,425.375L77.375,427.875Z" style="fill:rgb(35,31,32);fill-rule:nonzero;"/>
        <path d="M77.375,427.875L76.875,430.375L76.625,433.375L76.625,436.625L77.125,439.625L77.875,442.625L78.375,444.125L79.125,445.375L80.125,446.625L81.125,447.625L82.125,448.375L83.375,449.125L85.875,449.875L88.375,449.875L90.375,449.375L92.375,448.625L94.125,447.125L95.625,445.375L96.625,443.375L97.375,440.875L97.875,438.125L98.125,435.125L98.125,432.125L97.625,428.875L96.875,426.125L96.375,424.625L95.625,423.375L94.625,422.375L93.625,421.125L92.625,420.375L91.125,419.625L88.875,418.875L86.375,418.875L84.375,419.125L82.375,420.125L80.625,421.625L79.125,423.375L78.125,425.375L77.375,427.875Z" style="fill:none;stroke:rgb(35,31,32);stroke-width:0.75px;"/>
        <path d="M82.375,429.125L81.875,430.625L81.875,432.625L81.625,434.625L81.875,436.875L82.125,438.875L82.625,440.875L83.625,442.625L84.625,443.875L85.875,444.875L87.375,445.125L88.875,444.875L90.125,443.875L91.125,442.625L92.375,439.625L92.625,438.125L92.875,436.125L92.875,431.875L92.375,429.625L91.875,427.625L91.125,426.125L90.125,424.625L88.875,423.875L87.375,423.625L85.875,423.875L84.625,424.625L83.625,425.875L82.375,429.125Z" style="fill:rgb(254,190,15);fill-rule:nonzero;"/>
        <path d="M82.375,429.125L81.875,430.625L81.875,432.625L81.625,434.625L81.875,436.875L82.125,438.875L82.625,440.875L83.625,442.625L84.625,443.875L85.875,444.875L87.375,445.125L88.875,444.875L90.125,443.875L91.125,442.625L92.375,439.625L92.625,438.125L92.875,436.125L92.875,431.875L92.375,429.625L91.875,427.625L91.125,426.125L90.125,424.625L88.875,423.875L87.375,423.625L85.875,423.875L84.625,424.625L83.625,425.875L82.375,429.125Z" style="fill:none;stroke:rgb(35,31,32);stroke-width:0.75px;"/>
        <path d="M138.375,449.125L142.875,449.125L142.875,434.125L142.625,432.375L141.875,430.625L140.875,429.375L139.375,428.125L138.125,427.625L136.875,427.375L135.625,427.375L134.375,427.625L133.375,427.875L132.125,428.375L131.125,429.125L130.125,430.125L129.125,429.125L127.875,428.125L126.625,427.625L125.125,427.375L123.875,427.375L122.375,427.625L121.125,428.375L119.875,429.375L119.875,427.875L115.375,427.875L115.375,449.125L119.875,449.125L119.875,435.125L120.125,434.125L120.375,433.625L120.625,432.875L121.125,432.375L122.125,431.875L123.375,431.625L124.625,431.875L125.875,432.375L126.625,433.625L126.875,434.375L126.875,449.125L131.375,449.125L131.375,434.375L131.625,433.625L132.625,432.375L133.625,431.875L134.875,431.625L136.125,431.875L137.375,432.375L137.625,432.875L138.125,433.625L138.375,434.125L138.375,449.125Z" style="fill:rgb(35,31,32);fill-rule:nonzero;"/>
        <path d="M138.375,449.125L142.875,449.125L142.875,434.125L142.625,432.375L141.875,430.625L140.875,429.375L139.375,428.125L138.125,427.625L136.875,427.375L135.625,427.375L134.375,427.625L133.375,427.875L132.125,428.375L131.125,429.125L130.125,430.125L129.125,429.125L127.875,428.125L126.625,427.625L125.125,427.375L123.875,427.375L122.375,427.625L121.125,428.375L119.875,429.375L119.875,427.875L115.375,427.875L115.375,449.125L119.875,449.125L119.875,435.125L120.125,434.125L120.375,433.625L120.625,432.875L121.125,432.375L122.125,431.875L123.375,431.625L124.625,431.875L125.875,432.375L126.625,433.625L126.875,434.375L126.875,449.125L131.375,449.125L131.375,434.375L131.625,433.625L132.625,432.375L133.625,431.875L134.875,431.625L136.125,431.875L137.375,432.375L137.625,432.875L138.125,433.625L138.375,434.125L138.375,449.125Z" style="fill:none;stroke:rgb(35,31,32);stroke-width:0.75px;"/>
        <rect x="221.375" y="222.125" width="68" height="68" style="fill:rgb(0,104,178);"/>
        <path d="M221.375,290.125L289.375,290.125L221.375,290.125Z" style="fill:rgb(49,86,166);"/>
        <rect x="221.375" y="222.125" width="68" height="68" style="fill:none;stroke:rgb(0,104,178);stroke-width:0.75px;"/>
        <path d="M243.625,268.875L245.125,268.875L245.125,248.625L244.875,248.125L244.375,247.625L243.625,247.375L231.375,247.375L230.375,247.875L229.625,248.875L227.125,258.125L227.125,267.625L227.375,268.375L228.375,268.875L231.875,268.875L232.375,266.375L233.125,265.125L234.625,263.625L235.625,263.125L236.625,262.875L238.875,262.875L239.875,263.125L240.875,263.625L241.875,264.375L242.625,265.125L243.625,267.625L243.625,268.875Z" style="fill:white;fill-rule:nonzero;"/>
        <path d="M243.625,268.875L245.125,268.875L245.125,248.625L244.875,248.125L244.375,247.625L243.625,247.375L231.375,247.375L230.375,247.875L229.625,248.875L227.125,258.125L227.125,267.625L227.375,268.375L228.375,268.875L231.875,268.875L232.375,266.375L233.125,265.125L234.625,263.625L235.625,263.125L236.625,262.875L238.875,262.875L239.875,263.125L240.875,263.625L241.875,264.375L242.625,265.125L243.625,267.625L243.625,268.875Z" style="fill:none;stroke:white;stroke-width:0.75px;"/>
        <path d="M231.625,250.375L230.375,255.625L230.625,256.375L231.125,256.625L241.625,256.625L242.375,256.375L242.625,255.875L242.625,250.625L242.375,250.375L241.875,250.125L231.875,250.125L231.625,250.375Z" style="fill:rgb(0,104,178);fill-rule:nonzero;"/>
        <path d="M231.625,250.375L230.375,255.625L230.625,256.375L231.125,256.625L241.625,256.625L242.375,256.375L242.625,255.875L242.625,250.625L242.375,250.375L241.875,250.125L231.875,250.125L231.625,250.375Z" style="fill:none;stroke:white;stroke-width:0.75px;"/>
        <path d="M242.625,269.625L242.625,267.375L242.125,266.375L241.875,265.625L241.125,264.875L240.375,264.375L238.875,263.875L237.875,263.625L236.875,263.875L236.125,264.125L235.125,264.375L233.875,265.625L233.375,266.375L233.125,267.375L232.875,268.625L233.375,270.625L233.875,271.625L236.125,273.125L236.875,273.375L238.625,273.375L239.625,273.125L241.125,272.125L241.625,271.625L242.625,269.625Z" style="fill:white;fill-rule:nonzero;"/>
        <path d="M242.625,269.625L242.625,267.375L242.125,266.375L241.875,265.625L241.125,264.875L240.375,264.375L238.875,263.875L237.875,263.625L236.875,263.875L236.125,264.125L235.125,264.375L233.875,265.625L233.375,266.375L233.125,267.375L232.875,268.625L233.375,270.625L233.875,271.625L236.125,273.125L236.875,273.375L238.625,273.375L239.625,273.125L241.125,272.125L241.625,271.625L242.625,269.625Z" style="fill:none;stroke:rgb(0,104,178);stroke-width:0.75px;"/>
        <path d="M276.375,269.625L276.375,267.375L275.875,266.375L274.875,264.875L274.125,264.375L273.375,264.125L272.375,263.875L271.625,263.625L270.625,263.875L269.125,264.375L268.375,264.875L267.375,266.375L266.875,267.375L266.875,269.625L267.875,271.625L268.375,272.125L269.875,273.125L270.875,273.375L272.375,273.375L273.375,273.125L274.875,272.125L275.375,271.625L276.375,269.625Z" style="fill:white;fill-rule:nonzero;"/>
        <path d="M276.375,269.625L276.375,267.375L275.875,266.375L274.875,264.875L274.125,264.375L273.375,264.125L272.375,263.875L271.625,263.625L270.625,263.875L269.125,264.375L268.375,264.875L267.375,266.375L266.875,267.375L266.875,269.625L267.875,271.625L268.375,272.125L269.875,273.125L270.875,273.375L272.375,273.375L273.375,273.125L274.875,272.125L275.375,271.625L276.375,269.625Z" style="fill:none;stroke:rgb(0,104,178);stroke-width:0.75px;"/>
        <path d="M247.625,240.875L247.625,261.625L283.625,261.625L283.625,240.875L283.375,239.875L282.625,239.125L281.875,238.875L249.375,238.875L248.625,239.125L247.875,239.875L247.625,240.875Z" style="fill:white;fill-rule:nonzero;"/>
        <path d="M247.625,240.875L247.625,261.625L283.625,261.625L283.625,240.875L283.375,239.875L282.625,239.125L281.875,238.875L249.375,238.875L248.625,239.125L247.875,239.875L247.625,240.875Z" style="fill:none;stroke:white;stroke-width:0.75px;"/>
        <path d="M265.875,268.875L247.625,268.875L247.625,263.875L268.125,263.875L267.125,264.875L266.375,266.125L265.875,267.625L265.875,268.875Z" style="fill:white;fill-rule:nonzero;"/>
        <path d="M265.875,268.875L247.625,268.875L247.625,263.875L268.125,263.875L267.125,264.875L266.375,266.125L265.875,267.625L265.875,268.875Z" style="fill:none;stroke:white;stroke-width:0.75px;"/>
        <path d="M277.375,268.875L277.375,267.625L276.875,266.125L276.125,264.875L275.125,263.875L283.625,263.875L283.625,268.875L277.375,268.875Z" style="fill:white;fill-rule:nonzero;"/>
        <path d="M277.375,268.875L277.375,267.625L276.875,266.125L276.125,264.875L275.125,263.875L283.625,263.875L283.625,268.875L277.375,268.875Z" style="fill:none;stroke:white;stroke-width:0.75px;"/>
    </g>
</svg>
