<?xml version="1.0" encoding="UTF-8" standalone="no"?>
<!DOCTYPE svg PUBLIC "-//W3C//DTD SVG 1.1//EN" "http://www.w3.org/Graphics/SVG/1.1/DTD/svg11.dtd">
<svg width="100%" height="100%" viewBox="0 0 596 596" version="1.1" xmlns="http://www.w3.org/2000/svg" xmlns:xlink="http://www.w3.org/1999/xlink" xml:space="preserve" xmlns:serif="http://www.serif.com/" style="fill-rule:evenodd;clip-rule:evenodd;stroke-linecap:round;stroke-linejoin:round;stroke-miterlimit:2;">
    <g>
        <path d="M59.81,595.647L535.465,595.647C551.234,595.647 566.356,589.382 577.507,578.232C588.657,567.081 594.922,551.958 594.922,536.19L594.922,60.536C594.922,44.767 588.657,29.644 577.507,18.494C566.356,7.344 551.234,1.079 535.465,1.079L59.81,1.079C44.042,1.079 28.918,7.344 17.768,18.494C6.618,29.644 0.354,44.767 0.354,60.536L0.354,536.19C0.354,551.958 6.618,567.081 17.768,578.232C28.918,589.382 44.042,595.647 59.81,595.647Z" style="fill:white;fill-rule:nonzero;"/>
        <path d="M59.81,595.647L535.465,595.647C551.234,595.647 566.356,589.382 577.507,578.232C588.657,567.081 594.922,551.958 594.922,536.19L594.922,60.536C594.922,44.767 588.657,29.644 577.507,18.494C566.356,7.344 551.234,1.079 535.465,1.079L59.81,1.079C44.042,1.079 28.918,7.344 17.768,18.494C6.618,29.644 0.354,44.767 0.354,60.536L0.354,536.19C0.354,551.958 6.618,567.081 17.768,578.232C28.918,589.382 44.042,595.647 59.81,595.647Z" style="fill:none;stroke:rgb(35,31,32);stroke-width:1px;"/>
        <path d="M167.971,309.721C179.166,297.437 181.87,279.624 174.826,264.572C167.781,249.519 152.371,240.183 135.768,240.91C108.697,242.093 83.943,256.529 69.585,279.508C62.931,290.156 62.127,303.451 67.45,314.824C72.772,326.196 83.494,334.096 95.933,335.809C122.777,339.505 149.719,329.747 167.971,309.721Z" style="fill:rgb(35,31,32);fill-rule:nonzero;"/>
        <path d="M167.971,309.721C179.166,297.437 181.87,279.624 174.826,264.572C167.781,249.519 152.371,240.183 135.768,240.91C108.697,242.093 83.943,256.529 69.585,279.508C62.931,290.156 62.127,303.451 67.45,314.824C72.772,326.196 83.494,334.096 95.933,335.809C122.777,339.505 149.719,329.747 167.971,309.721Z" style="fill:none;stroke:rgb(35,31,32);stroke-width:0.71px;"/>
        <path d="M283.491,340.903L346.703,402.305L153.563,474.076C142.99,478.005 131.39,478.194 120.694,474.614L80.738,461.236C78.033,460.329 75.047,461.058 73.064,463.11C71.081,465.16 70.452,468.167 71.447,470.84L78.189,488.95C87.697,514.491 116.104,527.495 141.651,518.001L536.247,371.371L536.247,331.871L410.764,378.5L344.051,313.699C373.819,295.955 400.032,272.836 421.354,245.517C436,226.753 440.097,201.828 432.227,179.363L481.94,136.556L468.52,120.968L422.332,160.738C406.855,139.938 381.142,129.406 355.521,133.373C287.204,143.952 225.224,179.451 181.532,233.025C200.577,250.119 207.988,276.702 200.533,301.183L224.877,310.136L178.505,341.644C178.267,347.508 180.649,353.175 185.007,357.107C195.152,366.261 209.18,369.781 222.445,366.5L262.777,339.095C269.235,334.706 277.889,335.461 283.491,340.903Z" style="fill:rgb(35,31,32);fill-rule:nonzero;"/>
        <path d="M283.491,340.903L346.703,402.305L153.563,474.076C142.99,478.005 131.39,478.194 120.694,474.614L80.738,461.236C78.033,460.329 75.047,461.058 73.064,463.11C71.081,465.16 70.452,468.167 71.447,470.84L78.189,488.95C87.697,514.491 116.104,527.495 141.651,518.001L536.247,371.371L536.247,331.871L410.764,378.5L344.051,313.699C373.819,295.955 400.032,272.836 421.354,245.517C436,226.753 440.097,201.828 432.227,179.363L481.94,136.556L468.52,120.968L422.332,160.738C406.855,139.938 381.142,129.406 355.521,133.373C287.204,143.952 225.224,179.451 181.532,233.025C200.577,250.119 207.988,276.702 200.533,301.183L224.877,310.136L178.505,341.644C178.267,347.508 180.649,353.175 185.007,357.107C195.152,366.261 209.18,369.781 222.445,366.5L262.777,339.095C269.235,334.706 277.889,335.461 283.491,340.903Z" style="fill:none;stroke:rgb(35,31,32);stroke-width:0.71px;"/>
        <path d="M312.174,282.735L426.398,184.381L416.001,166.189L297.361,268.346L312.174,282.735Z" style="fill:white;fill-rule:nonzero;"/>
        <path d="M312.174,282.735L426.398,184.381L416.001,166.189L297.361,268.346L312.174,282.735Z" style="fill:none;stroke:white;stroke-width:0.71px;"/>
    </g>
</svg>
