<?xml version="1.0" encoding="UTF-8" standalone="no"?>
<!DOCTYPE svg PUBLIC "-//W3C//DTD SVG 1.1//EN" "http://www.w3.org/Graphics/SVG/1.1/DTD/svg11.dtd">
<svg width="100%" height="100%" viewBox="0 0 228 228" version="1.1" xmlns="http://www.w3.org/2000/svg" xmlns:xlink="http://www.w3.org/1999/xlink" xml:space="preserve" xmlns:serif="http://www.serif.com/" style="fill-rule:evenodd;clip-rule:evenodd;stroke-miterlimit:2;">
    <g>
        <path d="M227.268,114.42C227.268,51.925 176.076,0.732 113.58,0.732C51.299,0.732 0.107,51.925 0.107,114.42C0.107,176.701 51.299,227.893 113.58,227.893C176.076,227.893 227.268,176.701 227.268,114.42Z" style="fill:rgb(0,64,128);fill-rule:nonzero;"/>
        <path d="M227.268,114.42C227.268,51.925 176.076,0.732 113.58,0.732C51.299,0.732 0.107,51.925 0.107,114.42C0.107,176.701 51.299,227.893 113.58,227.893C176.076,227.893 227.268,176.701 227.268,114.42Z" style="fill:none;stroke:rgb(0,64,128);stroke-width:0.22px;"/>
        <path d="M99.9,205.429L99.9,73.813L74.627,78.349C73.475,78.637 72.611,77.773 72.611,76.621C72.611,76.333 72.611,76.045 72.899,75.757L111.563,20.605C112.427,19.237 114.66,19.237 115.523,20.605L154.188,75.757C154.476,76.045 154.476,76.333 154.476,76.621C154.476,77.773 153.9,78.349 152.748,78.349L152.46,78.349L126.9,73.813L126.9,205.429L99.9,205.429Z" style="fill:white;fill-rule:nonzero;"/>
        <path d="M99.9,205.429L99.9,73.813L74.627,78.349C73.475,78.637 72.611,77.773 72.611,76.621C72.611,76.333 72.611,76.045 72.899,75.757L111.563,20.605C112.427,19.237 114.66,19.237 115.523,20.605L154.188,75.757C154.476,76.045 154.476,76.333 154.476,76.621C154.476,77.773 153.9,78.349 152.748,78.349L152.46,78.349L126.9,73.813L126.9,205.429L99.9,205.429Z" style="fill:none;stroke:white;stroke-width:0.22px;"/>
        <path d="M223.308,114.42C223.308,53.869 174.131,4.693 113.58,4.693C53.243,4.693 4.067,53.869 4.067,114.42C4.067,174.757 53.243,223.933 113.58,223.933C174.131,223.933 223.308,174.757 223.308,114.42Z" style="fill:none;stroke:white;stroke-width:3.96px;"/>
    </g>
</svg>
