<?xml version="1.0" encoding="UTF-8" standalone="no"?>
<!DOCTYPE svg PUBLIC "-//W3C//DTD SVG 1.1//EN" "http://www.w3.org/Graphics/SVG/1.1/DTD/svg11.dtd">
<svg width="100%" height="100%" viewBox="0 0 596 596" version="1.1" xmlns="http://www.w3.org/2000/svg" xmlns:xlink="http://www.w3.org/1999/xlink" xml:space="preserve" xmlns:serif="http://www.serif.com/" style="fill-rule:evenodd;clip-rule:evenodd;stroke-linecap:round;stroke-linejoin:round;stroke-miterlimit:2;">
    <g>
        <path d="M59.81,595.647L535.465,595.647C551.234,595.647 566.356,589.382 577.507,578.232C588.657,567.081 594.922,551.958 594.922,536.19L594.922,60.536C594.922,44.767 588.657,29.644 577.507,18.494C566.356,7.344 551.234,1.079 535.465,1.079L59.81,1.079C44.042,1.079 28.918,7.344 17.768,18.494C6.618,29.644 0.354,44.767 0.354,60.536L0.354,536.19C0.354,551.958 6.618,567.081 17.768,578.232C28.918,589.382 44.042,595.647 59.81,595.647Z" style="fill:white;fill-rule:nonzero;"/>
        <path d="M59.81,595.647L535.465,595.647C551.234,595.647 566.356,589.382 577.507,578.232C588.657,567.081 594.922,551.958 594.922,536.19L594.922,60.536C594.922,44.767 588.657,29.644 577.507,18.494C566.356,7.344 551.234,1.079 535.465,1.079L59.81,1.079C44.042,1.079 28.918,7.344 17.768,18.494C6.618,29.644 0.354,44.767 0.354,60.536L0.354,536.19C0.354,551.958 6.618,567.081 17.768,578.232C28.918,589.382 44.042,595.647 59.81,595.647Z" style="fill:none;stroke:rgb(35,31,32);stroke-width:1px;"/>
        <path d="M418.975,518.009C414.87,516.921 410.571,518.907 408.737,522.735C406.902,526.564 408.048,531.158 411.468,533.675C431.465,543.957 455.829,540.006 471.551,523.931L548.962,444.778L548.962,413.43L455.881,508.605C446.307,518.395 432.067,522.024 418.975,518.009Z" style="fill:rgb(35,31,32);fill-rule:nonzero;"/>
        <path d="M418.975,518.009C414.87,516.921 410.571,518.907 408.737,522.735C406.902,526.564 408.048,531.158 411.468,533.675C431.465,543.957 455.829,540.006 471.551,523.931L548.962,444.778L548.962,413.43L455.881,508.605C446.307,518.395 432.067,522.024 418.975,518.009Z" style="fill:none;stroke:rgb(35,31,32);stroke-width:0.71px;"/>
        <path d="M447.123,274.687C445.562,281.928 439.83,287.539 432.557,288.945C425.283,290.352 417.873,287.283 413.725,281.146L366.105,210.707L321.459,210.707L433.364,376.24L518.284,376.24C530.542,376.24 540.478,386.176 540.478,398.432C540.478,410.689 530.542,420.624 518.284,420.624L409.012,420.624C401.643,420.624 394.755,416.966 390.627,410.862L330.622,322.1L228.69,392.753L228.69,475.874C228.69,488.131 218.754,498.067 206.498,498.067C194.241,498.067 184.306,488.131 184.306,475.874L184.306,368.465C184.306,361.188 187.874,354.372 193.855,350.226L275.61,293.558L219.601,210.707L107.23,210.707L195.525,341.315L184.877,348.696L91.592,210.707L88.642,210.707C78.429,210.707 70.148,202.427 70.148,192.213C70.148,181.999 78.429,173.72 88.642,173.72L373.962,173.72C381.331,173.72 388.221,177.378 392.348,183.483L445.246,261.732L515.401,261.732L515.401,274.687L447.123,274.687Z" style="fill:rgb(35,31,32);fill-rule:nonzero;"/>
        <path d="M447.123,274.687C445.562,281.928 439.83,287.539 432.557,288.945C425.283,290.352 417.873,287.283 413.725,281.146L366.105,210.707L321.459,210.707L433.364,376.24L518.284,376.24C530.542,376.24 540.478,386.176 540.478,398.432C540.478,410.689 530.542,420.624 518.284,420.624L409.012,420.624C401.643,420.624 394.755,416.966 390.627,410.862L330.622,322.1L228.69,392.753L228.69,475.874C228.69,488.131 218.754,498.067 206.498,498.067C194.241,498.067 184.306,488.131 184.306,475.874L184.306,368.465C184.306,361.188 187.874,354.372 193.855,350.226L275.61,293.558L219.601,210.707L107.23,210.707L195.525,341.315L184.877,348.696L91.592,210.707L88.642,210.707C78.429,210.707 70.148,202.427 70.148,192.213C70.148,181.999 78.429,173.72 88.642,173.72L373.962,173.72C381.331,173.72 388.221,177.378 392.348,183.483L445.246,261.732L515.401,261.732L515.401,274.687L447.123,274.687Z" style="fill:none;stroke:rgb(35,31,32);stroke-width:0.71px;"/>
        <path d="M233.734,69.42C221.165,61.143 204.849,61.243 192.381,69.671C179.913,78.1 173.74,93.203 176.737,107.952C181.622,131.998 198.034,152.098 220.618,161.693C231.082,166.14 243.087,164.979 252.507,158.611C261.927,152.244 267.478,141.536 267.251,130.167C266.764,105.634 254.228,82.915 233.734,69.42Z" style="fill:rgb(35,31,32);fill-rule:nonzero;"/>
        <path d="M233.734,69.42C221.165,61.143 204.849,61.243 192.381,69.671C179.913,78.1 173.74,93.203 176.737,107.952C181.622,131.998 198.034,152.098 220.618,161.693C231.082,166.14 243.087,164.979 252.507,158.611C261.927,152.244 267.478,141.536 267.251,130.167C266.764,105.634 254.228,82.915 233.734,69.42Z" style="fill:none;stroke:rgb(35,31,32);stroke-width:0.71px;"/>
        <path d="M108.329,536.972L351.432,536.972L351.432,511.765L105.783,511.765C90.086,511.765 76.58,500.67 73.532,485.273C72.806,481.609 69.439,479.078 65.718,479.4C61.996,479.722 59.114,482.793 59.028,486.527C58.725,499.799 63.784,512.632 73.063,522.126C82.342,531.62 95.056,536.972 108.332,536.972L108.329,536.972Z" style="fill:rgb(35,31,32);fill-rule:nonzero;"/>
        <path d="M108.329,536.972L351.432,536.972L351.432,511.765L105.783,511.765C90.086,511.765 76.58,500.67 73.532,485.273C72.806,481.609 69.439,479.078 65.718,479.4C61.996,479.722 59.114,482.793 59.028,486.527C58.725,499.799 63.784,512.632 73.063,522.126C82.342,531.62 95.056,536.972 108.332,536.972L108.329,536.972Z" style="fill:none;stroke:rgb(35,31,32);stroke-width:0.71px;"/>
    </g>
</svg>
