<?xml version="1.0" encoding="UTF-8" standalone="no"?>
<!DOCTYPE svg PUBLIC "-//W3C//DTD SVG 1.1//EN" "http://www.w3.org/Graphics/SVG/1.1/DTD/svg11.dtd">
<svg width="100%" height="100%" viewBox="0 0 243 214" version="1.1" xmlns="http://www.w3.org/2000/svg" xmlns:xlink="http://www.w3.org/1999/xlink" xml:space="preserve" xmlns:serif="http://www.serif.com/" style="fill-rule:evenodd;clip-rule:evenodd;stroke-miterlimit:2;">
    <g>
        <path d="M113.939,5.453L1.331,200.716C0.107,201.94 0.107,203.092 0.107,204.316C0.107,209.068 3.707,213.892 8.532,213.892L233.675,213.892C238.5,213.892 242.099,209.068 242.099,204.316L242.099,200.716L128.267,5.453C127.115,3.077 124.667,0.7 121.067,0.7C118.691,0.7 115.091,3.077 113.939,5.453Z" style="fill:rgb(211,63,39);fill-rule:nonzero;"/>
        <path d="M113.939,5.453L1.331,200.716C0.107,201.94 0.107,203.092 0.107,204.316C0.107,209.068 3.707,213.892 8.532,213.892L233.675,213.892C238.5,213.892 242.099,209.068 242.099,204.316L242.099,200.716L128.267,5.453C127.115,3.077 124.667,0.7 121.067,0.7C118.691,0.7 115.091,3.077 113.939,5.453Z" style="fill:none;stroke:rgb(211,63,39);stroke-width:0.22px;"/>
        <path d="M37.259,188.764L203.723,188.764L121.067,43.829L37.259,188.764Z" style="fill:white;fill-rule:nonzero;"/>
        <path d="M37.259,188.764L203.723,188.764L121.067,43.829L37.259,188.764Z" style="fill:none;stroke:white;stroke-width:0.22px;"/>
        <path d="M152.604,125.26C152.604,121.66 149.075,118.06 145.475,118.06C141.875,118.06 138.275,121.66 138.275,125.26C138.275,128.861 141.875,132.459 145.475,132.459C149.075,132.459 152.604,128.861 152.604,125.26Z" style="fill:rgb(35,31,32);fill-rule:nonzero;"/>
        <path d="M152.604,125.26C152.604,121.66 149.075,118.06 145.475,118.06C141.875,118.06 138.275,121.66 138.275,125.26C138.275,128.861 141.875,132.459 145.475,132.459C149.075,132.459 152.604,128.861 152.604,125.26Z" style="fill:none;stroke:rgb(35,31,32);stroke-width:0.22px;"/>
        <path d="M106.955,151.324C106.955,147.723 103.355,144.196 99.827,144.196C96.227,144.196 92.627,147.723 92.627,151.324C92.627,154.924 96.227,158.524 99.827,158.524C103.355,158.524 106.955,154.924 106.955,151.324Z" style="fill:rgb(35,31,32);fill-rule:nonzero;"/>
        <path d="M106.955,151.324C106.955,147.723 103.355,144.196 99.827,144.196C96.227,144.196 92.627,147.723 92.627,151.324C92.627,154.924 96.227,158.524 99.827,158.524C103.355,158.524 106.955,154.924 106.955,151.324Z" style="fill:none;stroke:rgb(35,31,32);stroke-width:0.22px;"/>
        <path d="M82.763,121.66L113.939,103.732C115.091,102.507 117.467,102.507 118.691,103.732L130.643,110.86L134.243,110.86L147.419,103.732C148.643,102.507 151.021,102.507 152.243,104.884L156.995,114.459C158.219,114.459 158.219,115.684 158.219,116.908C158.219,118.06 156.995,119.284 155.843,120.435L153.396,121.66C151.021,119.284 148.643,116.908 145.044,116.908C140.292,116.908 136.691,120.435 136.691,126.483C136.691,127.636 136.691,128.861 137.843,130.085L107.891,146.788C106.739,144.411 103.139,143.26 99.539,143.26C94.715,143.26 91.115,146.788 91.115,151.613C91.115,152.836 91.115,155.212 92.339,156.436L86.363,158.812C85.139,159.964 81.539,159.964 81.539,157.588L75.563,148.012C74.411,146.788 75.563,144.411 76.787,143.26L79.163,142.036C79.163,142.036 80.387,140.812 80.387,139.66L80.387,125.26C80.387,122.884 81.539,121.66 82.763,121.66Z" style="fill:rgb(35,31,32);fill-rule:nonzero;"/>
        <path d="M82.763,121.66L113.939,103.732C115.091,102.507 117.467,102.507 118.691,103.732L130.643,110.86L134.243,110.86L147.419,103.732C148.643,102.507 151.021,102.507 152.243,104.884L156.995,114.459C158.219,114.459 158.219,115.684 158.219,116.908C158.219,118.06 156.995,119.284 155.843,120.435L153.396,121.66C151.021,119.284 148.643,116.908 145.044,116.908C140.292,116.908 136.691,120.435 136.691,126.483C136.691,127.636 136.691,128.861 137.843,130.085L107.891,146.788C106.739,144.411 103.139,143.26 99.539,143.26C94.715,143.26 91.115,146.788 91.115,151.613C91.115,152.836 91.115,155.212 92.339,156.436L86.363,158.812C85.139,159.964 81.539,159.964 81.539,157.588L75.563,148.012C74.411,146.788 75.563,144.411 76.787,143.26L79.163,142.036C79.163,142.036 80.387,140.812 80.387,139.66L80.387,125.26C80.387,122.884 81.539,121.66 82.763,121.66Z" style="fill:none;stroke:rgb(35,31,32);stroke-width:0.22px;"/>
        <path d="M101.916,115.684L106.739,125.26L89.963,134.836L89.963,122.884C89.963,122.884 89.963,121.66 91.115,121.66L101.916,115.684Z" style="fill:white;fill-rule:nonzero;"/>
        <path d="M101.916,115.684L106.739,125.26L89.963,134.836L89.963,122.884C89.963,122.884 89.963,121.66 91.115,121.66L101.916,115.684Z" style="fill:none;stroke:rgb(35,31,32);stroke-width:0.22px;"/>
        <path d="M117.467,107.26L128.267,113.308L128.267,114.459L110.339,124.036L104.292,114.459L116.315,107.26L117.467,107.26Z" style="fill:white;fill-rule:nonzero;"/>
        <path d="M117.467,107.26L128.267,113.308L128.267,114.459L110.339,124.036L104.292,114.459L116.315,107.26L117.467,107.26Z" style="fill:none;stroke:rgb(35,31,32);stroke-width:0.22px;"/>
        <path d="M198.971,186.316L58.787,186.316L164.195,124.036L200.124,186.316" style="fill:none;stroke:rgb(35,31,32);stroke-width:0.22px;"/>
        <path d="M198.971,186.316L58.787,186.316L164.195,124.036L200.124,186.316" style="fill:none;stroke:rgb(35,31,32);stroke-width:0.22px;"/>
        <path d="M58.787,186.316L164.267,124.036L200.196,186.316L58.787,186.316Z" style="fill:rgb(35,31,32);fill-rule:nonzero;"/>
        <path d="M58.787,186.316L164.267,124.036L200.196,186.316L58.787,186.316Z" style="fill:none;stroke:rgb(35,31,32);stroke-width:0.22px;"/>
    </g>
</svg>
