<?xml version="1.0" encoding="UTF-8" standalone="no"?>
<!DOCTYPE svg PUBLIC "-//W3C//DTD SVG 1.1//EN" "http://www.w3.org/Graphics/SVG/1.1/DTD/svg11.dtd">
<svg width="100%" height="100%" viewBox="0 0 256 224" version="1.1" xmlns="http://www.w3.org/2000/svg" xmlns:xlink="http://www.w3.org/1999/xlink" xml:space="preserve" xmlns:serif="http://www.serif.com/" style="fill-rule:evenodd;clip-rule:evenodd;stroke-miterlimit:2;">
    <g>
        <path d="M169.308,188.108C169.308,188.325 169.308,188.325 169.021,188.325C168.731,188.325 168.516,188.613 168.516,188.973L167.867,189.189L167.292,189.189L167.075,189.477L165.347,189.477L165.347,189.189C165.347,189.189 165.06,189.189 165.347,189.189C165.563,188.613 165.923,188.108 166.211,187.533C166.427,187.533 166.427,187.245 166.427,187.245C166.788,186.021 167.292,184.94 167.292,183.789L167.292,177.524C167.652,177.524 167.652,177.236 167.652,177.021L167.652,175.293C167.652,174.933 167.652,174.933 167.292,174.717C167.292,174.429 167.075,174.068 167.075,173.853C166.788,173.276 166.788,172.701 166.427,172.125C165.923,171.621 165.923,170.973 165.563,170.397C165.347,169.533 164.771,168.741 164.195,168.165C163.619,167.877 163.332,167.301 163.044,166.725C163.044,166.509 162.755,165.86 162.54,165.645C162.179,164.997 161.892,164.781 161.892,164.42C161.676,164.205 161.676,163.917 161.315,163.557L161.027,163.341C161.027,163.053 161.027,162.765 160.812,162.477L160.812,163.341C160.812,164.205 160.812,164.781 161.027,165.645C161.315,165.86 161.315,166.509 161.315,167.013C161.676,167.301 161.676,167.588 161.676,167.877C162.179,168.741 162.54,169.316 162.755,170.181C163.044,170.756 163.332,171.261 163.619,171.836C163.619,172.125 163.619,172.484 163.907,172.701L163.907,174.429L163.619,174.717C163.619,174.933 163.332,175.293 163.044,175.509C163.044,175.509 162.54,176.373 162.179,177.236C161.676,178.101 161.676,178.389 161.315,178.677C161.027,179.252 160.812,179.829 160.451,180.692C160.235,181.269 159.947,181.773 159.947,182.349C159.372,183.212 159.083,184.077 158.795,184.94C158.508,185.229 158.508,185.517 158.219,185.805C157.932,186.38 157.355,186.885 157.355,187.749C157.068,188.108 156.779,188.325 156.563,188.325C156.563,188.613 156.204,188.613 156.204,188.973L155.916,189.189L155.699,189.477L153.107,189.477C153.107,189.189 153.107,188.973 153.396,188.973C153.396,188.613 153.611,188.613 153.611,188.613C153.611,188.325 153.971,188.108 153.971,188.108C153.971,187.749 154.259,187.533 154.259,187.245C154.476,186.668 154.476,186.021 154.835,185.517L154.835,184.94C154.835,184.652 154.835,184.077 155.051,183.789L155.051,183.212C155.339,181.773 155.916,180.405 156.563,178.964C156.779,178.101 157.068,177.021 157.355,175.796L157.355,174.717C157.355,174.068 157.355,173.564 157.068,172.989L157.068,172.484C156.779,172.125 156.563,171.621 156.204,170.973C155.699,170.181 154.835,169.028 154.259,168.165C153.971,167.877 153.611,167.588 153.396,167.301C153.107,167.013 152.819,166.509 152.532,166.148C152.243,166.148 152.027,165.86 152.027,165.645C152.027,165.645 151.667,165.285 151.667,164.997C151.379,164.997 151.165,164.781 151.165,164.42C151.165,164.205 151.165,164.205 150.803,163.917C150.299,164.205 149.724,164.42 148.859,164.42C147.997,164.781 147.131,164.997 146.268,165.285C146.268,165.285 146.051,165.285 145.691,165.645L145.188,165.645C144.827,165.645 142.883,166.148 140.867,166.725C143.748,165.86 142.883,166.148 142.021,166.509L140.292,166.509C139.211,166.509 137.771,166.725 136.619,166.725C136.259,166.725 136.259,166.725 136.259,167.013C135.467,168.453 134.892,170.181 134.315,171.836C134.027,172.989 133.739,174.068 133.451,175.293L133.451,176.157C133.451,177.021 133.235,177.524 133.235,178.389L133.235,179.252C133.235,179.541 132.875,179.829 132.875,180.044C132.587,180.692 132.587,181.269 132.587,182.133L132.587,189.189C132.587,189.477 132.372,189.765 132.011,189.765C132.011,190.053 131.795,190.053 131.795,190.341L131.795,190.628L131.507,190.917L130.644,190.917C130.644,190.917 130.354,190.917 130.067,190.628L129.779,190.628C129.779,190.628 129.563,190.628 129.563,190.917L128.699,190.917L128.699,190.053C129.203,189.477 129.563,188.613 129.563,187.749C129.563,187.749 129.563,187.533 129.203,187.245L129.203,185.229C128.916,184.94 128.916,184.652 129.203,184.365L129.203,183.501C128.916,183.501 128.916,183.212 128.916,183.212L128.916,182.133C128.916,181.773 128.916,181.484 128.699,181.269C128.699,180.909 128.339,180.692 128.339,180.405C128.05,180.044 128.05,179.829 128.05,179.829L128.05,179.541C127.835,178.677 128.05,177.813 128.05,177.021C128.339,177.021 128.339,176.661 128.339,176.373L128.339,175.509C128.339,174.717 128.339,173.564 128.05,172.701L128.05,167.877C127.835,167.588 127.835,167.301 127.835,166.725C127.476,166.509 127.476,166.509 127.259,166.148L126.611,166.148L126.611,167.301L126.396,167.588C126.396,168.165 126.107,168.741 126.107,169.316L126.107,169.893C126.107,170.181 126.107,170.397 125.748,170.756C125.748,171.261 125.748,171.836 125.531,172.484C125.531,172.701 125.531,172.989 125.243,173.564C125.243,173.853 125.243,174.429 124.956,174.717C124.956,174.933 124.956,175.293 124.667,175.509L124.667,176.157C124.667,176.373 124.667,176.373 124.379,176.373C124.379,177.021 124.379,177.236 124.091,177.524L124.091,180.692C124.091,181.269 124.091,181.773 124.379,182.349L124.379,187.533L124.091,188.613L124.091,189.477L123.803,189.765C123.803,189.765 123.516,189.765 123.516,190.053C123.516,190.053 123.228,190.053 123.228,190.341L123.228,190.628C123.228,190.917 122.939,190.917 122.939,191.205L122.363,191.205C122.363,191.205 122.075,191.205 122.075,190.917L121.283,190.917C120.996,191.205 120.635,191.205 120.419,191.205C120.419,191.205 120.131,191.205 120.131,190.917L120.131,190.341C120.996,189.477 121.283,188.325 121.283,186.885L121.283,186.38C120.996,185.229 120.996,184.077 120.635,182.997C120.419,182.133 120.131,180.909 119.771,180.044C119.771,179.541 119.771,178.964 119.555,178.389L119.555,177.524C119.555,177.021 119.555,176.373 119.268,176.157L119.268,170.397C118.979,169.028 118.979,167.588 118.403,166.509C118.115,165.86 117.827,165.645 117.827,164.997C116.963,163.917 116.1,162.477 115.523,161.037C115.308,160.172 115.02,159.021 114.659,157.94C114.659,157.365 114.443,156.717 114.443,156.212C114.155,155.349 114.155,154.484 113.795,153.692C113.795,152.829 113.58,151.964 113.58,151.101C113.58,150.813 113.292,150.236 113.292,150.021C113.003,149.661 112.715,149.157 112.427,148.509C112.427,148.293 112.139,147.717 111.852,147.068C111.563,146.564 111.347,145.989 110.987,145.413C110.771,145.125 110.483,144.836 110.124,144.261L109.907,143.973C109.907,143.685 109.619,143.397 109.259,143.181C109.259,142.82 109.043,142.82 109.043,142.533C108.179,141.453 107.315,140.588 106.451,140.013C106.235,139.725 105.875,139.725 105.372,139.725L104.795,139.725L101.627,141.093C101.051,141.093 100.476,141.453 99.611,141.453C99.395,141.453 99.035,141.453 98.531,141.093C98.171,141.093 97.955,140.877 97.955,140.588C97.667,140.229 97.667,140.013 97.667,139.725L97.307,139.437C96.515,139.437 95.939,138.573 95.651,137.997C95.651,137.205 95.651,136.557 95.939,135.981C95.939,135.765 96.227,135.477 96.227,135.117C96.227,134.613 96.515,134.037 96.515,133.749C96.803,133.46 96.803,133.172 97.091,132.885C97.667,132.597 98.171,131.805 98.531,131.229C99.035,130.365 99.395,129.501 99.899,128.349L99.899,127.773C98.747,127.484 97.307,127.197 96.227,127.197C95.363,126.909 94.787,126.909 93.923,126.692C93.635,126.333 93.059,126.044 92.771,125.469C92.771,125.252 92.555,124.964 92.771,124.605C92.771,124.101 93.059,123.741 93.419,123.524C93.419,123.236 93.419,123.236 93.635,123.236C93.923,122.949 94.499,122.949 94.787,122.661C95.075,122.373 95.363,122.373 95.651,122.373L100.259,122.373C101.051,122.373 101.627,122.661 102.204,122.949L103.644,122.949C104.147,122.661 104.795,122.373 105.372,122.373C105.587,122.085 105.875,122.085 106.235,122.085L106.451,122.085L108.179,121.509C108.467,121.221 108.755,121.221 109.043,121.221C110.124,121.221 111.347,121.509 112.427,121.796C113.003,121.221 113.292,120.717 113.58,120.068C114.155,119.493 114.659,118.989 115.308,118.413C115.308,118.413 115.523,118.413 115.523,118.125C115.883,118.125 116.387,118.125 116.963,117.765L117.54,117.765C117.827,117.765 117.827,118.125 117.827,118.125C118.115,118.125 118.403,118.413 118.403,118.628C118.403,119.205 118.691,119.493 118.691,119.853L118.691,124.101C118.691,124.605 118.979,124.964 118.979,125.469L120.419,126.909L121.283,127.484L122.939,129.212C123.516,129.717 123.803,130.365 124.379,130.581C124.956,130.94 125.243,130.94 125.748,130.94L126.971,131.229L127.835,131.444L128.699,131.444L130.644,131.805L132.011,132.021L133.235,132.309C134.892,132.309 136.259,132.597 137.771,132.597L142.595,132.597C143.748,132.597 144.54,132.597 145.691,132.309C147.131,132.309 148.571,132.021 149.939,131.444C152.532,130.94 155.051,130.581 157.355,130.94C159.083,131.444 160.812,131.805 162.54,132.309C164.484,132.885 166.427,134.037 168.155,135.117C169.308,135.981 170.459,137.205 171.323,138.285C172.188,139.437 172.691,140.877 173.268,142.316L173.268,143.685C173.557,144.836 173.557,145.701 173.843,146.853C174.131,147.429 174.131,147.933 174.419,148.509C174.419,149.157 174.708,149.661 174.708,150.236C174.997,151.101 175.283,151.964 175.283,152.541C175.571,153.044 175.571,153.692 175.571,154.197C175.571,154.773 175.859,155.349 175.859,155.925C175.859,156.501 176.075,157.077 176.075,157.581C176.436,158.444 176.724,159.309 176.724,160.172C176.939,161.037 176.939,161.9 176.939,162.765C176.939,163.341 176.724,163.917 176.724,164.42C176.436,164.997 176.075,165.285 175.571,165.86C175.283,166.148 174.708,166.509 174.131,166.148C173.557,166.148 173.268,166.148 173.051,165.86C173.051,165.645 172.691,165.645 172.691,165.285L172.403,162.477L172.188,160.172L172.188,159.885L171.899,159.668C171.899,160.172 171.54,160.749 171.54,161.325L171.54,169.533C171.54,170.973 171.54,172.125 172.188,173.276C172.403,174.068 172.691,175.293 172.691,176.373L172.691,177.524C172.188,178.389 171.54,179.541 171.54,180.692C171.323,180.692 171.323,180.909 171.323,181.269C171.035,182.349 170.748,183.212 170.459,184.077C170.171,184.94 170.171,185.517 169.883,186.38C169.883,186.885 169.595,187.533 169.308,188.108Z" style="fill:none;stroke:rgb(35,31,32);stroke-width:0.22px;"/>
        <path d="M39.923,197.181L215.387,197.181L127.835,45.333L39.923,197.181Z" style="fill:none;stroke:rgb(35,31,32);stroke-width:0.22px;"/>
        <path d="M119.771,4.941L1.259,210.573C0.395,211.94 0.107,213.38 0.107,215.108C0.107,219.86 4.139,223.893 8.891,223.893L246.42,223.893C251.172,223.893 255.203,219.86 255.203,215.108C255.203,213.38 254.844,211.94 254.051,210.573L135.467,4.941C133.739,2.349 130.931,0.693 127.835,0.693C124.379,0.693 121.5,2.349 119.771,4.941Z" style="fill:none;stroke:rgb(35,31,32);stroke-width:0.22px;"/>
        <path d="M119.771,4.941L1.259,210.573C0.395,211.94 0.107,213.38 0.107,215.108C0.107,219.86 4.139,223.893 8.891,223.893L246.42,223.893C251.172,223.893 255.203,219.86 255.203,215.108C255.203,213.38 254.844,211.94 254.051,210.573L135.467,4.941C133.739,2.349 130.931,0.693 127.835,0.693C124.379,0.693 121.5,2.349 119.771,4.941Z" style="fill:rgb(211,63,39);fill-rule:nonzero;"/>
        <path d="M119.771,4.941L1.259,210.573C0.395,211.94 0.107,213.38 0.107,215.108C0.107,219.86 4.139,223.893 8.891,223.893L246.42,223.893C251.172,223.893 255.203,219.86 255.203,215.108C255.203,213.38 254.844,211.94 254.051,210.573L135.467,4.941C133.739,2.349 130.931,0.693 127.835,0.693C124.379,0.693 121.5,2.349 119.771,4.941Z" style="fill:none;stroke:rgb(211,63,39);stroke-width:0.22px;"/>
        <path d="M39.923,197.181L215.387,197.181L127.835,45.333L39.923,197.181Z" style="fill:white;fill-rule:nonzero;"/>
        <path d="M39.923,197.181L215.387,197.181L127.835,45.333L39.923,197.181Z" style="fill:none;stroke:white;stroke-width:0.22px;"/>
        <path d="M169.308,188.108C169.308,188.325 169.308,188.325 169.021,188.325C168.731,188.325 168.516,188.613 168.516,188.973L167.867,189.189L167.292,189.189L167.075,189.477L165.347,189.477L165.347,189.189C165.347,189.189 165.06,189.189 165.347,189.189C165.563,188.613 165.923,188.108 166.211,187.533C166.427,187.533 166.427,187.245 166.427,187.245C166.788,186.021 167.292,184.94 167.292,183.789L167.292,177.524C167.652,177.524 167.652,177.236 167.652,177.021L167.652,175.293C167.652,174.933 167.652,174.933 167.292,174.717C167.292,174.429 167.075,174.068 167.075,173.853C166.788,173.276 166.788,172.701 166.427,172.125C165.923,171.621 165.923,170.973 165.563,170.397C165.347,169.533 164.771,168.741 164.195,168.165C163.619,167.877 163.332,167.301 163.044,166.725C163.044,166.509 162.755,165.86 162.54,165.645C162.179,164.997 161.892,164.781 161.892,164.42C161.676,164.205 161.676,163.917 161.315,163.557L161.027,163.341C161.027,163.053 161.027,162.765 160.812,162.477L160.812,163.341C160.812,164.205 160.812,164.781 161.027,165.645C161.315,165.86 161.315,166.509 161.315,167.013C161.676,167.301 161.676,167.588 161.676,167.877C162.179,168.741 162.54,169.316 162.755,170.181C163.044,170.756 163.332,171.261 163.619,171.836C163.619,172.125 163.619,172.484 163.907,172.701L163.907,174.429L163.619,174.717C163.619,174.933 163.332,175.293 163.044,175.509C163.044,175.509 162.54,176.373 162.179,177.236C161.676,178.101 161.676,178.389 161.315,178.677C161.027,179.252 160.812,179.829 160.451,180.692C160.235,181.269 159.947,181.773 159.947,182.349C159.372,183.212 159.083,184.077 158.795,184.94C158.508,185.229 158.508,185.517 158.219,185.805C157.932,186.38 157.355,186.885 157.355,187.749C157.068,188.108 156.779,188.325 156.563,188.325C156.563,188.613 156.204,188.613 156.204,188.973L155.916,189.189L155.699,189.477L153.107,189.477C153.107,189.189 153.107,188.973 153.396,188.973C153.396,188.613 153.611,188.613 153.611,188.613C153.611,188.325 153.971,188.108 153.971,188.108C153.971,187.749 154.259,187.533 154.259,187.245C154.476,186.668 154.476,186.021 154.835,185.517L154.835,184.94C154.835,184.652 154.835,184.077 155.051,183.789L155.051,183.212C155.339,181.773 155.916,180.405 156.563,178.964C156.779,178.101 157.068,177.021 157.355,175.796L157.355,174.717C157.355,174.068 157.355,173.564 157.068,172.989L157.068,172.484C156.779,172.125 156.563,171.621 156.204,170.973C155.699,170.181 154.835,169.028 154.259,168.165C153.971,167.877 153.611,167.588 153.396,167.301C153.107,167.013 152.819,166.509 152.532,166.148C152.243,166.148 152.027,165.86 152.027,165.645C152.027,165.645 151.667,165.285 151.667,164.997C151.379,164.997 151.165,164.781 151.165,164.42C151.165,164.205 151.165,164.205 150.803,163.917C150.299,164.205 149.724,164.42 148.859,164.42C147.997,164.781 147.131,164.997 146.268,165.285C146.268,165.285 146.051,165.285 145.691,165.645L145.188,165.645C144.827,165.645 142.883,166.148 140.867,166.725C143.748,165.86 142.883,166.148 142.021,166.509L140.292,166.509C139.211,166.509 137.771,166.725 136.619,166.725C136.259,166.725 136.259,166.725 136.259,167.013C135.467,168.453 134.892,170.181 134.315,171.836C134.027,172.989 133.739,174.068 133.451,175.293L133.451,176.157C133.451,177.021 133.235,177.524 133.235,178.389L133.235,179.252C133.235,179.541 132.875,179.829 132.875,180.044C132.587,180.692 132.587,181.269 132.587,182.133L132.587,189.189C132.587,189.477 132.372,189.765 132.011,189.765C132.011,190.053 131.795,190.053 131.795,190.341L131.795,190.628L131.507,190.917L130.644,190.917C130.644,190.917 130.354,190.917 130.067,190.628L129.779,190.628C129.779,190.628 129.563,190.628 129.563,190.917L128.699,190.917L128.699,190.053C129.203,189.477 129.563,188.613 129.563,187.749C129.563,187.749 129.563,187.533 129.203,187.245L129.203,185.229C128.916,184.94 128.916,184.652 129.203,184.365L129.203,183.501C128.916,183.501 128.916,183.212 128.916,183.212L128.916,182.133C128.916,181.773 128.916,181.484 128.699,181.269C128.699,180.909 128.339,180.692 128.339,180.405C128.05,180.044 128.05,179.829 128.05,179.829L128.05,179.541C127.835,178.677 128.05,177.813 128.05,177.021C128.339,177.021 128.339,176.661 128.339,176.373L128.339,175.509C128.339,174.717 128.339,173.564 128.05,172.701L128.05,167.877C127.835,167.588 127.835,167.301 127.835,166.725C127.476,166.509 127.476,166.509 127.259,166.148L126.611,166.148L126.611,167.301L126.396,167.588C126.396,168.165 126.107,168.741 126.107,169.316L126.107,169.893C126.107,170.181 126.107,170.397 125.748,170.756C125.748,171.261 125.748,171.836 125.531,172.484C125.531,172.701 125.531,172.989 125.243,173.564C125.243,173.853 125.243,174.429 124.956,174.717C124.956,174.933 124.956,175.293 124.667,175.509L124.667,176.157C124.667,176.373 124.667,176.373 124.379,176.373C124.379,177.021 124.379,177.236 124.091,177.524L124.091,180.692C124.091,181.269 124.091,181.773 124.379,182.349L124.379,187.533L124.091,188.613L124.091,189.477L123.803,189.765C123.803,189.765 123.516,189.765 123.516,190.053C123.516,190.053 123.228,190.053 123.228,190.341L123.228,190.628C123.228,190.917 122.939,190.917 122.939,191.205L122.363,191.205C122.363,191.205 122.075,191.205 122.075,190.917L121.283,190.917C120.996,191.205 120.635,191.205 120.419,191.205C120.419,191.205 120.131,191.205 120.131,190.917L120.131,190.341C120.996,189.477 121.283,188.325 121.283,186.885L121.283,186.38C120.996,185.229 120.996,184.077 120.635,182.997C120.419,182.133 120.131,180.909 119.771,180.044C119.771,179.541 119.771,178.964 119.555,178.389L119.555,177.524C119.555,177.021 119.555,176.373 119.268,176.157L119.268,170.397C118.979,169.028 118.979,167.588 118.403,166.509C118.115,165.86 117.827,165.645 117.827,164.997C116.963,163.917 116.1,162.477 115.523,161.037C115.308,160.172 115.02,159.021 114.659,157.94C114.659,157.365 114.443,156.717 114.443,156.212C114.155,155.349 114.155,154.484 113.795,153.692C113.795,152.829 113.58,151.964 113.58,151.101C113.58,150.813 113.292,150.236 113.292,150.021C113.003,149.661 112.715,149.157 112.427,148.509C112.427,148.293 112.139,147.717 111.852,147.068C111.563,146.564 111.347,145.989 110.987,145.413C110.771,145.125 110.483,144.836 110.124,144.261L109.907,143.973C109.907,143.685 109.619,143.397 109.259,143.181C109.259,142.82 109.043,142.82 109.043,142.533C108.179,141.453 107.315,140.588 106.451,140.013C106.235,139.725 105.875,139.725 105.372,139.725L104.795,139.725L101.627,141.093C101.051,141.093 100.476,141.453 99.611,141.453C99.395,141.453 99.035,141.453 98.531,141.093C98.171,141.093 97.955,140.877 97.955,140.588C97.667,140.229 97.667,140.013 97.667,139.725L97.307,139.437C96.515,139.437 95.939,138.573 95.651,137.997C95.651,137.205 95.651,136.557 95.939,135.981C95.939,135.765 96.227,135.477 96.227,135.117C96.227,134.613 96.515,134.037 96.515,133.749C96.803,133.46 96.803,133.172 97.091,132.885C97.667,132.597 98.171,131.805 98.531,131.229C99.035,130.365 99.395,129.501 99.899,128.349L99.899,127.773C98.747,127.484 97.307,127.197 96.227,127.197C95.363,126.909 94.787,126.909 93.923,126.692C93.635,126.333 93.059,126.044 92.771,125.469C92.771,125.252 92.555,124.964 92.771,124.605C92.771,124.101 93.059,123.741 93.419,123.524C93.419,123.236 93.419,123.236 93.635,123.236C93.923,122.949 94.499,122.949 94.787,122.661C95.075,122.373 95.363,122.373 95.651,122.373L100.259,122.373C101.051,122.373 101.627,122.661 102.204,122.949L103.644,122.949C104.147,122.661 104.795,122.373 105.372,122.373C105.587,122.085 105.875,122.085 106.235,122.085L106.451,122.085L108.179,121.509C108.467,121.221 108.755,121.221 109.043,121.221C110.124,121.221 111.347,121.509 112.427,121.796C113.003,121.221 113.292,120.717 113.58,120.068C114.155,119.493 114.659,118.989 115.308,118.413C115.308,118.413 115.523,118.413 115.523,118.125C115.883,118.125 116.387,118.125 116.963,117.765L117.54,117.765C117.827,117.765 117.827,118.125 117.827,118.125C118.115,118.125 118.403,118.413 118.403,118.628C118.403,119.205 118.691,119.493 118.691,119.853L118.691,124.101C118.691,124.605 118.979,124.964 118.979,125.469L120.419,126.909L121.283,127.484L122.939,129.212C123.516,129.717 123.803,130.365 124.379,130.581C124.956,130.94 125.243,130.94 125.748,130.94L126.971,131.229L127.835,131.444L128.699,131.444L130.644,131.805L132.011,132.021L133.235,132.309C134.892,132.309 136.259,132.597 137.771,132.597L142.595,132.597C143.748,132.597 144.54,132.597 145.691,132.309C147.131,132.309 148.571,132.021 149.939,131.444C152.532,130.94 155.051,130.581 157.355,130.94C159.083,131.444 160.812,131.805 162.54,132.309C164.484,132.885 166.427,134.037 168.155,135.117C169.308,135.981 170.459,137.205 171.323,138.285C172.188,139.437 172.691,140.877 173.268,142.316L173.268,143.685C173.557,144.836 173.557,145.701 173.843,146.853C174.131,147.429 174.131,147.933 174.419,148.509C174.419,149.157 174.708,149.661 174.708,150.236C174.997,151.101 175.283,151.964 175.283,152.541C175.571,153.044 175.571,153.692 175.571,154.197C175.571,154.773 175.859,155.349 175.859,155.925C175.859,156.501 176.075,157.077 176.075,157.581C176.436,158.444 176.724,159.309 176.724,160.172C176.939,161.037 176.939,161.9 176.939,162.765C176.939,163.341 176.724,163.917 176.724,164.42C176.436,164.997 176.075,165.285 175.571,165.86C175.283,166.148 174.708,166.509 174.131,166.148C173.557,166.148 173.268,166.148 173.051,165.86C173.051,165.645 172.691,165.645 172.691,165.285L172.403,162.477L172.188,160.172L172.188,159.885L171.899,159.668C171.899,160.172 171.54,160.749 171.54,161.325L171.54,169.533C171.54,170.973 171.54,172.125 172.188,173.276C172.403,174.068 172.691,175.293 172.691,176.373L172.691,177.524C172.188,178.389 171.54,179.541 171.54,180.692C171.323,180.692 171.323,180.909 171.323,181.269C171.035,182.349 170.748,183.212 170.459,184.077C170.171,184.94 170.171,185.517 169.883,186.38C169.883,186.885 169.595,187.533 169.308,188.108Z" style="fill:rgb(35,31,32);fill-rule:nonzero;"/>
        <path d="M169.308,188.108C169.308,188.325 169.308,188.325 169.021,188.325C168.731,188.325 168.516,188.613 168.516,188.973L167.867,189.189L167.292,189.189L167.075,189.477L165.347,189.477L165.347,189.189C165.347,189.189 165.06,189.189 165.347,189.189C165.563,188.613 165.923,188.108 166.211,187.533C166.427,187.533 166.427,187.245 166.427,187.245C166.788,186.021 167.292,184.94 167.292,183.789L167.292,177.524C167.652,177.524 167.652,177.236 167.652,177.021L167.652,175.293C167.652,174.933 167.652,174.933 167.292,174.717C167.292,174.429 167.075,174.068 167.075,173.853C166.788,173.276 166.788,172.701 166.427,172.125C165.923,171.621 165.923,170.973 165.563,170.397C165.347,169.533 164.771,168.741 164.195,168.165C163.619,167.877 163.332,167.301 163.044,166.725C163.044,166.509 162.755,165.86 162.54,165.645C162.179,164.997 161.892,164.781 161.892,164.42C161.676,164.205 161.676,163.917 161.315,163.557L161.027,163.341C161.027,163.053 161.027,162.765 160.812,162.477L160.812,163.341C160.812,164.205 160.812,164.781 161.027,165.645C161.315,165.86 161.315,166.509 161.315,167.013C161.676,167.301 161.676,167.588 161.676,167.877C162.179,168.741 162.54,169.316 162.755,170.181C163.044,170.756 163.332,171.261 163.619,171.836C163.619,172.125 163.619,172.484 163.907,172.701L163.907,174.429L163.619,174.717C163.619,174.933 163.332,175.293 163.044,175.509C163.044,175.509 162.54,176.373 162.179,177.236C161.676,178.101 161.676,178.389 161.315,178.677C161.027,179.252 160.812,179.829 160.451,180.692C160.235,181.269 159.947,181.773 159.947,182.349C159.372,183.212 159.083,184.077 158.795,184.94C158.508,185.229 158.508,185.517 158.219,185.805C157.932,186.38 157.355,186.885 157.355,187.749C157.068,188.108 156.779,188.325 156.563,188.325C156.563,188.613 156.204,188.613 156.204,188.973L155.916,189.189L155.699,189.477L153.107,189.477C153.107,189.189 153.107,188.973 153.396,188.973C153.396,188.613 153.611,188.613 153.611,188.613C153.611,188.325 153.971,188.108 153.971,188.108C153.971,187.749 154.259,187.533 154.259,187.245C154.476,186.668 154.476,186.021 154.835,185.517L154.835,184.94C154.835,184.652 154.835,184.077 155.051,183.789L155.051,183.212C155.339,181.773 155.916,180.405 156.563,178.964C156.779,178.101 157.068,177.021 157.355,175.796L157.355,174.717C157.355,174.068 157.355,173.564 157.068,172.989L157.068,172.484C156.779,172.125 156.563,171.621 156.204,170.973C155.699,170.181 154.835,169.028 154.259,168.165C153.971,167.877 153.611,167.588 153.396,167.301C153.107,167.013 152.819,166.509 152.532,166.148C152.243,166.148 152.027,165.86 152.027,165.645C152.027,165.645 151.667,165.285 151.667,164.997C151.379,164.997 151.165,164.781 151.165,164.42C151.165,164.205 151.165,164.205 150.803,163.917C150.299,164.205 149.724,164.42 148.859,164.42C147.997,164.781 147.131,164.997 146.268,165.285C146.268,165.285 146.051,165.285 145.691,165.645L145.188,165.645C144.827,165.645 142.883,166.148 140.867,166.725C143.748,165.86 142.883,166.148 142.021,166.509L140.292,166.509C139.211,166.509 137.771,166.725 136.619,166.725C136.259,166.725 136.259,166.725 136.259,167.013C135.467,168.453 134.892,170.181 134.315,171.836C134.027,172.989 133.739,174.068 133.451,175.293L133.451,176.157C133.451,177.021 133.235,177.524 133.235,178.389L133.235,179.252C133.235,179.541 132.875,179.829 132.875,180.044C132.587,180.692 132.587,181.269 132.587,182.133L132.587,189.189C132.587,189.477 132.372,189.765 132.011,189.765C132.011,190.053 131.795,190.053 131.795,190.341L131.795,190.628L131.507,190.917L130.644,190.917C130.644,190.917 130.354,190.917 130.067,190.628L129.779,190.628C129.779,190.628 129.563,190.628 129.563,190.917L128.699,190.917L128.699,190.053C129.203,189.477 129.563,188.613 129.563,187.749C129.563,187.749 129.563,187.533 129.203,187.245L129.203,185.229C128.916,184.94 128.916,184.652 129.203,184.365L129.203,183.501C128.916,183.501 128.916,183.212 128.916,183.212L128.916,182.133C128.916,181.773 128.916,181.484 128.699,181.269C128.699,180.909 128.339,180.692 128.339,180.405C128.05,180.044 128.05,179.829 128.05,179.829L128.05,179.541C127.835,178.677 128.05,177.813 128.05,177.021C128.339,177.021 128.339,176.661 128.339,176.373L128.339,175.509C128.339,174.717 128.339,173.564 128.05,172.701L128.05,167.877C127.835,167.588 127.835,167.301 127.835,166.725C127.476,166.509 127.476,166.509 127.259,166.148L126.611,166.148L126.611,167.301L126.396,167.588C126.396,168.165 126.107,168.741 126.107,169.316L126.107,169.893C126.107,170.181 126.107,170.397 125.748,170.756C125.748,171.261 125.748,171.836 125.531,172.484C125.531,172.701 125.531,172.989 125.243,173.564C125.243,173.853 125.243,174.429 124.956,174.717C124.956,174.933 124.956,175.293 124.667,175.509L124.667,176.157C124.667,176.373 124.667,176.373 124.379,176.373C124.379,177.021 124.379,177.236 124.091,177.524L124.091,180.692C124.091,181.269 124.091,181.773 124.379,182.349L124.379,187.533L124.091,188.613L124.091,189.477L123.803,189.765C123.803,189.765 123.516,189.765 123.516,190.053C123.516,190.053 123.228,190.053 123.228,190.341L123.228,190.628C123.228,190.917 122.939,190.917 122.939,191.205L122.363,191.205C122.363,191.205 122.075,191.205 122.075,190.917L121.283,190.917C120.996,191.205 120.635,191.205 120.419,191.205C120.419,191.205 120.131,191.205 120.131,190.917L120.131,190.341C120.996,189.477 121.283,188.325 121.283,186.885L121.283,186.38C120.996,185.229 120.996,184.077 120.635,182.997C120.419,182.133 120.131,180.909 119.771,180.044C119.771,179.541 119.771,178.964 119.555,178.389L119.555,177.524C119.555,177.021 119.555,176.373 119.268,176.157L119.268,170.397C118.979,169.028 118.979,167.588 118.403,166.509C118.115,165.86 117.827,165.645 117.827,164.997C116.963,163.917 116.1,162.477 115.523,161.037C115.308,160.172 115.02,159.021 114.659,157.94C114.659,157.365 114.443,156.717 114.443,156.212C114.155,155.349 114.155,154.484 113.795,153.692C113.795,152.829 113.58,151.964 113.58,151.101C113.58,150.813 113.292,150.236 113.292,150.021C113.003,149.661 112.715,149.157 112.427,148.509C112.427,148.293 112.139,147.717 111.852,147.068C111.563,146.564 111.347,145.989 110.987,145.413C110.771,145.125 110.483,144.836 110.124,144.261L109.907,143.973C109.907,143.685 109.619,143.397 109.259,143.181C109.259,142.82 109.043,142.82 109.043,142.533C108.179,141.453 107.315,140.588 106.451,140.013C106.235,139.725 105.875,139.725 105.372,139.725L104.795,139.725L101.627,141.093C101.051,141.093 100.476,141.453 99.611,141.453C99.395,141.453 99.035,141.453 98.531,141.093C98.171,141.093 97.955,140.877 97.955,140.588C97.667,140.229 97.667,140.013 97.667,139.725L97.307,139.437C96.515,139.437 95.939,138.573 95.651,137.997C95.651,137.205 95.651,136.557 95.939,135.981C95.939,135.765 96.227,135.477 96.227,135.117C96.227,134.613 96.515,134.037 96.515,133.749C96.803,133.46 96.803,133.172 97.091,132.885C97.667,132.597 98.171,131.805 98.531,131.229C99.035,130.365 99.395,129.501 99.899,128.349L99.899,127.773C98.747,127.484 97.307,127.197 96.227,127.197C95.363,126.909 94.787,126.909 93.923,126.692C93.635,126.333 93.059,126.044 92.771,125.469C92.771,125.252 92.555,124.964 92.771,124.605C92.771,124.101 93.059,123.741 93.419,123.524C93.419,123.236 93.419,123.236 93.635,123.236C93.923,122.949 94.499,122.949 94.787,122.661C95.075,122.373 95.363,122.373 95.651,122.373L100.259,122.373C101.051,122.373 101.627,122.661 102.204,122.949L103.644,122.949C104.147,122.661 104.795,122.373 105.372,122.373C105.587,122.085 105.875,122.085 106.235,122.085L106.451,122.085L108.179,121.509C108.467,121.221 108.755,121.221 109.043,121.221C110.124,121.221 111.347,121.509 112.427,121.796C113.003,121.221 113.292,120.717 113.58,120.068C114.155,119.493 114.659,118.989 115.308,118.413C115.308,118.413 115.523,118.413 115.523,118.125C115.883,118.125 116.387,118.125 116.963,117.765L117.54,117.765C117.827,117.765 117.827,118.125 117.827,118.125C118.115,118.125 118.403,118.413 118.403,118.628C118.403,119.205 118.691,119.493 118.691,119.853L118.691,124.101C118.691,124.605 118.979,124.964 118.979,125.469L120.419,126.909L121.283,127.484L122.939,129.212C123.516,129.717 123.803,130.365 124.379,130.581C124.956,130.94 125.243,130.94 125.748,130.94L126.971,131.229L127.835,131.444L128.699,131.444L130.644,131.805L132.011,132.021L133.235,132.309C134.892,132.309 136.259,132.597 137.771,132.597L142.595,132.597C143.748,132.597 144.54,132.597 145.691,132.309C147.131,132.309 148.571,132.021 149.939,131.444C152.532,130.94 155.051,130.581 157.355,130.94C159.083,131.444 160.812,131.805 162.54,132.309C164.484,132.885 166.427,134.037 168.155,135.117C169.308,135.981 170.459,137.205 171.323,138.285C172.188,139.437 172.691,140.877 173.268,142.316L173.268,143.685C173.557,144.836 173.557,145.701 173.843,146.853C174.131,147.429 174.131,147.933 174.419,148.509C174.419,149.157 174.708,149.661 174.708,150.236C174.997,151.101 175.283,151.964 175.283,152.541C175.571,153.044 175.571,153.692 175.571,154.197C175.571,154.773 175.859,155.349 175.859,155.925C175.859,156.501 176.075,157.077 176.075,157.581C176.436,158.444 176.724,159.309 176.724,160.172C176.939,161.037 176.939,161.9 176.939,162.765C176.939,163.341 176.724,163.917 176.724,164.42C176.436,164.997 176.075,165.285 175.571,165.86C175.283,166.148 174.708,166.509 174.131,166.148C173.557,166.148 173.268,166.148 173.051,165.86C173.051,165.645 172.691,165.645 172.691,165.285L172.403,162.477L172.188,160.172L172.188,159.885L171.899,159.668C171.899,160.172 171.54,160.749 171.54,161.325L171.54,169.533C171.54,170.973 171.54,172.125 172.188,173.276C172.403,174.068 172.691,175.293 172.691,176.373L172.691,177.524C172.188,178.389 171.54,179.541 171.54,180.692C171.323,180.692 171.323,180.909 171.323,181.269C171.035,182.349 170.748,183.212 170.459,184.077C170.171,184.94 170.171,185.517 169.883,186.38C169.883,186.885 169.595,187.533 169.308,188.108Z" style="fill:none;stroke:rgb(35,31,32);stroke-width:0.22px;"/>
        <path d="M88.235,185.805C88.019,186.668 88.019,187.533 88.019,188.325L88.019,190.053C88.019,190.341 88.019,190.628 87.659,190.628L86.291,190.628C86.003,190.917 85.427,190.917 85.427,190.628C85.139,190.341 85.139,190.053 85.139,189.765C85.427,189.477 85.427,189.189 85.427,189.189C85.715,188.613 86.003,188.108 86.003,187.533C86.003,186.668 86.291,186.021 86.291,185.517L86.291,184.94C86.003,184.077 86.003,183.212 85.427,182.637L85.427,181.773L85.139,181.484L85.139,178.389C84.851,177.524 84.563,176.373 84.275,174.933C83.987,173.853 83.771,172.701 83.411,171.836C83.411,171.261 83.411,171.261 83.123,170.973C83.123,170.756 83.123,170.397 82.907,170.181L82.907,169.533C82.547,169.316 82.547,169.028 82.547,168.741C82.259,168.453 82.259,168.165 82.259,167.588C82.259,167.301 82.259,166.725 82.043,166.509C82.043,165.86 82.043,165.285 81.683,164.781L81.683,164.205C81.467,163.557 81.467,163.341 81.467,162.765C81.467,162.189 81.179,161.9 81.179,161.325C80.819,161.037 80.819,161.037 80.603,160.749C80.603,160.46 80.603,160.46 80.315,160.46L74.339,160.46C74.339,160.46 73.979,160.172 73.979,159.885L73.979,159.668L73.763,159.309L73.475,159.309C73.475,159.021 73.187,158.805 73.187,158.444L73.187,157.365C73.475,157.077 73.763,156.717 73.979,156.501C73.979,156.212 73.979,156.212 74.339,155.925C74.843,155.349 75.491,155.061 76.067,154.484C76.283,154.197 76.931,153.909 77.147,153.692L77.147,153.044C76.931,153.044 76.283,153.044 76.067,152.829L75.203,152.829C74.843,152.541 74.627,152.541 74.339,152.252C73.979,152.252 73.979,152.252 73.763,151.964C73.763,151.964 73.763,151.677 73.475,151.389L73.475,150.813C73.475,150.524 73.763,150.524 73.763,150.236C73.979,150.021 74.627,150.021 74.843,150.021C75.491,149.661 75.707,149.661 76.283,149.661C76.931,149.661 77.147,149.661 77.795,150.021L78.875,150.021C79.451,150.021 79.739,150.021 80.027,149.661C80.603,149.661 81.467,149.373 82.259,149.373C82.547,149.157 83.123,149.157 83.771,149.373C83.987,149.373 83.987,149.373 84.275,149.157C84.851,147.717 86.003,146.853 87.443,146.205L88.019,146.205C88.235,146.564 88.235,146.564 88.235,146.853C88.235,147.429 88.235,148.293 88.019,148.796C88.019,149.157 87.659,149.373 87.659,149.661L87.659,150.021C88.523,151.101 89.747,152.252 90.827,153.333C90.827,153.333 91.115,153.692 91.403,153.909C91.691,154.197 91.979,154.484 92.195,154.484C92.195,154.773 92.555,154.773 92.771,155.061L97.955,155.061C98.531,155.061 98.747,154.773 99.035,154.773C99.899,154.773 100.763,154.773 101.627,155.061C102.204,155.061 102.779,155.349 103.283,155.637C103.931,155.637 104.147,155.925 104.507,156.212C104.795,156.501 104.795,156.501 105.011,156.501C105.875,157.365 106.739,157.94 107.027,159.021C108.179,160.46 108.755,162.189 109.043,164.205C109.043,164.42 109.259,164.997 109.259,165.645C109.259,166.148 109.043,167.013 109.043,167.588C109.043,168.165 108.755,169.028 108.467,169.893C108.467,170.973 108.179,171.261 108.179,171.621C107.892,172.125 107.892,172.484 107.892,172.989L107.892,173.276C108.179,174.068 108.179,174.717 108.179,175.509C108.179,175.509 108.179,176.157 108.467,176.661L108.467,177.524C108.755,178.101 108.755,178.389 109.043,178.677C109.043,179.252 109.043,179.829 109.259,180.692L109.259,182.349C109.259,183.501 109.259,184.077 109.619,184.94L109.619,187.533C109.619,187.749 109.259,187.749 109.259,187.749C109.043,188.108 109.043,188.108 108.755,188.108C108.467,188.108 108.467,188.108 108.179,188.325L107.027,188.325L107.027,188.108C107.027,187.749 107.027,187.749 107.315,187.533L107.315,186.38C107.315,186.021 107.027,185.805 107.027,185.517C107.027,184.94 106.739,184.365 106.739,184.077C106.451,182.637 105.875,181.269 105.372,179.829C105.011,179.252 105.011,178.964 104.795,178.677C104.795,178.389 104.507,178.101 104.147,177.524C104.147,177.236 103.931,176.661 103.283,176.157C103.283,175.796 103.283,175.509 103.067,175.509C103.067,174.933 103.067,174.717 102.779,174.429C102.779,174.068 102.491,174.068 102.491,173.853L102.204,173.853C102.491,174.933 102.779,176.157 103.067,177.236C103.283,177.524 103.283,177.813 103.644,178.101C103.644,178.389 103.931,178.964 103.931,179.541L103.931,180.044C103.644,180.692 103.644,181.269 103.067,181.773C103.067,182.133 102.779,182.637 102.779,182.997L102.779,183.501C102.779,184.652 102.491,185.805 102.204,187.245C102.204,187.533 102.204,187.749 101.916,188.108C101.916,188.325 101.627,188.325 101.627,188.325L100.476,188.325C100.259,188.613 99.899,188.613 99.611,188.613C99.395,188.613 99.395,188.613 99.395,188.325C99.899,187.533 100.259,186.668 100.259,185.805C100.259,185.229 100.259,184.365 99.899,183.789C99.899,183.501 99.899,182.997 100.259,182.637L100.259,179.829C100.259,179.541 100.259,179.252 99.899,178.964C99.899,178.964 99.899,178.677 99.611,178.677C99.395,178.389 99.035,178.101 98.747,177.813C98.531,177.236 98.171,176.661 97.955,176.157C97.955,175.509 97.667,175.293 97.667,174.933C97.307,174.717 97.307,174.068 97.307,173.853L97.091,173.853C96.803,174.068 96.803,174.429 96.515,174.933C96.515,175.509 96.227,175.796 95.939,176.373L95.939,177.021C95.939,177.021 95.651,177.236 95.651,177.524L95.651,177.813C95.363,178.389 95.363,178.964 95.075,179.541C95.075,179.829 94.787,180.044 94.787,180.692L94.499,180.909C94.283,181.773 94.499,181.773 94.283,182.133C93.923,183.789 94.283,184.077 94.283,184.077L94.283,187.245C94.283,187.533 94.283,188.108 93.923,188.613L93.923,189.765C93.635,189.765 93.635,190.053 93.635,190.053C93.635,190.341 93.419,190.341 93.419,190.341C93.059,190.628 93.059,190.628 92.771,190.628L91.115,190.628C91.115,190.341 91.115,190.053 91.403,189.765C91.403,189.477 91.403,189.477 91.691,189.189C91.691,188.613 91.691,188.325 91.979,188.108L91.979,186.885C91.691,186.668 91.691,186.38 91.691,186.021C91.691,185.517 91.691,185.229 91.403,184.94L91.403,184.077C91.115,183.789 91.115,183.501 91.115,183.212C90.827,182.997 90.827,182.997 90.827,182.637L90.827,181.773C90.827,181.269 91.115,180.405 91.403,179.829C91.403,179.252 91.691,178.389 91.979,177.813C91.979,177.236 92.195,177.021 92.195,176.373L92.195,175.509C92.195,175.293 91.979,175.293 91.979,175.293L91.979,174.933L91.979,175.293L89.747,175.293C89.747,175.509 89.387,176.157 89.387,176.373L89.387,177.813C89.099,178.101 89.099,178.389 89.099,178.677C89.099,178.964 88.883,179.541 88.883,180.044L88.883,183.501C88.883,183.789 88.523,183.789 88.523,184.077C88.523,184.365 88.523,184.365 88.235,184.652L88.235,185.805Z" style="fill:rgb(35,31,32);fill-rule:nonzero;"/>
        <path d="M88.235,185.805C88.019,186.668 88.019,187.533 88.019,188.325L88.019,190.053C88.019,190.341 88.019,190.628 87.659,190.628L86.291,190.628C86.003,190.917 85.427,190.917 85.427,190.628C85.139,190.341 85.139,190.053 85.139,189.765C85.427,189.477 85.427,189.189 85.427,189.189C85.715,188.613 86.003,188.108 86.003,187.533C86.003,186.668 86.291,186.021 86.291,185.517L86.291,184.94C86.003,184.077 86.003,183.212 85.427,182.637L85.427,181.773L85.139,181.484L85.139,178.389C84.851,177.524 84.563,176.373 84.275,174.933C83.987,173.853 83.771,172.701 83.411,171.836C83.411,171.261 83.411,171.261 83.123,170.973C83.123,170.756 83.123,170.397 82.907,170.181L82.907,169.533C82.547,169.316 82.547,169.028 82.547,168.741C82.259,168.453 82.259,168.165 82.259,167.588C82.259,167.301 82.259,166.725 82.043,166.509C82.043,165.86 82.043,165.285 81.683,164.781L81.683,164.205C81.467,163.557 81.467,163.341 81.467,162.765C81.467,162.189 81.179,161.9 81.179,161.325C80.819,161.037 80.819,161.037 80.603,160.749C80.603,160.46 80.603,160.46 80.315,160.46L74.339,160.46C74.339,160.46 73.979,160.172 73.979,159.885L73.979,159.668L73.763,159.309L73.475,159.309C73.475,159.021 73.187,158.805 73.187,158.444L73.187,157.365C73.475,157.077 73.763,156.717 73.979,156.501C73.979,156.212 73.979,156.212 74.339,155.925C74.843,155.349 75.491,155.061 76.067,154.484C76.283,154.197 76.931,153.909 77.147,153.692L77.147,153.044C76.931,153.044 76.283,153.044 76.067,152.829L75.203,152.829C74.843,152.541 74.627,152.541 74.339,152.252C73.979,152.252 73.979,152.252 73.763,151.964C73.763,151.964 73.763,151.677 73.475,151.389L73.475,150.813C73.475,150.524 73.763,150.524 73.763,150.236C73.979,150.021 74.627,150.021 74.843,150.021C75.491,149.661 75.707,149.661 76.283,149.661C76.931,149.661 77.147,149.661 77.795,150.021L78.875,150.021C79.451,150.021 79.739,150.021 80.027,149.661C80.603,149.661 81.467,149.373 82.259,149.373C82.547,149.157 83.123,149.157 83.771,149.373C83.987,149.373 83.987,149.373 84.275,149.157C84.851,147.717 86.003,146.853 87.443,146.205L88.019,146.205C88.235,146.564 88.235,146.564 88.235,146.853C88.235,147.429 88.235,148.293 88.019,148.796C88.019,149.157 87.659,149.373 87.659,149.661L87.659,150.021C88.523,151.101 89.747,152.252 90.827,153.333C90.827,153.333 91.115,153.692 91.403,153.909C91.691,154.197 91.979,154.484 92.195,154.484C92.195,154.773 92.555,154.773 92.771,155.061L97.955,155.061C98.531,155.061 98.747,154.773 99.035,154.773C99.899,154.773 100.763,154.773 101.627,155.061C102.204,155.061 102.779,155.349 103.283,155.637C103.931,155.637 104.147,155.925 104.507,156.212C104.795,156.501 104.795,156.501 105.011,156.501C105.875,157.365 106.739,157.94 107.027,159.021C108.179,160.46 108.755,162.189 109.043,164.205C109.043,164.42 109.259,164.997 109.259,165.645C109.259,166.148 109.043,167.013 109.043,167.588C109.043,168.165 108.755,169.028 108.467,169.893C108.467,170.973 108.179,171.261 108.179,171.621C107.892,172.125 107.892,172.484 107.892,172.989L107.892,173.276C108.179,174.068 108.179,174.717 108.179,175.509C108.179,175.509 108.179,176.157 108.467,176.661L108.467,177.524C108.755,178.101 108.755,178.389 109.043,178.677C109.043,179.252 109.043,179.829 109.259,180.692L109.259,182.349C109.259,183.501 109.259,184.077 109.619,184.94L109.619,187.533C109.619,187.749 109.259,187.749 109.259,187.749C109.043,188.108 109.043,188.108 108.755,188.108C108.467,188.108 108.467,188.108 108.179,188.325L107.027,188.325L107.027,188.108C107.027,187.749 107.027,187.749 107.315,187.533L107.315,186.38C107.315,186.021 107.027,185.805 107.027,185.517C107.027,184.94 106.739,184.365 106.739,184.077C106.451,182.637 105.875,181.269 105.372,179.829C105.011,179.252 105.011,178.964 104.795,178.677C104.795,178.389 104.507,178.101 104.147,177.524C104.147,177.236 103.931,176.661 103.283,176.157C103.283,175.796 103.283,175.509 103.067,175.509C103.067,174.933 103.067,174.717 102.779,174.429C102.779,174.068 102.491,174.068 102.491,173.853L102.204,173.853C102.491,174.933 102.779,176.157 103.067,177.236C103.283,177.524 103.283,177.813 103.644,178.101C103.644,178.389 103.931,178.964 103.931,179.541L103.931,180.044C103.644,180.692 103.644,181.269 103.067,181.773C103.067,182.133 102.779,182.637 102.779,182.997L102.779,183.501C102.779,184.652 102.491,185.805 102.204,187.245C102.204,187.533 102.204,187.749 101.916,188.108C101.916,188.325 101.627,188.325 101.627,188.325L100.476,188.325C100.259,188.613 99.899,188.613 99.611,188.613C99.395,188.613 99.395,188.613 99.395,188.325C99.899,187.533 100.259,186.668 100.259,185.805C100.259,185.229 100.259,184.365 99.899,183.789C99.899,183.501 99.899,182.997 100.259,182.637L100.259,179.829C100.259,179.541 100.259,179.252 99.899,178.964C99.899,178.964 99.899,178.677 99.611,178.677C99.395,178.389 99.035,178.101 98.747,177.813C98.531,177.236 98.171,176.661 97.955,176.157C97.955,175.509 97.667,175.293 97.667,174.933C97.307,174.717 97.307,174.068 97.307,173.853L97.091,173.853C96.803,174.068 96.803,174.429 96.515,174.933C96.515,175.509 96.227,175.796 95.939,176.373L95.939,177.021C95.939,177.021 95.651,177.236 95.651,177.524L95.651,177.813C95.363,178.389 95.363,178.964 95.075,179.541C95.075,179.829 94.787,180.044 94.787,180.692L94.499,180.909C94.283,181.773 94.499,181.773 94.283,182.133C93.923,183.789 94.283,184.077 94.283,184.077L94.283,187.245C94.283,187.533 94.283,188.108 93.923,188.613L93.923,189.765C93.635,189.765 93.635,190.053 93.635,190.053C93.635,190.341 93.419,190.341 93.419,190.341C93.059,190.628 93.059,190.628 92.771,190.628L91.115,190.628C91.115,190.341 91.115,190.053 91.403,189.765C91.403,189.477 91.403,189.477 91.691,189.189C91.691,188.613 91.691,188.325 91.979,188.108L91.979,186.885C91.691,186.668 91.691,186.38 91.691,186.021C91.691,185.517 91.691,185.229 91.403,184.94L91.403,184.077C91.115,183.789 91.115,183.501 91.115,183.212C90.827,182.997 90.827,182.997 90.827,182.637L90.827,181.773C90.827,181.269 91.115,180.405 91.403,179.829C91.403,179.252 91.691,178.389 91.979,177.813C91.979,177.236 92.195,177.021 92.195,176.373L92.195,175.509C92.195,175.293 91.979,175.293 91.979,175.293L91.979,174.933L91.979,175.293L89.747,175.293C89.747,175.509 89.387,176.157 89.387,176.373L89.387,177.813C89.099,178.101 89.099,178.389 89.099,178.677C89.099,178.964 88.883,179.541 88.883,180.044L88.883,183.501C88.883,183.789 88.523,183.789 88.523,184.077C88.523,184.365 88.523,184.365 88.235,184.652L88.235,185.805Z" style="fill:none;stroke:rgb(35,31,32);stroke-width:0.22px;"/>
    </g>
</svg>
