<?xml version="1.0" encoding="UTF-8" standalone="no"?>
<!DOCTYPE svg PUBLIC "-//W3C//DTD SVG 1.1//EN" "http://www.w3.org/Graphics/SVG/1.1/DTD/svg11.dtd">
<svg width="100%" height="100%" viewBox="0 0 558 213" version="1.1" xmlns="http://www.w3.org/2000/svg" xmlns:xlink="http://www.w3.org/1999/xlink" xml:space="preserve" xmlns:serif="http://www.serif.com/" style="fill-rule:evenodd;clip-rule:evenodd;stroke-linecap:square;stroke-miterlimit:2;">
    <g>
        <rect x="0" y="0.5" width="557.25" height="212.5" style="fill:rgb(254,190,15);fill-rule:nonzero;"/>
        <rect x="0" y="0.5" width="557.25" height="212.5" style="fill:none;"/>
        <path d="M106.25,191.75L450.75,191.75L457.25,191.5L463.5,190.75L469.75,189.75L476,188L482,186L487.75,183.25L493.25,180.5L498.75,177L504,173.25L508.75,169L513,164.5L517.25,159.75L521,154.75L524.5,149.25L527.5,143.5L530,137.75L532,131.75L533.75,125.75L534.75,119.5L535.5,113L535.75,106.75L535.5,100.5L534.75,94.25L533.75,88L532,81.75L530,75.75L527.5,70L524.5,64.25L521,58.75L517.25,53.75L513,49L508.75,44.5L504,40.25L498.75,36.5L493.25,33.25L487.75,30.25L482,27.75L476,25.5L469.75,24L463.5,22.75L457.25,22L450.75,21.75L106.25,21.75L99.75,22L93.5,22.75L87.25,24L81,25.5L75,27.75L69.25,30.25L63.5,33.25L58.25,36.5L53.25,40.25L48.25,44.5L43.75,49L39.75,53.75L36,58.75L32.5,64.25L29.5,70L27,75.75L25,81.75L23.25,88L22,94.25L21.25,100.5L21,106.75L21.25,113L22,119.5L23.25,125.75L25,131.75L27,137.75L29.5,143.5L32.5,149.25L36,154.75L39.75,159.75L43.75,164.5L48.25,169L53.25,173.25L58.25,177L63.5,180.5L75,186L81,188L87.25,189.75L93.5,190.75L99.75,191.5L106.25,191.75Z" style="fill:white;fill-rule:nonzero;"/>
        <path d="M106.25,191.75L450.75,191.75L457.25,191.5L463.5,190.75L469.75,189.75L476,188L482,186L487.75,183.25L493.25,180.5L498.75,177L504,173.25L508.75,169L513,164.5L517.25,159.75L521,154.75L524.5,149.25L527.5,143.5L530,137.75L532,131.75L533.75,125.75L534.75,119.5L535.5,113L535.75,106.75L535.5,100.5L534.75,94.25L533.75,88L532,81.75L530,75.75L527.5,70L524.5,64.25L521,58.75L517.25,53.75L513,49L508.75,44.5L504,40.25L498.75,36.5L493.25,33.25L487.75,30.25L482,27.75L476,25.5L469.75,24L463.5,22.75L457.25,22L450.75,21.75L106.25,21.75L99.75,22L93.5,22.75L87.25,24L81,25.5L75,27.75L69.25,30.25L63.5,33.25L58.25,36.5L53.25,40.25L48.25,44.5L43.75,49L39.75,53.75L36,58.75L32.5,64.25L29.5,70L27,75.75L25,81.75L23.25,88L22,94.25L21.25,100.5L21,106.75L21.25,113L22,119.5L23.25,125.75L25,131.75L27,137.75L29.5,143.5L32.5,149.25L36,154.75L39.75,159.75L43.75,164.5L48.25,169L53.25,173.25L58.25,177L63.5,180.5L75,186L81,188L87.25,189.75L93.5,190.75L99.75,191.5L106.25,191.75Z" style="fill:none;stroke:white;stroke-width:0.75px;"/>
        <path d="M148.75,163.5L92,163.5L134.5,50L151.5,50L148.75,163.5Z" style="fill:rgb(35,31,32);fill-rule:nonzero;"/>
        <path d="M148.75,163.5L92,163.5L134.5,50L151.5,50L148.75,163.5Z" style="fill:none;stroke:rgb(35,31,32);stroke-width:0.75px;"/>
        <path d="M232,78.5L238.25,98L238.5,99L239.25,99.5L240.25,99.75L241,99.5L242,99L242.5,98.25L261.75,54L262,53L261.75,52L261.25,51L260.25,50.25L259.25,50L207.5,50L206.75,50.25L206.25,50.75L205.5,51.25L205.25,52.25L205.75,53.75L206.5,54.25L225,66.25L218.5,68.25L212.5,70.75L206.5,73.75L200.75,77.25L195.25,81.25L190.25,85.5L177,50L160,50L162.75,163.5L219.5,163.5L209,135.5L207.5,131L206.75,126.75L206.25,122.25L206.25,117.75L206.5,113.25L207.25,109L208.75,104.5L210.25,100.5L212.5,96.5L215,92.75L217.75,89.25L220.75,86L224.25,83.25L228,80.75L232,78.5Z" style="fill:rgb(35,31,32);fill-rule:nonzero;"/>
        <path d="M232,78.5L238.25,98L238.5,99L239.25,99.5L240.25,99.75L241,99.5L242,99L242.5,98.25L261.75,54L262,53L261.75,52L261.25,51L260.25,50.25L259.25,50L207.5,50L206.75,50.25L206.25,50.75L205.5,51.25L205.25,52.25L205.75,53.75L206.5,54.25L225,66.25L218.5,68.25L212.5,70.75L206.5,73.75L200.75,77.25L195.25,81.25L190.25,85.5L177,50L160,50L162.75,163.5L219.5,163.5L209,135.5L207.5,131L206.75,126.75L206.25,122.25L206.25,117.75L206.5,113.25L207.25,109L208.75,104.5L210.25,100.5L212.5,96.5L215,92.75L217.75,89.25L220.75,86L224.25,83.25L228,80.75L232,78.5Z" style="fill:none;stroke:rgb(35,31,32);stroke-width:0.75px;"/>
        <path d="M408.75,137.75L411.25,140L414,142.5L417,144.25L420.25,145.75L423.5,146.75L427,147.25L430.5,147.5L433.25,147.25L436,146.5L438.5,145.5L441,144L443,142.25L444.5,140L446,137.5L447,135L447.5,130.75L447.75,126L447.5,121.75L447,117.25L446,114.5L443,110L441,108.25L438.5,106.75L436,105.5L433.25,104.75L430.5,104.5L427.5,104.75L424.5,105.25L421.5,106.25L418.75,107.5L416,109.25L399,104.5L399,50L465,50L465,68.5L418.75,68.5L418.75,89L421.5,87.75L424.5,86.75L427.5,86.25L430.5,86L434.75,86.25L438.75,87L442.75,88.25L446.5,89.75L450,91.75L453.25,94L456.5,96.75L459.25,99.75L461.75,103L463.75,106.5L465.25,110.25L466.5,114.25L467.5,120L467.75,126L467.5,132L466.5,138L465.25,142L463.75,145.75L461.75,149.25L459.25,152.5L456.5,155.5L453.25,158.25L450,160.5L446.5,162.5L442.75,164L438.75,165.25L434.75,166L430.5,166L425.75,165.75L420.5,165L415.75,163.75L411,162L406.75,159.75L402.5,157.25L398.5,154L395,150.5L408.75,137.75Z" style="fill:rgb(35,31,32);fill-rule:nonzero;"/>
        <path d="M408.75,137.75L411.25,140L414,142.5L417,144.25L420.25,145.75L423.5,146.75L427,147.25L430.5,147.5L433.25,147.25L436,146.5L438.5,145.5L441,144L443,142.25L444.5,140L446,137.5L447,135L447.5,130.75L447.75,126L447.5,121.75L447,117.25L446,114.5L443,110L441,108.25L438.5,106.75L436,105.5L433.25,104.75L430.5,104.5L427.5,104.75L424.5,105.25L421.5,106.25L418.75,107.5L416,109.25L399,104.5L399,50L465,50L465,68.5L418.75,68.5L418.75,89L421.5,87.75L424.5,86.75L427.5,86.25L430.5,86L434.75,86.25L438.75,87L442.75,88.25L446.5,89.75L450,91.75L453.25,94L456.5,96.75L459.25,99.75L461.75,103L463.75,106.5L465.25,110.25L466.5,114.25L467.5,120L467.75,126L467.5,132L466.5,138L465.25,142L463.75,145.75L461.75,149.25L459.25,152.5L456.5,155.5L453.25,158.25L450,160.5L446.5,162.5L442.75,164L438.75,165.25L434.75,166L430.5,166L425.75,165.75L420.5,165L415.75,163.75L411,162L406.75,159.75L402.5,157.25L398.5,154L395,150.5L408.75,137.75Z" style="fill:none;stroke:rgb(35,31,32);stroke-width:0.75px;"/>
        <path d="M324.25,81.25L304.5,77.5L305.5,73.5L307,69.5L309,65.75L311,62.25L313.75,59.25L316.75,56.25L320,53.75L323.75,51.75L327.25,50L331.25,48.75L335.5,47.75L339.5,47.5L343.75,47.5L347.75,48.25L351.75,49.25L355.75,50.75L359.5,52.75L363,55L366,57.75L368.75,60.75L371.25,64L373.25,67.75L375,71.25L376.25,75.25L377,79.5L377.25,83.5L377.25,87.75L376.5,91.75L375.25,95.75L373.75,100.5L371.75,105L369.25,109.25L366.25,113.25L363,116.75L336,145L377.25,145L377.25,163.5L307.25,163.5L307.25,146.25L349,103L351.25,100.5L353.25,97.5L354.75,94.5L356.25,91L357,87.75L357.5,84.25L357.25,81.25L356.75,78.25L355.5,75.5L354,73.25L351.75,71L349.5,69.25L346.75,67.75L343.75,67.25L340.75,67L338,67.25L335,68L332.25,69.25L330,71L327.75,73.25L326.25,75.75L325,78.5L324.25,81.25Z" style="fill:rgb(35,31,32);fill-rule:nonzero;"/>
        <path d="M324.25,81.25L304.5,77.5L305.5,73.5L307,69.5L309,65.75L311,62.25L313.75,59.25L316.75,56.25L320,53.75L323.75,51.75L327.25,50L331.25,48.75L335.5,47.75L339.5,47.5L343.75,47.5L347.75,48.25L351.75,49.25L355.75,50.75L359.5,52.75L363,55L366,57.75L368.75,60.75L371.25,64L373.25,67.75L375,71.25L376.25,75.25L377,79.5L377.25,83.5L377.25,87.75L376.5,91.75L375.25,95.75L373.75,100.5L371.75,105L369.25,109.25L366.25,113.25L363,116.75L336,145L377.25,145L377.25,163.5L307.25,163.5L307.25,146.25L349,103L351.25,100.5L353.25,97.5L354.75,94.5L356.25,91L357,87.75L357.5,84.25L357.25,81.25L356.75,78.25L355.5,75.5L354,73.25L351.75,71L349.5,69.25L346.75,67.75L343.75,67.25L340.75,67L338,67.25L335,68L332.25,69.25L330,71L327.75,73.25L326.25,75.75L325,78.5L324.25,81.25Z" style="fill:none;stroke:rgb(35,31,32);stroke-width:0.75px;"/>
    </g>
</svg>
