<?xml version="1.0" encoding="UTF-8" standalone="no"?>
<!DOCTYPE svg PUBLIC "-//W3C//DTD SVG 1.1//EN" "http://www.w3.org/Graphics/SVG/1.1/DTD/svg11.dtd">
<svg width="100%" height="100%" viewBox="0 0 596 596" version="1.1" xmlns="http://www.w3.org/2000/svg" xmlns:xlink="http://www.w3.org/1999/xlink" xml:space="preserve" xmlns:serif="http://www.serif.com/" style="fill-rule:evenodd;clip-rule:evenodd;stroke-linecap:round;stroke-linejoin:round;stroke-miterlimit:2;">
    <g>
        <rect x="0.354" y="1.079" width="594.568" height="594.568" style="fill-rule:nonzero;"/>
        <rect x="0.354" y="1.079" width="594.568" height="594.568" style="fill:none;stroke:black;stroke-width:0.71px;"/>
        <rect x="18.191" y="18.916" width="558.893" height="558.894" style="fill:white;fill-rule:nonzero;"/>
        <rect x="18.191" y="18.916" width="558.893" height="558.894" style="fill:none;stroke:black;stroke-width:0.71px;"/>
        <path d="M378.498,97.864L378.498,53.104L307.15,53.104L307.15,97.864C307.15,251.18 226.412,393.167 94.654,471.565L131.137,532.879C208.186,487.036 271.676,421.549 315.115,343.121L315.115,540.543L338.897,540.543L338.897,294.136C365.034,232.001 378.498,165.272 378.498,97.864Z" style="fill-rule:nonzero;"/>
        <path d="M378.498,97.864L378.498,53.104L307.15,53.104L307.15,97.864C307.15,251.18 226.412,393.167 94.654,471.565L131.137,532.879C208.186,487.036 271.676,421.549 315.115,343.121L315.115,540.543L338.897,540.543L338.897,294.136C365.034,232.001 378.498,165.272 378.498,97.864Z" style="fill:none;stroke:black;stroke-width:0.71px;"/>
    </g>
</svg>
