<?xml version="1.0" encoding="UTF-8" standalone="no"?>
<!DOCTYPE svg PUBLIC "-//W3C//DTD SVG 1.1//EN" "http://www.w3.org/Graphics/SVG/1.1/DTD/svg11.dtd">
<svg width="100%" height="100%" viewBox="0 0 630 273" version="1.1" xmlns="http://www.w3.org/2000/svg" xmlns:xlink="http://www.w3.org/1999/xlink" xml:space="preserve" xmlns:serif="http://www.serif.com/" style="fill-rule:evenodd;clip-rule:evenodd;stroke-linejoin:round;stroke-miterlimit:2;">
    <g>
        <rect x="5.25" y="5.25" width="619.25" height="262.5" style="fill:rgb(249,250,250);"/>
        <path d="M619.25,262.75L10.5,262.75L10.5,10.75L619.25,10.75L619.25,262.75ZM0,0.25L0,273L629.75,273L629.75,0.25L0,0.25Z"/>
        <path d="M61.75,66.5L61.75,78L75.5,78L75.5,87.25L75.25,89.25L74.75,91L74,92.75L72.75,94.5L71.5,96L70.75,96.75L69.25,98L65.75,99.5L61.75,100L60.25,100L58.25,99.5L56.5,99L54.5,98.25L52.75,97L51.5,96L48.75,93.25L48,91.5L47,89.75L47,89.5L46.5,87.75L45.75,86L45,82L44.75,80L44.75,78L44.5,76L44.5,71.5L44.75,69.5L44.75,67.5L45.5,63.5L45.75,61.5L46.5,59.75L47,57.75L47.75,56.25L48.5,54.5L49.75,53L51.25,51.5L52.75,50.25L54,49.5L56,48.5L57.75,47.75L61.75,47.25L63.75,47.5L66,47.75L67.75,48.25L69.25,49.25L71,50.25L72.25,51.25L73.75,53L75,54.5L85.25,47.75L84,46.25L82.5,44.5L79.75,41.75L78.25,40.75L76.75,39.5L75,38.5L73.5,38L71.75,37.25L69.75,36.5L66,35.75L64,35.75L62,35.5L60.25,35.5L58.25,35.75L56.5,36L52.5,37L50.75,37.75L48.75,38.5L47.25,39.5L45.5,40.75L45.25,40.75L42.75,42.75L41.5,44L39.25,46.75L38.25,48L37.25,49.75L36.25,51.25L35,54.5L34.25,56.25L32.75,62.25L32,69L32,71.25L31.75,73.75L31.75,74L32,76L32,78L33,86L34,90L34.75,92L35.25,94L36,95.75L38,99.25L40.5,102.25L43.25,105L46.75,107.5L48.5,108.5L52,110L56,111L57.75,111.5L60,111.75L62.75,111.75L64.75,111.5L66.5,111.25L68.5,111L70.5,110.25L72.25,109.75L74,109L77.5,107L79,105.75L80.5,104.25L81,104L83.5,101L84.5,99.25L85.5,97.75L87,94L87.5,92.25L88.25,86.25L88.25,66.5L61.75,66.5Z"/>
        <path d="M107,58.25L107,118.5L106.75,120.25L105.75,121.75L104.25,122.5L102.5,122.75L100.75,122.5L98.75,122.25L97.25,122L93.75,131.75L97.75,132.75L99.75,133L104.75,133L106.5,132.5L108.5,132L110.25,131.25L113.25,128.75L113.5,128.5L116,125.5L116.75,123.75L117.25,122L117.75,120L118,118L118,58.25L107,58.25Z"/>
        <path d="M112.5,35.75L110.5,36L108.75,37L108,37.75L107,39.25L106.25,41L106.25,42L106.5,44.25L108,46.5L109.75,47.75L111.5,48.25L112.5,48.5L114.5,48L116.25,47.25L117,46.5L118,45L118.75,42L118.5,40L117.5,38.25L117,37.75L115.5,36.5L113.5,35.75L112.5,35.75Z"/>
        <path d="M143.75,77.5L144,75.25L144.75,73.25L145.75,71.5L146.75,70L147.75,68.75L150.75,67.25L152.5,66.75L154.75,66.75L156.75,67L158.75,67.75L160.5,68.75L162.25,70.5L163.25,72L164.25,74L164.75,75.75L165,77.5L143.75,77.5ZM176.5,80.75L176,76.75L175,72.25L174.75,72.25L174.25,70.25L173.5,68.25L172.5,66.5L171.5,65L170.25,63.25L169,62L167.5,60.75L165.75,59.5L164,58.5L162.25,57.75L160.5,57.25L156.25,56.5L152,56.5L150,56.75L148,57.25L146.25,57.75L142.75,59.5L141,60.75L139.5,62.25L138,63.5L137,65L135.75,66.75L135,68.5L134.25,70.5L133.5,72.25L133,74L132.5,76L132,80L132,87.75L132.25,89.75L133,93.75L133.5,95.75L133.5,96L134.25,98L135.75,101.5L137,103.25L139.5,106L141,107.25L141.25,107.5L143,108.5L144.5,109.5L146.5,110.25L148.25,111L154.25,111.75L155.25,111.75L157.25,111.5L159,111.25L161,110.75L163,110L164.75,109.25L166.5,108.25L167.25,107.75L168.75,106.5L170.5,105.25L173,102.25L174,100.75L175,98.75L165.75,94.25L165.25,95.25L164.25,97L163,98.25L161.5,99.5L160,100.25L158.25,101L154.25,101.5L153.75,101.5L151.75,101.25L150,100.5L148.25,99.5L146.75,98L145.75,96.75L144.75,95.25L144,93.25L143.75,91.25L143.25,89L143,86.25L176.5,86.25L176.75,84L176.75,82.5L176.5,80.75Z"/>
        <rect x="191" y="36.75" width="11" height="73.5" style="fill-rule:nonzero;"/>
        <path d="M249.5,91L249.25,93L248.75,94.75L248,96.5L246.5,98.25L246.25,98.25L244.75,99.5L243,100.5L241.25,101.25L236.75,101.25L235,100.75L233.25,99.75L232.25,99.25L230.75,97.75L229.5,96.25L228.5,94.5L228.25,93.25L228,91.25L227.5,89.25L227.25,87.25L227.25,85.25L227,84L227.25,82.25L227.25,80.25L227.75,78.25L228,76.25L228.25,74.75L229,73L230,71.25L231.25,69.75L232.25,68.75L233.75,67.75L235.75,67L237.5,66.75L238.75,66.5L240.75,66.75L242.75,67.25L244.5,68.25L246,69.25L246.25,69.75L247.75,71.25L248.75,73L249.25,74.75L249.5,76.75L249.5,91ZM249.5,36.75L249.5,60L247.75,58.75L246,57.75L244.25,57L242.5,56.5L237,56.5L235,56.75L233.25,57.25L231.25,57.75L229.5,58.5L226,60.5L225,61.5L223.5,62.75L222,64.25L221,65.75L219.75,67.5L218,71L217.5,72.75L217,74.25L216.75,76L216,82L216,86.25L216.75,92.25L217,94L217.5,96L218.25,98L219,99.75L220,101.25L221.25,103L222.5,104.5L224,105.75L225,106.75L226.75,108L228.25,109L230.25,110L232,110.5L234,111L235.75,111.5L237.75,111.75L239.75,111.75L241.75,111.5L243.5,111.25L245.5,110.5L247.25,109.75L249,108.5L249.5,108.25L249.5,110.25L260.5,110.25L260.5,36.75L249.5,36.75Z"/>
        <path d="M287,77.5L287.5,75.25L288,73.25L289,71.5L290,70L291,68.75L294,67.25L295.75,66.75L298,66.75L300,67L302,67.75L303.75,68.75L305.5,70.5L306.75,72L307.5,74L308,75.75L308.25,77.5L287,77.5ZM319.75,80.75L319.5,78.75L318.75,74.5L318.25,72.25L316.75,68.25L315.75,66.5L314.75,65L313.5,63.25L312.25,62L310.75,60.75L309,59.5L307.25,58.5L305.5,57.75L303.75,57.25L301.75,56.75L299.75,56.5L295.25,56.5L293.25,56.75L291.25,57.25L289.5,57.75L287.75,58.75L286,59.5L284.5,60.75L284.25,60.75L281.5,63.5L280.25,65L279,66.75L278.25,68.5L277.5,70.5L276.75,72.25L276.25,74L275.25,82L275.25,85.75L276.25,93.75L276.75,95.75L276.75,96L277.5,98L278.25,99.75L280.25,103.25L281.5,104.5L282.75,106L284.5,107.25L284.5,107.5L288,109.5L291.5,111L297.5,111.75L298.5,111.75L302.5,111.25L304.25,110.75L306.25,110L308,109.25L309.75,108.25L310.5,107.75L312.25,106.5L313.75,105.25L317.5,100.75L318.5,98.75L309,94.25L308.75,95.25L307.5,97L306.25,98.25L304.75,99.5L303.25,100.25L301.5,101L299.75,101.25L297.5,101.5L297,101.5L295,101.25L293.25,100.5L291.5,99.5L290,98L289,96.75L288,95.25L287,91.25L286.5,89L286.25,86.25L319.75,86.25L320,84L320,82.5L319.75,80.75Z"/>
        <path d="M363.75,57.5L361.75,56.75L360,56.5L356.25,56.5L354.25,56.75L352.25,57.25L350.5,57.75L348.75,58.75L347,59.5L345.25,60.75L345.25,58L334.5,58L334.5,110.25L345.25,110.25L345.25,77L345.75,74.75L346.25,73L347.25,71.25L348.5,69.75L350.75,68.25L354.25,66.75L357.5,66.75L359.5,67L361.25,67.75L365.25,58L363.75,57.5Z"/>
        <rect x="419" y="57.75" width="11" height="52.5" style="fill-rule:nonzero;"/>
        <path d="M424.75,35.5L422.75,35.75L421,36.5L420,37.25L419,38.75L418.25,41.75L418.75,43.75L419.5,45.5L420,46L421.75,47.25L423.5,47.75L424.75,47.75L426.5,47.5L428.25,46.75L429,46L430.25,44.5L430.75,42.5L430.75,41.75L430.5,39.75L429.5,38L429,37.25L427.5,36L425.5,35.5L424.75,35.5Z"/>
        <path d="M492.5,57.75L477,57.75L458.75,76.25L458.75,36.75L447.75,36.75L447.75,110.25L458.75,110.25L458.75,92L462.5,88L479,110.25L492.5,110.25L470.5,80L492.5,57.75Z"/>
        <path d="M547.25,57.75L531.75,57.75L513.5,76.25L513.5,36.75L502.5,36.75L502.5,110.25L513.5,110.25L513.5,92L517.25,88L533.75,110.25L547.25,110.25L525,80L547.25,57.75Z"/>
        <path d="M565,75.25L565.75,73.25L566.75,71.5L567.5,70L568.75,68.75L570,68L571.75,67.25L573.25,66.75L575.75,66.75L577.75,67L579.5,67.75L581.5,68.75L583.25,70.5L584.5,72L585,74L586,77.5L564.5,77.5L565,75.25ZM597.5,86.25L597.75,84L597.5,82.5L597.5,80.75L597,76.75L596,72.25L594.5,68.25L593.5,66.5L592.5,65L591.25,63.25L590,62L588.25,60.75L586.75,59.5L585,58.5L583.25,57.75L581.5,57.25L579.25,56.75L577.5,56.5L573,56.5L571,56.75L567,57.75L565.25,58.75L563.75,59.5L562,60.75L560.5,62.25L559,63.5L558,65L556.75,66.75L555.75,68.5L555,70.5L554,74L553.75,76L553.25,78L553,80L553,82L552.75,84L553,85.75L553,87.75L553.5,91.75L554.5,95.75L554.5,96L555,98L558,103.25L559.25,104.5L560.5,106L562,107.25L562.25,107.5L564,108.5L565.5,109.5L567.25,110.25L569.25,111L575.25,111.75L576,111.75L578.25,111.5L580,111.25L582,110.75L584,110L585.75,109.25L587.5,108.25L588.25,107.75L590,106.5L591.25,105.25L594,102.25L595,100.75L596,98.75L586.75,94.25L586.25,95.25L585.25,97L584,98.25L582.5,99.5L581,100.25L579.25,101L575.25,101.5L574.75,101.5L572.75,101.25L571,100.5L569.25,99.5L567.5,98L566.75,96.75L565.75,95.25L565,93.25L564.5,91.25L564,89L564,86.25L597.5,86.25Z"/>
        <path d="M43,227.5L41,227.25L39.25,226.75L37.5,225.75L36,224.25L35.75,224.25L34.5,222.5L33.75,221L33,219L33,202.75L33.25,200.75L33.75,198.75L34.75,197.25L36,195.75L36.5,195.25L38,194.25L39.75,193.25L41.75,192.75L43.75,192.5L45,192.5L47,193L48.75,193.75L50.5,194.75L51.25,195.75L52.5,197.25L53.5,199L54.25,200.75L54.5,202L55,204L55.25,206L55.25,208L55.5,210L55.5,211.5L54.75,217.5L54,220.5L53,222.25L50.5,225.25L49.25,225.75L47.75,226.75L45.75,227.25L43.75,227.5L43,227.5ZM66.25,206.25L66,204L65.75,202L65.5,200.25L65,198.5L64.25,196.5L62.75,193L61.5,191.25L58.75,188.5L57.25,187.25L56,186.25L52.5,184.25L50.75,183.5L48.75,183L47,182.75L45,182.5L42.75,182.25L42,182.5L40,182.5L38.25,183L36.25,183.75L34.5,184.75L33,185.75L33,162.75L22,162.75L22,236.25L33,236.25L33,234.25L33.5,234.5L35.25,235.75L37,236.5L38.75,237L40.75,237.5L42.75,237.75L44.5,237.75L46.5,237.5L48.5,237L50.25,236.5L52.25,236L55.75,234L57.25,232.75L58.5,231.75L60,230.25L62.5,227.25L63.25,225.5L64.25,223.75L65,221.75L65.5,219.75L65.75,218.25L66.5,212.25L66.5,208L66.25,206.25Z"/>
        <path d="M112.75,183.75L112.75,217.25L112.5,219.25L112,221.25L111,222.75L109.75,224.25L108.25,225.75L106.5,226.75L104.75,227.25L100.5,227.25L98.75,226.75L97,225.75L95.5,224.5L95.25,224.5L94,223L93,221.25L92.5,219.5L92.25,217.5L92.25,183.75L81.25,183.75L81.25,221.25L81.5,223.5L82,225.25L82.75,227L83.75,228.75L84.75,230.25L86.25,232L88,233.75L89.75,234.75L91.25,235.75L93,236.5L95,237.25L96.75,237.5L99,237.75L99.5,237.75L101.75,237.5L103.75,237.25L105.5,236.75L107.5,236.25L109,235.25L110.75,234.25L112.5,233L112.75,232.75L112.75,236.25L123.75,236.25L123.75,183.75L112.75,183.75Z"/>
        <path d="M180,217.75L179.5,215.75L176.5,211.25L175,210L173.25,209L171.75,208.25L170,207.25L168,206.5L166,206L165.5,206L156.5,203.25L155.25,203L153.5,202L152.5,200.5L152.25,198.5L152.5,197L153.25,195.5L154.5,194.5L156.25,193.75L158.75,193L159,193L161.25,192.75L164,192.75L165.75,193.25L167.75,193.75L169.5,194.5L171,195.75L172.25,196.75L179,188.75L177.5,187.5L175.75,186.25L174,185.25L172.25,184.5L170.5,184L168.5,183.25L166.5,182.75L164.5,182.5L162.5,182.5L161.5,182.25L155.5,183L153.5,183.75L150,185.25L148.25,186.25L146.75,187.25L145.25,188.75L144,190.25L143,191.75L141.5,195.25L141.25,197.25L141.25,200.5L141.5,202.5L142.25,204.25L143,205.75L144,207.25L145,208.5L146.5,209.75L148,210.75L149.75,211.75L151.75,212.5L153,213L163.5,216.25L165,216.75L166.75,217.5L168.25,218.5L169.25,220.25L169.5,221.75L169.25,223.25L168.75,224.5L167.75,225.5L166.25,226.25L164.5,227L162.25,227.25L157.25,227.25L155.5,227L153.5,226.75L151.5,226L149.75,225.25L148,224.25L146.5,223.25L145,222L138.25,230L141.5,232.25L146.75,235.25L148.5,236L150.5,236.5L152.25,237L158.25,237.75L159.25,237.75L161.75,237.5L163.75,237.5L167.75,236.5L169.5,236L171.25,235.25L173,234.25L173.75,234L175.25,232.75L178,230L179,228.25L179.75,226.75L180.25,222.75L180.25,219.5L180,217.75Z"/>
        <path d="M232.75,217.75L232,215.75L231.25,214.25L230.25,212.75L229,211.25L227.75,210L226,209L222.5,207.25L220.75,206.5L218.75,206L218.25,206L209.25,203.25L207.75,203L206.25,202L205.25,200.5L205,198.5L205.25,197L206,195.5L207.25,194.5L209,193.75L211.25,193L211.75,193L213.75,192.75L216.5,192.75L218.5,193.25L220.25,193.75L222,194.5L223.75,195.75L225,196.75L231.75,188.75L228.25,186.25L226.75,185.25L225,184.5L223.25,184L221.25,183.25L219.25,182.75L217.25,182.5L215.25,182.5L214.25,182.25L212.25,182.5L210,182.75L208.25,183L206.25,183.75L202.75,185.25L201,186.25L199.5,187.25L198,188.75L195.5,191.75L194.75,193.5L194.25,195.25L194,197.25L194,200.5L194.25,202.5L195,204.25L195.5,205.75L196.5,207.25L199,209.75L202.5,211.75L204.25,212.5L205.75,213L216,216.25L217.75,216.75L219.5,217.5L221,218.5L222,220.25L222.25,221.75L222,223.25L221.5,224.5L220.5,225.5L219,226.25L217.25,227L215,227.25L210,227.25L208,227L206.25,226.75L204.25,226L202.5,225.25L199,223.25L197.75,222L191,230L192.5,231L194.25,232.25L199.5,235.25L201.25,236L203.25,236.5L205,237L211,237.75L212,237.75L214.25,237.5L216.5,237.5L220.5,236.5L222.25,236L224,235.25L225.5,234.25L226.25,234L228,232.75L230.75,230L231.5,228.25L232.25,226.75L232.75,224.75L233,222.75L233,219.5L232.75,217.75Z"/>
        <path d="M308,227.25L306,227L304.25,226.25L302.5,225.25L301,223.75L300,222.25L299.25,220.75L298.5,219L298,217.25L297.5,215L297.5,212.5L297.25,210L297.25,208.5L297.5,206.25L297.75,204.25L298,202.5L298.5,200.5L299,199.5L299.75,197.75L301,196.25L302.5,194.75L303.5,194.25L307,192.75L310.25,192.75L312.25,193L314,193.75L315.75,194.75L318,197L319,198.75L319.75,200.5L320,202L320.5,204L320.75,206.25L321,208L321,213.5L320.5,215.5L320.25,217.5L319.75,219.5L319.25,220.5L317.25,224L315.75,225.25L315,225.75L313,226.75L311.25,227.25L309,227.5L308,227.25ZM331.75,205.75L331.5,203.5L330.5,199.5L330.5,198.5L329.75,196.5L329,194.75L327,191.25L325.75,189.75L323,187L322.25,186.5L318.75,184.5L317,183.75L315,183.25L313.25,182.75L311.25,182.5L309,182.25L308.25,182.5L306.25,182.5L304.25,183L302.5,183.5L300.5,184L297,186L295.5,187.25L294.75,187.75L293.25,189L292,190.5L291,192L289.75,193.75L288.25,197.25L287.75,199.5L287.5,200L286.75,203.75L286.5,206L286.5,212.75L286.75,215L287,216.75L287.25,218.75L287.75,220.75L288,221.5L288.5,223.5L290.25,227.25L291.25,228.75L292.5,230.25L294,231.75L295.5,233L296,233.5L299.5,235.5L301.25,236.25L303,236.75L305,237.25L309,237.75L310,237.75L314,237.25L316,236.75L319.5,235.25L321.25,234.25L323,233L326.25,229.75L327.5,228L328.5,226.5L329.25,224.5L330,222.75L330.5,220.75L330.75,220L331.25,218L331.75,215.75L332,214L332,207.5L331.75,205.75Z"/>
        <path d="M377.5,219.75L376.75,221.5L375.75,223.25L374.75,224.75L374.25,225L372.75,226.25L371,227.25L369,227.75L365.75,227.75L363.75,227.5L362,226.75L360.25,225.5L359.5,224.75L358.25,223.25L357,221.5L356.5,219.75L356.25,218.5L355.75,216.5L355.25,212.5L355.25,209.25L355.5,207L356,203L356.5,201L357,200L357.75,198.25L360.25,195.25L361.25,194.5L363,193.75L365,193.25L367,193L367.5,193L369.5,193.25L371.5,194L373,194.75L374.75,196L375,196.5L376,198L377,199.75L377.5,201.5L377.75,203.5L377.75,217.75L377.5,219.75ZM377.75,184.25L377.75,186.25L377.25,185.75L375.5,184.75L373.75,184L371.75,183.25L369.75,182.75L366,182.75L362,183.25L360.25,184L358.25,184.75L356.75,185.5L355,186.5L353.25,187.75L349.5,191.5L348.25,193.25L347.5,195L346.5,196.75L345.75,198.5L345.25,200.5L345,202.25L344.5,206.25L344.25,210.25L344.5,212.25L344.75,216.5L345.25,220.5L345.75,221.75L346.25,223.75L347,225.5L348,227.25L349,228.75L350.25,230.25L353.25,233.25L354.25,233.75L356,235L357.75,236L359.75,236.75L363.25,237.75L365.5,238L368.5,238L370.5,237.75L372.5,237.25L374.25,236.75L376,235.75L377.75,234.5L377.75,238.75L377.5,240.75L377,242.5L376,244.25L374.75,245.75L374.75,246L373,247.25L371.25,248.25L369.5,248.5L367.5,248.75L365.75,248.75L363.5,248.5L361.75,248.25L359.75,248.25L355.75,247.25L354,246.5L352,245.75L350.25,245L345.75,254.25L347.75,255.25L349.75,256L353.5,257.25L355.5,257.5L359.5,258.5L361.5,258.75L363.25,259L368.5,259L372.5,258.5L374.25,258L376,257.25L378,256.5L379.5,255.5L381,254.25L383.25,252L385.75,249L386.75,247.25L387.25,245.5L388,243.75L388.5,241.75L388.75,239.75L388.75,184.25L377.75,184.25Z"/>
        <path d="M470.25,226.5L468.75,227L464.75,227.5L463.25,227.25L461.75,226.25L460.75,225L460.25,223L460.25,194.25L473,194.25L473,183.75L460.25,183.75L460.25,162.75L449.25,172.5L449.25,183.75L442,183.75L442,194.25L449.25,194.25L449.25,222.5L449.75,226.5L450.5,228.25L451.25,230.25L453.75,233.25L454,233.25L455.5,234.75L457,235.75L459,236.5L460.75,237.25L462.5,237.5L464.75,237.75L465.25,237.75L467.5,237.5L469.5,237.25L471.25,237L473.25,236.5L470.25,226.5Z"/>
        <path d="M514.25,224.5L512.75,225.5L510.75,226.5L509,227L505,227.5L501,227L499.25,226.5L497.5,225.5L495.75,224.25L494.75,223L494,221.25L493.75,219.25L494,217.75L494.75,215.75L495.75,214.25L497.25,213.25L498.75,212.5L501,212.25L514.75,212.25L515,224.25L514.25,224.5ZM525.25,197L525,195L524.25,193.25L523.25,191.5L522,190L520.75,188.25L517.75,185.75L516,184.75L514.5,183.75L512.5,183L508.75,182.25L501,182.25L495,183L493,183.5L489.25,184.5L487.25,185L485.25,185.75L489,195.25L490.5,194.75L496.5,193.25L502.5,192.5L507.25,192.5L509.25,193L511,193.75L512.5,195L512.75,195.25L513.75,197L514.5,198.75L514.75,200.75L514.75,203.25L499.5,203.25L498.25,203.5L496.25,203.75L494.5,204L492.5,204.75L491,205.75L489.25,206.75L487,209L486,210.5L484.75,212.25L484,214L483.5,215.75L483,219.75L483,220.75L483.25,222.75L483.5,224.5L484.25,226.5L485,228L487,231L490,233.5L492,234.5L492.75,235L494.75,236L498.25,237L500.5,237.25L502.25,237.5L504.5,237.75L505.25,237.75L507.25,237.5L509.25,237L511,236.25L513,235.75L514.75,234.5L514.75,236.25L525.75,236.25L525.75,199L525.25,197Z"/>
        <path d="M567.5,209.25L583.25,183.75L570.25,183.75L561.25,198.75L552,183.75L539,183.75L554.75,209.25L537.75,236.25L550.75,236.25L561.25,219.5L571.5,236.25L584.5,236.25L567.5,209.25Z"/>
        <rect x="597.5" y="183.75" width="11" height="52.5" style="fill-rule:nonzero;"/>
        <path d="M603,161.25L601,161.75L599.5,162.5L598.75,163.25L597.5,164.75L596.75,167.75L597,169.75L598,171.5L598.75,172L600.25,173.25L602.25,173.75L603,173.75L605,173.5L606.75,172.75L607.5,172L608.75,170.5L609.25,168.5L609.25,167.75L609,165.75L608,164L607.5,163.25L606,162L603,161.25Z"/>
    </g>
</svg>
