<?xml version="1.0" encoding="UTF-8" standalone="no"?>
<!DOCTYPE svg PUBLIC "-//W3C//DTD SVG 1.1//EN" "http://www.w3.org/Graphics/SVG/1.1/DTD/svg11.dtd">
<svg width="100%" height="100%" viewBox="0 0 596 310" version="1.1" xmlns="http://www.w3.org/2000/svg" xmlns:xlink="http://www.w3.org/1999/xlink" xml:space="preserve" xmlns:serif="http://www.serif.com/" style="fill-rule:evenodd;clip-rule:evenodd;stroke-linecap:round;stroke-linejoin:round;stroke-miterlimit:2;">
    <g>
        <rect x="0.354" y="0.471" width="594.568" height="309.175" style="fill-rule:nonzero;"/>
        <rect x="0.354" y="0.471" width="594.568" height="309.175" style="fill:none;stroke:black;stroke-width:0.71px;"/>
        <rect x="12.245" y="12.363" width="570.785" height="285.392" style="fill:white;fill-rule:nonzero;"/>
        <rect x="12.245" y="12.363" width="570.785" height="285.392" style="fill:none;stroke:black;stroke-width:0.71px;"/>
        <path d="M241.678,63.749L220.044,135.055C189.266,128.567 158.758,147.165 150.424,177.497C142.091,207.827 158.813,239.402 188.584,249.552C218.356,259.702 250.884,244.916 262.813,215.811C274.741,186.706 261.946,153.346 233.615,139.681L237.798,125.714L295.718,192.004C295.126,198.165 298.81,203.938 304.648,205.998C310.485,208.057 316.977,205.875 320.382,200.705L329.241,200.699C332.319,225.558 350.641,245.824 375.064,251.388C399.487,256.95 424.778,246.615 438.318,225.541C451.857,204.468 450.743,177.169 435.533,157.267C420.322,137.367 394.273,129.126 370.384,136.659L350.866,94.233L355.023,80.598L363.725,80.488C367.315,79.772 369.845,76.542 369.679,72.886C369.513,69.228 366.7,66.241 363.06,65.855L332.908,65.8C329.128,65.816 325.961,68.667 325.549,72.426C325.138,76.185 327.613,79.654 331.301,80.488L340.059,80.598L328.734,117.705L248.107,91.85L252.764,76.386C252.957,74.538 254.507,73.13 256.366,73.116L271.054,73.005C274.629,72.263 277.132,69.028 276.953,65.381C276.773,61.734 273.964,58.76 270.333,58.373L248.461,58.373C245.259,58.466 242.5,60.653 241.678,63.749Z" style="fill-rule:nonzero;"/>
        <path d="M241.678,63.749L220.044,135.055C189.266,128.567 158.758,147.165 150.424,177.497C142.091,207.827 158.813,239.402 188.584,249.552C218.356,259.702 250.884,244.916 262.813,215.811C274.741,186.706 261.946,153.346 233.615,139.681L237.798,125.714L295.718,192.004C295.126,198.165 298.81,203.938 304.648,205.998C310.485,208.057 316.977,205.875 320.382,200.705L329.241,200.699C332.319,225.558 350.641,245.824 375.064,251.388C399.487,256.95 424.778,246.615 438.318,225.541C451.857,204.468 450.743,177.169 435.533,157.267C420.322,137.367 394.273,129.126 370.384,136.659L350.866,94.233L355.023,80.598L363.725,80.488C367.315,79.772 369.845,76.542 369.679,72.886C369.513,69.228 366.7,66.241 363.06,65.855L332.908,65.8C329.128,65.816 325.961,68.667 325.549,72.426C325.138,76.185 327.613,79.654 331.301,80.488L340.059,80.598L328.734,117.705L248.107,91.85L252.764,76.386C252.957,74.538 254.507,73.13 256.366,73.116L271.054,73.005C274.629,72.263 277.132,69.028 276.953,65.381C276.773,61.734 273.964,58.76 270.333,58.373L248.461,58.373C245.259,58.466 242.5,60.653 241.678,63.749Z" style="fill:none;stroke:black;stroke-width:0.71px;"/>
        <path d="M223.025,174.029C221.088,180.635 218.709,187.102 215.905,193.388C215.095,195.147 214.051,196.788 212.801,198.266C210.373,200.728 206.526,201.089 203.683,199.12C200.84,197.152 199.823,193.425 201.273,190.285C204.124,184.725 206.515,178.942 208.423,172.992L216.119,147.93C192.454,143.563 169.409,158.131 163.204,181.382C156.998,204.634 169.718,228.746 192.412,236.752C215.105,244.759 240.14,233.965 249.898,211.967C259.655,189.968 250.853,164.166 229.686,152.717L223.025,174.029Z" style="fill:white;fill-rule:nonzero;"/>
        <path d="M223.025,174.029C221.088,180.635 218.709,187.102 215.905,193.388C215.095,195.147 214.051,196.788 212.801,198.266C210.373,200.728 206.526,201.089 203.683,199.12C200.84,197.152 199.823,193.425 201.273,190.285C204.124,184.725 206.515,178.942 208.423,172.992L216.119,147.93C192.454,143.563 169.409,158.131 163.204,181.382C156.998,204.634 169.718,228.746 192.412,236.752C215.105,244.759 240.14,233.965 249.898,211.967C259.655,189.968 250.853,164.166 229.686,152.717L223.025,174.029Z" style="fill:none;stroke:black;stroke-width:0.71px;"/>
        <path d="M324.356,132.06L309.685,179.755C308.051,179.759 306.427,180.002 304.863,180.474L242.842,109.308L243.784,106.204L324.356,132.06Z" style="fill:white;fill-rule:nonzero;"/>
        <path d="M324.356,132.06L309.685,179.755C308.051,179.759 306.427,180.002 304.863,180.474L242.842,109.308L243.784,106.204L324.356,132.06Z" style="fill:none;stroke:black;stroke-width:0.71px;"/>
        <path d="M357.315,142.596C341.863,152.014 331.538,167.955 329.263,185.907L322.821,185.906L344.548,114.74L357.315,142.596Z" style="fill:white;fill-rule:nonzero;"/>
        <path d="M357.315,142.596C341.863,152.014 331.538,167.955 329.263,185.907L322.821,185.906L344.548,114.74L357.315,142.596Z" style="fill:none;stroke:black;stroke-width:0.48px;"/>
        <path d="M362.971,154.861C352.189,161.926 344.863,173.186 342.774,185.906L377.249,185.906L362.971,154.861Z" style="fill:white;fill-rule:nonzero;"/>
        <path d="M362.971,154.861C352.189,161.926 344.863,173.186 342.774,185.906L377.249,185.906L362.971,154.861Z" style="fill:none;stroke:black;stroke-width:0.48px;"/>
        <path d="M395.04,190.396C396.083,192.673 395.882,195.326 394.509,197.419C393.136,199.513 390.783,200.754 388.279,200.705C373.116,200.407 357.95,200.43 342.788,200.774C345.863,219.578 360.209,234.543 378.866,238.409C397.523,242.276 416.635,234.245 426.93,218.213C437.226,202.18 436.577,181.461 425.297,166.103C414.019,150.747 394.442,143.929 376.063,148.956L395.04,190.396Z" style="fill:white;fill-rule:nonzero;"/>
        <path d="M395.04,190.396C396.083,192.673 395.882,195.326 394.509,197.419C393.136,199.513 390.783,200.754 388.279,200.705C373.116,200.407 357.95,200.43 342.788,200.774C345.863,219.578 360.209,234.543 378.866,238.409C397.523,242.276 416.635,234.245 426.93,218.213C437.226,202.18 436.577,181.461 425.297,166.103C414.019,150.747 394.442,143.929 376.063,148.956L395.04,190.396Z" style="fill:none;stroke:black;stroke-width:0.71px;"/>
    </g>
</svg>
