<?xml version="1.0" encoding="UTF-8" standalone="no"?>
<!DOCTYPE svg PUBLIC "-//W3C//DTD SVG 1.1//EN" "http://www.w3.org/Graphics/SVG/1.1/DTD/svg11.dtd">
<svg width="100%" height="100%" viewBox="0 0 596 596" version="1.1" xmlns="http://www.w3.org/2000/svg" xmlns:xlink="http://www.w3.org/1999/xlink" xml:space="preserve" xmlns:serif="http://www.serif.com/" style="fill-rule:evenodd;clip-rule:evenodd;stroke-linecap:round;stroke-linejoin:round;stroke-miterlimit:2;">
    <g>
        <path d="M564.432,595.647C572.518,595.647 580.273,592.434 585.99,586.716C591.71,580.997 594.922,573.244 594.922,565.156L594.922,31.57C594.922,23.484 591.71,15.728 585.99,10.01C580.273,4.292 572.518,1.079 564.432,1.079L30.844,1.079C22.758,1.079 15.002,4.292 9.284,10.01C3.566,15.728 0.354,23.484 0.354,31.57L0.354,565.156C0.354,573.244 3.566,580.997 9.284,586.716C15.002,592.434 22.758,595.647 30.844,595.647L564.432,595.647Z" style="fill:white;fill-rule:nonzero;"/>
        <path d="M564.432,595.647C572.518,595.647 580.273,592.434 585.99,586.716C591.71,580.997 594.922,573.244 594.922,565.156L594.922,31.57C594.922,23.484 591.71,15.728 585.99,10.01C580.273,4.292 572.518,1.079 564.432,1.079L30.844,1.079C22.758,1.079 15.002,4.292 9.284,10.01C3.566,15.728 0.354,23.484 0.354,31.57L0.354,565.156C0.354,573.244 3.566,580.997 9.284,586.716C15.002,592.434 22.758,595.647 30.844,595.647L564.432,595.647Z" style="fill:none;stroke:white;stroke-width:0.71px;"/>
        <path d="M564.432,580.402C568.475,580.402 572.352,578.795 575.211,575.936C578.07,573.078 579.676,569.199 579.676,565.156L579.676,31.57C579.676,27.527 578.07,23.649 575.211,20.79C572.352,17.931 568.475,16.325 564.432,16.325L30.844,16.325C26.801,16.325 22.923,17.931 20.064,20.79C17.205,23.649 15.599,27.527 15.599,31.57L15.599,565.156C15.599,573.576 22.424,580.402 30.844,580.402L564.432,580.402Z" style="fill:rgb(0,64,128);fill-rule:nonzero;"/>
        <path d="M564.432,580.402C568.475,580.402 572.352,578.795 575.211,575.936C578.07,573.078 579.676,569.199 579.676,565.156L579.676,31.57C579.676,27.527 578.07,23.649 575.211,20.79C572.352,17.931 568.475,16.325 564.432,16.325L30.844,16.325C26.801,16.325 22.923,17.931 20.064,20.79C17.205,23.649 15.599,27.527 15.599,31.57L15.599,565.156C15.599,573.576 22.424,580.402 30.844,580.402L564.432,580.402Z" style="fill:none;stroke:rgb(0,64,128);stroke-width:0.71px;"/>
        <path d="M214.445,179.22L182.505,284.496C137.065,274.918 92.022,302.375 79.719,347.155C67.415,391.934 92.103,438.551 136.058,453.536C180.013,468.521 228.036,446.693 245.647,403.722C263.258,360.752 244.368,311.499 202.54,291.326L208.717,270.705L294.229,368.573C293.355,377.671 298.792,386.195 307.412,389.235C316.031,392.276 325.613,389.052 330.643,381.419L343.721,381.412C348.266,418.113 375.315,448.034 411.373,456.246C447.432,464.458 484.771,449.202 504.761,418.088C524.75,386.975 523.104,346.672 500.649,317.29C478.191,287.908 439.734,275.743 404.465,286.864L375.648,224.226L381.785,204.096L394.633,203.933C399.934,202.876 403.669,198.108 403.423,192.709C403.178,187.31 399.025,182.9 393.651,182.329L349.136,182.247C343.553,182.271 338.877,186.481 338.271,192.031C337.662,197.58 341.317,202.702 346.763,203.933L359.691,204.096L342.974,258.881L223.937,220.707L230.811,197.877C231.096,195.148 233.386,193.07 236.129,193.049L257.814,192.886C263.093,191.789 266.789,187.014 266.523,181.629C266.258,176.244 262.112,171.854 256.75,171.282L224.459,171.282C219.732,171.42 215.658,174.649 214.445,179.22Z" style="fill:white;fill-rule:nonzero;"/>
        <path d="M214.445,179.22L182.505,284.496C137.065,274.918 92.022,302.375 79.719,347.155C67.415,391.934 92.103,438.551 136.058,453.536C180.013,468.521 228.036,446.693 245.647,403.722C263.258,360.752 244.368,311.499 202.54,291.326L208.717,270.705L294.229,368.573C293.355,377.671 298.792,386.195 307.412,389.235C316.031,392.276 325.613,389.052 330.643,381.419L343.721,381.412C348.266,418.113 375.315,448.034 411.373,456.246C447.432,464.458 484.771,449.202 504.761,418.088C524.75,386.975 523.104,346.672 500.649,317.29C478.191,287.908 439.734,275.743 404.465,286.864L375.648,224.226L381.785,204.096L394.633,203.933C399.934,202.876 403.669,198.108 403.423,192.709C403.178,187.31 399.025,182.9 393.651,182.329L349.136,182.247C343.553,182.271 338.877,186.481 338.271,192.031C337.662,197.58 341.317,202.702 346.763,203.933L359.691,204.096L342.974,258.881L223.937,220.707L230.811,197.877C231.096,195.148 233.386,193.07 236.129,193.049L257.814,192.886C263.093,191.789 266.789,187.014 266.523,181.629C266.258,176.244 262.112,171.854 256.75,171.282L224.459,171.282C219.732,171.42 215.658,174.649 214.445,179.22Z" style="fill:none;stroke:white;stroke-width:0.71px;"/>
        <path d="M186.906,342.036C184.045,351.788 180.534,361.337 176.395,370.619C175.198,373.214 173.657,375.636 171.812,377.82C168.227,381.454 162.547,381.987 158.35,379.08C154.152,376.174 152.651,370.672 154.792,366.036C159,357.828 162.531,349.289 165.347,340.505L176.709,303.504C141.77,297.057 107.748,318.564 98.586,352.892C89.423,387.219 108.204,422.82 141.708,434.64C175.214,446.459 212.175,430.524 226.58,398.045C240.985,365.569 227.99,327.474 196.739,310.572L186.906,342.036Z" style="fill:rgb(0,64,128);fill-rule:nonzero;"/>
        <path d="M186.906,342.036C184.045,351.788 180.534,361.337 176.395,370.619C175.198,373.214 173.657,375.636 171.812,377.82C168.227,381.454 162.547,381.987 158.35,379.08C154.152,376.174 152.651,370.672 154.792,366.036C159,357.828 162.531,349.289 165.347,340.505L176.709,303.504C141.77,297.057 107.748,318.564 98.586,352.892C89.423,387.219 108.204,422.82 141.708,434.64C175.214,446.459 212.175,430.524 226.58,398.045C240.985,365.569 227.99,327.474 196.739,310.572L186.906,342.036Z" style="fill:none;stroke:rgb(0,64,128);stroke-width:0.71px;"/>
        <path d="M336.509,280.075L314.85,350.489C312.438,350.495 310.039,350.853 307.73,351.552L216.164,246.484L217.554,241.901L336.509,280.075Z" style="fill:rgb(0,64,128);fill-rule:nonzero;"/>
        <path d="M336.509,280.075L314.85,350.489C312.438,350.495 310.039,350.853 307.73,351.552L216.164,246.484L217.554,241.901L336.509,280.075Z" style="fill:none;stroke:rgb(0,64,128);stroke-width:0.71px;"/>
        <path d="M385.17,295.629C362.356,309.535 347.113,333.068 343.753,359.574L334.242,359.572L366.319,254.503L385.17,295.629Z" style="fill:rgb(0,64,128);fill-rule:nonzero;"/>
        <path d="M385.17,295.629C362.356,309.535 347.113,333.068 343.753,359.574L334.242,359.572L366.319,254.503L385.17,295.629Z" style="fill:none;stroke:rgb(0,64,128);stroke-width:0.71px;"/>
        <path d="M393.52,313.737C377.602,324.165 366.785,340.792 363.702,359.572L414.6,359.572L393.52,313.737Z" style="fill:rgb(0,64,128);fill-rule:nonzero;"/>
        <path d="M393.52,313.737C377.602,324.165 366.785,340.792 363.702,359.572L414.6,359.572L393.52,313.737Z" style="fill:none;stroke:rgb(0,64,128);stroke-width:0.71px;"/>
        <path d="M440.866,366.2C442.406,369.561 442.109,373.478 440.081,376.569C438.055,379.662 434.58,381.493 430.884,381.419C408.498,380.979 386.106,381.013 363.723,381.522C368.263,409.284 389.441,431.377 416.987,437.086C444.532,442.795 472.748,430.939 487.947,407.269C503.148,383.598 502.189,353.008 485.537,330.336C468.885,307.663 439.983,297.597 412.85,305.019L440.866,366.2Z" style="fill:rgb(0,64,128);fill-rule:nonzero;"/>
        <path d="M440.866,366.2C442.406,369.561 442.109,373.478 440.081,376.569C438.055,379.662 434.58,381.493 430.884,381.419C408.498,380.979 386.106,381.013 363.723,381.522C368.263,409.284 389.441,431.377 416.987,437.086C444.532,442.795 472.748,430.939 487.947,407.269C503.148,383.598 502.189,353.008 485.537,330.336C468.885,307.663 439.983,297.597 412.85,305.019L440.866,366.2Z" style="fill:none;stroke:rgb(0,64,128);stroke-width:0.71px;"/>
    </g>
</svg>
