<?xml version="1.0" encoding="UTF-8" standalone="no"?>
<!DOCTYPE svg PUBLIC "-//W3C//DTD SVG 1.1//EN" "http://www.w3.org/Graphics/SVG/1.1/DTD/svg11.dtd">
<svg width="100%" height="100%" viewBox="0 0 596 596" version="1.1" xmlns="http://www.w3.org/2000/svg" xmlns:xlink="http://www.w3.org/1999/xlink" xml:space="preserve" xmlns:serif="http://www.serif.com/" style="fill-rule:evenodd;clip-rule:evenodd;stroke-linecap:round;stroke-linejoin:round;stroke-miterlimit:2;">
    <g>
        <path d="M594.922,298.363C594.922,134.178 461.823,1.079 297.638,1.079C133.453,1.079 0.354,134.178 0.354,298.363C0.354,462.547 133.453,595.647 297.638,595.647C461.823,595.647 594.922,462.547 594.922,298.363Z" style="fill:rgb(211,63,39);fill-rule:nonzero;"/>
        <path d="M594.922,298.363C594.922,134.178 461.823,1.079 297.638,1.079C133.453,1.079 0.354,134.178 0.354,298.363C0.354,462.547 133.453,595.647 297.638,595.647C461.823,595.647 594.922,462.547 594.922,298.363Z" style="fill:none;stroke:rgb(211,63,39);stroke-width:0.71px;"/>
        <path d="M520.601,298.363C520.601,175.224 420.777,75.4 297.638,75.4C174.499,75.4 74.675,175.224 74.675,298.363C74.675,421.502 174.499,521.326 297.638,521.326C420.777,521.326 520.601,421.502 520.601,298.363Z" style="fill:white;fill-rule:nonzero;"/>
        <path d="M520.601,298.363C520.601,175.224 420.777,75.4 297.638,75.4C174.499,75.4 74.675,175.224 74.675,298.363C74.675,421.502 174.499,521.326 297.638,521.326C420.777,521.326 520.601,421.502 520.601,298.363Z" style="fill:none;stroke:white;stroke-width:0.71px;"/>
        <path d="M461.944,285.125L445.027,231.416C427.707,228.234 410.158,226.459 392.551,226.108C374.944,226.459 357.395,228.234 340.074,231.416L323.158,285.125C317.755,288.231 313.904,293.464 312.548,299.546L312.548,324.03L313.197,324.662L471.905,324.662L472.555,324.03L472.555,299.546C471.197,293.464 467.348,288.231 461.944,285.125Z" style="fill:rgb(35,31,32);fill-rule:nonzero;"/>
        <path d="M461.944,285.125L445.027,231.416C427.707,228.234 410.158,226.459 392.551,226.108C374.944,226.459 357.395,228.234 340.074,231.416L323.158,285.125C317.755,288.231 313.904,293.464 312.548,299.546L312.548,324.03L313.197,324.662L471.905,324.662L472.555,324.03L472.555,299.546C471.197,293.464 467.348,288.231 461.944,285.125Z" style="fill:none;stroke:rgb(35,31,32);stroke-width:0.71px;"/>
        <path d="M313.197,329.556L312.548,330.187L312.548,341.652L313.197,342.283L471.905,342.283L472.555,341.652L472.555,330.187L471.905,329.556L313.197,329.556Z" style="fill:rgb(35,31,32);fill-rule:nonzero;"/>
        <path d="M313.197,329.556L312.548,330.187L312.548,341.652L313.197,342.283L471.905,342.283L472.555,341.652L472.555,330.187L471.905,329.556L313.197,329.556Z" style="fill:none;stroke:rgb(35,31,32);stroke-width:0.71px;"/>
        <path d="M322.08,342.283L322.08,356.792L324.021,363.199C329.537,366.147 336.161,366.147 341.678,363.199L343.618,356.792L343.618,342.283L322.08,342.283Z" style="fill:rgb(35,31,32);fill-rule:nonzero;"/>
        <path d="M322.08,342.283L322.08,356.792L324.021,363.199C329.537,366.147 336.161,366.147 341.678,363.199L343.618,356.792L343.618,342.283L322.08,342.283Z" style="fill:none;stroke:rgb(35,31,32);stroke-width:0.3px;"/>
        <path d="M463.021,356.792L463.021,342.283L441.484,342.283L441.484,356.792L443.424,363.199C448.941,366.147 455.565,366.147 461.082,363.199L463.021,356.792Z" style="fill:rgb(35,31,32);fill-rule:nonzero;"/>
        <path d="M463.021,356.792L463.021,342.283L441.484,342.283L441.484,356.792L443.424,363.199C448.941,366.147 455.565,366.147 461.082,363.199L463.021,356.792Z" style="fill:none;stroke:rgb(35,31,32);stroke-width:0.3px;"/>
        <path d="M446.664,281.323C411.936,268.096 373.629,267.677 338.619,280.143L349.108,246.275C363.514,244.35 378.02,243.285 392.551,243.081C407.083,243.285 421.589,244.35 435.993,246.275L446.664,281.323Z" style="fill:white;fill-rule:nonzero;"/>
        <path d="M446.664,281.323C411.936,268.096 373.629,267.677 338.619,280.143L349.108,246.275C363.514,244.35 378.02,243.285 392.551,243.081C407.083,243.285 421.589,244.35 435.993,246.275L446.664,281.323Z" style="fill:none;stroke:white;stroke-width:0.71px;"/>
        <path d="M337.451,312.807L337.451,293.82C334.203,292.092 330.307,292.092 327.058,293.82L327.058,312.807C330.307,314.535 334.203,314.535 337.451,312.807Z" style="fill:white;fill-rule:nonzero;"/>
        <path d="M337.451,312.807L337.451,293.82C334.203,292.092 330.307,292.092 327.058,293.82L327.058,312.807C330.307,314.535 334.203,314.535 337.451,312.807Z" style="fill:none;stroke:white;stroke-width:0.14px;"/>
        <path d="M447.651,312.807C450.899,314.535 454.795,314.535 458.045,312.807L458.045,293.82C454.795,292.092 450.899,292.092 447.651,293.82L447.651,312.807Z" style="fill:white;fill-rule:nonzero;"/>
        <path d="M447.651,312.807C450.899,314.535 454.795,314.535 458.045,312.807L458.045,293.82C454.795,292.092 450.899,292.092 447.651,293.82L447.651,312.807Z" style="fill:none;stroke:white;stroke-width:0.14px;"/>
        <path d="M135.759,365.41L142.364,365.41C143.572,365.41 144.73,364.93 145.585,364.077C146.439,363.222 146.919,362.063 146.919,360.856L146.919,343.222L150.64,343.222L150.64,360.856C150.64,362.063 151.119,363.222 151.973,364.077C152.828,364.93 153.986,365.41 155.194,365.41L161.799,365.41C163.007,365.41 164.166,364.93 165.02,364.077C165.874,363.222 166.354,362.063 166.354,360.856L166.354,335.919L191.393,335.919C194.061,335.919 196.595,337.088 198.326,339.12C200.544,341.723 203.792,343.222 207.212,343.222C210.631,343.222 213.879,341.723 216.098,339.12C217.829,337.088 220.363,335.919 223.031,335.919L247.87,335.919L247.87,360.856C247.87,363.371 249.909,365.41 252.424,365.41L259.028,365.41C260.237,365.41 261.396,364.93 262.25,364.077C263.104,363.222 263.584,362.063 263.584,360.856L263.584,343.222L267.105,343.222L267.105,360.856C267.105,363.371 269.144,365.41 271.66,365.41L278.264,365.41C280.78,365.41 282.819,363.371 282.819,360.856L282.819,193.001C282.819,189.153 279.882,185.942 276.048,185.599C230.12,181.496 183.918,181.469 137.984,185.517C134.147,185.855 131.205,189.069 131.205,192.92L131.205,360.856C131.205,363.371 133.244,365.41 135.759,365.41Z" style="fill:rgb(211,63,39);fill-rule:nonzero;"/>
        <path d="M135.759,365.41L142.364,365.41C143.572,365.41 144.73,364.93 145.585,364.077C146.439,363.222 146.919,362.063 146.919,360.856L146.919,343.222L150.64,343.222L150.64,360.856C150.64,362.063 151.119,363.222 151.973,364.077C152.828,364.93 153.986,365.41 155.194,365.41L161.799,365.41C163.007,365.41 164.166,364.93 165.02,364.077C165.874,363.222 166.354,362.063 166.354,360.856L166.354,335.919L191.393,335.919C194.061,335.919 196.595,337.088 198.326,339.12C200.544,341.723 203.792,343.222 207.212,343.222C210.631,343.222 213.879,341.723 216.098,339.12C217.829,337.088 220.363,335.919 223.031,335.919L247.87,335.919L247.87,360.856C247.87,363.371 249.909,365.41 252.424,365.41L259.028,365.41C260.237,365.41 261.396,364.93 262.25,364.077C263.104,363.222 263.584,362.063 263.584,360.856L263.584,343.222L267.105,343.222L267.105,360.856C267.105,363.371 269.144,365.41 271.66,365.41L278.264,365.41C280.78,365.41 282.819,363.371 282.819,360.856L282.819,193.001C282.819,189.153 279.882,185.942 276.048,185.599C230.12,181.496 183.918,181.469 137.984,185.517C134.147,185.855 131.205,189.069 131.205,192.92L131.205,360.856C131.205,363.371 133.244,365.41 135.759,365.41Z" style="fill:none;stroke:rgb(211,63,39);stroke-width:0.71px;"/>
        <path d="M159.184,305.184C159.184,300.258 155.191,296.266 150.266,296.266C145.34,296.266 141.347,300.258 141.347,305.184C141.347,310.11 145.34,314.102 150.266,314.102C155.191,314.102 159.184,310.11 159.184,305.184Z" style="fill:white;fill-rule:nonzero;"/>
        <path d="M159.184,305.184C159.184,300.258 155.191,296.266 150.266,296.266C145.34,296.266 141.347,300.258 141.347,305.184C141.347,310.11 145.34,314.102 150.266,314.102C155.191,314.102 159.184,310.11 159.184,305.184Z" style="fill:none;stroke:white;stroke-width:0.71px;"/>
        <path d="M272.685,305.184C272.685,300.258 268.692,296.266 263.766,296.266C258.841,296.266 254.848,300.258 254.848,305.184C254.848,310.11 258.841,314.102 263.766,314.102C268.692,314.102 272.685,310.11 272.685,305.184Z" style="fill:white;fill-rule:nonzero;"/>
        <path d="M272.685,305.184C272.685,300.258 268.692,296.266 263.766,296.266C258.841,296.266 254.848,300.258 254.848,305.184C254.848,310.11 258.841,314.102 263.766,314.102C268.692,314.102 272.685,310.11 272.685,305.184Z" style="fill:none;stroke:white;stroke-width:0.71px;"/>
    </g>
</svg>
