<?xml version="1.0" encoding="UTF-8" standalone="no"?>
<!DOCTYPE svg PUBLIC "-//W3C//DTD SVG 1.1//EN" "http://www.w3.org/Graphics/SVG/1.1/DTD/svg11.dtd">
<svg width="100%" height="100%" viewBox="0 0 228 228" version="1.1" xmlns="http://www.w3.org/2000/svg" xmlns:xlink="http://www.w3.org/1999/xlink" xml:space="preserve" xmlns:serif="http://www.serif.com/" style="fill-rule:evenodd;clip-rule:evenodd;stroke-miterlimit:2;">
    <g>
        <path d="M226.907,114.637C226.907,52.213 175.788,1.093 113.363,1.093C51.227,1.093 0.107,52.213 0.107,114.637C0.107,176.773 51.227,227.893 113.363,227.893C175.788,227.893 226.907,176.773 226.907,114.637Z" style="fill:rgb(211,63,39);fill-rule:nonzero;"/>
        <path d="M226.907,114.637C226.907,52.213 175.788,1.093 113.363,1.093C51.227,1.093 0.107,52.213 0.107,114.637C0.107,176.773 51.227,227.893 113.363,227.893C175.788,227.893 226.907,176.773 226.907,114.637Z" style="fill:none;stroke:rgb(211,63,39);stroke-width:0.22px;"/>
        <path d="M198.54,114.637C198.54,67.765 160.235,29.461 113.363,29.461C66.779,29.461 28.475,67.765 28.475,114.637C28.475,161.221 66.779,199.525 113.363,199.525C160.235,199.525 198.54,161.221 198.54,114.637Z" style="fill:white;fill-rule:nonzero;"/>
        <path d="M198.54,114.637C198.54,67.765 160.235,29.461 113.363,29.461C66.779,29.461 28.475,67.765 28.475,114.637C28.475,161.221 66.779,199.525 113.363,199.525C160.235,199.525 198.54,161.221 198.54,114.637Z" style="fill:none;stroke:white;stroke-width:0.22px;"/>
        <path d="M144.611,50.197L115.308,91.885C115.091,92.173 115.091,92.46 115.091,92.821C115.091,93.325 115.667,93.901 116.243,93.901L116.459,93.901L136.115,90.229L136.115,174.829L155.916,174.829L155.916,90.229L175.571,93.901L175.788,93.901C176.363,93.901 176.939,93.325 176.939,92.821C176.939,92.46 176.939,92.173 176.724,91.885L147.419,50.197C147.203,49.621 146.556,49.333 145.979,49.333C145.476,49.333 144.827,49.621 144.611,50.197Z" style="fill:rgb(211,63,39);fill-rule:nonzero;"/>
        <path d="M144.611,50.197L115.308,91.885C115.091,92.173 115.091,92.46 115.091,92.821C115.091,93.325 115.667,93.901 116.243,93.901L116.459,93.901L136.115,90.229L136.115,174.829L155.916,174.829L155.916,90.229L175.571,93.901L175.788,93.901C176.363,93.901 176.939,93.325 176.939,92.821C176.939,92.46 176.939,92.173 176.724,91.885L147.419,50.197C147.203,49.621 146.556,49.333 145.979,49.333C145.476,49.333 144.827,49.621 144.611,50.197Z" style="fill:none;stroke:rgb(211,63,39);stroke-width:0.22px;"/>
        <path d="M50.075,137.317C49.499,136.525 50.075,135.373 50.939,135.373L51.227,135.373L70.811,139.045L70.811,54.517L90.683,54.517L90.683,139.045L110.268,135.373C111.06,135.373 111.708,135.949 111.708,136.525C111.708,136.813 111.708,137.101 111.347,137.317L82.187,179.077C81.539,180.157 79.811,180.157 79.307,179.077L50.075,137.317Z" style="fill:rgb(35,31,32);fill-rule:nonzero;"/>
        <path d="M50.075,137.317C49.499,136.525 50.075,135.373 50.939,135.373L51.227,135.373L70.811,139.045L70.811,54.517L90.683,54.517L90.683,139.045L110.268,135.373C111.06,135.373 111.708,135.949 111.708,136.525C111.708,136.813 111.708,137.101 111.347,137.317L82.187,179.077C81.539,180.157 79.811,180.157 79.307,179.077L50.075,137.317Z" style="fill:none;stroke:rgb(35,31,32);stroke-width:0.22px;"/>
    </g>
</svg>
