<?xml version="1.0" encoding="UTF-8" standalone="no"?>
<!DOCTYPE svg PUBLIC "-//W3C//DTD SVG 1.1//EN" "http://www.w3.org/Graphics/SVG/1.1/DTD/svg11.dtd">
<svg width="100%" height="100%" viewBox="0 0 596 596" version="1.1" xmlns="http://www.w3.org/2000/svg" xmlns:xlink="http://www.w3.org/1999/xlink" xml:space="preserve" xmlns:serif="http://www.serif.com/" style="fill-rule:evenodd;clip-rule:evenodd;stroke-linecap:round;stroke-linejoin:round;stroke-miterlimit:2;">
    <g>
        <path d="M21.163,1.079C15.645,1.079 10.352,3.272 6.449,7.175C2.546,11.077 0.354,16.37 0.354,21.89L0.354,574.837C0.354,580.356 2.546,585.649 6.449,589.552C10.352,593.454 15.645,595.647 21.163,595.647L574.112,595.647C579.631,595.647 584.924,593.454 588.826,589.552C592.729,585.649 594.922,580.356 594.922,574.837L594.922,21.89C594.922,16.37 592.729,11.077 588.826,7.175C584.924,3.272 579.631,1.079 574.112,1.079L21.163,1.079Z" style="fill:white;fill-rule:nonzero;"/>
        <path d="M21.163,1.079C15.645,1.079 10.352,3.272 6.449,7.175C2.546,11.077 0.354,16.37 0.354,21.89L0.354,574.837C0.354,580.356 2.546,585.649 6.449,589.552C10.352,593.454 15.645,595.647 21.163,595.647L574.112,595.647C579.631,595.647 584.924,593.454 588.826,589.552C592.729,585.649 594.922,580.356 594.922,574.837L594.922,21.89C594.922,16.37 592.729,11.077 588.826,7.175C584.924,3.272 579.631,1.079 574.112,1.079L21.163,1.079Z" style="fill:none;stroke:white;stroke-width:0.71px;"/>
        <path d="M21.163,11.484C18.404,11.484 15.757,12.58 13.806,14.532C11.855,16.483 10.759,19.13 10.759,21.89L10.759,574.837C10.759,577.596 11.855,580.243 13.806,582.195C15.757,584.145 18.404,585.242 21.163,585.242L574.112,585.242C579.858,585.242 584.517,580.583 584.517,574.837L584.517,21.89C584.517,19.13 583.421,16.483 581.469,14.532C579.518,12.58 576.872,11.484 574.112,11.484L21.163,11.484Z" style="fill:rgb(0,64,128);fill-rule:nonzero;"/>
        <path d="M21.163,11.484C18.404,11.484 15.757,12.58 13.806,14.532C11.855,16.483 10.759,19.13 10.759,21.89L10.759,574.837C10.759,577.596 11.855,580.243 13.806,582.195C15.757,584.145 18.404,585.242 21.163,585.242L574.112,585.242C579.858,585.242 584.517,580.583 584.517,574.837L584.517,21.89C584.517,19.13 583.421,16.483 581.469,14.532C579.518,12.58 576.872,11.484 574.112,11.484L21.163,11.484Z" style="fill:none;stroke:rgb(0,64,128);stroke-width:0.71px;"/>
        <path d="M542.475,11.484L10.759,543.2L10.759,574.837C10.759,577.596 11.855,580.243 13.806,582.195C15.757,584.145 18.404,585.242 21.163,585.242L52.801,585.242L584.517,53.526L584.517,21.89C584.517,16.143 579.858,11.484 574.112,11.484L542.475,11.484Z" style="fill:rgb(211,63,39);fill-rule:nonzero;"/>
        <path d="M542.475,11.484L10.759,543.2L10.759,574.837C10.759,577.596 11.855,580.243 13.806,582.195C15.757,584.145 18.404,585.242 21.163,585.242L52.801,585.242L584.517,53.526L584.517,21.89C584.517,16.143 579.858,11.484 574.112,11.484L542.475,11.484Z" style="fill:none;stroke:rgb(211,63,39);stroke-width:0.71px;"/>
        <path d="M446.205,268.935L398.826,268.935L398.826,239.218L337.521,300.522L367.239,300.522L367.239,347.902L398.826,347.902L398.826,300.522L446.205,300.522L446.205,268.935Z" style="fill:rgb(35,31,32);fill-rule:nonzero;"/>
        <path d="M446.205,268.935L398.826,268.935L398.826,239.218L337.521,300.522L367.239,300.522L367.239,347.902L398.826,347.902L398.826,300.522L446.205,300.522L446.205,268.935Z" style="fill:none;stroke:rgb(35,31,32);stroke-width:0.71px;"/>
        <path d="M282.225,271.733C284.082,267.678 285.637,263.492 286.879,259.209C294.807,235.704 288.936,209.741 271.669,191.933C254.401,174.124 228.63,167.456 204.893,174.655C181.155,181.853 163.429,201.711 158.96,226.111L194.794,232.975C196.911,217.053 211.182,205.616 227.183,207.016C243.184,208.417 255.25,222.161 254.568,238.208C253.563,250.981 248.141,263.005 239.235,272.216L163.739,350.29L163.739,381.346L172.612,381.346L282.225,271.733Z" style="fill:rgb(35,31,32);fill-rule:nonzero;"/>
        <path d="M282.225,271.733C284.082,267.678 285.637,263.492 286.879,259.209C294.807,235.704 288.936,209.741 271.669,191.933C254.401,174.124 228.63,167.456 204.893,174.655C181.155,181.853 163.429,201.711 158.96,226.111L194.794,232.975C196.911,217.053 211.182,205.616 227.183,207.016C243.184,208.417 255.25,222.161 254.568,238.208C253.563,250.981 248.141,263.005 239.235,272.216L163.739,350.29L163.739,381.346L172.612,381.346L282.225,271.733Z" style="fill:none;stroke:rgb(35,31,32);stroke-width:0.71px;"/>
        <path d="M290.35,347.902L290.142,347.902L256.696,381.346L290.35,381.346L290.35,347.902Z" style="fill:rgb(35,31,32);fill-rule:nonzero;"/>
        <path d="M290.35,347.902L290.142,347.902L256.696,381.346L290.35,381.346L290.35,347.902Z" style="fill:none;stroke:rgb(35,31,32);stroke-width:0.47px;"/>
        <path d="M419.251,134.707C378.528,126.315 337.024,122.319 295.449,122.788C247.679,122.273 200.025,127.606 153.551,138.669L115.075,277.018C97.907,284.724 86.831,301.755 86.75,320.573L86.75,425.939L117.207,425.939L117.207,436.752L172.612,381.346L163.739,381.346L163.739,350.29L239.235,272.216C248.141,263.005 253.563,250.981 254.568,238.208C255.25,222.161 243.184,208.417 227.183,207.016C211.182,205.616 196.911,217.053 194.794,232.975L158.96,226.111C163.429,201.711 181.155,181.853 204.893,174.655C228.63,167.456 254.401,174.124 271.669,191.933C288.936,209.741 294.807,235.704 286.879,259.209C285.637,263.492 284.082,267.678 282.225,271.733L419.251,134.707Z" style="fill:white;fill-rule:nonzero;"/>
        <path d="M419.251,134.707C378.528,126.315 337.024,122.319 295.449,122.788C247.679,122.273 200.025,127.606 153.551,138.669L115.075,277.018C97.907,284.724 86.831,301.755 86.75,320.573L86.75,425.939L117.207,425.939L117.207,436.752L172.612,381.346L163.739,381.346L163.739,350.29L239.235,272.216C248.141,263.005 253.563,250.981 254.568,238.208C255.25,222.161 243.184,208.417 227.183,207.016C211.182,205.616 196.911,217.053 194.794,232.975L158.96,226.111C163.429,201.711 181.155,181.853 204.893,174.655C228.63,167.456 254.401,174.124 271.669,191.933C288.936,209.741 294.807,235.704 286.879,259.209C285.637,263.492 284.082,267.678 282.225,271.733L419.251,134.707Z" style="fill:none;stroke:white;stroke-width:0.71px;"/>
        <path d="M508.525,320.573C508.444,301.755 497.368,284.724 480.201,277.018L456.025,182.018L398.826,239.218L398.826,268.935L446.205,268.935L446.205,300.522L398.826,300.522L398.826,347.902L367.239,347.902L367.239,300.522L337.521,300.522L290.35,347.694L290.35,381.346L256.696,381.346L212.104,425.939L426.045,425.939L426.045,464L430.844,482.524C444.516,487.684 459.599,487.684 473.271,482.524L478.069,464L478.069,425.939L508.525,425.939L508.525,320.573Z" style="fill:white;fill-rule:nonzero;"/>
        <path d="M508.525,320.573C508.444,301.755 497.368,284.724 480.201,277.018L456.025,182.018L398.826,239.218L398.826,268.935L446.205,268.935L446.205,300.522L398.826,300.522L398.826,347.902L367.239,347.902L367.239,300.522L337.521,300.522L290.35,347.694L290.35,381.346L256.696,381.346L212.104,425.939L426.045,425.939L426.045,464L430.844,482.524C444.516,487.684 459.599,487.684 473.271,482.524L478.069,464L478.069,425.939L508.525,425.939L508.525,320.573Z" style="fill:none;stroke:white;stroke-width:0.71px;"/>
    </g>
</svg>
